<?xml version="1.0" encoding="UTF-8"?>
<svg width="181px" height="180px" viewBox="0 0 181 180" version="1.1" xmlns="http://www.w3.org/2000/svg" xmlns:xlink="http://www.w3.org/1999/xlink">
    <title>编组 59</title>
    <defs>
        <linearGradient x1="50%" y1="0.422475726%" x2="50%" y2="98.8993046%" id="linearGradient-1">
            <stop stop-color="#72D0FF" offset="0%"></stop>
            <stop stop-color="#388AFF" offset="99.9472128%"></stop>
        </linearGradient>
        <linearGradient x1="4.11166301%" y1="49.382716%" x2="97.2086592%" y2="50.4126866%" id="linearGradient-2">
            <stop stop-color="#72D0FF" offset="0%"></stop>
            <stop stop-color="#4EC2F7" offset="100%"></stop>
        </linearGradient>
        <linearGradient x1="50%" y1="0.422475726%" x2="50%" y2="98.8993046%" id="linearGradient-3">
            <stop stop-color="#72D0FF" offset="0%"></stop>
            <stop stop-color="#388AFF" offset="99.9472128%"></stop>
        </linearGradient>
        <linearGradient x1="4.11166301%" y1="49.0487515%" x2="97.2086592%" y2="50.6359594%" id="linearGradient-4">
            <stop stop-color="#72D0FF" offset="0%"></stop>
            <stop stop-color="#4EC2F7" offset="100%"></stop>
        </linearGradient>
        <linearGradient x1="4.11166301%" y1="49.7256516%" x2="97.2086592%" y2="50.1834163%" id="linearGradient-5">
            <stop stop-color="#72D0FF" offset="0%"></stop>
            <stop stop-color="#4EC2F7" offset="100%"></stop>
        </linearGradient>
        <linearGradient x1="73.1837385%" y1="2.8877444%" x2="13.7259239%" y2="82.9544669%" id="linearGradient-6">
            <stop stop-color="#E5F6FC" offset="0%"></stop>
            <stop stop-color="#C7D1F8" stop-opacity="0" offset="100%"></stop>
        </linearGradient>
        <linearGradient x1="50%" y1="0.422475726%" x2="50%" y2="98.8993046%" id="linearGradient-7">
            <stop stop-color="#72D0FF" offset="0%"></stop>
            <stop stop-color="#388AFF" offset="99.9472128%"></stop>
        </linearGradient>
        <linearGradient x1="50%" y1="0.422475726%" x2="50%" y2="98.8993046%" id="linearGradient-8">
            <stop stop-color="#72D0FF" offset="0%"></stop>
            <stop stop-color="#388AFF" offset="99.9472128%"></stop>
        </linearGradient>
        <linearGradient x1="100%" y1="46.4623751%" x2="7.61048598%" y2="53.5376249%" id="linearGradient-9">
            <stop stop-color="#92E2FA" offset="0%"></stop>
            <stop stop-color="#59C1F3" offset="100%"></stop>
        </linearGradient>
        <linearGradient x1="50%" y1="0.422475726%" x2="50%" y2="98.8993046%" id="linearGradient-10">
            <stop stop-color="#72D0FF" offset="0%"></stop>
            <stop stop-color="#388AFF" offset="99.9472128%"></stop>
        </linearGradient>
        <linearGradient x1="50%" y1="0.422475726%" x2="50%" y2="98.8993046%" id="linearGradient-11">
            <stop stop-color="#72D0FF" offset="0%"></stop>
            <stop stop-color="#388AFF" offset="99.9472128%"></stop>
        </linearGradient>
        <linearGradient x1="50%" y1="0%" x2="50%" y2="98.8202069%" id="linearGradient-12">
            <stop stop-color="#72D0FF" offset="0%"></stop>
            <stop stop-color="#38B0FF" offset="100%"></stop>
        </linearGradient>
        <linearGradient x1="50%" y1="0.422475726%" x2="50%" y2="98.8993046%" id="linearGradient-13">
            <stop stop-color="#72D0FF" offset="0%"></stop>
            <stop stop-color="#388AFF" offset="99.9472128%"></stop>
        </linearGradient>
        <linearGradient x1="50%" y1="0.422475726%" x2="50%" y2="98.8993046%" id="linearGradient-14">
            <stop stop-color="#72D0FF" offset="0%"></stop>
            <stop stop-color="#388AFF" offset="99.9472128%"></stop>
        </linearGradient>
        <linearGradient x1="50%" y1="0.422475726%" x2="50%" y2="98.8993046%" id="linearGradient-15">
            <stop stop-color="#72D0FF" offset="0%"></stop>
            <stop stop-color="#388AFF" offset="99.9472128%"></stop>
        </linearGradient>
        <linearGradient x1="50%" y1="0.422475726%" x2="50%" y2="98.8993046%" id="linearGradient-16">
            <stop stop-color="#72D0FF" offset="0%"></stop>
            <stop stop-color="#388AFF" offset="99.9472128%"></stop>
        </linearGradient>
        <linearGradient x1="50%" y1="0.422475726%" x2="50%" y2="98.8993046%" id="linearGradient-17">
            <stop stop-color="#72D0FF" offset="0%"></stop>
            <stop stop-color="#388AFF" offset="99.9472128%"></stop>
        </linearGradient>
        <linearGradient x1="50%" y1="0%" x2="50%" y2="98.8202069%" id="linearGradient-18">
            <stop stop-color="#72D0FF" offset="0%"></stop>
            <stop stop-color="#38B0FF" offset="100%"></stop>
        </linearGradient>
        <linearGradient x1="50%" y1="0.422475726%" x2="50%" y2="98.8993046%" id="linearGradient-19">
            <stop stop-color="#72D0FF" offset="0%"></stop>
            <stop stop-color="#388AFF" offset="99.9472128%"></stop>
        </linearGradient>
    </defs>
    <g id="页面-1" stroke="none" stroke-width="1" fill="none" fill-rule="evenodd">
        <g id="机器与数据智能-机器数据分析平台02✅" transform="translate(-504.000000, -752.000000)">
            <g id="编组-59" transform="translate(504.000000, 752.000000)">
                <rect id="矩形" fill="#D8D8D8" opacity="0" x="0" y="0" width="180" height="180"></rect>
                <g id="编组-57" transform="translate(0.000000, 16.132075)">
                    <g id="编组-42" transform="translate(126.509434, 50.943396)">
                        <path d="M4.0392,0 L49.451366,0 C51.6821546,3.55288731e-15 53.490566,1.80841144 53.490566,4.0392 L53.490566,91.9041962 C53.490566,94.1349848 51.6821546,95.9433962 49.451366,95.9433962 L4.0392,95.9433962 C1.80841144,95.9433962 9.08672426e-15,94.1349848 0,91.9041962 L0,4.0392 C-2.73192807e-16,1.80841144 1.80841144,1.29796763e-15 4.0392,0 Z" id="矩形" fill="url(#linearGradient-1)"></path>
                        <rect id="矩形" fill="#FFFFFF" fill-rule="nonzero" x="24.0948679" y="3.42950943" width="5.48721509" height="1.37180377" rx="0.685901887"></rect>
                        <circle id="椭圆形" fill="#FFFFFF" fill-rule="nonzero" cx="26.8384755" cy="4.11541132" r="1"></circle>
                        <path d="M50.8450415,90.2370112 C50.8442652,92.2981081 49.1191794,93.9685585 46.9914466,93.9685585 L6.68550433,93.9685585 C4.55777156,93.9685585 2.8326857,92.2981081 2.83190943,90.2370112 L2.83190943,7.16241859 C2.83190943,5.10078979 4.55722264,3.42950943 6.68550433,3.42950943 L14.6394084,3.42950943 L14.6394084,4.07776363 C14.6425092,5.77344722 16.0620356,7.14668962 17.8125436,7.14743792 L35.5269893,7.14743792 C36.3685571,7.14743792 37.1756565,6.82359629 37.7707348,6.24715448 C38.3658131,5.67071268 38.7001246,4.88888981 38.7001246,4.073678 L38.7001246,3.42950943 L46.9984762,3.42950943 C49.1240121,3.43326531 50.8450415,5.1034461 50.8450415,7.16241859 L50.8450415,90.2370112 Z" id="路径" fill="#FFFFFF" fill-rule="nonzero"></path>
                        <g id="编组-38" transform="translate(8.319125, 49.819653)">
                            <rect id="矩形" fill="url(#linearGradient-2)" opacity="0.469470796" x="-1.71937936e-13" y="4.52468252e-14" width="37.0387019" height="4.11541132" rx="1.61568"></rect>
                            <rect id="矩形" fill="#479CFF" opacity="0.3492141" x="-1.35740475e-13" y="8.23082264" width="19.8911547" height="2.74360755" rx="1.37180377"></rect>
                            <rect id="矩形" fill="url(#linearGradient-3)" opacity="0.534249442" x="24.6924679" y="8.23082264" width="12.346234" height="15.0898415" rx="1.61568"></rect>
                            <rect id="矩形" fill="url(#linearGradient-4)" opacity="0.469470796" x="-1.35740475e-13" y="14.4039396" width="19.8911547" height="2.74360755" rx="1.37180377"></rect>
                            <rect id="矩形备份-13" fill="#479CFF" opacity="0.3492141" x="-1.35740475e-13" y="20.5770566" width="19.8911547" height="2.74360755" rx="1.37180377"></rect>
                            <rect id="矩形备份-14" fill="url(#linearGradient-5)" opacity="0.469470796" x="-1.71937936e-13" y="26.7501736" width="37.0387019" height="2.74360755" rx="1.37180377"></rect>
                            <rect id="矩形备份-15" fill="#479CFF" opacity="0.3492141" x="-9.65265603e-14" y="32.9232906" width="29.4937811" height="2.74360755" rx="1.37180377"></rect>
                        </g>
                        <g id="编组-9" transform="translate(14.492242, 17.582264)">
                            <circle id="椭圆形" fill="url(#linearGradient-6)" cx="12.5025653" cy="12.5025653" r="12.5025653"></circle>
                            <path d="M12.6900728,2.74456143 C13.4793782,2.75162218 14.1134549,3.39078403 14.1063226,4.17216942 C14.1040301,4.423329 14.0357693,4.65861184 13.9179733,4.86204106 C14.3025597,5.24962949 14.5400223,5.78238506 14.5400223,6.37004648 C14.5400223,6.53724805 14.5207993,6.7000049 14.4844218,6.85626925 C14.4850439,6.85742902 14.4867226,6.85806877 14.488401,6.85870926 L14.4884424,6.8579123 C16.6961445,7.70121425 18.2625211,9.8216232 18.2625211,12.304208 C18.2625211,12.5411632 18.2482512,12.7748189 18.2205158,13.004379 C18.2615651,13.138917 18.2851209,13.2954928 18.2851209,13.4622751 C18.2851209,13.9157475 18.1109803,14.2937669 17.8799892,14.3787453 C17.7735406,14.6536335 17.6462123,14.9210703 17.4999814,15.1765077 C16.9797965,16.7090193 15.7780929,17.9319507 14.2514403,18.4925467 L14.2516067,18.5856831 C14.2489568,18.5866466 14.2463064,18.5876079 14.2436554,18.5885671 L14.2432151,20.1306075 L17.0432117,20.1315482 C17.0432117,20.1315482 18.6467278,20.2622539 19.1578788,22.4760438 L19.2052528,22.7044387 C17.2150954,24.0041187 14.8826904,24.6954852 12.4985131,24.6924521 C9.98901557,24.6964837 7.53979325,23.9313152 5.48721509,22.5020167 C5.99301864,20.2625898 7.60728526,20.1315482 7.60728526,20.1315482 L7.60728526,20.1315482 L10.4682151,20.1306075 L10.4681513,18.4854729 C8.9502711,17.9215849 7.75624537,16.7020705 7.23799899,15.1753234 C7.09237093,14.9206718 6.96536677,14.653907 6.85904062,14.3770545 C6.6274732,14.2954711 6.45254653,13.9167699 6.45254653,13.4622751 C6.45254653,13.2946891 6.47632993,13.1374081 6.51797671,13.0014145 C6.49040924,12.7734565 6.47622244,12.5404724 6.47622244,12.304208 C6.47622244,9.82502038 8.03831517,7.70701808 10.2412829,6.8621751 C10.21561,6.75606531 10.1984834,6.64679541 10.1899445,6.53515104 C9.98632402,6.00819776 9.9981432,5.41520956 10.2374637,4.88703879 C10.251454,4.85614279 10.2665205,4.8252468 10.281587,4.79541618 C10.1069953,5.23455083 10.0878696,5.69757635 10.1991425,6.12361752 C10.2647919,5.54237257 10.564404,5.03207316 11.002036,4.68542484 C10.9561776,4.54747184 10.9315983,4.3999505 10.9315983,4.24674595 C10.9315983,3.46477215 11.5719387,2.83085714 12.3618385,2.83085714 C13.1517384,2.83085714 13.7920788,3.46477215 13.7920788,4.24674595 C13.7920788,4.3999505 13.7674995,4.54747184 13.7220317,4.68565617 C13.7253979,4.68839736 13.7299578,4.69203556 13.7345026,4.69569152 C13.8109075,4.50456705 13.8450765,4.29368716 13.828374,4.07600541 C13.7730988,3.35560905 13.1784304,2.79216428 12.4490089,2.76906515 L12.4490089,2.76906515 L12.3661433,2.76906515 C12.4724808,2.74885212 12.5807894,2.74063178 12.6889966,2.74456143 L12.6889966,2.74456143 Z" id="形状结合" fill="url(#linearGradient-7)" opacity="0.832473028"></path>
                        </g>
                    </g>
                    <g id="编组-56" transform="translate(0.000000, 11.886792)">
                        <path d="M4.5121536,0 L97.3746389,0 C99.8666325,-8.42293321e-15 101.886792,2.02015998 101.886792,4.5121536 L101.886792,131.336903 C101.886792,133.828897 99.8666325,135.849057 97.3746389,135.849057 L4.5121536,135.849057 C2.02015998,135.849057 3.85789488e-15,133.828897 0,131.336903 L0,4.5121536 C-3.05181201e-16,2.02015998 2.02015998,-3.09494188e-15 4.5121536,0 Z" id="矩形" fill="url(#linearGradient-8)"></path>
                        <rect id="矩形" fill="#FFFFFF" fill-rule="nonzero" x="4.24528302" y="11.8867925" width="93.3962264" height="110.377358" rx="0.7520256"></rect>
                        <circle id="椭圆形" fill="#F6F7F9" fill-rule="nonzero" cx="51.0809842" cy="6.38512302" r="1.2770246"></circle>
                        <circle id="椭圆形" fill="#F6F7F9" fill-rule="nonzero" cx="51.7194965" cy="128.979485" r="3.83107381"></circle>
                        <g id="编组" opacity="0.2" transform="translate(7.641509, 48.396226)" fill="url(#linearGradient-9)" fill-rule="nonzero">
                            <polygon id="路径" opacity="0.827055432" points="86.289191 22.94047 0.174313858 22.94047 0.174313858 9.81904218 8.07207252 13.7114132 16.2456685 14.820509 23.4174387 12.6578679 32.0699189 5.94774209 36.4220187 3.43455767 39.6037255 2.82158586 42.6475137 2.9844065 47.6528116 5.45736464 54.4587142 9.79222466 59.7992311 10.4779869 64.0325677 9.01834775 73.0087736 1.66843264 77.5907379 0.0344796643 82.3853268 0.775792447 86.289191 3.03037938"></polygon>
                        </g>
                        <path d="M22.6482364,63.0813392 C14.8949842,63.0813392 7.73150767,58.3850815 7.64150943,58.3243868 L7.85597331,58.0095327 C7.96703497,58.0835044 18.9927762,65.3080786 28.3621669,61.689153 C31.7782702,60.3614549 34.2101374,58.3167999 36.5634955,56.330943 C39.0202558,54.2578373 41.3391465,52.300431 44.5024887,51.4507043 C48.1292261,50.4776912 52.0929782,51.3577654 55.1050468,53.8102134 C57.6805282,55.9060796 62.8085128,59.2708458 68.2256406,58.2655887 C70.986863,57.7515799 73.3134131,55.7543427 75.7778329,53.6395093 C80.5017828,49.5843401 85.3884955,45.390711 93.8406702,51.4070799 L93.616632,51.7143472 C85.4095589,45.8724757 80.6415673,49.9674759 76.028679,53.9259128 C73.5240473,56.0748869 71.1592001,58.0986781 68.2964902,58.6373442 C62.7242591,59.6729487 57.4890426,56.2399008 54.8618601,54.1023069 C51.9455343,51.7295208 48.1119924,50.8778974 44.6020613,51.8167696 C41.5229727,52.6437358 39.2404643,54.5745881 36.8105119,56.6192431 C34.4341755,58.6259639 31.9774152,60.6990696 28.5019514,62.0419413 C26.6332369,62.7470049 24.6478433,63.0995355 22.6482364,63.0813392 Z" id="路径" fill="url(#linearGradient-10)"></path>
                        <circle id="椭圆形" fill="url(#linearGradient-11)" cx="50.6310195" cy="51.4800761" r="2.23479306"></circle>
                        <g id="编组-55" transform="translate(33.962264, 32.264151) scale(-1, 1) translate(-33.962264, -32.264151) translate(20.377358, 22.924528)">
                            <path d="M26.7424716,0 L0.427339748,0 C0.191326522,0 0,0.191620435 0,0.427996221 L0,18.2517862 C0,18.4271414 0.107230772,18.5846187 0.270021333,18.6491729 C0.432811894,18.7137271 0.618451074,18.6722969 0.738473073,18.5446257 L5.29863801,13.673353 C5.37916416,13.587061 5.49183947,13.5381147 5.60977134,13.5381963 L26.7424716,13.5381963 C26.9784848,13.5381963 27.1698113,13.3465758 27.1698113,13.1102 L27.1698113,0.424241868 C27.1677538,0.189333558 26.9770286,0 26.7424716,0 Z" id="路径" fill="url(#linearGradient-12)"></path>
                            <rect id="矩形" fill="#F6F7F9" fill-rule="nonzero" x="6.73325525" y="3.25447608" width="15.3242952" height="1.91553691" rx="0.957768453"></rect>
                            <rect id="矩形" fill="#F6F7F9" fill-rule="nonzero" x="6.73325525" y="7.72406219" width="4.46958611" height="1.91553691" rx="0.957768453"></rect>
                            <rect id="矩形" fill="#F6F7F9" fill-rule="nonzero" x="15.0339152" y="7.72406219" width="6.38512302" height="1.91553691" rx="0.957768453"></rect>
                        </g>
                        <g id="编组" opacity="0.2" transform="translate(15.324295, 84.922136)" fill="#59C1F3" fill-rule="nonzero">
                            <rect id="矩形" x="0.0727904024" y="0.061297181" width="4.20460351" height="1.91553691"></rect>
                        </g>
                        <g id="编组" opacity="0.2" transform="translate(15.324295, 88.753210)" fill="#59C1F3" fill-rule="nonzero">
                            <rect id="矩形" x="0.0727904024" y="0.124509899" width="4.20460351" height="1.91553691"></rect>
                        </g>
                        <g id="编组" opacity="0.2" transform="translate(15.324295, 92.584284)" fill="#59C1F3" fill-rule="nonzero">
                            <rect id="矩形" x="0.0727904024" y="0.187722617" width="4.20460351" height="1.91553691"></rect>
                        </g>
                        <g id="编组" opacity="0.2" transform="translate(15.324295, 96.415358)" fill="#59C1F3" fill-rule="nonzero">
                            <rect id="矩形" x="0.0727904024" y="0.061297181" width="4.20460351" height="1.91553691"></rect>
                        </g>
                        <g id="编组" opacity="0.2" transform="translate(15.324295, 99.607919)" fill="#59C1F3" fill-rule="nonzero">
                            <rect id="矩形" x="0.0727904024" y="0.124509899" width="4.20460351" height="1.91553691"></rect>
                        </g>
                        <g id="编组" opacity="0.2" transform="translate(15.324295, 103.438993)" fill="#59C1F3" fill-rule="nonzero">
                            <rect id="矩形" x="0.0727904024" y="0.187722617" width="4.20460351" height="1.91553691"></rect>
                        </g>
                        <g id="编组" opacity="0.2" transform="translate(15.324295, 107.270067)" fill="#59C1F3" fill-rule="nonzero">
                            <rect id="矩形" x="0.0727904024" y="0.061297181" width="4.20460351" height="1.91553691"></rect>
                        </g>
                        <g id="编组" opacity="0.2" transform="translate(15.324295, 110.462628)" fill="#59C1F3" fill-rule="nonzero">
                            <rect id="矩形" x="0.0727904024" y="0.124509899" width="4.20460351" height="1.91553691"></rect>
                        </g>
                        <g id="编组" opacity="0.2" transform="translate(23.624955, 112.378165)" fill="#59C1F3" fill-rule="nonzero">
                            <rect id="矩形" x="0.13600312" y="0.124509899" width="4.20460351" height="1.91553691"></rect>
                        </g>
                        <g id="编组" opacity="0.2" transform="translate(30.648590, 112.378165)" fill="#59C1F3" fill-rule="nonzero">
                            <rect id="矩形" x="0.0727904024" y="0.124509899" width="4.20460351" height="1.91553691"></rect>
                        </g>
                        <g id="编组" opacity="0.2" transform="translate(38.310738, 112.378165)" fill="#59C1F3" fill-rule="nonzero">
                            <rect id="矩形" x="0.00957768453" y="0.124509899" width="4.20460351" height="1.91553691"></rect>
                        </g>
                        <g id="编组" opacity="0.2" transform="translate(45.972886, 112.378165)" fill="#59C1F3" fill-rule="nonzero">
                            <rect id="矩形" x="0.13600312" y="0.124509899" width="4.20460351" height="1.91553691"></rect>
                        </g>
                        <g id="编组" opacity="0.2" transform="translate(52.996521, 112.378165)" fill="#59C1F3" fill-rule="nonzero">
                            <rect id="矩形" x="0.0727904024" y="0.124509899" width="4.20460351" height="1.91553691"></rect>
                        </g>
                        <g id="编组" opacity="0.2" transform="translate(60.658669, 112.378165)" fill="#59C1F3" fill-rule="nonzero">
                            <rect id="矩形" x="0.00957768453" y="0.124509899" width="4.20460351" height="1.91553691"></rect>
                        </g>
                        <g id="编组" opacity="0.2" transform="translate(68.320816, 112.378165)" fill="#59C1F3" fill-rule="nonzero">
                            <rect id="矩形" x="0.13600312" y="0.124509899" width="4.20460351" height="1.91553691"></rect>
                        </g>
                        <g id="编组" opacity="0.2" transform="translate(75.344452, 112.378165)" fill="#59C1F3" fill-rule="nonzero">
                            <rect id="矩形" x="0.0727904024" y="0.124509899" width="4.20460351" height="1.91553691"></rect>
                        </g>
                        <g id="编组" opacity="0.2" transform="translate(83.006599, 112.378165)" fill="#59C1F3" fill-rule="nonzero">
                            <rect id="矩形" x="0.00957768453" y="0.124509899" width="4.20460351" height="1.91553691"></rect>
                        </g>
                        <rect id="矩形" fill="url(#linearGradient-13)" x="23.6249552" y="98.9694068" width="4.46958611" height="12.1317337"></rect>
                        <rect id="矩形" fill="url(#linearGradient-14)" x="30.6485905" y="93.2227961" width="4.46958611" height="17.8783445"></rect>
                        <rect id="矩形" fill="url(#linearGradient-15)" x="38.3107381" y="88.75321" width="4.46958611" height="22.3479306"></rect>
                        <rect id="矩形" fill="url(#linearGradient-16)" x="45.9728857" y="91.3072592" width="4.46958611" height="19.7938814"></rect>
                        <rect id="矩形" fill="url(#linearGradient-17)" x="52.9965211" y="86.8376731" width="4.46958611" height="24.2634675"></rect>
                        <g id="编组" opacity="0.2" transform="translate(60.658669, 96.415358)" fill="#59C1F3" fill-rule="nonzero">
                            <rect id="矩形" x="0.00957768453" y="0.061297181" width="4.20460351" height="14.8128469"></rect>
                        </g>
                        <g id="编组" opacity="0.2" transform="translate(68.320816, 96.415358)" fill="#59C1F3" fill-rule="nonzero">
                            <rect id="矩形" x="0.13600312" y="0.061297181" width="4.20460351" height="14.8128469"></rect>
                        </g>
                        <g id="编组" opacity="0.2" transform="translate(75.344452, 96.415358)" fill="#59C1F3" fill-rule="nonzero">
                            <rect id="矩形" x="0.0727904024" y="0.061297181" width="4.20460351" height="14.8128469"></rect>
                        </g>
                        <g id="编组" opacity="0.2" transform="translate(83.006599, 96.415358)" fill="#59C1F3" fill-rule="nonzero">
                            <rect id="矩形" x="0.00957768453" y="0.061297181" width="4.20460351" height="14.8128469"></rect>
                        </g>
                    </g>
                    <g id="实时监控" transform="translate(131.603774, 0.000000)">
                        <rect id="矩形" fill="#000000" fill-rule="nonzero" opacity="0" x="0" y="0" width="39.9070189" height="39.9070189"></rect>
                        <path d="M33.4026425,17.0407647 C33.4026425,9.74136566 27.3947655,3.82429274 19.9835176,3.82429274 C12.5722698,3.82429274 6.56439283,9.74175538 6.56439283,17.0407647 C6.56439283,22.9165276 10.4580552,27.8959415 15.842385,29.6145934 L13.5843648,34.4872248 L11.7947844,34.4872248 C11.3228372,34.4872248 10.9385762,34.86564 10.9385762,35.3301826 C10.9385762,35.7947253 11.3228372,36.1735302 11.7947844,36.1735302 L28.1726406,36.1735302 C28.6445878,36.1735302 29.0284591,35.795115 29.0284591,35.3301826 C29.0284591,34.86564 28.6441981,34.4872248 28.1726406,34.4872248 L26.3830602,34.4872248 L24.12504,29.6145934 C29.5093698,27.8959415 33.4026425,22.9165276 33.4026425,17.0407647 Z M19.9835176,7.9268434 C20.8490791,7.9268434 21.5509593,8.6178116 21.5509593,9.47051236 C21.5509593,10.3232131 20.8490791,11.0141813 19.9835176,11.0141813 C19.1179562,11.0141813 18.4160759,10.3232131 18.4160759,9.47051236 C18.4160759,8.6178116 19.1179562,7.9268434 19.9835176,7.9268434 L19.9835176,7.9268434 Z M19.9835176,26.154686 C16.340833,26.154686 13.3879475,23.2462282 13.3879475,19.6588834 C13.3879475,16.0711489 16.340833,13.1630808 19.9835176,13.1630808 C23.6262023,13.1630808 26.5790878,16.0715386 26.5790878,19.6588834 C26.5790878,23.2466179 23.6262023,26.154686 19.9835176,26.154686 Z" id="形状" fill="url(#linearGradient-18)"></path>
                    </g>
                    <g id="箭头右" transform="translate(114.316981, 20.200755)">
                        <rect id="矩形" fill="#000000" fill-rule="nonzero" opacity="0" x="0" y="0" width="12.4709434" height="12.4709434"></rect>
                        <path d="M1.62269147,11.6477957 L0.781149119,10.8285238 L5.53769667,6.21428547 L0.781149119,1.60019667 L1.62269147,0.780874941 L7.22081878,6.21428545 L1.62269147,11.6477957 Z M6.04996747,11.6477957 L5.20842512,10.8285238 L9.96497267,6.21428547 L5.20842512,1.60019667 L6.04996747,0.7808874 L11.6480574,6.21429792 L6.04996747,11.6477957 Z" id="形状" fill="url(#linearGradient-19)"></path>
                    </g>
                    <g id="箭头右备份" transform="translate(114.184528, 100.355094) scale(-1, 1) translate(-114.184528, -100.355094) translate(107.816604, 93.987170)">
                        <rect id="矩形" fill="#000000" fill-rule="nonzero" opacity="0" x="0" y="0" width="12.4709434" height="12.4709434"></rect>
                        <path d="M1.62269147,11.6477957 L0.781149119,10.8285238 L5.53769667,6.21428547 L0.781149119,1.60019667 L1.62269147,0.780874941 L7.22081878,6.21428545 L1.62269147,11.6477957 Z M6.04996747,11.6477957 L5.20842512,10.8285238 L9.96497267,6.21428547 L5.20842512,1.60019667 L6.04996747,0.7808874 L11.6480574,6.21429792 L6.04996747,11.6477957 Z" id="形状" fill="url(#linearGradient-19)"></path>
                    </g>
                </g>
            </g>
        </g>
    </g>
</svg>