<?xml version="1.0" encoding="UTF-8"?>
<svg width="181px" height="180px" viewBox="0 0 181 180" version="1.1" xmlns="http://www.w3.org/2000/svg" xmlns:xlink="http://www.w3.org/1999/xlink">
    <title>编组 60</title>
    <defs>
        <linearGradient x1="73.1837385%" y1="2.8877444%" x2="13.7259239%" y2="82.9544669%" id="linearGradient-1">
            <stop stop-color="#E5F6FC" offset="0%"></stop>
            <stop stop-color="#C7D1F8" stop-opacity="0" offset="100%"></stop>
        </linearGradient>
        <linearGradient x1="50%" y1="0.422475726%" x2="50%" y2="98.8993046%" id="linearGradient-2">
            <stop stop-color="#72D0FF" offset="0%"></stop>
            <stop stop-color="#388AFF" offset="99.9472128%"></stop>
        </linearGradient>
        <linearGradient x1="50%" y1="0%" x2="50%" y2="98.8202069%" id="linearGradient-3">
            <stop stop-color="#72D0FF" offset="0%"></stop>
            <stop stop-color="#38B0FF" offset="100%"></stop>
        </linearGradient>
        <linearGradient x1="50%" y1="0.422475726%" x2="50%" y2="98.8993046%" id="linearGradient-4">
            <stop stop-color="#72D0FF" offset="0%"></stop>
            <stop stop-color="#388AFF" offset="99.9472128%"></stop>
        </linearGradient>
        <linearGradient x1="50%" y1="0.422475726%" x2="50%" y2="98.8993046%" id="linearGradient-5">
            <stop stop-color="#72D0FF" offset="0%"></stop>
            <stop stop-color="#388AFF" offset="99.9472128%"></stop>
        </linearGradient>
        <linearGradient x1="50%" y1="0%" x2="50%" y2="98.8202069%" id="linearGradient-6">
            <stop stop-color="#72D0FF" offset="0%"></stop>
            <stop stop-color="#38B0FF" offset="100%"></stop>
        </linearGradient>
        <linearGradient x1="50%" y1="0%" x2="50%" y2="98.8202069%" id="linearGradient-7">
            <stop stop-color="#72D0FF" offset="0%"></stop>
            <stop stop-color="#38B0FF" offset="100%"></stop>
        </linearGradient>
        <linearGradient x1="50%" y1="0.422475726%" x2="50%" y2="98.8993046%" id="linearGradient-8">
            <stop stop-color="#72D0FF" offset="0%"></stop>
            <stop stop-color="#388AFF" offset="99.9472128%"></stop>
        </linearGradient>
        <linearGradient x1="50%" y1="0.422475726%" x2="50%" y2="98.8993046%" id="linearGradient-9">
            <stop stop-color="#72D0FF" offset="0%"></stop>
            <stop stop-color="#388AFF" offset="99.9472128%"></stop>
        </linearGradient>
        <linearGradient x1="50%" y1="0.422475726%" x2="50%" y2="98.8993046%" id="linearGradient-10">
            <stop stop-color="#72D0FF" offset="0%"></stop>
            <stop stop-color="#388AFF" offset="99.9472128%"></stop>
        </linearGradient>
        <linearGradient x1="50%" y1="0.422475726%" x2="50%" y2="98.8993046%" id="linearGradient-11">
            <stop stop-color="#72D0FF" offset="0%"></stop>
            <stop stop-color="#388AFF" offset="99.9472128%"></stop>
        </linearGradient>
        <linearGradient x1="50%" y1="0.422475726%" x2="50%" y2="98.8993046%" id="linearGradient-12">
            <stop stop-color="#72D0FF" offset="0%"></stop>
            <stop stop-color="#388AFF" offset="99.9472128%"></stop>
        </linearGradient>
        <linearGradient x1="50%" y1="0.422475726%" x2="50%" y2="98.8993046%" id="linearGradient-13">
            <stop stop-color="#72D0FF" offset="0%"></stop>
            <stop stop-color="#388AFF" offset="99.9472128%"></stop>
        </linearGradient>
        <linearGradient x1="50%" y1="0%" x2="50%" y2="98.8202069%" id="linearGradient-14">
            <stop stop-color="#72D0FF" offset="0%"></stop>
            <stop stop-color="#38B0FF" offset="100%"></stop>
        </linearGradient>
        <linearGradient x1="50%" y1="0.422475726%" x2="50%" y2="98.8993046%" id="linearGradient-15">
            <stop stop-color="#72D0FF" offset="0%"></stop>
            <stop stop-color="#388AFF" offset="99.9472128%"></stop>
        </linearGradient>
        <linearGradient x1="50%" y1="0.422475726%" x2="50%" y2="98.8993046%" id="linearGradient-16">
            <stop stop-color="#72D0FF" offset="0%"></stop>
            <stop stop-color="#388AFF" offset="99.9472128%"></stop>
        </linearGradient>
    </defs>
    <g id="页面-1" stroke="none" stroke-width="1" fill="none" fill-rule="evenodd">
        <g id="机器与数据智能-机器数据分析平台02✅" transform="translate(-504.000000, -1252.000000)">
            <g id="编组-60" transform="translate(504.000000, 1252.000000)">
                <rect id="矩形" fill="#D8D8D8" opacity="0" x="0" y="0" width="180" height="180"></rect>
                <g id="编组-54" transform="translate(0.000000, 5.943396)">
                    <g id="编组-53" transform="translate(4.245283, 0.000000)">
                        <path d="M84.0566038,168.113208 C130.479784,168.113208 168.113208,130.479784 168.113208,84.0566038 C168.113208,37.6334234 130.479784,0 84.0566038,0 C37.6334234,0 0,37.6334234 0,84.0566038 C0,130.479784 37.6334234,168.113208 84.0566038,168.113208 Z" id="椭圆形" fill="url(#linearGradient-1)" opacity="0.58968099"></path>
                        <path d="M163.952761,110.247048 C166.652901,102.004955 168.113208,93.2013158 168.113208,84.0566038 C168.113208,37.6334234 130.479784,0 84.0566038,0 C37.6334234,0 0,37.6334234 0,84.0566038 C0,130.479784 37.6334234,168.113208 84.0566038,168.113208 C110.630401,168.113208 134.324053,155.781842 149.727443,136.529228" id="路径" stroke="#67C3FF" stroke-dasharray="2"></path>
                    </g>
                    <g id="编组-36" transform="translate(52.641509, 32.264151)">
                        <rect id="矩形" fill="url(#linearGradient-2)" x="12.7766038" y="22.1909434" width="45.0543396" height="20.8460377" rx="2.86272325"></rect>
                        <rect id="矩形" fill="#0D7377" fill-rule="nonzero" opacity="0.180603609" x="16.8113208" y="25.5532075" width="37.6573585" height="14.1215094"></rect>
                        <circle id="椭圆形" fill="#C7E3FF" fill-rule="nonzero" opacity="0.279129464" cx="25.5532075" cy="32.9501887" r="5.37962264"></circle>
                        <circle id="椭圆形" fill="#C7E3FF" fill-rule="nonzero" opacity="0.279129464" cx="45.7267925" cy="32.9501887" r="5.37962264"></circle>
                        <rect id="矩形" fill="url(#linearGradient-3)" x="31.605283" y="43.0369811" width="8.06943396" height="4.70716981"></rect>
                        <rect id="矩形" fill="url(#linearGradient-4)" x="18.8286792" y="46.3992453" width="32.9501887" height="26.2256604"></rect>
                        <rect id="矩形" fill="url(#linearGradient-5)" x="18.1562264" y="77.3320755" width="34.2950943" height="3.36226415"></rect>
                        <polygon id="路径" fill="url(#linearGradient-6)" points="23.5358491 88.6068615 23.5358491 92.5071652 23.5358491 98.3575242 23.5358491 101.607681 23.5358491 103.557736 29.5879245 103.557736 29.5879245 101.607681 29.5879245 98.3575242 29.5879245 92.5071652 29.5879245 88.6068615 29.5879245 84.0566038 23.5358491 84.0566038"></polygon>
                        <polygon id="路径" fill="url(#linearGradient-6)" points="41.6920755 84.0566038 41.6920755 88.6068615 41.6920755 92.5071652 41.6920755 98.3575242 41.6920755 101.607681 41.6920755 103.557736 47.7441509 103.557736 47.7441509 101.607681 47.7441509 98.3575242 47.7441509 92.5071652 47.7441509 88.6068615 47.7441509 84.0566038"></polygon>
                        <path d="M14.7939623,52.4513208 L14.7939623,58.5113604 C13.1516152,58.7940487 11.6213137,59.521012 10.3739009,60.6110921 C9.21713256,61.6668412 8.31760111,62.966712 7.74260731,64.4134513 C6.97337323,66.2499648 6.59943645,68.2895384 6.4468104,70.2177904 C6.25860178,72.8185974 6.38206485,75.432201 6.8146453,78.0045283 L0.166231814,78.0045283 C-0.116133291,74.382653 -0.0260781897,71.2751699 0.340220366,68.6068916 C0.750786208,65.5986957 1.51087143,63.150009 2.47394593,61.1585689 C4.40009296,57.1772105 7.13974333,55.0173208 9.54665746,53.8441205 C12.4053617,52.4513208 14.7939623,52.4513208 14.7939623,52.4513208 Z" id="路径" fill="url(#linearGradient-7)"></path>
                        <rect id="矩形" fill="url(#linearGradient-8)" x="23.5358491" y="84.0566038" width="6.05207547" height="4.70716981"></rect>
                        <rect id="矩形" fill="url(#linearGradient-9)" x="23.5358491" y="92.7984906" width="6.05207547" height="6.05207547"></rect>
                        <rect id="矩形" fill="url(#linearGradient-10)" x="23.5358491" y="102.21283" width="6.05207547" height="2.01735849"></rect>
                        <rect id="矩形" fill="url(#linearGradient-8)" x="41.6920755" y="84.0566038" width="6.05207547" height="4.70716981"></rect>
                        <rect id="矩形" fill="url(#linearGradient-9)" x="41.6920755" y="92.7984906" width="6.05207547" height="6.05207547"></rect>
                        <rect id="矩形" fill="url(#linearGradient-10)" x="41.6920755" y="102.21283" width="6.05207547" height="2.01735849"></rect>
                        <path d="M14.7939623,52.4513208 L14.7939623,58.4442693 C13.1102012,58.7238279 11.5413111,59.442743 10.2624431,60.5207547 L9.41433962,53.8287104 C12.3451299,52.4513208 14.7939623,52.4513208 14.7939623,52.4513208 Z" id="路径" fill="url(#linearGradient-11)"></path>
                        <path d="M7.39698113,64.3340749 C6.62830901,66.1062574 6.25464541,68.0743869 6.10213086,69.9350943 L0,68.3806235 C0.410265905,65.4778015 1.16979585,63.1148897 2.13216678,61.1932075 L7.39698113,64.3340749 Z" id="路径" fill="url(#linearGradient-12)"></path>
                        <path d="M55.8135849,52.4513208 L55.8135849,58.5113604 C57.4559324,58.7940487 58.9862344,59.521012 60.2336475,60.6110921 C61.3904155,61.666841 62.2899459,62.966712 62.8649379,64.4134513 C63.6341742,66.2499648 64.0081111,68.2895384 64.1607372,70.2177904 C64.3489447,72.8185975 64.2254816,75.4322009 63.7929022,78.0045283 L70.4413196,78.0045283 C70.7236749,74.382653 70.6336296,71.2751699 70.267331,68.6068916 C69.856765,65.5986957 69.0966776,63.150009 68.1336048,61.1585689 C66.2074572,57.1772105 63.4678061,55.0173208 61.0608912,53.8441205 C58.2021862,52.4513208 55.8135849,52.4513208 55.8135849,52.4513208 Z" id="路径" fill="url(#linearGradient-7)"></path>
                        <path d="M55.8135849,52.4513208 L55.8135849,58.4442693 C57.497346,58.7238279 59.0662361,59.442743 60.345104,60.5207547 L61.1932075,53.8287104 C58.2624173,52.4513208 55.8135849,52.4513208 55.8135849,52.4513208 Z" id="路径" fill="url(#linearGradient-11)"></path>
                        <path d="M63.210566,64.3340749 C63.9792399,66.1062574 64.3529034,68.0743869 64.5054179,69.9350943 L70.6075472,68.3806235 C70.1972814,65.4778015 69.4377497,63.1148897 68.475381,61.1932075 L63.210566,64.3340749 Z" id="路径" fill="url(#linearGradient-12)"></path>
                        <rect id="矩形" fill="url(#linearGradient-13)" x="21.5184906" y="2.68981132" width="2.01735849" height="19.5011321"></rect>
                        <rect id="矩形" fill="url(#linearGradient-13)" x="47.7441509" y="2.68981132" width="2.01735849" height="19.5011321"></rect>
                        <circle id="椭圆形" fill="#000000" fill-rule="nonzero" opacity="0.1" cx="22.8633962" cy="2.68981132" r="2.68981132"></circle>
                        <circle id="椭圆形" fill="url(#linearGradient-9)" cx="22.8633962" cy="2.68981132" r="2.68981132"></circle>
                        <circle id="椭圆形" fill="#000000" fill-rule="nonzero" opacity="0.1" cx="48.4166038" cy="2.68981132" r="2.68981132"></circle>
                        <circle id="椭圆形" fill="url(#linearGradient-9)" cx="48.4166038" cy="2.68981132" r="2.68981132"></circle>
                    </g>
                    <g id="销售预测" fill="url(#linearGradient-14)">
                        <path d="M34.9795809,0 L6.11475871,0 C2.80053973,0 0,2.80053973 0,6.11475871 L0,34.9795809 C0,38.2937999 2.80053973,41.0943396 6.11475871,41.0943396 L34.9795809,41.0943396 C38.2937999,41.0943396 41.0943396,38.2937999 41.0943396,34.9795809 L41.0943396,6.11475871 C41.0943396,2.80053973 38.2937999,0 34.9795809,0 Z M35.5426524,16.7884207 L27.8325245,24.4985486 L24.9430787,27.3879944 C24.7652667,27.5658064 24.4738525,27.5658064 24.2960405,27.3879944 L21.4065947,24.4985486 L16.6155479,19.7075018 L8.79675708,27.5262926 C8.61894503,27.7041047 8.32753084,27.7041047 8.1497188,27.5262926 L5.55168723,24.9282611 C5.37387518,24.750449 5.37387518,24.4590348 5.55168723,24.2812228 L16.2599238,13.5729862 C16.4377358,13.3951742 16.72915,13.3951742 16.9069621,13.5729862 L24.6220292,21.2831141 L32.3321571,13.5779254 C32.5099692,13.4001134 32.8013833,13.4001134 32.9791954,13.5779254 L35.5426524,16.1413824 C35.7254037,16.3142553 35.7254037,16.6056694 35.5426524,16.7884207 L35.5426524,16.7884207 Z" id="形状"></path>
                    </g>
                    <g id="日志" transform="translate(134.490566, 0.000000)" fill="url(#linearGradient-15)">
                        <path d="M34.4230472,0 L2.9354434,0 C1.55691509,0 0.290462264,1.10674528 0.290462264,2.54971698 L0.290462264,36.6766981 C0.290462264,38.1168679 1.43923585,39.2264151 2.93264151,39.2264151 L34.4202453,39.2264151 C35.9136509,39.2264151 37.0624431,38.1168679 37.0624431,36.6766981 L37.0624431,2.54971698 C37.0680283,1.10674528 35.8015755,0 34.4230472,0 Z M8.79699057,19.6132075 C7.76309434,19.6132075 6.84127358,18.7278113 6.84127358,17.7303396 C6.84127358,16.7328679 7.76029245,15.8474717 8.79418868,15.8474717 C9.82808491,15.8474717 10.7471038,16.7328679 10.7471038,17.7303396 C10.7435382,18.2403493 10.534744,18.7274364 10.1678334,19.081695 C9.80092271,19.4359536 9.30681145,19.6275338 8.79699057,19.6132075 L8.79699057,19.6132075 Z M8.79699057,10.7480377 C7.76309434,10.7480377 6.84407547,9.86264151 6.84407547,8.86516981 C6.84407547,7.86769811 7.76309434,6.98230189 8.79699057,6.98230189 C9.83088679,6.98230189 10.7499057,7.86769811 10.7499057,8.86516981 C10.7448274,9.37518979 10.5351709,9.86181179 10.1679896,10.2158231 C9.80080818,10.5698344 9.30685591,10.7615841 8.79699057,10.7480377 Z M28.5615,19.6132075 L15.3478019,19.6132075 C14.3111038,19.6132075 13.3920849,18.7278113 13.3920849,17.7303396 C13.3920849,16.7328679 14.3111038,15.8474717 15.345,15.8474717 L28.4466226,15.8474717 C29.4805189,15.8474717 30.3995739,16.7328679 30.3995739,17.7303396 C30.405841,18.7553974 29.5864121,19.5948124 28.5615,19.6132075 L28.5615,19.6132075 Z M28.5615,10.7480377 L15.3478019,10.7480377 C14.3139057,10.7480377 13.3948868,9.86264151 13.3948868,8.86516981 C13.3948868,7.86769811 14.3139057,6.98230189 15.3478019,6.98230189 L28.4494245,6.98230189 C29.4833208,6.98230189 30.4023493,7.86769811 30.4023493,8.86516981 C30.4055919,9.89007339 29.5862159,10.7281566 28.5615,10.7480377 L28.5615,10.7480377 Z" id="形状"></path>
                    </g>
                    <g id="数据" transform="translate(0.000000, 108.339623)">
                        <rect id="矩形" fill="#000000" fill-rule="nonzero" opacity="0" x="0" y="0" width="41.0943396" height="41.0943396"></rect>
                        <path d="M39.8204151,38.5259434 L38.5259434,38.5259434 L38.5259434,23.1232712 C38.5259434,21.6721274 37.3650283,20.5471698 35.9344316,20.5471698 L30.8464387,20.5471698 C29.390158,20.5471698 28.2523585,21.7003797 28.2523585,23.1232712 L28.2523585,38.5259434 L25.6839623,38.5259434 L25.6839623,2.586375 C25.6839623,1.15320991 24.5230472,0 23.0924505,0 L18.0018892,0 C16.5481769,0 15.4103774,1.1583467 15.4103774,2.586375 L15.4103774,38.5259434 L12.8419811,38.5259434 L12.8419811,12.8317075 C12.8419811,11.4165212 11.681066,10.2735849 10.2504693,10.2735849 L5.15990802,10.2735849 C3.70619575,10.2735849 2.56839623,11.4190896 2.56839623,12.8317075 L2.56839623,38.5259434 L1.27392453,38.5259434 C0.580457547,38.5259434 0,39.1012642 0,39.8101415 C0,40.4984717 0.570183962,41.0943396 1.27392453,41.0943396 L39.8178467,41.0943396 C40.5138821,41.0943396 41.0943396,40.5190189 41.0943396,39.8101415 C41.0943396,39.1218113 40.5241557,38.5259434 39.8204151,38.5259434 Z" id="路径" fill="url(#linearGradient-9)"></path>
                    </g>
                    <g id="监控面板-面性" opacity="0.800000012" transform="translate(140.094340, 110.207547)" fill="url(#linearGradient-16)">
                        <path d="M36.6259139,0.150309552 L2.60050118,0.150309552 C1.19517983,0.150309552 0.0569133255,1.28857606 0.0569133255,2.69389741 L0.0569133255,23.8568986 C0.0569133255,25.2622199 1.19517983,26.4004864 2.60050118,26.4004864 L18.1816185,26.4004864 L18.1816185,33.9086675 L5.2228921,33.9086675 C4.43048349,33.9086675 3.78692512,34.5522258 3.78692512,35.3446344 C3.78692512,36.137043 4.43048349,36.7806014 5.2228921,36.7806014 L34.003523,36.7806014 C34.7959316,36.7806014 35.43949,36.137043 35.43949,35.3446344 C35.43949,34.5522258 34.7959316,33.9086675 34.003523,33.9086675 L21.0491745,33.9086675 L21.0491745,26.3961085 L36.6302919,26.3961085 C38.0356132,26.3961085 39.1738797,25.257842 39.1738797,23.8525206 L39.1738797,2.69389741 C39.1695018,1.28857606 38.0312353,0.150309552 36.6259139,0.150309552 Z M34.6076798,16.2699145 C34.2092866,16.6858196 33.5525943,16.7033314 33.1366893,16.309316 L29.3278744,12.6931309 L23.8992187,20.4289652 C23.7022111,20.7091539 23.3826209,20.871138 23.0455189,20.871138 C22.9929835,20.871138 22.9404481,20.86676 22.8879127,20.8580041 C22.4982754,20.7967129 22.1743072,20.5209021 22.0517246,20.1400206 L18.5406103,9.00252064 L14.0269458,15.2060731 C13.8430719,15.4599941 13.5541274,15.6176002 13.243293,15.635112 C12.9280808,15.6570018 12.6260024,15.5300413 12.4158608,15.29801 L10.2443986,12.9251621 L6.0240566,16.2786704 C5.57312795,16.6376621 4.91643573,16.563237 4.56182193,16.1123084 C4.20283019,15.6613797 4.27725531,15.0046875 4.72818396,14.6500737 L9.71028892,10.6924086 C10.1393278,10.3509287 10.7566185,10.403464 11.1243662,10.8062353 L13.0944428,12.9558078 L18.0721698,6.11307488 C18.3042011,5.79348467 18.6938384,5.63587854 19.0834758,5.69716981 C19.4731132,5.75846108 19.7927034,6.03864976 19.910908,6.41077535 L23.4088886,17.5088738 L28.3209463,10.5129127 C28.4960643,10.2633697 28.7674971,10.1057636 29.0695755,10.0751179 C29.3716539,10.0444723 29.6693544,10.149543 29.8882518,10.3553066 L34.5726562,14.8033019 C34.9841834,15.1973172 35.0016952,15.8540094 34.6076798,16.2699145 Z" id="形状"></path>
                    </g>
                </g>
            </g>
        </g>
    </g>
</svg>