<?xml version="1.0" encoding="UTF-8"?>
<svg width="181px" height="180px" viewBox="0 0 181 180" version="1.1" xmlns="http://www.w3.org/2000/svg" xmlns:xlink="http://www.w3.org/1999/xlink">
    <title>编组 58</title>
    <defs>
        <linearGradient x1="50%" y1="0.422475726%" x2="50%" y2="98.8993046%" id="linearGradient-1">
            <stop stop-color="#72D0FF" offset="0%"></stop>
            <stop stop-color="#388AFF" offset="99.9472128%"></stop>
        </linearGradient>
        <linearGradient x1="100%" y1="46.4623751%" x2="7.61048598%" y2="53.5376249%" id="linearGradient-2">
            <stop stop-color="#92E2FA" offset="0%"></stop>
            <stop stop-color="#59C1F3" offset="100%"></stop>
        </linearGradient>
        <linearGradient x1="50%" y1="0%" x2="50%" y2="98.8202069%" id="linearGradient-3">
            <stop stop-color="#72D0FF" offset="0%"></stop>
            <stop stop-color="#38B0FF" offset="100%"></stop>
        </linearGradient>
        <linearGradient x1="50%" y1="0.422475726%" x2="50%" y2="98.8993046%" id="linearGradient-4">
            <stop stop-color="#72D0FF" offset="0%"></stop>
            <stop stop-color="#388AFF" offset="99.9472128%"></stop>
        </linearGradient>
        <linearGradient x1="50%" y1="0.422475726%" x2="50%" y2="98.8993046%" id="linearGradient-5">
            <stop stop-color="#72D0FF" offset="0%"></stop>
            <stop stop-color="#388AFF" offset="99.9472128%"></stop>
        </linearGradient>
        <linearGradient x1="50%" y1="0.422475726%" x2="50%" y2="98.8993046%" id="linearGradient-6">
            <stop stop-color="#72D0FF" offset="0%"></stop>
            <stop stop-color="#388AFF" offset="99.9472128%"></stop>
        </linearGradient>
        <linearGradient x1="50%" y1="0.422475726%" x2="50%" y2="98.8993046%" id="linearGradient-7">
            <stop stop-color="#72D0FF" offset="0%"></stop>
            <stop stop-color="#388AFF" offset="99.9472128%"></stop>
        </linearGradient>
        <linearGradient x1="50%" y1="0.422475726%" x2="50%" y2="98.8993046%" id="linearGradient-8">
            <stop stop-color="#72D0FF" offset="0%"></stop>
            <stop stop-color="#388AFF" offset="99.9472128%"></stop>
        </linearGradient>
        <linearGradient x1="50%" y1="0.422475726%" x2="50%" y2="98.8993046%" id="linearGradient-9">
            <stop stop-color="#72D0FF" offset="0%"></stop>
            <stop stop-color="#388AFF" offset="99.9472128%"></stop>
        </linearGradient>
        <linearGradient x1="50%" y1="0%" x2="50%" y2="98.8202069%" id="linearGradient-10">
            <stop stop-color="#72D0FF" offset="0%"></stop>
            <stop stop-color="#38B0FF" offset="100%"></stop>
        </linearGradient>
        <linearGradient x1="50%" y1="0.422475726%" x2="50%" y2="98.8993046%" id="linearGradient-11">
            <stop stop-color="#72D0FF" offset="0%"></stop>
            <stop stop-color="#388AFF" offset="99.9472128%"></stop>
        </linearGradient>
    </defs>
    <g id="页面-1" stroke="none" stroke-width="1" fill="none" fill-rule="evenodd">
        <g id="机器与数据智能-机器数据分析平台02✅" transform="translate(-504.000000, -252.000000)">
            <g id="编组-58" transform="translate(504.000000, 252.000000)">
                <rect id="矩形" fill="#D8D8D8" opacity="0" x="0" y="0" width="180" height="180"></rect>
                <g id="编组-41" transform="translate(0.000000, 2.000000)">
                    <g id="编组-35" transform="translate(46.698113, 48.396226)">
                        <path d="M3.84,0 L82.7637736,0 C84.884547,-7.92408057e-15 86.6037736,1.71922656 86.6037736,3.84 L86.6037736,111.631698 C86.6037736,113.752472 84.884547,115.471698 82.7637736,115.471698 L3.84,115.471698 C1.71922656,115.471698 2.48016589e-15,113.752472 0,111.631698 L0,3.84 C-2.5971984e-16,1.71922656 1.71922656,-4.49540155e-15 3.84,0 Z" id="矩形" fill="url(#linearGradient-1)"></path>
                        <rect id="矩形" fill="#FFFFFF" fill-rule="nonzero" x="4.24528302" y="10.1886792" width="78.1132075" height="93.3962264" rx="0.64"></rect>
                        <circle id="椭圆形" fill="#F6F7F9" fill-rule="nonzero" cx="43.5396226" cy="5.33207547" r="1.08679245"></circle>
                        <circle id="椭圆形" fill="#F6F7F9" fill-rule="nonzero" cx="43.1660377" cy="109.392453" r="3.26037736"></circle>
                        <g id="编组" opacity="0.2" transform="translate(5.943396, 41.603774)" fill="url(#linearGradient-2)" fill-rule="nonzero">
                            <polygon id="路径" opacity="0.827055432" points="73.4351094 19.5231396 0.14834717 19.5231396 0.14834717 8.35634717 6.86961509 11.6688906 13.8256302 12.6127698 19.9290566 10.7722868 27.2926189 5.06173585 30.9964075 2.9229283 33.7041509 2.40126792 36.2945208 2.53983396 40.5542038 4.64440755 46.3462642 8.33352453 50.8912302 8.91713208 54.4939472 7.6749283 62.1330113 1.41989434 66.0324226 0.0293433962 70.1127849 0.660226415 73.4351094 2.57895849"></polygon>
                        </g>
                        <g id="编组-33" transform="translate(42.931562, 19.619321)">
                            <path d="M23.2595321,4.82632802e-14 L0.371683019,4.82632802e-14 C0.166408156,4.82632802e-14 1.82495528e-13,0.166408156 1.82495528e-13,0.371683019 L1.82495528e-13,15.8503245 C1.82495528e-13,16.0026075 0.0932650365,16.1393649 0.234853755,16.1954254 C0.376442473,16.2514859 0.537904006,16.2155069 0.64229434,16.104634 L4.6085434,11.8742943 C4.67858182,11.7993562 4.7765823,11.75685 4.87915472,11.7569208 L23.2595321,11.7569208 C23.4648069,11.7569208 23.6312151,11.5905126 23.6312151,11.3852377 L23.6312151,0.368422642 C23.6294255,0.164422172 23.4635404,4.82632802e-14 23.2595321,4.82632802e-14 Z" id="路径" fill="url(#linearGradient-3)"></path>
                            <rect id="矩形" fill="#F6F7F9" fill-rule="nonzero" x="5.43070189" y="2.65992453" width="13.0415094" height="1.63018868" rx="0.81509434"></rect>
                            <rect id="矩形" fill="#F6F7F9" fill-rule="nonzero" x="5.43070189" y="6.46369811" width="3.80377358" height="1.63018868" rx="0.81509434"></rect>
                            <rect id="矩形" fill="#F6F7F9" fill-rule="nonzero" x="12.4948528" y="6.46369811" width="5.43396226" height="1.63018868" rx="0.81509434"></rect>
                        </g>
                        <g id="编组" opacity="0.2" transform="translate(13.041509, 72.271698)" fill="#59C1F3" fill-rule="nonzero">
                            <rect id="矩形" x="0.0619471698" y="0.0521660377" width="3.57826415" height="1.63018868"></rect>
                        </g>
                        <g id="编组" opacity="0.2" transform="translate(13.041509, 75.532075)" fill="#59C1F3" fill-rule="nonzero">
                            <rect id="矩形" x="0.0619471698" y="0.105962264" width="3.57826415" height="1.63018868"></rect>
                        </g>
                        <g id="编组" opacity="0.2" transform="translate(13.041509, 78.792453)" fill="#59C1F3" fill-rule="nonzero">
                            <rect id="矩形" x="0.0619471698" y="0.159758491" width="3.57826415" height="1.63018868"></rect>
                        </g>
                        <g id="编组" opacity="0.2" transform="translate(13.041509, 82.052830)" fill="#59C1F3" fill-rule="nonzero">
                            <rect id="矩形" x="0.0619471698" y="0.0521660377" width="3.57826415" height="1.63018868"></rect>
                        </g>
                        <g id="编组" opacity="0.2" transform="translate(13.041509, 84.769811)" fill="#59C1F3" fill-rule="nonzero">
                            <rect id="矩形" x="0.0619471698" y="0.105962264" width="3.57826415" height="1.63018868"></rect>
                        </g>
                        <g id="编组" opacity="0.2" transform="translate(13.041509, 88.030189)" fill="#59C1F3" fill-rule="nonzero">
                            <rect id="矩形" x="0.0619471698" y="0.159758491" width="3.57826415" height="1.63018868"></rect>
                        </g>
                        <g id="编组" opacity="0.2" transform="translate(13.041509, 91.290566)" fill="#59C1F3" fill-rule="nonzero">
                            <rect id="矩形" x="0.0619471698" y="0.0521660377" width="3.57826415" height="1.63018868"></rect>
                        </g>
                        <g id="编组" opacity="0.2" transform="translate(13.041509, 94.007547)" fill="#59C1F3" fill-rule="nonzero">
                            <rect id="矩形" x="0.0619471698" y="0.105962264" width="3.57826415" height="1.63018868"></rect>
                        </g>
                        <g id="编组" opacity="0.2" transform="translate(20.105660, 95.637736)" fill="#59C1F3" fill-rule="nonzero">
                            <rect id="矩形" x="0.115743396" y="0.105962264" width="3.57826415" height="1.63018868"></rect>
                        </g>
                        <g id="编组" opacity="0.2" transform="translate(26.083019, 95.637736)" fill="#59C1F3" fill-rule="nonzero">
                            <rect id="矩形" x="0.0619471698" y="0.105962264" width="3.57826415" height="1.63018868"></rect>
                        </g>
                        <g id="编组" opacity="0.2" transform="translate(32.603774, 95.637736)" fill="#59C1F3" fill-rule="nonzero">
                            <rect id="矩形" x="0.0081509434" y="0.105962264" width="3.57826415" height="1.63018868"></rect>
                        </g>
                        <g id="编组" opacity="0.2" transform="translate(39.124528, 95.637736)" fill="#59C1F3" fill-rule="nonzero">
                            <rect id="矩形" x="0.115743396" y="0.105962264" width="3.57826415" height="1.63018868"></rect>
                        </g>
                        <g id="编组" opacity="0.2" transform="translate(45.101887, 95.637736)" fill="#59C1F3" fill-rule="nonzero">
                            <rect id="矩形" x="0.0619471698" y="0.105962264" width="3.57826415" height="1.63018868"></rect>
                        </g>
                        <g id="编组" opacity="0.2" transform="translate(51.622642, 95.637736)" fill="#59C1F3" fill-rule="nonzero">
                            <rect id="矩形" x="0.0081509434" y="0.105962264" width="3.57826415" height="1.63018868"></rect>
                        </g>
                        <g id="编组" opacity="0.2" transform="translate(58.143396, 95.637736)" fill="#59C1F3" fill-rule="nonzero">
                            <rect id="矩形" x="0.115743396" y="0.105962264" width="3.57826415" height="1.63018868"></rect>
                        </g>
                        <g id="编组" opacity="0.2" transform="translate(64.120755, 95.637736)" fill="#59C1F3" fill-rule="nonzero">
                            <rect id="矩形" x="0.0619471698" y="0.105962264" width="3.57826415" height="1.63018868"></rect>
                        </g>
                        <g id="编组" opacity="0.2" transform="translate(70.641509, 95.637736)" fill="#59C1F3" fill-rule="nonzero">
                            <rect id="矩形" x="0.0081509434" y="0.105962264" width="3.57826415" height="1.63018868"></rect>
                        </g>
                        <rect id="矩形" fill="url(#linearGradient-4)" x="20.1056604" y="84.2264151" width="3.80377358" height="10.3245283"></rect>
                        <rect id="矩形" fill="url(#linearGradient-5)" x="26.0830189" y="79.3358491" width="3.80377358" height="15.2150943"></rect>
                        <rect id="矩形" fill="url(#linearGradient-6)" x="32.6037736" y="75.5320755" width="3.80377358" height="19.0188679"></rect>
                        <rect id="矩形" fill="url(#linearGradient-7)" x="39.1245283" y="77.7056604" width="3.80377358" height="16.845283"></rect>
                        <rect id="矩形" fill="url(#linearGradient-8)" x="45.1018868" y="73.9018868" width="3.80377358" height="20.6490566"></rect>
                        <g id="编组" opacity="0.2" transform="translate(51.622642, 82.052830)" fill="#59C1F3" fill-rule="nonzero">
                            <rect id="矩形" x="0.0081509434" y="0.0521660377" width="3.57826415" height="12.6062491"></rect>
                        </g>
                        <g id="编组" opacity="0.2" transform="translate(58.143396, 82.052830)" fill="#59C1F3" fill-rule="nonzero">
                            <rect id="矩形" x="0.115743396" y="0.0521660377" width="3.57826415" height="12.6062491"></rect>
                        </g>
                        <g id="编组" opacity="0.2" transform="translate(64.120755, 82.052830)" fill="#59C1F3" fill-rule="nonzero">
                            <rect id="矩形" x="0.0619471698" y="0.0521660377" width="3.57826415" height="12.6062491"></rect>
                        </g>
                        <g id="编组" opacity="0.2" transform="translate(70.641509, 82.052830)" fill="#59C1F3" fill-rule="nonzero">
                            <rect id="矩形" x="0.0081509434" y="0.0521660377" width="3.57826415" height="12.6062491"></rect>
                        </g>
                    </g>
                    <g id="风险评估" transform="translate(0.000000, 68.773585)" fill="url(#linearGradient-9)">
                        <path d="M16.9811321,0 C26.3589623,0 33.9622642,7.60330189 33.9622642,16.9811321 C33.9622642,26.3589623 26.3589623,33.9622642 16.9811321,33.9622642 C7.60330189,33.9622642 0,26.3589623 0,16.9811321 C0,7.60330189 7.60330189,0 16.9811321,0 Z M16.9811321,5.94339623 L10.1886792,17.8301887 L16.9811321,17.8301887 L15.2830189,28.0188679 L23.7735849,14.4339623 L16.9811321,14.4339623 L22.0890566,5.96207546 L16.9811321,5.94339623 Z" id="形状"></path>
                    </g>
                    <g id="anq" transform="translate(75.566038, 0.000000)" fill="url(#linearGradient-10)">
                        <path d="M31.0089965,3.00786925 L31.0089965,21.1807319 C31.0089965,22.2706718 30.7500757,23.3544478 30.2338012,24.432025 C29.7159596,25.5126668 29.0399447,26.5561159 28.202692,27.5701382 C27.3654393,28.5825586 26.4088079,29.5422894 25.3343649,30.4461964 C24.2583548,31.3516705 23.16838,32.1578945 22.0629083,32.8649033 C20.9558695,33.5734791 19.8814265,34.1626415 18.8379774,34.6308581 C17.7945283,35.0991095 16.879756,35.4200529 16.0936606,35.5952554 L15.7215599,35.6603774 L15.3804531,35.5952554 C14.5742291,35.4200877 13.6392934,35.0991095 12.5741485,34.6308929 C11.5089689,34.1626415 10.403532,33.5734791 9.25616635,32.8649381 C8.1088355,32.1578945 6.98323519,31.3516705 5.87619638,30.4461964 C4.77072468,29.5422894 3.78309939,28.5825586 2.91481795,27.5701382 C2.04657134,26.5561159 1.34422907,25.5127016 0.807756302,24.432025 C0.268218971,23.3544478 0,22.2706718 0,21.180697 L0,3.00786925 L1.27134121,2.81097103 L15.5354922,0 L30.0787273,2.81097103 L31.0089965,3.00786925 Z M15.5401586,2.63110204 L15.3680555,2.59544166 L3.12568083,4.78935584 L3.12568083,16.2549333 L15.5401586,16.2549333 L15.5401586,2.63110204 Z M27.8833157,16.2549333 L15.5401586,16.2549333 L15.5401586,32.5749886 C16.3339851,32.382722 17.1976001,32.0896731 18.1309686,31.6943096 C19.0627701,31.298946 19.9837412,30.8322618 20.8923146,30.2927244 C21.8024204,29.7531523 22.6769006,29.1546569 23.518785,28.4957409 C24.3606694,27.8367901 25.1033386,27.128249 25.7529912,26.3731823 C26.4010768,25.6196479 26.9173861,24.8351196 27.3034167,24.0195974 C27.6910143,23.2056075 27.8833157,22.3776529 27.8833157,21.5388679 L27.8833157,16.2549333 Z" id="形状"></path>
                    </g>
                    <g id="智能" transform="translate(147.735849, 67.075472)">
                        <path d="M25.791421,0.784657888 C26.2570755,0.0165269915 27.2560436,-0.230230084 28.0281545,0.235424397 C28.7962854,0.701078878 29.0430425,1.70402699 28.577388,2.47215789 L28.577388,2.47215789 L25.9859281,6.75447296 C29.804761,9.70469664 32.2641509,14.3292886 32.2641509,19.5283019 C32.2641509,28.4378012 25.0415747,35.6603774 16.1320755,35.6603774 C7.22257621,35.6603774 0,28.4378012 0,19.5283019 C0,14.2363121 2.54814149,9.5394726 6.48440312,6.59780479 L3.98525943,2.47215789 C3.51960495,1.70402699 3.76636203,0.701078878 4.53847288,0.235424397 C5.31058373,-0.230230084 6.30955189,0.0165269915 6.77520637,0.784657888 L9.27747496,4.92071508 C11.3578546,3.94280299 13.6811352,3.39622642 16.1320755,3.39622642 C18.6752809,3.39622642 21.0810342,3.98472907 23.2205835,5.03298259 Z" id="形状结合" fill="url(#linearGradient-11)"></path>
                        <g id="编组-34" transform="translate(9.339623, 15.283019)" fill="#FFFFFF" fill-rule="nonzero">
                            <path d="M1.53839206e-13,1.62780078 C1.53839206e-13,2.52681028 0.728791201,3.25560148 1.62780071,3.25560148 C2.52681021,3.25560148 3.25560142,2.52681028 3.25560142,1.62780078 C3.25560142,0.72879127 2.52681021,6.86067942e-08 1.62780071,6.86067942e-08 C0.728791201,6.86067942e-08 1.53839206e-13,0.72879127 1.53839206e-13,1.62780078 Z" id="路径"></path>
                            <path d="M10.8652712,1.62780078 C10.8652712,2.52681028 11.5940624,3.25560148 12.4930719,3.25560148 C13.3920814,3.25560148 14.1208726,2.52681028 14.1208726,1.62780078 C14.1208726,1.04624358 13.8106156,0.508862559 13.3069723,0.218083954 C12.803329,-0.0726946513 12.1828149,-0.0726946513 11.6791716,0.218083954 C11.1755283,0.508862559 10.8652712,1.04624358 10.8652712,1.62780078 Z" id="路径"></path>
                            <path d="M5.32650354,11.2645933 C5.32650354,12.1636028 6.05529474,12.892394 6.95430425,12.892394 C7.85331375,12.892394 8.58210495,12.1636028 8.58210495,11.2645933 C8.58210495,10.6830361 8.27184792,10.1456551 7.76820462,9.85487648 C7.26456132,9.56409787 6.64404717,9.56409787 6.14040387,9.85487648 C5.63676057,10.1456551 5.32650354,10.6830361 5.32650354,11.2645933 Z" id="路径备份-9"></path>
                        </g>
                    </g>
                    <path d="M74.9367575,14.177702 C47.0857878,19.743234 24.8554736,40.8805803 17.7089286,68.1266271 M17.1880562,103.817698 C21.2725382,121.498882 31.6682931,136.764775 45.8748222,147.114879 M134.03483,146.554745 C147.895925,136.185401 158.014834,121.088162 162.000483,103.654102 M161.887594,69.9162763 C155.407351,42.4274618 133.658201,20.8330192 106.083714,14.5765161" id="形状" stroke-opacity="0.851316652" stroke="#52A6FF" stroke-dasharray="2"></path>
                </g>
            </g>
        </g>
    </g>
</svg>