<?xml version="1.0" encoding="UTF-8"?>
<svg width="180px" height="181px" viewBox="0 0 180 181" version="1.1" xmlns="http://www.w3.org/2000/svg" xmlns:xlink="http://www.w3.org/1999/xlink">
    <title>编组 61</title>
    <defs>
        <linearGradient x1="50%" y1="0.422475726%" x2="50%" y2="98.8993046%" id="linearGradient-1">
            <stop stop-color="#72D0FF" offset="0%"></stop>
            <stop stop-color="#388AFF" offset="99.9472128%"></stop>
        </linearGradient>
        <linearGradient x1="66.5280231%" y1="2.8877444%" x2="24.1396855%" y2="82.9544669%" id="linearGradient-2">
            <stop stop-color="#E5F6FC" offset="0%"></stop>
            <stop stop-color="#C7D1F8" stop-opacity="0" offset="100%"></stop>
        </linearGradient>
        <linearGradient x1="50%" y1="0.422475726%" x2="50%" y2="98.8993046%" id="linearGradient-3">
            <stop stop-color="#72D0FF" offset="0%"></stop>
            <stop stop-color="#388AFF" offset="99.9472128%"></stop>
        </linearGradient>
        <linearGradient x1="66.5287565%" y1="2.8877444%" x2="24.138538%" y2="82.9544669%" id="linearGradient-4">
            <stop stop-color="#E5F6FC" offset="0%"></stop>
            <stop stop-color="#C7D1F8" stop-opacity="0" offset="100%"></stop>
        </linearGradient>
        <linearGradient x1="50%" y1="0.422475726%" x2="50%" y2="98.8993046%" id="linearGradient-5">
            <stop stop-color="#72D0FF" offset="0%"></stop>
            <stop stop-color="#388AFF" offset="99.9472128%"></stop>
        </linearGradient>
        <linearGradient x1="66.5295309%" y1="2.8877444%" x2="24.1373264%" y2="82.9544669%" id="linearGradient-6">
            <stop stop-color="#E5F6FC" offset="0%"></stop>
            <stop stop-color="#C7D1F8" stop-opacity="0" offset="100%"></stop>
        </linearGradient>
        <linearGradient x1="50%" y1="0.422475726%" x2="50%" y2="98.8993046%" id="linearGradient-7">
            <stop stop-color="#72D0FF" offset="0%"></stop>
            <stop stop-color="#388AFF" offset="99.9472128%"></stop>
        </linearGradient>
        <linearGradient x1="73.1837385%" y1="2.8877444%" x2="13.7259239%" y2="82.9544669%" id="linearGradient-8">
            <stop stop-color="#E5F6FC" offset="0%"></stop>
            <stop stop-color="#C7D1F8" stop-opacity="0" offset="100%"></stop>
        </linearGradient>
        <linearGradient x1="50%" y1="0.422475726%" x2="50%" y2="98.8993046%" id="linearGradient-9">
            <stop stop-color="#72D0FF" offset="0%"></stop>
            <stop stop-color="#388AFF" offset="99.9472128%"></stop>
        </linearGradient>
        <linearGradient x1="50%" y1="0%" x2="50%" y2="98.8202069%" id="linearGradient-10">
            <stop stop-color="#72D0FF" offset="0%"></stop>
            <stop stop-color="#38B0FF" offset="100%"></stop>
        </linearGradient>
        <linearGradient x1="50%" y1="0.422475726%" x2="50%" y2="98.8993046%" id="linearGradient-11">
            <stop stop-color="#72D0FF" offset="0%"></stop>
            <stop stop-color="#388AFF" offset="99.9472128%"></stop>
        </linearGradient>
        <linearGradient x1="50%" y1="0.422475726%" x2="50%" y2="98.8993046%" id="linearGradient-12">
            <stop stop-color="#72D0FF" offset="0%"></stop>
            <stop stop-color="#388AFF" offset="99.9472128%"></stop>
        </linearGradient>
        <linearGradient x1="50%" y1="0%" x2="50%" y2="98.8202069%" id="linearGradient-13">
            <stop stop-color="#72D0FF" offset="0%"></stop>
            <stop stop-color="#38B0FF" offset="100%"></stop>
        </linearGradient>
        <linearGradient x1="50%" y1="0%" x2="50%" y2="98.8202069%" id="linearGradient-14">
            <stop stop-color="#72D0FF" offset="0%"></stop>
            <stop stop-color="#38B0FF" offset="100%"></stop>
        </linearGradient>
        <linearGradient x1="50%" y1="0.422475726%" x2="50%" y2="98.8993046%" id="linearGradient-15">
            <stop stop-color="#72D0FF" offset="0%"></stop>
            <stop stop-color="#388AFF" offset="99.9472128%"></stop>
        </linearGradient>
        <linearGradient x1="50%" y1="0.422475726%" x2="50%" y2="98.8993046%" id="linearGradient-16">
            <stop stop-color="#72D0FF" offset="0%"></stop>
            <stop stop-color="#388AFF" offset="99.9472128%"></stop>
        </linearGradient>
        <linearGradient x1="50%" y1="0.422475726%" x2="50%" y2="98.8993046%" id="linearGradient-17">
            <stop stop-color="#72D0FF" offset="0%"></stop>
            <stop stop-color="#388AFF" offset="99.9472128%"></stop>
        </linearGradient>
        <linearGradient x1="50%" y1="0.422475726%" x2="50%" y2="98.8993046%" id="linearGradient-18">
            <stop stop-color="#72D0FF" offset="0%"></stop>
            <stop stop-color="#388AFF" offset="99.9472128%"></stop>
        </linearGradient>
        <linearGradient x1="50%" y1="0.422475726%" x2="50%" y2="98.8993046%" id="linearGradient-19">
            <stop stop-color="#72D0FF" offset="0%"></stop>
            <stop stop-color="#388AFF" offset="99.9472128%"></stop>
        </linearGradient>
    </defs>
    <g id="页面-1" stroke="none" stroke-width="1" fill="none" fill-rule="evenodd">
        <g id="机器与数据智能-机器数据分析平台02✅" transform="translate(-504.000000, -1752.000000)">
            <g id="编组-61" transform="translate(504.000000, 1752.000000)">
                <rect id="矩形" fill="#D8D8D8" opacity="0" x="0" y="0" width="180" height="180"></rect>
                <g id="编组-52" transform="translate(5.943396, 0.000000)">
                    <g id="编组-51" transform="translate(0.000000, 64.528302)">
                        <path d="M9.61,0 L158.503208,0 C163.810664,-9.74963932e-16 168.113208,4.30254355 168.113208,9.61 L168.113208,105.861698 C168.113208,111.169155 163.810664,115.471698 158.503208,115.471698 L9.61,115.471698 C4.30254355,115.471698 6.49975955e-16,111.169155 0,105.861698 L0,9.61 C-6.49975955e-16,4.30254355 4.30254355,9.74963932e-16 9.61,0 Z" id="矩形" fill="url(#linearGradient-1)"></path>
                        <polygon id="矩形" fill="#FFFFFF" fill-rule="nonzero" points="3.39622642 8.49056604 164.716981 8.49056604 164.716981 106.981132 3.39622642 106.981132"></polygon>
                        <rect id="矩形" fill="#E8EAF1" fill-rule="nonzero" x="11.8867925" y="30.5660377" width="55.1886792" height="4.24528302" rx="2.12264151"></rect>
                        <rect id="矩形备份-24" fill="#E8EAF1" fill-rule="nonzero" x="11.8867925" y="43.3018868" width="50.9433962" height="4.24528302" rx="2.12264151"></rect>
                        <rect id="矩形备份-25" fill="#E8EAF1" fill-rule="nonzero" x="11.8867925" y="56.0377358" width="50.9433962" height="4.24528302" rx="2.12264151"></rect>
                        <rect id="矩形备份-26" fill="#E8EAF1" fill-rule="nonzero" x="11.8867925" y="68.7735849" width="50.9433962" height="4.24528302" rx="2.12264151"></rect>
                        <rect id="矩形备份-27" fill="#E8EAF1" fill-rule="nonzero" x="11.8867925" y="81.509434" width="55.1886792" height="4.24528302" rx="2.12264151"></rect>
                    </g>
                    <g id="编组-44" transform="translate(111.735849, 26.320755)">
                        <rect id="矩形" fill="url(#linearGradient-2)" x="-7.84278303e-14" y="3.92139151e-14" width="26.9150943" height="31.8769811"></rect>
                        <g id="数据" transform="translate(6.792453, 9.339623)">
                            <rect id="矩形" fill="#000000" fill-rule="nonzero" opacity="0" x="1.69811321" y="0" width="13.5849057" height="13.5849057"></rect>
                            <path d="M5.92795883,1.31732418 C2.65403757,1.31732418 0,3.97136176 0,7.24528302 C0,10.5192043 2.65403757,13.1732419 5.92795883,13.1732419 C9.2018801,13.1732419 11.8559177,10.5192043 11.8559177,7.24528302 L5.92795883,7.24528302 L5.92795883,1.31732418 Z M7.24528303,0 C10.5192043,0 13.1732419,2.65403757 13.1732419,5.92795882 L7.24528303,5.92795882 L7.24528303,0 L7.24528303,0 Z" id="形状" fill="url(#linearGradient-3)"></path>
                        </g>
                    </g>
                    <g id="编组-47" transform="translate(59.943396, 0.000000)">
                        <rect id="矩形" fill="url(#linearGradient-4)" x="1.13117063e-13" y="-3.92139151e-14" width="23.0128302" height="27.254717"></rect>
                        <g id="设备管理" transform="translate(5.094340, 7.641509)" fill="url(#linearGradient-5)">
                            <path d="M11.1875694,12.0754717 L0,12.0754717 L0,8.52386237 L12.7857936,8.52386237 L12.7857936,12.0754717 L11.1875694,12.0754717 Z M7.19200888,9.94450611 L1.59822419,9.94450611 L1.59822419,10.654828 L7.19200888,10.654828 L7.19200888,9.94450611 L7.19200888,9.94450611 Z M11.1875694,9.94450611 L8.79023307,9.94450611 L8.79023307,10.654828 L11.1875694,10.654828 L11.1875694,9.94450611 Z M11.1875694,7.81354051 L0,7.81354051 L0,4.26193119 L12.7857936,4.26193119 L12.7857936,7.81354051 L11.1875694,7.81354051 L11.1875694,7.81354051 Z M7.19200888,5.68257492 L1.59822419,5.68257492 L1.59822419,6.39289678 L7.19200888,6.39289678 L7.19200888,5.68257492 L7.19200888,5.68257492 Z M11.1875694,5.68257492 L8.79023307,5.68257492 L8.79023307,6.39289678 L11.1875694,6.39289678 L11.1875694,5.68257492 Z M11.1875694,3.55160933 L0,3.55160933 L0,0 L12.7857936,0 L12.7857936,3.55160933 L11.1875694,3.55160933 Z M7.19200888,1.42064373 L1.59822419,1.42064373 L1.59822419,2.13096559 L7.19200888,2.13096559 L7.19200888,1.42064373 L7.19200888,1.42064373 Z M11.1875694,1.42064373 L8.79023307,1.42064373 L8.79023307,2.13096559 L11.1875694,2.13096559 L11.1875694,1.42064373 Z" id="形状"></path>
                        </g>
                    </g>
                    <g id="编组-50" transform="translate(22.075472, 12.765700)">
                        <polygon id="矩形" fill="url(#linearGradient-6)" transform="translate(11.924151, 13.965283) rotate(-0.520000) translate(-11.924151, -13.965283) " points="0.849056604 0.849056604 22.9992453 0.849056604 22.9992453 27.0815094 0.849056604 27.0815094"></polygon>
                        <g id="物流-卡车2" transform="translate(6.452830, 6.762602)">
                            <rect id="矩形" fill="#000000" fill-rule="nonzero" opacity="0" x="0" y="0" width="13.5849057" height="13.5849057"></rect>
                            <path d="M12.6084906,6.06226415 C12.6,6.04528302 12.6,6.02830189 12.5915094,6.01981132 L10.095283,3.52358491 C9.99339623,3.42169811 9.86603774,3.38773585 9.73867925,3.39622642 L7.64150943,3.39622642 C7.64150943,2.46226415 6.87735849,1.69811321 5.94339623,1.69811321 L1.69811321,1.69811321 C0.764150943,1.69811321 0,2.46226415 0,3.39622642 L0,9.76415094 C0,10.0018868 0.186792453,10.1886792 0.424528302,10.1886792 L0.849056604,10.1886792 C0.849056604,11.1226415 1.61320755,11.8867925 2.54716981,11.8867925 C3.48113208,11.8867925 4.24528302,11.1226415 4.24528302,10.1886792 L8.49056604,10.1886792 C8.49056604,11.1226415 9.25471698,11.8867925 10.1886792,11.8867925 C11.1226415,11.8867925 11.8867925,11.1226415 11.8867925,10.1886792 L12.3113208,10.1886792 C12.5490566,10.1886792 12.7358491,10.0018868 12.7358491,9.76415094 L12.7358491,6.36792453 C12.7358491,6.2490566 12.6849057,6.13867925 12.6084906,6.06226415 Z M2.54716981,11.0377358 C2.08018868,11.0377358 1.69811321,10.6556604 1.69811321,10.1886792 C1.69811321,9.72169811 2.08018868,9.33962264 2.54716981,9.33962264 C3.01415094,9.33962264 3.39622642,9.72169811 3.39622642,10.1886792 C3.39622642,10.6556604 3.01415094,11.0377358 2.54716981,11.0377358 Z M10.1886792,11.0377358 C9.72169811,11.0377358 9.33962264,10.6556604 9.33962264,10.1886792 C9.33962264,9.72169811 9.72169811,9.33962264 10.1886792,9.33962264 C10.6556604,9.33962264 11.0377358,9.72169811 11.0377358,10.1886792 C11.0377358,10.6556604 10.6556604,11.0377358 10.1886792,11.0377358 Z M7.64150943,6.79245283 L7.64150943,4.24528302 L9.33962264,4.24528302 L11.8867925,6.79245283 L7.64150943,6.79245283 Z" id="形状" fill="url(#linearGradient-7)"></path>
                        </g>
                    </g>
                    <g id="编组-43" transform="translate(34.074073, 33.507170)" stroke="#4FA6FF" stroke-dasharray="4.800000000000001" stroke-width="0.5">
                        <path d="M86.7771637,28.4739623 C86.7771637,28.4739623 82.3620693,39.0022642 88.8148995,44.0966038 C95.2677297,49.1909434 88.1356542,60.0588679 88.1356542,60.0588679" id="路径"></path>
                        <path d="M0,13.9245283 C0,13.9245283 5.09433962,38.7169811 29.8867925,38.7169811 C54.6792453,38.7169811 62.7183796,48.0022642 66.9636626,56.4928302" id="路径"></path>
                        <path d="M36,1.80987301e-14 C36,1.80987301e-14 29.4724528,12.0056604 36.6486792,24.2388679 C40.0983942,30.0088365 45.6631404,34.2052425 52.1592453,35.9354717 C67.5475472,40.1535849 68.6617758,32.7192453 81.3976249,55.6437736" id="路径"></path>
                    </g>
                    <g id="编组-40" transform="translate(76.415094, 88.301887)">
                        <path d="M33.5377358,67.0754717 C52.0601159,67.0754717 67.0754717,52.0601159 67.0754717,33.5377358 C67.0754717,15.0153558 52.0601159,0 33.5377358,0 C15.0153558,0 0,15.0153558 0,33.5377358 C0,52.0601159 15.0153558,67.0754717 33.5377358,67.0754717 Z" id="椭圆形" fill="url(#linearGradient-8)" opacity="0.58968099"></path>
                        <g id="编组-39" transform="translate(15.283019, 6.792453)">
                            <rect id="矩形" fill="url(#linearGradient-9)" x="6.54162113" y="11.361763" width="23.0678219" height="10.6731713" rx="1.4657143"></rect>
                            <rect id="矩形" fill="#0D7377" fill-rule="nonzero" opacity="0.180603609" x="8.60739623" y="13.0832423" width="19.2805675" height="7.23021283"></rect>
                            <circle id="椭圆形" fill="#C7E3FF" fill-rule="nonzero" opacity="0.279129464" cx="13.0832423" cy="16.8704966" r="2.75436679"></circle>
                            <circle id="椭圆形" fill="#C7E3FF" fill-rule="nonzero" opacity="0.279129464" cx="23.4121177" cy="16.8704966" r="2.75436679"></circle>
                            <rect id="矩形" fill="url(#linearGradient-10)" x="16.1819049" y="22.0349343" width="4.13155019" height="2.41007094"></rect>
                            <rect id="矩形" fill="url(#linearGradient-11)" x="9.64028377" y="23.7564136" width="16.8704966" height="13.4275381"></rect>
                            <rect id="矩形" fill="url(#linearGradient-12)" x="9.29598792" y="39.5940226" width="17.5590883" height="1.72147925"></rect>
                            <polygon id="路径" fill="url(#linearGradient-13)" points="12.0503547 45.3667131 12.0503547 47.3636686 12.0503547 50.3590524 12.0503547 52.0231325 12.0503547 53.0215608 15.1490174 53.0215608 15.1490174 52.0231325 15.1490174 50.3590524 15.1490174 47.3636686 15.1490174 45.3667131 15.1490174 43.0369811 12.0503547 43.0369811"></polygon>
                            <polygon id="路径" fill="url(#linearGradient-13)" points="21.3463426 43.0369811 21.3463426 45.3667131 21.3463426 47.3636686 21.3463426 50.3590524 21.3463426 52.0231325 21.3463426 53.0215608 24.4450053 53.0215608 24.4450053 52.0231325 24.4450053 50.3590524 24.4450053 47.3636686 24.4450053 45.3667131 24.4450053 43.0369811"></polygon>
                            <path d="M7.57450868,26.8550762 L7.57450868,29.9578165 C6.73362698,30.1025529 5.95011259,30.4747582 5.31143726,31.0328791 C4.71917187,31.5734227 4.25861177,32.2389565 3.96421494,32.9796871 C3.57036709,33.919982 3.37891146,34.9642437 3.30076693,35.9515087 C3.20440411,37.2831219 3.26761721,38.6212869 3.4890984,39.9383185 L0.0851106889,39.9383185 C-0.0594602449,38.0839184 -0.0133520331,36.492887 0.174192827,35.1267285 C0.384402539,33.5865322 0.773566172,32.3328046 1.26666032,31.3131873 C2.25284759,29.2747318 3.65554858,28.1688683 4.88788862,27.5681897 C6.35154518,26.8550762 7.57450868,26.8550762 7.57450868,26.8550762 Z" id="路径" fill="url(#linearGradient-14)"></path>
                            <rect id="矩形" fill="url(#linearGradient-15)" x="12.0503547" y="43.0369811" width="3.09866264" height="2.41007094"></rect>
                            <rect id="矩形" fill="url(#linearGradient-3)" x="12.0503547" y="47.5128272" width="3.09866264" height="3.09866264"></rect>
                            <rect id="矩形" fill="url(#linearGradient-16)" x="12.0503547" y="52.3329691" width="3.09866264" height="1.03288755"></rect>
                            <rect id="矩形" fill="url(#linearGradient-15)" x="21.3463426" y="43.0369811" width="3.09866264" height="2.41007094"></rect>
                            <rect id="矩形" fill="url(#linearGradient-3)" x="21.3463426" y="47.5128272" width="3.09866264" height="3.09866264"></rect>
                            <rect id="矩形" fill="url(#linearGradient-16)" x="21.3463426" y="52.3329691" width="3.09866264" height="1.03288755"></rect>
                            <path d="M7.57450868,26.8550762 L7.57450868,29.9234659 C6.71242302,30.0665999 5.90915126,30.4346844 5.25437088,30.9866264 L4.82014189,27.5602997 C6.32070652,26.8550762 7.57450868,26.8550762 7.57450868,26.8550762 Z" id="路径" fill="url(#linearGradient-17)"></path>
                            <path d="M3.78725434,33.0232184 C3.39369421,33.9305759 3.20237845,34.9382582 3.124291,35.8909404 L-1.82118471e-13,35.0950513 C0.210056143,33.6088064 0.598935475,32.3989956 1.09166939,31.4150943 L3.78725434,33.0232184 Z" id="路径" fill="url(#linearGradient-18)"></path>
                            <path d="M28.5765555,26.8550762 L28.5765555,29.9578165 C29.4174374,30.1025529 30.200952,30.4747582 30.8396275,31.0328791 C31.4318927,31.5734226 31.8924523,32.2389565 32.1868482,32.9796871 C32.5806972,33.919982 32.7721529,34.9642437 32.8502974,35.9515087 C32.9466597,37.2831219 32.8834466,38.6212869 32.6619659,39.9383185 L36.0659556,39.9383185 C36.2105215,38.0839184 36.1644184,36.492887 35.9768735,35.1267285 C35.7666637,33.5865322 35.3774989,32.3328046 34.8844057,31.3131873 C33.8982181,29.2747318 32.4955167,28.1688683 31.2631763,27.5681897 C29.7995193,26.8550762 28.5765555,26.8550762 28.5765555,26.8550762 Z" id="路径" fill="url(#linearGradient-14)"></path>
                            <path d="M28.5765555,26.8550762 L28.5765555,29.9234659 C29.4386411,30.0665999 30.2419129,30.4346844 30.8966933,30.9866264 L31.3309223,27.5602997 C29.8303576,26.8550762 28.5765555,26.8550762 28.5765555,26.8550762 Z" id="路径" fill="url(#linearGradient-17)"></path>
                            <path d="M32.3638098,32.9390464 C32.7573708,33.8464038 32.9486866,34.8540861 33.026774,35.8067683 L36.1510642,35.0108793 C35.9410081,33.5246344 35.5521278,32.3148235 35.0593951,31.3309223 L32.3638098,32.9390464 Z" id="路径" fill="url(#linearGradient-18)"></path>
                            <rect id="矩形" fill="url(#linearGradient-19)" x="11.8867925" y="1.69811321" width="1.03288755" height="9.98457962"></rect>
                            <rect id="矩形" fill="url(#linearGradient-19)" x="23.7735849" y="1.69811321" width="1.03288755" height="9.98457962"></rect>
                            <circle id="椭圆形" fill="url(#linearGradient-3)" cx="12.4149192" cy="1.3771834" r="1.3771834"></circle>
                            <circle id="椭圆形" fill="url(#linearGradient-3)" cx="24.3017117" cy="1.3771834" r="1.3771834"></circle>
                        </g>
                    </g>
                </g>
            </g>
        </g>
    </g>
</svg>