<?xml version="1.0" encoding="UTF-8"?>
<svg width="61px" height="61px" viewBox="0 0 61 61" version="1.1" xmlns="http://www.w3.org/2000/svg" xmlns:xlink="http://www.w3.org/1999/xlink">
    <title>key-26</title>
    <g id="解决方案" stroke="none" stroke-width="1" fill="none" fill-rule="evenodd" stroke-linecap="square">
        <g id="金融解决方案" transform="translate(-1380.000000, -2737.000000)" stroke-width="2">
            <g id="产品介绍-2" transform="translate(0.000000, 2559.000000)">
                <g id="编组-9" transform="translate(372.000000, 72.000000)">
                    <g id="01" transform="translate(900.000000, 76.000000)">
                        <g id="编组-41" transform="translate(78.000000, 0.000000)">
                            <g id="key-26" transform="translate(31.000000, 31.000000)">
                                <path d="M47,0 L22.525,24.375 C15.0439151,22.3704451 7.14915206,25.6405593 3.27665522,32.3479164 C-0.595841616,39.0552735 0.519533393,47.5273966 5.9960684,53.0039316 C11.4726034,58.4804666 19.9447265,59.5958416 26.6520836,55.7233448 C33.3594407,51.8508479 36.6295549,43.9560849 34.625,36.475 L39,32 L39,24 L47,24 L47,16 L55,16 L59,12 L59,0 L47,0 Z" id="路径" stroke="#333333"></path>
                                <circle id="椭圆形" stroke="#00AAE7" cx="16.5" cy="42.5" r="5.5"></circle>
                            </g>
                        </g>
                    </g>
                </g>
            </g>
        </g>
    </g>
</svg>