<?xml version="1.0" encoding="UTF-8"?>
<svg width="57px" height="62px" viewBox="0 0 57 62" version="1.1" xmlns="http://www.w3.org/2000/svg" xmlns:xlink="http://www.w3.org/1999/xlink">
    <title>mobile-chat</title>
    <g id="解决方案" stroke="none" stroke-width="1" fill="none" fill-rule="evenodd" stroke-linecap="square">
        <g id="金融解决方案" transform="translate(-532.000000, -719.000000)" stroke-width="2">
            <g id="产品介绍-2" transform="translate(0.000000, 542.000000)">
                <g id="编组-5" transform="translate(372.000000, 148.000000)">
                    <g id="01">
                        <g id="mobile-chat" transform="translate(161.000000, 30.000000)">
                            <line x1="38" y1="16" x2="29" y2="16" id="路径" stroke="#00AAE7"></line>
                            <line x1="47" y1="8" x2="29" y2="8" id="路径" stroke="#00AAE7"></line>
                            <path d="M21,4 C21,1.790861 22.790861,0 25,0 L51,0 C53.209139,0 55,1.790861 55,4 L55,20 C55,22.209139 53.209139,24 51,24 L30,24 L21,31 L21,4 Z" id="路径" stroke="#00AAE7"></path>
                            <line x1="0" y1="12" x2="16" y2="12" id="路径" stroke="#333333"></line>
                            <line x1="0" y1="50" x2="38" y2="50" id="路径" stroke="#333333"></line>
                            <path d="M38,29 L38,55 C38,57.7614237 35.7614237,60 33,60 L5,60 C2.23857625,60 0,57.7614237 0,55 L0,9 C0,6.23857625 2.23857625,4 5,4 L16,4" id="路径" stroke="#333333"></path>
                        </g>
                    </g>
                </g>
            </g>
        </g>
    </g>
</svg>