<?xml version="1.0" encoding="UTF-8"?>
<svg width="665px" height="312px" viewBox="0 0 665 312" version="1.1" xmlns="http://www.w3.org/2000/svg" xmlns:xlink="http://www.w3.org/1999/xlink">
    <title>编组 4</title>
    <defs>
        <path d="M338,0 L663,0 C664.104569,-2.02906125e-16 665,0.8954305 665,2 L665,133 C665,134.104569 664.104569,135 663,135 L338,135 C336.895431,135 336,134.104569 336,133 L336,2 C336,0.8954305 336.895431,2.02906125e-16 338,0 Z" id="path-1"></path>
        <mask id="mask-2" maskContentUnits="userSpaceOnUse" maskUnits="objectBoundingBox" x="0" y="0" width="329" height="135" fill="white">
            <use xlink:href="#path-1"></use>
        </mask>
        <path d="M2,150 L663,150 C664.104569,150 665,150.895431 665,152 L665,310 C665,311.104569 664.104569,312 663,312 L2,312 C0.8954305,312 1.3527075e-16,311.104569 0,310 L0,152 C-1.3527075e-16,150.895431 0.8954305,150 2,150 Z" id="path-3"></path>
        <mask id="mask-4" maskContentUnits="userSpaceOnUse" maskUnits="objectBoundingBox" x="0" y="0" width="665" height="162" fill="white">
            <use xlink:href="#path-3"></use>
        </mask>
    </defs>
    <g id="解决方案" stroke="none" stroke-width="1" fill="none" fill-rule="evenodd">
        <g id="场景解决方案-私有云行业解决方案02✅" transform="translate(-444.000000, -2312.000000)">
            <g id="编组-9">
                <g id="使用场景备份-4" transform="translate(0.000000, 2040.000000)">
                    <g id="编组-20" transform="translate(376.000000, 248.000000)">
                        <g id="编组-19">
                            <g id="编组-4" transform="translate(68.000000, 24.000000)">
                                <use id="矩形备份-25" stroke="#59C7CA" mask="url(#mask-2)" stroke-width="2" fill="#E2F2F3" opacity="0.85" stroke-dasharray="4" xlink:href="#path-1"></use>
                                <use id="矩形备份-28" stroke="#21B4E9" mask="url(#mask-4)" stroke-width="2" fill="#E6F4F9" opacity="0.85" stroke-dasharray="4" xlink:href="#path-3"></use>
                                <g id="对象存储备份" transform="translate(62.000000, 254.000000)">
                                    <rect id="矩形" fill="#21B4E9" x="0" y="0" width="31.5" height="10.5"></rect>
                                    <rect id="矩形备份-2" fill="#21B4E9" x="0" y="12" width="31.5" height="10.5"></rect>
                                    <rect id="矩形备份-3" fill="#21B4E9" x="0" y="24" width="31.5" height="12"></rect>
                                    <line x1="6" y1="6" x2="10.5" y2="6" id="直线-2" stroke="#E2F5FC" stroke-width="2.9403" stroke-linecap="square"></line>
                                    <line x1="6" y1="18" x2="10.5" y2="18" id="直线-2" stroke="#E2F5FC" stroke-width="2.9403" stroke-linecap="square"></line>
                                    <line x1="6" y1="30" x2="10.5" y2="30" id="直线-2" stroke="#E2F5FC" stroke-width="2.9403" stroke-linecap="square"></line>
                                </g>
                                <g id="对象存储备份-4" transform="translate(285.000000, 254.000000)">
                                    <rect id="矩形" fill="#21B4E9" x="0" y="0" width="31.5" height="10.5"></rect>
                                    <rect id="矩形备份-2" fill="#21B4E9" x="0" y="12" width="31.5" height="10.5"></rect>
                                    <rect id="矩形备份-3" fill="#21B4E9" x="0" y="24" width="31.5" height="12"></rect>
                                    <line x1="6" y1="6" x2="10.5" y2="6" id="直线-2" stroke="#E2F5FC" stroke-width="2.9403" stroke-linecap="square"></line>
                                    <line x1="6" y1="18" x2="10.5" y2="18" id="直线-2" stroke="#E2F5FC" stroke-width="2.9403" stroke-linecap="square"></line>
                                    <line x1="6" y1="30" x2="10.5" y2="30" id="直线-2" stroke="#E2F5FC" stroke-width="2.9403" stroke-linecap="square"></line>
                                </g>
                                <g id="对象存储备份-7" transform="translate(508.000000, 254.000000)">
                                    <rect id="矩形" fill="#21B4E9" x="0" y="0" width="31.5" height="10.5"></rect>
                                    <rect id="矩形备份-2" fill="#21B4E9" x="0" y="12" width="31.5" height="10.5"></rect>
                                    <rect id="矩形备份-3" fill="#21B4E9" x="0" y="24" width="31.5" height="12"></rect>
                                    <line x1="6" y1="6" x2="10.5" y2="6" id="直线-2" stroke="#E2F5FC" stroke-width="2.9403" stroke-linecap="square"></line>
                                    <line x1="6" y1="18" x2="10.5" y2="18" id="直线-2" stroke="#E2F5FC" stroke-width="2.9403" stroke-linecap="square"></line>
                                    <line x1="6" y1="30" x2="10.5" y2="30" id="直线-2" stroke="#E2F5FC" stroke-width="2.9403" stroke-linecap="square"></line>
                                </g>
                                <g id="对象存储备份-2" transform="translate(111.000000, 254.000000)">
                                    <rect id="矩形" fill="#21B4E9" x="0" y="0" width="31.5" height="10.5"></rect>
                                    <rect id="矩形备份-2" fill="#21B4E9" x="0" y="12" width="31.5" height="10.5"></rect>
                                    <rect id="矩形备份-3" fill="#21B4E9" x="0" y="24" width="31.5" height="12"></rect>
                                    <line x1="6" y1="6" x2="10.5" y2="6" id="直线-2" stroke="#E2F5FC" stroke-width="2.9403" stroke-linecap="square"></line>
                                    <line x1="6" y1="18" x2="10.5" y2="18" id="直线-2" stroke="#E2F5FC" stroke-width="2.9403" stroke-linecap="square"></line>
                                    <line x1="6" y1="30" x2="10.5" y2="30" id="直线-2" stroke="#E2F5FC" stroke-width="2.9403" stroke-linecap="square"></line>
                                </g>
                                <g id="对象存储备份-5" transform="translate(335.000000, 254.000000)">
                                    <rect id="矩形" fill="#21B4E9" x="0" y="0" width="31.5" height="10.5"></rect>
                                    <rect id="矩形备份-2" fill="#21B4E9" x="0" y="12" width="31.5" height="10.5"></rect>
                                    <rect id="矩形备份-3" fill="#21B4E9" x="0" y="24" width="31.5" height="12"></rect>
                                    <line x1="6" y1="6" x2="10.5" y2="6" id="直线-2" stroke="#E2F5FC" stroke-width="2.9403" stroke-linecap="square"></line>
                                    <line x1="6" y1="18" x2="10.5" y2="18" id="直线-2" stroke="#E2F5FC" stroke-width="2.9403" stroke-linecap="square"></line>
                                    <line x1="6" y1="30" x2="10.5" y2="30" id="直线-2" stroke="#E2F5FC" stroke-width="2.9403" stroke-linecap="square"></line>
                                </g>
                                <g id="对象存储备份-8" transform="translate(557.000000, 254.000000)">
                                    <rect id="矩形" fill="#21B4E9" x="0" y="0" width="31.5" height="10.5"></rect>
                                    <rect id="矩形备份-2" fill="#21B4E9" x="0" y="12" width="31.5" height="10.5"></rect>
                                    <rect id="矩形备份-3" fill="#21B4E9" x="0" y="24" width="31.5" height="12"></rect>
                                    <line x1="6" y1="6" x2="10.5" y2="6" id="直线-2" stroke="#E2F5FC" stroke-width="2.9403" stroke-linecap="square"></line>
                                    <line x1="6" y1="18" x2="10.5" y2="18" id="直线-2" stroke="#E2F5FC" stroke-width="2.9403" stroke-linecap="square"></line>
                                    <line x1="6" y1="30" x2="10.5" y2="30" id="直线-2" stroke="#E2F5FC" stroke-width="2.9403" stroke-linecap="square"></line>
                                </g>
                                <g id="对象存储备份-3" transform="translate(161.000000, 254.000000)">
                                    <rect id="矩形" fill="#21B4E9" x="0" y="0" width="31.5" height="10.5"></rect>
                                    <rect id="矩形备份-2" fill="#21B4E9" x="0" y="12" width="31.5" height="10.5"></rect>
                                    <rect id="矩形备份-3" fill="#21B4E9" x="0" y="24" width="31.5" height="12"></rect>
                                    <line x1="6" y1="6" x2="10.5" y2="6" id="直线-2" stroke="#E2F5FC" stroke-width="2.9403" stroke-linecap="square"></line>
                                    <line x1="6" y1="18" x2="10.5" y2="18" id="直线-2" stroke="#E2F5FC" stroke-width="2.9403" stroke-linecap="square"></line>
                                    <line x1="6" y1="30" x2="10.5" y2="30" id="直线-2" stroke="#E2F5FC" stroke-width="2.9403" stroke-linecap="square"></line>
                                </g>
                                <g id="对象存储备份-6" transform="translate(384.000000, 254.000000)">
                                    <rect id="矩形" fill="#21B4E9" x="0" y="0" width="31.5" height="10.5"></rect>
                                    <rect id="矩形备份-2" fill="#21B4E9" x="0" y="12" width="31.5" height="10.5"></rect>
                                    <rect id="矩形备份-3" fill="#21B4E9" x="0" y="24" width="31.5" height="12"></rect>
                                    <line x1="6" y1="6" x2="10.5" y2="6" id="直线-2" stroke="#E2F5FC" stroke-width="2.9403" stroke-linecap="square"></line>
                                    <line x1="6" y1="18" x2="10.5" y2="18" id="直线-2" stroke="#E2F5FC" stroke-width="2.9403" stroke-linecap="square"></line>
                                    <line x1="6" y1="30" x2="10.5" y2="30" id="直线-2" stroke="#E2F5FC" stroke-width="2.9403" stroke-linecap="square"></line>
                                </g>
                                <g id="对象存储备份-9" transform="translate(607.000000, 254.000000)">
                                    <rect id="矩形" fill="#21B4E9" x="0" y="0" width="31.5" height="10.5"></rect>
                                    <rect id="矩形备份-2" fill="#21B4E9" x="0" y="12" width="31.5" height="10.5"></rect>
                                    <rect id="矩形备份-3" fill="#21B4E9" x="0" y="24" width="31.5" height="12"></rect>
                                    <line x1="6" y1="6" x2="10.5" y2="6" id="直线-2" stroke="#E2F5FC" stroke-width="2.9403" stroke-linecap="square"></line>
                                    <line x1="6" y1="18" x2="10.5" y2="18" id="直线-2" stroke="#E2F5FC" stroke-width="2.9403" stroke-linecap="square"></line>
                                    <line x1="6" y1="30" x2="10.5" y2="30" id="直线-2" stroke="#E2F5FC" stroke-width="2.9403" stroke-linecap="square"></line>
                                </g>
                                <text id="七牛分布式存储-KODO-Enterpr" font-family="PingFangSC-Medium, PingFang SC" font-size="14" font-weight="400" line-spacing="18" fill="#21B4E9">
                                    <tspan x="243" y="235">七牛分布式存储 KODO Enterprise</tspan>
                                </text>
                                <path id="路径-15备份-6" d="M231,64 L231,156.5 L235,156.5 L230.5,165.5 L226,156.5 L230,156.5 L230,64 L231,64 Z" fill="#28B8BB" fill-rule="nonzero"></path>
                                <path id="路径-15备份-6" d="M325.5,44 L334.5,48.5 L325.5,53 L325.5,49 L247,49 L247,48 L325.5,48 L325.5,44 Z" fill="#28B8BB" fill-rule="nonzero"></path>
                                <path id="路径-15备份-6" d="M88,64 L88,156.5 L92,156.5 L87.5,165.5 L83,156.5 L87,156.5 L87,64 L88,64 Z" fill="#28B8BB" fill-rule="nonzero"></path>
                                <polygon id="矩形" fill="#21B4E9" points="69 169 108 169 102 204 75 204"></polygon>
                                <polygon id="矩形备份" fill="#21B4E9" points="211 169 250 169 244 204 217 204"></polygon>
                                <rect id="矩形备份-51" fill="#28B8BB" opacity="0.854399182" x="354" y="37" width="89" height="36"></rect>
                                <rect id="矩形备份-61" fill="#28B8BB" opacity="0.854399182" x="354" y="83" width="89" height="36"></rect>
                                <rect id="矩形备份-58" fill="#28B8BB" opacity="0.854399182" x="455" y="37" width="89" height="36"></rect>
                                <rect id="矩形备份-63" fill="#28B8BB" opacity="0.854399182" x="455" y="83" width="89" height="36"></rect>
                                <rect id="矩形备份-60" fill="#28B8BB" opacity="0.854399182" x="556" y="37" width="89" height="36"></rect>
                                <rect id="矩形备份-64" fill="#28B8BB" opacity="0.854399182" x="556" y="83" width="89" height="36"></rect>
                                <text id="上传图片、视频" font-family="PingFangSC-Regular, PingFang SC" font-size="14" font-weight="normal" line-spacing="18" fill="#28B8BB">
                                    <tspan x="92" y="112">上传图片、视频</tspan>
                                </text>
                                <text id="异步访问" font-family="PingFangSC-Regular, PingFang SC" font-size="14" font-weight="normal" line-spacing="18" fill="#28B8BB">
                                    <tspan x="238" y="112">异步访问</tspan>
                                </text>
                                <text id="实时访问" font-family="PingFangSC-Regular, PingFang SC" font-size="14" font-weight="normal" line-spacing="18" fill="#28B8BB">
                                    <tspan x="263" y="41">实时访问</tspan>
                                </text>
                                <text id="图片-音视频-文档处理" font-family="PingFangSC-Medium, PingFang SC" font-size="14" font-weight="400" line-spacing="18" fill="#28B8BB">
                                    <tspan x="432" y="25">图片 音视频 文档处理</tspan>
                                </text>
                                <text id="转码" font-family="PingFangSC-Regular, PingFang SC" font-size="14" font-weight="normal" line-spacing="18" fill="#FFFFFF">
                                    <tspan x="384" y="61">转码</tspan>
                                </text>
                                <text id="拼接" font-family="PingFangSC-Regular, PingFang SC" font-size="14" font-weight="normal" line-spacing="18" fill="#FFFFFF">
                                    <tspan x="384" y="107">拼接</tspan>
                                </text>
                                <text id="旋转" font-family="PingFangSC-Regular, PingFang SC" font-size="14" font-weight="normal" line-spacing="18" fill="#FFFFFF">
                                    <tspan x="485" y="61">旋转</tspan>
                                </text>
                                <text id="截图" font-family="PingFangSC-Regular, PingFang SC" font-size="14" font-weight="normal" line-spacing="18" fill="#FFFFFF">
                                    <tspan x="485" y="107">截图</tspan>
                                </text>
                                <text id="水印" font-family="PingFangSC-Regular, PingFang SC" font-size="14" font-weight="normal" line-spacing="18" fill="#FFFFFF">
                                    <tspan x="586" y="61">水印</tspan>
                                </text>
                                <text id="自定义" font-family="PingFangSC-Regular, PingFang SC" font-size="14" font-weight="normal" line-spacing="18" fill="#FFFFFF">
                                    <tspan x="579" y="107">自定义</tspan>
                                </text>
                                <g id="icon_yonghu-" transform="translate(72.000000, 25.000000)" fill="#43C0C3" fill-rule="nonzero">
                                    <path d="M15.4839392,0 C10.239334,0.00839996566 5.99409757,4.04155207 6,9.01013297 C6.00591475,13.9787139 10.2607327,18.0027938 15.5053446,18 C20.7499565,17.9972033 25,13.9685905 25,9 C24.9867283,4.0287185 20.731421,0.00417576172 15.4839392,0 Z" id="路径"></path>
                                    <path d="M158.483939,0 C153.239334,0.00839996566 148.994098,4.04155207 149,9.01013297 C149.005915,13.9787139 153.260733,18.0027938 158.505345,18 C163.749957,17.9972033 168,13.9685905 168,9 C167.986728,4.0287185 163.731421,0.00417576172 158.483939,0 Z" id="路径备份"></path>
                                    <path d="M15.5000131,19 C6.94878825,19 0.0130088112,26.066182 0,34.7914313 C-0.00206330192,35.1112254 0.120978463,35.418654 0.341864108,35.6455376 C0.562749752,35.8724213 0.86322218,36 1.17664465,36 L29.8233815,36 C30.1354402,36 30.4347177,35.8735123 30.6553764,35.6483627 C30.8760352,35.4232131 31,35.1178447 31,34.799435 C30.9913418,26.0710593 24.0542966,19 15.5000131,19 Z" id="路径"></path>
                                    <path d="M158.500013,19 C149.948788,19 143.013009,26.066182 143,34.7914313 C142.997937,35.1112254 143.120978,35.418654 143.341864,35.6455376 C143.56275,35.8724213 143.863222,36 144.176645,36 L172.823382,36 C173.13544,36 173.434718,35.8735123 173.655376,35.6483627 C173.876035,35.4232131 174,35.1178447 174,34.799435 C173.991342,26.0710593 167.054297,19 158.500013,19 Z" id="路径备份-2"></path>
                                </g>
                            </g>
                        </g>
                    </g>
                </g>
            </g>
        </g>
    </g>
</svg>