<?xml version="1.0" encoding="UTF-8"?>
<svg width="665px" height="312px" viewBox="0 0 665 312" version="1.1" xmlns="http://www.w3.org/2000/svg" xmlns:xlink="http://www.w3.org/1999/xlink">
    <title>编组 3</title>
    <defs>
        <path d="M2,0 L663,0 C664.104569,-2.02906125e-16 665,0.8954305 665,2 L665,114 C665,115.104569 664.104569,116 663,116 L2,116 C0.8954305,116 1.3527075e-16,115.104569 0,114 L0,2 C-1.3527075e-16,0.8954305 0.8954305,2.02906125e-16 2,0 Z" id="path-1"></path>
        <mask id="mask-2" maskContentUnits="userSpaceOnUse" maskUnits="objectBoundingBox" x="0" y="0" width="665" height="116" fill="white">
            <use xlink:href="#path-1"></use>
        </mask>
        <path d="M2,143 L663,143 C664.104569,143 665,143.895431 665,145 L665,310 C665,311.104569 664.104569,312 663,312 L2,312 C0.8954305,312 1.3527075e-16,311.104569 0,310 L0,145 C-1.3527075e-16,143.895431 0.8954305,143 2,143 Z" id="path-3"></path>
        <mask id="mask-4" maskContentUnits="userSpaceOnUse" maskUnits="objectBoundingBox" x="0" y="0" width="665" height="169" fill="white">
            <use xlink:href="#path-3"></use>
        </mask>
    </defs>
    <g id="解决方案" stroke="none" stroke-width="1" fill="none" fill-rule="evenodd">
        <g id="场景解决方案-私有云行业解决方案02✅" transform="translate(-444.000000, -1632.000000)">
            <g id="编组-9">
                <g id="使用场景备份-2" transform="translate(0.000000, 1360.000000)">
                    <g id="编组-20" transform="translate(376.000000, 248.000000)">
                        <g id="编组-19">
                            <g id="编组-3" transform="translate(68.000000, 24.000000)">
                                <use id="矩形备份-25" stroke="#59C7CA" mask="url(#mask-2)" stroke-width="2" fill="#E2F2F3" opacity="0.85" stroke-dasharray="4" xlink:href="#path-1"></use>
                                <use id="矩形备份-28" stroke="#21B4E9" mask="url(#mask-4)" stroke-width="2" fill="#E6F4F9" opacity="0.85" stroke-dasharray="4" xlink:href="#path-3"></use>
                                <g id="对象存储备份" transform="translate(44.000000, 254.000000)">
                                    <rect id="矩形" fill="#21B4E9" x="0" y="0" width="31.5" height="10.5"></rect>
                                    <rect id="矩形备份-2" fill="#21B4E9" x="0" y="12" width="31.5" height="10.5"></rect>
                                    <rect id="矩形备份-3" fill="#21B4E9" x="0" y="24" width="31.5" height="12"></rect>
                                    <line x1="6" y1="6" x2="10.5" y2="6" id="直线-2" stroke="#E2F5FC" stroke-width="2.9403" stroke-linecap="square"></line>
                                    <line x1="6" y1="18" x2="10.5" y2="18" id="直线-2" stroke="#E2F5FC" stroke-width="2.9403" stroke-linecap="square"></line>
                                    <line x1="6" y1="30" x2="10.5" y2="30" id="直线-2" stroke="#E2F5FC" stroke-width="2.9403" stroke-linecap="square"></line>
                                </g>
                                <g id="对象存储备份-4" transform="translate(267.000000, 254.000000)">
                                    <rect id="矩形" fill="#21B4E9" x="0" y="0" width="31.5" height="10.5"></rect>
                                    <rect id="矩形备份-2" fill="#21B4E9" x="0" y="12" width="31.5" height="10.5"></rect>
                                    <rect id="矩形备份-3" fill="#21B4E9" x="0" y="24" width="31.5" height="12"></rect>
                                    <line x1="6" y1="6" x2="10.5" y2="6" id="直线-2" stroke="#E2F5FC" stroke-width="2.9403" stroke-linecap="square"></line>
                                    <line x1="6" y1="18" x2="10.5" y2="18" id="直线-2" stroke="#E2F5FC" stroke-width="2.9403" stroke-linecap="square"></line>
                                    <line x1="6" y1="30" x2="10.5" y2="30" id="直线-2" stroke="#E2F5FC" stroke-width="2.9403" stroke-linecap="square"></line>
                                </g>
                                <g id="对象存储备份-7" transform="translate(490.000000, 254.000000)">
                                    <rect id="矩形" fill="#21B4E9" x="0" y="0" width="31.5" height="10.5"></rect>
                                    <rect id="矩形备份-2" fill="#21B4E9" x="0" y="12" width="31.5" height="10.5"></rect>
                                    <rect id="矩形备份-3" fill="#21B4E9" x="0" y="24" width="31.5" height="12"></rect>
                                    <line x1="6" y1="6" x2="10.5" y2="6" id="直线-2" stroke="#E2F5FC" stroke-width="2.9403" stroke-linecap="square"></line>
                                    <line x1="6" y1="18" x2="10.5" y2="18" id="直线-2" stroke="#E2F5FC" stroke-width="2.9403" stroke-linecap="square"></line>
                                    <line x1="6" y1="30" x2="10.5" y2="30" id="直线-2" stroke="#E2F5FC" stroke-width="2.9403" stroke-linecap="square"></line>
                                </g>
                                <g id="对象存储备份-2" transform="translate(93.000000, 254.000000)">
                                    <rect id="矩形" fill="#21B4E9" x="0" y="0" width="31.5" height="10.5"></rect>
                                    <rect id="矩形备份-2" fill="#21B4E9" x="0" y="12" width="31.5" height="10.5"></rect>
                                    <rect id="矩形备份-3" fill="#21B4E9" x="0" y="24" width="31.5" height="12"></rect>
                                    <line x1="6" y1="6" x2="10.5" y2="6" id="直线-2" stroke="#E2F5FC" stroke-width="2.9403" stroke-linecap="square"></line>
                                    <line x1="6" y1="18" x2="10.5" y2="18" id="直线-2" stroke="#E2F5FC" stroke-width="2.9403" stroke-linecap="square"></line>
                                    <line x1="6" y1="30" x2="10.5" y2="30" id="直线-2" stroke="#E2F5FC" stroke-width="2.9403" stroke-linecap="square"></line>
                                </g>
                                <g id="对象存储备份-5" transform="translate(317.000000, 254.000000)">
                                    <rect id="矩形" fill="#21B4E9" x="0" y="0" width="31.5" height="10.5"></rect>
                                    <rect id="矩形备份-2" fill="#21B4E9" x="0" y="12" width="31.5" height="10.5"></rect>
                                    <rect id="矩形备份-3" fill="#21B4E9" x="0" y="24" width="31.5" height="12"></rect>
                                    <line x1="6" y1="6" x2="10.5" y2="6" id="直线-2" stroke="#E2F5FC" stroke-width="2.9403" stroke-linecap="square"></line>
                                    <line x1="6" y1="18" x2="10.5" y2="18" id="直线-2" stroke="#E2F5FC" stroke-width="2.9403" stroke-linecap="square"></line>
                                    <line x1="6" y1="30" x2="10.5" y2="30" id="直线-2" stroke="#E2F5FC" stroke-width="2.9403" stroke-linecap="square"></line>
                                </g>
                                <g id="对象存储备份-8" transform="translate(539.000000, 254.000000)">
                                    <rect id="矩形" fill="#21B4E9" x="0" y="0" width="31.5" height="10.5"></rect>
                                    <rect id="矩形备份-2" fill="#21B4E9" x="0" y="12" width="31.5" height="10.5"></rect>
                                    <rect id="矩形备份-3" fill="#21B4E9" x="0" y="24" width="31.5" height="12"></rect>
                                    <line x1="6" y1="6" x2="10.5" y2="6" id="直线-2" stroke="#E2F5FC" stroke-width="2.9403" stroke-linecap="square"></line>
                                    <line x1="6" y1="18" x2="10.5" y2="18" id="直线-2" stroke="#E2F5FC" stroke-width="2.9403" stroke-linecap="square"></line>
                                    <line x1="6" y1="30" x2="10.5" y2="30" id="直线-2" stroke="#E2F5FC" stroke-width="2.9403" stroke-linecap="square"></line>
                                </g>
                                <g id="对象存储备份-3" transform="translate(143.000000, 254.000000)">
                                    <rect id="矩形" fill="#21B4E9" x="0" y="0" width="31.5" height="10.5"></rect>
                                    <rect id="矩形备份-2" fill="#21B4E9" x="0" y="12" width="31.5" height="10.5"></rect>
                                    <rect id="矩形备份-3" fill="#21B4E9" x="0" y="24" width="31.5" height="12"></rect>
                                    <line x1="6" y1="6" x2="10.5" y2="6" id="直线-2" stroke="#E2F5FC" stroke-width="2.9403" stroke-linecap="square"></line>
                                    <line x1="6" y1="18" x2="10.5" y2="18" id="直线-2" stroke="#E2F5FC" stroke-width="2.9403" stroke-linecap="square"></line>
                                    <line x1="6" y1="30" x2="10.5" y2="30" id="直线-2" stroke="#E2F5FC" stroke-width="2.9403" stroke-linecap="square"></line>
                                </g>
                                <g id="对象存储备份-6" transform="translate(366.000000, 254.000000)">
                                    <rect id="矩形" fill="#21B4E9" x="0" y="0" width="31.5" height="10.5"></rect>
                                    <rect id="矩形备份-2" fill="#21B4E9" x="0" y="12" width="31.5" height="10.5"></rect>
                                    <rect id="矩形备份-3" fill="#21B4E9" x="0" y="24" width="31.5" height="12"></rect>
                                    <line x1="6" y1="6" x2="10.5" y2="6" id="直线-2" stroke="#E2F5FC" stroke-width="2.9403" stroke-linecap="square"></line>
                                    <line x1="6" y1="18" x2="10.5" y2="18" id="直线-2" stroke="#E2F5FC" stroke-width="2.9403" stroke-linecap="square"></line>
                                    <line x1="6" y1="30" x2="10.5" y2="30" id="直线-2" stroke="#E2F5FC" stroke-width="2.9403" stroke-linecap="square"></line>
                                </g>
                                <g id="对象存储备份-9" transform="translate(589.000000, 254.000000)">
                                    <rect id="矩形" fill="#21B4E9" x="0" y="0" width="31.5" height="10.5"></rect>
                                    <rect id="矩形备份-2" fill="#21B4E9" x="0" y="12" width="31.5" height="10.5"></rect>
                                    <rect id="矩形备份-3" fill="#21B4E9" x="0" y="24" width="31.5" height="12"></rect>
                                    <line x1="6" y1="6" x2="10.5" y2="6" id="直线-2" stroke="#E2F5FC" stroke-width="2.9403" stroke-linecap="square"></line>
                                    <line x1="6" y1="18" x2="10.5" y2="18" id="直线-2" stroke="#E2F5FC" stroke-width="2.9403" stroke-linecap="square"></line>
                                    <line x1="6" y1="30" x2="10.5" y2="30" id="直线-2" stroke="#E2F5FC" stroke-width="2.9403" stroke-linecap="square"></line>
                                </g>
                                <text id="七牛分布式存储-KODO-Enterpr" font-family="PingFangSC-Medium, PingFang SC" font-size="14" font-weight="400" line-spacing="18" fill="#21B4E9">
                                    <tspan x="225" y="235">七牛分布式存储 KODO Enterprise</tspan>
                                </text>
                                <polygon id="矩形" fill="#21B4E9" points="244 166 283 166 277 201 250 201"></polygon>
                                <polygon id="矩形备份" fill="#21B4E9" points="313 166 352 166 346 201 319 201"></polygon>
                                <polygon id="矩形备份-4" fill="#21B4E9" points="382 166 421 166 415 201 388 201"></polygon>
                                <path id="路径-15备份-6" d="M559.5,98 L559.5,137.672813 L333.5,137.672 L333.5,154.5 L337.5,154.5 L333,163.5 L328.5,154.5 L332.5,154.5 L332.5,136.672813 L558.5,136.672 L558.5,98 L559.5,98 Z" fill="#28B8BB" fill-rule="nonzero"></path>
                                <rect id="矩形备份-36" fill="#28B8BB" opacity="0.854399182" x="44" y="25" width="126" height="36"></rect>
                                <rect id="矩形备份-48" fill="#28B8BB" opacity="0.854399182" x="194" y="25" width="127" height="36"></rect>
                                <rect id="矩形备份-51" fill="#28B8BB" opacity="0.854399182" x="345" y="25" width="126" height="36"></rect>
                                <rect id="矩形备份-58" fill="#28B8BB" opacity="0.854399182" x="495" y="25" width="126" height="36"></rect>
                                <text id="数据库" font-family="PingFangSC-Regular, PingFang SC" font-size="14" font-weight="normal" line-spacing="18" fill="#FFFFFF">
                                    <tspan x="86" y="49">数据库</tspan>
                                </text>
                                <text id="备份软件" font-family="PingFangSC-Medium, PingFang SC" font-size="14" font-weight="400" line-spacing="18" fill="#28B8BB">
                                    <tspan x="75" y="92">备份软件</tspan>
                                </text>
                                <text id="数据备份" font-family="PingFangSC-Regular, PingFang SC" font-size="14" font-weight="normal" line-spacing="18" fill="#28B8BB">
                                    <tspan x="131" y="136">数据备份</tspan>
                                </text>
                                <text id="数据同步" font-family="PingFangSC-Regular, PingFang SC" font-size="14" font-weight="normal" line-spacing="18" fill="#28B8BB">
                                    <tspan x="408" y="132">数据同步</tspan>
                                </text>
                                <text id="数据同步工具" font-family="PingFangSC-Medium, PingFang SC" font-size="14" font-weight="400" line-spacing="18" fill="#28B8BB">
                                    <tspan x="516" y="92">数据同步工具</tspan>
                                </text>
                                <text id="虚拟机快照" font-family="PingFangSC-Regular, PingFang SC" font-size="14" font-weight="normal" line-spacing="18" fill="#FFFFFF">
                                    <tspan x="223" y="49">虚拟机快照</tspan>
                                </text>
                                <text id="文档图片" font-family="PingFangSC-Regular, PingFang SC" font-size="14" font-weight="normal" line-spacing="18" fill="#FFFFFF">
                                    <tspan x="380" y="49">文档图片</tspan>
                                </text>
                                <text id="业务系统数据" font-family="PingFangSC-Regular, PingFang SC" font-size="14" font-weight="normal" line-spacing="18" fill="#FFFFFF">
                                    <tspan x="516" y="49">业务系统数据</tspan>
                                </text>
                                <path id="路径-21" d="M194.269585,85.5 L194.269,183.5 L235.5,183.5 L235.5,179.5 L244.5,184 L235.5,188.5 L235.5,184.5 L193.269585,184.5 L193.269,86.5 L135,86.5 L135,85.5 L194.269585,85.5 Z" fill="#43C0C3" fill-rule="nonzero"></path>
                            </g>
                        </g>
                    </g>
                </g>
            </g>
        </g>
    </g>
</svg>