<?xml version="1.0" encoding="UTF-8"?>
<svg width="520px" height="350px" viewBox="0 0 520 350" version="1.1" xmlns="http://www.w3.org/2000/svg" xmlns:xlink="http://www.w3.org/1999/xlink">
    <title>插画</title>
    <defs>
        <filter x="-55.0%" y="-254.8%" width="210.0%" height="609.5%" filterUnits="objectBoundingBox" id="filter-1">
            <feGaussianBlur stdDeviation="50" in="SourceGraphic"></feGaussianBlur>
        </filter>
        <linearGradient x1="50%" y1="0%" x2="50%" y2="100%" id="linearGradient-2">
            <stop stop-color="#7AE9FF" stop-opacity="0" offset="0%"></stop>
            <stop stop-color="#44CFFF" offset="100%"></stop>
        </linearGradient>
        <linearGradient x1="50%" y1="0%" x2="50%" y2="100%" id="linearGradient-3">
            <stop stop-color="#7AE9FF" stop-opacity="0" offset="0%"></stop>
            <stop stop-color="#56D3FF" stop-opacity="0.500027316" offset="100%"></stop>
        </linearGradient>
        <filter x="-37.5%" y="-187.5%" width="175.0%" height="475.0%" filterUnits="objectBoundingBox" id="filter-4">
            <feGaussianBlur stdDeviation="10" in="SourceGraphic"></feGaussianBlur>
        </filter>
        <linearGradient x1="50%" y1="0%" x2="50%" y2="100%" id="linearGradient-5">
            <stop stop-color="#00D4F5" stop-opacity="0" offset="0%"></stop>
            <stop stop-color="#00BCED" offset="48.7070261%"></stop>
            <stop stop-color="#00AAE7" stop-opacity="0" offset="100%"></stop>
        </linearGradient>
        <linearGradient x1="50%" y1="0%" x2="50%" y2="100%" id="linearGradient-6">
            <stop stop-color="#00D4F5" stop-opacity="0" offset="0%"></stop>
            <stop stop-color="#00BCED" offset="48.7070261%"></stop>
            <stop stop-color="#00AAE7" stop-opacity="0" offset="100%"></stop>
        </linearGradient>
        <linearGradient x1="50%" y1="0%" x2="50%" y2="97.6061022%" id="linearGradient-7">
            <stop stop-color="#E2F7FF" offset="0%"></stop>
            <stop stop-color="#94D8FF" offset="100%"></stop>
        </linearGradient>
        <path d="M61.9521677,22.4428494 C61.8345546,22.0804621 61.5212386,21.8163925 61.1441677,21.7618494 L40.9361677,18.8248494 L31.9011677,0.512849405 C31.7143328,0.195108175 31.3732688,0 31.0046677,0 C30.6360666,0 30.2950026,0.195108175 30.1081677,0.512849405 L21.0661677,18.8248494 L0.85716771,21.7618494 C0.480472632,21.8162222 0.167300379,22.0797151 0.0493026837,22.4415606 C-0.068695012,22.803406 0.0289415177,23.2008635 0.30116771,23.4668494 L14.9271677,37.7218494 L11.4751677,57.8488494 C11.411164,58.2237123 11.5653229,58.602435 11.8729303,58.8260337 C12.1805376,59.0496325 12.5883483,59.0794035 12.9251677,58.9028494 L31.0011677,49.4008494 L49.0771677,58.9008494 C49.4139871,59.0774035 49.8217978,59.0476325 50.1294052,58.8240337 C50.4370125,58.600435 50.5911715,58.2217123 50.5271677,57.8468494 L47.0751677,37.7218494 L61.7011677,23.4668494 C61.9725892,23.2009256 62.0698462,22.8041483 61.9521677,22.4428494 Z" id="path-8"></path>
        <filter x="-8.1%" y="-8.5%" width="116.1%" height="116.9%" filterUnits="objectBoundingBox" id="filter-10">
            <feGaussianBlur stdDeviation="4" in="SourceAlpha" result="shadowBlurInner1"></feGaussianBlur>
            <feOffset dx="0" dy="2" in="shadowBlurInner1" result="shadowOffsetInner1"></feOffset>
            <feComposite in="shadowOffsetInner1" in2="SourceAlpha" operator="arithmetic" k2="-1" k3="1" result="shadowInnerInner1"></feComposite>
            <feColorMatrix values="0 0 0 0 0.063028165   0 0 0 0 0.472807785   0 0 0 0 0.616536458  0 0 0 0.5 0" type="matrix" in="shadowInnerInner1"></feColorMatrix>
        </filter>
    </defs>
    <g id="产品" stroke="none" stroke-width="1" fill="none" fill-rule="evenodd">
        <g id="基础服务-证书✅" transform="translate(-1028.000000, -120.000000)">
            <g id="banner" transform="translate(0.000000, 120.000000)">
                <g id="编组-35">
                    <g id="插画" transform="translate(1135.000000, 40.000000)">
                        <g id="编组-22" transform="translate(0.000000, 155.000000)">
                            <ellipse id="椭圆形" fill="#00BDFF" filter="url(#filter-1)" cx="149.36" cy="49.12" rx="136.32" ry="29.44"></ellipse>
                            <ellipse id="椭圆形" fill="url(#linearGradient-2)" cx="150" cy="29.44" rx="150" ry="29.44"></ellipse>
                            <ellipse id="椭圆形" fill="url(#linearGradient-3)" cx="150" cy="53.44" rx="150" ry="29.44"></ellipse>
                            <ellipse id="椭圆形" fill-opacity="0.5" fill="#0784DA" filter="url(#filter-4)" cx="150" cy="26" rx="40" ry="8"></ellipse>
                        </g>
                        <g id="编组-21" transform="translate(2.000000, 0.000000)" fill-rule="nonzero">
                            <path d="M4,100 L4,126 L4,126 L0,126 L0,96 C2.209139,96 4,97.790861 4,100 Z" id="路径" fill="url(#linearGradient-5)"></path>
                            <path d="M27,33 L27,60 L27,60 L24,60 L24,30 C25.6568542,30 27,31.3431458 27,33 Z" id="路径" fill="url(#linearGradient-6)"></path>
                            <path d="M275,37 L275,63 L275,63 L271,63 L271,33 C273.209139,33 275,34.790861 275,37 Z" id="路径" fill="url(#linearGradient-5)"></path>
                            <path d="M298,109 L298,135 L298,135 L294,135 L294,105 C296.209139,105 298,106.790861 298,109 Z" id="路径" fill="url(#linearGradient-5)"></path>
                            <path d="M228,4 L228,30 L228,30 L224,30 L224,0 C226.209139,-4.05812251e-16 228,1.790861 228,4 Z" id="路径" fill="url(#linearGradient-5)" opacity="0.400000006"></path>
                            <path d="M312,166 L312,193 L312,193 L309,193 L309,163 C310.656854,163 312,164.343146 312,166 Z" id="路径" fill="url(#linearGradient-6)" opacity="0.449999988"></path>
                        </g>
                        <g id="privacy" transform="translate(78.000000, 21.000000)">
                            <polygon id="路径-9" fill="#7FD1FB" points="0 7 1.57101993 0.489098607 142.981513 0.489098607 144 7"></polygon>
                            <path d="M144,91 C144,130.764502 111.764502,163 72,163 C32.235498,163 0,130.764502 0,91 L0,7 L144,7 L144,91 Z" id="路径" fill="url(#linearGradient-7)"></path>
                            <g id="shape-star" transform="translate(40.000000, 47.000000)">
                                <mask id="mask-9" fill="white">
                                    <use xlink:href="#path-8"></use>
                                </mask>
                                <g id="路径" fill-rule="nonzero">
                                    <use fill="#52C4FF" xlink:href="#path-8"></use>
                                    <use fill="black" fill-opacity="1" filter="url(#filter-10)" xlink:href="#path-8"></use>
                                </g>
                            </g>
                        </g>
                    </g>
                </g>
            </g>
        </g>
    </g>
</svg>