<?xml version="1.0" encoding="UTF-8"?>
<svg width="62px" height="62px" viewBox="0 0 62 62" version="1.1" xmlns="http://www.w3.org/2000/svg" xmlns:xlink="http://www.w3.org/1999/xlink">
    <!-- Generator: Sketch 64 (93537) - https://sketch.com -->
    <title>content-360deg</title>
    <desc>Created with Sketch.</desc>
    <g id="产品" stroke="none" stroke-width="1" fill="none" fill-rule="evenodd" stroke-linecap="square">
        <g id="基础服务-证书✅" transform="translate(-1079.000000, -843.000000)" stroke-width="2">
            <g id="产品介绍-2" transform="translate(372.000000, 738.000000)">
                <g id="01" transform="translate(600.000000, 76.000000)">
                    <g id="编组-37" transform="translate(78.000000, 0.000000)">
                        <g id="content-360deg" transform="translate(30.000000, 30.000000)">
                            <path d="M9.056,18.549 C3.472,21.455 0,25.51 0,29.9999918 C0,38.837 13.431,45.9999918 30,45.9999918 C46.569,45.9999918 60,38.837 60,29.9999918 C60,21.163 46.569,13.9999918 30,13.9999918 C27.5587385,13.998672 25.1200688,14.1590229 22.7,14.48" id="路径" stroke="#333333"></path>
                            <path d="M41.451,50.944 C38.545,56.528 34.49,60 30,60 C21.163,60 14,46.569 14,30 C14,13.431 21.163,0 30,0 C38.837,0 46,13.431 46,30 C46.001328,32.4412615 45.8409771,34.8799312 45.52,37.3" id="路径" stroke="#333333"></path>
                            <circle id="椭圆形" stroke="#00AAE7" cx="30" cy="30" r="8"></circle>
                        </g>
                    </g>
                </g>
            </g>
        </g>
    </g>
</svg>