<?xml version="1.0" encoding="UTF-8"?>
<svg width="63px" height="58px" viewBox="0 0 63 58" version="1.1" xmlns="http://www.w3.org/2000/svg" xmlns:xlink="http://www.w3.org/1999/xlink">
    <!-- Generator: Sketch 64 (93537) - https://sketch.com -->
    <title>baggage-collection</title>
    <desc>Created with Sketch.</desc>
    <g id="产品" stroke="none" stroke-width="1" fill="none" fill-rule="evenodd">
        <g id="基础服务-证书✅" transform="translate(-779.000000, -841.000000)">
            <g id="产品介绍-2" transform="translate(372.000000, 738.000000)">
                <g id="01" transform="translate(300.000000, 76.000000)">
                    <g id="编组-29" transform="translate(78.000000, 0.000000)">
                        <g id="baggage-collection" transform="translate(30.000000, 28.000000)">
                            <polyline id="路径" stroke="#333333" stroke-width="2" stroke-linecap="square" points="40 8 40 0 22 0 22 8"></polyline>
                            <rect id="矩形" stroke="#333333" stroke-width="2" stroke-linecap="square" x="9" y="8" width="44" height="30"></rect>
                            <line x1="18" y1="8" x2="18" y2="38" id="路径" stroke="#333333" stroke-width="2" stroke-linecap="square"></line>
                            <line x1="44" y1="8" x2="44" y2="38" id="路径" stroke="#333333" stroke-width="2" stroke-linecap="square"></line>
                            <path d="M54.955,44 L6.955,44 C3.6412915,44 0.955,46.6862915 0.955,50 C0.955,53.3137085 3.6412915,56 6.955,56 L54.955,56 C58.2687085,56 60.955,53.3137085 60.955,50 C60.955,46.6862915 58.2687085,44 54.955,44 Z" id="路径" stroke="#00AAE7" stroke-width="2" stroke-linecap="square"></path>
                            <circle id="椭圆形" fill="#00AAE7" fill-rule="nonzero" cx="7" cy="50" r="2"></circle>
                            <circle id="椭圆形" fill="#00AAE7" fill-rule="nonzero" cx="55" cy="50" r="2"></circle>
                            <rect id="矩形" stroke="#333333" stroke-width="2" stroke-linecap="square" x="26" y="16" width="9" height="6"></rect>
                        </g>
                    </g>
                </g>
            </g>
        </g>
    </g>
</svg>