<?xml version="1.0" encoding="UTF-8"?>
<svg width="1176px" height="186px" viewBox="0 0 1176 186" version="1.1" xmlns="http://www.w3.org/2000/svg" xmlns:xlink="http://www.w3.org/1999/xlink">
    <defs>
        <rect id="path-1" x="0" y="0" width="1920" height="186"></rect>
        <linearGradient x1="26.4257161%" y1="15.3961371%" x2="70.6849629%" y2="39.4282475%" id="linearGradient-3">
            <stop stop-color="#45ACEA" offset="0%"></stop>
            <stop stop-color="#2F9EEA" offset="100%"></stop>
        </linearGradient>
        <polygon id="path-4" points="80 160 10.7179677 120 10.7179677 40 80 0 149.282032 40 149.282032 120"></polygon>
        <linearGradient x1="18.8114503%" y1="44.0390982%" x2="63.7785288%" y2="60.1214492%" id="linearGradient-6">
            <stop stop-color="#99E1FF" offset="0%"></stop>
            <stop stop-color="#60BFFF" offset="100%"></stop>
        </linearGradient>
        <polygon id="path-7" points="120 240 16.0769515 180 16.0769515 60 120 0 223.923048 60 223.923048 180"></polygon>
        <linearGradient x1="18.8114503%" y1="44.1247727%" x2="63.7785288%" y2="59.9759763%" id="linearGradient-9">
            <stop stop-color="#99E1FF" offset="0%"></stop>
            <stop stop-color="#60BFFF" offset="100%"></stop>
        </linearGradient>
        <polygon id="path-10" points="160 320 21.4359354 240 21.4359354 80 160 0 298.564065 80 298.564065 240"></polygon>
        <linearGradient x1="18.8114503%" y1="44.0820129%" x2="63.7785288%" y2="60.0485811%" id="linearGradient-12">
            <stop stop-color="#99E1FF" offset="0%"></stop>
            <stop stop-color="#60BFFF" offset="100%"></stop>
        </linearGradient>
    </defs>
    <g id="公共组件" stroke="none" stroke-width="1" fill="none" fill-rule="evenodd">
        <g id="公共组件02" transform="translate(-545.000000, -2825.000000)">
            <rect fill="#FAFAFA" x="0" y="0" width="2265" height="3257"></rect>
            <g id="引导体验" transform="translate(173.000000, 2825.000000)">
                <g id="编组-40">
                    <mask id="mask-2" fill="white">
                        <use xlink:href="#path-1"></use>
                    </mask>
                    <use id="矩形" fill="#0784DA" xlink:href="#path-1"></use>
                    <g id="编组-39" opacity="0.9" mask="url(#mask-2)">
                        <g transform="translate(867.000000, 17.000000)" id="编组-38">
                            <g transform="translate(0.000000, 65.000000)">
                                <mask id="mask-5" fill="white">
                                    <use xlink:href="#path-4"></use>
                                </mask>
                                <use id="星形" fill="url(#linearGradient-3)" xlink:href="#path-4"></use>
                                <polygon id="星形" fill="#0978C5" mask="url(#mask-5)" points="151.47619 202 81.3281328 161.5 81.3281328 80.5 151.47619 40 221.624248 80.5 221.624248 161.5"></polygon>
                                <polygon id="星形" fill="#48B5FF" opacity="0.900000036" mask="url(#mask-5)" points="11.4285714 202 -58.7194863 161.5 -58.7194863 80.5 11.4285714 40 81.5766291 80.5 81.5766291 161.5"></polygon>
                            </g>
                            <g transform="translate(11.000000, 0.000000)">
                                <path d="M70,28 L139.282032,68 L139.281968,68.112 L69.9519677,108.14 L0.717967697,68.167 L0.717967697,68 L70,28 Z" id="形状结合" fill="url(#linearGradient-6)"></path>
                                <path d="M70.2820323,-4.97379915e-14 L139.564065,40 L139.564,40.465 L138.758223,40 L70.234,79.562 L1.71060373,40 L1,40.41 L1,40 L70.2820323,-4.97379915e-14 Z" id="形状结合"></path>
                            </g>
                        </g>
                    </g>
                    <g id="编组-39" opacity="0.200000003" mask="url(#mask-2)">
                        <g transform="translate(469.000000, -115.000000)" id="编组-38">
                            <g transform="translate(0.000000, 97.500000)">
                                <mask id="mask-8" fill="white">
                                    <use xlink:href="#path-7"></use>
                                </mask>
                                <use id="星形" fill="url(#linearGradient-3)" xlink:href="#path-7"></use>
                                <polygon id="星形" fill="#0978C5" mask="url(#mask-8)" points="225.714286 300 121.791237 240 121.791237 120 225.714286 60 329.637334 120 329.637334 240"></polygon>
                                <polygon id="星形" fill="#48B5FF" mask="url(#mask-8)" points="17.1428571 300 -86.7801913 240 -86.7801913 120 17.1428571 60 121.065906 120 121.065906 240"></polygon>
                            </g>
                            <g transform="translate(16.500000, 0.000000)">
                                <path d="M105,42 L208.923048,102 L208.922952,102.698 L207.714286,102 L104.927952,161.344 L2.14285714,102 L1.07695155,102.615 L1.07695155,102 L105,42 Z" id="形状结合" fill="url(#linearGradient-9)"></path>
                                <path d="M105.423048,-7.46069873e-14 L209.346097,60 L209.346,60.698 L208.137334,60 L105.351,119.344 L2.5659056,60 L1.5,60.615 L1.5,60 L105.423048,-7.46069873e-14 Z" id="形状结合"></path>
                            </g>
                        </g>
                    </g>
                    <g id="编组-39" opacity="0.349999994" mask="url(#mask-2)">
                        <g transform="translate(1133.000000, -54.000000)" id="编组-38">
                            <g transform="translate(0.000000, 130.000000)">
                                <mask id="mask-11" fill="white">
                                    <use xlink:href="#path-10"></use>
                                </mask>
                                <use id="星形" fill="url(#linearGradient-3)" xlink:href="#path-10"></use>
                                <polygon id="星形" fill="#0978C5" mask="url(#mask-11)" points="300.952381 400 162.388316 320 162.388316 160 300.952381 80 439.516446 160 439.516446 320"></polygon>
                                <polygon id="星形" fill="#48B5FF" mask="url(#mask-11)" points="22.8571429 400 -115.706922 320 -115.706922 160 22.8571429 80 161.421207 160 161.421207 320"></polygon>
                            </g>
                            <g transform="translate(23.000000, 0.000000)">
                                <path d="M139,56 L277.564065,136 L277.563935,136.224 L139.903935,215.702 L1.85714286,136 L0.435935394,136.82 L0.435935394,136 L139,56 Z" id="形状结合" fill="url(#linearGradient-12)"></path>
                                <path d="M272.822293,79.8234253 L139.564063,2.88675047 L7.07698798,79.3780122 L140.335004,156.315244 L272.822293,79.8234253 Z" id="形状结合" stroke="#FFFFFF" stroke-width="5"></path>
                            </g>
                        </g>
                    </g>
                </g>
            </g>
        </g>
    </g>
</svg>