<?xml version="1.0" encoding="UTF-8"?>
<svg width="375px" height="168px" viewBox="0 0 375 168" version="1.1" xmlns="http://www.w3.org/2000/svg" xmlns:xlink="http://www.w3.org/1999/xlink">
    <!-- Generator: Sketch 64 (93537) - https://sketch.com -->
    <title>矩形 3</title>
    <desc>Created with Sketch.</desc>
    <defs>
        <rect id="path-1" x="0" y="0" width="375" height="168"></rect>
        <linearGradient x1="26.4257161%" y1="15.3961371%" x2="70.6849629%" y2="39.4282475%" id="linearGradient-3">
            <stop stop-color="#45ACEA" offset="0%"></stop>
            <stop stop-color="#2F9EEA" offset="100%"></stop>
        </linearGradient>
        <polygon id="path-4" points="60 120 8.03847577 90 8.03847577 30 60 0 111.961524 30 111.961524 90"></polygon>
        <linearGradient x1="18.8114503%" y1="44.1247727%" x2="63.7785288%" y2="59.9759763%" id="linearGradient-6">
            <stop stop-color="#99E1FF" offset="0%"></stop>
            <stop stop-color="#60BFFF" offset="100%"></stop>
        </linearGradient>
        <polygon id="path-7" points="80 160 10.7179677 120 10.7179677 40 80 0 149.282032 40 149.282032 120"></polygon>
        <linearGradient x1="18.8114503%" y1="44.0820129%" x2="63.7785288%" y2="60.0485811%" id="linearGradient-9">
            <stop stop-color="#99E1FF" offset="0%"></stop>
            <stop stop-color="#60BFFF" offset="100%"></stop>
        </linearGradient>
    </defs>
    <g id="移动端" stroke="none" stroke-width="1" fill="none" fill-rule="evenodd">
        <g id="产品页" transform="translate(0.000000, -4871.000000)">
            <rect fill="#FAFAFA" x="0" y="0" width="375" height="5796"></rect>
            <g id="矩形-3" transform="translate(0.000000, 4871.000000)">
                <mask id="mask-2" fill="white">
                    <use xlink:href="#path-1"></use>
                </mask>
                <use id="矩形" fill="#0784DA" xlink:href="#path-1"></use>
                <g id="编组-39" opacity="0.200000003" mask="url(#mask-2)">
                    <g transform="translate(-9.000000, -46.000000)" id="编组-38">
                        <g transform="translate(0.000000, 48.750000)">
                            <mask id="mask-5" fill="white">
                                <use xlink:href="#path-4"></use>
                            </mask>
                            <use id="星形" fill="url(#linearGradient-3)" xlink:href="#path-4"></use>
                            <polygon id="星形" fill="#0978C5" mask="url(#mask-5)" points="112.857143 150 60.8956186 120 60.8956186 60 112.857143 30 164.818667 60 164.818667 120"></polygon>
                            <polygon id="星形" fill="#48B5FF" mask="url(#mask-5)" points="8.57142857 150 -43.3900957 120 -43.3900957 60 8.57142857 30 60.5329528 60 60.5329528 120"></polygon>
                        </g>
                        <g transform="translate(8.750000, 0.000000)">
                            <path d="M52,21 L103.961524,51 L103.961476,51.349 L103.357143,51 L51.9634758,80.672 L0.571428571,51 L0.0384757729,51.307 L0.0384757729,51 L52,21 Z" id="形状结合" fill="url(#linearGradient-6)"></path>
                            <path d="M52.2115242,0 L104.173048,30 L104.173,30.349 L103.568667,30 L52.175,59.672 L0.782952798,30 L0.25,30.307 L0.25,30 L52.2115242,0 Z" id="形状结合"></path>
                        </g>
                    </g>
                </g>
                <g id="编组-39" opacity="0.349999994" mask="url(#mask-2)">
                    <g transform="translate(276.000000, 11.000000)" id="编组-38">
                        <g transform="translate(0.000000, 65.000000)">
                            <mask id="mask-8" fill="white">
                                <use xlink:href="#path-7"></use>
                            </mask>
                            <use id="星形" fill="url(#linearGradient-3)" xlink:href="#path-7"></use>
                            <polygon id="星形" fill="#0978C5" mask="url(#mask-8)" points="150.47619 200 81.1941582 160 81.1941582 80 150.47619 40 219.758223 80 219.758223 160"></polygon>
                            <polygon id="星形" fill="#48B5FF" mask="url(#mask-8)" points="11.4285714 200 -57.8534609 160 -57.8534609 80 11.4285714 40 80.7106037 80 80.7106037 160"></polygon>
                        </g>
                        <g transform="translate(11.500000, 0.000000)">
                            <path d="M69.5,28 L138.782032,68 L138.781968,68.112 L69.9529677,107.851 L0.928571429,68 L0.217967697,68.41 L0.217967697,68 L69.5,28 Z" id="形状结合" fill="url(#linearGradient-9)"></path>
                            <path d="M69.7820353,2.88675309 L6.03897434,39.6890043 L70.170775,76.7158444 L134.055738,39.9951925 L69.7820353,2.88675309 Z" id="形状结合" stroke="#FFFFFF" stroke-width="5"></path>
                        </g>
                    </g>
                </g>
            </g>
        </g>
    </g>
</svg>