<svg width="56" height="62" viewBox="0 0 56 62" xmlns="http://www.w3.org/2000/svg"><g transform="translate(1 1)" stroke-width="2" fill="none" fill-rule="evenodd"><circle stroke="#00AAE7" cx="27.001" cy="30" r="5"/><circle stroke="#333" cx="27.001" cy="5" r="5"/><circle stroke="#333" stroke-linecap="square" cx="5" cy="17" r="5"/><circle stroke="#333" stroke-linecap="square" cx="49" cy="17" r="5"/><circle stroke="#333" cx="5" cy="43" r="5"/><circle stroke="#333" cx="49" cy="43" r="5"/><circle stroke="#333" stroke-linecap="square" cx="26.999" cy="55" r="5"/><line x1="27" y1="10" x2="27" y2="20" stroke="#333" stroke-linecap="square"/><line x1="27" y1="40" x2="27" y2="50" stroke="#333" stroke-linecap="square"/><line x1="13.776" y1="12.213" x2="22.614" y2="7.393" stroke="#333" stroke-linecap="square"/><line x1="18.223" y1="50.213" x2="9.39" y2="45.395" stroke="#333" stroke-linecap="square"/><line x1="5" y1="33" x2="5" y2="22" stroke="#333" stroke-linecap="square"/><line x1="49" y1="27" x2="49" y2="38" stroke="#333" stroke-linecap="square"/><line x1="44.61" y1="14.605" x2="35.777" y2="9.788" stroke="#333" stroke-linecap="square"/><line x1="18.403" y1="24.92" x2="9.302" y2="19.542" stroke="#333" stroke-linecap="square"/><line x1="18.403" y1="35.08" x2="9.302" y2="40.458" stroke="#333" stroke-linecap="square"/><line x1="35.599" y1="24.919" x2="44.698" y2="19.542" stroke="#333" stroke-linecap="square"/><line x1="44.698" y1="40.458" x2="35.599" y2="35.081" stroke="#333" stroke-linecap="square"/><line x1="40.224" y1="47.787" x2="31.389" y2="52.605" stroke="#333" stroke-linecap="square"/></g></svg>