<?xml version="1.0" encoding="UTF-8"?>
<svg width="520px" height="350px" viewBox="0 0 520 350" version="1.1" xmlns="http://www.w3.org/2000/svg" xmlns:xlink="http://www.w3.org/1999/xlink">
    <title>插画</title>
    <defs>
        <linearGradient x1="50%" y1="0%" x2="50%" y2="100%" id="linearGradient-1">
            <stop stop-color="#00D4F5" stop-opacity="0" offset="0%"></stop>
            <stop stop-color="#00BCED" offset="48.7070261%"></stop>
            <stop stop-color="#00AAE7" stop-opacity="0" offset="100%"></stop>
        </linearGradient>
        <linearGradient x1="50%" y1="0%" x2="50%" y2="100%" id="linearGradient-2">
            <stop stop-color="#00D4F5" stop-opacity="0" offset="0%"></stop>
            <stop stop-color="#00BCED" offset="48.7070261%"></stop>
            <stop stop-color="#00AAE7" stop-opacity="0" offset="100%"></stop>
        </linearGradient>
        <filter x="-55.0%" y="-254.8%" width="210.0%" height="609.5%" filterUnits="objectBoundingBox" id="filter-3">
            <feGaussianBlur stdDeviation="50" in="SourceGraphic"></feGaussianBlur>
        </filter>
        <linearGradient x1="50%" y1="0%" x2="50%" y2="100%" id="linearGradient-4">
            <stop stop-color="#7AE9FF" stop-opacity="0" offset="0%"></stop>
            <stop stop-color="#44CFFF" offset="100%"></stop>
        </linearGradient>
        <linearGradient x1="50%" y1="0%" x2="50%" y2="100%" id="linearGradient-5">
            <stop stop-color="#7AE9FF" stop-opacity="0" offset="0%"></stop>
            <stop stop-color="#56D3FF" stop-opacity="0.500027316" offset="100%"></stop>
        </linearGradient>
        <filter x="-21.4%" y="-107.1%" width="142.9%" height="314.3%" filterUnits="objectBoundingBox" id="filter-6">
            <feGaussianBlur stdDeviation="10" in="SourceGraphic"></feGaussianBlur>
        </filter>
        <linearGradient x1="50%" y1="0%" x2="50%" y2="97.6061022%" id="linearGradient-7">
            <stop stop-color="#E2F7FF" offset="0%"></stop>
            <stop stop-color="#94D8FF" offset="100%"></stop>
        </linearGradient>
        <linearGradient x1="50%" y1="0%" x2="50%" y2="100%" id="linearGradient-8">
            <stop stop-color="#33A1EC" offset="0%"></stop>
            <stop stop-color="#73C6F5" offset="100%"></stop>
        </linearGradient>
        <circle id="path-9" cx="126" cy="136" r="8"></circle>
        <filter x="-12.5%" y="-12.5%" width="125.0%" height="125.0%" filterUnits="objectBoundingBox" id="filter-10">
            <feGaussianBlur stdDeviation="1.5" in="SourceAlpha" result="shadowBlurInner1"></feGaussianBlur>
            <feOffset dx="0" dy="1" in="shadowBlurInner1" result="shadowOffsetInner1"></feOffset>
            <feComposite in="shadowOffsetInner1" in2="SourceAlpha" operator="arithmetic" k2="-1" k3="1" result="shadowInnerInner1"></feComposite>
            <feColorMatrix values="0 0 0 0 0.184313725   0 0 0 0 0.643137255   0 0 0 0 0.929411765  0 0 0 1 0" type="matrix" in="shadowInnerInner1"></feColorMatrix>
        </filter>
        <rect id="path-11" x="8" y="135" width="24" height="6"></rect>
        <filter x="-8.3%" y="-33.3%" width="116.7%" height="166.7%" filterUnits="objectBoundingBox" id="filter-12">
            <feGaussianBlur stdDeviation="1.5" in="SourceAlpha" result="shadowBlurInner1"></feGaussianBlur>
            <feOffset dx="0" dy="1" in="shadowBlurInner1" result="shadowOffsetInner1"></feOffset>
            <feComposite in="shadowOffsetInner1" in2="SourceAlpha" operator="arithmetic" k2="-1" k3="1" result="shadowInnerInner1"></feComposite>
            <feColorMatrix values="0 0 0 0 0.184313725   0 0 0 0 0.643137255   0 0 0 0 0.929411765  0 0 0 1 0" type="matrix" in="shadowInnerInner1"></feColorMatrix>
        </filter>
        <rect id="path-13" x="36" y="135" width="24" height="6"></rect>
        <filter x="-8.3%" y="-33.3%" width="116.7%" height="166.7%" filterUnits="objectBoundingBox" id="filter-14">
            <feGaussianBlur stdDeviation="1.5" in="SourceAlpha" result="shadowBlurInner1"></feGaussianBlur>
            <feOffset dx="0" dy="1" in="shadowBlurInner1" result="shadowOffsetInner1"></feOffset>
            <feComposite in="shadowOffsetInner1" in2="SourceAlpha" operator="arithmetic" k2="-1" k3="1" result="shadowInnerInner1"></feComposite>
            <feColorMatrix values="0 0 0 0 0.184313725   0 0 0 0 0.643137255   0 0 0 0 0.929411765  0 0 0 1 0" type="matrix" in="shadowInnerInner1"></feColorMatrix>
        </filter>
        <linearGradient x1="50%" y1="0%" x2="50%" y2="97.6061022%" id="linearGradient-15">
            <stop stop-color="#E2F7FF" offset="0%"></stop>
            <stop stop-color="#94D8FF" offset="100%"></stop>
        </linearGradient>
        <path d="M37.9563214,13.2627301 C36.9304749,5.64215588 30.4822967,-4.84203036e-14 22.715173,-4.84203036e-14 C16.0471706,-4.84203036e-14 10.2584652,4.17666085 8.13349744,10.4782895 C3.37063858,11.504136 0,15.6075221 0,20.5169305 C0,25.8659873 4.17666085,30.3357472 9.52571772,30.7753957 L37.3701234,30.7753957 C37.3701234,30.7753957 37.4433981,30.7753957 37.4433981,30.7753957 C41.913158,30.3357472 45.4303461,26.5254601 45.4303461,21.9824255 C45.4303461,17.6592152 42.206257,13.9222028 37.9563214,13.2627301 Z" id="path-16"></path>
        <linearGradient x1="50%" y1="0%" x2="50%" y2="97.6061022%" id="linearGradient-18">
            <stop stop-color="#E2F7FF" offset="0%"></stop>
            <stop stop-color="#94D8FF" offset="100%"></stop>
        </linearGradient>
        <linearGradient x1="10.4759372%" y1="77.5025214%" x2="100%" y2="87.5555556%" id="linearGradient-19">
            <stop stop-color="#E2F7FF" offset="0%"></stop>
            <stop stop-color="#CBF1FF" offset="100%"></stop>
        </linearGradient>
        <linearGradient x1="50%" y1="0%" x2="50%" y2="97.6061022%" id="linearGradient-20">
            <stop stop-color="#E2F7FF" offset="0%"></stop>
            <stop stop-color="#CDF2FF" offset="100%"></stop>
        </linearGradient>
    </defs>
    <g id="产品" stroke="none" stroke-width="1" fill="none" fill-rule="evenodd">
        <g id="智能视频-智能多媒体服务✅" transform="translate(-1028.000000, -120.000000)">
            <g id="banner" transform="translate(0.000000, 120.000000)">
                <g id="编组-35">
                    <g id="插画" transform="translate(1107.000000, 31.000000)">
                        <g id="编组-21" fill-rule="nonzero">
                            <polygon id="路径" fill="url(#linearGradient-1)" points="4 136 4 166 0 166 0 136"></polygon>
                            <path d="M27,3 L27,30 L27,30 L24,30 L24,0 C25.6568542,-3.04359188e-16 27,1.34314575 27,3 Z" id="路径" fill="url(#linearGradient-2)"></path>
                            <path d="M305,47 L305,73 L305,73 L301,73 L301,43 C303.209139,43 305,44.790861 305,47 Z" id="路径" fill="url(#linearGradient-1)"></path>
                            <path d="M328,119 L328,145 L328,145 L324,145 L324,115 C326.209139,115 328,116.790861 328,119 Z" id="路径" fill="url(#linearGradient-1)" opacity="0.300000012"></path>
                            <path d="M258,14 L258,40 L258,40 L254,40 L254,10 C256.209139,10 258,11.790861 258,14 Z" id="路径" fill="url(#linearGradient-1)" opacity="0.400000006"></path>
                            <path d="M342,176 L342,203 L342,203 L339,203 L339,173 C340.656854,173 342,174.343146 342,176 Z" id="路径" fill="url(#linearGradient-2)" opacity="0.449999988"></path>
                        </g>
                        <g id="编组-22" transform="translate(28.000000, 26.000000)">
                            <ellipse id="椭圆形" fill="#00BDFF" filter="url(#filter-3)" cx="149.36" cy="188.12" rx="136.32" ry="29.44"></ellipse>
                            <ellipse id="椭圆形" fill="url(#linearGradient-4)" cx="150" cy="168.44" rx="150" ry="29.44"></ellipse>
                            <ellipse id="椭圆形" fill="url(#linearGradient-5)" cx="150" cy="191.44" rx="150" ry="29.44"></ellipse>
                            <ellipse id="椭圆形" fill-opacity="0.5" fill="#0784DA" filter="url(#filter-6)" cx="150" cy="167" rx="70" ry="14"></ellipse>
                            <g id="编组-6备份-2" transform="translate(78.000000, 16.000000)">
                                <path d="M2,114 L142,114 C143.104569,114 144,114.895431 144,116 L144,153 C144,155.209139 142.209139,157 140,157 L4,157 C1.790861,157 2.705415e-16,155.209139 0,153 L0,116 C-1.3527075e-16,114.895431 0.8954305,114 2,114 Z" id="矩形" fill="url(#linearGradient-7)"></path>
                                <g id="椭圆形">
                                    <use fill="url(#linearGradient-8)" fill-rule="evenodd" xlink:href="#path-9"></use>
                                    <use fill="black" fill-opacity="1" filter="url(#filter-10)" xlink:href="#path-9"></use>
                                </g>
                                <g id="矩形备份-4">
                                    <use fill="#5DB9F2" fill-rule="evenodd" xlink:href="#path-11"></use>
                                    <use fill="black" fill-opacity="1" filter="url(#filter-12)" xlink:href="#path-11"></use>
                                </g>
                                <g id="矩形备份-5">
                                    <use fill="#5DB9F2" fill-rule="evenodd" xlink:href="#path-13"></use>
                                    <use fill="black" fill-opacity="1" filter="url(#filter-14)" xlink:href="#path-13"></use>
                                </g>
                                <path d="M4,0 L140,0 C142.209139,-4.05812251e-16 144,1.790861 144,4 L144,118 C144,119.104569 143.104569,120 142,120 L2,120 C0.8954305,120 1.3527075e-16,119.104569 0,118 L0,4 C-2.705415e-16,1.790861 1.790861,4.05812251e-16 4,0 Z" id="矩形" fill="url(#linearGradient-15)"></path>
                            </g>
                            <g id="编组-12" transform="translate(16.000000, -0.000000)">
                                <g id="编组-20" transform="translate(2.271517, 0.000000)">
                                    <mask id="mask-17" fill="white">
                                        <use xlink:href="#path-16"></use>
                                    </mask>
                                    <use id="路径" fill="#9FD7F6" fill-rule="nonzero" xlink:href="#path-16"></use>
                                    <polygon id="路径-6" fill="#7DC5ED" mask="url(#mask-17)" points="37.9563214 13.2627301 33.8701162 17.3129719 35.0986061 33.046913 48.008168 29.0146774 48.008168 12.7214374"></polygon>
                                </g>
                                <path d="M37.9563214,15.5342474 C36.9304749,7.91367318 30.4822967,2.2715173 22.715173,2.2715173 C16.0471706,2.2715173 10.2584652,6.44817815 8.13349744,12.7498068 C3.37063858,13.7756533 0,17.8790394 0,22.7884478 C0,28.1375047 4.17666085,32.6072645 9.52571772,33.046913 L37.3701234,33.046913 C37.3701234,33.046913 37.4433981,33.046913 37.4433981,33.046913 C41.913158,32.6072645 45.4303461,28.7969774 45.4303461,24.2539428 C45.4303461,19.9307325 42.206257,16.1937201 37.9563214,15.5342474 Z" id="路径" fill="url(#linearGradient-18)"></path>
                            </g>
                        </g>
                        <g id="编组" transform="translate(28.000000, 109.000000)">
                            <g id="编组-12" transform="translate(0.000000, -0.000000)">
                                <path d="M8,-9.09494702e-13 L60,30 L59.85,30.086 L59.9388454,30.0733126 L52,38 L49.079,36.3 L8,60 L8,12.6892409 L0,8 L8,-9.09494702e-13 Z" id="形状结合" fill="#9FD7F6"></path>
                                <polygon id="三角形" fill="url(#linearGradient-19)" transform="translate(26.000000, 38.000000) rotate(90.000000) translate(-26.000000, -38.000000) " points="26 12 56 64 -4 64"></polygon>
                            </g>
                        </g>
                        <g id="编组备份" transform="translate(264.000000, 71.000000)">
                            <g id="music">
                                <path d="M57,0 C57.552,0 58,0.448 58,1 L58,1 L58,43 C58,47.962 53.962,52 49,52 C44.038,52 40,47.962 40,43 C40,38.038 44.038,34 49,34 C51.826,34 54.349,35.312 56,37.356 L56,37.356 L56,15 L20,15 L20,49 C20,53.962 15.962,58 11,58 C6.038,58 2,53.962 2,49 C2,44.038 6.038,40 11,40 C13.826,40 16.349,41.312 18,43.356 L18,43.356 L18,3.332 L16.2308361,3.33243287 L18.1007354,0.562302681 C18.2631519,0.229468666 18.6049412,0 19,0 L19,0 Z" id="形状结合" fill="#9FD7F6" fill-rule="nonzero"></path>
                                <path d="M55,3 L17,3 C16.448,3 16,3.448 16,4 L16,46.356 C14.349,44.312 11.826,43 9,43 C4.038,43 0,47.038 0,52 C0,56.962 4.038,61 9,61 C13.962,61 18,56.962 18,52 L18,18 L54,18 L54,40.356 C52.349,38.312 49.826,37 47,37 C42.038,37 38,41.038 38,46 C38,50.962 42.038,55 47,55 C51.962,55 56,50.962 56,46 L56,4 C56,3.448 55.552,3 55,3 Z" id="路径" fill="url(#linearGradient-20)"></path>
                            </g>
                        </g>
                    </g>
                </g>
            </g>
        </g>
    </g>
</svg>