<?xml version="1.0" encoding="UTF-8"?>
<svg width="520px" height="350px" viewBox="0 0 520 350" version="1.1" xmlns="http://www.w3.org/2000/svg" xmlns:xlink="http://www.w3.org/1999/xlink">
    <title>插画</title>
    <defs>
        <filter x="-55.0%" y="-254.8%" width="210.0%" height="609.5%" filterUnits="objectBoundingBox" id="filter-1">
            <feGaussianBlur stdDeviation="50" in="SourceGraphic"></feGaussianBlur>
        </filter>
        <linearGradient x1="50%" y1="0%" x2="50%" y2="100%" id="linearGradient-2">
            <stop stop-color="#7AE9FF" stop-opacity="0" offset="0%"></stop>
            <stop stop-color="#44CFFF" offset="100%"></stop>
        </linearGradient>
        <linearGradient x1="50%" y1="0%" x2="50%" y2="100%" id="linearGradient-3">
            <stop stop-color="#7AE9FF" stop-opacity="0" offset="0%"></stop>
            <stop stop-color="#56D3FF" stop-opacity="0.500027316" offset="100%"></stop>
        </linearGradient>
        <filter x="-25.0%" y="-187.5%" width="150.0%" height="475.0%" filterUnits="objectBoundingBox" id="filter-4">
            <feGaussianBlur stdDeviation="10" in="SourceGraphic"></feGaussianBlur>
        </filter>
        <linearGradient x1="50%" y1="0%" x2="50%" y2="100%" id="linearGradient-5">
            <stop stop-color="#00D4F5" stop-opacity="0" offset="0%"></stop>
            <stop stop-color="#00BCED" offset="48.7070261%"></stop>
            <stop stop-color="#00AAE7" stop-opacity="0" offset="100%"></stop>
        </linearGradient>
        <linearGradient x1="50%" y1="0%" x2="50%" y2="100%" id="linearGradient-6">
            <stop stop-color="#00D4F5" stop-opacity="0" offset="0%"></stop>
            <stop stop-color="#00BCED" offset="48.7070261%"></stop>
            <stop stop-color="#00AAE7" stop-opacity="0" offset="100%"></stop>
        </linearGradient>
        <path d="M127.311828,44.4854071 C123.870968,18.9247312 102.242704,-1.62409768e-13 76.1904762,-1.62409768e-13 C53.8248848,-1.62409768e-13 34.4086022,14.0092166 27.281106,35.1459293 C11.3056836,38.5867896 0,52.3502304 0,68.8172043 C0,86.7588326 14.0092166,101.751152 31.9508449,103.225806 L125.345622,103.225806 C125.345622,103.225806 125.591398,103.225806 125.591398,103.225806 C140.583717,101.751152 152.380952,88.9708141 152.380952,73.7327189 C152.380952,59.2319508 141.56682,46.6973886 127.311828,44.4854071 Z" id="path-7"></path>
        <linearGradient x1="50%" y1="0%" x2="50%" y2="97.6061022%" id="linearGradient-9">
            <stop stop-color="#E2F7FF" offset="0%"></stop>
            <stop stop-color="#94D8FF" offset="100%"></stop>
        </linearGradient>
        <path d="M95.0820682,69.6820041 L67.0820068,87.6820436 C66.4666214,88.0778992 65.6841851,88.1060993 65.041899,87.755572 C64.3996128,87.4050447 64,86.7317508 64,86.0000399 L64,49.9999609 C64,49.26825 64.3996128,48.5949561 65.041899,48.2444288 C65.6841851,47.8939015 66.4666214,47.9221016 67.0820068,48.3179572 L95.0820682,66.3179967 C95.6541961,66.68606 96,67.3197057 96,68 C96,68.6802951 95.6541961,69.3139408 95.0820682,69.6820041 Z" id="path-10"></path>
        <filter x="-18.8%" y="-15.0%" width="137.5%" height="130.0%" filterUnits="objectBoundingBox" id="filter-11">
            <feGaussianBlur stdDeviation="4" in="SourceAlpha" result="shadowBlurInner1"></feGaussianBlur>
            <feOffset dx="0" dy="4" in="shadowBlurInner1" result="shadowOffsetInner1"></feOffset>
            <feComposite in="shadowOffsetInner1" in2="SourceAlpha" operator="arithmetic" k2="-1" k3="1" result="shadowInnerInner1"></feComposite>
            <feColorMatrix values="0 0 0 0 0.2   0 0 0 0 0.568627451   0 0 0 0 0.819607843  0 0 0 0.5 0" type="matrix" in="shadowInnerInner1"></feColorMatrix>
        </filter>
        <linearGradient x1="50%" y1="0%" x2="50%" y2="97.6061022%" id="linearGradient-12">
            <stop stop-color="#E2F7FF" offset="0%"></stop>
            <stop stop-color="#94D8FF" offset="100%"></stop>
        </linearGradient>
        <linearGradient x1="50%" y1="0%" x2="50%" y2="97.6061022%" id="linearGradient-13">
            <stop stop-color="#E2F7FF" offset="0%"></stop>
            <stop stop-color="#94D8FF" offset="100%"></stop>
        </linearGradient>
    </defs>
    <g id="解决方案" stroke="none" stroke-width="1" fill="none" fill-rule="evenodd">
        <g id="场景解决方案-视频冷存储解决方案✅" transform="translate(-1028.000000, -120.000000)">
            <g id="banner" transform="translate(0.000000, 120.000000)">
                <g id="编组-35">
                    <g id="插画" transform="translate(1135.000000, 30.000000)">
                        <g id="编组-22" transform="translate(0.000000, 155.000000)">
                            <ellipse id="椭圆形" fill="#00BDFF" filter="url(#filter-1)" cx="149.36" cy="49.12" rx="136.32" ry="29.44"></ellipse>
                            <ellipse id="椭圆形" fill="url(#linearGradient-2)" cx="150" cy="29.44" rx="150" ry="29.44"></ellipse>
                            <ellipse id="椭圆形" fill="url(#linearGradient-3)" cx="150" cy="53.44" rx="150" ry="29.44"></ellipse>
                            <ellipse id="椭圆形" fill-opacity="0.5" fill="#0784DA" filter="url(#filter-4)" cx="150" cy="32" rx="60" ry="8"></ellipse>
                        </g>
                        <g id="编组-21" transform="translate(2.000000, 0.000000)" fill-rule="nonzero">
                            <path d="M4,100 L4,126 L4,126 L0,126 L0,96 C2.209139,96 4,97.790861 4,100 Z" id="路径" fill="url(#linearGradient-5)"></path>
                            <path d="M27,33 L27,60 L27,60 L24,60 L24,30 C25.6568542,30 27,31.3431458 27,33 Z" id="路径" fill="url(#linearGradient-6)"></path>
                            <path d="M275,37 L275,63 L275,63 L271,63 L271,33 C273.209139,33 275,34.790861 275,37 Z" id="路径" fill="url(#linearGradient-5)"></path>
                            <path d="M298,109 L298,135 L298,135 L294,135 L294,105 C296.209139,105 298,106.790861 298,109 Z" id="路径" fill="url(#linearGradient-5)" opacity="0.300000012"></path>
                            <path d="M228,4 L228,30 L228,30 L224,30 L224,0 C226.209139,-4.05812251e-16 228,1.790861 228,4 Z" id="路径" fill="url(#linearGradient-5)" opacity="0.400000006"></path>
                            <path d="M312,166 L312,193 L312,193 L309,193 L309,163 C310.656854,163 312,164.343146 312,166 Z" id="路径" fill="url(#linearGradient-6)" opacity="0.449999988"></path>
                        </g>
                        <g id="编组-22备份" transform="translate(65.000000, 46.000000)">
                            <g id="编组-12" transform="translate(3.000000, 0.000000)">
                                <g id="编组-20" transform="translate(7.619048, 0.000000)">
                                    <mask id="mask-8" fill="white">
                                        <use xlink:href="#path-7"></use>
                                    </mask>
                                    <use id="路径" fill="#9FD7F6" fill-rule="nonzero" xlink:href="#path-7"></use>
                                    <polygon id="路径-6" fill="#7DC5ED" mask="url(#mask-8)" points="127.311828 44.4854071 113.606015 58.0705933 117.726575 110.844854 161.027397 97.3200639 161.027397 42.6698213"></polygon>
                                </g>
                                <path d="M127.311828,52.1044547 C123.870968,26.5437788 102.242704,7.61904762 76.1904762,7.61904762 C53.8248848,7.61904762 34.4086022,21.6282642 27.281106,42.764977 C11.3056836,46.2058372 0,59.969278 0,76.4362519 C0,94.3778802 14.0092166,109.3702 31.9508449,110.844854 L125.345622,110.844854 C125.345622,110.844854 125.591398,110.844854 125.591398,110.844854 C140.583717,109.3702 152.380952,96.5898618 152.380952,81.3517665 C152.380952,66.8509985 141.56682,54.3164363 127.311828,52.1044547 Z" id="路径" fill="url(#linearGradient-9)"></path>
                                <g id="路径">
                                    <use fill="#60BBF2" fill-rule="evenodd" xlink:href="#path-10"></use>
                                    <use fill="black" fill-opacity="1" filter="url(#filter-11)" xlink:href="#path-10"></use>
                                </g>
                            </g>
                            <path d="M95,131 C95,132.381299 95.1750376,133.721716 95.5041422,135.000281 L4,135 C1.790861,135 2.705415e-16,133.209139 0,131 C-2.705415e-16,128.790861 1.790861,127 4,127 L95.5041422,126.999719 C95.1750376,128.278284 95,129.618701 95,131 Z M158,127 C160.209139,127 162,128.790861 162,131 C162,133.209139 160.209139,135 158,135 L126.495858,135.000281 C126.824962,133.721716 127,132.381299 127,131 C127,129.618701 126.824962,128.278284 126.495858,126.999719 L158,127 Z" id="形状结合" fill="url(#linearGradient-12)"></path>
                            <circle id="椭圆形" fill="url(#linearGradient-13)" cx="111" cy="130.999588" r="10"></circle>
                        </g>
                    </g>
                </g>
            </g>
        </g>
    </g>
</svg>