<svg xmlns="http://www.w3.org/2000/svg" width="42" height="62" viewBox="-8.4 -12.4 58.8 86.8">
  <g fill="none" fill-rule="evenodd" transform="translate(1 1)">
    <line x2="40" y1="48" y2="48" stroke="#333" stroke-linecap="square" stroke-width="2"/>
    <line x2="40" y1="8" y2="8" stroke="#333" stroke-linecap="square" stroke-width="2"/>
    <path stroke="#333" stroke-linecap="square" stroke-width="2" d="M36,60 L4,60 C1.8,60 0,58.2 0,56 L0,4 C0,1.8 1.8,0 4,0 L36,0 C38.2,0 40,1.8 40,4 L40,56 C40,58.2 38.2,60 36,60 Z"/>
    <circle cx="20" cy="22" r="4" stroke="#00AAE7" stroke-linecap="square" stroke-width="2"/>
    <path stroke="#00AAE7" stroke-linecap="square" stroke-width="2" d="M30,39 L10,39 L10,39 C10,34.582 13.582,31 18,31 L22,31 C26.418,31 30,34.582 30,39 L30,39 Z"/>
    <circle cx="20" cy="54" r="2" fill="#333" fill-rule="nonzero"/>
  </g>
</svg>
