<?xml version="1.0" encoding="UTF-8"?>
<svg width="212px" height="212px" viewBox="0 0 212 212" version="1.1" xmlns="http://www.w3.org/2000/svg" xmlns:xlink="http://www.w3.org/1999/xlink">
    <title>编组 5</title>
    <defs>
        <linearGradient x1="50%" y1="0%" x2="50%" y2="98.8202069%" id="linearGradient-1">
            <stop stop-color="#72D0FF" offset="0%"></stop>
            <stop stop-color="#38B0FF" offset="100%"></stop>
        </linearGradient>
        <linearGradient x1="50%" y1="0.422475726%" x2="50%" y2="98.8993046%" id="linearGradient-2">
            <stop stop-color="#F9FDFF" offset="0%"></stop>
            <stop stop-color="#F3F8FF" offset="99.9472128%"></stop>
        </linearGradient>
        <linearGradient x1="50%" y1="0%" x2="50%" y2="98.8202069%" id="linearGradient-3">
            <stop stop-color="#72D0FF" offset="0%"></stop>
            <stop stop-color="#38B0FF" offset="100%"></stop>
        </linearGradient>
        <linearGradient x1="50%" y1="0%" x2="50%" y2="98.8202069%" id="linearGradient-4">
            <stop stop-color="#72D0FF" offset="0%"></stop>
            <stop stop-color="#38B0FF" offset="100%"></stop>
        </linearGradient>
    </defs>
    <g id="产品" stroke="none" stroke-width="1" fill="none" fill-rule="evenodd">
        <g id="基础服务-证书02✅" transform="translate(-370.000000, -5588.000000)">
            <g id="编组-5" transform="translate(370.000000, 5588.000000)">
                <path d="M4,0 L208,0 C210.209139,-4.05812251e-16 212,1.790861 212,4 L212,48 C212,50.209139 210.209139,52 208,52 L4,52 C1.790861,52 2.705415e-16,50.209139 0,48 L0,4 C-2.705415e-16,1.790861 1.790861,4.05812251e-16 4,0 Z" id="矩形" fill="url(#linearGradient-1)"></path>
                <rect id="矩形" fill="url(#linearGradient-2)" opacity="0.619047619" x="36.8035714" y="13.25" width="18" height="26"></rect>
                <rect id="矩形" fill="#FFFFFF" x="62.3571429" y="13.25" width="95.5892857" height="6.625" rx="2"></rect>
                <rect id="矩形备份-8" fill="#FFFFFF" x="62.3571429" y="26.5" width="129" height="13.25" rx="2"></rect>
                <g id="编组-10" transform="translate(53.946429, 63.517857)" fill="url(#linearGradient-3)">
                    <circle id="椭圆形" cx="3.78571429" cy="3.78571429" r="3.78571429"></circle>
                    <circle id="椭圆形备份-7" transform="translate(83.285714, 3.785714) scale(-1, 1) translate(-83.285714, -3.785714) " cx="83.2857143" cy="3.78571429" r="3.78571429"></circle>
                    <circle id="椭圆形备份-5" cx="20.8214286" cy="3.78571429" r="3.78571429"></circle>
                    <circle id="椭圆形备份-8" transform="translate(100.321429, 3.785714) scale(-1, 1) translate(-100.321429, -3.785714) " cx="100.321429" cy="3.78571429" r="3.78571429"></circle>
                    <circle id="椭圆形备份-6" cx="52.0535714" cy="3.78571429" r="3.78571429"></circle>
                </g>
                <g id="编组-11" transform="translate(2.000000, 190.000000)">
                    <rect id="矩形" fill="#479CFF" opacity="0.747698103" x="0" y="0" width="22" height="22" rx="2"></rect>
                    <rect id="矩形备份-10" fill="#479CFF" opacity="0.747698103" transform="translate(199.000000, 11.000000) scale(-1, 1) translate(-199.000000, -11.000000) " x="188" y="0" width="22" height="22" rx="2"></rect>
                    <rect id="矩形备份-9" fill="#6AC7FF" opacity="0.761672247" x="33" y="4" width="18" height="18" rx="2"></rect>
                    <rect id="矩形备份-11" fill="#6AC7FF" opacity="0.761672247" transform="translate(167.000000, 13.000000) scale(-1, 1) translate(-167.000000, -13.000000) " x="158" y="4" width="18" height="18" rx="2"></rect>
                    <rect id="矩形备份-12" fill="url(#linearGradient-4)" x="80" y="3" width="47.3214286" height="18.9285714" rx="2"></rect>
                </g>
                <g id="编组-13" transform="translate(13.000000, 71.000000)" stroke-linecap="round">
                    <polyline id="路径-14" stroke="#75B5FF" stroke-linejoin="round" points="45.5813953 0 45.5813953 24.8571429 80 24.8571429 80 69.047619 0 69.047619 0 119"></polyline>
                    <polyline id="路径-14备份" stroke="#75B5FF" stroke-linejoin="round" transform="translate(147.000000, 59.500000) scale(-1, 1) translate(-147.000000, -59.500000) " points="152.581395 0 152.581395 24.8571429 187 24.8571429 187 69.047619 107 69.047619 107 119"></polyline>
                    <polyline id="路径-15" stroke="#8ED5FF" stroke-linejoin="round" points="62.3220339 0 62.3220339 12.375 87 12.375 87 81.125 31 81.125 31 123"></polyline>
                    <polyline id="路径-15备份" stroke="#8ED5FF" stroke-linejoin="round" transform="translate(128.000000, 61.500000) scale(-1, 1) translate(-128.000000, -61.500000) " points="131.322034 0 131.322034 12.375 156 12.375 156 81.125 100 81.125 100 123"></polyline>
                    <line x1="93.5" y1="0" x2="94" y2="122" id="路径-16" stroke="#55C0FF"></line>
                </g>
            </g>
        </g>
    </g>
</svg>