<?xml version="1.0" encoding="UTF-8"?>
<svg width="465px" height="353px" viewBox="0 0 665 353" version="1.1" xmlns="http://www.w3.org/2000/svg" xmlns:xlink="http://www.w3.org/1999/xlink">
    <!-- Generator: Sketch 64 (93537) - https://sketch.com -->
    <title>编组 4</title>
    <desc>Created with Sketch.</desc>
    <defs>
        <path d="M105,0 L501,0 C502.104569,-2.02906125e-16 503,0.8954305 503,2 L503,351 C503,352.104569 502.104569,353 501,353 L105,353 C103.895431,353 103,352.104569 103,351 L103,2 C103,0.8954305 103.895431,2.02906125e-16 105,0 Z" id="path-1"></path>
        <mask id="mask-2" maskContentUnits="userSpaceOnUse" maskUnits="objectBoundingBox" x="0" y="0" width="400" height="353" fill="white">
            <use xlink:href="#path-1"></use>
        </mask>
        <path d="M550,58 L663,58 C664.104569,58 665,58.8954305 665,60 L665,266 C665,267.104569 664.104569,268 663,268 L550,268 C548.895431,268 548,267.104569 548,266 L548,60 C548,58.8954305 548.895431,58 550,58 Z" id="path-3"></path>
        <mask id="mask-4" maskContentUnits="userSpaceOnUse" maskUnits="objectBoundingBox" x="0" y="0" width="117" height="210" fill="white">
            <use xlink:href="#path-3"></use>
        </mask>
    </defs>
    <g id="产品" stroke="none" stroke-width="1" fill="none" fill-rule="evenodd">
        <g id="基础服务-CDN02✅" transform="translate(-440.000000, -2534.000000)">
            <g id="产品介绍-2备份-3" transform="translate(0.000000, 2244.000000)">
                <g id="编组" transform="translate(372.000000, 256.000000)">
                    <g id="编组-4" transform="translate(68.000000, 34.000000)">
                        <path id="路径-15备份-12" d="M538,117 L547,121.5 L538,126 L538,122 L513.5,122 L513.5,126 L504.5,121.5 L513.5,117 L513.5,121 L538,121 L538,117 Z" fill="#21B4E8" fill-rule="nonzero"></path>
                        <path id="路径-15备份-21" d="M538,190 L547,194.5 L538,199 L538,195 L513.5,195 L513.5,199 L504.5,194.5 L513.5,190 L513.5,194 L538,194 L538,190 Z" fill="#21B4E8" fill-rule="nonzero"></path>
                        <use id="矩形备份-28" stroke="#21B4E9" mask="url(#mask-2)" stroke-width="2" fill="#E6F4F9" opacity="0.85" stroke-dasharray="4" xlink:href="#path-1"></use>
                        <line x1="267.5" y1="148.5" x2="380.5" y2="148.5" id="直线-3" stroke="#28B8BB" stroke-linecap="square" stroke-dasharray="4"></line>
                        <line x1="267.5" y1="221.5" x2="380.5" y2="221.5" id="直线-3" stroke="#28B8BB" stroke-linecap="square" stroke-dasharray="4"></line>
                        <path id="路径-15备份-19" d="M170,280.5 L170,283 L174,283 L169.5,292 L165,283 L169,283 L169,280.5 L170,280.5 Z M170,274.5 L170,277.5 L169,277.5 L169,274.5 L170,274.5 Z M170,268.5 L170,271.5 L169,271.5 L169,268.5 L170,268.5 Z" fill="#28B8BB" fill-rule="nonzero"></path>
                        <rect id="矩形备份-56" fill="#00AAE7" opacity="0.854399182" x="103" y="0" width="400" height="40"></rect>
                        <rect id="矩形备份-69" fill="#00AAE7" opacity="0.854399182" x="120" y="228" width="107" height="40"></rect>
                        <rect id="矩形备份-70" fill="#00AAE7" opacity="0.854399182" x="120" y="291" width="107" height="40"></rect>
                        <rect id="矩形备份-71" fill="#00AAE7" opacity="0.854399182" x="249" y="291" width="107" height="40"></rect>
                        <rect id="矩形备份-72" fill="#00AAE7" opacity="0.854399182" x="378" y="291" width="107" height="40"></rect>
                        <text id="七牛云全站加速IP应用加速系统" font-family="PingFangSC-Medium, PingFang SC" font-size="16" font-weight="400" line-spacing="36" fill="#FFFFFF">
                            <tspan x="191" y="19">七牛云全站加速IP应用加速系统</tspan>
                        </text>
                        <g id="jingxuanjiedian备份" transform="translate(419.000000, 60.000000)" fill-rule="nonzero">
                            <path d="M-2.84217094e-14,16.372125 C-2.84217094e-14,25.4142 7.33005004,32.74425 16.372125,32.74425 C25.4142,32.74425 32.74425,25.4142 32.74425,16.372125 C32.74425,7.33005004 25.4142,-2.84217094e-14 16.372125,-2.84217094e-14 C7.33005004,-2.84217094e-14 -2.84217094e-14,7.33005004 -2.84217094e-14,16.372125 Z" id="路径" fill="#24B5E9"></path>
                            <path d="M22.8478852,21.4884141 C22.2266215,21.4884141 21.6747932,21.7369195 21.2325996,22.1060232 L17.3332564,19.3213002 C17.5817619,18.8133258 17.7315961,18.250534 17.7315961,17.6511973 C17.7315961,16.825282 17.4611637,16.0578387 17.0153156,15.436575 L21.5761219,10.8721143 C21.9561891,11.0950383 22.3728012,11.2558359 22.8442307,11.2558359 C24.2585191,11.2558359 25.4023752,10.1119799 25.4023752,8.69769141 C25.4023752,7.28340293 24.2585191,6.13954687 22.8442307,6.13954687 C21.4299422,6.13954687 20.2860861,7.28340293 20.2860861,8.69769141 C20.2860861,9.1691209 20.4468838,9.58573301 20.6698078,9.9658002 L16.1126561,14.5302609 C15.4840834,14.0807584 14.723949,13.8139805 13.8943793,13.8139805 C12.4289279,13.8139805 11.1717826,14.6472047 10.5249375,15.8568416 L7.44420059,14.8262748 C7.31994785,14.2525195 6.8302459,13.8139805 6.2199457,13.8139805 C5.51462871,13.8139805 4.94087344,14.3877357 4.94087344,15.0930527 C4.94087344,15.7983697 5.51462871,16.372125 6.2199457,16.372125 C6.54154102,16.372125 6.8302459,16.2405633 7.05682441,16.0432207 L10.1192889,17.0664785 C10.0900529,17.2601666 10.060817,17.4502002 10.060817,17.6511973 C10.060817,19.7708027 11.7784283,21.4884141 13.8980338,21.4884141 C14.954182,21.4884141 15.9080045,21.0608385 16.602358,20.3701395 L20.4761197,23.13659 C20.366485,23.4216404 20.2897406,23.7249633 20.2897406,24.0465586 C20.2897406,25.4571926 21.4335967,26.6047031 22.8478852,26.6047031 C24.2621736,26.6047031 25.4060297,25.4571926 25.4060297,24.0465586 C25.4060297,22.6359246 24.2621736,21.4884141 22.8478852,21.4884141 L22.8478852,21.4884141 Z" id="路径" fill="#E2F5FC"></path>
                        </g>
                        <g id="jingxuanjiedian备份-2" transform="translate(419.000000, 131.000000)" fill-rule="nonzero">
                            <path d="M-2.84217094e-14,16.372125 C-2.84217094e-14,25.4142 7.33005004,32.74425 16.372125,32.74425 C25.4142,32.74425 32.74425,25.4142 32.74425,16.372125 C32.74425,7.33005004 25.4142,-2.84217094e-14 16.372125,-2.84217094e-14 C7.33005004,-2.84217094e-14 -2.84217094e-14,7.33005004 -2.84217094e-14,16.372125 Z" id="路径" fill="#24B5E9"></path>
                            <path d="M22.8478852,21.4884141 C22.2266215,21.4884141 21.6747932,21.7369195 21.2325996,22.1060232 L17.3332564,19.3213002 C17.5817619,18.8133258 17.7315961,18.250534 17.7315961,17.6511973 C17.7315961,16.825282 17.4611637,16.0578387 17.0153156,15.436575 L21.5761219,10.8721143 C21.9561891,11.0950383 22.3728012,11.2558359 22.8442307,11.2558359 C24.2585191,11.2558359 25.4023752,10.1119799 25.4023752,8.69769141 C25.4023752,7.28340293 24.2585191,6.13954687 22.8442307,6.13954687 C21.4299422,6.13954687 20.2860861,7.28340293 20.2860861,8.69769141 C20.2860861,9.1691209 20.4468838,9.58573301 20.6698078,9.9658002 L16.1126561,14.5302609 C15.4840834,14.0807584 14.723949,13.8139805 13.8943793,13.8139805 C12.4289279,13.8139805 11.1717826,14.6472047 10.5249375,15.8568416 L7.44420059,14.8262748 C7.31994785,14.2525195 6.8302459,13.8139805 6.2199457,13.8139805 C5.51462871,13.8139805 4.94087344,14.3877357 4.94087344,15.0930527 C4.94087344,15.7983697 5.51462871,16.372125 6.2199457,16.372125 C6.54154102,16.372125 6.8302459,16.2405633 7.05682441,16.0432207 L10.1192889,17.0664785 C10.0900529,17.2601666 10.060817,17.4502002 10.060817,17.6511973 C10.060817,19.7708027 11.7784283,21.4884141 13.8980338,21.4884141 C14.954182,21.4884141 15.9080045,21.0608385 16.602358,20.3701395 L20.4761197,23.13659 C20.366485,23.4216404 20.2897406,23.7249633 20.2897406,24.0465586 C20.2897406,25.4571926 21.4335967,26.6047031 22.8478852,26.6047031 C24.2621736,26.6047031 25.4060297,25.4571926 25.4060297,24.0465586 C25.4060297,22.6359246 24.2621736,21.4884141 22.8478852,21.4884141 L22.8478852,21.4884141 Z" id="路径" fill="#E2F5FC"></path>
                        </g>
                        <g id="jingxuanjiedian备份-3" transform="translate(419.000000, 203.000000)" fill-rule="nonzero">
                            <path d="M-2.84217094e-14,16.372125 C-2.84217094e-14,25.4142 7.33005004,32.74425 16.372125,32.74425 C25.4142,32.74425 32.74425,25.4142 32.74425,16.372125 C32.74425,7.33005004 25.4142,-2.84217094e-14 16.372125,-2.84217094e-14 C7.33005004,-2.84217094e-14 -2.84217094e-14,7.33005004 -2.84217094e-14,16.372125 Z" id="路径" fill="#24B5E9"></path>
                            <path d="M22.8478852,21.4884141 C22.2266215,21.4884141 21.6747932,21.7369195 21.2325996,22.1060232 L17.3332564,19.3213002 C17.5817619,18.8133258 17.7315961,18.250534 17.7315961,17.6511973 C17.7315961,16.825282 17.4611637,16.0578387 17.0153156,15.436575 L21.5761219,10.8721143 C21.9561891,11.0950383 22.3728012,11.2558359 22.8442307,11.2558359 C24.2585191,11.2558359 25.4023752,10.1119799 25.4023752,8.69769141 C25.4023752,7.28340293 24.2585191,6.13954687 22.8442307,6.13954687 C21.4299422,6.13954687 20.2860861,7.28340293 20.2860861,8.69769141 C20.2860861,9.1691209 20.4468838,9.58573301 20.6698078,9.9658002 L16.1126561,14.5302609 C15.4840834,14.0807584 14.723949,13.8139805 13.8943793,13.8139805 C12.4289279,13.8139805 11.1717826,14.6472047 10.5249375,15.8568416 L7.44420059,14.8262748 C7.31994785,14.2525195 6.8302459,13.8139805 6.2199457,13.8139805 C5.51462871,13.8139805 4.94087344,14.3877357 4.94087344,15.0930527 C4.94087344,15.7983697 5.51462871,16.372125 6.2199457,16.372125 C6.54154102,16.372125 6.8302459,16.2405633 7.05682441,16.0432207 L10.1192889,17.0664785 C10.0900529,17.2601666 10.060817,17.4502002 10.060817,17.6511973 C10.060817,19.7708027 11.7784283,21.4884141 13.8980338,21.4884141 C14.954182,21.4884141 15.9080045,21.0608385 16.602358,20.3701395 L20.4761197,23.13659 C20.366485,23.4216404 20.2897406,23.7249633 20.2897406,24.0465586 C20.2897406,25.4571926 21.4335967,26.6047031 22.8478852,26.6047031 C24.2621736,26.6047031 25.4060297,25.4571926 25.4060297,24.0465586 C25.4060297,22.6359246 24.2621736,21.4884141 22.8478852,21.4884141 L22.8478852,21.4884141 Z" id="路径" fill="#E2F5FC"></path>
                        </g>
                        <g id="cunchuyuCDN_bianyuanjiedianjisuan" transform="translate(151.000000, 60.000000)" fill-rule="nonzero">
                            <path d="M16.8399,0 C7.54403926,0 0,7.54382976 0,16.8390564 C0,26.1359702 7.54403926,33.6798 16.8399,33.6798 C26.1349181,33.6798 33.6798,26.1359702 33.6798,16.8407436 C33.6798,7.54382976 26.1349181,0 16.8399,0 Z" id="路径" fill="#24B5E9"></path>
                            <path d="M23.4657084,20.3741688 C23.8447861,20.5570607 24.259642,20.6561272 24.6813128,20.6637477 C23.5721982,23.1564852 21.2425406,24.8997588 18.5257715,25.269915 L18.5257715,25.2724552 C18.2762964,25.9074607 17.615595,26.2840861 16.9381992,26.1774329 C16.2608034,26.0707796 15.7495475,25.5096343 15.7097236,24.8290799 C15.6698996,24.1485254 16.1122563,23.5322488 16.7726443,23.3482541 C17.4330323,23.1642594 18.1332077,23.4622081 18.4550671,24.064183 C20.635307,23.7307926 22.5099324,22.3502519 23.4657084,20.3741688 Z M11.5958893,17.0990483 C11.7824354,17.7548059 11.4842564,18.4511766 10.8794749,18.7721709 C11.2871292,20.8225235 12.6365454,22.5651496 14.5262882,23.4816383 C14.350078,23.8563727 14.2571062,24.264425 14.2536929,24.6780564 C11.8438098,23.6119311 10.1239144,21.4258505 9.66387054,18.8441422 C9.02406947,18.5977048 8.6434308,17.941498 8.74941887,17.2676619 C8.85540694,16.5938257 9.41938677,16.0844115 10.1043319,16.043838 C10.7892771,16.0032646 11.4101349,16.4424938 11.5958893,17.0990483 L11.5958893,17.0990483 Z M17.4439091,13.0686519 L20.3317149,14.7265334 C20.4637533,14.6613358 20.6085695,14.6266202 20.7550894,14.6249268 C21.1830387,14.6252088 21.5605441,14.9034344 21.6851309,15.3103777 C21.8097177,15.7173209 21.652123,16.1573987 21.2968725,16.3945757 L21.2968725,19.7052584 L18.4158815,21.3597531 C18.4263683,21.7118836 18.2433579,22.0418196 17.938182,22.2209627 C17.6330061,22.4001059 17.2539603,22.4001059 16.9487844,22.2209627 C16.6436084,22.0418196 16.4605981,21.7118836 16.4710848,21.3597531 L13.5875383,19.7044117 L13.5875383,16.3725609 C13.2058946,16.0739851 13.1042696,15.5413688 13.3494298,15.1246351 C13.59459,14.7079013 14.1114176,14.5347386 14.5603626,14.7189129 L17.4439091,13.0686519 L17.4439091,13.0686519 Z M17.4439091,14.1854781 L15.1217384,15.516525 L15.1217384,15.5918833 C15.1217384,15.9695212 14.898551,16.3115969 14.5526958,16.4690872 L14.5526958,19.1489621 L16.957497,20.5265787 C17.2564999,20.3470737 17.6304665,20.3470737 17.9303212,20.5265787 L20.3300112,19.1489621 L20.3300112,16.4563864 C19.9966725,16.2954401 19.7842834,15.9602282 19.7822652,15.5918833 L19.7822652,15.5309193 L17.4439091,14.1846314 L17.4439091,14.1854781 Z M20.6290141,10.3091851 C23.1308352,11.4138343 24.8837191,13.7215564 25.2673925,16.4157437 C25.9055565,16.6634417 26.2842323,17.3192632 26.1774804,17.9919076 C26.0707284,18.664552 25.5073313,19.1726601 24.8234439,19.2130656 C24.1395566,19.253471 23.5195695,18.8152796 23.3334026,18.1599415 C23.1472356,17.5046033 23.4450833,16.8088114 24.0492326,16.4877151 C23.708048,14.3130022 22.3112246,12.4448087 20.3146777,11.4929023 C20.5037907,11.125425 20.6102732,10.7215387 20.6290141,10.3091851 L20.6290141,10.3091851 Z M17.8740985,8.74020931 C18.5547587,8.81327643 19.0926596,9.34711183 19.167216,10.0235534 C19.2417724,10.699995 18.8329117,11.336926 18.184312,11.5547402 C17.5357123,11.7725544 16.8219945,11.5126101 16.4685293,10.9298322 C14.1981727,11.2674661 12.2582724,12.7336511 11.3241459,14.8179794 C10.9661025,14.6692055 10.5817968,14.5929231 10.1937275,14.5935981 L10.1017266,14.5935981 C11.1557553,11.9802899 13.5312256,10.1235164 16.3347872,9.72156004 C16.5521989,9.07559601 17.1927578,8.66722314 17.8740985,8.74020931 L17.8740985,8.74020931 Z" id="形状" fill="#E2F5FC"></path>
                        </g>
                        <use id="矩形备份-29" stroke="#42C0C3" mask="url(#mask-4)" stroke-width="2" fill="#E2F2F3" opacity="0.85" stroke-dasharray="4" xlink:href="#path-3"></use>
                        <g id="PC" transform="translate(588.000000, 180.000000)" fill="#28B8BB" fill-rule="nonzero">
                            <path d="M3.608,0 L32.472,0 C34.4564,0 36.08,1.57288542 36.08,3.49475729 L36.08,18.48 L0,18.48 L0,3.49475729 C0.00466145929,1.56812263 1.61661134,0.0067663161 3.608,0 Z" id="路径"></path>
                            <path d="M31.7854271,25.96 L19.1224,25.96 L19.1011765,31.3028571 L22.2847059,31.3028571 C22.8471294,31.3028571 23.3458824,31.6683002 23.3458824,32.3714286 C23.3352706,32.4569143 23.3352706,33.44 22.2847059,33.44 L13.7952941,33.44 C13.1692,33.44 12.7468435,32.9869424 12.7341176,32.3714286 C12.7468435,31.7356286 13.3177647,31.3028571 13.7952941,31.3028571 L16.9788235,31.3028571 L16.9788235,25.96 L4.37204706,25.96 C2.02684706,25.96 0,24.251371 0,22.3354141 L0,18.48 L36.08,18.48 L36.08,22.3354141 C36.08,24.2513292 34.1358915,25.8189569 31.7854271,25.96 L31.7854271,25.96 Z" id="路径" fill-opacity="0.397399476"></path>
                        </g>
                        <g id="ipad" transform="translate(592.000000, 93.000000)" fill-rule="nonzero">
                            <path d="M0,32.6438095 L0,3.43619046 C0,1.54628571 1.584,0 3.51999999,0 L24.64,0 C26.576,0 28.16,1.54628571 28.16,3.43619046 L28.16,32.6438095 C28.16,34.5337143 26.576,36.08 24.64,36.08 L3.51999999,36.08 C1.584,36.08 0,34.5337143 0,32.6438095 Z" id="路径" fill="#28B8BB"></path>
                            <path d="M24.64,2.64 L3.51999999,2.64 C2.99199999,2.64 2.64,2.98133332 2.64,3.49333332 L2.64,29.9466667 C2.64,30.4586667 2.99199999,30.8 3.51999999,30.8 L24.64,30.8 C25.168,30.8 25.52,30.4586667 25.52,29.9466667 L25.52,3.49333332 C25.52,2.98133332 25.168,2.64 24.64,2.64 Z" id="路径" fill="#E5F2F3"></path>
                            <path d="M13.2,33.88 C13.2,34.6090159 13.7909841,35.2 14.52,35.2 C15.2490159,35.2 15.84,34.6090159 15.84,33.88 C15.84,33.1509841 15.2490159,32.56 14.52,32.56 C13.7909841,32.56 13.2,33.1509841 13.2,33.88 Z" id="路径" fill="#E5F2F3"></path>
                        </g>
                        <path id="路径-15备份-12" d="M93,158 L102,162.5 L93,167 L93,163 L55,163 L55,162 L93,162 L93,158 Z" fill="#21B4E8" fill-rule="nonzero"></path>
                        <path id="路径-15备份-12" d="M383.5,142 L392.5,146.5 L383.5,151 L383.5,147 L295,147 L295,146 L383.5,146 L383.5,142 Z" fill="#21B4E8" fill-rule="nonzero"></path>
                        <path id="路径-15备份-12" d="M383.5,215 L392.5,219.5 L383.5,224 L383.5,220 L295,220 L295,219 L383.5,219 L383.5,215 Z" fill="#21B4E8" fill-rule="nonzero"></path>
                        <line x1="295.5" y1="78" x2="295.5" y2="220" id="直线" stroke="#21B4E8" stroke-linecap="square"></line>
                        <path id="路径-15备份-12" d="M383.5,72 L392.5,76.5 L383.5,81 L383.5,77 L203.5,77 L203.5,81 L194.5,76.5 L203.5,72 L203.5,76 L383.5,76 L383.5,72 Z" fill="#21B4E8" fill-rule="nonzero"></path>
                        <g id="业务服务器" transform="translate(9.000000, 141.000000)" fill-rule="nonzero">
                            <rect id="矩形" fill="#000000" opacity="0" x="0" y="0" width="36" height="36"></rect>
                            <path d="M35.4375,17.5 L31.5,17.5 L31.5,4.5625 C31.5,4.25183983 31.2481602,4 30.9375,4 L12.375,4 C12.0643398,4 11.8125,4.25183983 11.8125,4.5625 L11.8125,7.9375 L5.0625,7.9375 C4.75183983,7.9375 4.5,8.18933983 4.5,8.5 L4.5,17.5 L0.5625,17.5 C0.251839828,17.5 0,17.7518398 0,18.0625 L0,30.4375 C0,30.7481602 0.251839828,31 0.5625,31 L35.4375,31 C35.7481602,31 36,30.7481602 36,30.4375 L36,18.0625 C36,17.7518398 35.7481602,17.5 35.4375,17.5 Z M11.8125,17.5 L7.875,17.5 L7.875,11.3125 L11.8125,11.3125 L11.8125,17.5 Z M28.125,17.5 L15.1875,17.5 L15.1875,7.375 L28.125,7.375 L28.125,17.5 Z" id="形状" fill="#00AAE7"></path>
                            <polygon id="路径" fill="#00AAE7" points="18 10 26 10 26 13 18 13"></polygon>
                            <polygon id="路径" fill="#00AAE7" points="17 13 23 13 23 16 17 16"></polygon>
                            <polygon id="路径" fill="#FFFFFF" points="27 22 30 22 30 26 27 26"></polygon>
                            <polygon id="路径" fill="#FFFFFF" points="22 22 25 22 25 26 22 26"></polygon>
                            <polygon id="路径" fill="#FFFFFF" points="6 22 10 22 10 26 6 26"></polygon>
                            <polygon id="路径" fill="#FFFFFF" points="12 22 16 22 16 26 12 26"></polygon>
                        </g>
                        <text id="客户源站" font-family="PingFangSC-Regular, PingFang SC" font-size="14" font-weight="normal" line-spacing="30" fill="#00AAE7">
                            <tspan x="0" y="186">客户源站</tspan>
                        </text>
                        <text id="七牛云二级节点" font-family="PingFangSC-Regular, PingFang SC" font-size="14" font-weight="normal" line-spacing="30" fill="#00AAE7">
                            <tspan x="121" y="103">七牛云二级节点</tspan>
                        </text>
                        <text id="路由决策" font-family="PingFangSC-Regular, PingFang SC" font-size="14" font-weight="normal" line-spacing="30" fill="#FFFFFF">
                            <tspan x="146" y="248">路由决策</tspan>
                        </text>
                        <text id="基础数据" font-family="PingFangSC-Regular, PingFang SC" font-size="14" font-weight="normal" line-spacing="30" fill="#FFFFFF">
                            <tspan x="145" y="311">基础数据</tspan>
                        </text>
                        <text id="探测平台" font-family="PingFangSC-Regular, PingFang SC" font-size="14" font-weight="normal" line-spacing="30" fill="#FFFFFF">
                            <tspan x="274" y="311">探测平台</tspan>
                        </text>
                        <text id="离线日志" font-family="PingFangSC-Regular, PingFang SC" font-size="14" font-weight="normal" line-spacing="30" fill="#FFFFFF">
                            <tspan x="403" y="311">离线日志</tspan>
                        </text>
                        <text id="七牛云边缘节点" font-family="PingFangSC-Regular, PingFang SC" font-size="14" font-weight="normal" line-spacing="30" fill="#00AAE7">
                            <tspan x="387" y="103">七牛云边缘节点</tspan>
                        </text>
                        <text id="用户" font-family="PingFangSC-Regular, PingFang SC" font-size="14" font-weight="normal" line-spacing="30" fill="#28B8BB">
                            <tspan x="592" y="145">用户</tspan>
                        </text>
                        <text id="用户备份" font-family="PingFangSC-Regular, PingFang SC" font-size="14" font-weight="normal" line-spacing="30" fill="#28B8BB">
                            <tspan x="592" y="227">用户</tspan>
                        </text>
                        <text id="七牛云边缘节点" font-family="PingFangSC-Regular, PingFang SC" font-size="14" font-weight="normal" line-spacing="30" fill="#00AAE7">
                            <tspan x="387" y="174">七牛云边缘节点</tspan>
                        </text>
                        <text id="七牛云边缘节点" font-family="PingFangSC-Regular, PingFang SC" font-size="14" font-weight="normal" line-spacing="30" fill="#00AAE7">
                            <tspan x="387" y="245">七牛云边缘节点</tspan>
                        </text>
                        <path d="M427,291 L426.501006,283 L303,283 L303,291" id="路径-22" stroke="#28B8BB" stroke-dasharray="3"></path>
                        <line x1="300.5" y1="283.5" x2="170.5" y2="283.5" id="直线-2" stroke="#28B8BB" stroke-linecap="square" stroke-dasharray="3"></line>
                        <path d="M227,248 L267.013406,248 L267.013406,79 L381,79" id="路径-23" stroke="#28B8BB" stroke-dasharray="4"></path>
                    </g>
                </g>
            </g>
        </g>
    </g>
</svg>