<?xml version="1.0" encoding="UTF-8"?>
<svg width="201px" height="201px" viewBox="0 0 201 201" version="1.1" xmlns="http://www.w3.org/2000/svg" xmlns:xlink="http://www.w3.org/1999/xlink">
    <title>编组 34</title>
    <defs>
        <linearGradient x1="50%" y1="0%" x2="50%" y2="98.8202069%" id="linearGradient-1">
            <stop stop-color="#72D0FF" offset="0%"></stop>
            <stop stop-color="#38B0FF" offset="100%"></stop>
        </linearGradient>
        <linearGradient x1="50%" y1="0%" x2="50%" y2="100%" id="linearGradient-2">
            <stop stop-color="#77DCFD" stop-opacity="0.244208916" offset="0%"></stop>
            <stop stop-color="#427AF9" stop-opacity="0.295399913" offset="100%"></stop>
        </linearGradient>
        <linearGradient x1="50%" y1="0.422475726%" x2="50%" y2="98.8993046%" id="linearGradient-3">
            <stop stop-color="#72D0FF" offset="0%"></stop>
            <stop stop-color="#388AFF" offset="99.9472128%"></stop>
        </linearGradient>
        <linearGradient x1="50%" y1="0.422475726%" x2="50%" y2="98.8993046%" id="linearGradient-4">
            <stop stop-color="#72D0FF" offset="0%"></stop>
            <stop stop-color="#388AFF" offset="99.9472128%"></stop>
        </linearGradient>
        <linearGradient x1="50%" y1="0.422475726%" x2="50%" y2="98.8993046%" id="linearGradient-5">
            <stop stop-color="#72D0FF" offset="0%"></stop>
            <stop stop-color="#388AFF" offset="99.9472128%"></stop>
        </linearGradient>
        <linearGradient x1="50%" y1="0%" x2="50%" y2="100%" id="linearGradient-6">
            <stop stop-color="#77DCFD" stop-opacity="0.244208916" offset="0%"></stop>
            <stop stop-color="#427AF9" stop-opacity="0.295399913" offset="100%"></stop>
        </linearGradient>
        <linearGradient x1="50%" y1="0%" x2="50%" y2="100%" id="linearGradient-7">
            <stop stop-color="#77DCFD" stop-opacity="0.244208916" offset="0%"></stop>
            <stop stop-color="#427AF9" stop-opacity="0.295399913" offset="100%"></stop>
        </linearGradient>
    </defs>
    <g id="产品" stroke="none" stroke-width="1" fill="none" fill-rule="evenodd">
        <g id="基础服务-证书02✅" transform="translate(-372.000000, -5046.000000)">
            <g id="编组-34" transform="translate(372.000000, 5046.000000)">
                <rect id="矩形" fill="#D8D8D8" opacity="0" x="0" y="0" width="200" height="200"></rect>
                <g id="编组-9" transform="translate(0.000000, 0.943396)">
                    <g id="成功" transform="translate(18.867925, 160.377358)">
                        <rect id="矩形" fill="#000000" fill-rule="nonzero" opacity="0" x="0" y="0" width="38.3419689" height="38.3419689"></rect>
                        <path d="M19.1709845,0 C8.58313431,0 0,8.58313431 0,19.1709845 C0,29.7588346 8.58313431,38.3419689 19.1709845,38.3419689 C29.7588346,38.3419689 38.3419689,29.7588346 38.3419689,19.1709845 C38.3419689,8.58313431 29.7588346,0 19.1709845,0 Z M29.6556408,14.6170519 L17.15878,27.1138378 C16.8663476,27.4062702 16.3921652,27.4062702 16.0997328,27.1138378 L8.68632812,19.7004331 C8.39389573,19.4080756 8.39389573,18.9338933 8.68632812,18.6414609 L11.0162767,16.3115872 C11.3087091,16.0190799 11.7828914,16.0191548 12.0753238,16.3115872 L16.6293313,20.8654449 L26.2667949,11.2280562 C26.5592273,10.9356238 27.0333347,10.9356238 27.325842,11.2280562 L29.6557157,13.5580048 C29.9480732,13.8504372 29.9481481,14.3246195 29.6556408,14.6170519 Z" id="形状" fill="url(#linearGradient-1)"></path>
                    </g>
                    <g id="钱包" transform="translate(-0.000000, 0.000000)">
                        <rect id="矩形" fill="#000000" fill-rule="nonzero" opacity="0" x="0" y="0" width="88.0829016" height="88.0829016"></rect>
                        <polygon id="路径" fill="url(#linearGradient-2)" points="13.4715026 19.2196891 56.4136788 0 66.3212435 19.2196891 29.985285 35.2331606"></polygon>
                        <path d="M81.865285,35.2331606 L67.6278441,35.2331606 C65.7398421,35.2331606 63.9291677,35.9755715 62.5941486,37.2970714 C61.2591296,38.6185713 60.5091237,40.4109097 60.5091237,42.2797927 L60.5091237,63.4196891 C60.5091237,67.3114366 63.6962834,70.4663212 67.6278441,70.4663212 L81.865285,70.4663212 L81.865285,81.0362694 C81.865285,84.9280169 78.6781253,88.0829016 74.7465645,88.0829016 L7.11872043,88.0829016 C3.1871597,88.0829016 0,84.9280169 0,81.0362694 L0,24.6632124 C0,20.771465 3.1871597,17.6165803 7.11872043,17.6165803 L74.7465645,17.6165803 C76.6345666,17.6165803 78.445241,18.3589912 79.78026,19.6804911 C81.1152791,21.0019909 81.865285,22.7943294 81.865285,24.6632124 L81.865285,35.2331606 Z" id="路径" fill="url(#linearGradient-3)"></path>
                        <path d="M67.6535899,38.3419689 L84.6780163,38.3419689 C86.5584825,38.3419689 88.0829016,39.9078124 88.0829016,41.8393782 L88.0829016,62.8238342 C88.0829016,64.7554 86.5584825,66.3212435 84.6780163,66.3212435 L67.6535899,66.3212435 C65.7731237,66.3212435 64.2487047,64.7554 64.2487047,62.8238342 L64.2487047,41.8393782 C64.2487047,39.9078124 65.7731237,38.3419689 67.6535899,38.3419689 Z M74.4633605,55.8290155 C75.6798089,55.8290155 76.8038535,55.1624132 77.4120777,54.0803109 C78.0203019,52.9982087 78.0203019,51.6650037 77.4120777,50.5829015 C76.8038535,49.5007993 75.6798089,48.8341969 74.4633605,48.8341969 C72.5828943,48.8341969 71.0584753,50.4000404 71.0584753,52.3316062 C71.0584753,54.263172 72.5828943,55.8290155 74.4633605,55.8290155 Z" id="形状" fill="url(#linearGradient-4)"></path>
                    </g>
                    <g id="编组-7" transform="translate(120.754717, 48.113208)">
                        <path d="M10.7478737,0.708769186 L69.0497605,0.708769186 C74.572608,0.708769186 79.0497605,5.18592169 79.0497605,10.7087692 L79.0497605,140.708769 C79.0497605,146.231617 74.572608,150.708769 69.0497605,150.708769 L10.7478737,150.708769 C5.22502619,150.708769 0.747873692,146.231617 0.747873692,140.708769 L0.747873692,10.7087692 C0.747873692,5.18592169 5.22502619,0.708769186 10.7478737,0.708769186 Z" id="矩形" fill="url(#linearGradient-5)"></path>
                        <rect id="矩形" fill="#FFFFFF" fill-rule="nonzero" x="33.7667416" y="6.36914654" width="9.43396226" height="1.88679245" rx="0.943396226"></rect>
                        <circle id="椭圆形" fill="#FFFFFF" fill-rule="nonzero" cx="45.0874963" cy="7.31254277" r="1"></circle>
                        <path d="M74.3327794,140.752967 C74.3315222,144.167676 71.5378592,146.935184 68.092136,146.935184 L11.7054982,146.935184 C8.25977498,146.935184 5.46611193,144.167676 5.46485482,140.752967 L5.46485482,12.5536203 C5.46485482,9.13802976 8.25888604,6.36914654 11.7054982,6.36914654 L20.1432306,6.36914654 L20.1432306,7.44313761 C20.1482521,10.2524507 22.4470818,12.5275614 25.2819143,12.5288012 L53.9692936,12.5288012 C55.3321573,12.5288012 56.6392016,11.9922786 57.6028917,11.0372623 C58.5665819,10.0822459 59.1079773,8.78696581 59.1079773,7.43636876 L59.1079773,6.36914654 L68.1035198,6.36914654 C71.5456855,6.37536907 74.3327794,9.14243058 74.3327794,12.5536203 L74.3327794,140.752967 Z" id="路径" fill="#FFFFFF" fill-rule="nonzero"></path>
                        <path d="M75.2761756,68.2648529 L75.2761756,114.763343 L73.672985,114.812904 L73.672985,114.859713 L5.46485482,114.859713 L5.46485482,58.3723683 C5.90231771,57.8790161 6.34579382,57.3670889 6.79528318,56.8365866 C16.3743673,45.5288644 29.3945255,42.553148 39.4719565,42.2410878 C46.3766541,42.0181877 53.2497823,43.4291454 59.8117255,46.2309997 C63.2776041,47.7110564 69.378241,49.3337691 74.7991728,49.4942572 L74.7991728,66.9740833 C75.1306524,67.9080348 75.2761756,68.2648529 75.2761756,68.2648529 Z" id="路径" fill="url(#linearGradient-6)"></path>
                        <path d="M74.3327794,70.1994706 L74.3327794,114.859713 L5.46485482,114.859713 L5.46485482,85.6043798 C7.91756115,85.0166034 11.3423078,82.7559249 15.7368341,76.5099931 C20.9926334,69.0368359 28.1337387,67.0711222 33.660805,66.8644315 C37.447241,66.7223318 41.2178532,67.6481334 44.8166628,69.5018898 C48.8653237,71.583867 56.6687727,74.0942967 62.5982185,66.8062998 C69.1538391,58.7475192 72.6396208,65.393914 73.8422381,68.6514441 C74.1745402,69.5535624 74.3327794,70.1994706 74.3327794,70.1994706 Z" id="路径" fill="url(#linearGradient-7)"></path>
                    </g>
                    <line x1="38.3749633" y1="88.2075472" x2="38.2943103" y2="161.780233" id="路径-9" stroke-opacity="0.851316652" stroke="#52A6FF" stroke-dasharray="2"></line>
                    <line x1="58.0188679" y1="180.660377" x2="120.95024" y2="180.433082" id="路径-10" stroke-opacity="0.851316652" stroke="#52A6FF" stroke-dasharray="2"></line>
                    <g id="编组-8" transform="translate(90.566038, 48.113208)" stroke="#53ABFF" stroke-linecap="round" stroke-width="1.5">
                        <polyline id="路径-11" transform="translate(6.217617, 6.217617) scale(-1, 1) rotate(45.000000) translate(-6.217617, -6.217617) " points="2.07253886 2.07253886 2.07253886 10.3626943 10.3626943 10.3626943"></polyline>
                        <polyline id="路径-11备份" transform="translate(12.257437, 6.217617) scale(-1, 1) rotate(45.000000) translate(-12.257437, -6.217617) " points="8.11235971 2.07253886 8.11235971 10.3626943 16.4025152 10.3626943"></polyline>
                        <polyline id="路径-11备份-2" transform="translate(18.475054, 6.217617) scale(-1, 1) rotate(45.000000) translate(-18.475054, -6.217617) " points="14.3299763 2.07253886 14.3299763 10.3626943 22.6201317 10.3626943"></polyline>
                    </g>
                </g>
            </g>
        </g>
    </g>
</svg>