<?xml version="1.0" encoding="UTF-8"?>
<svg width="212px" height="212px" viewBox="0 0 212 212" version="1.1" xmlns="http://www.w3.org/2000/svg" xmlns:xlink="http://www.w3.org/1999/xlink">
    <title>编组 3</title>
    <defs>
        <linearGradient x1="50%" y1="0%" x2="50%" y2="100%" id="linearGradient-1">
            <stop stop-color="#77DCFD" stop-opacity="0.244208916" offset="0%"></stop>
            <stop stop-color="#427AF9" stop-opacity="0.295399913" offset="100%"></stop>
        </linearGradient>
        <linearGradient x1="4.11166301%" y1="48.998754%" x2="97.2086592%" y2="50.6693854%" id="linearGradient-2">
            <stop stop-color="#72D0FF" offset="0%"></stop>
            <stop stop-color="#4EC2F7" offset="100%"></stop>
        </linearGradient>
        <linearGradient x1="4.11166301%" y1="43.875%" x2="97.2086592%" y2="54.0948832%" id="linearGradient-3">
            <stop stop-color="#72D0FF" offset="0%"></stop>
            <stop stop-color="#4EC2F7" offset="100%"></stop>
        </linearGradient>
        <linearGradient x1="50%" y1="0.422475726%" x2="50%" y2="98.8993046%" id="linearGradient-4">
            <stop stop-color="#72D0FF" offset="0%"></stop>
            <stop stop-color="#388AFF" offset="99.9472128%"></stop>
        </linearGradient>
        <linearGradient x1="50%" y1="0%" x2="50%" y2="98.8202069%" id="linearGradient-5">
            <stop stop-color="#72D0FF" offset="0%"></stop>
            <stop stop-color="#38B0FF" offset="100%"></stop>
        </linearGradient>
    </defs>
    <g id="产品" stroke="none" stroke-width="1" fill="none" fill-rule="evenodd">
        <g id="基础服务-证书02✅" transform="translate(-370.000000, -3944.000000)">
            <g id="编组-3" transform="translate(370.000000, 3944.000000)">
                <rect id="矩形" fill="url(#linearGradient-1)" opacity="0.6" x="17" y="0" width="162" height="96" rx="6"></rect>
                <rect id="矩形备份" fill="#479CFF" opacity="0.3492141" x="29" y="21" width="80.3030303" height="5" rx="1"></rect>
                <rect id="矩形备份-2" fill="url(#linearGradient-2)" opacity="0.469470796" x="29" y="35" width="35.3333333" height="5" rx="1"></rect>
                <rect id="矩形" fill="url(#linearGradient-3)" opacity="0.618336124" x="29" y="55" width="40" height="14" rx="2"></rect>
                <rect id="矩形备份-7" fill-opacity="0.645623907" fill="#FFFFFF" fill-rule="nonzero" opacity="0.748163132" x="109.080808" y="156.323232" width="33.1919192" height="13.9191919" rx="2"></rect>
                <rect id="矩形" fill="url(#linearGradient-4)" x="2.55795385e-13" y="115" width="123.131313" height="96.3636364" rx="4"></rect>
                <g id="产业应用系统" transform="translate(42.696970, 144.616162)" fill="#FFFFFF" fill-rule="nonzero">
                    <path d="M26.5969051,0.379606033 C27.3127462,0.294774669 28.0589367,0.551692505 28.5692112,1.06027675 C30.9510318,3.43636287 33.3312337,5.81406479 35.7126496,8.19055487 C35.9441143,8.40950058 36.1500856,8.65995509 36.2880741,8.94878568 C36.6239408,9.6225891 36.6174662,10.4531285 36.2698645,11.1208726 C36.1391598,11.3802141 35.9554448,11.6096628 35.7458316,11.8100264 C33.3919325,14.1594512 31.0380334,16.50928 28.6841342,18.8595127 C28.4575254,19.0982524 28.1940927,19.3058873 27.8930267,19.4428294 C27.174353,19.7833667 26.2885553,19.7361035 25.6103475,19.3208338 C25.3024023,19.1422839 25.0660816,18.8724394 24.8147886,18.6256206 C22.5143044,16.3291143 20.2134156,14.0326081 17.9129314,11.7356979 C17.5187939,11.3462816 17.2646683,10.8183073 17.2100394,10.2669035 C17.1242518,9.51109644 17.4285551,8.73307166 17.9894119,8.22085179 C20.3773023,5.83789838 22.7639788,3.45373309 25.1522739,1.07118364 C25.5371042,0.68661479 26.0546626,0.436564256 26.5969051,0.379606033 Z M2.55098134,2.63868338 C6.18859872,2.63058686 9.82621606,2.63825724 13.4634066,2.63527434 C14.1245975,2.62291648 14.7845079,2.88157959 15.2612996,3.33882105 C15.7624217,3.80969877 16.057802,4.48980812 16.0573752,5.17673557 C16.0586557,8.77117313 16.0578021,12.3660368 16.0578021,15.9604744 C16.0646317,16.6303566 15.7935818,17.2964035 15.3202049,17.7711164 C14.8485354,18.2530736 14.180088,18.5338957 13.504811,18.5326173 C9.89195097,18.5330435 6.27909094,18.5338957 2.66623089,18.5321912 C1.75447885,18.5334696 0.870898985,17.9986718 0.442768238,17.1962621 C0.228062572,16.8063498 0.12519167,16.3601878 0.131594439,15.9161565 C0.131594439,12.350696 0.131313131,8.78480943 0.1320213,5.21934896 C0.124337985,4.58270524 0.363800966,3.94691378 0.794492769,3.47688835 C1.23927066,2.98129487 1.88466816,2.6714957 2.55098134,2.63868338 Z M2.07827215,22.0159517 C2.45083474,21.9171786 2.83876076,21.9444264 3.2198586,21.9410204 C6.66211512,21.9418719 10.1047984,21.9393174 13.5470549,21.9422976 C14.5917665,21.9469808 15.5797189,22.6647889 15.9121659,23.6512429 C16.1003677,24.1446828 16.0504366,24.6789942 16.0559845,25.1954244 C16.0559845,28.5592452 16.056838,31.9234917 16.0555577,35.2873126 C16.0589718,36.1566863 15.5758781,37.004347 14.8294726,37.4513805 C14.4611776,37.6859667 14.0292951,37.7881458 13.5999733,37.8383838 L2.6223928,37.8383838 C2.27159504,37.7992152 1.91738317,37.7383335 1.59859247,37.5799559 C0.928577242,37.2661809 0.410489068,36.6492747 0.221860563,35.9352983 C0.146750579,35.6683554 0.129253399,35.3899174 0.132667466,35.1140339 C0.133520973,31.6803907 0.132667466,28.2463217 0.132667466,24.8126786 C0.127119575,24.4567547 0.133947745,24.0944447 0.244478935,23.7525705 C0.494987818,22.906187 1.21749466,22.2211614 2.07827215,22.0159517 L2.07827215,22.0159517 Z M19.0306869,22.7448356 C19.5035811,22.2381835 20.1907287,21.9397271 20.8847051,21.9410045 C24.4711035,21.9397272 28.0570751,21.9410045 31.6430466,21.9400061 C31.9802185,21.9367468 32.3195242,21.9925212 32.6336489,22.1172683 C33.5444396,22.464261 34.2081132,23.3689969 34.2525004,24.3422798 C34.2674384,24.9804911 34.2550611,25.6191281 34.2589024,26.2577652 L34.2589024,34.8155018 C34.2593292,35.1897431 34.2751208,35.5712223 34.170128,35.9352454 C33.9545941,36.7573842 33.2981761,37.4449834 32.486403,37.7012897 C32.2700155,37.7770747 32.0403972,37.7962338 31.8167541,37.8383838 L20.8313551,37.8383838 C20.5923472,37.8047489 20.349925,37.783461 20.1203067,37.7055473 C19.2974368,37.4522213 18.6324827,36.7548296 18.4190829,35.9228984 C18.3047005,35.5209828 18.3396981,35.1003339 18.3345765,34.6882001 C18.3345765,31.2961858 18.3341497,27.9041715 18.3345765,24.5121572 C18.3277477,23.8628762 18.5821204,23.215724 19.0306869,22.7448356 L19.0306869,22.7448356 Z" id="形状"></path>
                </g>
                <rect id="矩形" fill="url(#linearGradient-5)" x="142" y="110" width="69.5959596" height="63.1717172" rx="4"></rect>
                <path d="M167.422375,157.11033 C166.440534,157.11033 165.635606,156.349974 165.561173,155.383015 L165.555556,155.236491 L165.555556,141.572165 C165.555556,140.587465 166.31373,139.780826 167.276495,139.706237 L167.422375,139.700608 L169.560182,139.700608 L169.560182,134.710125 C169.560182,130.530207 172.951364,127.131313 177.119201,127.131313 C181.204986,127.131313 184.540882,130.398224 184.670131,134.464883 L184.674018,134.709823 L184.674018,139.700675 L186.813774,139.700608 C187.795935,139.700608 188.600574,140.460295 188.674979,141.425856 L188.680594,141.572165 L188.68163,147.330762 C188.473573,147.287586 188.262515,147.252604 188.048809,147.226169 L187.725892,147.192937 C188.05009,147.219603 188.368733,147.265871 188.680633,147.330555 L188.680594,155.236491 C188.680594,156.222789 187.924463,157.030052 186.961892,157.104697 L186.816027,157.11033 L167.422375,157.11033 Z M177.117285,144.360131 C175.835636,144.360131 174.795358,145.405379 174.795358,146.690681 C174.795358,147.538414 175.250141,148.269966 175.923641,148.6781 L176.071224,148.760532 L176.071224,151.74424 C176.072002,151.860342 176.152827,151.957454 176.261409,151.983295 L176.317771,151.990035 L177.922412,151.990035 C178.034973,151.988972 178.129558,151.912774 178.158271,151.809193 L178.167211,151.74414 L178.167245,148.760196 C178.921341,148.373914 179.443414,147.598966 179.441503,146.690345 C179.441503,145.405345 178.400883,144.360131 177.117285,144.360131 Z M177.120848,130.162556 C174.62529,130.162556 172.57967,132.144269 172.46795,134.620195 L172.463145,134.833593 L172.463145,139.700675 L181.775022,139.700675 L181.775022,134.833593 C181.775022,132.259094 179.688045,130.162556 177.120848,130.162556 Z" id="形状结合" fill="#FFFFFF" fill-rule="nonzero"></path>
                <g id="锁" transform="translate(36.272727, 79.232323)" fill="#000000" fill-rule="nonzero" opacity="0">
                    <rect id="矩形" x="0" y="0" width="17.1313131" height="17.1313131"></rect>
                </g>
                <line x1="142.5" y1="155.5" x2="112.732323" y2="155.732323" id="路径-17" stroke-opacity="0.851316652" stroke="#52A6FF" stroke-dasharray="2"></line>
                <line x1="62.7853535" y1="115.5" x2="62.6186869" y2="96.3636364" id="路径-19" stroke-opacity="0.851316652" stroke="#52A6FF" stroke-dasharray="2"></line>
                <rect id="矩形" fill="#479CFF" opacity="0.453311012" x="148" y="21" width="19" height="33" rx="2"></rect>
                <line x1="202" y1="45" x2="202" y2="81.4040404" id="路径-18" stroke-opacity="0.851316652" stroke="#52A6FF" stroke-dasharray="16,12"></line>
            </g>
        </g>
    </g>
</svg>