<?xml version="1.0" encoding="UTF-8"?>
<svg width="200px" height="200px" viewBox="0 0 200 200" version="1.1" xmlns="http://www.w3.org/2000/svg" xmlns:xlink="http://www.w3.org/1999/xlink">
    <title>编组 30</title>
    <defs>
        <linearGradient x1="50%" y1="0%" x2="50%" y2="100%" id="linearGradient-1">
            <stop stop-color="#77DCFD" stop-opacity="0.244208916" offset="0%"></stop>
            <stop stop-color="#427AF9" stop-opacity="0.295399913" offset="100%"></stop>
        </linearGradient>
        <linearGradient x1="4.11166301%" y1="48.998754%" x2="97.2086592%" y2="50.6693854%" id="linearGradient-2">
            <stop stop-color="#72D0FF" offset="0%"></stop>
            <stop stop-color="#4EC2F7" offset="100%"></stop>
        </linearGradient>
        <linearGradient x1="4.11166301%" y1="43.875%" x2="97.2086592%" y2="54.0948832%" id="linearGradient-3">
            <stop stop-color="#72D0FF" offset="0%"></stop>
            <stop stop-color="#4EC2F7" offset="100%"></stop>
        </linearGradient>
        <linearGradient x1="50%" y1="0.422475726%" x2="50%" y2="98.8993046%" id="linearGradient-4">
            <stop stop-color="#72D0FF" offset="0%"></stop>
            <stop stop-color="#388AFF" offset="99.9472128%"></stop>
        </linearGradient>
        <linearGradient x1="50%" y1="0%" x2="50%" y2="98.8202069%" id="linearGradient-5">
            <stop stop-color="#72D0FF" offset="0%"></stop>
            <stop stop-color="#38B0FF" offset="100%"></stop>
        </linearGradient>
    </defs>
    <g id="产品" stroke="none" stroke-width="1" fill="none" fill-rule="evenodd">
        <g id="基础服务-证书02✅" transform="translate(-372.000000, -4003.000000)">
            <g id="编组-30" transform="translate(372.000000, 4003.000000)">
                <rect id="矩形" fill="#D8D8D8" opacity="0" x="0" y="0" width="200" height="200"></rect>
                <g id="编组-29">
                    <g id="编组-28" transform="translate(16.037736, 0.000000)">
                        <rect id="矩形" fill="url(#linearGradient-1)" opacity="0.6" x="0" y="0" width="152.830189" height="90.5660377" rx="6"></rect>
                        <rect id="矩形备份" fill="#479CFF" opacity="0.3492141" x="11.3207547" y="19.8113208" width="75.7575758" height="4.71698113" rx="1"></rect>
                        <rect id="矩形备份-2" fill="url(#linearGradient-2)" opacity="0.469470796" x="11.3207547" y="33.9622642" width="33.3333333" height="4.71698113" rx="1"></rect>
                        <rect id="矩形" fill="url(#linearGradient-3)" opacity="0.618336124" x="11.3207547" y="51.8867925" width="37.7358491" height="13.2075472" rx="2"></rect>
                        <rect id="矩形" fill="#479CFF" opacity="0.453311012" x="123.584906" y="19.8113208" width="17.9245283" height="31.1320755" rx="2"></rect>
                    </g>
                    <g id="编组-23" transform="translate(0.000000, 108.490566)">
                        <rect id="矩形" fill="url(#linearGradient-4)" x="2.41316401e-13" y="-1.54174367e-13" width="116.161616" height="90.9090909" rx="4"></rect>
                        <g id="产业应用系统" transform="translate(40.280160, 27.939775)" fill="#FFFFFF" fill-rule="nonzero">
                            <path d="M25.0914199,0.358118899 C25.7667417,0.27808931 26.470695,0.520464627 26.952086,1.00026109 C29.1990866,3.24185176 31.4445601,5.48496678 33.6911789,7.72693856 C33.9095418,7.93349112 34.1038543,8.16976895 34.2340322,8.44225065 C34.5508875,9.07791425 34.5447795,9.86144202 34.2168533,10.4913892 C34.093547,10.7360511 33.9202309,10.9525121 33.7224826,11.1415343 C31.5018231,13.3579728 29.2811636,15.5747924 27.060504,17.7919931 C26.8467221,18.0172193 26.5982006,18.2131012 26.3141761,18.3422919 C25.636182,18.6635535 24.8005238,18.6189656 24.1607051,18.2272017 C23.8701908,18.0587584 23.6472468,17.8041881 23.4101779,17.5713401 C21.2399098,15.4048248 19.06926,13.2383096 16.8989919,11.0714132 C16.5271641,10.7040393 16.287423,10.2059503 16.2358863,9.68575802 C16.1549545,8.97273249 16.4420331,8.23874685 16.9711433,7.75552056 C19.2238701,5.5074513 21.4754517,3.25823876 23.7285603,1.0105506 C24.0916078,0.647749802 24.5798704,0.411853072 25.0914199,0.358118899 Z M2.40658617,2.48932395 C5.83830068,2.48168571 9.27001515,2.48892192 12.701327,2.48610786 C13.325092,2.47444951 13.947649,2.71847131 14.3974524,3.14983118 C14.8702091,3.59405544 15.1488698,4.23566804 15.1484672,4.8837128 C15.1496752,8.27469164 15.1488699,11.6660725 15.1488699,15.0570514 C15.1553129,15.6890156 14.8996055,16.3173618 14.4530235,16.7652042 C14.0080523,17.2198808 13.3774415,17.4848073 12.7403878,17.4836012 C9.33202921,17.4840033 5.9236707,17.4848073 2.51531216,17.4831992 C1.65516873,17.4844052 0.821602816,16.9798791 0.417705885,16.2228888 C0.21515337,15.855047 0.118105349,15.4341395 0.124145697,15.015242 C0.124145697,11.6516 0.123880313,8.28755606 0.124548397,4.92391411 C0.117299986,4.32330683 0.343208459,3.72350357 0.74952148,3.28008335 C1.16912326,2.81254233 1.77798883,2.52027896 2.40658617,2.48932395 Z M1.9606341,20.7697658 C2.31210824,20.6765836 2.67807619,20.702289 3.03760246,20.6990758 C6.28501426,20.6998791 9.53282868,20.6974692 12.7802405,20.7002808 C13.7658175,20.7046989 14.697848,21.3818764 15.0114773,22.3124933 C15.1890261,22.7780026 15.1419213,23.28207 15.1471552,23.7692683 C15.1471552,26.9426841 15.1479604,30.1165016 15.1467526,33.2899175 C15.1499734,34.1100814 14.6942246,34.9097614 13.9900685,35.3314911 C13.6426204,35.5527987 13.2351841,35.6491941 12.8301635,35.6965885 L2.47395547,35.6965885 C2.14301419,35.659637 1.80885205,35.6022014 1.50810611,35.4527886 C0.876016266,35.1567745 0.387253837,34.5747874 0.209302418,33.9012248 C0.138443942,33.6493919 0.121937169,33.3867145 0.125157987,33.126447 C0.125963182,29.887161 0.125157987,26.6474733 0.125157987,23.4081873 C0.119924128,23.0724101 0.126365798,22.7306082 0.230640504,22.4080854 C0.46696964,21.6096104 1.14857987,20.9633598 1.9606341,20.7697658 L1.9606341,20.7697658 Z M17.9534782,21.4573921 C18.3996048,20.9794184 19.0478573,20.6978558 19.702552,20.6990608 C23.0859467,20.6978558 26.4689388,20.6990608 29.8519308,20.698119 C30.1700174,20.6950442 30.4901172,20.7476615 30.7864612,20.8653474 C31.6456977,21.1926991 32.2718049,22.0462235 32.3136796,22.9644149 C32.327772,23.566501 32.3160954,24.1689888 32.3197192,24.7714766 L32.3197192,32.844813 C32.3201219,33.1978709 32.3350196,33.5577569 32.2359698,33.9011749 C32.032636,34.6767775 31.4133737,35.325456 30.64755,35.5672545 C30.4434109,35.6387497 30.2267898,35.6568243 30.0158058,35.6965885 L19.6522218,35.6965885 C19.4267427,35.6648575 19.1980424,35.6447746 18.9814214,35.5712711 C18.205129,35.3322843 17.5778139,34.6743676 17.3764933,33.8895268 C17.2685854,33.5103612 17.301602,33.1135225 17.2967703,32.7247171 C17.2967703,29.5247036 17.2963676,26.3246901 17.2967703,23.1246766 C17.290328,22.5121474 17.5303022,21.9016264 17.9534782,21.4573921 L17.9534782,21.4573921 Z" id="形状"></path>
                        </g>
                    </g>
                    <g id="编组-27" transform="translate(133.962264, 103.773585)">
                        <rect id="矩形" fill="url(#linearGradient-5)" x="-1.13954967e-13" y="6.70323336e-14" width="65.6565657" height="59.5959596" rx="4"></rect>
                        <path d="M35.3323911,44.4445471 L23.9833728,44.4437078 C23.0594237,44.4437078 22.3015395,43.7299724 22.2280609,42.8210029 L22.2222222,42.6759346 L22.2222222,29.785061 C22.2222222,28.858421 22.9339089,28.0989252 23.8389417,28.0252922 L23.9833728,28.0194413 L26.0001713,28.0194413 L26.0001713,23.3114387 C26.0001713,19.3681199 29.1994003,16.1616162 33.1313216,16.1616162 C36.9826889,16.1616162 40.1277692,19.2385777 40.2545358,23.0706847 L40.2585077,23.3111537 L40.2585077,28.0195046 L42.2771455,28.0194413 C43.201396,28.0194413 43.959009,28.7325479 44.0324597,29.6402055 L44.0382962,29.785061 L44.0382962,42.6759346 C44.0382962,43.6040789 43.3285271,44.3641644 42.4236861,44.4378526 L42.2792704,44.4437078 L35.332347,44.4443831 L35.2556189,44.1325601 L35.2556189,44.1325601 C35.2790374,44.2374991 35.3046349,44.3414656 35.3323911,44.4445471 Z M33.1295139,32.4152175 C31.9204116,32.4152175 30.939017,33.4013006 30.939017,34.6138499 C30.939017,35.4135978 31.3680574,36.1037412 32.0034351,36.4887737 L32.1426645,36.5665394 L32.1426645,39.3813588 C32.143378,39.4878464 32.2154705,39.5773998 32.3136096,39.6046962 L32.3752561,39.6132405 L33.889068,39.6132405 C33.9952576,39.6122377 34.0844889,39.5403531 34.1115766,39.4426346 L34.1200105,39.3812638 L34.1200422,36.5662227 C34.8314542,36.2018055 35.323975,35.4707227 35.3221723,34.6135332 C35.3221723,33.4012689 34.3404556,32.4152175 33.1295139,32.4152175 Z M33.1328756,19.0212792 C30.7825319,19.0212792 28.8552331,20.8845414 28.7438958,23.2148261 L28.7388156,23.4279179 L28.7388156,28.0195046 L37.5236056,28.0195046 L37.5236056,23.4279179 C37.5236056,20.9991457 35.554759,19.0212792 33.1328756,19.0212792 Z" id="形状结合" fill="#FFFFFF" fill-rule="nonzero"></path>
                    </g>
                    <line x1="134.433962" y1="146.698113" x2="106.351248" y2="146.917286" id="路径-17" stroke-opacity="0.851316652" stroke="#52A6FF" stroke-dasharray="2"></line>
                    <line x1="59.2314656" y1="108.962264" x2="59.0742329" y2="90.9090909" id="路径-19" stroke-opacity="0.851316652" stroke="#52A6FF" stroke-dasharray="2"></line>
                    <line x1="190.566038" y1="42.4528302" x2="190.566038" y2="76.7962645" id="路径-18" stroke-opacity="0.851316652" stroke="#52A6FF" stroke-dasharray="16,12"></line>
                </g>
            </g>
        </g>
    </g>
</svg>