<?xml version="1.0" encoding="UTF-8"?>
<svg width="200px" height="200px" viewBox="0 0 200 200" version="1.1" xmlns="http://www.w3.org/2000/svg" xmlns:xlink="http://www.w3.org/1999/xlink">
    <title>编组 33</title>
    <defs>
        <linearGradient x1="50%" y1="0%" x2="50%" y2="100%" id="linearGradient-1">
            <stop stop-color="#77DCFD" stop-opacity="0.244208916" offset="0%"></stop>
            <stop stop-color="#427AF9" stop-opacity="0.295399913" offset="100%"></stop>
        </linearGradient>
        <linearGradient x1="4.11166301%" y1="46.6856336%" x2="97.2086592%" y2="52.2158275%" id="linearGradient-2">
            <stop stop-color="#72D0FF" offset="0%"></stop>
            <stop stop-color="#4EC2F7" offset="100%"></stop>
        </linearGradient>
        <linearGradient x1="50%" y1="0.422475726%" x2="50%" y2="98.8993046%" id="linearGradient-3">
            <stop stop-color="#72D0FF" offset="0%"></stop>
            <stop stop-color="#388AFF" offset="99.9472128%"></stop>
        </linearGradient>
    </defs>
    <g id="产品" stroke="none" stroke-width="1" fill="none" fill-rule="evenodd">
        <g id="基础服务-证书02✅" transform="translate(-372.000000, -4498.000000)">
            <g id="编组-33" transform="translate(372.000000, 4498.000000)">
                <rect id="矩形" fill="#D8D8D8" opacity="0" x="0" y="0" width="200" height="200"></rect>
                <g id="编组-32" transform="translate(6.000000, 6.000000)">
                    <g id="编组-12">
                        <rect id="矩形" fill="url(#linearGradient-1)" opacity="0.6" x="0" y="0" width="170.879316" height="129.93948" rx="6"></rect>
                        <rect id="矩形" fill="url(#linearGradient-2)" x="10.6799573" y="16.0199359" width="93.3333333" height="24.0299039" rx="2"></rect>
                        <rect id="矩形备份-3" fill="#479CFF" opacity="0.747698103" x="10.6799573" y="47.1698113" width="41.1111111" height="20" rx="2"></rect>
                        <rect id="矩形备份-4" fill="#55ADFF" opacity="0.776436942" x="56.0017404" y="46.9929987" width="26.6666667" height="20" rx="2"></rect>
                        <rect id="矩形备份-5" fill="#6AC7FF" opacity="0.761672247" x="87.1128515" y="46.9929987" width="31.1111111" height="20" rx="2"></rect>
                        <rect id="矩形" fill="#FFFFFF" x="10.6799573" y="95.2296191" width="38.8888889" height="4.4499822" rx="1"></rect>
                        <rect id="矩形备份-6" fill="#FFFFFF" x="10.6799573" y="81.8796725" width="83.3333333" height="4.4499822" rx="1"></rect>
                        <rect id="矩形备份-2" fill="#FFFFFF" x="10.6799573" y="108.579566" width="105.555556" height="4.4499822" rx="1"></rect>
                    </g>
                    <g id="编组-31" transform="translate(68.529726, 96.119616)">
                        <rect id="矩形" fill="url(#linearGradient-3)" x="0" y="0" width="120.149519" height="92.5596298" rx="4"></rect>
                        <g id="cas-SSL服务" transform="translate(33.819865, 19.579922)" fill-rule="nonzero">
                            <rect id="矩形" fill="#000000" opacity="0" x="0" y="0" width="53.3333333" height="53.3333333"></rect>
                            <path d="M27.3327524,4.82053588 L27.1723489,4.79400749 L27.1723489,4.82053588 L7.79026217,9.91398714 L8.91308651,30.2612638 C8.91308651,30.3939057 8.91308651,32.9671598 9.7418378,34.5058065 C13.9123282,42.2786253 23.777142,47.0006791 26.9584776,48.4066839 C26.9584776,48.4066839 27.0654133,48.4597407 27.145615,48.4862691 L27.145615,48.5393258 C27.1723489,48.5393258 27.1990828,48.5127975 27.2258167,48.5127975 C27.2525506,48.5127975 27.3060185,48.5393258 27.3060185,48.5393258 L27.3060185,48.4862691 C27.3862202,48.4597407 27.439688,48.4066839 27.4664219,48.4066839 C30.6210237,47.0006791 40.5125714,42.2786253 44.6830618,34.5058065 C45.511813,32.9671598 45.5920148,30.3939057 45.5920148,30.2612638 L46.741573,9.91398714 L27.3327524,4.82053588 Z M15.7569682,36.6546062 L15.7569682,12.9647522 L37.9728497,12.9647522 L37.9728497,23.6556942 C37.2777679,23.2577683 36.5292184,22.965956 35.7539349,22.7802572 L35.7539349,15.0339668 L17.8422134,15.0339668 L17.8422134,34.4527497 L26.851542,34.4527497 C27.3060185,35.3016583 27.9208985,36.0444532 28.669448,36.6546062 L15.7569682,36.6546062 Z M25.8623872,31.0040588 L20.8898794,31.0040588 L20.8898794,28.9348442 L26.0227907,28.9348442 C25.915855,29.465412 25.8623872,30.0225083 25.8623872,30.5796045 C25.8356533,30.7387748 25.8356533,30.8714168 25.8623872,31.0040588 Z M20.8898794,25.3535113 L20.8898794,23.2842967 L30.5675558,23.2842967 C29.4981993,23.7618077 28.5625124,24.4780743 27.8139628,25.3535113 L20.8898794,25.3535113 Z M20.8898794,19.7029638 L20.8898794,17.6337492 L33.2409471,17.6337492 L33.2409471,19.7029638 L20.8898794,19.7029638 Z M33.9894967,37.6361567 C30.1130793,37.6361567 26.9584776,34.5058065 26.9584776,30.6591897 C26.9584776,26.8125728 30.1130793,23.6822226 33.9894967,23.6822226 C37.865914,23.6822226 41.0205157,26.8125728 41.0205157,30.6591897 C41.0205157,34.5058065 37.865914,37.6361567 33.9894967,37.6361567 L33.9894967,37.6361567 Z M33.9894967,25.53921 C31.1557019,25.53921 28.8565854,27.8206517 28.8565854,30.6326613 C28.8565854,33.4446708 31.1557019,35.7261125 33.9894967,35.7261125 C36.8232914,35.7261125 39.1224079,33.4446708 39.1224079,30.6326613 C39.1224079,27.8206517 36.8232914,25.53921 33.9894967,25.53921 Z M36.3955488,33.391614 L35.3796601,32.9671598 L34.9519175,33.9752387 L34.0162306,31.7733821 L33.1072775,33.9752387 L32.6795349,32.9671598 L31.6636462,33.391614 L32.5191315,31.3489278 L31.3695732,29.465412 L32.7062688,27.2635555 L35.3796601,27.2635555 L36.7163558,29.465412 L35.5400636,31.4019846 L36.3955488,33.391614 L36.3955488,33.391614 Z" id="形状" fill="#FFFFFF"></path>
                        </g>
                    </g>
                    <line x1="63.3428266" y1="162.570705" x2="24.4539377" y2="162.570705" id="路径-8" stroke-opacity="0.851316652" stroke="#52A6FF" stroke-dasharray="16,12"></line>
                    <line x1="155.749377" y1="77.4296903" x2="185.749377" y2="77.4296903" id="路径-7" stroke-opacity="0.851316652" stroke="#52A6FF" stroke-dasharray="16,12"></line>
                </g>
            </g>
        </g>
    </g>
</svg>