<?xml version="1.0" encoding="UTF-8"?>
<svg width="200px" height="201px" viewBox="0 0 200 201" version="1.1" xmlns="http://www.w3.org/2000/svg" xmlns:xlink="http://www.w3.org/1999/xlink">
    <title>编组 21</title>
    <defs>
        <linearGradient x1="50%" y1="0%" x2="50%" y2="100%" id="linearGradient-1">
            <stop stop-color="#77DCFD" stop-opacity="0.244208916" offset="0%"></stop>
            <stop stop-color="#427AF9" stop-opacity="0.295399913" offset="100%"></stop>
        </linearGradient>
        <linearGradient x1="4.11166301%" y1="49.5412751%" x2="97.2086592%" y2="50.3066816%" id="linearGradient-2">
            <stop stop-color="#72D0FF" offset="0%"></stop>
            <stop stop-color="#4EC2F7" offset="100%"></stop>
        </linearGradient>
        <linearGradient x1="50%" y1="0%" x2="50%" y2="98.8202069%" id="linearGradient-3">
            <stop stop-color="#72D0FF" offset="0%"></stop>
            <stop stop-color="#38B0FF" offset="100%"></stop>
        </linearGradient>
        <linearGradient x1="50%" y1="0.422475726%" x2="50%" y2="98.8993046%" id="linearGradient-4">
            <stop stop-color="#72D0FF" offset="0%"></stop>
            <stop stop-color="#388AFF" offset="99.9472128%"></stop>
        </linearGradient>
    </defs>
    <g id="产品" stroke="none" stroke-width="1" fill="none" fill-rule="evenodd">
        <g id="基础服务-证书02✅" transform="translate(-372.000000, -3402.000000)">
            <g id="编组-22" transform="translate(372.000000, 3402.000000)">
                <g id="编组-21">
                    <g id="编组-19" transform="translate(30.624273, 23.293155)">
                        <rect id="矩形" fill="url(#linearGradient-1)" opacity="0.6" x="0" y="0" width="152.830189" height="101.886792" rx="6"></rect>
                        <rect id="矩形" fill="#479CFF" opacity="0.3492141" x="11.3207547" y="65.0479663" width="62.3115578" height="4.71698113" rx="1"></rect>
                        <rect id="矩形备份-2" fill="url(#linearGradient-2)" opacity="0.469470796" x="11.3207547" y="78.2555246" width="49.2462312" height="4.71698113" rx="1"></rect>
                        <rect id="矩形" fill="#6AC7FF" opacity="0.402553013" x="112.264151" y="29.245283" width="29.245283" height="26.4150943" rx="2"></rect>
                    </g>
                    <g id="编组-16">
                        <rect id="矩形" fill="url(#linearGradient-3)" x="0" y="-1.47471134e-13" width="81.1320755" height="72.6415704" rx="4"></rect>
                        <text id="HTTPS" font-family="Times-Roman, Times" font-size="10" font-weight="normal" letter-spacing="0.6" fill="#FFFFFF">
                            <tspan x="21.3065327" y="39.8846866">HTTPS</tspan>
                        </text>
                    </g>
                    <g id="编组-20" transform="translate(114.586537, 88.387494)">
                        <rect id="矩形" fill="url(#linearGradient-4)" x="0" y="0" width="84.9056604" height="111.320755" rx="4"></rect>
                        <g id="安全" transform="translate(10.377358, 23.584906)" fill-rule="nonzero">
                            <rect id="矩形" fill="#000000" opacity="0" x="0" y="0" width="63.3962796" height="63.3962796"></rect>
                            <path d="M61.8511191,14.8458733 C60.609877,8.08011586 55.3157923,2.78535022 48.5496015,1.54447948 C43.0588893,0.537320616 37.5693535,0.0226592171 32.0798795,0 L31.3162144,0 C25.8268023,0.0226592171 20.3368331,0.537320616 14.8468639,1.54447948 C8.08036351,2.78535022 2.78603123,8.08011586 1.54491285,14.8458733 C0.531067663,20.3729269 0.0161586221,25.8999805 0,31.427096 L0,31.9678217 C0.0160967116,37.4949371 0.531005752,43.0219907 1.54491285,48.5491062 C2.78603123,55.3149256 8.08036351,60.6099389 14.8468639,61.8511811 C20.4639352,62.8806277 26.0810066,63.3960939 31.6978303,63.3960939 C37.3150254,63.3960939 42.931911,62.8806277 48.5496015,61.8511811 C55.3157304,60.6099389 60.609877,55.3149256 61.8511191,48.5491681 C62.8813706,42.9313539 63.3959701,37.3153969 63.3959701,31.6975207 C63.3959701,26.0806351 62.8813706,20.4636876 61.8511191,14.8458733 Z" id="路径" fill="#0070FF" opacity="0"></path>
                            <path d="M30.2380443,11.6673919 C31.2781102,11.0936034 32.5398414,11.0936034 33.5799073,11.6673919 C34.5852708,12.2346771 38.0227855,15.1212509 41.0047632,15.7503847 C42.9794076,16.1317708 44.986508,16.3198969 46.9976309,16.312098 C47.7497187,16.312098 48.2331773,16.283743 48.2725523,16.283743 L48.2725523,16.283743 L48.4745041,16.283743 C49.2143504,16.2778714 49.9346218,16.5212986 50.5192199,16.9747872 C51.1132367,17.4112203 51.4733443,18.0967513 51.4956093,18.8335241 L51.4956093,18.8335241 L51.4956093,25.2083172 C51.5140199,27.9415517 51.2334033,30.6686 50.658766,33.3408092 C46.6914838,31.2438411 41.9253713,31.3331778 38.0386345,33.5765642 C38.0666492,33.1348644 38.2566255,32.719024 38.5721786,32.4086858 L38.5721786,32.4086858 L40.8475107,30.1620802 C41.3214043,29.6859043 41.4891463,28.9846636 41.2820299,28.345585 C41.0749135,27.7065065 40.5277362,27.2369611 39.8646207,27.129274 L39.8646207,27.129274 L36.707746,26.6800519 C36.1230518,26.5973572 35.6167531,26.2316352 35.3545079,25.7025481 L35.3545079,25.7025481 L33.9050609,22.8551636 C33.60342,22.2438468 32.9807901,21.8568753 32.2991044,21.8570437 C31.6174825,21.8573722 30.995002,22.2441763 30.6928383,22.8551636 L30.6928383,22.8551636 L29.2883383,25.7195116 C29.0285412,26.2488561 28.5248436,26.6164129 27.9414769,26.7023396 L27.9414769,26.7023396 L24.784726,27.1684013 C24.1093796,27.2683251 23.5494912,27.7433251 23.340851,28.3933611 C23.1321387,29.0431406 23.3108813,29.7550619 23.8017741,30.2291911 L23.8017741,30.2291911 L26.0932648,32.4478132 C26.5175257,32.8575767 26.7129752,33.4498755 26.6159127,34.0316677 L26.6159127,34.0316677 L26.0878167,37.1767794 C25.9741872,37.8495638 26.2524412,38.5285057 26.8055443,38.9280398 C27.358944,39.3272441 28.0909652,39.3777383 28.6939362,39.0582993 L28.6939362,39.0582993 L31.5019445,37.5640911 C32.0286365,37.2835731 32.6603948,37.2835731 33.1870856,37.5640911 L33.1870856,37.5640911 L33.6075813,37.7828825 L33.6416939,37.7828825 C33.6374018,37.7894912 33.6331163,37.7961028 33.6288373,37.8027174 L36.0006051,39.0411501 C36.6057309,39.3575021 37.3380246,39.3026268 37.8892447,38.8996229 C38.4396037,38.4961292 38.7132409,37.8152282 38.5951474,37.1431002 L38.5951474,37.1431002 L38.0335579,34.0032508 C38.0173371,33.86341 38.0173371,33.7221627 38.0335579,33.5823218 C41.9196755,31.3383164 46.686469,31.249413 50.6536893,33.3463193 C47.5756266,47.2468203 36.8487161,50.9418824 33.439123,51.7508041 L33.4839445,51.7390505 L33.4901991,51.7509279 C32.9897276,51.8721733 32.6485745,51.9434216 32.5157991,51.9564589 L32.4793256,51.9586374 C32.3028031,51.98609 32.1243606,51.9993195 31.9457196,51.9982639 C31.767108,51.9964027 31.5885584,51.9832777 31.4119898,51.9586374 C30.6428146,51.8407599 12.5019445,48.8025056 12.5019445,25.213951 L12.5019445,25.213951 L12.5019445,18.8393436 C12.5125905,18.1044678 12.8629648,17.4159502 13.4507837,16.9747872 C14.0290796,16.5302195 14.738149,16.2893501 15.4675778,16.2896864 L15.4675778,16.2896864 L15.6694678,16.2896864 C15.7039947,16.311117 15.9978861,16.3160625 16.4742118,16.3172037 L16.950085,16.3175461 C18.9759394,16.3254477 20.9978103,16.1374173 22.9874662,15.7560804 C26.509241,15.0368051 30.1143472,11.7401366 30.2380443,11.6673919 Z" id="形状结合" fill="#FFFFFF"></path>
                        </g>
                    </g>
                    <path d="M52.5523524,126.704869 L52.5523524,164.895824 L114.86391,164.895824" id="路径-4" stroke-opacity="0.851316652" stroke="#52A6FF" stroke-dasharray="2"></path>
                </g>
            </g>
        </g>
    </g>
</svg>