<?xml version="1.0" encoding="UTF-8"?>
<svg width="465px" height="356px" viewBox="0 0 665 356" version="1.1" xmlns="http://www.w3.org/2000/svg" xmlns:xlink="http://www.w3.org/1999/xlink">
    <!-- Generator: Sketch 64 (93537) - https://sketch.com -->
    <title>编组 5</title>
    <desc>Created with Sketch.</desc>
    <g id="产品" stroke="none" stroke-width="1" fill="none" fill-rule="evenodd">
        <g id="基础服务-CDN02✅" transform="translate(-440.000000, -3276.000000)">
            <g id="产品介绍-2备份-4" transform="translate(0.000000, 2992.000000)">
                <g id="编组" transform="translate(372.000000, 256.000000)">
                    <g id="编组-5" transform="translate(68.000000, 28.000000)">
                        <path id="路径-15备份-6" d="M163,213 L172,217.5 L163,222 L163,218 L125,218 L125,217 L163,217 L163,213 Z" fill="#28B8BB" fill-rule="nonzero"></path>
                        <path id="路径-15备份-11" d="M495.486878,13.7748729 L504.499998,18.248538 L495.513194,22.7748345 L495.501,18.774 L333.001462,19.2499979 L332.998538,18.2500021 L495.498,17.774 L495.486878,13.7748729 Z" fill="#28B8BB" fill-rule="nonzero"></path>
                        <path id="路径-15备份-22" d="M332.169553,18.5296261 L496.172,77.647 L497.529624,73.8842268 L504.470374,81.1695534 L494.477662,82.3509577 L495.833,78.587 L331.830447,19.4703739 L332.169553,18.5296261 Z" fill="#28B8BB" fill-rule="nonzero"></path>
                        <path id="路径-15备份-8" d="M331.289976,310.425288 L340.249981,315.004405 L331.210684,319.424938 L331.245,315.425 L282.995595,314.999981 L283.004405,314.000019 L331.254,314.425 L331.289976,310.425288 Z" fill="#23B4E8" fill-rule="nonzero"></path>
                        <path id="路径-15备份-10" d="M493.545423,311.165229 L502.499975,315.755 L493.455427,320.164779 L493.495,316.165 L451.995,315.749975 L452.005,314.750025 L493.505,315.165 L493.545423,311.165229 Z" fill="#23B4E8" fill-rule="nonzero"></path>
                        <path id="路径-15备份-7" d="M501,242 L510,246.5 L501,251 L501,247 L419,247 L419,246 L501,246 L501,242 Z" fill="#23B4E8" fill-rule="nonzero"></path>
                        <path id="路径-15备份-6" d="M248,36 L248,52.5 L252,52.5 L247.5,61.5 L243,52.5 L247,52.5 L247,36 L248,36 Z" fill="#28B8BB" fill-rule="nonzero"></path>
                        <path id="路径-15备份-6" d="M258,262 L258,286.5 L262,286.5 L257.5,295.5 L253,286.5 L257,286.5 L257,262 L258,262 Z" fill="#23B4E8" fill-rule="nonzero"></path>
                        <path id="路径-15备份-9" d="M259,36 L259,52.5 L263,52.5 L258.5,61.5 L254,52.5 L258,52.5 L258,36 L259,36 Z" fill="#45C0C3" fill-rule="nonzero"></path>
                        <path id="路径-15备份-6" d="M248,98 L248,112.5 L252,112.5 L247.5,121.5 L243,112.5 L247,112.5 L247,98 L248,98 Z" fill="#28B8BB" fill-rule="nonzero"></path>
                        <path id="路径-15备份-9" d="M259,98 L259,112.5 L263,112.5 L258.5,121.5 L254,112.5 L258,112.5 L258,98 L259,98 Z" fill="#45C0C3" fill-rule="nonzero"></path>
                        <g id="zhongduanjianshe" transform="translate(236.000000, 298.000000)" fill="#24B5E9" fill-rule="nonzero">
                            <path d="M37.8294265,28.6173722 L29.8033254,28.6173722 L28.7911668,27.3061955 C28.7976428,26.9530589 28.6405996,26.6127156 28.3559418,26.362978 C28.0712839,26.1132404 27.6833513,25.9754623 27.2808364,25.9811439 L23.5247792,25.9811439 C23.1250372,25.9755417 22.7395715,26.1114314 22.4553912,26.3581393 C22.171211,26.6048473 22.0122713,26.9415772 22.0144488,27.2923206 L21.0022903,28.6173722 L18.9779732,28.6173722 L18.9779732,30.573731 L37.9085014,30.573731 C38.5255864,30.5586002 39.0130179,30.1092723 38.9997348,29.5678018 C39.0007134,29.3019357 38.8747166,29.0478642 38.6523278,28.8672579 C38.4299389,28.6866517 38.1314911,28.5960237 37.8294265,28.6173722 L37.8294265,28.6173722 Z M13.6878631,14.0000887 L2.72017616,14.0000887 C2.0009308,13.9946287 1.30896716,14.2414151 0.798141645,14.685667 C0.287316125,15.1299189 0,15.7348115 0,16.3658483 L0,32.6410889 C0.00207748571,33.2709224 0.29034919,33.8740272 0.800944307,34.3167766 C1.31153942,34.7595259 2.00229936,35.0053632 2.72017616,34.9999112 L13.6878631,34.9999112 C14.4057399,35.0053632 15.0964999,34.7595259 15.607095,34.3167766 C16.1176901,33.8740272 16.4059618,33.2709224 16.4080393,32.6410889 L16.4080393,16.3658483 C16.3993292,15.0543741 15.1827367,13.9963345 13.6878631,14.0000887 Z M6.39715846,15.8247278 C6.43027828,15.7784427 6.48553103,15.7478271 6.54740076,15.7414785 L9.86063855,15.7414785 C9.95285959,15.7585398 10.016836,15.8323926 10.0108808,15.9149146 C10.0108808,15.9773515 9.93971344,16.0189762 9.86063855,16.046726 L6.54740076,16.046726 C6.48756211,16.0543328 6.42835649,16.0297284 6.39715846,15.984289 C6.37024758,15.9645171 6.35470062,15.9353035 6.35470062,15.9045084 C6.35470062,15.8737133 6.37024758,15.8444997 6.39715846,15.8247278 L6.39715846,15.8247278 Z M8.20006592,33.6470181 C7.79497562,33.6431965 7.46969947,33.3526683 7.47259572,32.9972607 C7.47549198,32.6418531 7.80546971,32.355435 8.21058088,32.356691 C8.61569206,32.3579554 8.9433464,32.6464193 8.94336984,33.0018359 C8.93909052,33.3565935 8.61233582,33.6432638 8.20797338,33.6470181 L8.20006592,33.6470181 Z M13.6878631,31.4131616 L2.6964537,31.4131616 L2.6964537,17.5868383 L13.6641407,17.5868383 L13.6878631,31.4131616 Z" id="形状"></path>
                            <path d="M38.6211723,0 L12.3788277,0 C11.2235765,-0.00549188156 10.1132171,0.406052406 9.29202408,1.14415013 C8.4708311,1.88224785 8.00607491,2.88643563 8,3.93579618 L8,8.85199544 L16.3289589,8.85199544 C17.1058618,8.84829828 17.8524515,9.12556788 18.4039624,9.62261336 C18.9554733,10.1196588 19.2665683,10.7956203 19.2685914,11.5013192 L19.2685914,21 L38.6211723,21 C39.7764236,21.0054919 40.886783,20.5939476 41.7079759,19.8558499 C42.5291689,19.1177521 42.9939251,18.1135643 43,17.0642038 L43,3.93579618 C42.9939251,2.88643563 42.5291689,1.88224785 41.7079759,1.14415013 C40.8867829,0.406052406 39.7764235,-0.00549188156 38.6211723,0 Z" id="路径"></path>
                        </g>
                        <path d="M521.48563,4 C516.793088,4.00746664 512.994719,7.59249073 513,12.0090071 C513.005292,16.4255234 516.812235,20.0024834 521.504782,20 C526.19733,19.997514 530,16.4165249 530,12 C529.988125,7.58108311 526.180745,4.00371179 521.48563,4 Z" id="路径" fill="#43C0C3" fill-rule="nonzero"></path>
                        <path d="M522.000012,21 C514.276325,21 508.01175,27.2348665 508,34.9336158 C507.998136,35.2157871 508.109271,35.4870477 508.30878,35.6872391 C508.50829,35.8874306 508.779685,36 509.062776,36 L534.937248,36 C535.219107,36 535.489422,35.8883932 535.688727,35.6897318 C535.888032,35.4910704 536,35.2216277 536,34.940678 C535.99218,27.23917 529.726461,21 522.000012,21 Z" id="路径" fill="#43C0C3" fill-rule="nonzero"></path>
                        <path d="M2,122 L133,122 C134.104569,122 135,122.895431 135,124 L135,275 C135,276.104569 134.104569,277 133,277 L2,277 C0.8954305,277 1.3527075e-16,276.104569 0,275 L0,124 C-1.3527075e-16,122.895431 0.8954305,122 2,122 Z" id="矩形备份-37" fill="#E2F2F3"></path>
                        <path d="M505,121 L663,121 C664.104569,121 665,121.895431 665,123 L665,330 C665,331.104569 664.104569,332 663,332 L505,332 C503.895431,332 503,331.104569 503,330 L503,123 C503,121.895431 503.895431,121 505,121 Z" id="矩形备份-41" fill="#E6F4F9"></path>
                        <path d="M174,122 L416,122 C417.104569,122 418,122.895431 418,124 L418,275 C418,276.104569 417.104569,277 416,277 L174,277 C172.895431,277 172,276.104569 172,275 L172,124 C172,122.895431 172.895431,122 174,122 Z" id="矩形备份-38" fill="#E6F4F9"></path>
                        <rect id="矩形备份-34" stroke="#42C0C3" x="17" y="178" width="100" height="36" rx="2"></rect>
                        <rect id="矩形备份-46" stroke="#00AAE7" x="520" y="181" width="128" height="36" rx="2"></rect>
                        <rect id="矩形备份-35" stroke="#00AAE7" x="189" y="178" width="116" height="36" rx="2"></rect>
                        <rect id="矩形备份-35" stroke="#00AAE7" x="318" y="178" width="83" height="82" rx="2"></rect>
                        <rect id="矩形备份-57" stroke="#42C0C3" x="17" y="224" width="100" height="36" rx="2"></rect>
                        <rect id="矩形备份-61" stroke="#00AAE7" x="520" y="229" width="128" height="36" rx="2"></rect>
                        <rect id="矩形备份-60" stroke="#00AAE7" x="189" y="224" width="116" height="36" rx="2"></rect>
                        <rect id="矩形备份-62" stroke="#00AAE7" x="520" y="277" width="128" height="36" rx="2"></rect>
                        <rect id="矩形备份-39" fill="#28B8BB" opacity="0.854399182" x="0" y="122" width="135" height="40"></rect>
                        <rect id="矩形备份-49" fill="#28B8BB" opacity="0.854399182" x="172" y="0" width="161" height="36"></rect>
                        <rect id="矩形备份-73" fill="#28B8BB" opacity="0.854399182" x="172" y="62" width="161" height="36"></rect>
                        <rect id="矩形备份-47" fill="#00AAE7" opacity="0.854399182" x="503" y="121" width="162" height="40"></rect>
                        <rect id="矩形备份-50" fill="#00AAE7" opacity="0.854399182" x="340" y="296" width="112" height="36"></rect>
                        <rect id="矩形备份-40" fill="#00AAE7" opacity="0.854399182" x="172" y="122" width="246" height="40"></rect>
                        <text id="控制中心" font-family="PingFangSC-Medium, PingFang SC" font-size="16" font-weight="400" line-spacing="36" fill="#FFFFFF">
                            <tspan x="35" y="141">控制中心</tspan>
                        </text>
                        <text id="调度系统" font-family="PingFangSC-Medium, PingFang SC" font-size="16" font-weight="400" line-spacing="36" fill="#FFFFFF">
                            <tspan x="552" y="140">调度系统</tspan>
                        </text>
                        <text id="加速网络" font-family="PingFangSC-Medium, PingFang SC" font-size="16" font-weight="400" line-spacing="36" fill="#FFFFFF">
                            <tspan x="263" y="141">加速网络</tspan>
                        </text>
                        <text id="配置中心" font-family="PingFangSC-Regular, PingFang SC" font-size="14" font-weight="normal" line-spacing="30" fill="#28B8BB">
                            <tspan x="39" y="196">配置中心</tspan>
                        </text>
                        <text id="高速专线" font-family="PingFangSC-Regular, PingFang SC" font-size="14" font-weight="normal" line-spacing="30" fill="#28B8BB">
                            <tspan x="267" y="49">高速专线</tspan>
                        </text>
                        <text id="DNS" font-family="PingFangSC-Regular, PingFang SC" font-size="14" font-weight="normal" line-spacing="30" fill="#00AAE7">
                            <tspan x="570" y="199">DNS</tspan>
                        </text>
                        <text id="中间源CDN" font-family="PingFangSC-Regular, PingFang SC" font-size="14" font-weight="normal" line-spacing="30" fill="#00AAE7">
                            <tspan x="210" y="196">中间源CDN</tspan>
                        </text>
                        <text id="资源预热分段缓存" font-family="PingFangSC-Regular, PingFang SC" font-size="14" font-weight="normal" line-spacing="30" fill="#00AAE7">
                            <tspan x="332" y="204">资源预热</tspan>
                            <tspan x="332" y="234">分段缓存</tspan>
                        </text>
                        <text id="开发者" font-family="PingFangSC-Regular, PingFang SC" font-size="14" font-weight="normal" line-spacing="30" fill="#28B8BB">
                            <tspan x="503" y="51">开发者</tspan>
                        </text>
                        <text id="终端用户" font-family="PingFangSC-Regular, PingFang SC" font-size="14" font-weight="normal" line-spacing="30" fill="#00AAE7">
                            <tspan x="230" y="349">终端用户</tspan>
                        </text>
                        <text id="大陆源站/存储" font-family="PingFangSC-Regular, PingFang SC" font-size="14" font-weight="normal" line-spacing="30" fill="#FFFFFF">
                            <tspan x="207" y="18">大陆源站/存储</tspan>
                        </text>
                        <text id="海外镜像源站" font-family="PingFangSC-Regular, PingFang SC" font-size="14" font-weight="normal" line-spacing="30" fill="#FFFFFF">
                            <tspan x="207" y="80">海外镜像源站</tspan>
                        </text>
                        <text id="Local-DNS" font-family="PingFangSC-Regular, PingFang SC" font-size="14" font-weight="normal" line-spacing="30" fill="#FFFFFF">
                            <tspan x="362" y="314">Local DNS</tspan>
                        </text>
                        <text id="监控系统" font-family="PingFangSC-Regular, PingFang SC" font-size="14" font-weight="normal" line-spacing="30" fill="#28B8BB">
                            <tspan x="39" y="242">监控系统</tspan>
                        </text>
                        <text id="HTTP-DNS" font-family="PingFangSC-Regular, PingFang SC" font-size="14" font-weight="normal" line-spacing="30" fill="#00AAE7">
                            <tspan x="549" y="247">HTTP DNS</tspan>
                        </text>
                        <text id="边缘节点CDN" font-family="PingFangSC-Regular, PingFang SC" font-size="14" font-weight="normal" line-spacing="30" fill="#00AAE7">
                            <tspan x="203" y="242">边缘节点CDN</tspan>
                        </text>
                        <text id="基础数据" font-family="PingFangSC-Regular, PingFang SC" font-size="14" font-weight="normal" line-spacing="30" fill="#00AAE7">
                            <tspan x="556" y="295">基础数据</tspan>
                        </text>
                    </g>
                </g>
            </g>
        </g>
    </g>
</svg>