<?xml version="1.0" encoding="UTF-8"?>
<svg width="212px" height="212px" viewBox="0 0 212 212" version="1.1" xmlns="http://www.w3.org/2000/svg" xmlns:xlink="http://www.w3.org/1999/xlink">
    <title>编组 9</title>
    <defs>
        <linearGradient x1="50%" y1="0%" x2="50%" y2="98.8202069%" id="linearGradient-1">
            <stop stop-color="#72D0FF" offset="0%"></stop>
            <stop stop-color="#38B0FF" offset="100%"></stop>
        </linearGradient>
        <linearGradient x1="50%" y1="0%" x2="50%" y2="100%" id="linearGradient-2">
            <stop stop-color="#77DCFD" stop-opacity="0.244208916" offset="0%"></stop>
            <stop stop-color="#427AF9" stop-opacity="0.295399913" offset="100%"></stop>
        </linearGradient>
        <linearGradient x1="50%" y1="0.422475726%" x2="50%" y2="98.8993046%" id="linearGradient-3">
            <stop stop-color="#72D0FF" offset="0%"></stop>
            <stop stop-color="#388AFF" offset="99.9472128%"></stop>
        </linearGradient>
        <linearGradient x1="50%" y1="0.422475726%" x2="50%" y2="98.8993046%" id="linearGradient-4">
            <stop stop-color="#72D0FF" offset="0%"></stop>
            <stop stop-color="#388AFF" offset="99.9472128%"></stop>
        </linearGradient>
        <linearGradient x1="50%" y1="0.422475726%" x2="50%" y2="98.8993046%" id="linearGradient-5">
            <stop stop-color="#72D0FF" offset="0%"></stop>
            <stop stop-color="#388AFF" offset="99.9472128%"></stop>
        </linearGradient>
        <linearGradient x1="50%" y1="0%" x2="50%" y2="100%" id="linearGradient-6">
            <stop stop-color="#77DCFD" stop-opacity="0.244208916" offset="0%"></stop>
            <stop stop-color="#427AF9" stop-opacity="0.295399913" offset="100%"></stop>
        </linearGradient>
        <linearGradient x1="50%" y1="0%" x2="50%" y2="100%" id="linearGradient-7">
            <stop stop-color="#77DCFD" stop-opacity="0.244208916" offset="0%"></stop>
            <stop stop-color="#427AF9" stop-opacity="0.295399913" offset="100%"></stop>
        </linearGradient>
    </defs>
    <g id="产品" stroke="none" stroke-width="1" fill="none" fill-rule="evenodd">
        <g id="基础服务-证书02✅" transform="translate(-370.000000, -5040.000000)">
            <g id="编组-9" transform="translate(370.000000, 5040.000000)">
                <g id="成功" transform="translate(20.000000, 170.388601)">
                    <rect id="矩形" fill="#000000" fill-rule="nonzero" opacity="0" x="0" y="0" width="40.642487" height="40.642487"></rect>
                    <path d="M20.3212435,0 C9.09812237,0 0,9.09812237 0,20.3212435 C0,31.5443647 9.09812237,40.642487 20.3212435,40.642487 C31.5443647,40.642487 40.642487,31.5443647 40.642487,20.3212435 C40.642487,9.09812237 31.5443647,0 20.3212435,0 Z M31.4349792,15.494075 L18.1883068,28.7406681 C17.8783284,29.0506465 17.3756952,29.0506465 17.0657168,28.7406681 L9.20750781,20.8824591 C8.89752947,20.5725602 8.89752947,20.0699269 9.20750781,19.7599486 L11.6772533,17.2902824 C11.9872317,16.9802247 12.4898649,16.9803041 12.7998433,17.2902824 L17.6270912,22.1173716 L27.8428025,11.9017396 C28.1527809,11.5917612 28.6553348,11.5917612 28.9653925,11.9017396 L31.4350586,14.3714851 C31.7449576,14.6814634 31.745037,15.1840967 31.4349792,15.494075 Z" id="形状" fill="url(#linearGradient-1)"></path>
                </g>
                <g id="钱包">
                    <rect id="矩形" fill="#000000" fill-rule="nonzero" opacity="0" x="0" y="0" width="93.3678756" height="93.3678756"></rect>
                    <polygon id="路径" fill="url(#linearGradient-2)" points="14.2797927 20.3728705 59.7984995 0 70.3005181 20.3728705 31.7844021 37.3471503"></polygon>
                    <path d="M86.7772021,37.3471503 L71.6855148,37.3471503 C69.6842326,37.3471503 67.7649177,38.1341058 66.3497975,39.5348957 C64.9346773,40.9356855 64.1396711,42.8355643 64.1396711,44.8165803 L64.1396711,67.2248705 C64.1396711,71.3501228 67.5180604,74.6943005 71.6855148,74.6943005 L86.7772021,74.6943005 L86.7772021,85.8984456 C86.7772021,90.0236979 83.3988128,93.3678756 79.2313584,93.3678756 L7.54584366,93.3678756 C3.37838928,93.3678756 0,90.0236979 0,85.8984456 L0,26.1430052 C0,22.0177529 3.37838928,18.6735751 7.54584366,18.6735751 L79.2313584,18.6735751 C81.2326406,18.6735751 83.1519554,19.4605307 84.5670756,20.8613205 C85.9821958,22.2621104 86.7772021,24.1619892 86.7772021,26.1430052 L86.7772021,37.3471503 Z" id="路径" fill="url(#linearGradient-3)"></path>
                    <path d="M71.7128053,40.642487 L89.7586973,40.642487 C91.7519914,40.642487 93.3678756,42.3022811 93.3678756,44.3497409 L93.3678756,66.5932642 C93.3678756,68.640724 91.7519914,70.3005181 89.7586973,70.3005181 L71.7128053,70.3005181 C69.7195111,70.3005181 68.1036269,68.640724 68.1036269,66.5932642 L68.1036269,44.3497409 C68.1036269,42.3022811 69.7195111,40.642487 71.7128053,40.642487 Z M78.9311621,59.1787565 C80.2205974,59.1787565 81.4120847,58.4721579 82.0568024,57.3251296 C82.7015201,56.1781012 82.7015201,54.764904 82.0568024,53.6178756 C81.4120847,52.4708472 80.2205974,51.7642487 78.9311621,51.7642487 C76.937868,51.7642487 75.3219839,53.4240429 75.3219839,55.4715026 C75.3219839,57.5189623 76.937868,59.1787565 78.9311621,59.1787565 Z" id="形状" fill="url(#linearGradient-4)"></path>
                </g>
                <g id="编组-7" transform="translate(128.000000, 34.000000)">
                    <rect id="矩形" fill="url(#linearGradient-5)" x="0.792746114" y="0.751295337" width="83" height="169" rx="5"></rect>
                    <rect id="矩形" fill="#FFFFFF" fill-rule="nonzero" x="35.7927461" y="6.75129534" width="10" height="2" rx="1"></rect>
                    <circle id="椭圆形" fill="#FFFFFF" fill-rule="nonzero" cx="47.7927461" cy="7.75129534" r="1"></circle>
                    <path d="M78.7927461,13.3068375 L78.7927461,159.198145 C78.7914136,162.817737 75.8301307,165.751295 72.1776641,165.751295 L12.4078281,165.751295 C8.75536148,165.751295 5.79407864,162.817737 5.79274611,159.198145 L5.79274611,13.3068375 C5.79274611,9.68631155 8.7544192,6.75129534 12.4078281,6.75129534 L21.3518244,6.75129534 L21.3518244,7.88972587 C21.3571473,10.8675978 23.7939067,13.2792151 26.7988292,13.2805293 L57.2074512,13.2805293 C58.6520867,13.2805293 60.0375537,12.7118153 61.0590652,11.699498 C62.0805768,10.6871807 62.654456,9.31418376 62.654456,7.88255088 L62.654456,6.75129534 L72.189731,6.75129534 C75.8384266,6.75789122 78.7927461,9.69097642 78.7927461,13.3068375 L78.7927461,13.3068375 Z" id="路径" fill="#FFFFFF" fill-rule="nonzero"></path>
                    <path d="M79.7927461,72.360744 L79.7927461,121.649143 L78.0933641,121.701678 L78.0933641,121.751295 L5.79274611,121.751295 L5.79274611,61.8747104 C6.25645677,61.3517571 6.72654145,60.8091142 7.20300017,60.2467818 C17.3568293,48.2605962 31.158197,45.1063368 41.8402739,44.7755531 C49.1592534,44.539279 56.4447692,46.0348941 63.400429,49.0048597 C67.0742604,50.5737197 73.5409355,52.2937953 79.2871232,52.4639126 L79.2871232,70.9925283 C79.6384915,71.9825168 79.7927461,72.360744 79.7927461,72.360744 Z" id="路径" fill="url(#linearGradient-6)"></path>
                    <path d="M78.7927461,74.4114388 L78.7927461,121.751295 L5.79274611,121.751295 L5.79274611,90.7406426 C8.39261482,90.1175996 12.0228462,87.7212804 16.6810442,81.1005927 C22.2521914,73.1790461 29.821763,71.0953895 35.6804533,70.8762974 C39.6940755,70.7256717 43.6909244,71.7070214 47.5056626,73.6720032 C51.7972431,75.8788991 60.0688991,78.5399545 66.3541116,70.8146778 C73.3030694,62.2723704 76.997998,69.3175489 78.2727724,72.7705307 C78.6250126,73.7267762 78.7927461,74.4114388 78.7927461,74.4114388 Z" id="路径" fill="url(#linearGradient-7)"></path>
                </g>
                <line x1="40.6774611" y1="93.5" x2="40.5919689" y2="171.487047" id="路径-9" stroke-opacity="0.851316652" stroke="#52A6FF" stroke-dasharray="2"></line>
                <line x1="61.5" y1="191.5" x2="128.207254" y2="191.259067" id="路径-10" stroke-opacity="0.851316652" stroke="#52A6FF" stroke-dasharray="2"></line>
                <g id="编组-8" transform="translate(96.000000, 51.000000)" stroke="#53ABFF" stroke-linecap="round" stroke-width="1.5">
                    <polyline id="路径-11" transform="translate(6.590674, 6.590674) scale(-1, 1) rotate(45.000000) translate(-6.590674, -6.590674) " points="2.19689119 2.19689119 2.19689119 10.984456 10.984456 10.984456"></polyline>
                    <polyline id="路径-11备份" transform="translate(12.992884, 6.590674) scale(-1, 1) rotate(45.000000) translate(-12.992884, -6.590674) " points="8.5991013 2.19689119 8.5991013 10.984456 17.3866661 10.984456"></polyline>
                    <polyline id="路径-11备份-2" transform="translate(19.583557, 6.590674) scale(-1, 1) rotate(45.000000) translate(-19.583557, -6.590674) " points="15.1897749 2.19689119 15.1897749 10.984456 23.9773396 10.984456"></polyline>
                </g>
            </g>
        </g>
    </g>
</svg>