<?xml version="1.0" encoding="UTF-8"?>
<svg width="212px" height="212px" viewBox="0 0 212 212" version="1.1" xmlns="http://www.w3.org/2000/svg" xmlns:xlink="http://www.w3.org/1999/xlink">
    <title>编组 12</title>
    <defs>
        <linearGradient x1="50%" y1="0%" x2="50%" y2="100%" id="linearGradient-1">
            <stop stop-color="#77DCFD" stop-opacity="0.244208916" offset="0%"></stop>
            <stop stop-color="#427AF9" stop-opacity="0.295399913" offset="100%"></stop>
        </linearGradient>
        <linearGradient x1="4.11166301%" y1="46.6856336%" x2="97.2086592%" y2="52.2158275%" id="linearGradient-2">
            <stop stop-color="#72D0FF" offset="0%"></stop>
            <stop stop-color="#4EC2F7" offset="100%"></stop>
        </linearGradient>
        <linearGradient x1="50%" y1="0.422475726%" x2="50%" y2="98.8993046%" id="linearGradient-3">
            <stop stop-color="#72D0FF" offset="0%"></stop>
            <stop stop-color="#388AFF" offset="99.9472128%"></stop>
        </linearGradient>
    </defs>
    <g id="产品" stroke="none" stroke-width="1" fill="none" fill-rule="evenodd">
        <g id="基础服务-证书02✅" transform="translate(-370.000000, -4492.000000)">
            <g id="编组-12" transform="translate(370.000000, 4492.000000)">
                <rect id="矩形" fill="url(#linearGradient-1)" opacity="0.6" x="0" y="0" width="192" height="146" rx="6"></rect>
                <rect id="矩形" fill="url(#linearGradient-2)" x="12" y="18" width="104.869333" height="27" rx="2"></rect>
                <rect id="矩形备份-3" fill="#479CFF" opacity="0.747698103" x="12" y="53" width="46.1924444" height="22.472" rx="2"></rect>
                <rect id="矩形备份-4" fill="#55ADFF" opacity="0.776436942" x="62.9235556" y="52.8013333" width="29.9626667" height="22.472" rx="2"></rect>
                <rect id="矩形备份-5" fill="#6AC7FF" opacity="0.761672247" x="97.88" y="52.8013333" width="34.9564444" height="22.472" rx="2"></rect>
                <rect id="矩形" fill="#FFFFFF" x="12" y="107" width="43.6955556" height="5" rx="1"></rect>
                <rect id="矩形备份-6" fill="#FFFFFF" x="12" y="92" width="93.6333333" height="5" rx="1"></rect>
                <rect id="矩形备份-2" fill="#FFFFFF" x="12" y="122" width="118.602222" height="5" rx="1"></rect>
                <rect id="矩形" fill="url(#linearGradient-3)" x="77" y="108" width="135" height="104" rx="4"></rect>
                <g id="cas-SSL服务" transform="translate(115.000000, 130.000000)" fill-rule="nonzero">
                    <rect id="矩形" fill="#000000" opacity="0" x="0" y="0" width="59.9253333" height="59.9253333"></rect>
                    <path d="M30.7110806,5.41635412 L30.5308512,5.38654682 L30.5308512,5.41635412 L8.75313858,11.139356 L10.014744,34.001556 C10.014744,34.1505925 10.014744,37.0419007 10.945929,38.7707242 C15.631892,47.5042634 26.7159967,52.809963 30.2905454,54.38975 C30.2905454,54.38975 30.4106983,54.4493646 30.500813,54.4791719 L30.500813,54.5387865 C30.5308512,54.5387865 30.5608895,54.5089792 30.5909277,54.5089792 C30.6209659,54.5089792 30.6810424,54.5387865 30.6810424,54.5387865 L30.6810424,54.4791719 C30.771157,54.4493646 30.8312335,54.38975 30.8612717,54.38975 C34.4057822,52.809963 45.5199252,47.5042634 50.2058882,38.7707242 C51.1370731,37.0419007 51.2271878,34.1505925 51.2271878,34.001556 L52.5188315,11.139356 L30.7110806,5.41635412 Z M17.7045294,41.1851156 L17.7045294,14.5671956 L42.6662939,14.5671956 L42.6662939,26.579538 C41.8853,26.1324285 41.0442298,25.8045481 40.1731213,25.595897 L40.1731213,16.8921651 L20.0475109,16.8921651 L20.0475109,38.7111096 L30.1703925,38.7111096 C30.6810424,39.6649432 31.3719215,40.4995476 32.2129918,41.1851156 L17.7045294,41.1851156 Z M29.0589782,34.8361604 L23.4718685,34.8361604 L23.4718685,32.5111909 L29.2392076,32.5111909 C29.1190547,33.1073369 29.0589782,33.7332903 29.0589782,34.3592436 C29.02894,34.5380874 29.02894,34.6871239 29.0589782,34.8361604 Z M23.4718685,28.4872053 L23.4718685,26.1622358 L34.3457057,26.1622358 C33.1441768,26.6987672 32.0928389,27.5035643 31.2517686,28.4872053 L23.4718685,28.4872053 Z M23.4718685,22.1382501 L23.4718685,19.8132806 L37.3495282,19.8132806 L37.3495282,22.1382501 L23.4718685,22.1382501 Z M38.1905984,42.2879857 C33.8350559,42.2879857 30.2905454,38.7707242 30.2905454,34.4486655 C30.2905454,30.1266068 33.8350559,26.6093453 38.1905984,26.6093453 C42.546141,26.6093453 46.0906514,30.1266068 46.0906514,34.4486655 C46.0906514,38.7707242 42.546141,42.2879857 38.1905984,42.2879857 L38.1905984,42.2879857 Z M38.1905984,28.6958564 C35.0065467,28.6958564 32.4232594,31.2592843 32.4232594,34.4188582 C32.4232594,37.5784321 35.0065467,40.14186 38.1905984,40.14186 C41.3746502,40.14186 43.9579375,37.5784321 43.9579375,34.4188582 C43.9579375,31.2592843 41.3746502,28.6958564 38.1905984,28.6958564 Z M40.8940386,37.5188175 L39.7525861,37.0419007 L39.2719745,38.1745782 L38.2206367,35.7005722 L37.199337,38.1745782 L36.7187255,37.0419007 L35.5772729,37.5188175 L36.5384961,35.2236553 L35.2468525,33.1073369 L36.7487637,30.6333309 L39.7525861,30.6333309 L41.2544973,33.1073369 L39.9328155,35.2832699 L40.8940386,37.5188175 L40.8940386,37.5188175 Z" id="形状" fill="#FFFFFF"></path>
                </g>
                <line x1="71.172" y1="182.664444" x2="27.4764444" y2="182.664444" id="路径-8" stroke-opacity="0.851316652" stroke="#52A6FF" stroke-dasharray="16,12"></line>
                <line x1="175" y1="87" x2="208.708" y2="87" id="路径-7" stroke-opacity="0.851316652" stroke="#52A6FF" stroke-dasharray="16,12"></line>
            </g>
        </g>
    </g>
</svg>