<?xml version="1.0" encoding="UTF-8"?>
<svg width="201px" height="201px" viewBox="0 0 201 201" version="1.1" xmlns="http://www.w3.org/2000/svg" xmlns:xlink="http://www.w3.org/1999/xlink">
    <title>编组 37</title>
    <defs>
        <linearGradient x1="50%" y1="0%" x2="50%" y2="98.8202069%" id="linearGradient-1">
            <stop stop-color="#72D0FF" offset="0%"></stop>
            <stop stop-color="#38B0FF" offset="100%"></stop>
        </linearGradient>
        <linearGradient x1="50%" y1="0.422475726%" x2="50%" y2="98.8993046%" id="linearGradient-2">
            <stop stop-color="#F9FDFF" offset="0%"></stop>
            <stop stop-color="#F3F8FF" offset="99.9472128%"></stop>
        </linearGradient>
        <linearGradient x1="50%" y1="0%" x2="50%" y2="98.8202069%" id="linearGradient-3">
            <stop stop-color="#72D0FF" offset="0%"></stop>
            <stop stop-color="#38B0FF" offset="100%"></stop>
        </linearGradient>
        <linearGradient x1="50%" y1="0%" x2="50%" y2="98.8202069%" id="linearGradient-4">
            <stop stop-color="#72D0FF" offset="0%"></stop>
            <stop stop-color="#38B0FF" offset="100%"></stop>
        </linearGradient>
    </defs>
    <g id="产品" stroke="none" stroke-width="1" fill="none" fill-rule="evenodd">
        <g id="基础服务-证书02✅" transform="translate(-372.000000, -5594.000000)">
            <g id="编组-37" transform="translate(372.000000, 5594.000000)">
                <rect id="矩形" fill="#D8D8D8" opacity="0" x="0" y="0" width="200" height="200"></rect>
                <g id="编组-36">
                    <g id="编组-35">
                        <path d="M4,0 L196,0 C198.209139,-1.61026889e-14 200,1.790861 200,4 L200,45.0566038 C200,47.2657428 198.209139,49.0566038 196,49.0566038 L4,49.0566038 C1.790861,49.0566038 2.705415e-16,47.2657428 0,45.0566038 L0,4 C-2.705415e-16,1.790861 1.790861,4.05812251e-16 4,0 Z" id="矩形" fill="url(#linearGradient-1)"></path>
                        <rect id="矩形" fill="url(#linearGradient-2)" opacity="0.619047619" x="27.3584906" y="12.5" width="16.9811321" height="24.5283019"></rect>
                        <rect id="矩形" fill="#FFFFFF" x="51.4656334" y="12.5" width="90.1785714" height="6.25" rx="2"></rect>
                        <rect id="矩形备份-8" fill="#FFFFFF" x="51.4656334" y="25" width="121.698113" height="12.5" rx="2"></rect>
                    </g>
                    <g id="编组-10" transform="translate(50.892857, 59.922507)" fill="url(#linearGradient-3)">
                        <circle id="椭圆形" cx="3.57142857" cy="3.57142857" r="3.57142857"></circle>
                        <circle id="椭圆形备份-7" transform="translate(78.571429, 3.571429) scale(-1, 1) translate(-78.571429, -3.571429) " cx="78.5714286" cy="3.57142857" r="3.57142857"></circle>
                        <circle id="椭圆形备份-5" cx="19.6428571" cy="3.57142857" r="3.57142857"></circle>
                        <circle id="椭圆形备份-8" transform="translate(94.642857, 3.571429) scale(-1, 1) translate(-94.642857, -3.571429) " cx="94.6428571" cy="3.57142857" r="3.57142857"></circle>
                        <circle id="椭圆形备份-6" cx="49.1071429" cy="3.57142857" r="3.57142857"></circle>
                    </g>
                    <g id="编组-11" transform="translate(1.886792, 179.245283)">
                        <rect id="矩形" fill="#479CFF" opacity="0.747698103" x="0" y="0" width="20.754717" height="20.754717" rx="2"></rect>
                        <rect id="矩形备份-10" fill="#479CFF" opacity="0.747698103" transform="translate(187.735849, 10.377358) scale(-1, 1) translate(-187.735849, -10.377358) " x="177.358491" y="0" width="20.754717" height="20.754717" rx="2"></rect>
                        <rect id="矩形备份-9" fill="#6AC7FF" opacity="0.761672247" x="31.1320755" y="3.77358491" width="16.9811321" height="16.9811321" rx="2"></rect>
                        <rect id="矩形备份-11" fill="#6AC7FF" opacity="0.761672247" transform="translate(157.547170, 12.264151) scale(-1, 1) translate(-157.547170, -12.264151) " x="149.056604" y="3.77358491" width="16.9811321" height="16.9811321" rx="2"></rect>
                        <rect id="矩形备份-12" fill="url(#linearGradient-4)" x="75.4716981" y="2.83018868" width="44.6428571" height="17.8571429" rx="2"></rect>
                    </g>
                    <g id="编组-13" transform="translate(12.264151, 66.981132)" stroke-linecap="round">
                        <polyline id="路径-14" stroke="#75B5FF" stroke-linejoin="round" points="43.0013164 0 43.0013164 23.4501348 75.4716981 23.4501348 75.4716981 65.1392633 0 65.1392633 0 112.264151"></polyline>
                        <polyline id="路径-14备份" stroke="#75B5FF" stroke-linejoin="round" transform="translate(138.679245, 56.132075) scale(-1, 1) translate(-138.679245, -56.132075) " points="143.944713 0 143.944713 23.4501348 176.415094 23.4501348 176.415094 65.1392633 100.943396 65.1392633 100.943396 112.264151"></polyline>
                        <polyline id="路径-15" stroke="#8ED5FF" stroke-linejoin="round" points="58.7943716 0 58.7943716 11.6745283 82.0754717 11.6745283 82.0754717 76.5330189 29.245283 76.5330189 29.245283 116.037736"></polyline>
                        <polyline id="路径-15备份" stroke="#8ED5FF" stroke-linejoin="round" transform="translate(120.754717, 58.018868) scale(-1, 1) translate(-120.754717, -58.018868) " points="123.888711 0 123.888711 11.6745283 147.169811 11.6745283 147.169811 76.5330189 94.3396226 76.5330189 94.3396226 116.037736"></polyline>
                        <line x1="88.2075472" y1="0" x2="88.6792453" y2="115.09434" id="路径-16" stroke="#55C0FF"></line>
                    </g>
                </g>
            </g>
        </g>
    </g>
</svg>