<svg xmlns="http://www.w3.org/2000/svg" width="25" height="24" viewBox="0 0 25 24">
  <g fill="none" fill-rule="evenodd">
    <rect width="24" height="24"/>
    <path fill="currentColor" fill-rule="nonzero" d="M12.0240075,0 C15.9961074,0.00954278249 19.5605487,2.3578746 21.1522892,5.93867114 L21.1522892,5.93867114 L21.1800122,6.004 L21.3807547,6.02099079 C22.812102,6.19058606 23.9345625,7.3679054 24.0189148,8.82372721 L24.0189148,8.82372721 L24.0240075,9 C24.0240075,10.3609874 23.1177267,11.5103016 21.8757357,11.8773722 L21.8757357,11.8773722 L21.8390122,11.887 L21.7750493,12.1941836 C20.774058,16.6078669 16.8931345,19.8448252 12.3005124,19.9701163 L12.3005124,19.9701163 L12.0240075,19.9738843 C7.21704193,19.9738843 3.1335062,16.563704 2.21529734,11.9225043 L2.21529734,11.9225043 L2.2100122,11.893 L2.09288742,11.8598102 C1.37288339,11.6313003 0.755016021,11.1354862 0.37884837,10.4594379 L0.37884837,10.4594379 L0.289922634,10.2867214 C-0.212450129,9.22849735 -0.0529286684,7.97465866 0.69841886,7.07594104 C1.22878182,6.44155212 1.98554766,6.06602855 2.78244461,6.00795101 L2.78244461,6.00795101 L2.8670122,6.004 L2.89572573,5.93867114 C4.44864331,2.44521111 7.87920586,0.124828728 11.7341163,0.013717547 L11.7341163,0.013717547 L11.7561854,0.0119143646 C11.7826804,0.00954938712 11.8092553,0.00753221097 11.8359045,0.00586667177 L12.0240075,0 Z M12.0240075,2.00954278 L11.8740993,2.0112542 C11.5163,2.06537388 11.2106698,2.31059421 11.0842311,2.65796821 C10.9404375,3.05302257 11.0590887,3.49582865 11.3811466,3.76605678 C11.6709987,4.0092621 12.0698979,4.06593287 12.4121899,3.92158205 L12.5239635,3.866 L13.5240515,5.598 C12.4318264,6.22867044 11.0617745,6.10885476 10.0956008,5.29817036 C9.29230997,4.62415562 8.91083394,3.59225733 9.05296275,2.582356 C6.9426555,3.42778157 5.24171143,5.15585509 4.46939731,7.39594181 L4.46939731,7.39594181 L4.16457166,8.28008452 L3.26202205,8.03507183 C2.88518838,7.93277381 2.48327987,8.05917024 2.2328307,8.35874278 C1.98238152,8.65831533 1.9292077,9.07626155 2.09666529,9.42900289 C2.26412287,9.78174424 2.62157795,10.0047518 3.02400748,10 L2.999,9.998 L3.96920917,9.9483907 L4.07556303,10.8806538 C4.53659099,14.9218739 7.95657509,17.9738843 12.0240075,17.9738843 C16.0914399,17.9738843 19.511424,14.9218739 19.9724519,10.8806538 L19.9724519,10.8806538 L20.0846132,9.89748475 L21.0530122,9.997 L21.1406286,9.99327227 C21.5997105,9.93995063 21.9639581,9.57570299 22.0172797,9.11662113 L22.0172797,9.11662113 L22.0240075,9 C22.0240075,8.44771525 21.5762922,8 21.0353261,7.99993594 C20.9516514,8.00088309 20.8684417,8.01253244 20.7877239,8.03460025 L20.7877239,8.03460025 L19.8839919,8.28167564 L19.5786176,7.39594181 C18.4673435,4.17270592 15.4334326,2.00954278 12.0240075,2.00954278 L12.0240075,2.00954278 Z M15.0240075,13 C15.0240075,14.6568542 13.6808617,16 12.0240075,16 C10.3671532,16 9.02400748,14.6568542 9.02400748,13 L9.02400748,13 Z M8.52400748,7 C9.3524346,7 10.0240075,7.67157288 10.0240075,8.5 C10.0240075,9.32842712 9.3524346,10 8.52400748,10 C7.69558035,10 7.02400748,9.32842712 7.02400748,8.5 C7.02400748,7.67157288 7.69558035,7 8.52400748,7 Z M15.5240075,7 C16.3524346,7 17.0240075,7.67157288 17.0240075,8.5 C17.0240075,9.32842712 16.3524346,10 15.5240075,10 C14.6955804,10 14.0240075,9.32842712 14.0240075,8.5 C14.0240075,7.67157288 14.6955804,7 15.5240075,7 Z" transform="translate(0 2)"/>
  </g>
</svg>
