<svg xmlns="http://www.w3.org/2000/svg" width="24" height="24" viewBox="0 0 24 24">
  <path fill="currentColor" d="M6,2 L6,4 L3,4 C2.48716416,4 2.06449284,4.38604019 2.00672773,4.88337887 L2,5 L2,21 C2,21.5128358 2.38604019,21.9355072 2.88337887,21.9932723 L3,22 L14,22 C14.5128358,22 14.9355072,21.6139598 14.9932723,21.1166211 L15,21 L15,13 L17,13 L17,21 C17,22.5976809 15.75108,23.9036609 14.1762728,23.9949073 L14,24 L3,24 C1.40231912,24 0.0963391206,22.75108 0.00509269341,21.1762728 L0,21 L0,5 C0,3.40231912 1.24891996,2.09633912 2.82372721,2.00509269 L3,2 L6,2 Z M20,0 C21.5976809,0 22.9036609,1.24891996 22.9949073,2.82372721 L23,3 L23,9 C23,10.5976809 21.75108,11.9036609 20.1762728,11.9949073 L20,12 L12.235,12 L7,14.618034 L7,3 C7,1.40231912 8.24891996,0.0963391206 9.82372721,0.00509269341 L10,0 L20,0 Z M20,2 L10,2 C9.48716416,2 9.06449284,2.38604019 9.00672773,2.88337887 L9,3 L9,11.381 L11.763932,10 L20,10 C20.5128358,10 20.9355072,9.61395981 20.9932723,9.11662113 L21,9 L21,3 C21,2.44771525 20.5522847,2 20,2 Z" transform="translate(1)"/>
</svg>
