<svg xmlns="http://www.w3.org/2000/svg" width="24" height="24" viewBox="0 0 24 24">
  <path fill="currentColor" d="M19,0 L19,3 L24,3 L24,24 L0,24 L0,3 L5,3 L5,0 L19,0 Z M5,5 L2,5 L2,22 L7.236,22 L9.909,12.198 L8.153,9.766 L5,11.8685171 L5,5 Z M19,11.8685171 L15.846,9.766 L14.09,12.198 L16.763,22 L22,22 L22,5 L19,5 L19,11.8685171 Z M12.236,13 L11.763,13 L9.308,22 L14.691,22 L12.236,13 Z M12,7.202 L9.818,8.656 L11.511,11 L12.488,11 L14.181,8.656 L12,7.202 Z M17,3.135 L13.669,5.91 L17,8.131 L17,3.135 Z M7,8.13 L10.33,5.91 L7,3.136 L7,8.13 Z M15.237,2 L8.762,2 L12,4.697 L15.237,2 Z"/>
</svg>
