<svg xmlns="http://www.w3.org/2000/svg" width="24" height="24" viewBox="0 0 24 24">
  <path fill="currentColor" d="M5.99303829,5.99956242 C5.99303829,2.46594568 9.03050712,-0.311060194 12.5789919,0.0280807257 C15.6624625,0.322196383 17.9930383,3.05403207 17.9930383,6.21456242 L17.9930383,6.21456242 L17.9930383,7.99956242 C17.9930383,9.89410496 17.1042484,11.6403688 15.6217792,12.7679847 C15.1645278,13.1151857 15.0743273,13.5270317 15.2993266,14.3477075 C15.4378535,14.8520587 15.7481178,15.134939 16.324088,15.2745551 L16.324088,15.2745551 L21.7319414,16.6445223 C23.0623478,16.9834984 23.9895372,18.1770355 23.9880418,19.5517289 L23.9880418,19.5517289 L23.9844876,22.9975624 L0.00303829255,22.9975624 L7.09306278e-06,19.5507405 C-0.00295724402,18.176586 0.923500587,16.9824292 2.25480215,16.6436072 L2.25480215,16.6436072 L7.59813886,15.2893934 L7.81630375,15.2312078 C8.29444357,15.0806459 8.56181742,14.8057188 8.68762696,14.347156 C8.91274931,13.5260317 8.82254875,13.1141857 8.36537583,12.7670443 L8.36537583,12.7670443 L8.15759563,12.6020435 C6.79973912,11.4745694 5.99303829,9.80450983 5.99303829,7.99956242 L5.99303829,7.99956242 Z M12.3888984,2.01902633 C10.0172868,1.79236325 7.99303829,3.64303241 7.99303829,5.99956242 L7.99303829,5.99956242 L7.99303829,7.99956242 C7.99303829,9.26158115 8.58393968,10.4219278 9.57477925,11.1741402 L9.57477925,11.1741402 L9.73837892,11.3054768 C10.7879521,12.1970939 11.0187895,13.4084511 10.6164023,14.8761416 C10.2788124,16.1066223 9.39562118,16.91149 8.1378207,17.2163683 L8.1378207,17.2163683 L2.7486803,18.5816691 C2.30458324,18.6946938 1.99903381,19.0885314 2.00001879,19.5453902 L2.00001879,19.5453902 L2.00203344,20.997 L21.9850334,20.997 L21.9880425,19.5474709 C21.9885391,19.0903306 21.6819628,18.6956861 21.2378022,18.5825177 L21.2378022,18.5825177 L15.8494696,17.2174201 C14.5920011,16.9126222 13.7084986,16.1070977 13.370627,14.8769689 C12.9481677,13.3360666 13.2237913,12.077599 14.4116353,11.1756433 L14.4116353,11.1756433 L14.5926447,11.0296643 C15.4737975,10.2766543 15.9930383,9.18253226 15.9930383,7.99956242 L15.9930383,7.99956242 L15.9930383,6.21456242 C15.9930383,4.05876915 14.4180168,2.21257303 12.3888984,2.01902633 Z"/>
</svg>
