<svg xmlns="http://www.w3.org/2000/svg" width="24" height="24" viewBox="0 0 24 24">
  <path fill="currentColor" d="M11.9930383,0 C15.3067101,0 17.9930383,2.68410165 17.9930383,5.997 L17.9930383,5.997 L17.9971808,6.30613838 C18.0608531,8.66254481 18.8620832,10.7022079 20.6458663,12.2394938 L20.6458663,12.2394938 L21.5166748,12.9899672 L20.6528314,13.7484473 C19.281255,14.9527322 17.8807228,15.5549563 15.6962748,15.8204343 L15.6962748,15.8204343 L15.5040334,15.841 L15.5728972,15.9155742 C15.7108263,16.0465213 15.9045287,16.1502207 16.1602565,16.2284138 L16.1602565,16.2284138 L16.3211863,16.2722829 L21.7319414,17.6429598 C23.0630064,17.9821038 23.9900329,19.1764297 23.9870668,20.5511722 L23.9870668,20.5511722 L23.9834872,23.997 L0.00102723772,23.997 L7.09306278e-06,20.5501781 C-0.00295724402,19.1760236 0.923500587,17.9818668 2.25480215,17.6430447 L2.25480215,17.6430447 L7.82725514,16.2283091 C8.08276453,16.1501733 8.27635344,16.0465276 8.41419964,15.9157574 L8.41419964,15.9157574 L8.48303344,15.841 L8.29171366,15.8205368 C6.21482091,15.5682625 4.8469306,15.0121827 3.53930601,13.924618 L3.53930601,13.924618 L3.33324521,13.7484473 L2.46940182,12.9899672 L3.34021027,12.2394938 C5.20154917,10.6353693 5.99303829,8.48423313 5.99303829,5.997 L5.99303829,5.997 L5.99717682,5.77211907 C6.11546816,2.56348345 8.75467722,0 11.9930383,0 Z M11.9930383,2 C9.78356492,2 7.99303829,3.78904256 7.99303829,5.997 L7.99303829,5.997 L7.98848137,6.34901961 C7.92453571,8.80274139 7.18447692,11.0345782 5.57158801,12.8454901 L5.57158801,12.8454901 L5.52203344,12.898 L5.73967785,13.0275414 C6.54705646,13.480109 7.47822925,13.7303146 8.82159046,13.8676372 L8.82159046,13.8676372 L9.14098011,13.8975293 C10.0811762,13.9767306 10.8030743,14.8242472 10.6371786,15.7827514 C10.4131011,17.0680264 9.46550324,17.8939888 8.1378207,18.2158059 L8.1378207,18.2158059 L2.7486803,19.5811067 C2.30458324,19.6941314 1.99903381,20.087969 2.00002515,20.5465822 L2.00002515,20.5465822 L2.00103344,21.997 L21.9840334,21.997 L21.9870528,20.5458219 C21.9880417,20.0884739 21.6819469,19.6941196 21.2378022,19.5809553 L21.2378022,19.5809553 L15.6430122,18.1608536 C14.4238301,17.805771 13.5621751,17.0003407 13.3497668,15.7819975 C13.1838243,14.8258522 13.9048377,13.9793743 14.8448651,13.8976338 C16.4804262,13.7578197 17.5303752,13.4752828 18.4458653,12.910114 L18.4458653,12.910114 L18.4630334,12.898 L18.4144886,12.8454901 C16.7951993,11.0273921 16.0556811,8.78502177 15.9968659,6.31979817 L15.9968659,6.31979817 L15.9930383,5.997 C15.9930383,3.78904256 14.2025117,2 11.9930383,2 Z"/>
</svg>
