<svg xmlns="http://www.w3.org/2000/svg" width="24" height="24" viewBox="0 0 24 24">
  <g fill="none" fill-rule="evenodd" stroke="currentColor" stroke-width="2" transform="translate(2 1)">
    <line x1="12" x2="15" y1="18" y2="18" stroke-linecap="square"/>
    <path d="M6.796 12.907L.971 16.417C.369 16.779 0 17.43 0 18.132L0 22 20 22 20 18.132C20 17.429 19.631 16.778 19.029 16.417L13.204 12.907M15.999 6.106C14.039 6.106 12.256 5.298 10.985 4 9.714 5.298 7.945 6.106 5.985 6.106 5.295 6.106 4.633 5.982 4.003 5.796"/>
    <path stroke-linecap="square" d="M4,6 C4,2.686 6.686,0 10,0 C13.314,0 16,2.686 16,6 C16,11 13.314,14 10,14 C6.686,14 4,11 4,6 Z"/>
    <path d="M4 6C4 6 4 10 0 13 .844 15.057 2.751 15.345 2.751 15.345M15.938 6C15.938 6 15.938 10 19.938 13 19.094 15.057 17.187 15.345 17.187 15.345"/>
  </g>
</svg>
