<svg xmlns="http://www.w3.org/2000/svg" width="22" height="24" viewBox="0 0 22 24">
  <path fill="currentColor" d="M11,0 C12.5912989,0 14.1174224,0.632141042 15.2426407,1.75735931 C16.367859,2.88257758 17,4.40870106 17,6 L17,6 L17,7 C17,10.3549517 14.3719686,13.8195711 11.2241482,13.9941575 L11.2241482,13.9941575 L11,14 C7.77533638,14 5,10.4578902 5,7 L5,7 L5,6 C5,2.78310846 7.53687401,0.142257627 10.7618163,0.00484625862 L10.7618163,0.00484625862 Z M11,2 L10.8257513,2.00370998 C8.69148329,2.09479995 7,3.85561071 7,6 L7,6 L7,7 C7,9.44551607 9.00150548,12 10.9722232,12.0003858 L10.9722232,12.0003858 L11.140872,11.9960846 C13.0947789,11.8874765 15,9.3757614 15,7 L15,7 L15,6 C15,4.93913404 14.5785726,3.92171839 13.8284271,3.17157288 C13.0782816,2.42142736 12.060866,2 11,2 L11,2 Z M15,14.6125741 L15,19.3874259 L11,18.054 L7,19.3874259 L7,14.6125741 L11,15.946 L15,14.6125741 Z M12,20 L12,24 L10,24 L10,20 L12,20 Z M4.70876938,14.9762165 L5.22378346,16.9087694 L3.48466666,17.3722339 C2.66064611,17.5919763 2.07258582,18.3073426 2.00625354,19.1463317 L2,19.305 L2,22 L20,22 L20,19.3045672 C20.0003693,18.4514659 19.4607138,17.6985157 18.6681584,17.4184638 L18.5166607,17.3715869 L16.7770738,16.9102475 L17.2897525,14.9770738 L19.0306666,15.4387661 C20.7174193,15.8885742 21.9097946,17.3765937 21.9951044,19.1045956 L22,19.305 L22,24 L0,24 L0,19.305 C0,17.5597827 1.12968289,16.0245156 2.77713889,15.4961723 L2.96949296,15.4397236 L4.70876938,14.9762165 Z"/>
</svg>
