<svg xmlns="http://www.w3.org/2000/svg" width="24" height="24" viewBox="0 0 24 24">
  <path fill="currentColor" d="M3.04634984,1.68229528 L15.3071068,12.9928932 C15.9743924,13.6601788 16.8939085,14 18,14 L18,14 L20,14 C22.2522847,14 24,15.7477153 24,18 L24,18 L24,22 L18,22 C16.5022595,22 14.960366,21.2031558 13.1048134,19.7037194 L13.1048134,19.7037194 L12.7049172,19.3741271 L12.293551,19.0222332 L11.8585412,18.6379822 L11.3877141,18.2113185 L10.1401635,17.0566169 L9.29672953,16.2839202 L8.58522948,15.6468431 L8.12861071,15.2509882 L7.73053595,14.9198874 L7.38429,14.6485986 L7.178937,14.4985277 L7,14.376 L7,22 L2,22 L2,15 C2,13.944621 1.79144696,13.3189619 1.10557281,11.9472136 L1.10557281,11.9472136 L0.949648178,11.631223 C0.253882684,10.1998485 0,9.34831295 0,8 C0,5.58110579 0.855898196,3.76146622 2.04822245,2.52410619 L2.04822245,2.52410619 L2.17721776,2.39562821 L2.3216421,2.2638067 L3.04634984,1.68229528 Z M3.061,4.418 L2.92036905,4.62165738 C2.41185666,5.39664825 2.05791659,6.41012987 2.00647322,7.67778253 L2.00647322,7.67778253 L2,8 C2,9.05537898 2.20855304,9.68103811 2.89442719,11.0527864 L2.89442719,11.0527864 L3.05035182,11.368777 C3.74611732,12.8001515 4,13.651687 4,15 L4,15 L4,20 L5,20 L5,12 L6.099819,12.000752 L6.29280151,12.0072738 L6.47867865,12.0216105 C6.50918396,12.0247261 6.53948165,12.0282236 6.56961592,12.0321311 L6.56961592,12.0321311 L6.74881434,12.0607199 L6.92621317,12.1004969 L7.10393474,12.1528112 C7.1336998,12.1626499 7.16356674,12.1730673 7.19357977,12.1840914 L7.19357977,12.1840914 L7.37576478,12.2577416 C7.40653904,12.271305 7.43754782,12.2855314 7.46883534,12.3004488 L7.46883534,12.3004488 L7.660259,12.3984707 C7.69283832,12.4162648 7.72578481,12.4348061 7.75914268,12.4541228 L7.75914268,12.4541228 L7.96458021,12.5795523 L8.18201321,12.7249402 C8.21936957,12.7509097 8.25731417,12.777767 8.29589123,12.8055402 L8.29589123,12.8055402 L8.53529678,12.9833955 L8.7920036,13.1845824 L9.21414625,13.5330608 L9.68715478,13.9416248 L10.218192,14.4148283 L10.8144207,14.957225 L12.4879268,16.5059122 L13.1829254,17.139203 L13.597649,17.5057668 L13.9868162,17.8389099 L14.3618533,18.1481325 C15.8890964,19.3822683 17.0844072,20 18,20 L18,20 L22,20 L22,18 C22,16.9044536 21.2234348,16.0780908 20.1546231,16.0052305 L20.1546231,16.0052305 L20,16 L18,16 C16.3884444,16 14.9566421,15.4708557 13.9219831,14.4350463 L13.9219831,14.4350463 L3.061,4.418 Z"/>
</svg>
