<?xml version="1.0" encoding="UTF-8"?>
<svg width="46px" height="46px" viewBox="0 0 46 46" version="1.1" xmlns="http://www.w3.org/2000/svg" xmlns:xlink="http://www.w3.org/1999/xlink">
    <!-- Generator: Sketch 64 (93537) - https://sketch.com -->
    <title>vpn</title>
    <desc>Created with Sketch.</desc>
    <g id="产品" stroke="none" stroke-width="1" fill="none" fill-rule="evenodd" stroke-linecap="square">
        <g id="基础服务-云主机✅" transform="translate(-1001.000000, -3002.000000)" stroke-width="2">
            <g id="产品与服务" transform="translate(0.000000, 2179.000000)">
                <g id="编组-29" transform="translate(372.000000, 290.000000)">
                    <g id="编组-28备份-5" transform="translate(600.000000, 504.000000)">
                        <g id="编组-54" transform="translate(24.000000, 24.000000)">
                            <g id="vpn" transform="translate(6.000000, 6.000000)">
                                <path d="M36,18 C36,12.4771525 31.5228475,8 26,8" id="路径" stroke="#00AAE7"></path>
                                <path d="M44,18 C44,8.0588745 35.9411255,0 26,0" id="路径" stroke="#00AAE7"></path>
                                <rect id="矩形" stroke="#333333" x="0" y="24" width="26" height="20" rx="2"></rect>
                                <path d="M6,19 L6,16 C6,12.1340068 9.13400675,9 13,9 L13,9 C16.8659932,9 20,12.1340068 20,16 L20,19" id="路径" stroke="#333333"></path>
                                <circle id="椭圆形" stroke="#333333" cx="13" cy="33" r="3"></circle>
                                <line x1="13" y1="36" x2="13" y2="39" id="路径" stroke="#333333"></line>
                            </g>
                        </g>
                    </g>
                </g>
            </g>
        </g>
    </g>
</svg>