<?xml version="1.0" encoding="UTF-8"?>
<svg width="707px" height="413px" viewBox="0 0 707 413" version="1.1" xmlns="http://www.w3.org/2000/svg" xmlns:xlink="http://www.w3.org/1999/xlink">
    <!-- Generator: Sketch 64 (93537) - https://sketch.com -->
    <title>编组 12</title>
    <desc>Created with Sketch.</desc>
    <g id="产品" stroke="none" stroke-width="1" fill="none" fill-rule="evenodd">
        <g id="基础服务-云主机02✅" transform="translate(-420.000000, -2271.000000)">
            <g id="产品介绍-2备份-2" transform="translate(0.000000, 1955.000000)">
                <g id="编组-11" transform="translate(373.000000, 256.000000)">
                    <g id="编组-12" transform="translate(47.000000, 60.000000)">
                        <rect id="矩形备份" fill="#E2F5FC" x="1.13686838e-13" y="120" width="707" height="293"></rect>
                        <path id="直线" d="M149.5,229.5 C151.985281,229.5 154,231.514719 154,234 C154,236.316034 152.250342,238.223414 150.000707,238.472457 L150.000707,302.527543 C152.250342,302.776586 154,304.683966 154,307 C154,309.485281 151.985281,311.5 149.5,311.5 C147.014719,311.5 145,309.485281 145,307 C145,304.683621 146.750179,302.776019 149.000297,302.527432 L149.000297,238.472568 C146.750179,238.223981 145,236.316379 145,234 C145,231.514719 147.014719,229.5 149.5,229.5 Z" fill="#20B4E9" fill-rule="nonzero"></path>
                        <rect id="矩形" stroke="#20B4E9" x="24" y="318" width="264" height="64"></rect>
                        <g id="对象存储备份" transform="translate(134.000000, 339.000000)">
                            <rect id="矩形" fill="#20B4E9" x="0" y="0" width="21.384" height="7.128"></rect>
                            <rect id="矩形备份-2" fill="#20B4E9" x="0" y="8.32528125" width="21.384" height="7.128"></rect>
                            <rect id="矩形备份-3" fill="#20B4E9" x="0" y="16.6227188" width="21.384" height="8.019"></rect>
                            <line x1="3.564" y1="4.158" x2="7.128" y2="4.158" id="直线-2" stroke="#FFFFFF" stroke-width="1.782" stroke-linecap="square"></line>
                            <line x1="3.564" y1="12.474" x2="7.128" y2="12.474" id="直线-2" stroke="#FFFFFF" stroke-width="1.782" stroke-linecap="square"></line>
                            <line x1="3.564" y1="20.79" x2="7.128" y2="20.79" id="直线-2" stroke="#FFFFFF" stroke-width="1.782" stroke-linecap="square"></line>
                        </g>
                        <g id="对象存储备份-2" transform="translate(169.000000, 339.000000)">
                            <rect id="矩形" fill="#20B4E9" x="0" y="0" width="21.384" height="7.128"></rect>
                            <rect id="矩形备份-2" fill="#20B4E9" x="0" y="8.32528125" width="21.384" height="7.128"></rect>
                            <rect id="矩形备份-3" fill="#20B4E9" x="0" y="16.6227188" width="21.384" height="8.019"></rect>
                            <line x1="3.564" y1="4.158" x2="7.128" y2="4.158" id="直线-2" stroke="#FFFFFF" stroke-width="1.782" stroke-linecap="square"></line>
                            <line x1="3.564" y1="12.474" x2="7.128" y2="12.474" id="直线-2" stroke="#FFFFFF" stroke-width="1.782" stroke-linecap="square"></line>
                            <line x1="3.564" y1="20.79" x2="7.128" y2="20.79" id="直线-2" stroke="#FFFFFF" stroke-width="1.782" stroke-linecap="square"></line>
                        </g>
                        <g id="对象存储备份-3" transform="translate(205.000000, 339.000000)">
                            <rect id="矩形" fill="#20B4E9" x="0" y="0" width="21.384" height="7.128"></rect>
                            <rect id="矩形备份-2" fill="#20B4E9" x="0" y="8.32528125" width="21.384" height="7.128"></rect>
                            <rect id="矩形备份-3" fill="#20B4E9" x="0" y="16.6227188" width="21.384" height="8.019"></rect>
                            <line x1="3.564" y1="4.158" x2="7.128" y2="4.158" id="直线-2" stroke="#FFFFFF" stroke-width="1.782" stroke-linecap="square"></line>
                            <line x1="3.564" y1="12.474" x2="7.128" y2="12.474" id="直线-2" stroke="#FFFFFF" stroke-width="1.782" stroke-linecap="square"></line>
                            <line x1="3.564" y1="20.79" x2="7.128" y2="20.79" id="直线-2" stroke="#FFFFFF" stroke-width="1.782" stroke-linecap="square"></line>
                        </g>
                        <g id="对象存储备份-4" transform="translate(240.000000, 339.000000)">
                            <rect id="矩形" fill="#20B4E9" x="0" y="0" width="21.384" height="7.128"></rect>
                            <rect id="矩形备份-2" fill="#20B4E9" x="0" y="8.32528125" width="21.384" height="7.128"></rect>
                            <rect id="矩形备份-3" fill="#20B4E9" x="0" y="16.6227188" width="21.384" height="8.019"></rect>
                            <line x1="3.564" y1="4.158" x2="7.128" y2="4.158" id="直线-2" stroke="#FFFFFF" stroke-width="1.782" stroke-linecap="square"></line>
                            <line x1="3.564" y1="12.474" x2="7.128" y2="12.474" id="直线-2" stroke="#FFFFFF" stroke-width="1.782" stroke-linecap="square"></line>
                            <line x1="3.564" y1="20.79" x2="7.128" y2="20.79" id="直线-2" stroke="#FFFFFF" stroke-width="1.782" stroke-linecap="square"></line>
                        </g>
                        <rect id="矩形备份-2" stroke="#20B4E9" x="314" y="150" width="275" height="64"></rect>
                        <g id="wangluo_fuzaijunheng" transform="translate(419.000000, 167.000000)" fill-rule="nonzero">
                            <path d="M15.5,0 C6.94378284,0 0,6.94359 0,15.4992235 C0,24.05641 6.94378284,31 15.5,31 C24.0554416,31 31,24.05641 31,15.5007765 C31,6.94359 24.0554416,0 15.5,0 Z" id="路径" fill="#20B4E9"></path>
                            <path d="M15.5,7.00083222 C16.9158399,7.00856269 18.0616544,8.13040811 18.06955,9.51663038 C18.06955,10.2656275 17.7236,10.943886 17.2051,11.4032709 L20.5898,17.1122936 C20.8618,17.0157561 21.1338,16.9674874 21.43045,16.9674874 C22.8462899,16.9752179 23.9921044,18.0970633 24,19.4832856 C24,20.8622726 22.81425,21.9999582 21.38115,21.9999582 C20.1501741,22.0068828 19.0898448,21.1518545 18.8609,19.9676371 L12.0898,19.9676371 C11.8605424,21.1516732 10.8004041,22.0065475 9.56955,21.9999582 C8.1533807,21.9921812 7.0074316,20.8698329 7,19.4832856 C7.00789563,18.0970633 8.1537101,16.9752179 9.56955,16.9674874 C9.86705,16.9674874 10.1382,17.0157561 10.4102,17.1131258 L13.7949,11.4032709 C13.2390081,10.9282867 12.9231687,10.238975 12.93045,9.51663038 C12.9378816,8.13008312 14.0838307,7.00773473 15.5,7 L15.5,7.00083222 Z M16.2999662,11.9999861 C16.040073,12.0939641 15.7651207,12.1416365 15.488097,12.1407515 C15.2016032,12.1407515 14.9389154,12.0940978 14.6770486,11.9999861 L11.4074074,17.5179887 C11.8129316,17.8695 12.0994254,18.336841 12.2184557,18.8749669 L18.7815443,18.8749669 C18.8767686,18.336841 19.1870684,17.8695 19.5925926,17.5187931 L16.2991453,12.0007905 L16.2999662,11.9999861 Z" id="形状" fill="#E2F5FC"></path>
                        </g>
                        <g id="wangluo_fuzaijunheng备份-2" transform="translate(501.000000, 167.000000)" fill-rule="nonzero">
                            <path d="M15.5,0 C6.94378284,0 0,6.94359 0,15.4992235 C0,24.05641 6.94378284,31 15.5,31 C24.0554416,31 31,24.05641 31,15.5007765 C31,6.94359 24.0554416,0 15.5,0 Z" id="路径" fill="#20B4E9"></path>
                            <path d="M15.5,7.00083222 C16.9158399,7.00856269 18.0616544,8.13040811 18.06955,9.51663038 C18.06955,10.2656275 17.7236,10.943886 17.2051,11.4032709 L20.5898,17.1122936 C20.8618,17.0157561 21.1338,16.9674874 21.43045,16.9674874 C22.8462899,16.9752179 23.9921044,18.0970633 24,19.4832856 C24,20.8622726 22.81425,21.9999582 21.38115,21.9999582 C20.1501741,22.0068828 19.0898448,21.1518545 18.8609,19.9676371 L12.0898,19.9676371 C11.8605424,21.1516732 10.8004041,22.0065475 9.56955,21.9999582 C8.1533807,21.9921812 7.0074316,20.8698329 7,19.4832856 C7.00789563,18.0970633 8.1537101,16.9752179 9.56955,16.9674874 C9.86705,16.9674874 10.1382,17.0157561 10.4102,17.1131258 L13.7949,11.4032709 C13.2390081,10.9282867 12.9231687,10.238975 12.93045,9.51663038 C12.9378816,8.13008312 14.0838307,7.00773473 15.5,7 L15.5,7.00083222 Z M16.2999662,11.9999861 C16.040073,12.0939641 15.7651207,12.1416365 15.488097,12.1407515 C15.2016032,12.1407515 14.9389154,12.0940978 14.6770486,11.9999861 L11.4074074,17.5179887 C11.8129316,17.8695 12.0994254,18.336841 12.2184557,18.8749669 L18.7815443,18.8749669 C18.8767686,18.336841 19.1870684,17.8695 19.5925926,17.5187931 L16.2991453,12.0007905 L16.2999662,11.9999861 Z" id="形状" fill="#E2F5FC"></path>
                        </g>
                        <g id="wangluo_fuzaijunheng备份" transform="translate(460.000000, 167.000000)" fill-rule="nonzero">
                            <path d="M15.5,0 C6.94378284,0 0,6.94359 0,15.4992235 C0,24.05641 6.94378284,31 15.5,31 C24.0554416,31 31,24.05641 31,15.5007765 C31,6.94359 24.0554416,0 15.5,0 Z" id="路径" fill="#20B4E9"></path>
                            <path d="M18.06955,9.51663038 C18.06955,10.2656275 17.7236,10.943886 17.2051,11.4032709 L20.5898,17.1122936 C20.8618,17.0157561 21.1338,16.9674874 21.43045,16.9674874 C22.8462899,16.9752179 23.9921044,18.0970633 24,19.4832856 C24,20.8622726 22.81425,22 21.38115,22 C20.1501741,22.0068828 19.0898448,21.1518545 18.8609,19.9676371 L12.0898,19.9676371 C11.8605424,21.1516732 10.8004041,22.0065475 9.56955,22 C8.1533807,21.9921812 7.0074316,20.8698329 7,19.4832856 C7.00789563,18.0970633 8.1537101,16.9752179 9.56955,16.9674874 C9.86705,16.9674874 10.1382,17.0157561 10.4102,17.1131258 L13.7949,11.4032709 C13.2390081,10.9282867 12.9231687,10.238975 12.93045,9.51663038 C12.9378816,8.13008312 14.0838307,7.00773473 15.5,7 C16.9158399,7.00856269 18.0616544,8.13040811 18.06955,9.51663038 Z M15.488097,12.1407515 C15.2016032,12.1407515 14.9389154,12.0940978 14.6770486,11.9999861 L11.4074074,17.5179887 C11.8129316,17.8695 12.0994254,18.336841 12.2184557,18.8749669 L18.7815443,18.8749669 C18.8767686,18.336841 19.1870684,17.8695 19.5925926,17.5187931 L16.2991453,12.0007905 C16.040073,12.0939641 15.7651207,12.1416365 15.488097,12.1407515 Z" id="形状" fill="#E2F5FC"></path>
                        </g>
                        <g id="wangluo_fuzaijunheng备份-3" transform="translate(542.000000, 167.000000)" fill-rule="nonzero">
                            <path d="M15.5,0 C6.94378284,0 0,6.94359 0,15.4992235 C0,24.05641 6.94378284,31 15.5,31 C24.0554416,31 31,24.05641 31,15.5007765 C31,6.94359 24.0554416,0 15.5,0 Z" id="路径" fill="#20B4E9"></path>
                            <path d="M15.5,7.00083222 C16.9158399,7.00856269 18.0616544,8.13040811 18.06955,9.51663038 C18.06955,10.2656275 17.7236,10.943886 17.2051,11.4032709 L20.5898,17.1122936 C20.8618,17.0157561 21.1338,16.9674874 21.43045,16.9674874 C22.8462899,16.9752179 23.9921044,18.0970633 24,19.4832856 C24,20.8622726 22.81425,21.9999582 21.38115,21.9999582 C20.1501741,22.0068828 19.0898448,21.1518545 18.8609,19.9676371 L12.0898,19.9676371 C11.8605424,21.1516732 10.8004041,22.0065475 9.56955,21.9999582 C8.1533807,21.9921812 7.0074316,20.8698329 7,19.4832856 C7.00789563,18.0970633 8.1537101,16.9752179 9.56955,16.9674874 C9.86705,16.9674874 10.1382,17.0157561 10.4102,17.1131258 L13.7949,11.4032709 C13.2390081,10.9282867 12.9231687,10.238975 12.93045,9.51663038 C12.9378816,8.13008312 14.0838307,7.00773473 15.5,7 L15.5,7.00083222 Z M16.2999662,11.9999861 C16.040073,12.0939641 15.7651207,12.1416365 15.488097,12.1407515 C15.2016032,12.1407515 14.9389154,12.0940978 14.6770486,11.9999861 L11.4074074,17.5179887 C11.8129316,17.8695 12.0994254,18.336841 12.2184557,18.8749669 L18.7815443,18.8749669 C18.8767686,18.336841 19.1870684,17.8695 19.5925926,17.5187931 L16.2991453,12.0007905 L16.2999662,11.9999861 Z" id="形状" fill="#E2F5FC"></path>
                        </g>
                        <rect id="矩形备份-3" stroke="#20B4E9" x="314" y="234" width="275" height="64"></rect>
                        <rect id="矩形备份-4" stroke="#20B4E9" x="314" y="318" width="275" height="64"></rect>
                        <g id="shujuku-5" transform="translate(421.000000, 336.000000)" fill="#20B4E9" fill-rule="nonzero">
                            <path d="M12.6482275,15.4 C18.6320303,15.4 25.3,13.3088264 25.3,10.3102328 L25.3,7.7 C23.0454393,9.88452958 18.2917192,11.3595538 12.6482275,11.3595538 C7.00828079,11.3595538 2.25456074,9.88452958 0,7.7 L0,10.3363725 C0.0460837887,13.3237633 6.68214936,15.4 12.6482275,15.4 Z M21.418327,10.8442289 C21.9571529,10.6985936 22.5066134,11.0421435 22.6448648,11.6097478 C22.7831162,12.1773521 22.4569847,12.7561591 21.9181589,12.9017944 C21.3793331,13.0474297 20.8298725,12.7038797 20.6916211,12.1362755 C20.5533698,11.5686712 20.8795012,10.9898642 21.418327,10.8442289 Z" id="形状"></path>
                            <path d="M12.6482275,9.80735895 C18.6320303,9.80735895 25.3,7.79264105 25.3,4.90367948 C25.3,2.01471791 18.6320303,0 12.6482275,0 C6.68569427,0 0.0460837887,2.00032706 0,4.87489779 L0,4.93246116 C0.0460837887,7.80703189 6.68214936,9.80735895 12.6482275,9.80735895 Z M12.6482275,22 C18.6320303,22 25.3,19.9852821 25.3,17.0963205 L25.3,13.883565 C23.0454393,15.9882257 18.2917192,17.4093213 12.6482275,17.4093213 C7.00828079,17.4093213 2.25456074,15.9882257 0,13.883565 L0,17.1251022 C0.0460837887,19.9996729 6.68214936,22 12.6482275,22 Z M21.6700154,17.2941946 C22.2265658,17.2941946 22.676769,17.7511038 22.676769,18.3159444 C22.676769,18.880785 22.2265658,19.3376942 21.6700154,19.3376942 C21.113465,19.3376942 20.6632619,18.880785 20.6632619,18.3159444 C20.659717,17.7547016 21.113465,17.2941946 21.6700154,17.2941946 Z" id="形状"></path>
                            <path d="M12.6482275,28.6 C18.6320303,28.6 25.3,26.6886525 25.3,23.9479167 L25.3,20.9 C23.0454393,22.8966755 18.2917192,24.2448582 12.6482275,24.2448582 C7.00828079,24.2448582 2.25456074,22.8966755 0,20.9034131 L0,23.9786348 C0.0460837887,26.702305 6.68214936,28.6 12.6482275,28.6 Z M21.7019196,24.0332447 C22.2584699,24.0332447 22.7086731,24.466711 22.7086731,25.0025709 C22.7086731,25.5384309 22.2584699,25.9718972 21.7019196,25.9718972 C21.1453692,25.9718972 20.695166,25.5384309 20.695166,25.0025709 C20.695166,24.466711 21.1453692,24.0332447 21.7019196,24.0332447 Z" id="形状"></path>
                        </g>
                        <g id="shujuku-5备份" transform="translate(463.000000, 336.000000)" fill="#20B4E9" fill-rule="nonzero">
                            <path d="M12.6482275,15.4 C18.6320303,15.4 25.3,13.3088264 25.3,10.3102328 L25.3,7.7 C23.0454393,9.88452958 18.2917192,11.3595538 12.6482275,11.3595538 C7.00828079,11.3595538 2.25456074,9.88452958 0,7.7 L0,10.3363725 C0.0460837887,13.3237633 6.68214936,15.4 12.6482275,15.4 Z M21.418327,10.8442289 C21.9571529,10.6985936 22.5066134,11.0421435 22.6448648,11.6097478 C22.7831162,12.1773521 22.4569847,12.7561591 21.9181589,12.9017944 C21.3793331,13.0474297 20.8298725,12.7038797 20.6916211,12.1362755 C20.5533698,11.5686712 20.8795012,10.9898642 21.418327,10.8442289 Z" id="形状"></path>
                            <path d="M12.6482275,9.80735895 C18.6320303,9.80735895 25.3,7.79264105 25.3,4.90367948 C25.3,2.01471791 18.6320303,0 12.6482275,0 C6.68569427,0 0.0460837887,2.00032706 0,4.87489779 L0,4.93246116 C0.0460837887,7.80703189 6.68214936,9.80735895 12.6482275,9.80735895 Z M12.6482275,22 C18.6320303,22 25.3,19.9852821 25.3,17.0963205 L25.3,13.883565 C23.0454393,15.9882257 18.2917192,17.4093213 12.6482275,17.4093213 C7.00828079,17.4093213 2.25456074,15.9882257 0,13.883565 L0,17.1251022 C0.0460837887,19.9996729 6.68214936,22 12.6482275,22 Z M21.6700154,17.2941946 C22.2265658,17.2941946 22.676769,17.7511038 22.676769,18.3159444 C22.676769,18.880785 22.2265658,19.3376942 21.6700154,19.3376942 C21.113465,19.3376942 20.6632619,18.880785 20.6632619,18.3159444 C20.659717,17.7547016 21.113465,17.2941946 21.6700154,17.2941946 Z" id="形状"></path>
                            <path d="M12.6482275,28.6 C18.6320303,28.6 25.3,26.6886525 25.3,23.9479167 L25.3,20.9 C23.0454393,22.8966755 18.2917192,24.2448582 12.6482275,24.2448582 C7.00828079,24.2448582 2.25456074,22.8966755 0,20.9034131 L0,23.9786348 C0.0460837887,26.702305 6.68214936,28.6 12.6482275,28.6 Z M21.7019196,24.0332447 C22.2584699,24.0332447 22.7086731,24.466711 22.7086731,25.0025709 C22.7086731,25.5384309 22.2584699,25.9718972 21.7019196,25.9718972 C21.1453692,25.9718972 20.695166,25.5384309 20.695166,25.0025709 C20.695166,24.466711 21.1453692,24.0332447 21.7019196,24.0332447 Z" id="形状"></path>
                        </g>
                        <g id="shujuku-5备份-2" transform="translate(505.000000, 336.000000)" fill="#20B4E9" fill-rule="nonzero">
                            <path d="M12.6482275,15.4 C18.6320303,15.4 25.3,13.3088264 25.3,10.3102328 L25.3,7.7 C23.0454393,9.88452958 18.2917192,11.3595538 12.6482275,11.3595538 C7.00828079,11.3595538 2.25456074,9.88452958 0,7.7 L0,10.3363725 C0.0460837887,13.3237633 6.68214936,15.4 12.6482275,15.4 Z M21.418327,10.8442289 C21.9571529,10.6985936 22.5066134,11.0421435 22.6448648,11.6097478 C22.7831162,12.1773521 22.4569847,12.7561591 21.9181589,12.9017944 C21.3793331,13.0474297 20.8298725,12.7038797 20.6916211,12.1362755 C20.5533698,11.5686712 20.8795012,10.9898642 21.418327,10.8442289 Z" id="形状"></path>
                            <path d="M12.6482275,9.80735895 C18.6320303,9.80735895 25.3,7.79264105 25.3,4.90367948 C25.3,2.01471791 18.6320303,0 12.6482275,0 C6.68569427,0 0.0460837887,2.00032706 0,4.87489779 L0,4.93246116 C0.0460837887,7.80703189 6.68214936,9.80735895 12.6482275,9.80735895 Z M12.6482275,22 C18.6320303,22 25.3,19.9852821 25.3,17.0963205 L25.3,13.883565 C23.0454393,15.9882257 18.2917192,17.4093213 12.6482275,17.4093213 C7.00828079,17.4093213 2.25456074,15.9882257 0,13.883565 L0,17.1251022 C0.0460837887,19.9996729 6.68214936,22 12.6482275,22 Z M21.6700154,17.2941946 C22.2265658,17.2941946 22.676769,17.7511038 22.676769,18.3159444 C22.676769,18.880785 22.2265658,19.3376942 21.6700154,19.3376942 C21.113465,19.3376942 20.6632619,18.880785 20.6632619,18.3159444 C20.659717,17.7547016 21.113465,17.2941946 21.6700154,17.2941946 Z" id="形状"></path>
                            <path d="M12.6482275,28.6 C18.6320303,28.6 25.3,26.6886525 25.3,23.9479167 L25.3,20.9 C23.0454393,22.8966755 18.2917192,24.2448582 12.6482275,24.2448582 C7.00828079,24.2448582 2.25456074,22.8966755 0,20.9034131 L0,23.9786348 C0.0460837887,26.702305 6.68214936,28.6 12.6482275,28.6 Z M21.7019196,24.0332447 C22.2584699,24.0332447 22.7086731,24.466711 22.7086731,25.0025709 C22.7086731,25.5384309 22.2584699,25.9718972 21.7019196,25.9718972 C21.1453692,25.9718972 20.695166,25.5384309 20.695166,25.0025709 C20.695166,24.466711 21.1453692,24.0332447 21.7019196,24.0332447 Z" id="形状"></path>
                        </g>
                        <g id="shujuku-5备份-3" transform="translate(547.000000, 336.000000)" fill="#20B4E9" fill-rule="nonzero">
                            <path d="M12.6482275,15.4 C18.6320303,15.4 25.3,13.3088264 25.3,10.3102328 L25.3,7.7 C23.0454393,9.88452958 18.2917192,11.3595538 12.6482275,11.3595538 C7.00828079,11.3595538 2.25456074,9.88452958 0,7.7 L0,10.3363725 C0.0460837887,13.3237633 6.68214936,15.4 12.6482275,15.4 Z M21.418327,10.8442289 C21.9571529,10.6985936 22.5066134,11.0421435 22.6448648,11.6097478 C22.7831162,12.1773521 22.4569847,12.7561591 21.9181589,12.9017944 C21.3793331,13.0474297 20.8298725,12.7038797 20.6916211,12.1362755 C20.5533698,11.5686712 20.8795012,10.9898642 21.418327,10.8442289 Z" id="形状"></path>
                            <path d="M12.6482275,9.80735895 C18.6320303,9.80735895 25.3,7.79264105 25.3,4.90367948 C25.3,2.01471791 18.6320303,0 12.6482275,0 C6.68569427,0 0.0460837887,2.00032706 0,4.87489779 L0,4.93246116 C0.0460837887,7.80703189 6.68214936,9.80735895 12.6482275,9.80735895 Z M12.6482275,22 C18.6320303,22 25.3,19.9852821 25.3,17.0963205 L25.3,13.883565 C23.0454393,15.9882257 18.2917192,17.4093213 12.6482275,17.4093213 C7.00828079,17.4093213 2.25456074,15.9882257 0,13.883565 L0,17.1251022 C0.0460837887,19.9996729 6.68214936,22 12.6482275,22 Z M21.6700154,17.2941946 C22.2265658,17.2941946 22.676769,17.7511038 22.676769,18.3159444 C22.676769,18.880785 22.2265658,19.3376942 21.6700154,19.3376942 C21.113465,19.3376942 20.6632619,18.880785 20.6632619,18.3159444 C20.659717,17.7547016 21.113465,17.2941946 21.6700154,17.2941946 Z" id="形状"></path>
                            <path d="M12.6482275,28.6 C18.6320303,28.6 25.3,26.6886525 25.3,23.9479167 L25.3,20.9 C23.0454393,22.8966755 18.2917192,24.2448582 12.6482275,24.2448582 C7.00828079,24.2448582 2.25456074,22.8966755 0,20.9034131 L0,23.9786348 C0.0460837887,26.702305 6.68214936,28.6 12.6482275,28.6 Z M21.7019196,24.0332447 C22.2584699,24.0332447 22.7086731,24.466711 22.7086731,25.0025709 C22.7086731,25.5384309 22.2584699,25.9718972 21.7019196,25.9718972 C21.1453692,25.9718972 20.695166,25.5384309 20.695166,25.0025709 C20.695166,24.466711 21.1453692,24.0332447 21.7019196,24.0332447 Z" id="形状"></path>
                        </g>
                        <g id="danxingshensuo" transform="translate(226.000000, 242.000000)" fill-rule="nonzero">
                            <path d="M19.9973985,21.9825249 C18.2336108,21.8534648 16.4776275,19.0698148 15,16.5012651 C16.4776275,13.9301848 18.2336108,11.1465349 19.9973985,11.0174747 C22.9448491,10.7998439 23.8449532,12.6142775 25,16.5012651 C23.8449532,20.3857221 22.9448491,22.2001557 19.9973985,21.9825249 L19.9973985,21.9825249 Z" id="路径" fill="#1D97E3"></path>
                            <path d="M19.9986989,11.0174707 C18.2344523,11.1465014 16.478012,13.9295164 15,16.5000103 C16.478012,19.0705041 18.2344523,21.8509891 19.9986989,21.9825498 C22.9469165,22.200131 23.8446526,20.3835812 25,16.5000103 C23.8472547,12.6139093 22.9469165,10.7998896 19.9986989,11.0174707 L19.9986989,11.0174707 Z" id="路径" fill="#20B4E9"></path>
                            <path d="M34.8049908,11.282024 C34.6774909,5.02583222 30.5674919,0 25.5124933,0 C22.5524941,0 19.9149948,1.7249889 18.2124952,4.40940968 C17.2574955,2.87332446 15.7624958,1.88406569 14.0824963,1.88406569 C11.1974971,1.88406569 8.85999767,4.79467377 8.85999767,8.38384376 C8.85999767,8.69702619 8.87749766,9.00523746 8.91249765,9.30599201 C8.46964001,9.20528096 8.0167927,9.15442114 7.56249801,9.15437195 C3.4049991,9.15437195 0.0349999908,13.3326232 0,18.4976476 L0,18.6567244 C0.0349999908,23.8242344 3.4049991,28 7.56249801,28 L33.2024913,28 C36.9574903,27.9900577 40,24.1970706 40,19.5192188 C40.0024895,15.5298713 37.78749,12.1842876 34.8049908,11.282024 L34.8049908,11.282024 Z M27.9974926,18.8381713 C28.3624925,19.4819352 28.6099925,19.4869063 28.7724924,19.4893919 C29.7699922,19.5067909 30.1849921,19.2557479 30.482492,18.9848202 C30.9649918,18.5473591 31.3999917,17.7619174 31.9174916,16.782601 L34.6124909,18.196893 C33.9549911,19.4446516 33.3824912,20.4612517 32.5324914,21.2342654 C31.5299917,22.1415002 30.319992,22.5541056 28.7249924,22.5267643 C27.9734527,22.5224156 27.2426333,22.281375 26.637493,21.8382601 C26.2860629,21.5654399 25.9783825,21.2410967 25.7249932,20.8763427 C25.4674933,21.4306258 25.1849934,21.9699956 24.8299935,22.4571682 C23.5674938,24.1970706 21.8174943,25.0744785 19.6199948,25.0744785 C19.4049949,25.0744785 19.1849949,25.0670217 18.962495,25.0496227 C17.3074954,24.925344 15.7774958,23.9559698 14.2849962,22.0917887 C13.6870866,21.328109 13.1392855,20.5269231 12.6449967,19.6932091 C12.3324968,20.207723 12.0199988,20.6924101 11.6999969,21.1149578 C11.3270979,21.6348125 10.8808524,22.098574 10.3749973,22.4919663 C9.83905363,22.9141337 9.17863479,23.149884 8.49499776,23.1630715 L8.37499779,23.1605859 C6.40249831,23.0760763 5.22999862,20.9707945 4.51999881,19.3874834 L4.51999881,19.3775411 L7.29499808,18.1372392 C7.90749792,19.5018198 8.3424978,19.9541944 8.50999776,20.0884154 C8.64749772,19.9989348 8.95999764,19.7354638 9.46749751,19.0121616 C9.92249739,18.360941 10.3999973,17.5282734 10.8999971,16.6359521 C10.3999973,15.7411451 9.92249739,14.9109632 9.46749751,14.2597426 C8.96249764,13.5339547 8.64999772,13.2704838 8.50999776,13.1810031 C8.3424978,13.3152241 7.90749792,13.7675988 7.29499808,15.1321793 L4.51999881,13.8918775 L4.51999881,13.8819352 C5.23249862,12.2986241 6.40249831,10.1933422 8.37749779,10.1088327 C9.06249761,10.0790058 9.73499744,10.3027075 10.3749973,10.7774523 C10.8149972,11.1030626 11.247497,11.5529516 11.6999969,12.1544607 C12.0174968,12.5770084 12.3299968,13.0616955 12.6449967,13.5762095 C13.1574965,12.7286285 13.6974964,11.91336 14.2849962,11.1776298 C15.7749958,9.31096316 17.3049954,8.34407457 18.959995,8.21979583 C21.4674943,8.03089214 23.4424938,8.90332889 24.8274935,10.8122503 C25.1824934,11.299423 25.4649933,11.8387927 25.7224932,12.3930759 C25.9999932,12.0152685 26.2924931,11.6797159 26.634993,11.4311585 C27.2449928,10.9862406 27.9474926,10.7550821 28.7224924,10.7426542 C30.317492,10.7153129 31.5299917,11.1279183 32.5299914,12.0351531 C33.3824912,12.8081669 33.9524911,13.8222814 34.6099909,15.0725255 L31.9149916,16.4868176 C31.3974917,15.5075011 30.9649918,14.7220595 30.479992,14.2845983 C30.1799921,14.0136707 29.7649922,13.7651132 28.7699924,13.7800266 C28.6099925,13.7849978 28.3624925,13.7874834 27.9974926,14.4337328 C27.6849927,14.9855304 27.4249928,15.7734576 27.1699928,16.6359521 C27.4249928,17.4984465 27.6849927,18.2863737 27.9974926,18.8381713 L27.9974926,18.8381713 Z" id="形状" fill="#20B4E9"></path>
                        </g>
                        <g id="QCDN" transform="translate(129.000000, 159.000000)">
                            <polygon id="多边形" fill="#20B4E9" points="20.16 0 37.6190721 10.08 37.6190721 30.24 20.16 40.32 2.70092786 30.24 2.70092786 10.08"></polygon>
                            <polyline id="路径-7" stroke="#E2F5FC" stroke-width="2.88" stroke-linecap="square" points="18.875338 11.52 27.515338 16.3414286 27.515338 25.92"></polyline>
                            <polygon id="路径-6" stroke="#E2F5FC" stroke-width="2.88" points="13.115338 14.4 13.115338 23.9727575 21.755338 28.8 21.755338 19.2"></polygon>
                        </g>
                        <rect id="矩形" fill="#E2F2F3" x="1.13686838e-13" y="0" width="707" height="100"></rect>
                        <text id="会员" font-family="PingFangSC-Regular, PingFang SC" font-size="14" font-weight="normal" line-spacing="18" fill="#28B8BB">
                            <tspan x="87" y="77">会员</tspan>
                        </text>
                        <text id="CDN" font-family="PingFangSC-Regular, PingFang SC" font-size="14" font-weight="normal" line-spacing="18" fill="#00AAE7">
                            <tspan x="134" y="218">CDN</tspan>
                        </text>
                        <text id="弹性伸缩服务" font-family="PingFangSC-Regular, PingFang SC" font-size="14" font-weight="normal" line-spacing="18" fill="#00AAE7">
                            <tspan x="204" y="292">弹性伸缩服务</tspan>
                        </text>
                        <text id="安全服务" font-family="PingFangSC-Regular, PingFang SC" font-size="14" font-weight="normal" line-spacing="18" fill="#00AAE7">
                            <tspan x="619" y="234">安全服务</tspan>
                        </text>
                        <text id="云监控服务" font-family="PingFangSC-Regular, PingFang SC" font-size="14" font-weight="normal" line-spacing="18" fill="#00AAE7">
                            <tspan x="611" y="331">云监控服务</tspan>
                        </text>
                        <text id="弹性负载均衡" font-family="PingFangSC-Regular, PingFang SC" font-size="14" font-weight="normal" line-spacing="18" fill="#00AAE7">
                            <tspan x="325" y="189">弹性负载均衡</tspan>
                        </text>
                        <text id="弹性云服务器" font-family="PingFangSC-Regular, PingFang SC" font-size="14" font-weight="normal" line-spacing="18" fill="#00AAE7">
                            <tspan x="326" y="275">弹性云服务器</tspan>
                        </text>
                        <text id="关系型数据库" font-family="PingFangSC-Regular, PingFang SC" font-size="14" font-weight="normal" line-spacing="18" fill="#00AAE7">
                            <tspan x="326" y="356">关系型数据库</tspan>
                        </text>
                        <text id="对象存储服务" font-family="PingFangSC-Regular, PingFang SC" font-size="14" font-weight="normal" line-spacing="18" fill="#00AAE7">
                            <tspan x="37" y="358">对象存储服务</tspan>
                        </text>
                        <text id="财务" font-family="PingFangSC-Regular, PingFang SC" font-size="14" font-weight="normal" line-spacing="18" fill="#28B8BB">
                            <tspan x="255" y="77">财务</tspan>
                        </text>
                        <text id="商品" font-family="PingFangSC-Regular, PingFang SC" font-size="14" font-weight="normal" line-spacing="18" fill="#28B8BB">
                            <tspan x="513" y="77">商品</tspan>
                        </text>
                        <text id="订单" font-family="PingFangSC-Regular, PingFang SC" font-size="14" font-weight="normal" line-spacing="18" fill="#28B8BB">
                            <tspan x="172" y="77">订单</tspan>
                        </text>
                        <text id="积分" font-family="PingFangSC-Regular, PingFang SC" font-size="14" font-weight="normal" line-spacing="18" fill="#28B8BB">
                            <tspan x="427" y="77">积分</tspan>
                        </text>
                        <text id="促销" font-family="PingFangSC-Regular, PingFang SC" font-size="14" font-weight="normal" line-spacing="18" fill="#28B8BB">
                            <tspan x="339" y="77">促销</tspan>
                        </text>
                        <text id="库存" font-family="PingFangSC-Regular, PingFang SC" font-size="14" font-weight="normal" line-spacing="18" fill="#28B8BB">
                            <tspan x="595" y="77">库存</tspan>
                        </text>
                        <g id="anquan-2" transform="translate(633.000000, 178.000000)" fill-rule="nonzero">
                            <path d="M14,34 C13.5856007,34 13.1908014,33.8526667 12.328403,33.524 C8.67160954,32.1215 5.58601505,29.8576667 3.41601895,26.962 C1.19654978,24.0364231 -0.00447183196,20.450228 1.25121387e-05,16.762 L1.25121387e-05,5.58733332 L14,0 L27.9999875,5.58733332 L27.9999875,16.762 C28.0044718,20.450228 26.8034502,24.0364231 24.583981,26.962 C22.4139849,29.8576667 19.3283904,32.1271667 15.671597,33.524 C14.8119985,33.8526667 14.4143993,34 14,34 Z M6.87401276,17.6176667 L12.1436033,22.9216667 L22.5455847,12.4468333 L20.711588,10.6051667 L12.1436033,19.227 L8.70800947,15.7703333 L6.87401276,17.612 L6.87401276,17.6176667 Z" id="形状" fill="#20B4E9"></path>
                            <path d="M14,0.0765 L27.93,5.63833332 L27.93,16.7733333 C27.93,20.451 26.754,23.97 24.5308,26.9308333 C22.3636,29.8123333 19.3004,32.0733333 15.6548,33.4701667 C14.798,33.7988334 14.406,33.9405 14,33.9405 C13.594,33.9405 13.202,33.7931667 12.348,33.4701667 C8.70800001,32.079 5.6364,29.818 3.47199999,26.9308333 C1.26227811,24.0158953 0.0654054432,20.4442831 0.0671979849,16.7705 L0.0671979849,5.63266668 L14,0.0793333223 L14,0.0765 Z M12.1492,19.1675 L8.7696,15.7675 L8.72199999,15.7193333 L8.67159999,15.7675 L6.89079999,17.561 L6.84319998,17.6091667 L6.89079999,17.6573333 L12.0988,22.9046667 L12.1492,22.9528333 L12.1996,22.9046667 L22.526,12.5063333 L22.5736,12.461 L22.526,12.41 L20.7452,10.6136667 L20.6948,10.5626667 L20.6472,10.6136667 L12.1492,19.1703333 L12.1492,19.1675 Z M14,0 L0,5.59016668 L0,16.762 C0,24.4148333 4.99239999,30.719 12.32,33.524 C13.146,33.8385 13.5716,34 14,34 C14.4284,34 14.8484,33.8385 15.68,33.524 C23.002,30.719 28,24.4148333 28,16.762 L28,5.59016668 L14,0 Z M12.1492,19.2666667 L20.6948,10.6618333 L22.4756,12.4525 L12.1492,22.8565 L6.94119999,17.6091667 L8.72199999,15.8185 L12.1492,19.2666667 Z" id="形状" fill="#4FD367"></path>
                        </g>
                        <g id="yunjiankong" transform="translate(628.000000, 281.000000)" fill="#20B4E9" fill-rule="nonzero">
                            <path d="M10.2286734,20.1165501 C10.2286734,14.7296037 16.4022056,10.5128205 24.2786247,10.5128205 C28.6221213,10.5128205 32.4411288,11.7995338 35,13.8531469 C33.9393681,12.0721025 32.3300769,10.7054177 30.4271813,9.96969697 C29.6256893,4.33799534 24.9484269,0 19.2403503,0 C13.7999383,0.00404258117 9.12776475,3.97141666 8.10347065,9.45687646 C3.55335712,9.96270396 0,13.8717949 0,18.6759907 C0,23.8254988 4.06617807,28 9.08206293,28 L16.1796951,28 C12.560493,26.2820513 10.2286734,23.4219114 10.2286734,20.1165501 Z" id="路径"></path>
                            <path d="M25.5,13 C19.2645528,13 14,16.2066036 14,20.001122 C14,23.7933964 19.2667695,27 25.5,27 C31.7332305,27 37,23.7933964 37,20.001122 C37,16.2043597 31.7332305,13 25.5,13 L25.5,13 Z M25.5,23.8158359 C23.4691054,23.7453086 21.8587429,22.0582341 21.8587429,20.001122 C21.8587429,17.9440099 23.4691054,16.2569353 25.5,16.1864081 C27.581181,16.1864081 29.2683115,17.8943137 29.2683115,20.001122 C29.2683115,22.1079303 27.581181,23.8158359 25.5,23.8158359 L25.5,23.8158359 Z" id="形状"></path>
                        </g>
                        <g id="tianchongxing-" transform="translate(83.000000, 28.000000)" fill-rule="nonzero">
                            <path d="M36.9173129,10.1753197 C36.8633344,10.0065269 36.7823667,9.84507285 36.662843,9.69829648 L29.4567176,0.598161198 C29.1444136,0.205534394 28.6663186,-0.0036219413 28.184368,0 L8.81380943,0 C8.22004629,0 7.70339525,0.311947266 7.43350291,0.774292849 L0.335334451,9.73865998 C0.219666306,9.88543636 0.134843001,10.0505598 0.0808645332,10.2156832 C-0.0926376834,10.7147229 0.0114636465,11.2834813 0.408590942,11.701794 L17.1380602,29.2672567 C17.2113167,29.377339 17.2999956,29.4764131 17.4079526,29.5681483 C17.4889203,29.6378671 17.5737436,29.6965776 17.6624225,29.7479494 C18.25233,30.1222291 19.0504402,30.0818656 19.5979361,29.6121812 C19.7675827,29.4654048 19.8948177,29.2929426 19.979641,29.1094721 L36.5934421,11.6614305 C36.9867138,11.2431178 37.0946707,10.6743594 36.9173129,10.1753197 Z" id="路径" fill="#28B8BB"></path>
                            <path d="M19.488525,22.5900891 C20.127543,22.0029496 20.1731872,21.0024948 19.595028,20.3574139 L11.7100015,11.5194195 C11.1318423,10.8704759 10.1466894,10.8241228 9.51147503,11.4112623 C8.87245696,11.9984018 8.82681281,12.9988565 9.40497202,13.6439374 L17.2938022,22.4819318 C17.8681577,23.1270127 18.8533106,23.1772286 19.488525,22.5900891 L19.488525,22.5900891 Z" id="路径" fill="#E2F5FC"></path>
                            <path d="M17.511475,22.5900891 C16.872457,22.0029496 16.8268128,21.0024948 17.404972,20.3574139 L25.2899985,11.5194195 C25.8681577,10.8704759 26.8533106,10.8241228 27.488525,11.4112623 C28.127543,11.9984018 28.1731872,12.9988565 27.595028,13.6439374 L19.7100015,22.4819318 C19.1318423,23.1270127 18.1466894,23.1772286 17.511475,22.5900891 L17.511475,22.5900891 Z" id="路径" fill="#E2F5FC"></path>
                        </g>
                        <g id="dingdan-copy" transform="translate(172.000000, 23.000000)" fill="#28B8BB" fill-rule="nonzero">
                            <path d="M16.4617923,9.9816852 L16.4617923,2.84411524 C16.4632415,2.45101668 16.334295,2.07371421 16.1039555,1.79707095 C15.4654624,1.0006629 14.132345,0.986266033 13.9634115,0.986266033 C13.794478,0.986266033 12.4592017,1.00131728 11.8212483,1.79445332 C11.592531,2.07241351 11.4638773,2.44885923 11.4634115,2.84149762 L11.4634115,9.98626603 L16.4634115,9.98626603 L16.4617923,9.9816852 Z" id="路径"></path>
                            <path d="M26.1183106,4.0049487 C24.741361,4.0049487 19.7000368,4.00061857 19.7000369,4.00061857 L19.1971192,4.00061857 L19.1788976,8.64004068 L19.1788976,8.67282596 C19.1788976,8.68705351 19.2475325,9.95887377 18.547821,10.7413896 C18.177314,11.1558447 17.6422048,11.3655466 16.9467451,11.3655466 L15.6554372,11.3655466 C15.550359,11.3698767 15.4999457,11.3698767 15.4732207,11.3698767 C15.4502367,11.3691464 15.4272395,11.3708045 15.4045858,11.3748254 C15.2169027,11.3791555 14.3064275,11.3791555 14.0003037,11.3791555 C13.6941799,11.3791555 12.7855268,11.3791555 12.5960216,11.3748254 C12.5777999,11.3748254 12.5504675,11.3698767 12.5273867,11.3698767 C12.4667837,11.3647973 12.4059399,11.3633515 12.3451702,11.3655466 L11.0532549,11.3655466 C10.3577952,11.3655466 9.81782685,11.1558447 9.44731988,10.7413896 C8.75186012,9.96753401 8.81563591,8.6821048 8.81563591,8.67282596 L8.81563591,8.65426827 L8.79741426,4 L8.29206706,4 C8.29206706,4 3.25074296,4.0049487 1.87561553,4.0049487 C0.500488104,4.0049487 0,5.18026899 0,5.97763099 L0,31.5427026 C0,32.7588498 0.303694211,33.6861157 0.914727,34.2966636 C1.36006015,34.738014 1.95402462,34.9895838 2.57532702,35 L25.4453242,35 C26.060583,34.9851715 26.6471111,34.7318531 27.085273,34.2917149 C27.6926615,33.6861157 28,32.7588498 28,31.5427026 L28,5.97763099 C27.9981778,5.18026899 27.4952602,4.0049487 26.1183106,4.0049487 Z M24.4485998,26.2036557 C24.4485998,27.158758 23.7027267,27.9443668 22.7922515,27.9443668 L5.54241956,27.9443668 C4.63133689,27.9443668 3.88607127,27.161851 3.88607127,26.2067486 C3.88607127,25.2516462 4.63194429,24.4685118 5.54241956,24.4685118 L22.7922515,24.4685118 C23.7033341,24.4685118 24.4485998,25.2510276 24.4485998,26.2067486 L24.4485998,26.2036557 Z M24.4485998,18.2597278 C24.4485998,19.2148302 23.7027267,19.9979646 22.7922515,19.9979646 L5.54241956,19.9979646 C4.63133689,19.9979646 3.88607127,19.2154488 3.88607127,18.2597278 C3.88607127,17.3040069 4.63194429,16.5221096 5.54241956,16.5221096 L22.7922515,16.5221096 C23.7033341,16.5264397 24.4485998,17.3046254 24.4485998,18.2597278 Z" id="形状"></path>
                        </g>
                        <g id="caiwu-3" transform="translate(269.000000, 41.500000) scale(-1, -1) translate(-269.000000, -41.500000) translate(252.000000, 25.000000)" fill-rule="nonzero">
                            <path d="M0,16.5 C0,25.6126984 7.61115925,33 17,33 C26.3888407,33 34,25.6126984 34,16.5 C34,7.38730163 26.3888407,0 17,0 C7.61115925,0 0,7.38730163 0,16.5 Z" id="路径" fill="#28B8BB"></path>
                            <path d="M16.1923077,5 L18.3173077,5 L18.3173077,7.63414634 C22.2403846,7.92682927 24.8557692,9.68292682 26,12.7560976 L22.5673077,13.4878049 C21.9134615,11.4390244 20.6057692,10.4146341 18.3173077,10.2682927 L18.3173077,15.9756098 C21.0961538,16.5609756 23.0576923,17.2926829 23.875,18.1707317 C24.6923077,19.0487805 25.1826923,20.0731707 25.1826923,21.3902439 C25.1826923,24.6097561 22.8942308,26.5121951 18.3173077,26.9512195 L18.3173077,29 L16.1923077,29 L16.1923077,26.9512195 C12.9230769,26.5121951 10.7980769,25.0487805 9.81730772,22.5609756 L13.0865385,21.9756097 C13.5769231,23.4390244 14.7211539,24.3170732 16.1923077,24.3170732 L16.1923077,19.3414634 C14.0673077,18.7560975 12.5961538,18.3170732 11.9423077,18.1707317 C11.2884616,17.8780488 10.6346154,17.2926829 9.98076924,16.4146341 C9.32692308,15.5365854 9,14.5121951 9,13.4878049 C9,11.8780488 9.65384616,10.5609756 10.7980769,9.53658537 C11.9423077,8.51219513 13.7403846,7.92682927 16.0288462,7.63414634 L16.1923077,5 L16.1923077,5 Z M18.3173077,24.3170732 C19.2980769,24.3170732 19.9519231,24.1707317 20.6057692,23.7317073 C21.2596154,23.2926829 21.5865384,22.7073171 21.5865384,21.9756097 C21.5865384,20.6585366 20.4423077,19.7804878 18.3173077,19.6341463 L18.3173077,24.3170732 Z M16.1923077,10.2682927 C15.0480769,10.2682927 14.2307692,10.5609756 13.5769231,11 C12.9230769,11.5853658 12.5961538,12.1707317 12.5961538,13.0487805 C12.5961538,14.5121951 13.7403846,15.3902439 16.1923077,15.6829268 L16.1923077,10.2682927 L16.1923077,10.2682927 Z" id="形状" fill="#E2F5FC"></path>
                        </g>
                        <g id="cuxiao" transform="translate(338.000000, 25.000000)" fill="#28B8BB" fill-rule="nonzero">
                            <path d="M23.5959783,6.28151409 C23.1999156,6.08151409 23.0018842,6.08151409 22.6058216,6.08151409 C21.8136962,6.08151409 21.2196022,6.48151409 20.8235395,7.08151409 C20.6255082,7.48151409 20.4274768,8.08151409 20.6255082,8.68151409 C20.8235395,9.28151409 21.0215709,9.68151409 21.6156649,9.88151409 C22.0117275,10.0815141 22.2097589,10.0815141 22.6058216,10.0815141 C23.3979469,10.0815141 23.9920409,9.68151409 24.3881036,9.08151409 C24.7841663,8.08151409 24.3881036,6.88151409 23.5959783,6.28151409 L23.5959783,6.28151409 Z" id="路径"></path>
                            <path d="M32.86458,13.2428246 L28.3289621,1.23074578 C27.9166332,0.246149156 27.0919754,-0.147689493 26.0611532,0.0492298312 L12.660464,2.2153424 C12.0419706,2.41226173 11.6296417,2.60918105 11.2173128,3.19993903 L0.29059703,21.1195976 C-0.327896317,22.1041942 0.084432581,23.2857101 1.11525483,23.8764681 L19.0515619,33.7224343 C20.0823842,34.3131923 21.3193708,33.9193537 21.9378642,32.934757 L32.6584156,15.0150985 C33.0707445,14.4243405 33.0707445,13.8335826 32.86458,13.2428246 Z M23.5871798,16.7873724 L20.4947131,18.5596463 L21.7316997,19.3473236 C22.1440286,19.544243 22.3501931,20.1350009 22.1440286,20.7257589 C21.9378642,21.1195976 21.3193708,21.3165169 20.7008775,21.1195976 L17.1960819,19.1504043 L16.1652596,20.9226782 L18.0207397,21.9072749 C18.4330686,22.1041942 18.639233,22.6949522 18.4330686,23.2857101 C18.2269041,23.6795488 17.6084108,23.8764681 16.9899174,23.6795488 L15.1344374,22.6949522 L13.6912862,24.8610647 C13.4851218,25.2549034 13.0727929,25.2549034 12.8666284,25.2549034 C12.660464,25.2549034 12.4542995,25.2549034 12.2481351,25.0579841 C11.8358062,24.8610647 11.6296417,24.2703068 11.8358062,23.6795488 L13.2789573,21.3165169 L11.4234773,20.3319203 C11.0111484,20.1350009 10.8049839,19.544243 11.0111484,18.953485 C11.2173128,18.5596463 11.8358062,18.362727 12.4542995,18.5596463 L14.3097796,19.544243 L15.3406018,17.771969 L11.8358062,15.8027758 C11.4234773,15.8027758 11.2173128,15.2120178 11.4234773,14.8181792 C11.8358062,14.2274212 12.4542995,14.0305019 12.8666284,14.4243405 L14.3097796,15.0150985 L14.3097796,11.4705507 C14.3097796,10.8797927 14.7221085,10.485954 15.3406018,10.485954 C15.9590952,10.485954 16.3714241,11.076712 16.3714241,11.4705507 L16.3714241,16.1966145 L18.639233,17.3781304 L22.762522,15.0150985 C23.1748509,14.8181792 23.7933442,14.8181792 24.2056731,15.4089372 C24.4118376,15.8027758 24.2056731,16.5904531 23.5871798,16.7873724 Z M26.0611532,10.2890347 C25.2364954,11.4705507 23.9995087,12.258228 22.5563575,12.258228 C21.9378642,12.258228 21.1132064,12.0613086 20.4947131,11.66747 C18.4330686,10.485954 17.8145752,8.12292214 19.0515619,6.35064822 C19.8762197,5.16913227 21.1132064,4.38145497 22.5563575,4.38145497 C23.1748509,4.38145497 23.9995087,4.5783743 24.618002,4.97221295 C26.4734821,5.95680957 27.2981399,8.31984147 26.0611532,10.2890347 Z" id="形状"></path>
                        </g>
                        <g id="jifen" transform="translate(423.000000, 24.000000)" fill="#28B8BB" fill-rule="nonzero">
                            <path d="M0,8.5 C0,13.1949083 6.9389912,17 15.5,17 C24.0610088,17 31,13.191446 31,8.5 C31,3.808554 24.0610088,0 15.5,0 C6.9389912,0 0,3.79470469 0,8.5 Z" id="路径"></path>
                            <path d="M15.5113485,18.5126714 C10.3408667,18.9049671 5.23754845,17.0723521 1.32842683,13.419547 C0.512689718,14.3605258 0.0444512906,15.5882678 0.0113485448,16.8729848 C0.0113485448,21.5936114 6.95033975,25.419547 15.5113485,25.419547 C24.0723573,25.419547 31.0113485,21.5901301 31.0113485,16.8729848 C30.9782458,15.5882678 30.5100074,14.3605258 29.6942703,13.419547 C25.7851486,17.0723521 20.6818303,18.9049671 15.5113485,18.5126714 L15.5113485,18.5126714 Z" id="路径"></path>
                            <path d="M15.5,27.2739525 C10.278841,27.6885452 5.12650776,25.7848302 1.22624528,22 C0.463535024,22.930732 0.0291679114,24.1238683 0,25.3682977 C0,30.1359507 6.9389912,34 15.5,34 C24.0610088,34 31,30.1324348 31,25.3682977 C30.9708321,24.1238683 30.536465,22.930732 29.7737547,22 C25.8734922,25.7848302 20.721159,27.6885452 15.5,27.2739525 Z" id="路径"></path>
                        </g>
                        <g id="fenzu" transform="translate(506.000000, 22.000000)" fill-rule="nonzero">
                            <polygon id="路径" fill-opacity="0.01" fill="#FFFFFF" points="0 0 39 0 39 38 0 38"></polygon>
                            <path d="M6.93333333,4 L32.0666667,4 C32.5794185,4 33.0711694,4.20412888 33.4337398,4.56748061 C33.7963101,4.93083234 34,5.42364305 34,5.9375 L34,33.0625 C34,34.1325517 33.1344172,35 32.0666667,35 L6.93333333,35 C5.86558282,35 5,34.1325517 5,33.0625 L5,5.9375 C5,4.8674483 5.86558282,4 6.93333333,4 Z M19.5,22.40625 C23.7369,22.40625 27.2333333,19.0534062 28.0298667,14.636875 C29.1632418,14.4886556 30.0380176,13.5649766 30.1265582,12.4229706 C30.2150988,11.2809647 29.4931892,10.2329592 28.3962615,9.91107658 C27.2993338,9.58919394 26.1273869,10.0814658 25.5873005,11.0909701 C25.0472141,12.1004744 25.2866966,13.3511216 26.1613,14.0885625 C25.5948333,17.7310625 22.8069667,20.46875 19.5,20.46875 C16.1930333,20.46875 13.4051667,17.7310625 12.8387,14.0885625 C13.7134278,13.3511217 13.9529558,12.1003562 13.4127895,11.0907867 C12.8726232,10.0812172 11.7005186,9.58899941 10.6035444,9.91106229 C9.50657028,10.2331252 8.78479077,11.2813723 8.87361731,12.4234515 C8.96244385,13.5655308 9.83757901,14.48904 10.9711,14.636875 C11.7676333,19.0524375 15.2631,22.40625 19.5,22.40625 Z" id="形状" fill="#28B8BB"></path>
                        </g>
                        <g id="kucun-2" transform="translate(591.000000, 24.000000)" fill-rule="nonzero">
                            <path d="M28.7951442,8.16203779 L3.20485584,8.16203779 C1.4729388,7.50126368 0,9.0091841 0,10.0257597 L0,24.9524775 C0,25.985996 1.44056651,26.8161994 3.20485584,26.8161994 L14.9236216,26.8161994 L14.9236216,33.7289132 C14.9236216,33.8813995 15.0369246,34 15.1825999,34 L16.7364694,34 C16.8821447,34 16.9954476,33.8813995 16.9954476,33.7289132 L16.9954476,26.8161994 L28.7951442,26.8161994 C30.5594335,26.8161994 32,25.9690531 32,24.9524775 L32,10.0257597 C31.9838139,9.0091841 30.7860395,7.67069294 28.7951442,8.16203779 Z" id="路径" fill="#E2F5FC"></path>
                            <path d="M32,25.795466 L32,9.45491184 L16.781864,17.6594458 L16.7012594,34 L32,25.795466 Z M15.9919395,0 L0.773803526,8.13602015 L15.9919395,16.3405542 L31.2100756,8.13602015 L15.9919395,0 Z M15.056927,33.8458438 L15.1375315,17.590932 L0,9.45491184 L0,25.795466 L15.056927,33.8458438 Z" id="形状" fill="#28B8BB"></path>
                        </g>
                        <g id="zhuanshuyunfuwuqi" transform="translate(419.000000, 255.000000)" fill="#20B4E9" fill-rule="nonzero">
                            <path d="M27.3001667,23 L3.66666666,22.9153532 C1.25583333,22.2418594 0,19.2792223 0,16.5613249 C0.00350726839,13.1466783 2.34964716,10.1842358 5.66316667,9.41051283 C6.45516666,4.09248739 10.9816667,0 16.5,0 C22.0183333,0 26.5448333,4.09248739 27.3368333,9.41051283 C30.6507354,10.1836286 32.9971684,13.1464412 33,16.5613249 C33,19.9858389 30.4571667,22.1774542 27.3001667,23 Z M9.16666667,12.8810305 C7.14162259,12.8810305 5.50000001,14.5287544 5.50000001,16.5613249 C5.50000001,18.5938954 7.14162259,20.2416193 9.16666667,20.2416193 L23.8333333,20.2416193 C25.1433072,20.2416193 26.3537729,19.5401592 27.0087599,18.4014721 C27.6637468,17.2627851 27.6637468,15.8598647 27.0087599,14.7211777 C26.3537729,13.5824906 25.1433072,12.8810305 23.8333333,12.8810305 L9.16666667,12.8810305 L9.16666667,12.8810305 Z" id="形状"></path>
                            <path d="M19.2857143,18 L15.8571428,18 C14.910369,18 14.1428571,17.1045695 14.1428571,16 C14.1428571,14.8954305 14.910369,14 15.8571428,14 L19.2857143,14 C20.2324881,14 21,14.8954305 21,16 C21,17.1045695 20.2324881,18 19.2857143,18 Z M10.7142857,18 C9.76751186,18 9,17.1045695 9,16 C9,14.8954305 9.76751186,14 10.7142857,14 C11.6610596,14 12.4285714,14.8954305 12.4285714,16 C12.4285714,17.1045695 11.6610596,18 10.7142857,18 L10.7142857,18 Z" id="形状"></path>
                        </g>
                        <g id="zhuanshuyunfuwuqi备份" transform="translate(462.000000, 255.000000)" fill="#20B4E9" fill-rule="nonzero">
                            <path d="M27.3001667,23 L3.66666666,22.9153532 C1.25583333,22.2418594 0,19.2792223 0,16.5613249 C0.00350726839,13.1466783 2.34964716,10.1842358 5.66316667,9.41051283 C6.45516666,4.09248739 10.9816667,0 16.5,0 C22.0183333,0 26.5448333,4.09248739 27.3368333,9.41051283 C30.6507354,10.1836286 32.9971684,13.1464412 33,16.5613249 C33,19.9858389 30.4571667,22.1774542 27.3001667,23 Z M9.16666667,12.8810305 C7.14162259,12.8810305 5.50000001,14.5287544 5.50000001,16.5613249 C5.50000001,18.5938954 7.14162259,20.2416193 9.16666667,20.2416193 L23.8333333,20.2416193 C25.1433072,20.2416193 26.3537729,19.5401592 27.0087599,18.4014721 C27.6637468,17.2627851 27.6637468,15.8598647 27.0087599,14.7211777 C26.3537729,13.5824906 25.1433072,12.8810305 23.8333333,12.8810305 L9.16666667,12.8810305 L9.16666667,12.8810305 Z" id="形状"></path>
                            <path d="M19.2857143,18 L15.8571428,18 C14.910369,18 14.1428571,17.1045695 14.1428571,16 C14.1428571,14.8954305 14.910369,14 15.8571428,14 L19.2857143,14 C20.2324881,14 21,14.8954305 21,16 C21,17.1045695 20.2324881,18 19.2857143,18 Z M10.7142857,18 C9.76751186,18 9,17.1045695 9,16 C9,14.8954305 9.76751186,14 10.7142857,14 C11.6610596,14 12.4285714,14.8954305 12.4285714,16 C12.4285714,17.1045695 11.6610596,18 10.7142857,18 L10.7142857,18 Z" id="形状"></path>
                        </g>
                        <g id="zhuanshuyunfuwuqi备份-2" transform="translate(504.000000, 255.000000)" fill="#20B4E9" fill-rule="nonzero">
                            <path d="M27.3001667,23 L3.66666666,22.9153532 C1.25583333,22.2418594 0,19.2792223 0,16.5613249 C0.00350726839,13.1466783 2.34964716,10.1842358 5.66316667,9.41051283 C6.45516666,4.09248739 10.9816667,0 16.5,0 C22.0183333,0 26.5448333,4.09248739 27.3368333,9.41051283 C30.6507354,10.1836286 32.9971684,13.1464412 33,16.5613249 C33,19.9858389 30.4571667,22.1774542 27.3001667,23 Z M9.16666667,12.8810305 C7.14162259,12.8810305 5.50000001,14.5287544 5.50000001,16.5613249 C5.50000001,18.5938954 7.14162259,20.2416193 9.16666667,20.2416193 L23.8333333,20.2416193 C25.1433072,20.2416193 26.3537729,19.5401592 27.0087599,18.4014721 C27.6637468,17.2627851 27.6637468,15.8598647 27.0087599,14.7211777 C26.3537729,13.5824906 25.1433072,12.8810305 23.8333333,12.8810305 L9.16666667,12.8810305 L9.16666667,12.8810305 Z" id="形状"></path>
                            <path d="M19.2857143,18 L15.8571428,18 C14.910369,18 14.1428571,17.1045695 14.1428571,16 C14.1428571,14.8954305 14.910369,14 15.8571428,14 L19.2857143,14 C20.2324881,14 21,14.8954305 21,16 C21,17.1045695 20.2324881,18 19.2857143,18 Z M10.7142857,18 C9.76751186,18 9,17.1045695 9,16 C9,14.8954305 9.76751186,14 10.7142857,14 C11.6610596,14 12.4285714,14.8954305 12.4285714,16 C12.4285714,17.1045695 11.6610596,18 10.7142857,18 L10.7142857,18 Z" id="形状"></path>
                        </g>
                        <g id="zhuanshuyunfuwuqi备份-3" transform="translate(547.000000, 255.000000)" fill="#20B4E9" fill-rule="nonzero">
                            <path d="M27.3001667,23 L3.66666666,22.9153532 C1.25583333,22.2418594 0,19.2792223 0,16.5613249 C0.00350726839,13.1466783 2.34964716,10.1842358 5.66316667,9.41051283 C6.45516666,4.09248739 10.9816667,0 16.5,0 C22.0183333,0 26.5448333,4.09248739 27.3368333,9.41051283 C30.6507354,10.1836286 32.9971684,13.1464412 33,16.5613249 C33,19.9858389 30.4571667,22.1774542 27.3001667,23 Z M9.16666667,12.8810305 C7.14162259,12.8810305 5.50000001,14.5287544 5.50000001,16.5613249 C5.50000001,18.5938954 7.14162259,20.2416193 9.16666667,20.2416193 L23.8333333,20.2416193 C25.1433072,20.2416193 26.3537729,19.5401592 27.0087599,18.4014721 C27.6637468,17.2627851 27.6637468,15.8598647 27.0087599,14.7211777 C26.3537729,13.5824906 25.1433072,12.8810305 23.8333333,12.8810305 L9.16666667,12.8810305 L9.16666667,12.8810305 Z" id="形状"></path>
                            <path d="M19.2857143,18 L15.8571428,18 C14.910369,18 14.1428571,17.1045695 14.1428571,16 C14.1428571,14.8954305 14.910369,14 15.8571428,14 L19.2857143,14 C20.2324881,14 21,14.8954305 21,16 C21,17.1045695 20.2324881,18 19.2857143,18 Z M10.7142857,18 C9.76751186,18 9,17.1045695 9,16 C9,14.8954305 9.76751186,14 10.7142857,14 C11.6610596,14 12.4285714,14.8954305 12.4285714,16 C12.4285714,17.1045695 11.6610596,18 10.7142857,18 L10.7142857,18 Z" id="形状"></path>
                        </g>
                    </g>
                </g>
            </g>
        </g>
    </g>
</svg>