<?xml version="1.0" encoding="UTF-8"?>
<svg width="707px" height="582px" viewBox="0 0 707 582" version="1.1" xmlns="http://www.w3.org/2000/svg" xmlns:xlink="http://www.w3.org/1999/xlink">
    <!-- Generator: Sketch 64 (93537) - https://sketch.com -->
    <title>编组 5</title>
    <desc>Created with Sketch.</desc>
    <g id="产品" stroke="none" stroke-width="1" fill="none" fill-rule="evenodd">
        <g id="基础服务-云主机02✅" transform="translate(-421.000000, -5036.000000)">
            <g id="产品介绍-2备份-5" transform="translate(0.000000, 4709.000000)">
                <g id="编组-16" transform="translate(373.000000, 256.000000)">
                    <g id="编组-5" transform="translate(48.000000, 71.000000)">
                        <path id="路径-3备份" d="M349.03235,101.999422 L350.032349,102.000578 L349.977,149.5 L353.977468,149.505205 L349.467073,158.5 L344.977474,149.494807 L348.977,149.499 L349.03235,101.999422 Z" fill="#20B4E9" fill-rule="nonzero"></path>
                        <rect id="矩形备份-11" fill="#E2F5FC" x="261" y="12" width="446" height="110"></rect>
                        <rect id="矩形备份-16" fill="#E2F5FC" x="0" y="160" width="707" height="257"></rect>
                        <rect id="矩形备份-41" fill="#00AAE7" opacity="0.854399182" x="261" y="0" width="446" height="40"></rect>
                        <text id="弹性云服务器" font-family="PingFangSC-Regular, PingFang SC" font-size="16" font-weight="normal" line-spacing="18" fill="#FFFFFF">
                            <tspan x="436" y="28">弹性云服务器</tspan>
                        </text>
                        <path id="路径-3备份" d="M348.03235,416.999126 L349.032349,417.000874 L348.982,445.5 L352.982507,445.507882 L348.466776,454.499999 L343.982521,445.492144 L347.982,445.499 L348.03235,416.999126 Z" fill="#20B4E9" fill-rule="nonzero"></path>
                        <path id="路径-15备份-4" d="M305.5,339 L314.5,343.5 L305.5,348 L305.5,344 L155.5,344 L155.5,348 L146.5,343.5 L155.5,339 L155.5,343 L305.5,343 L305.5,339 Z" fill="#21B4E9" fill-rule="nonzero"></path>
                        <path id="路径-15备份-4" d="M553.5,339 L562.5,343.5 L553.5,348 L553.5,344 L392.5,344 L392.5,348 L383.5,343.5 L392.5,339 L392.5,343 L553.5,343 L553.5,339 Z" fill="#21B4E9" fill-rule="nonzero"></path>
                        <path id="直线-9备份-4" d="M349,270.5 L349,306.5 L353,306.5 L348.5,315.5 L344,306.5 L348,306.5 L348,270.5 L349,270.5 Z" fill="#21B4E9" fill-rule="nonzero"></path>
                        <path id="路径-13备份-2" d="M357.5,60.5 L366.5,65 L357.5,69.5 L357.5,65.5 L340.5,65.5 L340.5,540.5 L357.5,540.5 L357.5,536.5 L366.5,541 L357.5,545.5 L357.5,541.5 L339.5,541.5 L339.5,64.5 L357.5,64.5 L357.5,60.5 Z" fill="#21B4E9" fill-rule="nonzero"></path>
                        <text id="QVM弹性-云主机实例" font-family="PingFangSC-Regular, PingFang SC" font-size="14" font-weight="normal" line-spacing="18" fill="#00AAE7">
                            <tspan x="84.984" y="373">QVM弹性</tspan>
                            <tspan x="80" y="391">云主机实例</tspan>
                        </text>
                        <text id="QVM弹性-云主机实例" font-family="PingFangSC-Regular, PingFang SC" font-size="14" font-weight="normal" line-spacing="18" fill="#00AAE7">
                            <tspan x="318.984" y="372">QVM弹性</tspan>
                            <tspan x="314" y="390">云主机实例</tspan>
                        </text>
                        <text id="QVM弹性-云主机实例" font-family="PingFangSC-Regular, PingFang SC" font-size="14" font-weight="normal" line-spacing="18" fill="#00AAE7">
                            <tspan x="560.984" y="372">QVM弹性</tspan>
                            <tspan x="556" y="390">云主机实例</tspan>
                        </text>
                        <text id="高速网络" font-family="PingFangSC-Regular, PingFang SC" font-size="14" font-weight="normal" line-spacing="18" fill="#00AAE7">
                            <tspan x="203" y="336">高速网络</tspan>
                        </text>
                        <text id="高速网络备份-2" font-family="PingFangSC-Regular, PingFang SC" font-size="14" font-weight="normal" line-spacing="18" fill="#00AAE7">
                            <tspan x="447" y="336">高速网络</tspan>
                        </text>
                        <text id="结果输出" font-family="PingFangSC-Regular, PingFang SC" font-size="14" font-weight="normal" line-spacing="18" fill="#00AAE7">
                            <tspan x="356" y="433">结果输出</tspan>
                        </text>
                        <g id="zhuanshuyunfuwuqi" transform="translate(99.000000, 331.000000)" fill="#20B4E9" fill-rule="nonzero">
                            <path d="M27.3001667,23 L3.66666666,22.9153532 C1.25583333,22.2418594 0,19.2792223 0,16.5613249 C0.00350726839,13.1466783 2.34964716,10.1842358 5.66316667,9.41051283 C6.45516666,4.09248739 10.9816667,0 16.5,0 C22.0183333,0 26.5448333,4.09248739 27.3368333,9.41051283 C30.6507354,10.1836286 32.9971684,13.1464412 33,16.5613249 C33,19.9858389 30.4571667,22.1774542 27.3001667,23 Z M9.16666667,12.8810305 C7.14162259,12.8810305 5.50000001,14.5287544 5.50000001,16.5613249 C5.50000001,18.5938954 7.14162259,20.2416193 9.16666667,20.2416193 L23.8333333,20.2416193 C25.1433072,20.2416193 26.3537729,19.5401592 27.0087599,18.4014721 C27.6637468,17.2627851 27.6637468,15.8598647 27.0087599,14.7211777 C26.3537729,13.5824906 25.1433072,12.8810305 23.8333333,12.8810305 L9.16666667,12.8810305 L9.16666667,12.8810305 Z" id="形状"></path>
                            <path d="M19.2857143,18 L15.8571428,18 C14.910369,18 14.1428571,17.1045695 14.1428571,16 C14.1428571,14.8954305 14.910369,14 15.8571428,14 L19.2857143,14 C20.2324881,14 21,14.8954305 21,16 C21,17.1045695 20.2324881,18 19.2857143,18 Z M10.7142857,18 C9.76751186,18 9,17.1045695 9,16 C9,14.8954305 9.76751186,14 10.7142857,14 C11.6610596,14 12.4285714,14.8954305 12.4285714,16 C12.4285714,17.1045695 11.6610596,18 10.7142857,18 L10.7142857,18 Z" id="形状"></path>
                        </g>
                        <g id="zhuanshuyunfuwuqi备份-5" transform="translate(332.000000, 330.000000)" fill="#20B4E9" fill-rule="nonzero">
                            <path d="M27.3001667,23 L3.66666666,22.9153532 C1.25583333,22.2418594 0,19.2792223 0,16.5613249 C0.00350726839,13.1466783 2.34964716,10.1842358 5.66316667,9.41051283 C6.45516666,4.09248739 10.9816667,0 16.5,0 C22.0183333,0 26.5448333,4.09248739 27.3368333,9.41051283 C30.6507354,10.1836286 32.9971684,13.1464412 33,16.5613249 C33,19.9858389 30.4571667,22.1774542 27.3001667,23 Z M9.16666667,12.8810305 C7.14162259,12.8810305 5.50000001,14.5287544 5.50000001,16.5613249 C5.50000001,18.5938954 7.14162259,20.2416193 9.16666667,20.2416193 L23.8333333,20.2416193 C25.1433072,20.2416193 26.3537729,19.5401592 27.0087599,18.4014721 C27.6637468,17.2627851 27.6637468,15.8598647 27.0087599,14.7211777 C26.3537729,13.5824906 25.1433072,12.8810305 23.8333333,12.8810305 L9.16666667,12.8810305 L9.16666667,12.8810305 Z" id="形状"></path>
                            <path d="M19.2857143,18 L15.8571428,18 C14.910369,18 14.1428571,17.1045695 14.1428571,16 C14.1428571,14.8954305 14.910369,14 15.8571428,14 L19.2857143,14 C20.2324881,14 21,14.8954305 21,16 C21,17.1045695 20.2324881,18 19.2857143,18 Z M10.7142857,18 C9.76751186,18 9,17.1045695 9,16 C9,14.8954305 9.76751186,14 10.7142857,14 C11.6610596,14 12.4285714,14.8954305 12.4285714,16 C12.4285714,17.1045695 11.6610596,18 10.7142857,18 L10.7142857,18 Z" id="形状"></path>
                        </g>
                        <g id="zhuanshuyunfuwuqi备份-6" transform="translate(575.000000, 330.000000)" fill="#20B4E9" fill-rule="nonzero">
                            <path d="M27.3001667,23 L3.66666666,22.9153532 C1.25583333,22.2418594 0,19.2792223 0,16.5613249 C0.00350726839,13.1466783 2.34964716,10.1842358 5.66316667,9.41051283 C6.45516666,4.09248739 10.9816667,0 16.5,0 C22.0183333,0 26.5448333,4.09248739 27.3368333,9.41051283 C30.6507354,10.1836286 32.9971684,13.1464412 33,16.5613249 C33,19.9858389 30.4571667,22.1774542 27.3001667,23 Z M9.16666667,12.8810305 C7.14162259,12.8810305 5.50000001,14.5287544 5.50000001,16.5613249 C5.50000001,18.5938954 7.14162259,20.2416193 9.16666667,20.2416193 L23.8333333,20.2416193 C25.1433072,20.2416193 26.3537729,19.5401592 27.0087599,18.4014721 C27.6637468,17.2627851 27.6637468,15.8598647 27.0087599,14.7211777 C26.3537729,13.5824906 25.1433072,12.8810305 23.8333333,12.8810305 L9.16666667,12.8810305 L9.16666667,12.8810305 Z" id="形状"></path>
                            <path d="M19.2857143,18 L15.8571428,18 C14.910369,18 14.1428571,17.1045695 14.1428571,16 C14.1428571,14.8954305 14.910369,14 15.8571428,14 L19.2857143,14 C20.2324881,14 21,14.8954305 21,16 C21,17.1045695 20.2324881,18 19.2857143,18 Z M10.7142857,18 C9.76751186,18 9,17.1045695 9,16 C9,14.8954305 9.76751186,14 10.7142857,14 C11.6610596,14 12.4285714,14.8954305 12.4285714,16 C12.4285714,17.1045695 11.6610596,18 10.7142857,18 L10.7142857,18 Z" id="形状"></path>
                        </g>
                        <g id="danxingshensuo" transform="translate(329.000000, 216.000000)" fill-rule="nonzero">
                            <path d="M19.9973985,21.9825249 C18.2336108,21.8534648 16.4776275,19.0698148 15,16.5012651 C16.4776275,13.9301848 18.2336108,11.1465349 19.9973985,11.0174747 C22.9448491,10.7998439 23.8449532,12.6142775 25,16.5012651 C23.8449532,20.3857221 22.9448491,22.2001557 19.9973985,21.9825249 L19.9973985,21.9825249 Z" id="路径" fill="#1D97E3"></path>
                            <path d="M19.9986989,11.0174707 C18.2344523,11.1465014 16.478012,13.9295164 15,16.5000103 C16.478012,19.0705041 18.2344523,21.8509891 19.9986989,21.9825498 C22.9469165,22.200131 23.8446526,20.3835812 25,16.5000103 C23.8472547,12.6139093 22.9469165,10.7998896 19.9986989,11.0174707 L19.9986989,11.0174707 Z" id="路径" fill="#20B4E9"></path>
                            <path d="M34.8049908,11.282024 C34.6774909,5.02583222 30.5674919,0 25.5124933,0 C22.5524941,0 19.9149948,1.7249889 18.2124952,4.40940968 C17.2574955,2.87332446 15.7624958,1.88406569 14.0824963,1.88406569 C11.1974971,1.88406569 8.85999767,4.79467377 8.85999767,8.38384376 C8.85999767,8.69702619 8.87749766,9.00523746 8.91249765,9.30599201 C8.46964001,9.20528096 8.0167927,9.15442114 7.56249801,9.15437195 C3.4049991,9.15437195 0.0349999908,13.3326232 0,18.4976476 L0,18.6567244 C0.0349999908,23.8242344 3.4049991,28 7.56249801,28 L33.2024913,28 C36.9574903,27.9900577 40,24.1970706 40,19.5192188 C40.0024895,15.5298713 37.78749,12.1842876 34.8049908,11.282024 L34.8049908,11.282024 Z M27.9974926,18.8381713 C28.3624925,19.4819352 28.6099925,19.4869063 28.7724924,19.4893919 C29.7699922,19.5067909 30.1849921,19.2557479 30.482492,18.9848202 C30.9649918,18.5473591 31.3999917,17.7619174 31.9174916,16.782601 L34.6124909,18.196893 C33.9549911,19.4446516 33.3824912,20.4612517 32.5324914,21.2342654 C31.5299917,22.1415002 30.319992,22.5541056 28.7249924,22.5267643 C27.9734527,22.5224156 27.2426333,22.281375 26.637493,21.8382601 C26.2860629,21.5654399 25.9783825,21.2410967 25.7249932,20.8763427 C25.4674933,21.4306258 25.1849934,21.9699956 24.8299935,22.4571682 C23.5674938,24.1970706 21.8174943,25.0744785 19.6199948,25.0744785 C19.4049949,25.0744785 19.1849949,25.0670217 18.962495,25.0496227 C17.3074954,24.925344 15.7774958,23.9559698 14.2849962,22.0917887 C13.6870866,21.328109 13.1392855,20.5269231 12.6449967,19.6932091 C12.3324968,20.207723 12.0199988,20.6924101 11.6999969,21.1149578 C11.3270979,21.6348125 10.8808524,22.098574 10.3749973,22.4919663 C9.83905363,22.9141337 9.17863479,23.149884 8.49499776,23.1630715 L8.37499779,23.1605859 C6.40249831,23.0760763 5.22999862,20.9707945 4.51999881,19.3874834 L4.51999881,19.3775411 L7.29499808,18.1372392 C7.90749792,19.5018198 8.3424978,19.9541944 8.50999776,20.0884154 C8.64749772,19.9989348 8.95999764,19.7354638 9.46749751,19.0121616 C9.92249739,18.360941 10.3999973,17.5282734 10.8999971,16.6359521 C10.3999973,15.7411451 9.92249739,14.9109632 9.46749751,14.2597426 C8.96249764,13.5339547 8.64999772,13.2704838 8.50999776,13.1810031 C8.3424978,13.3152241 7.90749792,13.7675988 7.29499808,15.1321793 L4.51999881,13.8918775 L4.51999881,13.8819352 C5.23249862,12.2986241 6.40249831,10.1933422 8.37749779,10.1088327 C9.06249761,10.0790058 9.73499744,10.3027075 10.3749973,10.7774523 C10.8149972,11.1030626 11.247497,11.5529516 11.6999969,12.1544607 C12.0174968,12.5770084 12.3299968,13.0616955 12.6449967,13.5762095 C13.1574965,12.7286285 13.6974964,11.91336 14.2849962,11.1776298 C15.7749958,9.31096316 17.3049954,8.34407457 18.959995,8.21979583 C21.4674943,8.03089214 23.4424938,8.90332889 24.8274935,10.8122503 C25.1824934,11.299423 25.4649933,11.8387927 25.7224932,12.3930759 C25.9999932,12.0152685 26.2924931,11.6797159 26.634993,11.4311585 C27.2449928,10.9862406 27.9474926,10.7550821 28.7224924,10.7426542 C30.317492,10.7153129 31.5299917,11.1279183 32.5299914,12.0351531 C33.3824912,12.8081669 33.9524911,13.8222814 34.6099909,15.0725255 L31.9149916,16.4868176 C31.3974917,15.5075011 30.9649918,14.7220595 30.479992,14.2845983 C30.1799921,14.0136707 29.7649922,13.7651132 28.7699924,13.7800266 C28.6099925,13.7849978 28.3624925,13.7874834 27.9974926,14.4337328 C27.6849927,14.9855304 27.4249928,15.7734576 27.1699928,16.6359521 C27.4249928,17.4984465 27.6849927,18.2863737 27.9974926,18.8381713 L27.9974926,18.8381713 Z" id="形状" fill="#20B4E9"></path>
                        </g>
                        <text id="弹性伸缩服务" font-family="PingFangSC-Regular, PingFang SC" font-size="14" font-weight="normal" line-spacing="18" fill="#00AAE7">
                            <tspan x="307" y="266">弹性伸缩服务</tspan>
                        </text>
                        <rect id="矩形备份-17" fill="#E2F2F3" x="0" y="455" width="707" height="127"></rect>
                        <text id="云硬盘" font-family="PingFangSC-Regular, PingFang SC" font-size="14" font-weight="normal" line-spacing="18" fill="#28B8BB">
                            <tspan x="97" y="560">云硬盘</tspan>
                        </text>
                        <text id="对象存储服务" font-family="PingFangSC-Regular, PingFang SC" font-size="14" font-weight="normal" line-spacing="18" fill="#28B8BB">
                            <tspan x="309" y="559">对象存储服务</tspan>
                        </text>
                        <text id="Nas文件系统" font-family="PingFangSC-Regular, PingFang SC" font-size="14" font-weight="normal" line-spacing="18" fill="#28B8BB">
                            <tspan x="551" y="559">Nas文件系统</tspan>
                        </text>
                        <g id="对象存储备份" transform="translate(338.000000, 514.000000)">
                            <rect id="矩形" fill="#28B8BB" x="0" y="0" width="21" height="7"></rect>
                            <rect id="矩形备份-2" fill="#28B8BB" x="0" y="8" width="21" height="7"></rect>
                            <rect id="矩形备份-3" fill="#28B8BB" x="0" y="16" width="21" height="8"></rect>
                            <line x1="4" y1="4" x2="7" y2="4" id="直线-2" stroke="#E2F5FC" stroke-width="1.9602" stroke-linecap="square"></line>
                            <line x1="4" y1="12" x2="7" y2="12" id="直线-2" stroke="#E2F5FC" stroke-width="1.9602" stroke-linecap="square"></line>
                            <line x1="4" y1="20" x2="7" y2="20" id="直线-2" stroke="#E2F5FC" stroke-width="1.9602" stroke-linecap="square"></line>
                        </g>
                        <rect id="矩形备份-41" fill="#28B8BB" opacity="0.854399182" x="0" y="455" width="707" height="40"></rect>
                        <text id="存储集群" font-family="PingFangSC-Regular, PingFang SC" font-size="16" font-weight="normal" line-spacing="18" fill="#FFFFFF">
                            <tspan x="321" y="483">存储集群</tspan>
                        </text>
                        <rect id="矩形备份-41" fill="#00AAE7" opacity="0.854399182" x="0" y="160" width="707" height="40"></rect>
                        <text id="计算集群" font-family="PingFangSC-Regular, PingFang SC" font-size="16" font-weight="normal" line-spacing="18" fill="#FFFFFF">
                            <tspan x="321" y="188">计算集群</tspan>
                        </text>
                        <path id="路径-15备份-4" d="M250.5,55 L259.5,59.5 L250.5,64 L250.5,60 L126,60 L126,59 L250.5,59 L250.5,55 Z" fill="#21B4E9" fill-rule="nonzero"></path>
                        <text id="业务接入" font-family="PingFangSC-Regular, PingFang SC" font-size="14" font-weight="normal" line-spacing="18" fill="#789BAE">
                            <tspan x="66" y="92">业务接入</tspan>
                        </text>
                        <text id="QVM云主机实例" font-family="PingFangSC-Regular, PingFang SC" font-size="14" font-weight="normal" line-spacing="18" fill="#20B4E9">
                            <tspan x="300" y="109">QVM云主机实例</tspan>
                        </text>
                        <text id="QVM云主机实例" font-family="PingFangSC-Regular, PingFang SC" font-size="14" font-weight="normal" line-spacing="18" fill="#20B4E9">
                            <tspan x="432" y="109">QVM云主机实例</tspan>
                        </text>
                        <text id="QVM云主机实例" font-family="PingFangSC-Regular, PingFang SC" font-size="14" font-weight="normal" line-spacing="18" fill="#20B4E9">
                            <tspan x="567" y="109">QVM云主机实例</tspan>
                        </text>
                        <g id="yunyingpan" transform="translate(106.000000, 514.000000)" fill="#28B8BB" fill-rule="nonzero">
                            <path d="M24,22.4931507 C24,24.4109589 22.4830769,26 20.6523077,26 L10.3476923,26 C8.51692306,26 7,24.4109589 7,22.4931507 C7,20.739726 8.20307693,19.260274 9.82461539,19.0410959 C9.82461539,18.9315068 9.7723077,18.7671233 9.77230768,18.6575342 C9.77230768,17.4520548 10.7138461,16.4109589 11.8646154,16.4109589 C12.3876923,16.4109589 12.8584615,16.630137 13.2246154,16.9589041 C13.9046154,15.4246575 14.7415385,14 17.0953846,14 C19.9723077,14 21.3323077,16.3013699 21.3323077,18.7671233 L21.3323077,19.0958904 C22.8492308,19.369863 24,20.7945205 24,22.4931507 Z" id="路径"></path>
                            <path d="M23.4,17.6041667 C23.6,17.7125 23.8,17.875 24,18.0375 L24,17.875 C24,17.6041667 23.75,17.3333333 23.5,17.3333333 L23.35,17.3333333 C23.35,17.4416667 23.4,17.55 23.4,17.6041667 L23.4,17.6041667 Z M5.74999999,22.5333333 C5.74999999,20.3666667 6.84999998,18.4708333 8.55,17.4958333 C8.55,17.4416667 8.59999999,17.3875 8.59999999,17.3333333 L0.5,17.3333333 C0.249999984,17.3333333 0,17.6041667 0,17.875 L0,25.4583333 C0,25.7291667 0.250000008,26 0.5,26 L6.9,26 C6.19999999,25.025 5.74999999,23.8333333 5.74999999,22.5333333 L5.74999999,22.5333333 Z M23.5,0 L0.5,0 C0.199999992,0 0,0.216666658 0,0.541666658 L0,5.95833334 C0,6.28333334 0.199999992,6.5 0.5,6.5 L23.5,6.5 C23.75,6.5 24,6.28333334 24,5.95833334 L24,0.541666658 C24,0.216666658 23.75,0 23.5,0 Z M8.5,3.79166666 C8.5,4.0625 8.25,4.33333334 8,4.33333334 L2,4.33333334 C1.74999998,4.33333334 1.5,4.0625 1.5,3.79166666 L1.5,2.70833334 C1.5,2.4375 1.75000001,2.16666666 2,2.16666666 L8,2.16666666 C8.25,2.16666666 8.5,2.4375 8.5,2.70833334 L8.5,3.79166666 L8.5,3.79166666 Z M23.5,8.66666666 L0.5,8.66666666 C0.249999984,8.66666666 0,8.9375 0,9.20833334 L0,14.625 C0,14.8958333 0.250000008,15.1666667 0.5,15.1666667 L10.1,15.1666667 C10.75,14.625 11.55,14.3541667 12.45,14.3541667 L12.85,14.3541667 C13.65,13.1625 15,11.9166667 17.45,11.9166667 C19.8,11.9166667 21.65,13.1625 22.65,15.1666667 L23.5,15.1666667 C23.75,15.1666667 24,14.8958333 24,14.625 L24,9.20833334 C24,8.9375 23.75,8.66666666 23.5,8.66666666 Z M8.5,12.4583333 C8.5,12.7291667 8.25,13 8,13 L2,13 C1.74999998,13 1.5,12.7291667 1.5,12.4583333 L1.5,11.375 C1.5,11.1041667 1.75000001,10.8333333 2,10.8333333 L8,10.8333333 C8.25,10.8333333 8.5,11.1041667 8.5,11.375 L8.5,12.4583333 Z" id="形状"></path>
                        </g>
                        <g id="wenjian" transform="translate(581.000000, 514.000000)" fill-rule="nonzero">
                            <path d="M2,0 L15,0 L24,7.80173334 L24,24.2666667 C24,25.2239602 23.1045695,26 22,26 L2,26 C0.895430505,26 0,25.2239602 0,24.2666667 L0,1.73333334 C0,0.776039771 0.895430505,0 2,0 Z" id="路径" fill="#28B8BB"></path>
                            <path d="M5,13.125 L20.2,13.125 L20.2,15.75 L5,15.75 L5,13.125 Z M5,18.375 L20.2,18.375 L20.2,21 L5,21 L5,18.375 Z M15.45,0 L24,7.875 L17.35,7.875 C16.300659,7.875 15.45,7.09149831 15.45,6.12499999 L15.45,0 Z" id="形状" fill-opacity="0.781850962" fill="#FFFFFF"></path>
                        </g>
                        <g id="yewushenqing" transform="translate(70.000000, 23.000000)" fill-rule="nonzero">
                            <path d="M25.0027075,43.1497834 L25.0027075,48 L29.865319,48 L43.9197826,33.8028967 L39.0625859,28.9416318 L25,43.1497834 L25.0027075,43.1497834 Z M44.7022407,25.3785455 C44.4654325,25.1330924 44.1409315,24.9964857 43.8033615,25.0000687 C43.4660861,25.002142 43.1427845,25.137835 42.9017748,25.3785455 L40.6004275,27.6848843 L45.4549166,32.537863 L47.6208906,30.0961822 C47.8649569,29.8632092 48.0023941,29.5367213 47.9999684,29.1957433 C47.9966955,28.8559645 47.8601806,28.5316675 47.6208906,28.2953045 L44.7022407,25.3785455 L44.7022407,25.3785455 Z" id="形状" fill="#789BAE"></path>
                            <path d="M35.2325356,0 L6.7593369,0 C3.03154228,0 0,2.96309672 0,6.6195689 L0,41.3804311 C0,45.0314863 3.02883313,48 6.7593369,48 L18.9180159,48 L18.9180159,42.0683896 L42,18.9459429 L42,6.6195689 C41.9918725,2.96309672 38.9657486,0 35.2325356,0 Z" id="路径" fill="#789BAE"></path>
                            <path d="M25.5718005,32 L12,32 L12,26.3324272 L25.5718005,26.3324272 L25.5718005,32 Z M31,20.6675728 L12,20.6675728 L12,15 L31,15 L31,20.6675728 Z" id="形状" fill="#FFFFFF"></path>
                        </g>
                        <g id="yunfuwuqiECS" transform="translate(328.000000, 56.000000)" fill="#20B4E9" fill-rule="nonzero">
                            <path d="M36.5048544,9.50320463 C36.0227653,9.50320463 35.5406763,9.54040957 35.0746568,9.59887447 C33.719451,4.07659841 29.0056913,0 23.3973887,0 C17.0338132,0 11.8218949,5.25121151 11.3665886,11.9108957 C11.0451958,11.8790058 10.7184466,11.8577458 10.3916974,11.8577458 C4.65483763,11.8577458 0,16.8166328 0,22.9288729 C0,28.9507582 4.51021091,33.8405503 10.1238701,33.994685 L10.1238701,34 L36.5048544,34 C42.8523602,34 48,28.5149289 48,21.7489448 C48,14.9935907 42.8523602,9.50320463 36.5048544,9.50320463 L36.5048544,9.50320463 Z M33.0498828,28.9348132 C33.0498828,29.4078474 32.6802812,29.7905268 32.2303314,29.7905268 L14.6287245,29.7905268 C14.1787747,29.7905268 13.8091731,29.4078474 13.8091731,28.9348132 L13.8091731,26.5058621 C13.8091731,26.0328279 14.1787747,25.6501485 14.6287245,25.6501485 L32.2303314,25.6501485 C32.6802812,25.6501485 33.0498828,26.0328279 33.0498828,26.5058621 L33.0498828,28.9348132 Z M33.0498828,22.9713928 C33.0498828,23.4444271 32.6802812,23.8271065 32.2303314,23.8271065 L14.6287245,23.8271065 C14.1787747,23.8271065 13.8091731,23.4444271 13.8091731,22.9713928 L13.8091731,20.5424418 C13.8091731,20.0694075 14.1787747,19.6867282 14.6287245,19.6867282 L32.2303314,19.6867282 C32.6802812,19.6867282 33.0498828,20.0694075 33.0498828,20.5424418 L33.0498828,22.9713928 Z M33.0498828,17.0079725 C33.0498828,17.4810067 32.6802812,17.8636861 32.2303314,17.8636861 L14.6287245,17.8636861 C14.1787747,17.8636861 13.8091731,17.4756917 13.8091731,17.0079725 L13.8091731,14.5790214 C13.8091731,14.1059872 14.1787747,13.7233078 14.6287245,13.7233078 L32.2303314,13.7233078 C32.6802812,13.7233078 33.0498828,14.1059872 33.0498828,14.5790214 L33.0498828,17.0079725 L33.0498828,17.0079725 Z" id="形状"></path>
                            <path d="M31,15.5 C31,16.3253275 30.3309859,17 29.5,17 C28.6690141,17 28,16.3318777 28,15.5 C28,14.6746725 28.6690141,14 29.5,14 C30.3239437,14.0065502 31,14.6746725 31,15.5 Z M31,21.4967177 C31,22.3238512 30.3309859,23 29.5,23 C28.6690141,23 28,22.3304158 28,21.4967177 C28,20.6695842 28.6690141,20 29.5,20 C30.3239437,20 31,20.6695842 31,21.4967177 Z M31,27.4967177 C31,28.3238512 30.3309859,29 29.5,29 C28.6690141,29 28,28.3304158 28,27.4967177 C28,26.6695842 28.6690141,26 29.5,26 C30.3239437,26 31,26.6695842 31,27.4967177 Z" id="形状"></path>
                        </g>
                        <g id="yunfuwuqiECS备份" transform="translate(461.000000, 56.000000)" fill="#20B4E9" fill-rule="nonzero">
                            <path d="M36.5048544,9.50320463 C36.0227653,9.50320463 35.5406763,9.54040957 35.0746568,9.59887447 C33.719451,4.07659841 29.0056913,0 23.3973887,0 C17.0338132,0 11.8218949,5.25121151 11.3665886,11.9108957 C11.0451958,11.8790058 10.7184466,11.8577458 10.3916974,11.8577458 C4.65483763,11.8577458 0,16.8166328 0,22.9288729 C0,28.9507582 4.51021091,33.8405503 10.1238701,33.994685 L10.1238701,34 L36.5048544,34 C42.8523602,34 48,28.5149289 48,21.7489448 C48,14.9935907 42.8523602,9.50320463 36.5048544,9.50320463 L36.5048544,9.50320463 Z M33.0498828,28.9348132 C33.0498828,29.4078474 32.6802812,29.7905268 32.2303314,29.7905268 L14.6287245,29.7905268 C14.1787747,29.7905268 13.8091731,29.4078474 13.8091731,28.9348132 L13.8091731,26.5058621 C13.8091731,26.0328279 14.1787747,25.6501485 14.6287245,25.6501485 L32.2303314,25.6501485 C32.6802812,25.6501485 33.0498828,26.0328279 33.0498828,26.5058621 L33.0498828,28.9348132 Z M33.0498828,22.9713928 C33.0498828,23.4444271 32.6802812,23.8271065 32.2303314,23.8271065 L14.6287245,23.8271065 C14.1787747,23.8271065 13.8091731,23.4444271 13.8091731,22.9713928 L13.8091731,20.5424418 C13.8091731,20.0694075 14.1787747,19.6867282 14.6287245,19.6867282 L32.2303314,19.6867282 C32.6802812,19.6867282 33.0498828,20.0694075 33.0498828,20.5424418 L33.0498828,22.9713928 Z M33.0498828,17.0079725 C33.0498828,17.4810067 32.6802812,17.8636861 32.2303314,17.8636861 L14.6287245,17.8636861 C14.1787747,17.8636861 13.8091731,17.4756917 13.8091731,17.0079725 L13.8091731,14.5790214 C13.8091731,14.1059872 14.1787747,13.7233078 14.6287245,13.7233078 L32.2303314,13.7233078 C32.6802812,13.7233078 33.0498828,14.1059872 33.0498828,14.5790214 L33.0498828,17.0079725 L33.0498828,17.0079725 Z" id="形状"></path>
                            <path d="M31,15.5 C31,16.3253275 30.3309859,17 29.5,17 C28.6690141,17 28,16.3318777 28,15.5 C28,14.6746725 28.6690141,14 29.5,14 C30.3239437,14.0065502 31,14.6746725 31,15.5 Z M31,21.4967177 C31,22.3238512 30.3309859,23 29.5,23 C28.6690141,23 28,22.3304158 28,21.4967177 C28,20.6695842 28.6690141,20 29.5,20 C30.3239437,20 31,20.6695842 31,21.4967177 Z M31,27.4967177 C31,28.3238512 30.3309859,29 29.5,29 C28.6690141,29 28,28.3304158 28,27.4967177 C28,26.6695842 28.6690141,26 29.5,26 C30.3239437,26 31,26.6695842 31,27.4967177 Z" id="形状"></path>
                        </g>
                        <g id="yunfuwuqiECS备份-2" transform="translate(594.000000, 56.000000)" fill="#20B4E9" fill-rule="nonzero">
                            <path d="M36.5048544,9.50320463 C36.0227653,9.50320463 35.5406763,9.54040957 35.0746568,9.59887447 C33.719451,4.07659841 29.0056913,0 23.3973887,0 C17.0338132,0 11.8218949,5.25121151 11.3665886,11.9108957 C11.0451958,11.8790058 10.7184466,11.8577458 10.3916974,11.8577458 C4.65483763,11.8577458 0,16.8166328 0,22.9288729 C0,28.9507582 4.51021091,33.8405503 10.1238701,33.994685 L10.1238701,34 L36.5048544,34 C42.8523602,34 48,28.5149289 48,21.7489448 C48,14.9935907 42.8523602,9.50320463 36.5048544,9.50320463 L36.5048544,9.50320463 Z M33.0498828,28.9348132 C33.0498828,29.4078474 32.6802812,29.7905268 32.2303314,29.7905268 L14.6287245,29.7905268 C14.1787747,29.7905268 13.8091731,29.4078474 13.8091731,28.9348132 L13.8091731,26.5058621 C13.8091731,26.0328279 14.1787747,25.6501485 14.6287245,25.6501485 L32.2303314,25.6501485 C32.6802812,25.6501485 33.0498828,26.0328279 33.0498828,26.5058621 L33.0498828,28.9348132 Z M33.0498828,22.9713928 C33.0498828,23.4444271 32.6802812,23.8271065 32.2303314,23.8271065 L14.6287245,23.8271065 C14.1787747,23.8271065 13.8091731,23.4444271 13.8091731,22.9713928 L13.8091731,20.5424418 C13.8091731,20.0694075 14.1787747,19.6867282 14.6287245,19.6867282 L32.2303314,19.6867282 C32.6802812,19.6867282 33.0498828,20.0694075 33.0498828,20.5424418 L33.0498828,22.9713928 Z M33.0498828,17.0079725 C33.0498828,17.4810067 32.6802812,17.8636861 32.2303314,17.8636861 L14.6287245,17.8636861 C14.1787747,17.8636861 13.8091731,17.4756917 13.8091731,17.0079725 L13.8091731,14.5790214 C13.8091731,14.1059872 14.1787747,13.7233078 14.6287245,13.7233078 L32.2303314,13.7233078 C32.6802812,13.7233078 33.0498828,14.1059872 33.0498828,14.5790214 L33.0498828,17.0079725 L33.0498828,17.0079725 Z" id="形状"></path>
                            <path d="M31,15.5 C31,16.3253275 30.3309859,17 29.5,17 C28.6690141,17 28,16.3318777 28,15.5 C28,14.6746725 28.6690141,14 29.5,14 C30.3239437,14.0065502 31,14.6746725 31,15.5 Z M31,21.4967177 C31,22.3238512 30.3309859,23 29.5,23 C28.6690141,23 28,22.3304158 28,21.4967177 C28,20.6695842 28.6690141,20 29.5,20 C30.3239437,20 31,20.6695842 31,21.4967177 Z M31,27.4967177 C31,28.3238512 30.3309859,29 29.5,29 C28.6690141,29 28,28.3304158 28,27.4967177 C28,26.6695842 28.6690141,26 29.5,26 C30.3239437,26 31,26.6695842 31,27.4967177 Z" id="形状"></path>
                        </g>
                    </g>
                </g>
            </g>
        </g>
    </g>
</svg>