<?xml version="1.0" encoding="UTF-8"?>
<svg width="686px" height="282px" viewBox="0 0 686 282" version="1.1" xmlns="http://www.w3.org/2000/svg" xmlns:xlink="http://www.w3.org/1999/xlink">
    <!-- Generator: Sketch 64 (93537) - https://sketch.com -->
    <title>编组 2</title>
    <desc>Created with Sketch.</desc>
    <defs>
        <path d="M305,0 L452,0 C453.104569,-2.02906125e-16 454,0.8954305 454,2 L454,280 C454,281.104569 453.104569,282 452,282 L305,282 C303.895431,282 303,281.104569 303,280 L303,2 C303,0.8954305 303.895431,2.02906125e-16 305,0 Z" id="path-1"></path>
        <mask id="mask-2" maskContentUnits="userSpaceOnUse" maskUnits="objectBoundingBox" x="0" y="0" width="151" height="282" fill="white">
            <use xlink:href="#path-1"></use>
        </mask>
        <path d="M523,0 L684,0 C685.104569,-2.02906125e-16 686,0.8954305 686,2 L686,280 C686,281.104569 685.104569,282 684,282 L523,282 C521.895431,282 521,281.104569 521,280 L521,2 C521,0.8954305 521.895431,2.02906125e-16 523,0 Z" id="path-3"></path>
        <mask id="mask-4" maskContentUnits="userSpaceOnUse" maskUnits="objectBoundingBox" x="0" y="0" width="165" height="282" fill="white">
            <use xlink:href="#path-3"></use>
        </mask>
    </defs>
    <g id="产品" stroke="none" stroke-width="1" fill="none" fill-rule="evenodd">
        <g id="基础服务-云主机02✅" transform="translate(-430.000000, -1505.000000)">
            <g id="产品介绍-2备份" transform="translate(0.000000, 1160.000000)">
                <g id="编组-20" transform="translate(373.000000, 248.000000)">
                    <g id="编组-19">
                        <g id="编组-10">
                            <g id="编组-2" transform="translate(57.000000, 97.000000)">
                                <use id="矩形备份-24" stroke="#00AAE7" mask="url(#mask-2)" stroke-width="2" fill="#E2F5FC" opacity="0.85" stroke-dasharray="4" xlink:href="#path-1"></use>
                                <g id="云主机备份-2" transform="translate(362.000000, 72.000000)">
                                    <rect id="矩形备份-17" fill="#21B4E9" x="0" y="0" width="33" height="28"></rect>
                                    <rect id="矩形备份-18" fill-opacity="0.65" fill="#21B4E9" x="0" y="28" width="33" height="11"></rect>
                                    <circle id="椭圆形备份-6" fill="#E5F5FB" cx="25" cy="8" r="3"></circle>
                                    <circle id="椭圆形备份-7" fill="#E5F5FB" cx="25" cy="20" r="3"></circle>
                                    <circle id="椭圆形备份-8" fill="#E5F5FB" cx="25" cy="34" r="3"></circle>
                                </g>
                                <g id="云主机备份-3" transform="translate(362.000000, 219.000000)">
                                    <rect id="矩形备份-17" fill="#21B4E9" x="0" y="0" width="33" height="28"></rect>
                                    <rect id="矩形备份-18" fill-opacity="0.65081403" fill="#21B4E9" x="0" y="28" width="33" height="11"></rect>
                                    <circle id="椭圆形备份-6" fill="#E5F5FB" cx="25" cy="8" r="3"></circle>
                                    <circle id="椭圆形备份-7" fill="#E5F5FB" cx="25" cy="20" r="3"></circle>
                                    <circle id="椭圆形备份-8" fill="#E5F5FB" cx="25" cy="34" r="3"></circle>
                                </g>
                                <rect id="矩形备份-36" fill="#00AAE7" opacity="0.854399182" x="303" y="0" width="151" height="40"></rect>
                                <use id="矩形备份-25" stroke="#59C7CA" mask="url(#mask-4)" stroke-width="2" fill="#E2F2F3" opacity="0.85" stroke-dasharray="4" xlink:href="#path-3"></use>
                                <rect id="矩形备份-36" fill="#28B8BB" opacity="0.854399182" x="521" y="0" width="165" height="40"></rect>
                                <polyline id="路径-14备份-3" stroke="#21B4E9" points="454 84 486 84 486 251 454 251"></polyline>
                                <path id="路径-15备份-4" d="M512.5,162 L521.5,166.5 L512.5,171 L512.5,167 L486,167 L486,166 L512.5,166 L512.5,162 Z" fill="#21B4E9" fill-rule="nonzero"></path>
                                <line x1="217" y1="162.5" x2="255" y2="162.5" id="直线-9备份-2" stroke="#21B4E9" stroke-linecap="square"></line>
                                <path id="路径-13备份-3" d="M294.5,79.5 L303.5,84 L294.5,88.5 L294.5,84.5 L255.5,84.5 L255.5,240.5 L294.5,240.5 L294.5,236.5 L303.5,241 L294.5,245.5 L294.5,241.5 L254.5,241.5 L254.5,83.5 L294.5,83.5 L294.5,79.5 Z" fill="#21B4E9" fill-rule="nonzero"></path>
                                <path id="路径-15备份-4" d="M142.5,158 L151.5,162.5 L142.5,167 L142.5,163 L57,163 L57,162 L142.5,162 L142.5,158 Z" fill="#21B4E9" fill-rule="nonzero"></path>
                                <text id="Internet" font-family="PingFangSC-Regular, PingFang SC" font-size="14" font-weight="normal" line-spacing="18" fill="#789BAE">
                                    <tspan x="0" y="206">Internet</tspan>
                                </text>
                                <text id="负载均衡" font-family="PingFangSC-Regular, PingFang SC" font-size="14" font-weight="normal" line-spacing="18" fill="#00AAE7">
                                    <tspan x="161" y="206">负载均衡</tspan>
                                </text>
                                <text id="QVM云主机实例" font-family="PingFangSC-Regular, PingFang SC" font-size="16" font-weight="normal" line-spacing="18" fill="#FFFFFF">
                                    <tspan x="320" y="28">QVM云主机实例</tspan>
                                </text>
                                <text id="云关系型数据库RDS" font-family="PingFangSC-Regular, PingFang SC" font-size="16" font-weight="normal" line-spacing="18" fill="#FFFFFF">
                                    <tspan x="531" y="28">云关系型数据库RDS</tspan>
                                </text>
                                <g id="wangluo_" transform="translate(0.000000, 137.000000)" fill-rule="nonzero">
                                    <path d="M0,25 C0,33.9316396 4.76497292,42.1848151 12.5,46.6506351 C20.2350269,51.116455 29.7649731,51.116455 37.5,46.6506351 C45.2350271,42.1848151 50,33.9316396 50,25 C50,11.1928812 38.8071187,0 25,0 C11.1928813,0 0,11.1928812 0,25 Z" id="路径" fill="#789BAE"></path>
                                    <path d="M25,7 C25,7 24.64,7 25,7 L24.64,7 L24.28,7 C14.56,7.71999998 7,15.64 7,25 C7,34.3600001 14.56,42.64 24.28,43 L25,43 C35.08,43 43,35.08 43,25 C43,14.9200001 35.08,7 25,7 Z M40.84,24.28 L34.36,24.28 C34.36,21.4 34,18.88 33.28,16.72 C34.36,16.36 35.8,16 36.88,15.28 L37.24,14.92 C39.4,17.44 40.48,20.68 40.84,24.28 Z M18.52,35.44 C20.32,35.08 22.12,34.72 23.92,34.72 L23.92,41.2 L23.56,41.2 C21.76,40.48 19.96,38.32 18.52,35.44 Z M18.88,39.76 C17.08,39.04 15.64,37.96 14.2,36.88 C14.92,36.52 15.64,36.16 16.72,35.8 C17.08,37.6 18.16,38.68 18.88,39.76 Z M23.56,9.16 C23.56,9.16 23.92,9.16 23.56,9.16 L23.92,15.64 C22.12,15.64 20.32,15.28 18.52,14.92 C19.96,11.68 21.76,9.88000003 23.56,9.16 L23.56,9.16 Z M16.72,14.2 C15.64,14.2 14.92,13.84 14.2,13.48 C15.64,12.04 17.08,10.96 18.88,10.24 C18.16,11.32 17.08,12.76 16.72,14.2 Z M26.08,9.52000002 C27.88,10.24 29.68,12.4 30.76,15.28 C28.96,15.28 27.52,15.64 26.08,15.64 L26.08,9.52000002 L26.08,9.52000002 Z M30.04,9.88000003 C32.2,10.6 34,12.04 35.8,13.48 L32.56,14.56 C31.84,12.76 31.12,11.32 30.04,9.88000003 L30.04,9.88000003 Z M23.92,17.44 L23.92,23.92 L16.72,23.92 C16.72,21.4 17.08,18.88 17.8,16.72 C19.96,17.44 21.76,17.44 23.92,17.44 L23.92,17.44 Z M23.92,26.08 L23.92,32.56 C21.76,32.56 19.96,32.92 17.8,33.28 C17.08,31.12 16.72,28.6 16.72,26.08 L23.92,26.08 Z M26.08,40.84 L26.08,34.72 C27.52,34.72 29.32,35.08 30.76,35.08 C29.32,37.96 27.88,40.12 26.08,40.84 L26.08,40.84 Z M32.56,35.8 L35.8,36.88 C34,38.32 32.2,39.4 30.04,40.12 C31.12,39.04 31.84,37.6 32.56,35.8 L32.56,35.8 Z M26.08,32.56 L26.08,26.08 L32.56,26.08 C32.56,28.6 32.2,31.12 31.48,33.28 C29.68,32.92 27.88,32.56 26.08,32.56 Z M26.08,24.28 L26.08,17.44 C27.88,17.44 29.68,17.08 31.48,16.72 C32.2,18.88 32.56,21.4 32.56,23.92 L26.08,23.92 L26.08,24.28 Z M12.76,14.92 C13.84,15.64 14.92,16 16,16.36 C15.28,18.52 14.92,21.4 14.56,24.28 L9.16,24.28 C9.16,20.68 10.6,17.44 12.76,14.92 Z M9.16,26.08 L14.92,26.08 C14.92,28.96 15.28,31.48 16,34 C14.92,34.36 14.2,34.72 13.12,35.08 L12.76,35.44 C10.6,32.92 9.16,29.68 9.16,26.08 L9.16,26.08 Z M37.24,35.44 C37.24,35.44 36.88,35.08 37.24,35.44 C35.8,34.72 34.72,34.36 33.28,34 C34,31.84 34.36,28.96 34.36,26.44 L40.84,26.44 C40.48,29.68 39.4,32.92 37.24,35.44 Z" id="形状" fill="#FFFFFF"></path>
                                </g>
                                <g id="wangluo_fuzaijunheng" transform="translate(161.000000, 137.000000)" fill-rule="nonzero">
                                    <path d="M25,0 C11.1996497,0 0,11.1993387 0,24.9987476 C0,38.8006613 11.1996497,50 25,50 C38.7990993,50 50,38.8006613 50,25.0012524 C50,11.1993387 38.7990993,0 25,0 Z" id="路径" fill="#20B4E9"></path>
                                    <path d="M24.5,11.0013316 C26.7486869,11.0137003 28.5685099,12.808658 28.58105,15.0266198 C28.58105,16.2250186 28.0316,17.3102352 27.2081,18.0452531 L32.5838,27.1797147 C33.0158,27.0252544 33.4478,26.9480243 33.91895,26.9480243 C36.1676369,26.9603931 37.9874599,28.7553508 38,30.9733126 C38,33.1796978 36.11675,35 33.84065,35 C31.8855707,35.0110793 30.2015182,33.6430303 29.8379,31.7482771 L19.0838,31.7482771 C18.7196851,33.6427402 17.0359359,35.0105428 15.08105,35 C12.8318399,34.9875568 11.0118031,33.1917943 11,30.9733126 C11.0125401,28.7553508 12.8323631,26.9603931 15.08105,26.9480243 C15.55355,26.9480243 15.9842,27.0252544 16.4162,27.1810463 L21.7919,18.0452531 C20.9090129,17.2852762 20.4073856,16.1823744 20.41895,15.0266198 C20.4307531,12.808138 22.2507899,11.0123756 24.5,11 L24.5,11.0013316 Z M25.7705346,19 C25.3577629,19.1503653 24.9210741,19.2266413 24.4810952,19.2252252 C24.0260756,19.2252252 23.6088657,19.1505792 23.1929596,19 L18,27.8288288 C18.6440678,28.3912484 19.0990874,29.1389961 19.2881356,30 L29.7118644,30 C29.863103,29.1389961 30.3559322,28.3912484 31,27.8301158 L25.7692308,19.001287 L25.7705346,19 Z" id="形状" fill="#FFFFFF"></path>
                                </g>
                                <g id="shujuku-5" transform="translate(583.000000, 137.000000)" fill="#28B8BB" fill-rule="nonzero">
                                    <path d="M20.4971276,25 C30.1941992,25 41,21.7410281 41,17.0678952 L41,13 C37.346364,16.4044617 29.642707,18.7032008 20.4971276,18.7032008 C11.357293,18.7032008 3.65363598,16.4044617 0,13 L0,17.1086324 C0.0746812386,21.7643065 10.8287796,25 20.4971276,25 Z M34.7095418,17.900097 C35.5827378,17.6731329 36.473168,18.2085354 36.6972117,19.0931135 C36.9212554,19.9776916 36.392742,20.8797284 35.519546,21.1066925 C34.64635,21.3336566 33.7559199,20.7982541 33.5318761,19.913676 C33.3078324,19.029098 33.8363458,18.1270611 34.7095418,17.900097 Z" id="形状"></path>
                                    <path d="M20.4971276,15.6026165 C30.1941992,15.6026165 41,12.3973835 41,7.80130826 C41,3.20523303 30.1941992,0 20.4971276,0 C10.8345243,0 0.0746812386,3.18233851 0,7.75551922 L0,7.8470973 C0.0746812386,12.420278 10.8287796,15.6026165 20.4971276,15.6026165 Z M20.4971276,35 C30.1941992,35 41,31.794767 41,27.1986917 L41,22.0874898 C37.346364,25.4358136 29.642707,27.6966476 20.4971276,27.6966476 C11.357293,27.6966476 3.65363598,25.4358136 0,22.0874898 L0,27.2444808 C0.0746812386,31.8176615 10.8287796,35 20.4971276,35 Z M35.1174163,27.5134914 C36.0193359,27.5134914 36.7489141,28.2403925 36.7489141,29.1390025 C36.7489141,30.0376124 36.0193359,30.7645135 35.1174163,30.7645135 C34.2154967,30.7645135 33.4859185,30.0376124 33.4859185,29.1390025 C33.4801737,28.2461161 34.2154967,27.5134914 35.1174163,27.5134914 Z" id="形状"></path>
                                    <path d="M20.4971276,46 C30.1941992,46 41,42.7730496 41,38.1458333 L41,33 C37.346364,36.3710106 29.642707,38.6471631 20.4971276,38.6471631 C11.357293,38.6471631 3.65363598,36.3710106 0,33.0057624 L0,38.197695 C0.0746812386,42.7960993 10.8287796,46 20.4971276,46 Z M35.1691187,38.2898936 C36.0710383,38.2898936 36.8006165,39.0217199 36.8006165,39.9264184 C36.8006165,40.831117 36.0710383,41.5629433 35.1691187,41.5629433 C34.2671991,41.5629433 33.5376208,40.831117 33.5376208,39.9264184 C33.5376208,39.0217199 34.2671991,38.2898936 35.1691187,38.2898936 Z" id="形状"></path>
                                </g>
                            </g>
                        </g>
                    </g>
                </g>
            </g>
        </g>
    </g>
</svg>