<?xml version="1.0" encoding="UTF-8"?>
<svg width="45px" height="44px" viewBox="0 0 45 44" version="1.1" xmlns="http://www.w3.org/2000/svg" xmlns:xlink="http://www.w3.org/1999/xlink">
    <!-- Generator: Sketch 64 (93537) - https://sketch.com -->
    <title>mobile-recharger-08</title>
    <desc>Created with Sketch.</desc>
    <g id="产品" stroke="none" stroke-width="1" fill="none" fill-rule="evenodd" stroke-linecap="square">
        <g id="基础服务-云主机✅" transform="translate(-1002.000000, -2499.000000)" stroke-width="2">
            <g id="产品与服务" transform="translate(0.000000, 2179.000000)">
                <g id="编组-29" transform="translate(372.000000, 290.000000)">
                    <g id="编组-28备份" transform="translate(600.000000, 0.000000)">
                        <g id="编组-46" transform="translate(24.000000, 24.000000)">
                            <g id="mobile-recharger-08" transform="translate(7.000000, 7.000000)">
                                <path d="M41,30 L41,24 C41,20.6862915 38.3137085,18 35,18 L35,18 C31.6862915,18 29,20.6862915 29,24 L29,30" id="路径" stroke="#00AAE7"></path>
                                <line x1="31" y1="30" x2="31" y2="34" id="路径" stroke="#00AAE7"></line>
                                <line x1="39" y1="30" x2="39" y2="34" id="路径" stroke="#00AAE7"></line>
                                <polyline id="路径" stroke="#00AAE7" points="10 5 10 0 35 0 35 18"></polyline>
                                <line x1="27" y1="30" x2="43" y2="30" id="路径" stroke="#00AAE7"></line>
                                <path d="M18,42 L3,42 C1.34314575,42 0,40.6568542 0,39 L0,14 C0,12.3431458 1.34314575,11 3,11 L18,11 C19.6568542,11 21,12.3431458 21,14 L21,39 C21,40.6568542 19.6568542,42 18,42 Z" id="路径" stroke="#333333"></path>
                                <line x1="0" y1="17" x2="21" y2="17" id="路径" stroke="#333333"></line>
                                <line x1="0" y1="35" x2="21" y2="35" id="路径" stroke="#333333"></line>
                            </g>
                        </g>
                    </g>
                </g>
            </g>
        </g>
    </g>
</svg>