<?xml version="1.0" encoding="UTF-8"?>
<svg width="48px" height="48px" viewBox="0 0 48 48" version="1.1" xmlns="http://www.w3.org/2000/svg" xmlns:xlink="http://www.w3.org/1999/xlink">
    <!-- Generator: Sketch 64 (93537) - https://sketch.com -->
    <title>spaceship</title>
    <desc>Created with Sketch.</desc>
    <g id="产品" stroke="none" stroke-width="1" fill="none" fill-rule="evenodd">
        <g id="基础服务-云主机✅" transform="translate(-400.000000, -2749.000000)" stroke-width="2">
            <g id="产品与服务" transform="translate(0.000000, 2179.000000)">
                <g id="编组-29" transform="translate(372.000000, 290.000000)">
                    <g id="编组-28备份-2" transform="translate(0.000000, 252.000000)">
                        <g id="编组-47" transform="translate(24.000000, 24.000000)">
                            <g id="spaceship" transform="translate(6.000000, 6.000000)">
                                <line x1="27.769" y1="4.086" x2="39.866" y2="16.182" id="路径" stroke="#333333"></line>
                                <path d="M22.831,6.965 C16.989,4.449 9.5,6 4,13 L10.734,19.736" id="路径" stroke="#333333"></path>
                                <path d="M37.035,21.169 C39.551,27.011 38,34.5 31,40 L24.264,33.266" id="路径" stroke="#333333"></path>
                                <path d="M19,36 L8,25 C8,25 16.894,1.414 44,0 C42.468,26.988 19,36 19,36 Z" id="路径" stroke="#333333" stroke-linecap="square"></path>
                                <circle id="椭圆形" stroke="#00AAE7" stroke-linecap="square" cx="25" cy="19" r="4"></circle>
                                <path d="M2.464,34.464 C4.41687889,32.5111212 7.58312108,32.5111212 9.53599993,34.4640001 C11.4888788,36.4168789 11.4888788,39.5831211 9.536,41.536 C7.583,43.488 0,44 0,44 C0,44 0.512,36.417 2.464,34.464 Z" id="路径" stroke="#00AAE7" stroke-linecap="square"></path>
                            </g>
                        </g>
                    </g>
                </g>
            </g>
        </g>
    </g>
</svg>