<svg width="82" height="82" viewBox="0 0 82 82" fill="none" xmlns="http://www.w3.org/2000/svg">
<g id="&#230;&#146;&#173;&#230;&#148;&#190;&#230;&#140;&#137;&#233;&#146;&#174;">
<g clip-path="url(#clip0_164_1661)">
<rect y="0.925781" width="81.0246" height="81.0246" rx="40.5123" fill="#333333" fill-opacity="0.5"/>
<path id="Vector" d="M40.5123 0.925781C18.2305 0.925781 0 19.1563 0 41.4381C0 63.7198 18.2305 81.9504 40.5123 81.9504C62.7941 81.9504 81.0246 63.7198 81.0246 41.4381C81.0246 19.1563 62.7941 0.925781 40.5123 0.925781ZM40.5123 78.5743C20.0873 78.5743 3.37602 61.863 3.37602 41.4381C3.37602 21.0131 20.0873 4.30181 40.5123 4.30181C60.9372 4.30181 77.6486 21.0131 77.6486 41.4381C77.6486 61.863 60.9372 78.5743 40.5123 78.5743Z" fill="white"/>
<path id="Vector_2" d="M53.1727 35.8676L39.6686 26.9211C35.1109 23.8827 31.2285 25.9083 31.2285 31.4788V51.7349C31.2285 57.3053 34.9421 59.331 39.6686 56.2925L53.1727 47.3461C57.7303 43.97 57.7303 38.906 53.1727 35.8676Z" fill="white"/>
</g>
</g>
<defs>
<clipPath id="clip0_164_1661">
<rect y="0.925781" width="81.0246" height="81.0246" rx="40.5123" fill="white"/>
</clipPath>
</defs>
</svg>
