<svg xmlns="http://www.w3.org/2000/svg" width="50" height="62" viewBox="0 0 50 62">
  <g fill="none" fill-rule="evenodd" transform="translate(1 2)">
    <path stroke="#333" stroke-linecap="square" stroke-width="2" d="M48,34 C48,47.254834 37.254834,58 24,58 C10.745166,58 0,47.254834 0,34 L0,6 L24,0 L48,6 L48,34 Z"/>
    <path fill="#00AAE7" fill-rule="nonzero" d="M17.5935961,36.8275862 L17.5935961,21 L15,21 L15,36.8275862 L17.5935961,36.8275862 Z M23.2906404,36.8275862 L23.2906404,30.7536946 L27.2142857,30.7536946 C31.0714286,30.7536946 33,29.1133005 33,25.8546798 C33,22.6182266 31.0714286,21 27.2586207,21 L20.6970443,21 L20.6970443,36.8275862 L23.2906404,36.8275862 Z M27.0591133,28.5369458 L23.2906404,28.5369458 L23.2906404,23.2167488 L27.0591133,23.2167488 C28.1896552,23.2167488 29.0320197,23.4162562 29.5640394,23.8374384 C30.0960591,24.2364532 30.3842365,24.9014778 30.3842365,25.8546798 C30.3842365,26.8078818 30.1182266,27.4950739 29.5862069,27.9162562 C29.0541872,28.3152709 28.2118227,28.5369458 27.0591133,28.5369458 Z"/>
  </g>
</svg>
