<svg xmlns="http://www.w3.org/2000/svg" width="50" height="62" viewBox="0 0 50 62">
  <g fill="none" fill-rule="evenodd" stroke-linecap="square" stroke-width="2" transform="translate(1 2)">
    <path stroke="#333" d="M48,34 C48,47.254834 37.254834,58 24,58 C10.745166,58 0,47.254834 0,34 L0,6 L24,0 L48,6 L48,34 Z"/>
    <path stroke="#00AAE7" d="M31.7703601,27.0618159 C31.5290192,27.0631937 31.2882343,27.0851261 31.0506163,27.1273753 C30.9035199,23.0940248 27.5503918,19.9231332 23.5151192,20.0014189 C19.4798466,20.0797046 16.2522281,23.3782651 16.2616803,27.4142859 C16.2646861,27.8023533 16.2979188,28.189597 16.3610769,28.5725023 C15.0358162,28.2487994 13.6427619,28.7189221 12.7846499,29.7794612 C11.9265379,30.8400003 11.7574783,32.3004915 12.3506185,33.5290208 C12.9437587,34.75755 14.1925754,35.5334833 15.5567404,35.5212419 L31.7703601,35.5212419 C34.1063257,35.5212419 36,33.6274214 36,31.2914558 C36,28.9554902 34.1063257,27.0618159 31.7703601,27.0618159 Z"/>
  </g>
</svg>
