<svg xmlns="http://www.w3.org/2000/svg" width="1166" height="427" viewBox="0 0 1166 427">
  <g fill="none" fill-rule="evenodd">
    <g transform="translate(0 68)">
      <polygon fill="#00AAE7" points="0 0 214 0 214 357 0 357" opacity=".08"/>
      <rect width="214" height="36" fill="#24B5E9"/>
      <text fill="#FFF" font-family="PingFangSC-Regular, PingFang SC" font-size="14">
        <tspan x="65" y="23">提供战略支持</tspan>
      </text>
    </g>
    <g transform="translate(8 137)">
      <path fill="#EBF9FD" stroke="#00AAE7" d="M94,0.5 C94.4142136,0.5 94.7892136,0.667893219 95.0606602,0.939339828 C95.3321068,1.21078644 95.5,1.58578644 95.5,2 L95.5,2 L95.5,34 C95.5,34.4142136 95.3321068,34.7892136 95.0606602,35.0606602 C94.7892136,35.3321068 94.4142136,35.5 94,35.5 L94,35.5 L2,35.5 C1.58578644,35.5 1.21078644,35.3321068 0.939339828,35.0606602 C0.667893219,34.7892136 0.5,34.4142136 0.5,34 L0.5,34 L0.5,2 C0.5,1.58578644 0.667893219,1.21078644 0.939339828,0.939339828 C1.21078644,0.667893219 1.58578644,0.5 2,0.5 L2,0.5 Z"/>
      <text fill="#24B5E9" font-family="PingFangSC-Regular, PingFang SC" font-size="14">
        <tspan x="20" y="23">用户系统</tspan>
      </text>
      <g transform="translate(102)">
        <path fill="#EBF9FD" stroke="#00AAE7" d="M94,0.5 C94.4142136,0.5 94.7892136,0.667893219 95.0606602,0.939339828 C95.3321068,1.21078644 95.5,1.58578644 95.5,2 L95.5,2 L95.5,34 C95.5,34.4142136 95.3321068,34.7892136 95.0606602,35.0606602 C94.7892136,35.3321068 94.4142136,35.5 94,35.5 L94,35.5 L2,35.5 C1.58578644,35.5 1.21078644,35.3321068 0.939339828,35.0606602 C0.667893219,34.7892136 0.5,34.4142136 0.5,34 L0.5,34 L0.5,2 C0.5,1.58578644 0.667893219,1.21078644 0.939339828,0.939339828 C1.21078644,0.667893219 1.58578644,0.5 2,0.5 L2,0.5 Z"/>
        <text fill="#24B5E9" font-family="PingFangSC-Regular, PingFang SC" font-size="14">
          <tspan x="20" y="23">商品管理</tspan>
        </text>
      </g>
      <g transform="translate(0 44)">
        <path fill="#EBF9FD" stroke="#00AAE7" d="M94,0.5 C94.4142136,0.5 94.7892136,0.667893219 95.0606602,0.939339828 C95.3321068,1.21078644 95.5,1.58578644 95.5,2 L95.5,2 L95.5,34 C95.5,34.4142136 95.3321068,34.7892136 95.0606602,35.0606602 C94.7892136,35.3321068 94.4142136,35.5 94,35.5 L94,35.5 L2,35.5 C1.58578644,35.5 1.21078644,35.3321068 0.939339828,35.0606602 C0.667893219,34.7892136 0.5,34.4142136 0.5,34 L0.5,34 L0.5,2 C0.5,1.58578644 0.667893219,1.21078644 0.939339828,0.939339828 C1.21078644,0.667893219 1.58578644,0.5 2,0.5 L2,0.5 Z"/>
        <text fill="#24B5E9" font-family="PingFangSC-Regular, PingFang SC" font-size="14">
          <tspan x="20" y="23">客户管理</tspan>
        </text>
      </g>
      <g transform="translate(102 44)">
        <path fill="#EBF9FD" stroke="#00AAE7" d="M94,0.5 C94.4142136,0.5 94.7892136,0.667893219 95.0606602,0.939339828 C95.3321068,1.21078644 95.5,1.58578644 95.5,2 L95.5,2 L95.5,34 C95.5,34.4142136 95.3321068,34.7892136 95.0606602,35.0606602 C94.7892136,35.3321068 94.4142136,35.5 94,35.5 L94,35.5 L2,35.5 C1.58578644,35.5 1.21078644,35.3321068 0.939339828,35.0606602 C0.667893219,34.7892136 0.5,34.4142136 0.5,34 L0.5,34 L0.5,2 C0.5,1.58578644 0.667893219,1.21078644 0.939339828,0.939339828 C1.21078644,0.667893219 1.58578644,0.5 2,0.5 L2,0.5 Z"/>
        <text fill="#24B5E9" font-family="PingFangSC-Regular, PingFang SC" font-size="14">
          <tspan x="20" y="23">组织管理</tspan>
        </text>
      </g>
      <g transform="translate(0 88)">
        <path fill="#EBF9FD" stroke="#00AAE7" d="M94,0.5 C94.4142136,0.5 94.7892136,0.667893219 95.0606602,0.939339828 C95.3321068,1.21078644 95.5,1.58578644 95.5,2 L95.5,2 L95.5,34 C95.5,34.4142136 95.3321068,34.7892136 95.0606602,35.0606602 C94.7892136,35.3321068 94.4142136,35.5 94,35.5 L94,35.5 L2,35.5 C1.58578644,35.5 1.21078644,35.3321068 0.939339828,35.0606602 C0.667893219,34.7892136 0.5,34.4142136 0.5,34 L0.5,34 L0.5,2 C0.5,1.58578644 0.667893219,1.21078644 0.939339828,0.939339828 C1.21078644,0.667893219 1.58578644,0.5 2,0.5 L2,0.5 Z"/>
        <text fill="#24B5E9" font-family="PingFangSC-Regular, PingFang SC" font-size="14">
          <tspan x="20" y="23">直播审核</tspan>
        </text>
      </g>
      <g transform="translate(102 88)">
        <path fill="#EBF9FD" stroke="#00AAE7" d="M94,0.5 C94.4142136,0.5 94.7892136,0.667893219 95.0606602,0.939339828 C95.3321068,1.21078644 95.5,1.58578644 95.5,2 L95.5,2 L95.5,34 C95.5,34.4142136 95.3321068,34.7892136 95.0606602,35.0606602 C94.7892136,35.3321068 94.4142136,35.5 94,35.5 L94,35.5 L2,35.5 C1.58578644,35.5 1.21078644,35.3321068 0.939339828,35.0606602 C0.667893219,34.7892136 0.5,34.4142136 0.5,34 L0.5,34 L0.5,2 C0.5,1.58578644 0.667893219,1.21078644 0.939339828,0.939339828 C1.21078644,0.667893219 1.58578644,0.5 2,0.5 L2,0.5 Z"/>
        <text fill="#24B5E9" font-family="PingFangSC-Regular, PingFang SC" font-size="14">
          <tspan x="20" y="23">流量扶持</tspan>
        </text>
      </g>
    </g>
    <g transform="translate(8 325)">
      <path fill="#EBF9FD" stroke="#00AAE7" d="M196,0.5 C196.414214,0.5 196.789214,0.667893219 197.06066,0.939339828 C197.332107,1.21078644 197.5,1.58578644 197.5,2 L197.5,2 L197.5,34 C197.5,34.4142136 197.332107,34.7892136 197.06066,35.0606602 C196.789214,35.3321068 196.414214,35.5 196,35.5 L196,35.5 L2,35.5 C1.58578644,35.5 1.21078644,35.3321068 0.939339828,35.0606602 C0.667893219,34.7892136 0.5,34.4142136 0.5,34 L0.5,34 L0.5,2 C0.5,1.58578644 0.667893219,1.21078644 0.939339828,0.939339828 C1.21078644,0.667893219 1.58578644,0.5 2,0.5 L2,0.5 Z"/>
      <text fill="#24B5E9" font-family="PingFangSC-Regular, PingFang SC" font-size="14">
        <tspan x="57" y="23">私域流量转化</tspan>
      </text>
    </g>
    <polygon fill="#43C0C3" points="0 0 200 0 214 28 200 56 0 56" opacity=".854"/>
    <text fill="#FFF" font-family="PingFangSC-Medium, PingFang SC" font-size="18" font-weight="400">
      <tspan x="89" y="35">总部</tspan>
    </text>
    <g transform="translate(238)">
      <g transform="translate(0 68)">
        <polygon fill="#00AAE7" points="0 0 214 0 214 357 0 357" opacity=".08"/>
        <g transform="translate(8 257)">
          <path fill="#EBF9FD" stroke="#00AAE7" d="M196,0.5 C196.414214,0.5 196.789214,0.667893219 197.06066,0.939339828 C197.332107,1.21078644 197.5,1.58578644 197.5,2 L197.5,2 L197.5,34 C197.5,34.4142136 197.332107,34.7892136 197.06066,35.0606602 C196.789214,35.3321068 196.414214,35.5 196,35.5 L196,35.5 L2,35.5 C1.58578644,35.5 1.21078644,35.3321068 0.939339828,35.0606602 C0.667893219,34.7892136 0.5,34.4142136 0.5,34 L0.5,34 L0.5,2 C0.5,1.58578644 0.667893219,1.21078644 0.939339828,0.939339828 C1.21078644,0.667893219 1.58578644,0.5 2,0.5 L2,0.5 Z"/>
          <text fill="#24B5E9" font-family="PingFangSC-Regular, PingFang SC" font-size="14">
            <tspan x="71" y="23">互动连麦</tspan>
          </text>
        </g>
        <rect width="214" height="36" fill="#24B5E9"/>
        <text fill="#FFF" font-family="PingFangSC-Regular, PingFang SC" font-size="14">
          <tspan x="79" y="23">互动营销</tspan>
        </text>
        <g fill="#24B5E9" font-family="PingFangSC-Regular, PingFang SC" font-size="14" transform="translate(12 76)">
          <text>
            <tspan x="0" y="15">红包</tspan>
          </text>
          <text>
            <tspan x="134" y="103">抽奖</tspan>
          </text>
          <text>
            <tspan x="53" y="15">优惠券</tspan>
          </text>
          <text>
            <tspan x="53" y="59">赠送礼物</tspan>
          </text>
          <text>
            <tspan x="0" y="59">公告</tspan>
          </text>
          <text>
            <tspan x="134" y="59">调查问卷</tspan>
          </text>
          <text>
            <tspan x="53" y="103">报名表单</tspan>
          </text>
          <text>
            <tspan x="134" y="15">预告片</tspan>
          </text>
          <text>
            <tspan x="88" y="147">多平台推流</tspan>
          </text>
          <text>
            <tspan x="176" y="147">…</tspan>
          </text>
          <text>
            <tspan x="0" y="103">签到</tspan>
          </text>
          <text>
            <tspan x="0" y="147">机器人暖场</tspan>
          </text>
        </g>
      </g>
      <polygon fill="#43C0C3" points="0 0 200 0 214 28 200 56 0 56" opacity=".854"/>
      <text fill="#FFF" font-family="PingFangSC-Medium, PingFang SC" font-size="18" font-weight="400">
        <tspan x="71" y="35">直播互动</tspan>
      </text>
    </g>
    <g transform="translate(476)">
      <g transform="translate(0 68)">
        <polygon fill="#00AAE7" points="0 0 214 0 214 357 0 357" opacity=".08"/>
        <g transform="translate(8 242)">
          <path fill="#EBF9FD" stroke="#00AAE7" d="M196,0.5 C196.414214,0.5 196.789214,0.667893219 197.06066,0.939339828 C197.332107,1.21078644 197.5,1.58578644 197.5,2 L197.5,2 L197.5,34 C197.5,34.4142136 197.332107,34.7892136 197.06066,35.0606602 C196.789214,35.3321068 196.414214,35.5 196,35.5 L196,35.5 L2,35.5 C1.58578644,35.5 1.21078644,35.3321068 0.939339828,35.0606602 C0.667893219,34.7892136 0.5,34.4142136 0.5,34 L0.5,34 L0.5,2 C0.5,1.58578644 0.667893219,1.21078644 0.939339828,0.939339828 C1.21078644,0.667893219 1.58578644,0.5 2,0.5 L2,0.5 Z"/>
          <text fill="#24B5E9" font-family="PingFangSC-Regular, PingFang SC" font-size="14">
            <tspan x="71" y="23">成交推送</tspan>
          </text>
        </g>
        <g transform="translate(8 66)">
          <path fill="#EBF9FD" stroke="#00AAE7" d="M196,0.5 C196.414214,0.5 196.789214,0.667893219 197.06066,0.939339828 C197.332107,1.21078644 197.5,1.58578644 197.5,2 L197.5,2 L197.5,34 C197.5,34.4142136 197.332107,34.7892136 197.06066,35.0606602 C196.789214,35.3321068 196.414214,35.5 196,35.5 L196,35.5 L2,35.5 C1.58578644,35.5 1.21078644,35.3321068 0.939339828,35.0606602 C0.667893219,34.7892136 0.5,34.4142136 0.5,34 L0.5,34 L0.5,2 C0.5,1.58578644 0.667893219,1.21078644 0.939339828,0.939339828 C1.21078644,0.667893219 1.58578644,0.5 2,0.5 L2,0.5 Z"/>
          <text fill="#24B5E9" font-family="PingFangSC-Regular, PingFang SC" font-size="14">
            <tspan x="71" y="23">商品上屏</tspan>
          </text>
        </g>
        <g transform="translate(8 110)">
          <path fill="#EBF9FD" stroke="#00AAE7" d="M196,0.5 C196.414214,0.5 196.789214,0.667893219 197.06066,0.939339828 C197.332107,1.21078644 197.5,1.58578644 197.5,2 L197.5,2 L197.5,34 C197.5,34.4142136 197.332107,34.7892136 197.06066,35.0606602 C196.789214,35.3321068 196.414214,35.5 196,35.5 L196,35.5 L2,35.5 C1.58578644,35.5 1.21078644,35.3321068 0.939339828,35.0606602 C0.667893219,34.7892136 0.5,34.4142136 0.5,34 L0.5,34 L0.5,2 C0.5,1.58578644 0.667893219,1.21078644 0.939339828,0.939339828 C1.21078644,0.667893219 1.58578644,0.5 2,0.5 L2,0.5 Z"/>
          <text fill="#24B5E9" font-family="PingFangSC-Regular, PingFang SC" font-size="14">
            <tspan x="71" y="23">一键推送</tspan>
          </text>
        </g>
        <g transform="translate(8 154)">
          <path fill="#EBF9FD" stroke="#00AAE7" d="M196,0.5 C196.414214,0.5 196.789214,0.667893219 197.06066,0.939339828 C197.332107,1.21078644 197.5,1.58578644 197.5,2 L197.5,2 L197.5,34 C197.5,34.4142136 197.332107,34.7892136 197.06066,35.0606602 C196.789214,35.3321068 196.414214,35.5 196,35.5 L196,35.5 L2,35.5 C1.58578644,35.5 1.21078644,35.3321068 0.939339828,35.0606602 C0.667893219,34.7892136 0.5,34.4142136 0.5,34 L0.5,34 L0.5,2 C0.5,1.58578644 0.667893219,1.21078644 0.939339828,0.939339828 C1.21078644,0.667893219 1.58578644,0.5 2,0.5 L2,0.5 Z"/>
          <text fill="#24B5E9" font-family="PingFangSC-Regular, PingFang SC" font-size="14">
            <tspan x="64" y="23">优惠券发放</tspan>
          </text>
        </g>
        <g transform="translate(8 198)">
          <path fill="#EBF9FD" stroke="#00AAE7" d="M196,0.5 C196.414214,0.5 196.789214,0.667893219 197.06066,0.939339828 C197.332107,1.21078644 197.5,1.58578644 197.5,2 L197.5,2 L197.5,34 C197.5,34.4142136 197.332107,34.7892136 197.06066,35.0606602 C196.789214,35.3321068 196.414214,35.5 196,35.5 L196,35.5 L2,35.5 C1.58578644,35.5 1.21078644,35.3321068 0.939339828,35.0606602 C0.667893219,34.7892136 0.5,34.4142136 0.5,34 L0.5,34 L0.5,2 C0.5,1.58578644 0.667893219,1.21078644 0.939339828,0.939339828 C1.21078644,0.667893219 1.58578644,0.5 2,0.5 L2,0.5 Z"/>
          <text fill="#24B5E9" font-family="PingFangSC-Regular, PingFang SC" font-size="14">
            <tspan x="64" y="23">自定义跳转</tspan>
          </text>
        </g>
        <rect width="214" height="36" fill="#24B5E9"/>
        <text fill="#FFF" font-family="PingFangSC-Regular, PingFang SC" font-size="14">
          <tspan x="79" y="23">引导购买</tspan>
        </text>
      </g>
      <polygon fill="#43C0C3" points="0 0 200 0 214 28 200 56 0 56" opacity=".854"/>
      <text fill="#FFF" font-family="PingFangSC-Medium, PingFang SC" font-size="18" font-weight="400">
        <tspan x="71" y="35">成交转化</tspan>
      </text>
    </g>
    <g transform="translate(714)">
      <polygon fill="#00AAE7" points="0 69 214 69 214 427 0 427" opacity=".08"/>
      <g transform="translate(0 69)">
        <rect width="214" height="36" fill="#24B5E9"/>
        <text fill="#FFF" font-family="PingFangSC-Regular, PingFang SC" font-size="14">
          <tspan x="79" y="23">数据留存</tspan>
        </text>
      </g>
      <g transform="translate(8 113)">
        <path fill="#FFF" d="M2,0 L196,0 C197.104569,-2.02906125e-16 198,0.8954305 198,2 L198,128 C198,129.104569 197.104569,130 196,130 L2,130 C0.8954305,130 1.3527075e-16,129.104569 0,128 L0,2 C-1.3527075e-16,0.8954305 0.8954305,2.02906125e-16 2,0 Z"/>
        <text fill="#24B5E9" font-family="PingFangSC-Regular, PingFang SC" font-size="14">
          <tspan x="71" y="23">客户属性</tspan>
        </text>
        <g transform="translate(8 38)">
          <path fill="#EBF9FD" stroke="#00AAE7" d="M54,0.5 C54.4142136,0.5 54.7892136,0.667893219 55.0606602,0.939339828 C55.3321068,1.21078644 55.5,1.58578644 55.5,2 L55.5,2 L55.5,34 C55.5,34.4142136 55.3321068,34.7892136 55.0606602,35.0606602 C54.7892136,35.3321068 54.4142136,35.5 54,35.5 L54,35.5 L2,35.5 C1.58578644,35.5 1.21078644,35.3321068 0.939339828,35.0606602 C0.667893219,34.7892136 0.5,34.4142136 0.5,34 L0.5,34 L0.5,2 C0.5,1.58578644 0.667893219,1.21078644 0.939339828,0.939339828 C1.21078644,0.667893219 1.58578644,0.5 2,0.5 L2,0.5 Z"/>
          <text fill="#24B5E9" font-family="PingFangSC-Regular, PingFang SC" font-size="14">
            <tspan x="14" y="23">姓名</tspan>
          </text>
        </g>
        <g transform="translate(71 38)">
          <path fill="#EBF9FD" stroke="#00AAE7" d="M54,0.5 C54.4142136,0.5 54.7892136,0.667893219 55.0606602,0.939339828 C55.3321068,1.21078644 55.5,1.58578644 55.5,2 L55.5,2 L55.5,34 C55.5,34.4142136 55.3321068,34.7892136 55.0606602,35.0606602 C54.7892136,35.3321068 54.4142136,35.5 54,35.5 L54,35.5 L2,35.5 C1.58578644,35.5 1.21078644,35.3321068 0.939339828,35.0606602 C0.667893219,34.7892136 0.5,34.4142136 0.5,34 L0.5,34 L0.5,2 C0.5,1.58578644 0.667893219,1.21078644 0.939339828,0.939339828 C1.21078644,0.667893219 1.58578644,0.5 2,0.5 L2,0.5 Z"/>
          <text fill="#24B5E9" font-family="PingFangSC-Regular, PingFang SC" font-size="14">
            <tspan x="14" y="23">性别</tspan>
          </text>
        </g>
        <g transform="translate(134 38)">
          <path fill="#EBF9FD" stroke="#00AAE7" d="M54,0.5 C54.4142136,0.5 54.7892136,0.667893219 55.0606602,0.939339828 C55.3321068,1.21078644 55.5,1.58578644 55.5,2 L55.5,2 L55.5,34 C55.5,34.4142136 55.3321068,34.7892136 55.0606602,35.0606602 C54.7892136,35.3321068 54.4142136,35.5 54,35.5 L54,35.5 L2,35.5 C1.58578644,35.5 1.21078644,35.3321068 0.939339828,35.0606602 C0.667893219,34.7892136 0.5,34.4142136 0.5,34 L0.5,34 L0.5,2 C0.5,1.58578644 0.667893219,1.21078644 0.939339828,0.939339828 C1.21078644,0.667893219 1.58578644,0.5 2,0.5 L2,0.5 Z"/>
          <text fill="#24B5E9" font-family="PingFangSC-Regular, PingFang SC" font-size="14">
            <tspan x="14" y="23">职业</tspan>
          </text>
        </g>
        <g transform="translate(8 82)">
          <path fill="#EBF9FD" stroke="#00AAE7" d="M54,0.5 C54.4142136,0.5 54.7892136,0.667893219 55.0606602,0.939339828 C55.3321068,1.21078644 55.5,1.58578644 55.5,2 L55.5,2 L55.5,34 C55.5,34.4142136 55.3321068,34.7892136 55.0606602,35.0606602 C54.7892136,35.3321068 54.4142136,35.5 54,35.5 L54,35.5 L2,35.5 C1.58578644,35.5 1.21078644,35.3321068 0.939339828,35.0606602 C0.667893219,34.7892136 0.5,34.4142136 0.5,34 L0.5,34 L0.5,2 C0.5,1.58578644 0.667893219,1.21078644 0.939339828,0.939339828 C1.21078644,0.667893219 1.58578644,0.5 2,0.5 L2,0.5 Z"/>
          <text fill="#24B5E9" font-family="PingFangSC-Regular, PingFang SC" font-size="14">
            <tspan x="14" y="23">手机</tspan>
          </text>
        </g>
        <g transform="translate(71 82)">
          <path fill="#EBF9FD" stroke="#00AAE7" d="M54,0.5 C54.4142136,0.5 54.7892136,0.667893219 55.0606602,0.939339828 C55.3321068,1.21078644 55.5,1.58578644 55.5,2 L55.5,2 L55.5,34 C55.5,34.4142136 55.3321068,34.7892136 55.0606602,35.0606602 C54.7892136,35.3321068 54.4142136,35.5 54,35.5 L54,35.5 L2,35.5 C1.58578644,35.5 1.21078644,35.3321068 0.939339828,35.0606602 C0.667893219,34.7892136 0.5,34.4142136 0.5,34 L0.5,34 L0.5,2 C0.5,1.58578644 0.667893219,1.21078644 0.939339828,0.939339828 C1.21078644,0.667893219 1.58578644,0.5 2,0.5 L2,0.5 Z"/>
          <text fill="#24B5E9" font-family="PingFangSC-Regular, PingFang SC" font-size="14">
            <tspan x="14" y="23">来源</tspan>
          </text>
        </g>
        <g transform="translate(134 82)">
          <path fill="#EBF9FD" stroke="#00AAE7" d="M54,0.5 C54.4142136,0.5 54.7892136,0.667893219 55.0606602,0.939339828 C55.3321068,1.21078644 55.5,1.58578644 55.5,2 L55.5,2 L55.5,34 C55.5,34.4142136 55.3321068,34.7892136 55.0606602,35.0606602 C54.7892136,35.3321068 54.4142136,35.5 54,35.5 L54,35.5 L2,35.5 C1.58578644,35.5 1.21078644,35.3321068 0.939339828,35.0606602 C0.667893219,34.7892136 0.5,34.4142136 0.5,34 L0.5,34 L0.5,2 C0.5,1.58578644 0.667893219,1.21078644 0.939339828,0.939339828 C1.21078644,0.667893219 1.58578644,0.5 2,0.5 L2,0.5 Z"/>
          <text fill="#24B5E9" font-family="PingFangSC-Regular, PingFang SC" font-size="14">
            <tspan x="14" y="23">销售</tspan>
          </text>
        </g>
      </g>
      <g transform="translate(8 251)">
        <path fill="#FFF" d="M2,0 L196,0 C197.104569,-2.02906125e-16 198,0.8954305 198,2 L198,166 C198,167.104569 197.104569,168 196,168 L2,168 C0.8954305,168 1.3527075e-16,167.104569 0,166 L0,2 C-1.3527075e-16,0.8954305 0.8954305,2.02906125e-16 2,0 Z"/>
        <text fill="#24B5E9" font-family="PingFangSC-Regular, PingFang SC" font-size="14">
          <tspan x="71" y="23">客户行为</tspan>
        </text>
        <text fill="#24B5E9" font-family="PingFangSC-Regular, PingFang SC" font-size="14" transform="translate(22 36)">
          <tspan x="0" y="15">偏好</tspan>
        </text>
        <text fill="#24B5E9" font-family="PingFangSC-Regular, PingFang SC" font-size="14" transform="translate(85 36)">
          <tspan x="0" y="15">操作</tspan>
        </text>
        <text fill="#24B5E9" font-family="PingFangSC-Regular, PingFang SC" font-size="14" transform="translate(148 36)">
          <tspan x="0" y="15">转化</tspan>
        </text>
        <g transform="translate(8 64)">
          <path fill="#EBF9FD" stroke="#00AAE7" d="M54,0.5 C54.4142136,0.5 54.7892136,0.667893219 55.0606602,0.939339828 C55.3321068,1.21078644 55.5,1.58578644 55.5,2 L55.5,2 L55.5,94 C55.5,94.4142136 55.3321068,94.7892136 55.0606602,95.0606602 C54.7892136,95.3321068 54.4142136,95.5 54,95.5 L54,95.5 L2,95.5 C1.58578644,95.5 1.21078644,95.3321068 0.939339828,95.0606602 C0.667893219,94.7892136 0.5,94.4142136 0.5,94 L0.5,94 L0.5,2 C0.5,1.58578644 0.667893219,1.21078644 0.939339828,0.939339828 C1.21078644,0.667893219 1.58578644,0.5 2,0.5 L2,0.5 Z"/>
          <text fill="#24B5E9" font-family="PingFangSC-Regular, PingFang SC" font-size="14">
            <tspan x="14" y="23">品类</tspan> <tspan x="14" y="43">频次</tspan> <tspan x="14" y="63">价格</tspan>
          </text>
        </g>
        <g transform="translate(71 64)">
          <path fill="#EBF9FD" stroke="#00AAE7" d="M54,0.5 C54.4142136,0.5 54.7892136,0.667893219 55.0606602,0.939339828 C55.3321068,1.21078644 55.5,1.58578644 55.5,2 L55.5,2 L55.5,94 C55.5,94.4142136 55.3321068,94.7892136 55.0606602,95.0606602 C54.7892136,95.3321068 54.4142136,95.5 54,95.5 L54,95.5 L2,95.5 C1.58578644,95.5 1.21078644,95.3321068 0.939339828,95.0606602 C0.667893219,94.7892136 0.5,94.4142136 0.5,94 L0.5,94 L0.5,2 C0.5,1.58578644 0.667893219,1.21078644 0.939339828,0.939339828 C1.21078644,0.667893219 1.58578644,0.5 2,0.5 L2,0.5 Z"/>
          <text fill="#24B5E9" font-family="PingFangSC-Regular, PingFang SC" font-size="14">
            <tspan x="14" y="23">来源</tspan> <tspan x="14" y="43">分享</tspan> <tspan x="14" y="63">点赞</tspan> <tspan x="14" y="83">打赏</tspan>
          </text>
        </g>
        <g transform="translate(134 64)">
          <path fill="#EBF9FD" stroke="#00AAE7" d="M54,0.5 C54.4142136,0.5 54.7892136,0.667893219 55.0606602,0.939339828 C55.3321068,1.21078644 55.5,1.58578644 55.5,2 L55.5,2 L55.5,94 C55.5,94.4142136 55.3321068,94.7892136 55.0606602,95.0606602 C54.7892136,95.3321068 54.4142136,95.5 54,95.5 L54,95.5 L2,95.5 C1.58578644,95.5 1.21078644,95.3321068 0.939339828,95.0606602 C0.667893219,94.7892136 0.5,94.4142136 0.5,94 L0.5,94 L0.5,2 C0.5,1.58578644 0.667893219,1.21078644 0.939339828,0.939339828 C1.21078644,0.667893219 1.58578644,0.5 2,0.5 L2,0.5 Z"/>
          <text fill="#24B5E9" font-family="PingFangSC-Regular, PingFang SC" font-size="14">
            <tspan x="14" y="23">浏览</tspan> <tspan x="14" y="43">加购</tspan> <tspan x="14" y="63">下单</tspan> <tspan x="14" y="83">支付</tspan>
          </text>
        </g>
      </g>
      <polygon fill="#43C0C3" points="0 0 200 0 214 28 200 56 0 56" opacity=".854"/>
      <text fill="#FFF" font-family="PingFangSC-Medium, PingFang SC" font-size="18" font-weight="400">
        <tspan x="71" y="35">客户留存</tspan>
      </text>
    </g>
    <g transform="translate(952)">
      <polygon fill="#00AAE7" points="0 69 214 69 214 427 0 427" opacity=".08"/>
      <g transform="translate(0 69)">
        <rect width="214" height="36" fill="#24B5E9"/>
        <text fill="#FFF" font-family="PingFangSC-Regular, PingFang SC" font-size="14">
          <tspan x="79" y="23">直播复盘</tspan>
        </text>
      </g>
      <g transform="translate(8 113)">
        <path fill="#FFF" d="M2,0 L196,0 C197.104569,-2.02906125e-16 198,0.8954305 198,2 L198,128 C198,129.104569 197.104569,130 196,130 L2,130 C0.8954305,130 1.3527075e-16,129.104569 0,128 L0,2 C-1.3527075e-16,0.8954305 0.8954305,2.02906125e-16 2,0 Z"/>
        <text fill="#24B5E9" font-family="PingFangSC-Regular, PingFang SC" font-size="14">
          <tspan x="57" y="23">单场直播分析</tspan>
        </text>
        <g transform="translate(8 38)">
          <path fill="#EBF9FD" stroke="#00AAE7" d="M54,0.5 C54.4142136,0.5 54.7892136,0.667893219 55.0606602,0.939339828 C55.3321068,1.21078644 55.5,1.58578644 55.5,2 L55.5,2 L55.5,34 C55.5,34.4142136 55.3321068,34.7892136 55.0606602,35.0606602 C54.7892136,35.3321068 54.4142136,35.5 54,35.5 L54,35.5 L2,35.5 C1.58578644,35.5 1.21078644,35.3321068 0.939339828,35.0606602 C0.667893219,34.7892136 0.5,34.4142136 0.5,34 L0.5,34 L0.5,2 C0.5,1.58578644 0.667893219,1.21078644 0.939339828,0.939339828 C1.21078644,0.667893219 1.58578644,0.5 2,0.5 L2,0.5 Z"/>
          <text fill="#24B5E9" font-family="PingFangSC-Regular, PingFang SC" font-size="12">
            <tspan x="4" y="23">访问数据</tspan>
          </text>
        </g>
        <g transform="translate(71 38)">
          <path fill="#EBF9FD" stroke="#00AAE7" d="M54,0.5 C54.4142136,0.5 54.7892136,0.667893219 55.0606602,0.939339828 C55.3321068,1.21078644 55.5,1.58578644 55.5,2 L55.5,2 L55.5,34 C55.5,34.4142136 55.3321068,34.7892136 55.0606602,35.0606602 C54.7892136,35.3321068 54.4142136,35.5 54,35.5 L54,35.5 L2,35.5 C1.58578644,35.5 1.21078644,35.3321068 0.939339828,35.0606602 C0.667893219,34.7892136 0.5,34.4142136 0.5,34 L0.5,34 L0.5,2 C0.5,1.58578644 0.667893219,1.21078644 0.939339828,0.939339828 C1.21078644,0.667893219 1.58578644,0.5 2,0.5 L2,0.5 Z"/>
          <text fill="#24B5E9" font-family="PingFangSC-Regular, PingFang SC" font-size="12">
            <tspan x="4" y="23">转化数据</tspan>
          </text>
        </g>
        <g transform="translate(134 38)">
          <path fill="#EBF9FD" stroke="#00AAE7" d="M54,0.5 C54.4142136,0.5 54.7892136,0.667893219 55.0606602,0.939339828 C55.3321068,1.21078644 55.5,1.58578644 55.5,2 L55.5,2 L55.5,34 C55.5,34.4142136 55.3321068,34.7892136 55.0606602,35.0606602 C54.7892136,35.3321068 54.4142136,35.5 54,35.5 L54,35.5 L2,35.5 C1.58578644,35.5 1.21078644,35.3321068 0.939339828,35.0606602 C0.667893219,34.7892136 0.5,34.4142136 0.5,34 L0.5,34 L0.5,2 C0.5,1.58578644 0.667893219,1.21078644 0.939339828,0.939339828 C1.21078644,0.667893219 1.58578644,0.5 2,0.5 L2,0.5 Z"/>
          <text fill="#24B5E9" font-family="PingFangSC-Regular, PingFang SC" font-size="12">
            <tspan x="4" y="23">成交数据</tspan>
          </text>
        </g>
        <g transform="translate(8 82)">
          <path fill="#EBF9FD" stroke="#00AAE7" d="M54,0.5 C54.4142136,0.5 54.7892136,0.667893219 55.0606602,0.939339828 C55.3321068,1.21078644 55.5,1.58578644 55.5,2 L55.5,2 L55.5,34 C55.5,34.4142136 55.3321068,34.7892136 55.0606602,35.0606602 C54.7892136,35.3321068 54.4142136,35.5 54,35.5 L54,35.5 L2,35.5 C1.58578644,35.5 1.21078644,35.3321068 0.939339828,35.0606602 C0.667893219,34.7892136 0.5,34.4142136 0.5,34 L0.5,34 L0.5,2 C0.5,1.58578644 0.667893219,1.21078644 0.939339828,0.939339828 C1.21078644,0.667893219 1.58578644,0.5 2,0.5 L2,0.5 Z"/>
          <text fill="#24B5E9" font-family="PingFangSC-Regular, PingFang SC" font-size="12">
            <tspan x="14" y="14">拉新/</tspan> <tspan x="17" y="31">转粉</tspan>
          </text>
        </g>
        <g transform="translate(71 82)">
          <path fill="#EBF9FD" stroke="#00AAE7" d="M54,0.5 C54.4142136,0.5 54.7892136,0.667893219 55.0606602,0.939339828 C55.3321068,1.21078644 55.5,1.58578644 55.5,2 L55.5,2 L55.5,34 C55.5,34.4142136 55.3321068,34.7892136 55.0606602,35.0606602 C54.7892136,35.3321068 54.4142136,35.5 54,35.5 L54,35.5 L2,35.5 C1.58578644,35.5 1.21078644,35.3321068 0.939339828,35.0606602 C0.667893219,34.7892136 0.5,34.4142136 0.5,34 L0.5,34 L0.5,2 C0.5,1.58578644 0.667893219,1.21078644 0.939339828,0.939339828 C1.21078644,0.667893219 1.58578644,0.5 2,0.5 L2,0.5 Z"/>
          <text fill="#24B5E9" font-family="PingFangSC-Regular, PingFang SC" font-size="12">
            <tspan x="4" y="23">商品分析</tspan>
          </text>
        </g>
        <g transform="translate(134 82)">
          <path fill="#EBF9FD" stroke="#00AAE7" d="M54,0.5 C54.4142136,0.5 54.7892136,0.667893219 55.0606602,0.939339828 C55.3321068,1.21078644 55.5,1.58578644 55.5,2 L55.5,2 L55.5,34 C55.5,34.4142136 55.3321068,34.7892136 55.0606602,35.0606602 C54.7892136,35.3321068 54.4142136,35.5 54,35.5 L54,35.5 L2,35.5 C1.58578644,35.5 1.21078644,35.3321068 0.939339828,35.0606602 C0.667893219,34.7892136 0.5,34.4142136 0.5,34 L0.5,34 L0.5,2 C0.5,1.58578644 0.667893219,1.21078644 0.939339828,0.939339828 C1.21078644,0.667893219 1.58578644,0.5 2,0.5 L2,0.5 Z"/>
          <text fill="#24B5E9" font-family="PingFangSC-Regular, PingFang SC" font-size="12">
            <tspan x="16" y="23">销售</tspan>
          </text>
        </g>
      </g>
      <g transform="translate(8 251)">
        <path fill="#FFF" d="M2,0 L196,0 C197.104569,-2.02906125e-16 198,0.8954305 198,2 L198,166 C198,167.104569 197.104569,168 196,168 L2,168 C0.8954305,168 1.3527075e-16,167.104569 0,166 L0,2 C-1.3527075e-16,0.8954305 0.8954305,2.02906125e-16 2,0 Z"/>
        <text fill="#24B5E9" font-family="PingFangSC-Regular, PingFang SC" font-size="14">
          <tspan x="71" y="23">平台统计</tspan>
        </text>
        <g transform="translate(8 34)">
          <path fill="#EBF9FD" stroke="#00AAE7" d="M54,0.5 C54.4142136,0.5 54.7892136,0.667893219 55.0606602,0.939339828 C55.3321068,1.21078644 55.5,1.58578644 55.5,2 L55.5,2 L55.5,34 C55.5,34.4142136 55.3321068,34.7892136 55.0606602,35.0606602 C54.7892136,35.3321068 54.4142136,35.5 54,35.5 L54,35.5 L2,35.5 C1.58578644,35.5 1.21078644,35.3321068 0.939339828,35.0606602 C0.667893219,34.7892136 0.5,34.4142136 0.5,34 L0.5,34 L0.5,2 C0.5,1.58578644 0.667893219,1.21078644 0.939339828,0.939339828 C1.21078644,0.667893219 1.58578644,0.5 2,0.5 L2,0.5 Z"/>
          <text fill="#24B5E9" font-family="PingFangSC-Regular, PingFang SC" font-size="12">
            <tspan x="4" y="23">转化成交</tspan>
          </text>
        </g>
        <g transform="translate(71 34)">
          <path fill="#EBF9FD" stroke="#00AAE7" d="M54,0.5 C54.4142136,0.5 54.7892136,0.667893219 55.0606602,0.939339828 C55.3321068,1.21078644 55.5,1.58578644 55.5,2 L55.5,2 L55.5,34 C55.5,34.4142136 55.3321068,34.7892136 55.0606602,35.0606602 C54.7892136,35.3321068 54.4142136,35.5 54,35.5 L54,35.5 L2,35.5 C1.58578644,35.5 1.21078644,35.3321068 0.939339828,35.0606602 C0.667893219,34.7892136 0.5,34.4142136 0.5,34 L0.5,34 L0.5,2 C0.5,1.58578644 0.667893219,1.21078644 0.939339828,0.939339828 C1.21078644,0.667893219 1.58578644,0.5 2,0.5 L2,0.5 Z"/>
          <text fill="#24B5E9" font-family="PingFangSC-Regular, PingFang SC" font-size="12">
            <tspan x="4" y="23">销售趋势</tspan>
          </text>
        </g>
        <g transform="translate(134 34)">
          <path fill="#EBF9FD" stroke="#00AAE7" d="M54,0.5 C54.4142136,0.5 54.7892136,0.667893219 55.0606602,0.939339828 C55.3321068,1.21078644 55.5,1.58578644 55.5,2 L55.5,2 L55.5,34 C55.5,34.4142136 55.3321068,34.7892136 55.0606602,35.0606602 C54.7892136,35.3321068 54.4142136,35.5 54,35.5 L54,35.5 L2,35.5 C1.58578644,35.5 1.21078644,35.3321068 0.939339828,35.0606602 C0.667893219,34.7892136 0.5,34.4142136 0.5,34 L0.5,34 L0.5,2 C0.5,1.58578644 0.667893219,1.21078644 0.939339828,0.939339828 C1.21078644,0.667893219 1.58578644,0.5 2,0.5 L2,0.5 Z"/>
          <text fill="#24B5E9" font-family="PingFangSC-Regular, PingFang SC" font-size="12">
            <tspan x="4" y="23">观看趋势</tspan>
          </text>
        </g>
        <g transform="translate(8 77)">
          <path fill="#EBF9FD" stroke="#00AAE7" d="M86,0.5 C86.4142136,0.5 86.7892136,0.667893219 87.0606602,0.939339828 C87.3321068,1.21078644 87.5,1.58578644 87.5,2 L87.5,2 L87.5,34 C87.5,34.4142136 87.3321068,34.7892136 87.0606602,35.0606602 C86.7892136,35.3321068 86.4142136,35.5 86,35.5 L86,35.5 L2,35.5 C1.58578644,35.5 1.21078644,35.3321068 0.939339828,35.0606602 C0.667893219,34.7892136 0.5,34.4142136 0.5,34 L0.5,34 L0.5,2 C0.5,1.58578644 0.667893219,1.21078644 0.939339828,0.939339828 C1.21078644,0.667893219 1.58578644,0.5 2,0.5 L2,0.5 Z"/>
          <text fill="#24B5E9" font-family="PingFangSC-Regular, PingFang SC" font-size="12">
            <tspan x="8" y="23">门店直播统计</tspan>
          </text>
        </g>
        <g transform="translate(102 77)">
          <path fill="#EBF9FD" stroke="#00AAE7" d="M86,0.5 C86.4142136,0.5 86.7892136,0.667893219 87.0606602,0.939339828 C87.3321068,1.21078644 87.5,1.58578644 87.5,2 L87.5,2 L87.5,34 C87.5,34.4142136 87.3321068,34.7892136 87.0606602,35.0606602 C86.7892136,35.3321068 86.4142136,35.5 86,35.5 L86,35.5 L2,35.5 C1.58578644,35.5 1.21078644,35.3321068 0.939339828,35.0606602 C0.667893219,34.7892136 0.5,34.4142136 0.5,34 L0.5,34 L0.5,2 C0.5,1.58578644 0.667893219,1.21078644 0.939339828,0.939339828 C1.21078644,0.667893219 1.58578644,0.5 2,0.5 L2,0.5 Z"/>
          <text fill="#24B5E9" font-family="PingFangSC-Regular, PingFang SC" font-size="12">
            <tspan x="8" y="23">平台直播累计</tspan>
          </text>
        </g>
        <g transform="translate(8 120)">
          <path fill="#EBF9FD" stroke="#00AAE7" d="M86,0.5 C86.4142136,0.5 86.7892136,0.667893219 87.0606602,0.939339828 C87.3321068,1.21078644 87.5,1.58578644 87.5,2 L87.5,2 L87.5,34 C87.5,34.4142136 87.3321068,34.7892136 87.0606602,35.0606602 C86.7892136,35.3321068 86.4142136,35.5 86,35.5 L86,35.5 L2,35.5 C1.58578644,35.5 1.21078644,35.3321068 0.939339828,35.0606602 C0.667893219,34.7892136 0.5,34.4142136 0.5,34 L0.5,34 L0.5,2 C0.5,1.58578644 0.667893219,1.21078644 0.939339828,0.939339828 C1.21078644,0.667893219 1.58578644,0.5 2,0.5 L2,0.5 Z"/>
          <text fill="#24B5E9" font-family="PingFangSC-Regular, PingFang SC" font-size="12">
            <tspan x="8" y="23">热门直播榜单</tspan>
          </text>
        </g>
        <g transform="translate(102 120)">
          <path fill="#EBF9FD" stroke="#00AAE7" d="M86,0.5 C86.4142136,0.5 86.7892136,0.667893219 87.0606602,0.939339828 C87.3321068,1.21078644 87.5,1.58578644 87.5,2 L87.5,2 L87.5,34 C87.5,34.4142136 87.3321068,34.7892136 87.0606602,35.0606602 C86.7892136,35.3321068 86.4142136,35.5 86,35.5 L86,35.5 L2,35.5 C1.58578644,35.5 1.21078644,35.3321068 0.939339828,35.0606602 C0.667893219,34.7892136 0.5,34.4142136 0.5,34 L0.5,34 L0.5,2 C0.5,1.58578644 0.667893219,1.21078644 0.939339828,0.939339828 C1.21078644,0.667893219 1.58578644,0.5 2,0.5 L2,0.5 Z"/>
          <text fill="#24B5E9" font-family="PingFangSC-Regular, PingFang SC" font-size="12">
            <tspan x="8" y="23">最佳带货榜单</tspan>
          </text>
        </g>
      </g>
      <polygon fill="#43C0C3" points="0 0 200 0 214 28 200 56 0 56" opacity=".854"/>
      <text fill="#FFF" font-family="PingFangSC-Medium, PingFang SC" font-size="18" font-weight="400">
        <tspan x="71" y="35">直播复盘</tspan>
      </text>
    </g>
  </g>
</svg>
