<svg xmlns="http://www.w3.org/2000/svg" width="24" height="24" viewBox="0 0 24 24">
  <g fill="none" fill-rule="evenodd" transform="translate(1 1)">
    <circle cx="7.5" cy="11.5" r="1.5" fill="#333" fill-rule="nonzero"/>
    <circle cx="14.5" cy="11.5" r="1.5" fill="#333" fill-rule="nonzero"/>
    <path stroke="#00AAE7" stroke-linecap="square" stroke-width="2" d="M11,0 C4.925,0 0,4.925 0,11 L0,20 C0,20 3,22 11,22 C19,22 22,20 22,20 L22,11 C22,4.925 17.075,0 11,0 Z"/>
    <path stroke="#333" stroke-linecap="square" stroke-width="2" d="M13.289,3.336 C10.754,5.86 7.378,7.54 3.617,7.918 C3.22,8.867 3,9.908 3,11 C3,15.418 6.582,19 11,19 C15.418,19 19,15.418 19,11 C19,7.378 16.591,4.321 13.289,3.336 Z"/>
  </g>
</svg>
