<?xml version="1.0" encoding="UTF-8"?>
<svg width="452px" height="400px" viewBox="0 0 752 400" version="1.1" xmlns="http://www.w3.org/2000/svg" xmlns:xlink="http://www.w3.org/1999/xlink">
    <!-- Generator: Sketch 64 (93537) - https://sketch.com -->
    <title>编组 3</title>
    <desc>Created with Sketch.</desc>
    <g id="产品" stroke="none" stroke-width="1" fill="none" fill-rule="evenodd">
        <g id="基础服务-直播02✅" transform="translate(-372.000000, -1716.000000)">
            <g id="产品介绍-2备份-2" transform="translate(0.000000, 1460.000000)">
                <g id="编组-6" transform="translate(372.000000, 72.000000)">
                    <g id="编组-5" transform="translate(0.000000, 180.000000)">
                        <g id="编组-23">
                            <g id="编组-3" transform="translate(0.000000, 4.000000)">
                                <path d="M234,0 L563,0 C564.104569,-2.02906125e-16 565,0.8954305 565,2 L565,398 C565,399.104569 564.104569,400 563,400 L234,400 C232.895431,400 232,399.104569 232,398 L232,2 C232,0.8954305 232.895431,2.02906125e-16 234,0 Z" id="矩形备份-41" fill="#E6F4F9"></path>
                                <path d="M246,148 L551,148 C552.104569,148 553,148.895431 553,150 L553,236 C553,237.104569 552.104569,238 551,238 L246,238 C244.895431,238 244,237.104569 244,236 L244,150 C244,148.895431 244.895431,148 246,148 Z" id="矩形备份-9" fill="#FFFFFF" opacity="0.85"></path>
                                <rect id="矩形备份" stroke="#21B4E9" fill="#E6F4F9" x="256" y="177" width="285" height="52"></rect>
                                <path d="M246,244 L551,244 C552.104569,244 553,244.895431 553,246 L553,311 C553,312.104569 552.104569,313 551,313 L246,313 C244.895431,313 244,312.104569 244,311 L244,246 C244,244.895431 244.895431,244 246,244 Z" id="矩形备份-10" fill="#FFFFFF" opacity="0.85"></path>
                                <rect id="矩形备份-2" stroke="#21B4E9" fill="#E6F4F9" x="256" y="273" width="285" height="32"></rect>
                                <path d="M246,319 L551,319 C552.104569,319 553,319.895431 553,321 L553,386 C553,387.104569 552.104569,388 551,388 L246,388 C244.895431,388 244,387.104569 244,386 L244,321 C244,319.895431 244.895431,319 246,319 Z" id="矩形备份-11" fill="#FFFFFF" opacity="0.85"></path>
                                <rect id="矩形备份-3" stroke="#21B4E9" fill="#E6F4F9" x="256" y="348" width="285" height="32"></rect>
                                <path d="M246,52 L551,52 C552.104569,52 553,52.8954305 553,54 L553,140 C553,141.104569 552.104569,142 551,142 L246,142 C244.895431,142 244,141.104569 244,140 L244,54 C244,52.8954305 244.895431,52 246,52 Z" id="矩形备份-12" fill="#FFFFFF" opacity="0.85"></path>
                                <text id="流管理-截图管理-录制管理-录制-存储备份" font-family="PingFangSC-Regular, PingFang SC" font-size="12" font-weight="normal" line-spacing="22" fill="#00AAE7">
                                    <tspan x="280" y="195">流管理    截图管理    录制管理    录制    存储</tspan>
                                </text>
                                <text id="数据监控-用户监控-服务监控备份" font-family="PingFangSC-Regular, PingFang SC" font-size="12" font-weight="normal" line-spacing="22" fill="#00AAE7">
                                    <tspan x="280" y="291">数据监控    用户监控    服务监控</tspan>
                                </text>
                                <text id="鉴权-加速-IP黑白名单备份" font-family="PingFangSC-Regular, PingFang SC" font-size="12" font-weight="normal" line-spacing="22" fill="#00AAE7">
                                    <tspan x="280" y="366">鉴权    加速    IP黑白名单</tspan>
                                </text>
                                <g id="更多备份-4" transform="translate(281.000000, 208.000000)" fill-rule="nonzero">
                                    <rect id="矩形" fill="#000000" opacity="0" x="0" y="0" width="12" height="12"></rect>
                                    <path d="M0,6.5 C0,7.3284271 0.610516806,8 1.36362745,8 C2.1167381,8 2.72725491,7.3284271 2.72725491,6.5 C2.72725491,5.67157287 2.1167381,5 1.36362745,5 C0.610516806,5 0,5.67157287 0,6.5 Z M4.63637255,6.5 C4.63637255,7.03589837 4.89627846,7.53108891 5.31818627,7.7990381 C5.74009407,8.0669873 6.25990593,8.0669873 6.68181373,7.7990381 C7.10372154,7.53108891 7.36362745,7.03589837 7.36362745,6.5 C7.36362745,5.67157287 6.75311065,5 6,5 C5.24688935,5 4.63637255,5.67157287 4.63637255,6.5 L4.63637255,6.5 Z M9.27274509,6.5 C9.27274509,7.3284271 9.8832619,8 10.6363725,8 C11.3894832,8 12,7.3284271 12,6.5 C12,5.67157287 11.3894832,5 10.6363725,5 C9.8832619,5 9.27274509,5.67157287 9.27274509,6.5 Z" id="形状" fill="#21B4E9"></path>
                                </g>
                                <g id="更多备份-5" transform="translate(469.000000, 283.000000)" fill-rule="nonzero">
                                    <rect id="矩形" fill="#000000" opacity="0" x="0" y="0" width="12" height="12"></rect>
                                    <path d="M0,6.5 C0,7.3284271 0.610516806,8 1.36362745,8 C2.1167381,8 2.72725491,7.3284271 2.72725491,6.5 C2.72725491,5.67157287 2.1167381,5 1.36362745,5 C0.610516806,5 0,5.67157287 0,6.5 Z M4.63637255,6.5 C4.63637255,7.03589837 4.89627846,7.53108891 5.31818627,7.7990381 C5.74009407,8.0669873 6.25990593,8.0669873 6.68181373,7.7990381 C7.10372154,7.53108891 7.36362745,7.03589837 7.36362745,6.5 C7.36362745,5.67157287 6.75311065,5 6,5 C5.24688935,5 4.63637255,5.67157287 4.63637255,6.5 L4.63637255,6.5 Z M9.27274509,6.5 C9.27274509,7.3284271 9.8832619,8 10.6363725,8 C11.3894832,8 12,7.3284271 12,6.5 C12,5.67157287 11.3894832,5 10.6363725,5 C9.8832619,5 9.27274509,5.67157287 9.27274509,6.5 Z" id="形状" fill="#21B4E9"></path>
                                </g>
                                <g id="更多备份-6" transform="translate(429.000000, 358.000000)" fill-rule="nonzero">
                                    <rect id="矩形" fill="#000000" opacity="0" x="0" y="0" width="12" height="12"></rect>
                                    <path d="M0,6.5 C0,7.3284271 0.610516806,8 1.36362745,8 C2.1167381,8 2.72725491,7.3284271 2.72725491,6.5 C2.72725491,5.67157287 2.1167381,5 1.36362745,5 C0.610516806,5 0,5.67157287 0,6.5 Z M4.63637255,6.5 C4.63637255,7.03589837 4.89627846,7.53108891 5.31818627,7.7990381 C5.74009407,8.0669873 6.25990593,8.0669873 6.68181373,7.7990381 C7.10372154,7.53108891 7.36362745,7.03589837 7.36362745,6.5 C7.36362745,5.67157287 6.75311065,5 6,5 C5.24688935,5 4.63637255,5.67157287 4.63637255,6.5 L4.63637255,6.5 Z M9.27274509,6.5 C9.27274509,7.3284271 9.8832619,8 10.6363725,8 C11.3894832,8 12,7.3284271 12,6.5 C12,5.67157287 11.3894832,5 10.6363725,5 C9.8832619,5 9.27274509,5.67157287 9.27274509,6.5 Z" id="形状" fill="#21B4E9"></path>
                                </g>
                                <rect id="矩形备份-4" stroke="#21B4E9" fill="#E6F4F9" x="256" y="81" width="285" height="52"></rect>
                                <text id="教育服务组件管理备份" font-family="PingFangSC-Regular, PingFang SC" font-size="14" font-weight="normal" line-spacing="18" fill="#00AAE7">
                                    <tspan x="341" y="73">教育服务组件管理</tspan>
                                </text>
                                <text id="直播管理备份" font-family="PingFangSC-Regular, PingFang SC" font-size="14" font-weight="normal" line-spacing="18" fill="#00AAE7">
                                    <tspan x="370" y="169">直播管理</tspan>
                                </text>
                                <text id="资源监控备份-2" font-family="PingFangSC-Regular, PingFang SC" font-size="14" font-weight="normal" line-spacing="18" fill="#00AAE7">
                                    <tspan x="370" y="265">资源监控</tspan>
                                </text>
                                <text id="安全管理备份" font-family="PingFangSC-Regular, PingFang SC" font-size="14" font-weight="normal" line-spacing="18" fill="#00AAE7">
                                    <tspan x="370" y="339">安全管理</tspan>
                                </text>
                                <text id="多画面布局-自定义素材-画面预览-备播备份" font-family="PingFangSC-Regular, PingFang SC" font-size="12" font-weight="normal" line-spacing="22" fill="#00AAE7">
                                    <tspan x="280" y="99">多画面布局    自定义素材    画面预览    备播</tspan>
                                    <tspan x="280" y="121">图标    延播</tspan>
                                </text>
                                <g id="更多备份-7" transform="translate(359.000000, 113.000000)" fill-rule="nonzero">
                                    <rect id="矩形" fill="#000000" opacity="0" x="0" y="0" width="12" height="12"></rect>
                                    <path d="M0,6.5 C0,7.3284271 0.610516806,8 1.36362745,8 C2.1167381,8 2.72725491,7.3284271 2.72725491,6.5 C2.72725491,5.67157287 2.1167381,5 1.36362745,5 C0.610516806,5 0,5.67157287 0,6.5 Z M4.63637255,6.5 C4.63637255,7.03589837 4.89627846,7.53108891 5.31818627,7.7990381 C5.74009407,8.0669873 6.25990593,8.0669873 6.68181373,7.7990381 C7.10372154,7.53108891 7.36362745,7.03589837 7.36362745,6.5 C7.36362745,5.67157287 6.75311065,5 6,5 C5.24688935,5 4.63637255,5.67157287 4.63637255,6.5 L4.63637255,6.5 Z M9.27274509,6.5 C9.27274509,7.3284271 9.8832619,8 10.6363725,8 C11.3894832,8 12,7.3284271 12,6.5 C12,5.67157287 11.3894832,5 10.6363725,5 C9.8832619,5 9.27274509,5.67157287 9.27274509,6.5 Z" id="形状" fill="#21B4E9"></path>
                                </g>
                                <rect id="矩形备份-42" fill="#00AAE7" opacity="0.854399182" x="232" y="0" width="333" height="40"></rect>
                                <text id="业务开发/运营人员（教育直播服务系统）备份" font-family="PingFangSC-Medium, PingFang SC" font-size="16" font-weight="400" line-spacing="36" fill="#FFFFFF">
                                    <tspan x="255" y="19">业务开发/运营人员（教育直播服务系统）</tspan>
                                </text>
                                <path d="M2,0 L205,0 C206.104569,-2.02906125e-16 207,0.8954305 207,2 L207,398 C207,399.104569 206.104569,400 205,400 L2,400 C0.8954305,400 1.3527075e-16,399.104569 0,398 L0,2 C-1.3527075e-16,0.8954305 0.8954305,2.02906125e-16 2,0 Z" id="矩形备份-43" fill="#E2F2F3"></path>
                                <text id="互动工具" font-family="PingFangSC-Regular, PingFang SC" font-size="14" font-weight="normal" line-spacing="22" fill="#28B8BB">
                                    <tspan x="72" y="276">互动工具</tspan>
                                </text>
                                <g id="更多备份-8" transform="translate(145.000000, 340.000000)" fill-rule="nonzero">
                                    <rect id="矩形" fill="#000000" opacity="0" x="0" y="0" width="14" height="14"></rect>
                                    <path d="M0,7.5 C0,8.3284271 0.712269607,9 1.5908987,9 C2.46952778,9 3.18179739,8.3284271 3.18179739,7.5 C3.18179739,6.67157287 2.46952778,6 1.5908987,6 C0.712269607,6 0,6.67157287 0,7.5 Z M5.4091013,7.5 C5.4091013,8.03589837 5.71232487,8.53108891 6.20455064,8.7990381 C6.69677642,9.0669873 7.30322358,9.0669873 7.79544936,8.7990381 C8.28767513,8.53108891 8.5908987,8.03589837 8.5908987,7.5 C8.5908987,6.67157287 7.87862909,6 7,6 C6.12137091,6 5.4091013,6.67157287 5.4091013,7.5 L5.4091013,7.5 Z M10.8182026,7.5 C10.8182026,8.3284271 11.5304722,9 12.4091013,9 C13.2877304,9 14,8.3284271 14,7.5 C14,6.67157287 13.2877304,6 12.4091013,6 C11.5304722,6 10.8182026,6.67157287 10.8182026,7.5 Z" id="形状" fill="#28B8BB"></path>
                                </g>
                                <path id="路径-15备份-6" d="M97,179.5 L97,204 L101,204 L96.5,213 L92,204 L96,204 L96,179.5 L97,179.5 Z" fill="#28B8BB" fill-rule="nonzero"></path>
                                <path d="M14,56 L193,56 C194.104569,56 195,56.8954305 195,58 L195,178 C195,179.104569 194.104569,180 193,180 L14,180 C12.8954305,180 12,179.104569 12,178 L12,58 C12,56.8954305 12.8954305,56 14,56 Z" id="矩形备份-13" fill="#FFFFFF" opacity="0.85"></path>
                                <text id="全球-加速备份" font-family="PingFangSC-Regular, PingFang SC" font-size="12" font-weight="normal" line-spacing="16" fill="#00AAE7">
                                    <tspan x="207" y="175">全球</tspan>
                                    <tspan x="207" y="191">加速</tspan>
                                </text>
                                <path d="M623,0 L750,0 C751.104569,-2.02906125e-16 752,0.8954305 752,2 L752,398 C752,399.104569 751.104569,400 750,400 L623,400 C621.895431,400 621,399.104569 621,398 L621,2 C621,0.8954305 621.895431,2.02906125e-16 623,0 Z" id="矩形备份-44" fill="#E2F2F3"></path>
                                <path d="M635,56 L738,56 C739.104569,56 740,56.8954305 740,58 L740,281 C740,282.104569 739.104569,283 738,283 L635,283 C633.895431,283 633,282.104569 633,281 L633,58 C633,56.8954305 633.895431,56 635,56 Z" id="矩形备份-14" fill="#FFFFFF" opacity="0.85"></path>
                                <rect id="矩形备份-45" stroke="#42C0C3" fill="#E2F2F3" x="642" y="132" width="89" height="112" rx="2"></rect>
                                <text id="七牛推流SDK备份" font-family="PingFangSC-Regular, PingFang SC" font-size="14" font-weight="normal" line-spacing="22" fill="#28B8BB">
                                    <tspan x="644" y="161">七牛推流SDK</tspan>
                                </text>
                                <text id="推流/播放设备-(手机、pc)备份" font-family="PingFangSC-Regular, PingFang SC" font-size="14" font-weight="normal" line-spacing="24" fill="#28B8BB">
                                    <tspan x="641" y="81">推流/播放设备</tspan>
                                    <tspan x="641" y="105">(手机、pc)</tspan>
                                </text>
                                <text id="七牛实时音视-频SDK备份" font-family="PingFangSC-Regular, PingFang SC" font-size="14" font-weight="normal" line-spacing="22" fill="#28B8BB">
                                    <tspan x="644" y="200">七牛实时音视</tspan>
                                    <tspan x="644" y="222">频SDK</tspan>
                                </text>
                                <path id="路径-15备份-7" d="M606.5,195 L615.5,199.5 L606.5,204 L606.5,200 L565,200 L565,199 L606.5,199 L606.5,195 Z" fill="#21B4E9" fill-rule="nonzero"></path>
                                <path id="路径-15备份-8" d="M223.5,195 L232.5,199.5 L223.5,204 L223.5,200 L207,200 L207,199 L223.5,199 L223.5,195 Z" fill="#21B4E9" fill-rule="nonzero"></path>
                                <text id="加速分发(鉴权/回源鉴权/弱网优化)备份" font-family="PingFangSC-Regular, PingFang SC" font-size="12" font-weight="normal" line-spacing="16" fill="#00AAE7">
                                    <tspan x="568" y="139">加速分发</tspan>
                                    <tspan x="568" y="155">(鉴权/回</tspan>
                                    <tspan x="568" y="171">源鉴权/</tspan>
                                    <tspan x="568" y="187" letter-spacing="-0.5">弱网优化)</tspan>
                                </text>
                                <rect id="矩形备份-46" stroke="#42C0C3" fill="#E2F2F3" x="23" y="93" width="160" height="76" rx="2"></rect>
                                <rect id="矩形备份-59" stroke="#42C0C3" x="12" y="214" width="183" height="36" rx="2"></rect>
                                <rect id="矩形备份-59" stroke="#42C0C3" x="12" y="286" width="183" height="102" rx="2"></rect>
                                <rect id="矩形备份-62" stroke="#42C0C3" x="633" y="324" width="107" height="40" rx="2"></rect>
                                <rect id="矩形备份-47" fill="#28B8BB" opacity="0.854399182" x="0" y="0" width="207" height="40"></rect>
                                <rect id="矩形备份-50" fill="#28B8BB" opacity="0.854399182" x="621" y="0" width="131" height="40"></rect>
                                <text id="老师-(推流/互动)" font-family="PingFangSC-Medium, PingFang SC" font-size="16" font-weight="400" line-spacing="36" fill="#FFFFFF">
                                    <tspan x="43" y="19">老师 (推流/互动)</tspan>
                                </text>
                                <text id="学生-(播放/互动)" font-family="PingFangSC-Medium, PingFang SC" font-size="16" font-weight="400" line-spacing="36" fill="#FFFFFF">
                                    <tspan x="626" y="19">学生 (播放/互动)</tspan>
                                </text>
                                <text id="推流/播放设备(手机、pc)备份" font-family="PingFangSC-Regular, PingFang SC" font-size="14" font-weight="normal" line-spacing="22" fill="#28B8BB">
                                    <tspan x="25" y="79">推流/播放设备(手机、pc)</tspan>
                                </text>
                                <text id="七牛推流SDK备份-2" font-family="PingFangSC-Regular, PingFang SC" font-size="14" font-weight="normal" line-spacing="22" fill="#28B8BB">
                                    <tspan x="28" y="119">七牛推流SDK</tspan>
                                </text>
                                <text id="七牛实时音视频SDK备份" font-family="PingFangSC-Regular, PingFang SC" font-size="14" font-weight="normal" line-spacing="22" fill="#28B8BB">
                                    <tspan x="28" y="154">七牛实时音视频SDK</tspan>
                                </text>
                                <text id="七牛直播业务服务器备份" font-family="PingFangSC-Regular, PingFang SC" font-size="14" font-weight="normal" line-spacing="22" fill="#28B8BB">
                                    <tspan x="41" y="236">七牛直播业务服务器</tspan>
                                </text>
                                <text id="白板-画笔-橡皮擦-连麦排队" font-family="PingFangSC-Regular, PingFang SC" font-size="12" font-weight="normal" line-spacing="22" fill="#28B8BB">
                                    <tspan x="21" y="306">白板</tspan>
                                    <tspan x="21" y="328">画笔</tspan>
                                    <tspan x="21" y="350">橡皮擦</tspan>
                                    <tspan x="21" y="372">连麦排队</tspan>
                                </text>
                                <text id="踢出教室-激光笔-禁止发言-全员禁言" font-family="PingFangSC-Regular, PingFang SC" font-size="12" font-weight="normal" line-spacing="22" fill="#28B8BB">
                                    <tspan x="79" y="306">踢出教室</tspan>
                                    <tspan x="79" y="328">激光笔</tspan>
                                    <tspan x="79" y="350">禁止发言</tspan>
                                    <tspan x="79" y="372">全员禁言</tspan>
                                </text>
                                <text id="课件投屏-录屏" font-family="PingFangSC-Regular, PingFang SC" font-size="12" font-weight="normal" line-spacing="22" fill="#28B8BB">
                                    <tspan x="141" y="306">课件投屏</tspan>
                                    <tspan x="141" y="328">录屏</tspan>
                                </text>
                                <text id="弱网优化（quic)/鉴权备份" font-family="PingFangSC-Regular, PingFang SC" font-size="12" font-weight="normal" line-spacing="22" fill="#28B8BB">
                                    <tspan x="45" y="197">弱网优化（quic)/鉴权</tspan>
                                </text>
                                <text id="HTML5备份" font-family="PingFangSC-Regular, PingFang SC" font-size="14" font-weight="normal" line-spacing="30" fill="#28B8BB">
                                    <tspan x="662" y="344">HTML5</tspan>
                                </text>
                            </g>
                        </g>
                    </g>
                </g>
            </g>
        </g>
    </g>
</svg>