<?xml version="1.0" encoding="UTF-8"?>
<svg width="452px" height="400px" viewBox="0 0 752 400" version="1.1" xmlns="http://www.w3.org/2000/svg" xmlns:xlink="http://www.w3.org/1999/xlink">
    <!-- Generator: Sketch 64 (93537) - https://sketch.com -->
    <title>编组 2</title>
    <desc>Created with Sketch.</desc>
    <g id="产品" stroke="none" stroke-width="1" fill="none" fill-rule="evenodd">
        <g id="基础服务-直播02✅" transform="translate(-372.000000, -986.000000)">
            <g id="产品介绍-2备份" transform="translate(0.000000, 730.000000)">
                <g id="编组-6" transform="translate(372.000000, 72.000000)">
                    <g id="编组-5" transform="translate(0.000000, 180.000000)">
                        <g id="编组-23">
                            <g id="编组-2" transform="translate(0.000000, 4.000000)">
                                <path d="M218,0 L547,0 C548.104569,-2.02906125e-16 549,0.8954305 549,2 L549,398 C549,399.104569 548.104569,400 547,400 L218,400 C216.895431,400 216,399.104569 216,398 L216,2 C216,0.8954305 216.895431,2.02906125e-16 218,0 Z" id="矩形备份-32" fill="#E6F4F9"></path>
                                <path d="M230,52 L535,52 C536.104569,52 537,52.8954305 537,54 L537,140 C537,141.104569 536.104569,142 535,142 L230,142 C228.895431,142 228,141.104569 228,140 L228,54 C228,52.8954305 228.895431,52 230,52 Z" id="矩形备份-8" fill="#FFFFFF" opacity="0.85"></path>
                                <rect id="矩形" stroke="#21B4E9" fill="#E6F4F9" x="240" y="81" width="285" height="52"></rect>
                                <path d="M230,244 L535,244 C536.104569,244 537,244.895431 537,246 L537,311 C537,312.104569 536.104569,313 535,313 L230,313 C228.895431,313 228,312.104569 228,311 L228,246 C228,244.895431 228.895431,244 230,244 Z" id="矩形备份-8" fill="#FFFFFF" opacity="0.85"></path>
                                <rect id="矩形" stroke="#21B4E9" fill="#E6F4F9" x="240" y="273" width="285" height="32"></rect>
                                <path d="M230,319 L535,319 C536.104569,319 537,319.895431 537,321 L537,386 C537,387.104569 536.104569,388 535,388 L230,388 C228.895431,388 228,387.104569 228,386 L228,321 C228,319.895431 228.895431,319 230,319 Z" id="矩形备份-8" fill="#FFFFFF" opacity="0.85"></path>
                                <rect id="矩形" stroke="#21B4E9" fill="#E6F4F9" x="240" y="348" width="285" height="32"></rect>
                                <path d="M230,148 L535,148 C536.104569,148 537,148.895431 537,150 L537,236 C537,237.104569 536.104569,238 535,238 L230,238 C228.895431,238 228,237.104569 228,236 L228,150 C228,148.895431 228.895431,148 230,148 Z" id="矩形备份-8" fill="#FFFFFF" opacity="0.85"></path>
                                <text id="流管理-截图管理-录制管理-录制-存储" font-family="PingFangSC-Regular, PingFang SC" font-size="12" font-weight="normal" line-spacing="22" fill="#00AAE7">
                                    <tspan x="264" y="99">流管理    截图管理    录制管理    录制    存储</tspan>
                                </text>
                                <text id="数据监控-用户监控-服务监控" font-family="PingFangSC-Regular, PingFang SC" font-size="12" font-weight="normal" line-spacing="22" fill="#00AAE7">
                                    <tspan x="264" y="291">数据监控    用户监控    服务监控</tspan>
                                </text>
                                <text id="鉴权-加速-IP黑白名单" font-family="PingFangSC-Regular, PingFang SC" font-size="12" font-weight="normal" line-spacing="22" fill="#00AAE7">
                                    <tspan x="264" y="366">鉴权    加速    IP黑白名单</tspan>
                                </text>
                                <g id="更多" transform="translate(265.000000, 112.000000)" fill-rule="nonzero">
                                    <rect id="矩形" fill="#000000" opacity="0" x="0" y="0" width="12" height="12"></rect>
                                    <path d="M0,6.5 C0,7.3284271 0.610516806,8 1.36362745,8 C2.1167381,8 2.72725491,7.3284271 2.72725491,6.5 C2.72725491,5.67157287 2.1167381,5 1.36362745,5 C0.610516806,5 0,5.67157287 0,6.5 Z M4.63637255,6.5 C4.63637255,7.03589837 4.89627846,7.53108891 5.31818627,7.7990381 C5.74009407,8.0669873 6.25990593,8.0669873 6.68181373,7.7990381 C7.10372154,7.53108891 7.36362745,7.03589837 7.36362745,6.5 C7.36362745,5.67157287 6.75311065,5 6,5 C5.24688935,5 4.63637255,5.67157287 4.63637255,6.5 L4.63637255,6.5 Z M9.27274509,6.5 C9.27274509,7.3284271 9.8832619,8 10.6363725,8 C11.3894832,8 12,7.3284271 12,6.5 C12,5.67157287 11.3894832,5 10.6363725,5 C9.8832619,5 9.27274509,5.67157287 9.27274509,6.5 Z" id="形状" fill="#21B4E9"></path>
                                </g>
                                <g id="更多备份-2" transform="translate(453.000000, 283.000000)" fill-rule="nonzero">
                                    <rect id="矩形" fill="#000000" opacity="0" x="0" y="0" width="12" height="12"></rect>
                                    <path d="M0,6.5 C0,7.3284271 0.610516806,8 1.36362745,8 C2.1167381,8 2.72725491,7.3284271 2.72725491,6.5 C2.72725491,5.67157287 2.1167381,5 1.36362745,5 C0.610516806,5 0,5.67157287 0,6.5 Z M4.63637255,6.5 C4.63637255,7.03589837 4.89627846,7.53108891 5.31818627,7.7990381 C5.74009407,8.0669873 6.25990593,8.0669873 6.68181373,7.7990381 C7.10372154,7.53108891 7.36362745,7.03589837 7.36362745,6.5 C7.36362745,5.67157287 6.75311065,5 6,5 C5.24688935,5 4.63637255,5.67157287 4.63637255,6.5 L4.63637255,6.5 Z M9.27274509,6.5 C9.27274509,7.3284271 9.8832619,8 10.6363725,8 C11.3894832,8 12,7.3284271 12,6.5 C12,5.67157287 11.3894832,5 10.6363725,5 C9.8832619,5 9.27274509,5.67157287 9.27274509,6.5 Z" id="形状" fill="#21B4E9"></path>
                                </g>
                                <g id="更多备份-3" transform="translate(413.000000, 358.000000)" fill-rule="nonzero">
                                    <rect id="矩形" fill="#000000" opacity="0" x="0" y="0" width="12" height="12"></rect>
                                    <path d="M0,6.5 C0,7.3284271 0.610516806,8 1.36362745,8 C2.1167381,8 2.72725491,7.3284271 2.72725491,6.5 C2.72725491,5.67157287 2.1167381,5 1.36362745,5 C0.610516806,5 0,5.67157287 0,6.5 Z M4.63637255,6.5 C4.63637255,7.03589837 4.89627846,7.53108891 5.31818627,7.7990381 C5.74009407,8.0669873 6.25990593,8.0669873 6.68181373,7.7990381 C7.10372154,7.53108891 7.36362745,7.03589837 7.36362745,6.5 C7.36362745,5.67157287 6.75311065,5 6,5 C5.24688935,5 4.63637255,5.67157287 4.63637255,6.5 L4.63637255,6.5 Z M9.27274509,6.5 C9.27274509,7.3284271 9.8832619,8 10.6363725,8 C11.3894832,8 12,7.3284271 12,6.5 C12,5.67157287 11.3894832,5 10.6363725,5 C9.8832619,5 9.27274509,5.67157287 9.27274509,6.5 Z" id="形状" fill="#21B4E9"></path>
                                </g>
                                <rect id="矩形" stroke="#21B4E9" fill="#E6F4F9" x="240" y="177" width="285" height="52"></rect>
                                <text id="内容审核" font-family="PingFangSC-Regular, PingFang SC" font-size="14" font-weight="normal" line-spacing="18" fill="#00AAE7">
                                    <tspan x="355" y="169">内容审核</tspan>
                                </text>
                                <text id="直播管理" font-family="PingFangSC-Regular, PingFang SC" font-size="14" font-weight="normal" line-spacing="18" fill="#00AAE7">
                                    <tspan x="354" y="73">直播管理</tspan>
                                </text>
                                <text id="资源监控备份" font-family="PingFangSC-Regular, PingFang SC" font-size="14" font-weight="normal" line-spacing="18" fill="#00AAE7">
                                    <tspan x="354" y="265">资源监控</tspan>
                                </text>
                                <text id="安全管理" font-family="PingFangSC-Regular, PingFang SC" font-size="14" font-weight="normal" line-spacing="18" fill="#00AAE7">
                                    <tspan x="354" y="339">安全管理</tspan>
                                </text>
                                <text id="语音识别-文字识别-人脸识别-图片识别" font-family="PingFangSC-Regular, PingFang SC" font-size="12" font-weight="normal" line-spacing="22" fill="#00AAE7">
                                    <tspan x="264" y="195">语音识别    文字识别    人脸识别    图片识别</tspan>
                                </text>
                                <g id="更多" transform="translate(267.000000, 208.000000)" fill-rule="nonzero">
                                    <rect id="矩形" fill="#000000" opacity="0" x="0" y="0" width="12" height="12"></rect>
                                    <path d="M0,6.5 C0,7.3284271 0.610516806,8 1.36362745,8 C2.1167381,8 2.72725491,7.3284271 2.72725491,6.5 C2.72725491,5.67157287 2.1167381,5 1.36362745,5 C0.610516806,5 0,5.67157287 0,6.5 Z M4.63637255,6.5 C4.63637255,7.03589837 4.89627846,7.53108891 5.31818627,7.7990381 C5.74009407,8.0669873 6.25990593,8.0669873 6.68181373,7.7990381 C7.10372154,7.53108891 7.36362745,7.03589837 7.36362745,6.5 C7.36362745,5.67157287 6.75311065,5 6,5 C5.24688935,5 4.63637255,5.67157287 4.63637255,6.5 L4.63637255,6.5 Z M9.27274509,6.5 C9.27274509,7.3284271 9.8832619,8 10.6363725,8 C11.3894832,8 12,7.3284271 12,6.5 C12,5.67157287 11.3894832,5 10.6363725,5 C9.8832619,5 9.27274509,5.67157287 9.27274509,6.5 Z" id="形状" fill="#21B4E9"></path>
                                </g>
                                <rect id="矩形备份-38" fill="#00AAE7" opacity="0.854399182" x="216" y="0" width="333" height="40"></rect>
                                <text id="业务开发/运营人员（娱乐直播服务系统）" font-family="PingFangSC-Medium, PingFang SC" font-size="16" font-weight="400" line-spacing="36" fill="#FFFFFF">
                                    <tspan x="239" y="19">业务开发/运营人员（娱乐直播服务系统）</tspan>
                                </text>
                                <path d="M2,0 L188,0 C189.104569,-2.02906125e-16 190,0.8954305 190,2 L190,398 C190,399.104569 189.104569,400 188,400 L2,400 C0.8954305,400 1.3527075e-16,399.104569 0,398 L0,2 C-1.3527075e-16,0.8954305 0.8954305,2.02906125e-16 2,0 Z" id="矩形备份-37" fill="#E2F2F3"></path>
                                <path id="路径-15备份-4" d="M207.5,187.5 L216.5,192 L207.5,196.5 L207.5,192.5 L203.648,192.5 L203.648085,346.5 L179,346.5 L179,345.5 L202.648,345.5 L202.648085,191.5 L207.5,191.5 L207.5,187.5 Z" fill="#21B4E9" fill-rule="nonzero"></path>
                                <path id="路径-15备份-4" d="M88,283 L88,315.5 L92,315.5 L87.5,324.5 L83,315.5 L87,315.5 L87,283 L88,283 Z" fill="#28B8BB" fill-rule="nonzero"></path>
                                <path d="M13,56 L177,56 C178.104569,56 179,56.8954305 179,58 L179,280 C179,281.104569 178.104569,282 177,282 L13,282 C11.8954305,282 11,281.104569 11,280 L11,58 C11,56.8954305 11.8954305,56 13,56 Z" id="矩形备份-8" fill="#FFFFFF" opacity="0.85"></path>
                                <text id="全球-加速" font-family="PingFangSC-Regular, PingFang SC" font-size="12" font-weight="normal" line-spacing="16" letter-spacing="1" fill="#00AAE7">
                                    <tspan x="191" y="251">全球</tspan>
                                    <tspan x="191" y="267">加速</tspan>
                                </text>
                                <path d="M607,0 L750,0 C751.104569,-2.02906125e-16 752,0.8954305 752,2 L752,398 C752,399.104569 751.104569,400 750,400 L607,400 C605.895431,400 605,399.104569 605,398 L605,2 C605,0.8954305 605.895431,2.02906125e-16 607,0 Z" id="矩形备份-40" fill="#E2F2F3"></path>
                                <path d="M619,56 L738,56 C739.104569,56 740,56.8954305 740,58 L740,280 C740,281.104569 739.104569,282 738,282 L619,282 C617.895431,282 617,281.104569 617,280 L617,58 C617,56.8954305 617.895431,56 619,56 Z" id="矩形备份-8" fill="#FFFFFF" opacity="0.85"></path>
                                <rect id="矩形备份-34" stroke="#42C0C3" fill="#E2F2F3" x="626" y="132" width="105" height="127" rx="2"></rect>
                                <text id="七牛推流SDK" font-family="PingFangSC-Regular, PingFang SC" font-size="14" font-weight="normal" line-spacing="22" fill="#28B8BB">
                                    <tspan x="637" y="167">七牛推流SDK</tspan>
                                </text>
                                <text id="推流/播放设备-(手机、pc)" font-family="PingFangSC-Regular, PingFang SC" font-size="14" font-weight="normal" line-spacing="24" fill="#28B8BB">
                                    <tspan x="633" y="81">推流/播放设备</tspan>
                                    <tspan x="633" y="105">(手机、pc)</tspan>
                                </text>
                                <text id="七牛实时音视-频SDK" font-family="PingFangSC-Regular, PingFang SC" font-size="14" font-weight="normal" line-spacing="22" fill="#28B8BB">
                                    <tspan x="637" y="207">七牛实时音视</tspan>
                                    <tspan x="637" y="229">频SDK</tspan>
                                </text>
                                <path id="路径-15备份-5" d="M591.5,195 L600.5,199.5 L591.5,204 L591.5,200 L550,200 L550,199 L591.5,199 L591.5,195 Z" fill="#21B4E9" fill-rule="nonzero"></path>
                                <text id="加速分发(鉴权/回源鉴权/弱网优化)" font-family="PingFangSC-Regular, PingFang SC" font-size="12" font-weight="normal" line-spacing="16" fill="#00AAE7">
                                    <tspan x="553" y="139">加速分发</tspan>
                                    <tspan x="553" y="155">(鉴权/回</tspan>
                                    <tspan x="553" y="171">源鉴权/</tspan>
                                    <tspan x="553" y="187" letter-spacing="-0.5">弱网优化)</tspan>
                                </text>
                                <rect id="矩形备份-34" stroke="#42C0C3" fill="#E2F2F3" x="21" y="136" width="147" height="117" rx="2"></rect>
                                <rect id="矩形备份-58" stroke="#42C0C3" x="11" y="327" width="168" height="38" rx="2"></rect>
                                <rect id="矩形备份-60" stroke="#42C0C3" x="618" y="324" width="121" height="40" rx="2"></rect>
                                <rect id="矩形备份-39" fill="#28B8BB" opacity="0.854399182" x="0" y="0" width="190" height="40"></rect>
                                <rect id="矩形备份-49" fill="#28B8BB" opacity="0.854399182" x="605" y="0" width="147" height="40"></rect>
                                <text id="主播/观众-(推流)" font-family="PingFangSC-Medium, PingFang SC" font-size="16" font-weight="400" line-spacing="36" fill="#FFFFFF">
                                    <tspan x="35" y="19">主播/观众 (推流)</tspan>
                                </text>
                                <text id="主播/观众（播放）" font-family="PingFangSC-Medium, PingFang SC" font-size="16" font-weight="400" line-spacing="36" fill="#FFFFFF">
                                    <tspan x="615" y="19">主播/观众（播放）</tspan>
                                </text>
                                <text id="推流/播放设备-(手机、pc)" font-family="PingFangSC-Regular, PingFang SC" font-size="14" font-weight="normal" line-spacing="22" fill="#28B8BB">
                                    <tspan x="50" y="85">推流/播放设备</tspan>
                                    <tspan x="50" y="107">(手机、pc)</tspan>
                                </text>
                                <text id="七牛推流SDK" font-family="PingFangSC-Regular, PingFang SC" font-size="14" font-weight="normal" line-spacing="22" fill="#28B8BB">
                                    <tspan x="31" y="173">七牛推流SDK</tspan>
                                </text>
                                <text id="七牛实时音视频SDK" font-family="PingFangSC-Regular, PingFang SC" font-size="14" font-weight="normal" line-spacing="22" fill="#28B8BB">
                                    <tspan x="31" y="218">七牛实时音视频SDK</tspan>
                                </text>
                                <text id="七牛直播业务服务器" font-family="PingFangSC-Regular, PingFang SC" font-size="14" font-weight="normal" line-spacing="22" fill="#28B8BB">
                                    <tspan x="32" y="350">七牛直播业务服务器</tspan>
                                </text>
                                <text id="弱网优化（quic)/鉴权" font-family="PingFangSC-Regular, PingFang SC" font-size="12" font-weight="normal" line-spacing="22" fill="#28B8BB">
                                    <tspan x="36" y="303">弱网优化（quic)/鉴权</tspan>
                                </text>
                                <text id="HTML5" font-family="PingFangSC-Regular, PingFang SC" font-size="14" font-weight="normal" line-spacing="30" fill="#28B8BB">
                                    <tspan x="655" y="344">HTML5</tspan>
                                </text>
                            </g>
                        </g>
                    </g>
                </g>
            </g>
        </g>
    </g>
</svg>