<svg xmlns="http://www.w3.org/2000/svg" width="24" height="24" viewBox="0 0 24 24">
  <g fill="none" fill-rule="evenodd" stroke-width="2" transform="translate(1)">
    <g stroke="#00AAE7" stroke-linecap="square" transform="translate(4 9)">
      <path fill="#00AAE7" d="M5.98888889,8.08888889 C6.14444444,7.93333333 6.45555556,7.77777778 6.76666667,7.77777778 C7.07777778,7.77777778 7.31111111,7.93333333 7.54444444,8.08888889 L6.76666667,8.86666667 L5.98888889,8.08888889 Z"/>
      <path d="M10.5 5.44444444C9.56666667 4.51111111 8.24444444 3.88888889 6.76666667 3.88888889 5.28888889 3.88888889 3.96666667 4.51111111 3.03333333 5.44444444M13.5333333 2.8C11.8222222 1.08888889 9.41111111 1.40924309e-13 6.76666667 1.40924309e-13 4.12222222 1.40924309e-13 1.71111111 1.08888889 5.66460459e-13 2.8"/>
    </g>
    <line x1="1" x2="9" y1="5" y2="1" stroke="#333"/>
    <rect width="22" height="16" y="5" stroke="#333" stroke-linecap="square"/>
  </g>
</svg>
