<?xml version="1.0" encoding="UTF-8"?>
<svg width="60px" height="60px" viewBox="0 0 60 60" version="1.1" xmlns="http://www.w3.org/2000/svg" xmlns:xlink="http://www.w3.org/1999/xlink">
    <!-- Generator: Sketch 64 (93537) - https://sketch.com -->
    <title>边缘计算</title>
    <desc>Created with Sketch.</desc>
    <g id="产品" stroke="none" stroke-width="1" fill="none" fill-rule="evenodd" stroke-linecap="square">
        <g id="存储与数据湖-对象存储✅" transform="translate(-1026.000000, -1988.000000)" stroke-width="2">
            <g id="产品介绍-2" transform="translate(0.000000, 1412.000000)">
                <g id="01" transform="translate(972.000000, 524.000000)">
                    <g id="编组-19" transform="translate(24.000000, 22.000000)">
                        <g id="cpu" transform="translate(31.000000, 31.000000)">
                            <line x1="19" y1="6" x2="19" y2="0" id="路径" stroke="#00AAE7"></line>
                            <line x1="39" y1="6" x2="39" y2="0" id="路径" stroke="#00AAE7"></line>
                            <line x1="29" y1="6" x2="29" y2="0" id="路径" stroke="#00AAE7"></line>
                            <line x1="6" y1="39" x2="0" y2="39" id="路径" stroke="#00AAE7"></line>
                            <line x1="6" y1="19" x2="0" y2="19" id="路径" stroke="#00AAE7"></line>
                            <line x1="6" y1="29" x2="0" y2="29" id="路径" stroke="#00AAE7"></line>
                            <line x1="58" y1="39" x2="52" y2="39" id="路径" stroke="#00AAE7"></line>
                            <line x1="58" y1="19" x2="52" y2="19" id="路径" stroke="#00AAE7"></line>
                            <line x1="58" y1="29" x2="52" y2="29" id="路径" stroke="#00AAE7"></line>
                            <line x1="19" y1="58" x2="19" y2="52" id="路径" stroke="#00AAE7"></line>
                            <line x1="39" y1="58" x2="39" y2="52" id="路径" stroke="#00AAE7"></line>
                            <line x1="29" y1="58" x2="29" y2="52" id="路径" stroke="#00AAE7"></line>
                            <rect id="矩形" stroke="#333333" x="6" y="6" width="46" height="46" rx="5"></rect>
                            <rect id="矩形" stroke="#333333" x="13" y="13" width="32" height="32"></rect>
                            <circle id="椭圆形" stroke="#00AAE7" cx="36" cy="36" r="3"></circle>
                        </g>
                    </g>
                </g>
            </g>
        </g>
    </g>
</svg>
