<?xml version="1.0" encoding="UTF-8"?>
<svg width="62px" height="56px" viewBox="0 0 62 56" version="1.1" xmlns="http://www.w3.org/2000/svg" xmlns:xlink="http://www.w3.org/1999/xlink">
    <!-- Generator: Sketch 64 (93537) - https://sketch.com -->
    <title>book-open</title>
    <desc>Created with Sketch.</desc>
    <g id="搜索" stroke="none" stroke-width="1" fill="none" fill-rule="evenodd">
        <g id="搜索页面-为空" transform="translate(-725.000000, -584.000000)" stroke-width="2">
            <g id="为空" transform="translate(718.000000, 585.000000)">
                <g id="book-open" transform="translate(8.000000, 0.000000)">
                    <line x1="30" y1="7" x2="30" y2="34" id="路径" stroke="#333333"></line>
                    <polyline id="路径" stroke="#00AAE7" stroke-linecap="square" points="54 6 60 6 60 54 0 54 0 6 6 6"></polyline>
                    <path d="M30,7 C23.25,1.917 14.333,0 6,0 C6,4.833 6,41 6,41 C14.333,41 23.25,42.917 30,48 C36.75,42.917 45.667,41 54,41 C54,41 54,4.833 54,0 C45.667,0 36.75,1.917 30,7 Z" id="路径" stroke="#333333" stroke-linecap="square"></path>
                </g>
            </g>
        </g>
    </g>
</svg>