<svg xmlns="http://www.w3.org/2000/svg" width="46" height="46" viewBox="0 0 46 46">
  <g fill="none" fill-rule="evenodd" stroke-linecap="square" stroke-width="2" transform="translate(1 1)">
    <path stroke="#00AAE6" d="M19.164,36.997 C21.693,38.262 24.73,39 28,39 C29.179,39 30.326,38.898 31.432,38.716 L40,43 L40,34.919 C42.482,32.805 44,30.038 44,27 C44,25.962 43.824,24.958 43.494,24.001"/>
    <path stroke="#333" d="M20,0 C8.954,0 0,7.163 0,16 C0,19.594 1.499,22.9 4,25.571 L4,36 L13.665,31.167 C15.658,31.7 17.783,32 20,32 C31.046,32 40,24.837 40,16 C40,7.163 31.046,0 20,0 Z"/>
  </g>
</svg>
