<?xml version="1.0" encoding="UTF-8"?>
<svg width="62px" height="56px" viewBox="0 0 62 56" version="1.1" xmlns="http://www.w3.org/2000/svg" xmlns:xlink="http://www.w3.org/1999/xlink">
    <!-- Generator: Sketch 64 (93537) - https://sketch.com -->
    <title>live-streaming</title>
    <desc>Created with Sketch.</desc>
    <g id="产品" stroke="none" stroke-width="1" fill="none" fill-rule="evenodd" stroke-linecap="square">
        <g id="基础服务-直播✅" transform="translate(-529.000000, -723.000000)" stroke-width="2">
            <g id="产品介绍-2" transform="translate(0.000000, 543.000000)">
                <g id="01" transform="translate(372.000000, 148.000000)">
                    <g id="live-streaming" transform="translate(158.000000, 33.000000)">
                        <path d="M37.071,12.929 C33.1657726,9.0238475 26.8342274,9.0238475 22.929,12.929" id="路径" stroke="#00AAE7"></path>
                        <path d="M44.142,5.858 C36.3315452,-1.95230501 23.6684548,-1.95230501 15.858,5.858" id="路径" stroke="#00AAE7"></path>
                        <polygon id="路径" stroke="#333333" points="25 27 25 41 37 34"></polygon>
                        <path d="M46,14 L55,14 C57.7614237,14 60,16.2385763 60,19 L60,49 C60,51.7614237 57.7614237,54 55,54 L5,54 C2.23857625,54 0,51.7614237 0,49 L0,19 C0,16.2385763 2.23857625,14 5,14 L14,14" id="路径" stroke="#333333"></path>
                    </g>
                </g>
            </g>
        </g>
    </g>
</svg>