<?xml version="1.0" encoding="UTF-8"?>
<svg width="58px" height="62px" viewBox="0 0 58 62" version="1.1" xmlns="http://www.w3.org/2000/svg" xmlns:xlink="http://www.w3.org/1999/xlink">
    <!-- Generator: Sketch 64 (93537) - https://sketch.com -->
    <title>find-baggage</title>
    <desc>Created with Sketch.</desc>
    <g id="产品" stroke="none" stroke-width="1" fill="none" fill-rule="evenodd" stroke-linecap="square">
        <g id="基础服务-直播✅" transform="translate(-932.000000, -720.000000)" stroke-width="2">
            <g id="产品介绍-2" transform="translate(0.000000, 543.000000)">
                <g id="01" transform="translate(772.000000, 148.000000)">
                    <g id="find-baggage" transform="translate(161.000000, 30.000000)">
                        <rect id="矩形" stroke="#333333" x="12" y="0" width="20" height="8"></rect>
                        <path d="M44,28 L44,13 C44,10.2385763 41.7614237,8 39,8 L5,8 C2.23857625,8 0,10.2385763 0,13 L0,55 C0,57.7614237 2.23857625,60 5,60 L36,60" id="路径" stroke="#333333"></path>
                        <line x1="12" y1="20" x2="12" y2="48" id="路径" stroke="#333333"></line>
                        <line x1="22" y1="20" x2="22" y2="48" id="路径" stroke="#333333"></line>
                        <line x1="32" y1="20" x2="32" y2="28" id="路径" stroke="#333333"></line>
                        <line x1="55" y1="59" x2="47" y2="51" id="路径" stroke="#00AAE7"></line>
                        <circle id="椭圆形" stroke="#00AAE7" cx="40" cy="44" r="10"></circle>
                    </g>
                </g>
            </g>
        </g>
    </g>
</svg>