<?xml version="1.0" encoding="UTF-8"?>
<svg width="520px" height="350px" viewBox="0 0 520 350" version="1.1" xmlns="http://www.w3.org/2000/svg" xmlns:xlink="http://www.w3.org/1999/xlink">
    <title>插画</title>
    <defs>
        <filter x="-55.0%" y="-254.8%" width="210.0%" height="609.5%" filterUnits="objectBoundingBox" id="filter-1">
            <feGaussianBlur stdDeviation="50" in="SourceGraphic"></feGaussianBlur>
        </filter>
        <linearGradient x1="50%" y1="0%" x2="50%" y2="100%" id="linearGradient-2">
            <stop stop-color="#7AE9FF" stop-opacity="0" offset="0%"></stop>
            <stop stop-color="#44CFFF" offset="100%"></stop>
        </linearGradient>
        <linearGradient x1="50%" y1="0%" x2="50%" y2="100%" id="linearGradient-3">
            <stop stop-color="#7AE9FF" stop-opacity="0" offset="0%"></stop>
            <stop stop-color="#56D3FF" stop-opacity="0.500027316" offset="100%"></stop>
        </linearGradient>
        <filter x="-30.0%" y="-187.5%" width="160.0%" height="475.0%" filterUnits="objectBoundingBox" id="filter-4">
            <feGaussianBlur stdDeviation="10" in="SourceGraphic"></feGaussianBlur>
        </filter>
        <linearGradient x1="50%" y1="0%" x2="50%" y2="100%" id="linearGradient-5">
            <stop stop-color="#00D4F5" stop-opacity="0" offset="0%"></stop>
            <stop stop-color="#00BCED" offset="48.7070261%"></stop>
            <stop stop-color="#00AAE7" stop-opacity="0" offset="100%"></stop>
        </linearGradient>
        <linearGradient x1="50%" y1="0%" x2="50%" y2="100%" id="linearGradient-6">
            <stop stop-color="#00D4F5" stop-opacity="0" offset="0%"></stop>
            <stop stop-color="#00BCED" offset="48.7070261%"></stop>
            <stop stop-color="#00AAE7" stop-opacity="0" offset="100%"></stop>
        </linearGradient>
        <linearGradient x1="50%" y1="0%" x2="50%" y2="97.6061022%" id="linearGradient-7">
            <stop stop-color="#E2F7FF" offset="0%"></stop>
            <stop stop-color="#94D8FF" offset="100%"></stop>
        </linearGradient>
        <path d="M63.3115512,85.2615031 L42.3115051,98.7615327 C41.849966,99.0584244 41.2631388,99.0795745 40.7814242,98.816679 C40.2997096,98.5537835 40,98.0488131 40,97.5000299 L40,70.4999707 C40,69.9511875 40.2997096,69.4462171 40.7814242,69.1833216 C41.2631388,68.9204261 41.849966,68.9415762 42.3115051,69.2384679 L63.3115512,82.7384975 C63.7406471,83.014545 64,83.4897793 64,84 C64,84.5102213 63.7406471,84.9854556 63.3115512,85.2615031 Z" id="path-8"></path>
        <filter x="-25.0%" y="-20.0%" width="150.0%" height="140.0%" filterUnits="objectBoundingBox" id="filter-9">
            <feGaussianBlur stdDeviation="4" in="SourceAlpha" result="shadowBlurInner1"></feGaussianBlur>
            <feOffset dx="0" dy="4" in="shadowBlurInner1" result="shadowOffsetInner1"></feOffset>
            <feComposite in="shadowOffsetInner1" in2="SourceAlpha" operator="arithmetic" k2="-1" k3="1" result="shadowInnerInner1"></feComposite>
            <feColorMatrix values="0 0 0 0 0.2   0 0 0 0 0.568627451   0 0 0 0 0.819607843  0 0 0 0.5 0" type="matrix" in="shadowInnerInner1"></feColorMatrix>
        </filter>
        <linearGradient x1="50%" y1="0%" x2="50%" y2="100%" id="linearGradient-10">
            <stop stop-color="#C8F1FF" offset="0%"></stop>
            <stop stop-color="#97DFFD" offset="100%"></stop>
        </linearGradient>
        <path d="M8,0 C3.581722,0 0,3.581722 0,8 C0,12.418278 3.581722,16 8,16 C12.418278,16 16,12.418278 16,8 C16,5.87826808 15.1571453,3.84343678 13.6568542,2.34314575 C12.1565632,0.842854723 10.1217319,0 8,0 Z M4,7 C4,6.44771525 4.44771525,6 5,6 C5.55228475,6 6,6.44771525 6,7 C6,7.55228475 5.55228475,8 5,8 C4.44771525,8 4,7.55228475 4,7 Z M11.0315,11.25 C10.4063928,12.3333051 9.25072336,13.0007122 8,13.0007122 C6.74927664,13.0007122 5.59360717,12.3333051 4.9685,11.25 L4.7185,10.817 L5.584,10.317 L5.834,10.7495 C6.28040207,11.5236731 7.10609525,12.0006898 7.99975,12.0006898 C8.89340475,12.0006898 9.71909793,11.5236731 10.1655,10.7495 L10.4155,10.317 L11.281,10.817 L11.0315,11.25 Z M11,8 C10.4477153,8 10,7.55228475 10,7 C10,6.44771525 10.4477153,6 11,6 C11.5522847,6 12,6.44771525 12,7 C12,7.55228475 11.5522847,8 11,8 Z" id="path-11"></path>
        <filter x="-12.5%" y="-12.5%" width="125.0%" height="125.0%" filterUnits="objectBoundingBox" id="filter-12">
            <feGaussianBlur stdDeviation="1.5" in="SourceAlpha" result="shadowBlurInner1"></feGaussianBlur>
            <feOffset dx="0" dy="1" in="shadowBlurInner1" result="shadowOffsetInner1"></feOffset>
            <feComposite in="shadowOffsetInner1" in2="SourceAlpha" operator="arithmetic" k2="-1" k3="1" result="shadowInnerInner1"></feComposite>
            <feColorMatrix values="0 0 0 0 0.184313725   0 0 0 0 0.643137255   0 0 0 0 0.929411765  0 0 0 1 0" type="matrix" in="shadowInnerInner1"></feColorMatrix>
        </filter>
        <linearGradient x1="50%" y1="0%" x2="50%" y2="100%" id="linearGradient-13">
            <stop stop-color="#C8F1FF" offset="0%"></stop>
            <stop stop-color="#97DFFD" offset="100%"></stop>
        </linearGradient>
        <path d="M27,19 L27,23 L9,23 L9,19 L27,19 Z M37,9 L37,13 L9,13 L9,9 L37,9 Z" id="path-14"></path>
        <filter x="-7.1%" y="-14.3%" width="114.3%" height="128.6%" filterUnits="objectBoundingBox" id="filter-15">
            <feGaussianBlur stdDeviation="1.5" in="SourceAlpha" result="shadowBlurInner1"></feGaussianBlur>
            <feOffset dx="0" dy="1" in="shadowBlurInner1" result="shadowOffsetInner1"></feOffset>
            <feComposite in="shadowOffsetInner1" in2="SourceAlpha" operator="arithmetic" k2="-1" k3="1" result="shadowInnerInner1"></feComposite>
            <feColorMatrix values="0 0 0 0 0.184313725   0 0 0 0 0.643137255   0 0 0 0 0.929411765  0 0 0 1 0" type="matrix" in="shadowInnerInner1"></feColorMatrix>
        </filter>
    </defs>
    <g id="产品" stroke="none" stroke-width="1" fill="none" fill-rule="evenodd">
        <g id="基础服务-直播✅" transform="translate(-1028.000000, -120.000000)">
            <g id="banner" transform="translate(0.000000, 120.000000)">
                <g id="插画" transform="translate(1135.000000, 40.000000)">
                    <g id="编组-22" transform="translate(0.000000, 155.000000)">
                        <ellipse id="椭圆形" fill="#00BDFF" filter="url(#filter-1)" cx="149.36" cy="49.12" rx="136.32" ry="29.44"></ellipse>
                        <ellipse id="椭圆形" fill="url(#linearGradient-2)" cx="150" cy="29.44" rx="150" ry="29.44"></ellipse>
                        <ellipse id="椭圆形" fill="url(#linearGradient-3)" cx="150" cy="52.44" rx="150" ry="29.44"></ellipse>
                        <ellipse id="椭圆形" fill-opacity="0.5" fill="#0784DA" filter="url(#filter-4)" cx="150" cy="27" rx="50" ry="8"></ellipse>
                    </g>
                    <g id="编组-21" transform="translate(2.000000, 0.000000)" fill-rule="nonzero">
                        <polygon id="路径" fill="url(#linearGradient-5)" points="4 96 4 126 0 126 0 96"></polygon>
                        <path d="M27,33 L27,60 L27,60 L24,60 L24,30 C25.6568542,30 27,31.3431458 27,33 Z" id="路径" fill="url(#linearGradient-6)"></path>
                        <path d="M275,37 L275,63 L275,63 L271,63 L271,33 C273.209139,33 275,34.790861 275,37 Z" id="路径" fill="url(#linearGradient-5)"></path>
                        <path d="M298,109 L298,135 L298,135 L294,135 L294,105 C296.209139,105 298,106.790861 298,109 Z" id="路径" fill="url(#linearGradient-5)" opacity="0.300000012"></path>
                        <path d="M228,4 L228,30 L228,30 L224,30 L224,0 C226.209139,-4.05812251e-16 228,1.790861 228,4 Z" id="路径" fill="url(#linearGradient-5)" opacity="0.400000006"></path>
                        <path d="M312,166 L312,193 L312,193 L309,193 L309,163 C310.656854,163 312,164.343146 312,166 Z" id="路径" fill="url(#linearGradient-6)" opacity="0.449999988"></path>
                    </g>
                    <g id="矩形-2" transform="translate(104.000000, 18.000000)">
                        <rect id="矩形" fill="#7FD1FB" x="0" y="0" width="96" height="158" rx="14"></rect>
                        <path d="M84,4 C90.627417,4 96,9.372583 96,16 L96,152 C96,158.627417 90.627417,164 84,164 L12,164 C5.372583,164 8.11624501e-16,158.627417 0,152 L0,16 C-8.11624501e-16,9.372583 5.372583,4 12,4 L27,4 C27,6.209139 28.790861,8 31,8 L31,8 L65,8 C67.209139,8 69,6.209139 69,4 L69,4 L84,4 Z" id="形状结合" fill="url(#linearGradient-7)"></path>
                        <g id="路径">
                            <use fill="#60BBF2" fill-rule="evenodd" xlink:href="#path-8"></use>
                            <use fill="black" fill-opacity="1" filter="url(#filter-9)" xlink:href="#path-8"></use>
                        </g>
                    </g>
                    <g id="编组-24" transform="translate(59.500000, 120.000000) scale(-1, 1) translate(-59.500000, -120.000000) translate(31.000000, 97.000000)">
                        <path d="M49,2.42857143 C51.7614237,2.42857143 54,4.66714768 54,7.42857143 L54,33.4285714 C54,36.1899952 51.7614237,38.4285714 49,38.4285714 L7.14271429,38.4285714 L2.99971429,42.5715714 L3,43 L0.293847229,45.2883573 L0.317714286,45.2535714 L0.285714286,45.2857143 L0.285714286,7.42857143 C0.285714286,4.66714768 2.52429054,2.42857143 5.28571429,2.42857143 L49,2.42857143 Z" id="形状结合" fill="#7DC5ED"></path>
                        <path d="M3,4.14285714 C3,1.93371814 4.790861,0.142857143 7,0.142857143 L52.7142857,0.142857143 C54.9234247,0.142857143 56.7142857,1.93371814 56.7142857,4.14285714 L56.7142857,32.1428571 C56.7142857,34.3519961 54.9234247,36.1428571 52.7142857,36.1428571 L9.857,36.1428571 L3,43 L3,4.14285714 Z" id="形状结合" fill="url(#linearGradient-10)"></path>
                        <g id="smile" transform="translate(22.000000, 11.000000)" fill-rule="nonzero">
                            <g id="形状">
                                <use fill="#59B7F1" xlink:href="#path-11"></use>
                                <use fill="black" fill-opacity="1" filter="url(#filter-12)" xlink:href="#path-11"></use>
                            </g>
                        </g>
                    </g>
                    <g id="形状结合-2" transform="translate(216.000000, 63.000000)">
                        <path d="M51,1.14285714 C53.7614237,1.14285714 56,3.38143339 56,6.14285714 L56,30.4285714 C56,33.1899952 53.7614237,35.4285714 51,35.4285714 L9.142,35.4278571 L2.287,42.2828571 L2.28784595,42.2857143 L2.286,42.2838571 L2.28571429,42.2857143 L2.285,42.2828571 L0,40 L2.285,37.4818571 L2.28571429,6.14285714 C2.28571429,3.38143339 4.52429054,1.14285714 7.28571429,1.14285714 L51,1.14285714 Z" id="形状结合" fill="#7DC5ED"></path>
                        <path d="M0,4 C-2.705415e-16,1.790861 1.790861,4.05812251e-16 4,0 L49.7142857,0 C51.9234247,-4.33003142e-15 53.7142857,1.790861 53.7142857,4 L53.7142857,29.1428571 C53.7142857,31.3519961 51.9234247,33.1428571 49.7142857,33.1428571 L6.858,33.142 L0,40 L0,4 Z" id="形状结合" fill="url(#linearGradient-13)"></path>
                        <g id="形状结合">
                            <use fill="#61BBF3" fill-rule="evenodd" xlink:href="#path-14"></use>
                            <use fill="black" fill-opacity="1" filter="url(#filter-15)" xlink:href="#path-14"></use>
                        </g>
                    </g>
                </g>
            </g>
        </g>
    </g>
</svg>