<?xml version="1.0" encoding="UTF-8"?>
<svg width="32px" height="32px" viewBox="0 0 32 32" version="1.1" xmlns="http://www.w3.org/2000/svg" xmlns:xlink="http://www.w3.org/1999/xlink">
    <title>编组 33</title>
    <defs>
        <linearGradient x1="19.7114062%" y1="90.8167593%" x2="74.1414651%" y2="7.69469958%" id="linearGradient-1">
            <stop stop-color="#00D4F5" stop-opacity="0" offset="0%"></stop>
            <stop stop-color="#00AAE7" stop-opacity="0.431353802" offset="100%"></stop>
            <stop stop-color="#00AAE7" stop-opacity="0.5" offset="100%"></stop>
        </linearGradient>
    </defs>
    <g id="首页" stroke="none" stroke-width="1" fill="none" fill-rule="evenodd">
        <g transform="translate(-370.000000, -1544.000000)" id="编组-17">
            <g transform="translate(0.000000, 1264.000000)">
                <g id="编组-32" transform="translate(370.000000, 280.000000)">
                    <g id="编组-33">
                        <circle id="椭圆形" fill="url(#linearGradient-1)" opacity="0.5" cx="16" cy="16" r="16"></circle>
                        <path d="M10.859375,22.1640625 C11.9739583,22.1640625 12.9088542,21.8007812 13.6640625,21.0742188 C14.4192708,20.3476562 14.8984375,19.3177083 15.1015625,17.984375 L15.1015625,17.984375 L15.6015625,14.640625 C15.7890625,13.375 15.6015625,12.3619792 15.0390625,11.6015625 C14.4765625,10.8411458 13.6640625,10.4609375 12.6015625,10.4609375 C11.4921875,10.4609375 10.5572917,10.8268229 9.796875,11.5585938 C9.03645833,12.2903646 8.55729167,13.3177083 8.359375,14.640625 L8.359375,14.640625 L7.859375,17.984375 C7.66666667,19.2552083 7.85416667,20.2695312 8.421875,21.0273438 C8.98958333,21.7851562 9.80208333,22.1640625 10.859375,22.1640625 Z M11.0390625,20.9609375 C10.3723958,20.9609375 9.89192708,20.7291667 9.59765625,20.265625 C9.30338542,19.8020833 9.22135417,19.1458333 9.3515625,18.296875 L9.3515625,18.296875 L9.9453125,14.3203125 C10.0703125,13.5130208 10.3554688,12.8697917 10.8007812,12.390625 C11.2460938,11.9114583 11.7838542,11.671875 12.4140625,11.671875 C13.0859375,11.671875 13.5677083,11.9010417 13.859375,12.359375 C14.1510417,12.8177083 14.234375,13.4713542 14.109375,14.3203125 L14.109375,14.3203125 L13.515625,18.296875 C13.390625,19.109375 13.1054688,19.7565104 12.6601562,20.2382812 C12.2148438,20.7200521 11.6744792,20.9609375 11.0390625,20.9609375 Z M20.9296875,22 L22.6640625,10.4609375 L18.5703125,10.8828125 L18.3984375,12.0703125 L20.875,12.046875 L19.3828125,22 L20.9296875,22 Z" id="01" fill="#00AAE7" fill-rule="nonzero"></path>
                    </g>
                </g>
            </g>
        </g>
    </g>
</svg>