<svg width="64" height="64" viewBox="0 0 64 64" fill="none" xmlns="http://www.w3.org/2000/svg">
  <rect x="2" y="2" width="60" height="60" rx="30" fill="#333333" fill-opacity="0.5"/>
  <path d="M32 0C14.4 0 0 14.4 0 32C0 49.6 14.4 64 32 64C49.6 64 64 49.6 64 32C64 14.4 49.6 0 32 0ZM32 61.3333C15.8667 61.3333 2.66667 48.1333 2.66667 32C2.66667 15.8667 15.8667 2.66667 32 2.66667C48.1333 2.66667 61.3333 15.8667 61.3333 32C61.3333 48.1333 48.1333 61.3333 32 61.3333Z" fill="white"/>
  <path d="M41.9998 27.6L31.3332 20.5333C27.7332 18.1333 24.6665 19.7333 24.6665 24.1333V40.1333C24.6665 44.5333 27.5998 46.1333 31.3332 43.7333L41.9998 36.6667C45.5998 34 45.5998 30 41.9998 27.6Z" fill="white"/>
  <rect x="2" y="2" width="60" height="60" rx="30" stroke="white" stroke-width="4"/>
</svg>
