<svg xmlns="http://www.w3.org/2000/svg" width="24" height="24" viewBox="0 0 24 24">
  <g fill="none" fill-rule="evenodd" stroke-linecap="square" stroke-width="2" transform="translate(3 2)">
    <path stroke="#333" d="M18,11.724138 C18,16.2947704 13.9705627,20 9,20 C4.0294373,20 0,16.2947704 0,11.724138 L0,2.78325124 L9,0 L18,2.78325124 L18,11.724138 Z"/>
    <path stroke="#00AAE7" d="M12.125,9.12500001 C12.125,7.39911016 10.7258899,6 9,6 C7.27411017,6 5.87500001,7.39911016 5.87500001,9.12500001 C5.75000001,9.12500001 5.64583334,9.12500001 5.56250001,9.12500001 C4.69955508,9.12500001 4,9.8245551 4,10.6875 C4,11.5504449 4.69955508,12.25 5.56250001,12.25 L12.4375,12.25 C13.3004449,12.25 14,11.5504449 14,10.6875 C14,9.82455511 13.3004449,9.12500004 12.4375,9.12500001 C12.3654909,9.11851502 12.2613243,9.11851502 12.125,9.12500001 Z"/>
  </g>
</svg>
