<svg width="24" height="24" viewBox="0 0 24 24" fill="none" xmlns="http://www.w3.org/2000/svg">
  <path fill-rule="evenodd" clip-rule="evenodd" d="M12 0.345306L22.0933 6.17266V17.8274L12 23.6547L1.90674 17.8274V6.17266L12 0.345306ZM3.90674 7.32736V16.6727L12 21.3453L20.0933 16.6727V7.32736L12 2.65471L3.90674 7.32736Z" fill="#333333"></path>
  <path d="M13.3996 17.8333C13.3996 18.6065 12.7728 19.2333 11.9996 19.2333C11.2264 19.2333 10.5996 18.6065 10.5996 17.8333C10.5996 17.0601 11.2264 16.4333 11.9996 16.4333C12.7728 16.4333 13.3996 17.0601 13.3996 17.8333Z" fill="#00AAE6"></path>
  <path d="M16.2687 7.80001C16.9383 7.41341 17.7945 7.64284 18.1811 8.31245C18.5677 8.98206 18.3383 9.83828 17.6687 10.2249C16.9991 10.6115 16.1428 10.3821 15.7562 9.71245C15.3696 9.04284 15.5991 8.18661 16.2687 7.80001Z" fill="#00AAE6"></path>
  <path d="M7.76283 7.80001C7.09322 7.41341 6.237 7.64284 5.8504 8.31245C5.4638 8.98206 5.69322 9.83828 6.36283 10.2249C7.03244 10.6115 7.88867 10.3821 8.27527 9.71245C8.66187 9.04284 8.43244 8.18661 7.76283 7.80001Z" fill="#00AAE6"></path>
  <path fill-rule="evenodd" clip-rule="evenodd" d="M11.5967 12.691L7.09673 10.066L7.90292 8.68396L12.4029 11.309L11.5967 12.691Z" fill="#00AAE6"></path>
  <path fill-rule="evenodd" clip-rule="evenodd" d="M11.5967 11.309L16.0967 8.68396L16.9029 10.066L12.4029 12.691L11.5967 11.309Z" fill="#00AAE6"></path>
  <path fill-rule="evenodd" clip-rule="evenodd" d="M12.7998 11.625V17.0625H11.1998V11.625H12.7998Z" fill="#00AAE6"></path>
</svg>
