<svg width="24" height="24" viewBox="0 0 24 24" fill="none" xmlns="http://www.w3.org/2000/svg">
<path d="M13.5 10C12.8215 10.0068 12.1592 10.2083 11.5919 10.5805C11.0246 10.9528 10.5762 11.4802 10.3 12.1C10 12.1 9.8 12 9.5 12C8.83696 12 8.20107 12.2634 7.73223 12.7322C7.26339 13.2011 7 13.837 7 14.5C7 15.163 7.26339 15.7989 7.73223 16.2678C8.20107 16.7366 8.83696 17 9.5 17H13.5C14.4283 17 15.3185 16.6313 15.9749 15.9749C16.6313 15.3185 17 14.4283 17 13.5C17 12.5717 16.6313 11.6815 15.9749 11.0251C15.3185 10.3687 14.4283 10 13.5 10Z" stroke="#00AAE7" stroke-width="2" stroke-miterlimit="10" stroke-linecap="square"/>
<path d="M21 22H3C2.46957 22 1.96086 21.7893 1.58579 21.4142C1.21071 21.0391 1 20.5304 1 20V2H9L12 6H23V20C23 20.5304 22.7893 21.0391 22.4142 21.4142C22.0391 21.7893 21.5304 22 21 22Z" stroke="#333333" stroke-width="2" stroke-miterlimit="10" stroke-linecap="square"/>
</svg>
