<?xml version="1.0" encoding="UTF-8"?>
<svg width="520px" height="350px" viewBox="0 0 520 350" version="1.1" xmlns="http://www.w3.org/2000/svg" xmlns:xlink="http://www.w3.org/1999/xlink">
    <title>插画</title>
    <defs>
        <filter x="-55.0%" y="-254.8%" width="210.0%" height="609.5%" filterUnits="objectBoundingBox" id="filter-1">
            <feGaussianBlur stdDeviation="50" in="SourceGraphic"></feGaussianBlur>
        </filter>
        <linearGradient x1="50%" y1="0%" x2="50%" y2="100%" id="linearGradient-2">
            <stop stop-color="#7AE9FF" stop-opacity="0" offset="0%"></stop>
            <stop stop-color="#44CFFF" offset="100%"></stop>
        </linearGradient>
        <linearGradient x1="50%" y1="0%" x2="50%" y2="100%" id="linearGradient-3">
            <stop stop-color="#7AE9FF" stop-opacity="0" offset="0%"></stop>
            <stop stop-color="#56D3FF" stop-opacity="0.500027316" offset="100%"></stop>
        </linearGradient>
        <filter x="-37.5%" y="-187.5%" width="175.0%" height="475.0%" filterUnits="objectBoundingBox" id="filter-4">
            <feGaussianBlur stdDeviation="10" in="SourceGraphic"></feGaussianBlur>
        </filter>
        <linearGradient x1="50%" y1="0%" x2="50%" y2="100%" id="linearGradient-5">
            <stop stop-color="#00D4F5" stop-opacity="0" offset="0%"></stop>
            <stop stop-color="#00BCED" offset="48.7070261%"></stop>
            <stop stop-color="#00AAE7" stop-opacity="0" offset="100%"></stop>
        </linearGradient>
        <linearGradient x1="50%" y1="0%" x2="50%" y2="100%" id="linearGradient-6">
            <stop stop-color="#00D4F5" stop-opacity="0" offset="0%"></stop>
            <stop stop-color="#00BCED" offset="48.7070261%"></stop>
            <stop stop-color="#00AAE7" stop-opacity="0" offset="100%"></stop>
        </linearGradient>
        <linearGradient x1="50%" y1="0%" x2="50%" y2="97.6061022%" id="linearGradient-7">
            <stop stop-color="#E2F7FF" offset="0%"></stop>
            <stop stop-color="#94D8FF" offset="100%"></stop>
        </linearGradient>
        <polygon id="path-8" points="90 60 90 116.214856 58 116.214856 58 106.158542 79.943271 106.15611 79.9436856 60"></polygon>
        <filter x="-9.4%" y="-5.3%" width="118.8%" height="110.7%" filterUnits="objectBoundingBox" id="filter-9">
            <feGaussianBlur stdDeviation="2" in="SourceAlpha" result="shadowBlurInner1"></feGaussianBlur>
            <feOffset dx="0" dy="2" in="shadowBlurInner1" result="shadowOffsetInner1"></feOffset>
            <feComposite in="shadowOffsetInner1" in2="SourceAlpha" operator="arithmetic" k2="-1" k3="1" result="shadowInnerInner1"></feComposite>
            <feColorMatrix values="0 0 0 0 0.2   0 0 0 0 0.568627451   0 0 0 0 0.819607843  0 0 0 0.6 0" type="matrix" in="shadowInnerInner1"></feColorMatrix>
        </filter>
    </defs>
    <g id="产品" stroke="none" stroke-width="1" fill="none" fill-rule="evenodd">
        <g id="智能视频-内容审核✅" transform="translate(-1028.000000, -120.000000)">
            <g id="banner" transform="translate(0.000000, 120.000000)">
                <g id="编组-8" transform="translate(372.000000, 0.000000)">
                    <g id="插画" transform="translate(755.000000, 40.000000)">
                        <g id="编组-22" transform="translate(8.000000, 155.000000)">
                            <ellipse id="椭圆形" fill="#00BDFF" filter="url(#filter-1)" cx="149.36" cy="49.12" rx="136.32" ry="29.44"></ellipse>
                            <ellipse id="椭圆形" fill="url(#linearGradient-2)" cx="150" cy="29.44" rx="150" ry="29.44"></ellipse>
                            <ellipse id="椭圆形" fill="url(#linearGradient-3)" cx="150" cy="53.44" rx="150" ry="29.44"></ellipse>
                            <ellipse id="椭圆形" fill-opacity="0.5" fill="#0784DA" filter="url(#filter-4)" cx="150" cy="30" rx="40" ry="8"></ellipse>
                        </g>
                        <g id="编组-21" fill-rule="nonzero">
                            <path d="M4,100 L4,126 L4,126 L0,126 L0,96 C2.209139,96 4,97.790861 4,100 Z" id="路径" fill="url(#linearGradient-5)"></path>
                            <path d="M37,33 L37,60 L37,60 L34,60 L34,30 C35.6568542,30 37,31.3431458 37,33 Z" id="路径" fill="url(#linearGradient-6)"></path>
                            <path d="M285,37 L285,63 L285,63 L281,63 L281,33 C283.209139,33 285,34.790861 285,37 Z" id="路径" fill="url(#linearGradient-5)"></path>
                            <path d="M308,109 L308,135 L308,135 L304,135 L304,105 C306.209139,105 308,106.790861 308,109 Z" id="路径" fill="url(#linearGradient-5)"></path>
                            <path d="M238,4 L238,30 L238,30 L234,30 L234,0 C236.209139,-4.05812251e-16 238,1.790861 238,4 Z" id="路径" fill="url(#linearGradient-5)" opacity="0.400000006"></path>
                            <path d="M322,166 L322,193 L322,193 L319,193 L319,163 C320.656854,163 322,164.343146 322,166 Z" id="路径" fill="url(#linearGradient-6)" opacity="0.449999988"></path>
                        </g>
                        <g id="privacy" transform="translate(86.000000, 5.000000)">
                            <polygon id="路径-9" fill="#7FD1FB" points="0 26 1.57101993 19.4890986 72 0.286385679 142.981513 19.4890986 144 26"></polygon>
                            <path d="M144,110 C144,149.764502 111.764502,182 72,182 C32.235498,182 0,149.764502 0,110 L0,26 L72,8 L144,26 L144,110 Z" id="路径" fill="url(#linearGradient-7)"></path>
                            <g id="路径" transform="translate(74.000000, 88.107428) rotate(45.000000) translate(-74.000000, -88.107428) ">
                                <use fill="#60BBF2" fill-rule="evenodd" xlink:href="#path-8"></use>
                                <use fill="black" fill-opacity="1" filter="url(#filter-9)" xlink:href="#path-8"></use>
                            </g>
                        </g>
                    </g>
                </g>
            </g>
        </g>
    </g>
</svg>