<?xml version="1.0" encoding="UTF-8"?>
<svg width="136px" height="136px" viewBox="0 0 136 136" version="1.1" xmlns="http://www.w3.org/2000/svg" xmlns:xlink="http://www.w3.org/1999/xlink">
    <defs>
        <circle id="path-1" cx="60" cy="60" r="60"></circle>
        <filter x="-11.7%" y="-8.3%" width="123.3%" height="123.3%" filterUnits="objectBoundingBox" id="filter-2">
            <feOffset dx="0" dy="4" in="SourceAlpha" result="shadowOffsetOuter1"></feOffset>
            <feGaussianBlur stdDeviation="4" in="shadowOffsetOuter1" result="shadowBlurOuter1"></feGaussianBlur>
            <feComposite in="shadowBlurOuter1" in2="SourceAlpha" operator="out" result="shadowBlurOuter1"></feComposite>
            <feColorMatrix values="0 0 0 0 0.2   0 0 0 0 0.2   0 0 0 0 0.2  0 0 0 0.08 0" type="matrix" in="shadowBlurOuter1"></feColorMatrix>
        </filter>
    </defs>
    <g id="产品" stroke="none" stroke-width="1" fill="none" fill-rule="evenodd">
        <g id="切图" transform="translate(-405.000000, -104.000000)">
            <g id="编组-7" transform="translate(413.000000, 108.000000)">
                <g id="椭圆形">
                    <use fill="black" fill-opacity="1" filter="url(#filter-2)" xlink:href="#path-1"></use>
                    <circle stroke="#EEEEEE" stroke-width="1" stroke-linejoin="square" fill="#FFFFFF" fill-rule="evenodd" cx="60" cy="60" r="59.5"></circle>
                </g>
                <g id="replace" transform="translate(33.000000, 32.000000)" stroke-width="2">
                    <rect id="矩形" stroke="#333333" stroke-linecap="square" x="23" y="20" width="31" height="35"></rect>
                    <polyline id="路径" stroke="#333333" stroke-linecap="square" points="17 36 0 36 0 1 31 1 31 14"></polyline>
                    <path d="M38,6 L46,6 C49.3137085,6 52,8.6862915 52,12 L52,14" id="路径" stroke="#00AAE7"></path>
                    <polyline id="路径" stroke="#00AAE7" stroke-linecap="square" points="44 0 38 6 44 12"></polyline>
                    <path d="M16,50 L8,50 C4.6862915,50 2,47.3137085 2,44 L2,42" id="路径" stroke="#00AAE7"></path>
                    <polyline id="路径" stroke="#00AAE7" stroke-linecap="square" points="10 56 16 50 10 44"></polyline>
                </g>
            </g>
        </g>
    </g>
</svg>