<?xml version="1.0" encoding="UTF-8"?>
<svg width="136px" height="136px" viewBox="0 0 136 136" version="1.1" xmlns="http://www.w3.org/2000/svg" xmlns:xlink="http://www.w3.org/1999/xlink">
    <defs>
        <circle id="path-1" cx="60" cy="60" r="60"></circle>
        <filter x="-11.7%" y="-8.3%" width="123.3%" height="123.3%" filterUnits="objectBoundingBox" id="filter-2">
            <feOffset dx="0" dy="4" in="SourceAlpha" result="shadowOffsetOuter1"></feOffset>
            <feGaussianBlur stdDeviation="4" in="shadowOffsetOuter1" result="shadowBlurOuter1"></feGaussianBlur>
            <feComposite in="shadowBlurOuter1" in2="SourceAlpha" operator="out" result="shadowBlurOuter1"></feComposite>
            <feColorMatrix values="0 0 0 0 0.2   0 0 0 0 0.2   0 0 0 0 0.2  0 0 0 0.08 0" type="matrix" in="shadowBlurOuter1"></feColorMatrix>
        </filter>
    </defs>
    <g id="产品" stroke="none" stroke-width="1" fill="none" fill-rule="evenodd">
        <g id="切图" transform="translate(-217.000000, -104.000000)">
            <g id="编组-6" transform="translate(225.000000, 108.000000)">
                <g id="椭圆形">
                    <use fill="black" fill-opacity="1" filter="url(#filter-2)" xlink:href="#path-1"></use>
                    <circle stroke="#EEEEEE" stroke-width="1" stroke-linejoin="square" fill="#FFFFFF" fill-rule="evenodd" cx="60" cy="60" r="59.5"></circle>
                </g>
                <g id="interview" transform="translate(32.000000, 32.000000)" stroke-linecap="square" stroke-width="2">
                    <path d="M35.071,12.929 C31.1657726,9.0238475 24.8342274,9.0238475 20.929,12.929" id="路径" stroke="#00AAE7"></path>
                    <path d="M42.142,5.858 C34.3315452,-1.95230501 21.6684548,-1.95230501 13.858,5.858" id="路径" stroke="#00AAE7"></path>
                    <path d="M0,12 C8.836556,12 16,19.163444 16,28 L16,30 L20,39 L16,41 L16,44 C16,47.3137085 13.3137085,50 10,50 L4,50 L4,56" id="路径" stroke="#333333"></path>
                    <path d="M56,12 C47.163444,12 40,19.163444 40,28 L40,30 L36,39 L40,41 L40,44 C40,47.3137085 42.6862915,50 46,50 L52,50 L52,56" id="路径" stroke="#333333"></path>
                    <circle id="椭圆形" stroke="#00AAE7" cx="28" cy="21" r="1"></circle>
                </g>
            </g>
        </g>
    </g>
</svg>