<?xml version="1.0" encoding="UTF-8"?>
<svg width="16px" height="16px" viewBox="0 0 16 16" version="1.1" xmlns="http://www.w3.org/2000/svg" xmlns:xlink="http://www.w3.org/1999/xlink">
    <!-- Generator: Sketch 64 (93537) - https://sketch.com -->
    <title>新闻动态</title>
    <desc>Created with Sketch.</desc>
    <g id="公共组件" stroke="none" stroke-width="1" fill="none" fill-rule="evenodd">
        <g id="切图" transform="translate(-758.000000, -211.000000)" fill="#999999" fill-rule="nonzero">
            <g id="volume-97" transform="translate(758.000000, 211.000000)">
                <path d="M12.8,12.2 C12.4,11.8 12.4,11.2 12.8,10.8 C14.4,9.2 14.4,6.7 12.8,5.1 C12.4,4.7 12.4,4.1 12.8,3.7 C13.2,3.3 13.8,3.3 14.2,3.7 C16.5,6 16.5,9.8 14.2,12.2 C13.9,12.6 13.2,12.6 12.8,12.2 Z" id="路径"></path>
                <path d="M11,1 C11,0.2 10.1,-0.3 9.4,0.2 L3.7,4 L1,4 C0.4,4 0,4.4 0,5 L0,11 C0,11.6 0.4,12 1,12 L3.7,12 L9.4,15.8 C10.1,16.2 11,15.8 11,15 L11,1 Z" id="路径"></path>
            </g>
        </g>
    </g>
</svg>