<?xml version="1.0" encoding="UTF-8"?>
<svg width="63px" height="58px" viewBox="0 0 63 58" version="1.1" xmlns="http://www.w3.org/2000/svg" xmlns:xlink="http://www.w3.org/1999/xlink">
    <title>loan</title>
    <g id="页面-1" stroke="none" stroke-width="1" fill="none" fill-rule="evenodd" stroke-linecap="square">
        <g id="智能风控" transform="translate(-425.000000, -743.000000)" stroke-width="2">
            <g id="产品介绍-2" transform="translate(0.000000, 542.000000)">
                <g id="编组-44" transform="translate(372.000000, 148.000000)">
                    <g id="编组-19" transform="translate(24.000000, 22.000000)">
                        <g id="loan" transform="translate(30.000000, 32.000000)">
                            <path d="M47,37 L53.331,33.2 C55.3762029,31.974648 58.0248244,32.5944157 59.314,34.6 L59.314,34.6 C60.549892,36.5251302 60.1097044,39.0755268 58.3,40.475 L47,49.229 C46.3431133,49.7373225 45.5878405,50.1037217 44.782,50.305 L24.527,55.368 C22.9150331,55.770981 21.2081314,55.487463 19.813,54.585 L5,45 L-3.55271368e-15,45 L-3.55271368e-15,29 L9.958,27.34 C11.2809391,27.1196025 12.6395781,27.3488002 13.817,27.991 L23,33 L37.911,33.785 C40.2031011,33.9052148 41.9999588,35.7987486 42,38.094 L42,38.094 C42.0028143,40.3132378 40.3221982,42.1729005 38.114,42.394 L22,44" id="路径" stroke="#333333"></path>
                            <circle id="椭圆形" stroke="#00AAE7" cx="37" cy="12" r="12"></circle>
                            <rect id="矩形" stroke="#00AAE7" transform="translate(36.999166, 11.999544) rotate(-45.000000) translate(-36.999166, -11.999544) " x="33.4636659" y="8.46404403" width="7.071" height="7.071"></rect>
                        </g>
                    </g>
                </g>
            </g>
        </g>
    </g>
</svg>