<?xml version="1.0" encoding="UTF-8"?>
<svg width="42px" height="62px" viewBox="0 0 42 62" version="1.1" xmlns="http://www.w3.org/2000/svg" xmlns:xlink="http://www.w3.org/1999/xlink">
    <title>mobile-contact</title>
    <g id="页面-1" stroke="none" stroke-width="1" fill="none" fill-rule="evenodd">
        <g id="智能风控" transform="translate(-435.000000, -1117.000000)">
            <g id="产品介绍-2" transform="translate(0.000000, 542.000000)">
                <g id="编组-44" transform="translate(372.000000, 148.000000)">
                    <g id="编组-5" transform="translate(0.000000, 376.000000)">
                        <g id="编组-46" transform="translate(24.000000, 22.000000)">
                            <g id="mobile-contact" transform="translate(40.000000, 30.000000)">
                                <line x1="0" y1="48" x2="40" y2="48" id="路径" stroke="#333333" stroke-width="2" stroke-linecap="square"></line>
                                <line x1="0" y1="8" x2="40" y2="8" id="路径" stroke="#333333" stroke-width="2" stroke-linecap="square"></line>
                                <path d="M36,60 L4,60 C1.8,60 0,58.2 0,56 L0,4 C0,1.8 1.8,0 4,0 L36,0 C38.2,0 40,1.8 40,4 L40,56 C40,58.2 38.2,60 36,60 Z" id="路径" stroke="#333333" stroke-width="2" stroke-linecap="square"></path>
                                <circle id="椭圆形" stroke="#00AAE7" stroke-width="2" stroke-linecap="square" cx="20" cy="22" r="4"></circle>
                                <path d="M30,39 L10,39 L10,39 C10,34.582 13.582,31 18,31 L22,31 C26.418,31 30,34.582 30,39 L30,39 Z" id="路径" stroke="#00AAE7" stroke-width="2" stroke-linecap="square"></path>
                                <circle id="椭圆形" fill="#333333" fill-rule="nonzero" cx="20" cy="54" r="2"></circle>
                            </g>
                        </g>
                    </g>
                </g>
            </g>
        </g>
    </g>
</svg>