<?xml version="1.0" encoding="UTF-8"?>
<svg width="60px" height="63px" viewBox="0 0 60 63" version="1.1" xmlns="http://www.w3.org/2000/svg" xmlns:xlink="http://www.w3.org/1999/xlink">
    <title>shield</title>
    <g id="页面-1" stroke="none" stroke-width="1" fill="none" fill-rule="evenodd" stroke-linecap="square">
        <g id="智能风控" transform="translate(-426.000000, -1305.000000)" stroke-width="2">
            <g id="产品介绍-2" transform="translate(0.000000, 542.000000)">
                <g id="编组-44" transform="translate(372.000000, 148.000000)">
                    <g id="编组-5" transform="translate(0.000000, 564.000000)">
                        <g id="编组-46" transform="translate(24.000000, 22.000000)">
                            <g id="shield" transform="translate(31.000000, 31.000000)">
                                <polygon id="路径" stroke="#00AAE7" points="29 17 31.924 22.926 38.463 23.876 33.731 28.488 34.848 35 29 31.925 23.152 35 24.269 28.488 19.537 23.876 26.076 22.926"></polygon>
                                <path d="M29,59 C29,59 0,48 0,8 L29,0 L58,8 C58,48 29,59 29,59 Z" id="路径" stroke="#333333"></path>
                                <path d="M29,52.368 C23.193,49.248 7.763,38.562 6.139,12.531 L29,6.224 L51.861,12.531 C50.237,38.562 34.807,49.248 29,52.368 Z" id="路径" stroke="#333333"></path>
                            </g>
                        </g>
                    </g>
                </g>
            </g>
        </g>
    </g>
</svg>