<?xml version="1.0" encoding="UTF-8"?>
<svg width="62px" height="56px" viewBox="0 0 62 56" version="1.1" xmlns="http://www.w3.org/2000/svg" xmlns:xlink="http://www.w3.org/1999/xlink">
    <title>card-update</title>
    <g id="页面-1" stroke="none" stroke-width="1" fill="none" fill-rule="evenodd">
        <g id="智能风控" transform="translate(-1025.000000, -744.000000)" stroke-width="2">
            <g id="产品介绍-2" transform="translate(0.000000, 542.000000)">
                <g id="编组-44" transform="translate(372.000000, 148.000000)">
                    <g id="编组-5" transform="translate(600.000000, 0.000000)">
                        <g id="编组-47" transform="translate(24.000000, 22.000000)">
                            <g id="card-update" transform="translate(30.000000, 33.000000)">
                                <path d="M35.2,41 C36.127,36.436 40.162,33 45,33 C49.099,33 52.456,35.47 54,39" id="路径" stroke="#00AAE7"></path>
                                <path d="M54.8,45 C53.873,49.564 49.838,53 45,53 C40.901,53 37.544,50.53 36,47" id="路径" stroke="#00AAE7"></path>
                                <line x1="0" y1="12" x2="60" y2="12" id="路径" stroke="#333333" stroke-linecap="square"></line>
                                <line x1="0" y1="22" x2="60" y2="22" id="路径" stroke="#333333" stroke-linecap="square"></line>
                                <path d="M26,44 L4,44 C1.791,44 0,42.209 0,40 L0,4 C0,1.791 1.791,0 4,0 L56,0 C58.209,0 60,1.791 60,4 L60,28" id="路径" stroke="#333333" stroke-linecap="square"></path>
                                <line x1="8" y1="34" x2="22" y2="34" id="路径" stroke="#333333" stroke-linecap="square"></line>
                                <polyline id="路径" stroke="#00AAE7" stroke-linecap="square" points="54 32 54 39 47 39"></polyline>
                                <polyline id="路径" stroke="#00AAE7" stroke-linecap="square" points="36 54 36 47 43 47"></polyline>
                            </g>
                        </g>
                    </g>
                </g>
            </g>
        </g>
    </g>
</svg>