<svg width="60" height="61" viewBox="0 0 60 61" fill="none" xmlns="http://www.w3.org/2000/svg">
<path d="M58.0119 23.4945C59.6571 29.6347 59.2393 36.1454 56.8227 42.025C54.4061 47.9045 50.1245 52.8271 44.6368 56.0355C39.149 59.2439 32.7591 60.5603 26.4501 59.7821C20.1411 59.004 14.2625 56.1744 9.7188 51.7288C5.17509 47.2831 2.21797 41.4677 1.3024 35.1771C0.386823 28.8866 1.56351 22.4695 4.65144 16.913C7.73936 11.3566 12.5674 6.96872 18.3929 4.42442C24.2183 1.88013 30.7184 1.32039 36.893 2.83134" stroke="#333333" stroke-width="2"/>
<path d="M8.44815 49.536C10.529 48.7178 12.7373 45.8099 12.7373 45.8099C12.7373 45.8099 14.5173 45.1699 15.3429 43.9654C16.1685 42.7609 16.2099 40.8354 16.2099 40.8354C16.2099 40.8354 18.5862 37.288 18.2537 36.0252C17.9212 34.7624 15.4505 33.3455 15.4505 33.3455C15.4505 33.3455 14.9003 31.0186 12.7367 30.0189C11.2915 29.4648 10.0772 28.0486 10.6431 25.9367C11.2089 23.8249 14.2431 20.9487 14.2431 20.9487C14.2431 20.9487 16.7205 20.4638 17.2434 19.7662C17.7663 19.0685 18.3609 17.2732 18.3609 17.2732C18.3609 17.2732 21.4294 14.1542 20.8218 11.7279C20.6285 10.9542 19.0244 9.98859 19.0244 9.98859L17.5668 5.68067" stroke="#333333" stroke-width="2.11212"/>
<path d="M47.4785 53.9321C45.1626 51.946 40.7992 49.6372 40.7992 49.6372C40.7992 49.6372 38.4158 44.9461 36.1024 44.6622C33.789 44.3784 30.8498 46.2731 30.8498 46.2731C30.8498 46.2731 29.7698 50.9307 29.0025 50.9771C28.2352 51.0235 26.6929 49.2685 25.2691 49.8927C23.8441 50.5166 23.8117 53.3446 23.8117 53.3446C23.8117 53.3446 21.0438 53.4566 20.5009 54.2328C19.9581 55.0091 20.6867 57.259 20.726 58.0572" stroke="#333333" stroke-width="2.11212"/>
<path fill-rule="evenodd" clip-rule="evenodd" d="M32.9333 12.08C32.9333 5.69588 38.2746 1.93333 43.3767 1.93333C48.4787 1.93333 53.82 5.69588 53.82 12.08C53.82 13.5538 53.1973 15.3281 52.156 17.2302C51.1253 19.1128 49.7387 21.0241 48.3327 22.7469C46.9296 24.4663 45.5238 25.978 44.4676 27.0607C44.0369 27.5021 43.6652 27.8713 43.3767 28.1533C43.0881 27.8713 42.7164 27.5021 42.2858 27.0607C41.2295 25.978 39.8237 24.4663 38.4206 22.7469C37.0147 21.0241 35.6281 19.1128 34.5974 17.2302C33.5561 15.3281 32.9333 13.5538 32.9333 12.08ZM42.72 30.2011C42.7202 30.2012 42.7203 30.2014 43.3767 29.4917L42.7203 30.2014L43.3767 30.8084L44.033 30.2014L43.3767 29.4917C44.033 30.2014 44.0332 30.2012 44.0334 30.2011L44.034 30.2005L44.036 30.1986L44.0431 30.192L44.0694 30.1675C44.0923 30.1461 44.1256 30.1149 44.1687 30.0741C44.2549 29.9927 44.3803 29.8733 44.5392 29.7195C44.857 29.412 45.3093 28.9664 45.8514 28.4108C46.9345 27.3005 48.3813 25.7454 49.8306 23.9693C51.2772 22.1966 52.7431 20.1837 53.8518 18.1586C54.9499 16.1529 55.7534 14.0359 55.7534 12.08C55.7534 4.39942 49.3024 0 43.3767 0C37.4509 0 31 4.39942 31 12.08C31 14.0359 31.8035 16.1529 32.9016 18.1586C34.0103 20.1837 35.4762 22.1966 36.9227 23.9693C38.3721 25.7454 39.8188 27.3005 40.9019 28.4108C41.444 28.9664 41.8964 29.412 42.2142 29.7195C42.3731 29.8733 42.4984 29.9927 42.5846 30.0741C42.6278 30.1149 42.6611 30.1461 42.6839 30.1675L42.7102 30.192L42.7174 30.1986L42.7194 30.2005L42.72 30.2011ZM40.5391 12.3758C40.5391 10.8091 41.8091 9.53911 43.3758 9.53911C44.9424 9.53911 46.2125 10.8091 46.2125 12.3758C46.2125 13.9424 44.9424 15.2125 43.3758 15.2125C41.8091 15.2125 40.5391 13.9424 40.5391 12.3758ZM43.3758 7.60578C40.7414 7.60578 38.6058 9.74138 38.6058 12.3758C38.6058 15.0102 40.7414 17.1458 43.3758 17.1458C46.0102 17.1458 48.1458 15.0102 48.1458 12.3758C48.1458 9.74138 46.0102 7.60578 43.3758 7.60578Z" fill="#00AAE7"/>
</svg>
