<svg width="60" height="60" viewBox="0 0 60 60" fill="none" xmlns="http://www.w3.org/2000/svg">
<path d="M40.7332 16.4658H32.0332" stroke="#00AAE7" stroke-width="1.93333" stroke-linecap="square"/>
<path d="M49.4332 8.73333H32.0332" stroke="#00AAE7" stroke-width="1.93333" stroke-linecap="square"/>
<path fill-rule="evenodd" clip-rule="evenodd" d="M24.2998 4.86667C24.2998 2.73117 26.031 1 28.1665 1H53.2998C55.4353 1 57.1665 2.73117 57.1665 4.86667V20.3333C57.1665 22.4688 55.4353 24.2 53.2998 24.2H32.9998L24.2998 30.9667V4.86667Z" stroke="#00AAE7" stroke-width="1.93333" stroke-linecap="square"/>
<path d="M2 12.5H19" stroke="#333333" stroke-width="1.93333" stroke-linecap="square"/>
<path d="M2 49.3329H38.7333" stroke="#333333" stroke-width="1.93333" stroke-linecap="square"/>
<path d="M38.7333 29.0339V54.1672C38.7333 56.8366 36.5694 59.0005 33.9 59.0005H6.83333C4.16396 59.0005 2 56.8366 2 54.1672V9.70052C2 7.03114 4.16396 4.86719 6.83333 4.86719H19" stroke="#333333" stroke-width="1.93333" stroke-linecap="square"/>
</svg>
