<svg xmlns="http://www.w3.org/2000/svg" width="1080" height="477" viewBox="0 0 1080 477">
  <g fill="none" fill-rule="evenodd">
    <g transform="translate(0 68)">
      <polygon fill="#00AAE7" points="0 0 314 0 314 408 0 408" opacity=".08"/>
      <rect width="314" height="36" fill="#24B5E9"/>
      <text fill="#FFF" font-family="PingFangSC-Regular, PingFang SC" font-size="14">
        <tspan x="115" y="23">提供战略支持</tspan>
      </text>
    </g>
    <g transform="translate(8 137)">
      <path fill="#EBF9FD" stroke="#00AAE7" d="M143,0.5 C143.414214,0.5 143.789214,0.667893219 144.06066,0.939339828 C144.332107,1.21078644 144.5,1.58578644 144.5,2 L144.5,2 L144.5,34 C144.5,34.4142136 144.332107,34.7892136 144.06066,35.0606602 C143.789214,35.3321068 143.414214,35.5 143,35.5 L143,35.5 L2,35.5 C1.58578644,35.5 1.21078644,35.3321068 0.939339828,35.0606602 C0.667893219,34.7892136 0.5,34.4142136 0.5,34 L0.5,34 L0.5,2 C0.5,1.58578644 0.667893219,1.21078644 0.939339828,0.939339828 C1.21078644,0.667893219 1.58578644,0.5 2,0.5 L2,0.5 Z"/>
      <text fill="#24B5E9" font-family="PingFangSC-Regular, PingFang SC" font-size="14">
        <tspan x="48.316" y="23">用户系统</tspan>
      </text>
      <g transform="translate(153)">
        <path fill="#EBF9FD" stroke="#00AAE7" d="M143,0.5 C143.414214,0.5 143.789214,0.667893219 144.06066,0.939339828 C144.332107,1.21078644 144.5,1.58578644 144.5,2 L144.5,2 L144.5,34 C144.5,34.4142136 144.332107,34.7892136 144.06066,35.0606602 C143.789214,35.3321068 143.414214,35.5 143,35.5 L143,35.5 L2,35.5 C1.58578644,35.5 1.21078644,35.3321068 0.939339828,35.0606602 C0.667893219,34.7892136 0.5,34.4142136 0.5,34 L0.5,34 L0.5,2 C0.5,1.58578644 0.667893219,1.21078644 0.939339828,0.939339828 C1.21078644,0.667893219 1.58578644,0.5 2,0.5 L2,0.5 Z"/>
        <text fill="#24B5E9" font-family="PingFangSC-Regular, PingFang SC" font-size="14">
          <tspan x="45" y="23">商品管理</tspan>
        </text>
      </g>
      <g transform="translate(0 44)">
        <path fill="#EBF9FD" stroke="#00AAE7" d="M143,0.5 C143.414214,0.5 143.789214,0.667893219 144.06066,0.939339828 C144.332107,1.21078644 144.5,1.58578644 144.5,2 L144.5,2 L144.5,34 C144.5,34.4142136 144.332107,34.7892136 144.06066,35.0606602 C143.789214,35.3321068 143.414214,35.5 143,35.5 L143,35.5 L2,35.5 C1.58578644,35.5 1.21078644,35.3321068 0.939339828,35.0606602 C0.667893219,34.7892136 0.5,34.4142136 0.5,34 L0.5,34 L0.5,2 C0.5,1.58578644 0.667893219,1.21078644 0.939339828,0.939339828 C1.21078644,0.667893219 1.58578644,0.5 2,0.5 L2,0.5 Z"/>
        <text fill="#24B5E9" font-family="PingFangSC-Regular, PingFang SC" font-size="14">
          <tspan x="45" y="23">客户管理</tspan>
        </text>
      </g>
      <g transform="translate(153 44)">
        <path fill="#EBF9FD" stroke="#00AAE7" d="M143,0.5 C143.414214,0.5 143.789214,0.667893219 144.06066,0.939339828 C144.332107,1.21078644 144.5,1.58578644 144.5,2 L144.5,2 L144.5,34 C144.5,34.4142136 144.332107,34.7892136 144.06066,35.0606602 C143.789214,35.3321068 143.414214,35.5 143,35.5 L143,35.5 L2,35.5 C1.58578644,35.5 1.21078644,35.3321068 0.939339828,35.0606602 C0.667893219,34.7892136 0.5,34.4142136 0.5,34 L0.5,34 L0.5,2 C0.5,1.58578644 0.667893219,1.21078644 0.939339828,0.939339828 C1.21078644,0.667893219 1.58578644,0.5 2,0.5 L2,0.5 Z"/>
        <text fill="#24B5E9" font-family="PingFangSC-Regular, PingFang SC" font-size="14">
          <tspan x="45" y="23">组织管理</tspan>
        </text>
      </g>
      <g transform="translate(0 88)">
        <path fill="#EBF9FD" stroke="#00AAE7" d="M143,0.5 C143.414214,0.5 143.789214,0.667893219 144.06066,0.939339828 C144.332107,1.21078644 144.5,1.58578644 144.5,2 L144.5,2 L144.5,34 C144.5,34.4142136 144.332107,34.7892136 144.06066,35.0606602 C143.789214,35.3321068 143.414214,35.5 143,35.5 L143,35.5 L2,35.5 C1.58578644,35.5 1.21078644,35.3321068 0.939339828,35.0606602 C0.667893219,34.7892136 0.5,34.4142136 0.5,34 L0.5,34 L0.5,2 C0.5,1.58578644 0.667893219,1.21078644 0.939339828,0.939339828 C1.21078644,0.667893219 1.58578644,0.5 2,0.5 L2,0.5 Z"/>
        <text fill="#24B5E9" font-family="PingFangSC-Regular, PingFang SC" font-size="14">
          <tspan x="45" y="23">直播审核</tspan>
        </text>
      </g>
      <g transform="translate(153 88)">
        <path fill="#EBF9FD" stroke="#00AAE7" d="M143,0.5 C143.414214,0.5 143.789214,0.667893219 144.06066,0.939339828 C144.332107,1.21078644 144.5,1.58578644 144.5,2 L144.5,2 L144.5,34 C144.5,34.4142136 144.332107,34.7892136 144.06066,35.0606602 C143.789214,35.3321068 143.414214,35.5 143,35.5 L143,35.5 L2,35.5 C1.58578644,35.5 1.21078644,35.3321068 0.939339828,35.0606602 C0.667893219,34.7892136 0.5,34.4142136 0.5,34 L0.5,34 L0.5,2 C0.5,1.58578644 0.667893219,1.21078644 0.939339828,0.939339828 C1.21078644,0.667893219 1.58578644,0.5 2,0.5 L2,0.5 Z"/>
        <text fill="#24B5E9" font-family="PingFangSC-Regular, PingFang SC" font-size="14">
          <tspan x="45" y="23">流量扶持</tspan>
        </text>
      </g>
    </g>
    <g transform="translate(58 368)">
      <path fill="#EBF9FD" stroke="#00AAE7" d="M196,0.5 C196.414214,0.5 196.789214,0.667893219 197.06066,0.939339828 C197.332107,1.21078644 197.5,1.58578644 197.5,2 L197.5,2 L197.5,54 C197.5,54.4142136 197.332107,54.7892136 197.06066,55.0606602 C196.789214,55.3321068 196.414214,55.5 196,55.5 L196,55.5 L2,55.5 C1.58578644,55.5 1.21078644,55.3321068 0.939339828,55.0606602 C0.667893219,54.7892136 0.5,54.4142136 0.5,54 L0.5,54 L0.5,2 C0.5,1.58578644 0.667893219,1.21078644 0.939339828,0.939339828 C1.21078644,0.667893219 1.58578644,0.5 2,0.5 L2,0.5 Z"/>
      <text fill="#24B5E9" font-family="PingFangSC-Regular, PingFang SC" font-size="14">
        <tspan x="36" y="23">考核分公司直播业绩</tspan> <tspan x="60.017" y="43">下发KPI指标</tspan>
      </text>
    </g>
    <polygon fill="#43C0C3" points="0 0 293.458 0 314 28 293.458 56 0 56" opacity=".854"/>
    <text fill="#FFF" font-family="PingFangSC-Medium, PingFang SC" font-size="18" font-weight="400">
      <tspan x="139" y="35">总部</tspan>
    </text>
    <g transform="translate(383)">
      <g transform="translate(0 68)">
        <polygon fill="#00AAE7" points="0 0 314 0 314 408 0 408" opacity=".08"/>
        <g transform="translate(58 300)">
          <path fill="#EBF9FD" stroke="#00AAE7" d="M196,0.5 C196.414214,0.5 196.789214,0.667893219 197.06066,0.939339828 C197.332107,1.21078644 197.5,1.58578644 197.5,2 L197.5,2 L197.5,54 C197.5,54.4142136 197.332107,54.7892136 197.06066,55.0606602 C196.789214,55.3321068 196.414214,55.5 196,55.5 L196,55.5 L2,55.5 C1.58578644,55.5 1.21078644,55.3321068 0.939339828,55.0606602 C0.667893219,54.7892136 0.5,54.4142136 0.5,54 L0.5,54 L0.5,2 C0.5,1.58578644 0.667893219,1.21078644 0.939339828,0.939339828 C1.21078644,0.667893219 1.58578644,0.5 2,0.5 L2,0.5 Z"/>
          <text fill="#24B5E9" font-family="PingFangSC-Regular, PingFang SC" font-size="14">
            <tspan x="50" y="23">考核代理人业绩</tspan> <tspan x="60.017" y="43">下发KPI指标</tspan>
          </text>
        </g>
        <rect width="314" height="36" fill="#24B5E9"/>
        <text fill="#FFF" font-family="PingFangSC-Regular, PingFang SC" font-size="14">
          <tspan x="129" y="23">自主直播</tspan>
        </text>
        <g fill="#24B5E9" font-family="PingFangSC-Regular, PingFang SC" font-size="14" transform="translate(24 76)">
          <text>
            <tspan x="0" y="15">自定义菜单</tspan>
          </text>
          <text>
            <tspan x="98" y="15">白名单观看</tspan>
          </text>
          <text>
            <tspan x="224" y="15">优惠券</tspan>
          </text>
          <text>
            <tspan x="0" y="59">配置商品</tspan>
          </text>
          <text>
            <tspan x="98" y="59">暖场片</tspan>
          </text>
          <text>
            <tspan x="224" y="59">邀请卡</tspan>
          </text>
          <text>
            <tspan x="0" y="103">调查问卷</tspan>
          </text>
          <text>
            <tspan x="0" y="147">防录屏</tspan>
          </text>
          <text>
            <tspan x="98" y="103">回放下载</tspan>
          </text>
          <text>
            <tspan x="224" y="147">…</tspan>
          </text>
          <text>
            <tspan x="224" y="103">红包</tspan>
          </text>
          <text>
            <tspan x="98" y="147">抽奖</tspan>
          </text>
        </g>
      </g>
      <polygon fill="#43C0C3" points="0 0 293.458 0 314 28 293.458 56 0 56" opacity=".854"/>
      <text fill="#FFF" font-family="PingFangSC-Medium, PingFang SC" font-size="18" font-weight="400">
        <tspan x="121" y="35">直播互动</tspan>
      </text>
    </g>
    <g transform="translate(766)">
      <polygon fill="#00AAE7" points="0 69 314 69 314 477 0 477" opacity=".08"/>
      <g transform="translate(0 69)">
        <rect width="314" height="36" fill="#24B5E9"/>
        <text fill="#FFF" font-family="PingFangSC-Regular, PingFang SC" font-size="14">
          <tspan x="108" y="23">零距离触达客户</tspan>
        </text>
      </g>
      <g transform="translate(8 113)">
        <path fill="#FFF" d="M2,0 L296,0 C297.104569,-2.02906125e-16 298,0.8954305 298,2 L298,128 C298,129.104569 297.104569,130 296,130 L2,130 C0.8954305,130 1.3527075e-16,129.104569 0,128 L0,2 C-1.3527075e-16,0.8954305 0.8954305,2.02906125e-16 2,0 Z"/>
        <text fill="#24B5E9" font-family="PingFangSC-Regular, PingFang SC" font-size="14">
          <tspan x="135" y="23">推广</tspan>
        </text>
        <g transform="translate(12 38)">
          <path fill="#EBF9FD" stroke="#00AAE7" d="M272,0.5 C272.414214,0.5 272.789214,0.667893219 273.06066,0.939339828 C273.332107,1.21078644 273.5,1.58578644 273.5,2 L273.5,2 L273.5,34 C273.5,34.4142136 273.332107,34.7892136 273.06066,35.0606602 C272.789214,35.3321068 272.414214,35.5 272,35.5 L272,35.5 L2,35.5 C1.58578644,35.5 1.21078644,35.3321068 0.939339828,35.0606602 C0.667893219,34.7892136 0.5,34.4142136 0.5,34 L0.5,34 L0.5,2 C0.5,1.58578644 0.667893219,1.21078644 0.939339828,0.939339828 C1.21078644,0.667893219 1.58578644,0.5 2,0.5 L2,0.5 Z"/>
          <text fill="#24B5E9" font-family="PingFangSC-Regular, PingFang SC" font-size="14">
            <tspan x="109" y="23">转发链接</tspan>
          </text>
        </g>
        <g transform="translate(12 82)">
          <path fill="#EBF9FD" stroke="#00AAE7" d="M272,0.5 C272.414214,0.5 272.789214,0.667893219 273.06066,0.939339828 C273.332107,1.21078644 273.5,1.58578644 273.5,2 L273.5,2 L273.5,34 C273.5,34.4142136 273.332107,34.7892136 273.06066,35.0606602 C272.789214,35.3321068 272.414214,35.5 272,35.5 L272,35.5 L2,35.5 C1.58578644,35.5 1.21078644,35.3321068 0.939339828,35.0606602 C0.667893219,34.7892136 0.5,34.4142136 0.5,34 L0.5,34 L0.5,2 C0.5,1.58578644 0.667893219,1.21078644 0.939339828,0.939339828 C1.21078644,0.667893219 1.58578644,0.5 2,0.5 L2,0.5 Z"/>
          <text fill="#24B5E9" font-family="PingFangSC-Regular, PingFang SC" font-size="14">
            <tspan x="88" y="23">直播专属邀请卡</tspan>
          </text>
        </g>
      </g>
      <g transform="translate(8 251)">
        <path fill="#FFF" d="M2,0 L296,0 C297.104569,-4.2495073e-16 298,0.8954305 298,2 L298,216 C298,217.104569 297.104569,218 296,218 L2,218 C0.8954305,218 1.56101028e-14,217.104569 0,216 L0,2 C-3.57315355e-16,0.8954305 0.8954305,-1.91384796e-17 2,0 Z"/>
        <text fill="#24B5E9" font-family="PingFangSC-Regular, PingFang SC" font-size="14">
          <tspan x="135" y="23">维护</tspan>
        </text>
        <g transform="translate(12 38)">
          <path fill="#EBF9FD" stroke="#00AAE7" d="M272,0.5 C272.414214,0.5 272.789214,0.667893219 273.06066,0.939339828 C273.332107,1.21078644 273.5,1.58578644 273.5,2 L273.5,2 L273.5,34 C273.5,34.4142136 273.332107,34.7892136 273.06066,35.0606602 C272.789214,35.3321068 272.414214,35.5 272,35.5 L272,35.5 L2,35.5 C1.58578644,35.5 1.21078644,35.3321068 0.939339828,35.0606602 C0.667893219,34.7892136 0.5,34.4142136 0.5,34 L0.5,34 L0.5,2 C0.5,1.58578644 0.667893219,1.21078644 0.939339828,0.939339828 C1.21078644,0.667893219 1.58578644,0.5 2,0.5 L2,0.5 Z"/>
          <text fill="#24B5E9" font-family="PingFangSC-Regular, PingFang SC" font-size="14">
            <tspan x="74" y="23">代理人名片（线下）</tspan>
          </text>
        </g>
        <g transform="translate(12 82)">
          <path fill="#EBF9FD" stroke="#00AAE7" d="M272,0.5 C272.414214,0.5 272.789214,0.667893219 273.06066,0.939339828 C273.332107,1.21078644 273.5,1.58578644 273.5,2 L273.5,2 L273.5,34 C273.5,34.4142136 273.332107,34.7892136 273.06066,35.0606602 C272.789214,35.3321068 272.414214,35.5 272,35.5 L272,35.5 L2,35.5 C1.58578644,35.5 1.21078644,35.3321068 0.939339828,35.0606602 C0.667893219,34.7892136 0.5,34.4142136 0.5,34 L0.5,34 L0.5,2 C0.5,1.58578644 0.667893219,1.21078644 0.939339828,0.939339828 C1.21078644,0.667893219 1.58578644,0.5 2,0.5 L2,0.5 Z"/>
          <text fill="#24B5E9" font-family="PingFangSC-Regular, PingFang SC" font-size="14">
            <tspan x="64" y="23">直播间 1 V 1 私聊（线上）</tspan>
          </text>
        </g>
        <g transform="translate(12 126)">
          <path fill="#EBF9FD" stroke="#00AAE7" d="M272,0.5 C272.414214,0.5 272.789214,0.667893219 273.06066,0.939339828 C273.332107,1.21078644 273.5,1.58578644 273.5,2 L273.5,2 L273.5,34 C273.5,34.4142136 273.332107,34.7892136 273.06066,35.0606602 C272.789214,35.3321068 272.414214,35.5 272,35.5 L272,35.5 L2,35.5 C1.58578644,35.5 1.21078644,35.3321068 0.939339828,35.0606602 C0.667893219,34.7892136 0.5,34.4142136 0.5,34 L0.5,34 L0.5,2 C0.5,1.58578644 0.667893219,1.21078644 0.939339828,0.939339828 C1.21078644,0.667893219 1.58578644,0.5 2,0.5 L2,0.5 Z"/>
          <text fill="#24B5E9" font-family="PingFangSC-Regular, PingFang SC" font-size="14">
            <tspan x="88" y="23">与客户视频互动</tspan>
          </text>
        </g>
        <g transform="translate(12 170)">
          <path fill="#EBF9FD" stroke="#00AAE7" d="M272,0.5 C272.414214,0.5 272.789214,0.667893219 273.06066,0.939339828 C273.332107,1.21078644 273.5,1.58578644 273.5,2 L273.5,2 L273.5,34 C273.5,34.4142136 273.332107,34.7892136 273.06066,35.0606602 C272.789214,35.3321068 272.414214,35.5 272,35.5 L272,35.5 L2,35.5 C1.58578644,35.5 1.21078644,35.3321068 0.939339828,35.0606602 C0.667893219,34.7892136 0.5,34.4142136 0.5,34 L0.5,34 L0.5,2 C0.5,1.58578644 0.667893219,1.21078644 0.939339828,0.939339828 C1.21078644,0.667893219 1.58578644,0.5 2,0.5 L2,0.5 Z"/>
          <text fill="#24B5E9" font-family="PingFangSC-Regular, PingFang SC" font-size="14">
            <tspan x="81" y="23">查看客户行为详情</tspan>
          </text>
        </g>
      </g>
      <polygon fill="#43C0C3" points="0 0 293.458 0 314 28 293.458 56 0 56" opacity=".854"/>
      <text fill="#FFF" font-family="PingFangSC-Medium, PingFang SC" font-size="18" font-weight="400">
        <tspan x="130" y="35">代理人</tspan>
      </text>
    </g>
  </g>
</svg>
