<?xml version="1.0" encoding="UTF-8"?>
<svg width="32px" height="32px" viewBox="0 0 32 32" version="1.1" xmlns="http://www.w3.org/2000/svg" xmlns:xlink="http://www.w3.org/1999/xlink">
    <!-- Generator: Sketch 64 (93537) - https://sketch.com -->
    <title>机器数据智能</title>
    <desc>Created with Sketch.</desc>
    <defs>
        <rect id="path-1" x="0" y="0" width="32" height="32"></rect>
    </defs>
    <g id="首页" stroke="none" stroke-width="1" fill="none" fill-rule="evenodd">
        <g id="切图" transform="translate(-248.000000, -211.000000)">
            <g id="编组-20" transform="translate(248.000000, 211.000000)">
                <mask id="mask-2" fill="white">
                    <use xlink:href="#path-1"></use>
                </mask>
                <use id="矩形" fill-opacity="0" fill="#FAFAFA" xlink:href="#path-1"></use>
                <g id="cyborg" mask="url(#mask-2)" stroke-linecap="square" stroke-width="2">
                    <g transform="translate(2.000000, 0.000000)">
                        <path d="M24.137931,29.9310345 L24.137931,22.5612414 C28.2617961,18.6047858 29.1924261,12.3620868 26.40184,7.37485981 C23.611254,2.38763277 17.8040321,-0.0849239066 12.2748274,1.3599631 C6.74562258,2.8048501 2.89047441,7.80236894 2.89655172,13.5172414 L2.89655172,14.4827586 L0,20.2758621 L2.89655172,21.7241379 L2.89655172,27.0344828 C2.89655172,28.6342041 4.1933821,29.9310345 5.79310345,29.9310345 L12.5517241,29.9310345 C15.7511668,29.9310345 18.3448276,27.3373737 18.3448276,24.137931 L18.3448276,17.3793103" id="路径" stroke="#333333"></path>
                        <circle id="椭圆形" stroke="#00AAE7" cx="18.3448276" cy="13.5172414" r="3.86206897"></circle>
                    </g>
                </g>
            </g>
        </g>
    </g>
</svg>