<?xml version="1.0" encoding="UTF-8"?>
<svg width="21px" height="22px" viewBox="0 0 21 22" version="1.1" xmlns="http://www.w3.org/2000/svg" xmlns:xlink="http://www.w3.org/1999/xlink">
    <title>cyborg</title>
    <g id="移动端" stroke="none" stroke-width="1" fill="none" fill-rule="evenodd" stroke-linecap="square">
        <g id="首页" transform="translate(-17.000000, -1354.000000)">
            <g id="云产品" transform="translate(0.000000, 1013.000000)">
                <g id="矩形-2" transform="translate(0.000000, 327.000000)">
                    <g id="编组-20" transform="translate(16.000000, 12.000000)">
                        <g id="cyborg" transform="translate(2.000000, 2.000000)">
                            <path d="M16.6666667,20.6666667 L16.6666667,15.578 C19.5140973,12.8461616 20.1566751,8.53572663 18.2298419,5.0921651 C16.3030087,1.64860358 12.2932603,-0.0586379355 8.47547604,0.939022138 C4.65769178,1.93668221 1.99580376,5.38734998 2,9.33333333 L2,10 L0,14 L2,15 L2,18.6666667 C2,19.7712362 2.8954305,20.6666667 4,20.6666667 L8.66666667,20.6666667 C10.8758057,20.6666667 12.6666667,18.8758057 12.6666667,16.6666667 L12.6666667,12" id="路径" stroke="#333333"></path>
                            <circle id="椭圆形" stroke="#00AAE7" cx="12.6666667" cy="9.33333333" r="2.66666667"></circle>
                        </g>
                    </g>
                </g>
            </g>
        </g>
    </g>
</svg>