<?xml version="1.0" encoding="UTF-8"?>
<svg width="63px" height="59px" viewBox="0 0 63 59" version="1.1" xmlns="http://www.w3.org/2000/svg" xmlns:xlink="http://www.w3.org/1999/xlink">
    <title>chat-33</title>
    <g id="解决方案" stroke="none" stroke-width="1" fill="none" fill-rule="evenodd" stroke-linecap="square">
        <g id="场景解决方案-短视频解决方案✅" transform="translate(-584.000000, -4147.000000)" stroke-width="2">
            <g id="接入流程" transform="translate(0.000000, 3936.000000)">
                <g id="编组-38" transform="translate(505.000000, 180.000000)">
                    <g id="编组-18" transform="translate(50.500000, 0.000000)">
                        <g id="chat-33" transform="translate(30.000000, 32.000000)">
                            <path d="M25.001,47.911 C28.711,50.453 33.615,52 39,52 C41.403,52 43.702,51.677 45.852,51.111 L54,56 L54,47.187 C57.708,44.302 60,40.356 60,36 C60,33.876 59.455,31.851 58.468,29.999" id="路径" stroke="#00AAE7"></path>
                            <path d="M27,0 C12.088,0 0,9.402 0,21 C0,25.997 2.253,30.58 6,34.186 L6,48 L19.626,41.187 C21.973,41.705 24.44,42 27,42 C41.912,42 54,32.598 54,21 C54,9.402 41.912,0 27,0 Z" id="路径" stroke="#333333"></path>
                        </g>
                    </g>
                </g>
            </g>
        </g>
    </g>
</svg>