<?xml version="1.0" encoding="UTF-8"?>
<svg width="1081px" height="634px" viewBox="0 0 1081 634" version="1.1" xmlns="http://www.w3.org/2000/svg" xmlns:xlink="http://www.w3.org/1999/xlink">
    <title>编组</title>
    <g id="解决方案" stroke="none" stroke-width="1" fill="none" fill-rule="evenodd">
        <g id="行业解决方案-监控视频边缘存储解决方案✅" transform="translate(-420.000000, -690.000000)">
            <g id="产品介绍-2" transform="translate(0.000000, 542.000000)">
                <g id="编组" transform="translate(420.000000, 148.000000)">
                    <path d="M1079,1 L2,1 C1.72385763,1 1.47385763,1.11192881 1.29289322,1.29289322 C1.11192881,1.47385763 1,1.72385763 1,2 L1,632 C1,632.276142 1.11192881,632.526142 1.29289322,632.707107 C1.47385763,632.888071 1.72385763,633 2,633 L1079,633 C1079.27614,633 1079.52614,632.888071 1079.70711,632.707107 C1079.88807,632.526142 1080,632.276142 1080,632 L1080,2 C1080,1.72385763 1079.88807,1.47385763 1079.70711,1.29289322 C1079.52614,1.11192881 1079.27614,1 1079,1 Z" id="矩形" stroke="#21B4E9" stroke-width="2"></path>
                    <rect id="矩形" stroke="#4DC3ED" fill="#E2F5FC" x="28" y="78" width="1025" height="150"></rect>
                    <path id="路径-15备份-4" d="M622.5,150 L631.5,154.5 L622.5,159 L622.5,155 L546.5,155 L546.5,159 L537.5,154.5 L546.5,150 L546.5,154 L622.5,154 L622.5,150 Z" fill="#21B4E9" fill-rule="nonzero"></path>
                    <g id="QCDN备份" transform="translate(882.000000, 115.000000)">
                        <polygon id="多边形" fill="#24B5E9" points="12.6 0 23.5119201 6.3 23.5119201 18.9 12.6 25.2 1.68807991 18.9 1.68807991 6.3"></polygon>
                        <polygon id="路径-6" stroke="#E2F5FC" stroke-width="1.8" points="8.19708626 9 8.19708626 14.9829734 13.5970863 18 13.5970863 12"></polygon>
                        <polyline id="路径-7" stroke="#E2F5FC" stroke-width="1.8" stroke-linecap="square" points="11.7970863 7.2 17.1970863 10.2133929 17.1970863 16.2"></polyline>
                    </g>
                    <g id="智能多媒体备份" transform="translate(884.000000, 174.000000)">
                        <rect id="矩形备份-23" fill="#24B5E9" x="0" y="3.2" width="22.4" height="16"></rect>
                        <rect id="矩形备份-24" fill-opacity="0.409282124" fill="#24B5E9" x="0" y="0" width="22.4" height="3.2"></rect>
                        <polygon id="三角形备份-8" fill="#E2F5FC" transform="translate(11.560084, 11.200000) rotate(-270.000000) translate(-11.560084, -11.200000) " points="11.5600843 8 14.7600843 14.4 8.36008427 14.4"></polygon>
                    </g>
                    <g id="对象存储备份" transform="translate(449.000000, 130.000000)">
                        <rect id="矩形" fill="#24B5E9" x="0" y="0" width="21" height="7"></rect>
                        <rect id="矩形备份-2" fill="#24B5E9" x="0" y="8" width="21" height="7"></rect>
                        <rect id="矩形备份-3" fill="#24B5E9" x="0" y="16" width="21" height="8"></rect>
                        <line x1="4" y1="4" x2="7" y2="4" id="直线-2" stroke="#E2F5FC" stroke-width="1.9602" stroke-linecap="square"></line>
                        <line x1="4" y1="12" x2="7" y2="12" id="直线-2" stroke="#E2F5FC" stroke-width="1.9602" stroke-linecap="square"></line>
                        <line x1="4" y1="20" x2="7" y2="20" id="直线-2" stroke="#E2F5FC" stroke-width="1.9602" stroke-linecap="square"></line>
                    </g>
                    <g id="对象存储备份-6" transform="translate(700.000000, 130.000000)">
                        <rect id="矩形" fill="#24B5E9" x="0" y="0" width="21" height="7"></rect>
                        <rect id="矩形备份-2" fill="#24B5E9" x="0" y="8" width="21" height="7"></rect>
                        <rect id="矩形备份-3" fill="#24B5E9" x="0" y="16" width="21" height="8"></rect>
                        <line x1="4" y1="4" x2="7" y2="4" id="直线-2" stroke="#E2F5FC" stroke-width="1.9602" stroke-linecap="square"></line>
                        <line x1="4" y1="12" x2="7" y2="12" id="直线-2" stroke="#E2F5FC" stroke-width="1.9602" stroke-linecap="square"></line>
                        <line x1="4" y1="20" x2="7" y2="20" id="直线-2" stroke="#E2F5FC" stroke-width="1.9602" stroke-linecap="square"></line>
                    </g>
                    <rect id="矩形备份" stroke="#4DC3ED" fill="#E2F5FC" x="28" y="266" width="899" height="150"></rect>
                    <line x1="252.5" y1="361.5" x2="515.5" y2="361.5" id="直线-3" stroke="#24B5E9" stroke-linecap="square"></line>
                    <line x1="252.5" y1="361.5" x2="545.5" y2="361.5" id="直线-3" stroke="#24B5E9" stroke-linecap="square"></line>
                    <line x1="656.5" y1="361.5" x2="765.5" y2="361.5" id="直线-3" stroke="#24B5E9" stroke-linecap="square"></line>
                    <g id="更多" transform="translate(842.000000, 328.000000)" fill-rule="nonzero">
                        <rect id="矩形" fill="#000000" opacity="0" x="0" y="0" width="27" height="27"></rect>
                        <path d="M0,14 C0,15.6568542 1.37366281,17 3.06816177,17 C4.76266072,17 6.13632354,15.6568542 6.13632354,14 C6.13632354,12.3431457 4.76266072,11 3.06816177,11 C1.37366281,11 0,12.3431457 0,14 Z M10.4318382,14 C10.4318382,15.0717967 11.0166265,16.0621778 11.9659191,16.5980762 C12.9152117,17.1339746 14.0847883,17.1339746 15.0340809,16.5980762 C15.9833735,16.0621778 16.5681618,15.0717967 16.5681618,14 C16.5681618,12.3431457 15.194499,11 13.5,11 C11.805501,11 10.4318382,12.3431457 10.4318382,14 L10.4318382,14 Z M20.8636765,14 C20.8636765,15.6568542 22.2373393,17 23.9318382,17 C25.6263372,17 27,15.6568542 27,14 C27,12.3431457 25.6263372,11 23.9318382,11 C22.2373393,11 20.8636765,12.3431457 20.8636765,14 Z" id="形状" fill="#24B5E9"></path>
                    </g>
                    <rect id="矩形备份-3" stroke="#4DC3ED" fill="#E2F5FC" x="28" y="454" width="1025" height="150"></rect>
                    <line x1="252.5" y1="549.5" x2="720.5" y2="549.5" id="直线-3" stroke="#24B5E9" stroke-linecap="square"></line>
                    <line x1="850.5" y1="549.5" x2="917.5" y2="549.5" id="直线-3" stroke="#24B5E9" stroke-linecap="square"></line>
                    <line x1="193.5" y1="78.4518072" x2="193.5" y2="227.548193" id="直线" stroke="#24B5E9" stroke-linecap="square"></line>
                    <line x1="193.5" y1="266.451807" x2="193.5" y2="415.548193" id="直线备份" stroke="#24B5E9" stroke-linecap="square"></line>
                    <line x1="193.5" y1="454.451807" x2="193.5" y2="603.548193" id="直线备份-2" stroke="#24B5E9" stroke-linecap="square"></line>
                    <path d="M534,102.5 L384,102.5 C383.585786,102.5 383.210786,102.667893 382.93934,102.93934 C382.667893,103.210786 382.5,103.585786 382.5,104 L382.5,202 C382.5,202.414214 382.667893,202.789214 382.93934,203.06066 C383.210786,203.332107 383.585786,203.5 384,203.5 L534,203.5 C534.414214,203.5 534.789214,203.332107 535.06066,203.06066 C535.332107,202.789214 535.5,202.414214 535.5,202 L535.5,104 C535.5,103.585786 535.332107,103.210786 535.06066,102.93934 C534.789214,102.667893 534.414214,102.5 534,102.5 Z" id="矩形备份-21" stroke="#1AB9EB" opacity="0.85"></path>
                    <path d="M785,102.5 L635,102.5 C634.585786,102.5 634.210786,102.667893 633.93934,102.93934 C633.667893,103.210786 633.5,103.585786 633.5,104 L633.5,202 C633.5,202.414214 633.667893,202.789214 633.93934,203.06066 C634.210786,203.332107 634.585786,203.5 635,203.5 L785,203.5 C785.414214,203.5 785.789214,203.332107 786.06066,203.06066 C786.332107,202.789214 786.5,202.414214 786.5,202 L786.5,104 C786.5,103.585786 786.332107,103.210786 786.06066,102.93934 C785.789214,102.667893 785.414214,102.5 785,102.5 Z" id="矩形备份-22" stroke="#1AB9EB" opacity="0.85"></path>
                    <text id="全局监控" font-family="PingFangSC-Regular, PingFang SC" font-size="14" font-weight="normal" line-spacing="18" fill="#00AAE7">
                        <tspan x="107" y="117">全局监控</tspan>
                    </text>
                    <text id="离线可用" font-family="PingFangSC-Regular, PingFang SC" font-size="14" font-weight="normal" line-spacing="18" fill="#00AAE7">
                        <tspan x="107" y="305">离线可用</tspan>
                    </text>
                    <text id="加速上行" font-family="PingFangSC-Regular, PingFang SC" font-size="14" font-weight="normal" line-spacing="18" fill="#00AAE7">
                        <tspan x="107" y="493">加速上行</tspan>
                    </text>
                    <text id="数据同步" font-family="PingFangSC-Regular, PingFang SC" font-size="14" font-weight="normal" line-spacing="18" fill="#00AAE7">
                        <tspan x="107" y="159">数据同步</tspan>
                    </text>
                    <text id="多重备份" font-family="PingFangSC-Regular, PingFang SC" font-size="14" font-weight="normal" line-spacing="18" fill="#00AAE7">
                        <tspan x="107" y="347">多重备份</tspan>
                    </text>
                    <text id="通信加密" font-family="PingFangSC-Regular, PingFang SC" font-size="14" font-weight="normal" line-spacing="18" fill="#00AAE7">
                        <tspan x="107" y="535">通信加密</tspan>
                    </text>
                    <text id="功能拓展" font-family="PingFangSC-Regular, PingFang SC" font-size="14" font-weight="normal" line-spacing="18" fill="#00AAE7">
                        <tspan x="107" y="201">功能拓展</tspan>
                    </text>
                    <text id="智能调度" font-family="PingFangSC-Regular, PingFang SC" font-size="14" font-weight="normal" line-spacing="18" fill="#00AAE7">
                        <tspan x="107" y="389">智能调度</tspan>
                    </text>
                    <text id="数据加密" font-family="PingFangSC-Regular, PingFang SC" font-size="14" font-weight="normal" line-spacing="18" fill="#00AAE7">
                        <tspan x="107" y="577">数据加密</tspan>
                    </text>
                    <text id="对象存储" font-family="PingFangSC-Regular, PingFang SC" font-size="14" font-weight="normal" line-spacing="18" fill="#00AAE7">
                        <tspan x="431" y="173">对象存储</tspan>
                    </text>
                    <text id="对象存储备份-7" font-family="PingFangSC-Regular, PingFang SC" font-size="14" font-weight="normal" line-spacing="18" fill="#00AAE7">
                        <tspan x="682" y="173">对象存储</tspan>
                    </text>
                    <text id="监控数据" font-family="PingFangSC-Regular, PingFang SC" font-size="14" font-weight="normal" line-spacing="18" fill="#00AAE7">
                        <tspan x="431" y="577">监控数据</tspan>
                    </text>
                    <text id="人工智能" font-family="PingFangSC-Regular, PingFang SC" font-size="14" font-weight="normal" line-spacing="18" fill="#00AAE7">
                        <tspan x="257" y="131">人工智能</tspan>
                    </text>
                    <text id="七牛云边缘节点" font-family="PingFangSC-Regular, PingFang SC" font-size="14" font-weight="normal" line-spacing="18" fill="#00AAE7">
                        <tspan x="257" y="349">七牛云边缘节点</tspan>
                    </text>
                    <g id="jingxuanjiedian" transform="translate(293.000000, 302.000000)" fill-rule="nonzero">
                        <path d="M-2.84217094e-14,13.125 C-2.84217094e-14,20.3737373 5.87626266,26.25 13.125,26.25 C20.3737373,26.25 26.25,20.3737373 26.25,13.125 C26.25,5.87626266 20.3737373,-2.84217094e-14 13.125,-2.84217094e-14 C5.87626266,-2.84217094e-14 -2.84217094e-14,5.87626266 -2.84217094e-14,13.125 Z" id="路径" fill="#24B5E9"></path>
                        <path d="M18.3164062,17.2265625 C17.8183594,17.2265625 17.3759766,17.4257812 17.0214844,17.7216797 L13.8955078,15.4892578 C14.0947266,15.0820312 14.2148437,14.6308594 14.2148437,14.1503906 C14.2148437,13.4882812 13.9980469,12.8730469 13.640625,12.375 L17.296875,8.71582031 C17.6015625,8.89453125 17.9355469,9.0234375 18.3134766,9.0234375 C19.4472656,9.0234375 20.3642578,8.10644531 20.3642578,6.97265625 C20.3642578,5.83886719 19.4472656,4.921875 18.3134766,4.921875 C17.1796875,4.921875 16.2626953,5.83886719 16.2626953,6.97265625 C16.2626953,7.35058594 16.3916016,7.68457031 16.5703125,7.98925781 L12.9169922,11.6484375 C12.4130859,11.2880859 11.8037109,11.0742188 11.1386719,11.0742188 C9.96386719,11.0742188 8.95605469,11.7421875 8.4375,12.7119141 L5.96777344,11.8857422 C5.86816406,11.4257812 5.47558594,11.0742188 4.98632812,11.0742188 C4.42089844,11.0742188 3.9609375,11.5341797 3.9609375,12.0996094 C3.9609375,12.6650391 4.42089844,13.125 4.98632812,13.125 C5.24414062,13.125 5.47558594,13.0195312 5.65722656,12.8613281 L8.11230469,13.6816406 C8.08886719,13.8369141 8.06542969,13.9892578 8.06542969,14.1503906 C8.06542969,15.8496094 9.44238281,17.2265625 11.1416016,17.2265625 C11.9882812,17.2265625 12.7529297,16.8837891 13.3095703,16.3300781 L16.4150391,18.5478516 C16.3271484,18.7763672 16.265625,19.0195312 16.265625,19.2773437 C16.265625,20.4082031 17.1826172,21.328125 18.3164062,21.328125 C19.4501953,21.328125 20.3671875,20.4082031 20.3671875,19.2773437 C20.3671875,18.1464844 19.4501953,17.2265625 18.3164062,17.2265625 L18.3164062,17.2265625 Z" id="路径" fill="#E2F5FC"></path>
                    </g>
                    <g id="jingxuanjiedian备份" transform="translate(476.000000, 302.000000)" fill-rule="nonzero">
                        <path d="M-2.84217094e-14,13.125 C-2.84217094e-14,20.3737373 5.87626266,26.25 13.125,26.25 C20.3737373,26.25 26.25,20.3737373 26.25,13.125 C26.25,5.87626266 20.3737373,-2.84217094e-14 13.125,-2.84217094e-14 C5.87626266,-2.84217094e-14 -2.84217094e-14,5.87626266 -2.84217094e-14,13.125 Z" id="路径" fill="#24B5E9"></path>
                        <path d="M18.3164062,17.2265625 C17.8183594,17.2265625 17.3759766,17.4257812 17.0214844,17.7216797 L13.8955078,15.4892578 C14.0947266,15.0820312 14.2148437,14.6308594 14.2148437,14.1503906 C14.2148437,13.4882812 13.9980469,12.8730469 13.640625,12.375 L17.296875,8.71582031 C17.6015625,8.89453125 17.9355469,9.0234375 18.3134766,9.0234375 C19.4472656,9.0234375 20.3642578,8.10644531 20.3642578,6.97265625 C20.3642578,5.83886719 19.4472656,4.921875 18.3134766,4.921875 C17.1796875,4.921875 16.2626953,5.83886719 16.2626953,6.97265625 C16.2626953,7.35058594 16.3916016,7.68457031 16.5703125,7.98925781 L12.9169922,11.6484375 C12.4130859,11.2880859 11.8037109,11.0742188 11.1386719,11.0742188 C9.96386719,11.0742188 8.95605469,11.7421875 8.4375,12.7119141 L5.96777344,11.8857422 C5.86816406,11.4257812 5.47558594,11.0742188 4.98632812,11.0742188 C4.42089844,11.0742188 3.9609375,11.5341797 3.9609375,12.0996094 C3.9609375,12.6650391 4.42089844,13.125 4.98632812,13.125 C5.24414062,13.125 5.47558594,13.0195312 5.65722656,12.8613281 L8.11230469,13.6816406 C8.08886719,13.8369141 8.06542969,13.9892578 8.06542969,14.1503906 C8.06542969,15.8496094 9.44238281,17.2265625 11.1416016,17.2265625 C11.9882812,17.2265625 12.7529297,16.8837891 13.3095703,16.3300781 L16.4150391,18.5478516 C16.3271484,18.7763672 16.265625,19.0195312 16.265625,19.2773437 C16.265625,20.4082031 17.1826172,21.328125 18.3164062,21.328125 C19.4501953,21.328125 20.3671875,20.4082031 20.3671875,19.2773437 C20.3671875,18.1464844 19.4501953,17.2265625 18.3164062,17.2265625 L18.3164062,17.2265625 Z" id="路径" fill="#E2F5FC"></path>
                    </g>
                    <g id="cunchuyuCDN_bianyuanjiedianjisuan" transform="translate(696.000000, 301.000000)" fill-rule="nonzero">
                        <path d="M13.5,0 C6.04781086,0 0,6.0476429 0,13.4993237 C0,20.9523571 6.04781086,27 13.5,27 C20.9515136,27 27,20.9523571 27,13.5006763 C27,6.0476429 20.9515136,0 13.5,0 Z" id="路径" fill="#24B5E9"></path>
                        <path d="M18.811695,16.3333083 C19.1155893,16.4799268 19.4481658,16.5593452 19.7862055,16.5654543 C18.8970644,18.5638008 17.0294538,19.9613266 14.8515083,20.2580688 L14.8515083,20.2601052 C14.6515123,20.7691684 14.1218495,21.0710967 13.5788033,20.9855963 C13.0357571,20.9000959 12.6258999,20.450244 12.5939743,19.9046656 C12.5620487,19.3590873 12.9166717,18.8650383 13.4460833,18.7175357 C13.9754949,18.5700331 14.5368027,18.808889 14.7948269,19.2914727 C16.5426543,19.0242044 18.0454805,17.9174698 18.811695,16.3333083 Z M9.29604723,13.7077508 C9.44559513,14.2334503 9.20655475,14.791708 8.72172114,15.0490387 C9.04852426,16.6927397 10.1303074,18.0897463 11.6452527,18.8244655 C11.5039907,19.1248779 11.4294583,19.4520002 11.4267219,19.783595 C9.49479699,18.928917 8.11601282,17.1764073 7.74721063,15.1067358 C7.23430292,14.9091749 6.92915729,14.3831153 7.01412447,13.8429228 C7.09909166,13.3027302 7.55121595,12.8943494 8.10031421,12.861823 C8.64941246,12.8292966 9.14713393,13.1814124 9.29604723,13.7077508 L9.29604723,13.7077508 Z M13.9842145,10.4767131 L16.2992744,11.8057828 C16.4051253,11.753516 16.5212197,11.7256856 16.63868,11.724328 C16.981753,11.7245541 17.2843868,11.9475986 17.384264,12.2738317 C17.4841412,12.6000649 17.3578026,12.9528609 17.0730098,13.142998 L17.0730098,15.7970647 L14.7634131,17.1234192 C14.77182,17.4057108 14.6251066,17.6702097 14.380457,17.813823 C14.1358073,17.9574362 13.8319387,17.9574362 13.587289,17.813823 C13.3426394,17.6702097 13.195926,17.4057108 13.2043329,17.1234192 L10.8926874,15.7963859 L10.8926874,13.1253494 C10.5867361,12.8859909 10.5052666,12.4590098 10.7018036,12.1249279 C10.8983406,11.790846 11.3126644,11.6520271 11.672569,11.7996737 L13.9842145,10.4767131 L13.9842145,10.4767131 Z M13.9842145,11.3720363 L12.1226057,12.4390933 L12.1226057,12.4995056 C12.1226057,12.8022457 11.9436837,13.0764766 11.6664228,13.2027314 L11.6664228,15.3511 L13.5942737,16.4554904 C13.8339746,16.311587 14.1337714,16.311587 14.3741552,16.4554904 L16.2979086,15.3511 L16.2979086,13.1925496 C16.0306818,13.0635242 15.8604164,12.7947957 15.8587984,12.4995056 L15.8587984,12.4506327 L13.9842145,11.3713575 L13.9842145,11.3720363 Z M16.5376095,8.26453829 C18.5432381,9.15009965 19.9484681,11.0001254 20.2560466,13.1599677 C20.7676419,13.3585391 21.071214,13.8842899 20.9856344,14.423527 C20.9000548,14.9627641 20.4483977,15.3700979 19.9001475,15.4024896 C19.3518972,15.4348814 18.8548738,15.0835976 18.7056298,14.5582343 C18.5563858,14.032871 18.7951605,13.4750773 19.2794874,13.2176648 C19.0059708,11.4742683 17.886183,9.97659829 16.2856163,9.21348592 C16.437222,8.91889131 16.5225855,8.59510875 16.5376095,8.26453829 L16.5376095,8.26453829 Z M14.3290833,7.00674147 C14.8747464,7.065317 15.3059641,7.49327548 15.3657335,8.03555668 C15.425503,8.57783789 15.0977327,9.0884448 14.5777714,9.26305933 C14.0578101,9.43767386 13.4856457,9.22928496 13.2022842,8.76209095 C11.3822132,9.03276105 9.82705821,10.2081539 9.0781994,11.879092 C8.79116761,11.7598248 8.48308229,11.6986717 8.17197975,11.6992128 L8.09822563,11.6992128 C8.9432061,9.60420867 10.8475434,8.11569375 13.0950675,7.79345842 C13.2693594,7.27561007 13.7828746,6.94823083 14.3290833,7.00674147 L14.3290833,7.00674147 Z" id="形状" fill="#E2F5FC"></path>
                    </g>
                    <text id="七牛云" font-family="PingFangSC-Regular, PingFang SC" font-size="14" font-weight="normal" line-spacing="18" fill="#00AAE7">
                        <tspan x="378" y="389">七牛云</tspan>
                    </text>
                    <text id="七牛云边缘节点备份" font-family="PingFangSC-Regular, PingFang SC" font-size="14" font-weight="normal" line-spacing="18" fill="#00AAE7">
                        <tspan x="441" y="349">七牛云边缘节点</tspan>
                    </text>
                    <text id="客户侧边缘节点" font-family="PingFangSC-Regular, PingFang SC" font-size="14" font-weight="normal" line-spacing="18" fill="#00AAE7">
                        <tspan x="662" y="349">客户侧边缘节点</tspan>
                    </text>
                    <text id="中心下载数据" font-family="PingFangSC-Regular, PingFang SC" font-size="14" font-weight="normal" line-spacing="18" fill="#00AAE7">
                        <tspan x="930" y="254">中心下载数据</tspan>
                    </text>
                    <text id="客户" font-family="PingFangSC-Regular, PingFang SC" font-size="14" font-weight="normal" line-spacing="18" fill="#00AAE7">
                        <tspan x="697" y="389">客户</tspan>
                    </text>
                    <text id="家用IPC" font-family="PingFangSC-Regular, PingFang SC" font-size="14" font-weight="normal" line-spacing="18" fill="#00AAE7">
                        <tspan x="257" y="537">家用IPC</tspan>
                    </text>
                    <text id="商用IPC" font-family="PingFangSC-Regular, PingFang SC" font-size="14" font-weight="normal" line-spacing="18" fill="#00AAE7">
                        <tspan x="431" y="537">商用IPC</tspan>
                    </text>
                    <text id="传统摄像头（利旧）" font-family="PingFangSC-Regular, PingFang SC" font-size="14" font-weight="normal" line-spacing="18" fill="#00AAE7">
                        <tspan x="596" y="537">传统摄像头（利旧）</tspan>
                    </text>
                    <text id="访问终端" font-family="PingFangSC-Regular, PingFang SC" font-size="14" font-weight="normal" line-spacing="18" fill="#00AAE7">
                        <tspan x="856" y="537">访问终端</tspan>
                    </text>
                    <text id="融合CDN" font-family="PingFangSC-Regular, PingFang SC" font-size="14" font-weight="normal" line-spacing="18" fill="#00AAE7">
                        <tspan x="916" y="131">融合CDN</tspan>
                    </text>
                    <text id="大数据" font-family="PingFangSC-Regular, PingFang SC" font-size="14" font-weight="normal" line-spacing="18" fill="#00AAE7">
                        <tspan x="257" y="189">大数据</tspan>
                    </text>
                    <text id="智能多媒体" font-family="PingFangSC-Regular, PingFang SC" font-size="14" font-weight="normal" line-spacing="18" fill="#00AAE7">
                        <tspan x="916" y="189">智能多媒体</tspan>
                    </text>
                    <text id="用户" font-family="PingFangSC-Regular, PingFang SC" font-size="14" font-weight="normal" line-spacing="18" fill="#00AAE7">
                        <tspan x="873" y="569">用户</tspan>
                    </text>
                    <text id="中心同步" font-family="PingFangSC-Regular, PingFang SC" font-size="14" font-weight="normal" line-spacing="18" fill="#00AAE7">
                        <tspan x="557" y="148">中心同步</tspan>
                    </text>
                    <rect id="矩形" fill="#00AAE7" opacity="0.854399182" x="0" y="0" width="1081" height="50"></rect>
                    <text id="监控视频边缘存储解决方案" font-family="PingFangSC-Medium, PingFang SC" font-size="18" font-weight="400" fill="#FFFFFF">
                        <tspan x="433" y="32">监控视频边缘存储解决方案</tspan>
                    </text>
                    <path d="M30,78 L72,78 C73.1045695,78 74,78.8954305 74,80 L74,226 C74,227.104569 73.1045695,228 72,228 L30,228 C28.8954305,228 28,227.104569 28,226 L28,80 C28,78.8954305 28.8954305,78 30,78 Z" id="矩形" fill-opacity="0.654392483" fill="#00AAE7"></path>
                    <path d="M30,266 L72,266 C73.1045695,266 74,266.895431 74,268 L74,414 C74,415.104569 73.1045695,416 72,416 L30,416 C28.8954305,416 28,415.104569 28,414 L28,268 C28,266.895431 28.8954305,266 30,266 Z" id="矩形备份-2" fill-opacity="0.654392483" fill="#00AAE7"></path>
                    <path d="M30,454 L72,454 C73.1045695,454 74,454.895431 74,456 L74,602 C74,603.104569 73.1045695,604 72,604 L30,604 C28.8954305,604 28,603.104569 28,602 L28,456 C28,454.895431 28.8954305,454 30,454 Z" id="矩形备份-4" fill-opacity="0.654392483" fill="#00AAE7"></path>
                    <text id="云" font-family="PingFangSC-Medium, PingFang SC" font-size="18" font-weight="400" line-spacing="36" fill="#FFFFFF">
                        <tspan x="42" y="154">云</tspan>
                    </text>
                    <text id="边" font-family="PingFangSC-Medium, PingFang SC" font-size="18" font-weight="400" line-spacing="36" fill="#FFFFFF">
                        <tspan x="42" y="342">边</tspan>
                    </text>
                    <text id="端" font-family="PingFangSC-Medium, PingFang SC" font-size="18" font-weight="400" line-spacing="36" fill="#FFFFFF">
                        <tspan x="42" y="530">端</tspan>
                    </text>
                    <g id="dashuju" transform="translate(225.000000, 169.000000)" fill-rule="nonzero">
                        <path d="M0,13 C0,20.1797017 5.82029825,26 13,26 C20.1797017,26 26,20.1797017 26,13 C26,5.82029825 20.1797017,0 13,0 C5.82029825,0 0,5.82029825 0,13 Z" id="路径" fill="#24B5E9"></path>
                        <polygon id="路径" fill="#E2F5FC" points="8.55345913 18 7 17.5135135 9.33018869 10.5405406 16.6886792 14.1891892 18.4465409 9 20 9.48648649 17.6698113 16.4594594 10.3113208 12.8108108"></polygon>
                        <path d="M17,9 C17,10.1045695 17.8954305,11 19,11 C20.1045695,11 21,10.1045695 21,9 C21,7.8954305 20.1045695,7 19,7 C17.8954305,7 17,7.8954305 17,9 Z" id="路径" fill="#E2F5FC"></path>
                        <path d="M15,15 C15,15.7145312 15.3811978,16.3747852 16,16.7320508 C16.6188021,17.0893164 17.3811979,17.0893164 18,16.7320508 C18.6188022,16.3747852 19,15.7145312 19,15 C19,14.2854688 18.6188022,13.6252148 18,13.2679492 C17.3811979,12.9106836 16.6188021,12.9106836 16,13.2679492 C15.3811978,13.6252148 15,14.2854688 15,15 Z" id="路径" fill="#E2F5FC"></path>
                        <path d="M8,11 C8,12.1045695 8.8954305,13 10,13 C11.1045695,13 12,12.1045695 12,11 C12,9.8954305 11.1045695,9 10,9 C8.8954305,9 8,9.8954305 8,11 Z" id="路径" fill="#E2F5FC"></path>
                        <path d="M5,18 C5,19.1045695 5.8954305,20 7,20 C8.1045695,20 9,19.1045695 9,18 C9,16.8954305 8.1045695,16 7,16 C5.8954305,16 5,16.8954305 5,18 Z" id="路径" fill="#E2F5FC"></path>
                    </g>
                    <g id="rengongzhineng" transform="translate(225.000000, 110.000000)" fill-rule="nonzero">
                        <polygon id="路径" points="0 0 27 0 27 27 0 27"></polygon>
                        <path d="M0.43376543,14.6828194 C0.43376543,14.6828194 -1.2129435,15.7506608 1.91057583,15.9198238 C2.02297024,15.9198238 2.42027145,17.7753304 2.47777557,18.169163 C2.42027145,18.2246696 2.36538115,18.338326 2.36538115,18.507489 C2.36538115,18.845815 2.82018648,19.1259912 3.38738622,19.1259912 L3.72718332,19.1259912 C2.99008504,19.2396476 2.4777756,19.5198238 2.47777557,19.9136564 C2.47777557,20.1938326 2.81757266,20.5321586 3.32988211,20.7568282 C3.32988211,20.7568282 2.70517825,22.7814978 3.6147889,23.230837 C3.78468743,23.2863436 4.01209011,23.3444934 4.23949276,23.2863436 C5.60129492,23.3418502 7.98771595,23.2863436 9.34951811,23.2863436 L10.0317261,27 L22.1258884,27 L20.9339848,18.3938326 C23.0903893,15.3568282 23.8301015,12.6555066 23.8301015,10.4061674 C24,10.1259912 24,9.78766519 24,9.4493392 C23.9947724,4.22114538 19.1696538,0 13.2075219,0 C10.1990108,0 7.5302968,1.06784141 5.54379078,2.75682818 C4.35188718,3.65814976 3.32988211,4.83700439 2.81757266,6.30132158 C2.47777557,7.14449339 2.1928688,8.32599118 2.1928688,9.22731276 C2.1928688,10.3533039 2.76006855,11.5348017 2.25037292,12.6026432 C1.91057583,13.3903084 1.0009652,14.0643172 0.43376543,14.6828194 Z M10.9936132,5.62731277 C12.1280127,5.62731277 13.0951275,6.19030837 13.6623272,7.03348017 L15.4214306,6.02114537 C15.4214306,5.90748899 15.3639265,5.74096916 15.3639265,5.62731277 C15.3639265,4.44581498 16.3284274,3.43348018 17.5778352,3.43348018 C18.7697388,3.43348018 19.7917438,4.39030837 19.7917438,5.62731277 C19.7917438,6.86431718 18.8272429,7.82114536 17.6353393,7.82114536 C16.7832327,7.82114536 15.9886303,7.31365638 15.6488332,6.58414096 L14.0021243,7.54096915 C14.229527,7.99030836 14.3419214,8.44229073 14.3419214,8.94713655 C14.3419214,9.62114536 14.1145187,10.2396476 13.7747216,10.7471366 L16.8407368,12.49163 C17.0106354,12.322467 17.2955422,12.153304 17.5778352,12.153304 C18.202539,12.153304 18.6573443,12.6607929 18.6573443,13.2211454 C18.6573443,13.8396476 18.1476487,14.2889868 17.5778352,14.2889868 C16.9531313,14.2889868 16.498326,13.7814978 16.498326,13.2211454 C16.498326,13.107489 16.5558301,12.9964758 16.5558301,12.9409692 L13.3774205,11.1409692 C12.7527166,11.7594714 11.9581142,12.153304 10.9936132,12.153304 C9.17700573,12.153304 7.70019536,10.69163 7.70019536,8.89162996 C7.70019536,7.08898681 9.17700576,5.62731277 10.9936132,5.62731277 Z" id="形状" fill="#24B5E9"></path>
                    </g>
                    <g id="shexiangtou-2" transform="translate(272.000000, 490.000000)" fill="#24B5E9" fill-rule="nonzero">
                        <path d="M7,3 C4.790861,3 3,4.790861 3,7 C3,9.209139 4.790861,11 7,11 C9.209139,11 11,9.209139 11,7 C10.9975926,4.79185897 9.20814103,3.00240745 7,3 Z" id="路径"></path>
                        <path d="M7.72791751,0 L7.2718097,0 C3.25576955,0 0,3.32742552 0,7.43185439 L0,16.106022 C0,19.9954994 2.92378198,23.1874303 6.64766217,23.5102756 L6.64766217,26.2578063 L3.2737738,26.2578063 C2.80304064,26.2578063 2.42143603,26.6478096 2.42143603,27.1289031 C2.42143603,27.6099966 2.80304064,28 3.2737738,28 L11.7259534,28 C12.1966866,28 12.5782912,27.6099966 12.5782912,27.1289031 C12.5782912,26.6478096 12.1966866,26.2578063 11.7259534,26.2578063 L8.35233783,26.2578063 L8.35233783,23.5102756 C12.076218,23.1865939 15,19.9954994 15,16.106022 L15,7.43185439 C14.9997272,3.32714673 11.7428665,0 7.72791751,0 Z M7.4998636,20.1226302 C6.71538363,20.1226302 6.07943696,19.4726871 6.07943696,18.6709415 C6.07943696,17.869196 6.71538363,17.2192528 7.4998636,17.2192528 C8.28434358,17.2192528 8.92029025,17.869196 8.92029025,18.6709415 C8.92029025,19.4726871 8.28434358,20.1226302 7.4998636,20.1226302 L7.4998636,20.1226302 Z M7.4998636,12.8181854 C4.63173114,12.8181854 2.2982705,10.4333679 2.2982705,7.50211088 C2.2982705,4.57085391 4.63173114,2.18436355 7.4998636,2.18436355 C10.3679961,2.18436355 12.7014567,4.56918114 12.7014567,7.50043811 C12.7014567,10.4316951 10.3682689,12.8167915 7.4998636,12.8167915 L7.4998636,12.8181854 Z" id="形状"></path>
                    </g>
                    <g id="shexiangtou" transform="translate(441.000000, 491.000000)" fill-rule="nonzero">
                        <path d="M18.1866667,22.9666667 L13.0533333,22.9666667 L13.0533333,21.5222222 C18.1866666,20.5111111 22,16.1777778 22,10.8333333 C22,6.35555555 19.2133333,2.45555555 15.4,0.866666658 C14.08,0.288888869 12.6133333,0 11,0 C9.38666666,0 7.91999999,0.288888895 6.59999999,0.866666658 C2.64,2.6 0,6.35555555 0,10.8333333 C0,16.1777778 3.81333333,20.6555556 8.94666668,21.5222222 L8.94666668,22.9666667 L3.81333333,22.9666667 C2.78666667,22.9666667 2.78666667,23.9777778 2.78666667,23.9777778 L2.78666667,26 L19.2133333,26 L19.2133333,23.9777778 C19.2133333,23.4 18.7733333,22.9666667 18.1866667,22.9666667 Z" id="路径" fill="#24B5E9"></path>
                        <path d="M5,10.5 C5,7.52702702 7.52702702,5 10.5,5 C13.472973,5 16,7.52702702 16,10.5 C16,13.472973 13.472973,16 10.5,16 C7.52702702,16 5,13.6216216 5,10.5 Z" id="路径" fill="#E2F5FC"></path>
                        <path d="M14,10 C14,8.35 12.65,7 11,7 C10.4,7 9.95000001,7.15 9.5,7.45000001 L9.95000001,7.45000001 C10.7,7.45000001 11.45,8.05000002 11.45,8.94999999 C11.45,9.69999998 10.85,10.45 9.95000001,10.45 C9.20000002,10.45 8.45000001,9.84999998 8.45000001,8.94999999 L8.45000001,8.5 C8.15,8.95000002 8,9.55 8,10 C8,11.65 9.35,13 11,13 C12.65,13 14,11.65 14,10 L14,10 Z" id="路径" fill="#24B5E9"></path>
                    </g>
                    <g id="shexiangtou-3" transform="translate(642.000000, 491.000000)" fill="#24B5E9" fill-rule="nonzero">
                        <path d="M2.63900001,18.5726667 L2.63900001,14.9355556 L0,14.4444445 L0,26 L2.63900001,25.0091112 L2.63900001,21.0484445 L6.83530004,21.0484445 L8.70000002,18.0757778 L6.3684,16.5908889 L5.28090002,18.5726667 L2.64190001,18.5726667 L2.63900001,18.5726667 Z M29,14.7044445 L6.17410003,0 L3.55540001,0 L0,5.51777779 L0,7.35222226 L20.3928,20.2222223 L22.0748,20.0373334 L29,14.7073334 L29,14.7044445 Z M0,8.66666668 L0,11.3851112 L19.633,23.1111112 L21.4165,23.1111112 L22.3068,22.2617778 L23.2,19.7137778 C23.2,19.7137778 20.7002001,21.4124445 20.5233,21.4124445 C19.6301,20.7306667 0,8.66666668 0,8.66666668 Z" id="形状"></path>
                        <g id="zhongduanjianshe" transform="translate(225.000000, 2.000000)">
                            <path d="M30.0695441,22.8331108 L23.6898227,22.8331108 L22.8852864,21.7716821 C22.890434,21.4858096 22.7656048,21.2102936 22.5393383,21.008125 C22.3130718,20.8059565 22.0047151,20.6944219 21.6847674,20.6990213 L18.6991835,20.6990213 C18.3814399,20.6944861 18.075044,20.8044921 17.8491571,21.004208 C17.6232703,21.203924 17.4969336,21.4765148 17.4986645,21.76045 L16.6941282,22.8331108 L15.0850556,22.8331108 L15.0850556,24.4168299 L30.1323985,24.4168299 C30.622902,24.4045811 31.0103476,24.0408395 30.9997892,23.6025062 C31.000567,23.3872813 30.9004158,23.1816043 30.7236451,23.0353993 C30.5468745,22.8891942 30.3096468,22.8158287 30.0695441,22.8331108 L30.0695441,22.8331108 Z M10.8800963,11.0000718 L2.16219131,11.0000718 C1.59048346,10.9956518 1.04046108,11.1954312 0.634420282,11.5550638 C0.228379484,11.9146963 0,12.4043712 0,12.9152106 L0,26.0904053 C0.00165133479,26.6002705 0.230790382,27.0884982 0.636648039,27.4469144 C1.0425057,27.8053305 1.59157129,28.0043416 2.16219131,27.9999281 L10.8800963,27.9999281 C11.4507164,28.0043416 11.999782,27.8053305 12.4056396,27.4469144 C12.8114973,27.0884982 13.0406363,26.6002705 13.0422876,26.0904053 L13.0422876,12.9152106 C13.0353642,11.8535409 12.0683292,10.9970327 10.8800963,11.0000718 Z M5.08492083,12.4771606 C5.11124684,12.4396917 5.15516569,12.4149077 5.20434419,12.4097683 L7.83794346,12.4097683 C7.91124737,12.4235798 7.96210041,12.4833654 7.95736682,12.5501689 C7.95736682,12.6007132 7.90079786,12.6344093 7.83794346,12.6568734 L5.20434419,12.6568734 C5.15678014,12.6630313 5.10971926,12.6431135 5.08492083,12.6063292 C5.06353013,12.5903234 5.05117228,12.5666743 5.05117228,12.5417449 C5.05117228,12.5168155 5.06353013,12.4931664 5.08492083,12.4771606 L5.08492083,12.4771606 Z M6.51800111,26.904729 C6.19600626,26.9016352 5.93745343,26.6664458 5.93975558,26.3787349 C5.94205772,26.091024 6.20434772,25.8591616 6.52635916,25.8601784 C6.84837061,25.861202 7.1088138,26.0947204 7.10883243,26.3824386 C7.10543093,26.6696233 6.84570283,26.9016897 6.52428654,26.904729 L6.51800111,26.904729 Z M10.8800963,25.0963689 L2.14333499,25.0963689 L2.14333499,13.903631 L10.86124,13.903631 L10.8800963,25.0963689 Z" id="形状"></path>
                            <path d="M30.4969379,0 L9.50306213,0 C8.57886116,-0.00444580888 7.69057365,0.32870909 7.03361926,0.926216772 C6.37666488,1.52372445 6.00485993,2.33663837 6,3.18612072 L6,7.16590107 L12.6631671,7.16590107 C13.2846894,7.16290813 13.8819612,7.38736447 14.3231699,7.78973462 C14.7643787,8.19210477 15.0132546,8.73931167 15.0148732,9.31059176 L15.0148732,17 L30.4969379,17 C31.4211388,17.0044458 32.3094264,16.6712909 32.9663807,16.0737832 C33.6233351,15.4762755 33.9951401,14.6633616 34,13.8138793 L34,3.18612072 C33.9951401,2.33663837 33.6233351,1.52372445 32.9663807,0.926216772 C32.3094264,0.32870909 31.4211388,-0.00444580888 30.4969379,0 Z" id="路径"></path>
                        </g>
                    </g>
                    <path id="路径-3备份" d="M1025.5647,228.999854 L1026.5647,229.000146 L1026.502,442.007 L1030.50248,442.008006 L1025.99985,451.006691 L1021.50248,442.005377 L1025.502,442.006 L1025.5647,228.999854 Z" fill="#20B4E9" fill-rule="nonzero"></path>
                    <text id="边缘下载数据" font-family="PingFangSC-Regular, PingFang SC" font-size="14" font-weight="normal" line-spacing="18" fill="#00AAE7">
                        <tspan x="748" y="442">边缘下载数据</tspan>
                    </text>
                    <path id="路径-3备份" d="M845.5647,416.999035 L846.564698,417.000965 L846.516,442.007 L850.516404,442.015396 L845.999035,451.00669 L841.516421,441.998018 L845.516,442.006 L845.5647,416.999035 Z" fill="#20B4E9" fill-rule="nonzero"></path>
                    <text id="终端上传数据" font-family="PingFangSC-Regular, PingFang SC" font-size="14" font-weight="normal" line-spacing="18" fill="#00AAE7">
                        <tspan x="355" y="442">终端上传数据</tspan>
                    </text>
                    <path id="路径-3备份" d="M452.5647,417.999035 L453.564698,418.000965 L453.516,443.007 L457.516404,443.015396 L452.999035,452.00669 L448.516421,442.998018 L452.516,443.006 L452.5647,417.999035 Z" fill="#20B4E9" fill-rule="nonzero"></path>
                    <text id="边缘上传数据" font-family="PingFangSC-Regular, PingFang SC" font-size="14" font-weight="normal" line-spacing="18" fill="#00AAE7">
                        <tspan x="385" y="256">边缘上传数据</tspan>
                    </text>
                    <path id="路径-3备份" d="M482.5647,230.999035 L483.564698,231.000965 L483.516,256.007 L487.516404,256.015396 L482.999035,265.00669 L478.516421,255.998018 L482.516,256.006 L482.5647,230.999035 Z" fill="#20B4E9" fill-rule="nonzero"></path>
                </g>
            </g>
        </g>
    </g>
</svg>