<svg xmlns="http://www.w3.org/2000/svg" xmlns:xlink="http://www.w3.org/1999/xlink" width="36" height="36" viewBox="0 0 36 36">
  <defs>
    <path id="返佣比例-b" d="M18,2 C10.2801667,2 4,8.28016667 4,16 C4,23.7198333 10.2801667,30 18,30 C25.7198333,30 32,23.7198333 32,16 C32,8.28016667 25.7198333,2 18,2 Z M22.6666667,14.8333333 L22.6666667,17.1666667 L19.1666667,17.1666667 L19.1666667,18.3333333 L22.6666667,18.3333333 L22.6666667,20.6666667 L19.1666667,20.6666667 L19.1666667,24.1666667 L16.8333333,24.1666667 L16.8333333,20.6666667 L13.3333333,20.6666667 L13.3333333,18.3333333 L16.8333333,18.3333333 L16.8333333,17.1666667 L13.3333333,17.1666667 L13.3333333,14.8333333 L15.5733333,14.8333333 L11.6941667,9.98466667 L13.5165,8.52633333 L18,14.1321667 L22.4846667,8.52633333 L24.307,9.98466667 L20.4266667,14.8333333 L22.6666667,14.8333333 Z"/>
    <filter id="返佣比例-a" width="150%" height="150%" x="-25%" y="-17.9%" filterUnits="objectBoundingBox">
      <feOffset dy="2" in="SourceAlpha" result="shadowOffsetOuter1"/>
      <feGaussianBlur in="shadowOffsetOuter1" result="shadowBlurOuter1" stdDeviation="2"/>
      <feColorMatrix in="shadowBlurOuter1" values="0 0 0 0 0   0 0 0 0 0.666666667   0 0 0 0 0.905882353  0 0 0 0.3 0"/>
    </filter>
  </defs>
  <g fill="none">
    <use fill="#000" filter="url(#返佣比例-a)" xlink:href="#返佣比例-b"/>
    <use fill="#00AAE7" xlink:href="#返佣比例-b"/>
  </g>
</svg>
