<svg xmlns="http://www.w3.org/2000/svg" width="36" height="36" viewBox="0 0 36 36">
  <defs>
    <filter id="关联期-a" width="166.7%" height="166.7%" x="-33.3%" y="-33.3%" filterUnits="objectBoundingBox">
      <feOffset dy="2" in="SourceAlpha" result="shadowOffsetOuter1"/>
      <feGaussianBlur in="shadowOffsetOuter1" result="shadowBlurOuter1" stdDeviation="2"/>
      <feColorMatrix in="shadowBlurOuter1" result="shadowMatrixOuter1" values="0 0 0 0 0   0 0 0 0 0.666666667   0 0 0 0 0.905882353  0 0 0 0.3 0"/>
      <feMerge>
        <feMergeNode in="shadowMatrixOuter1"/>
        <feMergeNode in="SourceGraphic"/>
      </feMerge>
    </filter>
  </defs>
  <g fill="none" fill-rule="evenodd" filter="url(#关联期-a)">
    <rect width="30" height="26" x="3" y="5" fill="#FFF" rx="4"/>
    <path fill="#00AAE7" fill-rule="nonzero" d="M29,5 C31.209139,5 33,6.790861 33,9 L33,9 L33,27 C33,29.209139 31.209139,31 29,31 L29,31 L7,31 C4.790861,31 3,29.209139 3,27 L3,27 L3,9 C3,6.790861 4.790861,5 7,5 L7,5 Z M31,11 L5,11 L5,27 C5,28.1045695 5.8954305,29 7,29 L7,29 L29,29 C30.1045695,29 31,28.1045695 31,27 L31,27 L31,11 Z M13,21 L13,26 L7,26 L7,21 L13,21 Z M21,21 L21,26 L15,26 L15,21 L21,21 Z M13,14 L13,19 L7,19 L7,14 L13,14 Z M21,14 L21,19 L15,19 L15,14 L21,14 Z M29,14 L29,19 L23,19 L23,14 L29,14 Z M10,0 C10.5522847,0 11,0.44771525 11,1 L11,1 L11,4 L9,4 L9,1 C9,0.44771525 9.44771525,0 10,0 Z M26,0 C26.5522847,0 27,0.44771525 27,1 L27,1 L27,4 L25,4 L25,1 C25,0.44771525 25.4477153,0 26,0 Z"/>
  </g>
</svg>
