<svg xmlns="http://www.w3.org/2000/svg" width="120" height="120" viewBox="0 0 120 120">
  <g fill="none" fill-rule="evenodd" transform="translate(-124)">
    <rect width="376" height="276"/>
    <circle cx="184" cy="60" r="60"/>
    <g stroke-linecap="square" stroke-width="2" transform="translate(154 37)">
      <path stroke="#333" d="M6 32L6 4C6 1.791 7.791 0 10 0L50 0C52.209 0 54 1.791 54 4L54 32M38 38L38 41 22 41 22 38 0 38C0 42.418 3.582 46 8 46L52 46C56.418 46 60 42.418 60 38L38 38z"/>
      <polyline stroke="#00AAE7" points="40 19 30 19 30 9"/>
      <circle cx="30" cy="19" r="10" stroke="#00AAE7"/>
    </g>
  </g>
</svg>
