<svg xmlns="http://www.w3.org/2000/svg" width="62" height="60" viewBox="0 0 62 60">
  <g fill="none" fill-rule="evenodd" stroke-width="2" transform="translate(1 1)">
    <line x1="30" x2="30" y1="26" y2="10" stroke="#00AAE7"/>
    <line x1="9.054" x2="25.946" y1="20.081" y2="7.919" stroke="#00AAE7"/>
    <line x1="12.563" x2="6.437" y1="48.211" y2="27.789" stroke="#00AAE7"/>
    <line x1="41" x2="19" y1="53" y2="53" stroke="#00AAE7"/>
    <line x1="34.054" x2="51" y1="7.919" y2="20.12" stroke="#00AAE7"/>
    <line x1="34.762" x2="50.237" y1="29.476" y2="24.524" stroke="#00AAE7"/>
    <line x1="9.763" x2="25.238" y1="24.524" y2="29.476" stroke="#00AAE7"/>
    <line x1="16.938" x2="27.06" y1="48.96" y2="35.042" stroke="#00AAE7"/>
    <line x1="43.061" x2="32.94" y1="48.959" y2="35.042" stroke="#00AAE7"/>
    <circle cx="30" cy="31" r="5" stroke="#333" stroke-linecap="square"/>
    <line x1="53.563" x2="47.437" y1="27.789" y2="48.211" stroke="#00AAE7"/>
    <circle cx="30" cy="5" r="5" stroke="#333" stroke-linecap="square"/>
    <circle cx="55" cy="23" r="5" stroke="#333" stroke-linecap="square"/>
    <circle cx="46" cy="53" r="5" stroke="#333" stroke-linecap="square"/>
    <circle cx="14" cy="53" r="5" stroke="#333" stroke-linecap="square"/>
    <circle cx="5" cy="23" r="5" stroke="#333" stroke-linecap="square"/>
  </g>
</svg>
