<?xml version="1.0" encoding="UTF-8"?>
<svg width="136px" height="136px" viewBox="0 0 136 136" version="1.1" xmlns="http://www.w3.org/2000/svg" xmlns:xlink="http://www.w3.org/1999/xlink">
    <!-- Generator: Sketch 64 (93537) - https://sketch.com -->
    <title>编组 7</title>
    <desc>Created with Sketch.</desc>
    <defs>
        <circle id="path-1" cx="60" cy="60" r="60"></circle>
        <filter x="-11.7%" y="-8.3%" width="123.3%" height="123.3%" filterUnits="objectBoundingBox" id="filter-2">
            <feOffset dx="0" dy="4" in="SourceAlpha" result="shadowOffsetOuter1"></feOffset>
            <feGaussianBlur stdDeviation="4" in="shadowOffsetOuter1" result="shadowBlurOuter1"></feGaussianBlur>
            <feComposite in="shadowBlurOuter1" in2="SourceAlpha" operator="out" result="shadowBlurOuter1"></feComposite>
            <feColorMatrix values="0 0 0 0 0.2   0 0 0 0 0.2   0 0 0 0 0.2  0 0 0 0.08 0" type="matrix" in="shadowBlurOuter1"></feColorMatrix>
        </filter>
    </defs>
    <g id="产品" stroke="none" stroke-width="1" fill="none" fill-rule="evenodd">
        <g id="智能视频-短视频特效SDK✅" transform="translate(-1020.000000, -3397.000000)">
            <g id="客户按钮" transform="translate(0.000000, 3253.000000)">
                <g id="编组-20" transform="translate(472.000000, 148.000000)">
                    <g id="编组-7" transform="translate(556.000000, 0.000000)">
                        <g id="椭圆形">
                            <use fill="black" fill-opacity="1" filter="url(#filter-2)" xlink:href="#path-1"></use>
                            <circle stroke="#EEEEEE" stroke-width="1" stroke-linejoin="square" fill="#FFFFFF" fill-rule="evenodd" cx="60" cy="60" r="59.5"></circle>
                        </g>
                        <g id="mirror" transform="translate(34.000000, 30.000000)" stroke-width="2">
                            <path d="M30,56 L6,56 C2.686,56 0,53.314 0,50 L0,6 C0,2.686 2.686,0 6,0 L36,0 C39.314,0 42,2.686 42,6 L42,24" id="路径" stroke="#333333" stroke-linecap="square"></path>
                            <polyline id="路径" stroke="#333333" points="30 44 8 44 8 8 34 8 34 24"></polyline>
                            <line x1="30" y1="48" x2="52" y2="48" id="路径" stroke="#00AAE7" stroke-linecap="square"></line>
                            <line x1="30" y1="32" x2="52" y2="32" id="路径" stroke="#00AAE7" stroke-linecap="square"></line>
                            <line x1="20" y1="50" x2="24" y2="50" id="路径" stroke="#333333" stroke-linecap="square"></line>
                            <path d="M48,60 L34,60 C31.791,60 30,58.209 30,56 L30,28 C30,25.791 31.791,24 34,24 L48,24 C50.209,24 52,25.791 52,28 L52,56 C52,58.209 50.209,60 48,60 Z" id="路径" stroke="#00AAE7" stroke-linecap="square"></path>
                            <line x1="40" y1="54" x2="42" y2="54" id="路径" stroke="#00AAE7" stroke-linecap="square"></line>
                        </g>
                    </g>
                </g>
            </g>
        </g>
    </g>
</svg>