<?xml version="1.0" encoding="UTF-8"?>
<svg width="54px" height="62px" viewBox="0 0 54 62" version="1.1" xmlns="http://www.w3.org/2000/svg" xmlns:xlink="http://www.w3.org/1999/xlink">
    <title>mirror</title>
    <g id="产品" stroke="none" stroke-width="1" fill="none" fill-rule="evenodd">
        <g id="智能视频-短视频特效SDK✅" transform="translate(-1061.000000, -3430.000000)" stroke-width="2">
            <g id="客户按钮" transform="translate(0.000000, 3253.000000)">
                <g id="编组-20" transform="translate(472.000000, 148.000000)">
                    <g id="编组-7" transform="translate(556.000000, 0.000000)">
                        <g id="mirror" transform="translate(34.000000, 30.000000)">
                            <path d="M30,56 L6,56 C2.686,56 0,53.314 0,50 L0,6 C0,2.686 2.686,0 6,0 L36,0 C39.314,0 42,2.686 42,6 L42,24" id="路径" stroke="#333333" stroke-linecap="square"></path>
                            <polyline id="路径" stroke="#333333" points="30 44 8 44 8 8 34 8 34 24"></polyline>
                            <line x1="30" y1="48" x2="52" y2="48" id="路径" stroke="#00AAE7" stroke-linecap="square"></line>
                            <line x1="30" y1="32" x2="52" y2="32" id="路径" stroke="#00AAE7" stroke-linecap="square"></line>
                            <line x1="20" y1="50" x2="24" y2="50" id="路径" stroke="#333333" stroke-linecap="square"></line>
                            <path d="M48,60 L34,60 C31.791,60 30,58.209 30,56 L30,28 C30,25.791 31.791,24 34,24 L48,24 C50.209,24 52,25.791 52,28 L52,56 C52,58.209 50.209,60 48,60 Z" id="路径" stroke="#00AAE7" stroke-linecap="square"></path>
                            <line x1="40" y1="54" x2="42" y2="54" id="路径" stroke="#00AAE7" stroke-linecap="square"></line>
                        </g>
                    </g>
                </g>
            </g>
        </g>
    </g>
</svg>