<?xml version="1.0" encoding="UTF-8"?>
<svg width="62px" height="62px" viewBox="0 0 62 62" version="1.1" xmlns="http://www.w3.org/2000/svg" xmlns:xlink="http://www.w3.org/1999/xlink">
    <title>wallet-90</title>
    <g id="产品" stroke="none" stroke-width="1" fill="none" fill-rule="evenodd">
        <g id="智能视频-短视频特效SDK✅" transform="translate(-1335.000000, -3430.000000)">
            <g id="客户按钮" transform="translate(0.000000, 3253.000000)">
                <g id="编组-20" transform="translate(472.000000, 148.000000)">
                    <g id="编组-18" transform="translate(834.000000, 0.000000)">
                        <g id="wallet-90" transform="translate(30.000000, 30.000000)">
                            <circle id="椭圆形" fill="#333333" fill-rule="nonzero" cx="46" cy="38" r="2"></circle>
                            <path d="M5,16 C2.239,16 0,13.761 0,11 L0,11 C0,8.239 2.239,6 5,6 L9,6" id="路径" stroke="#333333" stroke-width="2" stroke-linecap="square"></path>
                            <path d="M56,32 L56,16 L5,16 C2.239,16 0,13.761 0,11 L0,52 C0,56.418 3.582,60 8,60 L56,60 L56,44" id="路径" stroke="#333333" stroke-width="2" stroke-linecap="square"></path>
                            <path d="M60,44 L46,44 C42.686,44 40,41.314 40,38 L40,38 C40,34.686 42.686,32 46,32 L60,32 L60,44 Z" id="路径" stroke="#00AAE7" stroke-width="2" stroke-linecap="square"></path>
                            <polyline id="路径" stroke="#00AAE7" stroke-width="2" stroke-linecap="square" points="9 11 9 0 49 0 49 11 9 11"></polyline>
                        </g>
                    </g>
                </g>
            </g>
        </g>
    </g>
</svg>