<?xml version="1.0" encoding="UTF-8"?>
<svg width="136px" height="136px" viewBox="0 0 136 136" version="1.1" xmlns="http://www.w3.org/2000/svg" xmlns:xlink="http://www.w3.org/1999/xlink">
    <!-- Generator: Sketch 64 (93537) - https://sketch.com -->
    <title>编组 6</title>
    <desc>Created with Sketch.</desc>
    <defs>
        <circle id="path-1" cx="60" cy="60" r="60"></circle>
        <filter x="-11.7%" y="-8.3%" width="123.3%" height="123.3%" filterUnits="objectBoundingBox" id="filter-2">
            <feOffset dx="0" dy="4" in="SourceAlpha" result="shadowOffsetOuter1"></feOffset>
            <feGaussianBlur stdDeviation="4" in="shadowOffsetOuter1" result="shadowBlurOuter1"></feGaussianBlur>
            <feComposite in="shadowBlurOuter1" in2="SourceAlpha" operator="out" result="shadowBlurOuter1"></feComposite>
            <feColorMatrix values="0 0 0 0 0.2   0 0 0 0 0.2   0 0 0 0 0.2  0 0 0 0.08 0" type="matrix" in="shadowBlurOuter1"></feColorMatrix>
        </filter>
    </defs>
    <g id="产品" stroke="none" stroke-width="1" fill="none" fill-rule="evenodd">
        <g id="智能视频-短视频特效SDK✅" transform="translate(-742.000000, -3397.000000)">
            <g id="客户按钮" transform="translate(0.000000, 3253.000000)">
                <g id="编组-20" transform="translate(472.000000, 148.000000)">
                    <g id="编组-6" transform="translate(278.000000, 0.000000)">
                        <g id="椭圆形">
                            <use fill="black" fill-opacity="1" filter="url(#filter-2)" xlink:href="#path-1"></use>
                            <circle stroke="#EEEEEE" stroke-width="1" stroke-linejoin="square" fill="#FFFFFF" fill-rule="evenodd" cx="60" cy="60" r="59.5"></circle>
                        </g>
                        <g id="desktop" transform="translate(30.000000, 33.000000)" stroke-linecap="square" stroke-width="2">
                            <path d="M56,44 L4,44 C1.790861,44 0,42.209139 0,40 L0,4 C0,1.790861 1.790861,0 4,0 L56,0 C58.209139,0 60,1.790861 60,4 L60,40 C60,42.209139 58.209139,44 56,44 Z" id="路径" stroke="#333333"></path>
                            <line x1="0" y1="33" x2="60" y2="33" id="路径" stroke="#333333"></line>
                            <line x1="36" y1="49" x2="36" y2="54" id="路径" stroke="#00AAE7"></line>
                            <line x1="24" y1="54" x2="24" y2="49" id="路径" stroke="#00AAE7"></line>
                            <line x1="16" y1="54" x2="44" y2="54" id="路径" stroke="#00AAE7"></line>
                            <line x1="28" y1="7" x2="32" y2="7" id="路径" stroke="#00AAE7"></line>
                        </g>
                    </g>
                </g>
            </g>
        </g>
    </g>
</svg>