<svg xmlns="http://www.w3.org/2000/svg" width="59" height="54" viewBox="0 0 59 54">
  <g fill="none" fill-rule="evenodd" stroke-linecap="square" stroke-width="2" transform="translate(1 1)">
    <polygon stroke="#333" points=".5 52 .5 48 4.5 45 8.5 48 8.5 52"/>
    <polygon stroke="#333" points="24.5 52 24.5 48 28.5 45 32.5 48 32.5 52"/>
    <polygon stroke="#333" points="48.5 52 48.5 48 52.5 45 56.5 48 56.5 52"/>
    <line x1=".5" x2=".5" y1="38" y2="16" stroke="#00AAE7"/>
    <line x1="24.5" x2="24.5" y1="38" y2="18" stroke="#333"/>
    <line x1="48.5" x2="48.5" y1="38" y2="6" stroke="#00AAE7"/>
    <line x1="56.5" x2="56.5" y1="38" stroke="#333"/>
    <line x1="8.5" x2="8.5" y1="38" stroke="#333"/>
    <line x1="16.5" x2="16.5" y1="38" y2="29" stroke="#00AAE7"/>
    <line x1="32.5" x2="32.5" y1="38" stroke="#00AAE7"/>
    <line x1="40.5" x2="40.5" y1="38" y2="18" stroke="#333"/>
  </g>
</svg>
