<svg xmlns="http://www.w3.org/2000/svg" width="708" height="558" viewBox="0 0 708 558">
  <g fill="none" fill-rule="evenodd">
    <g transform="translate(0 158)">
      <rect width="708" height="400" fill="#E2F5FC"/>
      <g transform="translate(16 16)">
        <path stroke="#20B4E9" stroke-dasharray="4 4" d="M0,0 L676,0 L676,116 L0,116 L0,0 Z"/>
        <g transform="translate(18 12)">
          <rect width="148" height="40" fill="#20B4E9"/>
          <text fill="#FFF" font-family="PingFangSC-Regular, PingFang SC" font-size="14">
            <tspan x="53" y="25">多租户</tspan>
          </text>
        </g>
        <g transform="translate(182 12)">
          <rect width="148" height="40" fill="#20B4E9"/>
          <text fill="#FFF" font-family="PingFangSC-Regular, PingFang SC" font-size="14">
            <tspan x="46" y="25">分片上传</tspan>
          </text>
        </g>
        <g transform="translate(346 12)">
          <rect width="148" height="40" fill="#20B4E9"/>
          <text fill="#FFF" font-family="PingFangSC-Regular, PingFang SC" font-size="14">
            <tspan x="46" y="25">断点续传</tspan>
          </text>
        </g>
        <g transform="translate(18 64)">
          <rect width="148" height="40" fill="#20B4E9"/>
          <text fill="#FFF" font-family="PingFangSC-Regular, PingFang SC" font-size="14">
            <tspan x="46" y="25">自动加密</tspan>
          </text>
        </g>
        <g transform="translate(182 64)">
          <rect width="148" height="40" fill="#20B4E9"/>
          <text fill="#FFF" font-family="PingFangSC-Regular, PingFang SC" font-size="14">
            <tspan x="46" y="25">内容通知</tspan>
          </text>
        </g>
        <g transform="translate(346 64)">
          <rect width="148" height="40" fill="#20B4E9"/>
          <path fill="#FFF" fill-rule="nonzero" d="M66.44,21.856 C66.848,21.856 67.208,21.712 67.496,21.448 C67.76,21.184 67.904,20.848 67.904,20.416 C67.904,20.008 67.76,19.672 67.496,19.408 C67.208,19.12 66.872,19 66.44,19 C66.032,19 65.696,19.12 65.432,19.408 C65.144,19.672 65,20.008 65,20.416 C65,20.824 65.144,21.16 65.432,21.448 C65.696,21.712 66.032,21.856 66.44,21.856 Z M74.456,21.856 C74.864,21.856 75.224,21.712 75.512,21.448 C75.776,21.184 75.92,20.848 75.92,20.416 C75.92,20.008 75.776,19.672 75.512,19.408 C75.224,19.12 74.864,19 74.456,19 C74.048,19 73.712,19.12 73.424,19.408 C73.136,19.672 73.016,20.008 73.016,20.416 C73.016,20.824 73.136,21.16 73.424,21.448 C73.712,21.712 74.048,21.856 74.456,21.856 Z M82.448,21.856 C82.856,21.856 83.192,21.712 83.48,21.448 C83.768,21.184 83.912,20.848 83.912,20.416 C83.912,20.008 83.768,19.672 83.48,19.408 C83.192,19.12 82.856,19 82.448,19 C82.04,19 81.704,19.12 81.416,19.408 C81.128,19.672 81.008,20.008 81.008,20.416 C81.008,20.824 81.128,21.16 81.416,21.448 C81.704,21.712 82.04,21.856 82.448,21.856 Z"/>
        </g>
        <g transform="translate(510 12)">
          <rect width="148" height="40" fill="#20B4E9"/>
          <text fill="#FFF" font-family="PingFangSC-Regular, PingFang SC" font-size="14">
            <tspan x="49.248" y="25">管控 API</tspan>
          </text>
        </g>
      </g>
      <g transform="translate(15 296)">
        <path stroke="#20B4E9" stroke-dasharray="4 4" d="M0,0 L677,0 L677,88 L0,88 L0,0 Z"/>
        <g transform="translate(43 17)">
          <rect width="48" height="16" fill="#00AAE6"/>
          <rect width="48" height="16" y="20" fill="#00AAE6"/>
          <rect width="48" height="16" y="40" fill="#00AAE6"/>
          <line x1="8" x2="16" y1="8" y2="8" stroke="#FFF" stroke-linecap="square" stroke-width="4"/>
          <line x1="8" x2="16" y1="28" y2="28" stroke="#FFF" stroke-linecap="square" stroke-width="4"/>
          <line x1="8" x2="16" y1="48" y2="48" stroke="#FFF" stroke-linecap="square" stroke-width="4"/>
        </g>
        <g transform="translate(179 17)">
          <rect width="48" height="16" fill="#00AAE6"/>
          <rect width="48" height="16" y="20" fill="#00AAE6"/>
          <rect width="48" height="16" y="40" fill="#00AAE6"/>
          <line x1="8" x2="16" y1="8" y2="8" stroke="#FFF" stroke-linecap="square" stroke-width="4"/>
          <line x1="8" x2="16" y1="28" y2="28" stroke="#FFF" stroke-linecap="square" stroke-width="4"/>
          <line x1="8" x2="16" y1="48" y2="48" stroke="#FFF" stroke-linecap="square" stroke-width="4"/>
        </g>
        <g transform="translate(315 17)">
          <rect width="48" height="16" fill="#00AAE6"/>
          <rect width="48" height="16" y="20" fill="#00AAE6"/>
          <rect width="48" height="16" y="40" fill="#00AAE6"/>
          <line x1="8" x2="16" y1="8" y2="8" stroke="#FFF" stroke-linecap="square" stroke-width="4"/>
          <line x1="8" x2="16" y1="28" y2="28" stroke="#FFF" stroke-linecap="square" stroke-width="4"/>
          <line x1="8" x2="16" y1="48" y2="48" stroke="#FFF" stroke-linecap="square" stroke-width="4"/>
        </g>
        <g transform="translate(451 17)">
          <rect width="48" height="16" fill="#00AAE6"/>
          <rect width="48" height="16" y="20" fill="#00AAE6"/>
          <rect width="48" height="16" y="40" fill="#00AAE6"/>
          <line x1="8" x2="16" y1="8" y2="8" stroke="#FFF" stroke-linecap="square" stroke-width="4"/>
          <line x1="8" x2="16" y1="28" y2="28" stroke="#FFF" stroke-linecap="square" stroke-width="4"/>
          <line x1="8" x2="16" y1="48" y2="48" stroke="#FFF" stroke-linecap="square" stroke-width="4"/>
        </g>
        <g transform="translate(587 17)">
          <rect width="48" height="16" fill="#00AAE6"/>
          <rect width="48" height="16" y="20" fill="#00AAE6"/>
          <rect width="48" height="16" y="40" fill="#00AAE6"/>
          <line x1="8" x2="16" y1="8" y2="8" stroke="#FFF" stroke-linecap="square" stroke-width="4"/>
          <line x1="8" x2="16" y1="28" y2="28" stroke="#FFF" stroke-linecap="square" stroke-width="4"/>
          <line x1="8" x2="16" y1="48" y2="48" stroke="#FFF" stroke-linecap="square" stroke-width="4"/>
        </g>
      </g>
      <g transform="translate(15 153)">
        <path stroke="#20B4E9" stroke-dasharray="4 4" d="M0,43 L677,43 L677,131 L0,131 L0,43 Z"/>
        <path fill="#00AAE6" fill-rule="nonzero" d="M90 67.1290323C90 61.8487742 77.6307692 59 66 59 54.3692308 59 42 61.8487742 42 67.1290323 42.0022357 67.3333876 42.0232433 67.5371324 42.0627692 67.7378065L42.0627692 67.7378065 48.5076923 109.03871C49.0403077 112.952387 57.7107692 115 66 115 74.2892308 115 82.9578462 112.952387 83.4895385 109.057677L89.9409231 67.7387097 89.9409231 67.7387097C89.9792651 67.5376292 89.9990371 67.3335806 90 67.1290323zM66 60.8064516C79.056 60.8064516 88.1538462 64.1384516 88.1538462 67.1290323 88.1538462 70.1196129 79.056 73.4516129 66 73.4516129 52.944 73.4516129 43.8461538 70.1196129 43.8461538 67.1290323 43.8461538 64.1384516 52.944 60.8064516 66 60.8064516zM227 67.1290323C227 61.8487742 214.630769 59 203 59 191.369231 59 179 61.8487742 179 67.1290323 179.002236 67.3333876 179.023243 67.5371324 179.062769 67.7378065L179.062769 67.7378065 185.507692 109.03871C186.040308 112.952387 194.710769 115 203 115 211.289231 115 219.957846 112.952387 220.489538 109.057677L226.940923 67.7387097 226.940923 67.7387097C226.979265 67.5376292 226.999037 67.3335806 227 67.1290323zM203 60.8064516C216.056 60.8064516 225.153846 64.1384516 225.153846 67.1290323 225.153846 70.1196129 216.056 73.4516129 203 73.4516129 189.944 73.4516129 180.846154 70.1196129 180.846154 67.1290323 180.846154 64.1384516 189.944 60.8064516 203 60.8064516zM363 67.1290323C363 61.8487742 350.630769 59 339 59 327.369231 59 315 61.8487742 315 67.1290323 315.002236 67.3333876 315.023243 67.5371324 315.062769 67.7378065L315.062769 67.7378065 321.507692 109.03871C322.040308 112.952387 330.710769 115 339 115 347.289231 115 355.957846 112.952387 356.489538 109.057677L362.940923 67.7387097 362.940923 67.7387097C362.979265 67.5376292 362.999037 67.3335806 363 67.1290323zM339 60.8064516C352.056 60.8064516 361.153846 64.1384516 361.153846 67.1290323 361.153846 70.1196129 352.056 73.4516129 339 73.4516129 325.944 73.4516129 316.846154 70.1196129 316.846154 67.1290323 316.846154 64.1384516 325.944 60.8064516 339 60.8064516zM499 67.1290323C499 61.8487742 486.630769 59 475 59 463.369231 59 451 61.8487742 451 67.1290323 451.002236 67.3333876 451.023243 67.5371324 451.062769 67.7378065L451.062769 67.7378065 457.507692 109.03871C458.040308 112.952387 466.710769 115 475 115 483.289231 115 491.957846 112.952387 492.489538 109.057677L498.940923 67.7387097 498.940923 67.7387097C498.979265 67.5376292 498.999037 67.3335806 499 67.1290323zM475 60.8064516C488.056 60.8064516 497.153846 64.1384516 497.153846 67.1290323 497.153846 70.1196129 488.056 73.4516129 475 73.4516129 461.944 73.4516129 452.846154 70.1196129 452.846154 67.1290323 452.846154 64.1384516 461.944 60.8064516 475 60.8064516zM635 67.1290323C635 61.8487742 622.630769 59 611 59 599.369231 59 587 61.8487742 587 67.1290323 587.002236 67.3333876 587.023243 67.5371324 587.062769 67.7378065L587.062769 67.7378065 593.507692 109.03871C594.040308 112.952387 602.710769 115 611 115 619.289231 115 627.957846 112.952387 628.489538 109.057677L634.940923 67.7387097 634.940923 67.7387097C634.979265 67.5376292 634.999037 67.3335806 635 67.1290323zM611 60.8064516C624.056 60.8064516 633.153846 64.1384516 633.153846 67.1290323 633.153846 70.1196129 624.056 73.4516129 611 73.4516129 597.944 73.4516129 588.846154 70.1196129 588.846154 67.1290323 588.846154 64.1384516 597.944 60.8064516 611 60.8064516z"/>
        <text fill="#20B4E9" font-family="PingFangSC-Semibold, PingFang SC" font-size="20" font-weight="500">
          <tspan x="239" y="21">七牛云存储一体机集群</tspan>
        </text>
      </g>
    </g>
    <text fill="#43C0C3" font-family="PingFangSC-Semibold, PingFang SC" font-size="20" font-weight="500">
      <tspan x="304" y="34">大数据应用</tspan>
    </text>
    <rect width="708" height="110" fill="#E2F2F3"/>
    <text fill="#43C0C3" font-family="PingFangSC-Semibold, PingFang SC" font-size="20" font-weight="500">
      <tspan x="294" y="34">网盘类应用</tspan>
    </text>
    <g transform="translate(137 54)">
      <rect width="134" height="40" fill="#43C0C3"/>
      <text fill="#FFF" font-family="PingFangSC-Regular, PingFang SC" font-size="14">
        <tspan x="25" y="25">移动终端 App</tspan>
      </text>
      <g transform="translate(150)">
        <rect width="134" height="40" fill="#43C0C3"/>
        <text fill="#FFF" font-family="PingFangSC-Regular, PingFang SC" font-size="14">
          <tspan x="32" y="25">Web 浏览器</tspan>
        </text>
      </g>
      <g transform="translate(300)">
        <rect width="134" height="40" fill="#43C0C3"/>
        <text fill="#FFF" font-family="PingFangSC-Regular, PingFang SC" font-size="14">
          <tspan x="39" y="25">业务系统</tspan>
        </text>
      </g>
    </g>
    <path fill="#43C0C3" fill-rule="nonzero" d="M6 0L14 0 14 14 20 14 10 28 0 14 6 14 6 0zM262 0L270 0 270 14 276 14 266 28 256 14 262 14 262 0zM517 0L525 0 525 14 531 14 521 28 511 14 517 14 517 0z" transform="translate(88 118)"/>
  </g>
</svg>
