<?xml version="1.0" encoding="UTF-8"?>
<svg width="520px" height="350px" viewBox="0 0 520 350" version="1.1" xmlns="http://www.w3.org/2000/svg" xmlns:xlink="http://www.w3.org/1999/xlink">
    <title>插画</title>
    <defs>
        <filter x="-55.0%" y="-254.8%" width="210.0%" height="609.5%" filterUnits="objectBoundingBox" id="filter-1">
            <feGaussianBlur stdDeviation="50" in="SourceGraphic"></feGaussianBlur>
        </filter>
        <linearGradient x1="50%" y1="0%" x2="50%" y2="100%" id="linearGradient-2">
            <stop stop-color="#7AE9FF" stop-opacity="0" offset="0%"></stop>
            <stop stop-color="#44CFFF" offset="100%"></stop>
        </linearGradient>
        <linearGradient x1="50%" y1="0%" x2="50%" y2="100%" id="linearGradient-3">
            <stop stop-color="#7AE9FF" stop-opacity="0" offset="0%"></stop>
            <stop stop-color="#56D3FF" stop-opacity="0.500027316" offset="100%"></stop>
        </linearGradient>
        <filter x="-18.8%" y="-100.0%" width="137.5%" height="300.0%" filterUnits="objectBoundingBox" id="filter-4">
            <feGaussianBlur stdDeviation="10" in="SourceGraphic"></feGaussianBlur>
        </filter>
        <linearGradient x1="50%" y1="0%" x2="50%" y2="100%" id="linearGradient-5">
            <stop stop-color="#5BC0FF" offset="0%"></stop>
            <stop stop-color="#2FA2ED" offset="100%"></stop>
        </linearGradient>
        <circle id="path-6" cx="80" cy="53" r="18"></circle>
        <filter x="-5.6%" y="-5.6%" width="111.1%" height="111.1%" filterUnits="objectBoundingBox" id="filter-7">
            <feGaussianBlur stdDeviation="1.5" in="SourceAlpha" result="shadowBlurInner1"></feGaussianBlur>
            <feOffset dx="0" dy="1" in="shadowBlurInner1" result="shadowOffsetInner1"></feOffset>
            <feComposite in="shadowOffsetInner1" in2="SourceAlpha" operator="arithmetic" k2="-1" k3="1" result="shadowInnerInner1"></feComposite>
            <feColorMatrix values="0 0 0 0 0.0148157394   0 0 0 0 0.513447758   0 0 0 0 0.692368659  0 0 0 0.4 0" type="matrix" in="shadowInnerInner1"></feColorMatrix>
        </filter>
        <linearGradient x1="50%" y1="0%" x2="50%" y2="100%" id="linearGradient-8">
            <stop stop-color="#00D4F5" stop-opacity="0" offset="0%"></stop>
            <stop stop-color="#00BCED" offset="48.7070261%"></stop>
            <stop stop-color="#00AAE7" stop-opacity="0" offset="100%"></stop>
        </linearGradient>
        <linearGradient x1="50%" y1="0%" x2="50%" y2="100%" id="linearGradient-9">
            <stop stop-color="#00D4F5" stop-opacity="0" offset="0%"></stop>
            <stop stop-color="#00BCED" offset="48.7070261%"></stop>
            <stop stop-color="#00AAE7" stop-opacity="0" offset="100%"></stop>
        </linearGradient>
        <linearGradient x1="55.4089177%" y1="0%" x2="53.6202829%" y2="100%" id="linearGradient-10">
            <stop stop-color="#E7F9FF" offset="0%"></stop>
            <stop stop-color="#BBE4FC" offset="100%"></stop>
        </linearGradient>
        <circle id="path-11" cx="32" cy="32" r="32"></circle>
        <filter x="-21.9%" y="-15.6%" width="143.8%" height="143.8%" filterUnits="objectBoundingBox" id="filter-12">
            <feOffset dx="0" dy="4" in="SourceAlpha" result="shadowOffsetOuter1"></feOffset>
            <feGaussianBlur stdDeviation="4" in="shadowOffsetOuter1" result="shadowBlurOuter1"></feGaussianBlur>
            <feColorMatrix values="0 0 0 0 0.203921569   0 0 0 0 0.631372549   0 0 0 0 0.925490196  0 0 0 0.2 0" type="matrix" in="shadowBlurOuter1"></feColorMatrix>
        </filter>
        <linearGradient x1="0%" y1="50%" x2="100%" y2="50%" id="linearGradient-13">
            <stop stop-color="#8AD7F5" stop-opacity="0.8" offset="0%"></stop>
            <stop stop-color="#59B4EC" offset="100%"></stop>
        </linearGradient>
        <linearGradient x1="0%" y1="45.9000079%" x2="100%" y2="45.9000079%" id="linearGradient-14">
            <stop stop-color="#52AEE8" stop-opacity="0" offset="0%"></stop>
            <stop stop-color="#52AEE8" offset="100%"></stop>
        </linearGradient>
        <circle id="path-15" cx="25" cy="25" r="25"></circle>
        <filter x="-28.0%" y="-20.0%" width="156.0%" height="156.0%" filterUnits="objectBoundingBox" id="filter-16">
            <feOffset dx="0" dy="4" in="SourceAlpha" result="shadowOffsetOuter1"></feOffset>
            <feGaussianBlur stdDeviation="4" in="shadowOffsetOuter1" result="shadowBlurOuter1"></feGaussianBlur>
            <feColorMatrix values="0 0 0 0 0.203921569   0 0 0 0 0.631372549   0 0 0 0 0.925490196  0 0 0 0.2 0" type="matrix" in="shadowBlurOuter1"></feColorMatrix>
        </filter>
        <linearGradient x1="80.8632434%" y1="100%" x2="80.8632434%" y2="0%" id="linearGradient-17">
            <stop stop-color="#5AB4EC" offset="0%"></stop>
            <stop stop-color="#5AB4EC" stop-opacity="0.5" offset="100%"></stop>
        </linearGradient>
    </defs>
    <g id="解决方案" stroke="none" stroke-width="1" fill="none" fill-rule="evenodd">
        <g id="场景解决方案-智能视频云解决方案✅" transform="translate(-1028.000000, -120.000000)">
            <g id="banner" transform="translate(0.000000, 120.000000)">
                <g id="编组-35">
                    <g id="插画" transform="translate(1131.000000, 21.000000)">
                        <g id="编组-22" transform="translate(4.000000, 164.000000)">
                            <ellipse id="椭圆形" fill="#00BDFF" filter="url(#filter-1)" cx="149.36" cy="49.12" rx="136.32" ry="29.44"></ellipse>
                            <ellipse id="椭圆形" fill="url(#linearGradient-2)" cx="150" cy="29.44" rx="150" ry="29.44"></ellipse>
                            <ellipse id="椭圆形" fill="url(#linearGradient-3)" cx="150" cy="52.44" rx="150" ry="29.44"></ellipse>
                            <ellipse id="椭圆形" fill-opacity="0.5" fill="#0784DA" filter="url(#filter-4)" cx="150" cy="26" rx="80" ry="15"></ellipse>
                        </g>
                        <g id="编组-22备份" transform="translate(74.000000, 83.000000)">
                            <path d="M17,0 L143,0 C145.209139,-4.05812251e-16 147,1.790861 147,4 L147,93 L147,93 L13,93 L13,4 C13,1.790861 14.790861,4.05812251e-16 17,0 Z" id="矩形" fill="#ACE3FF"></path>
                            <rect id="矩形" fill="#D6F4FF" x="19" y="8" width="122" height="94"></rect>
                            <path d="M160,93 L160,101 C160,105.418278 156.418278,109 152,109 L8,109 C3.581722,109 5.41083001e-16,105.418278 0,101 L0,93 L58,93 C58,95.209139 59.790861,97 62,97 L62,97 L98,97 C100.209139,97 102,95.209139 102,93 L102,93 L160,93 Z" id="形状结合" fill="#92DAFF"></path>
                            <g id="椭圆形">
                                <use fill="url(#linearGradient-5)" fill-rule="evenodd" xlink:href="#path-6"></use>
                                <use fill="black" fill-opacity="1" filter="url(#filter-7)" xlink:href="#path-6"></use>
                            </g>
                            <path d="M82.3384436,49.2899133 L86.9957576,56.4550116 C87.2967463,56.9180713 87.1653619,57.5374549 86.7023023,57.8384436 C86.540092,57.9438803 86.3507799,58 86.157314,58 L76.842686,58 C76.2904013,58 75.842686,57.5522847 75.842686,57 C75.842686,56.8065341 75.8988058,56.6172219 76.0042424,56.4550116 L80.6615564,49.2899133 C80.9625451,48.8268536 81.5819287,48.6954692 82.0449884,48.996458 C82.1622516,49.0726791 82.2622225,49.17265 82.3384436,49.2899133 Z" id="三角形" fill="#DDF3FF" transform="translate(81.500000, 53.000000) rotate(90.000000) translate(-81.500000, -53.000000) "></path>
                        </g>
                        <g id="编组-21" fill-rule="nonzero">
                            <polygon id="路径" fill="url(#linearGradient-8)" points="4 96 4 126 0 126 0 96"></polygon>
                            <path d="M27,33 L27,60 L27,60 L24,60 L24,30 C25.6568542,30 27,31.3431458 27,33 Z" id="路径" fill="url(#linearGradient-9)"></path>
                            <path d="M275,37 L275,63 L275,63 L271,63 L271,33 C273.209139,33 275,34.790861 275,37 Z" id="路径" fill="url(#linearGradient-8)"></path>
                            <path d="M298,109 L298,135 L298,135 L294,135 L294,105 C296.209139,105 298,106.790861 298,109 Z" id="路径" fill="url(#linearGradient-8)" opacity="0.300000012"></path>
                            <path d="M228,4 L228,30 L228,30 L224,30 L224,0 C226.209139,-4.05812251e-16 228,1.790861 228,4 Z" id="路径" fill="url(#linearGradient-8)" opacity="0.400000006"></path>
                            <path d="M312,166 L312,193 L312,193 L309,193 L309,163 C310.656854,163 312,164.343146 312,166 Z" id="路径" fill="url(#linearGradient-9)" opacity="0.449999988"></path>
                        </g>
                        <g id="编组-26" transform="translate(15.000000, 58.000000)">
                            <g id="椭圆形">
                                <use fill="black" fill-opacity="1" filter="url(#filter-12)" xlink:href="#path-11"></use>
                                <use fill="url(#linearGradient-10)" fill-rule="evenodd" xlink:href="#path-11"></use>
                            </g>
                            <g id="短视频SDK备份-2" transform="translate(15.000000, 21.000000)">
                                <rect id="形状结合" fill="url(#linearGradient-13)" x="0" y="0" width="26" height="22"></rect>
                                <circle id="椭圆形" fill="#FFFFFF" cx="5.57142857" cy="6.57142857" r="2.57142857"></circle>
                                <polygon id="矩形备份-16" fill="url(#linearGradient-14)" points="24 5 34 2 34 20 24 17"></polygon>
                            </g>
                        </g>
                        <g id="编组-26备份" transform="translate(234.000000, 122.000000)">
                            <g id="椭圆形">
                                <use fill="black" fill-opacity="1" filter="url(#filter-16)" xlink:href="#path-15"></use>
                                <use fill="url(#linearGradient-10)" fill-rule="evenodd" xlink:href="#path-15"></use>
                            </g>
                            <g id="chart-bar-52" transform="translate(13.000000, 13.000000)" fill="url(#linearGradient-17)">
                                <path d="M6,16 L6,24 L0,24 L0,16 L6,16 Z M14,6 L14,24 L8,24 L8,6 L14,6 Z M23,0 L23,24 L17,24 L17,0 L23,0 Z" id="形状结合"></path>
                            </g>
                        </g>
                    </g>
                </g>
            </g>
        </g>
    </g>
</svg>