<svg xmlns="http://www.w3.org/2000/svg" width="54" height="62" viewBox="0 0 54 62">
  <g fill="none" fill-rule="evenodd" transform="translate(1 1)">
    <circle cx="42" cy="53" r="2" fill="#00AAE7" fill-rule="nonzero"/>
    <rect width="20" height="14" x="32" y="46" stroke="#00AAE7" stroke-linecap="square" stroke-width="2"/>
    <path stroke="#00AAE7" stroke-linecap="square" stroke-width="2" d="M36,46 L36,38 C36,34.6862915 38.6862915,32 42,32 L42,32 C45.3137085,32 48,34.6862915 48,38 L48,46"/>
    <line x2="42" y1="9" y2="9" stroke="#333" stroke-width="2"/>
    <line x2="26" y1="49" y2="49" stroke="#333" stroke-linecap="square" stroke-width="2"/>
    <path stroke="#333" stroke-linecap="square" stroke-width="2" d="M26,60 L5,60 C2.23857625,60 0,57.7614237 0,55 L0,5 C0,2.23857625 2.23857625,0 5,0 L37,0 C38.3260824,0 39.597852,0.526784202 40.5355339,1.46446609 C41.4732158,2.40214799 42,3.67391755 42,5 L42,26"/>
  </g>
</svg>
