<svg xmlns="http://www.w3.org/2000/svg" width="50" height="62" viewBox="0 0 50 62">
  <g fill="none" fill-rule="evenodd" stroke-width="2" transform="translate(1 1)">
    <path stroke="#00AAE7" d="M20.77371 37.36499L15.5509 47.4375C17.94513 49.0553 20.83154 50 23.93854 50 27.08533 50 30.00275 49.0271 32.41474 47.37128L27.2263 37.36499M27.66129 36.61156L38.99574 36.09838C39.19968 33.21602 38.57461 30.24396 37.02111 27.55323 35.44772 24.82803 33.14645 22.78792 30.50647 21.52699L24.435 31.02345M20.33871 36.61156L9.00426 36.09838C8.80032 33.21602 9.42539 30.24396 10.97889 27.55323 12.55228 24.82803 14.85355 22.78792 17.49353 21.52699L23.56501 31.02345"/>
    <circle cx="24" cy="35" r="4" stroke="#00AAE7" stroke-linecap="square"/>
    <path stroke="#333" d="M0,6 L0,54 C0,57.31372 7.79968,60 24,60 C40.20032,60 48,57.31372 48,54 L48,6"/>
    <path stroke="#333" stroke-linecap="square" d="M48,6 C48,9.31371 40.20035,12 24,12 C7.79965,12 0,9.31371 0,6 C0,2.68629 7.79965,0 24,0 C40.20035,0 48,2.68629 48,6 Z"/>
  </g>
</svg>
