<svg width="16" height="16" viewBox="0 0 16 16" fill="none" xmlns="http://www.w3.org/2000/svg">
  <path
    d="M5.88411 12.1799C5.78911 12.0659 5.64839 12 5.5 12H2C1.73478 12 1.48043 11.8946 1.29289 11.7071C1.10536 11.5196 1 11.2652 1 11V3C1 2.73478 1.10536 2.48043 1.29289 2.29289C1.48043 2.10536 1.73478 2 2 2H14C14.2652 2 14.5196 2.10536 14.7071 2.29289C14.8946 2.48043 15 2.73478 15 3V11C15 11.2652 14.8946 11.5196 14.7071 11.7071C14.5196 11.8946 14.2652 12 14 12H10.5C10.3516 12 10.2109 12.0659 10.1159 12.1799L8 14.719L5.88411 12.1799Z"
    stroke="currentColor" stroke-linecap="round" stroke-linejoin="round" />
  <path d="M3.5 8.5V5.5" stroke="currentColor" stroke-linecap="square" stroke-linejoin="round" />
  <path d="M6.5 9.5V4.5" stroke="currentColor" stroke-linecap="square" stroke-linejoin="round" />
  <path d="M9.5 7.5V6.5" stroke="currentColor" stroke-linecap="square" stroke-linejoin="round" />
  <path d="M12.5 8.5V5.5" stroke="currentColor" stroke-linecap="square" stroke-linejoin="round" />
</svg>