<svg xmlns="http://www.w3.org/2000/svg" width="20" height="20" viewBox="0 0 20 20">
  <g fill="none" fill-rule="evenodd">
    <rect width="20" height="20"/>
    <g stroke="#333" stroke-linecap="square" transform="translate(1.667 .833)">
      <path d="M10 18.3333333L14.1666667 18.3333333C15.5475 18.3333333 16.6666667 17.2141667 16.6666667 15.8333333L16.6666667 13.3333333M4.16666667 9.16666667L0 9.16666667 0 13.3333333C0 14.2541667.745833333 15 1.66666667 15L4.16666667 15 4.16666667 9.16666667z"/>
      <path d="M16.6666667 9.16666667L12.5 9.16666667 12.5 15 15 15C15.9208333 15 16.6666667 14.2541667 16.6666667 13.3333333L16.6666667 9.16666667zM16.6666667 9.16666667L16.6666667 8.33333333C16.6666667 3.73083333 12.9358333 0 8.33333333 0L8.33333333 0C3.73083333 0 0 3.73083333 0 8.33333333L0 9.16666667"/>
    </g>
  </g>
</svg>
