<svg width="28" height="28" viewBox="0 0 28 28" fill="none" xmlns="http://www.w3.org/2000/svg">
<path fill-rule="evenodd" clip-rule="evenodd" d="M14.0018 2.72314C8.31009 2.72314 3.69629 7.33695 3.69629 13.0287V18.8613C3.69629 20.2577 4.82759 21.3891 6.22407 21.3891H9.72407V13.4168H4.86296V13.0287C4.86296 7.98128 8.95443 3.88981 14.0018 3.88981C19.0493 3.88981 23.1407 7.98128 23.1407 13.0287V13.4168H18.2796V21.3891H21.7796C22.2808 21.3891 22.7479 21.2433 23.1407 20.9919V21.7772C23.1407 23.066 22.0962 24.1105 20.8074 24.1105H15.363V25.2772H20.8074C22.7405 25.2772 24.3074 23.7103 24.3074 21.7772V13.0287C24.3074 7.33695 19.6936 2.72314 14.0018 2.72314ZM23.1407 14.5835H19.4463V20.2224H21.7796C22.5318 20.2224 23.1407 19.6134 23.1407 18.8613V14.5835ZM4.86296 14.5835V18.8613C4.86296 19.6134 5.47193 20.2224 6.22407 20.2224H8.5574V14.5835H4.86296Z" fill="#333333"/>
</svg>
