<svg width="24" height="24" viewBox="0 0 24 24" fill="none" xmlns="http://www.w3.org/2000/svg">
<path fill-rule="evenodd" clip-rule="evenodd" d="M12.0013 2.33398C7.12266 2.33398 3.16797 6.28868 3.16797 11.1673V16.1667C3.16797 17.3636 4.13766 18.3333 5.33464 18.3333H8.33464V11.5H4.16797V11.1673C4.16797 6.84096 7.67494 3.33398 12.0013 3.33398C16.3277 3.33398 19.8346 6.84096 19.8346 11.1673V11.5H15.668V18.3333H18.668C19.0976 18.3333 19.4979 18.2084 19.8346 17.9929V18.666C19.8346 19.7707 18.9393 20.666 17.8346 20.666H13.168V21.666H17.8346C19.4916 21.666 20.8346 20.323 20.8346 18.666V11.1673C20.8346 6.28868 16.8799 2.33398 12.0013 2.33398ZM19.8346 12.5H16.668V17.3333H18.668C19.3127 17.3333 19.8346 16.8114 19.8346 16.1667V12.5ZM4.16797 12.5V16.1667C4.16797 16.8114 4.68994 17.3333 5.33464 17.3333H7.33464V12.5H4.16797Z" fill="#333333"/>
</svg>
