<?xml version="1.0" encoding="UTF-8"?>
<svg width="14px" height="14px" viewBox="0 0 14 14" version="1.1" xmlns="http://www.w3.org/2000/svg" xmlns:xlink="http://www.w3.org/1999/xlink">
    <title>路径</title>
    <g id="首页" stroke="none" stroke-width="1" fill="none" fill-rule="evenodd">
        <g id="首页-咨询02" transform="translate(-980.000000, -785.000000)" fill="#00AAE7" fill-rule="nonzero" stroke="#00AAE7">
            <g id="01">
                <g id="编组-12备份" transform="translate(560.000000, 683.000000)">
                    <g id="编组-57">
                        <g id="编组-6" transform="translate(412.000000, 92.000000)">
                            <g id="编组-5" transform="translate(8.000000, 8.000000)">
                                <g id="like" transform="translate(0.000000, 2.000000)">
                                    <path d="M2.95469808,6.625 L0.5,7 L0.875,13.5 L10.5,13.5 C11.0045167,13.5 11.4905656,13.3166375 11.865444,13.0063934 C12.22188,12.7114119 12.478393,12.2996969 12.5440857,11.818114 L13.4243175,7.2409085 C13.5227505,6.86383026 13.4275009,6.48589841 13.205172,6.20506188 C12.987764,5.93044126 12.6486237,5.75 12.25,5.75 L6.5,5.75 L6.5,1.75 C6.5,1.375 6.38610614,1.05571292 6.16519661,0.834803391 C6.00961509,0.679221873 5.80523769,0.576720789 5.56696828,0.529702872 L2.95469808,6.625 Z" id="路径"></path>
                                </g>
                            </g>
                        </g>
                    </g>
                </g>
            </g>
        </g>
    </g>
</svg>