<svg xmlns="http://www.w3.org/2000/svg" width="20" height="20" viewBox="0 0 20 20">
  <g fill="none" fill-rule="evenodd">
    <rect width="20" height="20"/>
    <path stroke="#333" stroke-linecap="square" d="M11.09,10.1566667 L9.30583333,11.9166667 C8.37542303,11.3556865 7.51109578,10.691787 6.72916667,9.9375 C5.9760407,9.15426774 5.31224817,8.28980025 4.75,7.36 L6.50833333,5.57583333 C6.72614601,5.35464874 6.78870066,5.02376755 6.66666667,4.73833333 L4.83333333,0.465 C4.68364031,0.116739215 4.30148106,-0.0693773035 3.935,0.0275 L0.573333333,0.916666667 C0.227608846,1.00629326 -0.0102627295,1.32299437 3.70092412e-16,1.68 C0.213896856,5.58980994 1.83954148,9.28911381 4.575,12.0908333 C7.37723137,14.8271493 11.0775365,16.4531396 14.9883333,16.6666667 C15.3458021,16.6786786 15.6635773,16.440607 15.7525,16.0941667 L16.6408333,12.7308333 C16.7382018,12.3645344 16.5523627,11.9822166 16.2041667,11.8325 L11.93,10 C11.6442358,9.87616963 11.3119138,9.93815032 11.09,10.1566667 L11.09,10.1566667 Z" transform="translate(1.667 1.667)"/>
  </g>
</svg>
