<svg width="28" height="29" viewBox="0 0 28 29" fill="none" xmlns="http://www.w3.org/2000/svg">
<path d="M19.3022 24.2064C18.9239 24.2064 18.5684 24.1472 18.2494 24.031C17.8391 23.9216 14.3342 22.8733 9.585 18.1218C4.97937 13.5185 3.82399 9.89503 3.69865 9.46889C3.48443 8.92879 3.44113 8.27019 3.58014 7.61616C3.71916 6.95984 4.02908 6.36505 4.45068 5.94345L6.24187 4.15226C6.66119 3.73294 7.20356 3.50049 7.76873 3.50049C8.42278 3.50049 9.03807 3.8127 9.45967 4.35507L12.0827 7.73693C12.5248 8.30665 12.5771 9.23644 12.2058 9.8563L10.925 11.978C11.0458 12.379 11.4628 13.3726 12.8666 14.8607C14.4277 16.3398 15.3984 16.7066 15.7174 16.791L17.8506 15.5034C18.1103 15.3461 18.4476 15.2596 18.7986 15.2596C19.2407 15.2596 19.6668 15.3917 19.9676 15.6242L23.3494 18.2494C23.8599 18.6459 24.1608 19.1997 24.1995 19.8105C24.2383 20.4212 24.0081 21.0091 23.5523 21.4649L21.7634 23.2538C21.1777 23.8417 20.2342 24.2064 19.3022 24.2064ZM7.76645 4.63081C7.50439 4.63081 7.24686 4.74476 7.03949 4.94986L5.25057 6.73878C4.70135 7.288 4.4689 8.37503 4.75605 9.06552L4.75833 9.06781L4.77884 9.12706V9.13161C4.78795 9.16808 5.82713 12.7641 10.3826 17.3196C15.0862 22.0233 18.5205 22.9303 18.5547 22.9394L18.5615 22.9417L18.6162 22.9576L18.6185 22.9599C18.8144 23.035 19.0514 23.0738 19.3022 23.0738C19.9357 23.0738 20.5897 22.83 20.9658 22.454L22.7547 20.665C22.978 20.4417 23.0919 20.1637 23.0737 19.8811C23.0555 19.5985 22.9073 19.3364 22.6589 19.1427L19.2771 16.5175C19.1723 16.4354 18.9899 16.3853 18.8031 16.3853C18.6573 16.3853 18.5251 16.4149 18.4362 16.4696L15.9841 17.9486L15.8246 17.9463C15.6856 17.9441 14.4048 17.8688 12.0712 15.6584L12.0667 15.6538C9.9519 13.4205 9.77415 12.076 9.76047 11.9301L9.74452 11.7455L11.2372 9.2729C11.3739 9.04729 11.3489 8.63937 11.1893 8.432L8.56406 5.04785C8.35668 4.77895 8.07182 4.63081 7.76645 4.63081Z" fill="#333333"/>
</svg>
