<svg width="24" height="24" viewBox="0 0 24 24" fill="none" xmlns="http://www.w3.org/2000/svg">
<path d="M16.6683 20.873C16.3441 20.873 16.0394 20.8223 15.766 20.7227C15.4144 20.6289 12.4105 19.7305 8.34017 15.6582C4.3929 11.7129 3.40267 8.60742 3.29525 8.24219C3.11165 7.7793 3.07454 7.21484 3.19368 6.6543C3.31283 6.0918 3.57845 5.58203 3.93978 5.2207L5.47493 3.68555C5.83431 3.32617 6.29915 3.12695 6.78353 3.12695C7.34408 3.12695 7.87142 3.39453 8.23275 3.85937L10.4808 6.75781C10.8597 7.24609 10.9046 8.04297 10.5863 8.57422L9.48861 10.3926C9.59212 10.7363 9.94954 11.5879 11.1527 12.8633C12.4906 14.1309 13.3226 14.4453 13.596 14.5176L15.4242 13.4141C15.6468 13.2793 15.9359 13.2051 16.2367 13.2051C16.6156 13.2051 16.9808 13.3184 17.2386 13.5176L20.137 15.7676C20.5745 16.1074 20.8324 16.582 20.8656 17.1055C20.8988 17.6289 20.7015 18.1328 20.3109 18.5234L18.7777 20.0566C18.2757 20.5605 17.4671 20.873 16.6683 20.873ZM6.78157 4.0957C6.55697 4.0957 6.33626 4.19336 6.15853 4.36914L4.62533 5.90234C4.15462 6.37305 3.9554 7.30469 4.2015 7.89648L4.20345 7.89844L4.22103 7.94922V7.95312C4.22884 7.98438 5.11947 11.0664 9.02376 14.9707C13.055 19.002 15.9984 19.7793 16.0277 19.7871L16.0335 19.7891L16.0804 19.8027L16.0824 19.8047C16.2503 19.8691 16.4534 19.9023 16.6683 19.9023C17.2113 19.9023 17.7718 19.6934 18.0941 19.3711L19.6273 17.8379C19.8187 17.6465 19.9163 17.4082 19.9007 17.166C19.8851 16.9238 19.7581 16.6992 19.5452 16.5332L16.6468 14.2832C16.557 14.2129 16.4007 14.1699 16.2406 14.1699C16.1156 14.1699 16.0023 14.1953 15.9261 14.2422L13.8245 15.5098L13.6878 15.5078C13.5687 15.5059 12.471 15.4414 10.471 13.5469L10.4671 13.543C8.65462 11.6289 8.50228 10.4766 8.49056 10.3516L8.47689 10.1934L9.75618 8.07422C9.87337 7.88086 9.85189 7.53125 9.71517 7.35352L7.46517 4.45312C7.28743 4.22266 7.04329 4.0957 6.78157 4.0957Z" fill="#333333"/>
</svg>
