<?xml version="1.0" encoding="UTF-8"?>
<svg width="28px" height="19px" viewBox="0 0 28 19" version="1.1" xmlns="http://www.w3.org/2000/svg" xmlns:xlink="http://www.w3.org/1999/xlink">
    <title>Fill 1</title>
    <g id="首页" stroke="none" stroke-width="1" fill="none" fill-rule="evenodd">
        <g id="首页-咨询01" transform="translate(-1488.000000, -714.000000)" fill="#FFFFFF">
            <g id="椭圆形-2" transform="translate(1460.000000, 687.000000)">
                <g id="编组-57">
                    <g id="编组-55" transform="translate(20.000000, 0.000000)">
                        <g id="编组-53" transform="translate(0.000000, 14.000000)">
                            <path d="M36,13.0609548 C35.5288672,12.8973397 35.1390755,13.0964815 34.9151972,13.2660497 C31.8132084,16.9708172 27.1790402,19.323648 22,19.323648 C20.2207561,19.323648 18.505749,19.0459632 16.894889,18.5311135 C16.4756397,16.9927094 16.1787823,15.900598 16.1787823,15.900598 C16.1787823,15.900598 15.8302315,14.8290345 14.650974,15.0126214 L14.9902124,17.7890846 C12.7033462,16.7346123 10.688821,15.1818055 9.08480282,13.2660497 C8.86073441,13.0964815 8.47094278,12.8973397 8,13.0609548 C9.34022942,16.6825705 12.0172674,19.6433887 15.4235254,21.3342698 L16.3526777,28.9371855 C16.3526777,28.9371855 16.768316,31.8461538 19.4696803,31.8461538 L25.2475667,31.8461538 C27.9487409,31.8461538 28.3641892,28.9371855 28.3641892,28.9371855 L29.0170094,23.4887269 C27.262472,23.3437393 26.1594244,24.579302 25.8101134,25.7981574 C25.2221,27.8510272 25.2228602,27.9821881 25.1071201,28.3403361 C24.8701283,29.0729552 24.0918754,29.1603318 24.0918754,29.1603318 L20.6255617,29.1603318 C20.6255617,29.1603318 19.8471187,29.0729552 19.6099369,28.3403361 C19.4573271,27.8679264 18.6940881,25.1064421 17.9262879,22.3052061 C19.2214756,22.6748763 20.5875518,22.8736341 22,22.8736341 C28.4118917,22.8736341 33.8794271,18.7922831 36,13.0609548" id="Fill-1"></path>
                        </g>
                    </g>
                </g>
            </g>
        </g>
    </g>
</svg>