<?xml version="1.0" encoding="UTF-8"?>
<svg width="30px" height="36px" viewBox="0 0 30 36" version="1.1" xmlns="http://www.w3.org/2000/svg" xmlns:xlink="http://www.w3.org/1999/xlink">
    <title>形状结合</title>
    <g id="首页" stroke="none" stroke-width="1" fill="none" fill-rule="evenodd">
        <g transform="translate(-1801.000000, -1633.000000)" fill="#FFFFFF" id="编组-62">
            <g transform="translate(1784.000000, 1618.000000)">
                <g id="联系">
                    <g id="编组-27" transform="translate(17.000000, 15.000000)">
                        <path d="M26,0 C28.209139,-4.05812251e-16 30,1.790861 30,4 L30,36 L24.824,32 L4,32 C1.790861,32 2.705415e-16,30.209139 0,28 L0,4 C-2.705415e-16,1.790861 1.790861,4.05812251e-16 4,0 L26,0 Z M7.70710678,22.2928932 C7.31658249,21.9023689 6.68341751,21.9023689 6.29289322,22.2928932 C5.90236893,22.6834175 5.90236893,23.3165825 6.29289322,23.7071068 C8.58660922,26.0008228 11.6906197,27.3137085 15,27.3137085 C18.3093803,27.3137085 21.4133908,26.0008228 23.7071068,23.7071068 C24.0976311,23.3165825 24.0976311,22.6834175 23.7071068,22.2928932 C23.3165825,21.9023689 22.6834175,21.9023689 22.2928932,22.2928932 C20.3705318,24.2152546 17.7734952,25.3137085 15,25.3137085 C12.2265048,25.3137085 9.62946821,24.2152546 7.70710678,22.2928932 Z" id="形状结合"></path>
                    </g>
                </g>
            </g>
        </g>
    </g>
</svg>