<svg width="24" height="24" viewBox="0 0 24 24" fill="none" xmlns="http://www.w3.org/2000/svg">
<path d="M11.8987 8.75641C12.392 8.75641 12.7216 8.42602 12.7216 7.934C12.7216 7.43641 12.3925 7.11455 11.8987 7.11455C11.4046 7.11455 10.9091 7.43643 10.9091 7.934C10.9096 8.42627 11.4053 8.75641 11.8987 8.75641V8.75641ZM7.29545 7.11453C6.80211 7.11453 6.30346 7.43641 6.30346 7.93398C6.30346 8.42598 6.80213 8.75639 7.29545 8.75639C7.78691 8.75639 8.116 8.426 8.116 7.93398C8.11572 7.43639 7.78721 7.11453 7.29545 7.11453V7.11453ZM21.7368 14.0215C21.7368 11.4199 19.3235 9.20307 16.3611 8.9724C16.3651 8.94014 16.367 8.90652 16.3597 8.87295C15.7659 6.10361 12.7878 4.01562 9.43201 4.01562C5.64002 4.01562 2.55469 6.6599 2.55469 9.91002C2.55469 11.6537 3.4448 13.225 5.13176 14.4639L4.54375 16.2316C4.50588 16.3466 4.54029 16.4732 4.63176 16.5529C4.68748 16.601 4.75764 16.626 4.82855 16.626C4.87416 16.626 4.92029 16.6154 4.96268 16.5943L7.17041 15.4895L7.4424 15.5447C8.12213 15.6844 8.70906 15.8055 9.43201 15.8055C9.6448 15.8055 10.2304 15.7276 10.2797 15.6652C11.0757 17.6572 13.2699 19.0951 15.8515 19.0951C16.5128 19.0951 17.1821 18.9357 17.7829 18.7852L19.4848 19.7156C19.5299 19.7402 19.5795 19.7529 19.6286 19.7529C19.6958 19.7529 19.7629 19.7303 19.8168 19.6863C19.9115 19.6095 19.9504 19.4831 19.9152 19.3673L19.4805 17.922C20.9376 16.7705 21.7368 15.3929 21.7368 14.0215H21.7368ZM10.0013 15.0031C9.81332 15.0193 9.62266 15.0273 9.43332 15.0273C8.79492 15.0273 8.25492 14.917 7.63039 14.7879L7.26746 14.7146C7.20506 14.7012 7.1392 14.7098 7.08186 14.7393L5.48641 15.538L5.90107 14.2924C5.94162 14.1705 5.89707 14.0375 5.79229 13.9639C4.18936 12.8465 3.37707 11.4855 3.37707 9.91908C3.37707 7.10309 6.09361 4.81135 9.43307 4.81135C12.3851 4.81135 14.9987 6.60734 15.5381 8.99613C12.4429 9.03668 9.9384 11.2127 9.9384 13.8852C9.9384 14.2737 9.99734 14.6503 10.0968 15.0135C10.0667 15.006 10.0349 15.0001 10.0013 15.0031H10.0013ZM18.8016 17.4044C18.7064 17.4762 18.6661 17.5999 18.7003 17.714L18.9699 18.6106L17.8635 18.0052C17.8213 17.982 17.7739 17.97 17.7267 17.97C17.7035 17.97 17.68 17.9729 17.6571 17.9791C17.0637 18.129 16.4496 18.2836 15.8517 18.2836C13.0747 18.2836 10.8155 16.3751 10.8155 14.0295C10.8155 11.6839 13.0744 9.77617 15.8517 9.77617C18.5757 9.77617 20.8776 11.7239 20.8776 14.0295C20.8776 15.1988 20.1405 16.3978 18.8016 17.4045L18.8016 17.4044ZM14.0376 11.8831C13.7085 11.8831 13.3795 12.2145 13.3795 12.5431C13.3795 12.874 13.7085 13.2007 14.0376 13.2007C14.532 13.2007 14.8586 12.874 14.8586 12.5431C14.8586 12.214 14.532 11.8831 14.0376 11.8831ZM17.6533 11.8831C17.329 11.8831 17 12.2145 17 12.5431C17 12.874 17.329 13.2007 17.6533 13.2007C18.1461 13.2007 18.4787 12.874 18.4787 12.5431C18.4787 12.214 18.1467 11.8831 17.6533 11.8831Z" fill="#333333"/>
</svg>
