<svg width="20" height="16" viewBox="0 0 20 16" fill="none" xmlns="http://www.w3.org/2000/svg">
<path d="M9.89867 4.75641C10.392 4.75641 10.7216 4.42602 10.7216 3.934C10.7216 3.43641 10.3925 3.11455 9.89867 3.11455C9.40455 3.11455 8.90906 3.43643 8.90906 3.934C8.90961 4.42627 9.40533 4.75641 9.89867 4.75641ZM5.29545 3.11453C4.80211 3.11453 4.30346 3.43641 4.30346 3.93398C4.30346 4.42598 4.80213 4.75639 5.29545 4.75639C5.78691 4.75639 6.116 4.426 6.116 3.93398C6.11572 3.43639 5.78721 3.11453 5.29545 3.11453ZM19.7368 10.0215C19.7368 7.41986 17.3235 5.20307 14.3611 4.9724C14.3651 4.94014 14.367 4.90652 14.3597 4.87295C13.7659 2.10361 10.7878 0.015625 7.43201 0.015625C3.64002 0.015625 0.554688 2.6599 0.554688 5.91002C0.554688 7.65375 1.4448 9.22496 3.13176 10.4639L2.54375 12.2316C2.50588 12.3466 2.54029 12.4732 2.63176 12.5529C2.68748 12.601 2.75764 12.626 2.82855 12.626C2.87416 12.626 2.92029 12.6154 2.96268 12.5943L5.17041 11.4895L5.4424 11.5447C6.12213 11.6844 6.70906 11.8055 7.43201 11.8055C7.6448 11.8055 8.23041 11.7276 8.27975 11.6652C9.07574 13.6572 11.2699 15.0951 13.8515 15.0951C14.5128 15.0951 15.1821 14.9357 15.7829 14.7852L17.4848 15.7156C17.5299 15.7402 17.5795 15.7529 17.6286 15.7529C17.6958 15.7529 17.7629 15.7303 17.8168 15.6863C17.9115 15.6095 17.9504 15.4831 17.9152 15.3673L17.4805 13.922C18.9376 12.7705 19.7368 11.3929 19.7368 10.0215H19.7368ZM8.00133 11.0031C7.81332 11.0193 7.62266 11.0273 7.43332 11.0273C6.79492 11.0273 6.25492 10.917 5.63039 10.7879L5.26746 10.7146C5.20506 10.7012 5.1392 10.7098 5.08186 10.7393L3.48641 11.538L3.90107 10.2924C3.94162 10.1705 3.89707 10.0375 3.79229 9.96387C2.18936 8.84654 1.37707 7.48547 1.37707 5.91908C1.37707 3.10309 4.09361 0.811348 7.43307 0.811348C10.3851 0.811348 12.9987 2.60734 13.5381 4.99613C10.4429 5.03668 7.9384 7.21268 7.9384 9.8852C7.9384 10.2737 7.99734 10.6503 8.0968 11.0135C8.06668 11.006 8.03492 11.0001 8.00135 11.0031H8.00133ZM16.8016 13.4044C16.7064 13.4762 16.6661 13.5999 16.7003 13.714L16.9699 14.6106L15.8635 14.0052C15.8213 13.982 15.7739 13.97 15.7267 13.97C15.7035 13.97 15.68 13.9729 15.6571 13.9791C15.0637 14.129 14.4496 14.2836 13.8517 14.2836C11.0747 14.2836 8.81547 12.3751 8.81547 10.0295C8.81547 7.68391 11.0744 5.77617 13.8517 5.77617C16.5757 5.77617 18.8776 7.72391 18.8776 10.0295C18.8776 11.1988 18.1405 12.3978 16.8016 13.4045L16.8016 13.4044ZM12.0376 7.88307C11.7085 7.88307 11.3795 8.21453 11.3795 8.54307C11.3795 8.874 11.7085 9.20066 12.0376 9.20066C12.532 9.20066 12.8586 8.874 12.8586 8.54307C12.8586 8.214 12.532 7.88307 12.0376 7.88307ZM15.6533 7.88307C15.329 7.88307 15 8.21453 15 8.54307C15 8.874 15.329 9.20066 15.6533 9.20066C16.1461 9.20066 16.4787 8.874 16.4787 8.54307C16.4787 8.214 16.1467 7.88307 15.6533 7.88307Z" fill="#333333"/>
</svg>
