<svg width="1048" height="32" viewBox="0 0 1048 32" fill="none" xmlns="http://www.w3.org/2000/svg">
<g id="&#231;&#188;&#150;&#231;&#187;&#132; 13">
<rect id="&#231;&#159;&#169;&#229;&#189;&#162;" x="0.5" y="0.5" width="1047" height="31" rx="3.5" stroke="#07BEFF" stroke-dasharray="2 2"/>
<path id="Cloud Native" d="M487.32 10.808C485.78 10.808 484.576 11.326 483.736 12.39C482.966 13.342 482.588 14.56 482.588 16.044C482.588 17.528 482.952 18.732 483.708 19.656C484.534 20.678 485.724 21.196 487.278 21.196C488.342 21.196 489.266 20.888 490.036 20.286C490.862 19.642 491.38 18.732 491.604 17.57H490.498C490.302 18.438 489.896 19.096 489.308 19.544C488.748 19.964 488.076 20.174 487.278 20.174C486.102 20.174 485.22 19.782 484.604 19.012C484.016 18.284 483.736 17.29 483.736 16.044C483.736 14.798 484.03 13.804 484.618 13.048C485.248 12.236 486.144 11.83 487.306 11.83C488.09 11.83 488.748 12.012 489.294 12.39C489.854 12.782 490.218 13.342 490.358 14.07H491.464C491.324 13.076 490.876 12.278 490.12 11.69C489.364 11.102 488.426 10.808 487.32 10.808ZM493.278 10.808V21H494.384V10.808H493.278ZM499.582 13.566C498.49 13.566 497.636 13.93 496.992 14.686C496.376 15.4 496.068 16.296 496.068 17.388C496.068 18.466 496.376 19.362 496.992 20.062C497.636 20.818 498.49 21.196 499.582 21.196C500.66 21.196 501.528 20.818 502.186 20.062C502.788 19.362 503.096 18.466 503.096 17.388C503.096 16.296 502.788 15.4 502.172 14.686C501.528 13.93 500.66 13.566 499.582 13.566ZM499.582 14.504C500.338 14.504 500.94 14.798 501.388 15.386C501.766 15.918 501.962 16.576 501.962 17.388C501.962 18.172 501.766 18.844 501.388 19.376C500.94 19.964 500.338 20.258 499.582 20.258C498.812 20.258 498.21 19.964 497.79 19.376C497.398 18.844 497.216 18.186 497.216 17.388C497.216 16.576 497.398 15.918 497.79 15.386C498.21 14.798 498.812 14.504 499.582 14.504ZM504.552 13.762V18.242C504.552 20.202 505.42 21.196 507.184 21.196C508.164 21.196 508.948 20.748 509.536 19.88V21H510.656V13.762H509.536V18.172C509.452 18.788 509.214 19.292 508.822 19.684C508.444 20.048 508.01 20.244 507.534 20.244C506.876 20.244 506.4 20.062 506.106 19.726C505.812 19.39 505.672 18.872 505.672 18.186V13.762H504.552ZM517.734 10.808V15.092C517.174 14.07 516.376 13.566 515.34 13.566C514.304 13.566 513.506 13.944 512.918 14.728C512.372 15.428 512.106 16.296 512.106 17.36C512.106 18.452 512.372 19.348 512.918 20.048C513.506 20.804 514.332 21.196 515.396 21.196C516.488 21.196 517.3 20.734 517.804 19.81V21H518.854V10.808H517.734ZM515.578 14.49C516.222 14.49 516.754 14.742 517.16 15.274C517.552 15.792 517.762 16.478 517.762 17.318V17.458C517.762 18.27 517.58 18.928 517.23 19.432C516.824 19.992 516.264 20.272 515.536 20.272C514.752 20.272 514.164 19.978 513.772 19.418C513.422 18.914 513.254 18.228 513.254 17.36C513.254 16.492 513.422 15.82 513.786 15.33C514.178 14.77 514.78 14.49 515.578 14.49ZM525.391 11.004V21H526.539V12.782H526.581L532.265 21H533.441V11.004H532.293V19.138H532.251L526.595 11.004H525.391ZM538.463 13.566C537.595 13.566 536.909 13.734 536.377 14.07C535.789 14.434 535.411 15.008 535.257 15.764L536.363 15.848C536.475 15.386 536.713 15.036 537.091 14.812C537.427 14.588 537.861 14.49 538.393 14.49C539.653 14.49 540.283 15.092 540.283 16.31V16.688L538.547 16.716C537.455 16.73 536.615 16.94 536.027 17.332C535.355 17.752 535.033 18.368 535.033 19.194C535.033 19.782 535.257 20.272 535.705 20.65C536.139 21.014 536.713 21.196 537.441 21.196C538.113 21.196 538.715 21.042 539.247 20.748C539.695 20.496 540.073 20.174 540.353 19.782V21H541.403V16.352C541.403 15.512 541.179 14.854 540.759 14.378C540.255 13.832 539.499 13.566 538.463 13.566ZM540.283 17.528V18.144C540.283 18.704 540.017 19.208 539.499 19.642C538.967 20.09 538.365 20.314 537.679 20.314C537.231 20.314 536.867 20.202 536.587 19.992C536.307 19.768 536.181 19.502 536.181 19.166C536.181 18.116 536.993 17.584 538.617 17.556L540.283 17.528ZM545.066 11.424L543.96 11.886V13.762H542.504V14.7H543.96V19.306C543.96 19.852 544.072 20.258 544.31 20.538C544.562 20.846 544.996 21 545.584 21H546.676V20.062H545.752C545.5 20.062 545.318 19.992 545.22 19.88C545.108 19.768 545.066 19.572 545.066 19.306V14.7H546.858V13.762H545.066V11.424ZM549.034 11.032C548.796 11.032 548.6 11.102 548.432 11.27C548.264 11.41 548.194 11.606 548.194 11.858C548.194 12.096 548.264 12.292 548.432 12.46C548.6 12.614 548.796 12.698 549.034 12.698C549.272 12.698 549.468 12.614 549.636 12.46C549.804 12.292 549.888 12.096 549.888 11.858C549.888 11.606 549.804 11.41 549.636 11.27C549.468 11.102 549.272 11.032 549.034 11.032ZM548.474 13.762V21H549.594V13.762H548.474ZM550.894 13.762L553.624 21H554.758L557.502 13.762H556.27L554.198 19.6L552.126 13.762H550.894ZM561.428 13.566C560.378 13.566 559.552 13.944 558.936 14.7C558.32 15.414 558.026 16.31 558.026 17.374C558.026 18.55 558.334 19.474 558.978 20.174C559.594 20.846 560.434 21.196 561.47 21.196C562.408 21.196 563.178 20.916 563.78 20.384C564.27 19.936 564.592 19.376 564.76 18.676H563.64C563.458 19.18 563.22 19.558 562.912 19.81C562.548 20.104 562.058 20.258 561.47 20.258C560.784 20.258 560.238 20.034 559.846 19.586C559.454 19.138 559.244 18.508 559.188 17.696H564.9C564.872 16.436 564.592 15.442 564.06 14.742C563.472 13.958 562.59 13.566 561.428 13.566ZM561.456 14.504C562.828 14.504 563.598 15.274 563.738 16.828H559.216C559.286 16.114 559.51 15.554 559.902 15.134C560.294 14.714 560.812 14.504 561.456 14.504Z" fill="#07BEFF"/>
</g>
</svg>
