<?xml version="1.0" encoding="UTF-8"?>
<svg width="200px" height="193px" viewBox="0 0 200 193" version="1.1" xmlns="http://www.w3.org/2000/svg" xmlns:xlink="http://www.w3.org/1999/xlink">
    <title>phone-3</title>
    <defs>
        <linearGradient x1="50%" y1="0.644003378%" x2="50%" y2="100%" id="linearGradient-1">
            <stop stop-color="#FFFFFF" stop-opacity="0.8" offset="0%"></stop>
            <stop stop-color="#FFFFFF" stop-opacity="0.1" offset="100%"></stop>
        </linearGradient>
        <linearGradient x1="50%" y1="0%" x2="50%" y2="100%" id="linearGradient-2">
            <stop stop-color="#FFFFFF" stop-opacity="0.8" offset="0%"></stop>
            <stop stop-color="#FFFFFF" stop-opacity="0" offset="100%"></stop>
        </linearGradient>
    </defs>
    <g id="活动与合作" stroke="none" stroke-width="1" fill="none" fill-rule="evenodd">
        <g id="联系我们" transform="translate(-1184.000000, -199.000000)" fill-rule="nonzero">
            <g id="phone-3" transform="translate(1184.000000, 199.000000)">
                <path d="M195.824138,142.402331 L147.548276,80.4403805 C146.895199,79.6022879 145.891229,79.1116409 144.827586,79.1116409 L55.1724138,79.1116409 C54.1087706,79.1116409 53.1048011,79.6022879 52.4517241,80.4403805 L4.17586207,142.402331 C3.70460622,143.006471 3.44827586,143.750218 3.44827586,144.515922 L3.44827586,172.054566 C3.45968062,183.456727 12.7160773,192.697164 24.137931,192.708549 L175.862069,192.708549 C187.283923,192.697164 196.540319,183.456727 196.551724,172.054566 L196.551724,144.515922 C196.551724,143.750218 196.295394,143.006471 195.824138,142.402331 Z M100,161.727574 C84.7645586,161.727574 72.4137931,149.398103 72.4137931,134.18893 C72.4137931,118.979756 84.7645586,106.650285 100,106.650285 C115.235441,106.650285 127.586207,118.979756 127.586207,134.18893 C127.586207,149.398103 115.235441,161.727574 100,161.727574 Z" id="形状" fill="url(#linearGradient-1)"></path>
                <path d="M68.7724138,51.0841855 L66.5517241,31.042937 C88.4871941,25.3596096 111.512806,25.3596096 133.448276,31.042937 L131.217241,51.0841855 C130.685427,55.9204417 133.489355,60.5059204 138.041379,62.2442212 L171.1,74.9498633 C175.999842,76.836936 181.547635,74.9014711 184.203448,70.3784483 L198.517241,46.0652675 C201.283365,41.359884 200.082911,35.332454 195.724138,32.0412128 C139.054195,-10.5991143 60.9423571,-10.5991143 4.27241379,32.0412128 C-0.0830360346,35.333004 -1.28308961,41.3569435 1.47931034,46.0618252 L15.8137931,70.3991023 C18.4727608,74.9183608 24.0190514,76.8503874 28.9172414,74.9636326 L61.9586207,62.2442212 C66.5032857,60.4984097 69.300703,55.9166331 68.7724138,51.0841855 Z" id="路径" fill="url(#linearGradient-2)"></path>
            </g>
        </g>
    </g>
</svg>