<?xml version="1.0" encoding="UTF-8"?>
<svg width="60px" height="50px" viewBox="0 0 60 50" version="1.1" xmlns="http://www.w3.org/2000/svg" xmlns:xlink="http://www.w3.org/1999/xlink">
    <!-- Generator: Sketch 64 (93537) - https://sketch.com -->
    <title>device-connection</title>
    <desc>Created with Sketch.</desc>
    <g id="产品" stroke="none" stroke-width="1" fill="none" fill-rule="evenodd" stroke-linecap="square">
        <g id="基础服务-CDN✅" transform="translate(-930.000000, -2026.000000)" stroke-width="2">
            <g id="产品介绍-2" transform="translate(0.000000, 1844.000000)">
                <g id="01" transform="translate(772.000000, 147.000000)">
                    <g id="device-connection" transform="translate(159.000000, 36.000000)">
                        <path d="M4,20 L4,5 C4,2.23857625 6.23857625,0 9,0 L53,0 C55.7614237,0 58,2.23857625 58,5 L58,39 C58,41.7614237 55.7614237,44 53,44 L28,44" id="路径" stroke="#333333"></path>
                        <path d="M0,26 C12.1502645,26 22,35.8497355 22,48" id="路径" stroke="#00AAE7"></path>
                        <path d="M0,34 C7.7319865,34 14,40.2680135 14,48" id="路径" stroke="#00AAE7"></path>
                        <path d="M0,42 C3.3137085,42 6,44.6862915 6,48" id="路径" stroke="#00AAE7"></path>
                    </g>
                </g>
            </g>
        </g>
    </g>
</svg>