<?xml version="1.0" encoding="UTF-8"?>
<svg width="54px" height="62px" viewBox="0 0 54 62" version="1.1" xmlns="http://www.w3.org/2000/svg" xmlns:xlink="http://www.w3.org/1999/xlink">
    <!-- Generator: Sketch 64 (93537) - https://sketch.com -->
    <title>world-pin</title>
    <desc>Created with Sketch.</desc>
    <g id="产品" stroke="none" stroke-width="1" fill="none" fill-rule="evenodd">
        <g id="基础服务-CDN✅" transform="translate(-533.000000, -2020.000000)" stroke-width="2">
            <g id="产品介绍-2" transform="translate(0.000000, 1844.000000)">
                <g id="01" transform="translate(372.000000, 147.000000)">
                    <g id="world-pin" transform="translate(162.000000, 30.000000)">
                        <path d="M11.097,55.308 C12.737,54.096 13.996,51.013 13.996,51.013 C13.996,51.013 15.413,50.029 15.856,48.773 C16.299,47.517 15.881,45.811 15.881,45.811 C15.881,45.811 17.137,42.125 16.546,41.091 C15.955,40.057 13.444,39.392 13.444,39.392 C13.444,39.392 12.41,37.472 10.268,37.102 C8.864,36.955 7.46,35.994 7.46,34 C7.46,32.006 9.454,28.756 9.454,28.756 C9.454,28.756 11.522,27.744 11.818,27.006 C12.114,26.268 12.214,24.546 12.214,24.546 C12.214,24.546 14.181,21.074 13.073,19.08 C12.72,18.444 11.079,17.972 11.079,17.972 L8.778,14.521" id="路径" stroke="#333333"></path>
                        <path d="M46.519,49.97 C44.01,48.767 39.621,47.763 39.621,47.763 C39.621,47.763 36.414,44.193 34.309,44.489 C32.204,44.785 30.062,47.148 30.062,47.148 C30.062,47.148 30.21,51.506 29.545,51.728 C28.88,51.95 27.107,50.768 26,51.654 C24.892,52.54 25.531,55.039 25.531,55.039 C25.531,55.039 23.119,55.791 22.824,56.603 C22.529,57.415 23.702,59.225 23.925,59.919" id="路径" stroke="#333333"></path>
                        <path d="M26.561,8.014 C26.373,8.01 26.189,8 26,8 C11.641,8 0,19.641 0,34 C0,48.359 11.641,60 26,60 C40.359,60 52,48.359 52,34 C52,31.209 51.56,28.521 50.746,26.001" id="路径" stroke="#333333"></path>
                        <path d="M50,11.688 C50,18.902 38,30 38,30 C38,30 26,18.902 26,11.688 C26,4.292 32.201,0 38,0 C43.799,0 50,4.292 50,11.688 Z" id="路径" stroke="#00AAE7" stroke-linecap="square"></path>
                        <circle id="椭圆形" stroke="#00AAE7" stroke-linecap="square" cx="38" cy="12" r="4"></circle>
                    </g>
                </g>
            </g>
        </g>
    </g>
</svg>