<?xml version="1.0" encoding="UTF-8"?>
<svg width="520px" height="350px" viewBox="0 0 520 350" version="1.1" xmlns="http://www.w3.org/2000/svg" xmlns:xlink="http://www.w3.org/1999/xlink">
    <title>插画</title>
    <defs>
        <filter x="-55.0%" y="-254.8%" width="210.0%" height="609.5%" filterUnits="objectBoundingBox" id="filter-1">
            <feGaussianBlur stdDeviation="50" in="SourceGraphic"></feGaussianBlur>
        </filter>
        <linearGradient x1="50%" y1="0%" x2="50%" y2="100%" id="linearGradient-2">
            <stop stop-color="#7AE9FF" stop-opacity="0" offset="0%"></stop>
            <stop stop-color="#44CFFF" offset="100%"></stop>
        </linearGradient>
        <linearGradient x1="50%" y1="0%" x2="50%" y2="100%" id="linearGradient-3">
            <stop stop-color="#7AE9FF" stop-opacity="0" offset="0%"></stop>
            <stop stop-color="#56D3FF" stop-opacity="0.500027316" offset="100%"></stop>
        </linearGradient>
        <filter x="-25.0%" y="-166.7%" width="150.0%" height="433.3%" filterUnits="objectBoundingBox" id="filter-4">
            <feGaussianBlur stdDeviation="10" in="SourceGraphic"></feGaussianBlur>
        </filter>
        <linearGradient x1="50%" y1="0%" x2="50%" y2="100%" id="linearGradient-5">
            <stop stop-color="#00D4F5" stop-opacity="0" offset="0%"></stop>
            <stop stop-color="#00BCED" offset="48.7070261%"></stop>
            <stop stop-color="#00AAE7" stop-opacity="0" offset="100%"></stop>
        </linearGradient>
        <linearGradient x1="50%" y1="0%" x2="50%" y2="100%" id="linearGradient-6">
            <stop stop-color="#00D4F5" stop-opacity="0" offset="0%"></stop>
            <stop stop-color="#00BCED" offset="48.7070261%"></stop>
            <stop stop-color="#00AAE7" stop-opacity="0" offset="100%"></stop>
        </linearGradient>
        <polygon id="path-7" points="82 0 153.014083 41 153.014083 123 82 164 10.9859169 123 10.9859169 41"></polygon>
        <polygon id="path-9" points="66 0 123.157677 33 123.157677 99 66 132 8.84232335 99 8.84232335 33"></polygon>
        <polygon id="path-11" points="44 0 82.1051178 22 82.1051178 66 44 88 5.89488223 66 5.89488223 22"></polygon>
    </defs>
    <g id="产品" stroke="none" stroke-width="1" fill="none" fill-rule="evenodd">
        <g id="基础服务-CDN✅" transform="translate(-1028.000000, -120.000000)">
            <g id="banner" transform="translate(0.000000, 120.000000)">
                <g id="编组-35">
                    <g id="插画" transform="translate(1135.000000, 40.000000)">
                        <g id="编组-22" transform="translate(0.000000, 155.000000)">
                            <ellipse id="椭圆形" fill="#00BDFF" filter="url(#filter-1)" cx="149.36" cy="49.12" rx="136.32" ry="29.44"></ellipse>
                            <ellipse id="椭圆形" fill="url(#linearGradient-2)" cx="150" cy="29.44" rx="150" ry="29.44"></ellipse>
                            <ellipse id="椭圆形" fill="url(#linearGradient-3)" cx="150" cy="52.44" rx="150" ry="29.44"></ellipse>
                            <ellipse id="椭圆形" fill-opacity="0.5" fill="#0784DA" filter="url(#filter-4)" cx="150" cy="35" rx="60" ry="9"></ellipse>
                        </g>
                        <g id="编组-21" transform="translate(2.000000, 0.000000)" fill-rule="nonzero">
                            <path d="M4,100 L4,126 L4,126 L0,126 L0,96 C2.209139,96 4,97.790861 4,100 Z" id="路径" fill="url(#linearGradient-5)"></path>
                            <path d="M27,33 L27,60 L27,60 L24,60 L24,30 C25.6568542,30 27,31.3431458 27,33 Z" id="路径" fill="url(#linearGradient-6)"></path>
                            <path d="M275,37 L275,63 L275,63 L271,63 L271,33 C273.209139,33 275,34.790861 275,37 Z" id="路径" fill="url(#linearGradient-5)"></path>
                            <path d="M298,109 L298,135 L298,135 L294,135 L294,105 C296.209139,105 298,106.790861 298,109 Z" id="路径" fill="url(#linearGradient-5)" opacity="0.300000012"></path>
                            <path d="M228,4 L228,30 L228,30 L224,30 L224,0 C226.209139,-4.05812251e-16 228,1.790861 228,4 Z" id="路径" fill="url(#linearGradient-5)" opacity="0.400000006"></path>
                            <path d="M312,166 L312,193 L312,193 L309,193 L309,163 C310.656854,163 312,164.343146 312,166 Z" id="路径" fill="url(#linearGradient-6)" opacity="0.449999988"></path>
                        </g>
                        <g id="编组-3" transform="translate(66.000000, 28.000000)">
                            <g id="编组-2">
                                <mask id="mask-8" fill="white">
                                    <use xlink:href="#path-7"></use>
                                </mask>
                                <use id="多边形" fill="#DDF5FF" xlink:href="#path-7"></use>
                                <path d="M-46,8 L25.0140831,49 L25.0139169,115.091 L82.0140831,148 L82.0140831,230 L11,271 L-60.0140831,230 L-60.0150831,163.908 L-117.014083,131 L-117.014083,49 L-46,8 Z" id="形状结合" fill="#A9DBEF" mask="url(#mask-8)"></path>
                            </g>
                            <g id="多边形-2" transform="translate(16.000000, 16.000000)">
                                <mask id="mask-10" fill="white">
                                    <use xlink:href="#path-9"></use>
                                </mask>
                                <use id="多边形" fill="#CBF0FF" xlink:href="#path-9"></use>
                                <polygon id="多边形" fill="#A9DBEF" mask="url(#mask-10)" points="123 -33 180.157677 0 180.157677 66 123 99 65.8423234 66 65.8423234 4.26325641e-14"></polygon>
                            </g>
                            <g id="编组" transform="translate(38.000000, 38.000000)">
                                <mask id="mask-12" fill="white">
                                    <use xlink:href="#path-11"></use>
                                </mask>
                                <use id="多边形" fill="#FFFFFF" xlink:href="#path-11"></use>
                                <polygon id="多边形" fill="#78DCFF" mask="url(#mask-12)" points="44 -44 82.1051178 -22 82.1051178 22 44 44 5.89488223 22 5.89488223 -22"></polygon>
                                <polygon id="多边形" fill="#47BEE6" mask="url(#mask-12)" points="6 22 44.1051178 44 44.1051178 88 6 110 -32.1051178 88 -32.1051178 44"></polygon>
                                <polygon id="多边形" fill="#4DCFFC" mask="url(#mask-12)" points="82 22 120.105118 44 120.105118 88 82 110 43.8948822 88 43.8948822 44"></polygon>
                            </g>
                        </g>
                    </g>
                </g>
            </g>
        </g>
    </g>
</svg>