<?xml version="1.0" encoding="UTF-8"?>
<svg width="42px" height="42px" viewBox="0 0 42 42" version="1.1" xmlns="http://www.w3.org/2000/svg" xmlns:xlink="http://www.w3.org/1999/xlink">
    <title>face-recognition</title>
    <g id="解决方案" stroke="none" stroke-width="1" fill="none" fill-rule="evenodd" stroke-linecap="square">
        <g id="场景解决方案-短视频解决方案✅" transform="translate(-978.000000, -1586.000000)" stroke="#00AAE7" stroke-width="2">
            <g id="产品介绍-2" transform="translate(0.000000, 1067.000000)">
                <g id="编组-29" transform="translate(966.000000, 506.000000)">
                    <g id="face-recognition" transform="translate(13.000000, 14.000000)">
                        <polyline id="路径" points="0 8 0 0 8 0"></polyline>
                        <polyline id="路径" points="40 8 40 0 32 0"></polyline>
                        <polyline id="路径" points="0 32 0 40 8 40"></polyline>
                        <polyline id="路径" points="40 32 40 40 32 40"></polyline>
                        <path d="M28,28.1429477 L24.4142857,26.9475191 C23.4836865,26.6373015 22.8547911,25.7678853 22.8514286,24.7869477 L22.848,23.6589477 C24.6029099,22.2348776 25.6495621,20.1163251 25.7142857,17.8572334 L25.7142857,16.9098048 C25.7537402,13.8509133 23.42751,11.2792265 20.38,11.012662 C18.801966,10.9074899 17.250915,11.4610287 16.0960229,12.541527 C14.9411307,13.6220252 14.2856928,15.1328414 14.2857143,16.7143762 L14.2857143,17.8572334 C14.3468889,20.1151532 15.3903282,22.2339611 17.1428571,23.6589477 L17.1428571,24.7812334 C17.144161,25.7661684 16.5143852,26.6411769 15.58,26.952662 L12,28.1429477" id="路径"></path>
                    </g>
                </g>
            </g>
        </g>
    </g>
</svg>