<?xml version="1.0" encoding="UTF-8"?>
<svg width="35px" height="42px" viewBox="0 0 35 42" version="1.1" xmlns="http://www.w3.org/2000/svg" xmlns:xlink="http://www.w3.org/1999/xlink">
    <title>抖音</title>
    <g id="解决方案" stroke="none" stroke-width="1" fill="none" fill-rule="evenodd">
        <g id="场景解决方案-短视频解决方案✅" transform="translate(-1143.000000, -1586.000000)" fill-rule="nonzero" stroke="#00AAE7" stroke-width="2">
            <g id="产品介绍-2" transform="translate(0.000000, 1067.000000)">
                <g id="编组-37" transform="translate(1128.000000, 506.000000)">
                    <g id="抖音" transform="translate(16.000000, 14.000000)">
                        <path d="M32.8907822,16.5566205 C29.6485623,16.5566205 26.4915395,15.4869246 23.9024967,13.5179269 L23.9024967,27.2819785 C23.9024967,34.3107325 18.5540173,40 11.9512484,40 C5.34847947,40 0,34.3107325 0,27.2819785 C0,20.2532245 5.34847947,14.5639569 11.9512484,14.5639569 C12.6091587,14.5639569 13.2528695,14.6207549 13.8776476,14.7296178 L13.8776476,22.018696 C13.2812685,21.7820376 12.6422909,21.6589753 11.99858,21.6589753 C9.05454976,21.6589753 6.66430008,24.2006863 6.66430008,27.3340433 C6.66430008,30.4674003 9.05454976,33.0091113 11.99858,33.0091113 C14.9426103,33.0091113 17.3281268,30.4674003 17.3281268,27.3340433 L17.3281268,0 L23.9971601,0 C23.9971601,5.25381612 28.00142,9.51366702 32.9381138,9.51366702 L32.9381138,16.5566205 L32.8907822,16.5566205" id="路径"></path>
                    </g>
                </g>
            </g>
        </g>
    </g>
</svg>