<?xml version="1.0" encoding="UTF-8"?>
<svg width="38px" height="46px" viewBox="0 0 38 46" version="1.1" xmlns="http://www.w3.org/2000/svg" xmlns:xlink="http://www.w3.org/1999/xlink">
    <title>timer</title>
    <g id="解决方案" stroke="none" stroke-width="1" fill="none" fill-rule="evenodd">
        <g id="场景解决方案-短视频解决方案✅" transform="translate(-1465.000000, -1582.000000)" stroke="#00AAE7" stroke-width="2">
            <g id="产品介绍-2" transform="translate(0.000000, 1067.000000)">
                <g id="编组-43" transform="translate(1452.000000, 506.000000)">
                    <g id="timer" transform="translate(14.000000, 9.000000)">
                        <polyline id="路径" points="36 27 36 45 0 45 0 27"></polyline>
                        <line x1="11" y1="1" x2="25" y2="1" id="路径" stroke-linecap="square"></line>
                        <line x1="18" y1="27" x2="26.5" y2="18.5" id="路径" stroke-linecap="square"></line>
                        <line x1="18" y1="1" x2="18" y2="4" id="路径" stroke-linecap="square"></line>
                        <circle id="椭圆形" stroke-linecap="square" cx="18" cy="27" r="18"></circle>
                        <line x1="18" y1="15" x2="18" y2="17" id="路径" stroke-linecap="square"></line>
                        <line x1="30" y1="27" x2="28" y2="27" id="路径" stroke-linecap="square"></line>
                        <line x1="26.485" y1="35.485" x2="25.071" y2="34.071" id="路径" stroke-linecap="square"></line>
                        <line x1="18" y1="39" x2="18" y2="37" id="路径" stroke-linecap="square"></line>
                        <line x1="9.515" y1="35.485" x2="10.929" y2="34.071" id="路径" stroke-linecap="square"></line>
                        <line x1="6" y1="27" x2="8" y2="27" id="路径" stroke-linecap="square"></line>
                        <line x1="9.515" y1="18.515" x2="10.929" y2="19.929" id="路径" stroke-linecap="square"></line>
                    </g>
                </g>
            </g>
        </g>
    </g>
</svg>