<?xml version="1.0" encoding="UTF-8"?>
<svg width="181px" height="178px" viewBox="0 0 181 178" version="1.1" xmlns="http://www.w3.org/2000/svg" xmlns:xlink="http://www.w3.org/1999/xlink">
    <title>编组 45</title>
    <defs>
        <linearGradient x1="50%" y1="0.422475726%" x2="50%" y2="98.8993046%" id="linearGradient-1">
            <stop stop-color="#72D0FF" offset="0%"></stop>
            <stop stop-color="#388AFF" offset="99.9472128%"></stop>
        </linearGradient>
        <linearGradient x1="4.11166301%" y1="49.382716%" x2="97.2086592%" y2="50.4126866%" id="linearGradient-2">
            <stop stop-color="#72D0FF" offset="0%"></stop>
            <stop stop-color="#4EC2F7" offset="100%"></stop>
        </linearGradient>
        <linearGradient x1="73.1837385%" y1="2.8877444%" x2="13.7259239%" y2="82.9544669%" id="linearGradient-3">
            <stop stop-color="#E5F6FC" offset="0%"></stop>
            <stop stop-color="#C7D1F8" stop-opacity="0" offset="100%"></stop>
        </linearGradient>
        <linearGradient x1="50%" y1="0.422475726%" x2="50%" y2="98.8993046%" id="linearGradient-4">
            <stop stop-color="#72D0FF" offset="0%"></stop>
            <stop stop-color="#388AFF" offset="99.9472128%"></stop>
        </linearGradient>
        <linearGradient x1="50%" y1="0.422475726%" x2="50%" y2="98.8993046%" id="linearGradient-5">
            <stop stop-color="#72D0FF" offset="0%"></stop>
            <stop stop-color="#388AFF" offset="99.9472128%"></stop>
        </linearGradient>
        <linearGradient x1="4.11166301%" y1="49.0487515%" x2="97.2086592%" y2="50.6359594%" id="linearGradient-6">
            <stop stop-color="#72D0FF" offset="0%"></stop>
            <stop stop-color="#4EC2F7" offset="100%"></stop>
        </linearGradient>
        <linearGradient x1="4.11166301%" y1="49.7256516%" x2="97.2086592%" y2="50.1834163%" id="linearGradient-7">
            <stop stop-color="#72D0FF" offset="0%"></stop>
            <stop stop-color="#4EC2F7" offset="100%"></stop>
        </linearGradient>
        <linearGradient x1="50%" y1="0%" x2="50%" y2="98.8202069%" id="linearGradient-8">
            <stop stop-color="#72D0FF" offset="0%"></stop>
            <stop stop-color="#38B0FF" offset="100%"></stop>
        </linearGradient>
        <linearGradient x1="50%" y1="0.422475726%" x2="50%" y2="98.8993046%" id="linearGradient-9">
            <stop stop-color="#72D0FF" offset="0%"></stop>
            <stop stop-color="#388AFF" offset="99.9472128%"></stop>
        </linearGradient>
    </defs>
    <g id="产品" stroke="none" stroke-width="1" fill="none" fill-rule="evenodd">
        <g id="智能视频-人脸核验02" transform="translate(-504.000000, -798.000000)">
            <g id="编组-62" transform="translate(504.000000, 798.000000)">
                <g id="编组-45">
                    <g id="编组-8" transform="translate(0.000000, 10.188679)">
                        <g id="编组-7">
                            <path d="M5,0 L61.2264151,0 C63.9878388,-5.07265313e-16 66.2264151,2.23857625 66.2264151,5 L66.2264151,113.867925 C66.2264151,116.629348 63.9878388,118.867925 61.2264151,118.867925 L5,118.867925 C2.23857625,118.867925 3.38176876e-16,116.629348 0,113.867925 L0,5 C-1.2263553e-15,2.23857625 2.23857625,5.07265313e-16 5,0 Z" id="矩形" fill="url(#linearGradient-1)"></path>
                            <rect id="矩形" fill="#FFFFFF" fill-rule="nonzero" x="29.7169811" y="4.24528302" width="6.79245283" height="1.69811321" rx="0.849056604"></rect>
                            <circle id="椭圆形" fill="#FFFFFF" fill-rule="nonzero" cx="33.1132075" cy="5.09433962" r="1"></circle>
                            <path d="M62.8301887,111.701588 C62.8292278,114.252956 60.6937977,116.320755 58.0599435,116.320755 L8.16647163,116.320755 C5.53261744,116.320755 3.39718733,114.252956 3.39622642,111.701588 L3.39622642,8.86613511 C3.39622642,6.31410897 5.53193795,4.24528302 8.16647163,4.24528302 L18.012362,4.24528302 L18.012362,5.04773672 C18.0162004,7.14677068 19.773388,8.84666471 21.9402873,8.84759101 L43.8684485,8.84759101 C44.9101991,8.84759101 45.9092823,8.44671753 46.6459112,7.73315816 C47.3825401,7.01959878 47.7963739,6.05180458 47.7963739,5.04267924 L47.7963739,4.24528302 L58.0686451,4.24528302 C60.69978,4.2499323 62.8301887,6.31739713 62.8301887,8.86613511 L62.8301887,111.701588 Z" id="路径" fill="#FFFFFF" fill-rule="nonzero"></path>
                        </g>
                        <rect id="矩形" fill="url(#linearGradient-2)" opacity="0.469470796" x="10.1886792" y="61.1320755" width="45.8490566" height="5.09433962" rx="2"></rect>
                        <g id="编组-9" transform="translate(17.830189, 21.226415)">
                            <circle id="椭圆形" fill="url(#linearGradient-3)" cx="15.4765366" cy="15.4765366" r="15.4765366"></circle>
                            <path d="M15.7086462,3.3974072 C16.6857029,3.40614748 17.4706067,4.19734605 17.4617778,5.1645987 C17.4589405,5.47544229 17.3744741,5.76664001 17.2287091,6.01842585 C17.7048676,6.49874357 17.9986412,7.15804996 17.9986412,7.88528234 C17.9986412,8.09294416 17.9746871,8.29506734 17.9293651,8.48909165 C17.928918,8.48796356 17.9292512,8.48809039 17.9295843,8.48821724 L17.9290342,8.48874865 C20.6651984,9.52979261 22.6066067,12.1559493 22.6066067,15.2309963 C22.6066067,15.5242857 22.588946,15.8134916 22.5546201,16.0976287 C22.6054541,16.2644621 22.6345822,16.4581864 22.6345822,16.6645315 C22.6345822,17.2263844 22.4186244,17.6946653 22.1322973,17.7992892 C22.0006988,18.1405347 21.8434596,18.4706901 21.6629432,18.7860711 C21.0188047,20.6833092 19.5316968,22.1968787 17.6424294,22.8909754 L17.6416204,23.0066389 C17.6383097,23.0078426 17.6349983,23.0090437 17.6316861,23.0102421 L17.6314528,24.9192264 L21.0972615,24.9202171 C21.0972615,24.9202171 23.0973563,25.0832488 23.7221143,27.8538263 L23.7735849,28.1051182 C21.3100309,29.7139517 18.4228194,30.5697727 15.4715205,30.5660181 C12.3650916,30.5710087 9.33327546,29.6238305 6.79245283,27.8545463 C7.4185713,25.0824295 9.41682172,24.9202171 9.41682172,24.9202171 L9.41682172,24.9202171 L12.9584528,24.9192264 L12.958893,22.8828496 C11.0800834,22.1851139 9.60201317,20.6759407 8.96016218,18.7864402 C8.78003789,18.4709986 8.62292966,18.1411805 8.49135744,17.7988981 C8.20436761,17.6968378 7.98740658,17.227688 7.98740658,16.6645315 C7.98740658,16.4577753 8.01665082,16.2636904 8.06788436,16.0957354 C8.0343335,15.8128135 8.01671425,15.5239418 8.01671425,15.2309963 C8.01671425,12.1619414 9.95056379,9.54002901 12.6777537,8.49432414 C12.6459377,8.36493333 12.6246988,8.23010596 12.6140225,8.09235149 C12.3617244,7.43915505 12.3760284,6.70411831 12.6726377,6.04951325 C12.6899559,6.01126806 12.7086062,5.97302287 12.7272566,5.93609648 C12.5118861,6.47779844 12.4876268,7.04886896 12.6237709,7.57473544 C12.7080666,6.85824394 13.078235,6.2286209 13.6184096,5.80047126 C13.5624109,5.62977096 13.5318854,5.44687186 13.5318854,5.25691468 C13.5318854,4.28893364 14.3245428,3.50422997 15.3023353,3.50422997 C16.2801278,3.50422997 17.0727852,4.28893364 17.0727852,5.25691468 C17.0727852,5.44687186 17.0422596,5.62977096 16.9857998,5.80106682 C16.9913613,5.80451387 16.9964465,5.80857444 17.0015165,5.81265288 C17.0960351,5.5764184 17.1384035,5.31520497 17.1177139,5.04556028 C17.0492904,4.15380404 16.313169,3.45633329 15.4102408,3.42773959 L15.4102408,3.42773959 L15.307664,3.42773959 C15.4392959,3.40271851 15.5733677,3.39254281 15.707314,3.3974072 Z" id="形状结合" fill="url(#linearGradient-4)" opacity="0.832473028"></path>
                        </g>
                        <rect id="矩形" fill="#479CFF" opacity="0.3492141" x="10.1886792" y="71.3207547" width="24.6226415" height="3.39622642" rx="1.69811321"></rect>
                        <rect id="矩形" fill="url(#linearGradient-5)" opacity="0.534249442" x="40.754717" y="71.3207547" width="15.2830189" height="18.6792453" rx="2"></rect>
                        <rect id="矩形" fill="url(#linearGradient-6)" opacity="0.469470796" x="10.1886792" y="78.9622642" width="24.6226415" height="3.39622642" rx="1.69811321"></rect>
                        <rect id="矩形备份-13" fill="#479CFF" opacity="0.3492141" x="10.1886792" y="86.6037736" width="24.6226415" height="3.39622642" rx="1.69811321"></rect>
                        <rect id="矩形备份-14" fill="url(#linearGradient-7)" opacity="0.469470796" x="10.1886792" y="94.245283" width="45.8490566" height="3.39622642" rx="1.69811321"></rect>
                        <rect id="矩形备份-15" fill="#479CFF" opacity="0.3492141" x="10.1886792" y="101.886792" width="36.509434" height="3.39622642" rx="1.69811321"></rect>
                    </g>
                    <g id="编组-37" transform="translate(86.603774, 61.132075)">
                        <path d="M4,0 L89.3962264,0 C91.6053654,-8.25425059e-15 93.3962264,1.790861 93.3962264,4 L93.3962264,111.471698 C93.3962264,113.680837 91.6053654,115.471698 89.3962264,115.471698 L4,115.471698 C1.790861,115.471698 2.705415e-16,113.680837 0,111.471698 L0,4 C-2.705415e-16,1.790861 1.790861,4.05812251e-16 4,0 Z" id="矩形" fill="url(#linearGradient-8)"></path>
                        <g id="编组-11" transform="translate(10.188679, 67.924528)" fill="#FFFFFF">
                            <path d="M1.93421624,0.0113725903 L64.2991844,0.37938834 C65.3648368,0.385676756 66.2248536,1.25235282 66.2229223,2.31802197 C66.2210012,3.37807581 65.3601003,4.23586184 64.3000465,4.23394069 C64.2974306,4.23393595 64.2948147,4.23392586 64.2921989,4.23391043 L1.92723065,3.86589468 C0.861578307,3.85960626 0.00156147073,2.9929302 0.00349279252,1.92726104 C0.00541393761,0.867207208 0.866314758,0.0094211797 1.92636859,0.0113423248 C1.92898449,0.0113470656 1.93160038,0.0113571542 1.93421624,0.0113725903 Z" id="矩形备份-18"></path>
                            <path d="M1.93421624,25.4830707 L64.2991844,25.8510865 C65.3648368,25.8573749 66.2248536,26.7240509 66.2229223,27.7897201 C66.2210012,28.8497739 65.3601003,29.70756 64.3000465,29.7056388 C64.2974306,29.7056341 64.2948147,29.705624 64.2921989,29.7056085 L1.92723065,29.3375928 C0.861578307,29.3313044 0.00156147073,28.4646283 0.00349279252,27.3989592 C0.00541393761,26.3389053 0.866314758,25.4811193 1.92636859,25.4830404 C1.92898449,25.4830452 1.93160038,25.4830553 1.93421624,25.4830707 Z" id="矩形备份-20"></path>
                            <path d="M1.93230475,12.7514113 L46.4690265,13.1110477 C47.5354876,13.1196595 48.3950864,13.9873761 48.393674,15.053871 C48.3922738,16.1111068 47.5340798,16.9670307 46.476844,16.9656306 C46.4725365,16.9656249 46.468229,16.9656046 46.4639217,16.9655698 L1.9271999,16.6059334 C0.860738837,16.5973217 0.00113998116,15.729605 0.0025524253,14.6631101 C0.0039526069,13.6058743 0.862146646,12.7499504 1.91938246,12.7513506 C1.92368995,12.7513563 1.9279974,12.7513765 1.93230475,12.7514113 Z" id="矩形备份-19" opacity="0.885974702"></path>
                        </g>
                        <rect id="矩形" fill="#F5FCFF" x="10.1886792" y="12.7358491" width="41.6037736" height="41.6037736" rx="2"></rect>
                        <g id="对号-加粗" transform="translate(18.679245, 21.226415)" fill-rule="nonzero">
                            <rect id="矩形" fill="#000000" opacity="0" x="0" y="0" width="25.4716981" height="25.4716981"></rect>
                            <polygon id="路径" fill="#5DC5FF" points="20.1641425 5.09433962 22.9245283 7.83965671 9.46429153 21.2264151 1.69811321 13.5026317 4.46093969 10.7573147 9.46673218 15.7357809"></polygon>
                        </g>
                    </g>
                    <g id="钱币-面性" transform="translate(94.245283, 0.000000)">
                        <rect id="矩形" fill="#000000" fill-rule="nonzero" opacity="0" x="0" y="0" width="54.3396226" height="54.3396226"></rect>
                        <path d="M47.2531525,17.9272068 C46.1302025,15.2687413 44.5018784,12.8535349 42.458529,10.815597 C40.4205865,8.77225205 38.0053748,7.14393154 35.3469035,6.020984 C32.5915449,4.85461643 29.6291245,4.25634784 26.6370703,4.26197045 C23.645016,4.25634784 20.6825956,4.85461643 17.927237,6.020984 C15.2687554,7.14391252 12.8535402,8.77223537 10.8156116,10.815597 C8.77227782,12.8535479 7.14395591,15.268751 6.02098797,17.9272068 C4.85461257,20.6825752 4.25634261,23.6450065 4.26197053,26.6370708 C4.25635194,29.6291019 4.8546218,32.5914987 6.02098797,35.346835 C7.14393683,38.0053158 8.77226069,40.4205388 10.8156116,42.4584947 C12.853554,44.5018396 15.2687657,46.1301602 17.927237,47.2531077 C20.6826067,48.419445 23.6450175,49.0177287 26.6370703,49.0121703 C29.6291206,49.017704 32.5915265,48.4194213 35.3469035,47.2531077 C38.0053748,46.1301602 40.4205865,44.5018397 42.458529,42.4584947 C44.5018906,40.4205477 46.130216,38.0053225 47.2531525,35.346835 C48.4194989,32.5914926 49.017768,29.6290999 49.0121696,26.6370708 C49.0177746,23.6450088 48.4195055,20.6825822 47.2531525,17.9272068 Z M36.2264672,25.1079389 C36.2264672,25.9905971 35.5109196,26.7061432 34.6282594,26.7061432 L28.235428,26.7061432 L28.235428,29.9012034 L34.6282594,29.9012034 C35.5109196,29.9012034 36.2264672,30.6167495 36.2264672,31.4994077 C36.2264672,32.382066 35.5109196,33.0976121 34.6282594,33.0976121 L28.235428,33.0976121 L28.235428,35.4150084 C28.235428,36.2976667 27.5198803,37.0132144 26.6372201,37.0132144 C26.2132157,37.0138209 25.8064565,36.8454017 25.5069874,36.5452385 C25.206992,36.2456575 25.0386028,35.8389724 25.0390122,35.4150084 L25.0390122,33.0976121 L18.6461808,33.0976121 C17.7635206,33.0976121 17.047973,32.382066 17.047973,31.4994077 C17.047973,30.6167495 17.7635206,29.9012034 18.6461808,29.9012034 L25.0390122,29.9012034 L25.0390122,26.7061432 L18.6461808,26.7061432 C17.7635206,26.7061432 17.047973,25.9905971 17.047973,25.1079389 C17.047973,24.2252806 17.7635206,23.5097345 18.6461808,23.5097345 L24.3787027,23.5097345 L19.8583216,18.9893634 C19.2341715,18.3652147 19.2341715,17.3532517 19.8583216,16.7291528 L19.8583216,16.7291029 C20.4824717,16.1050041 21.494337,16.1050041 22.1184871,16.7291029 L26.6372201,21.2478259 L31.1559031,16.7291029 C31.7800532,16.1050041 32.7919685,16.1050041 33.4161186,16.7291029 C34.0402687,17.3532516 34.0402687,18.3652146 33.4161186,18.9893134 L33.4161186,18.9893634 L28.8956875,23.5097345 L34.6283093,23.5097345 C35.5109695,23.5097345 36.2264672,24.2252806 36.2264672,25.1079389 L36.2264672,25.1079389 Z" id="形状" fill="url(#linearGradient-9)"></path>
                    </g>
                    <path id="形状" d="M78.8992839,115.375459 L87.0240218,121.311673 L77.4002081,124.249735 L78.074,120.258 L77.9264272,120.219961 L77.9264272,120.219961 L77.2791276,120.041578 L77.5513546,119.079345 L78.1855428,119.254115 L78.1855428,119.254115 L78.241,119.269 L78.8992839,115.375459 Z M73.7818687,117.843829 C74.1937924,117.997823 74.6079001,118.146232 75.0240949,118.289008 L75.6499403,118.498943 L75.3383922,119.449173 C74.911486,119.309205 74.4866612,119.163464 74.0640171,119.012 L73.4316987,118.780516 L73.7818687,117.843829 Z M70.1325054,116.306689 C70.5305668,116.493855 70.9311975,116.675618 71.3342978,116.851922 L71.940788,117.112277 L71.5525869,118.033851 C71.1386727,117.859496 70.72723,117.67954 70.3183609,117.494041 L69.7070001,117.211645 L70.1325054,116.306689 Z M66.6214872,114.477528 C67.0030571,114.696511 67.3875841,114.910316 67.7749669,115.118876 L68.3581703,115.427776 L67.8961206,116.314631 C67.4978813,116.107148 67.1025073,115.894283 66.710102,115.6761 L66.1237333,115.344846 L66.6214872,114.477528 Z M138.339194,57.3175576 C138.47303,57.7459402 138.601069,58.1762925 138.723265,58.6085178 L138.902174,59.2582485 L137.936267,59.5171392 C137.82228,59.0918581 137.702548,58.6683656 137.577114,58.246756 L137.384693,57.6157654 L138.339194,57.3175576 Z M136.977436,53.5133674 C137.145879,53.9294442 137.308679,54.3478804 137.465785,54.7685755 L137.697165,55.4013 L136.755671,55.7383296 C136.607339,55.323965 136.453402,54.9117633 136.293911,54.5018227 L136.050513,53.8886198 L136.977436,53.5133674 Z M131.8322,44.7794778 L140.08937,50.5300559 L132.186039,54.8355604 L131.8322,44.7794778 Z M74.9057333,20.7968597 L76.428,24.547 L76.5133124,24.5214023 C76.9084224,24.4026918 77.3051659,24.2888918 77.7034679,24.1800361 L77.9670988,25.1446598 C77.5782091,25.250943 77.1908364,25.362037 76.805053,25.477909 L78.2907891,29.1360082 L68.2591127,28.3514897 L74.9057333,20.7968597 Z M103.718131,24.1053264 C104.152242,24.2212663 104.584533,24.3430687 105.014908,24.4706905 L105.65902,24.6664825 L105.361669,25.6212508 C104.941916,25.4905237 104.520237,25.3654769 104.096727,25.2461526 L103.460101,25.0714633 L103.718131,24.1053264 Z M81.6665601,23.2703886 L81.8500186,24.2534161 C81.4170592,24.3342175 80.9855465,24.4208484 80.5555696,24.5132738 L79.9117674,24.6562535 L79.6883222,23.681537 C80.3442147,23.5311794 81.0037304,23.3940899 81.6665601,23.2703886 Z M99.7748062,23.2231727 C100.217063,23.3032999 100.657871,23.3893799 101.097138,23.4813777 L101.754873,23.6238083 L101.536585,24.5996927 C101.10773,24.5037655 100.677319,24.4136186 100.245439,24.3292863 L99.5965305,24.2071533 L99.7748062,23.2231727 Z M85.6752797,22.6903726 L85.7780826,23.6850744 C85.3397146,23.7303799 84.90245,23.7815588 84.4663718,23.8385833 L83.8131547,23.928501 L83.6700855,22.9387883 C84.3357745,22.8425588 85.0042687,22.7597219 85.6752797,22.6903726 Z M95.7659318,22.6644929 C96.2134695,22.7084085 96.6599108,22.7583182 97.1051705,22.8141945 L97.7721633,22.9024804 L97.6342419,23.8929235 C97.199107,23.83233 96.7627662,23.7775689 96.3253021,23.7286673 L95.6682738,23.6597129 L95.7659318,22.6644929 Z M89.7090946,22.4373353 L89.731579,23.4370825 C89.2907001,23.4469979 88.8506055,23.4627806 88.4113712,23.4844093 L87.7531747,23.5212343 L87.6906327,22.5231919 C88.3615027,22.4811521 89.0344118,22.4525089 89.7090946,22.4373353 Z M91.7124937,22.4318723 C92.1622865,22.4395291 92.6113128,22.4531684 93.0594945,22.4727691 L93.7311239,22.5066386 L93.6740833,23.5050105 C93.2356504,23.4799612 92.7963409,23.4607443 92.3562303,23.4473805 L91.6954733,23.4317275 L91.7124937,22.4318723 Z" fill-opacity="0.851316652" fill="#52A6FF" fill-rule="nonzero"></path>
                </g>
            </g>
        </g>
    </g>
</svg>