<?xml version="1.0" encoding="UTF-8"?>
<svg width="181px" height="180px" viewBox="0 0 181 180" version="1.1" xmlns="http://www.w3.org/2000/svg" xmlns:xlink="http://www.w3.org/1999/xlink">
    <title>编组 27</title>
    <defs>
        <linearGradient x1="50%" y1="0%" x2="50%" y2="98.8202069%" id="linearGradient-1">
            <stop stop-color="#72D0FF" offset="0%"></stop>
            <stop stop-color="#38B0FF" offset="100%"></stop>
        </linearGradient>
        <linearGradient x1="73.1837385%" y1="3.30010352%" x2="13.7259239%" y2="82.6660266%" id="linearGradient-2">
            <stop stop-color="#E5F6FC" offset="0%"></stop>
            <stop stop-color="#C7D1F8" stop-opacity="0" offset="100%"></stop>
        </linearGradient>
        <linearGradient x1="50%" y1="0.422475726%" x2="50%" y2="98.8993046%" id="linearGradient-3">
            <stop stop-color="#72D0FF" offset="0%"></stop>
            <stop stop-color="#388AFF" offset="99.9472128%"></stop>
        </linearGradient>
        <linearGradient x1="50%" y1="0.422475726%" x2="50%" y2="98.8993046%" id="linearGradient-4">
            <stop stop-color="#72D0FF" offset="0%"></stop>
            <stop stop-color="#388AFF" offset="99.9472128%"></stop>
        </linearGradient>
        <linearGradient x1="4.11166301%" y1="49.382716%" x2="97.2086592%" y2="50.4126866%" id="linearGradient-5">
            <stop stop-color="#72D0FF" offset="0%"></stop>
            <stop stop-color="#4EC2F7" offset="100%"></stop>
        </linearGradient>
        <linearGradient x1="4.11166301%" y1="49.853908%" x2="97.2086592%" y2="50.0976702%" id="linearGradient-6">
            <stop stop-color="#72D0FF" offset="0%"></stop>
            <stop stop-color="#4EC2F7" offset="100%"></stop>
        </linearGradient>
        <linearGradient x1="50%" y1="0%" x2="50%" y2="98.8202069%" id="linearGradient-7">
            <stop stop-color="#72D0FF" offset="0%"></stop>
            <stop stop-color="#38B0FF" offset="100%"></stop>
        </linearGradient>
        <linearGradient x1="50%" y1="0.422475726%" x2="50%" y2="98.8993046%" id="linearGradient-8">
            <stop stop-color="#72D0FF" offset="0%"></stop>
            <stop stop-color="#388AFF" offset="99.9472128%"></stop>
        </linearGradient>
        <linearGradient x1="73.1837385%" y1="2.8877444%" x2="13.7259239%" y2="82.9544669%" id="linearGradient-9">
            <stop stop-color="#E5F6FC" offset="0%"></stop>
            <stop stop-color="#C7D1F8" stop-opacity="0" offset="100%"></stop>
        </linearGradient>
        <linearGradient x1="50%" y1="0.422475726%" x2="50%" y2="98.8993046%" id="linearGradient-10">
            <stop stop-color="#72D0FF" offset="0%"></stop>
            <stop stop-color="#388AFF" offset="99.9472128%"></stop>
        </linearGradient>
        <linearGradient x1="50%" y1="0.422475726%" x2="50%" y2="98.8993046%" id="linearGradient-11">
            <stop stop-color="#72D0FF" offset="0%"></stop>
            <stop stop-color="#388AFF" offset="99.9472128%"></stop>
        </linearGradient>
        <linearGradient x1="4.11166301%" y1="48.6111111%" x2="97.2086592%" y2="50.9285449%" id="linearGradient-12">
            <stop stop-color="#72D0FF" offset="0%"></stop>
            <stop stop-color="#4EC2F7" offset="100%"></stop>
        </linearGradient>
        <linearGradient x1="4.11166301%" y1="49.6378452%" x2="97.2086592%" y2="50.2421195%" id="linearGradient-13">
            <stop stop-color="#72D0FF" offset="0%"></stop>
            <stop stop-color="#4EC2F7" offset="100%"></stop>
        </linearGradient>
        <linearGradient x1="50%" y1="0.422475726%" x2="50%" y2="98.8993046%" id="linearGradient-14">
            <stop stop-color="#72D0FF" offset="0%"></stop>
            <stop stop-color="#388AFF" offset="99.9472128%"></stop>
        </linearGradient>
    </defs>
    <g id="产品" stroke="none" stroke-width="1" fill="none" fill-rule="evenodd">
        <g id="智能视频-人脸核验02" transform="translate(-504.000000, -1302.000000)">
            <g id="编组-27" transform="translate(504.000000, 1302.000000)">
                <rect id="矩形" fill="#D8D8D8" opacity="0" x="0" y="0" width="180" height="180"></rect>
                <g id="编组-65" transform="translate(0.000000, 5.094340)">
                    <g id="编组-64" transform="translate(0.000000, 3.396226)">
                        <path d="M144.309265,107.830189 L4.27564062,107.830189 C1.91537459,107.827516 0.00266576147,105.909636 0,103.542989 L0,4.28719648 C0.00266738754,1.92055083 1.91537574,0.00267296497 4.27564062,0 L144.309265,0 C146.66953,0.00267296497 148.582238,1.92055083 148.584906,4.28719648 L148.584906,103.542989 C148.58224,105.909636 146.669531,107.827516 144.309265,107.830189 L144.309265,107.830189 Z" id="路径" fill="url(#linearGradient-1)"></path>
                        <path d="M138.347717,5.94339623 L9.3913751,5.94339623 C7.01945443,5.94642251 5.09738751,7.86102503 5.09433962,10.223744 L5.09433962,97.606424 C5.09738586,99.969147 7.0194504,101.883756 9.3913751,101.886792 L138.347717,101.886792 C140.719007,101.883493 142.63999,99.9685165 142.641509,97.606424 L142.641509,10.223744 C142.639996,7.86165213 140.719007,5.94667759 138.347717,5.94339623 Z" id="路径" fill="#FFFFFF" fill-rule="nonzero"></path>
                        <g id="编组-13" transform="translate(15.283019, 30.566038)">
                            <ellipse id="椭圆形备份-11" fill="url(#linearGradient-2)" cx="23.7610174" cy="23.6568024" rx="23.7610174" ry="23.6568024"></ellipse>
                            <circle id="椭圆形备份-12" fill="#FFFFFF" fill-rule="nonzero" cx="23.2924279" cy="24.9020854" r="11.0377358"></circle>
                            <path d="M23.8552739,12.7209533 C30.8993766,12.7209533 36.6029424,17.1482622 36.6029424,25.8589871 C36.6029424,34.5717974 30.8930928,44.271003 23.8489901,44.271003 C16.8048874,44.271003 11.1013216,34.5717974 11.1013216,25.8589871 C11.1013216,17.1461768 16.8111711,12.7209533 23.8552739,12.7209533 Z M14.2189585,20.1337434 L14.1369936,20.2711664 C13.2504498,21.8075906 12.7434793,23.5887431 12.7434793,25.4877855 C12.7434793,31.279865 17.4595721,35.9752731 23.2771673,35.9752731 C29.0947625,35.9752731 33.8108553,31.279865 33.8108553,25.4877855 C33.8108553,25.1974643 33.7990066,24.9098983 33.7757644,24.6255408 C33.6839265,24.9857713 33.5553154,25.1416087 33.5553154,25.1416087 C21.5837146,27.5711295 15.5305106,21.6355344 14.2189585,20.1337434 Z" id="形状结合" fill="url(#linearGradient-3)" opacity="0.832473028"></path>
                            <path d="M23.8866927,47.4262484 C28.5299229,47.4338226 33.072681,46.0804538 36.9485496,43.534856 C36.0730114,38.7717974 32.7405203,38.4986097 32.7405203,38.4986097 L14.3688804,38.4986097 C14.3688804,38.4986097 11.2269969,38.7551142 10.2425401,43.1386296 C14.2369348,45.9359669 19.0031158,47.4337085 23.8866927,47.4262484 L23.8866927,47.4262484 Z" id="路径备份-6" fill="url(#linearGradient-4)"></path>
                            <path d="M20.6379852,32.4154916 L26.5845233,32.4154916 C26.9720545,32.4154916 27.2862106,32.7282698 27.2862106,33.1141013 L27.2862106,38.2692155 C27.2862106,40.2893601 25.6413455,41.9270109 23.6123016,41.9270109 L23.6123016,41.9270109 C21.5832576,41.9270109 19.9383925,40.2893601 19.9383925,38.2692155 L19.9383925,33.1141013 C19.9383925,32.7290827 20.2512722,32.4166409 20.6379852,32.4154916 Z" id="路径备份-8" fill="#FFFFFF" fill-rule="nonzero"></path>
                        </g>
                        <rect id="矩形备份-17" fill="url(#linearGradient-5)" opacity="0.469470796" x="69.6226415" y="39.9056604" width="30.5660377" height="3.39622642" rx="1.69811321"></rect>
                        <rect id="矩形备份-21" fill="url(#linearGradient-6)" opacity="0.469470796" x="69.6226415" y="48.3962264" width="62.8301887" height="3.39622642" rx="1.69811321"></rect>
                        <rect id="矩形备份-22" fill="url(#linearGradient-6)" opacity="0.469470796" x="69.6226415" y="56.8867925" width="62.8301887" height="3.39622642" rx="1.69811321"></rect>
                        <rect id="矩形备份-23" fill="url(#linearGradient-6)" opacity="0.469470796" x="69.6226415" y="65.3773585" width="62.8301887" height="3.39622642" rx="1.69811321"></rect>
                    </g>
                    <g id="编组-63" transform="translate(136.698113, 0.000000)">
                        <circle id="椭圆形" fill="url(#linearGradient-7)" cx="8.49056604" cy="8.49056604" r="8.49056604"></circle>
                        <polygon id="路径" fill="#FFFFFF" fill-rule="nonzero" points="4.66981132 7.98212592 7.72688943 10.916442 12.0575524 4.24528302 13.5849057 5.57951482 7.72688943 13.5849057 3.39622642 8.51631556"></polygon>
                    </g>
                </g>
                <g id="编组-49" transform="translate(57.735849, 84.905660)">
                    <g id="编组-46" transform="translate(0.000000, 5.943396)">
                        <path d="M112.973527,84.0566038 L3.34721595,84.0566038 C1.49946571,84.0545206 0.00208809535,82.5594819 0,80.7146163 L0,3.34198744 C0.00208809535,1.49712185 1.49946571,0.00208321407 3.34721595,0 L112.973539,0 C114.82129,0.00208321719 116.318668,1.49712364 116.320755,3.34199037 L116.320755,80.7146193 C116.318665,82.5594883 114.821281,84.054527 112.973527,84.0566038 L112.973527,84.0566038 Z" id="路径" fill="url(#linearGradient-8)"></path>
                        <path d="M108.709352,4.24528302 L7.61394741,4.24528302 C5.7544799,4.2476668 4.24767477,5.75562614 4.24528302,7.61652779 L4.24528302,76.4400582 C4.24767475,78.3009628 5.75447703,79.8089272 7.61394741,79.8113208 L108.709352,79.8113208 C110.568326,79.8087226 112.074281,78.3004669 112.075472,76.4400582 L112.075472,7.61652779 C112.074279,5.75612263 110.568322,4.24787302 108.709352,4.24528302 L108.709352,4.24528302 Z" id="路径" fill="#FFFFFF" fill-rule="nonzero"></path>
                        <g id="编组-15" transform="translate(14.433962, 23.773585)">
                            <path d="M40.1277213,20.0638618 C40.1277213,31.1448254 31.1448232,40.1277213 20.0638596,40.1277213 C8.98289591,40.1277213 -7.23949202e-14,31.1448254 -7.23949202e-14,20.0638618 C-7.23949202e-14,8.9828981 8.98289591,2.41316401e-14 20.0638596,2.41316401e-14 C25.3858881,-0.0024851034 30.4906546,2.110581 34.2538975,5.87382387 C38.0171403,9.63706675 40.1302064,14.7418332 40.1277213,20.0638618 Z" id="路径备份" fill="url(#linearGradient-9)"></path>
                            <g id="编组-16" transform="translate(5.015965, 10.031930)">
                                <path d="M16.6155762,0.953512914 C16.6155762,0.953512914 20.4925431,-0.431119191 22.9848779,5.10740321 C25.4772127,10.6459256 29.3541795,16.7383039 29.3541795,16.7383039 L27.1387712,17.2921567 C27.1387712,17.2921567 26.5849183,13.4151898 25.2002862,12.861337 L25.7541391,17.8460095 C25.7541391,17.8460095 9.13855383,23.6614584 1.66155552,17.2921567 L1.93848194,15.3536868 C1.93848194,15.3536868 0.830776253,15.6306132 0.830776253,17.2921567 L3.07059651e-14,16.4613774 C3.07059651e-14,16.4613774 0.830776253,14.7998219 3.32311404,12.5844106 C4.95897377,11.1303144 5.52112703,8.36390924 5.71430589,6.63430715 C5.85903333,5.1900692 6.436865,3.8232879 7.37201818,2.71321682 C9.02830994,0.793674168 12.0462948,-1.2465195 16.6155762,0.953512914 Z" id="形状结合" fill="url(#linearGradient-10)" opacity="0.832473028"></path>
                                <circle id="椭圆形备份-10" fill="#FFFFFF" fill-rule="nonzero" cx="14.2485784" cy="10.8696306" r="7.16853753"></circle>
                                <rect id="矩形备份-16" fill="#FFFFFF" fill-rule="nonzero" x="11.5286081" y="16.5262158" width="5.41724238" height="5.41724238"></rect>
                                <path d="M24.8730908,26.9574079 C18.1759751,31.0202012 9.71422068,30.757172 3.28237036,26.2862718 C4.62981703,23.4517414 7.48724537,21.6447693 10.6257434,21.6424912 L17.2468174,21.6424912 C20.6511452,21.6421053 23.694988,23.7634259 24.8730908,26.9574079 L24.8730908,26.9574079 Z" id="路径备份-4" fill="url(#linearGradient-11)" opacity="0.832473028"></path>
                            </g>
                        </g>
                        <rect id="矩形备份-17" fill="url(#linearGradient-12)" opacity="0.469470796" x="61.9811321" y="29.7169811" width="20.3773585" height="3.39622642" rx="1.69811321"></rect>
                        <rect id="矩形备份-21" fill="url(#linearGradient-13)" opacity="0.469470796" x="61.9811321" y="38.2075472" width="39.9056604" height="3.39622642" rx="1.69811321"></rect>
                        <rect id="矩形备份-22" fill="url(#linearGradient-13)" opacity="0.469470796" x="61.9811321" y="46.6981132" width="39.9056604" height="3.39622642" rx="1.69811321"></rect>
                        <rect id="矩形备份-23" fill="url(#linearGradient-13)" opacity="0.469470796" x="61.9811321" y="55.1886792" width="39.9056604" height="3.39622642" rx="1.69811321"></rect>
                    </g>
                    <g id="编组-48" transform="translate(105.283019, 0.000000)">
                        <circle id="椭圆形" fill="url(#linearGradient-7)" cx="8.49056604" cy="8.49056604" r="8.49056604"></circle>
                        <polygon id="路径" fill="#FFFFFF" fill-rule="nonzero" points="4.66981132 7.98212592 7.72688943 10.916442 12.0575524 4.24528302 13.5849057 5.57951482 7.72688943 13.5849057 3.39622642 8.51631556"></polygon>
                    </g>
                </g>
                <g id="编组-66" transform="translate(11.886792, 116.320755)">
                    <path id="路径-10" d="M37.3490566,42.1981132 L46.3490566,46.6981132 L37.3490566,51.1981132 L37.349,47.198 L37.3018868,47.1981132 L37.3018868,46.1981132 L37.349,46.198 L37.3490566,42.1981132 Z M3.30188679,46.1981132 L3.30188679,47.1981132 L1.30188679,47.1981132 L1.30188679,46.1981132 L3.30188679,46.1981132 Z M7.30188679,46.1981132 L7.30188679,47.1981132 L5.30188679,47.1981132 L5.30188679,46.1981132 L7.30188679,46.1981132 Z M11.3018868,46.1981132 L11.3018868,47.1981132 L9.30188679,47.1981132 L9.30188679,46.1981132 L11.3018868,46.1981132 Z M15.3018868,46.1981132 L15.3018868,47.1981132 L13.3018868,47.1981132 L13.3018868,46.1981132 L15.3018868,46.1981132 Z M19.3018868,46.1981132 L19.3018868,47.1981132 L17.3018868,47.1981132 L17.3018868,46.1981132 L19.3018868,46.1981132 Z M23.3018868,46.1981132 L23.3018868,47.1981132 L21.3018868,47.1981132 L21.3018868,46.1981132 L23.3018868,46.1981132 Z M27.3018868,46.1981132 L27.3018868,47.1981132 L25.3018868,47.1981132 L25.3018868,46.1981132 L27.3018868,46.1981132 Z M31.3018868,46.1981132 L31.3018868,47.1981132 L29.3018868,47.1981132 L29.3018868,46.1981132 L31.3018868,46.1981132 Z M35.3018868,46.1981132 L35.3018868,47.1981132 L33.3018868,47.1981132 L33.3018868,46.1981132 L35.3018868,46.1981132 Z M0.5,44 L0.5,46 L-0.5,46 L-0.5,44 L0.5,44 Z M0.5,40 L0.5,42 L-0.5,42 L-0.5,40 L0.5,40 Z M0.5,36 L0.5,38 L-0.5,38 L-0.5,36 L0.5,36 Z M0.5,32 L0.5,34 L-0.5,34 L-0.5,32 L0.5,32 Z M0.5,28 L0.5,30 L-0.5,30 L-0.5,28 L0.5,28 Z M0.5,24 L0.5,26 L-0.5,26 L-0.5,24 L0.5,24 Z M0.5,20 L0.5,22 L-0.5,22 L-0.5,20 L0.5,20 Z M0.5,16 L0.5,18 L-0.5,18 L-0.5,16 L0.5,16 Z M0.5,12 L0.5,14 L-0.5,14 L-0.5,12 L0.5,12 Z M-3.061617e-17,-0.5 L4.5,8.5 L0.5,8.5 L0.5,10 L-0.5,10 L-0.5,8.5 L-4.5,8.5 L-3.061617e-17,-0.5 Z" fill-opacity="0.851316652" fill="#52A6FF" fill-rule="nonzero"></path>
                    <g id="上传" transform="translate(11.037736, 11.886792)">
                        <rect id="矩形" fill="#000000" fill-rule="nonzero" opacity="0" x="0" y="0" width="23.7735849" height="23.7735849"></rect>
                        <path d="M18.2396227,10.1367924 C18.0657233,6.91415094 15.3977988,4.35628932 12.1333333,4.35628932 C8.79402515,4.35628932 6.0798742,7.03301888 6.018239,10.3569182 C4.23742139,11.0150944 2.96729559,12.7298742 2.96729559,14.7418239 C2.96729559,17.3216981 5.05849056,19.4150943 7.64056603,19.4150943 C8.75660377,19.4150943 9.78018867,19.0254717 10.5836478,18.3716981 L10.5836478,14.2685535 L8.50125787,14.2685535 L12.1333333,10.8522013 L15.7654088,14.2685535 L13.6830189,14.2685535 L13.6830189,18.1779874 C14.4006289,18.6358491 15.254717,18.9022013 16.1704403,18.9022013 C18.7261006,18.9022013 20.7974843,16.8308176 20.7974843,14.2751572 C20.7974843,12.463522 19.7562893,10.8962264 18.2396227,10.1367924 Z" id="路径" fill="url(#linearGradient-14)"></path>
                    </g>
                </g>
            </g>
        </g>
    </g>
</svg>