<?xml version="1.0" encoding="UTF-8"?>
<svg width="181px" height="180px" viewBox="0 0 181 180" version="1.1" xmlns="http://www.w3.org/2000/svg" xmlns:xlink="http://www.w3.org/1999/xlink">
    <title>编组 28</title>
    <defs>
        <linearGradient x1="50%" y1="0.422475726%" x2="50%" y2="98.8993046%" id="linearGradient-1">
            <stop stop-color="#72D0FF" offset="0%"></stop>
            <stop stop-color="#388AFF" offset="99.9472128%"></stop>
        </linearGradient>
        <linearGradient x1="70.8075658%" y1="2.8877444%" x2="17.4437655%" y2="82.9544669%" id="linearGradient-2">
            <stop stop-color="#E5F6FC" offset="0%"></stop>
            <stop stop-color="#C7D1F8" stop-opacity="0" offset="100%"></stop>
        </linearGradient>
        <linearGradient x1="50%" y1="0.422475726%" x2="50%" y2="98.8993046%" id="linearGradient-3">
            <stop stop-color="#72D0FF" offset="0%"></stop>
            <stop stop-color="#388AFF" offset="99.9472128%"></stop>
        </linearGradient>
        <linearGradient x1="50%" y1="0.422475726%" x2="50%" y2="98.8993046%" id="linearGradient-4">
            <stop stop-color="#72D0FF" offset="0%"></stop>
            <stop stop-color="#388AFF" offset="99.9472128%"></stop>
        </linearGradient>
        <linearGradient x1="50%" y1="0.422475726%" x2="50%" y2="98.8993046%" id="linearGradient-5">
            <stop stop-color="#72D0FF" offset="0%"></stop>
            <stop stop-color="#388AFF" offset="99.9472128%"></stop>
        </linearGradient>
        <linearGradient x1="50%" y1="0%" x2="50%" y2="98.8202069%" id="linearGradient-6">
            <stop stop-color="#72D0FF" offset="0%"></stop>
            <stop stop-color="#38B0FF" offset="100%"></stop>
        </linearGradient>
        <linearGradient x1="50%" y1="0%" x2="50%" y2="98.8202069%" id="linearGradient-7">
            <stop stop-color="#72D0FF" offset="0%"></stop>
            <stop stop-color="#38B0FF" offset="100%"></stop>
        </linearGradient>
    </defs>
    <g id="产品" stroke="none" stroke-width="1" fill="none" fill-rule="evenodd">
        <g id="智能视频-人脸核验02" transform="translate(-504.000000, -1806.000000)">
            <g id="编组-28" transform="translate(504.000000, 1806.000000)">
                <rect id="矩形" fill="#D8D8D8" opacity="0" x="0" y="0" width="180" height="180"></rect>
                <g id="编组-69" transform="translate(0.000000, 5.094340)">
                    <path id="形状" d="M169.575103,98.5435372 L172.964,100.591 L173.162961,100.200329 C173.310121,99.9041454 173.454878,99.6066804 173.597213,99.3079627 L174.499969,99.7381148 C174.30704,100.143013 174.109735,100.545649 173.908096,100.945952 L173.824,101.11 L177.278573,103.197197 L168.773178,108.573837 L169.575103,98.5435372 Z M175.184521,95.673589 L176.113587,96.043504 C175.947707,96.4601212 175.777331,96.8747488 175.602496,97.2873183 L175.336903,97.9046204 L174.420495,97.5043747 C174.68504,96.8986704 174.939756,96.2883326 175.184521,95.673589 Z M176.531883,91.9366556 L177.483236,92.2447582 L177.164684,93.2015515 L177.164684,93.2015515 L176.830709,94.1523676 L175.889967,93.8132426 C176.114035,93.1916737 176.328042,92.5660711 176.531883,91.9366556 Z M177.633167,88.1118591 L178.602685,88.3568784 L178.347509,89.3329362 L178.347509,89.3329362 L178.076632,90.3038985 L177.115642,90.0273149 C177.298432,89.392212 177.470971,88.7536559 177.633167,88.1118591 Z M178.477669,84.2447428 L179.461057,84.426258 L179.26991,85.4166502 L179.26991,85.4166502 L179.062889,86.4027998 L178.085925,86.1893921 C178.226905,85.5439997 178.357512,84.8957159 178.477669,84.2447428 Z M179.072296,80.3109168 L180.065389,80.4282448 L179.938945,81.4291001 L179.938945,81.4291001 L179.796526,82.4265286 L178.807742,82.2771788 C178.906393,81.6240486 178.994599,80.9685644 179.072296,80.3109168 Z M179.411704,76.343638 L180.410289,76.3968146 L180.348601,77.4036602 L180.348601,77.4036602 L180.270933,78.4078524 L179.27456,78.3227574 C179.330749,77.6648362 179.376481,77.0050704 179.411704,76.343638 Z M180.496332,72.3345035 C180.498788,72.5634877 180.5,72.791632 180.499999,73.0270228 L180.49644,73.6930831 L180.49644,73.6930831 L180.485936,74.3582758 L179.486157,74.3372616 C179.495325,73.9010582 179.499944,73.4642534 179.499999,73.0269578 L179.499101,72.6837025 L179.499101,72.6837025 L179.496389,72.3452283 L180.496332,72.3345035 Z M180.32511,68.3074169 L180.391929,69.3122731 L180.391929,69.3122731 L180.442776,70.3196575 L179.443678,70.3621028 L179.393635,69.3706652 L179.393635,69.3706652 L179.327876,68.3817388 L180.32511,68.3074169 Z M179.89604,64.2957584 L180.027344,65.2943373 L180.027344,65.2943373 L180.142678,66.2962055 L179.148349,66.4025605 L179.034861,65.4167154 L179.034861,65.4167154 L178.905659,64.434124 L179.89604,64.2957584 Z M179.207041,60.313045 L179.403009,61.3014113 L179.403009,61.3014113 L179.58308,62.2938773 L178.597727,62.4644039 L178.420558,61.4879295 L178.420558,61.4879295 L178.22775,60.5155009 L179.207041,60.313045 Z M178.256416,56.3713671 L178.516793,57.3449621 L178.516793,57.3449621 L178.761439,58.3235082 L177.78935,58.5581231 L177.548667,57.5954265 L177.548667,57.5954265 L177.29251,56.6376088 L178.256416,56.3713671 Z M64.0190122,46.0306134 L67.812,47.418 L67.9750684,47.0582814 C68.103597,46.7787652 68.2342004,46.5002803 68.3668657,46.2228492 L69.2690241,46.6542541 L68.8836186,47.4760572 L68.8836186,47.4760572 L68.754,47.762 L72.4712451,49.1224994 L65.1532426,56.0287893 L64.0190122,46.0306134 Z M177.061928,52.5382847 L177.385195,53.4928763 L177.385195,53.4928763 L177.692985,54.4532928 L176.738223,54.7506665 L176.435436,53.8058592 L176.435436,53.8058592 L176.117425,52.8667873 L177.061928,52.5382847 Z M175.607486,48.7621948 C175.782148,49.174595 175.95235,49.5890407 176.118058,50.0054637 L176.363242,50.6315728 L175.430111,50.9911075 L175.065835,50.0683339 L175.065835,50.0683339 L174.686667,49.1521854 L175.607486,48.7621948 Z M169.669912,38.7618499 L178.032049,44.3586949 L174.525,46.353 L174.555095,46.4156263 L174.555095,46.4156263 L174.782513,46.9009664 L173.875147,47.3213072 L173.654,46.849 L170.209718,48.8096661 L169.669912,38.7618499 Z M70.225609,42.6436314 L71.0974097,43.1334921 L70.6188319,44.0018864 L70.6188319,44.0018864 L70.1544154,44.8784402 L69.266951,44.4175639 C69.5768797,43.8207646 69.8964825,43.2293749 70.225609,42.6436314 Z M72.3165611,39.1940496 L73.1541469,39.7403553 C73.0994093,39.8243802 73.0994093,39.8243802 73.0448562,39.9085311 L72.5654953,40.6610679 L72.5654953,40.6610679 L72.0975126,41.4203834 L71.2423398,40.9020404 C71.5557463,40.3849761 71.8766177,39.8729061 72.2054451,39.365034 C72.2609119,39.2794738 72.2609119,39.2794738 72.3165611,39.1940496 Z M74.6272281,35.8948423 L75.4269081,36.4952687 L74.8381428,37.2930901 L74.8381428,37.2930901 L74.2624148,38.1008971 L73.4432988,37.5272692 C73.8290722,36.9764014 74.2237763,36.432181 74.6272281,35.8948423 Z M77.1721479,32.731212 L77.9299334,33.3837158 L77.2892779,34.1403705 L77.2892779,34.1403705 L76.660997,34.9079129 L75.8819511,34.280946 C76.3035918,33.7570308 76.7337234,33.2403765 77.1721479,32.731212 Z M79.9181876,29.7501017 L80.6305574,30.451906 C80.3213551,30.7657633 80.015562,31.0831562 79.7132399,31.4040201 L79.2623677,31.8879112 L78.5269592,31.2102872 C78.9827555,30.7156228 79.4465687,30.2288207 79.9181876,29.7501017 Z M82.8555314,26.9626653 L83.519038,27.7108358 C83.1895343,28.0030524 82.8632092,28.2990504 82.5401276,28.5987684 L82.057946,29.0511279 L81.369683,28.3256666 C81.8575374,27.8628272 82.3528943,27.4084234 82.8555314,26.9626653 Z M85.9743121,24.3801222 L86.5855779,25.1715476 C86.2368735,25.4408731 85.8911102,25.7142189 85.5483557,25.9915273 L85.0364889,26.4104548 L84.3987843,25.6401738 C84.9170667,25.2110952 85.4423198,24.7910121 85.9743121,24.3801222 Z M89.2587372,22.0176838 L89.8145614,22.8489836 C89.4482706,23.0938932 89.0846715,23.3430426 88.7238334,23.5963787 L88.1846557,23.9795161 L87.6007896,23.1676661 C88.1471101,22.7747634 88.6998385,22.391375 89.2587372,22.0176838 Z M148.609245,14.5209637 L154.11126,22.9457975 L144.070184,22.2925096 L146.068,18.872 L145.960103,18.8199129 C145.761543,18.7244921 145.562448,18.6302295 145.362826,18.5371303 L144.762388,18.261328 L145.174516,17.3502019 C145.582894,17.5349229 145.98916,17.7243983 146.393241,17.9185856 L146.573,18.006 L148.609245,14.5209637 Z M92.6673557,19.9030731 L93.1651746,20.770354 C92.7832703,20.9895669 92.4037999,21.2132123 92.0268333,21.4412418 L91.4632701,21.786568 L90.9359283,20.9369148 C91.5073293,20.5822717 92.0845518,20.2376022 92.6673557,19.9030731 Z M96.2303684,18.0183631 L96.6670708,18.9179691 C96.2708265,19.1103209 95.8767569,19.3072844 95.4849319,19.508816 L94.8988867,19.8145341 L94.4312652,18.9306052 C95.0258176,18.6160715 95.6255989,18.3119408 96.2303684,18.0183631 Z M99.9387006,16.3759784 L100.311333,17.3039572 C99.9023055,17.4682037 99.495191,17.6372207 99.0900591,17.8109697 L98.4838569,18.0751376 L98.0790414,17.1607392 C98.6943797,16.8883212 99.3143456,16.6266901 99.9387006,16.3759784 Z M141.441696,15.816379 C141.862084,15.9721618 142.280625,16.1328447 142.697252,16.2983907 L143.320746,16.5503523 L142.940675,17.4753099 C142.53317,17.3078637 142.123751,17.1451793 141.712488,16.9872931 L141.094218,16.754067 L141.441696,15.816379 Z M103.745587,15.0005826 L104.052071,15.9524583 C103.63281,16.0874516 103.215198,16.2273319 102.799302,16.372066 L102.176752,16.5928034 L101.837067,15.6522643 C102.469305,15.4239247 103.105556,15.2066592 103.745587,15.0005826 Z M137.608162,14.5470291 C138.038509,14.6729165 138.467277,14.8038194 138.894397,14.9397056 L139.533834,15.1472685 L139.219529,16.0965905 C138.801481,15.9581818 138.381784,15.8246546 137.960503,15.6960402 L137.327403,15.5068073 L137.608162,14.5470291 Z M107.613866,13.9030987 L107.852906,14.8741082 C107.424664,14.9795319 106.997817,15.0899476 106.572432,15.2053266 L105.935457,15.3821143 L105.662376,14.4201235 C106.309524,14.2364164 106.960096,14.064042 107.613866,13.9030987 Z M133.682616,13.5478024 C134.120993,13.6430321 134.558052,13.7433644 134.993727,13.8487722 L135.646193,14.0106871 L135.399652,14.9798196 C134.972955,14.8712706 134.544865,14.7676953 134.115448,14.6691202 L133.470334,14.525011 L133.682616,13.5478024 Z M111.583349,13.0736225 L111.75316,14.0590992 C111.31868,14.1339659 110.885343,14.2138815 110.453213,14.2988221 L109.805929,14.4299988 L109.601568,13.4511033 C110.259404,13.3137687 110.920069,13.1879145 111.583349,13.0736225 Z M129.721021,12.8317901 C130.165135,12.8960713 130.608182,12.9655066 131.050099,13.0400737 L131.712121,13.1557702 L131.534202,14.1398154 C131.101108,14.0615107 130.666872,13.9882368 130.231554,13.9200159 L129.577774,13.821477 L129.721021,12.8317901 Z M115.589248,12.5276216 L115.689436,13.52259 C115.250466,13.5667924 114.812401,13.6160771 114.3753,13.6704246 L113.720378,13.7557406 L113.585412,12.7648904 C114.25116,12.6742071 114.919172,12.5950952 115.589248,12.5276216 Z M125.696977,12.3930408 C126.144759,12.4260347 126.591716,12.4642031 127.037789,12.5075279 L127.706229,12.57638 L127.597975,13.5705034 C127.160512,13.5228666 126.722147,13.4802874 126.282937,13.4427837 L125.623493,13.3903372 L125.696977,12.3930408 Z M119.618686,12.2634111 L119.649396,13.2629394 C119.208226,13.2764942 118.767736,13.2951287 118.327981,13.318827 L117.668906,13.3581705 L117.603539,12.3603092 C118.27359,12.3164158 118.945368,12.2840986 119.618686,12.2634111 Z M121.64909,12.2363157 C122.098201,12.2381073 122.546714,12.2450569 122.994575,12.2571499 L123.66587,12.2791452 L123.627363,13.2784035 C123.187835,13.2614661 122.74763,13.2495767 122.306803,13.2427497 L121.6451,13.2363078 L121.64909,12.2363157 Z" fill-opacity="0.851316652" fill="#52A6FF" fill-rule="nonzero"></path>
                    <g id="编组-14" transform="translate(0.000000, 55.188679)">
                        <path d="M9.61,0 L158.39,0 C163.697456,-9.74963932e-16 168,4.30254355 168,9.61 L168,106.39 C168,111.697456 163.697456,116 158.39,116 L9.61,116 C4.30254355,116 6.49975955e-16,111.697456 0,106.39 L0,9.61 C-6.49975955e-16,4.30254355 4.30254355,6.30403445e-15 9.61,0 Z" id="矩形" fill="url(#linearGradient-1)"></path>
                        <polygon id="矩形" fill="#FFFFFF" fill-rule="nonzero" points="3 9 165 9 165 107 3 107"></polygon>
                        <g id="编组-23" transform="translate(7.641509, 17.816604)">
                            <rect id="矩形" fill="url(#linearGradient-2)" x="0" y="0" width="76.4150943" height="80.6603774" rx="4"></rect>
                            <g id="编组-22" transform="translate(7.641509, 4.245283)">
                                <g id="编组-21" transform="translate(15.283019, 8.490566)" fill="#FFFFFF" fill-rule="nonzero">
                                    <path d="M34.8113208,32.6533173 L22.4556969,47.8838814 L9.48887407,46.9052436 C9.48887407,46.9052436 -7.36141351,47.8838814 3.84703671,36.5843161 C9.24439445,31.1565772 6.04654881,27.3175967 6.40386518,24.1102965 C6.71869568,22.252364 11.4077783,19.6703495 10.5702262,17.9408556 L24.6184013,16.4687871 C23.987147,18.1230109 23.908856,19.9004487 24.3927278,21.5922435 C26.2169218,27.9575009 34.8113208,32.6533173 34.8113208,32.6533173 Z" id="路径"></path>
                                    <circle id="椭圆形" cx="16.5566038" cy="12.3113208" r="12.3113208"></circle>
                                </g>
                                <path d="M0,75.5660377 C0.833934622,67.9871548 2.18004526,60.4720007 4.02929944,53.0710024 C6.98336447,41.3356156 9.47637111,41.5518852 9.58692459,41.5675314 L9.59074845,41.5681447 L25.2677706,39.0566038 C25.2677706,39.0566038 24.1495424,39.6118814 23.165333,41.3347928 L27.1923594,46.7004165 L27.7867227,47.5644411 C27.9347786,47.5809221 28.0188679,47.5874713 28.0188679,47.5874713 L28.0188679,47.5874713 L27.912,47.7484906 L32.661489,54.6728262 C32.661489,54.6728262 37.1468422,49.1996045 37.1468422,44.7177274 C38.3872407,42.3174347 40.5413358,40.5162417 43.1245342,39.7193514 L43.3651454,39.6401991 C43.337729,38.8799045 43.3166406,38.119309 43.3018868,37.3584906 L59.9686104,45.4021847 C59.9686104,45.4021847 61.989588,45.9070191 60.9748712,53.9507132 L61.9811321,75.5660377 Z" id="形状结合" fill="url(#linearGradient-3)"></path>
                                <path d="M27.467542,14.7824006 C27.2499438,16.7985769 25.8606632,18.456507 24.7057191,20.1310997 C23.550775,21.8056924 22.5464758,23.8718565 23.1909011,25.7963885 C23.4419759,26.5462061 23.9357564,27.2127107 24.1115087,27.9875222 C24.4127985,29.3205313 23.7348965,30.695197 23.8520648,32.0532 C24.0110788,33.9194128 25.6012192,35.3024098 26.4799811,36.9520086 C28.3379346,40.4428262 26.9151774,44.7667746 24.906579,48.1659478 C22.8979805,51.5651211 20.2700642,54.7893369 19.6089006,58.6800573 C18.9979519,62.2791819 20.1696343,65.9199631 21.4333775,69.3441303 C21.7643696,70.0066101 21.8644801,70.7599052 21.7179289,71.4852762 C21.3329476,72.6349965 19.8850829,72.9765801 18.6631855,73.0598932 C17.3282062,73.1427674 15.989337,73.1427674 14.6543578,73.0598932 C14.1490413,73.0685119 13.6483226,72.9631245 13.1897548,72.7516348 C12.2691471,72.2517564 11.9929649,71.0853734 11.6498293,70.1189418 C11.3066937,69.1525102 10.5534693,68.0527777 9.50732429,68.1610847 C8.82105316,68.2360664 8.28542691,68.8192579 7.60752494,68.9358962 C6.97102225,68.9937224 6.34622071,68.7387124 5.93369291,68.2527291 C4.68668805,66.9113886 4.98797781,64.7452488 5.80815551,63.1123126 C6.6283332,61.4793764 7.88370722,60.0547229 8.42770263,58.3134798 C9.77513742,53.9812001 6.40236588,49.690577 5.69098727,45.2083338 C5.53436099,44.4777337 5.57478603,43.7188809 5.80815551,43.0088688 C6.4191042,41.4592457 8.26868859,40.8843855 9.59101589,39.867966 C12.2942546,37.776808 12.629021,33.9027502 12.8466192,30.5035769 C13.0930354,26.4178582 13.5455406,22.3470471 14.2024231,18.3065435 C14.5080645,15.7672909 15.2557269,13.3004511 16.4118814,11.0166498 C17.5135915,9.25010975 18.8352394,7.62931603 20.3453867,6.19282304 C22.4042001,4.06000845 24.5299667,1.87720601 27.3085279,0.777473479 C30.4474497,-0.346909077 33.8972919,-0.248702942 36.9665387,1.05240661 C40.0044986,2.35928914 42.7586905,4.24087195 45.0762549,6.59272578 C47.2614109,8.51304228 48.9786473,10.9034505 50.097751,13.5826924 C51.3280175,16.9568717 50.934667,20.6726346 51.3112792,24.2467654 C51.5992449,27.1276925 52.3597675,29.9421268 53.5625833,32.5780724 C54.8765414,35.444042 56.7261258,38.185042 57.0106773,41.3259448 C57.2366446,43.8253369 56.4164669,46.324729 55.9980089,48.7824645 C55.2615228,53.0897503 55.7050883,57.4970117 56.1402846,61.8376226 C56.1947945,62.8939268 56.4092309,63.9359804 56.7763408,64.9285376 C57.5043139,66.3116087 58.5200117,67.5243653 59.7557618,68.4860057 C60.0365202,68.6822012 60.2264621,68.9823326 60.2830189,69.3191364 C60.2639186,69.6084616 60.120599,69.8755911 59.8896683,70.0522914 C58.3748504,71.3936318 55.7553032,70.4022063 54.1149478,71.5935832 C53.6570182,71.990695 53.2393478,72.4315907 52.867943,72.9099297 C51.4467007,74.4469034 49.2840862,75.0683519 47.258672,74.5218088 C45.2332578,73.9752658 43.681975,72.3516495 43.2350397,70.3105619 C42.8082125,68.361036 43.4442687,66.3615224 43.6869743,64.3786713 C44.4401987,58.1218597 41.2264412,52.1733065 38.6654782,46.4163733 C37.4603192,43.7253612 36.3639592,40.8094037 36.8075247,37.8934463 C37.1673986,35.552349 38.4813567,33.4945162 39.4438101,31.3283763 C41.3770861,27.004428 41.9545582,21.9389933 40.2807261,17.4984067 C39.0273816,14.1125511 36.4832181,11.3553684 33.2004167,9.82527291 C32.0119959,9.29206926 30.3214256,8.55891424 29.0744207,9.27540664 C27.0072381,10.4834462 27.6349252,12.9245191 27.467542,14.7824006 Z" id="路径" fill="url(#linearGradient-4)"></path>
                            </g>
                        </g>
                        <rect id="矩形" fill="#E8EAF1" fill-rule="nonzero" x="93.9826525" y="22.8381671" width="62.9126214" height="2.61994609" rx="1.30997305"></rect>
                        <rect id="矩形" fill="#E8EAF1" fill-rule="nonzero" x="93.9826525" y="29.82469" width="62.9126214" height="2.61994609" rx="1.30997305"></rect>
                        <rect id="矩形" fill="#E8EAF1" fill-rule="nonzero" x="93.9826525" y="36.8112129" width="62.9126214" height="2.61994609" rx="1.30997305"></rect>
                        <rect id="矩形" fill="#E8EAF1" fill-rule="nonzero" x="93.9826525" y="43.7977358" width="62.9126214" height="2.61994609" rx="1.30997305"></rect>
                        <rect id="矩形" fill="#E8EAF1" fill-rule="nonzero" x="93.9826525" y="50.7842588" width="62.9126214" height="2.61994609" rx="1.30997305"></rect>
                        <rect id="矩形" fill="#E8EAF1" fill-rule="nonzero" x="93.9826525" y="57.7707817" width="62.9126214" height="2.61994609" rx="1.30997305"></rect>
                        <rect id="矩形" fill="#E8EAF1" fill-rule="nonzero" x="93.9826525" y="64.7573046" width="62.9126214" height="2.61994609" rx="1.30997305"></rect>
                        <rect id="矩形" fill="#E8EAF1" fill-rule="nonzero" x="93.9826525" y="71.7438275" width="62.9126214" height="2.61994609" rx="1.30997305"></rect>
                        <rect id="矩形" fill="#E8EAF1" fill-rule="nonzero" x="93.9826525" y="78.7303504" width="62.9126214" height="2.61994609" rx="1.30997305"></rect>
                        <rect id="矩形" fill="#E8EAF1" fill-rule="nonzero" x="93.9826525" y="85.7168733" width="62.9126214" height="2.61994609" rx="1.30997305"></rect>
                        <rect id="矩形" fill="#E8EAF1" fill-rule="nonzero" x="93.9826525" y="92.7033962" width="62.9126214" height="2.61994609" rx="1.30997305"></rect>
                    </g>
                    <g id="编组-20">
                        <path d="M4.09557698,0.0053184986 L121.670097,0.446041526 C123.877809,0.45790036 125.661373,2.25327734 125.658657,4.46101897 L125.576184,33.3681821 C125.573462,35.5773223 123.777499,37.3630667 121.568369,37.356764 C121.567175,37.3567605 121.565981,37.3567566 121.5648,37.3531721 L3.99028006,36.912449 C1.78256861,36.9005902 -0.000995220632,35.1052132 0.00172020731,32.8974716 L0.0841930361,3.9903085 C0.0869156614,1.78116827 1.88287872,-0.00457608935 4.09200873,0.00172661148 C4.09320262,0.00173001769 4.09439651,0.00173395841 4.09557698,0.0053184986 Z" id="形状结合" fill="url(#linearGradient-5)"></path>
                        <circle id="椭圆形" fill="#FFFFFF" fill-rule="nonzero" cx="16.9714417" cy="18.6695751" r="10.1886792"></circle>
                        <polygon id="矩形" fill="#FFFFFF" fill-rule="nonzero" points="38.2091054 10.179009 86.5940832 10.3283691 86.5828346 13.5752354 38.1978568 13.4258754"></polygon>
                        <polygon id="矩形" fill="#FFFFFF" fill-rule="nonzero" points="38.2059171 16.9714619 114.612951 17.2840706 114.604891 20.3676883 38.1978568 20.0550795"></polygon>
                        <polygon id="矩形" fill="#FFFFFF" fill-rule="nonzero" points="38.2059171 23.7639147 114.612951 24.0765234 114.604891 27.1601411 38.1978568 26.8475324"></polygon>
                        <g id="播放" transform="translate(10.178989, 11.877122)">
                            <rect id="矩形" fill="#000000" fill-rule="nonzero" opacity="0" x="0" y="0" width="13.5849057" height="13.5849057"></rect>
                            <path d="M6.79377948,0.847729953 C3.51164505,0.847729953 0.851709906,3.50766509 0.851709906,6.78979953 C0.851709906,10.071934 3.51164505,12.7318691 6.79377948,12.7318691 C10.0759139,12.7318691 12.7358496,10.071934 12.7358496,6.78979953 C12.7371757,3.50766509 10.0759139,0.847729953 6.79377948,0.847729953 Z M9.58637972,7.21830778 L5.48835495,9.58372642 C5.15801887,9.77476415 4.74543042,9.53596698 4.74543042,9.15521816 L4.74543042,4.4243809 C4.74543042,4.04363208 5.15801887,3.80483491 5.48835495,3.99587264 L9.58505307,6.36129127 C9.91538915,6.55100236 9.91538915,7.0285967 9.58637972,7.21830778 Z" id="形状" fill="url(#linearGradient-6)"></path>
                        </g>
                    </g>
                    <g id="成功" transform="translate(152.830189, 16.132075)">
                        <rect id="矩形" fill="#000000" fill-rule="nonzero" opacity="0" x="2.54716981" y="6.79245283" width="13.5849057" height="13.5849057"></rect>
                        <path d="M13.5849057,0 C6.08216392,0 0,6.08216392 0,13.5849057 C0,21.0876474 6.08216392,27.1698113 13.5849057,27.1698113 C21.0876474,27.1698113 27.1698113,21.0876474 27.1698113,13.5849057 C27.1698113,6.08216392 21.0876474,0 13.5849057,0 Z M21.0145224,10.3579068 L12.1590212,19.213355 C11.9517983,19.4205778 11.6157842,19.4205778 11.4085613,19.213355 L6.15528892,13.9600825 C5.94806604,13.7529127 5.94806604,13.4168986 6.15528892,13.2096757 L7.80633255,11.5586851 C8.01355542,11.3514092 8.34956958,11.3514623 8.55679245,11.5586851 L11.7838443,14.7856309 L18.613125,7.9564033 C18.8203479,7.74918042 19.156309,7.74918042 19.3635849,7.9564033 L21.0145755,9.60744693 C21.2217453,9.81466981 21.2217983,10.150684 21.0145224,10.3579068 Z" id="形状" fill="url(#linearGradient-7)"></path>
                    </g>
                </g>
            </g>
        </g>
    </g>
</svg>