<?xml version="1.0" encoding="UTF-8"?>
<svg width="180px" height="180px" viewBox="0 0 180 180" version="1.1" xmlns="http://www.w3.org/2000/svg" xmlns:xlink="http://www.w3.org/1999/xlink">
    <title>编组 71</title>
    <defs>
        <linearGradient x1="73.1837385%" y1="3.30010352%" x2="13.7259239%" y2="82.6660266%" id="linearGradient-1">
            <stop stop-color="#E5F6FC" offset="0%"></stop>
            <stop stop-color="#C7D1F8" stop-opacity="0" offset="100%"></stop>
        </linearGradient>
        <linearGradient x1="50%" y1="0.422475726%" x2="50%" y2="98.8993046%" id="linearGradient-2">
            <stop stop-color="#72D0FF" offset="0%"></stop>
            <stop stop-color="#388AFF" offset="99.9472128%"></stop>
        </linearGradient>
        <linearGradient x1="50%" y1="0.422475726%" x2="50%" y2="98.8993046%" id="linearGradient-3">
            <stop stop-color="#72D0FF" offset="0%"></stop>
            <stop stop-color="#388AFF" offset="99.9472128%"></stop>
        </linearGradient>
        <linearGradient x1="73.1837385%" y1="2.8877444%" x2="13.7259239%" y2="82.9544669%" id="linearGradient-4">
            <stop stop-color="#E5F6FC" offset="0%"></stop>
            <stop stop-color="#C7D1F8" stop-opacity="0" offset="100%"></stop>
        </linearGradient>
        <linearGradient x1="50%" y1="0.422475726%" x2="50%" y2="98.8993046%" id="linearGradient-5">
            <stop stop-color="#72D0FF" offset="0%"></stop>
            <stop stop-color="#388AFF" offset="99.9472128%"></stop>
        </linearGradient>
        <linearGradient x1="50%" y1="0.422475726%" x2="50%" y2="98.8993046%" id="linearGradient-6">
            <stop stop-color="#72D0FF" offset="0%"></stop>
            <stop stop-color="#388AFF" offset="99.9472128%"></stop>
        </linearGradient>
        <linearGradient x1="50%" y1="0.422475726%" x2="50%" y2="98.8993046%" id="linearGradient-7">
            <stop stop-color="#72D0FF" offset="0%"></stop>
            <stop stop-color="#388AFF" offset="99.9472128%"></stop>
        </linearGradient>
        <linearGradient x1="50%" y1="0.422475726%" x2="50%" y2="98.8993046%" id="linearGradient-8">
            <stop stop-color="#72D0FF" offset="0%"></stop>
            <stop stop-color="#388AFF" offset="99.9472128%"></stop>
        </linearGradient>
        <linearGradient x1="50%" y1="0.422475726%" x2="50%" y2="98.8993046%" id="linearGradient-9">
            <stop stop-color="#72D0FF" offset="0%"></stop>
            <stop stop-color="#388AFF" offset="99.9472128%"></stop>
        </linearGradient>
        <linearGradient x1="50%" y1="0.422475726%" x2="50%" y2="98.8993046%" id="linearGradient-10">
            <stop stop-color="#72D0FF" offset="0%"></stop>
            <stop stop-color="#388AFF" offset="99.9472128%"></stop>
        </linearGradient>
        <linearGradient x1="50%" y1="0.422475726%" x2="50%" y2="98.8993046%" id="linearGradient-11">
            <stop stop-color="#72D0FF" offset="0%"></stop>
            <stop stop-color="#388AFF" offset="99.9472128%"></stop>
        </linearGradient>
        <linearGradient x1="50%" y1="0.422475726%" x2="50%" y2="98.8993046%" id="linearGradient-12">
            <stop stop-color="#72D0FF" offset="0%"></stop>
            <stop stop-color="#388AFF" offset="99.9472128%"></stop>
        </linearGradient>
        <linearGradient x1="4.11166301%" y1="49.5898896%" x2="97.2086592%" y2="50.2741803%" id="linearGradient-13">
            <stop stop-color="#72D0FF" offset="0%"></stop>
            <stop stop-color="#4EC2F7" offset="100%"></stop>
        </linearGradient>
        <linearGradient x1="4.11166301%" y1="49.8883632%" x2="97.2086592%" y2="50.0746351%" id="linearGradient-14">
            <stop stop-color="#72D0FF" offset="0%"></stop>
            <stop stop-color="#4EC2F7" offset="100%"></stop>
        </linearGradient>
        <linearGradient x1="50%" y1="0.422475726%" x2="50%" y2="98.8993046%" id="linearGradient-15">
            <stop stop-color="#72D0FF" offset="0%"></stop>
            <stop stop-color="#388AFF" offset="99.9472128%"></stop>
        </linearGradient>
        <linearGradient x1="50%" y1="0%" x2="50%" y2="98.8202069%" id="linearGradient-16">
            <stop stop-color="#72D0FF" offset="0%"></stop>
            <stop stop-color="#38B0FF" offset="100%"></stop>
        </linearGradient>
    </defs>
    <g id="产品" stroke="none" stroke-width="1" fill="none" fill-rule="evenodd">
        <g id="智能视频-人脸核验02" transform="translate(-504.000000, -2310.000000)">
            <g id="编组-71" transform="translate(504.000000, 2310.000000)">
                <rect id="矩形" fill="#D8D8D8" opacity="0" x="0" y="0" width="180" height="180"></rect>
                <g id="编组-68" transform="translate(7.000000, 0.547170)">
                    <path d="M82.5754717,165.018868 C124.074981,165.018868 157.716981,131.376868 157.716981,89.8773585 C157.716981,48.3778488 124.074981,14.7358491 82.5754717,14.7358491 C41.075962,14.7358491 7.43396226,48.3778488 7.43396226,89.8773585 C7.43396226,131.376868 41.075962,165.018868 82.5754717,165.018868 Z" id="椭圆形" stroke-opacity="0.851316652" stroke="#52A6FF" stroke-dasharray="2"></path>
                    <g id="编组-13备份" transform="translate(67.716981, 0.000000)">
                        <ellipse id="椭圆形备份-11" fill="url(#linearGradient-1)" cx="15.2749397" cy="15.2079444" rx="15.2749397" ry="15.2079444"></ellipse>
                        <circle id="椭圆形备份-12" fill="#FFFFFF" fill-rule="nonzero" cx="14.9737036" cy="16.0084835" r="7.09568733"></circle>
                        <path d="M15.3355332,8.17775571 C19.863885,8.17775571 23.530463,11.0238828 23.530463,16.6236346 C23.530463,22.2247269 19.8598454,28.4599305 15.3314936,28.4599305 C10.8031419,28.4599305 7.13656388,22.2247269 7.13656388,16.6236346 C7.13656388,11.0225422 10.8071814,8.17775571 15.3355332,8.17775571 Z M9.14068973,12.9430414 L9.04311425,13.1106024 C8.50104122,14.0801246 8.19223672,15.1966604 8.19223672,16.385005 C8.19223672,20.1084846 11.2240106,23.1269613 14.9638933,23.1269613 C18.7037759,23.1269613 21.7355498,20.1084846 21.7355498,16.385005 C21.7355498,16.1992408 21.7280037,16.0152313 21.7132001,15.8332639 C21.6531598,16.0632424 21.5712742,16.1624628 21.5712742,16.1624628 C13.8750342,17.7243404 9.98368643,13.9083488 9.14068973,12.9430414 Z" id="形状结合" fill="url(#linearGradient-2)" opacity="0.832473028"></path>
                        <path d="M15.355731,30.4883025 C18.3406647,30.4931717 21.2610092,29.6231489 23.752639,27.9866931 C23.189793,24.9247269 21.0474774,24.7491063 21.0474774,24.7491063 L9.2371374,24.7491063 C9.2371374,24.7491063 7.21735517,24.914002 6.58449007,27.7319762 C9.15231523,29.5302645 12.2162887,30.4930983 15.355731,30.4883025 L15.355731,30.4883025 Z" id="路径备份-6" fill="url(#linearGradient-3)"></path>
                    </g>
                    <line x1="82.1509434" y1="32.5660377" x2="82.1509434" y2="95.3962264" id="路径-20" stroke-opacity="0.851316652" stroke="#52A6FF" stroke-dasharray="2"></line>
                    <g id="编组-15备份" transform="translate(0.000000, 42.000000)">
                        <path d="M30.095791,15.0478963 C30.095791,23.3586191 23.3586174,30.095791 15.0478947,30.095791 C6.73717193,30.095791 -5.42961902e-14,23.3586191 -5.42961902e-14,15.0478963 C-5.42961902e-14,6.73717358 6.73717193,1.80987301e-14 15.0478947,1.80987301e-14 C19.0394161,-0.00186382755 22.8679909,1.58293575 25.6904231,4.40536791 C28.5128553,7.22780006 30.0976548,11.0563749 30.095791,15.0478963 Z" id="路径备份" fill="url(#linearGradient-4)"></path>
                        <g id="编组-16" transform="translate(3.761974, 7.523948)">
                            <path d="M12.4616822,0.715134685 C12.4616822,0.715134685 15.3694073,-0.323339393 17.2386584,3.83055241 C19.1079095,7.98444421 22.0156347,12.5537279 22.0156347,12.5537279 L20.3540784,12.9691175 C20.3540784,12.9691175 19.9386888,10.0613924 18.9002147,9.64600273 L19.3156043,13.3845072 C19.3156043,13.3845072 6.85391537,17.7460938 1.24616664,12.9691175 L1.45386145,11.5152651 C1.45386145,11.5152651 0.62308219,11.7229599 0.62308219,12.9691175 L2.39176522e-14,12.3460331 C2.39176522e-14,12.3460331 0.62308219,11.0998664 2.49233553,9.43830791 C3.71923033,8.34773576 4.14084527,6.27293193 4.28572942,4.97573036 C4.394275,3.8925519 4.82764875,2.86746593 5.52901363,2.03491262 C6.77123246,0.595255626 9.0347211,-0.934889628 12.4616822,0.715134685 Z" id="形状结合" fill="url(#linearGradient-5)" opacity="0.832473028"></path>
                            <circle id="椭圆形备份-10" fill="#FFFFFF" fill-rule="nonzero" cx="10.6864338" cy="8.15222297" r="5.37640314"></circle>
                            <rect id="矩形备份-16" fill="#FFFFFF" fill-rule="nonzero" x="8.64645605" y="12.3946619" width="4.06293179" height="4.06293179"></rect>
                            <path d="M18.6548181,20.218056 C13.6319814,23.2651509 7.28566551,23.067879 2.46177777,19.7147039 C3.47236277,17.5888061 5.61543403,16.233577 7.96930752,16.2318684 L12.935113,16.2318684 C15.4883589,16.2315789 17.771241,17.8225694 18.6548181,20.218056 L18.6548181,20.218056 Z" id="路径备份-4" fill="url(#linearGradient-6)" opacity="0.832473028"></path>
                        </g>
                    </g>
                    <g id="编组-26" transform="translate(67.716981, 49.547170)">
                        <circle id="椭圆形" fill="url(#linearGradient-4)" cx="15.119509" cy="15.119509" r="15.119509"></circle>
                        <g id="编组-19" transform="translate(6.260514, 2.577859)">
                            <path d="M2.81154145,17.9256922 C2.81154145,17.9256922 -0.791568348,18.2203046 0.160029742,24.7842692 C0.653798852,25.2578887 1.23658696,25.6288904 1.87467398,25.8758081 L3.90160737,19.0172312 L2.81154145,17.9256922 Z" id="路径" fill="#FFFFFF" fill-rule="nonzero"></path>
                            <path d="M14.501762,17.9256922 C14.501762,17.9256922 18.1048718,18.2203046 17.1532737,24.7842692 C16.6595046,25.2578887 16.0767164,25.6288904 15.4386294,25.8758081 L13.411696,19.0172312 L14.501762,17.9256922 Z" id="路径" fill="#FFFFFF" fill-rule="nonzero"></path>
                            <path d="M8.75092767,2.47254416e-14 C12.4525789,2.47254416e-14 15.45336,3.00078119 15.45336,6.70243237 C15.45336,7.36766726 15.3564445,8.01026631 15.1759625,8.6168805 C16.4786441,10.2180432 17.3064721,11.6902205 17.3064721,11.6902205 C9.3401525,19.4841919 0.31617432,11.6902205 0.31617432,11.6902205 C0.898676256,11.9805556 1.78185047,10.1621985 2.36662494,8.74509114 C2.15968488,8.10154635 2.0484953,7.41497422 2.0484953,6.70243237 C2.0484953,3.00078119 5.04927649,2.47254416e-14 8.75092767,2.47254416e-14 Z" id="形状结合" fill="url(#linearGradient-7)"></path>
                            <path d="M14.432528,17.9256922 L2.74819978,17.9256922 L1.65076855,22.6070834 C1.65076855,22.6070834 1.00998655,24.7724847 1.80691312,25.7240827 C2.6038397,26.6756808 10.0560607,28.8410821 15.524067,25.8802273 C16.0011131,24.6335644 16.0559665,23.2648176 15.6802116,21.9839782 C15.0571064,19.8023733 15.524067,21.8278336 15.524067,21.8278336 L14.432528,17.9256922 Z" id="路径" fill="#000000" fill-rule="nonzero" opacity="0.1"></path>
                            <path d="M14.501762,17.9256922 L2.81154145,17.9256922 L1.71705634,22.6070834 C1.71705634,22.6070834 1.07627434,24.7724847 1.87320092,25.7240827 C2.67012749,26.6756808 10.1223485,28.8410821 15.5903548,25.8802273 C16.0674009,24.6335644 16.1222543,23.2648176 15.7464994,21.9839782 C15.1233941,19.8023733 15.5903548,21.8278336 15.5903548,21.8278336 L14.501762,17.9256922 Z" id="路径" fill="url(#linearGradient-8)" opacity="0.832473028"></path>
                            <path d="M6.39550144,14.0471198 L11.0724735,14.0471198 L11.0724735,17.8770812 C11.0724735,18.4748221 10.8350218,19.0480811 10.4123552,19.4707478 C9.98968848,19.8934144 9.41642946,20.1308661 8.81868853,20.1308661 L8.64928639,20.1308661 C7.40455533,20.1308661 6.39550144,19.1218122 6.39550144,17.8770812 L6.39550144,14.0471198 L6.39550144,14.0471198 Z" id="路径" fill="#000000" fill-rule="nonzero" opacity="0.1"></path>
                            <path d="M6.39550144,13.8732985 L11.0724735,13.8732985 L11.0724735,17.7032598 C11.0724735,18.9479909 10.0634196,19.9570448 8.81868853,19.9570448 L8.64928639,19.9570448 C7.40455533,19.9570448 6.39550144,18.9479909 6.39550144,17.7032598 L6.39550144,13.8732985 L6.39550144,13.8732985 Z" id="路径" fill="#FFFFFF" fill-rule="nonzero"></path>
                            <path d="M6.40581287,14.5464878 C7.91309308,15.109855 9.57233506,15.1145583 11.0827849,14.5597454 L11.0827849,13.9852512 L6.40581287,13.9852512 L6.40581287,14.5464878 Z" id="路径" fill="#000000" fill-rule="nonzero" opacity="0.1"></path>
                            <circle id="椭圆形" fill="#FFFFFF" fill-rule="nonzero" cx="8.75092767" cy="8.15781769" r="6.70243237"></circle>
                            <path d="M2.5184021,5.23813985 L15.2972155,5.23813985 C15.2972155,5.23813985 14.2056765,0.082422638 9.37403292,0.406496291 C4.54238937,0.730569944 2.5184021,5.23813985 2.5184021,5.23813985 Z" id="路径" fill="url(#linearGradient-9)"></path>
                        </g>
                    </g>
                    <g id="编组-18" transform="translate(138.000000, 42.000000)">
                        <circle id="椭圆形" fill="url(#linearGradient-4)" cx="15.2830189" cy="15.2830189" r="15.2830189"></circle>
                        <path d="M20.9325396,21.2164262 L20.9474084,21.2684262 L21.0001445,21.2164262 C21.0001445,21.2164262 24.5184752,21.5041065 23.5892677,27.9136249 C23.1321635,28.3520757 22.5969314,28.7004636 22.0116285,28.9409273 L21.9969569,28.9794806 C16.8062838,31.7901629 9.78448234,29.8700903 8.68249862,28.9072547 L8.66297244,28.9794806 C8.03989923,28.7383727 7.47082378,28.3761004 6.98867277,27.9136249 C6.13380183,22.016868 9.04332729,21.3016348 9.51432254,21.2249367 L9.51594469,21.2164262 L20.9325396,21.2164262 Z" id="形状结合" fill="url(#linearGradient-10)"></path>
                        <path d="M17.8994717,2.42370699 C18.1702921,2.4805966 18.4311142,2.57755649 18.6733319,2.71138735 C18.9368643,2.89386005 19.1686525,3.11835931 19.3594495,3.37592897 L21.0855316,5.45441953 C21.2514947,5.63851709 21.3962432,5.84068248 21.5170522,6.05710988 C21.6207392,6.27102239 21.686909,6.50115699 21.7126748,6.73747392 C21.7742608,7.11966235 21.7096261,7.51151046 21.5285594,7.8536737 C21.408414,8.06152521 21.233074,8.22622458 21.0276862,8.34923869 C21.1903654,8.92060619 21.2782775,9.52615648 21.2782775,10.1522397 C21.2782775,13.7667932 18.3481029,16.6969678 14.7335494,16.6969678 C11.1189959,16.6969678 8.18882131,13.7667932 8.18882131,10.1522397 C8.18882131,8.83001822 8.58091749,7.59937568 9.25517918,6.57024279 C9.2629917,6.2890096 9.38941831,5.93092215 9.44598446,5.7478535 C9.58017256,5.25023253 9.87623204,4.8114572 10.2874495,4.50075916 C10.6067747,4.27924528 10.9879512,4.17280355 11.3533052,4.04334739 C11.8948362,3.85176561 12.4145914,3.60345953 12.9039023,3.30257048 C13.4591254,2.96023085 13.9798269,2.54884795 14.5911476,2.32301887 C15.6426193,1.93465039 16.8134784,2.14465705 17.8994717,2.42370699 Z" id="形状结合" fill="url(#linearGradient-11)"></path>
                        <path d="M12.433545,17.1543796 L17.0004706,17.1543796 L17.0004706,20.8942242 C17.0004706,22.1096675 16.0151591,23.0949789 14.7997159,23.0949789 L14.6342997,23.0949789 C13.4188564,23.0949789 12.433545,22.1096675 12.433545,20.8942242 L12.433545,17.1543796 L12.433545,17.1543796 Z" id="路径" fill="#FFFFFF" fill-rule="nonzero"></path>
                        <path d="M20.7889939,9.08589792 C21.1043579,9.85278756 21.2782775,10.6927736 21.2782775,11.5733807 C21.2782775,15.1879342 18.3481029,18.1181088 14.7335494,18.1181088 C11.1189959,18.1181088 8.18882131,15.1879342 8.18882131,11.5733807 C8.18882131,10.6927736 8.36274092,9.85278756 8.67810487,9.08589792 Z" id="形状结合" fill="#FFFFFF" fill-rule="nonzero"></path>
                    </g>
                    <g id="编组-70" transform="translate(8.000000, 91.000000)">
                        <g id="编组-46">
                            <path d="M145.683624,88 L4.31636121,88 C1.93361758,87.9978191 0.0026926777,86.4326428 0,84.501228 L0,3.49877203 C0.0026926777,1.5673572 1.93361758,0.0021809451 4.31636121,0 L145.683639,0 C148.066384,0.00218094837 149.997309,1.56735907 150,3.49877511 L150,84.501231 C149.997305,86.4326495 148.066372,87.9978258 145.683624,88 L145.683624,88 Z" id="路径" fill="url(#linearGradient-12)"></path>
                            <path d="M141.567207,7 L8.43614492,7 C5.98743932,7.00233438 4.00314966,8.47904263 4,10.3013788 L4,77.6986038 C4.00314963,79.5209428 5.98743554,80.997656 8.43614492,81 L141.567207,81 C144.015262,80.9974557 145.998431,79.5204573 146,77.6986038 L146,10.3013788 C145.998429,8.47952882 144.015257,7.00253633 141.567207,7 L141.567207,7 Z" id="路径" fill="#FFFFFF" fill-rule="nonzero"></path>
                            <rect id="矩形备份-17" fill="url(#linearGradient-13)" opacity="0.469470796" x="65.5018868" y="32.5283019" width="36" height="3.26037736" rx="1.63018868"></rect>
                            <rect id="矩形备份-21" fill="url(#linearGradient-14)" opacity="0.469470796" x="65.5018868" y="40.6792453" width="69" height="3.26037736" rx="1.63018868"></rect>
                            <rect id="矩形备份-22" fill="url(#linearGradient-14)" opacity="0.469470796" x="65.5018868" y="48.8301887" width="69" height="3.26037736" rx="1.63018868"></rect>
                            <rect id="矩形备份-23" fill="url(#linearGradient-14)" opacity="0.469470796" x="65.5018868" y="56.9811321" width="69" height="3.26037736" rx="1.63018868"></rect>
                        </g>
                        <g id="编组-67" transform="translate(14.490566, 20.981132)">
                            <g id="政务办事" transform="translate(1.566260, 0.111876)">
                                <rect id="矩形" fill="#000000" fill-rule="nonzero" opacity="0" x="0" y="0" width="44.7502775" height="44.7502775"></rect>
                                <path d="M14.0963374,21.7542286 C14.5065483,21.7542286 14.8421754,22.0879911 14.8421754,22.5000666 L14.8403108,34.8063929 L18.6067925,34.8063929 L18.6067925,22.5000666 C18.6067925,22.0879912 18.9424195,21.7542286 19.3526304,21.7542286 L25.3957825,21.7542286 C25.8078579,21.7542286 26.1416204,22.0879911 26.1416204,22.5000666 L26.1416204,34.8063929 L29.9081021,34.8063929 L29.9081021,22.5000666 C29.9081021,22.0879912 30.2437292,21.7542286 30.6539401,21.7542286 L36.6970921,21.7542286 C37.1091676,21.7542286 37.4429301,22.0879911 37.4429301,22.5000666 L37.4429301,34.8063929 L40.2752497,34.8063929 C40.6854606,34.8063929 41.0210877,35.1401554 41.0210877,35.5522308 L41.0210877,36.6709878 C41.0210877,37.7007751 40.1862801,38.5355827 39.1564928,38.5355827 L5.59378468,38.5355827 C4.56399735,38.5355827 3.72918977,37.7007751 3.72918977,36.6709878 L3.72918977,35.5522308 C3.72918977,35.1401554 4.06481686,34.8063929 4.47502775,34.8063929 L7.30734741,34.8063929 L7.30734741,22.5000666 C7.30734741,22.0879912 7.64110988,21.7542286 8.05318534,21.7542286 L14.0944728,21.7542286 L14.0963374,21.7542286 Z M23.7642619,4.56079913 L23.9880133,4.71928966 L40.8681909,17.9896115 C41.2623271,18.2989711 41.4346618,18.8131384 41.3065705,19.2975342 C41.1784793,19.7819299 40.774515,20.1437036 40.2789789,20.2178025 L40.0925194,20.232725 L4.65775803,20.232725 C4.15886088,20.2342279 3.70645716,19.940057 3.50544978,19.4834427 C3.3044424,19.0268283 3.39301623,18.4945123 3.73105438,18.1275916 L3.88022196,17.9896115 L20.7622641,4.71928966 C21.6290326,4.03775238 22.8305485,3.97431833 23.7642619,4.56079913 L23.7642619,4.56079913 Z" id="形状" fill="url(#linearGradient-15)"></path>
                            </g>
                        </g>
                        <g id="编组-48" transform="translate(119.679245, 13.815094)">
                            <circle id="椭圆形" fill="url(#linearGradient-16)" cx="8.1509434" cy="8.1509434" r="8.1509434"></circle>
                            <polygon id="路径" fill="#FFFFFF" fill-rule="nonzero" points="4.48301887 7.66284088 7.41781385 10.4797844 11.5752503 4.0754717 13.0415094 5.35633423 7.41781385 13.0415094 3.26037736 8.17566294"></polygon>
                        </g>
                    </g>
                </g>
            </g>
        </g>
    </g>
</svg>