<?xml version="1.0" encoding="UTF-8"?>
<svg width="182px" height="180px" viewBox="0 0 182 180" version="1.1" xmlns="http://www.w3.org/2000/svg" xmlns:xlink="http://www.w3.org/1999/xlink">
    <title>编组 32</title>
    <defs>
        <linearGradient x1="50%" y1="0.422475726%" x2="50%" y2="98.8993046%" id="linearGradient-1">
            <stop stop-color="#72D0FF" offset="0%"></stop>
            <stop stop-color="#388AFF" offset="99.9472128%"></stop>
        </linearGradient>
        <linearGradient x1="50%" y1="0.422475726%" x2="50%" y2="98.8993046%" id="linearGradient-2">
            <stop stop-color="#72D0FF" offset="0%"></stop>
            <stop stop-color="#388AFF" offset="99.9472128%"></stop>
        </linearGradient>
        <linearGradient x1="50%" y1="0.422475726%" x2="50%" y2="98.8993046%" id="linearGradient-3">
            <stop stop-color="#72D0FF" offset="0%"></stop>
            <stop stop-color="#388AFF" offset="99.9472128%"></stop>
        </linearGradient>
        <linearGradient x1="50%" y1="0.422475726%" x2="50%" y2="98.8993046%" id="linearGradient-4">
            <stop stop-color="#72D0FF" offset="0%"></stop>
            <stop stop-color="#388AFF" offset="99.9472128%"></stop>
        </linearGradient>
        <linearGradient x1="50%" y1="0%" x2="50%" y2="98.8202069%" id="linearGradient-5">
            <stop stop-color="#72D0FF" offset="0%"></stop>
            <stop stop-color="#38B0FF" offset="100%"></stop>
        </linearGradient>
        <linearGradient x1="50%" y1="0.422475726%" x2="50%" y2="98.8993046%" id="linearGradient-6">
            <stop stop-color="#72D0FF" offset="0%"></stop>
            <stop stop-color="#388AFF" offset="99.9472128%"></stop>
        </linearGradient>
        <linearGradient x1="4.11166301%" y1="49.4766308%" x2="97.2086592%" y2="50.3498997%" id="linearGradient-7">
            <stop stop-color="#72D0FF" offset="0%"></stop>
            <stop stop-color="#4EC2F7" offset="100%"></stop>
        </linearGradient>
        <linearGradient x1="73.1837385%" y1="10.0554947%" x2="13.7259239%" y2="77.9407102%" id="linearGradient-8">
            <stop stop-color="#E5F6FC" offset="0%"></stop>
            <stop stop-color="#C7D1F8" stop-opacity="0" offset="100%"></stop>
        </linearGradient>
        <linearGradient x1="50%" y1="0.422475726%" x2="50%" y2="98.8993046%" id="linearGradient-9">
            <stop stop-color="#72D0FF" offset="0%"></stop>
            <stop stop-color="#388AFF" offset="99.9472128%"></stop>
        </linearGradient>
        <linearGradient x1="50%" y1="0.422475726%" x2="50%" y2="98.8993046%" id="linearGradient-10">
            <stop stop-color="#72D0FF" offset="0%"></stop>
            <stop stop-color="#388AFF" offset="99.9472128%"></stop>
        </linearGradient>
        <linearGradient x1="4.11166301%" y1="49.1934763%" x2="97.2086592%" y2="50.5392033%" id="linearGradient-11">
            <stop stop-color="#72D0FF" offset="0%"></stop>
            <stop stop-color="#4EC2F7" offset="100%"></stop>
        </linearGradient>
        <linearGradient x1="4.11166301%" y1="49.7673915%" x2="97.2086592%" y2="50.155511%" id="linearGradient-12">
            <stop stop-color="#72D0FF" offset="0%"></stop>
            <stop stop-color="#4EC2F7" offset="100%"></stop>
        </linearGradient>
        <linearGradient x1="50%" y1="0%" x2="50%" y2="98.8202069%" id="linearGradient-13">
            <stop stop-color="#72D0FF" offset="0%"></stop>
            <stop stop-color="#38B0FF" offset="100%"></stop>
        </linearGradient>
        <linearGradient x1="4.11166301%" y1="49.265939%" x2="97.2086592%" y2="50.4907582%" id="linearGradient-14">
            <stop stop-color="#72D0FF" offset="0%"></stop>
            <stop stop-color="#4EC2F7" offset="100%"></stop>
        </linearGradient>
        <linearGradient x1="4.11166301%" y1="49.7713255%" x2="97.2086592%" y2="50.1528809%" id="linearGradient-15">
            <stop stop-color="#72D0FF" offset="0%"></stop>
            <stop stop-color="#4EC2F7" offset="100%"></stop>
        </linearGradient>
    </defs>
    <g id="产品" stroke="none" stroke-width="1" fill="none" fill-rule="evenodd">
        <g id="智能视频-人脸核验02" transform="translate(-503.000000, -2814.000000)">
            <g id="编组-32" transform="translate(504.000000, 2814.000000)">
                <g id="编组-31" transform="translate(0.000000, 11.037736)">
                    <g id="编组-30" transform="translate(53.750943, 82.713208)">
                        <path d="M14.8,15.2 L14.799,17.967 C16.3724138,17.9670588 18.5887039,22.2939078 21.4488704,30.9476058 L21.6,31.4070588 C7.2,32.1976471 0,32.1976471 0,31.4070588 C0,30.2211765 6,29.8258824 6.8,27.4541176 C7.27755359,26.0383117 8.61032255,23.3547747 10.7983069,19.4035068 L10.8,15.2 L10.8,15.2 L14.8,15.2 Z" id="形状结合" fill="url(#linearGradient-1)"></path>
                        <ellipse id="椭圆形" fill="url(#linearGradient-2)" cx="12" cy="9.6" rx="6.4" ry="7.2"></ellipse>
                        <path d="M7.2,5.6 C9.11496436,3.33659834 10.4790326,2.59583678 11.2922047,3.37771532 C12.5119628,4.55053315 12.5119628,8.85086516 14.9514791,8.85086516 C17.3909954,8.85086516 18.6107536,10.8055615 16.1712373,11.9783793 C13.731721,13.1511972 16.5778233,16.6696506 17.3909954,15.8877721 C18.2041675,15.1058935 22.270028,8.06898661 20.2370978,3.37771532 C18.2041675,-1.31355596 12.9185489,0.250201135 11.2922047,0.250201135 C9.66586049,0.250201135 6.4,3.23624291 6.4,4.8 C6.4,5.84250473 6.66666667,6.1091714 7.2,5.6 Z" id="路径-9" fill="url(#linearGradient-3)"></path>
                    </g>
                    <path d="M177.750943,137.250742 C177.750943,130.957002 172.577423,130.957002 172.577423,130.957003 C172.577423,130.957003 172.458492,130.957003 172.280095,130.976794 C169.782533,116.469527 162.468246,102.773716 147.641453,97.1924758 C126.233784,46.1300611 56.8769009,49.3165142 34.6763552,99.1716391 C6.88602911,99.1914307 -0.230038541,126.899718 0.166399818,149.046556 L23.397685,149.046556 C21.9110413,146.176769 21.0983428,142.950733 21.0983428,139.546571 C21.0983428,127.592425 31.2471637,117.914316 43.7746144,117.914316 C56.3020651,117.914316 66.4508862,127.612216 66.4508862,139.546571 C66.4508862,142.950733 65.6183658,146.176769 64.151544,149.046556 L120.128634,149.046556 C118.641991,146.176769 117.829292,142.950733 117.829292,139.546571 C117.829292,127.592425 127.978113,117.914316 140.505564,117.914316 C152.359069,117.914316 162.071808,126.583051 163.102548,137.666366 C163.102548,138.141366 163.122369,138.715323 163.201657,139.506988 L163.201657,139.546571 C163.201657,142.950733 162.369137,146.176769 160.902315,149.046556 L173.033327,149.046556 C173.112615,148.314265 173.132437,147.581975 173.172081,146.829893 C177.453615,146.295519 177.750943,142.772608 177.750943,137.250742 L177.750943,137.250742 Z M88.1558839,103.011216 L47.7588196,103.011216 C47.7588196,102.872675 47.7191758,102.753925 47.7191758,102.615383 C47.7191758,89.4737385 64.9642425,73.9175146 88.1558839,72.2946006 L88.1558839,103.011216 L88.1558839,103.011216 Z M98.0668419,103.011216 L98.0668419,72.5321004 C119.692552,75.0060546 135.054537,90.4039454 135.649194,103.031008 L98.0668419,103.031008 L98.0668419,103.011216 Z M140.485742,121.140352 C129.841373,121.140352 121.199018,129.373672 121.199018,139.52678 C121.199018,149.679888 129.821551,157.913208 140.46592,157.913208 C151.110289,157.913208 159.732822,149.679888 159.732822,139.52678 C159.732822,129.373672 151.13011,121.160144 140.485742,121.140352 L140.485742,121.140352 Z M140.545207,146.533018 C136.422249,146.533018 133.052523,143.188232 133.052523,139.051781 C133.052523,134.935121 136.402427,131.570543 140.545207,131.570543 C144.687988,131.570543 148.037892,134.915329 148.037892,139.051781 C148.037892,143.188232 144.687988,146.533018 140.545207,146.533018 Z M43.7547926,121.140352 C33.1104237,121.140352 24.4878904,129.373672 24.4878904,139.52678 C24.4878904,149.679888 33.1104237,157.913208 43.7547926,157.913208 C54.3991614,157.913208 63.0216948,149.679888 63.0216948,139.52678 C63.0216948,129.373672 54.3991614,121.160144 43.7547926,121.140352 Z M42.942094,146.533018 C38.7993136,146.533018 35.4494098,143.188232 35.4494098,139.051781 C35.4494098,134.935121 38.7993136,131.570543 42.942094,131.570543 C47.0848745,131.570543 50.4347782,134.915329 50.4347782,139.051781 C50.4347782,143.188232 47.0848745,146.533018 42.942094,146.533018 Z" id="形状" fill="url(#linearGradient-4)"></path>
                    <g id="编组-29" transform="translate(23.773585, 60.283019) scale(-1, 1) translate(-23.773585, -60.283019) translate(0.000000, 36.509434)">
                        <path d="M17.3009813,0.835273698 C27.5140616,-1.95893226 38.3346897,2.42055962 43.7288344,11.531563 C49.1229792,20.6425664 47.7587117,32.2353811 40.3968043,39.8453728 C33.0348968,47.4553645 21.4931605,49.2034647 12.2077464,44.1148602 C10.5823915,45.271246 6.61731244,47.5777688 2.70026767,45.9163123 L7.41535069,40.6310724 C2.67755168,36.1921717 -0.0074461132,29.9875392 -2.80762628e-13,23.4953662 C0.00419479488,12.9074347 7.087901,3.62947965 17.3009813,0.835273698 Z" id="路径" fill="url(#linearGradient-5)"></path>
                        <rect id="矩形" fill="#FFFFFF" fill-rule="nonzero" x="23.1632779" y="18.3943678" width="16.3505491" height="1.69811321" rx="0.849056604"></rect>
                        <rect id="矩形" fill="#FFFFFF" fill-rule="nonzero" x="10.2190932" y="23.8445508" width="29.2947339" height="1.69811321" rx="0.849056604"></rect>
                        <rect id="矩形" fill="#FFFFFF" fill-rule="nonzero" x="10.2190932" y="29.2947339" width="29.2947339" height="1.69811321" rx="0.849056604"></rect>
                    </g>
                    <g id="编组-17" transform="translate(136.698113, 0.000000)">
                        <g id="编组-8备份">
                            <g id="编组-7">
                                <path d="M3.24,0 L39.674717,0 C41.4641196,-3.28707923e-16 42.914717,1.45059741 42.914717,3.24 L42.914717,67.6853129 C42.914717,69.4747155 41.4641196,70.9253129 39.674717,70.9253129 L3.24,70.9253129 C1.45059741,70.9253129 2.43958466e-15,69.4747155 0,67.6853129 L0,3.24 C-6.63227825e-16,1.45059741 1.45059741,-5.0003626e-15 3.24,0 Z" id="矩形" fill="url(#linearGradient-6)"></path>
                                <rect id="矩形" fill="#FFFFFF" fill-rule="nonzero" x="19.2566038" y="2.53304689" width="4.40150943" height="1.01321876" rx="0.506609378"></rect>
                                <ellipse id="椭圆形" fill="#FFFFFF" fill-rule="nonzero" cx="21.4573585" cy="3.03965627" rx="1" ry="1"></ellipse>
                                <path d="M40.7139623,66.6493517 C40.7133396,68.1716847 39.3295809,69.4054848 37.6228434,69.4054848 L5.29187362,69.4054848 C3.5851361,69.4054848 2.20137739,68.1716847 2.20075472,66.6493517 L2.20075472,5.29018581 C2.20075472,3.76746003 3.58469579,2.53304689 5.29187362,2.53304689 L11.6720105,2.53304689 L11.6720105,3.01184956 C11.6744978,4.26428701 12.8131554,5.27856833 14.2173062,5.27912104 L28.4267546,5.27912104 C29.101809,5.27912104 29.7492149,5.03993055 30.2265504,4.61416874 C30.703886,4.18840694 30.9720503,3.61095001 30.9720503,3.0088319 L30.9720503,2.53304689 L37.628482,2.53304689 C39.3334574,2.53582099 40.7139623,3.76942199 40.7139623,5.29018581 L40.7139623,66.6493517 Z" id="路径" fill="#FFFFFF" fill-rule="nonzero"></path>
                            </g>
                            <rect id="矩形" fill="url(#linearGradient-7)" opacity="0.469470796" x="6.60226415" y="36.4758752" width="29.7101887" height="3.03965627" rx="1.296"></rect>
                            <g id="编组-9" transform="translate(11.553962, 12.665234)">
                                <ellipse id="椭圆形" fill="url(#linearGradient-8)" cx="10.0287957" cy="9.23443567" rx="10.0287957" ry="9.23443567"></ellipse>
                                <path d="M10.1792027,2.02714205 C10.8123355,2.03235715 11.3209531,2.50444418 11.315232,3.08157798 C11.3133925,3.26714253 11.2586046,3.44097322 11.1640622,3.59125855 C11.4728724,3.87787081 11.6631195,4.27115176 11.6631195,4.70493717 C11.6631195,4.82886569 11.6475917,4.94948826 11.6182128,5.06527644 C13.3905603,5.68556435 14.6490811,7.25277394 14.6490811,9.08792831 C14.6490811,9.26272227 14.6376637,9.43508542 14.6154716,9.60443186 C14.6481695,9.70356289 14.6672092,9.81962353 14.6672092,9.94328043 C14.6672092,10.2783098 14.5274466,10.5575783 14.3420827,10.6202407 C14.2571174,10.8226629 14.1550368,11.0201629 14.037799,11.2088057 C13.6206725,12.3406313 12.6570507,13.2439711 11.4327401,13.6582822 L11.4317701,13.7274464 C11.4297897,13.7281094 11.427809,13.728771 11.4258279,13.7294313 L11.4255094,14.8684375 L13.6710255,14.8692274 C13.6710255,14.8692274 14.944596,14.9648159 15.3611443,16.576768 L15.405283,16.7695727 C13.8089,17.7295206 11.937987,18.2401662 10.0255453,18.2379259 C8.01257933,18.2409036 6.0479625,17.6757477 4.40150943,16.6200632 C4.8072342,14.9660152 6.10210047,14.8692274 6.10210047,14.8692274 L6.10210047,14.8692274 L8.39650943,14.8684375 L8.39649502,13.6532878 C7.17844461,13.2364963 6.22044138,12.3350418 5.80516695,11.2066034 C5.68833942,11.0190648 5.58681969,10.822571 5.50179176,10.6186698 C5.31611544,10.5586029 5.17583947,10.2789245 5.17583947,9.94328043 C5.17583947,9.81962353 5.19487925,9.70356289 5.22822427,9.60318604 C5.20624826,9.43508542 5.19483084,9.26272227 5.19483084,9.08792831 C5.19483084,7.25660953 6.44809641,5.69211665 8.21546168,5.06823826 C8.18459388,4.95226076 8.16870704,4.83029016 8.16870704,4.70493717 L8.17259947,4.82703881 C8.01042031,4.4376756 8.01990073,3.99969197 8.21186925,3.60958284 C8.22309143,3.58676296 8.23517685,3.56394307 8.24726226,3.54191008 C8.10746304,3.86568303 8.09192865,4.20703952 8.18065801,4.52125494 C8.23442971,4.09280105 8.47434516,3.7167635 8.82458383,3.46109241 C8.78843944,3.35911805 8.76866175,3.24999463 8.76866175,3.13666046 C8.76866175,2.55909205 9.28230375,2.09088035 9.91591327,2.09088035 C10.5495228,2.09088035 11.0631648,2.55909205 11.0631648,3.13666046 C11.0631648,3.25035788 11.0432601,3.35981752 11.0064539,3.46230182 C11.0104699,3.46344868 11.0135548,3.46571675 11.016631,3.46799416 C11.0782427,3.32723166 11.1056825,3.17140555 11.0922786,3.01055093 C11.0479402,2.47846383 10.5709335,2.06230168 9.98583605,2.04524058 L9.98583605,2.04524058 L9.91936624,2.04524058 C10.0046637,2.03031117 10.0915423,2.0242396 10.1783395,2.02714205 L10.1783395,2.02714205 Z" id="形状结合" fill="url(#linearGradient-9)" opacity="0.832473028"></path>
                            </g>
                            <rect id="矩形" fill="#479CFF" opacity="0.3492141" x="6.60226415" y="42.5551877" width="15.9554717" height="2.02643751" rx="1.01321876"></rect>
                            <rect id="矩形" fill="url(#linearGradient-10)" opacity="0.534249442" x="26.4090566" y="42.5551877" width="9.90339623" height="11.1454063" rx="1.296"></rect>
                            <rect id="矩形" fill="url(#linearGradient-11)" opacity="0.469470796" x="6.60226415" y="47.1146721" width="15.9554717" height="2.02643751" rx="1.01321876"></rect>
                            <rect id="矩形备份-13" fill="#479CFF" opacity="0.3492141" x="6.60226415" y="51.6741565" width="15.9554717" height="2.02643751" rx="1.01321876"></rect>
                            <rect id="矩形备份-14" fill="url(#linearGradient-12)" opacity="0.469470796" x="6.60226415" y="56.2336409" width="29.7101887" height="2.02643751" rx="1.01321876"></rect>
                            <rect id="矩形备份-15" fill="#479CFF" opacity="0.3492141" x="6.60226415" y="60.7931254" width="23.6581132" height="2.02643751" rx="1.01321876"></rect>
                        </g>
                        <g id="直播管理" transform="translate(31.330189, 46.613208)" fill="#000000" fill-rule="nonzero" opacity="0">
                            <rect id="矩形" x="0" y="0" width="6.79810809" height="6.04276274"></rect>
                        </g>
                    </g>
                    <g id="编组-29备份" transform="translate(103.584906, 21.226415) scale(-1, 1) translate(-103.584906, -21.226415) translate(83.207547, 0.849057)">
                        <path d="M14.8294126,0.715948884 C23.5834814,-1.67908479 32.8583054,2.07476539 37.4818581,9.88419687 C42.1054107,17.6936283 40.9360386,27.6303267 34.6258322,34.1531767 C28.3156258,40.6760267 18.422709,42.1743983 10.4637826,37.8127373 C9.07062128,38.8039252 5.67198209,40.7809447 2.31451514,39.3568391 L6.35601488,34.8266335 C2.2950443,31.0218615 -0.00638238275,25.703605 -2.40653681e-13,20.1388853 C0.00359553847,11.0635154 6.07534372,3.11098256 14.8294126,0.715948884 Z" id="路径" fill="url(#linearGradient-13)"></path>
                        <circle id="椭圆形" fill="#FFFFFF" cx="20.3773585" cy="20.3773585" r="17.8301887"></circle>
                        <rect id="矩形" fill="url(#linearGradient-14)" opacity="0.469470796" x="19.8542382" y="15.766601" width="14.0147564" height="1.69811321" rx="0.849056604"></rect>
                        <rect id="矩形" fill="url(#linearGradient-15)" opacity="0.469470796" x="8.75922275" y="20.4381864" width="25.1097719" height="1.69811321" rx="0.849056604"></rect>
                        <rect id="矩形" fill="url(#linearGradient-15)" opacity="0.469470796" x="8.75922275" y="25.1097719" width="25.1097719" height="1.69811321" rx="0.849056604"></rect>
                    </g>
                    <path d="M82.7678632,15.2196448 C65.5484496,19.8991777 50.607105,30.1104885 39.9702416,43.8271649" id="路径" stroke-opacity="0.851316652" stroke="#52A6FF" stroke-dasharray="2"></path>
                    <path d="M84.1214493,23.7633217 C68.6388502,28.2562071 55.2772175,37.7368718 45.8909618,50.3509049" id="路径" stroke-opacity="0.851316652" stroke="#52A6FF" stroke-width="0.9" stroke-dasharray="1.8"></path>
                </g>
                <rect id="矩形" fill="#D8D8D8" opacity="0" x="0" y="0" width="180" height="180"></rect>
            </g>
        </g>
    </g>
</svg>