<?xml version="1.0" encoding="UTF-8"?>
<svg width="665px" height="312px" viewBox="0 0 665 312" version="1.1" xmlns="http://www.w3.org/2000/svg" xmlns:xlink="http://www.w3.org/1999/xlink">
    <title>编组</title>
    <defs>
        <path d="M2,5.45696821e-12 L663,5.45696821e-12 C664.104569,5.4567653e-12 665,0.8954305 665,2 L665,114 C665,115.104569 664.104569,116 663,116 L2,116 C0.8954305,116 1.3527075e-16,115.104569 0,114 L0,2 C-1.3527075e-16,0.8954305 0.8954305,5.45717112e-12 2,5.45696821e-12 Z" id="path-1"></path>
        <mask id="mask-2" maskContentUnits="userSpaceOnUse" maskUnits="objectBoundingBox" x="0" y="0" width="665" height="116" fill="white">
            <use xlink:href="#path-1"></use>
        </mask>
        <path d="M2,132 L663,132 C664.104569,132 665,132.895431 665,134 L665,310 C665,311.104569 664.104569,312 663,312 L2,312 C0.8954305,312 1.3527075e-16,311.104569 0,310 L0,134 C-1.3527075e-16,132.895431 0.8954305,132 2,132 Z" id="path-3"></path>
        <mask id="mask-4" maskContentUnits="userSpaceOnUse" maskUnits="objectBoundingBox" x="0" y="0" width="665" height="180" fill="white">
            <use xlink:href="#path-3"></use>
        </mask>
    </defs>
    <g id="解决方案" stroke="none" stroke-width="1" fill="none" fill-rule="evenodd">
        <g id="场景解决方案-私有云行业解决方案02✅" transform="translate(-445.000000, -272.000000)">
            <g id="编组-9">
                <g id="使用场景">
                    <g id="编组-20" transform="translate(377.000000, 248.000000)">
                        <g id="编组-19">
                            <g id="编组" transform="translate(68.000000, 24.000000)">
                                <use id="矩形备份-25" stroke="#59C7CA" mask="url(#mask-2)" stroke-width="2" fill="#E2F2F3" opacity="0.85" stroke-dasharray="4" xlink:href="#path-1"></use>
                                <use id="矩形备份-28" stroke="#21B4E9" mask="url(#mask-4)" stroke-width="2" fill="#E6F4F9" opacity="0.85" stroke-dasharray="4" xlink:href="#path-3"></use>
                                <path id="路径-15备份-6" d="M319,103 L319,145.5 L323,145.5 L318.5,154.5 L314,145.5 L318,145.5 L318,103 L319,103 Z" fill="#28B8BB" fill-rule="nonzero"></path>
                                <path id="路径-15备份-9" d="M347,103 L347,145.5 L351,145.5 L346.5,154.5 L342,145.5 L346,145.5 L346,103 L347,103 Z" fill="#21B4E9" fill-rule="nonzero"></path>
                                <g id="对象存储备份" transform="translate(44.000000, 254.000000)">
                                    <rect id="矩形" fill="#21B4E9" x="0" y="0" width="31.5" height="10.5"></rect>
                                    <rect id="矩形备份-2" fill="#21B4E9" x="0" y="12" width="31.5" height="10.5"></rect>
                                    <rect id="矩形备份-3" fill="#21B4E9" x="0" y="24" width="31.5" height="12"></rect>
                                    <line x1="6" y1="6" x2="10.5" y2="6" id="直线-2" stroke="#E2F5FC" stroke-width="2.9403" stroke-linecap="square"></line>
                                    <line x1="6" y1="18" x2="10.5" y2="18" id="直线-2" stroke="#E2F5FC" stroke-width="2.9403" stroke-linecap="square"></line>
                                    <line x1="6" y1="30" x2="10.5" y2="30" id="直线-2" stroke="#E2F5FC" stroke-width="2.9403" stroke-linecap="square"></line>
                                </g>
                                <g id="对象存储备份-4" transform="translate(267.000000, 254.000000)">
                                    <rect id="矩形" fill="#21B4E9" x="0" y="0" width="31.5" height="10.5"></rect>
                                    <rect id="矩形备份-2" fill="#21B4E9" x="0" y="12" width="31.5" height="10.5"></rect>
                                    <rect id="矩形备份-3" fill="#21B4E9" x="0" y="24" width="31.5" height="12"></rect>
                                    <line x1="6" y1="6" x2="10.5" y2="6" id="直线-2" stroke="#E2F5FC" stroke-width="2.9403" stroke-linecap="square"></line>
                                    <line x1="6" y1="18" x2="10.5" y2="18" id="直线-2" stroke="#E2F5FC" stroke-width="2.9403" stroke-linecap="square"></line>
                                    <line x1="6" y1="30" x2="10.5" y2="30" id="直线-2" stroke="#E2F5FC" stroke-width="2.9403" stroke-linecap="square"></line>
                                </g>
                                <g id="对象存储备份-7" transform="translate(490.000000, 254.000000)">
                                    <rect id="矩形" fill="#21B4E9" x="0" y="0" width="31.5" height="10.5"></rect>
                                    <rect id="矩形备份-2" fill="#21B4E9" x="0" y="12" width="31.5" height="10.5"></rect>
                                    <rect id="矩形备份-3" fill="#21B4E9" x="0" y="24" width="31.5" height="12"></rect>
                                    <line x1="6" y1="6" x2="10.5" y2="6" id="直线-2" stroke="#E2F5FC" stroke-width="2.9403" stroke-linecap="square"></line>
                                    <line x1="6" y1="18" x2="10.5" y2="18" id="直线-2" stroke="#E2F5FC" stroke-width="2.9403" stroke-linecap="square"></line>
                                    <line x1="6" y1="30" x2="10.5" y2="30" id="直线-2" stroke="#E2F5FC" stroke-width="2.9403" stroke-linecap="square"></line>
                                </g>
                                <g id="对象存储备份-2" transform="translate(93.000000, 254.000000)">
                                    <rect id="矩形" fill="#21B4E9" x="0" y="0" width="31.5" height="10.5"></rect>
                                    <rect id="矩形备份-2" fill="#21B4E9" x="0" y="12" width="31.5" height="10.5"></rect>
                                    <rect id="矩形备份-3" fill="#21B4E9" x="0" y="24" width="31.5" height="12"></rect>
                                    <line x1="6" y1="6" x2="10.5" y2="6" id="直线-2" stroke="#E2F5FC" stroke-width="2.9403" stroke-linecap="square"></line>
                                    <line x1="6" y1="18" x2="10.5" y2="18" id="直线-2" stroke="#E2F5FC" stroke-width="2.9403" stroke-linecap="square"></line>
                                    <line x1="6" y1="30" x2="10.5" y2="30" id="直线-2" stroke="#E2F5FC" stroke-width="2.9403" stroke-linecap="square"></line>
                                </g>
                                <g id="对象存储备份-5" transform="translate(317.000000, 254.000000)">
                                    <rect id="矩形" fill="#21B4E9" x="0" y="0" width="31.5" height="10.5"></rect>
                                    <rect id="矩形备份-2" fill="#21B4E9" x="0" y="12" width="31.5" height="10.5"></rect>
                                    <rect id="矩形备份-3" fill="#21B4E9" x="0" y="24" width="31.5" height="12"></rect>
                                    <line x1="6" y1="6" x2="10.5" y2="6" id="直线-2" stroke="#E2F5FC" stroke-width="2.9403" stroke-linecap="square"></line>
                                    <line x1="6" y1="18" x2="10.5" y2="18" id="直线-2" stroke="#E2F5FC" stroke-width="2.9403" stroke-linecap="square"></line>
                                    <line x1="6" y1="30" x2="10.5" y2="30" id="直线-2" stroke="#E2F5FC" stroke-width="2.9403" stroke-linecap="square"></line>
                                </g>
                                <g id="对象存储备份-8" transform="translate(539.000000, 254.000000)">
                                    <rect id="矩形" fill="#21B4E9" x="0" y="0" width="31.5" height="10.5"></rect>
                                    <rect id="矩形备份-2" fill="#21B4E9" x="0" y="12" width="31.5" height="10.5"></rect>
                                    <rect id="矩形备份-3" fill="#21B4E9" x="0" y="24" width="31.5" height="12"></rect>
                                    <line x1="6" y1="6" x2="10.5" y2="6" id="直线-2" stroke="#E2F5FC" stroke-width="2.9403" stroke-linecap="square"></line>
                                    <line x1="6" y1="18" x2="10.5" y2="18" id="直线-2" stroke="#E2F5FC" stroke-width="2.9403" stroke-linecap="square"></line>
                                    <line x1="6" y1="30" x2="10.5" y2="30" id="直线-2" stroke="#E2F5FC" stroke-width="2.9403" stroke-linecap="square"></line>
                                </g>
                                <g id="对象存储备份-3" transform="translate(143.000000, 254.000000)">
                                    <rect id="矩形" fill="#21B4E9" x="0" y="0" width="31.5" height="10.5"></rect>
                                    <rect id="矩形备份-2" fill="#21B4E9" x="0" y="12" width="31.5" height="10.5"></rect>
                                    <rect id="矩形备份-3" fill="#21B4E9" x="0" y="24" width="31.5" height="12"></rect>
                                    <line x1="6" y1="6" x2="10.5" y2="6" id="直线-2" stroke="#E2F5FC" stroke-width="2.9403" stroke-linecap="square"></line>
                                    <line x1="6" y1="18" x2="10.5" y2="18" id="直线-2" stroke="#E2F5FC" stroke-width="2.9403" stroke-linecap="square"></line>
                                    <line x1="6" y1="30" x2="10.5" y2="30" id="直线-2" stroke="#E2F5FC" stroke-width="2.9403" stroke-linecap="square"></line>
                                </g>
                                <g id="对象存储备份-6" transform="translate(366.000000, 254.000000)">
                                    <rect id="矩形" fill="#21B4E9" x="0" y="0" width="31.5" height="10.5"></rect>
                                    <rect id="矩形备份-2" fill="#21B4E9" x="0" y="12" width="31.5" height="10.5"></rect>
                                    <rect id="矩形备份-3" fill="#21B4E9" x="0" y="24" width="31.5" height="12"></rect>
                                    <line x1="6" y1="6" x2="10.5" y2="6" id="直线-2" stroke="#E2F5FC" stroke-width="2.9403" stroke-linecap="square"></line>
                                    <line x1="6" y1="18" x2="10.5" y2="18" id="直线-2" stroke="#E2F5FC" stroke-width="2.9403" stroke-linecap="square"></line>
                                    <line x1="6" y1="30" x2="10.5" y2="30" id="直线-2" stroke="#E2F5FC" stroke-width="2.9403" stroke-linecap="square"></line>
                                </g>
                                <g id="对象存储备份-9" transform="translate(589.000000, 254.000000)">
                                    <rect id="矩形" fill="#21B4E9" x="0" y="0" width="31.5" height="10.5"></rect>
                                    <rect id="矩形备份-2" fill="#21B4E9" x="0" y="12" width="31.5" height="10.5"></rect>
                                    <rect id="矩形备份-3" fill="#21B4E9" x="0" y="24" width="31.5" height="12"></rect>
                                    <line x1="6" y1="6" x2="10.5" y2="6" id="直线-2" stroke="#E2F5FC" stroke-width="2.9403" stroke-linecap="square"></line>
                                    <line x1="6" y1="18" x2="10.5" y2="18" id="直线-2" stroke="#E2F5FC" stroke-width="2.9403" stroke-linecap="square"></line>
                                    <line x1="6" y1="30" x2="10.5" y2="30" id="直线-2" stroke="#E2F5FC" stroke-width="2.9403" stroke-linecap="square"></line>
                                </g>
                                <rect id="矩形备份-36" fill="#28B8BB" opacity="0.854399182" x="44" y="25" width="170" height="36"></rect>
                                <rect id="矩形备份-52" fill="#21B4E9" opacity="0.854399182" x="44" y="156" width="86" height="36"></rect>
                                <rect id="矩形备份-53" fill="#21B4E9" opacity="0.854399182" x="142" y="156" width="86" height="36"></rect>
                                <rect id="矩形备份-54" fill="#21B4E9" opacity="0.854399182" x="240" y="156" width="86" height="36"></rect>
                                <rect id="矩形备份-55" fill="#21B4E9" opacity="0.854399182" x="338" y="156" width="86" height="36"></rect>
                                <rect id="矩形备份-56" fill="#21B4E9" opacity="0.854399182" x="436" y="156" width="86" height="36"></rect>
                                <rect id="矩形备份-57" fill="#21B4E9" opacity="0.854399182" x="534" y="156" width="86" height="36"></rect>
                                <rect id="矩形备份-48" fill="#28B8BB" opacity="0.854399182" x="247" y="25" width="171" height="36"></rect>
                                <rect id="矩形备份-51" fill="#28B8BB" opacity="0.854399182" x="450" y="25" width="170" height="36"></rect>
                                <text id="移动终端" font-family="PingFangSC-Regular, PingFang SC" font-size="14" font-weight="normal" line-spacing="18" fill="#FFFFFF">
                                    <tspan x="101" y="49">移动终端</tspan>
                                </text>
                                <text id="文档" font-family="PingFangSC-Regular, PingFang SC" font-size="14" font-weight="normal" line-spacing="18" fill="#FFFFFF">
                                    <tspan x="73" y="180">文档</tspan>
                                </text>
                                <text id="音频" font-family="PingFangSC-Regular, PingFang SC" font-size="14" font-weight="normal" line-spacing="18" fill="#FFFFFF">
                                    <tspan x="171" y="180">音频</tspan>
                                </text>
                                <text id="视频" font-family="PingFangSC-Regular, PingFang SC" font-size="14" font-weight="normal" line-spacing="18" fill="#FFFFFF">
                                    <tspan x="269" y="180">视频</tspan>
                                </text>
                                <text id="日志" font-family="PingFangSC-Regular, PingFang SC" font-size="14" font-weight="normal" line-spacing="18" fill="#FFFFFF">
                                    <tspan x="367" y="180">日志</tspan>
                                </text>
                                <text id="静态网页" font-family="PingFangSC-Regular, PingFang SC" font-size="14" font-weight="normal" line-spacing="18" fill="#FFFFFF">
                                    <tspan x="451" y="180">静态网页</tspan>
                                </text>
                                <text id="图片" font-family="PingFangSC-Regular, PingFang SC" font-size="14" font-weight="normal" line-spacing="18" fill="#FFFFFF">
                                    <tspan x="563" y="180">图片</tspan>
                                </text>
                                <text id="SDK" font-family="PingFangSC-Medium, PingFang SC" font-size="14" font-weight="400" line-spacing="18" fill="#28B8BB">
                                    <tspan x="115" y="92">SDK</tspan>
                                </text>
                                <text id="Restful-API" font-family="PingFangSC-Medium, PingFang SC" font-size="14" font-weight="400" line-spacing="18" fill="#28B8BB">
                                    <tspan x="297" y="92">Restful API</tspan>
                                </text>
                                <text id="七牛分布式存储-KODO-Enterpr" font-family="PingFangSC-Regular, PingFang SC" font-size="14" font-weight="normal" line-spacing="18" fill="#21B4E9">
                                    <tspan x="225" y="235">七牛分布式存储 KODO Enterprise</tspan>
                                </text>
                                <text id="控制台" font-family="PingFangSC-Medium, PingFang SC" font-size="14" font-weight="400" line-spacing="18" fill="#28B8BB">
                                    <tspan x="514" y="92">控制台</tspan>
                                </text>
                                <text id="Web" font-family="PingFangSC-Regular, PingFang SC" font-size="14" font-weight="normal" line-spacing="18" fill="#FFFFFF">
                                    <tspan x="318" y="49">Web</tspan>
                                </text>
                                <text id="业务系统" font-family="PingFangSC-Regular, PingFang SC" font-size="14" font-weight="normal" line-spacing="18" fill="#FFFFFF">
                                    <tspan x="507" y="49">业务系统</tspan>
                                </text>
                            </g>
                        </g>
                    </g>
                </g>
            </g>
        </g>
    </g>
</svg>