<?xml version="1.0" encoding="UTF-8"?>
<svg width="56px" height="56px" viewBox="0 0 56 56" version="1.1" xmlns="http://www.w3.org/2000/svg" xmlns:xlink="http://www.w3.org/1999/xlink">
    <g id="产品" stroke="none" stroke-width="1" fill="none" fill-rule="evenodd">
        <g id="智能视频-短视频特效SDK✅" transform="translate(-932.000000, -722.000000)" stroke-width="2">
            <g id="核心优势" transform="translate(0.000000, 542.000000)">
                <g id="01" transform="translate(772.000000, 148.000000)">
                    <g id="编组-14" transform="translate(128.000000, 0.000000)">
                        <g id="drone-2" transform="translate(33.000000, 33.000000)">
                            <path d="M15.364,15.364 C12.3279379,18.4000993 7.56998782,18.8687474 3.99991847,16.4833382 C0.429849123,14.0979291 -0.958026966,9.52283126 0.68505875,5.55598851 C2.32814447,1.58914575 6.54457042,-0.664622661 10.7557421,0.172996324 C14.9669137,1.01061531 18,4.70633349 18,9" id="路径" stroke="#00AAE7"></path>
                            <path d="M38.636,38.636 C35.5999007,41.6720621 35.1312526,46.4300122 37.5166618,50.0000815 C39.9020709,53.5701509 44.4771687,54.958027 48.4440115,53.3149412 C52.4108542,51.6718555 54.6646227,47.4554296 53.8270037,43.2442579 C52.9893847,39.0330863 49.2936665,36 45,36" id="路径" stroke="#00AAE7"></path>
                            <path d="M38.636,15.364 C35.5999007,12.3279379 35.1312526,7.56998782 37.5166618,3.99991847 C39.9020709,0.429849123 44.4771687,-0.958026966 48.4440115,0.68505875 C52.4108542,2.32814447 54.6646227,6.54457042 53.8270037,10.7557421 C52.9893847,14.9669137 49.2936665,18 45,18" id="路径" stroke="#00AAE7"></path>
                            <path d="M15.364,38.636 C12.3279379,35.5999007 7.56998782,35.1312526 3.99991847,37.5166618 C0.429849123,39.9020709 -0.958026966,44.4771687 0.68505875,48.4440115 C2.32814447,52.4108542 6.54457042,54.6646227 10.7557421,53.8270037 C14.9669137,52.9893847 18,49.2936665 18,45" id="路径" stroke="#00AAE7"></path>
                            <polygon id="路径" stroke="#333333" points="33 33 21 33 19 19 35 19"></polygon>
                            <line x1="9" y1="9" x2="19" y2="19" id="路径" stroke="#333333"></line>
                            <line x1="21" y1="33" x2="9" y2="45" id="路径" stroke="#333333"></line>
                            <line x1="33" y1="33" x2="45" y2="45" id="路径" stroke="#333333"></line>
                            <line x1="35" y1="19" x2="45" y2="9" id="路径" stroke="#333333"></line>
                        </g>
                    </g>
                </g>
            </g>
        </g>
    </g>
</svg>
