<?xml version="1.0" encoding="UTF-8"?>
<svg width="57px" height="58px" viewBox="0 0 57 58" version="1.1" xmlns="http://www.w3.org/2000/svg" xmlns:xlink="http://www.w3.org/1999/xlink">
    <g id="产品" stroke="none" stroke-width="1" fill="none" fill-rule="evenodd" stroke-linecap="square">
        <g id="智能视频-短视频特效SDK✅" transform="translate(-1332.000000, -721.000000)" stroke-width="2">
            <g id="核心优势" transform="translate(0.000000, 542.000000)">
                <g id="01" transform="translate(1172.000000, 148.000000)">
                    <g id="编组-14" transform="translate(128.000000, 0.000000)">
                        <g id="cable-50" transform="translate(33.000000, 32.000000)">
                            <rect id="矩形" stroke="#333333" x="37" y="10" width="18" height="27"></rect>
                            <polyline id="路径" stroke="#00AAE7" points="46 43 46 56 14 56 14 43"></polyline>
                            <polyline id="路径" stroke="#333333" points="40 5 40 0 52 0 52 5"></polyline>
                            <path d="M14,37 L14,37 C6.2680135,37 -1.77635684e-15,30.7319865 -1.77635684e-15,23 L-1.77635684e-15,8 L28,8 L28,23 C28,30.7319865 21.7319865,37 14,37 Z" id="路径" stroke="#333333"></path>
                            <line x1="6" y1="8" x2="6" y2="0" id="路径" stroke="#333333"></line>
                            <line x1="22" y1="8" x2="22" y2="0" id="路径" stroke="#333333"></line>
                            <line x1="46" y1="6" x2="46" y2="10" id="路径" stroke="#333333"></line>
                        </g>
                    </g>
                </g>
            </g>
        </g>
    </g>
</svg>
