<?xml version="1.0" encoding="UTF-8"?>
<svg width="62px" height="46px" viewBox="0 0 62 46" version="1.1" xmlns="http://www.w3.org/2000/svg" xmlns:xlink="http://www.w3.org/1999/xlink">
    <!-- Generator: Sketch 64 (93537) - https://sketch.com -->
    <title>bra</title>
    <desc>Created with Sketch.</desc>
    <g id="产品" stroke="none" stroke-width="1" fill="none" fill-rule="evenodd">
        <g id="智能视频-内容审核✅" transform="translate(-458.000000, -1203.000000)" stroke-width="2">
            <g id="产品介绍-2" transform="translate(0.000000, 1019.000000)">
                <g id="01" transform="translate(351.000000, 148.000000)">
                    <g id="编组-14" transform="translate(78.000000, 0.000000)">
                        <g id="bra" transform="translate(30.000000, 37.000000)">
                            <polyline id="路径" stroke="#00AAE7" points="0 16 0 0 4 0 4 16.2"></polyline>
                            <polyline id="路径" stroke="#00AAE7" points="60 16 60 0 56 0 56 16.2"></polyline>
                            <path d="M30,34 C30,34 20.5,16 0,16 L0,34 C0,39.5 4.5,44 10,44 L50,44 C55.5,44 60,39.5 60,34 L60,16 C39.5,16 30,34 30,34 Z" id="路径" stroke="#333333" stroke-linecap="square"></path>
                        </g>
                    </g>
                </g>
            </g>
        </g>
    </g>
</svg>