<?xml version="1.0" encoding="UTF-8"?>
<svg width="60px" height="50px" viewBox="0 0 60 50" version="1.1" xmlns="http://www.w3.org/2000/svg" xmlns:xlink="http://www.w3.org/1999/xlink">
    <!-- Generator: Sketch 64 (93537) - https://sketch.com -->
    <title>play-movie</title>
    <desc>Created with Sketch.</desc>
    <g id="产品" stroke="none" stroke-width="1" fill="none" fill-rule="evenodd">
        <g id="智能视频-内容审核✅" transform="translate(-1026.000000, -828.000000)" stroke-width="2">
            <g id="产品介绍-2" transform="translate(0.000000, 611.000000)">
                <g id="编组-5" transform="translate(972.000000, 148.000000)">
                    <g id="编组-6" transform="translate(24.000000, 34.000000)">
                        <g id="play-movie" transform="translate(31.000000, 36.000000)">
                            <rect id="矩形" stroke="#333333" stroke-linecap="square" x="0" y="0" width="58" height="48"></rect>
                            <line x1="0" y1="9" x2="58" y2="9" id="路径" stroke="#333333" stroke-linecap="square"></line>
                            <line x1="58" y1="39" x2="0" y2="39" id="路径" stroke="#333333" stroke-linecap="square"></line>
                            <line x1="29" y1="0" x2="29" y2="9" id="路径" stroke="#333333"></line>
                            <line x1="29" y1="39" x2="29" y2="48" id="路径" stroke="#333333"></line>
                            <line x1="49" y1="0" x2="49" y2="9" id="路径" stroke="#333333"></line>
                            <line x1="39" y1="0" x2="39" y2="9" id="路径" stroke="#333333"></line>
                            <line x1="19" y1="0" x2="19" y2="9" id="路径" stroke="#333333"></line>
                            <line x1="9" y1="0" x2="9" y2="9" id="路径" stroke="#333333"></line>
                            <line x1="49" y1="39" x2="49" y2="48" id="路径" stroke="#333333"></line>
                            <line x1="39" y1="39" x2="39" y2="48" id="路径" stroke="#333333"></line>
                            <line x1="19" y1="39" x2="19" y2="48" id="路径" stroke="#333333"></line>
                            <line x1="9" y1="39" x2="9" y2="48" id="路径" stroke="#333333"></line>
                            <polygon id="路径" stroke="#00AAE7" stroke-linecap="square" points="24 16 38 24 24 32"></polygon>
                        </g>
                    </g>
                </g>
            </g>
        </g>
    </g>
</svg>