<?xml version="1.0" encoding="UTF-8"?>
<svg width="55px" height="60px" viewBox="0 0 55 60" version="1.1" xmlns="http://www.w3.org/2000/svg" xmlns:xlink="http://www.w3.org/1999/xlink">
    <!-- Generator: Sketch 64 (93537) - https://sketch.com -->
    <title>infrared-thermometer</title>
    <desc>Created with Sketch.</desc>
    <g id="产品" stroke="none" stroke-width="1" fill="none" fill-rule="evenodd">
        <g id="智能视频-内容审核✅" transform="translate(-762.000000, -1197.000000)" stroke-width="2">
            <g id="产品介绍-2" transform="translate(0.000000, 1019.000000)">
                <g id="01" transform="translate(651.000000, 148.000000)">
                    <g id="infrared-thermometer" transform="translate(112.000000, 31.000000)">
                        <path d="M37,24 L37,31 C37,33.209139 35.209139,35 33,35 L26.13,35" id="路径" stroke="#00AAE7"></path>
                        <line x1="27" y1="8" x2="41" y2="8" id="路径" stroke="#00AAE7" stroke-linecap="square"></line>
                        <line x1="27" y1="16" x2="41" y2="16" id="路径" stroke="#00AAE7" stroke-linecap="square"></line>
                        <path d="M23,47 L26.088,51.852 C26.8721013,53.0837577 26.922726,54.644902 26.2200749,55.924872 C25.5174238,57.2048421 24.1731513,58 22.713,58 L7.28,58 C5.08341791,58 3.01416977,56.9691192 1.69135173,55.2155157 C0.368533694,53.4619122 -0.0544324835,51.1890706 0.549,49.077 L8,23 L4,17 L12,0 L53,0 L53,24 L29,24 L23,47 Z" id="路径" stroke="#333333" stroke-linecap="square"></path>
                    </g>
                </g>
            </g>
        </g>
    </g>
</svg>