<?xml version="1.0" encoding="UTF-8"?>
<svg width="520px" height="350px" viewBox="0 0 520 350" version="1.1" xmlns="http://www.w3.org/2000/svg" xmlns:xlink="http://www.w3.org/1999/xlink">
    <title>插画</title>
    <defs>
        <filter x="-55.0%" y="-254.8%" width="210.0%" height="609.5%" filterUnits="objectBoundingBox" id="filter-1">
            <feGaussianBlur stdDeviation="50" in="SourceGraphic"></feGaussianBlur>
        </filter>
        <linearGradient x1="50%" y1="0%" x2="50%" y2="100%" id="linearGradient-2">
            <stop stop-color="#7AE9FF" stop-opacity="0" offset="0%"></stop>
            <stop stop-color="#44CFFF" offset="100%"></stop>
        </linearGradient>
        <linearGradient x1="50%" y1="0%" x2="50%" y2="100%" id="linearGradient-3">
            <stop stop-color="#7AE9FF" stop-opacity="0" offset="0%"></stop>
            <stop stop-color="#56D3FF" stop-opacity="0.500027316" offset="100%"></stop>
        </linearGradient>
        <filter x="-25.0%" y="-187.5%" width="150.0%" height="475.0%" filterUnits="objectBoundingBox" id="filter-4">
            <feGaussianBlur stdDeviation="10" in="SourceGraphic"></feGaussianBlur>
        </filter>
        <linearGradient x1="50%" y1="0%" x2="50%" y2="100%" id="linearGradient-5">
            <stop stop-color="#00D4F5" stop-opacity="0" offset="0%"></stop>
            <stop stop-color="#00BCED" offset="48.7070261%"></stop>
            <stop stop-color="#00AAE7" stop-opacity="0" offset="100%"></stop>
        </linearGradient>
        <linearGradient x1="50%" y1="0%" x2="50%" y2="100%" id="linearGradient-6">
            <stop stop-color="#00D4F5" stop-opacity="0" offset="0%"></stop>
            <stop stop-color="#00BCED" offset="48.7070261%"></stop>
            <stop stop-color="#00AAE7" stop-opacity="0" offset="100%"></stop>
        </linearGradient>
        <path d="M127.311828,44.4854071 C123.870968,18.9247312 102.242704,-1.62409768e-13 76.1904762,-1.62409768e-13 C53.8248848,-1.62409768e-13 34.4086022,14.0092166 27.281106,35.1459293 C11.3056836,38.5867896 0,52.3502304 0,68.8172043 C0,86.7588326 14.0092166,101.751152 31.9508449,103.225806 L125.345622,103.225806 C125.345622,103.225806 125.591398,103.225806 125.591398,103.225806 C140.583717,101.751152 152.380952,88.9708141 152.380952,73.7327189 C152.380952,59.2319508 141.56682,46.6973886 127.311828,44.4854071 Z" id="path-7"></path>
        <linearGradient x1="50%" y1="0%" x2="50%" y2="97.6061022%" id="linearGradient-9">
            <stop stop-color="#E2F7FF" offset="0%"></stop>
            <stop stop-color="#94D8FF" offset="100%"></stop>
        </linearGradient>
        <linearGradient x1="50%" y1="0%" x2="50%" y2="100%" id="linearGradient-10">
            <stop stop-color="#C8F1FF" offset="0%"></stop>
            <stop stop-color="#97DFFD" offset="100%"></stop>
        </linearGradient>
        <path d="M27,19 L27,23 L9,23 L9,19 L27,19 Z M37,9 L37,13 L9,13 L9,9 L37,9 Z" id="path-11"></path>
        <filter x="-7.1%" y="-14.3%" width="114.3%" height="128.6%" filterUnits="objectBoundingBox" id="filter-12">
            <feGaussianBlur stdDeviation="1.5" in="SourceAlpha" result="shadowBlurInner1"></feGaussianBlur>
            <feOffset dx="0" dy="1" in="shadowBlurInner1" result="shadowOffsetInner1"></feOffset>
            <feComposite in="shadowOffsetInner1" in2="SourceAlpha" operator="arithmetic" k2="-1" k3="1" result="shadowInnerInner1"></feComposite>
            <feColorMatrix values="0 0 0 0 0.184313725   0 0 0 0 0.643137255   0 0 0 0 0.929411765  0 0 0 1 0" type="matrix" in="shadowInnerInner1"></feColorMatrix>
        </filter>
        <linearGradient x1="50%" y1="0%" x2="50%" y2="100%" id="linearGradient-13">
            <stop stop-color="#C8F1FF" offset="0%"></stop>
            <stop stop-color="#97DFFD" offset="100%"></stop>
        </linearGradient>
        <path d="M8,0 C3.581722,0 0,3.581722 0,8 C0,12.418278 3.581722,16 8,16 C12.418278,16 16,12.418278 16,8 C16,5.87826808 15.1571453,3.84343678 13.6568542,2.34314575 C12.1565632,0.842854723 10.1217319,0 8,0 Z M4,7 C4,6.44771525 4.44771525,6 5,6 C5.55228475,6 6,6.44771525 6,7 C6,7.55228475 5.55228475,8 5,8 C4.44771525,8 4,7.55228475 4,7 Z M11.0315,11.25 C10.4063928,12.3333051 9.25072336,13.0007122 8,13.0007122 C6.74927664,13.0007122 5.59360717,12.3333051 4.9685,11.25 L4.7185,10.817 L5.584,10.317 L5.834,10.7495 C6.28040207,11.5236731 7.10609525,12.0006898 7.99975,12.0006898 C8.89340475,12.0006898 9.71909793,11.5236731 10.1655,10.7495 L10.4155,10.317 L11.281,10.817 L11.0315,11.25 Z M11,8 C10.4477153,8 10,7.55228475 10,7 C10,6.44771525 10.4477153,6 11,6 C11.5522847,6 12,6.44771525 12,7 C12,7.55228475 11.5522847,8 11,8 Z" id="path-14"></path>
        <filter x="-12.5%" y="-12.5%" width="125.0%" height="125.0%" filterUnits="objectBoundingBox" id="filter-15">
            <feGaussianBlur stdDeviation="1.5" in="SourceAlpha" result="shadowBlurInner1"></feGaussianBlur>
            <feOffset dx="0" dy="1" in="shadowBlurInner1" result="shadowOffsetInner1"></feOffset>
            <feComposite in="shadowOffsetInner1" in2="SourceAlpha" operator="arithmetic" k2="-1" k3="1" result="shadowInnerInner1"></feComposite>
            <feColorMatrix values="0 0 0 0 0.184313725   0 0 0 0 0.643137255   0 0 0 0 0.929411765  0 0 0 1 0" type="matrix" in="shadowInnerInner1"></feColorMatrix>
        </filter>
    </defs>
    <g id="产品" stroke="none" stroke-width="1" fill="none" fill-rule="evenodd">
        <g id="基础服务-云短信✅" transform="translate(-1028.000000, -120.000000)">
            <g id="banner" transform="translate(0.000000, 120.000000)">
                <rect id="矩形" x="0" y="0" width="1920" height="350"></rect>
                <g id="插画" transform="translate(1135.000000, 40.000000)">
                    <g id="编组-22" transform="translate(0.000000, 155.000000)">
                        <ellipse id="椭圆形" fill="#00BDFF" filter="url(#filter-1)" cx="149.36" cy="49.12" rx="136.32" ry="29.44"></ellipse>
                        <ellipse id="椭圆形" fill="url(#linearGradient-2)" cx="150" cy="29.44" rx="150" ry="29.44"></ellipse>
                        <ellipse id="椭圆形" fill="url(#linearGradient-3)" cx="150" cy="53.44" rx="150" ry="29.44"></ellipse>
                        <ellipse id="椭圆形" fill-opacity="0.5" fill="#0784DA" filter="url(#filter-4)" cx="150" cy="32" rx="60" ry="8"></ellipse>
                    </g>
                    <g id="编组-21" transform="translate(2.000000, 0.000000)" fill-rule="nonzero">
                        <path d="M4,100 L4,126 L4,126 L0,126 L0,96 C2.209139,96 4,97.790861 4,100 Z" id="路径" fill="url(#linearGradient-5)"></path>
                        <path d="M27,33 L27,60 L27,60 L24,60 L24,30 C25.6568542,30 27,31.3431458 27,33 Z" id="路径" fill="url(#linearGradient-6)"></path>
                        <path d="M275,37 L275,63 L275,63 L271,63 L271,33 C273.209139,33 275,34.790861 275,37 Z" id="路径" fill="url(#linearGradient-5)"></path>
                        <path d="M298,109 L298,135 L298,135 L294,135 L294,105 C296.209139,105 298,106.790861 298,109 Z" id="路径" fill="url(#linearGradient-5)" opacity="0.300000012"></path>
                        <path d="M228,4 L228,30 L228,30 L224,30 L224,0 C226.209139,-4.05812251e-16 228,1.790861 228,4 Z" id="路径" fill="url(#linearGradient-5)" opacity="0.400000006"></path>
                        <path d="M312,166 L312,193 L312,193 L309,193 L309,163 C310.656854,163 312,164.343146 312,166 Z" id="路径" fill="url(#linearGradient-6)" opacity="0.449999988"></path>
                    </g>
                    <g id="编组-22备份" transform="translate(20.000000, 50.000000)">
                        <g id="编组-12" transform="translate(48.000000, 26.000000)">
                            <g id="编组-20" transform="translate(7.619048, 0.000000)">
                                <mask id="mask-8" fill="white">
                                    <use xlink:href="#path-7"></use>
                                </mask>
                                <use id="路径" fill="#9FD7F6" fill-rule="nonzero" xlink:href="#path-7"></use>
                                <polygon id="路径-6" fill="#7DC5ED" mask="url(#mask-8)" points="127.311828 44.4854071 113.606015 58.0705933 117.726575 110.844854 161.027397 97.3200639 161.027397 42.6698213"></polygon>
                            </g>
                            <path d="M127.311828,52.1044547 C123.870968,26.5437788 102.242704,7.61904762 76.1904762,7.61904762 C53.8248848,7.61904762 34.4086022,21.6282642 27.281106,42.764977 C11.3056836,46.2058372 0,59.969278 0,76.4362519 C0,94.3778802 14.0092166,109.3702 31.9508449,110.844854 L125.345622,110.844854 C125.345622,110.844854 125.591398,110.844854 125.591398,110.844854 C140.583717,109.3702 152.380952,96.5898618 152.380952,81.3517665 C152.380952,66.8509985 141.56682,54.3164363 127.311828,52.1044547 Z" id="路径" fill="url(#linearGradient-9)"></path>
                        </g>
                        <g id="形状结合-2" transform="translate(191.000000, 0.000000)">
                            <path d="M51,1.14285714 C53.7614237,1.14285714 56,3.38143339 56,6.14285714 L56,30.4285714 C56,33.1899952 53.7614237,35.4285714 51,35.4285714 L9.142,35.4278571 L2.287,42.2828571 L2.28784595,42.2857143 L2.286,42.2838571 L2.28571429,42.2857143 L2.285,42.2828571 L0,40 L2.285,37.4818571 L2.28571429,6.14285714 C2.28571429,3.38143339 4.52429054,1.14285714 7.28571429,1.14285714 L51,1.14285714 Z" id="形状结合" fill="#7DC5ED"></path>
                            <path d="M0,4 C-2.705415e-16,1.790861 1.790861,4.05812251e-16 4,0 L49.7142857,0 C51.9234247,-4.33003142e-15 53.7142857,1.790861 53.7142857,4 L53.7142857,29.1428571 C53.7142857,31.3519961 51.9234247,33.1428571 49.7142857,33.1428571 L6.858,33.142 L0,40 L0,4 Z" id="形状结合" fill="url(#linearGradient-10)"></path>
                            <g id="形状结合">
                                <use fill="#61BBF3" fill-rule="evenodd" xlink:href="#path-11"></use>
                                <use fill="black" fill-opacity="1" filter="url(#filter-12)" xlink:href="#path-11"></use>
                            </g>
                        </g>
                        <g id="形状结合-2" transform="translate(0.000000, 24.000000)">
                            <g id="编组-24" transform="translate(28.500000, 23.000000) scale(-1, 1) translate(-28.500000, -23.000000) ">
                                <path d="M49,2.42857143 C51.7614237,2.42857143 54,4.66714768 54,7.42857143 L54,33.4285714 C54,36.1899952 51.7614237,38.4285714 49,38.4285714 L7.14271429,38.4285714 L2.99971429,42.5715714 L3,43 L0.293847229,45.2883573 L0.317714286,45.2535714 L0.285714286,45.2857143 L0.285714286,7.42857143 C0.285714286,4.66714768 2.52429054,2.42857143 5.28571429,2.42857143 L49,2.42857143 Z" id="形状结合" fill="#7DC5ED"></path>
                                <path d="M3,4.14285714 C3,1.93371814 4.790861,0.142857143 7,0.142857143 L52.7142857,0.142857143 C54.9234247,0.142857143 56.7142857,1.93371814 56.7142857,4.14285714 L56.7142857,32.1428571 C56.7142857,34.3519961 54.9234247,36.1428571 52.7142857,36.1428571 L9.857,36.1428571 L3,43 L3,4.14285714 Z" id="形状结合" fill="url(#linearGradient-13)"></path>
                                <g id="smile" transform="translate(22.000000, 11.000000)" fill-rule="nonzero">
                                    <g id="形状">
                                        <use fill="#59B7F1" xlink:href="#path-14"></use>
                                        <use fill="black" fill-opacity="1" filter="url(#filter-15)" xlink:href="#path-14"></use>
                                    </g>
                                </g>
                            </g>
                        </g>
                    </g>
                </g>
            </g>
        </g>
    </g>
</svg>