<?xml version="1.0" encoding="UTF-8"?>
<svg width="56px" height="56px" viewBox="0 0 56 56" version="1.1" xmlns="http://www.w3.org/2000/svg" xmlns:xlink="http://www.w3.org/1999/xlink">
    <title>3d-printing</title>
    <g id="解决方案" stroke="none" stroke-width="1" fill="none" fill-rule="evenodd">
        <g id="场景解决方案-短视频解决方案✅" transform="translate(-1082.000000, -756.000000)" stroke-width="2">
            <g id="产品介绍-2" transform="translate(372.000000, 614.000000)">
                <g id="01" transform="translate(600.000000, 110.000000)">
                    <g id="3d-printing" transform="translate(111.000000, 33.000000)">
                        <polyline id="路径" stroke="#333333" stroke-linecap="square" points="34 6 34 11 27 14 20 11 20 6"></polyline>
                        <line x1="27" y1="14" x2="27" y2="18" id="路径" stroke="#333333" stroke-linecap="square"></line>
                        <polyline id="路径" stroke="#00AAE7" points="17 30 27 35 37 30"></polyline>
                        <line x1="27" y1="35" x2="27" y2="47" id="路径" stroke="#00AAE7"></line>
                        <polygon id="路径" stroke="#00AAE7" points="37 42 27 47 17 42 17 30 27 25 37 30"></polygon>
                        <line x1="11" y1="42" x2="0" y2="42" id="路径" stroke="#333333" stroke-linecap="square"></line>
                        <line x1="54" y1="42" x2="43" y2="42" id="路径" stroke="#333333" stroke-linecap="square"></line>
                        <rect id="矩形" stroke="#333333" stroke-linecap="square" x="0" y="0" width="54" height="54" rx="4"></rect>
                        <polyline id="路径" stroke="#333333" stroke-linecap="square" points="38 0 38 6 16 6 16 0"></polyline>
                    </g>
                </g>
            </g>
        </g>
    </g>
</svg>