<?xml version="1.0" encoding="UTF-8"?>
<svg width="50px" height="60px" viewBox="0 0 50 60" version="1.1" xmlns="http://www.w3.org/2000/svg" xmlns:xlink="http://www.w3.org/1999/xlink">
    <title>data-cloud</title>
    <g id="解决方案" stroke="none" stroke-width="1" fill="none" fill-rule="evenodd" stroke-linecap="square">
        <g id="场景解决方案-短视频解决方案✅" transform="translate(-1385.000000, -754.000000)" stroke-width="2">
            <g id="产品介绍-2" transform="translate(372.000000, 614.000000)">
                <g id="01" transform="translate(900.000000, 110.000000)">
                    <g id="data-cloud" transform="translate(114.000000, 31.000000)">
                        <path d="M35,28 C34.6576434,28.0019546 34.3160755,28.033067 33.979,28.093 C33.7703348,22.3714485 29.0137198,17.8733469 23.2894416,17.9843999 C17.5651635,18.0954529 12.9865915,22.7746604 13,28.5 C13.0042639,29.0504972 13.0514065,29.5998257 13.141,30.143 C11.2610376,29.683808 9.28490577,30.3507054 8.06762203,31.8551443 C6.85033829,33.3595831 6.61051702,35.4313782 7.45192225,37.1741212 C8.29332748,38.9168642 10.0648496,40.0175725 12,40.0002073 L35,40.0002073 C38.3137085,40.0002073 41,37.3137085 41,34 C41,30.6862915 38.3137085,28 35,28 Z" id="路径" stroke="#00AAE7"></path>
                        <rect id="矩形" stroke="#333333" x="0" y="0" width="48" height="58"></rect>
                    </g>
                </g>
            </g>
        </g>
    </g>
</svg>