<svg width="32" height="32" viewBox="0 0 32 32" fill="none" xmlns="http://www.w3.org/2000/svg">
  <circle cx="16" cy="16" r="15" fill="#333333" fill-opacity="0.5" stroke="white" stroke-width="2"/>
  <path fill-rule="evenodd" clip-rule="evenodd" d="M15.0708 6C15.0708 5.44772 15.5185 5 16.0708 5C16.6231 5 17.0708 5.44772 17.0708 6V17.2429L21.0208 13.2929C21.4113 12.9024 22.0445 12.9024 22.435 13.2929C22.8255 13.6834 22.8255 14.3166 22.435 14.7071L16.7781 20.364C16.6523 20.4898 16.5012 20.5751 16.3412 20.6199C16.0046 20.714 15.6285 20.6287 15.3638 20.364L9.70696 14.7071C9.31643 14.3166 9.31643 13.6834 9.70696 13.2929C10.0975 12.9024 10.7306 12.9024 11.1212 13.2929L15.0708 17.2426V6ZM10 23C9.44772 23 9 23.4477 9 24C9 24.5523 9.44772 25 10 25H22C22.5523 25 23 24.5523 23 24C23 23.4477 22.5523 23 22 23H10Z" fill="white"/>
</svg>
