<svg xmlns="http://www.w3.org/2000/svg" xmlns:xlink="http://www.w3.org/1999/xlink" width="488" height="488" viewBox="0 0 488 488">
  <defs>
    <linearGradient id="客户价值01-a" x1="50%" x2="50%" y1="0%" y2="100%">
      <stop offset="0%" stop-color="#D6F1FF"/>
      <stop offset="100%" stop-color="#EEF5FF"/>
    </linearGradient>
    <linearGradient id="客户价值01-b" x1="50%" x2="50%" y1="0%" y2="100%">
      <stop offset="0%" stop-color="#6CCCFF"/>
      <stop offset="100%" stop-color="#3487EC"/>
    </linearGradient>
    <path id="客户价值01-d" d="M13.6,35.2 L13.6,37.6 C13.6,38.007841 13.2948119,38.3444016 12.9003503,38.3937669 L12.8,38.4 C12.3581722,38.4 12,38.0418278 12,37.6 L12,35.2 L13.6,35.2 Z M26.4,35.2 L26.4,37.6 C26.4,38.007841 26.0948119,38.3444016 25.7003503,38.3937669 L25.6,38.4 C25.1581722,38.4 24.8,38.0418278 24.8,37.6 L24.8,35.2 L26.4,35.2 Z M20,35.2 L20,37.6 C20,38.007841 19.6948119,38.3444016 19.3003503,38.3937669 L19.2,38.4 C18.7581722,38.4 18.4,38.0418278 18.4,37.6 L18.4,35.2 L20,35.2 Z M30.4,4.8 C32.1673112,4.8 33.6,6.2326888 33.6,8 L33.6,8 L33.6,30.4 C33.6,32.1673112 32.1673112,33.6 30.4,33.6 L30.4,33.6 L8,33.6 C6.2326888,33.6 4.8,32.1673112 4.8,30.4 L4.8,30.4 L4.8,8 C4.8,6.2326888 6.2326888,4.8 8,4.8 L8,4.8 Z M25.6,23.2 C24.2745166,23.2 23.2,24.2745166 23.2,25.6 C23.2,26.9254834 24.2745166,28 25.6,28 C26.9254834,28 28,26.9254834 28,25.6 C28,24.2745166 26.9254834,23.2 25.6,23.2 Z M3.2,24.8 L3.2,26.4 L0.8,26.4 C0.392158954,26.4 0.055598419,26.0948119 0.00623313573,25.7003503 L0,25.6 C0,25.1581722 0.3581722,24.8 0.8,24.8 L3.2,24.8 Z M37.6,24.8 C38.007841,24.8 38.3444016,25.1051881 38.3937669,25.4996497 L38.4,25.6 C38.4,26.0418278 38.0418278,26.4 37.6,26.4 L35.2,26.4 L35.2,24.8 L37.6,24.8 Z M3.2,18.4 L3.2,20 L0.8,20 C0.392158954,20 0.055598419,19.6948119 0.00623313573,19.3003503 L0,19.2 C0,18.7581722 0.3581722,18.4 0.8,18.4 L3.2,18.4 Z M37.6,18.4 C38.007841,18.4 38.3444016,18.7051881 38.3937669,19.0996497 L38.4,19.2 C38.4,19.6418278 38.0418278,20 37.6,20 L35.2,20 L35.2,18.4 L37.6,18.4 Z M3.2,12 L3.2,13.6 L0.8,13.6 C0.392158954,13.6 0.055598419,13.2948119 0.00623313573,12.9003503 L0,12.8 C0,12.3581722 0.3581722,12 0.8,12 L3.2,12 Z M37.6,12 C38.007841,12 38.3444016,12.3051881 38.3937669,12.6996497 L38.4,12.8 C38.4,13.2418278 38.0418278,13.6 37.6,13.6 L35.2,13.6 L35.2,12 L37.6,12 Z M12.8,0 C13.2418278,0 13.6,0.3581722 13.6,0.8 L13.6,3.2 L12,3.2 L12,0.8 C12,0.392158954 12.3051881,0.055598419 12.6996497,0.00623313573 L12.8,0 Z M25.6,0 C26.0418278,0 26.4,0.3581722 26.4,0.8 L26.4,3.2 L24.8,3.2 L24.8,0.8 C24.8,0.392158954 25.1051881,0.055598419 25.4996497,0.00623313573 L25.6,0 Z M19.2,0 C19.6418278,0 20,0.3581722 20,0.8 L20,3.2 L18.4,3.2 L18.4,0.8 C18.4,0.392158954 18.7051881,0.055598419 19.0996497,0.00623313573 L19.2,0 Z"/>
    <filter id="客户价值01-c" width="193.7%" height="193.7%" x="-46.9%" y="-31.2%" filterUnits="objectBoundingBox">
      <feOffset dy="6" in="SourceAlpha" result="shadowOffsetOuter1"/>
      <feGaussianBlur in="shadowOffsetOuter1" result="shadowBlurOuter1" stdDeviation="5"/>
      <feColorMatrix in="shadowBlurOuter1" values="0 0 0 0 0.197766994   0 0 0 0 0.564297587   0 0 0 0 0.94361413  0 0 0 1 0"/>
    </filter>
  </defs>
  <g fill="none" fill-rule="evenodd">
    <circle cx="243.6" cy="243.2" r="200" stroke="#00AAE7" stroke-width="6.4"/>
    <circle cx="244" cy="242.4" r="94.4" fill="url(#客户价值01-a)"/>
    <circle cx="244" cy="243.2" r="88" fill="url(#客户价值01-b)"/>
    <circle cx="243.6" cy="43.2" r="43.2" fill="#EFF8FF"/>
    <circle cx="244" cy="43" r="36" fill="#D8EFFF"/>
    <text fill="#00AAE7" font-family="PingFangSC-Medium, PingFang SC" font-size="16" font-weight="400">
      <tspan x="228" y="38">基础</tspan> <tspan x="228" y="60">设施</tspan>
    </text>
    <circle cx="344" cy="70.4" r="43.2" fill="#EFF8FF"/>
    <circle cx="344" cy="70.4" r="36" fill="#D8EFFF" transform="rotate(30 344 70.4)"/>
    <text fill="#00AAE7" font-family="PingFangSC-Medium, PingFang SC" font-size="16" font-weight="400">
      <tspan x="328" y="75.4">网络</tspan>
    </text>
    <circle cx="416.8" cy="143.2" r="43.2" fill="#EFF8FF"/>
    <circle cx="416.8" cy="143.2" r="36" fill="#D8EFFF" transform="rotate(60 416.8 143.2)"/>
    <text fill="#00AAE7" font-family="PingFangSC-Medium, PingFang SC" font-size="16" font-weight="400">
      <tspan x="400.8" y="149">服务</tspan>
    </text>
    <circle cx="444" cy="244" r="43.2" fill="#EFF8FF"/>
    <circle cx="444" cy="244" r="36" fill="#D8EFFF" transform="rotate(90 444 244)"/>
    <text fill="#00AAE7" font-family="PingFangSC-Medium, PingFang SC" font-size="16" font-weight="400">
      <tspan x="428" y="249.8">存储</tspan>
    </text>
    <circle cx="416.8" cy="344" r="43.2" fill="#EFF8FF"/>
    <circle cx="416.8" cy="344" r="36" fill="#D8EFFF" transform="rotate(120 416.8 344)"/>
    <text fill="#00AAE7" font-family="PingFangSC-Medium, PingFang SC" font-size="16" font-weight="400">
      <tspan x="400.8" y="349.8">安全</tspan>
    </text>
    <circle cx="344" cy="416.8" r="43.2" fill="#EFF8FF"/>
    <circle cx="344" cy="416.8" r="36" fill="#D8EFFF" transform="rotate(150 344 416.8)"/>
    <text fill="#00AAE7" font-family="PingFangSC-Medium, PingFang SC" font-size="16" font-weight="400">
      <tspan x="320" y="422.6">虚拟化</tspan>
    </text>
    <circle cx="244" cy="444" r="43.2" fill="#EFF8FF"/>
    <circle cx="244" cy="444" r="36" fill="#D8EFFF" transform="rotate(180 244 444)"/>
    <text fill="#00AAE7" font-family="PingFangSC-Medium, PingFang SC" font-size="16" font-weight="400">
      <tspan x="228" y="438.6">容灾</tspan> <tspan x="228" y="460.6">备份</tspan>
    </text>
    <circle cx="143.2" cy="416.8" r="43.2" fill="#EFF8FF"/>
    <circle cx="143.2" cy="416.8" r="36" fill="#D8EFFF" transform="rotate(-150 143.2 416.8)"/>
    <text fill="#00AAE7" font-family="PingFangSC-Medium, PingFang SC" font-size="16" font-weight="400">
      <tspan x="127.2" y="411.4">业务</tspan> <tspan x="127.2" y="433.4">应用</tspan>
    </text>
    <circle cx="70.4" cy="344" r="43.2" fill="#EFF8FF"/>
    <circle cx="70.4" cy="344" r="36" fill="#D8EFFF" transform="rotate(-120 70.4 344)"/>
    <text fill="#00AAE7" font-family="PingFangSC-Medium, PingFang SC" font-size="16" font-weight="400">
      <tspan x="48.376" y="349.8">Cloud</tspan>
    </text>
    <circle cx="43.2" cy="244.8" r="43.2" fill="#EFF8FF"/>
    <circle cx="43.2" cy="244" r="36" fill="#D8EFFF" transform="rotate(-90 43.2 244)"/>
    <text fill="#00AAE7" font-family="PingFangSC-Medium, PingFang SC" font-size="16" font-weight="400">
      <tspan x="27.2" y="249.8">中台</tspan>
    </text>
    <circle cx="70.4" cy="143.2" r="43.2" fill="#EFF8FF"/>
    <circle cx="70.4" cy="143.2" r="36" fill="#D8EFFF" transform="rotate(-60 70.4 143.2)"/>
    <text fill="#00AAE7" font-family="PingFangSC-Medium, PingFang SC" font-size="16" font-weight="400">
      <tspan x="54.4" y="149">开发</tspan>
    </text>
    <circle cx="143.2" cy="70.4" r="43.2" fill="#EFF8FF"/>
    <circle cx="143.2" cy="70.4" r="36" fill="#D8EFFF" transform="rotate(-30 143.2 70.4)"/>
    <text fill="#00AAE7" font-family="PingFangSC-Medium, PingFang SC" font-size="16" font-weight="400">
      <tspan x="127.2" y="76.2">运维</tspan>
    </text>
    <text fill="#FFF" font-family="PingFangSC-Medium, PingFang SC" font-size="20" font-weight="400">
      <tspan x="211.99" y="258.4">IT 系统</tspan> <tspan x="194" y="286.4">越来越复杂</tspan>
    </text>
    <g fill-rule="nonzero" transform="translate(224.8 190.4)">
      <use fill="#000" filter="url(#客户价值01-c)" xlink:href="#客户价值01-d"/>
      <use fill="#FFF" xlink:href="#客户价值01-d"/>
    </g>
    <path fill="#4BC310" fill-rule="nonzero" d="M308.2,144.773619 C308.6424,144.773619 309,145.131219 309,145.573619 C309,146.016019 308.6424,146.373619 308.2,146.373619 L308.2,146.373619 L301.8,146.373619 C301.3576,146.373619 301,146.016019 301,145.573619 C301,145.131219 301.3576,144.773619 301.8,144.773619 L301.8,144.773619 Z M305,122.373619 L313.8,133.573619 L309,133.573619 L309,141.573619 C309,142.015219 308.6416,142.373619 308.2,142.373619 L301.8,142.373619 C301.3584,142.373619 301,142.015219 301,141.573619 L301,133.573619 L296.2,133.573619 L305,122.373619 Z" opacity=".4" transform="rotate(30 305 134.374)"/>
    <path fill="#4BC310" fill-rule="nonzero" d="M354.026381,190.6 C354.468781,190.6 354.826381,190.9576 354.826381,191.4 C354.826381,191.8424 354.468781,192.2 354.026381,192.2 L354.026381,192.2 L347.626381,192.2 C347.183981,192.2 346.826381,191.8424 346.826381,191.4 C346.826381,190.9576 347.183981,190.6 347.626381,190.6 L347.626381,190.6 Z M350.826381,168.2 L359.626381,179.4 L354.826381,179.4 L354.826381,187.4 C354.826381,187.8416 354.467981,188.2 354.026381,188.2 L347.626381,188.2 C347.184781,188.2 346.826381,187.8416 346.826381,187.4 L346.826381,179.4 L342.026381,179.4 L350.826381,168.2 Z" opacity=".4" transform="rotate(60 350.826 180.2)"/>
    <path fill="#4BC310" fill-rule="nonzero" d="M370.8,253.2 C371.2424,253.2 371.6,253.5576 371.6,254 C371.6,254.4424 371.2424,254.8 370.8,254.8 L370.8,254.8 L364.4,254.8 C363.9576,254.8 363.6,254.4424 363.6,254 C363.6,253.5576 363.9576,253.2 364.4,253.2 L364.4,253.2 Z M367.6,230.8 L376.4,242 L371.6,242 L371.6,250 C371.6,250.4416 371.2416,250.8 370.8,250.8 L364.4,250.8 C363.9584,250.8 363.6,250.4416 363.6,250 L363.6,242 L358.8,242 L367.6,230.8 Z" opacity=".4" transform="rotate(90 367.6 242.8)"/>
    <path fill="#4BC310" fill-rule="nonzero" d="M354.026381,315.8 C354.468781,315.8 354.826381,316.1576 354.826381,316.6 C354.826381,317.0424 354.468781,317.4 354.026381,317.4 L354.026381,317.4 L347.626381,317.4 C347.183981,317.4 346.826381,317.0424 346.826381,316.6 C346.826381,316.1576 347.183981,315.8 347.626381,315.8 L347.626381,315.8 Z M350.826381,293.4 L359.626381,304.6 L354.826381,304.6 L354.826381,312.6 C354.826381,313.0416 354.467981,313.4 354.026381,313.4 L347.626381,313.4 C347.184781,313.4 346.826381,313.0416 346.826381,312.6 L346.826381,304.6 L342.026381,304.6 L350.826381,293.4 Z" opacity=".4" transform="rotate(120 350.826 305.4)"/>
    <path fill="#4BC310" fill-rule="nonzero" d="M308.2,361.626381 C308.6424,361.626381 309,361.983981 309,362.426381 C309,362.868781 308.6424,363.226381 308.2,363.226381 L308.2,363.226381 L301.8,363.226381 C301.3576,363.226381 301,362.868781 301,362.426381 C301,361.983981 301.3576,361.626381 301.8,361.626381 L301.8,361.626381 Z M305,339.226381 L313.8,350.426381 L309,350.426381 L309,358.426381 C309,358.867981 308.6416,359.226381 308.2,359.226381 L301.8,359.226381 C301.3584,359.226381 301,358.867981 301,358.426381 L301,350.426381 L296.2,350.426381 L305,339.226381 Z" opacity=".4" transform="rotate(150 305 351.226)"/>
    <path fill="#4BC310" fill-rule="nonzero" d="M245.6,378.4 C246.0424,378.4 246.4,378.7576 246.4,379.2 C246.4,379.6424 246.0424,380 245.6,380 L245.6,380 L239.2,380 C238.7576,380 238.4,379.6424 238.4,379.2 C238.4,378.7576 238.7576,378.4 239.2,378.4 L239.2,378.4 Z M242.4,356 L251.2,367.2 L246.4,367.2 L246.4,375.2 C246.4,375.6416 246.0416,376 245.6,376 L239.2,376 C238.7584,376 238.4,375.6416 238.4,375.2 L238.4,367.2 L233.6,367.2 L242.4,356 Z" opacity=".4" transform="rotate(180 242.4 368)"/>
    <path fill="#4BC310" fill-rule="nonzero" d="M183,361.626381 C183.4424,361.626381 183.8,361.983981 183.8,362.426381 C183.8,362.868781 183.4424,363.226381 183,363.226381 L183,363.226381 L176.6,363.226381 C176.1576,363.226381 175.8,362.868781 175.8,362.426381 C175.8,361.983981 176.1576,361.626381 176.6,361.626381 L176.6,361.626381 Z M179.8,339.226381 L188.6,350.426381 L183.8,350.426381 L183.8,358.426381 C183.8,358.867981 183.4416,359.226381 183,359.226381 L176.6,359.226381 C176.1584,359.226381 175.8,358.867981 175.8,358.426381 L175.8,350.426381 L171,350.426381 L179.8,339.226381 Z" opacity=".4" transform="rotate(-150 179.8 351.226)"/>
    <path fill="#4BC310" fill-rule="nonzero" d="M137.173619,315.8 C137.616019,315.8 137.973619,316.1576 137.973619,316.6 C137.973619,317.0424 137.616019,317.4 137.173619,317.4 L137.173619,317.4 L130.773619,317.4 C130.331219,317.4 129.973619,317.0424 129.973619,316.6 C129.973619,316.1576 130.331219,315.8 130.773619,315.8 L130.773619,315.8 Z M133.973619,293.4 L142.773619,304.6 L137.973619,304.6 L137.973619,312.6 C137.973619,313.0416 137.615219,313.4 137.173619,313.4 L130.773619,313.4 C130.332019,313.4 129.973619,313.0416 129.973619,312.6 L129.973619,304.6 L125.173619,304.6 L133.973619,293.4 Z" opacity=".4" transform="rotate(-120 133.974 305.4)"/>
    <path fill="#4BC310" fill-rule="nonzero" d="M120.4,253.2 C120.8424,253.2 121.2,253.5576 121.2,254 C121.2,254.4424 120.8424,254.8 120.4,254.8 L120.4,254.8 L114,254.8 C113.5576,254.8 113.2,254.4424 113.2,254 C113.2,253.5576 113.5576,253.2 114,253.2 L114,253.2 Z M117.2,230.8 L126,242 L121.2,242 L121.2,250 C121.2,250.4416 120.8416,250.8 120.4,250.8 L114,250.8 C113.5584,250.8 113.2,250.4416 113.2,250 L113.2,242 L108.4,242 L117.2,230.8 Z" opacity=".4" transform="rotate(-90 117.2 242.8)"/>
    <path fill="#4BC310" fill-rule="nonzero" d="M137.173619,190.6 C137.616019,190.6 137.973619,190.9576 137.973619,191.4 C137.973619,191.8424 137.616019,192.2 137.173619,192.2 L137.173619,192.2 L130.773619,192.2 C130.331219,192.2 129.973619,191.8424 129.973619,191.4 C129.973619,190.9576 130.331219,190.6 130.773619,190.6 L130.773619,190.6 Z M133.973619,168.2 L142.773619,179.4 L137.973619,179.4 L137.973619,187.4 C137.973619,187.8416 137.615219,188.2 137.173619,188.2 L130.773619,188.2 C130.332019,188.2 129.973619,187.8416 129.973619,187.4 L129.973619,179.4 L125.173619,179.4 L133.973619,168.2 Z" opacity=".4" transform="rotate(-60 133.974 180.2)"/>
    <path fill="#4BC310" fill-rule="nonzero" d="M183,144.773619 C183.4424,144.773619 183.8,145.131219 183.8,145.573619 C183.8,146.016019 183.4424,146.373619 183,146.373619 L183,146.373619 L176.6,146.373619 C176.1576,146.373619 175.8,146.016019 175.8,145.573619 C175.8,145.131219 176.1576,144.773619 176.6,144.773619 L176.6,144.773619 Z M179.8,122.373619 L188.6,133.573619 L183.8,133.573619 L183.8,141.573619 C183.8,142.015219 183.4416,142.373619 183,142.373619 L176.6,142.373619 C176.1584,142.373619 175.8,142.015219 175.8,141.573619 L175.8,133.573619 L171,133.573619 L179.8,122.373619 Z" opacity=".4" transform="rotate(-30 179.8 134.374)"/>
    <path fill="#4BC310" fill-rule="nonzero" d="M245.6,128 C246.0424,128 246.4,128.3576 246.4,128.8 C246.4,129.2424 246.0424,129.6 245.6,129.6 L245.6,129.6 L239.2,129.6 C238.7576,129.6 238.4,129.2424 238.4,128.8 C238.4,128.3576 238.7576,128 239.2,128 L239.2,128 Z M242.4,105.6 L251.2,116.8 L246.4,116.8 L246.4,124.8 C246.4,125.2416 246.0416,125.6 245.6,125.6 L239.2,125.6 C238.7584,125.6 238.4,125.2416 238.4,124.8 L238.4,116.8 L233.6,116.8 L242.4,105.6 Z" opacity=".4"/>
  </g>
</svg>
