<?xml version="1.0" encoding="UTF-8"?>
<svg width="608px" height="400px" viewBox="0 0 608 400" version="1.1" xmlns="http://www.w3.org/2000/svg" xmlns:xlink="http://www.w3.org/1999/xlink">
    <title>banner</title>
    <g id="活动与合作" stroke="none" stroke-width="1" fill="none" fill-rule="evenodd">
        <g id="邀请好友" transform="translate(-940.000000, -121.000000)">
            <g id="banner" transform="translate(0.000000, 121.000000)">
                <g id="编组-37">
                    <g id="编组-35">
                        <g id="编组-5" transform="translate(975.000000, 14.000000)">
                            <g id="Graph" opacity="0.300000012" transform="translate(343.000000, 15.000000)">
                                <rect id="Value" fill="#B2DFFF" x="0" y="32" width="6" height="25" rx="3"></rect>
                                <rect id="Value" fill="#71C4FE" x="14" y="16" width="6" height="41" rx="3"></rect>
                                <rect id="Value" fill="#B2DFFF" x="28" y="8" width="6" height="49" rx="3"></rect>
                                <rect id="Value" fill="#71C4FE" x="42" y="16" width="6" height="41" rx="3"></rect>
                                <rect id="Value" fill="#B2DFFF" x="56" y="0" width="6" height="57" rx="3"></rect>
                            </g>
                            <g id="Pie-Chart" opacity="0.5" transform="translate(152.000000, 20.000000) scale(-1, 1) translate(-152.000000, -20.000000) translate(132.000000, 0.000000)">
                                <path d="M40,20.256388 C40,9.11740024 30.998,0 20,0 L20,20.256388 L33.668,35 C37.556,31.3953758 40,26.1074457 40,20.256388 Z" id="Value" fill="#FFFFFF" opacity="0.699999988"></path>
                                <path d="M20.5292199,20 L0.332,20 C0.332,25.221 2.46179684,30.113 5.8286734,33.668 C9.53183367,37.556 14.8053278,40 20.5292199,40 C25.8017042,40 30.6278299,37.891 34.332,34.557 L20.5292199,20 Z" id="Value" fill="#83CCFF"></path>
                                <path d="M0,20 C0,9.002 9.002,0 20,0 L20,20 L0,20 Z M30,0 L22,18 L40,10 C38.22,5.334 34.223,1.78 30,0 Z" id="Value" fill="#71C4FE"></path>
                            </g>
                            <g id="Chart" opacity="0.5" transform="translate(200.000000, 60.000000)">
                                <path d="M29.0511329,28.5039 C27.5729953,30.0679 25.4790636,31.05 23.1501577,31.05 C18.6752322,31.05 15.0476025,27.4459 15.0476025,23 C15.0476025,18.5541 18.6752322,14.95 23.1501577,14.95 L23.1501577,0 C10.419886,0 0,10.3523 0,23 C0,35.6477 10.419886,46 23.1501577,46 C29.8370808,46 35.8804294,43.1894 40,38.7182 L29.0511329,28.5039 Z" id="Value" fill="#FFFFFF" opacity="0.900000036"></path>
                                <path d="M23,0 L23,14.95 C27.4459,14.95 31.05,18.5541 31.05,23 L46,23 C46,10.3523 35.6477,0 23,0 Z" id="Value" fill="#71C4FE"></path>
                                <path d="M31.0727226,23 C31.0727226,25.5552376 29.8693544,27.8265598 28,29.2930738 L37.1963511,41 C42.5495024,36.8088151 46,30.3119634 46,23 L31.0727226,23 Z" id="Value" fill="#83CCFF"></path>
                            </g>
                            <g id="Image" opacity="0.5" transform="translate(0.000000, 62.000000)">
                                <path d="M48.007,51.9862978 C48.003,51.9962978 47.999,52.0062978 47.993,52.0182978 C47.999,52.0082978 48.007,51.9682978 48.007,51.9862978" id="Fill-35" fill="#C5CFD6"></path>
                                <path d="M47.9976864,52.0014952 C47.9976864,52.0034952 47.9956864,52.0074952 47.9956864,52.0114952 C47.9956864,52.0014952 48.0136864,51.9714952 47.9976864,52.0014952" id="Fill-37" fill="#C5CFD6"></path>
                                <path d="M48.0671431,51.8323017 C48.0531431,51.8723017 48.0351431,51.9103017 48.0191431,51.9503017 C48.0271431,51.9303017 48.0351431,51.9143017 48.0431431,51.8943017 C47.8351431,52.4143017 47.9671431,52.0763017 48.0671431,51.8323017" id="Fill-39" fill="#C5CFD6"></path>
                                <path d="M48.0223751,51.95275 C48.0143751,51.97075 48.0063751,51.99075 47.9983751,52.00875 C47.9403751,52.12075 48.0223751,51.95275 48.0223751,51.95275" id="Fill-41" fill="#C5CFD6"></path>
                                <polygon id="Fill-43" fill="#C5CFD6" points="48 52.001 48 52.001 48 51.999"></polygon>
                                <path d="M47.999,52.002 C47.999,52 47.999,52 48.001,51.998 C47.999,52 47.999,52 47.999,52.002" id="Fill-45" fill="#C5CFD6"></path>
                                <path d="M47.9895117,52.0163509 C47.9775117,52.0403509 48.0455117,51.9243509 47.9895117,52.0163509" id="Fill-47" fill="#C5CFD6"></path>
                                <path d="M47.998,52.002 L48.002,51.998 C48,52 48,52.002 47.998,52.002" id="Fill-49" fill="#C5CFD6"></path>
                                <rect id="Photo-Background" fill="#5CBCFF" x="0" y="0" width="95" height="63" rx="4"></rect>
                                <g id="icons8-night_landscape" transform="translate(8.000000, 18.000000)">
                                    <polygon id="Mountains" fill="#71C4FE" points="28 0 0 45 56 45"></polygon>
                                    <polygon id="Mountains" fill="#83CCFF" points="55.5 12 31 45 80 45"></polygon>
                                </g>
                                <circle id="Sun" fill="#FFFFFF" cx="74" cy="21" r="9"></circle>
                            </g>
                        </g>
                        <g id="Group" transform="translate(1247.000000, 270.000000) scale(-1, 1) translate(-1247.000000, -270.000000) translate(1124.000000, 134.000000)">
                            <g id="Head" transform="translate(38.200000, 0.000000)">
                                <g transform="translate(31.200000, 6.817407)" fill="#FFC690">
                                    <path d="M30.5146731,7.31227508 C35.1505217,15.9592374 34.5996624,37.8929744 28.6082411,39.4384277 C26.218893,40.0547466 21.1288966,38.5450322 15.9484437,35.4203763 L19.2,58.4409899 L0,58.4409899 L6.60977163,27.611412 C2.92347006,23.2813845 0.428509625,17.9748836 0.845421067,12.0288 C2.04666418,-5.10359607 25.8788245,-1.33468722 30.5146731,7.31227508 Z"></path>
                                </g>
                                <path d="M63.5272769,18.0121648 C63.3370916,16.8913388 62.8722906,15.6466738 62.4972511,14.5862671 C62.0137291,13.2192632 61.2819992,11.9867366 60.4767491,10.825131 C58.9607217,8.63817022 57.1420592,6.66329076 55.1340792,5.02419535 C51.466255,2.03023443 46.7972924,0.303305993 42.2059412,0.864128118 C39.8877633,1.14726692 37.6374024,2.03214385 35.7220355,3.50498386 C33.9915227,4.83570893 32.3269673,6.79463115 30.0861529,6.93538223 C27.6479623,7.08840811 25.4129749,4.93486206 23.4575624,3.60481893 C21.2528262,2.10538351 18.9073726,1.01278963 16.3305724,0.58808143 C12.013837,-0.123175229 7.95857532,1.33629889 4.98355136,4.88044377 C1.81772219,8.65194528 -0.483594471,14.1828353 1.59542606,19.1800441 C1.98187171,20.1089739 2.47903149,20.8921064 3.19253636,21.5411707 C3.84690277,22.1363623 4.84630551,22.7696057 5.1116227,23.7206302 C5.39342923,24.7315285 4.55160506,26.0356581 4.22516573,26.9478124 C3.75751319,28.2546698 3.37354715,29.6264473 3.51004912,31.0469148 C3.73432893,33.379673 5.19927655,35.6065951 6.74617495,37.1398544 C8.32034894,38.7001183 10.2577843,39.5948151 12.3271344,40.0072484 C13.7088915,40.2826132 15.1210236,40.434548 16.525345,40.3311669 C17.2224845,40.2798855 17.8376733,40.08608 18.5131163,39.931963 C19.1699623,39.782074 19.537067,39.956649 20.0943571,40.317119 C22.6831834,41.9919478 25.4667822,42.639921 28.4560639,42.3908789 C30.9789328,42.1805706 33.8867596,41.5687398 35.9448275,39.8389473 C38.2303987,37.9178041 38.1848981,35.2686288 37.6470729,32.4381956 C38.2168849,32.7207888 39.7932905,32.8957729 38.8512905,31.7693552 C38.4781108,31.3232343 37.7730365,31.1417035 37.2942258,30.8792955 C36.7366877,30.5737893 36.1705951,30.1789498 35.737657,29.6805928 C33.989539,27.6683434 35.7551381,23.5731962 37.9523116,22.8983548 C41.2167049,21.8957761 41.9475669,26.5156029 44.2778949,27.7106232 C45.6177467,28.3977395 47.0193406,27.4585806 48.0232066,26.4996457 C49.3678936,25.2150193 50.2843537,23.5131861 51.0755941,21.7813477 C51.7273569,20.3551519 52.333867,18.9089073 52.9981518,17.4898037 C53.3083498,16.8271007 54.3822645,14.9536929 53.8429515,14.2043844 C56.1810902,13.7378055 58.78529,14.7101063 60.7989731,15.9851856 C61.6312508,16.5123202 62.2657804,17.0934639 62.7097528,18.0240304 C62.8048455,18.2234278 63.011892,18.8161644 63.2718781,18.8404412 C63.755896,18.8857216 63.5750092,18.2938033 63.5272769,18.0121648" id="hair" fill="#0B0885"></path>
                            </g>
                            <g id="Bottom" transform="translate(9.000000, 132.505563)">
                                <g id="Seat" transform="translate(0.000000, 33.623583)" fill="#7CC6F9">
                                    <path d="M102,0 C110.836556,-3.39960584e-15 118,7.163444 118,16 L118,83.2696266 C118,92.1061826 110.836556,99.2696266 102,99.2696266 L16.4,99.2696266 C7.563444,99.2696266 0.4,92.1061826 0.4,83.2696266 L0.4,16 C0.4,7.163444 7.563444,1.623249e-15 16.4,0 L102,0 Z M91.6,22.4157221 L26.8,22.4157221 C24.590861,22.4157221 22.8,24.2065831 22.8,26.4157221 L22.8,26.4157221 L22.8,72.8539045 C22.8,75.0630435 24.590861,76.8539045 26.8,76.8539045 L26.8,76.8539045 L91.6,76.8539045 C93.809139,76.8539045 95.6,75.0630435 95.6,72.8539045 L95.6,72.8539045 L95.6,26.4157221 C95.6,24.2065831 93.809139,22.4157221 91.6,22.4157221 L91.6,22.4157221 Z"></path>
                                </g>
                                <path d="M197.327171,128.890402 C181.554476,109.616223 170.882294,95.3272091 165.310624,86.0233593 C155.770573,70.0929098 147.962497,55.9177518 145.498463,50.5029053 C139.622657,37.5905093 159.025517,31.5442193 163.416824,37.5669891 C170.063243,46.6826903 184.257635,75.3672357 206,123.620625 L197.327171,128.890402 Z" id="LegLower" fill="#FFC690"></path>
                                <path d="M165.006054,123.286472 L135.652158,49.3440309 C129.373943,35.8648169 159.692606,27.0046019 164.306619,33.277558 C174.781858,47.5191102 199.679077,103.699968 202.8,107.943002 L165.006054,123.286472 Z" id="LegLower" fill="#3455DB"></path>
                                <g id="Lower-Leg" transform="translate(120.605556, 84.443256) rotate(39.000000) translate(-120.605556, -84.443256) translate(107.605556, 39.943256)" fill="#FFC690">
                                    <path d="M1.84836944,84.4414891 C1.0430603,74.3539216 -0.453104278,39.4328639 1.04386919,23.2692 C1.47403933,18.6244113 1.92725245,14.1336456 2.38398229,9.92090914 C3.74154497,-2.60083441 26.9432222,-2.20501414 25.1007182,9.69126976 C20.5121549,39.3177184 12.4357603,80.8374708 11.8568948,84.4250112 C11.0455901,89.4531022 2.35448113,90.7812108 1.84836944,84.4414891 Z" id="LegLower"></path>
                                </g>
                                <g id="Right-Shoe" transform="translate(105.259205, 118.797088) rotate(30.000000) translate(-105.259205, -118.797088) translate(81.259205, 109.797088)" fill="#E4E4E4">
                                    <path d="M1.98785941,5.75518927 C1.19595314,7.93692059 0.8,9.58604555 0.8,10.7025642 C0.8,12.1462057 1.04033136,14.2528377 1.52099409,17.0224602 C3.19454494,17.0224602 18.2350282,17.0224602 46.6424438,17.0224602 C47.8149904,13.1433452 47.1381285,11.0491359 44.6118583,10.7398322 C42.085588,10.4305284 39.9869724,10.1512519 38.3160115,9.90200265 L17.5322848,0.630010401 C17.0279143,0.405001725 16.4366357,0.631469182 16.2116271,1.13583962 C16.2077088,1.1446227 16.2039174,1.15346186 16.2002541,1.16235432 L14.9305705,4.24445388 L14.9305705,4.24445388 C12.591905,5.33638544 10.6914965,5.88235122 9.22934491,5.88235122 C8.11229371,5.88235122 6.59504192,5.45784204 4.67758954,4.60882369 L4.67758988,4.60882292 C3.66759988,4.16161492 2.4863075,4.61783987 2.03909949,5.62782987 C2.02056707,5.66968414 2.00347698,5.71216228 1.98785941,5.75518927 Z" id="shoe"></path>
                                </g>
                                <g id="Right-Shoe" transform="translate(188.400000, 120.674119)" fill="#E4E4E4">
                                    <path d="M1.98785941,5.75518927 C1.19595314,7.93692059 0.8,9.58604555 0.8,10.7025642 C0.8,12.1462057 1.04033136,14.2528377 1.52099409,17.0224602 C3.19454494,17.0224602 18.2350282,17.0224602 46.6424438,17.0224602 C47.8149904,13.1433452 47.1381285,11.0491359 44.6118583,10.7398322 C42.085588,10.4305284 39.9869724,10.1512519 38.3160115,9.90200265 L17.5322848,0.630010401 C17.0279143,0.405001725 16.4366357,0.631469182 16.2116271,1.13583962 C16.2077088,1.1446227 16.2039174,1.15346186 16.2002541,1.16235432 L14.9305705,4.24445388 L14.9305705,4.24445388 C12.591905,5.33638544 10.6914965,5.88235122 9.22934491,5.88235122 C8.11229371,5.88235122 6.59504192,5.45784204 4.67758954,4.60882369 L4.67758988,4.60882292 C3.66759988,4.16161492 2.4863075,4.61783987 2.03909949,5.62782987 C2.02056707,5.66968414 2.00347698,5.71216228 1.98785941,5.75518927 Z" id="shoe"></path>
                                </g>
                                <path d="M125.089672,53.0372415 C100.692218,49.0597981 84.3504716,46.3400377 76.064434,44.8779602 C52.4459608,40.7104631 45.5586131,27.9918977 49.6307808,0.24195263 L93.1474162,0.24195263 C98.9061434,1.90613183 122.96834,12.1985403 165.334007,31.119178 C172.956426,34.9057091 171.536881,46.0703118 170.143638,49.7485545 C170.086816,49.8985673 157.236878,71.9328648 131.593824,115.851447 L95.9953817,93.1577321 L125.156527,55.7113854 C125.926645,54.1591766 125.90436,53.2677953 125.089672,53.0372415 Z" id="Leg-and-Butt" fill="#5272F4"></path>
                            </g>
                            <g id="Body/Long-Sleeve-1" transform="translate(0.000000, 43.646043)">
                                <path d="M31.7758335,57.9976201 L49.293747,58.0634099 C35.9515461,101.320795 28.8690779,123.969677 28.0463424,126.010054 C26.1951876,130.600903 30.1124801,137.592686 31.7876699,141.350018 C26.3316327,143.793146 26.9129793,134.745246 20.0303351,137.949545 C13.7481767,140.874279 8.96935448,146.173703 1.71122817,141.692073 C0.818884188,141.141083 -0.158979433,139.066506 2.2036627,137.445333 C8.08986587,133.406402 16.5722412,126.337544 17.7183437,124.010775 C19.2812592,120.837809 23.9670892,98.8334244 31.7758335,57.9976201 L31.7758335,57.9976201 Z M142.594499,78.0201845 L165.256822,100.14372 C171.850723,102.958343 177.253485,106.066255 181.465109,109.467456 C182.412241,110.610715 183.443347,112.80126 178.987142,111.821022 C174.530937,110.840785 169.799624,110.010276 168.962088,111.460484 C168.124553,112.910691 170.59242,115.132925 169.04455,117.030874 C168.012637,118.296173 164.542232,114.271504 158.633336,104.956866 L135.067516,91.05329 L142.594499,78.0201845 Z" id="Skin" fill="#EFB680"></path>
                                <path d="M81.2117768,11.774274 L87.9996654,9.9885078 C102.215393,47.4405693 160.283366,68.7368649 164.963447,82.7928702 C166.679756,87.9475788 163.126343,90.940113 165.222429,92.3725415 L156.839069,99.7180209 C155.167262,98.0797132 152.213712,101.602515 145.255611,99.9278227 C138.297509,98.2531306 85.1899754,57.2452921 81.2117768,11.774274 Z" id="Clothes-Back" fill="#E29909" transform="translate(123.330249, 55.190170) rotate(5.000000) translate(-123.330249, -55.190170) "></path>
                                <path d="M73.6501786,0.27599639 L93.6018492,1.67252386 C95.8054199,1.82711225 97.4668546,3.73837423 97.3132607,5.94201446 L96.7932532,13.3500281 C95.9782571,64.4214502 125.47853,77.4413492 118.90981,97.9204711 C113.487009,114.826991 61.5818649,133.001429 52.6,116.429049 C48.9638897,109.720086 47.3143715,101.605927 47.1274851,92.7840955 C44.8324369,99.5619386 43.0165925,105.396742 41.6809015,110.288533 C39.3769471,118.726459 30.4450078,120.067706 30.4450078,123.318298 L30.4450078,123.318298 L18.677304,120.067706 C19.4754796,115.651641 13.9278996,113.501281 15.4153505,103.635407 C22.0799273,59.4310055 39.9863156,27.3884845 69.1345154,7.50784392 L69.3814673,3.98746229 C69.5350718,1.7836699 71.4464134,0.122002203 73.6501786,0.27599639 Z" id="Clothes-Front" fill="#FAAD14"></path>
                            </g>
                        </g>
                        <g id="编组-15" transform="translate(958.000000, 224.000000)">
                            <g id="gift" transform="translate(30.000000, 0.000000)" fill-rule="nonzero">
                                <polygon id="路径" fill="#9CE5FF" points="29.5131048 29.0322581 6.96774194 51.577621 6.96774194 66.8739919 44.8094758 29.0322581"></polygon>
                                <path d="M26.2288306,29.0322581 L8.12903226,29.0322581 C7.48714715,29.0322581 6.96774194,29.5522303 6.96774194,30.1935484 L6.96774194,48.2933468 L26.2288306,29.0322581 Z" id="路径" fill="#C7F0FF"></path>
                                <polygon id="路径" fill="#9CE5FF" points="65.0322581 30.6743952 22.5453629 73.1612903 40.1643145 73.1612903 65.0322581 48.2933468"></polygon>
                                <path d="M43.4485887,73.1612903 L63.8709677,73.1612903 C64.5128529,73.1612903 65.0322581,72.6413181 65.0322581,72 L65.0322581,51.577621 L43.4485887,73.1612903 Z" id="路径" fill="#C7F0FF"></path>
                                <path d="M63.390121,29.0322581 L48.09375,29.0322581 L6.96774194,70.1582661 L6.96774194,72 C6.96774194,72.6413181 7.48714715,73.1612903 8.12903226,73.1612903 L19.2610887,73.1612903 L63.390121,29.0322581 Z" id="路径" fill="#C7F0FF"></path>
                                <path d="M70.8387097,15.0967742 L57.2306892,15.0967742 C58.4815004,13.5160897 59.2258065,11.5075053 59.2258065,9.29032258 C59.2258065,4.08096023 55.1454133,0 49.9354839,0 C42.702369,0 38.3432775,5.57807772 36,10.0808421 C33.6567225,5.57807772 29.297631,0 22.0645161,0 C16.8545867,0 12.7741935,4.08096023 12.7741935,9.29032258 C12.7741935,11.5075053 13.5184996,13.5160897 14.7693108,15.0967742 L1.16129032,15.0967742 C0.519405213,15.0967742 0,15.6167465 0,16.2580645 L0,25.5483871 C0,26.1897051 0.519405213,26.7096774 1.16129032,26.7096774 L70.8387097,26.7096774 C71.4805948,26.7096774 72,26.1897051 72,25.5483871 L72,16.2580645 C72,15.6167465 71.4805948,15.0967742 70.8387097,15.0967742 Z M49.9354839,4.64516129 C52.5835433,4.64516129 54.5806452,6.64226315 54.5806452,9.29032258 C54.5806452,11.938382 52.5835433,13.9354839 49.9354839,13.9354839 L39.3148942,13.9354839 C40.8833165,10.3217616 44.2515122,4.64516129 49.9354839,4.64516129 Z M22.0645161,4.64516129 C27.7484878,4.64516129 31.1178175,10.3228957 32.6851058,13.9354839 L22.0645161,13.9354839 C19.4164567,13.9354839 17.4193548,11.938382 17.4193548,9.29032258 C17.4193548,6.64226315 19.4164567,4.64516129 22.0645161,4.64516129 Z" id="形状" fill="#C7F0FF"></path>
                            </g>
                            <g id="矩形-2" transform="translate(0.000000, 76.000000)">
                                <rect id="矩形" fill="#A6DBFF" x="0" y="0" width="132" height="13"></rect>
                                <rect id="矩形" fill="#7CC6F9" x="13" y="13" width="5" height="87"></rect>
                                <rect id="矩形" fill="#7CC6F9" x="111" y="13" width="5" height="87"></rect>
                            </g>
                        </g>
                        <g id="编组" transform="translate(1331.000000, 60.000000)">
                            <g id="Head" transform="translate(149.772997, 45.000000) scale(-1, 1) translate(-149.772997, -45.000000) translate(86.272997, 0.000000)">
                                <g transform="translate(0.345697, 0.457715)">
                                    <path d="M122.323946,36.5009375 C127.082741,45.3709982 126.517272,67.8706427 120.366954,69.45597 C117.914207,70.0881985 112.689117,68.5394843 107.371204,65.3341261 L110.709199,88.9488131 L91,88.9488131 L97.7850112,57.3237415 C94.0009772,52.8820081 91.4398762,47.4386192 91.8678423,41.3391524 C93.1009433,23.7647272 117.565151,27.6308768 122.323946,36.5009375 Z" fill="#FFC690"></path>
                                    <path d="M110.309326,26.270225 C107.963061,25.885463 101.645636,25.6209284 100.48059,25.6210992 C99.7360712,25.6210992 98.929239,25.7911937 98.488282,25.1075708 C98.127174,24.5477617 98.2594611,23.6009704 98.1516905,22.9513323 C98.0265541,22.1966659 97.8488092,21.4517338 97.6690214,20.7086803 C97.1574091,18.5942823 96.3837764,16.5826924 95.3013036,14.6940625 C93.2701773,11.1507679 90.2946539,8.37528966 86.5381769,6.76024549 C82.3899462,4.97698534 77.6958823,4.56865599 73.2338741,4.93036304 C68.4589396,5.31734518 64.1365394,6.89362283 59.6282222,8.37699744 C55.3320411,9.79052399 50.8322366,10.3469176 46.3389017,9.65663432 C41.8116864,8.96122776 38.3909496,6.50749458 34.5723301,4.17859986 C30.6631355,1.79437318 26.1956792,0.235002519 21.5743136,0.593464792 C17.2604261,0.928188973 13.2844921,2.70939979 9.71733721,5.0888447 C6.37985451,7.31510205 3.62600139,9.99357861 2.07124487,13.7633243 C0.398672815,17.8184394 0.400205098,22.2695879 3.15065314,25.8533568 C7.13731309,31.0480711 14.5384104,32.3914081 20.6958046,32.25786 C24.2573412,32.1808392 27.7552028,31.5306888 31.1177128,30.3480536 C35.6020243,28.7707513 39.4771681,26.097398 43.6723887,23.9283512 C45.6412022,22.9105164 47.6762443,22.0745599 49.8093526,21.4723979 C51.8792967,20.887826 53.9180844,20.6197051 55.7922368,21.870139 C57.7748408,23.1929827 59.5514378,24.4924297 61.8195572,25.3205305 C63.9953991,26.1149881 66.3001231,26.5593516 68.6182971,26.5414199 C73.1286573,26.5065813 77.5748319,25.101252 81.9554588,24.1599257 C85.5277213,23.3924509 89.3499163,22.6275379 92.9918125,23.3652973 C94.5114968,23.6732094 96.7312641,24.3088438 97.280162,25.8881954 C88.0420276,27.5624994 84.4137601,38.9875238 87.0181305,47.3745846 C88.4237448,51.9013876 96.8730854,57.1931724 100.1583,54.8133637 C102.239578,53.3056865 100.976029,51.3263793 100.1583,50.0197595 C98.592307,47.5175255 98.0565187,44.3033195 100.954236,42.5612167 C103.45373,41.058715 106.081776,44.6267578 106.13149,44.6228299 C106.818464,44.5686934 112.754512,41.2115972 116.844342,36.3127424 C120.878974,36.5519112 121.491086,33.8915787 120.527695,31.7159268 C119.564303,29.5402748 113.551127,26.8021974 110.309326,26.270225 Z" id="hair" fill="#4644A7"></path>
                                </g>
                            </g>
                            <g id="Bottom" transform="translate(108.000000, 257.253709) scale(-1, 1) translate(-108.000000, -257.253709) translate(44.000000, 158.753709)">
                                <polygon id="Leg" fill="#DEA36C" points="36.96 0 67.8172869 101.076462 82.7653264 187.035482 94.4856214 187.035482 78.6905987 0"></polygon>
                                <path d="M25.9209364,0 C28.0168381,55.4964103 25.550245,84.1224638 25.0811571,89.1645539 C24.6120693,94.2066441 18.1887209,126.899827 2.98222363,188.728111 L15.4710737,184.430519 C39.5035248,127.724832 47.6929273,98.2538849 50.4492676,90.8077508 C53.2056078,83.3616166 60.5263106,53.0923664 72.4113759,0 L25.9209364,0 Z" id="Leg" fill="#EFB680"></path>
                                <g id="Accessories/Shoe/Flat-Sneaker" transform="translate(0.880000, 163.498082)" fill="#E4E4E4">
                                    <path d="M2.05693362,21.2472425 C1.23231121,23.5127856 0.82,25.2230274 0.82,26.3779678 C0.82,27.8595449 1.06633965,30.0215343 1.55901894,32.863936 C3.27440856,32.863936 18.6909039,32.863936 47.8085049,32.863936 C49.0103651,28.8828869 48.3165817,26.7336466 45.7271547,26.4162151 C43.1377277,26.0987836 40.9866467,25.8121684 39.2739118,25.5563694 L17.9477465,16.0305263 C17.4434805,15.8052838 16.8520969,16.031477 16.6268544,16.5357431 C16.6228094,16.544799 16.6188993,16.5539145 16.6151255,16.5630867 L15.3038347,19.7501534 L15.3038347,19.7501534 C12.9067026,20.8707784 10.9587839,21.4310909 9.46007853,21.4310909 C8.30643849,21.4310909 6.73636237,20.9888094 4.74985019,20.1042466 L4.74984225,20.1042644 C3.74079854,19.654953 2.55856812,20.1087056 2.10925669,21.1177493 C2.09031338,21.1602914 2.07286172,21.2034821 2.05693362,21.2472425 Z" id="shoe"></path>
                                </g>
                                <g id="Accessories/Shoe/Flat-Sneaker" transform="translate(77.960000, 163.498082)" fill="#E4E4E4">
                                    <path d="M2.05693362,21.2472425 C1.23231121,23.5127856 0.82,25.2230274 0.82,26.3779678 C0.82,27.8595449 1.06633965,30.0215343 1.55901894,32.863936 C3.27440856,32.863936 18.6909039,32.863936 47.8085049,32.863936 C49.0103651,28.8828869 48.3165817,26.7336466 45.7271547,26.4162151 C43.1377277,26.0987836 40.9866467,25.8121684 39.2739118,25.5563694 L17.9477465,16.0305263 C17.4434805,15.8052838 16.8520969,16.031477 16.6268544,16.5357431 C16.6228094,16.544799 16.6188993,16.5539145 16.6151255,16.5630867 L15.3038347,19.7501534 L15.3038347,19.7501534 C12.9067026,20.8707784 10.9587839,21.4310909 9.46007853,21.4310909 C8.30643849,21.4310909 6.73636237,20.9888094 4.74985019,20.1042466 L4.74984225,20.1042644 C3.74079854,19.654953 2.55856812,20.1087056 2.10925669,21.1177493 C2.09031338,21.1602914 2.07286172,21.2034821 2.05693362,21.2472425 Z" id="shoe"></path>
                                </g>
                                <polygon fill="#159FA2" points="32.86 0 45.98 51.4973935 86.0536607 51.4973935 80.0785146 0"></polygon>
                                <path d="M25.48,0 C21.1630601,12.9652714 20.3430601,30.1310693 23.02,51.4973935 L63.9136607,51.4973935 L75.1585146,0 L25.48,0 Z" fill="#28B8BB"></path>
                            </g>
                            <g id="Body" transform="translate(80.839325, 124.533876) scale(-1, 1) rotate(8.000000) translate(-80.839325, -124.533876) translate(9.339325, 58.533876)">
                                <path d="M89.4764753,74.7007624 L115.671865,93.9023224 C122.776595,95.8160174 128.712366,98.1969771 133.47918,101.045202 C134.605184,102.069405 135.966066,104.143587 131.296254,103.785116 C126.626442,103.426646 121.698351,103.259233 121.054007,104.849194 C120.409664,106.439156 123.235581,108.340575 121.933083,110.485849 C121.06475,111.916032 116.9624,108.329902 109.626031,99.727458 L83.685723,88.9898416 L89.4764753,74.7007624 Z M140.664095,4.08307053 C137.566934,7.59016734 134.467193,11.4181494 135.351485,12.8886902 C136.235777,14.359231 139.457709,13.250679 140.390197,15.5801045 C141.011856,17.1330549 135.673875,18.2453105 124.376253,18.9168712 L100.17423,33.1347351 L92.227048,19.9188959 L123.354259,10.5914059 C129.161066,6.07912151 134.638217,2.779951 139.785712,0.693894351 C141.282784,0.412611361 143.761257,0.575973719 140.664095,4.08307053 Z" id="Skin" fill="#FFC690"></path>
                                <path d="M39.3007045,30.8414342 C59.9517709,52.7960533 85.1446916,67.117188 119.5069,79.8145882 L111.868039,95.0556215 C76.4097755,91.7332396 57.4535432,89.0756085 42.6017903,67.0845271 C38.8743015,61.5652115 32.2134033,42.5715352 28.222359,32.7083273 L39.3007045,30.8414342 Z" id="Coat-Back" fill="#2026A2" transform="translate(73.864629, 62.948528) rotate(15.000000) translate(-73.864629, -62.948528) "></path>
                                <path d="M8.90949555,111.451816 L72.1431751,111.451816 C57.8196879,67.8453797 50.5027069,37.9166327 50.1922319,21.6655749 C50.1764036,20.8370803 48.6435512,19.3771557 47.9653837,19.5683459 C43.0060181,20.9664986 37.6991055,20.4437166 32.0446459,18 C17.053899,42.0666354 11.8698388,71.6975364 8.90949555,111.451816 Z" id="Shirt" fill="#F2F2F2"></path>
                                <path d="M118.889022,10.622225 L122.237389,27.3234421 C96.6043091,43.7799795 70.6486641,56.5279348 47.905136,54.7172765 C57.7821105,97.0048888 57.3269266,131.622625 35.5230503,131.622625 L35.5230503,131.622625 L1.80689719,131.622625 C-3.54800623,95.6994034 10.5257278,45.8909529 23.5731026,20.7679725 C24.0713425,19.8086016 25.1321454,18 27.6307713,18 L27.6307713,18 L37.4276906,18 C37.4320147,18.0129963 37.4363381,18.0259926 37.4406609,18.0389889 C55.5657486,18.1869494 84.9735507,21.4911456 118.889022,10.622225 Z" id="Coat-Front" fill="#1F28CF"></path>
                            </g>
                        </g>
                    </g>
                </g>
            </g>
        </g>
    </g>
</svg>