<svg xmlns="http://www.w3.org/2000/svg" width="600" height="222" viewBox="0 0 600 222">
  <g fill="none" fill-rule="evenodd" transform="translate(-939 -222)">
    <rect width="1920" height="2529" fill="#FFF"/>
    <rect width="1920" height="400" y="121" fill="#34A1EC"/>
    <g transform="translate(939 121)">
      <path fill="#0481D7" d="M349.52038,113.376359 L349.52038,115.606997 L362.735054,115.606997 L362.735054,113.376359 L363.018342,113.376359 L363.018342,115.606997 L365.431386,115.606997 L365.431386,131.206182 L367.127038,131.215353 L367.127038,131.206182 L367.112772,131.206182 L367.112772,128.223505 L367.127038,128.223505 L367.127038,126.165693 L367.112772,126.165693 L367.112772,123.185258 L367.127038,123.185258 L367.127038,121.134375 L367.112772,121.134375 L367.112772,118.151495 L367.127038,118.151495 L367.127038,118.142323 L383.152174,118.142323 L383.152174,118.151495 L385.905571,118.151495 C386.046196,118.229959 386.190897,118.310666 386.335598,118.38913 L386.335598,138.281454 L389.282609,138.281454 L389.282609,135.413927 L423.10394,135.413927 L423.10394,157.767595 L433.432745,157.767595 L433.432745,116.426087 L435.67663,116.426087 L435.67663,113.53553 L436.082201,113.53553 L436.082201,116.426087 L444.236413,116.426087 L444.236413,113.53553 L444.641984,113.53553 L444.641984,116.426087 L456.191576,116.426087 L456.191576,113.53553 L456.595109,113.53553 L456.595109,116.426087 L463.86481,116.426087 L463.86481,113.53553 L464.266304,113.53553 L464.266304,116.426087 L467.254076,116.426087 L467.254076,155.017867 L478.66712,155.017867 L478.66712,148.775543 L492.128397,148.830774 L492.128397,138.717391 L494.838995,138.717391 L494.838995,136.715217 L495.199728,136.715217 L495.199728,138.717391 L505.591712,138.717391 L507.672554,138.719633 L507.672554,136.715217 L508.029212,136.715217 L508.029212,138.719633 L510.538043,138.719633 L510.538043,158.833492 L526.563179,158.833492 L526.563179,166.234035 L535.475543,166.234035 L535.475543,161.936413 L543.737772,161.936413 L543.737772,144.869837 L547.858696,144.869837 L547.858696,136.911073 L548.480299,136.911073 L548.480299,144.869837 L558.356658,144.869837 L558.356658,129.951359 L559.326766,129.951359 L559.326766,144.869837 L564.181386,144.869837 C563.657609,149.430571 562.877038,154.08587 561.829484,158.833492 C561.209918,161.631929 560.502717,164.462364 559.695652,167.322962 C538.555027,242.398777 623.066576,245.788043 581.828804,319.532609 L581.828804,319.536685 L86.9922554,319.579484 L86.9914348,319.564359 L69.1304348,319.565217 L69.1304348,189.130435 L86.6174348,189.130359 L86.5642663,170.185271 L105.260234,161.936413 L105.260234,198.097348 L124.345697,198.097348 L124.891752,184.33633 L170.137704,181.915017 L170.137704,161.749321 L185.669837,161.749321 L185.669837,135.413927 L216.65625,135.413927 L216.65625,157.767595 L226.118886,157.767595 L226.118886,116.426087 L228.17731,116.426087 L228.17731,113.53553 L228.546196,113.53553 L228.546196,116.426087 L236.019701,116.426087 L236.019701,113.53553 L236.390625,113.53553 L236.390625,116.426087 L246.970109,116.426087 L246.970109,113.53553 L247.343071,113.53553 L247.343071,116.426087 L254.001359,116.426087 L254.001359,113.53553 L254.370245,113.53553 L254.370245,116.426087 L257.105299,116.426087 L257.105299,155.017867 L267.564538,155.017867 L267.564538,148.775543 L279.898777,148.830774 L279.898777,138.715149 L282.379076,138.715149 L282.379076,136.715217 L282.709239,136.715217 L282.709239,138.715149 L292.235054,138.715149 L294.140625,138.719633 L294.140625,136.715217 L294.466712,136.715217 L294.466712,138.719633 L296.765625,138.719633 L296.765625,158.83125 L311.44769,158.83125 L311.44769,166.234035 L319.612092,166.234035 L319.612092,161.936413 L327.183424,161.936413 L327.183424,144.872283 L330.959918,144.872283 L330.959918,136.911073 L331.530571,136.911073 L331.530571,144.872283 L340.577446,144.872283 L340.577446,129.951359 L341.466033,129.951359 L341.466033,144.872283 L347.451766,144.872283 L347.451766,144.664606 L347.443614,142.770652 L347.451766,140.978193 L347.443614,137.995312 L347.451766,136.092391 L347.443614,133.109511 L347.451766,131.206182 L347.443614,128.223505 L347.451766,126.165693 L347.443614,123.185258 L347.451766,120.564538 L347.443614,117.584103 L347.451766,115.606997 L349.235054,115.606997 L349.235054,113.376359 L349.52038,113.376359 Z"/>
      <path fill="#77A4E5" d="M526.40625,284.669837 C526.40625,284.669837 520.457201,277.728261 526.039402,273.319973 C526.039402,273.319973 530.115489,270.851902 533.441576,271.053668 C533.441576,271.053668 528.72962,278.953125 530.254076,279.737772 C531.778533,280.524457 534.868207,270.556386 534.868207,270.556386 C534.868207,270.556386 544.147418,269.657609 547.131114,271.092391 C547.131114,271.092391 539.201087,277.58356 540.870245,277.970788 C542.54144,278.355978 551.109375,271.985054 551.109375,271.985054 C551.109375,271.985054 559.744565,273.454484 559.283967,278.722826 C558.82337,283.991168 555.847826,285.617527 554.539402,285.476902 C553.233016,285.338315 545.582201,282.417799 545.415082,283.48981 C545.247962,284.559783 549.85394,288.063179 553.078125,288.226223 C553.078125,288.226223 546.990489,294.941576 542.942935,293.003397 C538.897418,291.065217 538.552989,287.993886 536.029891,286.840353 C533.506793,285.688859 531.35462,285.692935 532.39606,286.866848 C533.4375,288.042799 538.002717,289.184103 539.443614,291.735734 C540.886549,294.287364 542.180707,296.007473 537.994565,295.377717 C533.808424,294.747962 527.003397,291.684783 526.703804,288.17731 C526.40625,284.669837 526.40625,284.669837 526.40625,284.669837"/>
      <path fill="#77A4E5" d="M555.040761,278.865489 C555.040761,278.865489 531.584918,277.960598 526.40625,284.669837 C526.40625,284.669837 525.26087,288.099864 521.735054,291.224185 L521.184783,292.722147 C521.184783,292.722147 525.250679,288.436141 526.703804,288.17731 C526.703804,288.17731 524.429348,279.866168 555.040761,278.865489"/>
      <path fill="#77A4E5" d="M521.735054 291.224185C521.735054 291.224185 516.701087 294.94769 516.350543 301.599864L517.265625 301.681386C517.265625 301.681386 518.873641 294.802989 521.777853 292.112772 524.686141 289.422554 521.735054 291.224185 521.735054 291.224185M505.605978 275.940897C505.605978 275.940897 515.070652 270.641984 510.654212 263.449728 510.654212 263.449728 507.120245 259.033288 503.335598 257.898098 503.335598 257.898098 505.355299 268.622283 503.335598 268.875 501.315897 269.127717 501.94769 256.762908 501.94769 256.762908 501.94769 256.762908 491.97962 251.967391 488.068614 252.346467 488.068614 252.346467 494.252038 262.819973 492.232337 262.567255 490.214674 262.314538 483.273098 251.716712 483.273098 251.716712 483.273098 251.716712 473.054348 249.82337 471.413723 255.880435 469.773098 261.935462 472.422554 264.963995 473.936821 265.343071 475.451087 265.722147 485.16644 265.595788 484.913723 266.857337 484.661005 268.118886 478.100543 270.136549 474.442255 269.001359 474.442255 269.001359 478.47962 278.969429 483.778533 278.463995 489.077446 277.960598 490.718071 274.679348 493.999321 274.42663 497.278533 274.173913 499.67731 275.058424 498.036685 275.940897 496.39606 276.825408 490.844429 276.230299 488.194973 278.482337 485.545516 280.736413 483.399457 282.124321 488.321332 283.133152 493.241168 284.141984 502.074049 283.512228 503.841033 279.725543 505.605978 275.940897 505.605978 275.940897 505.605978 275.940897"/>
      <path fill="#77A4E5" d="M476.08288,257.771739 C476.08288,257.771739 502.579484,266.351902 505.605978,275.940897 C505.605978,275.940897 505.481658,280.230978 508.131114,285.152853 L508.131114,287.044158 C508.131114,287.044158 505.355299,280.610054 503.841033,279.725543 C503.841033,279.725543 509.769701,271.398098 476.08288,257.771739"/>
      <path fill="#77A4E5" d="M508.131114,285.152853 C508.131114,285.152853 512.215353,291.356658 509.887908,298.909647 L508.836277,298.628397 C508.836277,298.628397 509.855299,290.309103 507.717391,286.125 C505.579484,281.938859 508.131114,285.152853 508.131114,285.152853"/>
      <path fill="#9FC1F4" d="M520.661005,268.632473 C520.661005,268.632473 508.188179,261.648098 514.008832,252.16712 C514.008832,252.16712 518.665761,246.346467 523.654891,244.848505 C523.654891,244.848505 520.995245,258.986413 523.654891,259.318614 C526.316576,259.650815 525.485054,243.352582 525.485054,243.352582 C525.485054,243.352582 538.624321,237.032609 543.780571,237.531929 C543.780571,237.531929 535.630435,251.335598 538.29212,251.003397 C540.951766,250.671196 550.100543,236.700408 550.100543,236.700408 C550.100543,236.700408 563.572011,234.203804 565.734375,242.188859 C567.896739,250.171875 564.403533,254.162364 562.408288,254.661685 C560.413043,255.161005 547.605978,254.993886 547.938179,256.656929 C548.27038,258.322011 556.919837,260.981658 561.741848,259.485734 C561.741848,259.485734 556.420516,272.625 549.436141,271.95856 C542.449728,271.294158 540.287364,266.969429 535.962636,266.637228 C531.637908,266.305027 528.47894,267.46875 530.641304,268.632473 C532.803668,269.796196 540.120245,269.013587 543.613451,271.983016 C547.106658,274.952446 549.933424,276.782609 543.44837,278.113451 C536.961277,279.444293 525.317935,278.612772 522.990489,273.621603 C520.661005,268.632473 520.661005,268.632473 520.661005,268.632473"/>
      <path fill="#9FC1F4" d="M559.581522,244.683424 C559.581522,244.683424 524.653533,255.992527 520.661005,268.632473 C520.661005,268.632473 520.828125,274.288043 517.334918,280.775136 L517.334918,283.269701 C517.334918,283.269701 520.995245,274.787364 522.990489,273.621603 C522.990489,273.621603 515.172554,262.644701 559.581522,244.683424"/>
      <path fill="#9FC1F4" d="M517.334918,280.775136 C517.334918,280.775136 511.94837,288.953804 515.019701,298.909647 L516.405571,298.538723 C516.405571,298.538723 515.060462,287.572011 517.879076,282.055027 C520.695652,276.540082 517.334918,280.775136 517.334918,280.775136"/>
      <path fill="#9FC1F4" d="M520.241168,320.502717 C533.737092,320.502717 544.675272,309.5625 544.675272,296.066576 L495.807065,296.066576 C495.807065,309.5625 506.747283,320.502717 520.241168,320.502717"/>
      <path fill="#AFCDFB" d="M526.253397,320.315217 C525.26087,320.439538 524.245924,320.502717 523.21875,320.502717 C509.722826,320.502717 498.784647,309.5625 498.784647,296.066576 L504.855978,296.066576 C504.855978,308.535326 514.192255,318.819293 526.253397,320.315217"/>
      <polygon fill="#9FC1F4" points="495.004 296.817 545.232 296.817 545.232 296.067 495.004 296.067"/>
      <path fill="#77A4E5" d="M406.487772 319.300272L382.477582 219.644022 384.154891 215.720788 407.940897 319.290082C408.002038 319.555027 407.800272 319.807745 407.529212 319.807745L407.131793 319.807745C406.826087 319.807745 406.559103 319.597826 406.487772 319.300272M298.127038 319.807745L298.127038 319.807745C297.633832 319.807745 297.258832 319.365489 297.338315 318.878397L304.410326 276.014266 307.440897 276.014266 299.007473 319.084239C298.923913 319.504076 298.557065 319.807745 298.127038 319.807745M365.965353 319.807745L365.965353 319.807745C365.472147 319.807745 365.097147 319.365489 365.17663 318.878397L372.248641 276.014266 375.279212 276.014266 366.845788 319.084239C366.764266 319.504076 366.39538 319.807745 365.965353 319.807745"/>
      <polyline fill="#F5FBFF" points="382.414 276.104 297.958 276.104 315.454 166.406 399.913 166.406 382.414 276.104"/>
      <polygon fill="#77A4E5" points="291.736 278.495 388.734 278.495 388.734 275.268 291.736 275.268"/>
      <path fill="#BDD1F9" d="M348.902853,189.358696 C348.837636,190.22894 348.709239,191.080842 348.523777,191.912364 C346.762908,199.752717 339.782609,205.758832 331.893342,205.773119 C323.16644,205.787364 316.630435,198.462636 317.296875,189.413723 C317.963315,180.362772 325.579484,173.015625 334.306386,172.999311 C336.136549,172.997283 337.870924,173.317255 339.460598,173.908288 C340.175951,174.173234 340.86481,174.493207 341.519022,174.86413 C342.931386,175.665082 344.188859,176.69837 345.248641,177.919158 C345.839674,178.599864 346.369565,179.337636 346.832201,180.126359 C347.101223,180.580842 347.345788,181.053668 347.565897,181.542799 C348.179348,182.900136 348.603261,184.373641 348.807065,185.928668 C348.911005,186.709239 348.95788,187.51019 348.94769,188.327446 C348.941576,188.667799 348.92731,189.012228 348.902853,189.358696"/>
      <path fill="#FFF" d="M347.565897,181.542799 L333.099864,189.38519 C333.099864,189.38519 339.069293,178.875 341.519022,174.86413 C342.931386,175.665082 344.188859,176.69837 345.248641,177.919158 C345.839674,178.599864 346.369565,179.337636 346.832201,180.126359 C347.101223,180.580842 347.345788,181.053668 347.565897,181.542799"/>
      <path fill="#F99746" d="M349.067935,179.559783 L335.855299,186.723505 C335.855299,186.723505 341.307065,177.122283 343.544837,173.45788 C344.834918,174.189538 345.984375,175.133152 346.952446,176.25 C347.492527,176.869565 347.975543,177.546196 348.397418,178.263587 C348.644022,178.681386 348.866168,179.113451 349.067935,179.559783"/>
      <path fill="#BDD1F9" d="M306.735734,267.356658 L375.269022,267.360734 L382.165761,228.059103 L313.632473,228.055027 L306.735734,267.356658 Z M375.688859,267.766304 L306.173234,267.76019 L313.210598,227.651495 L382.728261,227.655571 L375.688859,267.766304 L375.688859,267.766304 Z"/>
      <path fill="#F99746" d="M371.543478,262.265625 L309.892663,262.261549 C309.892663,262.261549 320.828804,256.39606 323.828804,256.703804 C326.828804,257.011549 331.139266,259.38587 333.913043,259.477582 C336.684783,259.571332 339.686821,251.245924 342.774457,251.639266 C345.860054,252.030571 347.021739,259.394022 348.619565,258.674592 C350.217391,257.955163 355.016984,257.643342 357.780571,258.674592 C360.544158,259.705842 364.571332,255.397418 367.000679,255.533967 C369.430027,255.668478 371.543478,262.265625 371.543478,262.265625"/>
      <polyline fill="#F99746" points="324.717 250.478 312.942 250.476 313.052 249.852 324.825 249.852 324.717 250.478"/>
      <polyline fill="#F99746" points="324.483 251.81 312.707 251.81 312.817 251.185 324.593 251.187 324.483 251.81"/>
      <path fill="#BDD1F9" d="M313.420516,242.15625 L375.071332,242.160326 C375.071332,242.160326 366.193614,236.294837 363.085598,236.600543 C359.977582,236.908288 354.83356,239.282609 352.029212,239.374321 C349.222826,239.466033 349.143342,231.140625 345.919158,231.533967 C342.694973,231.925272 338.949049,239.288723 337.60394,238.569293 C336.256793,237.849864 331.569293,237.536005 328.442935,238.567255 C325.318614,239.598505 322.803668,235.290082 320.325408,235.424592 C317.849185,235.559103 313.420516,242.15625 313.420516,242.15625"/>
      <polyline fill="#BDD1F9" points="328.043 231.518 316.268 231.518 316.378 230.894 328.154 230.894 328.043 231.518"/>
      <polyline fill="#BDD1F9" points="327.809 232.853 316.033 232.853 316.143 232.227 327.919 232.227 327.809 232.853"/>
      <polyline fill="#BDD1F9" points="317.417 222.057 314.713 222.057 317.063 209.387 319.767 209.387 317.417 222.057"/>
      <polyline fill="#BDD1F9" points="321.1 222.057 318.395 222.057 320.215 212.242 322.92 212.242 321.1 222.057"/>
      <polyline fill="#BDD1F9" points="324.785 222.057 322.08 222.057 323.978 211.82 326.682 211.82 324.785 222.057"/>
      <polyline fill="#BDD1F9" points="328.467 222.057 325.763 222.057 327.208 214.272 329.912 214.272 328.467 222.057"/>
      <polyline fill="#BDD1F9" points="332.152 222.057 329.448 222.057 330.997 213.705 333.701 213.705 332.152 222.057"/>
      <polyline fill="#BDD1F9" points="335.835 222.057 333.13 222.057 334.333 215.58 337.035 215.58 335.835 222.057"/>
      <polyline fill="#F99746" points="353.59 222.057 350.886 222.057 353.236 209.387 355.94 209.387 353.59 222.057"/>
      <polyline fill="#F99746" points="357.273 222.057 354.571 222.057 356.391 212.242 359.093 212.242 357.273 222.057"/>
      <polyline fill="#F99746" points="360.958 222.057 358.253 222.057 360.151 211.82 362.855 211.82 360.958 222.057"/>
      <polyline fill="#F99746" points="364.641 222.057 361.936 222.057 363.381 214.272 366.086 214.272 364.641 222.057"/>
      <polyline fill="#F99746" points="368.325 222.057 365.621 222.057 367.17 213.705 369.874 213.705 368.325 222.057"/>
      <polyline fill="#F99746" points="372.008 222.057 369.304 222.057 370.506 215.58 373.211 215.58 372.008 222.057"/>
      <polyline fill="#BDD1F9" points="366.609 180.693 357.807 180.693 358.033 179.488 366.836 179.488 366.609 180.693"/>
      <polyline fill="#BDD1F9" points="377.409 180.693 367.688 180.693 367.916 179.488 377.635 179.488 377.409 180.693"/>
      <polyline fill="#BDD1F9" points="384.336 180.693 378.139 180.693 378.365 179.488 384.563 179.488 384.336 180.693"/>
      <polyline fill="#BDD1F9" points="390.12 180.693 385.339 180.693 385.565 179.488 390.346 179.488 390.12 180.693"/>
      <polyline fill="#BDD1F9" points="365.643 185.839 356.841 185.839 357.067 184.632 365.87 184.632 365.643 185.839"/>
      <polyline fill="#BDD1F9" points="376.441 185.839 366.721 185.839 366.948 184.632 376.669 184.632 376.441 185.839"/>
      <polyline fill="#BDD1F9" points="383.37 185.839 377.173 185.839 377.399 184.632 383.596 184.632 383.37 185.839"/>
      <polyline fill="#BDD1F9" points="389.154 185.839 384.373 185.839 384.599 184.632 389.38 184.632 389.154 185.839"/>
      <polyline fill="#BDD1F9" points="371.841 177.88 358.335 177.88 358.561 176.674 372.067 176.674 371.841 177.88"/>
      <polyline fill="#BDD1F9" points="380.912 177.88 373.127 177.88 373.353 176.674 381.139 176.674 380.912 177.88"/>
      <polyline fill="#BDD1F9" points="390.656 177.88 382.011 177.88 382.237 176.674 390.882 176.674 390.656 177.88"/>
      <polyline fill="#BDD1F9" points="370.814 183.351 357.308 183.351 357.534 182.144 371.04 182.144 370.814 183.351"/>
      <polyline fill="#BDD1F9" points="379.885 183.351 372.1 183.351 372.326 182.144 380.111 182.144 379.885 183.351"/>
      <polyline fill="#BDD1F9" points="389.629 183.351 380.984 183.351 381.21 182.144 389.855 182.144 389.629 183.351"/>
      <polyline fill="#BDD1F9" points="364.677 190.983 355.875 190.983 356.101 189.776 364.904 189.776 364.677 190.983"/>
      <polyline fill="#BDD1F9" points="375.475 190.983 365.755 190.983 365.982 189.776 375.701 189.776 375.475 190.983"/>
      <polyline fill="#BDD1F9" points="382.404 190.983 376.207 190.983 376.433 189.776 382.63 189.776 382.404 190.983"/>
      <polyline fill="#BDD1F9" points="388.188 190.983 383.407 190.983 383.633 189.776 388.414 189.776 388.188 190.983"/>
      <polyline fill="#BDD1F9" points="369.848 188.495 356.342 188.495 356.568 187.29 370.074 187.29 369.848 188.495"/>
      <polyline fill="#BDD1F9" points="378.919 188.495 371.134 188.495 371.36 187.29 379.145 187.29 378.919 188.495"/>
      <polyline fill="#BDD1F9" points="388.661 188.495 380.016 188.495 380.244 187.29 388.889 187.29 388.661 188.495"/>
      <polyline fill="#BDD1F9" points="363.772 195.807 354.968 195.807 355.194 194.601 363.999 194.601 363.772 195.807"/>
      <polyline fill="#BDD1F9" points="374.57 195.807 364.851 195.807 365.077 194.601 374.796 194.601 374.57 195.807"/>
      <polyline fill="#BDD1F9" points="381.497 195.807 375.302 195.807 375.528 194.601 381.724 194.601 381.497 195.807"/>
      <polyline fill="#BDD1F9" points="387.283 195.807 382.502 195.807 382.728 194.601 387.51 194.601 387.283 195.807"/>
      <polyline fill="#BDD1F9" points="368.941 193.319 355.437 193.319 355.663 192.112 369.167 192.112 368.941 193.319"/>
      <polyline fill="#BDD1F9" points="378.012 193.319 370.227 193.319 370.455 192.112 378.238 192.112 378.012 193.319"/>
      <polyline fill="#BDD1F9" points="387.756 193.319 379.111 193.319 379.337 192.112 387.982 192.112 387.756 193.319"/>
      <polyline fill="#BDD1F9" points="343.738 211.27 339.43 211.27 339.542 210.681 343.851 210.681 343.738 211.27"/>
      <polyline fill="#BDD1F9" points="349.025 211.27 344.268 211.27 344.378 210.681 349.135 210.681 349.025 211.27"/>
      <polyline fill="#BDD1F9" points="343.266 213.789 338.957 213.789 339.069 213.198 343.378 213.198 343.266 213.789"/>
      <polyline fill="#BDD1F9" points="348.552 213.789 343.796 213.789 343.906 213.198 348.662 213.198 348.552 213.789"/>
      <polyline fill="#BDD1F9" points="346.3 209.894 339.689 209.894 339.801 209.303 346.41 209.303 346.3 209.894"/>
      <polyline fill="#BDD1F9" points="350.739 209.894 346.93 209.894 347.04 209.303 350.851 209.303 350.739 209.894"/>
      <polyline fill="#BDD1F9" points="345.797 212.572 339.188 212.572 339.298 211.981 345.907 211.981 345.797 212.572"/>
      <polyline fill="#BDD1F9" points="350.238 212.572 346.427 212.572 346.537 211.981 350.348 211.981 350.238 212.572"/>
      <polyline fill="#BDD1F9" points="378.253 211.27 373.944 211.27 374.056 210.681 378.365 210.681 378.253 211.27"/>
      <polyline fill="#BDD1F9" points="383.539 211.27 378.781 211.27 378.893 210.681 383.649 210.681 383.539 211.27"/>
      <polyline fill="#BDD1F9" points="377.78 213.789 373.471 213.789 373.584 213.198 377.892 213.198 377.78 213.789"/>
      <polyline fill="#BDD1F9" points="383.067 213.789 378.308 213.789 378.42 213.198 383.177 213.198 383.067 213.789"/>
      <polyline fill="#BDD1F9" points="380.815 209.894 374.203 209.894 374.315 209.303 380.925 209.303 380.815 209.894"/>
      <polyline fill="#BDD1F9" points="385.253 209.894 381.444 209.894 381.554 209.303 385.365 209.303 385.253 209.894"/>
      <polyline fill="#BDD1F9" points="380.311 212.572 373.7 212.572 373.812 211.981 380.421 211.981 380.311 212.572"/>
      <polyline fill="#BDD1F9" points="384.752 212.572 380.941 212.572 381.051 211.981 384.862 211.981 384.752 212.572"/>
      <path fill="#FFB27D" d="M401.17663,318.181386 C401.023777,320.243886 398.115489,320.266304 394.813859,319.883152 C391.512228,319.5 392.390625,320.335598 387.768342,320.398777 C383.14606,320.463995 381.55231,318.935462 381.328125,318.275136 C381.128397,317.690217 383.355978,317.197011 385.736413,316.616168 C386.036005,316.544837 386.337636,316.469429 386.637228,316.391984 C389.32337,315.709239 391.102582,313.699728 393.399457,311.944973 C395.576087,310.281929 398.382473,304.265625 398.382473,304.265625 L404.696332,303.980299 C404.696332,303.980299 402.038723,309.375 401.040082,311.69837 C400.451087,313.067935 400.701766,314.747283 400.956522,316.037364 C401.093071,316.738451 401.22962,317.455842 401.17663,318.181386"/>
      <path fill="#233862" d="M394.813859,319.883152 C391.512228,319.5 392.390625,320.335598 387.768342,320.398777 C383.14606,320.463995 381.55231,318.935462 381.328125,318.275136 C381.128397,317.690217 383.355978,317.197011 385.736413,316.616168 L385.764946,316.661005 C385.764946,316.661005 388.742527,318.256793 392.547554,317.875679 C395.651495,317.563859 398.816576,316.269701 400.956522,316.037364 C401.093071,316.738451 401.22962,317.455842 401.17663,318.181386 C401.023777,320.243886 398.115489,320.266304 394.813859,319.883152"/>
      <path fill="#FFB27D" d="M444.786685,318.609375 C444.637908,320.671875 441.727582,320.696332 438.425951,320.317255 C435.124321,319.938179 436.002717,320.771739 431.380435,320.841033 C426.758152,320.910326 425.164402,319.383832 424.940217,318.723505 C424.738451,318.136549 426.966033,317.641304 429.346467,317.060462 C429.64606,316.987092 429.945652,316.911685 430.247283,316.836277 C432.931386,316.149457 434.70856,314.137908 437.003397,312.381114 C439.177989,310.716033 437.005435,300.860054 437.005435,300.860054 L443.951087,300.185462 C443.951087,300.185462 443.618886,308.482337 443.622962,312.254755 C443.625,313.744565 444.309783,315.175272 444.566576,316.465353 C444.703125,317.16644 444.839674,317.883832 444.786685,318.609375"/>
      <path fill="#233862" d="M438.425951,320.317255 C435.124321,319.938179 436.002717,320.771739 431.380435,320.841033 C426.758152,320.910326 425.164402,319.383832 424.940217,318.723505 C424.738451,318.136549 426.966033,317.641304 429.346467,317.060462 L429.375,317.103261 C429.375,317.103261 432.352582,318.697011 436.159647,318.311821 C439.261549,317.997962 442.424592,316.699728 444.566576,316.465353 C444.703125,317.16644 444.839674,317.883832 444.786685,318.609375 C444.637908,320.671875 441.727582,320.696332 438.425951,320.317255"/>
      <path fill="#A9453D" d="M424.518342,148.278057 C423.322011,143.360462 425.054348,141.070312 426.619565,139.850951 C427.361413,138.040965 428.207201,136.736413 429.07337,136.244429 C430.650815,135.347283 432.54212,135.249457 433.86481,135.327514 C433.524457,134.975951 432.85394,134.847758 432.85394,134.847758 C433.675272,134.725883 435.507473,135.539674 435.507473,135.539674 C446.918478,131.142187 448.711957,147.945856 448.473505,151.849932 C448.235054,155.753397 448.265625,160.351427 454.204484,163.427038 C465.531929,169.295992 450.438179,191.413043 450.438179,191.413043 C450.727582,188.258152 436.169837,171.609375 428.576087,166.623302 C426.727582,163.901698 426.071332,159.09375 426.022418,158.715285 C426.340353,162.527446 426.992527,164.665761 427.575408,165.869837 C424.11481,162.684171 423.601223,155.034579 424.518342,148.278057"/>
      <path fill="#FFB27D" d="M429.026495,166.871332 C428.987772,166.888451 432.692935,168.81216 435.47894,168.049932 C438.099864,167.33519 439.813859,163.936549 439.777174,163.928804 C438.66644,163.708288 438.346467,162.183016 438.370924,155.627853 L437.869565,155.726698 L429.430027,157.397486 C429.430027,157.397486 429.623641,160.053057 429.627717,162.554552 C429.633832,164.654959 429.507473,166.647147 429.026495,166.871332"/>
      <path fill="#ED975D" d="M429.430027,157.397486 C429.430027,157.397486 429.623641,160.053057 429.627717,162.554552 C434.349864,162.421467 436.846467,158.114062 437.869565,155.726698 L429.430027,157.397486"/>
      <path fill="#2A4E96" d="M395.099185,307.610054 C394.685462,308.90625 395.616848,310.243207 396.976223,310.306386 L400.271739,310.461277 L403.76087,310.567255 C404.633152,310.59375 405.466712,310.212636 406.016984,309.536005 C408.800951,306.122283 417.370924,294.737772 422.569973,278.199049 C422.716712,277.734375 422.869565,277.265625 423.032609,276.790761 C426.466712,266.779891 433.58356,254.215353 437.33356,242.843071 C437.930707,241.03125 438.466712,239.325408 438.94769,237.713315 C439.100543,237.195652 439.251359,236.688179 439.394022,236.188859 C442.157609,226.585598 442.95856,220.279891 443.696332,213.54212 L416.61481,213.76019 C416.61481,213.76019 410.912364,258.07337 395.099185,307.610054"/>
      <path fill="#FFF" d="M420.405571,198.19769 C420.472826,211.086277 418.514266,216.613451 418.514266,216.613451 C418.514266,216.613451 430.110734,222.505435 443.891984,218.168478 C444.052989,218.117527 453.75,215.372283 453.75,215.372283 C453.519701,214.850543 451.60394,206.227582 451.379755,205.748641 C448.469429,199.5 447.67663,196.877038 447.332201,194.957201 C446.692255,191.370245 446.677989,187.658967 446.995924,184.159647 C447.837636,174.894701 450.338315,167.204348 450.338315,167.204348 C446.584239,166.35 443.066576,164.848981 439.159647,163.38322 C438.26087,164.502717 435.511549,165.673981 433.127038,165.62038 C430.381793,165.559851 429.493207,164.384715 429.633832,163.101766 C426.709239,164.729348 424.375679,166.267052 424.375679,166.267052 C421.889266,170.58587 416.847147,174.780571 416.480299,181.404212 C416.390625,183.032609 420.403533,197.836957 420.405571,198.19769"/>
      <path fill="#5F9AA8" d="M443.696332,199.634511 C444.880435,201.309783 447.148777,211.493886 452.796196,212.773777 C449.88587,205.516304 447.67663,202.33288 447.332201,200.101223 C446.692255,195.9375 446.677989,191.627038 446.995924,187.561141 C445.106658,184.247283 443.696332,181.976902 443.696332,181.976902 C443.547554,181.440897 440.692255,172.612092 439.777174,180.503397 C438.86413,188.396739 442.373641,197.761549 443.696332,199.634511"/>
      <path fill="#FFB27D" d="M427.85462,159.766304 C427.85462,159.766304 439.025136,159.950543 439.033288,152.991644 C439.04144,146.032948 440.488451,141.369905 433.355299,140.958016 C426.224185,140.546128 424.834239,143.200068 424.267663,145.522215 C423.699049,147.844158 424.94837,159.539063 427.85462,159.766304"/>
      <path fill="#A9453D" d="M428.268342,140.787636 C428.268342,140.787636 431.325408,148.95163 436.02106,150.158764 C440.714674,151.365897 442.750679,150.10822 442.750679,150.10822 C442.750679,150.10822 439.149457,147.247826 438.403533,142.254823 C438.403533,142.254823 430.575408,136.901902 428.268342,140.787636"/>
      <path fill="#A9453D" d="M429.026495,141.450408 C429.026495,141.450408 426.741848,143.27303 426.185462,145.045109 C425.627038,146.817187 425.376359,150.465082 424.314538,150.341168 C424.314538,150.341168 422.009511,144.791984 424.599864,141.652989 C427.345109,138.324253 429.026495,141.450408 429.026495,141.450408"/>
      <polyline fill="#FFB27D" points="410.276 207.143 405 223.231 408.008 224.438 416.733 210.224 410.276 207.143"/>
      <path fill="#F99746" d="M424.502038,165.319565 C424.502038,165.319565 418.279891,167.788655 416.480299,171.637908 C414.678668,175.487772 411.951766,201.305707 410.867527,203.957201 C409.78125,206.608696 408.963995,208.70788 408.963995,208.70788 C408.963995,208.70788 412.100543,211.351223 415.255435,211.544837 C418.410326,211.740489 424.502038,165.319565 424.502038,165.319565"/>
      <path fill="#F99746" d="M429.633832,163.101766 C429.633832,163.101766 423.171196,179.068614 422.981658,182.300951 C422.79212,185.53125 422.221467,235.14538 422.221467,235.14538 C422.221467,235.14538 422.600543,237.425951 418.22894,236.474185 C413.857337,235.524457 412.716033,234.574728 412.716033,234.574728 C412.716033,234.574728 416.898098,203.971467 415.758832,193.324728 C414.617527,182.680027 424.502038,165.319565 424.502038,165.319565 L429.633832,163.101766"/>
      <path fill="#1E3D70" d="M400.271739,310.461277 L404.058424,310.575408 C404.735054,310.597826 405.38519,310.306386 405.815217,309.782609 C408.360734,306.701087 417.238451,295.161685 422.569973,278.199049 C422.716712,277.734375 422.869565,277.265625 423.032609,276.790761 C426.466712,266.779891 433.58356,254.215353 437.33356,242.843071 C437.930707,241.03125 438.466712,239.325408 438.94769,237.713315 C439.100543,237.195652 439.251359,236.688179 439.394022,236.188859 L435.405571,233.162364 C435.405571,233.162364 423.432065,252.550272 419.724864,270.796875 C416.504755,286.646739 403.610054,305.716712 400.271739,310.461277"/>
      <path fill="#2A4E96" d="M434.98981,272.496603 C434.924592,280.891304 435.322011,299.600543 436.345109,308.747283 C436.438859,309.58288 437.14606,310.214674 437.987772,310.214674 L440.814538,310.214674 C442.004755,310.214674 442.89538,310.206522 443.488451,310.19837 C444,310.190217 444.438179,309.82337 444.536005,309.319973 C447.346467,295.02106 449.358016,283.141304 450.829484,272.875679 C452.060462,264.285326 453.156929,256.917799 453.998641,250.577446 C454.846467,244.196332 455.435462,238.852582 455.64538,234.338315 C455.677989,233.627038 455.702446,232.936141 455.716712,232.263587 C455.72894,231.588995 455.733016,230.934783 455.72894,230.296875 L432.328125,228.016304 C432.623641,243.5625 435.028533,267.338315 434.98981,272.496603"/>
      <path fill="#1E3D70" d="M440.814538,310.214674 C441.884511,310.214674 442.711957,310.20856 443.296875,310.200408 C443.920516,310.192255 444.452446,309.745924 444.57269,309.136549 C447.362772,294.919158 449.36413,283.096467 450.829484,272.875679 C452.060462,264.285326 453.156929,256.917799 453.998641,250.577446 C454.846467,244.196332 455.435462,238.852582 455.64538,234.338315 L447.059103,239.388587 C447.059103,239.388587 452.539402,241.32269 450.44837,255.95788 C448.357337,270.595109 443.724864,308.144022 440.814538,310.214674"/>
      <path fill="#F99746" d="M439.70788,234.193614 C439.70788,234.193614 441.356658,240.148777 447.059103,239.388587 C452.761549,238.628397 460.870924,235.206522 460.870924,235.206522 C460.870924,235.206522 458.433424,227.506793 455.404891,217.389946 C451.736413,205.143342 447.193614,189.35462 445.053668,179.396739 C444.452446,176.60462 444.042799,174.275136 443.889946,172.605978 L439.159647,163.427038 C439.159647,163.427038 432.105978,179.26019 431.724864,183.250679 C431.345788,187.243207 439.70788,234.193614 439.70788,234.193614"/>
      <path fill="#FFB27D" d="M445.402174,182.655571 L439.159647,163.427038 C439.175951,163.434986 447.044837,165.76875 451.004755,167.768682 C451.004755,167.768682 453.47894,170.958424 455.009511,178.318614 C455.009511,178.318614 456.625679,195.986413 453.014266,202.449049 C453.014266,202.449049 441.609375,204.731658 423.360734,198.45856 L423.360734,194.276495 C423.360734,194.276495 443.321332,195.322011 447.407609,195.796875 L445.402174,182.655571"/>
      <path fill="#ED7D2B" d="M439.960598,191.61481 C440.215353,198.077446 441.737772,210.623641 455.294837,217.338995 C455.331522,217.357337 455.368207,217.375679 455.404891,217.389946 C451.736413,205.143342 447.193614,189.35462 445.053668,179.396739 C442.563179,183.118207 439.822011,188.056386 439.960598,191.61481"/>
      <path fill="#F99746" d="M439.159647,163.427038 C439.159647,163.427038 450.733696,164.242459 453.521739,170.45197 C456.309783,176.661685 457.196332,197.317255 453.648098,203.400815 C453.648098,203.400815 448.762908,204.790761 440.123641,203.17663 C440.017663,203.15625 439.911685,203.13587 439.803668,203.115489 C439.803668,203.115489 437.048234,196.367527 439.518342,195.036685 C439.518342,195.036685 446.804348,195.415761 446.044158,193.008832 C445.283967,190.601902 439.159647,163.427038 439.159647,163.427038"/>
      <path fill="#A9453D" d="M410.137908,196.860734 L410.478261,197.955163 L429.470788,192.046875 C429.470788,192.046875 429.725543,191.759511 429.599185,191.376359 C429.462636,190.952446 429.130435,190.952446 429.130435,190.952446 L410.137908,196.860734"/>
      <polyline fill="#A9453D" points="408.764 197.896 410.138 196.861 410.478 197.955 408.764 197.896"/>
      <path fill="#FFB27D" d="M405.75 222.790761C405.75 222.790761 400.930027 225.452446 400.296196 227.482337 399.662364 229.51019 400.098505 233.757473 400.862772 233.694293 401.629076 233.631114 402.77038 229.129076 403.404212 228.813179 404.038043 228.495245 404.924592 227.545516 404.924592 228.242527 404.924592 228.939538 404.290761 230.207201 404.608696 230.398777 404.924592 230.588315 405.939538 228.623641 406.636549 228.242527 407.33356 227.861413 407.627038 224.726902 408.303668 223.88519 408.982337 223.043478 405.75 222.790761 405.75 222.790761M423.360734 194.276495C423.360734 194.276495 419.05231 191.622962 417.244565 192.030571 415.436821 192.438179 410.830842 195.774457 413.046196 196.497962 415.261549 197.219429 417.057065 196.463315 417.908967 196.987092 418.76087 197.512908 419.390625 198.470788 423.360734 198.45856 427.33288 198.444293 423.360734 194.276495 423.360734 194.276495"/>
      <path fill="#A6C4EF" d="M214.67731,319.80163 L214.605978,319.80163 C214.39606,319.80163 214.204484,319.713995 214.069973,319.575408 L215.237772,319.575408 C215.093071,319.716033 214.893342,319.80163 214.67731,319.80163"/>
      <path fill="#A1C0ED" d="M214.069973,319.575408 C213.935462,319.436821 213.85394,319.247283 213.860054,319.037364 L214.938179,272.266304 L218.170516,272.266304 L215.482337,319.04144 C215.470109,319.251359 215.378397,319.438859 215.237772,319.575408 L214.069973,319.575408"/>
      <path fill="#A6C4EF" d="M195.256793,319.80163 L195.185462,319.80163 C194.975543,319.80163 194.786005,319.716033 194.651495,319.577446 L195.815217,319.577446 C195.670516,319.716033 195.472826,319.80163 195.256793,319.80163"/>
      <path fill="#A1C0ED" d="M194.651495,319.577446 C194.516984,319.438859 194.433424,319.247283 194.439538,319.037364 L195.519701,272.180707 C195.758152,272.235734 196.006793,272.266304 196.263587,272.266304 L198.75,272.266304 L196.061821,319.04144 C196.049592,319.253397 195.95788,319.440897 195.815217,319.577446 L194.651495,319.577446"/>
      <path fill="#A6C4EF" d="M248.91644,319.80163 L248.845109,319.80163 C248.627038,319.80163 248.42731,319.713995 248.280571,319.571332 L249.456522,319.571332 C249.319973,319.713995 249.128397,319.80163 248.91644,319.80163"/>
      <path fill="#A1C0ED" d="M248.280571 319.571332C248.141984 319.434783 248.05231 319.249321 248.040082 319.04144L245.351902 272.266304 248.584239 272.266304 249.662364 319.037364C249.668478 319.245245 249.588995 319.432745 249.456522 319.571332L248.280571 319.571332M238.669158 266.961277L193.047554 266.961277 193.047554 233.360054C193.047554 227.44769 197.841033 222.654212 203.753397 222.654212L227.963315 222.654212C233.875679 222.654212 238.669158 227.44769 238.669158 233.360054L238.669158 266.961277M213.244565 272.266304L196.263587 272.266304C196.006793 272.266304 195.758152 272.235734 195.519701 272.180707 194.103261 271.844429 193.047554 270.570652 193.047554 269.05231L193.047554 266.961277 243.006114 266.961277 213.244565 266.961277C211.932065 266.961277 210.868207 268.025136 210.868207 269.337636L210.868207 269.889946C210.868207 271.202446 211.932065 272.266304 213.244565 272.266304"/>
      <path fill="#A1C0ED" d="M248.606658,272.266304 L213.244565,272.266304 C211.932065,272.266304 210.868207,271.202446 210.868207,269.889946 L210.868207,269.337636 C210.868207,268.025136 211.932065,266.961277 213.244565,266.961277 L248.606658,266.961277 C249.921196,266.961277 250.985054,268.025136 250.985054,269.337636 L250.985054,269.889946 C250.985054,271.202446 249.921196,272.266304 248.606658,272.266304"/>
      <path fill="#FFB27D" d="M275.064538,300.248641 C275.402853,301.938179 277.809783,301.656929 280.5,300.998641 C283.190217,300.342391 282.550272,301.122962 286.377717,300.699049 C290.207201,300.275136 291.366848,298.848505 291.483016,298.279891 C291.586957,297.774457 289.695652,297.597147 287.667799,297.362772 C287.411005,297.334239 287.15625,297.30163 286.899457,297.27106 C284.608696,296.983696 282.931386,295.506114 280.850543,294.29144 C278.879755,293.141984 275.938859,288.456522 275.938859,288.456522 L270.688859,288.872283 C270.688859,288.872283 273.444293,293.056386 274.51019,294.876359 C275.13587,295.946332 275.103261,297.360734 275.025815,298.453125 C274.985054,299.048234 274.946332,299.653533 275.064538,300.248641"/>
      <path fill="#233862" d="M280.5,300.998641 C283.190217,300.342391 282.550272,301.122962 286.377717,300.699049 C290.207201,300.275136 291.366848,298.848505 291.483016,298.279891 C291.586957,297.774457 289.695652,297.597147 287.667799,297.362772 L287.647418,297.401495 C287.647418,297.401495 285.352582,299.029891 282.16712,299.105299 C279.568614,299.168478 276.819293,298.424592 275.025815,298.453125 C274.985054,299.048234 274.946332,299.653533 275.064538,300.248641 C275.402853,301.938179 277.809783,301.656929 280.5,300.998641"/>
      <path fill="#FFB27D" d="M229.950408,307.803668 C228.906929,309.175272 230.710598,310.793478 232.983016,312.375 C235.255435,313.95856 234.246603,313.995245 237.095788,316.585598 C239.947011,319.175951 241.783288,319.102582 242.288723,318.813179 C242.737092,318.556386 241.618207,317.021739 240.452446,315.344429 C240.303668,315.134511 240.158967,314.920516 240.012228,314.70856 C238.711957,312.800951 238.711957,310.565217 238.245245,308.201087 C237.805027,305.963315 241.459239,297.735734 241.459239,297.735734 L235.587636,296.995924 C235.587636,296.995924 234.819293,301.964674 234.161005,303.968071 C233.771739,305.14606 232.141304,305.922554 231.27106,306.584918 C230.798234,306.94769 230.317255,307.320652 229.950408,307.803668"/>
      <path fill="#233862" d="M232.983016,312.375 C235.255435,313.95856 234.246603,313.995245 237.095788,316.585598 C239.947011,319.175951 241.783288,319.102582 242.288723,318.813179 C242.737092,318.556386 241.618207,317.021739 240.452446,315.344429 L240.409647,315.356658 C240.409647,315.356658 237.670516,314.710598 235.506114,312.372962 C233.741168,310.467391 232.477582,307.911685 231.27106,306.584918 C230.798234,306.94769 230.317255,307.320652 229.950408,307.803668 C228.906929,309.175272 230.710598,310.793478 232.983016,312.375"/>
      <path fill="#163560" d="M253.934103,265.744565 L241.567255,299.023777 C241.567255,299.023777 239.667799,299.207201 237.847826,298.683424 C236.172554,298.19837 234.250679,296.932745 234.250679,296.932745 C234.250679,296.932745 236.194973,276.697011 239.82269,265.082201 C240.752038,262.100543 241.793478,259.689538 242.942935,258.330163 C248.565897,251.686141 253.934103,265.744565 253.934103,265.744565"/>
      <path fill="#2A4E96" d="M248.480299,242.82269 C244.966712,241.689538 234.377038,242.366168 224.311141,244.336957 L222.768342,241.638587 L201.022418,239.940897 C201.022418,239.940897 193.846467,255.85394 197.775815,265.993207 C198.352582,267.483016 199.5,268.438859 201.456522,268.471467 L201.774457,268.471467 C201.774457,268.471467 214.716033,268.463315 218.918478,268.463315 C229.734375,268.463315 241.805707,261.028533 243.368886,260.716712 C245.924592,260.205163 246.94769,265.318614 249.503397,270.686821 C252.059103,276.055027 273.531929,294.461015 273.531929,294.461015 C273.531929,294.461015 276.83356,294.493207 278.197011,293.981658 C279.662364,293.431386 280.19837,292.718071 280.19837,292.718071 C280.19837,292.718071 256.40625,245.378397 248.480299,242.82269"/>
      <path fill="#233862" d="M215.152174,175.815897 C212.093071,175.086277 207.935462,175.942255 207.246603,176.021739 C198.988451,176.985734 197.141984,189.815217 197.755435,193.402174 C198.888587,200.015625 195.711277,201.878397 191.920516,207.16712 C184.32269,217.77106 189.570652,226.504076 195.758152,228.668478 C199.469429,229.966712 204.525815,226.430707 204.525815,226.430707 C204.619565,226.465353 217.656929,214.019022 224.107337,207.972147 C234.94769,203.504755 222.953804,177.672554 215.152174,175.815897"/>
      <path fill="#FFB27D" d="M216.921196,206.060462 C216.959918,206.07269 213.558424,208.294158 210.786685,207.827446 C208.180027,207.389266 205.420516,203.987772 205.455163,203.975543 C206.508832,203.655571 207.440217,202.424592 206.781929,196.080163 L207.277174,196.127038 L215.610734,196.925951 C215.610734,196.925951 215.682065,199.516304 215.918478,201.939538 C216.116168,203.973505 216.434103,205.889266 216.921196,206.060462"/>
      <path fill="#ED975D" d="M215.610734,196.925951 C215.610734,196.925951 215.682065,199.516304 215.918478,201.939538 C211.334918,202.267663 208.5,198.340353 207.277174,196.127038 L215.610734,196.925951"/>
      <path fill="#FFB27D" d="M217.365489,199.067935 C217.365489,199.067935 206.567935,200.329484 205.88519,193.591712 C205.202446,186.855978 203.349864,182.480299 210.216033,181.389946 C217.082201,180.299592 218.684103,182.735054 219.45856,184.927989 C220.233016,187.120924 220.157609,198.564538 217.365489,199.067935"/>
      <path fill="#233862" d="M218.170516,181.467391 C218.170516,181.467391 212.955163,188.932745 208.528533,190.557065 C204.099864,192.181386 202.006793,191.160326 202.006793,191.160326 C202.006793,191.160326 204.118207,188.252038 204.815217,184.251359 C205.02106,183.071332 205.840353,182.088995 206.969429,181.693614 C210.144701,180.584918 216.266984,178.887228 218.170516,181.467391"/>
      <path fill="#233862" d="M213.860054,182.017663 C213.860054,182.017663 216.648098,183.609375 217.76087,185.033967 C218.834918,186.407609 219.984375,190.057745 219.817255,191.665761 C219.817255,191.665761 221.574049,184.002717 218.761549,181.214674 C215.779891,178.257473 213.860054,182.017663 213.860054,182.017663"/>
      <path fill="#FFF" d="M225.224185,223.934103 C224.898098,245.747283 225.134511,241.190217 222.747962,243.258832 C222.173234,243.758152 220.557065,244.053668 218.429348,244.194293 C211.742527,244.638587 199.985054,243.536005 199.536685,242.300951 C197.993886,238.023098 199.084239,236.694293 197.796196,230.148098 C197.661685,229.451087 197.496603,228.697011 197.300951,227.875679 C196.22894,223.379755 195.183424,221.849185 198.990489,214.624321 C202.444973,208.080163 206.172554,202.852582 206.494565,203.044158 C215.60462,208.451087 216.19769,203.82269 216.19769,203.82269 C216.19769,203.82269 225.383152,213.295516 225.224185,223.934103"/>
      <path fill="#2A4E96" d="M248.569973,280.177989 L241.408288,299.808424 C241.408288,299.808424 238.836277,300.64606 236.961277,300.375 C235.053668,300.095788 234.006114,299.054348 234.006114,299.054348 C234.006114,299.054348 236.194973,276.697011 239.82269,265.082201 L248.569973,280.177989"/>
      <path fill="#FFF" d="M216.19769,203.820652 C216.19769,203.820652 225.570652,205.410326 226.671196,209.445652 C227.773777,213.480978 235.822011,235.720109 235.822011,235.720109 C235.822011,235.720109 229.485734,238.061821 227.282609,235.860734 C225.081522,233.659647 219.623641,215.4375 219.623641,215.4375 L216.19769,203.820652"/>
      <path fill="#DFEBFD" d="M218.429348,244.194293 C211.742527,244.638587 199.985054,243.536005 199.536685,242.300951 C197.993886,238.023098 199.084239,236.694293 197.796196,230.148098 L200.934783,223.004755 C200.934783,223.004755 200.488451,231.179348 203.472147,233.838995 C206.451766,236.500679 215.686141,238.974864 217.137228,241.19837 C217.836277,242.266304 218.296875,243.336277 218.429348,244.194293"/>
      <path fill="#FFB27D" d="M218.975543 239.539402C218.975543 239.539402 220.966712 241.257473 221.533288 241.398098 222.099864 241.534647 222.423913 241.40625 222.423913 241.40625L220.970788 239.706522 218.975543 239.539402M218.184783 237.515625L223.22894 238.817935C223.22894 238.817935 223.098505 239.17663 222.527853 239.264266 221.957201 239.35394 220.424592 239.119565 220.424592 239.119565L218.184783 237.515625"/>
      <path fill="#FFB27D" d="M209.633152,240.295516 C209.633152,240.295516 216.83356,237.091712 218.184783,237.515625 C219.538043,237.939538 223.002717,239.773777 223.546875,240.546196 C224.091033,241.318614 220.70788,240.450408 219.652174,240.38519 C218.967391,240.342391 217.379755,241.279891 216.591033,241.734375 C213.273098,243.639946 210.970109,243.470788 210.970109,243.470788 L209.633152,240.295516"/>
      <path fill="#FFF" d="M206.494565,203.044158 C206.494565,203.044158 196.308424,204.955842 194.421196,207.778533 C190.304348,213.939538 181.538723,239.463995 186.446332,242.88587 C191.975543,246.741848 211.605978,243.894701 211.605978,243.894701 C211.605978,243.894701 212.258152,240.841712 211.349185,239.36413 C210.442255,237.886549 195.670516,235.502038 194.98981,234.819293 C194.307065,234.138587 201.723505,224.280571 200.934783,222.393342 C198.403533,216.350543 206.494565,203.044158 206.494565,203.044158"/>
      <path fill="#FFB27D" d="M246.764266,239.207201 C246.764266,239.207201 253.893342,241.133152 254.625,242.23981 C255.358696,243.346467 256.793478,246.72962 256.732337,247.612092 C256.671196,248.494565 254.724864,245.865489 253.997283,245.192935 C253.524457,244.756793 251.814538,244.502038 250.972826,244.365489 C248.855299,244.02106 247.832201,243.050951 247.039402,242.567935 C246.505435,242.243886 245.859375,242.305027 245.859375,242.305027 L246.764266,239.207201"/>
      <path fill="#FFB27D" d="M254.003397 244.177989C254.003397 244.177989 254.435462 246.605299 254.765625 247.039402 255.097826 247.475543 255.407609 247.57337 255.407609 247.57337L255.356658 245.478261 254.003397 244.177989M254.625 242.23981L257.525136 246.16712C257.525136 246.16712 257.217391 246.350543 256.748641 246.077446 256.281929 245.804348 255.305707 244.730299 255.305707 244.730299L254.625 242.23981M247.039402 242.567935C247.039402 242.567935 247.699728 244.171875 249.018342 244.746603 250.338995 245.32337 251.307065 246.1875 251.519022 245.875679 251.730978 245.565897 250.52038 243.929348 250.52038 243.929348L247.039402 242.567935"/>
      <path fill="#FFF" d="M233.928668,230.461957 L248.922554,239.940897 C248.922554,239.940897 247.347147,242.046196 246.821332,242.23981 C244.045516,243.256793 231.560462,242.282609 227.282609,235.860734 L233.928668,230.461957"/>
      <path fill="#F9DDBF" d="M227.987772,240.762228 C228.872283,240.762228 237.672554,240.152853 237.672554,240.152853 C237.672554,240.152853 237.417799,241.711957 237.961957,242.547554 L229.38587,244.188179 L227.625,243.670516 L227.987772,240.762228"/>
      <path fill="#F99746" d="M213.309783,242.17663 L227.987772,240.762228 C227.987772,240.762228 227.472147,243.47894 229.38587,244.188179 L213.205842,245.372283 C213.205842,245.372283 211.901495,243.536005 213.309783,242.17663"/>
      <path fill="#F99746" d="M237.648098,240.346467 L227.72894,241.110734 C227.72894,241.110734 227.80231,240.768342 227.987772,240.762228 C228.173234,240.758152 237.841712,240.057065 237.841712,240.057065 L237.807065,240.328125 L237.648098,240.346467"/>
      <polyline fill="#F99746" points="229.386 244.188 238.123 242.527 238.041 242.301 228.732 244.084 229.386 244.188"/>
      <path fill="#A1C0ED" d="M131.605236,266.645321 L128.619701,318.876359 C128.592595,319.351223 128.200679,319.724185 127.726223,319.724185 L127.647351,319.724185 C127.182269,319.724185 126.808492,319.338995 126.81909,318.872283 L128.016236,266.645321 L107.295041,266.64538 C105.318546,266.64538 103.716236,265.043478 103.716236,263.066576 L103.716236,223.202446 C103.716236,216.601223 109.036957,211.249321 115.600476,211.249321 L142.47534,211.249321 C149.038859,211.249321 154.359579,216.601223 154.359579,223.202446 L154.359236,260.722321 L165.38519,260.722826 C166.846671,260.722826 168.03159,261.906929 168.03159,263.368207 L168.03159,264 C168.03159,265.461277 166.846671,266.64538 165.38519,266.64538 L165.366236,266.645321 L166.564402,318.872283 C166.574185,319.303094 166.256453,319.664442 165.841714,319.717485 L165.736141,319.724185 L165.657269,319.724185 C165.182812,319.724185 164.790897,319.351223 164.763587,318.876359 L164.763587,318.876359 L161.777236,266.645321 L131.605236,266.645321 Z"/>
      <path fill="#77A4E5" d="M106.167595,319.724185 L106.088723,319.724185 C105.623641,319.724185 105.24966,319.338995 105.260462,318.872283 L106.516508,264.118207 L110.215965,263.684103 L107.061277,318.876359 C107.033967,319.351223 106.641848,319.724185 106.167595,319.724185"/>
      <path fill="#F9DDBF" d="M144.283696,197.390625 C144.283696,197.390625 142.034307,199.304348 141.545584,204.266984 C141.174253,208.035326 143.788655,237.289402 145.755367,239.61481 C151.289674,246.154891 158.226155,243.391304 160.943274,244.383832 L163.506318,242.080842 C163.506318,242.080842 154.494293,235.430707 153.808696,233.26019 C151.16841,224.90625 152.805163,200.545516 144.283696,197.390625"/>
      <path fill="#163560" d="M142.666712,173.529212 C142.666712,173.529212 142.818954,168.164674 135.743071,167.112024 C128.667187,166.059171 126.712092,167.713655 125.509035,169.518139 C124.305978,171.322011 122.050068,178.691576 122.275679,181.624321 C122.501291,184.557065 130.571943,188.182745 130.440285,189.894701 C130.308832,191.60462 142.666712,173.529212 142.666712,173.529212"/>
      <path fill="#FFB27D" d="M175.485938,315.095788 C175.256454,316.907609 177.72962,317.441576 180.605299,317.694293 C183.483016,317.947011 182.590353,318.515625 186.513587,319.387908 C190.436821,320.262228 192.059103,319.21875 192.362772,318.686821 C192.63587,318.213995 190.826087,317.392663 188.900136,316.469429 C188.657609,316.355299 188.413043,316.235054 188.170516,316.116848 C186.004076,315.050951 184.840353,312.994565 183.189538,311.068614 C181.624321,309.242527 180.28125,303.533967 180.28125,303.533967 L174.956454,302.170516 C174.956454,302.170516 176.282813,307.3125 176.728736,309.503397 C176.991236,310.79144 176.486617,312.203804 176.044973,313.275815 C175.806726,313.858696 175.566033,314.455842 175.485938,315.095788"/>
      <path fill="#233862" d="M180.605299,317.694293 C183.483016,317.947011 182.590353,318.515625 186.513587,319.387908 C190.436821,320.262228 192.059103,319.21875 192.362772,318.686821 C192.63587,318.213995 190.826087,317.392663 188.900136,316.469429 L188.867527,316.502038 C188.867527,316.502038 186.057065,317.360054 182.883832,316.355299 C180.295516,315.538043 177.827446,313.85462 176.044973,313.275815 C175.806726,313.858696 175.566033,314.455842 175.485937,315.095788 C175.256454,316.907609 177.72962,317.441576 180.605299,317.694293"/>
      <path fill="#ED7D2B" d="M135.615285,241.175951 C135.615285,241.175951 171.216644,244.868886 177.084783,250.320652 C182.953125,255.77038 181.907609,306.54212 181.907609,306.54212 C180.994565,307.48981 180.319973,307.467391 178.877038,307.355299 C177.491576,307.245245 174.667255,306.055027 174.667255,306.055027 C174.667255,306.055027 167.042731,281.123641 166.947554,275.351902 C166.852378,269.578125 165.646671,259.783288 163.225068,259.204484 C160.803465,258.627717 131.981658,261.860054 128.821875,252.756114 C125.662092,243.652174 130.908832,236.162364 130.908832,236.162364 L135.615285,241.175951"/>
      <path fill="#F9DDBF" d="M118.98587,250.334918 C120.522147,251.362092 123.268818,252.94769 127.877446,253.112772 C136.124592,253.412364 146.415285,252.430027 148.440897,250.516304 C148.966508,250.023098 149.223709,249.203804 149.295856,248.16644 C149.519226,245.001359 148.007813,239.794158 146.992867,235.485734 C146.333967,232.6875 145.88519,230.268342 146.252853,229.033288 C147.371739,225.269022 150.847826,217.601902 151.147826,215.08288 C151.44803,212.563859 148.440897,199.061821 144.283696,197.390625 C140.124049,195.717391 124.078736,197.390625 124.078736,197.390625 C117.809918,198.662364 117.545992,212.027853 119.628057,223.404212 C119.682065,223.69769 119.736277,223.98913 119.792731,224.276495 C122.048438,235.828125 114.699864,247.463315 118.98587,250.334918"/>
      <path fill="#FFB27D" d="M139.715625,199.848505 C139.602921,200.582201 137.596264,201.77038 133.307201,200.641304 C129.197283,199.557065 128.703872,198.218071 128.704686,197.335598 C128.705707,196.288043 130.491033,194.879755 130.468003,188.441576 L130.960802,188.539402 L139.246875,190.180027 C139.246875,190.180027 139.058356,192.786685 139.052853,195.244565 C139.047147,197.307065 139.903533,198.629755 139.715625,199.848505"/>
      <path fill="#ED975D" d="M139.246875,190.180027 C139.246875,190.180027 139.058356,192.786685 139.052853,195.244565 C134.415897,195.11413 131.964946,190.883152 130.960802,188.539402 L139.246875,190.180027"/>
      <path fill="#FFB27D" d="M140.79538,192.505435 C140.79538,192.505435 129.824796,192.686821 129.817255,185.853261 C129.809715,179.019701 128.388587,174.440217 135.392731,174.036685 C142.396875,173.631114 143.760734,176.237772 144.318139,178.518342 C144.87534,180.798913 143.648845,192.283288 140.79538,192.505435"/>
      <path fill="#163560" d="M140.389402,173.869565 C140.389402,173.869565 137.385734,181.88519 132.775883,183.071332 C128.166033,184.257473 126.166508,183.022418 126.166508,183.022418 C126.166508,183.022418 129.702514,180.211957 130.436209,175.308424 C130.436209,175.308424 138.123505,170.052921 140.389402,173.869565"/>
      <path fill="#163560" d="M139.644905,174.519701 C139.644905,174.519701 141.888179,176.309103 142.434986,178.049592 C142.981997,179.790082 143.227989,183.372962 144.272079,183.250679 C144.272079,183.250679 146.535122,177.800951 143.991848,174.719429 C141.295109,171.450408 139.644905,174.519701 139.644905,174.519701"/>
      <path fill="#FFB27D" d="M148.74803,316.585598 C148.721739,318.413723 151.237704,318.658288 154.123777,318.576766 C157.009851,318.497283 156.186685,319.163723 160.181861,319.579484 C164.177038,319.995245 165.672554,318.772418 165.916508,318.20788 C166.133967,317.70856 164.244905,317.101223 162.228057,316.40625 C161.974117,316.318614 161.719769,316.22894 161.465421,316.139266 C159.193614,315.328125 157.808152,313.420516 155.953533,311.696332 C154.196739,310.063859 158.074321,302.162364 158.074321,302.162364 L152.99144,299.647418 C152.99144,299.647418 152.027446,305.286685 150.786277,310.222826 C150.465693,311.496603 149.42038,313.597826 149.101019,314.712636 C148.929212,315.319973 148.756386,315.941576 148.74803,316.585598"/>
      <path fill="#F2CCAA" d="M119.204755,248.975543 C120.741033,250.004755 123.268818,252.94769 127.877446,253.112772 C135.483832,251.382473 144.143682,249.368886 149.295856,248.16644 C149.519226,245.001359 148.007813,239.794158 146.992867,235.485734 C140.985734,237.319973 132.04606,231.071332 129.041372,228.601223 C125.88322,226.006793 125.982473,217.363451 125.982473,217.363451 L119.628057,223.404212 C119.682065,223.69769 119.736277,223.98913 119.792731,224.276495 C122.048438,235.828125 114.918954,246.10394 119.204755,248.975543"/>
      <path fill="#233862" d="M154.123777,318.576766 C157.009851,318.497283 156.186685,319.163723 160.181861,319.579484 C164.177038,319.995245 165.672554,318.772418 165.916508,318.20788 C166.133967,317.70856 164.244905,317.101223 162.228057,316.40625 L162.200136,316.440897 C162.200136,316.440897 159.502582,317.616848 156.237636,316.985054 C153.576359,316.469429 150.935666,315.08356 149.101019,314.712636 C148.929212,315.319973 148.756386,315.941576 148.74803,316.585598 C148.721739,318.413723 151.237704,318.658288 154.123777,318.576766"/>
      <path fill="#F99746" d="M127.933492,243.348505 C136.972418,243.089674 163.968954,245.245924 169.155367,249.154891 C175.538927,253.96875 157.30231,306.018342 157.30231,306.018342 C157.30231,306.018342 155.184783,306.222147 154.514063,306.146739 C151.617799,305.818614 150.438179,304.936141 150.438179,304.936141 C150.438179,304.936141 150.508696,274.30231 152.63947,268.440897 C154.608424,263.027853 155.814946,261.112092 153.348302,260.788043 C150.881454,260.463995 120.09538,264.391304 117.525815,255.097826 C115.51875,247.838315 118.484103,241.118886 118.484103,241.118886 C118.484103,241.118886 119.594837,243.584918 127.933492,243.348505"/>
      <path fill="#F9DDBF" d="M124.078736,197.390625 C124.078736,197.390625 117.799932,197.922554 117.311209,202.88519 C116.940285,206.653533 114.209103,233.382473 116.175815,235.70788 C121.710122,242.247962 140.164198,243.63587 142.881318,244.628397 L143.628668,241.534647 C143.628668,241.534647 123.928329,231.609375 124.22894,229.353261 C124.529755,227.097147 130.100543,196.497962 124.078736,197.390625"/>
      <path fill="#163560" d="M128.926223,169.809375 C128.926223,169.809375 129.37663,166.946739 125.406318,166.207948 C121.436209,165.469158 121.361821,173.902174 120.936481,175.936141 C120.511141,177.968071 121.571535,179.186821 123.085598,179.309103 C124.599864,179.433424 128.926223,169.809375 128.926223,169.809375"/>
      <path fill="#FFB27D" d="M143.842663,241.398098 C143.842663,241.398098 149.453193,239.810462 150.789742,240.181386 C152.126291,240.55231 156.704959,243.584918 156.061141,244.408288 C155.417527,245.231658 151.383832,243.915082 149.527582,244.165761 C147.671332,244.414402 146.235937,245.329484 144.899592,245.131793 C143.563247,244.934103 142.165761,244.408288 142.165761,244.408288 L143.842663,241.398098"/>
      <path fill="#FFB27D" d="M143.842663 241.398098C143.842663 241.398098 146.587704 239.987772 147.368478 239.184783 147.46712 239.084918 147.633832 239.105299 147.709443 239.225543 147.91875 239.555707 148.114606 240.191576 147.15163 240.825408 145.765761 241.738451 143.842663 241.398098 143.842663 241.398098M163.506318 242.080842C163.506318 242.080842 169.328397 242.400815 170.472147 243.185462 171.615693 243.970109 174.962976 248.32337 174.086821 248.894022 173.210666 249.464674 169.822418 246.908967 167.985938 246.54212 166.149253 246.17731 164.494361 246.576766 163.294565 245.955163 162.094565 245.335598 160.943274 244.383832 160.943274 244.383832L163.506318 242.080842"/>
      <path fill="#1B3051" d="M123.509715,320.203125 L99.8203125,320.203125 C98.6810462,318.811141 99.1006793,313.681386 99.2733016,312.006114 C99.3087636,311.667799 99.3332201,311.472147 99.3332201,311.472147 C99.3332201,311.472147 107.422622,305.001359 108.533764,309.955842 C108.567595,310.112772 108.608764,310.263587 108.653804,310.412364 C110.053533,315.046875 116.332745,317.154212 119.958832,317.73913 C122.316033,318.122283 123.1875,319.347147 123.509715,320.203125"/>
      <path fill="#233862" d="M58.8703125,243.228261 C59.7254755,243.228261 99.4487772,250.685462 106.019429,258.819293 C109.301698,262.883152 109.78981,309.807065 109.78981,309.807065 C109.78981,309.807065 105.728601,314.843071 96.958288,311.918478 C96.958288,311.918478 90.5278533,279.813179 91.0029212,270.075408 C91.1341712,267.383152 63.8618886,269.686141 58.8703125,268.394022 C53.8785326,267.101902 41.6824728,256.243207 44.369837,250.954484 C47.0572011,245.663723 58.8703125,243.228261 58.8703125,243.228261"/>
      <path fill="#FFB27D" d="M87.6326087,241.023098 C87.6326087,241.023098 90.1748641,243.216033 92.7819293,243.835598 C94.2686821,244.190217 95.7091712,244.59375 96.5657609,244.987092 C98.9247962,246.069293 103.399321,250.901495 102.982948,251.382473 C101.648845,252.923234 96.2749321,248.910326 95.2467391,249.193614 C94.2185462,249.476902 96.9332201,251.808424 95.8563179,252.442255 C95.2938179,252.774457 94.2342391,250.758832 93.2429348,250.475543 C91.9016984,250.092391 91.011481,248.066576 90.6101902,247.927989 C89.8281929,247.658967 86.5642663,244.732337 86.5642663,244.732337 L87.6326087,241.023098"/>
      <path fill="#1E3C68" d="M133.979348,320.203125 L110.289946,320.203125 C109.150679,318.811141 109.570516,313.681386 109.742935,312.006114 C109.778397,311.667799 109.802853,311.472147 109.802853,311.472147 C109.802853,311.472147 117.892255,305.001359 119.003397,309.955842 C119.037228,310.112772 119.078397,310.263587 119.123437,310.412364 C120.523166,315.046875 126.802378,317.154212 130.428261,317.73913 C132.785666,318.122283 133.657133,319.347147 133.979348,320.203125"/>
      <path fill="#2B478B" d="M70.576019,243.228261 C71.4311821,243.228261 111.154484,250.685462 117.725136,258.819293 C121.007609,262.883152 121.495516,309.807065 121.495516,309.807065 C121.495516,309.807065 117.434511,314.843071 108.664198,311.918478 C108.664198,311.918478 102.233764,279.813179 102.708628,270.075408 C102.839878,267.383152 75.5675951,269.686141 70.576019,268.394022 C65.5842391,267.101902 53.3881793,256.243207 56.0755435,250.954484 C58.7629076,245.663723 70.576019,243.228261 70.576019,243.228261"/>
      <path fill="#FFB27D" d="M68.0900136,194.955163 C65.232269,194.71875 62.2361413,193.956522 59.6466033,193.116848 C56.4095788,192.067255 53.8004755,190.530571 55.4818614,187.57337 C57.0313859,184.846467 59.5394022,178.754755 59.369837,173.70856 L65.3932745,178.563179 L69.4848505,181.858696 C69.4848505,181.858696 69.4681386,183.802989 69.0209918,187.210598 C68.9390625,187.830163 68.8434783,188.500679 68.7305707,189.218071 C68.6396739,189.796875 68.9056386,190.373641 69.4033288,190.683424 C69.4343071,190.701766 69.4650815,190.720109 69.495856,190.740489 C71.529212,192.018342 70.483288,195.152853 68.0900136,194.955163"/>
      <path fill="#ED975D" d="M69.4848505,181.057745 C69.4848505,181.057745 69.6941576,181.762908 69.3346467,184.369565 C65.6869565,183.774457 62.2769022,180.86413 62.2769022,180.86413 C64.1339674,180.35462 64.8097826,178.347147 66.1930027,178.534647 L69.4848505,181.057745"/>
      <path fill="#FFB27D" d="M72.8590353,181.650815 C72.8590353,181.650815 58.8277174,183.982337 57.5105299,175.222826 C56.1933424,166.461889 53.4951766,160.862772 62.3981658,159.004076 C71.3011549,157.14538 73.5485054,160.225883 74.6991848,163.043071 C75.8500679,165.860054 76.4749321,180.819293 72.8590353,181.650815"/>
      <path fill="#2B478B" d="M76.7627038,159.166304 C77.3655571,161.275679 75.7528533,163.845245 73.0459239,164.691033 C69.0279212,165.946875 69.9156929,170.875679 68.1075408,170.808628 C66.2993886,170.741576 65.5699728,167.975543 63.9550272,170.185598 C62.5773098,172.069973 65.1016304,174.305707 64.9279891,175.338995 C64.6298234,177.11413 61.8497283,180.745924 59.3445652,180.5625 C56.8394022,180.381114 52.1516984,168.474864 53.0891984,164.791712 C54.0266984,161.108356 57.777106,157.224049 61.3263587,156.688247 C64.8758152,156.152649 69.8048234,157.685054 70.9432745,157.685054 C72.0819293,157.685054 76.4372283,158.026834 76.7627038,159.166304"/>
      <path fill="#FFF" d="M80.2428668,240.601223 C80.008288,242.622962 79.5825408,243.998641 78.9136549,244.444973 C76.8218071,245.847147 74.0480299,247.587636 70.9528533,249.313859 C59.9771739,255.434103 44.9504755,261.340353 41.8944293,250.997283 C38.3038043,238.848505 40.6628397,216.036685 44.1837636,201.868207 C46.210394,193.705842 51.816644,185.139946 55.6067935,185.148092 C62.064538,185.160326 71.3482337,186.86413 75.0972147,196.110734 C76.5480978,199.693614 78.6811141,212.107337 79.7694293,223.477582 C80.41875,230.252038 80.6969429,236.655571 80.2428668,240.601223"/>
      <path fill="#DFEBFD" d="M54.9558424 185.227582L56.4181386 181.932065C56.4181386 181.932065 69.382337 183.252717 71.5819973 190.701766 71.5819973 190.701766 61.5607337 185.386549 54.9558424 185.227582M80.2428668 240.601223C80.008288 242.622962 79.5825408 243.998641 78.9136549 244.444973 76.8218071 245.847147 74.0480299 247.587636 70.9528533 249.313859 67.722962 247.349185 61.0913723 242.663723 59.540625 237.142663 57.5139946 229.921875 58.9345109 221.038043 58.9345109 221.038043L80.2428668 240.601223"/>
      <path fill="#FFF" d="M57.5857337,196.336957 C57.5857337,196.336957 58.7101223,227.366168 60.4746603,233.500679 C63.4836277,243.963995 90.9269022,247.689538 90.9269022,247.689538 C90.9269022,247.689538 92.5459239,245.855299 91.8220109,242.8125 C91.8220109,242.8125 75.4153533,229.881114 74.9355978,227.419158 C74.4556386,224.957201 78.5103261,208.273777 73.8764266,202.20856 C69.242731,196.141304 60.6990489,190.88519 57.5857337,196.336957"/>
      <path fill="#A1C0ED" d="M58.9326766,220.930027 L67.0850522,262.193597 L93.8618886,262.194293 C95.1498668,262.194293 96.2130173,263.204798 96.2960086,264.473901 L96.3012228,264.633832 L96.3012228,267.63587 C96.3012228,268.97894 95.2035326,270.075408 93.8618886,270.075408 L93.8618886,270.075408 L92.6680522,270.074597 L97.5269022,318.593071 C97.5925032,319.247163 97.0906903,319.820015 96.415322,319.89704 L96.2867527,319.905571 L96.1962636,319.907778 C95.7831522,319.915761 95.4293478,319.628397 95.3741168,319.241168 L95.3741168,319.241168 L88.3420522,270.074597 L56.4090522,270.074597 L49.3787364,319.241168 C49.3233016,319.628397 48.9697011,319.915761 48.5563859,319.907778 L48.4658967,319.905571 C47.7269022,319.891304 47.1560462,319.288043 47.2257473,318.593071 L52.0830522,270.074597 L31.0330522,270.074597 L24.0024457,319.241168 C23.9470109,319.628397 23.5934103,319.915761 23.1798913,319.907778 L23.089606,319.905571 C22.3506114,319.891304 21.7799592,319.288043 21.8494565,318.593071 L26.7070522,270.074597 L26.542663,270.075408 C25.550427,270.075408 24.7299227,269.302707 24.6540294,268.329481 L24.6483016,268.182065 L24.6480522,262.388597 L24.5733016,262.381793 L19.8939538,221.256114 C19.2805027,215.331522 21.2637228,209.527174 29.8155571,209.078804 L44.8605978,208.161685 C53.7778533,207.794837 57.8038043,215.215353 58.9326766,220.930027 Z"/>
      <path fill="#0A77C1" d="M598.842391,322.02106 L4.44782609,322.02106 C3.98620924,322.02106 3.60855978,321.644022 3.60855978,321.183424 L3.60855978,320.419158 C3.60855978,319.956522 3.98620924,319.579484 4.44782609,319.579484 L598.842391,319.579484 C599.305027,319.579484 599.682065,319.956522 599.682065,320.419158 L599.682065,321.183424 C599.682065,321.644022 599.305027,322.02106 598.842391,322.02106"/>
    </g>
  </g>
</svg>
