<svg width="2560" height="720" viewBox="0 0 2560 720" fill="none" xmlns="http://www.w3.org/2000/svg">
<g clip-path="url(#clip0_1219_840)">
<rect width="2560" height="720" fill="#E5E8EE"/>
<rect x="1646" width="914" height="720" fill="url(#paint0_linear_1219_840)"/>
<path d="M1039.95 0H1495.5H2244V722H1467L962.824 176.25C900.698 109.001 948.395 0 1039.95 0Z" fill="url(#paint1_linear_1219_840)"/>
<path d="M1672.5 314L946 720.5H1781V314H1672.5Z" fill="#E5E8EE"/>
<g filter="url(#filter0_f_1219_840)">
<ellipse cx="469.5" cy="82" rx="382.5" ry="260" fill="#ECEEF3"/>
</g>
<path d="M777.832 467.577L344 0.5H1.5V722.5H775L797.743 686.81C841.773 617.717 833.589 527.607 777.832 467.577Z" fill="url(#paint2_linear_1219_840)"/>
<path opacity="0.9" d="M1279.95 0H1735.5H2484V722H1707L1202.82 176.25C1140.7 109.001 1188.4 0 1279.95 0Z" fill="url(#paint3_linear_1219_840)"/>
<g filter="url(#filter1_f_1219_840)">
<ellipse cx="2024.5" cy="417" rx="382.5" ry="260" fill="#ECEEF3"/>
</g>
<path d="M1914.8 -2H2217.5H2560V720H2189L1785.48 303.203C1674.91 188.995 1755.84 -2 1914.8 -2Z" fill="url(#paint4_linear_1219_840)"/>
</g>
<defs>
<filter id="filter0_f_1219_840" x="-163" y="-428" width="1265" height="1020" filterUnits="userSpaceOnUse" color-interpolation-filters="sRGB">
<feFlood flood-opacity="0" result="BackgroundImageFix"/>
<feBlend mode="normal" in="SourceGraphic" in2="BackgroundImageFix" result="shape"/>
<feGaussianBlur stdDeviation="125" result="effect1_foregroundBlur_1219_840"/>
</filter>
<filter id="filter1_f_1219_840" x="1392" y="-93" width="1265" height="1020" filterUnits="userSpaceOnUse" color-interpolation-filters="sRGB">
<feFlood flood-opacity="0" result="BackgroundImageFix"/>
<feBlend mode="normal" in="SourceGraphic" in2="BackgroundImageFix" result="shape"/>
<feGaussianBlur stdDeviation="125" result="effect1_foregroundBlur_1219_840"/>
</filter>
<linearGradient id="paint0_linear_1219_840" x1="2103" y1="-1.70624e-05" x2="2554" y2="720" gradientUnits="userSpaceOnUse">
<stop stop-color="#F0F2F5"/>
<stop offset="0.484953" stop-color="#F4F6F8"/>
<stop offset="1" stop-color="#F4F6F8"/>
</linearGradient>
<linearGradient id="paint1_linear_1219_840" x1="941" y1="31.5" x2="1962" y2="722" gradientUnits="userSpaceOnUse">
<stop stop-color="#E9EBF1"/>
<stop offset="0.426221" stop-color="#EDEEF5" stop-opacity="0.6"/>
<stop offset="1" stop-color="#EBECF2"/>
</linearGradient>
<linearGradient id="paint2_linear_1219_840" x1="873" y1="507" x2="113.512" y2="57.0945" gradientUnits="userSpaceOnUse">
<stop stop-color="#ECEEF3"/>
<stop offset="0.400897" stop-color="#EBEDF2"/>
<stop offset="1" stop-color="#E6E9EF"/>
</linearGradient>
<linearGradient id="paint3_linear_1219_840" x1="1181" y1="31.5" x2="2223" y2="734.5" gradientUnits="userSpaceOnUse">
<stop stop-color="#F4F6F8"/>
<stop offset="0.56732" stop-color="#EEF0F4"/>
<stop offset="1" stop-color="#EBECF2"/>
</linearGradient>
<linearGradient id="paint4_linear_1219_840" x1="1830.5" y1="99.5" x2="2560" y2="732.5" gradientUnits="userSpaceOnUse">
<stop stop-color="#E8EAF0" stop-opacity="0.56"/>
<stop offset="0.401942" stop-color="#F2F4F7"/>
<stop offset="1" stop-color="#F5F7F9"/>
</linearGradient>
<clipPath id="clip0_1219_840">
<rect width="2560" height="720" fill="white"/>
</clipPath>
</defs>
</svg>
