<?xml version="1.0" encoding="UTF-8"?>
<svg width="58px" height="58px" viewBox="0 0 58 58" version="1.1" xmlns="http://www.w3.org/2000/svg" xmlns:xlink="http://www.w3.org/1999/xlink">
    <title>interview</title>
    <g id="产品" stroke="none" stroke-width="1" fill="none" fill-rule="evenodd" stroke-linecap="square">
        <g id="基础服务-CDN/OEM✅" transform="translate(-781.000000, -1897.000000)" stroke-width="2">
            <g id="客户按钮" transform="translate(0.000000, 1718.000000)">
                <g id="编组-20" transform="translate(472.000000, 148.000000)">
                    <g id="编组-6" transform="translate(278.000000, 0.000000)">
                        <g id="interview" transform="translate(32.000000, 32.000000)">
                            <path d="M35.071,12.929 C31.1657726,9.0238475 24.8342274,9.0238475 20.929,12.929" id="路径" stroke="#00AAE7"></path>
                            <path d="M42.142,5.858 C34.3315452,-1.95230501 21.6684548,-1.95230501 13.858,5.858" id="路径" stroke="#00AAE7"></path>
                            <path d="M0,12 C8.836556,12 16,19.163444 16,28 L16,30 L20,39 L16,41 L16,44 C16,47.3137085 13.3137085,50 10,50 L4,50 L4,56" id="路径" stroke="#333333"></path>
                            <path d="M56,12 C47.163444,12 40,19.163444 40,28 L40,30 L36,39 L40,41 L40,44 C40,47.3137085 42.6862915,50 46,50 L52,50 L52,56" id="路径" stroke="#333333"></path>
                            <circle id="椭圆形" stroke="#00AAE7" cx="28" cy="21" r="1"></circle>
                        </g>
                    </g>
                </g>
            </g>
        </g>
    </g>
</svg>