<?xml version="1.0" encoding="UTF-8"?>
<svg width="56px" height="60px" viewBox="0 0 56 60" version="1.1" xmlns="http://www.w3.org/2000/svg" xmlns:xlink="http://www.w3.org/1999/xlink">
    <title>replace</title>
    <g id="产品" stroke="none" stroke-width="1" fill="none" fill-rule="evenodd">
        <g id="基础服务-CDN/OEM✅" transform="translate(-1060.000000, -1896.000000)" stroke-width="2">
            <g id="客户按钮" transform="translate(0.000000, 1718.000000)">
                <g id="编组-20" transform="translate(472.000000, 148.000000)">
                    <g id="编组-7" transform="translate(556.000000, 0.000000)">
                        <g id="replace" transform="translate(33.000000, 32.000000)">
                            <rect id="矩形" stroke="#333333" stroke-linecap="square" x="23" y="20" width="31" height="35"></rect>
                            <polyline id="路径" stroke="#333333" stroke-linecap="square" points="17 36 0 36 0 1 31 1 31 14"></polyline>
                            <path d="M38,6 L46,6 C49.3137085,6 52,8.6862915 52,12 L52,14" id="路径" stroke="#00AAE7"></path>
                            <polyline id="路径" stroke="#00AAE7" stroke-linecap="square" points="44 0 38 6 44 12"></polyline>
                            <path d="M16,50 L8,50 C4.6862915,50 2,47.3137085 2,44 L2,42" id="路径" stroke="#00AAE7"></path>
                            <polyline id="路径" stroke="#00AAE7" stroke-linecap="square" points="10 56 16 50 10 44"></polyline>
                        </g>
                    </g>
                </g>
            </g>
        </g>
    </g>
</svg>