<?xml version="1.0" encoding="UTF-8"?>
<svg width="62px" height="53px" viewBox="0 0 62 53" version="1.1" xmlns="http://www.w3.org/2000/svg" xmlns:xlink="http://www.w3.org/1999/xlink">
    <title>cloud-refresh</title>
    <g id="产品" stroke="none" stroke-width="1" fill="none" fill-rule="evenodd">
        <g id="基础服务-CDN/OEM✅" transform="translate(-1335.000000, -1900.000000)" stroke-width="2">
            <g id="客户按钮" transform="translate(0.000000, 1718.000000)">
                <g id="编组-20" transform="translate(472.000000, 148.000000)">
                    <g id="编组-18" transform="translate(834.000000, 0.000000)">
                        <g id="cloud-refresh" transform="translate(30.000000, 35.000000)">
                            <path d="M45,46.255 C55.8438279,41.8697655 61.94694,30.3058707 59.4483774,18.878882 C56.9498148,7.45189327 46.5773989,-0.509553071 34.8929411,0.0311236303 C23.2084833,0.571800331 13.6156195,9.4571031 12.183,21.066 C4.76923364,21.7901715 -0.654606315,28.3859835 0.067,35.8 C0.723,42.526 6,48 13,48 L15,48" id="路径" stroke="#333333" stroke-linecap="square"></path>
                            <path d="M20.2,37.9999998 C21.1505372,33.3433375 25.2473138,29.99903 30,29.9999998 C33.9342939,30.005902 37.4813621,32.3706141 39,35.9999998" id="路径" stroke="#00AAE7"></path>
                            <path d="M39.8,42 C38.8494628,46.6566625 34.7526862,50.00097 30,50 C26.0657061,49.994098 22.5186379,47.6293859 21,44" id="路径" stroke="#00AAE7"></path>
                            <polyline id="路径" stroke="#00AAE7" stroke-linecap="square" points="39 29 39 36 32 36"></polyline>
                            <polyline id="路径" stroke="#00AAE7" stroke-linecap="square" points="21 51 21 44 28 44"></polyline>
                        </g>
                    </g>
                </g>
            </g>
        </g>
    </g>
</svg>