<?xml version="1.0" encoding="UTF-8"?>
<svg width="136px" height="136px" viewBox="0 0 136 136" version="1.1" xmlns="http://www.w3.org/2000/svg" xmlns:xlink="http://www.w3.org/1999/xlink">
    <defs>
        <circle id="path-1" cx="60" cy="60" r="60"></circle>
        <filter x="-11.7%" y="-8.3%" width="123.3%" height="123.3%" filterUnits="objectBoundingBox" id="filter-2">
            <feOffset dx="0" dy="4" in="SourceAlpha" result="shadowOffsetOuter1"></feOffset>
            <feGaussianBlur stdDeviation="4" in="shadowOffsetOuter1" result="shadowBlurOuter1"></feGaussianBlur>
            <feComposite in="shadowBlurOuter1" in2="SourceAlpha" operator="out" result="shadowBlurOuter1"></feComposite>
            <feColorMatrix values="0 0 0 0 0.2   0 0 0 0 0.2   0 0 0 0 0.2  0 0 0 0.08 0" type="matrix" in="shadowBlurOuter1"></feColorMatrix>
        </filter>
    </defs>
    <g id="产品" stroke="none" stroke-width="1" fill="none" fill-rule="evenodd">
        <g id="切图" transform="translate(-37.000000, -104.000000)">
            <g id="编组-9" transform="translate(45.000000, 108.000000)">
                <g id="椭圆形">
                    <use fill="black" fill-opacity="1" filter="url(#filter-2)" xlink:href="#path-1"></use>
                    <circle stroke="#EEEEEE" stroke-width="1" stroke-linejoin="square" fill="#FFFFFF" fill-rule="evenodd" cx="60" cy="60" r="59.5"></circle>
                </g>
                <g id="chat-33" transform="translate(30.000000, 32.000000)" stroke-linecap="square" stroke-width="2">
                    <path d="M25.001,47.911 C28.711,50.453 33.615,52 39,52 C41.403,52 43.702,51.677 45.852,51.111 L54,56 L54,47.187 C57.708,44.302 60,40.356 60,36 C60,33.876 59.455,31.851 58.468,29.999" id="路径" stroke="#00AAE7"></path>
                    <path d="M27,0 C12.088,0 0,9.402 0,21 C0,25.997 2.253,30.58 6,34.186 L6,48 L19.626,41.187 C21.973,41.705 24.44,42 27,42 C41.912,42 54,32.598 54,21 C54,9.402 41.912,0 27,0 Z" id="路径" stroke="#333333"></path>
                </g>
            </g>
        </g>
    </g>
</svg>