<?xml version="1.0" encoding="UTF-8"?>
<svg width="120px" height="57px" viewBox="0 0 63 57" version="1.1" xmlns="http://www.w3.org/2000/svg" xmlns:xlink="http://www.w3.org/1999/xlink">
    <g id="产品" stroke="none" stroke-width="1" fill="none" fill-rule="evenodd">
        <g id="基础服务-CDN/OEM✅" transform="translate(-425.000000, -744.000000)" stroke-width="2">
            <g id="产品介绍-2" transform="translate(0.000000, 548.000000)">
                <g id="编组-44" transform="translate(372.000000, 142.000000)">
                    <g id="编组-5">
                        <g id="编组-19" transform="translate(24.000000, 22.000000)">
                            <g id="web-design" transform="translate(30.000000, 33.000000)">
                                <line x1="0" y1="17" x2="38.012" y2="17" id="路径" stroke="#333333"></line>
                                <polyline id="路径" stroke="#333333" points="60 14 60 55 0 55 0 3 52.033 3"></polyline>
                                <line x1="8" y1="10" x2="12" y2="10" id="路径" stroke="#00AAE7" stroke-linecap="square"></line>
                                <line x1="18" y1="10" x2="22" y2="10" id="路径" stroke="#00AAE7" stroke-linecap="square"></line>
                                <path d="M29.848,25.152 L54,1.036 C55.381,-0.345 57.619,-0.345 59,1.036 L59,1.036 C60.381,2.417 60.381,4.655 59,6.036 L34.849,30.151" id="路径" stroke="#00AAE7"></path>
                                <path d="M33.08,26.92 C31.842,25.682 30.197,25 28.446,25 C26.695,25 25.049,25.682 23.812,26.92 C21.351,29.38 21,39 21,39 C21,39 30.62,38.649 33.08,36.189 C34.318,34.951 35,33.305 35,31.555 C35,29.805 34.318,28.158 33.08,26.92 Z" id="路径" stroke="#00AAE7" stroke-linecap="square"></path>
                                <line x1="8" y1="47" x2="52" y2="47" id="路径" stroke="#00AAE7" stroke-linecap="square"></line>
                            </g>
                        </g>
                    </g>
                </g>
            </g>
        </g>
    </g>
</svg>