<?xml version="1.0" encoding="UTF-8"?>
<svg width="120px" height="60px" viewBox="0 0 60 60" version="1.1" xmlns="http://www.w3.org/2000/svg" xmlns:xlink="http://www.w3.org/1999/xlink">
    <g id="产品" stroke="none" stroke-width="1" fill="none" fill-rule="evenodd">
        <g id="基础服务-CDN/OEM✅" transform="translate(-426.000000, -930.000000)">
            <g id="产品介绍-2" transform="translate(0.000000, 548.000000)">
                <g id="编组-44" transform="translate(372.000000, 142.000000)">
                    <g id="编组-5" transform="translate(0.000000, 188.000000)">
                        <g id="编组-46" transform="translate(24.000000, 22.000000)">
                            <g id="ai" transform="translate(31.000000, 31.000000)">
                                <line x1="19" y1="6" x2="19" y2="0" id="路径" stroke="#00AAE7" stroke-width="2" stroke-linecap="square"></line>
                                <line x1="39" y1="6" x2="39" y2="0" id="路径" stroke="#00AAE7" stroke-width="2" stroke-linecap="square"></line>
                                <line x1="29" y1="6" x2="29" y2="0" id="路径" stroke="#00AAE7" stroke-width="2" stroke-linecap="square"></line>
                                <line x1="6" y1="39" x2="0" y2="39" id="路径" stroke="#00AAE7" stroke-width="2" stroke-linecap="square"></line>
                                <line x1="6" y1="19" x2="0" y2="19" id="路径" stroke="#00AAE7" stroke-width="2" stroke-linecap="square"></line>
                                <line x1="6" y1="29" x2="0" y2="29" id="路径" stroke="#00AAE7" stroke-width="2" stroke-linecap="square"></line>
                                <line x1="58" y1="39" x2="52" y2="39" id="路径" stroke="#00AAE7" stroke-width="2" stroke-linecap="square"></line>
                                <line x1="58" y1="19" x2="52" y2="19" id="路径" stroke="#00AAE7" stroke-width="2" stroke-linecap="square"></line>
                                <line x1="58" y1="29" x2="52" y2="29" id="路径" stroke="#00AAE7" stroke-width="2" stroke-linecap="square"></line>
                                <line x1="19" y1="58" x2="19" y2="52" id="路径" stroke="#00AAE7" stroke-width="2" stroke-linecap="square"></line>
                                <line x1="39" y1="58" x2="39" y2="52" id="路径" stroke="#00AAE7" stroke-width="2" stroke-linecap="square"></line>
                                <line x1="29" y1="58" x2="29" y2="52" id="路径" stroke="#00AAE7" stroke-width="2" stroke-linecap="square"></line>
                                <rect id="矩形" stroke="#333333" stroke-width="2" stroke-linecap="square" x="6" y="6" width="46" height="46" rx="5"></rect>
                                <rect id="矩形" stroke="#333333" stroke-width="2" stroke-linecap="square" x="13" y="13" width="32" height="32"></rect>
                                <path d="M30.023,37 L28.312,32.242 L21.762,32.242 L20.086,37 L17.133,37 L23.543,19.8 L26.59,19.8 L33,37 L30.023,37 Z M27.574,29.828 L25.969,25.164 C25.8523333,24.852 25.69,24.36 25.482,23.688 C25.274,23.016 25.1316667,22.5236667 25.055,22.211 C24.8123603,23.2799476 24.5030897,24.33267 24.129,25.363 L22.582,29.828 L27.574,29.828 Z" id="形状" fill="#00AAE7" fill-rule="nonzero"></path>
                                <polygon id="路径" fill="#00AAE7" fill-rule="nonzero" points="36.2 37 36.2 19.867 39 19.867 39 37"></polygon>
                            </g>
                        </g>
                    </g>
                </g>
            </g>
        </g>
    </g>
</svg>