<svg xmlns="http://www.w3.org/2000/svg" width="62" height="56" viewBox="0 0 62 56">
  <g fill="none" fill-rule="evenodd" stroke-linecap="square" stroke-width="2" transform="translate(1 1)">
    <path stroke="#00AAE7" d="M37.071 12.929C33.1657726 9.0238475 26.8342274 9.0238475 22.929 12.929M44.142 5.858C36.3315452-1.95230501 23.6684548-1.95230501 15.858 5.858"/>
    <polygon stroke="#333" points="25 27 25 41 37 34"/>
    <path stroke="#333" d="M46,14 L55,14 C57.7614237,14 60,16.2385763 60,19 L60,49 C60,51.7614237 57.7614237,54 55,54 L5,54 C2.23857625,54 0,51.7614237 0,49 L0,19 C0,16.2385763 2.23857625,14 5,14 L14,14"/>
  </g>
</svg>
