<svg xmlns="http://www.w3.org/2000/svg" width="120" height="120" viewBox="0 0 120 120">
  <g fill="none" fill-rule="evenodd" stroke-linecap="square" stroke-width="2" transform="translate(30 40)">
    <path stroke="#333" d="M5,0 L55,0 C57.7614237,0 60,2.23857625 60,5 L60,30 L0,30 L0,5 C0,2.23857625 2.23857625,0 5,0 Z"/>
    <polyline stroke="#00AAE7" points="54 35 54 40 6 40 6 35"/>
    <line x1="30" x2="30" y1="40" y2="36" stroke="#00AAE7"/>
    <line x1="24" x2="24" y1="40" y2="36" stroke="#00AAE7"/>
    <line x1="18" x2="18" y1="40" y2="36" stroke="#00AAE7"/>
    <line x1="12" x2="12" y1="40" y2="36" stroke="#00AAE7"/>
    <line x1="36" x2="36" y1="40" y2="36" stroke="#00AAE7"/>
    <line x1="42" x2="42" y1="40" y2="36" stroke="#00AAE7"/>
    <line x1="48" x2="48" y1="40" y2="36" stroke="#00AAE7"/>
    <rect width="8" height="16" x="26" y="7" stroke="#333"/>
    <rect width="8" height="16" x="10" y="7" stroke="#333"/>
    <rect width="8" height="16" x="42" y="7" stroke="#333"/>
  </g>
</svg>
