<?xml version="1.0" encoding="UTF-8"?>
<svg width="120px" height="120px" viewBox="0 0 120 120" version="1.1" xmlns="http://www.w3.org/2000/svg" xmlns:xlink="http://www.w3.org/1999/xlink">
    <!-- Generator: Sketch 64 (93537) - https://sketch.com -->
    <title>价值icon_04</title>
    <desc>Created with Sketch.</desc>
    <g id="首页" stroke="none" stroke-width="1" fill="none" fill-rule="evenodd" stroke-linecap="square">
        <g id="切图" transform="translate(-780.000000, -76.000000)" stroke-width="2">
            <g id="编组-2" transform="translate(384.000000, 76.000000)">
                <g id="编组-48" transform="translate(396.000000, 0.000000)">
                    <g id="api" transform="translate(30.000000, 30.000000)">
                        <line x1="30" y1="52" x2="30" y2="44" id="路径" stroke="#00AAE7"></line>
                        <polyline id="路径" stroke="#00AAE7" points="48 31 48 35 53.172 40.172"></polyline>
                        <circle id="椭圆形" stroke="#00AAE7" cx="56" cy="43" r="4"></circle>
                        <polyline id="路径" stroke="#00AAE7" points="12 31 12 35 6.828 40.172"></polyline>
                        <circle id="椭圆形" stroke="#00AAE7" cx="4" cy="43" r="4"></circle>
                        <polyline id="路径" stroke="#00AAE7" points="15 50 15 46 19 42 19 40"></polyline>
                        <circle id="椭圆形" stroke="#00AAE7" cx="15" cy="54" r="4"></circle>
                        <polyline id="路径" stroke="#00AAE7" points="45 50 45 46 41 42 41 40"></polyline>
                        <circle id="椭圆形" stroke="#00AAE7" cx="45" cy="54" r="4"></circle>
                        <circle id="椭圆形" stroke="#00AAE7" cx="30" cy="56" r="4"></circle>
                        <circle id="椭圆形" stroke="#333333" cx="30" cy="30" r="8"></circle>
                        <path d="M60,32 L60,26 L51.388,24.924 C50.8475172,22.6428773 49.9432789,20.4636563 48.71,18.47 L54.042,11.616 L48.384,5.958 L41.53,11.29 C39.5363437,10.0567211 37.3571227,9.1524828 35.076,8.612 L34,0 L26,0 L24.924,8.612 C22.6428773,9.1524828 20.4636563,10.0567211 18.47,11.29 L11.616,5.958 L5.958,11.616 L11.29,18.47 C10.0567211,20.4636563 9.1524828,22.6428773 8.612,24.924 L0,26 L0,32" id="路径" stroke="#333333"></path>
                    </g>
                </g>
            </g>
        </g>
    </g>
</svg>