<svg xmlns="http://www.w3.org/2000/svg" width="120" height="120" viewBox="0 0 120 120">
  <g fill="none" fill-rule="evenodd" transform="translate(31 31)">
    <line x1="19" x2="19" y1="6" stroke="#00AAE7" stroke-linecap="square" stroke-width="2"/>
    <line x1="39" x2="39" y1="6" stroke="#00AAE7" stroke-linecap="square" stroke-width="2"/>
    <line x1="29" x2="29" y1="6" stroke="#00AAE7" stroke-linecap="square" stroke-width="2"/>
    <line x1="6" y1="39" y2="39" stroke="#00AAE7" stroke-linecap="square" stroke-width="2"/>
    <line x1="6" y1="19" y2="19" stroke="#00AAE7" stroke-linecap="square" stroke-width="2"/>
    <line x1="6" y1="29" y2="29" stroke="#00AAE7" stroke-linecap="square" stroke-width="2"/>
    <line x1="58" x2="52" y1="39" y2="39" stroke="#00AAE7" stroke-linecap="square" stroke-width="2"/>
    <line x1="58" x2="52" y1="19" y2="19" stroke="#00AAE7" stroke-linecap="square" stroke-width="2"/>
    <line x1="58" x2="52" y1="29" y2="29" stroke="#00AAE7" stroke-linecap="square" stroke-width="2"/>
    <line x1="19" x2="19" y1="58" y2="52" stroke="#00AAE7" stroke-linecap="square" stroke-width="2"/>
    <line x1="39" x2="39" y1="58" y2="52" stroke="#00AAE7" stroke-linecap="square" stroke-width="2"/>
    <line x1="29" x2="29" y1="58" y2="52" stroke="#00AAE7" stroke-linecap="square" stroke-width="2"/>
    <rect width="46" height="46" x="6" y="6" stroke="#333" stroke-linecap="square" stroke-width="2" rx="5"/>
    <rect width="32" height="32" x="13" y="13" stroke="#333" stroke-linecap="square" stroke-width="2"/>
    <path fill="#00AAE7" fill-rule="nonzero" d="M30.023,37 L28.312,32.242 L21.762,32.242 L20.086,37 L17.133,37 L23.543,19.8 L26.59,19.8 L33,37 L30.023,37 Z M27.574,29.828 L25.969,25.164 C25.8523333,24.852 25.69,24.36 25.482,23.688 C25.274,23.016 25.1316667,22.5236667 25.055,22.211 C24.8123603,23.2799476 24.5030897,24.33267 24.129,25.363 L22.582,29.828 L27.574,29.828 Z"/>
    <polygon fill="#00AAE7" fill-rule="nonzero" points="36.2 37 36.2 19.867 39 19.867 39 37"/>
  </g>
</svg>
