<svg width="62" height="62" viewBox="0 0 62 62" fill="none" xmlns="http://www.w3.org/2000/svg">
<path d="M31.6719 11.0039L50.9969 30.3289" stroke="#00AAE7" stroke-width="2" stroke-miterlimit="10"/>
<path d="M2 59.9991L11.003 50.9961" stroke="#333333" stroke-width="2" stroke-miterlimit="10" stroke-linecap="square"/>
<path d="M27.0332 27L21.0332 33" stroke="#333333" stroke-width="2" stroke-miterlimit="10" stroke-linecap="square"/>
<path d="M35.0332 35L29.0332 41" stroke="#333333" stroke-width="2" stroke-miterlimit="10" stroke-linecap="square"/>
<path d="M15.337 27.3379L11 31.6729C8.43698 34.2359 6.99707 37.7122 6.99707 41.3369C6.99707 44.9616 8.43698 48.4378 11 51.0009C13.5631 53.5639 17.0393 55.0039 20.664 55.0039C24.2887 55.0039 27.765 53.5639 30.328 51.0009L34.663 46.6669L15.337 27.3379Z" stroke="#333333" stroke-width="2" stroke-miterlimit="10" stroke-linecap="square"/>
<path d="M60.0001 2L50.9971 11.003" stroke="#00AAE7" stroke-width="2" stroke-miterlimit="10" stroke-linecap="square"/>
<path d="M46.6629 34.6621L50.9999 30.3271C53.563 27.764 55.0029 24.2878 55.0029 20.6631C55.0029 17.0384 53.563 13.5621 50.9999 10.9991C48.4369 8.436 44.9606 6.99609 41.3359 6.99609C37.7112 6.99609 34.235 8.436 31.6719 10.9991L27.3369 15.3331L46.6629 34.6621Z" stroke="#00AAE7" stroke-width="2" stroke-miterlimit="10" stroke-linecap="square"/>
<path d="M11.0029 31.6719L30.3279 50.9979" stroke="#333333" stroke-width="2" stroke-miterlimit="10"/>
</svg>
