<?xml version="1.0" encoding="UTF-8"?>
<svg width="42px" height="46px" viewBox="0 0 42 46" version="1.1" xmlns="http://www.w3.org/2000/svg" xmlns:xlink="http://www.w3.org/1999/xlink">
    <title>coins</title>
    <g id="解决方案" stroke="none" stroke-width="1" fill="none" fill-rule="evenodd">
        <g id="场景解决方案-视频冷存储解决方案✅" transform="translate(-498.000000, -463.000000)" stroke-width="2">
            <g id="活动公告" transform="translate(372.000000, 426.000000)">
                <g id="01">
                    <g id="编组-5" transform="translate(101.000000, 32.000000)">
                        <g id="编组-41" transform="translate(18.000000, 0.000000)">
                            <g id="coins" transform="translate(8.000000, 6.000000)">
                                <ellipse id="椭圆形" stroke="#333333" stroke-linecap="square" cx="11" cy="5" rx="11" ry="5"></ellipse>
                                <path d="M22,5 L22,12 C22,14.761 17.075,17 11,17 C4.925,17 0,14.761 0,12 L0,5" id="路径" stroke="#333333"></path>
                                <path d="M18,22.857 C16.098,23.571 13.659,24 11,24 C4.925,24 0,21.761 0,19 L0,12" id="路径" stroke="#333333"></path>
                                <path d="M17.999,29.857 C16.098,30.571 13.659,31 11,31 C4.925,31 0,28.761 0,26 L0,19" id="路径" stroke="#333333"></path>
                                <path d="M18,36.857 C16.098,37.571 13.659,38 11,38 C4.925,38 0,35.761 0,33 L0,26" id="路径" stroke="#333333"></path>
                                <ellipse id="椭圆形" stroke="#00AAE7" stroke-linecap="square" cx="29" cy="18" rx="11" ry="5"></ellipse>
                                <path d="M40,18 L40,25 C40,27.761 35.075,30 29,30 C22.925,30 18,27.761 18,25 L18,18" id="路径" stroke="#00AAE7"></path>
                                <path d="M40,25 L40,32 C40,34.761 35.075,37 29,37 C22.925,37 18,34.761 18,32 L18,25" id="路径" stroke="#00AAE7"></path>
                                <path d="M40,32 L40,39 C40,41.761 35.075,44 29,44 C22.925,44 18,41.761 18,39 L18,32" id="路径" stroke="#00AAE7"></path>
                            </g>
                        </g>
                    </g>
                </g>
            </g>
        </g>
    </g>
</svg>