<?xml version="1.0" encoding="UTF-8"?>
<svg width="520px" height="350px" viewBox="0 0 520 350" version="1.1" xmlns="http://www.w3.org/2000/svg" xmlns:xlink="http://www.w3.org/1999/xlink">
    <title>插画</title>
    <defs>
        <filter x="-55.0%" y="-254.8%" width="210.0%" height="609.5%" filterUnits="objectBoundingBox" id="filter-1">
            <feGaussianBlur stdDeviation="50" in="SourceGraphic"></feGaussianBlur>
        </filter>
        <linearGradient x1="50%" y1="0%" x2="50%" y2="100%" id="linearGradient-2">
            <stop stop-color="#7AE9FF" stop-opacity="0" offset="0%"></stop>
            <stop stop-color="#44CFFF" offset="100%"></stop>
        </linearGradient>
        <linearGradient x1="50%" y1="0%" x2="50%" y2="100%" id="linearGradient-3">
            <stop stop-color="#7AE9FF" stop-opacity="0" offset="0%"></stop>
            <stop stop-color="#56D3FF" stop-opacity="0.500027316" offset="100%"></stop>
        </linearGradient>
        <filter x="-16.7%" y="-187.5%" width="133.3%" height="475.0%" filterUnits="objectBoundingBox" id="filter-4">
            <feGaussianBlur stdDeviation="10" in="SourceGraphic"></feGaussianBlur>
        </filter>
        <linearGradient x1="50%" y1="0%" x2="50%" y2="100%" id="linearGradient-5">
            <stop stop-color="#00D4F5" stop-opacity="0" offset="0%"></stop>
            <stop stop-color="#00BCED" offset="48.7070261%"></stop>
            <stop stop-color="#00AAE7" stop-opacity="0" offset="100%"></stop>
        </linearGradient>
        <linearGradient x1="50%" y1="0%" x2="50%" y2="100%" id="linearGradient-6">
            <stop stop-color="#00D4F5" stop-opacity="0" offset="0%"></stop>
            <stop stop-color="#00BCED" offset="48.7070261%"></stop>
            <stop stop-color="#00AAE7" stop-opacity="0" offset="100%"></stop>
        </linearGradient>
        <linearGradient x1="62.1048635%" y1="100%" x2="62.1048635%" y2="0%" id="linearGradient-7">
            <stop stop-color="#94D8FF" offset="0%"></stop>
            <stop stop-color="#DFF6FF" offset="100%"></stop>
        </linearGradient>
        <linearGradient x1="62.1048635%" y1="100%" x2="62.1048635%" y2="0%" id="linearGradient-8">
            <stop stop-color="#94D8FF" offset="0%"></stop>
            <stop stop-color="#DFF6FF" offset="100%"></stop>
        </linearGradient>
        <linearGradient x1="50%" y1="0%" x2="50%" y2="97.6061022%" id="linearGradient-9">
            <stop stop-color="#E2F7FF" offset="0%"></stop>
            <stop stop-color="#94D8FF" offset="100%"></stop>
        </linearGradient>
        <path d="M113.584552,85.9155322 L78.825931,108.26036 C78.062006,108.751766 77.0907079,108.786773 76.293389,108.351636 C75.49607,107.9165 75,107.080689 75,106.17236 L75,61.4827046 C75,60.5743759 75.49607,59.7385646 76.293389,59.3034282 C77.0907079,58.8682918 78.062006,58.9032988 78.825931,59.3947046 L113.584552,81.7395322 C114.294778,82.1964374 114.724051,82.9830303 114.724051,83.8275322 C114.724051,84.6720341 114.294778,85.458627 113.584552,85.9155322 Z" id="path-10"></path>
        <filter x="-15.1%" y="-12.1%" width="130.2%" height="124.2%" filterUnits="objectBoundingBox" id="filter-11">
            <feGaussianBlur stdDeviation="4" in="SourceAlpha" result="shadowBlurInner1"></feGaussianBlur>
            <feOffset dx="0" dy="4" in="shadowBlurInner1" result="shadowOffsetInner1"></feOffset>
            <feComposite in="shadowOffsetInner1" in2="SourceAlpha" operator="arithmetic" k2="-1" k3="1" result="shadowInnerInner1"></feComposite>
            <feColorMatrix values="0 0 0 0 0.2   0 0 0 0 0.568627451   0 0 0 0 0.819607843  0 0 0 0.5 0" type="matrix" in="shadowInnerInner1"></feColorMatrix>
        </filter>
    </defs>
    <g id="产品" stroke="none" stroke-width="1" fill="none" fill-rule="evenodd">
        <g id="智能视频-实时音视频✅" transform="translate(-1028.000000, -120.000000)">
            <g id="banner" transform="translate(0.000000, 120.000000)">
                <g id="编组-8" transform="translate(372.000000, 0.000000)">
                    <g id="插画" transform="translate(763.000000, 40.000000)">
                        <g id="编组-22" transform="translate(0.000000, 155.000000)">
                            <ellipse id="椭圆形" fill="#00BDFF" filter="url(#filter-1)" cx="149.36" cy="49.12" rx="136.32" ry="29.44"></ellipse>
                            <ellipse id="椭圆形" fill="url(#linearGradient-2)" cx="150" cy="29.44" rx="150" ry="29.44"></ellipse>
                            <ellipse id="椭圆形" fill="url(#linearGradient-3)" cx="150" cy="52.44" rx="150" ry="29.44"></ellipse>
                            <ellipse id="椭圆形" fill-opacity="0.5" fill="#0784DA" filter="url(#filter-4)" cx="148" cy="32" rx="90" ry="8"></ellipse>
                        </g>
                        <g id="编组-21" transform="translate(2.000000, 0.000000)" fill-rule="nonzero">
                            <polygon id="路径" fill="url(#linearGradient-5)" points="4 96 4 126 0 126 0 96"></polygon>
                            <path d="M27,33 L27,60 L27,60 L24,60 L24,30 C25.6568542,30 27,31.3431458 27,33 Z" id="路径" fill="url(#linearGradient-6)"></path>
                            <path d="M275,37 L275,63 L275,63 L271,63 L271,33 C273.209139,33 275,34.790861 275,37 Z" id="路径" fill="url(#linearGradient-5)"></path>
                            <path d="M298,109 L298,135 L298,135 L294,135 L294,105 C296.209139,105 298,106.790861 298,109 Z" id="路径" fill="url(#linearGradient-5)" opacity="0.300000012"></path>
                            <path d="M228,4 L228,30 L228,30 L224,30 L224,0 C226.209139,-4.05812251e-16 228,1.790861 228,4 Z" id="路径" fill="url(#linearGradient-5)" opacity="0.400000006"></path>
                            <path d="M312,166 L312,193 L312,193 L309,193 L309,163 C310.656854,163 312,164.343146 312,166 Z" id="路径" fill="url(#linearGradient-6)" opacity="0.449999988"></path>
                        </g>
                        <g id="video-playlist" transform="translate(58.000000, 41.000000)">
                            <path d="M16,10 L164,10 C166.209139,10 168,11.790861 168,14 L168,22 L168,22 L12,22 L12,14 C12,11.790861 13.790861,10 16,10 Z" id="矩形" fill="url(#linearGradient-7)" opacity="0.5"></path>
                            <path d="M28,0 L152,0 C154.209139,-4.05812251e-16 156,1.790861 156,4 L156,10 L156,10 L24,10 L24,4 C24,1.790861 25.790861,4.05812251e-16 28,0 Z" id="矩形" fill="url(#linearGradient-8)" opacity="0.300000012"></path>
                            <rect id="矩形" fill="url(#linearGradient-9)" x="0" y="22" width="180" height="124" rx="4"></rect>
                            <g id="路径">
                                <use fill="#60BBF2" fill-rule="evenodd" xlink:href="#path-10"></use>
                                <use fill="black" fill-opacity="1" filter="url(#filter-11)" xlink:href="#path-10"></use>
                            </g>
                        </g>
                    </g>
                </g>
            </g>
        </g>
    </g>
</svg>