<?xml version="1.0" encoding="UTF-8"?>
<svg width="62px" height="62px" viewBox="0 0 62 62" version="1.1" xmlns="http://www.w3.org/2000/svg" xmlns:xlink="http://www.w3.org/1999/xlink">
    <!-- Generator: Sketch 64 (93537) - https://sketch.com -->
    <title>privacy-settings</title>
    <desc>Created with Sketch.</desc>
    <g id="产品" stroke="none" stroke-width="1" fill="none" fill-rule="evenodd" stroke-linecap="square">
        <g id="智能视频-实时音视频✅" transform="translate(-529.000000, -1577.000000)" stroke-width="2">
            <g id="产品介绍-2" transform="translate(0.000000, 1100.000000)">
                <g id="01备份" transform="translate(372.000000, 448.000000)">
                    <g id="privacy-settings" transform="translate(158.000000, 30.000000)">
                        <path d="M60,34 L60,26 L51.405,24.926 C50.8659867,22.6376445 49.9606456,20.4514534 48.724,18.452 L54.041,11.616 L48.384,5.959 L41.548,11.276 C39.5476873,10.0421645 37.3616889,9.13859145 35.074,8.6 L34,0 L26,0 L24.926,8.6 C22.6376445,9.13901331 20.4514534,10.0443544 18.452,11.281 L11.616,5.959 L5.959,11.616 L11.276,18.452 C10.0421645,20.4523127 9.13859145,22.6383111 8.6,24.926 L0,26 L0,34 L8.6,35.074 C9.13901331,37.3623555 10.0443544,39.5485466 11.281,41.548 L5.959,48.384 L11.616,54.041 L18.452,48.724 C20.4521161,49.9593511 22.6380911,50.8646027 24.926,51.405 L26,60 L34,60 L35.074,51.405 C37.3623555,50.8659867 39.5485466,49.9606456 41.548,48.724 L48.384,54.041 L54.041,48.384 L48.724,41.548 C49.9593511,39.5478839 50.8646027,37.3619089 51.405,35.074 L60,34 Z" id="路径" stroke="#333333"></path>
                        <line x1="30" y1="34" x2="30" y2="40" id="路径" stroke="#00AAE7"></line>
                        <circle id="椭圆形" stroke="#00AAE7" cx="30" cy="28" r="6"></circle>
                    </g>
                </g>
            </g>
        </g>
    </g>
</svg>