<svg xmlns="http://www.w3.org/2000/svg" width="46" height="42" viewBox="0 0 46 42">
  <g fill="none" fill-rule="evenodd" stroke-linecap="square" stroke-width="2" transform="translate(1 1)">
    <path stroke="#333" d="M13,36 L4,36 C1.790861,36 0,34.209139 0,32 L0,4 C0,1.790861 1.790861,0 4,0 L40,0 C42.209139,0 44,1.790861 44,4 L44,9"/>
    <path stroke="#00AAE6" d="M16 18L10 18C8.34314575 18 7 19.3431458 7 21L7 27C7 28.6568542 8.34314575 30 10 30L16 30 26 38 26 10 16 18zM36 10.73C40.9206901 13.3279988 43.9997788 18.4355783 43.9997788 24 43.9997788 29.5644217 40.9206901 34.6720012 36 37.27"/>
    <path stroke="#00AAE6" d="M33,17.07 C35.4769631,18.4985916 37.0031137,21.1405909 37.0031137,24 C37.0031137,26.8594091 35.4769631,29.5014084 33,30.93"/>
  </g>
</svg>
