<svg xmlns="http://www.w3.org/2000/svg" width="46" height="46" viewBox="0 0 46 46">
  <g fill="none" fill-rule="evenodd" stroke-width="2" transform="translate(1 1)">
    <line x1="7" x2="37" y1="7" y2="7" stroke="#333"/>
    <line x1="7" x2="37" y1="35" y2="35" stroke="#333"/>
    <path stroke="#00AAE6" stroke-linecap="square" d="M0,24 L9,24 C11.209139,24 13,22.209139 13,20 L13,16 C13,14.3431458 14.3431458,13 16,13 C17.6568542,13 19,14.3431458 19,16 L19,26 C19,27.6568542 20.3431458,29 22,29 C23.6568542,29 25,27.6568542 25,26 L25,18 C25,16.3431458 26.3431458,15 28,15 C29.6568542,15 31,16.3431458 31,18 L31,20 C31,22.209139 32.790861,24 35,24 L44,24"/>
    <path stroke="#333" stroke-linecap="square" d="M37 19L37 4C37 1.790861 35.209139 0 33 0L11 0C8.790861 0 7 1.790861 7 4L7 19M7 29L7 40C7 42.209139 8.790861 44 11 44L33 44C35.209139 44 37 42.209139 37 40L37 29"/>
  </g>
</svg>
