<?xml version="1.0" encoding="UTF-8"?>
<svg width="38px" height="46px" viewBox="0 0 38 46" version="1.1" xmlns="http://www.w3.org/2000/svg" xmlns:xlink="http://www.w3.org/1999/xlink">
    <!-- Generator: Sketch 64 (93537) - https://sketch.com -->
    <title>cloud</title>
    <desc>Created with Sketch.</desc>
    <g id="产品" stroke="none" stroke-width="1" fill="none" fill-rule="evenodd" stroke-linecap="square">
        <g id="基础服务-云主机03✅" transform="translate(-1005.000000, -909.000000)" stroke-width="2">
            <g id="产品与服务备份" transform="translate(0.000000, 590.000000)">
                <g id="编组-28备份" transform="translate(972.000000, 290.000000)">
                    <g id="编组-46" transform="translate(24.000000, 24.000000)">
                        <g id="cloud" transform="translate(10.000000, 6.000000)">
                            <rect id="矩形" stroke="#333333" x="0" y="0" width="36" height="44"></rect>
                            <path d="M21,14 C18.1,14 15.6,15.8 14.6,18.3 C14.1,18.1 13.6,18 13,18 C10.2,18 8,20.2 8,23 C8,25.8 10.2,28 13,28 C14.4,28 19.3,28 21,28 C24.9,28 28,24.9 28,21 C28,17.1 24.9,14 21,14 Z" id="路径" stroke="#00AAE7"></path>
                        </g>
                    </g>
                </g>
            </g>
        </g>
    </g>
</svg>