<?xml version="1.0" encoding="UTF-8"?>
<svg width="46px" height="46px" viewBox="0 0 46 46" version="1.1" xmlns="http://www.w3.org/2000/svg" xmlns:xlink="http://www.w3.org/1999/xlink">
    <!-- Generator: Sketch 64 (93537) - https://sketch.com -->
    <title>file-sql</title>
    <desc>Created with Sketch.</desc>
    <g id="产品" stroke="none" stroke-width="1" fill="none" fill-rule="evenodd">
        <g id="基础服务-云主机03✅" transform="translate(-1001.000000, -1161.000000)">
            <g id="产品与服务备份" transform="translate(0.000000, 590.000000)">
                <g id="编组-28备份-3" transform="translate(972.000000, 542.000000)">
                    <g id="编组-48" transform="translate(24.000000, 24.000000)">
                        <g id="file-sql" transform="translate(6.000000, 6.000000)">
                            <path d="M17.225,31.615 C17.225,32.102 17.101,32.534 16.854,32.912 C16.607,33.29 16.25,33.584 15.785,33.793 C15.32,34.003 14.773,34.107 14.147,34.107 C13.624,34.107 13.186,34.07 12.831,33.997 C12.476,33.924 12.108,33.796 11.725,33.613 L11.725,31.722 C12.13,31.93 12.55,32.092 12.987,32.208 C13.424,32.324 13.825,32.382 14.19,32.382 C14.505,32.382 14.736,32.328 14.883,32.219 C15.03,32.11 15.103,31.969 15.103,31.797 C15.103,31.69 15.073,31.596 15.015,31.515 C14.955,31.435 14.861,31.353 14.73,31.271 C14.6,31.189 14.251,31.02 13.686,30.766 C13.174,30.534 12.79,30.308 12.534,30.089 C12.278,29.87 12.088,29.62 11.965,29.337 C11.841,29.054 11.779,28.72 11.779,28.333 C11.779,27.609 12.042,27.045 12.569,26.641 C13.096,26.237 13.819,26.035 14.739,26.035 C15.552,26.035 16.381,26.223 17.226,26.598 L16.576,28.236 C15.842,27.9 15.208,27.732 14.675,27.732 C14.399,27.732 14.199,27.78 14.073,27.877 C13.947,27.974 13.885,28.094 13.885,28.236 C13.885,28.39 13.965,28.528 14.124,28.65 C14.283,28.772 14.715,28.994 15.421,29.316 C16.098,29.621 16.567,29.947 16.831,30.296 C17.093,30.646 17.225,31.085 17.225,31.615 Z" id="路径" fill="#00AAE7" fill-rule="nonzero"></path>
                            <path d="M25.787,30.062 C25.787,31.842 25.221,33.041 24.09,33.662 L26.007,35.869 L23.364,35.869 L21.978,34.123 L21.973,34.118 L21.973,34.113 L21.968,34.107 C20.736,34.107 19.792,33.761 19.135,33.07 C18.478,32.38 18.15,31.373 18.15,30.052 C18.15,28.744 18.477,27.746 19.13,27.057 C19.783,26.368 20.733,26.023 21.979,26.023 C23.229,26.023 24.176,26.366 24.82,27.049 C25.464,27.732 25.787,28.738 25.787,30.062 Z M20.383,30.062 C20.383,31.581 20.911,32.339 21.967,32.339 C22.504,32.339 22.903,32.155 23.162,31.786 C23.422,31.417 23.552,30.843 23.552,30.061 C23.552,29.278 23.42,28.698 23.157,28.324 C22.893,27.95 22.501,27.762 21.978,27.762 C20.915,27.764 20.383,28.53 20.383,30.062 Z" id="形状" fill="#00AAE7" fill-rule="nonzero"></path>
                            <polygon id="路径" fill="#00AAE7" fill-rule="nonzero" points="27.205 34 27.205 26.147 29.327 26.147 29.327 32.287 32.351 32.287 32.351 34"></polygon>
                            <polyline id="路径" stroke="#333333" stroke-width="2" points="27 0 27 12 39 12"></polyline>
                            <polyline id="路径" stroke="#333333" stroke-width="2" stroke-linecap="square" points="39 21 39 12 27 0 5 0 5 21"></polyline>
                            <polyline id="路径" stroke="#333333" stroke-width="2" stroke-linecap="square" points="5 39 5 44 39 44 39 39"></polyline>
                            <rect id="矩形" stroke="#333333" stroke-width="2" stroke-linecap="square" x="0" y="21" width="44" height="18"></rect>
                        </g>
                    </g>
                </g>
            </g>
        </g>
    </g>
</svg>