<?xml version="1.0" encoding="UTF-8"?>
<svg width="46px" height="42px" viewBox="0 0 46 42" version="1.1" xmlns="http://www.w3.org/2000/svg" xmlns:xlink="http://www.w3.org/1999/xlink">
    <g id="产品" stroke="none" stroke-width="1" fill="none" fill-rule="evenodd" stroke-linecap="square">
        <g id="基础服务-云主机✅" transform="translate(-401.000000, -3256.000000)" stroke-width="2">
            <g id="产品与服务" transform="translate(0.000000, 2179.000000)">
                <g id="编组-29" transform="translate(372.000000, 290.000000)">
                    <g id="编组-28备份-6" transform="translate(0.000000, 756.000000)">
                        <g id="编组-55" transform="translate(24.000000, 24.000000)">
                            <g id="folder-cloud" transform="translate(6.000000, 8.000000)">
                                <path d="M25,15.9999997 C22.1878889,15.9992478 19.6483215,17.6813961 18.552,20.271 C18.0525606,20.0979697 17.5285238,20.0064658 17,19.9999997 C14.2385763,19.9999997 12,22.2385763 12,24.9999997 C12,27.7614237 14.2385763,29.9999997 17,29.9999997 L25,29.9999997 C28.8659932,29.9999997 32,26.8659932 32,22.9999997 C32,19.1340068 28.8659932,15.9999997 25,15.9999997 L25,15.9999997 Z" id="路径" stroke="#00AAE7"></path>
                                <path d="M40,40 L4,40 C1.790861,40 0,38.209139 0,36 L0,0 L16,0 L21,8 L44,8 L44,36 C44,38.209139 42.209139,40 40,40 Z" id="路径" stroke="#333333"></path>
                            </g>
                        </g>
                    </g>
                </g>
            </g>
        </g>
    </g>
</svg>