<?xml version="1.0" encoding="UTF-8"?>
<svg width="44px" height="44px" viewBox="0 0 44 44" version="1.1" xmlns="http://www.w3.org/2000/svg" xmlns:xlink="http://www.w3.org/1999/xlink">
    <title>shape-circle</title>
    <g id="产品" stroke="none" stroke-width="1" fill="none" fill-rule="evenodd">
        <g id="基础服务-云主机✅" transform="translate(-402.000000, -3255.000000)" stroke-width="2">
            <g id="产品与服务" transform="translate(0.000000, 2179.000000)">
                <g id="编组-29" transform="translate(372.000000, 290.000000)">
                    <g id="编组-28备份-6" transform="translate(0.000000, 756.000000)">
                        <g id="编组-55" transform="translate(24.000000, 24.000000)">
                            <g id="shape-circle" transform="translate(7.000000, 7.000000)">
                                <path d="M4.473,17 C5.963,10.824 10.824,5.962 17,4.473" id="路径" stroke="#00AAE7"></path>
                                <path d="M16.994,37.525 C10.821,36.034 5.962,31.173 4.473,24.999" id="路径" stroke="#00AAE7"></path>
                                <path d="M37.527,25 C36.037,31.176 31.176,36.037 25,37.527" id="路径" stroke="#00AAE7"></path>
                                <path d="M25.006,4.475 C31.179,5.966 36.037,10.826 37.527,17" id="路径" stroke="#00AAE7"></path>
                                <rect id="矩形" stroke="#333333" stroke-linecap="square" x="17" y="0" width="8" height="8"></rect>
                                <rect id="矩形" stroke="#333333" stroke-linecap="square" x="0" y="17" width="8" height="8"></rect>
                                <rect id="矩形" stroke="#333333" stroke-linecap="square" x="34" y="17" width="8" height="8"></rect>
                                <rect id="矩形" stroke="#333333" stroke-linecap="square" x="17" y="34" width="8" height="8"></rect>
                            </g>
                        </g>
                    </g>
                </g>
            </g>
        </g>
    </g>
</svg>