<svg xmlns="http://www.w3.org/2000/svg" width="45" height="33" viewBox="0 0 45 33">
  <path fill="#00AAE7" d="M33.592,68.264 C37.816,68.264 42.612,66.064 44.02,58.848 L46.528,46.088 C46.66,45.428 46.748,44.504 46.748,43.932 C46.748,39.532 43.712,36.408 38.96,36.408 C34.736,36.408 29.94,38.608 28.532,45.824 L25.98,58.584 C25.848,59.244 25.76,60.168 25.76,60.74 C25.76,65.14 28.84,68.264 33.592,68.264 Z M34.032,63.38 C32.668,63.38 31.172,62.588 31.172,60.344 C31.172,59.86 31.304,59.288 31.392,58.804 L33.944,45.648 C34.648,42.172 36.672,41.292 38.476,41.292 C39.84,41.292 41.336,42.084 41.336,44.328 C41.336,44.812 41.248,45.384 41.16,45.868 L38.564,59.024 C37.86,62.5 35.836,63.38 34.032,63.38 Z M56.78,68.264 C62.632,68.264 67.164,63.556 67.164,57.572 C67.164,54.668 66.328,53.084 64.392,51.984 C67.78,50.268 69.188,47.144 69.188,43.844 C69.188,39.664 66.196,36.408 61.532,36.408 C56.032,36.408 52.16,39.18 50.796,45.12 L56.296,45.12 C56.912,42.612 58.848,41.292 60.784,41.292 C62.544,41.292 63.732,42.436 63.732,44.46 C63.732,47.012 61.796,49.608 59.156,49.608 L58.276,49.608 L57.352,54.36 L58.188,54.36 C60.564,54.36 61.708,55.724 61.708,57.792 C61.708,60.74 59.596,63.38 56.824,63.38 C54.448,63.38 53.304,61.972 53.304,60.212 C53.304,59.772 53.348,59.596 53.392,59.244 L48.024,59.244 C47.936,59.816 47.892,60.256 47.892,60.828 C47.892,65.316 51.28,68.264 56.78,68.264 Z" transform="translate(-25 -36)"/>
</svg>
