<svg xmlns="http://www.w3.org/2000/svg" width="45" height="33" viewBox="0 0 45 33">
  <path fill="#00AAE7" d="M33.592,68.264 C37.816,68.264 42.612,66.064 44.02,58.848 L46.528,46.088 C46.66,45.428 46.748,44.504 46.748,43.932 C46.748,39.532 43.712,36.408 38.96,36.408 C34.736,36.408 29.94,38.608 28.532,45.824 L25.98,58.584 C25.848,59.244 25.76,60.168 25.76,60.74 C25.76,65.14 28.84,68.264 33.592,68.264 Z M34.032,63.38 C32.668,63.38 31.172,62.588 31.172,60.344 C31.172,59.86 31.304,59.288 31.392,58.804 L33.944,45.648 C34.648,42.172 36.672,41.292 38.476,41.292 C39.84,41.292 41.336,42.084 41.336,44.328 C41.336,44.812 41.248,45.384 41.16,45.868 L38.564,59.024 C37.86,62.5 35.836,63.38 34.032,63.38 Z M65.316,68 L66.328,63.116 L54.8,63.116 L64.832,52.864 C66.636,51.016 69.54,48.464 69.54,44.196 C69.54,39.224 66.504,36.408 61.62,36.408 C55.9,36.408 52.072,39.4 51.016,45.384 L56.516,45.384 C57.22,42.348 59.068,41.292 61.048,41.292 C62.94,41.292 64.04,42.436 64.04,44.46 C64.04,46.352 63.204,47.496 61.4,49.344 L47.848,63.116 L46.836,68 L65.316,68 Z" transform="translate(-25 -36)"/>
</svg>
