<svg xmlns="http://www.w3.org/2000/svg" width="42" height="33" viewBox="0 0 42 33">
  <path fill="#00AAE7" d="M33.592,68.264 C37.816,68.264 42.612,66.064 44.02,58.848 L46.528,46.088 C46.66,45.428 46.748,44.504 46.748,43.932 C46.748,39.532 43.712,36.408 38.96,36.408 C34.736,36.408 29.94,38.608 28.532,45.824 L25.98,58.584 C25.848,59.244 25.76,60.168 25.76,60.74 C25.76,65.14 28.84,68.264 33.592,68.264 Z M34.032,63.38 C32.668,63.38 31.172,62.588 31.172,60.344 C31.172,59.86 31.304,59.288 31.392,58.804 L33.944,45.648 C34.648,42.172 36.672,41.292 38.476,41.292 C39.84,41.292 41.336,42.084 41.336,44.328 C41.336,44.812 41.248,45.384 41.16,45.868 L38.564,59.024 C37.86,62.5 35.836,63.38 34.032,63.38 Z M60.3,68 L66.548,36.672 L61.092,36.672 L53.964,41.776 L52.732,48.068 L59.86,42.92 L54.844,68 L60.3,68 Z" transform="translate(-25 -36)"/>
</svg>
