<svg xmlns="http://www.w3.org/2000/svg" width="1100" height="634" viewBox="0 0 1100 634">
  <g fill="none" fill-rule="evenodd">
    <polygon fill="#28B8BB" points="0 0 220 0 220 264 0 264" opacity=".11"/>
    <rect width="220" height="44" fill="#28B8BB" fill-opacity=".85"/>
    <g transform="translate(16 116)">
      <path fill="#E7F7F8" stroke="#28B8BB" d="M86,0.5 C86.4142136,0.5 86.7892136,0.667893219 87.0606602,0.939339828 C87.3321068,1.21078644 87.5,1.58578644 87.5,2 L87.5,2 L87.5,34 C87.5,34.4142136 87.3321068,34.7892136 87.0606602,35.0606602 C86.7892136,35.3321068 86.4142136,35.5 86,35.5 L86,35.5 L2,35.5 C1.58578644,35.5 1.21078644,35.3321068 0.939339828,35.0606602 C0.667893219,34.7892136 0.5,34.4142136 0.5,34 L0.5,34 L0.5,2 C0.5,1.58578644 0.667893219,1.21078644 0.939339828,0.939339828 C1.21078644,0.667893219 1.58578644,0.5 2,0.5 L2,0.5 Z"/>
      <text fill="#28B8BB" font-family="PingFangSC-Regular, PingFang SC" font-size="14">
        <tspan x="16" y="23">单向直播</tspan>
      </text>
      <g transform="translate(100)">
        <path fill="#E7F7F8" stroke="#28B8BB" d="M86,0.5 C86.4142136,0.5 86.7892136,0.667893219 87.0606602,0.939339828 C87.3321068,1.21078644 87.5,1.58578644 87.5,2 L87.5,2 L87.5,34 C87.5,34.4142136 87.3321068,34.7892136 87.0606602,35.0606602 C86.7892136,35.3321068 86.4142136,35.5 86,35.5 L86,35.5 L2,35.5 C1.58578644,35.5 1.21078644,35.3321068 0.939339828,35.0606602 C0.667893219,34.7892136 0.5,34.4142136 0.5,34 L0.5,34 L0.5,2 C0.5,1.58578644 0.667893219,1.21078644 0.939339828,0.939339828 C1.21078644,0.667893219 1.58578644,0.5 2,0.5 L2,0.5 Z"/>
        <text fill="#28B8BB" font-family="PingFangSC-Regular, PingFang SC" font-size="14">
          <tspan x="16" y="23">连麦互动</tspan>
        </text>
      </g>
      <g transform="translate(0 48)">
        <path fill="#E7F7F8" stroke="#28B8BB" d="M86,0.5 C86.4142136,0.5 86.7892136,0.667893219 87.0606602,0.939339828 C87.3321068,1.21078644 87.5,1.58578644 87.5,2 L87.5,2 L87.5,34 C87.5,34.4142136 87.3321068,34.7892136 87.0606602,35.0606602 C86.7892136,35.3321068 86.4142136,35.5 86,35.5 L86,35.5 L2,35.5 C1.58578644,35.5 1.21078644,35.3321068 0.939339828,35.0606602 C0.667893219,34.7892136 0.5,34.4142136 0.5,34 L0.5,34 L0.5,2 C0.5,1.58578644 0.667893219,1.21078644 0.939339828,0.939339828 C1.21078644,0.667893219 1.58578644,0.5 2,0.5 L2,0.5 Z"/>
        <text fill="#28B8BB" font-family="PingFangSC-Regular, PingFang SC" font-size="14">
          <tspan x="16" y="23">美颜美妆</tspan>
        </text>
      </g>
      <g transform="translate(100 48)">
        <path fill="#E7F7F8" stroke="#28B8BB" d="M86,0.5 C86.4142136,0.5 86.7892136,0.667893219 87.0606602,0.939339828 C87.3321068,1.21078644 87.5,1.58578644 87.5,2 L87.5,2 L87.5,34 C87.5,34.4142136 87.3321068,34.7892136 87.0606602,35.0606602 C86.7892136,35.3321068 86.4142136,35.5 86,35.5 L86,35.5 L2,35.5 C1.58578644,35.5 1.21078644,35.3321068 0.939339828,35.0606602 C0.667893219,34.7892136 0.5,34.4142136 0.5,34 L0.5,34 L0.5,2 C0.5,1.58578644 0.667893219,1.21078644 0.939339828,0.939339828 C1.21078644,0.667893219 1.58578644,0.5 2,0.5 L2,0.5 Z"/>
        <text fill="#28B8BB" font-family="PingFangSC-Regular, PingFang SC" font-size="14">
          <tspan x="16" y="23">房间管理</tspan>
        </text>
      </g>
      <g transform="translate(0 96)">
        <path fill="#E7F7F8" stroke="#28B8BB" d="M86,0.5 C86.4142136,0.5 86.7892136,0.667893219 87.0606602,0.939339828 C87.3321068,1.21078644 87.5,1.58578644 87.5,2 L87.5,2 L87.5,34 C87.5,34.4142136 87.3321068,34.7892136 87.0606602,35.0606602 C86.7892136,35.3321068 86.4142136,35.5 86,35.5 L86,35.5 L2,35.5 C1.58578644,35.5 1.21078644,35.3321068 0.939339828,35.0606602 C0.667893219,34.7892136 0.5,34.4142136 0.5,34 L0.5,34 L0.5,2 C0.5,1.58578644 0.667893219,1.21078644 0.939339828,0.939339828 C1.21078644,0.667893219 1.58578644,0.5 2,0.5 L2,0.5 Z"/>
        <text fill="#28B8BB" font-family="PingFangSC-Regular, PingFang SC" font-size="14">
          <tspan x="22" y="23">IM 聊天</tspan>
        </text>
      </g>
      <g transform="translate(100 96)">
        <path fill="#E7F7F8" stroke="#28B8BB" d="M86,0.5 C86.4142136,0.5 86.7892136,0.667893219 87.0606602,0.939339828 C87.3321068,1.21078644 87.5,1.58578644 87.5,2 L87.5,2 L87.5,34 C87.5,34.4142136 87.3321068,34.7892136 87.0606602,35.0606602 C86.7892136,35.3321068 86.4142136,35.5 86,35.5 L86,35.5 L2,35.5 C1.58578644,35.5 1.21078644,35.3321068 0.939339828,35.0606602 C0.667893219,34.7892136 0.5,34.4142136 0.5,34 L0.5,34 L0.5,2 C0.5,1.58578644 0.667893219,1.21078644 0.939339828,0.939339828 C1.21078644,0.667893219 1.58578644,0.5 2,0.5 L2,0.5 Z"/>
        <text fill="#58B8BD" font-family="PingFangSC-Regular, PingFang SC" font-size="14">
          <tspan x="16" y="23">人脸核验</tspan>
        </text>
      </g>
    </g>
    <text fill="#FFF" font-family="PingFangSC-Medium, PingFang SC" font-size="18" font-weight="400">
      <tspan x="83" y="30">主播端</tspan>
    </text>
    <g transform="translate(72 53)">
      <text fill="#28B8BB" font-family="PingFangSC-Regular, PingFang SC" font-size="14">
        <tspan x="0" y="41">安卓</tspan>
      </text>
      <text fill="#28B8BB" font-family="PingFangSC-Regular, PingFang SC" font-size="14">
        <tspan x="53" y="43">iOS</tspan>
      </text>
      <g fill-rule="nonzero" transform="translate(52)">
        <rect width="24" height="24" fill="#000" opacity="0"/>
        <path fill="#28B8BB" d="M15.2680129,5.22015971 C15.9168721,4.38431208 16.4084691,3.20419349 16.2313758,2 C15.1688162,2.07365285 13.929204,2.75085102 13.2067124,3.63201249 C12.5464891,4.4310541 12.0039063,5.61825234 12.2150105,6.7714601 C13.376726,6.80828653 14.5724117,6.11552129 15.2680129,5.22015971 Z M21,16.5524565 C20.5353138,17.5823927 20.3129066,18.0442225 19.7150536,18.9565794 C18.8791652,20.231651 17.7033107,21.8183496 16.2455147,21.8296934 C14.9506324,21.8438527 14.6162974,20.9853175 12.8595851,20.9952331 C11.1028728,21.0051487 10.7345474,21.8466886 9.43823683,21.8340606 C7.98046128,21.819737 6.86691588,20.3888723 6.03247602,19.1138619 C3.69917007,15.5522467 3.45409582,11.3715396 4.8920402,9.14730516 C5.91630446,7.56909394 7.52995475,6.64682153 9.04722385,6.64682153 C10.5914446,6.64682153 11.5618872,7.49542069 12.8411821,7.49542069 C14.0807942,7.49542069 14.835889,6.64539335 16.6209402,6.64539335 C17.9725006,6.64539335 19.4047935,7.38210547 20.4247937,8.65713627 C17.0827701,10.4917655 17.623986,15.2731412 21,16.5538439 L21,16.5524565 L21,16.5524565 L21,16.5524565 Z"/>
      </g>
      <g fill-rule="nonzero" transform="translate(2)">
        <rect width="24" height="24" fill="#000" opacity="0"/>
        <path fill="#28B8BB" d="M19.889116,8.25588864 C19.1818423,8.25588864 18.5959323,8.81588948 18.5959323,9.49589049 L18.5959323,14.3181704 C18.5959323,14.9981714 19.1618422,15.5586268 19.889116,15.5586268 C20.5959323,15.5586268 21.1818452,14.9981714 21.1818452,14.3177159 L21.1818452,9.49634503 C21.1618452,8.81634401 20.5959323,8.25634318 19.889116,8.2563432 L19.889116,8.25588864 Z M4.29272921,8.25588864 C3.58636452,8.25588864 3,8.81588948 3,9.49543594 L3,14.3181704 C3,14.9981714 3.56545538,15.5586268 4.29272921,15.5586268 C5.02000301,15.5586268 5.58591294,14.9981714 5.58591294,14.3177159 L5.58591294,9.49634503 C5.58591294,8.81634401 5.02000299,8.25634318 4.29272921,8.2563432 L4.29272921,8.25588864 Z M6.37364138,8.29588871 L6.37364138,17.1186291 C6.37364138,17.6386299 6.8181875,18.0786305 7.38364289,18.0786305 L8.5354628,18.0786305 L8.5354628,20.7595436 C8.5354628,21.4399992 9.10091818,22 9.82819198,22 C10.5354658,22 11.1213757,21.4399992 11.1213757,20.7595436 L11.1213757,18.0786305 L13.1413787,18.0786305 L13.1413787,20.7595436 C13.1413787,21.4399992 13.7072887,22 14.4345625,22 C15.1409272,22 15.7272917,21.4399992 15.7272917,20.7595436 L15.7272917,18.0786305 L16.878657,18.0786305 C17.444567,18.0786305 17.8891131,17.6586299 17.8891131,17.1186291 L17.8891131,8.29543417 L6.37364138,8.29543417 L6.37364138,8.29588871 Z M14.8181994,3.73406374 L15.8891101,2.29360704 C15.9291102,2.19360689 15.9291102,2.07360671 15.8282009,2.03360666 C15.7472917,1.97360658 15.6263824,2.01360664 15.5654732,2.09360675 L14.4745625,3.59406353 C13.7099386,3.31856362 12.9036612,3.17649643 12.0909226,3.17406291 C11.242285,3.17406291 10.4345565,3.31406311 9.7072827,3.59406353 L8.616372,2.09406129 C8.55546282,1.99406114 8.43455353,1.97360656 8.35364433,2.03360666 C8.27181091,2.09487193 8.25366924,2.21017228 8.31273518,2.29360704 L9.38364586,3.73451828 C7.70727973,4.47451938 6.51545978,5.87497601 6.37364138,7.515433 L17.869113,7.515433 C17.6872946,5.87452148 16.5150201,4.4745194 14.8181994,3.73406374 L14.8181994,3.73406374 Z M9.6668281,6.01497622 C9.3031912,6.01497622 9.04046354,5.75497583 9.04046354,5.41497533 C9.04046354,5.07452027 9.32319124,4.81497443 9.6668281,4.81497443 C10.030465,4.81497443 10.2927381,5.07452027 10.2927381,5.41497533 C10.2927381,5.75497583 10.0100104,6.01497622 9.6668281,6.01497622 Z M14.5959264,6.01497622 C14.2322895,6.01497622 13.9695618,5.75497583 13.9695618,5.41497533 C13.9695618,5.07452027 14.252744,4.81497443 14.5959264,4.81497443 C14.9595633,4.81497443 15.2222909,5.07452027 15.2222909,5.41497533 C15.2222909,5.75497583 14.9395632,6.01497622 14.5959264,6.01497622 Z"/>
      </g>
    </g>
    <g transform="translate(0 370)">
      <polygon fill="#E6F4F9" points="0 0 220 0 220 264 0 264"/>
      <path fill="#FFF" d="M18,158 L202,158 C203.104569,158 204,158.895431 204,160 L204,246 C204,247.104569 203.104569,248 202,248 L18,248 C16.8954305,248 16,247.104569 16,246 L16,160 C16,158.895431 16.8954305,158 18,158 Z"/>
      <text fill="#46B5EC" font-family="PingFangSC-Regular, PingFang SC" font-size="14">
        <tspan x="82" y="232">点播审核</tspan>
      </text>
      <g transform="translate(25 167)">
        <path fill="#E6F4F9" stroke="#00AAE7" d="M78,0.5 C78.4142136,0.5 78.7892136,0.667893219 79.0606602,0.939339828 C79.3321068,1.21078644 79.5,1.58578644 79.5,2 L79.5,2 L79.5,38 C79.5,38.4142136 79.3321068,38.7892136 79.0606602,39.0606602 C78.7892136,39.3321068 78.4142136,39.5 78,39.5 L78,39.5 L2,39.5 C1.58578644,39.5 1.21078644,39.3321068 0.939339828,39.0606602 C0.667893219,38.7892136 0.5,38.4142136 0.5,38 L0.5,38 L0.5,2 C0.5,1.58578644 0.667893219,1.21078644 0.939339828,0.939339828 C1.21078644,0.667893219 1.58578644,0.5 2,0.5 L2,0.5 Z"/>
        <text fill="#24B5E9" font-family="PingFangSC-Regular, PingFang SC" font-size="14">
          <tspan x="12" y="25">视频转码</tspan>
        </text>
        <g transform="translate(90)">
          <path fill="#E6F4F9" stroke="#00AAE7" d="M78,0.5 C78.4142136,0.5 78.7892136,0.667893219 79.0606602,0.939339828 C79.3321068,1.21078644 79.5,1.58578644 79.5,2 L79.5,2 L79.5,38 C79.5,38.4142136 79.3321068,38.7892136 79.0606602,39.0606602 C78.7892136,39.3321068 78.4142136,39.5 78,39.5 L78,39.5 L2,39.5 C1.58578644,39.5 1.21078644,39.3321068 0.939339828,39.0606602 C0.667893219,38.7892136 0.5,38.4142136 0.5,38 L0.5,38 L0.5,2 C0.5,1.58578644 0.667893219,1.21078644 0.939339828,0.939339828 C1.21078644,0.667893219 1.58578644,0.5 2,0.5 L2,0.5 Z"/>
          <text fill="#24B5E9" font-family="PingFangSC-Regular, PingFang SC" font-size="14">
            <tspan x="12" y="25">视频分析</tspan>
          </text>
        </g>
      </g>
      <path fill="#00AAE7" fill-rule="nonzero" d="M59.5 116L59.5 131 65.5 131 58.5 145 51.5 131 57.5 131 57.5 116 59.5 116zM163.5 116L163.5 131 169.5 131 162.5 145 155.5 131 161.5 131 161.5 116 163.5 116z"/>
      <g transform="translate(16 60)">
        <path fill="#E6F4F9" stroke="#00AAE7" d="M186,0.5 C186.414214,0.5 186.789214,0.667893219 187.06066,0.939339828 C187.332107,1.21078644 187.5,1.58578644 187.5,2 L187.5,2 L187.5,42 C187.5,42.4142136 187.332107,42.7892136 187.06066,43.0606602 C186.789214,43.3321068 186.414214,43.5 186,43.5 L186,43.5 L2,43.5 C1.58578644,43.5 1.21078644,43.3321068 0.939339828,43.0606602 C0.667893219,42.7892136 0.5,42.4142136 0.5,42 L0.5,42 L0.5,2 C0.5,1.58578644 0.667893219,1.21078644 0.939339828,0.939339828 C1.21078644,0.667893219 1.58578644,0.5 2,0.5 L2,0.5 Z"/>
        <text fill="#46B5EC" font-family="PingFangSC-Regular, PingFang SC" font-size="14">
          <tspan x="17" y="27">直播内容录制（落存储）</tspan>
        </text>
      </g>
      <path fill="#24B5E9" d="M2,0 L218,0 C219.104569,-2.02906125e-16 220,0.8954305 220,2 L220,44 L220,44 L0,44 L0,2 C-1.3527075e-16,0.8954305 0.8954305,2.02906125e-16 2,0 Z"/>
      <text fill="#FFF" font-family="PingFangSC-Medium, PingFang SC" font-size="18" font-weight="400">
        <tspan x="47" y="29">其他产品和服务</tspan>
      </text>
    </g>
    <g transform="translate(240 87)">
      <g transform="translate(0 399)">
        <text fill="#24B5E9" font-family="PingFangSC-Regular, PingFang SC" font-size="14">
          <tspan x="49" y="15">落存储</tspan>
        </text>
        <path fill="#00AAE7" fill-rule="nonzero" d="M14,25.5 L14,31.5 L141,31.5 L141,33.5 L14,33.5 L14,39.5 L0,32.5 L14,25.5 Z"/>
      </g>
      <g transform="translate(480 399)">
        <text fill="#24B5E9" font-family="PingFangSC-Regular, PingFang SC" font-size="14">
          <tspan x="42" y="15">直播下行</tspan>
        </text>
        <path fill="#00AAE7" fill-rule="nonzero" d="M126,25.5 L140,32.5 L126,39.5 L126,33.5 L-1,33.5 L-1,31.5 L126,31.5 L126,25.5 Z"/>
      </g>
      <g transform="translate(480)">
        <g fill="#44C0C3">
          <path fill-rule="nonzero" d="M14,23.5 L14,29.5 L141,29.5 L141,31.5 L14,31.5 L14,37.5 L0,30.5 L14,23.5 Z"/>
          <text font-family="PingFangSC-Regular, PingFang SC" font-size="14">
            <tspan x="28" y="15">发布（推流）</tspan>
          </text>
        </g>
        <g transform="translate(0 57)">
          <text fill="#24B5E9" font-family="PingFangSC-Regular, PingFang SC" font-size="14">
            <tspan x="28" y="28">订阅（拉流）</tspan>
          </text>
          <path fill="#00AAE7" fill-rule="nonzero" d="M126,-6.5 L140,0.5 L126,7.5 L126,1.5 L-1,1.5 L-1,-0.5 L126,-0.5 L126,-6.5 Z"/>
        </g>
      </g>
      <g fill="#44C0C3">
        <path fill-rule="nonzero" d="M126,23.5 L140,30.5 L126,37.5 L126,31.5 L-1,31.5 L-1,29.5 L126,29.5 L126,23.5 Z"/>
        <text font-family="PingFangSC-Regular, PingFang SC" font-size="14">
          <tspan x="30" y="15">发布（推流）</tspan>
        </text>
      </g>
      <g transform="translate(0 57)">
        <text fill="#24B5E9" font-family="PingFangSC-Regular, PingFang SC" font-size="14">
          <tspan x="30" y="28">订阅（拉流）</tspan>
        </text>
        <path fill="#00AAE7" fill-rule="nonzero" d="M14,-6.5 L14,-0.5 L141,-0.5 L141,1.5 L14,1.5 L14,7.5 L0,0.5 L14,-6.5 Z"/>
      </g>
    </g>
    <g transform="translate(880)">
      <polygon fill="#28B8BB" points="0 0 220 0 220 264 0 264" opacity=".11"/>
      <rect width="220" height="44" fill="#28B8BB" fill-opacity=".85"/>
      <g transform="translate(16 118)">
        <path fill="#E7F7F8" stroke="#28B8BB" d="M186,0.5 C186.414214,0.5 186.789214,0.667893219 187.06066,0.939339828 C187.332107,1.21078644 187.5,1.58578644 187.5,2 L187.5,2 L187.5,33 C187.5,33.4142136 187.332107,33.7892136 187.06066,34.0606602 C186.789214,34.3321068 186.414214,34.5 186,34.5 L186,34.5 L2,34.5 C1.58578644,34.5 1.21078644,34.3321068 0.939339828,34.0606602 C0.667893219,33.7892136 0.5,33.4142136 0.5,33 L0.5,33 L0.5,2 C0.5,1.58578644 0.667893219,1.21078644 0.939339828,0.939339828 C1.21078644,0.667893219 1.58578644,0.5 2,0.5 L2,0.5 Z"/>
        <text fill="#28B8BB" font-family="PingFangSC-Regular, PingFang SC" font-size="14">
          <tspan x="54" y="22">连麦互动 PK</tspan>
        </text>
        <g transform="translate(0 47)">
          <path fill="#E7F7F8" stroke="#28B8BB" d="M186,0.5 C186.414214,0.5 186.789214,0.667893219 187.06066,0.939339828 C187.332107,1.21078644 187.5,1.58578644 187.5,2 L187.5,2 L187.5,33 C187.5,33.4142136 187.332107,33.7892136 187.06066,34.0606602 C186.789214,34.3321068 186.414214,34.5 186,34.5 L186,34.5 L2,34.5 C1.58578644,34.5 1.21078644,34.3321068 0.939339828,34.0606602 C0.667893219,33.7892136 0.5,33.4142136 0.5,33 L0.5,33 L0.5,2 C0.5,1.58578644 0.667893219,1.21078644 0.939339828,0.939339828 C1.21078644,0.667893219 1.58578644,0.5 2,0.5 L2,0.5 Z"/>
          <text fill="#28B8BB" font-family="PingFangSC-Regular, PingFang SC" font-size="14">
            <tspan x="66" y="23">美颜美妆</tspan>
          </text>
        </g>
        <g transform="translate(0 94)">
          <path fill="#E7F7F8" stroke="#28B8BB" d="M186,0.5 C186.414214,0.5 186.789214,0.667893219 187.06066,0.939339828 C187.332107,1.21078644 187.5,1.58578644 187.5,2 L187.5,2 L187.5,34 C187.5,34.4142136 187.332107,34.7892136 187.06066,35.0606602 C186.789214,35.3321068 186.414214,35.5 186,35.5 L186,35.5 L2,35.5 C1.58578644,35.5 1.21078644,35.3321068 0.939339828,35.0606602 C0.667893219,34.7892136 0.5,34.4142136 0.5,34 L0.5,34 L0.5,2 C0.5,1.58578644 0.667893219,1.21078644 0.939339828,0.939339828 C1.21078644,0.667893219 1.58578644,0.5 2,0.5 L2,0.5 Z"/>
          <text fill="#28B8BB" font-family="PingFangSC-Regular, PingFang SC" font-size="14">
            <tspan x="72" y="23">IM 聊天</tspan>
          </text>
        </g>
      </g>
      <text fill="#FFF" font-family="PingFangSC-Medium, PingFang SC" font-size="18" font-weight="400">
        <tspan x="12" y="29">连麦者(观众或其他主播）</tspan>
      </text>
      <g transform="translate(72 57)">
        <text fill="#28B8BB" font-family="PingFangSC-Regular, PingFang SC" font-size="14">
          <tspan x="0" y="41">安卓</tspan>
        </text>
        <text fill="#28B8BB" font-family="PingFangSC-Regular, PingFang SC" font-size="14">
          <tspan x="53" y="41">iOS</tspan>
        </text>
        <g fill-rule="nonzero" transform="translate(52)">
          <rect width="24" height="24" fill="#000" opacity="0"/>
          <path fill="#28B8BB" d="M15.2680129,5.22015971 C15.9168721,4.38431208 16.4084691,3.20419349 16.2313758,2 C15.1688162,2.07365285 13.929204,2.75085102 13.2067124,3.63201249 C12.5464891,4.4310541 12.0039063,5.61825234 12.2150105,6.7714601 C13.376726,6.80828653 14.5724117,6.11552129 15.2680129,5.22015971 Z M21,16.5524565 C20.5353138,17.5823927 20.3129066,18.0442225 19.7150536,18.9565794 C18.8791652,20.231651 17.7033107,21.8183496 16.2455147,21.8296934 C14.9506324,21.8438527 14.6162974,20.9853175 12.8595851,20.9952331 C11.1028728,21.0051487 10.7345474,21.8466886 9.43823683,21.8340606 C7.98046128,21.819737 6.86691588,20.3888723 6.03247602,19.1138619 C3.69917007,15.5522467 3.45409582,11.3715396 4.8920402,9.14730516 C5.91630446,7.56909394 7.52995475,6.64682153 9.04722385,6.64682153 C10.5914446,6.64682153 11.5618872,7.49542069 12.8411821,7.49542069 C14.0807942,7.49542069 14.835889,6.64539335 16.6209402,6.64539335 C17.9725006,6.64539335 19.4047935,7.38210547 20.4247937,8.65713627 C17.0827701,10.4917655 17.623986,15.2731412 21,16.5538439 L21,16.5524565 L21,16.5524565 L21,16.5524565 Z"/>
        </g>
        <g fill-rule="nonzero" transform="translate(2)">
          <rect width="24" height="24" fill="#000" opacity="0"/>
          <path fill="#28B8BB" d="M19.889116,8.25588864 C19.1818423,8.25588864 18.5959323,8.81588948 18.5959323,9.49589049 L18.5959323,14.3181704 C18.5959323,14.9981714 19.1618422,15.5586268 19.889116,15.5586268 C20.5959323,15.5586268 21.1818452,14.9981714 21.1818452,14.3177159 L21.1818452,9.49634503 C21.1618452,8.81634401 20.5959323,8.25634318 19.889116,8.2563432 L19.889116,8.25588864 Z M4.29272921,8.25588864 C3.58636452,8.25588864 3,8.81588948 3,9.49543594 L3,14.3181704 C3,14.9981714 3.56545538,15.5586268 4.29272921,15.5586268 C5.02000301,15.5586268 5.58591294,14.9981714 5.58591294,14.3177159 L5.58591294,9.49634503 C5.58591294,8.81634401 5.02000299,8.25634318 4.29272921,8.2563432 L4.29272921,8.25588864 Z M6.37364138,8.29588871 L6.37364138,17.1186291 C6.37364138,17.6386299 6.8181875,18.0786305 7.38364289,18.0786305 L8.5354628,18.0786305 L8.5354628,20.7595436 C8.5354628,21.4399992 9.10091818,22 9.82819198,22 C10.5354658,22 11.1213757,21.4399992 11.1213757,20.7595436 L11.1213757,18.0786305 L13.1413787,18.0786305 L13.1413787,20.7595436 C13.1413787,21.4399992 13.7072887,22 14.4345625,22 C15.1409272,22 15.7272917,21.4399992 15.7272917,20.7595436 L15.7272917,18.0786305 L16.878657,18.0786305 C17.444567,18.0786305 17.8891131,17.6586299 17.8891131,17.1186291 L17.8891131,8.29543417 L6.37364138,8.29543417 L6.37364138,8.29588871 Z M14.8181994,3.73406374 L15.8891101,2.29360704 C15.9291102,2.19360689 15.9291102,2.07360671 15.8282009,2.03360666 C15.7472917,1.97360658 15.6263824,2.01360664 15.5654732,2.09360675 L14.4745625,3.59406353 C13.7099386,3.31856362 12.9036612,3.17649643 12.0909226,3.17406291 C11.242285,3.17406291 10.4345565,3.31406311 9.7072827,3.59406353 L8.616372,2.09406129 C8.55546282,1.99406114 8.43455353,1.97360656 8.35364433,2.03360666 C8.27181091,2.09487193 8.25366924,2.21017228 8.31273518,2.29360704 L9.38364586,3.73451828 C7.70727973,4.47451938 6.51545978,5.87497601 6.37364138,7.515433 L17.869113,7.515433 C17.6872946,5.87452148 16.5150201,4.4745194 14.8181994,3.73406374 L14.8181994,3.73406374 Z M9.6668281,6.01497622 C9.3031912,6.01497622 9.04046354,5.75497583 9.04046354,5.41497533 C9.04046354,5.07452027 9.32319124,4.81497443 9.6668281,4.81497443 C10.030465,4.81497443 10.2927381,5.07452027 10.2927381,5.41497533 C10.2927381,5.75497583 10.0100104,6.01497622 9.6668281,6.01497622 Z M14.5959264,6.01497622 C14.2322895,6.01497622 13.9695618,5.75497583 13.9695618,5.41497533 C13.9695618,5.07452027 14.252744,4.81497443 14.5959264,4.81497443 C14.9595633,4.81497443 15.2222909,5.07452027 15.2222909,5.41497533 C15.2222909,5.75497583 14.9395632,6.01497622 14.5959264,6.01497622 Z"/>
        </g>
      </g>
    </g>
    <g transform="translate(880 370)">
      <polygon fill="#28B8BB" points="0 0 220 0 220 264 0 264" opacity=".11"/>
      <rect width="220" height="44" fill="#28B8BB" fill-opacity=".85"/>
      <g transform="translate(16 118)">
        <path fill="#E7F7F8" stroke="#28B8BB" d="M186,0.5 C186.414214,0.5 186.789214,0.667893219 187.06066,0.939339828 C187.332107,1.21078644 187.5,1.58578644 187.5,2 L187.5,2 L187.5,33 C187.5,33.4142136 187.332107,33.7892136 187.06066,34.0606602 C186.789214,34.3321068 186.414214,34.5 186,34.5 L186,34.5 L2,34.5 C1.58578644,34.5 1.21078644,34.3321068 0.939339828,34.0606602 C0.667893219,33.7892136 0.5,33.4142136 0.5,33 L0.5,33 L0.5,2 C0.5,1.58578644 0.667893219,1.21078644 0.939339828,0.939339828 C1.21078644,0.667893219 1.58578644,0.5 2,0.5 L2,0.5 Z"/>
        <text fill="#28B8BB" font-family="PingFangSC-Regular, PingFang SC" font-size="14">
          <tspan x="66" y="22">观看直播</tspan>
        </text>
        <g transform="translate(0 47)">
          <path fill="#E7F7F8" stroke="#28B8BB" d="M186,0.5 C186.414214,0.5 186.789214,0.667893219 187.06066,0.939339828 C187.332107,1.21078644 187.5,1.58578644 187.5,2 L187.5,2 L187.5,33 C187.5,33.4142136 187.332107,33.7892136 187.06066,34.0606602 C186.789214,34.3321068 186.414214,34.5 186,34.5 L186,34.5 L2,34.5 C1.58578644,34.5 1.21078644,34.3321068 0.939339828,34.0606602 C0.667893219,33.7892136 0.5,33.4142136 0.5,33 L0.5,33 L0.5,2 C0.5,1.58578644 0.667893219,1.21078644 0.939339828,0.939339828 C1.21078644,0.667893219 1.58578644,0.5 2,0.5 L2,0.5 Z"/>
          <text fill="#28B8BB" font-family="PingFangSC-Regular, PingFang SC" font-size="14">
            <tspan x="72.167" y="23">IM 聊天</tspan>
          </text>
        </g>
        <g transform="translate(0 94)">
          <path fill="#E7F7F8" stroke="#28B8BB" d="M186,0.5 C186.414214,0.5 186.789214,0.667893219 187.06066,0.939339828 C187.332107,1.21078644 187.5,1.58578644 187.5,2 L187.5,2 L187.5,34 C187.5,34.4142136 187.332107,34.7892136 187.06066,35.0606602 C186.789214,35.3321068 186.414214,35.5 186,35.5 L186,35.5 L2,35.5 C1.58578644,35.5 1.21078644,35.3321068 0.939339828,35.0606602 C0.667893219,34.7892136 0.5,34.4142136 0.5,34 L0.5,34 L0.5,2 C0.5,1.58578644 0.667893219,1.21078644 0.939339828,0.939339828 C1.21078644,0.667893219 1.58578644,0.5 2,0.5 L2,0.5 Z"/>
          <text fill="#28B8BB" font-family="PingFangSC-Regular, PingFang SC" font-size="14">
            <tspan x="66" y="23">点赞打赏</tspan>
          </text>
        </g>
      </g>
      <text fill="#FFF" font-family="PingFangSC-Medium, PingFang SC" font-size="18" font-weight="400">
        <tspan x="74" y="29">直播观众</tspan>
      </text>
      <g transform="translate(98 56)">
        <text fill="#28B8BB" font-family="PingFangSC-Regular, PingFang SC" font-size="14">
          <tspan x="0" y="41">iOS</tspan>
        </text>
        <g fill-rule="nonzero">
          <rect width="24" height="24" fill="#000" opacity="0"/>
          <path fill="#28B8BB" d="M15.0243451,4.37340485 C15.6575176,3.49777982 16.1372299,2.26150021 15.964418,1 C14.9275466,1.07715794 13.7179031,1.78658349 13.0128783,2.70967882 C12.3686164,3.54674625 11.839151,4.79044243 12.0451516,5.99853054 C13.1787817,6.0371095 14.3455607,5.31137606 15.0243451,4.37340485 Z M21,16.4362686 C20.5079793,17.5212208 20.2724894,18.0077202 19.6394685,18.9688124 C18.7544102,20.3119945 17.5093878,21.9834498 15.9658391,21.9953995 C14.5947872,22.0103151 14.2407855,21.1059196 12.3807372,21.1163649 C10.5206889,21.1268101 10.1306972,22.0133026 8.75813311,22 C7.21460606,21.9849113 6.03555799,20.4776141 5.15203343,19.1344965 C2.68147419,15.3826306 2.42198381,10.9786027 3.94451315,8.63555639 C5.02902825,6.97304188 6.73759914,6.00150446 8.34411937,6.00150446 C9.97917663,6.00150446 11.0067041,6.89543323 12.3612516,6.89543323 C13.6737821,6.89543323 14.4732942,6 16.3633485,6 C17.7944124,6 19.3109579,6.77606505 20.390958,8.11920415 C16.8523449,10.0518337 17.4253969,15.0886161 21,16.43773 L21,16.4362686 L21,16.4362686 L21,16.4362686 Z"/>
        </g>
      </g>
      <g fill="#28B8BB" transform="translate(175 58)">
        <text font-family="PingFangSC-Regular, PingFang SC" font-size="14">
          <tspan x="0" y="39">Web</tspan>
        </text>
        <path fill-rule="nonzero" d="M25.3583333,7.33333333 C25.76625,8.48191667 26,9.713 26,11 C26,17.02525 21.1288333,21.9294167 15.11825,21.9935833 L15.11825,21.9935833 L19.8775833,13.75 C20.3414167,12.9378333 20.6145833,12.001 20.6145833,11 C20.6145833,9.59016667 20.0774167,8.30775 19.2029167,7.33333333 L19.2029167,7.33333333 Z M5.53908333,5.41566667 L10.3515833,13.75 C11.3095,15.3899167 13.0823333,16.5 15.1145833,16.5 C15.5005,16.5 15.8763333,16.4596667 16.24025,16.3835833 L16.24025,16.3835833 L13.0988333,21.824 C7.938,20.91925 4,16.4165833 4,11 C4,8.96041667 4.56833333,7.05466667 5.53908333,5.41566667 L5.53908333,5.41566667 Z M15.1145833,7.33333333 C17.1396274,7.33333333 18.78125,8.97495592 18.78125,11 C18.78125,13.0250441 17.1396274,14.6666667 15.1145833,14.6666667 C13.0895393,14.6666667 11.4479167,13.0250441 11.4479167,11 C11.4479167,8.97495592 13.0895393,7.33333333 15.1145833,7.33333333 Z M15,5.60440583e-13 C19.06175,5.60440583e-13 22.6065,2.21741667 24.51225,5.5 L24.51225,5.5 L15.1145833,5.5 C12.6799167,5.5 10.61375,7.09041667 9.89141667,9.28675 L9.89141667,9.28675 L6.71608333,3.78583333 C8.73366667,1.47125 11.6954167,5.60440583e-13 15,5.60440583e-13 Z"/>
      </g>
      <g transform="translate(16 56)">
        <g fill-rule="nonzero" transform="translate(2)">
          <rect width="24" height="24" fill="#000" opacity="0"/>
          <path fill="#28B8BB" d="M19.889116,8.25588864 C19.1818423,8.25588864 18.5959323,8.81588948 18.5959323,9.49589049 L18.5959323,14.3181704 C18.5959323,14.9981714 19.1618422,15.5586268 19.889116,15.5586268 C20.5959323,15.5586268 21.1818452,14.9981714 21.1818452,14.3177159 L21.1818452,9.49634503 C21.1618452,8.81634401 20.5959323,8.25634318 19.889116,8.2563432 L19.889116,8.25588864 Z M4.29272921,8.25588864 C3.58636452,8.25588864 3,8.81588948 3,9.49543594 L3,14.3181704 C3,14.9981714 3.56545538,15.5586268 4.29272921,15.5586268 C5.02000301,15.5586268 5.58591294,14.9981714 5.58591294,14.3177159 L5.58591294,9.49634503 C5.58591294,8.81634401 5.02000299,8.25634318 4.29272921,8.2563432 L4.29272921,8.25588864 Z M6.37364138,8.29588871 L6.37364138,17.1186291 C6.37364138,17.6386299 6.8181875,18.0786305 7.38364289,18.0786305 L8.5354628,18.0786305 L8.5354628,20.7595436 C8.5354628,21.4399992 9.10091818,22 9.82819198,22 C10.5354658,22 11.1213757,21.4399992 11.1213757,20.7595436 L11.1213757,18.0786305 L13.1413787,18.0786305 L13.1413787,20.7595436 C13.1413787,21.4399992 13.7072887,22 14.4345625,22 C15.1409272,22 15.7272917,21.4399992 15.7272917,20.7595436 L15.7272917,18.0786305 L16.878657,18.0786305 C17.444567,18.0786305 17.8891131,17.6586299 17.8891131,17.1186291 L17.8891131,8.29543417 L6.37364138,8.29543417 L6.37364138,8.29588871 Z M14.8181994,3.73406374 L15.8891101,2.29360704 C15.9291102,2.19360689 15.9291102,2.07360671 15.8282009,2.03360666 C15.7472917,1.97360658 15.6263824,2.01360664 15.5654732,2.09360675 L14.4745625,3.59406353 C13.7099386,3.31856362 12.9036612,3.17649643 12.0909226,3.17406291 C11.242285,3.17406291 10.4345565,3.31406311 9.7072827,3.59406353 L8.616372,2.09406129 C8.55546282,1.99406114 8.43455353,1.97360656 8.35364433,2.03360666 C8.27181091,2.09487193 8.25366924,2.21017228 8.31273518,2.29360704 L9.38364586,3.73451828 C7.70727973,4.47451938 6.51545978,5.87497601 6.37364138,7.515433 L17.869113,7.515433 C17.6872946,5.87452148 16.5150201,4.4745194 14.8181994,3.73406374 L14.8181994,3.73406374 Z M9.6668281,6.01497622 C9.3031912,6.01497622 9.04046354,5.75497583 9.04046354,5.41497533 C9.04046354,5.07452027 9.32319124,4.81497443 9.6668281,4.81497443 C10.030465,4.81497443 10.2927381,5.07452027 10.2927381,5.41497533 C10.2927381,5.75497583 10.0100104,6.01497622 9.6668281,6.01497622 Z M14.5959264,6.01497622 C14.2322895,6.01497622 13.9695618,5.75497583 13.9695618,5.41497533 C13.9695618,5.07452027 14.252744,4.81497443 14.5959264,4.81497443 C14.9595633,4.81497443 15.2222909,5.07452027 15.2222909,5.41497533 C15.2222909,5.75497583 14.9395632,6.01497622 14.5959264,6.01497622 Z"/>
        </g>
        <text fill="#28B8BB" font-family="PingFangSC-Regular, PingFang SC" font-size="14">
          <tspan x="0" y="41">安卓</tspan>
        </text>
      </g>
    </g>
    <g transform="translate(400)">
      <polygon fill="#E6F4F9" points="0 0 300 0 300 264 0 264"/>
      <rect width="300" height="44" fill="#24B5E9"/>
      <g transform="translate(16 60)">
        <path fill="#E6F4F9" stroke="#00AAE7" d="M266,0.5 C266.414214,0.5 266.789214,0.667893219 267.06066,0.939339828 C267.332107,1.21078644 267.5,1.58578644 267.5,2 L267.5,2 L267.5,42 C267.5,42.4142136 267.332107,42.7892136 267.06066,43.0606602 C266.789214,43.3321068 266.414214,43.5 266,43.5 L266,43.5 L2,43.5 C1.58578644,43.5 1.21078644,43.3321068 0.939339828,43.0606602 C0.667893219,42.7892136 0.5,42.4142136 0.5,42 L0.5,42 L0.5,2 C0.5,1.58578644 0.667893219,1.21078644 0.939339828,0.939339828 C1.21078644,0.667893219 1.58578644,0.5 2,0.5 L2,0.5 Z"/>
        <text fill="#24B5E9" font-family="PingFangSC-Regular, PingFang SC" font-size="14">
          <tspan x="78" y="27">连麦互动实时网络</tspan>
        </text>
      </g>
      <path fill="#00AAE7" fill-rule="nonzero" d="M81,115 L81,130 L87,130 L80,144 L73,130 L79,130 L79,115 L81,115 Z"/>
      <path fill="#FFF" d="M18,156 L282,156 C283.104569,156 284,156.895431 284,158 L284,246 C284,247.104569 283.104569,248 282,248 L18,248 C16.8954305,248 16,247.104569 16,246 L16,158 C16,156.895431 16.8954305,156 18,156 Z"/>
      <path fill="#00AAE7" fill-rule="nonzero" d="M221.5,115 L221.5,130 L227.5,130 L220.5,144 L213.5,130 L219.5,130 L219.5,115 L221.5,115 Z"/>
      <g transform="translate(30 170)">
        <path fill="#E6F4F9" stroke="#00AAE7" d="M110,0.5 C110.414214,0.5 110.789214,0.667893219 111.06066,0.939339828 C111.332107,1.21078644 111.5,1.58578644 111.5,2 L111.5,2 L111.5,38 C111.5,38.4142136 111.332107,38.7892136 111.06066,39.0606602 C110.789214,39.3321068 110.414214,39.5 110,39.5 L110,39.5 L2,39.5 C1.58578644,39.5 1.21078644,39.3321068 0.939339828,39.0606602 C0.667893219,38.7892136 0.5,38.4142136 0.5,38 L0.5,38 L0.5,2 C0.5,1.58578644 0.667893219,1.21078644 0.939339828,0.939339828 C1.21078644,0.667893219 1.58578644,0.5 2,0.5 L2,0.5 Z"/>
        <text fill="#24B5E9" font-family="PingFangSC-Regular, PingFang SC" font-size="14">
          <tspan x="14" y="25">单路转推服务</tspan>
        </text>
        <g transform="translate(128)">
          <path fill="#E6F4F9" stroke="#00AAE7" d="M110,0.5 C110.414214,0.5 110.789214,0.667893219 111.06066,0.939339828 C111.332107,1.21078644 111.5,1.58578644 111.5,2 L111.5,2 L111.5,38 C111.5,38.4142136 111.332107,38.7892136 111.06066,39.0606602 C110.789214,39.3321068 110.414214,39.5 110,39.5 L110,39.5 L2,39.5 C1.58578644,39.5 1.21078644,39.3321068 0.939339828,39.0606602 C0.667893219,38.7892136 0.5,38.4142136 0.5,38 L0.5,38 L0.5,2 C0.5,1.58578644 0.667893219,1.21078644 0.939339828,0.939339828 C1.21078644,0.667893219 1.58578644,0.5 2,0.5 L2,0.5 Z"/>
          <text fill="#24B5E9" font-family="PingFangSC-Regular, PingFang SC" font-size="14">
            <tspan x="14" y="25">合流转推服务</tspan>
          </text>
        </g>
      </g>
      <text fill="#FFF" font-family="PingFangSC-Medium, PingFang SC" font-size="18" font-weight="400">
        <tspan x="77" y="29">实时音视频 QRTC</tspan>
      </text>
      <text fill="#46B5EC" font-family="PingFangSC-Regular, PingFang SC" font-size="14">
        <tspan x="108" y="234">实时内容审核</tspan>
      </text>
    </g>
    <g transform="translate(510 274)">
      <path fill="#00AAE7" fill-rule="nonzero" d="M41.5,-1 L41.5,74 L47.5,74 L40.5,88 L33.5,74 L39.5,74 L39.5,-1 L41.5,-1 Z"/>
      <g transform="translate(0 26)">
        <path fill="#E2F5FC" stroke="#1AB9EB" d="M78,0.5 C78.4142136,0.5 78.7892136,0.667893219 79.0606602,0.939339828 C79.3321068,1.21078644 79.5,1.58578644 79.5,2 L79.5,2 L79.5,30 C79.5,30.4142136 79.3321068,30.7892136 79.0606602,31.0606602 C78.7892136,31.3321068 78.4142136,31.5 78,31.5 L78,31.5 L2,31.5 C1.58578644,31.5 1.21078644,31.3321068 0.939339828,31.0606602 C0.667893219,30.7892136 0.5,30.4142136 0.5,30 L0.5,30 L0.5,2 C0.5,1.58578644 0.667893219,1.21078644 0.939339828,0.939339828 C1.21078644,0.667893219 1.58578644,0.5 2,0.5 L2,0.5 Z"/>
        <text fill="#00AAE7" font-family="PingFangSC-Regular, PingFang SC" font-size="14">
          <tspan x="12" y="21">旁路直播</tspan>
        </text>
      </g>
    </g>
    <g transform="translate(950 274)">
      <path fill="#44C0C3" fill-rule="nonzero" d="M40.5,0 L47.5,14 L41.5,14 L41.5,89 L39.5,89 L39.5,14 L33.5,14 L40.5,0 Z"/>
      <g transform="translate(0 26)">
        <path fill="#E7F7F8" stroke="#44C0C3" d="M78,0.5 C78.4142136,0.5 78.7892136,0.667893219 79.0606602,0.939339828 C79.3321068,1.21078644 79.5,1.58578644 79.5,2 L79.5,2 L79.5,30 C79.5,30.4142136 79.3321068,30.7892136 79.0606602,31.0606602 C78.7892136,31.3321068 78.4142136,31.5 78,31.5 L78,31.5 L2,31.5 C1.58578644,31.5 1.21078644,31.3321068 0.939339828,31.0606602 C0.667893219,30.7892136 0.5,30.4142136 0.5,30 L0.5,30 L0.5,2 C0.5,1.58578644 0.667893219,1.21078644 0.939339828,0.939339828 C1.21078644,0.667893219 1.58578644,0.5 2,0.5 L2,0.5 Z"/>
        <text fill="#44C0C3" font-family="PingFangSC-Regular, PingFang SC" font-size="14">
          <tspan x="12" y="21">申请上麦</tspan>
        </text>
      </g>
    </g>
    <g transform="translate(400 370)">
      <polygon fill="#E6F4F9" points="0 0 300 0 300 264 0 264"/>
      <rect width="300" height="44" fill="#24B5E9"/>
      <g transform="translate(30 60)">
        <path fill="#E6F4F9" stroke="#00AAE7" d="M238,0.5 C238.414214,0.5 238.789214,0.667893219 239.06066,0.939339828 C239.332107,1.21078644 239.5,1.58578644 239.5,2 L239.5,2 L239.5,42 C239.5,42.4142136 239.332107,42.7892136 239.06066,43.0606602 C238.789214,43.3321068 238.414214,43.5 238,43.5 L238,43.5 L2,43.5 C1.58578644,43.5 1.21078644,43.3321068 0.939339828,43.0606602 C0.667893219,42.7892136 0.5,42.4142136 0.5,42 L0.5,42 L0.5,2 C0.5,1.58578644 0.667893219,1.21078644 0.939339828,0.939339828 C1.21078644,0.667893219 1.58578644,0.5 2,0.5 L2,0.5 Z"/>
        <text fill="#24B5E9" font-family="PingFangSC-Regular, PingFang SC" font-size="14">
          <tspan x="64" y="27">直播内容分发加速</tspan>
        </text>
      </g>
      <path fill="#00AAE7" fill-rule="nonzero" d="M81.5 123L81.5 138 87.5 138 80.5 152 73.5 138 79.5 138 79.5 123 81.5 123zM221.5 123L221.5 138 227.5 138 220.5 152 213.5 138 219.5 138 219.5 123 221.5 123z"/>
      <g transform="translate(30 172)">
        <path fill="#E6F4F9" stroke="#00AAE7" d="M110,0.5 C110.414214,0.5 110.789214,0.667893219 111.06066,0.939339828 C111.332107,1.21078644 111.5,1.58578644 111.5,2 L111.5,2 L111.5,46 C111.5,46.4142136 111.332107,46.7892136 111.06066,47.0606602 C110.789214,47.3321068 110.414214,47.5 110,47.5 L110,47.5 L2,47.5 C1.58578644,47.5 1.21078644,47.3321068 0.939339828,47.0606602 C0.667893219,46.7892136 0.5,46.4142136 0.5,46 L0.5,46 L0.5,2 C0.5,1.58578644 0.667893219,1.21078644 0.939339828,0.939339828 C1.21078644,0.667893219 1.58578644,0.5 2,0.5 L2,0.5 Z"/>
        <text fill="#24B5E9" font-family="PingFangSC-Regular, PingFang SC" font-size="14">
          <tspan x="14" y="29">实时转码服务</tspan>
        </text>
      </g>
      <g transform="translate(158 172)">
        <path fill="#E6F4F9" stroke="#00AAE7" d="M110,0.5 C110.414214,0.5 110.789214,0.667893219 111.06066,0.939339828 C111.332107,1.21078644 111.5,1.58578644 111.5,2 L111.5,2 L111.5,46 C111.5,46.4142136 111.332107,46.7892136 111.06066,47.0606602 C110.789214,47.3321068 110.414214,47.5 110,47.5 L110,47.5 L2,47.5 C1.58578644,47.5 1.21078644,47.3321068 0.939339828,47.0606602 C0.667893219,46.7892136 0.5,46.4142136 0.5,46 L0.5,46 L0.5,2 C0.5,1.58578644 0.667893219,1.21078644 0.939339828,0.939339828 C1.21078644,0.667893219 1.58578644,0.5 2,0.5 L2,0.5 Z"/>
        <text fill="#00AAE7" font-family="PingFangSC-Regular, PingFang SC" font-size="14">
          <tspan x="14" y="19">直播内容审核</tspan> <tspan x="28" y="39">（六鉴）</tspan>
        </text>
      </g>
      <text fill="#FFF" font-family="PingFangSC-Medium, PingFang SC" font-size="18" font-weight="400">
        <tspan x="98" y="29">视频直播 Pili</tspan>
      </text>
    </g>
  </g>
</svg>
