<?xml version="1.0" encoding="UTF-8"?>
<svg width="520px" height="350px" viewBox="0 0 520 350" version="1.1" xmlns="http://www.w3.org/2000/svg" xmlns:xlink="http://www.w3.org/1999/xlink">
    <title>插画</title>
    <defs>
        <filter x="-55.0%" y="-254.8%" width="210.0%" height="609.5%" filterUnits="objectBoundingBox" id="filter-1">
            <feGaussianBlur stdDeviation="50" in="SourceGraphic"></feGaussianBlur>
        </filter>
        <linearGradient x1="50%" y1="0%" x2="50%" y2="100%" id="linearGradient-2">
            <stop stop-color="#7AE9FF" stop-opacity="0" offset="0%"></stop>
            <stop stop-color="#44CFFF" offset="100%"></stop>
        </linearGradient>
        <linearGradient x1="50%" y1="0%" x2="50%" y2="100%" id="linearGradient-3">
            <stop stop-color="#7AE9FF" stop-opacity="0" offset="0%"></stop>
            <stop stop-color="#56D3FF" stop-opacity="0.500027316" offset="100%"></stop>
        </linearGradient>
        <filter x="-15.0%" y="-100.0%" width="130.0%" height="300.0%" filterUnits="objectBoundingBox" id="filter-4">
            <feGaussianBlur stdDeviation="10" in="SourceGraphic"></feGaussianBlur>
        </filter>
        <linearGradient x1="50%" y1="0%" x2="50%" y2="97.6061022%" id="linearGradient-5">
            <stop stop-color="#E2F7FF" offset="0%"></stop>
            <stop stop-color="#94D8FF" offset="100%"></stop>
        </linearGradient>
        <linearGradient x1="50%" y1="0%" x2="50%" y2="100%" id="linearGradient-6">
            <stop stop-color="#33A1EC" offset="0%"></stop>
            <stop stop-color="#73C6F5" offset="100%"></stop>
        </linearGradient>
        <rect id="path-7" x="12" y="24" width="24" height="12"></rect>
        <filter x="-8.3%" y="-16.7%" width="116.7%" height="133.3%" filterUnits="objectBoundingBox" id="filter-8">
            <feGaussianBlur stdDeviation="1.5" in="SourceAlpha" result="shadowBlurInner1"></feGaussianBlur>
            <feOffset dx="0" dy="1" in="shadowBlurInner1" result="shadowOffsetInner1"></feOffset>
            <feComposite in="shadowOffsetInner1" in2="SourceAlpha" operator="arithmetic" k2="-1" k3="1" result="shadowInnerInner1"></feComposite>
            <feColorMatrix values="0 0 0 0 0.184313725   0 0 0 0 0.643137255   0 0 0 0 0.929411765  0 0 0 1 0" type="matrix" in="shadowInnerInner1"></feColorMatrix>
        </filter>
        <linearGradient x1="62.1048635%" y1="100%" x2="62.1048635%" y2="0%" id="linearGradient-9">
            <stop stop-color="#77C9F5" offset="0%"></stop>
            <stop stop-color="#A1E7FF" stop-opacity="0" offset="100%"></stop>
        </linearGradient>
        <rect id="path-10" x="12" y="24" width="24" height="12"></rect>
        <filter x="-8.3%" y="-16.7%" width="116.7%" height="133.3%" filterUnits="objectBoundingBox" id="filter-11">
            <feGaussianBlur stdDeviation="1.5" in="SourceAlpha" result="shadowBlurInner1"></feGaussianBlur>
            <feOffset dx="0" dy="1" in="shadowBlurInner1" result="shadowOffsetInner1"></feOffset>
            <feComposite in="shadowOffsetInner1" in2="SourceAlpha" operator="arithmetic" k2="-1" k3="1" result="shadowInnerInner1"></feComposite>
            <feColorMatrix values="0 0 0 0 0.203921569   0 0 0 0 0.631372549   0 0 0 0 0.925490196  0 0 0 1 0" type="matrix" in="shadowInnerInner1"></feColorMatrix>
        </filter>
        <rect id="path-12" x="12" y="24" width="24" height="12"></rect>
        <filter x="-8.3%" y="-16.7%" width="116.7%" height="133.3%" filterUnits="objectBoundingBox" id="filter-13">
            <feGaussianBlur stdDeviation="1.5" in="SourceAlpha" result="shadowBlurInner1"></feGaussianBlur>
            <feOffset dx="0" dy="1" in="shadowBlurInner1" result="shadowOffsetInner1"></feOffset>
            <feComposite in="shadowOffsetInner1" in2="SourceAlpha" operator="arithmetic" k2="-1" k3="1" result="shadowInnerInner1"></feComposite>
            <feColorMatrix values="0 0 0 0 0.203921569   0 0 0 0 0.631372549   0 0 0 0 0.925490196  0 0 0 1 0" type="matrix" in="shadowInnerInner1"></feColorMatrix>
        </filter>
        <linearGradient x1="62.1048635%" y1="100%" x2="62.1048635%" y2="0%" id="linearGradient-14">
            <stop stop-color="#77C9F5" offset="0%"></stop>
            <stop stop-color="#A1E7FF" offset="100%"></stop>
        </linearGradient>
        <linearGradient x1="50%" y1="0%" x2="50%" y2="100%" id="linearGradient-15">
            <stop stop-color="#00D4F5" stop-opacity="0" offset="0%"></stop>
            <stop stop-color="#00BCED" offset="48.7070261%"></stop>
            <stop stop-color="#00AAE7" stop-opacity="0" offset="100%"></stop>
        </linearGradient>
        <linearGradient x1="50%" y1="0%" x2="50%" y2="100%" id="linearGradient-16">
            <stop stop-color="#00D4F5" stop-opacity="0" offset="0%"></stop>
            <stop stop-color="#00BCED" offset="48.7070261%"></stop>
            <stop stop-color="#00AAE7" stop-opacity="0" offset="100%"></stop>
        </linearGradient>
    </defs>
    <g id="产品" stroke="none" stroke-width="1" fill="none" fill-rule="evenodd">
        <g id="存储与数据湖-对象存储✅" transform="translate(-1028.000000, -120.000000)">
            <g id="banner" transform="translate(0.000000, 120.000000)">
                <g id="插画" transform="translate(1135.000000, 40.000000)">
                    <g id="编组-22" transform="translate(0.000000, 155.000000)">
                        <ellipse id="椭圆形" fill="#00BDFF" filter="url(#filter-1)" cx="149.36" cy="49.12" rx="136.32" ry="29.44"></ellipse>
                        <ellipse id="椭圆形" fill="url(#linearGradient-2)" cx="150" cy="29.44" rx="150" ry="29.44"></ellipse>
                        <ellipse id="椭圆形" fill="url(#linearGradient-3)" cx="150" cy="52.44" rx="150" ry="29.44"></ellipse>
                        <ellipse id="椭圆形" fill-opacity="0.5" fill="#0784DA" filter="url(#filter-4)" cx="150" cy="33" rx="100" ry="15"></ellipse>
                    </g>
                    <g id="编组-22备份" transform="translate(70.000000, 47.000000)">
                        <g id="编组-21备份" transform="translate(0.000000, 96.000000)">
                            <rect id="矩形" fill="url(#linearGradient-5)" x="0" y="10" width="160" height="40"></rect>
                            <g id="矩形">
                                <use fill="url(#linearGradient-6)" fill-rule="evenodd" xlink:href="#path-7"></use>
                                <use fill="black" fill-opacity="1" filter="url(#filter-8)" xlink:href="#path-7"></use>
                            </g>
                            <path d="M21.5629144,0 L141.717641,0 C142.423748,2.02983938e-14 143.117273,0.186915025 143.727747,0.541752862 L160,10 L160,10 L0,10 L19.8192006,0.400074705 C20.3627791,0.136778894 20.9589258,8.9927351e-15 21.5629144,0 Z" id="矩形" fill="url(#linearGradient-9)"></path>
                        </g>
                        <g id="编组-21备份" transform="translate(0.000000, 48.000000)">
                            <rect id="矩形" fill="url(#linearGradient-5)" x="0" y="10" width="160" height="40"></rect>
                            <g id="矩形">
                                <use fill="url(#linearGradient-6)" fill-rule="evenodd" xlink:href="#path-10"></use>
                                <use fill="black" fill-opacity="1" filter="url(#filter-11)" xlink:href="#path-10"></use>
                            </g>
                            <path d="M21.5629144,0 L141.717641,0 C142.423748,2.02983938e-14 143.117273,0.186915025 143.727747,0.541752862 L160,10 L160,10 L0,10 L19.8192006,0.400074705 C20.3627791,0.136778894 20.9589258,8.9927351e-15 21.5629144,0 Z" id="矩形" fill="url(#linearGradient-9)"></path>
                        </g>
                        <g id="编组-21备份">
                            <rect id="矩形" fill="url(#linearGradient-5)" x="0" y="10" width="160" height="40"></rect>
                            <g id="矩形">
                                <use fill="url(#linearGradient-6)" fill-rule="evenodd" xlink:href="#path-12"></use>
                                <use fill="black" fill-opacity="1" filter="url(#filter-13)" xlink:href="#path-12"></use>
                            </g>
                            <path d="M21.5629144,0 L141.717641,0 C142.423748,2.02983938e-14 143.117273,0.186915025 143.727747,0.541752862 L160,10 L160,10 L0,10 L19.8192006,0.400074705 C20.3627791,0.136778894 20.9589258,8.9927351e-15 21.5629144,0 Z" id="矩形" fill="url(#linearGradient-14)"></path>
                        </g>
                    </g>
                    <g id="编组-21" transform="translate(2.000000, 0.000000)" fill-rule="nonzero">
                        <polygon id="路径" fill="url(#linearGradient-15)" points="4 96 4 126 0 126 0 96"></polygon>
                        <path d="M27,33 L27,60 L27,60 L24,60 L24,30 C25.6568542,30 27,31.3431458 27,33 Z" id="路径" fill="url(#linearGradient-16)"></path>
                        <path d="M275,37 L275,63 L275,63 L271,63 L271,33 C273.209139,33 275,34.790861 275,37 Z" id="路径" fill="url(#linearGradient-15)"></path>
                        <path d="M298,109 L298,135 L298,135 L294,135 L294,105 C296.209139,105 298,106.790861 298,109 Z" id="路径" fill="url(#linearGradient-15)" opacity="0.300000012"></path>
                        <path d="M228,4 L228,30 L228,30 L224,30 L224,0 C226.209139,-4.05812251e-16 228,1.790861 228,4 Z" id="路径" fill="url(#linearGradient-15)" opacity="0.400000006"></path>
                        <path d="M312,166 L312,193 L312,193 L309,193 L309,163 C310.656854,163 312,164.343146 312,166 Z" id="路径" fill="url(#linearGradient-16)" opacity="0.449999988"></path>
                    </g>
                </g>
            </g>
        </g>
    </g>
</svg>