<svg width="64" height="64" viewBox="0 0 64 64" fill="none" xmlns="http://www.w3.org/2000/svg">
<path d="M30.1564 10C29.2374 7.89441 27.6215 6.16944 25.5802 5.11515C23.539 4.06087 21.1971 3.74157 18.9481 4.21095C16.6992 4.68033 14.6804 5.90976 13.2313 7.69252C11.7823 9.47527 10.9912 11.7026 10.9912 14C10.9912 16.2974 11.7823 18.5248 13.2313 20.3075C14.6804 22.0903 16.6992 23.3197 18.9481 23.7891C21.1971 24.2585 23.539 23.9392 25.5802 22.8849C27.6215 21.8306 29.2374 20.1056 30.1564 18H38.0004L42.0004 21L46.0004 18H51.0004L53.0004 10H30.1564Z" stroke="#00AAE7" stroke-width="2" stroke-miterlimit="10" stroke-linecap="square"/>
<path d="M11 34H13C17.6 34 22.6 36.4 25 40H33C37 40 41 44 41 48H23" stroke="#333333" stroke-width="2" stroke-miterlimit="10"/>
<path d="M39.8 44H53C60.2 44 61 48 61 48L32.4 59.6C31.2852 60.0626 30.0851 60.2839 28.8786 60.2494C27.6721 60.215 26.4866 59.9255 25.4 59.4L11 52" stroke="#333333" stroke-width="2" stroke-miterlimit="10"/>
<path d="M11 30H3V56H11V30Z" stroke="#333333" stroke-width="2" stroke-miterlimit="10" stroke-linecap="square"/>
<path d="M19 17C20.6569 17 22 15.6569 22 14C22 12.3431 20.6569 11 19 11C17.3431 11 16 12.3431 16 14C16 15.6569 17.3431 17 19 17Z" stroke="#00AAE7" stroke-width="2" stroke-miterlimit="10" stroke-linecap="square"/>
</svg>
