<?xml version="1.0" encoding="UTF-8"?>
<svg width="62px" height="62px" viewBox="0 0 62 62" version="1.1" xmlns="http://www.w3.org/2000/svg" xmlns:xlink="http://www.w3.org/1999/xlink">
    <title>group</title>
    <g id="产品" stroke="none" stroke-width="1" fill="none" fill-rule="evenodd" stroke-linecap="square">
        <g id="智能视频-人脸核验" transform="translate(-425.000000, -1483.000000)" stroke-width="2">
            <g id="产品介绍-2" transform="translate(0.000000, 1096.000000)">
                <g id="编组-44" transform="translate(372.000000, 148.000000)">
                    <g id="编组-5" transform="translate(0.000000, 188.000000)">
                        <g id="编组-46" transform="translate(24.000000, 22.000000)">
                            <g id="group" transform="translate(30.000000, 30.000000)">
                                <rect id="矩形" stroke="#00AAE7" x="16" y="16" width="20" height="20"></rect>
                                <polyline id="路径" stroke="#00AAE7" points="36 24 44 24 44 44 24 44 24 36"></polyline>
                                <line x1="10" y1="5" x2="50" y2="5" id="路径" stroke="#333333"></line>
                                <rect id="矩形" stroke="#333333" x="0" y="0" width="10" height="10"></rect>
                                <rect id="矩形" stroke="#333333" x="50" y="0" width="10" height="10"></rect>
                                <line x1="10" y1="55" x2="50" y2="55" id="路径" stroke="#333333"></line>
                                <rect id="矩形" stroke="#333333" x="0" y="50" width="10" height="10"></rect>
                                <rect id="矩形" stroke="#333333" x="50" y="50" width="10" height="10"></rect>
                                <line x1="5" y1="10" x2="5" y2="50" id="路径" stroke="#333333"></line>
                                <line x1="55" y1="10" x2="55" y2="50" id="路径" stroke="#333333"></line>
                            </g>
                        </g>
                    </g>
                </g>
            </g>
        </g>
    </g>
</svg>