<?xml version="1.0" encoding="UTF-8"?>
<svg width="60px" height="61px" viewBox="0 0 60 61" version="1.1" xmlns="http://www.w3.org/2000/svg" xmlns:xlink="http://www.w3.org/1999/xlink">
    <title>compass</title>
    <g id="产品" stroke="none" stroke-width="1" fill="none" fill-rule="evenodd">
        <g id="智能视频-人脸核验" transform="translate(-426.000000, -1296.000000)" stroke-width="2">
            <g id="产品介绍-2" transform="translate(0.000000, 1096.000000)">
                <g id="编组-44" transform="translate(372.000000, 148.000000)">
                    <g id="编组-5">
                        <g id="编组-19" transform="translate(24.000000, 22.000000)">
                            <g id="compass" transform="translate(32.000000, 31.000000)">
                                <line x1="46.987" y1="40" x2="54" y2="40" id="路径" stroke="#00AAE7"></line>
                                <line x1="18" y1="40" x2="38" y2="40" id="路径" stroke="#00AAE7"></line>
                                <line x1="2" y1="40" x2="9.013" y2="40" id="路径" stroke="#00AAE7"></line>
                                <path d="M27.03,21.939 L11.688,52.624 C9.533,56.934 4.674,59.169 0,58 L0,58 L20.56,16.938" id="路径" stroke="#333333"></path>
                                <path d="M28.97,21.939 L44.313,52.624 C46.467,56.934 51.326,59.169 56,58 L56,58 L35.44,16.938" id="路径" stroke="#333333"></path>
                                <circle id="椭圆形" stroke="#00AAE7" stroke-linecap="square" cx="28" cy="14" r="8"></circle>
                                <line x1="28" y1="0" x2="28" y2="6" id="路径" stroke="#00AAE7" stroke-linecap="square"></line>
                                <line x1="28" y1="36" x2="28" y2="44" id="路径" stroke="#00AAE7" stroke-linecap="square"></line>
                            </g>
                        </g>
                    </g>
                </g>
            </g>
        </g>
    </g>
</svg>