<?xml version="1.0" encoding="UTF-8"?>
<svg width="62px" height="62px" viewBox="0 0 62 62" version="1.1" xmlns="http://www.w3.org/2000/svg" xmlns:xlink="http://www.w3.org/1999/xlink">
    <title>badge</title>
    <g id="产品" stroke="none" stroke-width="1" fill="none" fill-rule="evenodd">
        <g id="智能视频-人脸核验" transform="translate(-1329.000000, -753.000000)">
            <g id="核心功能" transform="translate(0.000000, 542.000000)">
                <g id="编组-5" transform="translate(372.000000, 182.000000)">
                    <g id="01" transform="translate(800.000000, 0.000000)">
                        <g id="编组-6" transform="translate(128.000000, 0.000000)">
                            <g id="badge" transform="translate(30.000000, 30.000000)">
                                <polyline id="路径" stroke="#333333" stroke-width="2" stroke-linecap="square" points="35.999 14 60 14 60 60 0 60 0 14 23.999 14"></polyline>
                                <path d="M36,20 L24,20 L24,6 C24,2.686 26.686,0 30,0 L30,0 C33.314,0 36,2.686 36,6 L36,20 Z" id="路径" stroke="#333333" stroke-width="2" stroke-linecap="square"></path>
                                <circle id="椭圆形" fill="#333333" fill-rule="nonzero" cx="30" cy="7" r="2"></circle>
                                <line x1="36" y1="35" x2="50" y2="35" id="路径" stroke="#00AAE7" stroke-width="2" stroke-linecap="square"></line>
                                <line x1="36" y1="45" x2="50" y2="45" id="路径" stroke="#00AAE7" stroke-width="2" stroke-linecap="square"></line>
                                <circle id="椭圆形" stroke="#00AAE7" stroke-width="2" stroke-linecap="square" cx="18" cy="33" r="4"></circle>
                                <path d="M28,50 L8,50 L8,50 C8,45.582 11.582,42 16,42 L20,42 C24.418,42 28,45.582 28,50 L28,50 Z" id="路径" stroke="#00AAE7" stroke-width="2" stroke-linecap="square"></path>
                            </g>
                        </g>
                    </g>
                </g>
            </g>
        </g>
    </g>
</svg>