<svg xmlns="http://www.w3.org/2000/svg" width="56" height="62" viewBox="0 0 56 62">
  <g fill="none" fill-rule="evenodd" stroke-width="2" transform="translate(1 1)">
    <path stroke="#00AAE7" d="M18.725,37.697 L3.108,46.29 C1.191,47.345 0,49.359 0,51.547 L0,60 L54,60 L54,51.547 C54,49.359 52.809,47.345 50.892,46.29 L35.274,37.697"/>
    <path stroke="#333" d="M42.719 27C41.315 34.402 34.811 40 27 40L27 40C19.189 40 12.685 34.402 11.281 27M11.281 13C12.685 5.598 19.189 0 27 0L27 0C34.811 0 41.315 5.598 42.719 13"/>
    <path stroke="#00AAE7" stroke-linecap="square" d="M7 24L7 16C7 14.343 8.343 13 10 13L21 13C22.657 13 24 14.343 24 16L24 21C24 24.314 21.314 27 18 27L10 27C8.343 27 7 25.657 7 24zM30 21L30 16C30 14.343 31.343 13 33 13L44 13C45.657 13 47 14.343 47 16L47 24C47 25.657 45.657 27 44 27L36 27C32.686 27 30 24.314 30 21z"/>
    <line x1="24" x2="30" y1="17" y2="17" stroke="#00AAE7" stroke-linecap="square"/>
    <line x1="24" x2="30" y1="32" y2="32" stroke="#333" stroke-linecap="square"/>
  </g>
</svg>
