<svg xmlns="http://www.w3.org/2000/svg" width="58" height="62" viewBox="0 0 58 62">
  <g fill="none" fill-rule="evenodd" stroke-linecap="square" stroke-width="2" transform="translate(1 1)">
    <line x1="10" x2="10" y2="60" stroke="#333"/>
    <path stroke="#333" d="M0,0 L45.818,0 C48.128,0 50,1.791 50,4 L50,56 C50,58.209 48.128,60 45.818,60 L0,60 L0,0 Z"/>
    <line x1="56" x2="56" y1="8" y2="16" stroke="#00AAE7"/>
    <line x1="56" x2="56" y1="24" y2="32" stroke="#00AAE7"/>
    <circle cx="30" cy="23" r="4" stroke="#00AAE7"/>
    <path stroke="#00AAE7" d="M40,40 L20,40 L20,40 C20,35.582 23.582,32 28,32 L32,32 C36.418,32 40,35.582 40,40 L40,40 Z"/>
  </g>
</svg>
