<svg xmlns="http://www.w3.org/2000/svg" width="62" height="62" viewBox="0 0 62 62">
  <g fill="none" fill-rule="evenodd" transform="translate(1 1)">
    <polyline stroke="#333" stroke-linecap="square" stroke-width="2" points="35.999 14 60 14 60 60 0 60 0 14 23.999 14"/>
    <path stroke="#333" stroke-linecap="square" stroke-width="2" d="M36,20 L24,20 L24,6 C24,2.686 26.686,0 30,0 L30,0 C33.314,0 36,2.686 36,6 L36,20 Z"/>
    <circle cx="30" cy="7" r="2" fill="#333" fill-rule="nonzero"/>
    <line x1="36" x2="50" y1="35" y2="35" stroke="#00AAE7" stroke-linecap="square" stroke-width="2"/>
    <line x1="36" x2="50" y1="45" y2="45" stroke="#00AAE7" stroke-linecap="square" stroke-width="2"/>
    <circle cx="18" cy="33" r="4" stroke="#00AAE7" stroke-linecap="square" stroke-width="2"/>
    <path stroke="#00AAE7" stroke-linecap="square" stroke-width="2" d="M28,50 L8,50 L8,50 C8,45.582 11.582,42 16,42 L20,42 C24.418,42 28,45.582 28,50 L28,50 Z"/>
  </g>
</svg>
