<svg width="64" height="64" viewBox="0 0 64 64" fill="none" xmlns="http://www.w3.org/2000/svg">
<path d="M45 18H36" stroke="#00AAE7" stroke-width="2" stroke-miterlimit="10" stroke-linecap="square"/>
<path d="M54 10H36" stroke="#00AAE7" stroke-width="2" stroke-miterlimit="10" stroke-linecap="square"/>
<path d="M28 6C28 4.93913 28.4214 3.92172 29.1716 3.17157C29.9217 2.42143 30.9391 2 32 2H58C59.0609 2 60.0783 2.42143 60.8284 3.17157C61.5786 3.92172 62 4.93913 62 6V22C62 23.0609 61.5786 24.0783 60.8284 24.8284C60.0783 25.5786 59.0609 26 58 26H37L28 33V6Z" stroke="#00AAE7" stroke-width="2" stroke-miterlimit="10" stroke-linecap="square"/>
<path d="M7 14H23" stroke="#333333" stroke-width="2" stroke-miterlimit="10" stroke-linecap="square"/>
<path d="M7 52H45" stroke="#333333" stroke-width="2" stroke-miterlimit="10" stroke-linecap="square"/>
<path d="M45 31V57C45 58.3261 44.4732 59.5979 43.5355 60.5355C42.5979 61.4732 41.3261 62 40 62H12C10.6739 62 9.40215 61.4732 8.46447 60.5355C7.52678 59.5979 7 58.3261 7 57V11C7 9.67392 7.52678 8.40215 8.46447 7.46447C9.40215 6.52678 10.6739 6 12 6H23" stroke="#333333" stroke-width="2" stroke-miterlimit="10" stroke-linecap="square"/>
</svg>
