<?xml version="1.0" encoding="UTF-8"?>
<svg width="56px" height="62px" viewBox="0 0 56 62" version="1.1" xmlns="http://www.w3.org/2000/svg" xmlns:xlink="http://www.w3.org/1999/xlink">
    <title>man-glasses</title>
    <g id="产品" stroke="none" stroke-width="1" fill="none" fill-rule="evenodd">
        <g id="智能视频-人脸核验" transform="translate(-532.000000, -753.000000)" stroke-width="2">
            <g id="核心功能" transform="translate(0.000000, 542.000000)">
                <g id="编组-5" transform="translate(372.000000, 182.000000)">
                    <g id="01">
                        <g id="编组-7" transform="translate(128.000000, 0.000000)">
                            <g id="man-glasses" transform="translate(33.000000, 30.000000)">
                                <path d="M18.725,37.697 L3.108,46.29 C1.191,47.345 0,49.359 0,51.547 L0,60 L54,60 L54,51.547 C54,49.359 52.809,47.345 50.892,46.29 L35.274,37.697" id="路径" stroke="#00AAE7"></path>
                                <path d="M42.719,27 C41.315,34.402 34.811,40 27,40 L27,40 C19.189,40 12.685,34.402 11.281,27" id="路径" stroke="#333333"></path>
                                <path d="M11.281,13 C12.685,5.598 19.189,0 27,0 L27,0 C34.811,0 41.315,5.598 42.719,13" id="路径" stroke="#333333"></path>
                                <path d="M7,24 L7,16 C7,14.343 8.343,13 10,13 L21,13 C22.657,13 24,14.343 24,16 L24,21 C24,24.314 21.314,27 18,27 L10,27 C8.343,27 7,25.657 7,24 Z" id="路径" stroke="#00AAE7" stroke-linecap="square"></path>
                                <path d="M30,21 L30,16 C30,14.343 31.343,13 33,13 L44,13 C45.657,13 47,14.343 47,16 L47,24 C47,25.657 45.657,27 44,27 L36,27 C32.686,27 30,24.314 30,21 Z" id="路径" stroke="#00AAE7" stroke-linecap="square"></path>
                                <line x1="24" y1="17" x2="30" y2="17" id="路径" stroke="#00AAE7" stroke-linecap="square"></line>
                                <line x1="24" y1="32" x2="30" y2="32" id="路径" stroke="#333333" stroke-linecap="square"></line>
                            </g>
                        </g>
                    </g>
                </g>
            </g>
        </g>
    </g>
</svg>