<svg xmlns="http://www.w3.org/2000/svg" width="62" height="46" viewBox="0 0 62 46">
  <g fill="none" fill-rule="evenodd" stroke-linecap="square" stroke-width="2" transform="translate(1 1)">
    <path stroke="#333" d="M0,40 L0,4 C0,1.790861 1.790861,0 4,0 L56,0 C58.209139,0 60,1.790861 60,4 L60,40 C60,42.209139 58.209139,44 56,44 L4,44 C1.790861,44 0,42.209139 0,40 Z"/>
    <line x1="8" x2="52" y1="35" y2="35" stroke="#333"/>
    <line x1="8" x2="25" y1="28" y2="28" stroke="#333"/>
    <rect width="10" height="8" x="8" y="10" stroke="#333"/>
    <path stroke="#00AAE7" d="M45.6,19 C49.1344,19 52,21.8656 52,25.4 L36,25.4 C36,21.8656 38.8656,19 42.4,19 L45.6,19 Z M44,7 C46.209139,7 48,8.790861 48,11 C48,13.209139 46.209139,15 44,15 C41.790861,15 40,13.209139 40,11 C40,8.790861 41.790861,7 44,7 Z"/>
  </g>
</svg>
