<svg width="780" height="278" viewBox="0 0 780 278" xmlns="http://www.w3.org/2000/svg" xmlns:xlink="http://www.w3.org/1999/xlink"><defs><rect id="a" x="0" y="0" width="186" height="86"/><rect id="b" x="0" y="0" width="104" height="176"/><rect id="c" x="0" y="0" width="100" height="178"/><mask id="d" maskContentUnits="userSpaceOnUse" maskUnits="objectBoundingBox" x="0" y="0" width="186" height="86" fill="#fff"><use xlink:href="#a"/></mask><mask id="e" maskContentUnits="userSpaceOnUse" maskUnits="objectBoundingBox" x="0" y="0" width="104" height="176" fill="#fff"><use xlink:href="#b"/></mask><mask id="f" maskContentUnits="userSpaceOnUse" maskUnits="objectBoundingBox" x="0" y="0" width="100" height="178" fill="#fff"><use xlink:href="#c"/></mask></defs><g fill="none" fill-rule="evenodd"><g transform="translate(279)"><path d="M2,0 L204,0 C205.104569,1.5271926e-14 206,0.8954305 206,2 L206,276 C206,277.104569 205.104569,278 204,278 L2,278 C0.8954305,278 -8.67738547e-17,277.104569 0,276 L0,2 C-5.7935996e-16,0.8954305 0.8954305,-1.91384796e-17 2,0 Z" fill="#EDF9FA"/><text font-family="PingFangSC-Medium, PingFang SC" font-size="14" font-weight="400" fill="#22B5E9">
                                <tspan x="41" y="27">LiveNet 实时流网络</tspan>
                            </text><g transform="translate(10 44)"><use stroke="#00AAE7" mask="url(#d)" stroke-width="2" stroke-dasharray="2,2" xlink:href="#a"/><g transform="translate(10 10)"><rect stroke="#00AAE7" x=".5" y=".5" width="77" height="27"/><text font-family="PingFangSC-Regular, PingFang SC" font-size="12" fill="#00AAE7">
                                            <tspan x="14" y="18">按需收缩</tspan>
                                        </text><g transform="translate(88)"><rect stroke="#00AAE7" x=".5" y=".5" width="77" height="27"/><text font-family="PingFangSC-Regular, PingFang SC" font-size="12" fill="#00AAE7">
                                            <tspan x="16" y="18">智能选线</tspan>
                                        </text></g><g transform="translate(0 38)"><rect stroke="#00AAE7" x=".5" y=".5" width="77" height="27"/><text font-family="PingFangSC-Regular, PingFang SC" font-size="12" fill="#00AAE7">
                                            <tspan x="12" y="18">故障容错</tspan>
                                        </text></g><g transform="translate(88 38)"><rect stroke="#00AAE7" x=".5" y=".5" width="77" height="27"/><text font-family="PingFangSC-Regular, PingFang SC" font-size="12" fill="#00AAE7">
                                            <tspan x="10" y="18">弱网少卡顿</tspan>
                                        </text></g></g></g><g transform="translate(10 140)"><rect fill="#00AAE7" opacity=".854" width="88" height="36"/><text font-family="PingFangSC-Regular, PingFang SC" font-size="14" fill="#FFF">
                                        <tspan x="16" y="23">认证鉴权</tspan>
                                    </text><g transform="translate(98)"><rect fill="#00AAE7" opacity=".854" width="88" height="36"/><text font-family="PingFangSC-Regular, PingFang SC" font-size="14" fill="#FFF">
                                        <tspan x="16" y="23">直播封面</tspan>
                                    </text></g><g transform="translate(0 46)"><rect fill="#00AAE7" opacity=".854" width="88" height="36"/><text font-family="PingFangSC-Regular, PingFang SC" font-size="14" fill="#FFF">
                                        <tspan x="16" y="23">实时转码</tspan>
                                    </text></g><g transform="translate(98 46)"><rect fill="#00AAE7" opacity=".854" width="88" height="36"/><text font-family="PingFangSC-Regular, PingFang SC" font-size="14" fill="#FFF">
                                        <tspan x="16" y="23">数据统计</tspan>
                                    </text></g><g transform="translate(0 92)"><rect fill="#00AAE7" opacity=".854" width="88" height="36"/><text font-family="PingFangSC-Regular, PingFang SC" font-size="14" fill="#FFF">
                                        <tspan x="16" y="23">内容审核</tspan>
                                    </text></g><g transform="translate(98 92)"><rect fill="#00AAE7" opacity=".854" width="88" height="36"/><text font-family="PingFangSC-Regular, PingFang SC" font-size="14" fill="#FFF">
                                        <tspan x="16" y="23">录制回放</tspan>
                                    </text></g></g></g><g transform="translate(489 83)"><path d="M53.5,8 L62.5,12.5 L53.5,17 L53.5,13 L-0.5,13 L-0.5,12 L53.5,12 L53.5,8 Z" fill="#00AAE7" fill-rule="nonzero"/><g transform="translate(4)"><path d="M42,0.5 C42.4142136,0.5 42.7892136,0.667893219 43.0606602,0.939339828 C43.3321068,1.21078644 43.5,1.58578644 43.5,2 L43.5,2 L43.5,22 C43.5,22.4142136 43.3321068,22.7892136 43.0606602,23.0606602 C42.7892136,23.3321068 42.4142136,23.5 42,23.5 L42,23.5 L2,23.5 C1.58578644,23.5 1.21078644,23.3321068 0.939339828,23.0606602 C0.667893219,22.7892136 0.5,22.4142136 0.5,22 L0.5,22 L0.5,2 C0.5,1.58578644 0.667893219,1.21078644 0.939339828,0.939339828 C1.21078644,0.667893219 1.58578644,0.5 2,0.5 L2,0.5 Z" stroke="#00AAE7" fill="#EDF9FA"/><text font-family="PingFangSC-Regular, PingFang SC" font-size="12" fill="#00AAE7">
                                        <tspan x="5" y="17">RTMP</tspan>
                                    </text></g><g transform="translate(0 44)"><path d="M53.5,8 L62.5,12.5 L53.5,17 L53.5,13 L-0.5,13 L-0.5,12 L53.5,12 L53.5,8 Z" fill="#00AAE7" fill-rule="nonzero"/><g transform="translate(4)"><path d="M42,0.5 C42.4142136,0.5 42.7892136,0.667893219 43.0606602,0.939339828 C43.3321068,1.21078644 43.5,1.58578644 43.5,2 L43.5,2 L43.5,22 C43.5,22.4142136 43.3321068,22.7892136 43.0606602,23.0606602 C42.7892136,23.3321068 42.4142136,23.5 42,23.5 L42,23.5 L2,23.5 C1.58578644,23.5 1.21078644,23.3321068 0.939339828,23.0606602 C0.667893219,22.7892136 0.5,22.4142136 0.5,22 L0.5,22 L0.5,2 C0.5,1.58578644 0.667893219,1.21078644 0.939339828,0.939339828 C1.21078644,0.667893219 1.58578644,0.5 2,0.5 L2,0.5 Z" stroke="#00AAE7" fill="#EDF9FA"/><text font-family="PingFangSC-Regular, PingFang SC" font-size="12" fill="#00AAE7">
                                        <tspan x="10" y="17">HLS</tspan>
                                    </text></g></g><g transform="translate(0 88)"><path d="M53.5,8 L62.5,12.5 L53.5,17 L53.5,13 L-0.5,13 L-0.5,12 L53.5,12 L53.5,8 Z" fill="#00AAE7" fill-rule="nonzero"/><g transform="translate(4)"><path d="M42,0.5 C42.4142136,0.5 42.7892136,0.667893219 43.0606602,0.939339828 C43.3321068,1.21078644 43.5,1.58578644 43.5,2 L43.5,2 L43.5,22 C43.5,22.4142136 43.3321068,22.7892136 43.0606602,23.0606602 C42.7892136,23.3321068 42.4142136,23.5 42,23.5 L42,23.5 L2,23.5 C1.58578644,23.5 1.21078644,23.3321068 0.939339828,23.0606602 C0.667893219,22.7892136 0.5,22.4142136 0.5,22 L0.5,22 L0.5,2 C0.5,1.58578644 0.667893219,1.21078644 0.939339828,0.939339828 C1.21078644,0.667893219 1.58578644,0.5 2,0.5 L2,0.5 Z" stroke="#00AAE7" fill="#EDF9FA"/><text font-family="PingFangSC-Regular, PingFang SC" font-size="12" fill="#00AAE7">
                                        <tspan x="10" y="17">HDL</tspan>
                                    </text></g></g></g><g transform="translate(555)"><path d="M0,0 L124,0 L124,278 L0,278 L0,0 Z" fill="#EDF9FA"/><text font-family="PingFangSC-Medium, PingFang SC" font-size="14" font-weight="400" fill="#22B5E9">
                                <tspan x="41" y="27">播放端</tspan>
                            </text><path d="M65.0923862,48.819054 C66.5677271,48.819054 68.0792571,49.605117 69.1354766,50.9205521 L69.1354766,50.9205521 L69.7641586,51.7032486 L68.8838355,52.1854907 C67.8250911,52.7653594 67.2426976,53.8207372 67.3260169,55.0090894 C67.4110194,56.228581 68.1642596,57.2511362 69.2903327,57.6769904 L69.2903327,57.6769904 L70.129417,57.9942771 L69.7607922,58.8106379 C69.3256803,59.7734388 69.1093867,60.2169668 68.5505582,61.0644673 C67.6045895,62.5061437 66.4145542,63.9814846 64.7641586,63.9966336 C63.3948605,64.0058913 63.2097065,63.3233462 61.7436234,63.2543343 C61.1683234,63.2579412 60.7839313,63.3954155 60.4236318,63.5513512 L60.0651848,63.7091664 C59.702412,63.8645868 59.3081267,64 58.7155136,64 L58.7155136,64 L58.6826909,64 C56.9935813,63.984851 55.8010211,62.4977277 54.9501543,61.2033328 C52.8032093,57.936206 52.3756718,53.8249453 53.9334904,51.4272008 C54.9770857,49.8197273 56.6661953,48.8198956 58.3409975,48.8198956 C59.207855,48.8198956 59.8828255,49.0605959 60.4786848,49.2726814 C60.9331537,49.4342703 61.3253436,49.5739774 61.7225831,49.5739774 C62.0710093,49.5739774 62.388296,49.4544689 62.7905852,49.3021377 C63.3603546,49.0866857 64.0698311,48.819054 65.0923862,48.819054 Z M64.8382202,44 C64.9888683,45.0124558 64.573955,46.0030298 64.026909,46.7049318 C63.441149,47.4564888 62.4320597,48.0388823 61.4574763,48.0085844 C61.2798967,47.0390507 61.7368905,46.0425854 62.2906693,45.3701397 C62.900836,44.6295236 63.9444313,44.0614375 64.8382202,44 Z" fill="#00AAE7" fill-rule="nonzero"/><path d="M17.9500014,0.302727273 C17.7781832,0.11 17.5318196,0 17.2727286,0 L0.909092279,0 C0.65000137,0 0.403637734,0.11 0.231819552,0.302727273 C0.0590922791,0.495454545 -0.0227259027,0.752727273 0.0054559155,1.00909091 L1.82363773,17.3727273 C1.86363773,17.7390909 2.12272864,18.0445455 2.4772741,18.1472727 L8.84091046,19.9654545 C8.92272864,19.9881818 9.0072741,20 9.09091046,20 C9.17454682,20 9.25909228,19.9881818 9.34091046,19.9654545 L15.7045468,18.1472727 C16.0590923,18.0454545 16.3172741,17.74 16.3581832,17.3727273 L18.176365,1.00909091 C18.2045468,0.752727273 18.1227286,0.495454545 17.9500014,0.302727273 Z M14.5454559,5.45454545 L5.53363773,5.45454545 L5.83636501,9.09090909 L14.186365,9.09090909 L13.5681832,15.2727273 L9.09091046,16.3918182 L4.54545592,15.2554545 L4.54545592,12.7272727 L6.36363773,12.7272727 L6.36363773,13.8354545 L9.09091046,14.5172727 L11.886365,13.8181818 L12.1772741,10.9090909 L4.16363773,10.9090909 L3.5572741,3.63636364 L14.5454559,3.63636364 L14.5454559,5.45454545 Z" transform="translate(96 44)" fill="#00AAE7" fill-rule="nonzero"/><path d="M13.3333333,59 C13.3333333,59.4583333 13.7083333,59.8333333 14.1666667,59.8333333 L15,59.8333333 L15,62.75 C15,63.4416667 15.5583333,64 16.25,64 C16.9416667,64 17.5,63.4416667 17.5,62.75 L17.5,59.8333333 L19.1666667,59.8333333 L19.1666667,62.75 C19.1666667,63.4416667 19.725,64 20.4166667,64 C21.1083333,64 21.6666667,63.4416667 21.6666667,62.75 L21.6666667,59.8333333 L22.5,59.8333333 C22.9583333,59.8333333 23.3333333,59.4583333 23.3333333,59 L23.3333333,50.6666667 L13.3333333,50.6666667 L13.3333333,59 Z M11.25,50.6666667 C10.5583333,50.6666667 10,51.225 10,51.9166667 L10,57.75 C10,58.4416667 10.5583333,59 11.25,59 C11.9416667,59 12.5,58.4416667 12.5,57.75 L12.5,51.9166667 C12.5,51.225 11.9416667,50.6666667 11.25,50.6666667 Z M25.4166667,50.6666667 C24.725,50.6666667 24.1666667,51.225 24.1666667,51.9166667 L24.1666667,57.75 C24.1666667,58.4416667 24.725,59 25.4166667,59 C26.1083333,59 26.6666667,58.4416667 26.6666667,57.75 L26.6666667,51.9166667 C26.6666667,51.225 26.1083333,50.6666667 25.4166667,50.6666667 Z M21.275,45.8 L22.3583333,44.7166667 C22.525,44.55 22.525,44.2916667 22.3583333,44.125 C22.1916667,43.9583333 21.9333333,43.9583333 21.7666667,44.125 L20.5333333,45.3583333 C19.851406,45.0129894 19.0977202,44.8331325 18.3333332,44.8333333 C17.5333333,44.8333333 16.7833333,45.025 16.1166667,45.3583333 L14.875,44.125 C14.7083333,43.9583333 14.45,43.9583333 14.2833333,44.125 C14.1166667,44.2916667 14.1166667,44.55 14.2833333,44.7166667 L15.375,45.8083333 C14.0913988,46.7475449 13.3329288,48.2428145 13.3333332,49.8333333 L23.3333332,49.8333333 C23.3333332,48.175 22.525,46.7083333 21.275,45.8 L21.275,45.8 Z M16.6666667,48.1666667 L15.8333333,48.1666667 L15.8333333,47.3333333 L16.6666667,47.3333333 L16.6666667,48.1666667 Z M20.8333333,48.1666667 L20,48.1666667 L20,47.3333333 L20.8333333,47.3333333 L20.8333333,48.1666667 Z" fill="#00AAE7" fill-rule="nonzero"/><g transform="translate(10 92)"><g transform="translate(8 32)"><rect fill="#00AAE7" opacity=".854" width="88" height="28"/><text font-family="PingFangSC-Regular, PingFang SC" font-size="12" fill="#FFF">
                                        <tspan x="20" y="19">高效解码</tspan>
                                    </text></g><g transform="translate(8 68)"><rect fill="#00AAE7" opacity=".854" width="88" height="28"/><text font-family="PingFangSC-Regular, PingFang SC" font-size="12" fill="#FFF">
                                        <tspan x="20" y="19">回声消除</tspan>
                                    </text></g><g transform="translate(8 104)"><rect fill="#00AAE7" opacity=".854" width="88" height="28"/><text font-family="PingFangSC-Regular, PingFang SC" font-size="12" fill="#FFF">
                                        <tspan x="20" y="19">噪声抑制</tspan>
                                    </text></g><g transform="translate(8 140)"><rect fill="#00AAE7" opacity=".854" width="88" height="28"/><text font-family="PingFangSC-Regular, PingFang SC" font-size="12" fill="#FFF">
                                        <tspan x="20" y="19">自动增益</tspan>
                                    </text></g><use stroke="#00AAE7" mask="url(#e)" stroke-width="2" stroke-dasharray="2,2" xlink:href="#b"/><text font-family="PingFangSC-Regular, PingFang SC" font-size="14" fill="#00AAE7">
                                    <tspan x="22" y="21">播放 SDK</tspan>
                                </text></g></g><g transform="translate(100)"><path d="M2,0 L118,0 C119.104569,-2.02906125e-16 120,0.8954305 120,2 L120,276 C120,277.104569 119.104569,278 118,278 L2,278 C0.8954305,278 1.3527075e-16,277.104569 0,276 L0,2 C-1.3527075e-16,0.8954305 0.8954305,2.02906125e-16 2,0 Z" fill="#EDF9FA"/><text font-family="PingFangSC-Medium, PingFang SC" font-size="14" font-weight="400" fill="#28B8BB">
                                    <tspan x="39" y="29">采集端</tspan>
                                </text><path d="M53.0923862 4.81905403C54.5677271 4.81905403 56.0792571 5.60511698 57.1354766 6.9205521L57.1354766 6.9205521 57.7641586 7.70324861 56.8838355 8.18549066C55.8250911 8.76535937 55.2426976 9.82073725 55.3260169 11.0090894 55.4110194 12.228581 56.1642596 13.2511362 57.2903327 13.6769904L57.2903327 13.6769904 58.129417 13.9942771 57.7607922 14.8106379C57.3256803 15.7734388 57.1093867 16.2169668 56.5505582 17.0644673 55.6045895 18.5061437 54.4145542 19.9814846 52.7641586 19.9966336 51.3948605 20.0058913 51.2097065 19.3233462 49.7436234 19.2543343 49.1683234 19.2579412 48.7839313 19.3954155 48.4236318 19.5513512L48.0651848 19.7091664C47.702412 19.8645868 47.3081267 20 46.7155136 20L46.7155136 20 46.6826909 20C44.9935813 19.984851 43.8010211 18.4977277 42.9501543 17.2033328 40.8032093 13.936206 40.3756718 9.8249453 41.9334904 7.42720081 42.9770857 5.81972732 44.6661953 4.81989564 46.3409975 4.81989564 47.207855 4.81989564 47.8828255 5.06059586 48.4786848 5.27268137 48.9331537 5.43427032 49.3253436 5.57397744 49.7225831 5.57397744 50.0710093 5.57397744 50.388296 5.45446894 50.7905852 5.30213769 51.3603546 5.08668574 52.0698311 4.81905403 53.0923862 4.81905403ZM52.8382202 0C52.9888683 1.01245582 52.573955 2.00302979 52.026909 2.70493183 51.441149 3.45648881 50.4320597 4.03888234 49.4574763 4.00858441 49.2798967 3.03905066 49.7368905 2.04258542 50.2906693 1.37013971 50.900836.629523649 51.9444313.0614374684 52.8382202 0ZM100 11.8181818 100 20 91.8181818 20 91.8181818 11.8181818 100 11.8181818ZM90.1818182 11.8181818 90.1818182 20 82 20 82 11.8181818 90.1818182 11.8181818ZM90.1818182 2 90.1818182 10.1818182 82 10.1818182 82 2 90.1818182 2ZM100 2 100 10.1818182 91.8181818 10.1818182 91.8181818 2 100 2ZM3.33333333 16C3.33333333 16.4583333 3.70833333 16.8333333 4.16666667 16.8333333L5 16.8333333 5 19.75C5 20.4416667 5.55833333 21 6.25 21 6.94166667 21 7.5 20.4416667 7.5 19.75L7.5 16.8333333 9.16666667 16.8333333 9.16666667 19.75C9.16666667 20.4416667 9.725 21 10.4166667 21 11.1083333 21 11.6666667 20.4416667 11.6666667 19.75L11.6666667 16.8333333 12.5 16.8333333C12.9583333 16.8333333 13.3333333 16.4583333 13.3333333 16L13.3333333 7.66666667 3.33333333 7.66666667 3.33333333 16ZM1.25 7.66666667C.558333333 7.66666667 0 8.225 0 8.91666667L0 14.75C0 15.4416667.558333333 16 1.25 16 1.94166667 16 2.5 15.4416667 2.5 14.75L2.5 8.91666667C2.5 8.225 1.94166667 7.66666667 1.25 7.66666667ZM15.4166667 7.66666667C14.725 7.66666667 14.1666667 8.225 14.1666667 8.91666667L14.1666667 14.75C14.1666667 15.4416667 14.725 16 15.4166667 16 16.1083333 16 16.6666667 15.4416667 16.6666667 14.75L16.6666667 8.91666667C16.6666667 8.225 16.1083333 7.66666667 15.4166667 7.66666667ZM11.275 2.8 12.3583333 1.71666667C12.525 1.55 12.525 1.29166667 12.3583333 1.125 12.1916667.958333333 11.9333333.958333333 11.7666667 1.125L10.5333333 2.35833333C9.85140601 2.01298937 9.0977202 1.83313253 8.33333317 1.83333333 7.53333333 1.83333333 6.78333333 2.025 6.11666667 2.35833333L4.875 1.125C4.70833333.958333333 4.45.958333333 4.28333333 1.125 4.11666667 1.29166667 4.11666667 1.55 4.28333333 1.71666667L5.375 2.80833333C4.09139882 3.74754494 3.33292877 5.24281447 3.33333317 6.83333333L13.3333332 6.83333333C13.3333332 5.175 12.525 3.70833333 11.275 2.8L11.275 2.8ZM6.66666667 5.16666667 5.83333333 5.16666667 5.83333333 4.33333333 6.66666667 4.33333333 6.66666667 5.16666667ZM10.8333333 5.16666667 10 5.16666667 10 4.33333333 10.8333333 4.33333333 10.8333333 5.16666667Z" transform="translate(10 46)" fill="#47C2C5" fill-rule="nonzero"/><g transform="translate(10 87)"><use stroke="#47C2C5" mask="url(#f)" stroke-width="2" stroke-dasharray="2,2" xlink:href="#c"/><text font-family="PingFangSC-Regular, PingFang SC" font-size="14" fill="#28B8BB">
                                        <tspan x="22" y="23">推流SDK</tspan>
                                    </text><g transform="translate(10 32)"><rect fill="#28B8BB" opacity=".854" width="80" height="28"/><text font-family="PingFangSC-Regular, PingFang SC" font-size="12" fill="#FFF">
                                                <tspan x="16" y="18">音频采集</tspan>
                                            </text><g transform="translate(0 36)"><rect fill="#28B8BB" opacity=".854" width="80" height="28"/><text font-family="PingFangSC-Regular, PingFang SC" font-size="12" fill="#FFF">
                                                <tspan x="16" y="18">回声消除</tspan>
                                            </text></g><g transform="translate(0 72)"><rect fill="#28B8BB" opacity=".854" width="80" height="28"/><text font-family="PingFangSC-Regular, PingFang SC" font-size="12" fill="#FFF">
                                                <tspan x="16" y="18">噪声抑制</tspan>
                                            </text></g><g transform="translate(0 108)"><rect fill="#28B8BB" opacity=".854" width="80" height="28"/><text font-family="PingFangSC-Regular, PingFang SC" font-size="12" fill="#FFF">
                                                <tspan x="16" y="18">自动增益</tspan>
                                            </text></g></g></g></g><rect fill="#EDF9FA" width="72" height="278"/><g transform="translate(12 114)" fill="#47C2C5"><path d="M23,0 C26.992,0 30.588,2.384 32.166,6 L32.166,6 L33,6 C34.103,6 35,6.897 35,8 L35,8 L35,12 C35,13.441 33.979,14.646 32.622,14.934 C32.621,14.94 32.623,14.946 32.621,14.952 C31.427,19.31 27.906,24 23,24 C18.122,24 14.594,19.312 13.381,14.956 L13.381,14.956 L13.379,14.934 C12.022,14.647 11,13.441 11,12 L11,12 L11,8 C11,6.897 11.897,6 13,6 L13,6 L13.838,6 C15.423,2.384 19.018,0 23,0 Z M24,10 L22,10 L22,11 C22,13.206 20.206,15 18,15 L18,15 L15.487,15 C16.668,18.569 19.524,22 23,22 C26.498,22 29.351,18.568 30.515,15 L30.515,15 L28,15 C25.794,15 24,13.206 24,11 L24,11 L24,10 Z M25,17 L25,19 L21,19 L21,17 L25,17 Z M23,2 C20.122,2 17.507,3.565 16.09,6 L16.09,6 L20,6 C21.103,6 22,6.897 22,8 L22,8 L24,8 C24,6.897 24.897,6 26,6 L26,6 L29.915,6 C28.504,3.565 25.886,2 23,2 Z" fill-rule="nonzero"/><text font-family="PingFangSC-Regular, PingFang SC" font-size="12">
                                        <tspan x="0" y="45">电台主播</tspan>
                                    </text></g><path d="M87.5,135 L96.5,139.5 L87.5,144 L87.5,140 L75.5,140 L75.5,139 L87.5,139 L87.5,135 Z" fill="#47C2C5" fill-rule="nonzero"/><g transform="translate(683)"><path d="M27,0 L95,0 C96.1045695,-2.02906125e-16 97,0.8954305 97,2 L97,276 C97,277.104569 96.1045695,278 95,278 L27,278 C25.8954305,278 25,277.104569 25,276 L25,2 C25,0.8954305 25.8954305,2.02906125e-16 27,0 Z" fill="#EDF9FA"/><g transform="translate(45 10)" fill="#47C2C5"><path d="M12.1350345,17.1654483 C13.2728966,17.9011724 14.5816552,18.3448276 16,18.3448276 C17.4082069,18.3448276 18.7087586,17.9069655 19.8413103,17.1808966 L19.8413103,17.1808966 L27.3115172,20.2517241 C28.9384138,20.9222759 30,22.5086207 30,24.2682759 L30,24.2682759 L30,29.4482759 C30,29.7147586 29.7837241,29.9310345 29.5172414,29.9310345 L29.5172414,29.9310345 L18.3722759,29.9310345 L16.995931,23.7382069 L18.3447586,21.49 C18.4345517,21.3408276 18.4369655,21.1549655 18.3510345,21.0033793 C18.2651034,20.8517931 18.1048276,20.7586207 17.9310345,20.7586207 L17.9310345,20.7586207 L14.0689655,20.7586207 C13.8951724,20.7586207 13.7348966,20.8517931 13.6489655,21.0033793 C13.5635172,21.1554483 13.5654483,21.3408276 13.6552414,21.49 L13.6552414,21.49 L15.004069,23.7382069 L13.6277241,29.9310345 L2.48275862,29.9310345 C2.21627586,29.9310345 2,29.7147586 2,29.4482759 L2,29.4482759 L2,24.2682759 C2,22.5086207 3.06158621,20.9222759 4.68848276,20.2517241 L4.68848276,20.2517241 Z M16,0 C19.9928966,0 23.2413793,3.24848276 23.2413793,7.24137931 L23.2413793,7.24137931 L23.2413793,9.17241379 C23.2413793,13.046069 20.1444828,17.3793103 16,17.3793103 C11.8555172,17.3793103 8.75862069,13.046069 8.75862069,9.17241379 L8.75862069,9.17241379 L8.75862069,7.24137931 C8.75862069,3.24848276 12.0071034,0 16,0 Z M18.4142759,6.076 C16.9466897,7.43544828 14.8645517,8.20689655 12.6206897,8.20689655 C11.6141379,8.20689655 10.6447586,8.04565517 9.72413793,7.74103448 L9.72413793,7.74103448 L9.72413793,9.17241379 C9.72413793,12.5213103 12.4657241,16.4137931 16,16.4137931 C19.5342759,16.4137931 22.2758621,12.5213103 22.2758621,9.17241379 L22.2758621,9.17241379 L22.2758621,7.99496552 C20.7783448,7.68068966 19.4328966,7.01544828 18.4142759,6.076 Z" fill-rule="nonzero"/><text font-family="PingFangSC-Regular, PingFang SC" font-size="12">
                                    <tspan x="0" y="48">听众 1</tspan>
                                </text></g><g transform="translate(43 72.333)" fill="#47C2C5"><path d="M14.1350345,17.1654483 C15.2728966,17.9011724 16.5816552,18.3448276 18,18.3448276 C19.4082069,18.3448276 20.7087586,17.9069655 21.8413103,17.1808966 L21.8413103,17.1808966 L29.3115172,20.2517241 C30.9384138,20.9222759 32,22.5086207 32,24.2682759 L32,24.2682759 L32,29.4482759 C32,29.7147586 31.7837241,29.9310345 31.5172414,29.9310345 L31.5172414,29.9310345 L20.3722759,29.9310345 L18.995931,23.7382069 L20.3447586,21.49 C20.4345517,21.3408276 20.4369655,21.1549655 20.3510345,21.0033793 C20.2651034,20.8517931 20.1048276,20.7586207 19.9310345,20.7586207 L19.9310345,20.7586207 L16.0689655,20.7586207 C15.8951724,20.7586207 15.7348966,20.8517931 15.6489655,21.0033793 C15.5635172,21.1554483 15.5654483,21.3408276 15.6552414,21.49 L15.6552414,21.49 L17.004069,23.7382069 L15.6277241,29.9310345 L4.48275862,29.9310345 C4.21627586,29.9310345 4,29.7147586 4,29.4482759 L4,29.4482759 L4,24.2682759 C4,22.5086207 5.06158621,20.9222759 6.68848276,20.2517241 L6.68848276,20.2517241 Z M18,0 C21.9928966,0 25.2413793,3.24848276 25.2413793,7.24137931 L25.2413793,7.24137931 L25.2413793,9.17241379 C25.2413793,13.046069 22.1444828,17.3793103 18,17.3793103 C13.8555172,17.3793103 10.7586207,13.046069 10.7586207,9.17241379 L10.7586207,9.17241379 L10.7586207,7.24137931 C10.7586207,3.24848276 14.0071034,0 18,0 Z M20.4142759,6.076 C18.9466897,7.43544828 16.8645517,8.20689655 14.6206897,8.20689655 C13.6141379,8.20689655 12.6447586,8.04565517 11.7241379,7.74103448 L11.7241379,7.74103448 L11.7241379,9.17241379 C11.7241379,12.5213103 14.4657241,16.4137931 18,16.4137931 C21.5342759,16.4137931 24.2758621,12.5213103 24.2758621,9.17241379 L24.2758621,9.17241379 L24.2758621,7.99496552 C22.7783448,7.68068966 21.4328966,7.01544828 20.4142759,6.076 Z" fill-rule="nonzero"/><text font-family="PingFangSC-Regular, PingFang SC" font-size="12">
                                    <tspan x="0" y="48">听众 2</tspan>
                                </text></g><g transform="translate(43 134.667)" fill="#47C2C5"><path d="M15.1350345,17.1654483 C16.2728966,17.9011724 17.5816552,18.3448276 19,18.3448276 C20.4082069,18.3448276 21.7087586,17.9069655 22.8413103,17.1808966 L22.8413103,17.1808966 L30.3115172,20.2517241 C31.9384138,20.9222759 33,22.5086207 33,24.2682759 L33,24.2682759 L33,29.4482759 C33,29.7147586 32.7837241,29.9310345 32.5172414,29.9310345 L32.5172414,29.9310345 L21.3722759,29.9310345 L19.995931,23.7382069 L21.3447586,21.49 C21.4345517,21.3408276 21.4369655,21.1549655 21.3510345,21.0033793 C21.2651034,20.8517931 21.1048276,20.7586207 20.9310345,20.7586207 L20.9310345,20.7586207 L17.0689655,20.7586207 C16.8951724,20.7586207 16.7348966,20.8517931 16.6489655,21.0033793 C16.5635172,21.1554483 16.5654483,21.3408276 16.6552414,21.49 L16.6552414,21.49 L18.004069,23.7382069 L16.6277241,29.9310345 L5.48275862,29.9310345 C5.21627586,29.9310345 5,29.7147586 5,29.4482759 L5,29.4482759 L5,24.2682759 C5,22.5086207 6.06158621,20.9222759 7.68848276,20.2517241 L7.68848276,20.2517241 Z M19,0 C22.9928966,0 26.2413793,3.24848276 26.2413793,7.24137931 L26.2413793,7.24137931 L26.2413793,9.17241379 C26.2413793,13.046069 23.1444828,17.3793103 19,17.3793103 C14.8555172,17.3793103 11.7586207,13.046069 11.7586207,9.17241379 L11.7586207,9.17241379 L11.7586207,7.24137931 C11.7586207,3.24848276 15.0071034,0 19,0 Z M21.4142759,6.076 C19.9466897,7.43544828 17.8645517,8.20689655 15.6206897,8.20689655 C14.6141379,8.20689655 13.6447586,8.04565517 12.7241379,7.74103448 L12.7241379,7.74103448 L12.7241379,9.17241379 C12.7241379,12.5213103 15.4657241,16.4137931 19,16.4137931 C22.5342759,16.4137931 25.2758621,12.5213103 25.2758621,9.17241379 L25.2758621,9.17241379 L25.2758621,7.99496552 C23.7783448,7.68068966 22.4328966,7.01544828 21.4142759,6.076 Z" fill-rule="nonzero"/><text font-family="PingFangSC-Regular, PingFang SC" font-size="12">
                                    <tspan x="0" y="48">听众 3</tspan>
                                </text><text font-family="PingFangSC-Semibold, PingFang SC" font-size="14" font-weight="500">
                                    <tspan x="11" y="68">…</tspan>
                                </text></g><g transform="translate(43 220)" fill="#47C2C5"><path d="M15.1350345,17.1654483 C16.2728966,17.9011724 17.5816552,18.3448276 19,18.3448276 C20.4082069,18.3448276 21.7087586,17.9069655 22.8413103,17.1808966 L22.8413103,17.1808966 L30.3115172,20.2517241 C31.9384138,20.9222759 33,22.5086207 33,24.2682759 L33,24.2682759 L33,29.4482759 C33,29.7147586 32.7837241,29.9310345 32.5172414,29.9310345 L32.5172414,29.9310345 L21.3722759,29.9310345 L19.995931,23.7382069 L21.3447586,21.49 C21.4345517,21.3408276 21.4369655,21.1549655 21.3510345,21.0033793 C21.2651034,20.8517931 21.1048276,20.7586207 20.9310345,20.7586207 L20.9310345,20.7586207 L17.0689655,20.7586207 C16.8951724,20.7586207 16.7348966,20.8517931 16.6489655,21.0033793 C16.5635172,21.1554483 16.5654483,21.3408276 16.6552414,21.49 L16.6552414,21.49 L18.004069,23.7382069 L16.6277241,29.9310345 L5.48275862,29.9310345 C5.21627586,29.9310345 5,29.7147586 5,29.4482759 L5,29.4482759 L5,24.2682759 C5,22.5086207 6.06158621,20.9222759 7.68848276,20.2517241 L7.68848276,20.2517241 Z M19,0 C22.9928966,0 26.2413793,3.24848276 26.2413793,7.24137931 L26.2413793,7.24137931 L26.2413793,9.17241379 C26.2413793,13.046069 23.1444828,17.3793103 19,17.3793103 C14.8555172,17.3793103 11.7586207,13.046069 11.7586207,9.17241379 L11.7586207,9.17241379 L11.7586207,7.24137931 C11.7586207,3.24848276 15.0071034,0 19,0 Z M21.4142759,6.076 C19.9466897,7.43544828 17.8645517,8.20689655 15.6206897,8.20689655 C14.6141379,8.20689655 13.6447586,8.04565517 12.7241379,7.74103448 L12.7241379,7.74103448 L12.7241379,9.17241379 C12.7241379,12.5213103 15.4657241,16.4137931 19,16.4137931 C22.5342759,16.4137931 25.2758621,12.5213103 25.2758621,9.17241379 L25.2758621,9.17241379 L25.2758621,7.99496552 C23.7783448,7.68068966 22.4328966,7.01544828 21.4142759,6.076 Z" fill-rule="nonzero"/><text font-family="PingFangSC-Regular, PingFang SC" font-size="12">
                                    <tspan x="0" y="48">听众 N</tspan>
                                </text></g><path d="M11.5,139 L20.5,143.5 L11.5,148 L11.5,144 L-0.5,144 L-0.5,143 L11.5,143 L11.5,139 Z" fill="#00AAE7" fill-rule="nonzero"/></g></g></svg>