<svg width="752" height="273" viewBox="0 0 752 273" xmlns="http://www.w3.org/2000/svg" xmlns:xlink="http://www.w3.org/1999/xlink"><defs><path d="M2,0 L262,0 C263.104569,-4.2495073e-16 264,0.8954305 264,2 L264,270 C264,271.104569 263.104569,272 262,272 L2,272 C0.8954305,272 -8.67738547e-17,271.104569 0,270 L0,2 C-3.57315355e-16,0.8954305 0.8954305,-1.91384796e-17 2,0 Z" id="a"/><mask id="b" maskContentUnits="userSpaceOnUse" maskUnits="objectBoundingBox" x="0" y="0" width="264" height="272" fill="#fff"><use xlink:href="#a"/></mask></defs><g fill="none" fill-rule="evenodd"><g transform="translate(188)"><use stroke="#00AAE7" mask="url(#b)" stroke-width="2" opacity=".85" stroke-dasharray="2" xlink:href="#a"/><g transform="translate(148 12)"><path d="M0,0 L104,0 L104,248 L0,248 L0,0 Z" fill="#EDF9FA"/><g transform="translate(12 20)"><text font-family="PingFangSC-Regular, PingFang SC" font-size="14" fill="#00AAE7">
                                    <tspan x="5" y="15">多媒体处理</tspan>
                                </text><g transform="translate(0 34)"><rect fill="#00AAE7" opacity=".854" width="80" height="36"/><text font-family="PingFangSC-Regular, PingFang SC" font-size="14" fill="#FFF">
                                            <tspan x="12" y="23">视频转码</tspan>
                                        </text><g transform="translate(0 48)"><rect fill="#00AAE7" opacity=".854" width="80" height="36"/><text font-family="PingFangSC-Regular, PingFang SC" font-size="14" fill="#FFF">
                                            <tspan x="12" y="23">内容审核</tspan>
                                        </text></g><g transform="translate(0 96)"><rect fill="#00AAE7" opacity=".854" width="80" height="36"/><text font-family="PingFangSC-Regular, PingFang SC" font-size="14" fill="#FFF">
                                            <tspan x="12" y="23">图片裁剪</tspan>
                                        </text></g><g transform="translate(0 144)"><rect fill="#00AAE7" opacity=".854" width="80" height="36"/><text font-family="PingFangSC-Regular, PingFang SC" font-size="14" fill="#FFF">
                                            <tspan x="12" y="23">水印拼接</tspan>
                                        </text></g></g></g></g><g transform="translate(12 12)"><path d="M0,0 L100,0 L100,248 L0,248 L0,0 Z" fill="#EDF9FA"/><g transform="translate(22 91)"><g transform="translate(12)"><rect fill="#21B4E9" width="31.5" height="10.5"/><rect fill="#21B4E9" y="12" width="31.5" height="10.5"/><rect fill="#21B4E9" y="24" width="31.5" height="12"/><line x1="6" y1="6" x2="10.5" y2="6" stroke="#FFF" stroke-width="2.94" stroke-linecap="square"/><line x1="6" y1="18" x2="10.5" y2="18" stroke="#FFF" stroke-width="2.94" stroke-linecap="square"/><line x1="6" y1="30" x2="10.5" y2="30" stroke="#FFF" stroke-width="2.94" stroke-linecap="square"/></g><text font-family="PingFangSC-Regular, PingFang SC" font-size="14" fill="#21B4E9">
                                    <tspan x="0" y="62">对象存储</tspan>
                                    <tspan x="10.864" y="82">Kodo</tspan>
                                </text></g></g><path d="M135.5 132 144.5 136.5 135.5 141 135.5 137 115.5 137 115.5 136 135.5 136 135.5 132ZM283.5 132 292.5 136.5 283.5 141 283.5 137 267.5 137 267.5 136 283.5 136 283.5 132Z" fill="#00AAE7" fill-rule="nonzero"/></g><g transform="translate(484 1)"><path d="M0,0 L120,0 L120,272 L0,272 L0,0 Z" fill="#EDF9FA"/><g transform="translate(10 92)"><rect fill="#00AAE7" opacity=".854" width="100" height="36"/><text font-family="PingFangSC-Regular, PingFang SC" font-size="14" fill="#FFF">
                                <tspan x="15" y="23">无盲区覆盖</tspan>
                            </text></g><g transform="translate(10 136)"><rect fill="#00AAE7" opacity=".854" width="100" height="36"/><text font-family="PingFangSC-Regular, PingFang SC" font-size="14" fill="#FFF">
                                <tspan x="22" y="23">智能选路</tspan>
                            </text></g><g transform="translate(10 180)"><rect fill="#00AAE7" opacity=".854" width="100" height="36"/><text font-family="PingFangSC-Regular, PingFang SC" font-size="14" fill="#FFF">
                                <tspan x="22" y="23">实时调度</tspan>
                            </text></g><g transform="translate(10 224)"><rect fill="#00AAE7" opacity=".854" width="100" height="36"/><text font-family="PingFangSC-Regular, PingFang SC" font-size="14" fill="#FFF">
                                <tspan x="22" y="23">故障容错</tspan>
                            </text></g><g transform="translate(40 12)"><text font-family="PingFangSC-Regular, PingFang SC" font-size="14" fill="#21B4E9">
                                <tspan x=".06" y="62">QCDN</tspan>
                            </text><g transform="translate(.5)"><polygon fill="#00AAE7" points="20 0 37.3205081 10 37.3205081 30 20 40 2.67949192 30 2.67949192 10"/><polygon stroke="#FFF" stroke-width="2.143" points="13.011248 14.2857143 13.011248 23.7824975 21.5826766 28.5714286 21.5826766 19.047619"/><polyline stroke="#FFF" stroke-width="2.143" stroke-linecap="square" points="18.7255337 11.4285714 27.2969623 16.2117347 27.2969623 25.7142857"/></g></g></g><g transform="translate(608 116)"><path d="M30.5,-9.5 L30.5,42.5 L34.5,42.5 L30,51.5 L25.5,42.5 L29.5,42.5 L29.5,-9.5 L30.5,-9.5 Z" transform="rotate(-90 30 21)" fill="#47C2C5" fill-rule="nonzero"/><g transform="translate(6)"><path d="M37,0.5 C37.4142136,0.5 37.7892136,0.667893219 38.0606602,0.939339828 C38.3321068,1.21078644 38.5,1.58578644 38.5,2 L38.5,2 L38.5,40 C38.5,40.4142136 38.3321068,40.7892136 38.0606602,41.0606602 C37.7892136,41.3321068 37.4142136,41.5 37,41.5 L37,41.5 L2,41.5 C1.58578644,41.5 1.21078644,41.3321068 0.939339828,41.0606602 C0.667893219,40.7892136 0.5,40.4142136 0.5,40 L0.5,40 L0.5,2 C0.5,1.58578644 0.667893219,1.21078644 0.939339828,0.939339828 C1.21078644,0.667893219 1.58578644,0.5 2,0.5 L2,0.5 Z" stroke="#47C2C5" fill="#EDF9FA"/><text font-family="PingFangSC-Regular, PingFang SC" font-size="12" fill="#47C2C5">
                                <tspan x="7" y="17">内容</tspan>
                                <tspan x="7" y="34">分发</tspan>
                            </text></g></g><path d="M2,0 L118,0 C119.104569,-2.02906125e-16 120,0.8954305 120,2 L120,270 C120,271.104569 119.104569,272 118,272 L2,272 C0.8954305,272 1.3527075e-16,271.104569 0,270 L0,2 C-1.3527075e-16,0.8954305 0.8954305,2.02906125e-16 2,0 Z" fill="#EDF9FA"/><text font-family="PingFangSC-Medium, PingFang SC" font-size="14" font-weight="400" fill="#28B8BB">
                            <tspan x="32" y="35">兴趣内容</tspan>
                        </text><g transform="translate(10 60)"><rect fill="#28B8BB" opacity=".854" width="100" height="36"/><text font-family="PingFangSC-Regular, PingFang SC" font-size="14" fill="#FFF">
                                    <tspan x="22" y="23">图片内容</tspan>
                                </text><g transform="translate(0 48)"><rect fill="#28B8BB" opacity=".854" width="100" height="36"/><text font-family="PingFangSC-Regular, PingFang SC" font-size="14" fill="#FFF">
                                    <tspan x="22" y="23">音频内容</tspan>
                                </text></g><g transform="translate(0 96)"><rect fill="#28B8BB" opacity=".854" width="100" height="36"/><text font-family="PingFangSC-Regular, PingFang SC" font-size="14" fill="#FFF">
                                    <tspan x="22" y="23">视频内容</tspan>
                                </text></g><g transform="translate(0 144)"><rect fill="#28B8BB" opacity=".854" width="100" height="36"/><text font-family="PingFangSC-Regular, PingFang SC" font-size="14" fill="#FFF">
                                    <tspan x="22" y="23">直播内容</tspan>
                                </text></g></g><g transform="translate(124 114)"><path d="M51.5,17.5 L60.5,22 L51.5,26.5 L51.5,22.5 L-0.5,22.5 L-0.5,21.5 L51.5,21.5 L51.5,17.5 Z" fill="#47C2C5" fill-rule="nonzero"/><g transform="translate(6)"><path d="M37,0.5 C37.4142136,0.5 37.7892136,0.667893219 38.0606602,0.939339828 C38.3321068,1.21078644 38.5,1.58578644 38.5,2 L38.5,2 L38.5,44 C38.5,44.4142136 38.3321068,44.7892136 38.0606602,45.0606602 C37.7892136,45.3321068 37.4142136,45.5 37,45.5 L37,45.5 L2,45.5 C1.58578644,45.5 1.21078644,45.3321068 0.939339828,45.0606602 C0.667893219,44.7892136 0.5,44.4142136 0.5,44 L0.5,44 L0.5,2 C0.5,1.58578644 0.667893219,1.21078644 0.939339828,0.939339828 C1.21078644,0.667893219 1.58578644,0.5 2,0.5 L2,0.5 Z" stroke="#47C2C5" fill="#EDF9FA"/><text font-family="PingFangSC-Regular, PingFang SC" font-size="12" fill="#47C2C5">
                                <tspan x="7" y="19">数据</tspan>
                                <tspan x="7" y="36">上传</tspan>
                            </text></g></g><g transform="translate(672)"><path d="M0,0 L80,0 L80,272 L0,272 L0,0 Z" fill="#EDF9FA"/><g transform="translate(20 102)" fill="#47C2C5"><text font-family="PingFangSC-Regular, PingFang SC" font-size="14">
                                <tspan x="6.5" y="65">用户</tspan>
                            </text><path d="M14.4786207,24.522069 C16.1041379,25.5731034 17.9737931,26.2068966 20,26.2068966 C22.0117241,26.2068966 23.8696552,25.5813793 25.4875862,24.5441379 L25.4875862,24.5441379 L36.1593103,28.9310345 C38.4834483,29.8889655 40,32.1551724 40,34.6689655 L40,34.6689655 L40,42.0689655 C40,42.4496552 39.6910345,42.7586207 39.3103448,42.7586207 L39.3103448,42.7586207 L23.3889655,42.7586207 L21.4227586,33.9117241 L23.3496552,30.7 C23.477931,30.4868966 23.4813793,30.2213793 23.3586207,30.0048276 C23.2358621,29.7882759 23.0068966,29.6551724 22.7586207,29.6551724 L22.7586207,29.6551724 L17.2413793,29.6551724 C16.9931034,29.6551724 16.7641379,29.7882759 16.6413793,30.0048276 C16.5193103,30.222069 16.522069,30.4868966 16.6503448,30.7 L16.6503448,30.7 L18.5772414,33.9117241 L16.6110345,42.7586207 L0.689655172,42.7586207 C0.308965517,42.7586207 0,42.4496552 0,42.0689655 L0,42.0689655 L0,34.6689655 C0,32.1551724 1.51655172,29.8889655 3.84068966,28.9310345 L3.84068966,28.9310345 Z M20,0 C25.7041379,0 30.3448276,4.64068966 30.3448276,10.3448276 L30.3448276,10.3448276 L30.3448276,13.1034483 C30.3448276,18.6372414 25.9206897,24.8275862 20,24.8275862 C14.0793103,24.8275862 9.65517241,18.6372414 9.65517241,13.1034483 L9.65517241,13.1034483 L9.65517241,10.3448276 C9.65517241,4.64068966 14.2958621,0 20,0 Z M23.4489655,8.68 C21.3524138,10.622069 18.377931,11.7241379 15.1724138,11.7241379 C13.7344828,11.7241379 12.3496552,11.4937931 11.0344828,11.0586207 L11.0344828,11.0586207 L11.0344828,13.1034483 C11.0344828,17.8875862 14.9510345,23.4482759 20,23.4482759 C25.0489655,23.4482759 28.9655172,17.8875862 28.9655172,13.1034483 L28.9655172,13.1034483 L28.9655172,11.4213793 C26.8262069,10.9724138 24.9041379,10.022069 23.4489655,8.68 Z" fill-rule="nonzero"/></g></g></g></svg>