<svg xmlns="http://www.w3.org/2000/svg" width="56" height="61" viewBox="0 0 56 61">
  <g fill="none" fill-rule="evenodd" stroke-width="2" transform="translate(1 1)">
    <polyline stroke="#333" points="8.705 47.757 26.705 58.151 44.705 47.759"/>
    <polyline stroke="#333" points="19.705 4.456 1.705 14.85 1.705 35.639"/>
    <polyline stroke="#333" points="51.705 35.614 51.705 14.85 33.702 4.456"/>
    <line x1="26.705" x2="26.705" y1="58.151" y2="29.284" stroke="#333"/>
    <polyline stroke="#333" points="1.705 14.85 26.705 29.284 51.705 14.85"/>
    <path stroke="#00AAE6" d="M33.7054573,4.5 L33.7054573,14.5 C33.7054573,16.985 30.5714573,19 26.7054573,19 C22.8394573,19 19.7054573,16.985 19.7054573,14.5 L19.7054573,4.5"/>
    <ellipse cx="26.705" cy="4.5" stroke="#00AAE6" stroke-linecap="square" rx="7" ry="4.5"/>
    <path stroke="#00AAE6" d="M51.6694573 35.614L43.0084573 30.614C40.8564573 29.371 37.5444573 31.078 35.6084573 34.426 33.6724573 37.774 33.8534573 41.496 36.0084573 42.738L44.6694573 47.738M8.74145734 47.738L17.4024573 42.738C19.5544573 41.496 19.7324573 37.774 17.8024573 34.426 15.8724573 31.078 12.5574573 29.371 10.4024573 30.614L1.74145734 35.614"/>
    <path stroke="#00AAE6" stroke-linecap="square" d="M9.13945734 39.426C7.20645734 36.078 3.89445734 34.371 1.73945734 35.614-.415542655 36.857-.590542655 40.578 1.33945734 43.926 3.26945734 47.274 6.58445734 48.981 8.73945734 47.738 10.8944573 46.495 11.0724573 42.774 9.13945734 39.426zM51.6694573 35.614C49.5164573 34.371 46.2044573 36.078 44.2694573 39.426 42.3344573 42.774 42.5144573 46.496 44.6694573 47.738 46.8244573 48.98 50.1334573 47.274 52.0694573 43.926 54.0054573 40.578 53.8214573 36.856 51.6694573 35.614z"/>
  </g>
</svg>
