<svg xmlns="http://www.w3.org/2000/svg" width="58" height="58" viewBox="0 0 58 58">
  <g fill="none" fill-rule="evenodd" stroke-linecap="square" stroke-width="2" transform="translate(1 1)">
    <path stroke="#00AAE6" d="M56,28 L47,28 L47,26 C47,23.2385763 44.7614237,21 42,21 C39.2385763,21 37,23.2385763 37,26 L37,28 L19,28 L19,30 C19,32.7614237 16.7614237,35 14,35 C11.2385763,35 9,32.7614237 9,30 L9,28 L0,28"/>
    <path stroke="#00AAE6" d="M28,0 L28,9 L26,9 C23.2385763,9 21,11.2385763 21,14 C21,16.7614237 23.2385763,19 26,19 L28,19 L28,37 L30,37 C32.7614237,37 35,39.2385763 35,42 C35,44.7614237 32.7614237,47 30,47 L28,47 L28,56"/>
    <rect width="56" height="56" stroke="#333"/>
  </g>
</svg>
