<?xml version="1.0" encoding="UTF-8"?>
<svg width="703px" height="375px" viewBox="0 0 703 375" version="1.1" xmlns="http://www.w3.org/2000/svg" xmlns:xlink="http://www.w3.org/1999/xlink">
    <g id="产品" stroke="none" stroke-width="1" fill="none" fill-rule="evenodd">
        <g id="基础服务-云主机02✅" transform="translate(-420.000000, -3111.000000)">
            <g id="产品介绍-2备份-3" transform="translate(0.000000, 2819.000000)">
                <g id="编组-3" transform="translate(372.000000, 256.000000)">
                    <g id="编组-13" transform="translate(48.000000, 36.000000)">
                        <polyline id="路径-14备份-3" stroke="#21B4E9" points="592 52 602 52 602 323 592 323"></polyline>
                        <path id="路径-15备份-4" d="M610.5,68 L619.5,72.5 L610.5,77 L610.5,73 L602,73 L602,72 L610.5,72 L610.5,68 Z" fill="#21B4E9" fill-rule="nonzero"></path>
                        <path id="路径-15备份-5" d="M610.5,299 L619.5,303.5 L610.5,308 L610.5,304 L602,304 L602,303 L610.5,303 L610.5,299 Z" fill="#21B4E9" fill-rule="nonzero"></path>
                        <text id="高速网络" font-family="PingFangSC-Regular, PingFang SC" font-size="12" font-weight="normal" line-spacing="30" fill="#00AAE7">
                            <tspan x="247" y="38">高速网络</tspan>
                        </text>
                        <text id="高速-通道" font-family="PingFangSC-Regular, PingFang SC" font-size="12" font-weight="normal" line-spacing="14" fill="#00AAE7">
                            <tspan x="269" y="200">高速</tspan>
                            <tspan x="269" y="214">通道</tspan>
                        </text>
                        <text id="高速网络备份" font-family="PingFangSC-Regular, PingFang SC" font-size="12" font-weight="normal" line-spacing="30" fill="#00AAE7">
                            <tspan x="248" y="328">高速网络</tspan>
                        </text>
                        <path id="直线-9备份-4" d="M291.5,178 L300.5,182.5 L291.5,187 L291.5,183 L209.5,183 L209.5,182 L291.5,182 L291.5,178 Z" fill="#21B4E9" fill-rule="nonzero"></path>
                        <path id="路径-13备份-2" d="M289.5,47.5 L298.5,52 L289.5,56.5 L289.5,52.5 L265.5,52.5 L265.5,316.5 L289.5,316.5 L289.5,312.5 L298.5,317 L289.5,321.5 L289.5,317.5 L264.5,317.5 L264.5,51.5 L289.5,51.5 L289.5,47.5 Z" fill="#21B4E9" fill-rule="nonzero"></path>
                        <path id="路径-3备份" d="M56.0323495,124.999743 L57.0323493,125.000257 L56.971,242.5 L60.9720146,242.502312 L56.4673939,251.5 L51.9720158,242.49769 L55.971,242.499 L56.0323495,124.999743 Z" fill="#28B8BB" fill-rule="nonzero"></path>
                        <rect id="矩形备份-2" fill-opacity="0.0990220717" fill="#789BAE" x="0" y="0" width="114" height="121"></rect>
                        <rect id="矩形备份-36" fill="#789BAE" opacity="0.854399182" x="0" y="0" width="114" height="40"></rect>
                        <rect id="矩形备份-38" fill="#28B8BB" opacity="0.854399182" x="135" y="0" width="79" height="40"></rect>
                        <rect id="矩形备份-6" fill="#E2F2F3" x="135" y="40" width="79" height="335"></rect>
                        <rect id="矩形备份-37" fill="#28B8BB" opacity="0.854399182" x="0" y="254" width="114" height="40"></rect>
                        <rect id="矩形备份-10" fill="#E2F5FC" x="301" y="252" width="291" height="107"></rect>
                        <line x1="311" y1="327.5" x2="421" y2="327.5" id="直线-4" stroke="#20B4E9" stroke-linecap="square"></line>
                        <g id="云主机备份-6" transform="translate(321.000000, 302.000000)">
                            <rect id="矩形备份-17" fill="#21B4E9" x="0" y="0" width="18.15" height="15.4"></rect>
                            <rect id="矩形备份-18" fill-opacity="0.65" fill="#21B4E9" x="0" y="15.4" width="18.15" height="6.05"></rect>
                            <circle id="椭圆形备份-6" fill="#E5F5FB" cx="13.75" cy="4.4" r="1.65"></circle>
                            <circle id="椭圆形备份-7" fill="#E5F5FB" cx="13.75" cy="11" r="1.65"></circle>
                            <circle id="椭圆形备份-8" fill="#E5F5FB" cx="13.75" cy="18.7" r="1.65"></circle>
                        </g>
                        <g id="云主机备份-7" transform="translate(394.000000, 302.000000)">
                            <rect id="矩形备份-17" fill="#21B4E9" x="0" y="0" width="18.15" height="15.4"></rect>
                            <rect id="矩形备份-18" fill-opacity="0.65" fill="#21B4E9" x="0" y="15.4" width="18.15" height="6.05"></rect>
                            <circle id="椭圆形备份-6" fill="#E5F5FB" cx="13.75" cy="4.4" r="1.65"></circle>
                            <circle id="椭圆形备份-7" fill="#E5F5FB" cx="13.75" cy="11" r="1.65"></circle>
                            <circle id="椭圆形备份-8" fill="#E5F5FB" cx="13.75" cy="18.7" r="1.65"></circle>
                        </g>
                        <g id="minganshujuku" transform="translate(470.000000, 302.000000)" fill-rule="nonzero">
                            <path d="M1.7,0 L15.3,0 C16.2388841,0 17,1.11928813 17,2.5 L17,7.5 C17,8.88071187 16.2388841,10 15.3,10 L1.7,10 C0.761115927,10 0,8.88071187 0,7.5 L0,2.5 C0,1.11928813 0.761115927,0 1.7,0 Z" id="路径" fill="#20B4E9"></path>
                            <path d="M1.7,11 L15.3,11 C16.2388841,11 17,12.1192881 17,13.5 L17,18.5 C17,19.8807119 16.2388841,21 15.3,21 L1.7,21 C0.761115927,21 0,19.8807119 0,18.5 L0,13.5 C0,12.1192881 0.761115927,11 1.7,11 L1.7,11 Z" id="路径" fill="#20B4E9"></path>
                            <path d="M11.5766667,3 L15.4233333,3 C15.8066667,3 16,3.28260869 16,3.84782607 C16,4.41304346 15.8083333,4.69565217 15.4233333,4.69565217 L11.5766667,4.69565217 C11.1933333,4.69565217 11,4.41304348 11,3.84782607 C11,3.28260867 11.1916667,3 11.5766667,3 Z M11.5766667,14.3043478 L15.4233333,14.3043478 C15.8066667,14.3043478 16,14.5869565 16,15.1521739 C16,15.7173913 15.8083333,16 15.4233333,16 L11.5766667,16 C11.1933333,16 11,15.7173913 11,15.1521739 C11,14.5869565 11.1916667,14.3043478 11.5766667,14.3043478 Z" id="形状" fill="#DDE5F8"></path>
                        </g>
                        <text id="游戏服务器-(QVM云主机实例)" font-family="PingFangSC-Regular, PingFang SC" font-size="12" font-weight="normal" line-spacing="12" fill="#00AAE7">
                            <tspan x="332.724" y="344">游戏服务器</tspan>
                            <tspan x="315" y="356">(QVM云主机实例)</tspan>
                        </text>
                        <text id="游戏数据库RDS" font-family="PingFangSC-Regular, PingFang SC" font-size="12" font-weight="normal" line-spacing="12" fill="#00AAE7">
                            <tspan x="440" y="342">游戏数据库RDS</tspan>
                        </text>
                        <text id="缓存服务" font-family="PingFangSC-Regular, PingFang SC" font-size="12" font-weight="normal" line-spacing="16" fill="#00AAE7">
                            <tspan x="538" y="339">缓存服务</tspan>
                        </text>
                        <g id="yunhuancun" transform="translate(549.000000, 304.000000)" fill-rule="nonzero">
                            <path d="M20.1526333,7.50096339 C20.0659734,7.50096339 19.9793134,7.503693 19.8926535,7.50642261 C19.895449,7.42180475 19.8982444,7.33445729 19.8982444,7.24983943 C19.8982444,3.24550417 16.5855977,0 12.5013977,0 C8.75824667,0 5.66644303,2.724149 5.17164263,6.25899165 C2.28950017,6.41730893 0,8.75931278 0,11.6254014 C0,14.5515414 2.38734206,16.9317598 5.35614447,16.9972704 L5.35614447,17 L20.4070223,17 L20.4070223,16.9945408 C22.9648887,16.8635196 25,14.7890173 25,12.2504817 C25,9.6273282 22.8279101,7.50096339 20.1526333,7.50096339 Z" id="路径" fill="#20B4E9"></path>
                            <path d="M15.8167078,8.77821626 C15.2996123,7.16811365 13.7863941,6 12.0035249,6 C9.79238632,6 8,7.79005525 8,10 L9.09129362,10 C9.14839619,8.36464088 10.3602397,7.09234412 12.0035249,7.09234412 C13.2344025,7.09234412 14.4621079,7.84372534 14.8332746,9.2738753 L13.8212901,9.2738753 L13.8212901,10 L16.0070497,10 L17,8.18153118 L16.3718717,7.81846882 L15.8167078,8.77821626 Z M11.9978858,12.9076559 C10.7674419,12.9076559 9.54016913,12.1562747 9.16913319,10.7261247 L10.1775899,10.7261247 L10.1775899,10 L7.99577167,10 L7,11.8184688 L7.63107822,12.1815312 L8.18604651,11.2217837 C8.70295983,12.8318863 10.2156448,14 11.9978858,14 C14.2082452,14 16,12.2099448 16,10 L14.9090909,10 C14.8520085,11.6353591 13.640592,12.9076559 11.9978858,12.9076559 L11.9978858,12.9076559 Z" id="形状" fill="#E2F5FC"></path>
                        </g>
                        <rect id="矩形备份-11" fill="#E2F5FC" x="302" y="124" width="291" height="107"></rect>
                        <line x1="310" y1="199.5" x2="457" y2="199.5" id="直线-4" stroke="#20B4E9" stroke-linecap="square"></line>
                        <line x1="594" y1="182.5" x2="602" y2="182.5" id="直线-3" stroke="#21B4E9" stroke-linecap="square"></line>
                        <rect id="矩形备份-13" fill="#EBEEF0" x="619" y="162" width="84" height="197"></rect>
                        <text id="项目管理" font-family="PingFangSC-Regular, PingFang SC" font-size="12" font-weight="normal" line-spacing="16" fill="#789BAE">
                            <tspan x="637" y="249">项目管理</tspan>
                        </text>
                        <text id="MLS" font-family="PingFangSC-Regular, PingFang SC" font-size="12" font-weight="normal" line-spacing="16" fill="#789BAE">
                            <tspan x="648" y="350">MLS</tspan>
                        </text>
                        <text id="MRS" font-family="PingFangSC-Regular, PingFang SC" font-size="12" font-weight="normal" line-spacing="16" fill="#789BAE">
                            <tspan x="649" y="300">MRS</tspan>
                        </text>
                        <rect id="矩形备份-12" fill="#E2F5FC" x="299" y="0" width="293" height="107"></rect>
                        <g id="云主机备份-2" transform="translate(321.000000, 50.000000)">
                            <rect id="矩形备份-17" fill="#21B4E9" x="0" y="0" width="18.15" height="15.4"></rect>
                            <rect id="矩形备份-18" fill-opacity="0.65" fill="#21B4E9" x="0" y="15.4" width="18.15" height="6.05"></rect>
                            <circle id="椭圆形备份-6" fill="#E5F5FB" cx="13.75" cy="4.4" r="1.65"></circle>
                            <circle id="椭圆形备份-7" fill="#E5F5FB" cx="13.75" cy="11" r="1.65"></circle>
                            <circle id="椭圆形备份-8" fill="#E5F5FB" cx="13.75" cy="18.7" r="1.65"></circle>
                        </g>
                        <g id="云主机备份-6" transform="translate(321.000000, 174.000000)">
                            <rect id="矩形备份-17" fill="#21B4E9" x="0" y="0" width="18.15" height="15.4"></rect>
                            <rect id="矩形备份-18" fill-opacity="0.65" fill="#21B4E9" x="0" y="15.4" width="18.15" height="6.05"></rect>
                            <circle id="椭圆形备份-6" fill="#E5F5FB" cx="13.75" cy="4.4" r="1.65"></circle>
                            <circle id="椭圆形备份-7" fill="#E5F5FB" cx="13.75" cy="11" r="1.65"></circle>
                            <circle id="椭圆形备份-8" fill="#E5F5FB" cx="13.75" cy="18.7" r="1.65"></circle>
                        </g>
                        <g id="云主机备份-4" transform="translate(395.000000, 50.000000)">
                            <rect id="矩形备份-17" fill="#21B4E9" x="0" y="0" width="18.15" height="15.4"></rect>
                            <rect id="矩形备份-18" fill-opacity="0.65" fill="#21B4E9" x="0" y="15.4" width="18.15" height="6.05"></rect>
                            <circle id="椭圆形备份-6" fill="#E5F5FB" cx="13.75" cy="4.4" r="1.65"></circle>
                            <circle id="椭圆形备份-7" fill="#E5F5FB" cx="13.75" cy="11" r="1.65"></circle>
                            <circle id="椭圆形备份-8" fill="#E5F5FB" cx="13.75" cy="18.7" r="1.65"></circle>
                        </g>
                        <g id="云主机备份-7" transform="translate(428.000000, 174.000000)">
                            <rect id="矩形备份-17" fill="#21B4E9" x="0" y="0" width="18.15" height="15.4"></rect>
                            <rect id="矩形备份-18" fill-opacity="0.65" fill="#21B4E9" x="0" y="15.4" width="18.15" height="6.05"></rect>
                            <circle id="椭圆形备份-6" fill="#E5F5FB" cx="13.75" cy="4.4" r="1.65"></circle>
                            <circle id="椭圆形备份-7" fill="#E5F5FB" cx="13.75" cy="11" r="1.65"></circle>
                            <circle id="椭圆形备份-8" fill="#E5F5FB" cx="13.75" cy="18.7" r="1.65"></circle>
                        </g>
                        <g id="云主机备份-5" transform="translate(472.000000, 50.000000)">
                            <rect id="矩形备份-17" fill="#21B4E9" x="0" y="0" width="18.15" height="15.4"></rect>
                            <rect id="矩形备份-18" fill-opacity="0.65" fill="#21B4E9" x="0" y="15.4" width="18.15" height="6.05"></rect>
                            <circle id="椭圆形备份-6" fill="#E5F5FB" cx="13.75" cy="4.4" r="1.65"></circle>
                            <circle id="椭圆形备份-7" fill="#E5F5FB" cx="13.75" cy="11" r="1.65"></circle>
                            <circle id="椭圆形备份-8" fill="#E5F5FB" cx="13.75" cy="18.7" r="1.65"></circle>
                        </g>
                        <text id="游戏服务器-(QVM云主机实例)" font-family="PingFangSC-Regular, PingFang SC" font-size="12" font-weight="normal" line-spacing="12" fill="#00AAE7">
                            <tspan x="332.724" y="91">游戏服务器</tspan>
                            <tspan x="315" y="103">(QVM云主机实例)</tspan>
                        </text>
                        <line x1="310" y1="74.5" x2="424" y2="74.5" id="直线-4" stroke="#20B4E9" stroke-linecap="square"></line>
                        <text id="游戏服务器-(QVM云主机实例)" font-family="PingFangSC-Regular, PingFang SC" font-size="12" font-weight="normal" line-spacing="12" fill="#00AAE7">
                            <tspan x="349.724" y="216">游戏服务器</tspan>
                            <tspan x="332" y="228">(QVM云主机实例)</tspan>
                        </text>
                        <text id="全局数据库RDS" font-family="PingFangSC-Regular, PingFang SC" font-size="12" font-weight="normal" line-spacing="30" fill="#00AAE7">
                            <tspan x="502" y="205">全局数据库RDS</tspan>
                        </text>
                        <text id="游戏数据库-(RDS主备实例)" font-family="PingFangSC-Regular, PingFang SC" font-size="12" font-weight="normal" line-spacing="12" fill="#00AAE7">
                            <tspan x="451.08" y="91">游戏数据库</tspan>
                            <tspan x="441" y="103">(RDS主备实例)</tspan>
                        </text>
                        <text id="缓存服务" font-family="PingFangSC-Regular, PingFang SC" font-size="12" font-weight="normal" line-spacing="16" fill="#00AAE7">
                            <tspan x="538" y="87">缓存服务</tspan>
                        </text>
                        <rect id="矩形备份-38" fill="#00AAE7" opacity="0.854399182" x="299" y="0" width="293" height="40"></rect>
                        <rect id="矩形备份-41" fill="#00AAE7" opacity="0.854399182" x="619" y="0" width="84" height="40"></rect>
                        <rect id="矩形备份-42" fill="#789BAE" opacity="0.854399182" x="619" y="162" width="84" height="40"></rect>
                        <rect id="矩形备份-39" fill="#00AAE7" opacity="0.854399182" x="301" y="123" width="291" height="40"></rect>
                        <rect id="矩形备份-40" fill="#00AAE7" opacity="0.854399182" x="301" y="252" width="291" height="40"></rect>
                        <rect id="矩形备份-14" fill="#E2F5FC" x="619" y="40" width="84" height="106"></rect>
                        <text id="云监控" font-family="PingFangSC-Regular, PingFang SC" font-size="12" font-weight="normal" line-spacing="16" fill="#00AAE7">
                            <tspan x="643" y="86">云监控</tspan>
                        </text>
                        <text id="云日志" font-family="PingFangSC-Regular, PingFang SC" font-size="12" font-weight="normal" line-spacing="16" fill="#00AAE7">
                            <tspan x="643" y="139">云日志</tspan>
                        </text>
                        <g id="yunjiankong" transform="translate(649.000000, 50.000000)" fill="#20B4E9" fill-rule="nonzero">
                            <path d="M6.72169964,12.9320679 C6.72169964,9.46903097 10.7785923,6.75824176 15.9545248,6.75824176 C18.8088226,6.75824176 21.318456,7.58541459 23,8.90559441 C22.3030133,7.76063732 21.2454791,6.88205425 19.9950049,6.40909091 C19.4683101,2.78871129 16.3946805,0 12.6436588,0 C9.06853086,0.00259880218 5.99824541,2.55305357 5.32513785,6.07942058 C2.33506325,6.4045954 0,8.91758242 0,12.005994 C0,15.3163921 2.67205988,18 5.96821278,18 L10.6323711,18 C8.25403827,16.8956044 6.72169964,15.0569431 6.72169964,12.9320679 Z" id="路径"></path>
                            <path d="M16.5,9 C12.433404,9 9,11.061388 9,13.5007213 C9,15.938612 12.4348497,18 16.5,18 C20.5651503,18 24,15.938612 24,13.5007213 C24,11.0599455 20.5651503,9 16.5,9 L16.5,9 Z M16.5,15.9530373 C15.1755035,15.9076984 14.1252671,14.8231505 14.1252671,13.5007213 C14.1252671,12.1782921 15.1755035,11.0937441 16.5,11.0484052 C17.8572919,11.0484052 18.9575944,12.1463445 18.9575944,13.5007213 C18.9575944,14.855098 17.8572919,15.9530373 16.5,15.9530373 L16.5,15.9530373 Z" id="形状"></path>
                        </g>
                        <g id="wangluo_fuzaijunheng" transform="translate(225.000000, 151.000000)" fill-rule="nonzero">
                            <path d="M13.5,0 C6.04781086,0 0,6.0476429 0,13.4993237 C0,20.9523571 6.04781086,27 13.5,27 C20.9515136,27 27,20.9523571 27,13.5006763 C27,6.0476429 20.9515136,0 13.5,0 Z" id="路径" fill="#20B4E9"></path>
                            <path d="M13.5,6.00072126 C14.7492705,6.00742099 15.7602833,6.97968703 15.76725,8.18107966 C15.76725,8.83021051 15.462,9.41803456 15.0045,9.81616815 L17.991,14.7639877 C18.231,14.680322 18.471,14.6384891 18.73275,14.6384891 C19.9820205,14.6451889 20.9930333,15.6174549 21,16.8188475 C21,18.0139695 19.95375,18.9999638 18.68925,18.9999638 C17.6030948,19.0059651 16.6675101,18.2649406 16.4655,17.2386188 L10.491,17.2386188 C10.2887139,18.2647835 9.35329771,19.0056745 8.26725,18.9999638 C7.01768885,18.9932237 6.0065573,18.0205218 6,16.8188475 C6.00696674,15.6174549 7.0179795,14.6451889 8.26725,14.6384891 C8.52975,14.6384891 8.769,14.680322 9.009,14.764709 L11.9955,9.81616815 C11.5050072,9.40451512 11.2263253,8.80711166 11.23275,8.18107966 C11.2393073,6.97940537 12.2504389,6.00670344 13.5,6 L13.5,6.00072126 Z M14.2058525,10.3333213 C13.976535,10.4147689 13.7339301,10.456085 13.4894973,10.4553179 C13.2367087,10.4553179 13.0049254,10.4148847 12.7738664,10.3333213 L9.88888889,15.1155902 C10.2467043,15.4202333 10.499493,15.8252622 10.6045198,16.291638 L16.3954802,16.291638 C16.4795017,15.8252622 16.7532957,15.4202333 17.1111111,15.1162874 L14.2051282,10.3340184 L14.2058525,10.3333213 Z" id="形状" fill="#E2F5FC"></path>
                        </g>
                        <path id="路径-15备份-4" d="M125.5,57 L134.5,61.5 L125.5,66 L125.5,62 L114,62 L114,61 L125.5,61 L125.5,57 Z" fill="#28B8BB" fill-rule="nonzero"></path>
                        <rect id="矩形备份-5" fill="#E2F2F3" x="0" y="294" width="114" height="81"></rect>
                        <g id="对象存储备份" transform="translate(75.000000, 316.000000)">
                            <rect id="矩形" fill="#28B8BB" x="0" y="0" width="21" height="7"></rect>
                            <rect id="矩形备份-2" fill="#28B8BB" x="0" y="8" width="21" height="7"></rect>
                            <rect id="矩形备份-3" fill="#28B8BB" x="0" y="16" width="21" height="8"></rect>
                            <line x1="4" y1="4" x2="7" y2="4" id="直线-2" stroke="#E2F5FC" stroke-width="1.9602" stroke-linecap="square"></line>
                            <line x1="4" y1="12" x2="7" y2="12" id="直线-2" stroke="#E2F5FC" stroke-width="1.9602" stroke-linecap="square"></line>
                            <line x1="4" y1="20" x2="7" y2="20" id="直线-2" stroke="#E2F5FC" stroke-width="1.9602" stroke-linecap="square"></line>
                        </g>
                        <g id="QCDN" transform="translate(12.000000, 314.000000)">
                            <polygon id="多边形" fill="#28B8BB" points="14.5 0 27.0573684 7.25 27.0573684 21.75 14.5 29 1.94263165 21.75 1.94263165 7.25"></polygon>
                            <polyline id="路径-7" stroke="#E2F5FC" stroke-width="2.304" stroke-linecap="square" points="14 9 20 12.3482143 20 19"></polyline>
                            <polygon id="路径-6" stroke="#E2F5FC" stroke-width="2.304" points="10 11 10 17.6477482 16 21 16 14.3333333"></polygon>
                        </g>
                        <text id="客户端" font-family="PingFangSC-Regular, PingFang SC" font-size="16" font-weight="normal" line-spacing="18" fill="#FFFFFF">
                            <tspan x="33" y="28">客户端</tspan>
                        </text>
                        <g id="ddos-" transform="translate(160.000000, 77.000000)" fill-rule="nonzero">
                            <path d="M14.9993169,12.9478404 C15.0182761,13.6745635 14.6414094,14.3543462 14.0150195,14.7232912 C13.3886295,15.0922363 12.6113705,15.0922363 11.9849805,14.7232912 C11.3585906,14.3543462 10.9817239,13.6745635 11.0006831,12.9478404 C11.0289601,11.863957 11.9157493,11 13,11 C14.0842507,11 14.9710399,11.863957 14.9993169,12.9478404 L14.9993169,12.9478404 Z" id="路径" fill="#5BC7CA"></path>
                            <path d="M25.4437771,4.90572008 C24.8994011,1.76798599 24.1973997,1.12451488 21.0838936,0.578539405 C16.73051,-0.183551379 9.22462029,-0.194925865 4.9004868,0.557415356 C1.76585566,1.10176591 1.12397939,1.80698424 0.579603326,4.92196934 C-0.182523177,9.27839871 -0.195523195,16.7628126 0.555228263,21.0932432 C1.09797933,24.2326022 1.80160571,24.8744484 4.91511184,25.4204238 C9.27012039,26.1825146 16.7743851,26.195514 21.1001436,25.4447977 C24.2380248,24.8988223 24.878276,24.1968538 25.4226521,21.0786188 C26.1831536,16.7205645 26.1945286,9.23290076 25.4437771,4.90409516 L25.4437771,4.90572008 Z M17.3723863,10.9796973 L17.3723863,7.03762435 L18.9632644,7.03762435 L18.9632644,9.82112434 L21.3487691,11.0138208 L20.5638925,12.5916249 L17.3967613,11.0138208 L17.3723863,11.0138208 L17.3723863,11.0024463 L17.3642613,10.9975715 L17.3723863,10.9796973 L17.3723863,10.9796973 Z M10.9731237,4.71885346 L13.1977531,6.18941242 L15.6076328,4.79684997 L16.4022594,6.17316317 L12.9881277,8.14419966 L12.9783777,8.15882399 L12.9702526,8.15394922 L12.9588776,8.16044891 L12.9475026,8.13932486 L9.99649681,6.18616258 L10.9714987,4.71722854 L10.9731237,4.71885346 Z M7.03736601,9.81949941 L7.03736601,7.0359994 L8.62824413,7.0359994 L8.62824413,10.9780724 L8.63636912,10.9959466 L8.62824413,11.0008214 L8.62824413,11.0121959 L8.60386906,11.0121959 L5.43673784,12.59 L4.6518613,11.0121959 L7.03899101,9.81949941 L7.03736601,9.81949941 Z M8.6266191,15.0192659 L8.6266191,18.9613389 L7.03736601,18.9613389 L7.03736601,16.1778389 L4.6518613,14.9851425 L5.43673784,13.4073383 L8.60386906,14.9851425 L8.62824413,14.9851425 L8.62824413,14.9965169 L8.63636912,15.0013917 L8.6266191,15.0192659 Z M8.62661787,12.9978567 C8.6274899,11.4353588 9.46191635,9.99201572 10.8155781,9.21152089 C12.1692398,8.43102606 13.8364833,8.43195519 15.1892742,9.21395828 C16.5420651,9.99596138 17.3748822,11.4402336 17.374012,13.0027315 C17.3722163,15.4181439 15.4125908,17.3747675 12.9970652,17.3729739 C10.5815396,17.3711778 8.62482421,15.4116442 8.62661787,12.9962318 L8.62661787,12.9978567 Z M15.6076328,21.2021133 L13.1977531,19.8095508 L10.9731237,21.2801098 L9.99812181,19.8111757 L12.9475026,17.8596384 L12.9588776,17.8385143 L12.9702526,17.845014 L12.9783777,17.8401392 L12.9881277,17.8547636 L16.4022594,19.8258001 L15.6076328,21.2021133 L15.6076328,21.2021133 Z M18.9616394,16.1794638 L18.9616394,18.9629638 L17.3707613,18.9629638 L17.3707613,15.0208908 L17.3626363,15.0046416 L17.3707613,14.9997668 L17.3707613,14.9883923 L17.3951363,14.9883923 L20.5622675,13.4105882 L21.3471441,14.9883923 L18.9616394,16.1794638 L18.9616394,16.1794638 Z" id="形状" fill="#28B8BB"></path>
                        </g>
                        <text id="高速通道" font-family="PingFangSC-Regular, PingFang SC" font-size="16" font-weight="normal" line-spacing="18" fill="#FFFFFF">
                            <tspan x="143" y="28">高速通道</tspan>
                        </text>
                        <text id="游戏大区" font-family="PingFangSC-Regular, PingFang SC" font-size="16" font-weight="normal" line-spacing="18" fill="#FFFFFF">
                            <tspan x="412" y="28">游戏大区</tspan>
                        </text>
                        <text id="游戏运维" font-family="PingFangSC-Regular, PingFang SC" font-size="16" font-weight="normal" line-spacing="18" fill="#FFFFFF">
                            <tspan x="629" y="28">游戏运维</tspan>
                        </text>
                        <text id="游戏运营" font-family="PingFangSC-Regular, PingFang SC" font-size="16" font-weight="normal" line-spacing="18" fill="#FFFFFF">
                            <tspan x="629" y="190">游戏运营</tspan>
                        </text>
                        <text id="游戏大区" font-family="PingFangSC-Regular, PingFang SC" font-size="16" font-weight="normal" line-spacing="18" fill="#FFFFFF">
                            <tspan x="413" y="280">游戏大区</tspan>
                        </text>
                        <text id="登录、充值服务" font-family="PingFangSC-Regular, PingFang SC" font-size="16" font-weight="normal" line-spacing="18" fill="#FFFFFF">
                            <tspan x="389" y="151">登录、充值服务</tspan>
                        </text>
                        <text id="游戏下载更新" font-family="PingFangSC-Regular, PingFang SC" font-size="16" font-weight="normal" line-spacing="18" fill="#FFFFFF">
                            <tspan x="9" y="282">游戏下载更新</tspan>
                        </text>
                        <text id="PC端" font-family="PingFangSC-Regular, PingFang SC" font-size="14" font-weight="normal" line-spacing="18" fill="#789BAE">
                            <tspan x="10" y="106">PC端</tspan>
                        </text>
                        <text id="Anti-DDos" font-family="PingFangSC-Regular, PingFang SC" font-size="14" font-weight="normal" line-spacing="18" fill="#28B8BB">
                            <tspan x="141" y="123">Anti-DDos</tspan>
                        </text>
                        <text id="高并发-负载均衡-SLB" font-family="PingFangSC-Regular, PingFang SC" font-size="12" font-weight="normal" line-spacing="14" fill="#00AAE7">
                            <tspan x="219.636" y="199.576">高并发</tspan>
                            <tspan x="213.636" y="213.576">负载均衡</tspan>
                            <tspan x="226.254" y="227.576">SLB</tspan>
                        </text>
                        <text id="CDN" font-family="PingFangSC-Regular, PingFang SC" font-size="14" font-weight="normal" line-spacing="18" fill="#28B8BB">
                            <tspan x="10" y="362">CDN</tspan>
                        </text>
                        <text id="手机端" font-family="PingFangSC-Regular, PingFang SC" font-size="14" font-weight="normal" line-spacing="18" fill="#789BAE">
                            <tspan x="64" y="106">手机端</tspan>
                        </text>
                        <text id="高防IP" font-family="PingFangSC-Regular, PingFang SC" font-size="14" font-weight="normal" line-spacing="18" fill="#28B8BB">
                            <tspan x="156" y="209">高防IP</tspan>
                        </text>
                        <text id="Web应用-防火墙" font-family="PingFangSC-Regular, PingFang SC" font-size="14" font-weight="normal" line-spacing="18" fill="#28B8BB">
                            <tspan x="145" y="300">Web应用</tspan>
                            <tspan x="152.497" y="318">防火墙</tspan>
                        </text>
                        <text id="KODO" font-family="PingFangSC-Regular, PingFang SC" font-size="14" font-weight="normal" line-spacing="18" fill="#28B8BB">
                            <tspan x="66" y="362">KODO</tspan>
                        </text>
                        <g id="yunhuancun" transform="translate(550.000000, 53.000000)" fill-rule="nonzero">
                            <path d="M20.1526333,7.50096339 C20.0659734,7.50096339 19.9793134,7.503693 19.8926535,7.50642261 C19.895449,7.42180475 19.8982444,7.33445729 19.8982444,7.24983943 C19.8982444,3.24550417 16.5855977,0 12.5013977,0 C8.75824667,0 5.66644303,2.724149 5.17164263,6.25899165 C2.28950017,6.41730893 0,8.75931278 0,11.6254014 C0,14.5515414 2.38734206,16.9317598 5.35614447,16.9972704 L5.35614447,17 L20.4070223,17 L20.4070223,16.9945408 C22.9648887,16.8635196 25,14.7890173 25,12.2504817 C25,9.6273282 22.8279101,7.50096339 20.1526333,7.50096339 Z" id="路径" fill="#20B4E9"></path>
                            <path d="M15.8167078,8.77821626 C15.2996123,7.16811365 13.7863941,6 12.0035249,6 C9.79238632,6 8,7.79005525 8,10 L9.09129362,10 C9.14839619,8.36464088 10.3602397,7.09234412 12.0035249,7.09234412 C13.2344025,7.09234412 14.4621079,7.84372534 14.8332746,9.2738753 L13.8212901,9.2738753 L13.8212901,10 L16.0070497,10 L17,8.18153118 L16.3718717,7.81846882 L15.8167078,8.77821626 Z M11.9978858,12.9076559 C10.7674419,12.9076559 9.54016913,12.1562747 9.16913319,10.7261247 L10.1775899,10.7261247 L10.1775899,10 L7.99577167,10 L7,11.8184688 L7.63107822,12.1815312 L8.18604651,11.2217837 C8.70295983,12.8318863 10.2156448,14 11.9978858,14 C14.2082452,14 16,12.2099448 16,10 L14.9090909,10 C14.8520085,11.6353591 13.640592,12.9076559 11.9978858,12.9076559 L11.9978858,12.9076559 Z" id="形状" fill="#E2F5FC"></path>
                        </g>
                        <g id="shujuku-6" transform="translate(535.000000, 173.000000)" fill="#20B4E9" fill-rule="nonzero">
                            <path d="M18.8061914,3.21631506 C18.7398466,3.08060938 18.6614693,2.95130569 18.5720281,2.83000207 C18.3659743,2.55727776 18.124193,2.31434682 17.853375,2.10793196 C17.5328597,1.86188183 17.1904451,1.64664659 16.8305681,1.46501518 C16.4139866,1.25355878 15.9836835,1.07113803 15.5426487,0.919020425 C15.1321744,0.775710767 14.6920855,0.646023047 14.2277837,0.53272892 C12.6780673,0.169510754 11.0918722,-0.00914661106 9.50134516,0.000377587179 C7.90991184,-0.00936061786 6.32279456,0.169298125 4.7721951,0.53272892 C4.32863262,0.640527474 3.89031832,0.769441103 3.45870707,0.919041911 C3.01766555,1.07115163 2.58735538,1.25356521 2.17076643,1.46501518 C1.81105152,1.64694146 1.46866311,1.86216023 1.14795952,2.10793196 C0.876661335,2.31425678 0.634419538,2.55719932 0.427950734,2.83002356 C0.338510626,2.95132034 0.260133316,3.0806168 0.193787413,3.21631506 C0.0684356196,3.46879477 0.00212460206,3.74717363 4.26325641e-14,4.02984983 C4.26325641e-14,6.25478061 4.2527101,8.05794698 9.49998941,8.05794698 C14.7459341,8.05794698 19,6.25478061 19,4.02984983 C19,3.75001999 18.9327209,3.4783977 18.8062126,3.21631506 M0,14.208617 L0,17.9691742 C0,20.19548 4.2527101,22 9.49998941,22 C14.7459341,22 19,20.19548 19,17.9691742 L19,14.2099706 C17.0620411,15.7510543 13.6450657,16.7147312 9.49865484,16.7147312 C5.35357852,16.7147312 1.93793768,15.7510543 0,14.2099706" id="形状"></path>
                            <path d="M16.8601828,8.24619933 C14.9302949,9.08024977 12.4015471,9.57368549 9.49865484,9.57368549 C6.59845293,9.57368549 4.06968395,9.08027184 2.13981722,8.24619933 C1.54691502,7.99552524 0.979346822,7.68421101 0.445448373,7.31682884 C0.294727183,7.21168995 0.135913865,7.11074336 0,7 L0,10.8619404 C0,13.1468414 4.2527101,15 9.49998941,15 C14.7459341,15 19,13.1468414 19,10.8619404 L19,7 C18.864065,7.11076543 18.7039171,7.21168995 18.5531959,7.31680678 C18.0196568,7.68398745 17.4525586,7.99530038 16.8601828,8.24619933" id="路径"></path>
                        </g>
                        <g id="shouji-10" transform="translate(75.000000, 58.000000)" fill-rule="nonzero">
                            <path d="M16.0483443,29 L2.95165569,29 C1.32429334,29 0,27.6239766 0,25.9319272 L0,3.06839628 C0,1.37667031 1.32398218,0 2.95165569,0 L16.0483443,0 C17.6757067,0 19,1.37634684 19,3.06839628 L19,25.9319272 C19,27.6236532 17.6757067,29 16.0483443,29 Z" id="路径" fill="#789BAE"></path>
                            <path d="M18.2503287,20.4549116 L1.74998682,20.4549116 C1.33581971,20.4549116 1,20.1291805 1,19.7274558 C1,19.325731 1.33581971,19 1.74998682,19 L18.2500127,19 C18.6641798,19 19,19.325731 19,19.7274558 C19.0003155,20.1291805 18.6644958,20.4549116 18.2503287,20.4549116 Z M10.0112148,26 C11.1377746,26 12.0630954,25.1024777 12.0630954,24.0097619 C12.0630954,22.9170461 11.1377746,22.0195237 10.0112148,22.0195237 C8.88465502,22.0195237 7.9593343,22.9170461 7.9593343,24.0097619 C7.9593343,25.1024777 8.86443633,26 10.0112148,26 L10.0112148,26 Z" id="形状" fill-opacity="0.581566871" fill="#EBEEF0"></path>
                        </g>
                        <g id="PC" transform="translate(14.000000, 61.000000)" fill="#789BAE" fill-rule="nonzero">
                            <path d="M2.6,0 L23.4,0 C24.83,0 26,1.10646701 26,2.45843316 L26,13 L0,13 L0,2.45843316 C0.00335914472,1.10311657 1.16496383,0.0047598544 2.6,0 Z" id="路径"></path>
                            <path d="M22.9052413,18.5 L13.78,18.5 L13.7647059,22.4285714 L16.0588235,22.4285714 C16.4641176,22.4285714 16.8235294,22.6972796 16.8235294,23.2142857 C16.8158824,23.2771429 16.8158824,24 16.0588235,24 L9.94117647,24 C9.49,24 9.18564108,23.6668694 9.17647059,23.2142857 C9.18564108,22.7467857 9.59705882,22.4285714 9.94117647,22.4285714 L12.2352941,22.4285714 L12.2352941,18.5 L3.15058824,18.5 C1.46058824,18.5 0,17.2436551 0,15.8348633 L0,13 L26,13 L26,15.8348633 C26,17.2436244 24.5990349,18.3962919 22.9052413,18.5 L22.9052413,18.5 Z" id="路径" fill-opacity="0.65"></path>
                        </g>
                        <g id="xunifanghuoqiangVFW" transform="translate(160.000000, 257.000000)" fill-rule="nonzero">
                            <path d="M11.5,0 L0,3.7027434 L0,14.9195324 C0,16.3859654 0.620359205,17.8869237 1.84465634,19.3807633 C2.77957416,20.5215201 4.07357048,21.6676158 5.68978867,22.7870168 C8.40659707,24.6673968 11.0807102,25.821323 11.1934696,25.8686617 L11.4985403,26 L11.8036111,25.8686617 C11.9160056,25.8206111 14.5904836,24.6673968 17.3069271,22.7866608 C18.9235102,21.6676158 20.2175065,20.5215201 21.1524243,19.3804074 C22.3792759,17.8854999 23,16.3848976 23,14.9181086 L23,3.70131968 L11.5,0 Z M16.4468173,21.5587011 C14.3978073,22.9792191 12.3232532,23.9882817 11.5302881,24.3541781 L11.5,12.9701019 L1.52498889,12.9402037 L1.52498889,4.77800898 L11.5,1.56680539 L11.5302881,1.57605958 L11.5,12.9701019 L21.4746462,12.9423393 L21.4746462,14.9181086 C21.4746462,17.5245866 18.7403218,19.9680484 16.4468173,21.5587011 Z" id="形状" fill-opacity="0.500218531" fill="#5BC7CA"></path>
                            <path d="M11.5320749,25 L11.5001921,13.3283817 L1,13.4795227 L1,5.2411671 L11.5001921,2 L11.5320749,2.00934054 L11.5320749,13.3003601 L22,13.3003601 L22,15.4758833 C22,18.1066821 19.1217143,20.5729437 16.7074576,22.1784387 C14.550568,23.6122114 12.3667892,24.6306895 11.5320749,25 Z" id="路径" fill="#28B8BB"></path>
                        </g>
                        <g id="yunanquan_gaofangIP" transform="translate(160.000000, 164.000000)" fill="#28B8BB" fill-rule="nonzero">
                            <path d="M12.5,0 C13.3445946,0.684 16.8918919,3.204 24.9577703,5.364 C25,5.868 25.0422297,7.812 24.9155405,15.48 L24.9155405,15.948 C24.9155405,21.996 13.7668919,26.496 12.5,27 C11.2331081,26.496 0.0844594595,21.996 0.0844594595,15.948 L0.0844594595,15.48 C-0.0422297297,7.812 1.42108547e-14,5.832 0.0422297297,5.364 C7.8125,3.132 11.5709459,0.648 12.5,0 Z M15.7516892,9.072 L11.2331081,9.072 L11.2331081,18.324 L13.6824324,18.324 L13.6824324,15.048 L15.4983108,15.048 C18.4121622,15.048 19.847973,14.04 19.8057432,11.988 C19.7212838,10.08 18.3699324,9.108 15.7516892,9.072 L15.7516892,9.072 Z M9.62837838,9.072 L7.13682432,9.072 L7.13682432,18.324 L9.62837838,18.324 L9.62837838,9.072 Z M15.2871622,10.692 C16.5540541,10.728 17.2297297,11.196 17.2719595,12.06 C17.2297297,12.96 16.5962838,13.428 15.2871622,13.464 L13.6824324,13.464 L13.6824324,10.692 L15.2871622,10.692 Z" id="形状"></path>
                        </g>
                        <g id="DataAnalysisAI-MLS" transform="translate(652.000000, 315.000000)">
                            <polygon id="路径-3" fill="#789BAE" points="0.978074999 5.5 9 0.340442348 18.0277965 5.5 18.0277965 15.372804 9.315 20.6467674 0.599383419 15.372804"></polygon>
                            <path d="M14.58,8.25458016 C14.58,5.83076338 13.3015333,4.39625956 10.8980158,4.09946566 C10.4889064,4.05 10.2843517,4.05 9.8752424,4.05 L9.56841038,4.05 C8.03425029,4.05 6.60236754,4.74251909 5.83528747,5.88022902 C5.27276209,6.52328245 4.91479141,7.31473284 4.7613754,8.15564886 L4.7613754,8.6008397 L3.278354,11.9150382 C3.22721533,12.0139695 3.22721533,12.0634351 3.278354,12.1623664 C3.32949266,12.2118321 3.43177001,12.2612977 3.48290867,12.2612977 L4.65909808,12.2612977 L4.65909808,14.6356489 C4.65909808,14.7840458 4.76137543,14.8829771 4.91479141,14.8829771 L6.90919953,14.8829771 L6.90919953,17.01 L7.42058625,17.01 L7.42058625,14.6356489 C7.42058625,14.4872519 7.3183089,14.3883206 7.16489289,14.3883206 L5.27276212,14.3883206 L5.27276212,12.0139695 C5.27276212,11.8655725 5.17048477,11.7666412 5.01706876,11.7666412 L3.99429536,11.7666412 L5.37503944,8.74923664 L5.37503944,8.6008397 L5.37503944,8.2051145 L5.37503944,8.15564886 C5.47731679,7.41366413 5.78414881,6.72114503 6.34667418,6.12755725 C7.06261557,5.13824427 8.28994364,4.54465648 9.6706877,4.49519084 L9.97751972,4.49519084 C10.3354904,4.49519084 10.5400451,4.49519084 10.8980158,4.5446565 C13.0458399,4.79198476 14.119752,6.02862597 14.119752,8.2051145 C14.119752,9.39229007 13.966336,10.5794656 13.1992559,13.1022137 L13.1992559,14.8335114 L13.3015333,16.9605343 L13.8640586,16.9605343 L13.7617813,14.8829771 L13.7617813,13.2506107 C14.3243067,11.0246565 14.58,9.7385496 14.58,8.25458016 L14.58,8.25458016 Z" id="路径" stroke="#EEEEEE" stroke-width="0.4" fill="#EEEEEE" fill-rule="nonzero"></path>
                            <path d="M12.4835294,7.05042254 C12.2929412,7.05042254 12.15,7.14169016 12.0547059,7.27859155 L9.29117647,6.3659155 C9.29117647,6.3202817 9.33882352,6.22901409 9.33882354,6.18338027 L9.33882354,6.09211268 L10.2917647,5.86394366 C10.4347059,6.09211268 10.6729412,6.22901409 10.9588235,6.22901409 C11.3876471,6.22901409 11.7211765,5.90957748 11.7211765,5.54450705 C11.7211765,5.13380282 11.3876471,4.86 10.9588235,4.86 C10.53,4.86 10.1964706,5.17943661 10.1964706,5.54450705 L10.1964706,5.68140845 L9.24352942,5.90957746 C9.10058824,5.54450702 8.71941176,5.31633802 8.29058823,5.31633802 C7.71882353,5.31633802 7.29,5.72704225 7.29,6.22901409 C7.29,6.73098593 7.71882353,7.18732395 8.29058823,7.18732395 C8.67176471,7.18732395 9.00529412,6.95915493 9.19588237,6.68535211 L11.9594118,7.59802818 L11.9594118,7.64366198 C11.9594118,7.9174648 12.1976471,8.1 12.4358823,8.1 C12.7217647,7.96309859 12.96,7.78056339 12.96,7.50676057 C12.96,7.23295775 12.7217647,7.05042254 12.4835294,7.05042254 Z" id="路径" fill="#EEEEEE" fill-rule="nonzero"></path>
                            <path d="M17.5122,4.3074561 L10.386225,0.250572232 C9.78075001,-0.0835240774 8.80267501,-0.0835240774 8.1972,0.250572232 L1.1178,4.3074561 C0.465750014,4.68928045 0,5.50065722 0,6.2165779 L0,14.8076261 C0,15.5235467 0.465749992,16.3349235 1.1178,16.7167479 L8.24377499,20.7736317 C8.52322499,20.9645439 8.94239999,21.06 9.315,21.06 C9.68760001,21.06 10.106775,20.9645439 10.386225,20.7736317 L17.5122,16.7167479 C18.117675,16.3826516 18.63,15.5235467 18.63,14.8076261 L18.63,6.2165779 C18.63,5.50065722 18.16425,4.68928045 17.5122,4.3074561 Z M17.651925,14.8076261 C17.651925,15.1894504 17.372475,15.6667309 17.04645,15.857643 L9.92047499,19.9145269 C9.64102499,20.1054391 8.98897499,20.1054391 8.70952501,19.9145269 L1.58355001,15.857643 C1.25752502,15.6667309 0.978074999,15.1894504 0.978074999,14.8076261 L0.978074999,6.2165779 C0.978074999,5.83475353 1.257525,5.35747309 1.58355001,5.16656091 L8.70952501,1.10967705 C8.84925001,1.01422095 9.08212501,0.966492912 9.315,0.966492912 C9.54787499,0.966492912 9.78074999,1.01422095 9.92047499,1.10967705 L17.04645,5.16656091 C17.372475,5.35747309 17.651925,5.83475356 17.651925,6.2165779 L17.651925,14.8076261 Z" id="形状" fill="#789BAE" fill-rule="nonzero"></path>
                        </g>
                        <g id="DataAnalysisAI-MRS" transform="translate(652.000000, 263.000000)">
                            <g id="编组" fill="#789BAE">
                                <path d="M18.2280299,4.47312749 L10.8107731,0.260209626 C10.1805486,-0.0867365419 9.16249378,-0.0867365419 8.53226933,0.260209626 L1.16349127,4.47312749 C0.484788045,4.86963739 2.66453526e-14,5.71222096 2.66453526e-14,6.45567705 L2.66453526e-14,15.3771501 C2.66453526e-14,16.1206062 0.484788022,16.9631898 1.16349127,17.3596997 L8.58074813,21.5726176 C8.87162094,21.7708725 9.30793017,21.87 9.7442394,21.87 C10.1805486,21.87 10.5683791,21.7708725 10.8592519,21.5726176 L18.2765087,17.3596997 C18.9067332,17.0127535 19.44,16.1206062 19.44,15.3771501 L19.44,6.45567705 C19.3915212,5.71222096 18.9067332,4.86963739 18.2280299,4.47312749 Z M18.3734663,15.3771501 C18.3734663,15.7736601 18.0825935,16.2692974 17.7432419,16.4675524 L10.325985,20.6804703 C10.0351122,20.8787252 9.35640897,20.8787252 9.06553617,20.6804703 L1.64827932,16.4675524 C1.3089277,16.2692974 1.01805486,15.77366 1.01805486,15.3771501 L1.01805486,6.45567705 C1.01805486,6.05916713 1.30892768,5.56352974 1.64827932,5.36527479 L9.06553617,1.15235693 C9.21097258,1.05322945 9.4533666,1.00366572 9.6957606,1.00366572 C9.9381546,1.00366572 10.1805486,1.05322945 10.325985,1.15235693 L17.7432419,5.36527479 C18.0825935,5.56352974 18.3734663,6.05916715 18.3734663,6.45567705 L18.3734663,15.3771501 Z" id="形状" fill-rule="nonzero"></path>
                                <polygon id="路径-2" points="1.01805486 5.5 9.315 0.421752935 10.5 0.421752935 18.6431231 5.67 18.9118193 15.8845055 9.96493707 21.3841434 8.9748871 21.3841434 1.01805486 16.4969175 0.715495803 6.27327699"></polygon>
                            </g>
                            <path d="M15.1791197,7.82614285 C15.129547,7.72585713 14.9312563,7.62557143 14.8816836,7.57542858 C14.6338202,7.37485716 13.8406572,7.22442859 13.245785,7.47514286 C13.1962123,7.37485714 13.097067,7.32471429 13.0474943,7.22442856 C12.6509128,6.67285713 12.0064679,6.22157141 11.3124504,6.02099999 C10.6680055,5.7702857 9.97398789,5.67 9.23039764,5.67 C7.89193518,5.67 6.60304539,6.27171429 5.76030976,7.27457144 C5.16543755,7.47514286 4.57056535,7.82614287 4.12441119,8.27742856 L3.97569314,8.42785714 L3.92612047,8.47800001 C3.43039364,9.02957144 2.14150385,10.5338572 2.48851263,11.9378572 C2.63723068,12.69 3.28167556,13.2415714 4.27312924,13.5925714 C4.37227462,13.6427143 4.37227462,13.7931429 4.37227462,14.1942857 C4.37227462,14.5452857 4.37227462,14.9965714 4.62013805,15.2974286 C4.7688561,15.4478571 4.91757415,15.498 5.16543755,15.5481429 L5.3637283,15.5481429 C5.41330098,15.5481429 6.45432734,15.6484286 7.19791759,14.8461429 C7.99108053,13.9937143 8.18937128,12.5897143 7.84236248,10.584 C7.84236248,10.4837143 7.7432171,10.3834286 7.59449907,10.3834286 L7.4953537,10.3834286 C7.34663565,10.4335714 7.24749027,10.5338571 7.29706297,10.6842857 C7.64407175,12.4894286 7.44578102,13.7931429 6.80133612,14.4951429 C6.25603659,15.0467143 5.56201903,15.0467143 5.3637283,15.0467143 L5.21501025,15.0467143 C5.11586488,15.0467143 5.01671952,14.9965714 4.96714683,14.9464286 C4.81842877,14.8461429 4.86800145,14.5452857 4.86800145,14.2444286 C4.86800145,13.8432857 4.86800145,13.3418571 4.4218473,13.1412857 C3.57911166,12.8404286 3.08338483,12.4392857 2.98423948,11.8877143 C2.68680338,10.5338571 4.47142,8.72871428 4.47142,8.72871428 C4.47142,8.72871428 4.47142,8.67857143 4.52099267,8.67857143 C4.96714683,8.27742856 5.46287366,7.97657142 6.00817318,7.776 C6.05774586,7.776 6.10731856,7.72585715 6.10731856,7.67571428 C6.85090882,6.77314285 8.04065323,6.22157141 9.18082494,6.22157144 C10.3209967,6.22157144 11.362023,6.52242858 12.1056133,7.12414286 C12.2047587,7.22442859 12.303904,7.32471429 12.4526221,7.42500001 L12.5517674,7.52528571 C12.6013401,7.57542856 12.6509128,7.62557143 12.6509128,7.67571428 C12.7004855,7.72585713 12.7500582,7.82614285 12.7996309,7.87628572 L12.8492035,7.92642857 C13.0474943,8.27742856 13.1962123,8.62842858 13.2953577,8.92928572 C13.3449304,9.12985714 13.4936484,9.63128573 13.4936484,10.1327143 C13.4936484,10.7344286 13.3945031,10.8848572 13.3449304,11.1355714 C13.3449304,11.1857143 13.3449304,11.2358571 13.3945031,11.286 C13.5927938,11.0854286 13.7415119,10.8848571 13.7910845,10.233 C13.8406572,9.882 13.8406572,9.58114286 13.7910845,9.12985714 C13.6919392,8.52814286 13.4936484,8.17714286 13.4440757,8.02671429 C13.8406572,7.82614287 14.4355294,7.97657144 14.5842475,8.07685714 C14.6338202,8.12699999 14.7329655,8.22728571 14.7825382,8.22728571 C14.7825382,8.27742856 14.8321109,8.32757144 14.8816836,8.42785714 C15.7739919,10.6341429 15.8235646,12.2387143 15.129547,13.2917143 C14.3859567,14.3447143 13.0970669,14.4951429 12.3534767,14.4951429 L12.303904,14.4951429 C12.2047586,14.9464286 11.9073225,15.3475714 11.4611684,15.5481429 C11.2628777,15.6484286 11.0645869,15.6484286 10.8662962,15.6484286 C10.3209967,15.6484286 9.82526984,15.3475714 9.57740642,14.9464286 L9.77569714,15.8991429 C10.0731332,16.0997143 10.4697147,16.2 10.8662962,16.2 C11.1637323,16.2 11.4115957,16.1498572 11.7090318,15.9994286 C12.2047586,15.7988572 12.5517674,15.3977143 12.7500582,14.9464286 C13.5927938,14.8962857 14.8816836,14.5954286 15.6252738,13.4922857 C16.4680095,12.2888571 16.3688641,10.4837143 15.4269831,8.12699999 C15.3278377,8.07685714 15.2286924,7.92642857 15.1791197,7.82614285 L15.1791197,7.82614285 Z" id="路径" stroke="#EEEEEE" stroke-width="0.4" fill="#EEEEEE" fill-rule="nonzero"></path>
                            <path d="M10.63125,10.485 C10.681875,10.53 10.7325,10.53 10.783125,10.53 C10.884375,10.53 10.985625,10.485 11.03625,10.44 C11.03625,10.44 11.23875,10.17 11.593125,10.17 C11.64375,10.17 11.745,10.17 11.795625,10.215 L11.896875,10.215 C11.998125,10.215 12.15,10.125 12.15,10.035 C12.15,9.99000002 12.15,9.90000001 12.099375,9.855 C12.04875,9.81000001 11.998125,9.76499999 11.9475,9.76500001 C11.84625,9.72 11.694375,9.72 11.593125,9.72 C11.086875,9.72 10.7325,10.035 10.580625,10.215 C10.53,10.26 10.53,10.35 10.53,10.395 C10.53,10.395 10.53,10.44 10.63125,10.485 Z" id="路径" stroke="#EEEEEE" stroke-width="0.4" fill="#EEEEEE" fill-rule="nonzero"></path>
                        </g>
                        <g id="xiangmuguanli" transform="translate(652.000000, 212.000000)" fill="#789BAE" fill-rule="nonzero">
                            <path d="M15.5,11 L12.0144296,11 C11.4537795,11.0013491 11,11.455608 11,12.0154976 L11,15.5 C11,17.9849103 13.0153825,20 15.5,20 C17.9846175,20 20,17.9861338 20,15.5 C20,13.0138662 17.9858426,11 15.5,11 L15.5,11 Z" id="路径"></path>
                            <path d="M15.4993875,11.6654366 C16.4504392,11.663218 17.3629261,12.0495312 18.0338906,12.7384514 C18.7113098,13.4333443 19.0837066,14.35486 19.0837066,15.3327183 C19.0837066,16.3130807 18.7100848,17.2358484 18.0338906,17.9269852 C17.3576965,18.6181219 16.4561042,19 15.4993875,19 C14.5426708,19 13.6410785,18.6181219 12.9648844,17.9269852 C12.2886902,17.2358484 11.9150684,16.3130807 11.9150684,15.3327183 L11.9150684,11.6641845 L15.4993875,11.6641845 L15.4993875,11.6654366 Z M15.4993875,0 C14.3054263,0.000663952863 13.1606246,0.486081149 12.316826,1.34946531 C11.4730274,2.21284947 10.9993514,3.38347662 11.0000007,4.60382208 L11.0000007,8.17093904 C11.0000007,8.74438221 11.4569224,9.20764415 12.0142926,9.20764415 L15.5006125,9.20764415 C17.9848911,9.20764415 20.0000007,7.14675453 20.0000007,4.60382208 C20.0000007,2.06088962 17.9848911,0 15.4993875,0 Z" id="形状"></path>
                            <path d="M15.3328175,1.00000828 C16.3116413,1.00000828 17.2340668,1.38181891 17.925886,2.07407024 C18.6164141,2.76064251 19.0031857,3.69464632 18.9999802,4.66782209 C18.9999802,5.64673809 18.6177051,6.56807079 17.925886,7.26032213 C17.2401003,7.95027433 16.3061923,8.3371007 15.3328175,8.33439004 L11.6656748,8.33439004 L11.6656748,4.66657028 C11.6656748,3.68640247 12.0479299,2.76506977 12.7397491,2.07281843 C13.4262968,1.38415289 14.3598173,0.997937715 15.3328175,1.00000828 L15.3328175,1.00000828 Z M4.60335448,10.792932 C2.06167115,10.792932 0,12.8534125 0,15.3958401 C0,17.9382677 2.06167115,20 4.60335448,20 C7.14503781,20 9.20545566,17.9395195 9.20670896,15.3958401 L9.20670896,11.8319349 C9.20670896,11.2590858 8.74250722,10.7943124 8.16898026,10.792932 L4.60335448,10.792932 Z" id="形状"></path>
                            <path d="M4.49999867,11.6646588 L8.08602976,11.6646588 L8.08602976,15.3329599 C8.08602976,16.3132578 7.71235724,17.2359647 7.03607122,17.9270559 C6.35978521,18.6181471 5.45807052,19 4.50122383,19 C3.54437713,19 2.64266244,18.6193991 1.96515127,17.9270559 C1.2876401,17.2347127 0.915192734,16.3132578 0.915192734,15.3329599 C0.915192734,14.3551661 1.28886526,13.4324591 1.96515127,12.738864 C2.63585007,12.0492937 3.5485869,11.6625018 4.49999867,11.6646588 L4.49999867,11.6646588 Z M4.50000067,0 C3.30587526,0.000663909113 2.16091813,0.486049119 1.31700489,1.34937639 C0.47309165,2.21270365 -0.000648705131,3.38325367 6.6670724e-07,4.60351871 C-0.000648705131,5.82378375 0.47309165,6.99433377 1.31700489,7.85766104 C2.16091813,8.72098831 3.30587526,9.20637352 4.50000067,9.20703743 L7.98556699,9.20703743 C8.25461029,9.20703743 8.51263428,9.09782065 8.70287663,8.90341354 C8.89311897,8.70900643 9.00000067,8.4453338 9.00000067,8.17040063 L9.00000067,4.60351871 C9.00064605,3.38325367 8.52690569,2.21270365 7.68299245,1.34937639 C6.83907921,0.486049119 5.69412209,0.000663909113 4.50000067,0 Z" id="形状"></path>
                            <path d="M4.50059406,1 C5.43583689,1 6.31486947,1.36434035 6.97504087,2.02491861 C7.63398036,2.68007764 8.0030588,3.57134729 8,4.5 L8,8 L4.50059406,8 C3.57174694,8.00258663 2.68056118,7.63345901 2.02614724,6.97507469 C1.36710781,6.31988607 0.997649835,5.42873974 1,4.5 C1,3.56467517 1.36477987,2.68549687 2.02495128,2.02491861 C2.68026299,1.36714196 3.57154377,0.998153325 4.50059406,1 Z" id="路径"></path>
                        </g>
                        <g id="daily" transform="translate(653.000000, 102.000000)" fill="#20B4E9" fill-rule="nonzero">
                            <path d="M11.729794,3.34767057 C12.3002181,3.34767057 12.7642609,2.87297106 12.7642609,2.28944717 L12.7642609,0.40589396 C12.7642609,-0.177629933 12.3002181,-0.652329435 11.729794,-0.652329435 C11.1593698,-0.652329435 10.695327,-0.177629933 10.695327,0.40589396 L10.695327,2.28944717 C10.695327,2.87297106 11.1593698,3.34767057 11.729794,3.34767057 Z M4.79872789,3.34767057 C5.36915204,3.34767057 5.83319483,2.87297106 5.83319483,2.28944717 L5.83319483,0.40589396 C5.83319483,-0.177629933 5.36915204,-0.652329435 4.79872789,-0.652329435 C4.22830374,-0.652329435 3.76426094,-0.177629933 3.76426094,0.40589396 L3.76426094,2.28944717 C3.76426094,2.87297106 4.22830374,3.34767057 4.79872789,3.34767057 Z" id="形状"></path>
                            <path d="M14.7922134,1 L13.5846575,1 L13.5846575,2.09023027 C13.5846575,3.20664512 12.7042538,4.11477361 11.6224369,4.11477361 C10.5403893,4.11477361 9.66021629,3.20664512 9.66021629,2.09023027 L9.66021629,1 L6.6413266,1 L6.6413266,2.09023027 C6.6413266,3.20664512 5.76092286,4.11477361 4.67910598,4.11477361 C3.59728911,4.11477361 2.71688536,3.20664512 2.71688536,2.09023027 L2.71688536,1 L1.20755588,1 C0.540793079,1 0,1.55773134 0,2.24590944 L0,18.7540906 C0,19.4422687 0.540793079,20 1.20755588,20 L14.7924441,20 C15.4592069,20 16,19.4422687 16,18.7540906 L16,2.24590944 C15.9997693,1.55773134 15.4592069,1 14.7922134,1 L14.7922134,1 Z M6.94310022,15.6393169 L3.05465032,15.6393169 C2.70188897,15.6393169 2.368969,15.4077025 2.28660418,15.0537347 C2.16686373,14.5398031 2.54085076,14.0818111 3.01865898,14.0818111 L6.90733958,14.0818111 C7.26010094,14.0818111 7.59302091,14.3134255 7.67538572,14.6673933 C7.79512617,15.181325 7.42113915,15.6393169 6.94310022,15.6393169 L6.94310022,15.6393169 Z M12.9808796,12.213185 L3.05465032,12.213185 C2.70188897,12.213185 2.368969,11.9815706 2.28660418,11.6276028 C2.16686373,11.1136711 2.54085076,10.6556792 3.01865898,10.6556792 L12.9448882,10.6556792 C13.2976496,10.6556792 13.6305696,10.8872936 13.7129344,11.2412614 C13.8326748,11.7551931 13.4586878,12.213185 12.9808796,12.213185 Z M12.9808796,8.786815 L3.05465032,8.786815 C2.70188897,8.786815 2.368969,8.55520058 2.28660418,8.2012328 C2.16686373,7.68730111 2.54085076,7.22930918 3.01865898,7.22930918 L12.9448882,7.22930918 C13.2976496,7.22930918 13.6305696,7.4609236 13.7129344,7.81489138 C13.8326748,8.32882307 13.4586878,8.786815 12.9808796,8.786815 Z" id="形状"></path>
                        </g>
                    </g>
                </g>
            </g>
        </g>
    </g>
</svg>