<?xml version="1.0" encoding="UTF-8"?>
<svg width="707px" height="588px" viewBox="0 0 707 588" version="1.1" xmlns="http://www.w3.org/2000/svg" xmlns:xlink="http://www.w3.org/1999/xlink">
    <g id="产品" stroke="none" stroke-width="1" fill="none" fill-rule="evenodd">
        <g id="基础服务-云主机02✅" transform="translate(-420.000000, -3950.000000)">
            <g id="产品介绍-2备份-4" transform="translate(0.000000, 3595.000000)">
                <g id="编组-15" transform="translate(373.000000, 256.000000)">
                    <g id="编组-4" transform="translate(47.000000, 99.000000)">
                        <rect id="矩形备份-11" fill="#E2F5FC" x="0" y="345" width="240" height="243"></rect>
                        <rect id="矩形备份-15" fill="#E2F5FC" x="464" y="345" width="243" height="243"></rect>
                        <g id="云主机备份-6" transform="translate(529.000000, 418.000000)">
                            <rect id="矩形备份-17" fill="#21B4E9" x="0" y="0" width="27.225" height="23.1"></rect>
                            <rect id="矩形备份-18" fill-opacity="0.65" fill="#21B4E9" x="0" y="23.1" width="27.225" height="9.075"></rect>
                            <circle id="椭圆形备份-6" fill="#E5F5FB" cx="20.625" cy="6.6" r="2.475"></circle>
                            <circle id="椭圆形备份-7" fill="#E5F5FB" cx="20.625" cy="16.5" r="2.475"></circle>
                            <circle id="椭圆形备份-8" fill="#E5F5FB" cx="20.625" cy="28.05" r="2.475"></circle>
                        </g>
                        <g id="云主机备份-8" transform="translate(529.000000, 507.000000)">
                            <rect id="矩形备份-17" fill="#21B4E9" x="0" y="0" width="27.225" height="23.1"></rect>
                            <rect id="矩形备份-18" fill-opacity="0.65" fill="#21B4E9" x="0" y="23.1" width="27.225" height="9.075"></rect>
                            <circle id="椭圆形备份-6" fill="#E5F5FB" cx="20.625" cy="6.6" r="2.475"></circle>
                            <circle id="椭圆形备份-7" fill="#E5F5FB" cx="20.625" cy="16.5" r="2.475"></circle>
                            <circle id="椭圆形备份-8" fill="#E5F5FB" cx="20.625" cy="28.05" r="2.475"></circle>
                        </g>
                        <g id="云主机备份-7" transform="translate(613.000000, 418.000000)">
                            <rect id="矩形备份-17" fill="#21B4E9" x="0" y="0" width="27.225" height="23.1"></rect>
                            <rect id="矩形备份-18" fill-opacity="0.65" fill="#21B4E9" x="0" y="23.1" width="27.225" height="9.075"></rect>
                            <circle id="椭圆形备份-6" fill="#E5F5FB" cx="20.625" cy="6.6" r="2.475"></circle>
                            <circle id="椭圆形备份-7" fill="#E5F5FB" cx="20.625" cy="16.5" r="2.475"></circle>
                            <circle id="椭圆形备份-8" fill="#E5F5FB" cx="20.625" cy="28.05" r="2.475"></circle>
                        </g>
                        <g id="云主机备份-9" transform="translate(613.000000, 507.000000)">
                            <rect id="矩形备份-17" fill="#21B4E9" x="0" y="0" width="27.225" height="23.1"></rect>
                            <rect id="矩形备份-18" fill-opacity="0.65" fill="#21B4E9" x="0" y="23.1" width="27.225" height="9.075"></rect>
                            <circle id="椭圆形备份-6" fill="#E5F5FB" cx="20.625" cy="6.6" r="2.475"></circle>
                            <circle id="椭圆形备份-7" fill="#E5F5FB" cx="20.625" cy="16.5" r="2.475"></circle>
                            <circle id="椭圆形备份-8" fill="#E5F5FB" cx="20.625" cy="28.05" r="2.475"></circle>
                        </g>
                        <rect id="矩形备份-41" fill="#00AAE7" opacity="0.854399182" x="0" y="327" width="240" height="40"></rect>
                        <rect id="矩形备份-43" fill="#00AAE7" opacity="0.854399182" x="464" y="327" width="243" height="40"></rect>
                        <path id="路径-3备份" d="M124.532584,188.5 L129.028364,197.502109 L125.028,197.5 L124.971,318.5 L128.971635,318.502111 L124.467416,327.5 L119.971636,318.497891 L123.971,318.499 L124.028,197.499 L120.028365,197.497889 L124.532584,188.5 Z" fill="#28B8BB" fill-rule="nonzero"></path>
                        <path id="路径-3备份-3" d="M250.501317,459.970139 L250.5,463.969 L454.5,464.03 L454.501318,460.029861 L463.5,464.532496 L454.498683,469.029861 L454.499,465.03 L250.499,464.969 L250.498682,468.970139 L241.5,464.467504 L250.501317,459.970139 Z" fill="#20B4E9" fill-rule="nonzero"></path>
                        <path id="路径-3备份-2" d="M589.532584,188.5 L594.028364,197.502109 L590.028,197.5 L589.971,318.5 L593.971635,318.502111 L589.467416,327.5 L584.971636,318.497891 L588.971,318.499 L589.028,197.499 L585.028365,197.497889 L589.532584,188.5 Z" fill="#28B8BB" fill-rule="nonzero"></path>
                        <rect id="矩形备份-8" fill="#EBEEF0" x="0" y="0" width="707" height="189"></rect>
                        <text id="PAD" font-family="PingFangSC-Regular, PingFang SC" font-size="14" font-weight="normal" line-spacing="18" fill="#789BAE">
                            <tspan x="176" y="123">PAD</tspan>
                        </text>
                        <text id="视频流" font-family="PingFangSC-Regular, PingFang SC" font-size="14" font-weight="normal" line-spacing="18" fill="#28B8BB">
                            <tspan x="129" y="255">视频流</tspan>
                        </text>
                        <text id="控制流" font-family="PingFangSC-Regular, PingFang SC" font-size="14" font-weight="normal" line-spacing="18" fill="#20B4E9">
                            <tspan x="328" y="457">控制流</tspan>
                        </text>
                        <text id="管理系统" font-family="PingFangSC-Regular, PingFang SC" font-size="14" font-weight="normal" line-spacing="18" fill="#28B8BB">
                            <tspan x="594" y="256">管理系统</tspan>
                        </text>
                        <text id="VR眼镜" font-family="PingFangSC-Regular, PingFang SC" font-size="14" font-weight="normal" line-spacing="18" fill="#789BAE">
                            <tspan x="327" y="123">VR眼镜</tspan>
                        </text>
                        <text id="PC" font-family="PingFangSC-Regular, PingFang SC" font-size="14" font-weight="normal" line-spacing="18" fill="#789BAE">
                            <tspan x="497" y="123">PC</tspan>
                        </text>
                        <g id="PC" transform="translate(486.000000, 66.000000)" fill="#789BAE" fill-rule="nonzero">
                            <path d="M4.1,0 L36.9,0 C39.155,0 41,1.78736979 41,3.9713151 L41,21 L0,21 L0,3.9713151 C0.00529711284,1.78195754 1.83705834,0.00768899557 4.1,0 Z" id="路径"></path>
                            <path d="M36.1198035,29.5 L21.73,29.5 L21.7058824,35.5714286 L25.3235294,35.5714286 C25.9626471,35.5714286 26.5294118,35.9867048 26.5294118,36.7857143 C26.5173529,36.8828571 26.5173529,38 25.3235294,38 L15.6764706,38 C14.965,38 14.4850494,37.4851618 14.4705882,36.7857143 C14.4850494,36.0632143 15.1338235,35.5714286 15.6764706,35.5714286 L19.2941176,35.5714286 L19.2941176,29.5 L4.96823529,29.5 C2.30323529,29.5 0,27.5583761 0,25.3811523 L0,21 L41,21 L41,25.3811523 C41,27.5583287 38.7907858,29.3397238 36.1198035,29.5 L36.1198035,29.5 Z" id="路径" fill-opacity="0.448863636"></path>
                        </g>
                        <g id="ipad" transform="translate(174.000000, 63.000000)" fill-rule="nonzero">
                            <path d="M0,37.0952381 L0,3.90476189 C0,1.75714286 1.8,0 4,0 L28,0 C30.2,0 32,1.75714286 32,3.90476189 L32,37.0952381 C32,39.2428571 30.2,41 28,41 L4,41 C1.8,41 0,39.2428571 0,37.0952381 Z" id="路径" fill="#789BAE"></path>
                            <path d="M28,3 L4,3 C3.39999998,3 3,3.38787877 3,3.96969695 L3,34.030303 C3,34.6121212 3.39999998,35 4,35 L28,35 C28.6,35 29,34.6121212 29,34.030303 L29,3.96969695 C29,3.38787877 28.6,3 28,3 Z" id="路径" fill="#EBEEF0"></path>
                            <path d="M15,38.5 C15,39.3284271 15.6715729,40 16.5,40 C17.3284271,40 18,39.3284271 18,38.5 C18,37.6715729 17.3284271,37 16.5,37 C15.6715729,37 15,37.6715729 15,38.5 Z" id="路径" fill="#EBEEF0"></path>
                        </g>
                        <g id="vr" transform="translate(327.000000, 69.000000)">
                            <path d="M41.8,2.05673757 C42.4,2.05673757 43,2.57092195 43,3.29078012 L43,25.606383 C43,26.429078 42.4,27.0460993 41.6,27.0460993 L33,27.0460993 C32.6,27.0460993 32.3,26.5319149 32.2,26.429078 L26.4,16.1453901 C25.6,14.7056738 24.2,13.8829787 22.6,13.8829787 C21,13.8829787 19.6,14.7056737 18.8,16.1453901 L13,26.429078 C12.9,26.5319149 12.6,27.0460993 12.2,27.0460993 L3.6,27.0460993 C2.7,27.0460993 2.00000004,26.3262411 2.00000004,25.4007092 L2.00000004,3.80496456 C2.00000004,2.87943264 2.80000002,2.05673757 3.70000002,2.05673757 L41.8,2.05673757 M41.8,0 L3.70000002,0 C1.70000004,0 0,1.74822693 0,3.80496456 L0,25.2978723 C0,27.3546099 1.60000002,29 3.6,29 L12.2,29 C13.3,29 14.2,28.2801418 14.7,27.3546099 L20.5,17.070922 C21,16.248227 21.8,15.8368795 22.6,15.8368795 C23.4,15.8368795 24.2,16.248227 24.7,17.070922 L30.5,27.3546099 C31,28.2801418 31.9,29 33,29 L41.6,29 C43.5,29 45,27.4574468 45,25.5035461 L45,3.18794328 C45,1.43971635 43.6,0 41.8,0 L41.8,0 Z" id="形状" fill="#789BAE" fill-rule="nonzero"></path>
                            <polygon id="路径-20" fill="#789BAE" points="2.23723791 2.12688163 4.61798431 1 43.5149864 1.56344081 45 3.99940568 44.4760893 26.8419731 42.3169825 28 32.4925287 27.5177951 25.6843452 16.2735674 23.618619 14.5 20.9999517 15.0570888 13.9111809 27.5177951 2.72255884 27.5177951 1 25.1150612 1 3.99940568"></polygon>
                            <path d="M10.6,8.95652172 C12,8.95652172 13.2,10.1304348 13.2,11.5 C13.2,12.8695653 12,14.0434783 10.6,14.0434783 C9.20000004,14.0434783 8.00000004,12.8695652 8.00000004,11.5 C8.00000004,10.1304348 9.10000002,8.95652172 10.6,8.95652172 M10.6,7 C8.1,7 6,9.05434783 6,11.5 C6,13.9456522 8.1,16 10.6,16 C13.1,16 15.2,13.9456522 15.2,11.5 C15.2,8.95652178 13.1,7 10.6,7 Z M32.4,8.95652172 C33.8,8.95652172 35,10.1304348 35,11.5 C35,12.8695653 33.8,14.0434783 32.4,14.0434783 C30.9999999,14.0434783 29.8,12.8695652 29.8,11.5 C29.8,10.1304348 31,8.95652172 32.4,8.95652172 M32.4,7 C29.9,7 27.8,9.05434783 27.8,11.5 C27.8,13.9456522 29.9,16 32.4,16 C34.8999999,16 37,13.9456522 37,11.5 C37,8.95652178 35,7 32.4,7 Z" id="形状" fill="#EBEEF0" fill-rule="nonzero"></path>
                        </g>
                        <text id="QVM云主机-CPU集群" font-family="PingFangSC-Regular, PingFang SC" font-size="16" font-weight="normal" line-spacing="18" fill="#FFFFFF">
                            <tspan x="42" y="355">QVM云主机 CPU集群</tspan>
                        </text>
                        <text id="QVM云主机-业务集群" font-family="PingFangSC-Regular, PingFang SC" font-size="16" font-weight="normal" line-spacing="18" fill="#FFFFFF">
                            <tspan x="509" y="355">QVM云主机 业务集群</tspan>
                        </text>
                        <g id="zhujiCPU" transform="translate(56.000000, 418.000000)" fill="#37B8E9" fill-rule="nonzero">
                            <path d="M10,25 L25,25 L25,10 L10,10 L10,25 Z M12.5000992,12.5000772 L22.5,12.5000772 L22.5,22.5000882 L12.5000992,22.5000882 L12.5000992,12.5000772 Z" id="形状"></path>
                            <path d="M17,0 C7.6111614,0 0,7.61116488 0,17 C0,26.3888019 7.6111614,34 17,34 C26.3888386,34 34,26.3888019 34,17 C34,7.61116488 26.3888386,0 17,0 Z M29.5485775,18.2488 L29.5485775,20.7613243 L27.0362095,20.7613243 L27.0362095,24.5298283 C27.0362095,25.9111866 25.9050721,27.0424192 24.5237417,27.0424192 L20.75509,27.0424192 L20.75509,29.5546112 L18.2426223,29.5546112 L18.2426223,27.0424192 L15.7302876,27.0424192 L15.7302876,29.5546112 L13.2178531,29.5546112 L13.2178531,27.0424192 L9.4491349,27.0424192 C8.06787098,27.0424192 6.93683338,25.9111866 6.93683338,24.5298283 L6.93683338,20.7613243 L4.42433243,20.7613243 L4.42433243,18.2488 L6.93683338,18.2488 L6.93683338,15.736475 L4.42433243,15.736475 L4.42433243,13.2239839 L6.93683338,13.2239839 L6.93683338,9.45534693 C6.93683338,8.07415489 8.06787098,6.94308848 9.4491349,6.94308848 L13.2178531,6.94308848 L13.2178531,4.43056411 L15.7302876,4.43056411 L15.7302876,6.94308848 L18.2426223,6.94308848 L18.2426223,4.43056411 L20.75509,4.43056411 L20.75509,6.94308848 L24.5237417,6.94308848 C25.9050721,6.94308848 27.0362095,8.07415489 27.0362095,9.45534693 L27.0362095,13.2240171 L29.5485775,13.2240171 L29.5485775,15.7365083 L27.0362095,15.7365083 L27.0362095,18.2488332 L29.5485775,18.2488332 L29.5485775,18.2488 Z" id="形状"></path>
                        </g>
                        <g id="zhujiCPU备份-2" transform="translate(56.000000, 506.000000)" fill="#37B8E9" fill-rule="nonzero">
                            <path d="M10,25 L25,25 L25,10 L10,10 L10,25 Z M12.5000992,12.5000772 L22.5,12.5000772 L22.5,22.5000882 L12.5000992,22.5000882 L12.5000992,12.5000772 Z" id="形状"></path>
                            <path d="M17,0 C7.6111614,0 0,7.61116488 0,17 C0,26.3888019 7.6111614,34 17,34 C26.3888386,34 34,26.3888019 34,17 C34,7.61116488 26.3888386,0 17,0 Z M29.5485775,18.2488 L29.5485775,20.7613243 L27.0362095,20.7613243 L27.0362095,24.5298283 C27.0362095,25.9111866 25.9050721,27.0424192 24.5237417,27.0424192 L20.75509,27.0424192 L20.75509,29.5546112 L18.2426223,29.5546112 L18.2426223,27.0424192 L15.7302876,27.0424192 L15.7302876,29.5546112 L13.2178531,29.5546112 L13.2178531,27.0424192 L9.4491349,27.0424192 C8.06787098,27.0424192 6.93683338,25.9111866 6.93683338,24.5298283 L6.93683338,20.7613243 L4.42433243,20.7613243 L4.42433243,18.2488 L6.93683338,18.2488 L6.93683338,15.736475 L4.42433243,15.736475 L4.42433243,13.2239839 L6.93683338,13.2239839 L6.93683338,9.45534693 C6.93683338,8.07415489 8.06787098,6.94308848 9.4491349,6.94308848 L13.2178531,6.94308848 L13.2178531,4.43056411 L15.7302876,4.43056411 L15.7302876,6.94308848 L18.2426223,6.94308848 L18.2426223,4.43056411 L20.75509,4.43056411 L20.75509,6.94308848 L24.5237417,6.94308848 C25.9050721,6.94308848 27.0362095,8.07415489 27.0362095,9.45534693 L27.0362095,13.2240171 L29.5485775,13.2240171 L29.5485775,15.7365083 L27.0362095,15.7365083 L27.0362095,18.2488332 L29.5485775,18.2488332 L29.5485775,18.2488 Z" id="形状"></path>
                        </g>
                        <g id="zhujiCPU备份" transform="translate(140.000000, 418.000000)" fill="#37B8E9" fill-rule="nonzero">
                            <path d="M10,25 L25,25 L25,10 L10,10 L10,25 Z M12.5000992,12.5000772 L22.5,12.5000772 L22.5,22.5000882 L12.5000992,22.5000882 L12.5000992,12.5000772 Z" id="形状"></path>
                            <path d="M17,0 C7.6111614,0 0,7.61116488 0,17 C0,26.3888019 7.6111614,34 17,34 C26.3888386,34 34,26.3888019 34,17 C34,7.61116488 26.3888386,0 17,0 Z M29.5485775,18.2488 L29.5485775,20.7613243 L27.0362095,20.7613243 L27.0362095,24.5298283 C27.0362095,25.9111866 25.9050721,27.0424192 24.5237417,27.0424192 L20.75509,27.0424192 L20.75509,29.5546112 L18.2426223,29.5546112 L18.2426223,27.0424192 L15.7302876,27.0424192 L15.7302876,29.5546112 L13.2178531,29.5546112 L13.2178531,27.0424192 L9.4491349,27.0424192 C8.06787098,27.0424192 6.93683338,25.9111866 6.93683338,24.5298283 L6.93683338,20.7613243 L4.42433243,20.7613243 L4.42433243,18.2488 L6.93683338,18.2488 L6.93683338,15.736475 L4.42433243,15.736475 L4.42433243,13.2239839 L6.93683338,13.2239839 L6.93683338,9.45534693 C6.93683338,8.07415489 8.06787098,6.94308848 9.4491349,6.94308848 L13.2178531,6.94308848 L13.2178531,4.43056411 L15.7302876,4.43056411 L15.7302876,6.94308848 L18.2426223,6.94308848 L18.2426223,4.43056411 L20.75509,4.43056411 L20.75509,6.94308848 L24.5237417,6.94308848 C25.9050721,6.94308848 27.0362095,8.07415489 27.0362095,9.45534693 L27.0362095,13.2240171 L29.5485775,13.2240171 L29.5485775,15.7365083 L27.0362095,15.7365083 L27.0362095,18.2488332 L29.5485775,18.2488332 L29.5485775,18.2488 Z" id="形状"></path>
                        </g>
                        <g id="zhujiCPU备份-3" transform="translate(140.000000, 506.000000)" fill="#37B8E9" fill-rule="nonzero">
                            <path d="M10,25 L25,25 L25,10 L10,10 L10,25 Z M12.5000992,12.5000772 L22.5,12.5000772 L22.5,22.5000882 L12.5000992,22.5000882 L12.5000992,12.5000772 Z" id="形状"></path>
                            <path d="M17,0 C7.6111614,0 0,7.61116488 0,17 C0,26.3888019 7.6111614,34 17,34 C26.3888386,34 34,26.3888019 34,17 C34,7.61116488 26.3888386,0 17,0 Z M29.5485775,18.2488 L29.5485775,20.7613243 L27.0362095,20.7613243 L27.0362095,24.5298283 C27.0362095,25.9111866 25.9050721,27.0424192 24.5237417,27.0424192 L20.75509,27.0424192 L20.75509,29.5546112 L18.2426223,29.5546112 L18.2426223,27.0424192 L15.7302876,27.0424192 L15.7302876,29.5546112 L13.2178531,29.5546112 L13.2178531,27.0424192 L9.4491349,27.0424192 C8.06787098,27.0424192 6.93683338,25.9111866 6.93683338,24.5298283 L6.93683338,20.7613243 L4.42433243,20.7613243 L4.42433243,18.2488 L6.93683338,18.2488 L6.93683338,15.736475 L4.42433243,15.736475 L4.42433243,13.2239839 L6.93683338,13.2239839 L6.93683338,9.45534693 C6.93683338,8.07415489 8.06787098,6.94308848 9.4491349,6.94308848 L13.2178531,6.94308848 L13.2178531,4.43056411 L15.7302876,4.43056411 L15.7302876,6.94308848 L18.2426223,6.94308848 L18.2426223,4.43056411 L20.75509,4.43056411 L20.75509,6.94308848 L24.5237417,6.94308848 C25.9050721,6.94308848 27.0362095,8.07415489 27.0362095,9.45534693 L27.0362095,13.2240171 L29.5485775,13.2240171 L29.5485775,15.7365083 L27.0362095,15.7365083 L27.0362095,18.2488332 L29.5485775,18.2488332 L29.5485775,18.2488 Z" id="形状"></path>
                        </g>
                    </g>
                </g>
            </g>
        </g>
    </g>
</svg>