<?xml version="1.0" encoding="UTF-8"?>
<svg width="54px" height="62px" viewBox="0 0 54 62" version="1.1" xmlns="http://www.w3.org/2000/svg" xmlns:xlink="http://www.w3.org/1999/xlink">
    <title>headset</title>
    <g id="产品" stroke="none" stroke-width="1" fill="none" fill-rule="evenodd" stroke-linecap="square">
        <g id="智能视频-视频监控qvs" transform="translate(-533.000000, -1043.000000)" stroke-width="2">
            <g id="核心功能" transform="translate(0.000000, 542.000000)">
                <g id="编组-5" transform="translate(372.000000, 148.000000)">
                    <g id="01备份" transform="translate(0.000000, 324.000000)">
                        <g id="编组-7" transform="translate(128.000000, 0.000000)">
                            <g id="headset" transform="translate(34.000000, 30.000000)">
                                <path d="M15,29 L5,29 L5,44 C5,47.314 7.686,50 11,50 L15,50 L15,29 Z" id="路径" stroke="#00AAE7"></path>
                                <path d="M47,29 L37,29 L37,50 L41,50 C44.314,50 47,47.314 47,44 L47,29 Z" id="路径" stroke="#00AAE7"></path>
                                <path d="M37,60 L38,60 C45.732,60 52,53.732 52,46 L52,26 C52,11.641 40.359,0 26,0 L26,0 C11.641,0 0,11.641 0,26 L0,36" id="路径" stroke="#333333"></path>
                                <line x1="31" y1="60" x2="25" y2="60" id="路径" stroke="#333333"></line>
                            </g>
                        </g>
                    </g>
                </g>
            </g>
        </g>
    </g>
</svg>