<?xml version="1.0" encoding="UTF-8"?>
<svg width="62px" height="61px" viewBox="0 0 62 61" version="1.1" xmlns="http://www.w3.org/2000/svg" xmlns:xlink="http://www.w3.org/1999/xlink">
    <title>m-location</title>
    <g id="产品" stroke="none" stroke-width="1" fill="none" fill-rule="evenodd">
        <g id="智能视频-视频监控qvs" transform="translate(-929.000000, -1044.000000)" stroke-width="2">
            <g id="核心功能" transform="translate(0.000000, 542.000000)">
                <g id="编组-5" transform="translate(372.000000, 148.000000)">
                    <g id="01备份-2" transform="translate(400.000000, 324.000000)">
                        <g id="m-location" transform="translate(158.000000, 32.000000)">
                            <polyline id="路径" stroke="#333333" stroke-linecap="square" points="37 54.8 20 48 0 54 0 6 20 0 40 8 60 2 60 24"></polyline>
                            <circle id="椭圆形" stroke="#00AAE7" stroke-linecap="square" cx="48" cy="39" r="4"></circle>
                            <path d="M60,38.688 C60,45.9 48,57 48,57 C48,57 36,45.9 36,38.688 C36,31.292 42.2,27 48,27 C53.8,27 60,31.292 60,38.688 Z" id="路径" stroke="#00AAE7" stroke-linecap="square"></path>
                            <line x1="20" y1="0" x2="20" y2="48" id="路径" stroke="#333333"></line>
                            <line x1="40" y1="8" x2="40" y2="22" id="路径" stroke="#333333"></line>
                        </g>
                    </g>
                </g>
            </g>
        </g>
    </g>
</svg>