<?xml version="1.0" encoding="UTF-8"?>
<svg width="62px" height="60px" viewBox="0 0 62 60" version="1.1" xmlns="http://www.w3.org/2000/svg" xmlns:xlink="http://www.w3.org/1999/xlink">
    <title>cut</title>
    <g id="产品" stroke="none" stroke-width="1" fill="none" fill-rule="evenodd">
        <g id="智能视频-视频监控qvs" transform="translate(-1329.000000, -1044.000000)" stroke-width="2">
            <g id="核心功能" transform="translate(0.000000, 542.000000)">
                <g id="编组-5" transform="translate(372.000000, 148.000000)">
                    <g id="01备份-3" transform="translate(800.000000, 324.000000)">
                        <g id="编组-6" transform="translate(128.000000, 0.000000)">
                            <g id="cut" transform="translate(30.000000, 31.000000)">
                                <line x1="44" y1="20" x2="38" y2="20" id="路径" stroke="#00AAE7" stroke-linecap="square"></line>
                                <line x1="44" y1="58" x2="38" y2="58" id="路径" stroke="#00AAE7" stroke-linecap="square"></line>
                                <line x1="28" y1="58" x2="22" y2="58" id="路径" stroke="#00AAE7" stroke-linecap="square"></line>
                                <line x1="60" y1="42" x2="60" y2="36" id="路径" stroke="#00AAE7" stroke-linecap="square"></line>
                                <polyline id="路径" stroke="#00AAE7" stroke-linecap="square" points="60 26 60 20 54 20"></polyline>
                                <polyline id="路径" stroke="#00AAE7" stroke-linecap="square" points="60 52 60 58 54 58"></polyline>
                                <polyline id="路径" stroke="#00AAE7" stroke-linecap="square" points="6 52 6 58 12 58"></polyline>
                                <line x1="9.495" y1="10.878" x2="40" y2="36" id="路径" stroke="#333333"></line>
                                <line x1="9.6" y1="29.2" x2="40" y2="4" id="路径" stroke="#333333"></line>
                                <circle id="椭圆形" stroke="#333333" stroke-linecap="square" cx="6" cy="34" r="6"></circle>
                                <circle id="椭圆形" stroke="#333333" stroke-linecap="square" cx="6" cy="6" r="6"></circle>
                            </g>
                        </g>
                    </g>
                </g>
            </g>
        </g>
    </g>
</svg>