<?xml version="1.0" encoding="UTF-8"?>
<svg width="56px" height="56px" viewBox="0 0 56 56" version="1.1" xmlns="http://www.w3.org/2000/svg" xmlns:xlink="http://www.w3.org/1999/xlink">
    <title>data-table</title>
    <g id="解决方案" stroke="none" stroke-width="1" fill="none" fill-rule="evenodd" stroke-linecap="square">
        <g id="场景解决方案-视频冷存储解决方案✅" transform="translate(-1332.000000, -846.000000)" stroke-width="2">
            <g id="产品介绍-2" transform="translate(0.000000, 666.000000)">
                <g id="01" transform="translate(1172.000000, 148.000000)">
                    <g id="编组-6" transform="translate(128.000000, 0.000000)">
                        <g id="data-table" transform="translate(33.000000, 33.000000)">
                            <rect id="矩形" stroke="#333333" x="0" y="0" width="54" height="54"></rect>
                            <line x1="7" y1="40" x2="23" y2="40" id="路径" stroke="#00AAE7"></line>
                            <line x1="31" y1="40" x2="46" y2="40" id="路径" stroke="#00AAE7"></line>
                            <line x1="7" y1="33" x2="23" y2="33" id="路径" stroke="#00AAE7"></line>
                            <line x1="31" y1="33" x2="46" y2="33" id="路径" stroke="#00AAE7"></line>
                            <line x1="7" y1="26" x2="23" y2="26" id="路径" stroke="#00AAE7"></line>
                            <line x1="31" y1="26" x2="46" y2="26" id="路径" stroke="#00AAE7"></line>
                            <line x1="7" y1="47" x2="23" y2="47" id="路径" stroke="#00AAE7"></line>
                            <line x1="31" y1="47" x2="46" y2="47" id="路径" stroke="#00AAE7"></line>
                            <rect id="矩形" stroke="#333333" x="7" y="6" width="16" height="7"></rect>
                            <rect id="矩形" stroke="#333333" x="31" y="6" width="16" height="7"></rect>
                            <line x1="0" y1="19" x2="54" y2="19" id="路径" stroke="#333333"></line>
                        </g>
                    </g>
                </g>
            </g>
        </g>
    </g>
</svg>