<svg width="782" height="273" viewBox="0 0 782 273" xmlns="http://www.w3.org/2000/svg" xmlns:xlink="http://www.w3.org/1999/xlink"><defs><path d="M2,0 L262,0 C263.104569,-4.2495073e-16 264,0.8954305 264,2 L264,270 C264,271.104569 263.104569,272 262,272 L2,272 C0.8954305,272 -8.67738547e-17,271.104569 0,270 L0,2 C-3.57315355e-16,0.8954305 0.8954305,-1.91384796e-17 2,0 Z" id="a"/><mask id="b" maskContentUnits="userSpaceOnUse" maskUnits="objectBoundingBox" x="0" y="0" width="264" height="272" fill="#fff"><use xlink:href="#a"/></mask></defs><g fill="none" fill-rule="evenodd"><g transform="translate(188)"><use stroke="#00AAE7" mask="url(#b)" stroke-width="2" opacity=".85" stroke-dasharray="2" xlink:href="#a"/><g transform="translate(148 12)"><path d="M0,0 L104,0 L104,248 L0,248 L0,0 Z" fill="#EDF9FA"/><g transform="translate(12 20)"><text font-family="PingFangSC-Regular, PingFang SC" font-size="14" fill="#00AAE7">
                                        <tspan x="5" y="15">多媒体处理</tspan>
                                    </text><g transform="translate(0 34)"><rect fill="#00AAE7" opacity=".854" width="80" height="36"/><text font-family="PingFangSC-Regular, PingFang SC" font-size="14" fill="#FFF">
                                                <tspan x="12" y="23">视频转码</tspan>
                                            </text><g transform="translate(0 48)"><rect fill="#00AAE7" opacity=".854" width="80" height="36"/><text font-family="PingFangSC-Regular, PingFang SC" font-size="14" fill="#FFF">
                                                <tspan x="12" y="23">视频水印</tspan>
                                            </text></g><g transform="translate(0 96)"><rect fill="#00AAE7" opacity=".854" width="80" height="36"/><text font-family="PingFangSC-Regular, PingFang SC" font-size="14" fill="#FFF">
                                                <tspan x="12" y="23">视频分析</tspan>
                                            </text></g><g transform="translate(0 144)"><rect fill="#00AAE7" opacity=".854" width="80" height="36"/><text font-family="PingFangSC-Regular, PingFang SC" font-size="14" fill="#FFF">
                                                <tspan x="12" y="23">内容审核</tspan>
                                            </text></g></g></g></g><g transform="translate(12 12)"><path d="M0,0 L100,0 L100,248 L0,248 L0,0 Z" fill="#EDF9FA"/><g transform="translate(22 91)"><g transform="translate(12)"><rect fill="#21B4E9" width="31.5" height="10.5"/><rect fill="#21B4E9" y="12" width="31.5" height="10.5"/><rect fill="#21B4E9" y="24" width="31.5" height="12"/><line x1="6" y1="6" x2="10.5" y2="6" stroke="#FFF" stroke-width="2.94" stroke-linecap="square"/><line x1="6" y1="18" x2="10.5" y2="18" stroke="#FFF" stroke-width="2.94" stroke-linecap="square"/><line x1="6" y1="30" x2="10.5" y2="30" stroke="#FFF" stroke-width="2.94" stroke-linecap="square"/></g><text font-family="PingFangSC-Regular, PingFang SC" font-size="14" fill="#21B4E9">
                                        <tspan x="0" y="63">对象存储</tspan>
                                        <tspan x="10.864" y="81">Kodo</tspan>
                                    </text></g></g><path d="M135.5 132 144.5 136.5 135.5 141 135.5 137 115.5 137 115.5 136 135.5 136 135.5 132ZM283.5 132 292.5 136.5 283.5 141 283.5 137 267.5 137 267.5 136 283.5 136 283.5 132Z" fill="#00AAE7" fill-rule="nonzero"/></g><g transform="translate(484 1)"><path d="M0,0 L120,0 L120,272 L0,272 L0,0 Z" fill="#EDF9FA"/><g transform="translate(10 114)"><rect fill="#00AAE7" opacity=".854" width="100" height="36"/><text font-family="PingFangSC-Regular, PingFang SC" font-size="14" fill="#FFF">
                                    <tspan x="29" y="23">防盗链</tspan>
                                </text></g><g transform="translate(10 162)"><rect fill="#00AAE7" opacity=".854" width="100" height="36"/><text font-family="PingFangSC-Regular, PingFang SC" font-size="14" fill="#FFF">
                                    <tspan x="22" y="23">智能选路</tspan>
                                </text></g><g transform="translate(10 210)"><rect fill="#00AAE7" opacity=".854" width="100" height="36"/><text font-family="PingFangSC-Regular, PingFang SC" font-size="14" fill="#FFF">
                                    <tspan x="22" y="23">文件预热</tspan>
                                </text></g><g transform="translate(40 24)"><text font-family="PingFangSC-Regular, PingFang SC" font-size="14" fill="#21B4E9">
                                    <tspan x=".06" y="62">QCDN</tspan>
                                </text><g transform="translate(.5)"><polygon fill="#00AAE7" points="20 0 37.3205081 10 37.3205081 30 20 40 2.67949192 30 2.67949192 10"/><polygon stroke="#FFF" stroke-width="2.143" points="13.011248 14.2857143 13.011248 23.7824975 21.5826766 28.5714286 21.5826766 19.047619"/><polyline stroke="#FFF" stroke-width="2.143" stroke-linecap="square" points="18.7255337 11.4285714 27.2969623 16.2117347 27.2969623 25.7142857"/></g></g></g><g transform="translate(608 116)"><path d="M30.5,-9.5 L30.5,42.5 L34.5,42.5 L30,51.5 L25.5,42.5 L29.5,42.5 L29.5,-9.5 L30.5,-9.5 Z" transform="rotate(-90 30 21)" fill="#47C2C5" fill-rule="nonzero"/><g transform="translate(6)"><path d="M37,0.5 C37.4142136,0.5 37.7892136,0.667893219 38.0606602,0.939339828 C38.3321068,1.21078644 38.5,1.58578644 38.5,2 L38.5,2 L38.5,40 C38.5,40.4142136 38.3321068,40.7892136 38.0606602,41.0606602 C37.7892136,41.3321068 37.4142136,41.5 37,41.5 L37,41.5 L2,41.5 C1.58578644,41.5 1.21078644,41.3321068 0.939339828,41.0606602 C0.667893219,40.7892136 0.5,40.4142136 0.5,40 L0.5,40 L0.5,2 C0.5,1.58578644 0.667893219,1.21078644 0.939339828,0.939339828 C1.21078644,0.667893219 1.58578644,0.5 2,0.5 L2,0.5 Z" stroke="#47C2C5" fill="#EDF9FA"/><text font-family="PingFangSC-Regular, PingFang SC" font-size="12" fill="#47C2C5">
                                    <tspan x="7" y="17">内容</tspan>
                                    <tspan x="7" y="34">分发</tspan>
                                </text></g></g><path d="M2,0 L118,0 C119.104569,-2.02906125e-16 120,0.8954305 120,2 L120,270 C120,271.104569 119.104569,272 118,272 L2,272 C0.8954305,272 1.3527075e-16,271.104569 0,270 L0,2 C-1.3527075e-16,0.8954305 0.8954305,2.02906125e-16 2,0 Z" fill="#EDF9FA"/><text font-family="PingFangSC-Medium, PingFang SC" font-size="14" font-weight="400" fill="#28B8BB">
                                <tspan x="32" y="29">视频生产</tspan>
                            </text><path d="M41.0923862 4.81905403C42.5677271 4.81905403 44.0792571 5.60511698 45.1354766 6.9205521L45.1354766 6.9205521 45.7641586 7.70324861 44.8838355 8.18549066C43.8250911 8.76535937 43.2426976 9.82073725 43.3260169 11.0090894 43.4110194 12.228581 44.1642596 13.2511362 45.2903327 13.6769904L45.2903327 13.6769904 46.129417 13.9942771 45.7607922 14.8106379C45.3256803 15.7734388 45.1093867 16.2169668 44.5505582 17.0644673 43.6045895 18.5061437 42.4145542 19.9814846 40.7641586 19.9966336 39.3948605 20.0058913 39.2097065 19.3233462 37.7436234 19.2543343 37.1683234 19.2579412 36.7839313 19.3954155 36.4236318 19.5513512L36.0651848 19.7091664C35.702412 19.8645868 35.3081267 20 34.7155136 20L34.7155136 20 34.6826909 20C32.9935813 19.984851 31.8010211 18.4977277 30.9501543 17.2033328 28.8032093 13.936206 28.3756718 9.8249453 29.9334904 7.42720081 30.9770857 5.81972732 32.6661953 4.81989564 34.3409975 4.81989564 35.207855 4.81989564 35.8828255 5.06059586 36.4786848 5.27268137 36.9331537 5.43427032 37.3253436 5.57397744 37.7225831 5.57397744 38.0710093 5.57397744 38.388296 5.45446894 38.7905852 5.30213769 39.3603546 5.08668574 40.0698311 4.81905403 41.0923862 4.81905403ZM40.8382202 0C40.9888683 1.01245582 40.573955 2.00302979 40.026909 2.70493183 39.441149 3.45648881 38.4320597 4.03888234 37.4574763 4.00858441 37.2798967 3.03905066 37.7368905 2.04258542 38.2906693 1.37013971 38.900836.629523649 39.9444313.0614374684 40.8382202 0ZM3.33333333 15C3.33333333 15.4583333 3.70833333 15.8333333 4.16666667 15.8333333L5 15.8333333 5 18.75C5 19.4416667 5.55833333 20 6.25 20 6.94166667 20 7.5 19.4416667 7.5 18.75L7.5 15.8333333 9.16666667 15.8333333 9.16666667 18.75C9.16666667 19.4416667 9.725 20 10.4166667 20 11.1083333 20 11.6666667 19.4416667 11.6666667 18.75L11.6666667 15.8333333 12.5 15.8333333C12.9583333 15.8333333 13.3333333 15.4583333 13.3333333 15L13.3333333 6.66666667 3.33333333 6.66666667 3.33333333 15ZM1.25 6.66666667C.558333333 6.66666667 0 7.225 0 7.91666667L0 13.75C0 14.4416667.558333333 15 1.25 15 1.94166667 15 2.5 14.4416667 2.5 13.75L2.5 7.91666667C2.5 7.225 1.94166667 6.66666667 1.25 6.66666667ZM15.4166667 6.66666667C14.725 6.66666667 14.1666667 7.225 14.1666667 7.91666667L14.1666667 13.75C14.1666667 14.4416667 14.725 15 15.4166667 15 16.1083333 15 16.6666667 14.4416667 16.6666667 13.75L16.6666667 7.91666667C16.6666667 7.225 16.1083333 6.66666667 15.4166667 6.66666667ZM11.275 1.8 12.3583333.716666667C12.525.55 12.525.291666667 12.3583333.125 12.1916667-.0416666667 11.9333333-.0416666667 11.7666667.125L10.5333333 1.35833333C9.85140601 1.01298937 9.0977202.833132533 8.33333317.833333333 7.53333333.833333333 6.78333333 1.025 6.11666667 1.35833333L4.875.125C4.70833333-.0416666667 4.45-.0416666667 4.28333333.125 4.11666667.291666667 4.11666667.55 4.28333333.716666667L5.375 1.80833333C4.09139882 2.74754494 3.33292877 4.24281447 3.33333317 5.83333333L13.3333332 5.83333333C13.3333332 4.175 12.525 2.70833333 11.275 1.8L11.275 1.8ZM6.66666667 4.16666667 5.83333333 4.16666667 5.83333333 3.33333333 6.66666667 3.33333333 6.66666667 4.16666667ZM10.8333333 4.16666667 10 4.16666667 10 3.33333333 10.8333333 3.33333333 10.8333333 4.16666667Z" transform="translate(37 46)" fill="#47C2C5" fill-rule="nonzero"/><g transform="translate(10 82)"><rect fill="#28B8BB" opacity=".854" width="100" height="36"/><text font-family="PingFangSC-Regular, PingFang SC" font-size="14" fill="#FFF">
                                        <tspan x="22" y="23">美颜滤镜</tspan>
                                    </text><g transform="translate(0 48)"><rect fill="#28B8BB" opacity=".854" width="100" height="36"/><text font-family="PingFangSC-Regular, PingFang SC" font-size="14" fill="#FFF">
                                        <tspan x="22" y="23">剪辑拼接</tspan>
                                    </text></g><g transform="translate(0 96)"><rect fill="#28B8BB" opacity=".854" width="100" height="36"/><text font-family="PingFangSC-Regular, PingFang SC" font-size="14" fill="#FFF">
                                        <tspan x="22" y="23">转码压缩</tspan>
                                    </text></g><g transform="translate(0 144)"><rect fill="#28B8BB" opacity=".854" width="100" height="36"/><text font-family="PingFangSC-Regular, PingFang SC" font-size="14" fill="#FFF">
                                        <tspan x="24" y="23">AR 特效</tspan>
                                    </text></g></g><g transform="translate(672)"><path d="M2,0 L108,0 C109.104569,-2.02906125e-16 110,0.8954305 110,2 L110,270 C110,271.104569 109.104569,272 108,272 L2,272 C0.8954305,272 1.3527075e-16,271.104569 0,270 L0,2 C-1.3527075e-16,0.8954305 0.8954305,2.02906125e-16 2,0 Z" fill="#EDF9FA"/><text font-family="PingFangSC-Medium, PingFang SC" font-size="14" font-weight="400" fill="#28B8BB">
                                <tspan x="27" y="31">视频消费</tspan>
                            </text><path d="M41.0923862 4.81905403C42.5677271 4.81905403 44.0792571 5.60511698 45.1354766 6.9205521L45.1354766 6.9205521 45.7641586 7.70324861 44.8838355 8.18549066C43.8250911 8.76535937 43.2426976 9.82073725 43.3260169 11.0090894 43.4110194 12.228581 44.1642596 13.2511362 45.2903327 13.6769904L45.2903327 13.6769904 46.129417 13.9942771 45.7607922 14.8106379C45.3256803 15.7734388 45.1093867 16.2169668 44.5505582 17.0644673 43.6045895 18.5061437 42.4145542 19.9814846 40.7641586 19.9966336 39.3948605 20.0058913 39.2097065 19.3233462 37.7436234 19.2543343 37.1683234 19.2579412 36.7839313 19.3954155 36.4236318 19.5513512L36.0651848 19.7091664C35.702412 19.8645868 35.3081267 20 34.7155136 20L34.7155136 20 34.6826909 20C32.9935813 19.984851 31.8010211 18.4977277 30.9501543 17.2033328 28.8032093 13.936206 28.3756718 9.8249453 29.9334904 7.42720081 30.9770857 5.81972732 32.6661953 4.81989564 34.3409975 4.81989564 35.207855 4.81989564 35.8828255 5.06059586 36.4786848 5.27268137 36.9331537 5.43427032 37.3253436 5.57397744 37.7225831 5.57397744 38.0710093 5.57397744 38.388296 5.45446894 38.7905852 5.30213769 39.3603546 5.08668574 40.0698311 4.81905403 41.0923862 4.81905403ZM40.8382202 0C40.9888683 1.01245582 40.573955 2.00302979 40.026909 2.70493183 39.441149 3.45648881 38.4320597 4.03888234 37.4574763 4.00858441 37.2798967 3.03905066 37.7368905 2.04258542 38.2906693 1.37013971 38.900836.629523649 39.9444313.0614374684 40.8382202 0ZM66.1818182 10.8181818 66.1818182 19 58 19 58 10.8181818 66.1818182 10.8181818ZM76 10.8181818 76 19 67.8181818 19 67.8181818 10.8181818 76 10.8181818ZM66.1818182 1 66.1818182 9.18181818 58 9.18181818 58 1 66.1818182 1ZM76 1 76 9.18181818 67.8181818 9.18181818 67.8181818 1 76 1ZM3.33333333 15C3.33333333 15.4583333 3.70833333 15.8333333 4.16666667 15.8333333L5 15.8333333 5 18.75C5 19.4416667 5.55833333 20 6.25 20 6.94166667 20 7.5 19.4416667 7.5 18.75L7.5 15.8333333 9.16666667 15.8333333 9.16666667 18.75C9.16666667 19.4416667 9.725 20 10.4166667 20 11.1083333 20 11.6666667 19.4416667 11.6666667 18.75L11.6666667 15.8333333 12.5 15.8333333C12.9583333 15.8333333 13.3333333 15.4583333 13.3333333 15L13.3333333 6.66666667 3.33333333 6.66666667 3.33333333 15ZM1.25 6.66666667C.558333333 6.66666667 0 7.225 0 7.91666667L0 13.75C0 14.4416667.558333333 15 1.25 15 1.94166667 15 2.5 14.4416667 2.5 13.75L2.5 7.91666667C2.5 7.225 1.94166667 6.66666667 1.25 6.66666667ZM15.4166667 6.66666667C14.725 6.66666667 14.1666667 7.225 14.1666667 7.91666667L14.1666667 13.75C14.1666667 14.4416667 14.725 15 15.4166667 15 16.1083333 15 16.6666667 14.4416667 16.6666667 13.75L16.6666667 7.91666667C16.6666667 7.225 16.1083333 6.66666667 15.4166667 6.66666667ZM11.275 1.8 12.3583333.716666667C12.525.55 12.525.291666667 12.3583333.125 12.1916667-.0416666667 11.9333333-.0416666667 11.7666667.125L10.5333333 1.35833333C9.85140601 1.01298937 9.0977202.833132533 8.33333317.833333333 7.53333333.833333333 6.78333333 1.025 6.11666667 1.35833333L4.875.125C4.70833333-.0416666667 4.45-.0416666667 4.28333333.125 4.11666667.291666667 4.11666667.55 4.28333333.716666667L5.375 1.80833333C4.09139882 2.74754494 3.33292877 4.24281447 3.33333317 5.83333333L13.3333332 5.83333333C13.3333332 4.175 12.525 2.70833333 11.275 1.8L11.275 1.8ZM6.66666667 4.16666667 5.83333333 4.16666667 5.83333333 3.33333333 6.66666667 3.33333333 6.66666667 4.16666667ZM10.8333333 4.16666667 10 4.16666667 10 3.33333333 10.8333333 3.33333333 10.8333333 4.16666667Z" transform="translate(17 48)" fill="#47C2C5" fill-rule="nonzero"/><g transform="translate(10 82)"><rect fill="#28B8BB" opacity=".854" width="90" height="36"/><text font-family="PingFangSC-Regular, PingFang SC" font-size="14" fill="#FFF">
                                        <tspan x="17" y="23">滑动播放</tspan>
                                    </text><g transform="translate(0 48)"><rect fill="#28B8BB" opacity=".854" width="90" height="36"/><text font-family="PingFangSC-Regular, PingFang SC" font-size="14" fill="#FFF">
                                        <tspan x="17" y="23">首开优化</tspan>
                                    </text></g><g transform="translate(0 96)"><rect fill="#28B8BB" opacity=".854" width="90" height="36"/><text font-family="PingFangSC-Regular, PingFang SC" font-size="14" fill="#FFF">
                                        <tspan x="17" y="23">倍速播放</tspan>
                                    </text></g><g transform="translate(0 144)"><rect fill="#28B8BB" opacity=".854" width="90" height="36"/><text font-family="PingFangSC-Regular, PingFang SC" font-size="14" fill="#FFF">
                                        <tspan x="17" y="23">版权保护</tspan>
                                    </text></g></g></g><g transform="translate(124 114)"><path d="M51.5,17.5 L60.5,22 L51.5,26.5 L51.5,22.5 L-0.5,22.5 L-0.5,21.5 L51.5,21.5 L51.5,17.5 Z" fill="#47C2C5" fill-rule="nonzero"/><g transform="translate(6)"><path d="M37,0.5 C37.4142136,0.5 37.7892136,0.667893219 38.0606602,0.939339828 C38.3321068,1.21078644 38.5,1.58578644 38.5,2 L38.5,2 L38.5,44 C38.5,44.4142136 38.3321068,44.7892136 38.0606602,45.0606602 C37.7892136,45.3321068 37.4142136,45.5 37,45.5 L37,45.5 L2,45.5 C1.58578644,45.5 1.21078644,45.3321068 0.939339828,45.0606602 C0.667893219,44.7892136 0.5,44.4142136 0.5,44 L0.5,44 L0.5,2 C0.5,1.58578644 0.667893219,1.21078644 0.939339828,0.939339828 C1.21078644,0.667893219 1.58578644,0.5 2,0.5 L2,0.5 Z" stroke="#47C2C5" fill="#EDF9FA"/><text font-family="PingFangSC-Regular, PingFang SC" font-size="12" fill="#47C2C5">
                                    <tspan x="7" y="19">数据</tspan>
                                    <tspan x="7" y="36">上传</tspan>
                                </text></g></g></g></svg>