<svg width="770" height="483" viewBox="0 0 770 483" xmlns="http://www.w3.org/2000/svg" xmlns:xlink="http://www.w3.org/1999/xlink"><defs><rect id="a" x="0" y="0" width="228" height="153"/><mask id="b" maskContentUnits="userSpaceOnUse" maskUnits="objectBoundingBox" x="0" y="0" width="228" height="153" fill="#fff"><use xlink:href="#a"/></mask></defs><g fill="none" fill-rule="evenodd"><g transform="translate(259)"><path d="M2,0 L250,0 C251.104569,-2.02906125e-16 252,0.8954305 252,2 L252,312 C252,313.104569 251.104569,314 250,314 L2,314 C0.8954305,314 1.3527075e-16,313.104569 0,312 L0,2 C-1.3527075e-16,0.8954305 0.8954305,2.02906125e-16 2,0 Z" fill="#EDF9FA"/><text font-family="PingFangSC-Medium, PingFang SC" font-size="14" font-weight="400" fill="#22B5E9">
                                <tspan x="69" y="27">实时音视频 QRTC</tspan>
                            </text><g transform="translate(12 151)"><use stroke="#00AAE7" mask="url(#b)" stroke-width="2" stroke-dasharray="2,2" xlink:href="#a"/><text font-family="PingFangSC-Medium, PingFang SC" font-size="14" font-weight="400" fill="#22B5E9">
                                    <tspan x="58" y="27">存储及多媒体处理</tspan>
                                </text><g transform="translate(11 40)"><rect stroke="#00AAE7" x=".5" y=".5" width="97" height="27"/><text font-family="PingFangSC-Regular, PingFang SC" font-size="12" fill="#00AAE7">
                                            <tspan x="25" y="18">内容审核</tspan>
                                        </text><g transform="translate(108)"><rect stroke="#00AAE7" x=".5" y=".5" width="97" height="27"/><text font-family="PingFangSC-Regular, PingFang SC" font-size="12" fill="#00AAE7">
                                            <tspan x="25" y="18">视频分析</tspan>
                                        </text></g><g transform="translate(0 38)"><rect stroke="#00AAE7" x=".5" y=".5" width="97" height="27"/><text font-family="PingFangSC-Regular, PingFang SC" font-size="12" fill="#00AAE7">
                                            <tspan x="20" y="19">音视频处理</tspan>
                                        </text></g><g transform="translate(0 76)"><rect stroke="#00AAE7" x=".5" y=".5" width="97" height="27"/><text font-family="PingFangSC-Regular, PingFang SC" font-size="12" fill="#00AAE7">
                                            <tspan x="25" y="18">录制存储</tspan>
                                        </text></g><g transform="translate(108 76)"><rect stroke="#00AAE7" x=".5" y=".5" width="97" height="27"/><text font-family="PingFangSC-Regular, PingFang SC" font-size="12" fill="#00AAE7">
                                            <tspan x="25" y="18">实时转码</tspan>
                                        </text></g><g transform="translate(108 38)"><rect stroke="#00AAE7" x=".5" y=".5" width="97" height="27"/><text font-family="PingFangSC-Regular, PingFang SC" font-size="12" fill="#00AAE7">
                                            <tspan x="25" y="18">质量分析</tspan>
                                        </text></g></g></g><g transform="translate(10 44)"><rect fill="#00AAE7" opacity=".854" width="110" height="28"/><text font-family="PingFangSC-Regular, PingFang SC" font-size="12" fill="#FFF">
                                        <tspan x="31" y="19">调度中心</tspan>
                                    </text><g transform="translate(122)"><rect fill="#00AAE7" opacity=".854" width="110" height="28"/><text font-family="PingFangSC-Regular, PingFang SC" font-size="12" fill="#FFF">
                                        <tspan x="31" y="19">业务中心</tspan>
                                    </text></g><g transform="translate(0 62)"><rect fill="#00AAE7" opacity=".854" width="232" height="28"/><text font-family="PingFangSC-Regular, PingFang SC" font-size="12" fill="#FFF">
                                        <tspan x="74" y="19">实时音视频网络</tspan>
                                    </text></g><path d="M55 33 55 45 59 45 54.5 54 50 45 54 45 54 33 55 33ZM178 33 178 45 182 45 177.5 54 173 45 177 45 177 33 178 33Z" fill="#00AAE7" fill-rule="nonzero"/></g></g><g transform="translate(519 100)"><path d="M84,8 L93,12.5 L84,17 L84,13 L9,13 L9,17 L0,12.5 L9,8 L9,12 L84,12 L84,8 Z" fill="#00AAE7" fill-rule="nonzero"/><g transform="translate(19)"><path d="M54,0.5 C54.4142136,0.5 54.7892136,0.667893219 55.0606602,0.939339828 C55.3321068,1.21078644 55.5,1.58578644 55.5,2 L55.5,2 L55.5,22 C55.5,22.4142136 55.3321068,22.7892136 55.0606602,23.0606602 C54.7892136,23.3321068 54.4142136,23.5 54,23.5 L54,23.5 L2,23.5 C1.58578644,23.5 1.21078644,23.3321068 0.939339828,23.0606602 C0.667893219,22.7892136 0.5,22.4142136 0.5,22 L0.5,22 L0.5,2 C0.5,1.58578644 0.667893219,1.21078644 0.939339828,0.939339828 C1.21078644,0.667893219 1.58578644,0.5 2,0.5 L2,0.5 Z" stroke="#00AAE7" fill="#EDF9FA"/><text font-family="PingFangSC-Regular, PingFang SC" font-size="12" fill="#00AAE7">
                                    <tspan x="4" y="17">连麦互动</tspan>
                                </text></g></g><g transform="translate(519 428)"><path d="M84,8 L93,12.5 L84,17 L84,13 L0,13 L0,12 L84,12 L84,8 Z" fill="#00AAE7" fill-rule="nonzero"/><g transform="translate(17)"><path d="M54,0.5 C54.4142136,0.5 54.7892136,0.667893219 55.0606602,0.939339828 C55.3321068,1.21078644 55.5,1.58578644 55.5,2 L55.5,2 L55.5,22 C55.5,22.4142136 55.3321068,22.7892136 55.0606602,23.0606602 C54.7892136,23.3321068 54.4142136,23.5 54,23.5 L54,23.5 L2,23.5 C1.58578644,23.5 1.21078644,23.3321068 0.939339828,23.0606602 C0.667893219,22.7892136 0.5,22.4142136 0.5,22 L0.5,22 L0.5,2 C0.5,1.58578644 0.667893219,1.21078644 0.939339828,0.939339828 C1.21078644,0.667893219 1.58578644,0.5 2,0.5 L2,0.5 Z" stroke="#00AAE7" fill="#EDF9FA"/><text font-family="PingFangSC-Regular, PingFang SC" font-size="12" fill="#00AAE7">
                                    <tspan x="4" y="17">直播下行</tspan>
                                </text></g></g><path d="M2,0 L148,0 C149.104569,-2.02906125e-16 150,0.8954305 150,2 L150,225 C150,226.104569 149.104569,227 148,227 L2,227 C0.8954305,227 1.3527075e-16,226.104569 0,225 L0,2 C-1.3527075e-16,0.8954305 0.8954305,2.02906125e-16 2,0 Z" fill="#EDF9FA"/><text font-family="PingFangSC-Medium, PingFang SC" font-size="14" font-weight="400" fill="#28B8BB">
                                <tspan x="61" y="23">主播</tspan>
                            </text><g transform="translate(10 36)" fill="#47C2C5"><path d="M38.0923862 4.81905403C39.5677271 4.81905403 41.0792571 5.60511698 42.1354766 6.9205521L42.1354766 6.9205521 42.7641586 7.70324861 41.8838355 8.18549066C40.8250911 8.76535937 40.2426976 9.82073725 40.3260169 11.0090894 40.4110194 12.228581 41.1642596 13.2511362 42.2903327 13.6769904L42.2903327 13.6769904 43.129417 13.9942771 42.7607922 14.8106379C42.3256803 15.7734388 42.1093867 16.2169668 41.5505582 17.0644673 40.6045895 18.5061437 39.4145542 19.9814846 37.7641586 19.9966336 36.3948605 20.0058913 36.2097065 19.3233462 34.7436234 19.2543343 34.1683234 19.2579412 33.7839313 19.3954155 33.4236318 19.5513512L33.0651848 19.7091664C32.702412 19.8645868 32.3081267 20 31.7155136 20L31.7155136 20 31.6826909 20C29.9935813 19.984851 28.8010211 18.4977277 27.9501543 17.2033328 25.8032093 13.936206 25.3756718 9.8249453 26.9334904 7.42720081 27.9770857 5.81972732 29.6661953 4.81989564 31.3409975 4.81989564 32.207855 4.81989564 32.8828255 5.06059586 33.4786848 5.27268137 33.9331537 5.43427032 34.3253436 5.57397744 34.7225831 5.57397744 35.0710093 5.57397744 35.388296 5.45446894 35.7905852 5.30213769 36.3603546 5.08668574 37.0698311 4.81905403 38.0923862 4.81905403ZM37.8382202 0C37.9888683 1.01245582 37.573955 2.00302979 37.026909 2.70493183 36.441149 3.45648881 35.4320597 4.03888234 34.4574763 4.00858441 34.2798967 3.03905066 34.7368905 2.04258542 35.2906693 1.37013971 35.900836.629523649 36.9444313.0614374684 37.8382202 0ZM71 11.8181818 71 20 62.8181818 20 62.8181818 11.8181818 71 11.8181818ZM61.1818182 11.8181818 61.1818182 20 53 20 53 11.8181818 61.1818182 11.8181818ZM61.1818182 2 61.1818182 10.1818182 53 10.1818182 53 2 61.1818182 2ZM71 2 71 10.1818182 62.8181818 10.1818182 62.8181818 2 71 2ZM96.3358333 8.1105C99.5643333 8.1105 103 10.2555 103 13.18425 103 14.9589167 102.228167 16.74 100.606583 17.87025L100.606583 17.87025 100.996167 19.5615C101.031917 19.7173333 100.8605 19.83925 100.724833 19.7530833L100.724833 19.7530833 99.0079167 18.6631667C98.2351667 18.9198333 97.346 19.0646667 96.3358333 19.0646667 91.7699167 19.0646667 89.833 15.7710833 89.833 13.5875833 89.833 11.40775 91.7699167 8.1105 96.3358333 8.1105ZM88.9786667 2C92.7095 2 96.01225 4.2 96.6759167 7.37991667 96.56225 7.37533333 96.4485833 7.37258333 96.3349167 7.37258333 91.3409167 7.37258333 89.0941667 11.0071667 89.0941667 13.5875833 89.0941667 14.0440833 89.16475 14.5326667 89.3068333 15.0285833 89.1079167 15.0194167 87.0600833 14.9213333 86.09575 14.61425L86.09575 14.61425 83.9140833 15.8508333C83.6959167 15.9745833 83.4365 15.77475 83.5006667 15.5318333L83.5006667 15.5318333 83.9865 13.6920833C83.9865 13.6920833 81 11.7551667 81 8.41116667 81 5.06716667 84.4595 2 88.9786667 2ZM94.2476667 10.8751667C93.7636667 10.8751667 93.3713333 11.2675 93.3713333 11.7515 93.3713333 12.2355 93.7636667 12.6278333 94.2476667 12.6278333 94.7316667 12.6278333 95.124 12.2355 95.124 11.7515 95.124 11.2675 94.7316667 10.8751667 94.2476667 10.8751667ZM98.6293333 10.8751667C98.1453333 10.8751667 97.753 11.2675 97.753 11.7515 97.753 12.2355 98.1453333 12.6278333 98.6293333 12.6278333 99.1133333 12.6278333 99.5056667 12.2355 99.5056667 11.7515 99.5056667 11.2675 99.1133333 10.8751667 98.6293333 10.8751667ZM86.0040833 5.34308333C85.4559167 5.34308333 85.01225 5.78675 85.01225 6.33491667 85.01225 6.88308333 85.4568333 7.32675 86.0040833 7.32675 86.55225 7.32675 86.9959167 6.88308333 86.9959167 6.33491667 86.9959167 5.78675 86.55225 5.34308333 86.0040833 5.34308333ZM91.769 5.34308333C91.2208333 5.34308333 90.7771667 5.78675 90.7771667 6.33491667 90.7771667 6.88308333 91.22175 7.32675 91.769 7.32675 92.3171667 7.32675 92.7608333 6.88308333 92.7608333 6.33491667 92.7608333 5.78675 92.31625 5.34308333 91.769 5.34308333Z" fill-rule="nonzero"/><path d="M130,2 L130,20 L112,20 L112,2 L130,2 Z M120.556,9.432 L119.248,9.432 L119.248,15.192 C119.248,15.828 119.128,16.284 118.912,16.572 C118.684,16.86 118.324,17.016 117.82,17.016 C116.932,17.016 116.488,16.5 116.488,15.48 L116.488,15.204 L115.18,15.204 L115.18,15.492 C115.18,16.332 115.408,16.98 115.864,17.46 C116.296,17.928 116.944,18.168 117.796,18.168 C118.78,18.168 119.5,17.904 119.956,17.4 C120.352,16.92 120.556,16.2 120.556,15.24 L120.556,9.432 Z M125.236,9.264 C124.324,9.264 123.568,9.468 122.968,9.876 C122.332,10.308 122.02,10.896 122.02,11.652 C122.02,12.396 122.344,12.972 123.004,13.368 C123.268,13.512 123.916,13.74 124.972,14.076 C125.92,14.364 126.484,14.556 126.676,14.652 C127.216,14.928 127.492,15.3 127.492,15.78 C127.492,16.164 127.3,16.464 126.916,16.68 C126.532,16.896 126.016,17.016 125.368,17.016 C124.648,17.016 124.12,16.884 123.772,16.62 C123.388,16.332 123.148,15.84 123.052,15.168 L121.756,15.168 C121.828,16.248 122.212,17.04 122.92,17.544 C123.508,17.952 124.324,18.168 125.368,18.168 C126.448,18.168 127.288,17.952 127.888,17.52 C128.488,17.076 128.788,16.476 128.788,15.708 C128.788,14.916 128.416,14.304 127.684,13.86 C127.348,13.656 126.592,13.38 125.44,13.02 C124.636,12.78 124.144,12.6 123.952,12.492 C123.52,12.264 123.316,11.964 123.316,11.58 C123.316,11.148 123.496,10.836 123.868,10.644 C124.168,10.476 124.6,10.392 125.164,10.392 C125.812,10.392 126.292,10.512 126.628,10.764 C126.964,11.004 127.18,11.412 127.3,11.964 L128.596,11.964 C128.512,11.028 128.176,10.344 127.576,9.9 C127.012,9.468 126.232,9.264 125.236,9.264 Z"/><path d="M3.33333333,16 C3.33333333,16.4583333 3.70833333,16.8333333 4.16666667,16.8333333 L5,16.8333333 L5,19.75 C5,20.4416667 5.55833333,21 6.25,21 C6.94166667,21 7.5,20.4416667 7.5,19.75 L7.5,16.8333333 L9.16666667,16.8333333 L9.16666667,19.75 C9.16666667,20.4416667 9.725,21 10.4166667,21 C11.1083333,21 11.6666667,20.4416667 11.6666667,19.75 L11.6666667,16.8333333 L12.5,16.8333333 C12.9583333,16.8333333 13.3333333,16.4583333 13.3333333,16 L13.3333333,7.66666667 L3.33333333,7.66666667 L3.33333333,16 Z M1.25,7.66666667 C0.558333333,7.66666667 0,8.225 0,8.91666667 L0,14.75 C0,15.4416667 0.558333333,16 1.25,16 C1.94166667,16 2.5,15.4416667 2.5,14.75 L2.5,8.91666667 C2.5,8.225 1.94166667,7.66666667 1.25,7.66666667 Z M15.4166667,7.66666667 C14.725,7.66666667 14.1666667,8.225 14.1666667,8.91666667 L14.1666667,14.75 C14.1666667,15.4416667 14.725,16 15.4166667,16 C16.1083333,16 16.6666667,15.4416667 16.6666667,14.75 L16.6666667,8.91666667 C16.6666667,8.225 16.1083333,7.66666667 15.4166667,7.66666667 Z M11.275,2.8 L12.3583333,1.71666667 C12.525,1.55 12.525,1.29166667 12.3583333,1.125 C12.1916667,0.958333333 11.9333333,0.958333333 11.7666667,1.125 L10.5333333,2.35833333 C9.85140601,2.01298937 9.0977202,1.83313253 8.33333317,1.83333333 C7.53333333,1.83333333 6.78333333,2.025 6.11666667,2.35833333 L4.875,1.125 C4.70833333,0.958333333 4.45,0.958333333 4.28333333,1.125 C4.11666667,1.29166667 4.11666667,1.55 4.28333333,1.71666667 L5.375,2.80833333 C4.09139882,3.74754494 3.33292877,5.24281447 3.33333317,6.83333333 L13.3333332,6.83333333 C13.3333332,5.175 12.525,3.70833333 11.275,2.8 L11.275,2.8 Z M6.66666667,5.16666667 L5.83333333,5.16666667 L5.83333333,4.33333333 L6.66666667,4.33333333 L6.66666667,5.16666667 Z M10.8333333,5.16666667 L10,5.16666667 L10,4.33333333 L10.8333333,4.33333333 L10.8333333,5.16666667 Z" fill-rule="nonzero"/></g><g transform="translate(10 81)"><rect fill="#28B8BB" opacity=".854" width="130" height="28"/><text font-family="PingFangSC-Regular, PingFang SC" font-size="12" fill="#FFF">
                                        <tspan x="41" y="18">实时互动</tspan>
                                    </text><g transform="translate(0 36)"><rect fill="#28B8BB" opacity=".854" width="130" height="28"/><text font-family="PingFangSC-Regular, PingFang SC" font-size="12" fill="#FFF">
                                        <tspan x="43" y="18">AR 贴纸</tspan>
                                    </text></g><g transform="translate(0 72)"><rect fill="#28B8BB" opacity=".854" width="130" height="28"/><text font-family="PingFangSC-Regular, PingFang SC" font-size="12" fill="#FFF">
                                        <tspan x="41" y="18">美颜特效</tspan>
                                    </text></g><g transform="translate(0 108)"><rect fill="#28B8BB" opacity=".854" width="130" height="28"/><text font-family="PingFangSC-Regular, PingFang SC" font-size="12" fill="#FFF">
                                        <tspan x="44" y="18">IM 聊天</tspan>
                                    </text></g></g><g transform="translate(620)"><path d="M2,0 L148,0 C149.104569,-2.02906125e-16 150,0.8954305 150,2 L150,225 C150,226.104569 149.104569,227 148,227 L2,227 C0.8954305,227 1.3527075e-16,226.104569 0,225 L0,2 C-1.3527075e-16,0.8954305 0.8954305,2.02906125e-16 2,0 Z" fill="#EDF9FA"/><text font-family="PingFangSC-Medium, PingFang SC" font-size="14" font-weight="400" fill="#28B8BB">
                                <tspan x="22.5" y="23">副主播/上麦观众</tspan>
                            </text><g transform="translate(10 36)" fill="#47C2C5"><path d="M38.0923862 4.81905403C39.5677271 4.81905403 41.0792571 5.60511698 42.1354766 6.9205521L42.1354766 6.9205521 42.7641586 7.70324861 41.8838355 8.18549066C40.8250911 8.76535937 40.2426976 9.82073725 40.3260169 11.0090894 40.4110194 12.228581 41.1642596 13.2511362 42.2903327 13.6769904L42.2903327 13.6769904 43.129417 13.9942771 42.7607922 14.8106379C42.3256803 15.7734388 42.1093867 16.2169668 41.5505582 17.0644673 40.6045895 18.5061437 39.4145542 19.9814846 37.7641586 19.9966336 36.3948605 20.0058913 36.2097065 19.3233462 34.7436234 19.2543343 34.1683234 19.2579412 33.7839313 19.3954155 33.4236318 19.5513512L33.0651848 19.7091664C32.702412 19.8645868 32.3081267 20 31.7155136 20L31.7155136 20 31.6826909 20C29.9935813 19.984851 28.8010211 18.4977277 27.9501543 17.2033328 25.8032093 13.936206 25.3756718 9.8249453 26.9334904 7.42720081 27.9770857 5.81972732 29.6661953 4.81989564 31.3409975 4.81989564 32.207855 4.81989564 32.8828255 5.06059586 33.4786848 5.27268137 33.9331537 5.43427032 34.3253436 5.57397744 34.7225831 5.57397744 35.0710093 5.57397744 35.388296 5.45446894 35.7905852 5.30213769 36.3603546 5.08668574 37.0698311 4.81905403 38.0923862 4.81905403ZM37.8382202 0C37.9888683 1.01245582 37.573955 2.00302979 37.026909 2.70493183 36.441149 3.45648881 35.4320597 4.03888234 34.4574763 4.00858441 34.2798967 3.03905066 34.7368905 2.04258542 35.2906693 1.37013971 35.900836.629523649 36.9444313.0614374684 37.8382202 0ZM71 11.8181818 71 20 62.8181818 20 62.8181818 11.8181818 71 11.8181818ZM61.1818182 11.8181818 61.1818182 20 53 20 53 11.8181818 61.1818182 11.8181818ZM61.1818182 2 61.1818182 10.1818182 53 10.1818182 53 2 61.1818182 2ZM71 2 71 10.1818182 62.8181818 10.1818182 62.8181818 2 71 2ZM96.3358333 8.1105C99.5643333 8.1105 103 10.2555 103 13.18425 103 14.9589167 102.228167 16.74 100.606583 17.87025L100.606583 17.87025 100.996167 19.5615C101.031917 19.7173333 100.8605 19.83925 100.724833 19.7530833L100.724833 19.7530833 99.0079167 18.6631667C98.2351667 18.9198333 97.346 19.0646667 96.3358333 19.0646667 91.7699167 19.0646667 89.833 15.7710833 89.833 13.5875833 89.833 11.40775 91.7699167 8.1105 96.3358333 8.1105ZM88.9786667 2C92.7095 2 96.01225 4.2 96.6759167 7.37991667 96.56225 7.37533333 96.4485833 7.37258333 96.3349167 7.37258333 91.3409167 7.37258333 89.0941667 11.0071667 89.0941667 13.5875833 89.0941667 14.0440833 89.16475 14.5326667 89.3068333 15.0285833 89.1079167 15.0194167 87.0600833 14.9213333 86.09575 14.61425L86.09575 14.61425 83.9140833 15.8508333C83.6959167 15.9745833 83.4365 15.77475 83.5006667 15.5318333L83.5006667 15.5318333 83.9865 13.6920833C83.9865 13.6920833 81 11.7551667 81 8.41116667 81 5.06716667 84.4595 2 88.9786667 2ZM94.2476667 10.8751667C93.7636667 10.8751667 93.3713333 11.2675 93.3713333 11.7515 93.3713333 12.2355 93.7636667 12.6278333 94.2476667 12.6278333 94.7316667 12.6278333 95.124 12.2355 95.124 11.7515 95.124 11.2675 94.7316667 10.8751667 94.2476667 10.8751667ZM98.6293333 10.8751667C98.1453333 10.8751667 97.753 11.2675 97.753 11.7515 97.753 12.2355 98.1453333 12.6278333 98.6293333 12.6278333 99.1133333 12.6278333 99.5056667 12.2355 99.5056667 11.7515 99.5056667 11.2675 99.1133333 10.8751667 98.6293333 10.8751667ZM86.0040833 5.34308333C85.4559167 5.34308333 85.01225 5.78675 85.01225 6.33491667 85.01225 6.88308333 85.4568333 7.32675 86.0040833 7.32675 86.55225 7.32675 86.9959167 6.88308333 86.9959167 6.33491667 86.9959167 5.78675 86.55225 5.34308333 86.0040833 5.34308333ZM91.769 5.34308333C91.2208333 5.34308333 90.7771667 5.78675 90.7771667 6.33491667 90.7771667 6.88308333 91.22175 7.32675 91.769 7.32675 92.3171667 7.32675 92.7608333 6.88308333 92.7608333 6.33491667 92.7608333 5.78675 92.31625 5.34308333 91.769 5.34308333Z" fill-rule="nonzero"/><path d="M130,2 L130,20 L112,20 L112,2 L130,2 Z M120.556,9.432 L119.248,9.432 L119.248,15.192 C119.248,15.828 119.128,16.284 118.912,16.572 C118.684,16.86 118.324,17.016 117.82,17.016 C116.932,17.016 116.488,16.5 116.488,15.48 L116.488,15.204 L115.18,15.204 L115.18,15.492 C115.18,16.332 115.408,16.98 115.864,17.46 C116.296,17.928 116.944,18.168 117.796,18.168 C118.78,18.168 119.5,17.904 119.956,17.4 C120.352,16.92 120.556,16.2 120.556,15.24 L120.556,9.432 Z M125.236,9.264 C124.324,9.264 123.568,9.468 122.968,9.876 C122.332,10.308 122.02,10.896 122.02,11.652 C122.02,12.396 122.344,12.972 123.004,13.368 C123.268,13.512 123.916,13.74 124.972,14.076 C125.92,14.364 126.484,14.556 126.676,14.652 C127.216,14.928 127.492,15.3 127.492,15.78 C127.492,16.164 127.3,16.464 126.916,16.68 C126.532,16.896 126.016,17.016 125.368,17.016 C124.648,17.016 124.12,16.884 123.772,16.62 C123.388,16.332 123.148,15.84 123.052,15.168 L121.756,15.168 C121.828,16.248 122.212,17.04 122.92,17.544 C123.508,17.952 124.324,18.168 125.368,18.168 C126.448,18.168 127.288,17.952 127.888,17.52 C128.488,17.076 128.788,16.476 128.788,15.708 C128.788,14.916 128.416,14.304 127.684,13.86 C127.348,13.656 126.592,13.38 125.44,13.02 C124.636,12.78 124.144,12.6 123.952,12.492 C123.52,12.264 123.316,11.964 123.316,11.58 C123.316,11.148 123.496,10.836 123.868,10.644 C124.168,10.476 124.6,10.392 125.164,10.392 C125.812,10.392 126.292,10.512 126.628,10.764 C126.964,11.004 127.18,11.412 127.3,11.964 L128.596,11.964 C128.512,11.028 128.176,10.344 127.576,9.9 C127.012,9.468 126.232,9.264 125.236,9.264 Z"/><path d="M3.33333333,16 C3.33333333,16.4583333 3.70833333,16.8333333 4.16666667,16.8333333 L5,16.8333333 L5,19.75 C5,20.4416667 5.55833333,21 6.25,21 C6.94166667,21 7.5,20.4416667 7.5,19.75 L7.5,16.8333333 L9.16666667,16.8333333 L9.16666667,19.75 C9.16666667,20.4416667 9.725,21 10.4166667,21 C11.1083333,21 11.6666667,20.4416667 11.6666667,19.75 L11.6666667,16.8333333 L12.5,16.8333333 C12.9583333,16.8333333 13.3333333,16.4583333 13.3333333,16 L13.3333333,7.66666667 L3.33333333,7.66666667 L3.33333333,16 Z M1.25,7.66666667 C0.558333333,7.66666667 0,8.225 0,8.91666667 L0,14.75 C0,15.4416667 0.558333333,16 1.25,16 C1.94166667,16 2.5,15.4416667 2.5,14.75 L2.5,8.91666667 C2.5,8.225 1.94166667,7.66666667 1.25,7.66666667 Z M15.4166667,7.66666667 C14.725,7.66666667 14.1666667,8.225 14.1666667,8.91666667 L14.1666667,14.75 C14.1666667,15.4416667 14.725,16 15.4166667,16 C16.1083333,16 16.6666667,15.4416667 16.6666667,14.75 L16.6666667,8.91666667 C16.6666667,8.225 16.1083333,7.66666667 15.4166667,7.66666667 Z M11.275,2.8 L12.3583333,1.71666667 C12.525,1.55 12.525,1.29166667 12.3583333,1.125 C12.1916667,0.958333333 11.9333333,0.958333333 11.7666667,1.125 L10.5333333,2.35833333 C9.85140601,2.01298937 9.0977202,1.83313253 8.33333317,1.83333333 C7.53333333,1.83333333 6.78333333,2.025 6.11666667,2.35833333 L4.875,1.125 C4.70833333,0.958333333 4.45,0.958333333 4.28333333,1.125 C4.11666667,1.29166667 4.11666667,1.55 4.28333333,1.71666667 L5.375,2.80833333 C4.09139882,3.74754494 3.33292877,5.24281447 3.33333317,6.83333333 L13.3333332,6.83333333 C13.3333332,5.175 12.525,3.70833333 11.275,2.8 L11.275,2.8 Z M6.66666667,5.16666667 L5.83333333,5.16666667 L5.83333333,4.33333333 L6.66666667,4.33333333 L6.66666667,5.16666667 Z M10.8333333,5.16666667 L10,5.16666667 L10,4.33333333 L10.8333333,4.33333333 L10.8333333,5.16666667 Z" fill-rule="nonzero"/></g><g transform="translate(10 81)"><rect fill="#28B8BB" opacity=".854" width="130" height="28"/><text font-family="PingFangSC-Regular, PingFang SC" font-size="12" fill="#FFF">
                                        <tspan x="41" y="18">实时互动</tspan>
                                    </text><g transform="translate(0 36)"><rect fill="#28B8BB" opacity=".854" width="130" height="28"/><text font-family="PingFangSC-Regular, PingFang SC" font-size="12" fill="#FFF">
                                        <tspan x="43" y="18">AR 贴纸</tspan>
                                    </text></g><g transform="translate(0 72)"><rect fill="#28B8BB" opacity=".854" width="130" height="28"/><text font-family="PingFangSC-Regular, PingFang SC" font-size="12" fill="#FFF">
                                        <tspan x="41" y="18">美颜特效</tspan>
                                    </text></g><g transform="translate(0 108)"><rect fill="#28B8BB" opacity=".854" width="130" height="28"/><text font-family="PingFangSC-Regular, PingFang SC" font-size="12" fill="#FFF">
                                        <tspan x="44" y="18">IM 聊天</tspan>
                                    </text></g></g></g><g transform="translate(620 243)"><path d="M2,0 L148,0 C149.104569,-2.02906125e-16 150,0.8954305 150,2 L150,238 C150,239.104569 149.104569,240 148,240 L2,240 C0.8954305,240 1.3527075e-16,239.104569 0,238 L0,2 C-1.3527075e-16,0.8954305 0.8954305,2.02906125e-16 2,0 Z" fill="#EDF9FA"/><text font-family="PingFangSC-Medium, PingFang SC" font-size="14" font-weight="400" fill="#28B8BB">
                                <tspan x="47" y="39">普通观众</tspan>
                            </text><path d="M11.5828966 19.6176552C12.8833103 20.4584828 14.3790345 20.9655172 16 20.9655172 17.6093793 20.9655172 19.0957241 20.4651034 20.390069 19.6353103L20.390069 19.6353103 28.9274483 23.1448276C30.7867586 23.9111724 32 25.7241379 32 27.7351724L32 27.7351724 32 33.6551724C32 33.9597241 31.7528276 34.2068966 31.4482759 34.2068966L31.4482759 34.2068966 18.7111724 34.2068966 17.1382069 27.1293793 18.6797241 24.56C18.7823448 24.3895172 18.7851034 24.1771034 18.6868966 24.0038621 18.5886897 23.8306207 18.4055172 23.7241379 18.2068966 23.7241379L18.2068966 23.7241379 13.7931034 23.7241379C13.5944828 23.7241379 13.4113103 23.8306207 13.3131034 24.0038621 13.2154483 24.1776552 13.2176552 24.3895172 13.3202759 24.56L13.3202759 24.56 14.8617931 27.1293793 13.2888276 34.2068966.551724138 34.2068966C.247172414 34.2068966 0 33.9597241 0 33.6551724L0 33.6551724 0 27.7351724C0 25.7241379 1.21324138 23.9111724 3.07255172 23.1448276L3.07255172 23.1448276ZM16 0C20.5633103 0 24.2758621 3.71255172 24.2758621 8.27586207L24.2758621 8.27586207 24.2758621 10.4827586C24.2758621 14.9097931 20.7365517 19.862069 16 19.862069 11.2634483 19.862069 7.72413793 14.9097931 7.72413793 10.4827586L7.72413793 10.4827586 7.72413793 8.27586207C7.72413793 3.71255172 11.4366897 0 16 0ZM18.7591724 6.944C17.081931 8.49765517 14.7023448 9.37931034 12.137931 9.37931034 10.9875862 9.37931034 9.87972414 9.19503448 8.82758621 8.84689655L8.82758621 8.84689655 8.82758621 10.4827586C8.82758621 14.310069 11.9608276 18.7586207 16 18.7586207 20.0391724 18.7586207 23.1724138 14.310069 23.1724138 10.4827586L23.1724138 10.4827586 23.1724138 9.13710345C21.4609655 8.77793103 19.9233103 8.01765517 18.7591724 6.944ZM11.5828966 76.6176552C12.8833103 77.4584828 14.3790345 77.9655172 16 77.9655172 17.6093793 77.9655172 19.0957241 77.4651034 20.390069 76.6353103L20.390069 76.6353103 28.9274483 80.1448276C30.7867586 80.9111724 32 82.7241379 32 84.7351724L32 84.7351724 32 90.6551724C32 90.9597241 31.7528276 91.2068966 31.4482759 91.2068966L31.4482759 91.2068966 18.7111724 91.2068966 17.1382069 84.1293793 18.6797241 81.56C18.7823448 81.3895172 18.7851034 81.1771034 18.6868966 81.0038621 18.5886897 80.8306207 18.4055172 80.7241379 18.2068966 80.7241379L18.2068966 80.7241379 13.7931034 80.7241379C13.5944828 80.7241379 13.4113103 80.8306207 13.3131034 81.0038621 13.2154483 81.1776552 13.2176552 81.3895172 13.3202759 81.56L13.3202759 81.56 14.8617931 84.1293793 13.2888276 91.2068966.551724138 91.2068966C.247172414 91.2068966 0 90.9597241 0 90.6551724L0 90.6551724 0 84.7351724C0 82.7241379 1.21324138 80.9111724 3.07255172 80.1448276L3.07255172 80.1448276ZM16 57C20.5633103 57 24.2758621 60.7125517 24.2758621 65.2758621L24.2758621 65.2758621 24.2758621 67.4827586C24.2758621 71.9097931 20.7365517 76.862069 16 76.862069 11.2634483 76.862069 7.72413793 71.9097931 7.72413793 67.4827586L7.72413793 67.4827586 7.72413793 65.2758621C7.72413793 60.7125517 11.4366897 57 16 57ZM18.7591724 63.944C17.081931 65.4976552 14.7023448 66.3793103 12.137931 66.3793103 10.9875862 66.3793103 9.87972414 66.1950345 8.82758621 65.8468966L8.82758621 65.8468966 8.82758621 67.4827586C8.82758621 71.310069 11.9608276 75.7586207 16 75.7586207 20.0391724 75.7586207 23.1724138 71.310069 23.1724138 67.4827586L23.1724138 67.4827586 23.1724138 66.1371034C21.4609655 65.777931 19.9233103 65.0176552 18.7591724 63.944ZM11.5828966 133.617655C12.8833103 134.458483 14.3790345 134.965517 16 134.965517 17.6093793 134.965517 19.0957241 134.465103 20.390069 133.63531L20.390069 133.63531 28.9274483 137.144828C30.7867586 137.911172 32 139.724138 32 141.735172L32 141.735172 32 147.655172C32 147.959724 31.7528276 148.206897 31.4482759 148.206897L31.4482759 148.206897 18.7111724 148.206897 17.1382069 141.129379 18.6797241 138.56C18.7823448 138.389517 18.7851034 138.177103 18.6868966 138.003862 18.5886897 137.830621 18.4055172 137.724138 18.2068966 137.724138L18.2068966 137.724138 13.7931034 137.724138C13.5944828 137.724138 13.4113103 137.830621 13.3131034 138.003862 13.2154483 138.177655 13.2176552 138.389517 13.3202759 138.56L13.3202759 138.56 14.8617931 141.129379 13.2888276 148.206897.551724138 148.206897C.247172414 148.206897 0 147.959724 0 147.655172L0 147.655172 0 141.735172C0 139.724138 1.21324138 137.911172 3.07255172 137.144828L3.07255172 137.144828ZM16 114C20.5633103 114 24.2758621 117.712552 24.2758621 122.275862L24.2758621 122.275862 24.2758621 124.482759C24.2758621 128.909793 20.7365517 133.862069 16 133.862069 11.2634483 133.862069 7.72413793 128.909793 7.72413793 124.482759L7.72413793 124.482759 7.72413793 122.275862C7.72413793 117.712552 11.4366897 114 16 114ZM18.7591724 120.944C17.081931 122.497655 14.7023448 123.37931 12.137931 123.37931 10.9875862 123.37931 9.87972414 123.195034 8.82758621 122.846897L8.82758621 122.846897 8.82758621 124.482759C8.82758621 128.310069 11.9608276 132.758621 16 132.758621 20.0391724 132.758621 23.1724138 128.310069 23.1724138 124.482759L23.1724138 124.482759 23.1724138 123.137103C21.4609655 122.777931 19.9233103 122.017655 18.7591724 120.944Z" transform="translate(59 64)" fill="#47C2C5" fill-rule="nonzero"/></g><g transform="translate(259 410)"><rect fill="#EDF9FA" width="252" height="60"/><g transform="translate(71 18)"><path d="M28,4 L28,24 L0,24 L0,4 L28,4 Z M11,10 L11,18 L19,14 L11,10 Z" fill="#00AAE7"/><line x1="6" x2="11.414" y2="5.414" stroke="#00AAE7" stroke-width="2"/><line x1="16.586" x2="22" y2="5.414" stroke="#00AAE7" stroke-width="2" transform="matrix(-1 0 0 1 38.586 0)"/><text font-family="PingFangSC-Medium, PingFang SC" font-size="14" font-weight="400" fill="#00AAE7">
                                    <tspan x="40" y="17">视频直播 Pili</tspan>
                                </text></g></g><g transform="translate(357 324)"><path d="M29,0 L29,67 L33,67 L28.5,76 L24,67 L28,67 L28,0 L29,0 Z" fill="#00AAE7" fill-rule="nonzero"/><g transform="translate(0 21)"><path d="M54,0.5 C54.4142136,0.5 54.7892136,0.667893219 55.0606602,0.939339828 C55.3321068,1.21078644 55.5,1.58578644 55.5,2 L55.5,2 L55.5,22 C55.5,22.4142136 55.3321068,22.7892136 55.0606602,23.0606602 C54.7892136,23.3321068 54.4142136,23.5 54,23.5 L54,23.5 L2,23.5 C1.58578644,23.5 1.21078644,23.3321068 0.939339828,23.0606602 C0.667893219,22.7892136 0.5,22.4142136 0.5,22 L0.5,22 L0.5,2 C0.5,1.58578644 0.667893219,1.21078644 0.939339828,0.939339828 C1.21078644,0.667893219 1.58578644,0.5 2,0.5 L2,0.5 Z" stroke="#00AAE7" fill="#EDF9FA"/><text font-family="PingFangSC-Regular, PingFang SC" font-size="12" fill="#00AAE7">
                                    <tspan x="4" y="17">旁路直播</tspan>
                                </text></g></g><g transform="translate(159 102)"><path d="M83.5,7.5 L92.5,12 L83.5,16.5 L83.5,12.5 L8.5,12.5 L8.5,16.5 L-0.5,12 L8.5,7.5 L8.5,11.5 L83.5,11.5 L83.5,7.5 Z" fill="#47C2C5" fill-rule="nonzero"/><g transform="translate(18)"><path d="M54,0.5 C54.4142136,0.5 54.7892136,0.667893219 55.0606602,0.939339828 C55.3321068,1.21078644 55.5,1.58578644 55.5,2 L55.5,2 L55.5,22 C55.5,22.4142136 55.3321068,22.7892136 55.0606602,23.0606602 C54.7892136,23.3321068 54.4142136,23.5 54,23.5 L54,23.5 L2,23.5 C1.58578644,23.5 1.21078644,23.3321068 0.939339828,23.0606602 C0.667893219,22.7892136 0.5,22.4142136 0.5,22 L0.5,22 L0.5,2 C0.5,1.58578644 0.667893219,1.21078644 0.939339828,0.939339828 C1.21078644,0.667893219 1.58578644,0.5 2,0.5 L2,0.5 Z" stroke="#47C2C5" fill="#EDF9FA"/><text font-family="PingFangSC-Regular, PingFang SC" font-size="12" fill="#47C2C5">
                                    <tspan x="3" y="17">连麦互动</tspan>
                                </text></g></g></g></svg>