<svg width="770" height="484" viewBox="0 0 770 484" xmlns="http://www.w3.org/2000/svg" xmlns:xlink="http://www.w3.org/1999/xlink"><defs><rect id="a" x="0" y="0" width="228" height="153"/><mask id="b" maskContentUnits="userSpaceOnUse" maskUnits="objectBoundingBox" x="0" y="0" width="228" height="153" fill="#fff"><use xlink:href="#a"/></mask></defs><g fill="none" fill-rule="evenodd"><g transform="translate(259)"><path d="M2,0 L250,0 C251.104569,-2.02906125e-16 252,0.8954305 252,2 L252,312 C252,313.104569 251.104569,314 250,314 L2,314 C0.8954305,314 1.3527075e-16,313.104569 0,312 L0,2 C-1.3527075e-16,0.8954305 0.8954305,2.02906125e-16 2,0 Z" fill="#EDF9FA"/><text font-family="PingFangSC-Medium, PingFang SC" font-size="14" font-weight="400" fill="#22B5E9">
                                <tspan x="67" y="27">实时音视频 QRTC</tspan>
                            </text><g transform="translate(12 151)"><use stroke="#00AAE7" mask="url(#b)" stroke-width="2" stroke-dasharray="2,2" xlink:href="#a"/><text font-family="PingFangSC-Medium, PingFang SC" font-size="14" font-weight="400" fill="#22B5E9">
                                    <tspan x="58" y="27">存储及多媒体处理</tspan>
                                </text><g transform="translate(11 40)"><rect stroke="#00AAE7" x=".5" y=".5" width="97" height="27"/><text font-family="PingFangSC-Regular, PingFang SC" font-size="12" fill="#00AAE7">
                                            <tspan x="26" y="18">内容审核</tspan>
                                        </text><g transform="translate(108)"><rect stroke="#00AAE7" x=".5" y=".5" width="97" height="27"/><text font-family="PingFangSC-Regular, PingFang SC" font-size="12" fill="#00AAE7">
                                            <tspan x="26" y="18">音频分析</tspan>
                                        </text></g><g transform="translate(0 38)"><rect stroke="#00AAE7" x=".5" y=".5" width="97" height="27"/><text font-family="PingFangSC-Regular, PingFang SC" font-size="12" fill="#00AAE7">
                                            <tspan x="25" y="19">音频处理</tspan>
                                        </text></g><g transform="translate(0 76)"><rect stroke="#00AAE7" x=".5" y=".5" width="97" height="27"/><text font-family="PingFangSC-Regular, PingFang SC" font-size="12" fill="#00AAE7">
                                            <tspan x="26" y="18">录制存储</tspan>
                                        </text></g><g transform="translate(108 76)"><rect stroke="#00AAE7" x=".5" y=".5" width="97" height="27"/><text font-family="PingFangSC-Regular, PingFang SC" font-size="12" fill="#00AAE7">
                                            <tspan x="26" y="18">实时转码</tspan>
                                        </text></g><g transform="translate(108 38)"><rect stroke="#00AAE7" x=".5" y=".5" width="97" height="27"/><text font-family="PingFangSC-Regular, PingFang SC" font-size="12" fill="#00AAE7">
                                            <tspan x="26" y="18">质量分析</tspan>
                                        </text></g></g></g><g transform="translate(10 44)"><rect fill="#00AAE7" opacity=".854" width="110" height="28"/><text font-family="PingFangSC-Regular, PingFang SC" font-size="12" fill="#FFF">
                                        <tspan x="30" y="19">调度中心</tspan>
                                    </text><g transform="translate(122)"><rect fill="#00AAE7" opacity=".854" width="110" height="28"/><text font-family="PingFangSC-Regular, PingFang SC" font-size="12" fill="#FFF">
                                        <tspan x="31" y="19">业务中心</tspan>
                                    </text></g><g transform="translate(0 62)"><rect fill="#00AAE7" opacity=".854" width="232" height="28"/><text font-family="PingFangSC-Regular, PingFang SC" font-size="12" fill="#FFF">
                                        <tspan x="74" y="19">实时音视频网络</tspan>
                                    </text></g><path d="M55 33 55 45 59 45 54.5 54 50 45 54 45 54 33 55 33ZM178 33 178 45 182 45 177.5 54 173 45 177 45 177 33 178 33Z" fill="#00AAE7" fill-rule="nonzero"/></g></g><g transform="translate(518.69 118)"><path d="M84,8 L93,12.5 L84,17 L84,13 L9,13 L9,17 L0,12.5 L9,8 L9,12 L84,12 L84,8 Z" fill="#00AAE7" fill-rule="nonzero"/><g transform="translate(19)"><path d="M54,0.5 C54.4142136,0.5 54.7892136,0.667893219 55.0606602,0.939339828 C55.3321068,1.21078644 55.5,1.58578644 55.5,2 L55.5,2 L55.5,22 C55.5,22.4142136 55.3321068,22.7892136 55.0606602,23.0606602 C54.7892136,23.3321068 54.4142136,23.5 54,23.5 L54,23.5 L2,23.5 C1.58578644,23.5 1.21078644,23.3321068 0.939339828,23.0606602 C0.667893219,22.7892136 0.5,22.4142136 0.5,22 L0.5,22 L0.5,2 C0.5,1.58578644 0.667893219,1.21078644 0.939339828,0.939339828 C1.21078644,0.667893219 1.58578644,0.5 2,0.5 L2,0.5 Z" stroke="#00AAE7" fill="#EDF9FA"/><text font-family="PingFangSC-Regular, PingFang SC" font-size="12" fill="#00AAE7">
                                    <tspan x="4" y="17">连麦互动</tspan>
                                </text></g></g><g transform="translate(519 442)"><path d="M84,8 L93,12.5 L84,17 L84,13 L0,13 L0,12 L84,12 L84,8 Z" fill="#00AAE7" fill-rule="nonzero"/><g transform="translate(17)"><path d="M54,0.5 C54.4142136,0.5 54.7892136,0.667893219 55.0606602,0.939339828 C55.3321068,1.21078644 55.5,1.58578644 55.5,2 L55.5,2 L55.5,22 C55.5,22.4142136 55.3321068,22.7892136 55.0606602,23.0606602 C54.7892136,23.3321068 54.4142136,23.5 54,23.5 L54,23.5 L2,23.5 C1.58578644,23.5 1.21078644,23.3321068 0.939339828,23.0606602 C0.667893219,22.7892136 0.5,22.4142136 0.5,22 L0.5,22 L0.5,2 C0.5,1.58578644 0.667893219,1.21078644 0.939339828,0.939339828 C1.21078644,0.667893219 1.58578644,0.5 2,0.5 L2,0.5 Z" stroke="#00AAE7" fill="#EDF9FA"/><text font-family="PingFangSC-Regular, PingFang SC" font-size="12" fill="#00AAE7">
                                    <tspan x="4" y="17">直播下行</tspan>
                                </text></g></g><path d="M2,0 L148,0 C149.104569,-2.02906125e-16 150,0.8954305 150,2 L150,242 C150,243.104569 149.104569,244 148,244 L2,244 C0.8954305,244 1.3527075e-16,243.104569 0,242 L0,2 C-1.3527075e-16,0.8954305 0.8954305,2.02906125e-16 2,0 Z" fill="#EDF9FA"/><g transform="translate(14 203)" fill="#47C2C5"><text font-family="PingFangSC-Regular, PingFang SC" font-size="12">
                                    <tspan x="29" y="19">语聊房主（房主）</tspan>
                                </text><path d="M19.3483031,22.6461396 L15.0903563,21.8474869 C14.3640333,21.7126694 13.836879,21.0794394 13.8359881,20.3407108 L13.8359881,18.6804951 C16.5112063,16.8430568 18.4261316,13.2188152 18.4391739,9.24396424 C18.4391739,9.23092188 18.4391739,9.21864672 18.4391739,9.20560436 L18.4391739,9.20560436 C18.7506562,5.96112558 18.2320306,3.64649033 16.8541436,2.12820623 C15.1509649,0.253175218 12.4335509,0 10,0 C7.56644912,0 4.83752715,0.253942415 3.13434841,2.135111 C1.75032389,3.66490308 1.23630147,6.00332145 1.56082607,9.20637156 C1.56082607,13.1957992 3.47882015,16.8369192 6.16401185,18.6797279 L6.16401185,20.3407108 C6.16332822,21.078719 5.6373534,21.7116936 4.91194532,21.8474869 L0.653998473,22.6461396 C0.376008096,22.6876158 0.14295179,22.877784 0.046550454,23.1418024 C-0.0498508821,23.4058208 0.00583709483,23.7014186 0.191698002,23.9122613 C0.377558909,24.123104 0.663835471,24.2154346 0.937861596,24.1529158 L5.19580844,23.354263 C6.64544731,23.0821342 7.69644146,21.8172038 7.69840711,20.3422452 L7.69840711,19.4983278 C9.17412744,20.0984295 10.8258726,20.0984295 12.3015929,19.4983278 L12.3015929,20.3422452 C12.3036281,21.8174436 13.3550149,23.0824589 14.8049588,23.354263 L19.0621384,24.1529158 C19.3361645,24.2154346 19.6224411,24.123104 19.808302,23.9122613 C19.9941629,23.7014186 20.0498509,23.4058208 19.9534495,23.1418024 C19.8570482,22.877784 19.6239919,22.6876158 19.3460015,22.6461396 L19.3483031,22.6461396 Z M10,18.4127431 C6.53149952,18.4127431 3.37217968,14.3680772 3.11977166,9.71579078 C3.24999763,8.55991478 4.22216865,7.68288681 5.38530626,7.6719763 C5.38530626,7.6719763 9.86190443,7.66583872 9.98849204,7.65509795 C11.5043752,7.51537741 12.8277688,6.57068248 13.4523893,5.18241999 C13.5362855,7.26096782 14.9060122,9.06726809 16.8848315,9.70888601 C16.665413,14.3235797 13.4876804,18.4127431 10,18.4127431 Z" fill-rule="nonzero"/></g><text font-family="PingFangSC-Medium, PingFang SC" font-size="14" font-weight="400" fill="#28B8BB">
                                <tspan x="60.69" y="23">主播</tspan>
                            </text><g transform="translate(9.69 36)" fill="#47C2C5"><path d="M38.0923862 4.81905403C39.5677271 4.81905403 41.0792571 5.60511698 42.1354766 6.9205521L42.1354766 6.9205521 42.7641586 7.70324861 41.8838355 8.18549066C40.8250911 8.76535937 40.2426976 9.82073725 40.3260169 11.0090894 40.4110194 12.228581 41.1642596 13.2511362 42.2903327 13.6769904L42.2903327 13.6769904 43.129417 13.9942771 42.7607922 14.8106379C42.3256803 15.7734388 42.1093867 16.2169668 41.5505582 17.0644673 40.6045895 18.5061437 39.4145542 19.9814846 37.7641586 19.9966336 36.3948605 20.0058913 36.2097065 19.3233462 34.7436234 19.2543343 34.1683234 19.2579412 33.7839313 19.3954155 33.4236318 19.5513512L33.0651848 19.7091664C32.702412 19.8645868 32.3081267 20 31.7155136 20L31.7155136 20 31.6826909 20C29.9935813 19.984851 28.8010211 18.4977277 27.9501543 17.2033328 25.8032093 13.936206 25.3756718 9.8249453 26.9334904 7.42720081 27.9770857 5.81972732 29.6661953 4.81989564 31.3409975 4.81989564 32.207855 4.81989564 32.8828255 5.06059586 33.4786848 5.27268137 33.9331537 5.43427032 34.3253436 5.57397744 34.7225831 5.57397744 35.0710093 5.57397744 35.388296 5.45446894 35.7905852 5.30213769 36.3603546 5.08668574 37.0698311 4.81905403 38.0923862 4.81905403ZM37.8382202 0C37.9888683 1.01245582 37.573955 2.00302979 37.026909 2.70493183 36.441149 3.45648881 35.4320597 4.03888234 34.4574763 4.00858441 34.2798967 3.03905066 34.7368905 2.04258542 35.2906693 1.37013971 35.900836.629523649 36.9444313.0614374684 37.8382202 0ZM71 11.8181818 71 20 62.8181818 20 62.8181818 11.8181818 71 11.8181818ZM61.1818182 11.8181818 61.1818182 20 53 20 53 11.8181818 61.1818182 11.8181818ZM61.1818182 2 61.1818182 10.1818182 53 10.1818182 53 2 61.1818182 2ZM71 2 71 10.1818182 62.8181818 10.1818182 62.8181818 2 71 2ZM96.3358333 8.1105C99.5643333 8.1105 103 10.2555 103 13.18425 103 14.9589167 102.228167 16.74 100.606583 17.87025L100.606583 17.87025 100.996167 19.5615C101.031917 19.7173333 100.8605 19.83925 100.724833 19.7530833L100.724833 19.7530833 99.0079167 18.6631667C98.2351667 18.9198333 97.346 19.0646667 96.3358333 19.0646667 91.7699167 19.0646667 89.833 15.7710833 89.833 13.5875833 89.833 11.40775 91.7699167 8.1105 96.3358333 8.1105ZM88.9786667 2C92.7095 2 96.01225 4.2 96.6759167 7.37991667 96.56225 7.37533333 96.4485833 7.37258333 96.3349167 7.37258333 91.3409167 7.37258333 89.0941667 11.0071667 89.0941667 13.5875833 89.0941667 14.0440833 89.16475 14.5326667 89.3068333 15.0285833 89.1079167 15.0194167 87.0600833 14.9213333 86.09575 14.61425L86.09575 14.61425 83.9140833 15.8508333C83.6959167 15.9745833 83.4365 15.77475 83.5006667 15.5318333L83.5006667 15.5318333 83.9865 13.6920833C83.9865 13.6920833 81 11.7551667 81 8.41116667 81 5.06716667 84.4595 2 88.9786667 2ZM94.2476667 10.8751667C93.7636667 10.8751667 93.3713333 11.2675 93.3713333 11.7515 93.3713333 12.2355 93.7636667 12.6278333 94.2476667 12.6278333 94.7316667 12.6278333 95.124 12.2355 95.124 11.7515 95.124 11.2675 94.7316667 10.8751667 94.2476667 10.8751667ZM98.6293333 10.8751667C98.1453333 10.8751667 97.753 11.2675 97.753 11.7515 97.753 12.2355 98.1453333 12.6278333 98.6293333 12.6278333 99.1133333 12.6278333 99.5056667 12.2355 99.5056667 11.7515 99.5056667 11.2675 99.1133333 10.8751667 98.6293333 10.8751667ZM86.0040833 5.34308333C85.4559167 5.34308333 85.01225 5.78675 85.01225 6.33491667 85.01225 6.88308333 85.4568333 7.32675 86.0040833 7.32675 86.55225 7.32675 86.9959167 6.88308333 86.9959167 6.33491667 86.9959167 5.78675 86.55225 5.34308333 86.0040833 5.34308333ZM91.769 5.34308333C91.2208333 5.34308333 90.7771667 5.78675 90.7771667 6.33491667 90.7771667 6.88308333 91.22175 7.32675 91.769 7.32675 92.3171667 7.32675 92.7608333 6.88308333 92.7608333 6.33491667 92.7608333 5.78675 92.31625 5.34308333 91.769 5.34308333Z" fill-rule="nonzero"/><path d="M130,2 L130,20 L112,20 L112,2 L130,2 Z M120.556,9.432 L119.248,9.432 L119.248,15.192 C119.248,15.828 119.128,16.284 118.912,16.572 C118.684,16.86 118.324,17.016 117.82,17.016 C116.932,17.016 116.488,16.5 116.488,15.48 L116.488,15.204 L115.18,15.204 L115.18,15.492 C115.18,16.332 115.408,16.98 115.864,17.46 C116.296,17.928 116.944,18.168 117.796,18.168 C118.78,18.168 119.5,17.904 119.956,17.4 C120.352,16.92 120.556,16.2 120.556,15.24 L120.556,9.432 Z M125.236,9.264 C124.324,9.264 123.568,9.468 122.968,9.876 C122.332,10.308 122.02,10.896 122.02,11.652 C122.02,12.396 122.344,12.972 123.004,13.368 C123.268,13.512 123.916,13.74 124.972,14.076 C125.92,14.364 126.484,14.556 126.676,14.652 C127.216,14.928 127.492,15.3 127.492,15.78 C127.492,16.164 127.3,16.464 126.916,16.68 C126.532,16.896 126.016,17.016 125.368,17.016 C124.648,17.016 124.12,16.884 123.772,16.62 C123.388,16.332 123.148,15.84 123.052,15.168 L121.756,15.168 C121.828,16.248 122.212,17.04 122.92,17.544 C123.508,17.952 124.324,18.168 125.368,18.168 C126.448,18.168 127.288,17.952 127.888,17.52 C128.488,17.076 128.788,16.476 128.788,15.708 C128.788,14.916 128.416,14.304 127.684,13.86 C127.348,13.656 126.592,13.38 125.44,13.02 C124.636,12.78 124.144,12.6 123.952,12.492 C123.52,12.264 123.316,11.964 123.316,11.58 C123.316,11.148 123.496,10.836 123.868,10.644 C124.168,10.476 124.6,10.392 125.164,10.392 C125.812,10.392 126.292,10.512 126.628,10.764 C126.964,11.004 127.18,11.412 127.3,11.964 L128.596,11.964 C128.512,11.028 128.176,10.344 127.576,9.9 C127.012,9.468 126.232,9.264 125.236,9.264 Z"/><path d="M3.33333333,16 C3.33333333,16.4583333 3.70833333,16.8333333 4.16666667,16.8333333 L5,16.8333333 L5,19.75 C5,20.4416667 5.55833333,21 6.25,21 C6.94166667,21 7.5,20.4416667 7.5,19.75 L7.5,16.8333333 L9.16666667,16.8333333 L9.16666667,19.75 C9.16666667,20.4416667 9.725,21 10.4166667,21 C11.1083333,21 11.6666667,20.4416667 11.6666667,19.75 L11.6666667,16.8333333 L12.5,16.8333333 C12.9583333,16.8333333 13.3333333,16.4583333 13.3333333,16 L13.3333333,7.66666667 L3.33333333,7.66666667 L3.33333333,16 Z M1.25,7.66666667 C0.558333333,7.66666667 0,8.225 0,8.91666667 L0,14.75 C0,15.4416667 0.558333333,16 1.25,16 C1.94166667,16 2.5,15.4416667 2.5,14.75 L2.5,8.91666667 C2.5,8.225 1.94166667,7.66666667 1.25,7.66666667 Z M15.4166667,7.66666667 C14.725,7.66666667 14.1666667,8.225 14.1666667,8.91666667 L14.1666667,14.75 C14.1666667,15.4416667 14.725,16 15.4166667,16 C16.1083333,16 16.6666667,15.4416667 16.6666667,14.75 L16.6666667,8.91666667 C16.6666667,8.225 16.1083333,7.66666667 15.4166667,7.66666667 Z M11.275,2.8 L12.3583333,1.71666667 C12.525,1.55 12.525,1.29166667 12.3583333,1.125 C12.1916667,0.958333333 11.9333333,0.958333333 11.7666667,1.125 L10.5333333,2.35833333 C9.85140601,2.01298937 9.0977202,1.83313253 8.33333317,1.83333333 C7.53333333,1.83333333 6.78333333,2.025 6.11666667,2.35833333 L4.875,1.125 C4.70833333,0.958333333 4.45,0.958333333 4.28333333,1.125 C4.11666667,1.29166667 4.11666667,1.55 4.28333333,1.71666667 L5.375,2.80833333 C4.09139882,3.74754494 3.33292877,5.24281447 3.33333317,6.83333333 L13.3333332,6.83333333 C13.3333332,5.175 12.525,3.70833333 11.275,2.8 L11.275,2.8 Z M6.66666667,5.16666667 L5.83333333,5.16666667 L5.83333333,4.33333333 L6.66666667,4.33333333 L6.66666667,5.16666667 Z M10.8333333,5.16666667 L10,5.16666667 L10,4.33333333 L10.8333333,4.33333333 L10.8333333,5.16666667 Z" fill-rule="nonzero"/></g><g transform="translate(10 81)"><rect fill="#28B8BB" opacity=".854" width="130" height="28"/><text font-family="PingFangSC-Regular, PingFang SC" font-size="12" fill="#FFF">
                                        <tspan x="41" y="18">回声消除</tspan>
                                    </text><g transform="translate(0 36)"><rect fill="#28B8BB" opacity=".854" width="130" height="28"/><text font-family="PingFangSC-Regular, PingFang SC" font-size="12" fill="#FFF">
                                        <tspan x="43" y="19">噪声抑制</tspan>
                                    </text></g><g transform="translate(0 72)"><rect fill="#28B8BB" opacity=".854" width="130" height="28"/><text font-family="PingFangSC-Regular, PingFang SC" font-size="12" fill="#FFF">
                                        <tspan x="41" y="18">自动增益</tspan>
                                    </text></g></g><g transform="translate(620)"><path d="M2,0 L148,0 C149.104569,-2.02906125e-16 150,0.8954305 150,2 L150,209 C150,210.104569 149.104569,211 148,211 L2,211 C0.8954305,211 1.3527075e-16,210.104569 0,209 L0,2 C-1.3527075e-16,0.8954305 0.8954305,2.02906125e-16 2,0 Z" fill="#EDF9FA"/><g transform="translate(10 155)" fill="#47C2C5"><path d="M14.2393103,12.2610345 C15.052069,12.7865517 15.9868966,13.1034483 17,13.1034483 C18.0058621,13.1034483 18.9348276,12.7906897 19.7437931,12.272069 L19.7437931,12.272069 L25.0796552,14.4655172 C26.2417241,14.9444828 27,16.0775862 27,17.3344828 L27,17.3344828 L27,21.0344828 C27,21.2248276 26.8455172,21.3793103 26.6551724,21.3793103 L26.6551724,21.3793103 L18.6944828,21.3793103 L17.7113793,16.9558621 L18.6748276,15.35 C18.7389655,15.2434483 18.7406897,15.1106897 18.6793103,15.0024138 C18.617931,14.8941379 18.5034483,14.8275862 18.3793103,14.8275862 L18.3793103,14.8275862 L15.6206897,14.8275862 C15.4965517,14.8275862 15.382069,14.8941379 15.3206897,15.0024138 C15.2596552,15.1110345 15.2610345,15.2434483 15.3251724,15.35 L15.3251724,15.35 L16.2886207,16.9558621 L15.3055172,21.3793103 L7.34482759,21.3793103 C7.15448276,21.3793103 7,21.2248276 7,21.0344828 L7,21.0344828 L7,17.3344828 C7,16.0775862 7.75827586,14.9444828 8.92034483,14.4655172 L8.92034483,14.4655172 Z M17,0 C19.852069,0 22.1724138,2.32034483 22.1724138,5.17241379 L22.1724138,5.17241379 L22.1724138,6.55172414 C22.1724138,9.31862069 19.9603448,12.4137931 17,12.4137931 C14.0396552,12.4137931 11.8275862,9.31862069 11.8275862,6.55172414 L11.8275862,6.55172414 L11.8275862,5.17241379 C11.8275862,2.32034483 14.147931,0 17,0 Z M18.7244828,4.34 C17.6762069,5.31103448 16.1889655,5.86206897 14.5862069,5.86206897 C13.8672414,5.86206897 13.1748276,5.74689655 12.5172414,5.52931034 L12.5172414,5.52931034 L12.5172414,6.55172414 C12.5172414,8.9437931 14.4755172,11.7241379 17,11.7241379 C19.5244828,11.7241379 21.4827586,8.9437931 21.4827586,6.55172414 L21.4827586,6.55172414 L21.4827586,5.71068966 C20.4131034,5.4862069 19.452069,5.01103448 18.7244828,4.34 Z" fill-rule="nonzero"/><text font-family="PingFangSC-Regular, PingFang SC" font-size="12">
                                    <tspan x="0" y="40">听众 1</tspan>
                                </text><text font-family="PingFangSC-Regular, PingFang SC" font-size="12">
                                    <tspan x="47" y="40">听众 2</tspan>
                                </text><text font-family="PingFangSC-Regular, PingFang SC" font-size="12">
                                    <tspan x="94" y="40">听众 N</tspan>
                                </text><path d="M62.2393103 12.2610345C63.052069 12.7865517 63.9868966 13.1034483 65 13.1034483 66.0058621 13.1034483 66.9348276 12.7906897 67.7437931 12.272069L67.7437931 12.272069 73.0796552 14.4655172C74.2417241 14.9444828 75 16.0775862 75 17.3344828L75 17.3344828 75 21.0344828C75 21.2248276 74.8455172 21.3793103 74.6551724 21.3793103L74.6551724 21.3793103 66.6944828 21.3793103 65.7113793 16.9558621 66.6748276 15.35C66.7389655 15.2434483 66.7406897 15.1106897 66.6793103 15.0024138 66.617931 14.8941379 66.5034483 14.8275862 66.3793103 14.8275862L66.3793103 14.8275862 63.6206897 14.8275862C63.4965517 14.8275862 63.382069 14.8941379 63.3206897 15.0024138 63.2596552 15.1110345 63.2610345 15.2434483 63.3251724 15.35L63.3251724 15.35 64.2886207 16.9558621 63.3055172 21.3793103 55.3448276 21.3793103C55.1544828 21.3793103 55 21.2248276 55 21.0344828L55 21.0344828 55 17.3344828C55 16.0775862 55.7582759 14.9444828 56.9203448 14.4655172L56.9203448 14.4655172ZM65 0C67.852069 0 70.1724138 2.32034483 70.1724138 5.17241379L70.1724138 5.17241379 70.1724138 6.55172414C70.1724138 9.31862069 67.9603448 12.4137931 65 12.4137931 62.0396552 12.4137931 59.8275862 9.31862069 59.8275862 6.55172414L59.8275862 6.55172414 59.8275862 5.17241379C59.8275862 2.32034483 62.147931 0 65 0ZM66.7244828 4.34C65.6762069 5.31103448 64.1889655 5.86206897 62.5862069 5.86206897 61.8672414 5.86206897 61.1748276 5.74689655 60.5172414 5.52931034L60.5172414 5.52931034 60.5172414 6.55172414C60.5172414 8.9437931 62.4755172 11.7241379 65 11.7241379 67.5244828 11.7241379 69.4827586 8.9437931 69.4827586 6.55172414L69.4827586 6.55172414 69.4827586 5.71068966C68.4131034 5.4862069 67.452069 5.01103448 66.7244828 4.34ZM109.23931 12.2610345C110.052069 12.7865517 110.986897 13.1034483 112 13.1034483 113.005862 13.1034483 113.934828 12.7906897 114.743793 12.272069L114.743793 12.272069 120.079655 14.4655172C121.241724 14.9444828 122 16.0775862 122 17.3344828L122 17.3344828 122 21.0344828C122 21.2248276 121.845517 21.3793103 121.655172 21.3793103L121.655172 21.3793103 113.694483 21.3793103 112.711379 16.9558621 113.674828 15.35C113.738966 15.2434483 113.74069 15.1106897 113.67931 15.0024138 113.617931 14.8941379 113.503448 14.8275862 113.37931 14.8275862L113.37931 14.8275862 110.62069 14.8275862C110.496552 14.8275862 110.382069 14.8941379 110.32069 15.0024138 110.259655 15.1110345 110.261034 15.2434483 110.325172 15.35L110.325172 15.35 111.288621 16.9558621 110.305517 21.3793103 102.344828 21.3793103C102.154483 21.3793103 102 21.2248276 102 21.0344828L102 21.0344828 102 17.3344828C102 16.0775862 102.758276 14.9444828 103.920345 14.4655172L103.920345 14.4655172ZM112 0C114.852069 0 117.172414 2.32034483 117.172414 5.17241379L117.172414 5.17241379 117.172414 6.55172414C117.172414 9.31862069 114.960345 12.4137931 112 12.4137931 109.039655 12.4137931 106.827586 9.31862069 106.827586 6.55172414L106.827586 6.55172414 106.827586 5.17241379C106.827586 2.32034483 109.147931 0 112 0ZM113.724483 4.34C112.676207 5.31103448 111.188966 5.86206897 109.586207 5.86206897 108.867241 5.86206897 108.174828 5.74689655 107.517241 5.52931034L107.517241 5.52931034 107.517241 6.55172414C107.517241 8.9437931 109.475517 11.7241379 112 11.7241379 114.524483 11.7241379 116.482759 8.9437931 116.482759 6.55172414L116.482759 6.55172414 116.482759 5.71068966C115.413103 5.4862069 114.452069 5.01103448 113.724483 4.34Z" fill-rule="nonzero"/></g><text font-family="PingFangSC-Medium, PingFang SC" font-size="14" font-weight="400" fill="#28B8BB">
                                <tspan x="47" y="23">连麦听众</tspan>
                            </text><g transform="translate(10 36)" fill="#47C2C5"><path d="M38.0923862 4.81905403C39.5677271 4.81905403 41.0792571 5.60511698 42.1354766 6.9205521L42.1354766 6.9205521 42.7641586 7.70324861 41.8838355 8.18549066C40.8250911 8.76535937 40.2426976 9.82073725 40.3260169 11.0090894 40.4110194 12.228581 41.1642596 13.2511362 42.2903327 13.6769904L42.2903327 13.6769904 43.129417 13.9942771 42.7607922 14.8106379C42.3256803 15.7734388 42.1093867 16.2169668 41.5505582 17.0644673 40.6045895 18.5061437 39.4145542 19.9814846 37.7641586 19.9966336 36.3948605 20.0058913 36.2097065 19.3233462 34.7436234 19.2543343 34.1683234 19.2579412 33.7839313 19.3954155 33.4236318 19.5513512L33.0651848 19.7091664C32.702412 19.8645868 32.3081267 20 31.7155136 20L31.7155136 20 31.6826909 20C29.9935813 19.984851 28.8010211 18.4977277 27.9501543 17.2033328 25.8032093 13.936206 25.3756718 9.8249453 26.9334904 7.42720081 27.9770857 5.81972732 29.6661953 4.81989564 31.3409975 4.81989564 32.207855 4.81989564 32.8828255 5.06059586 33.4786848 5.27268137 33.9331537 5.43427032 34.3253436 5.57397744 34.7225831 5.57397744 35.0710093 5.57397744 35.388296 5.45446894 35.7905852 5.30213769 36.3603546 5.08668574 37.0698311 4.81905403 38.0923862 4.81905403ZM37.8382202 0C37.9888683 1.01245582 37.573955 2.00302979 37.026909 2.70493183 36.441149 3.45648881 35.4320597 4.03888234 34.4574763 4.00858441 34.2798967 3.03905066 34.7368905 2.04258542 35.2906693 1.37013971 35.900836.629523649 36.9444313.0614374684 37.8382202 0ZM71 11.8181818 71 20 62.8181818 20 62.8181818 11.8181818 71 11.8181818ZM61.1818182 11.8181818 61.1818182 20 53 20 53 11.8181818 61.1818182 11.8181818ZM61.1818182 2 61.1818182 10.1818182 53 10.1818182 53 2 61.1818182 2ZM71 2 71 10.1818182 62.8181818 10.1818182 62.8181818 2 71 2ZM96.3358333 8.1105C99.5643333 8.1105 103 10.2555 103 13.18425 103 14.9589167 102.228167 16.74 100.606583 17.87025L100.606583 17.87025 100.996167 19.5615C101.031917 19.7173333 100.8605 19.83925 100.724833 19.7530833L100.724833 19.7530833 99.0079167 18.6631667C98.2351667 18.9198333 97.346 19.0646667 96.3358333 19.0646667 91.7699167 19.0646667 89.833 15.7710833 89.833 13.5875833 89.833 11.40775 91.7699167 8.1105 96.3358333 8.1105ZM88.9786667 2C92.7095 2 96.01225 4.2 96.6759167 7.37991667 96.56225 7.37533333 96.4485833 7.37258333 96.3349167 7.37258333 91.3409167 7.37258333 89.0941667 11.0071667 89.0941667 13.5875833 89.0941667 14.0440833 89.16475 14.5326667 89.3068333 15.0285833 89.1079167 15.0194167 87.0600833 14.9213333 86.09575 14.61425L86.09575 14.61425 83.9140833 15.8508333C83.6959167 15.9745833 83.4365 15.77475 83.5006667 15.5318333L83.5006667 15.5318333 83.9865 13.6920833C83.9865 13.6920833 81 11.7551667 81 8.41116667 81 5.06716667 84.4595 2 88.9786667 2ZM94.2476667 10.8751667C93.7636667 10.8751667 93.3713333 11.2675 93.3713333 11.7515 93.3713333 12.2355 93.7636667 12.6278333 94.2476667 12.6278333 94.7316667 12.6278333 95.124 12.2355 95.124 11.7515 95.124 11.2675 94.7316667 10.8751667 94.2476667 10.8751667ZM98.6293333 10.8751667C98.1453333 10.8751667 97.753 11.2675 97.753 11.7515 97.753 12.2355 98.1453333 12.6278333 98.6293333 12.6278333 99.1133333 12.6278333 99.5056667 12.2355 99.5056667 11.7515 99.5056667 11.2675 99.1133333 10.8751667 98.6293333 10.8751667ZM86.0040833 5.34308333C85.4559167 5.34308333 85.01225 5.78675 85.01225 6.33491667 85.01225 6.88308333 85.4568333 7.32675 86.0040833 7.32675 86.55225 7.32675 86.9959167 6.88308333 86.9959167 6.33491667 86.9959167 5.78675 86.55225 5.34308333 86.0040833 5.34308333ZM91.769 5.34308333C91.2208333 5.34308333 90.7771667 5.78675 90.7771667 6.33491667 90.7771667 6.88308333 91.22175 7.32675 91.769 7.32675 92.3171667 7.32675 92.7608333 6.88308333 92.7608333 6.33491667 92.7608333 5.78675 92.31625 5.34308333 91.769 5.34308333Z" fill-rule="nonzero"/><path d="M130,2 L130,20 L112,20 L112,2 L130,2 Z M120.556,9.432 L119.248,9.432 L119.248,15.192 C119.248,15.828 119.128,16.284 118.912,16.572 C118.684,16.86 118.324,17.016 117.82,17.016 C116.932,17.016 116.488,16.5 116.488,15.48 L116.488,15.204 L115.18,15.204 L115.18,15.492 C115.18,16.332 115.408,16.98 115.864,17.46 C116.296,17.928 116.944,18.168 117.796,18.168 C118.78,18.168 119.5,17.904 119.956,17.4 C120.352,16.92 120.556,16.2 120.556,15.24 L120.556,9.432 Z M125.236,9.264 C124.324,9.264 123.568,9.468 122.968,9.876 C122.332,10.308 122.02,10.896 122.02,11.652 C122.02,12.396 122.344,12.972 123.004,13.368 C123.268,13.512 123.916,13.74 124.972,14.076 C125.92,14.364 126.484,14.556 126.676,14.652 C127.216,14.928 127.492,15.3 127.492,15.78 C127.492,16.164 127.3,16.464 126.916,16.68 C126.532,16.896 126.016,17.016 125.368,17.016 C124.648,17.016 124.12,16.884 123.772,16.62 C123.388,16.332 123.148,15.84 123.052,15.168 L121.756,15.168 C121.828,16.248 122.212,17.04 122.92,17.544 C123.508,17.952 124.324,18.168 125.368,18.168 C126.448,18.168 127.288,17.952 127.888,17.52 C128.488,17.076 128.788,16.476 128.788,15.708 C128.788,14.916 128.416,14.304 127.684,13.86 C127.348,13.656 126.592,13.38 125.44,13.02 C124.636,12.78 124.144,12.6 123.952,12.492 C123.52,12.264 123.316,11.964 123.316,11.58 C123.316,11.148 123.496,10.836 123.868,10.644 C124.168,10.476 124.6,10.392 125.164,10.392 C125.812,10.392 126.292,10.512 126.628,10.764 C126.964,11.004 127.18,11.412 127.3,11.964 L128.596,11.964 C128.512,11.028 128.176,10.344 127.576,9.9 C127.012,9.468 126.232,9.264 125.236,9.264 Z"/><path d="M3.33333333,16 C3.33333333,16.4583333 3.70833333,16.8333333 4.16666667,16.8333333 L5,16.8333333 L5,19.75 C5,20.4416667 5.55833333,21 6.25,21 C6.94166667,21 7.5,20.4416667 7.5,19.75 L7.5,16.8333333 L9.16666667,16.8333333 L9.16666667,19.75 C9.16666667,20.4416667 9.725,21 10.4166667,21 C11.1083333,21 11.6666667,20.4416667 11.6666667,19.75 L11.6666667,16.8333333 L12.5,16.8333333 C12.9583333,16.8333333 13.3333333,16.4583333 13.3333333,16 L13.3333333,7.66666667 L3.33333333,7.66666667 L3.33333333,16 Z M1.25,7.66666667 C0.558333333,7.66666667 0,8.225 0,8.91666667 L0,14.75 C0,15.4416667 0.558333333,16 1.25,16 C1.94166667,16 2.5,15.4416667 2.5,14.75 L2.5,8.91666667 C2.5,8.225 1.94166667,7.66666667 1.25,7.66666667 Z M15.4166667,7.66666667 C14.725,7.66666667 14.1666667,8.225 14.1666667,8.91666667 L14.1666667,14.75 C14.1666667,15.4416667 14.725,16 15.4166667,16 C16.1083333,16 16.6666667,15.4416667 16.6666667,14.75 L16.6666667,8.91666667 C16.6666667,8.225 16.1083333,7.66666667 15.4166667,7.66666667 Z M11.275,2.8 L12.3583333,1.71666667 C12.525,1.55 12.525,1.29166667 12.3583333,1.125 C12.1916667,0.958333333 11.9333333,0.958333333 11.7666667,1.125 L10.5333333,2.35833333 C9.85140601,2.01298937 9.0977202,1.83313253 8.33333317,1.83333333 C7.53333333,1.83333333 6.78333333,2.025 6.11666667,2.35833333 L4.875,1.125 C4.70833333,0.958333333 4.45,0.958333333 4.28333333,1.125 C4.11666667,1.29166667 4.11666667,1.55 4.28333333,1.71666667 L5.375,2.80833333 C4.09139882,3.74754494 3.33292877,5.24281447 3.33333317,6.83333333 L13.3333332,6.83333333 C13.3333332,5.175 12.525,3.70833333 11.275,2.8 L11.275,2.8 Z M6.66666667,5.16666667 L5.83333333,5.16666667 L5.83333333,4.33333333 L6.66666667,4.33333333 L6.66666667,5.16666667 Z M10.8333333,5.16666667 L10,5.16666667 L10,4.33333333 L10.8333333,4.33333333 L10.8333333,5.16666667 Z" fill-rule="nonzero"/></g><g transform="translate(10 69)"><rect fill="#28B8BB" opacity=".854" width="60" height="28"/><text font-family="PingFangSC-Regular, PingFang SC" font-size="12" fill="#FFF">
                                        <tspan x="6" y="18">回声消除</tspan>
                                    </text><g transform="translate(70)"><rect fill="#28B8BB" opacity=".854" width="60" height="28"/><text font-family="PingFangSC-Regular, PingFang SC" font-size="12" fill="#FFF">
                                        <tspan x="8" y="18">噪声抑制</tspan>
                                    </text></g><g transform="translate(0 38)"><rect fill="#28B8BB" opacity=".854" width="130" height="28"/><text font-family="PingFangSC-Regular, PingFang SC" font-size="12" fill="#FFF">
                                        <tspan x="41" y="18">自动增益</tspan>
                                    </text></g></g></g><g transform="translate(620 273)"><path d="M2,0 L148,0 C149.104569,-2.02906125e-16 150,0.8954305 150,2 L150,209 C150,210.104569 149.104569,211 148,211 L2,211 C0.8954305,211 1.3527075e-16,210.104569 0,209 L0,2 C-1.3527075e-16,0.8954305 0.8954305,2.02906125e-16 2,0 Z" fill="#EDF9FA"/><path d="M35.264,170.324 L30.3493333,167.634 C31.9473333,166.196 33,163.758667 33,161 C33,157.691333 30.308,155 27,155 C23.692,155 21,157.691333 21,161 C21,163.758667 22.0526667,166.196 23.6506667,167.634667 L18.7373333,170.324 C17.666,170.907333 17,172.028667 17,173.25 L17,175.666667 C17,176.035333 17.2986667,176.333333 17.6666667,176.333333 L36.3333333,176.333333 C36.7013333,176.333333 37,176.035333 37,175.666667 L37,173.25 C37,172.028667 36.334,170.907333 35.264,170.324 Z M22.348,161.396667 C22.984,161.569333 23.6546667,161.666667 24.3333333,161.666667 C25.9453333,161.666667 27.4533333,161.176667 28.5713333,160.305333 C29.404,161.034667 30.4773333,161.492 31.6433333,161.623333 C31.4153333,164.958 29.3826667,167.666667 27,167.666667 C24.564,167.666667 22.498,164.834 22.348,161.396667 Z M33,173.666667 L29,173.666667 L29,172.333333 L33,172.333333 L33,173.666667 Z" fill="#47C2C5" fill-rule="nonzero"/><text font-family="PingFangSC-Regular, PingFang SC" font-size="12" fill="#47C2C5">
                                <tspan x="11" y="196">听众 1</tspan>
                            </text><text font-family="PingFangSC-Regular, PingFang SC" font-size="12" fill="#47C2C5">
                                <tspan x="57" y="196">听众 2</tspan>
                            </text><text font-family="PingFangSC-Regular, PingFang SC" font-size="12" fill="#47C2C5">
                                <tspan x="103" y="196">听众 N</tspan>
                            </text><path d="M83.264 170.324 78.3493333 167.634C79.9473333 166.196 81 163.758667 81 161 81 157.691333 78.308 155 75 155 71.692 155 69 157.691333 69 161 69 163.758667 70.0526667 166.196 71.6506667 167.634667L66.7373333 170.324C65.666 170.907333 65 172.028667 65 173.25L65 175.666667C65 176.035333 65.2986667 176.333333 65.6666667 176.333333L84.3333333 176.333333C84.7013333 176.333333 85 176.035333 85 175.666667L85 173.25C85 172.028667 84.334 170.907333 83.264 170.324ZM70.348 161.396667C70.984 161.569333 71.6546667 161.666667 72.3333333 161.666667 73.9453333 161.666667 75.4533333 161.176667 76.5713333 160.305333 77.404 161.034667 78.4773333 161.492 79.6433333 161.623333 79.4153333 164.958 77.3826667 167.666667 75 167.666667 72.564 167.666667 70.498 164.834 70.348 161.396667ZM81 173.666667 77 173.666667 77 172.333333 81 172.333333 81 173.666667ZM130.264 170.324 125.349333 167.634C126.947333 166.196 128 163.758667 128 161 128 157.691333 125.308 155 122 155 118.692 155 116 157.691333 116 161 116 163.758667 117.052667 166.196 118.650667 167.634667L113.737333 170.324C112.666 170.907333 112 172.028667 112 173.25L112 175.666667C112 176.035333 112.298667 176.333333 112.666667 176.333333L131.333333 176.333333C131.701333 176.333333 132 176.035333 132 175.666667L132 173.25C132 172.028667 131.334 170.907333 130.264 170.324ZM117.348 161.396667C117.984 161.569333 118.654667 161.666667 119.333333 161.666667 120.945333 161.666667 122.453333 161.176667 123.571333 160.305333 124.404 161.034667 125.477333 161.492 126.643333 161.623333 126.415333 164.958 124.382667 167.666667 122 167.666667 119.564 167.666667 117.498 164.834 117.348 161.396667ZM128 173.666667 124 173.666667 124 172.333333 128 172.333333 128 173.666667Z" fill="#47C2C5" fill-rule="nonzero"/><text font-family="PingFangSC-Medium, PingFang SC" font-size="14" font-weight="400" fill="#28B8BB">
                                <tspan x="61" y="23">听众</tspan>
                            </text><g transform="translate(10 36)" fill="#47C2C5"><path d="M38.0923862 4.81905403C39.5677271 4.81905403 41.0792571 5.60511698 42.1354766 6.9205521L42.1354766 6.9205521 42.7641586 7.70324861 41.8838355 8.18549066C40.8250911 8.76535937 40.2426976 9.82073725 40.3260169 11.0090894 40.4110194 12.228581 41.1642596 13.2511362 42.2903327 13.6769904L42.2903327 13.6769904 43.129417 13.9942771 42.7607922 14.8106379C42.3256803 15.7734388 42.1093867 16.2169668 41.5505582 17.0644673 40.6045895 18.5061437 39.4145542 19.9814846 37.7641586 19.9966336 36.3948605 20.0058913 36.2097065 19.3233462 34.7436234 19.2543343 34.1683234 19.2579412 33.7839313 19.3954155 33.4236318 19.5513512L33.0651848 19.7091664C32.702412 19.8645868 32.3081267 20 31.7155136 20L31.7155136 20 31.6826909 20C29.9935813 19.984851 28.8010211 18.4977277 27.9501543 17.2033328 25.8032093 13.936206 25.3756718 9.8249453 26.9334904 7.42720081 27.9770857 5.81972732 29.6661953 4.81989564 31.3409975 4.81989564 32.207855 4.81989564 32.8828255 5.06059586 33.4786848 5.27268137 33.9331537 5.43427032 34.3253436 5.57397744 34.7225831 5.57397744 35.0710093 5.57397744 35.388296 5.45446894 35.7905852 5.30213769 36.3603546 5.08668574 37.0698311 4.81905403 38.0923862 4.81905403ZM37.8382202 0C37.9888683 1.01245582 37.573955 2.00302979 37.026909 2.70493183 36.441149 3.45648881 35.4320597 4.03888234 34.4574763 4.00858441 34.2798967 3.03905066 34.7368905 2.04258542 35.2906693 1.37013971 35.900836.629523649 36.9444313.0614374684 37.8382202 0ZM71 11.8181818 71 20 62.8181818 20 62.8181818 11.8181818 71 11.8181818ZM61.1818182 11.8181818 61.1818182 20 53 20 53 11.8181818 61.1818182 11.8181818ZM61.1818182 2 61.1818182 10.1818182 53 10.1818182 53 2 61.1818182 2ZM71 2 71 10.1818182 62.8181818 10.1818182 62.8181818 2 71 2ZM96.3358333 8.1105C99.5643333 8.1105 103 10.2555 103 13.18425 103 14.9589167 102.228167 16.74 100.606583 17.87025L100.606583 17.87025 100.996167 19.5615C101.031917 19.7173333 100.8605 19.83925 100.724833 19.7530833L100.724833 19.7530833 99.0079167 18.6631667C98.2351667 18.9198333 97.346 19.0646667 96.3358333 19.0646667 91.7699167 19.0646667 89.833 15.7710833 89.833 13.5875833 89.833 11.40775 91.7699167 8.1105 96.3358333 8.1105ZM88.9786667 2C92.7095 2 96.01225 4.2 96.6759167 7.37991667 96.56225 7.37533333 96.4485833 7.37258333 96.3349167 7.37258333 91.3409167 7.37258333 89.0941667 11.0071667 89.0941667 13.5875833 89.0941667 14.0440833 89.16475 14.5326667 89.3068333 15.0285833 89.1079167 15.0194167 87.0600833 14.9213333 86.09575 14.61425L86.09575 14.61425 83.9140833 15.8508333C83.6959167 15.9745833 83.4365 15.77475 83.5006667 15.5318333L83.5006667 15.5318333 83.9865 13.6920833C83.9865 13.6920833 81 11.7551667 81 8.41116667 81 5.06716667 84.4595 2 88.9786667 2ZM94.2476667 10.8751667C93.7636667 10.8751667 93.3713333 11.2675 93.3713333 11.7515 93.3713333 12.2355 93.7636667 12.6278333 94.2476667 12.6278333 94.7316667 12.6278333 95.124 12.2355 95.124 11.7515 95.124 11.2675 94.7316667 10.8751667 94.2476667 10.8751667ZM98.6293333 10.8751667C98.1453333 10.8751667 97.753 11.2675 97.753 11.7515 97.753 12.2355 98.1453333 12.6278333 98.6293333 12.6278333 99.1133333 12.6278333 99.5056667 12.2355 99.5056667 11.7515 99.5056667 11.2675 99.1133333 10.8751667 98.6293333 10.8751667ZM86.0040833 5.34308333C85.4559167 5.34308333 85.01225 5.78675 85.01225 6.33491667 85.01225 6.88308333 85.4568333 7.32675 86.0040833 7.32675 86.55225 7.32675 86.9959167 6.88308333 86.9959167 6.33491667 86.9959167 5.78675 86.55225 5.34308333 86.0040833 5.34308333ZM91.769 5.34308333C91.2208333 5.34308333 90.7771667 5.78675 90.7771667 6.33491667 90.7771667 6.88308333 91.22175 7.32675 91.769 7.32675 92.3171667 7.32675 92.7608333 6.88308333 92.7608333 6.33491667 92.7608333 5.78675 92.31625 5.34308333 91.769 5.34308333Z" fill-rule="nonzero"/><path d="M130,2 L130,20 L112,20 L112,2 L130,2 Z M120.556,9.432 L119.248,9.432 L119.248,15.192 C119.248,15.828 119.128,16.284 118.912,16.572 C118.684,16.86 118.324,17.016 117.82,17.016 C116.932,17.016 116.488,16.5 116.488,15.48 L116.488,15.204 L115.18,15.204 L115.18,15.492 C115.18,16.332 115.408,16.98 115.864,17.46 C116.296,17.928 116.944,18.168 117.796,18.168 C118.78,18.168 119.5,17.904 119.956,17.4 C120.352,16.92 120.556,16.2 120.556,15.24 L120.556,9.432 Z M125.236,9.264 C124.324,9.264 123.568,9.468 122.968,9.876 C122.332,10.308 122.02,10.896 122.02,11.652 C122.02,12.396 122.344,12.972 123.004,13.368 C123.268,13.512 123.916,13.74 124.972,14.076 C125.92,14.364 126.484,14.556 126.676,14.652 C127.216,14.928 127.492,15.3 127.492,15.78 C127.492,16.164 127.3,16.464 126.916,16.68 C126.532,16.896 126.016,17.016 125.368,17.016 C124.648,17.016 124.12,16.884 123.772,16.62 C123.388,16.332 123.148,15.84 123.052,15.168 L121.756,15.168 C121.828,16.248 122.212,17.04 122.92,17.544 C123.508,17.952 124.324,18.168 125.368,18.168 C126.448,18.168 127.288,17.952 127.888,17.52 C128.488,17.076 128.788,16.476 128.788,15.708 C128.788,14.916 128.416,14.304 127.684,13.86 C127.348,13.656 126.592,13.38 125.44,13.02 C124.636,12.78 124.144,12.6 123.952,12.492 C123.52,12.264 123.316,11.964 123.316,11.58 C123.316,11.148 123.496,10.836 123.868,10.644 C124.168,10.476 124.6,10.392 125.164,10.392 C125.812,10.392 126.292,10.512 126.628,10.764 C126.964,11.004 127.18,11.412 127.3,11.964 L128.596,11.964 C128.512,11.028 128.176,10.344 127.576,9.9 C127.012,9.468 126.232,9.264 125.236,9.264 Z"/><path d="M3.33333333,16 C3.33333333,16.4583333 3.70833333,16.8333333 4.16666667,16.8333333 L5,16.8333333 L5,19.75 C5,20.4416667 5.55833333,21 6.25,21 C6.94166667,21 7.5,20.4416667 7.5,19.75 L7.5,16.8333333 L9.16666667,16.8333333 L9.16666667,19.75 C9.16666667,20.4416667 9.725,21 10.4166667,21 C11.1083333,21 11.6666667,20.4416667 11.6666667,19.75 L11.6666667,16.8333333 L12.5,16.8333333 C12.9583333,16.8333333 13.3333333,16.4583333 13.3333333,16 L13.3333333,7.66666667 L3.33333333,7.66666667 L3.33333333,16 Z M1.25,7.66666667 C0.558333333,7.66666667 0,8.225 0,8.91666667 L0,14.75 C0,15.4416667 0.558333333,16 1.25,16 C1.94166667,16 2.5,15.4416667 2.5,14.75 L2.5,8.91666667 C2.5,8.225 1.94166667,7.66666667 1.25,7.66666667 Z M15.4166667,7.66666667 C14.725,7.66666667 14.1666667,8.225 14.1666667,8.91666667 L14.1666667,14.75 C14.1666667,15.4416667 14.725,16 15.4166667,16 C16.1083333,16 16.6666667,15.4416667 16.6666667,14.75 L16.6666667,8.91666667 C16.6666667,8.225 16.1083333,7.66666667 15.4166667,7.66666667 Z M11.275,2.8 L12.3583333,1.71666667 C12.525,1.55 12.525,1.29166667 12.3583333,1.125 C12.1916667,0.958333333 11.9333333,0.958333333 11.7666667,1.125 L10.5333333,2.35833333 C9.85140601,2.01298937 9.0977202,1.83313253 8.33333317,1.83333333 C7.53333333,1.83333333 6.78333333,2.025 6.11666667,2.35833333 L4.875,1.125 C4.70833333,0.958333333 4.45,0.958333333 4.28333333,1.125 C4.11666667,1.29166667 4.11666667,1.55 4.28333333,1.71666667 L5.375,2.80833333 C4.09139882,3.74754494 3.33292877,5.24281447 3.33333317,6.83333333 L13.3333332,6.83333333 C13.3333332,5.175 12.525,3.70833333 11.275,2.8 L11.275,2.8 Z M6.66666667,5.16666667 L5.83333333,5.16666667 L5.83333333,4.33333333 L6.66666667,4.33333333 L6.66666667,5.16666667 Z M10.8333333,5.16666667 L10,5.16666667 L10,4.33333333 L10.8333333,4.33333333 L10.8333333,5.16666667 Z" fill-rule="nonzero"/></g><g transform="translate(10 69)"><rect fill="#28B8BB" opacity=".854" width="60" height="28"/><text font-family="PingFangSC-Regular, PingFang SC" font-size="12" fill="#FFF">
                                        <tspan x="6" y="18">回声消除</tspan>
                                    </text><g transform="translate(70)"><rect fill="#28B8BB" opacity=".854" width="60" height="28"/><text font-family="PingFangSC-Regular, PingFang SC" font-size="12" fill="#FFF">
                                        <tspan x="6" y="18">噪声抑制</tspan>
                                    </text></g><g transform="translate(0 38)"><rect fill="#28B8BB" opacity=".854" width="130" height="28"/><text font-family="PingFangSC-Regular, PingFang SC" font-size="12" fill="#FFF">
                                        <tspan x="41" y="18">自动增益</tspan>
                                    </text></g></g></g><g transform="translate(259 424)"><rect fill="#EDF9FA" width="252" height="60"/><g transform="translate(71 18)"><path d="M28,4 L28,24 L0,24 L0,4 L28,4 Z M11,10 L11,18 L19,14 L11,10 Z" fill="#00AAE7"/><line x1="6" x2="11.414" y2="5.414" stroke="#00AAE7" stroke-width="2"/><line x1="16.586" x2="22" y2="5.414" stroke="#00AAE7" stroke-width="2" transform="matrix(-1 0 0 1 38.586 0)"/><text font-family="PingFangSC-Medium, PingFang SC" font-size="14" font-weight="400" fill="#00AAE7">
                                    <tspan x="40" y="17">视频直播 Pili</tspan>
                                </text></g></g><g transform="translate(356.69 331)"><path d="M29,0 L29,67 L33,67 L28.5,76 L24,67 L28,67 L28,0 L29,0 Z" fill="#00AAE7" fill-rule="nonzero"/><g transform="translate(0 21)"><path d="M54,0.5 C54.4142136,0.5 54.7892136,0.667893219 55.0606602,0.939339828 C55.3321068,1.21078644 55.5,1.58578644 55.5,2 L55.5,2 L55.5,22 C55.5,22.4142136 55.3321068,22.7892136 55.0606602,23.0606602 C54.7892136,23.3321068 54.4142136,23.5 54,23.5 L54,23.5 L2,23.5 C1.58578644,23.5 1.21078644,23.3321068 0.939339828,23.0606602 C0.667893219,22.7892136 0.5,22.4142136 0.5,22 L0.5,22 L0.5,2 C0.5,1.58578644 0.667893219,1.21078644 0.939339828,0.939339828 C1.21078644,0.667893219 1.58578644,0.5 2,0.5 L2,0.5 Z" stroke="#00AAE7" fill="#EDF9FA"/><text font-family="PingFangSC-Regular, PingFang SC" font-size="12" fill="#00AAE7">
                                    <tspan x="4" y="17">旁路直播</tspan>
                                </text></g></g><g transform="translate(667.69 216.5)"><path d="M27.8104326,-0.5 L32.3104326,8.5 L28.31,8.5 L28.3104326,51.5 L27.3104326,51.5 L27.31,8.5 L23.3104326,8.5 L27.8104326,-0.5 Z" fill="#47C2C5" fill-rule="nonzero"/><g transform="translate(0 16.5)"><path d="M54,0.5 C54.4142136,0.5 54.7892136,0.667893219 55.0606602,0.939339828 C55.3321068,1.21078644 55.5,1.58578644 55.5,2 L55.5,2 L55.5,22 C55.5,22.4142136 55.3321068,22.7892136 55.0606602,23.0606602 C54.7892136,23.3321068 54.4142136,23.5 54,23.5 L54,23.5 L2,23.5 C1.58578644,23.5 1.21078644,23.3321068 0.939339828,23.0606602 C0.667893219,22.7892136 0.5,22.4142136 0.5,22 L0.5,22 L0.5,2 C0.5,1.58578644 0.667893219,1.21078644 0.939339828,0.939339828 C1.21078644,0.667893219 1.58578644,0.5 2,0.5 L2,0.5 Z" stroke="#47C2C5" fill="#EDF9FA"/><text font-family="PingFangSC-Regular, PingFang SC" font-size="12" fill="#47C2C5">
                                    <tspan x="4" y="17">申请连麦</tspan>
                                </text></g></g><g transform="translate(158.69 120)"><path d="M83.5,7.5 L92.5,12 L83.5,16.5 L83.5,12.5 L8.5,12.5 L8.5,16.5 L-0.5,12 L8.5,7.5 L8.5,11.5 L83.5,11.5 L83.5,7.5 Z" fill="#47C2C5" fill-rule="nonzero"/><g transform="translate(18)"><path d="M54,0.5 C54.4142136,0.5 54.7892136,0.667893219 55.0606602,0.939339828 C55.3321068,1.21078644 55.5,1.58578644 55.5,2 L55.5,2 L55.5,22 C55.5,22.4142136 55.3321068,22.7892136 55.0606602,23.0606602 C54.7892136,23.3321068 54.4142136,23.5 54,23.5 L54,23.5 L2,23.5 C1.58578644,23.5 1.21078644,23.3321068 0.939339828,23.0606602 C0.667893219,22.7892136 0.5,22.4142136 0.5,22 L0.5,22 L0.5,2 C0.5,1.58578644 0.667893219,1.21078644 0.939339828,0.939339828 C1.21078644,0.667893219 1.58578644,0.5 2,0.5 L2,0.5 Z" stroke="#47C2C5" fill="#EDF9FA"/><text font-family="PingFangSC-Regular, PingFang SC" font-size="12" fill="#47C2C5">
                                    <tspan x="4" y="17">连麦互动</tspan>
                                </text></g></g></g></svg>