<svg width="765" height="290" viewBox="0 0 765 290" xmlns="http://www.w3.org/2000/svg" xmlns:xlink="http://www.w3.org/1999/xlink"><defs><path d="M2,0 L270,0 C271.104569,-2.02906125e-16 272,0.8954305 272,2 L272,288 C272,289.104569 271.104569,290 270,290 L2,290 C0.8954305,290 1.3527075e-16,289.104569 0,288 L0,2 C-1.3527075e-16,0.8954305 0.8954305,2.02906125e-16 2,0 Z" id="a"/><mask id="b" maskContentUnits="userSpaceOnUse" maskUnits="objectBoundingBox" x="0" y="0" width="272" height="290" fill="#fff"><use xlink:href="#a"/></mask></defs><g fill="none" fill-rule="evenodd"><g transform="translate(197)"><use stroke="#00AAE7" mask="url(#b)" stroke-width="2" opacity=".85" stroke-dasharray="2" xlink:href="#a"/><g transform="translate(156 12)"><path d="M0,0 L104,0 L104,266 L0,266 L0,0 Z" fill="#EDF9FA"/><g transform="translate(12 20)"><text font-family="PingFangSC-Regular, PingFang SC" font-size="14" fill="#00AAE7">
                                    <tspan x="5" y="15">多媒体处理</tspan>
                                </text><g transform="translate(0 34)"><rect fill="#00AAE7" opacity=".854" width="80" height="36"/><text font-family="PingFangSC-Regular, PingFang SC" font-size="14" fill="#FFF">
                                            <tspan x="12" y="24">图片瘦身</tspan>
                                        </text><g transform="translate(0 52)"><rect fill="#00AAE7" opacity=".854" width="80" height="36"/><text font-family="PingFangSC-Regular, PingFang SC" font-size="14" fill="#FFF">
                                            <tspan x="12" y="24">图片水印</tspan>
                                        </text></g><g transform="translate(0 104)"><rect fill="#00AAE7" opacity=".854" width="80" height="36"/><text font-family="PingFangSC-Regular, PingFang SC" font-size="14" fill="#FFF">
                                            <tspan x="12" y="24">全景拼接</tspan>
                                        </text></g><g transform="translate(0 156)"><rect fill="#00AAE7" opacity=".854" width="80" height="36"/><text font-family="PingFangSC-Regular, PingFang SC" font-size="14" fill="#FFF">
                                            <tspan x="12" y="24">内容审核</tspan>
                                        </text></g></g></g></g><g transform="translate(12 12)"><path d="M0,0 L100,0 L100,266 L0,266 L0,0 Z" fill="#EDF9FA"/><g transform="translate(22 91)"><g transform="translate(12)"><rect fill="#21B4E9" width="31.5" height="10.5"/><rect fill="#21B4E9" y="12" width="31.5" height="10.5"/><rect fill="#21B4E9" y="24" width="31.5" height="12"/><line x1="6" y1="6" x2="10.5" y2="6" stroke="#FFF" stroke-width="2.94" stroke-linecap="square"/><line x1="6" y1="18" x2="10.5" y2="18" stroke="#FFF" stroke-width="2.94" stroke-linecap="square"/><line x1="6" y1="30" x2="10.5" y2="30" stroke="#FFF" stroke-width="2.94" stroke-linecap="square"/></g><text font-family="PingFangSC-Regular, PingFang SC" font-size="14" fill="#21B4E9">
                                    <tspan x="0" y="63">对象存储</tspan>
                                    <tspan x="10.864" y="81">Kodo</tspan>
                                </text></g></g><path d="M139.5 141 148.5 145.5 139.5 150 139.5 146 119.5 146 119.5 145 139.5 145 139.5 141ZM299.5 140.5 308.5 145 299.5 149.5 299.5 145.5 279.5 145.5 279.5 144.5 299.5 144.5 299.5 140.5Z" fill="#00AAE7" fill-rule="nonzero"/></g><g transform="translate(513)"><path d="M0,0 L88,0 L88,290 L0,290 L0,0 Z" fill="#EDF9FA"/><g transform="translate(24 110)"><text font-family="PingFangSC-Regular, PingFang SC" font-size="14" fill="#21B4E9">
                                    <tspan x="0" y="67">QCDN</tspan>
                                </text><g transform="translate(.5)"><polygon fill="#00AAE7" points="20 0 37.3205081 10 37.3205081 30 20 40 2.67949192 30 2.67949192 10"/><polygon stroke="#FFF" stroke-width="2.143" points="13.011248 14.2857143 13.011248 23.7824975 21.5826766 28.5714286 21.5826766 19.047619"/><polyline stroke="#FFF" stroke-width="2.143" stroke-linecap="square" points="18.7255337 11.4285714 27.2969623 16.2117347 27.2969623 25.7142857"/></g></g><g transform="translate(172)"><path d="M0,0 L80,0 L80,290 L0,290 L0,0 Z" fill="#EDF9FA"/><g transform="translate(20 111)" fill="#47C2C5"><text font-family="PingFangSC-Regular, PingFang SC" font-size="14">
                                    <tspan x="6.5" y="66">用户</tspan>
                                </text><path d="M14.4786207,24.522069 C16.1041379,25.5731034 17.9737931,26.2068966 20,26.2068966 C22.0117241,26.2068966 23.8696552,25.5813793 25.4875862,24.5441379 L25.4875862,24.5441379 L36.1593103,28.9310345 C38.4834483,29.8889655 40,32.1551724 40,34.6689655 L40,34.6689655 L40,42.0689655 C40,42.4496552 39.6910345,42.7586207 39.3103448,42.7586207 L39.3103448,42.7586207 L23.3889655,42.7586207 L21.4227586,33.9117241 L23.3496552,30.7 C23.477931,30.4868966 23.4813793,30.2213793 23.3586207,30.0048276 C23.2358621,29.7882759 23.0068966,29.6551724 22.7586207,29.6551724 L22.7586207,29.6551724 L17.2413793,29.6551724 C16.9931034,29.6551724 16.7641379,29.7882759 16.6413793,30.0048276 C16.5193103,30.222069 16.522069,30.4868966 16.6503448,30.7 L16.6503448,30.7 L18.5772414,33.9117241 L16.6110345,42.7586207 L0.689655172,42.7586207 C0.308965517,42.7586207 0,42.4496552 0,42.0689655 L0,42.0689655 L0,34.6689655 C0,32.1551724 1.51655172,29.8889655 3.84068966,28.9310345 L3.84068966,28.9310345 Z M20,0 C25.7041379,0 30.3448276,4.64068966 30.3448276,10.3448276 L30.3448276,10.3448276 L30.3448276,13.1034483 C30.3448276,18.6372414 25.9206897,24.8275862 20,24.8275862 C14.0793103,24.8275862 9.65517241,18.6372414 9.65517241,13.1034483 L9.65517241,13.1034483 L9.65517241,10.3448276 C9.65517241,4.64068966 14.2958621,0 20,0 Z M23.4489655,8.68 C21.3524138,10.622069 18.377931,11.7241379 15.1724138,11.7241379 C13.7344828,11.7241379 12.3496552,11.4937931 11.0344828,11.0586207 L11.0344828,11.0586207 L11.0344828,13.1034483 C11.0344828,17.8875862 14.9510345,23.4482759 20,23.4482759 C25.0489655,23.4482759 28.9655172,17.8875862 28.9655172,13.1034483 L28.9655172,13.1034483 L28.9655172,11.4213793 C26.8262069,10.9724138 24.9041379,10.022069 23.4489655,8.68 Z" fill-rule="nonzero"/></g></g><g transform="translate(96 124)"><path d="M34.5,-13.5 L34.5,46.5 L38.5,46.5 L34,55.5 L29.5,46.5 L33.5,46.5 L33.5,-13.5 L34.5,-13.5 Z" transform="rotate(-90 34 21)" fill="#47C2C5" fill-rule="nonzero"/><g transform="translate(11.5)"><path d="M37,0.5 C37.4142136,0.5 37.7892136,0.667893219 38.0606602,0.939339828 C38.3321068,1.21078644 38.5,1.58578644 38.5,2 L38.5,2 L38.5,40 C38.5,40.4142136 38.3321068,40.7892136 38.0606602,41.0606602 C37.7892136,41.3321068 37.4142136,41.5 37,41.5 L37,41.5 L2,41.5 C1.58578644,41.5 1.21078644,41.3321068 0.939339828,41.0606602 C0.667893219,40.7892136 0.5,40.4142136 0.5,40 L0.5,40 L0.5,2 C0.5,1.58578644 0.667893219,1.21078644 0.939339828,0.939339828 C1.21078644,0.667893219 1.58578644,0.5 2,0.5 L2,0.5 Z" stroke="#47C2C5" fill="#EDF9FA"/><text font-family="PingFangSC-Regular, PingFang SC" font-size="12" fill="#47C2C5">
                                    <tspan x="7" y="17">内容</tspan>
                                    <tspan x="7" y="34">分发</tspan>
                                </text></g></g></g><path d="M2,0 L122,0 C123.104569,-2.02906125e-16 124,0.8954305 124,2 L124,288 C124,289.104569 123.104569,290 122,290 L2,290 C0.8954305,290 1.3527075e-16,289.104569 0,288 L0,2 C-1.3527075e-16,0.8954305 0.8954305,2.02906125e-16 2,0 Z" fill="#EDF9FA"/><text font-family="PingFangSC-Medium, PingFang SC" font-size="14" font-weight="400" fill="#28B8BB">
                                <tspan x="34" y="31">图文信息</tspan>
                            </text><g transform="translate(12 50)"><rect fill="#28B8BB" opacity=".854" width="100" height="36"/><text font-family="PingFangSC-Regular, PingFang SC" font-size="14" fill="#FFF">
                                        <tspan x="22" y="24">个人美图</tspan>
                                    </text><g transform="translate(0 48)"><rect fill="#28B8BB" opacity=".854" width="100" height="36"/><text font-family="PingFangSC-Regular, PingFang SC" font-size="14" fill="#FFF">
                                        <tspan x="22" y="24">风景照片</tspan>
                                    </text></g><g transform="translate(0 96)"><rect fill="#28B8BB" opacity=".854" width="100" height="36"/><text font-family="PingFangSC-Regular, PingFang SC" font-size="14" fill="#FFF">
                                        <tspan x="22" y="24">萌宠美食</tspan>
                                    </text></g><g transform="translate(0 144)"><rect fill="#28B8BB" opacity=".854" width="100" height="36"/><text font-family="PingFangSC-Regular, PingFang SC" font-size="14" fill="#FFF">
                                        <tspan x="22" y="24">动漫卡通</tspan>
                                    </text></g></g><g transform="translate(128 122)"><path d="M56,19 L65,23.5 L56,28 L56,24 L0,24 L0,23 L56,23 L56,19 Z" fill="#47C2C5" fill-rule="nonzero"/><g transform="translate(9)"><path d="M37,0.5 C37.4142136,0.5 37.7892136,0.667893219 38.0606602,0.939339828 C38.3321068,1.21078644 38.5,1.58578644 38.5,2 L38.5,2 L38.5,44 C38.5,44.4142136 38.3321068,44.7892136 38.0606602,45.0606602 C37.7892136,45.3321068 37.4142136,45.5 37,45.5 L37,45.5 L2,45.5 C1.58578644,45.5 1.21078644,45.3321068 0.939339828,45.0606602 C0.667893219,44.7892136 0.5,44.4142136 0.5,44 L0.5,44 L0.5,2 C0.5,1.58578644 0.667893219,1.21078644 0.939339828,0.939339828 C1.21078644,0.667893219 1.58578644,0.5 2,0.5 L2,0.5 Z" stroke="#47C2C5" fill="#EDF9FA"/><text font-family="PingFangSC-Regular, PingFang SC" font-size="12" fill="#47C2C5">
                                    <tspan x="7" y="19">数据</tspan>
                                    <tspan x="7" y="36">上传</tspan>
                                </text></g></g></g></svg>