<svg xmlns="http://www.w3.org/2000/svg" width="32" height="32" viewBox="0 0 32 32">
  <g fill="none" fill-rule="evenodd" stroke-width="2" transform="translate(3 1)">
    <path stroke="#333" d="M0,4 L0,26 C0,28.3 6.1,30 13,30 C19.9,30 26,28.3 26,26 L26,4"/>
    <path stroke="#00AAE7" stroke-linecap="square" d="M26,4 C26,6.3 19.9,8 13,8 C6.1,8 0,6.3 0,4 C0,1.7 6.1,0 13,0 C19.9,0 26,1.7 26,4 Z"/>
    <path stroke="#333" stroke-linecap="square" d="M26,15 C26,17.3 19.9,19 13,19 C6.1,19 0,17.3 0,15"/>
  </g>
</svg>
