<svg width="32" height="32" viewBox="0 0 32 32" fill="none" xmlns="http://www.w3.org/2000/svg">
  <path fill-rule="evenodd" clip-rule="evenodd" d="M15.9998 0.845306L29.1242 8.42266V23.5774L15.9998 31.1547L2.87549 23.5774V8.42266L15.9998 0.845306ZM4.87549 9.57736V22.4227L15.9998 28.8453L27.1242 22.4227V9.57736L15.9998 3.15471L4.87549 9.57736Z" fill="#333333"></path>
  <path d="M17.8663 23.7778C17.8663 24.8087 17.0306 25.6445 15.9997 25.6445C14.9687 25.6445 14.133 24.8087 14.133 23.7778C14.133 22.7469 14.9687 21.9111 15.9997 21.9111C17.0306 21.9111 17.8663 22.7469 17.8663 23.7778Z" fill="#00AAE6"></path>
  <path d="M21.6917 10.4C22.5846 9.88456 23.7262 10.1905 24.2417 11.0833C24.7571 11.9761 24.4512 13.1177 23.5584 13.6332C22.6656 14.1487 21.524 13.8428 21.0085 12.9499C20.493 12.0571 20.7989 10.9155 21.6917 10.4Z" fill="#00AAE6"></path>
  <path d="M10.3506 10.4C9.45779 9.88456 8.31616 10.1905 7.80069 11.0833C7.28522 11.9761 7.59113 13.1177 8.48394 13.6332C9.37675 14.1487 10.5184 13.8428 11.0339 12.9499C11.5493 12.0571 11.2434 10.9155 10.3506 10.4Z" fill="#00AAE6"></path>
  <path fill-rule="evenodd" clip-rule="evenodd" d="M15.5464 16.7774L9.54645 13.2774L10.4534 11.7226L16.4534 15.2226L15.5464 16.7774Z" fill="#00AAE6"></path>
  <path fill-rule="evenodd" clip-rule="evenodd" d="M15.5464 15.2226L21.5464 11.7226L22.4534 13.2774L16.4534 16.7774L15.5464 15.2226Z" fill="#00AAE6"></path>
  <path fill-rule="evenodd" clip-rule="evenodd" d="M16.8999 15.5V22.75H15.0999V15.5H16.8999Z" fill="#00AAE6"></path>
</svg>
