<svg width="32" height="32" viewBox="0 0 32 32" fill="none" xmlns="http://www.w3.org/2000/svg">
<path d="M21.5 18C22.163 18 22.7989 18.2634 23.2678 18.7322C23.7366 19.2011 24 19.837 24 20.5C24 21.163 23.7366 21.7989 23.2678 22.2678C22.7989 22.7366 22.163 23 21.5 23H10.5C9.83696 23 9.20107 22.7366 8.73223 22.2678C8.26339 21.7989 8 21.163 8 20.5C8 19.837 8.26339 19.2011 8.73223 18.7322C9.20107 18.2634 9.83696 18 10.5 18M21 18C21 16.6739 20.4732 15.4021 19.5355 14.4645C18.5979 13.5268 17.3261 13 16 13C14.6739 13 13.4021 13.5268 12.4645 14.4645C11.5268 15.4021 11 16.6739 11 18" stroke="#00AAE7" stroke-width="2" stroke-miterlimit="10" stroke-linecap="square"/>
<path d="M28 29H4C3.20435 29 2.44129 28.6839 1.87868 28.1213C1.31607 27.5587 1 26.7956 1 26V2H12L15 7H31V26C31 26.7956 30.6839 27.5587 30.1213 28.1213C29.5587 28.6839 28.7956 29 28 29V29Z" stroke="#333333" stroke-width="2" stroke-miterlimit="10" stroke-linecap="square"/>
</svg>
