<svg width="32" height="32" viewBox="0 0 32 32" fill="none" xmlns="http://www.w3.org/2000/svg">
<path d="M22.364 22.364C20.735 23.993 18.485 25 16 25C11.029 25 7 20.971 7 16C7 11.029 11.029 7 16 7C18.478 7 20.736 8.016 22.364 9.636" stroke="#00AAE7" stroke-width="2" stroke-miterlimit="10"/>
<path d="M18.121 18.121L26.607 26.607" stroke="#333333" stroke-width="2" stroke-miterlimit="10"/>
<path d="M26.607 5.39301L18.121 13.879" stroke="#333333" stroke-width="2" stroke-miterlimit="10"/>
<path d="M16 31C24.2843 31 31 24.2843 31 16C31 7.71573 24.2843 1 16 1C7.71573 1 1 7.71573 1 16C1 24.2843 7.71573 31 16 31Z" stroke="#333333" stroke-width="2" stroke-miterlimit="10" stroke-linecap="square"/>
<path d="M16 19C17.6569 19 19 17.6569 19 16C19 14.3431 17.6569 13 16 13C14.3431 13 13 14.3431 13 16C13 17.6569 14.3431 19 16 19Z" stroke="#333333" stroke-width="2" stroke-miterlimit="10" stroke-linecap="square"/>
</svg>
