<svg xmlns="http://www.w3.org/2000/svg" width="32" height="32" viewBox="0 0 32 32">
  <g fill="none" fill-rule="evenodd" stroke-linecap="square" stroke-width="2" transform="translate(1 2)">
    <path stroke="#333" d="M0,3 L0,19 C0,20.6568542 1.34314575,22 3,22 L10,22 L15,28 L20,22 L27,22 C28.6568542,22 30,20.6568542 30,19 L30,3 C30,1.34314575 28.6568542,0 27,0 L3,0 C1.34314575,0 0,1.34314575 0,3 Z"/>
    <line x1="5" x2="5" y1="8" y2="14" stroke="#00AAE7"/>
    <line x1="10" x2="10" y1="5" y2="17" stroke="#00AAE7"/>
    <line x1="15" x2="15" y1="9" y2="13" stroke="#00AAE7"/>
    <line x1="25" x2="25" y1="9" y2="13" stroke="#00AAE7"/>
    <line x1="20" x2="20" y1="7" y2="15" stroke="#00AAE7"/>
  </g>
</svg>
