<svg xmlns="http://www.w3.org/2000/svg" width="58" height="58" viewBox="0 0 58 58">
  <g fill="none" fill-rule="evenodd" stroke-linecap="square" stroke-width="2" transform="translate(1 1)">
    <path stroke="#333" d="M19,33 L3,33 C1.34314575,33 0,31.6568542 0,30 L0,3 C0,1.34314575 1.34314575,0 3,0 L19,0 C20.6568542,0 22,1.34314575 22,3 L22,30 C22,31.6568542 20.6568542,33 19,33 Z"/>
    <path stroke="#00AAE7" d="M30 1L30 1C38.836556 1 46 8.163444 46 17L46 17M10 39L10 39C10 47.836556 17.163444 55 26 55L26 55"/>
    <line x2="22" y1="6" y2="6" stroke="#333"/>
    <line x2="22" y1="25" y2="25" stroke="#333"/>
    <path stroke="#333" d="M53,56 L37,56 C35.3431458,56 34,54.6568542 34,53 L34,26 C34,24.3431458 35.3431458,23 37,23 L53,23 C54.6568542,23 56,24.3431458 56,26 L56,53 C56,54.6568542 54.6568542,56 53,56 Z"/>
    <line x1="34" x2="56" y1="29" y2="29" stroke="#333"/>
    <line x1="34" x2="56" y1="48" y2="48" stroke="#333"/>
  </g>
</svg>
