<svg xmlns="http://www.w3.org/2000/svg" width="62" height="62" viewBox="0 0 62 62">
  <g fill="none" fill-rule="evenodd" stroke-width="2" transform="translate(2 2)">
    <line x1="36.73" x2="52.67" y1="5.265" y2="21.204" stroke="#333"/>
    <path stroke="#333" d="M30.48 8.733C20.5595586 4.42146341 8.98219466 8.21155932 3.532 17.555L12.72 26.743M49.214 27.4C53.6064553 37.3396817 49.8308588 48.9927998 40.444 54.468L31.218 45.242"/>
    <path stroke="#333" stroke-linecap="square" d="M23.884,49.278 L8.722,34.116 C8.722,34.116 21.673,1.9 58,0 C55.947,36.169 23.884,49.278 23.884,49.278 Z"/>
    <circle cx="32" cy="26" r="6" stroke="#00AAE7" stroke-linecap="square"/>
    <path stroke="#00AAE7" stroke-linecap="square" d="M3.757,45.757 C6.10034419,43.4136558 9.89965581,43.4136558 12.243,45.757 C14.5863442,48.1003442 14.5863442,51.8996558 12.243,54.243 C9.243,57.243 0,58 0,58 C0,58 0.757,48.757 3.757,45.757 Z"/>
  </g>
</svg>
