<?xml version="1.0" encoding="UTF-8"?>
<svg width="62px" height="49px" viewBox="0 0 62 49" version="1.1" xmlns="http://www.w3.org/2000/svg" xmlns:xlink="http://www.w3.org/1999/xlink">
    <title>contacts-45</title>
    <g id="页面-1" stroke="none" stroke-width="1" fill="none" fill-rule="evenodd" stroke-linecap="square">
        <g id="智能风控" transform="translate(-1068.000000, -1890.000000)" stroke-width="2">
            <g id="接入流程" transform="translate(0.000000, 1678.000000)">
                <g id="编组-26" transform="translate(483.000000, 176.000000)">
                    <g id="编组-20" transform="translate(556.000000, 0.000000)">
                        <g id="contacts-45" transform="translate(30.000000, 37.000000)">
                            <line x1="0" y1="42" x2="12" y2="42" id="路径" stroke="#00AAE7"></line>
                            <line x1="22" y1="6" x2="0" y2="6" id="路径" stroke="#00AAE7"></line>
                            <line x1="22" y1="18" x2="0" y2="18" id="路径" stroke="#00AAE7"></line>
                            <line x1="12" y1="30" x2="0" y2="30" id="路径" stroke="#00AAE7"></line>
                            <path d="M24,47 L60,47 L60,37.517 C60,33.967 57.672,30.848 54.267,29.84 C51.08,28.896 46.792,28 42,28 C37.287,28 32.973,28.911 29.75,29.864 C26.339,30.872 24,33.988 24,37.545 L24,47 Z" id="路径" stroke="#333333"></path>
                            <path d="M52,10 C52,4.477 47.523,0 42,0 C36.477,0 32,4.477 32,10 C32,15.523 36.477,22 42,22 C47.523,22 52,15.523 52,10 Z" id="路径" stroke="#333333"></path>
                        </g>
                    </g>
                </g>
            </g>
        </g>
    </g>
</svg>