<svg width="48" height="48" viewBox="0 0 48 48" fill="none" xmlns="http://www.w3.org/2000/svg">
<circle cx="24" cy="24" r="24" fill="currentColor"/>
<circle cx="24" cy="24" r="24" fill="currentColor"/>
<path opacity="0.7" d="M27.3374 25.7159C26.0406 24.9395 26.0406 23.0605 27.3374 22.2841L33.0155 18.8844C34.3486 18.0862 36.0429 19.0466 36.0429 20.6003L36.0429 27.3997C36.0429 28.9534 34.3486 29.9138 33.0155 29.1156L27.3374 25.7159Z" fill="white"/>
<path fill-rule="evenodd" clip-rule="evenodd" d="M15 15C13.3431 15 12 16.3431 12 18V30C12 31.6569 13.3431 33 15 33H27.3214C28.9783 33 30.3214 31.6569 30.3214 30V18C30.3214 16.3431 28.9783 15 27.3214 15H15ZM18.2999 27.8971L26.3999 24L18.2999 20.1029V27.8971Z" fill="white"/>
</svg>
