<svg width="48" height="48" viewBox="0 0 48 48" fill="none" xmlns="http://www.w3.org/2000/svg">
<circle cx="24" cy="24" r="24" fill="currentColor"/>
<circle cx="24" cy="24" r="24" fill="currentColor"/>
<path opacity="0.7" d="M24 29.0835L27.2826 29.0835C27.9387 29.0835 28.553 29.4052 28.9266 29.9445L30.4855 32.1945C31.4044 33.5209 30.4551 35.3335 28.8415 35.3335H19.1585C17.5448 35.3335 16.5955 33.5209 17.5145 32.1945L19.0733 29.9445C19.4469 29.4052 20.0613 29.0835 20.7173 29.0835H24Z" fill="white"/>
<path fill-rule="evenodd" clip-rule="evenodd" d="M24 32C29.5228 32 34 27.5228 34 22C34 16.4772 29.5228 12 24 12C18.4772 12 14 16.4772 14 22C14 27.5228 18.4772 32 24 32ZM26 22C26 23.1046 25.1046 24 24 24C22.8954 24 22 23.1046 22 22C22 20.8954 22.8954 20 24 20C25.1046 20 26 20.8954 26 22ZM29 22C29 24.7614 26.7614 27 24 27C21.2386 27 19 24.7614 19 22C19 19.2386 21.2386 17 24 17C26.7614 17 29 19.2386 29 22Z" fill="#FDFFFF"/>
</svg>
