<svg width="48" height="48" viewBox="0 0 48 48" fill="none" xmlns="http://www.w3.org/2000/svg">
<circle cx="24" cy="24" r="24" fill="currentColor"/>
<circle cx="24" cy="24" r="24" fill="currentColor"/>
<path d="M22.4077 17.7989C22.4077 16.7682 23.2433 15.9326 24.274 15.9326H28.0846C31.2199 15.9326 33.7616 18.4743 33.7616 21.6095V21.7312V21.7312C33.7616 23.7272 31.2803 24.6482 29.9779 23.1357L29.3593 22.4173C29.1226 22.1424 28.829 21.9222 28.4988 21.7719L23.501 19.4975C22.8351 19.1945 22.4077 18.5304 22.4077 17.7989V17.7989Z" fill="white" fill-opacity="0.7"/>
<path fill-rule="evenodd" clip-rule="evenodd" d="M21.4614 14C17.8036 14 14.8384 16.9653 14.8384 20.6231V20.9069C14.8384 20.9557 14.8389 21.0043 14.8399 21.0527C13.1208 22.2794 12 24.2905 12 26.5633C12 30.2995 15.0288 33.3283 18.765 33.3283H29.835C33.5712 33.3283 36.6 30.2995 36.6 26.5633C36.6 22.8271 33.5712 19.7983 29.835 19.7983H28.0337C27.6276 16.5297 24.84 14 21.4614 14ZM23.0362 24.5429L21.4512 26.6346V28.9356L28.1087 24.5428L21.4512 20.1499V22.4512L23.0362 24.5429Z" fill="white"/>
</svg>
