<svg width="48" height="48" viewBox="0 0 48 48" fill="none" xmlns="http://www.w3.org/2000/svg">
<circle cx="24" cy="24" r="24" fill="currentColor"/>
<path fill-rule="evenodd" clip-rule="evenodd" d="M16.2427 12.0123L18.1322 9.98779L23.9535 15.421L29.7748 9.98779L31.6643 12.0123L23.9535 19.209L16.2427 12.0123Z" fill="white" fill-opacity="0.7"/>
<path fill-rule="evenodd" clip-rule="evenodd" d="M14.7692 16.8638C13.2398 16.8638 12 18.1036 12 19.633V32.2306C12 33.76 13.2398 34.9999 14.7692 34.9999H33.2308C34.7602 34.9999 36 33.76 36 32.2306V19.633C36 18.1036 34.7602 16.8638 33.2308 16.8638H14.7692ZM26.1993 25.814L21.4631 21.5288L17.6013 25.0935L19.4796 27.1283L21.4818 25.2802L26.218 29.5654L30.0798 26.0007L28.2014 23.9658L26.1993 25.814Z" fill="white"/>
</svg>
