<svg xmlns="http://www.w3.org/2000/svg" width="56" height="57" viewBox="0 0 56 57">
  <g fill="none" fill-rule="evenodd" stroke-width="2" transform="translate(1 2)">
    <line x1="27" x2="27" y1="26" stroke="#00AAE7"/>
    <polyline stroke="#00AAE7" stroke-linecap="square" points="17 10 27 0 37 10"/>
    <path stroke="#333" stroke-linecap="square" d="M37,0 L49,0 C51.7614237,0 54,2.23857625 54,5 L54,49 C54,51.7614237 51.7614237,54 49,54 L5,54 C2.23857625,54 0,51.7614237 0,49 L0,5 C0,2.23857625 2.23857625,0 5,0 L17,0"/>
    <polyline stroke="#333" stroke-linecap="square" points="0 34 17 34 17 42 37 42 37 34 54 34"/>
  </g>
</svg>
