<svg xmlns="http://www.w3.org/2000/svg" width="48" height="60" viewBox="0 0 48 60">
  <g fill="none" fill-rule="evenodd" stroke-linecap="square" stroke-width="2" transform="translate(1 2)">
    <path stroke="#333" d="M38.5,55.985 C43.4242155,47.4813173 46.0117096,37.8265141 46.0000396,28 C46.0117096,18.1734859 43.4242155,8.51868269 38.5,0.015"/>
    <path stroke="#00AAE7" d="M0.953,36.705 C2.92736289,34.233338 4.00192282,31.1634187 4.00000258,28 C4.00078785,24.838296 2.92629177,21.7703223 0.953,19.3"/>
    <path stroke="#333" d="M13.52,43.159 C16.4461871,38.6447911 18.002215,33.3796513 18.0000024,28 C18.002215,22.6203487 16.4461871,17.3552089 13.52,12.841"/>
    <path stroke="#00AAE7" d="M25.993,49.564 C29.9211537,43.0569127 31.9981666,35.6008272 32,28 C31.9981666,20.3991728 29.9211537,12.9430873 25.993,6.436"/>
  </g>
</svg>
