<?xml version="1.0" encoding="UTF-8"?>
<svg width="12px" height="12px" viewBox="0 0 12 12" version="1.1" xmlns="http://www.w3.org/2000/svg" xmlns:xlink="http://www.w3.org/1999/xlink">
    <title>present</title>
    <g id="活动与合作" stroke="none" stroke-width="1" fill="none" fill-rule="evenodd" stroke-linecap="round" stroke-linejoin="round">
        <g id="邀请好友" transform="translate(-972.000000, -858.000000)" stroke="#EF4149">
            <g id="产品介绍-2" transform="translate(372.000000, 664.000000)">
                <g id="编组-12备份" transform="translate(0.000000, 174.000000)">
                    <g id="编组-7">
                        <g id="present" transform="translate(600.000000, 20.000000)">
                            <line x1="0.5" y1="3.5" x2="11.5" y2="3.5" id="路径"></line>
                            <path d="M2,2 C1.95671231,1.21867222 2.55199768,0.548808718 3.333,0.5 C5.305,0.5 6,3.5 6,3.5 L3.333,3.5 C2.55173896,3.45172257 1.95615431,2.78152229 2,2 L2,2 Z" id="路径"></path>
                            <path d="M8.667,3.5 L6,3.5 C6,3.5 6.7,0.5 8.667,0.5 C9.44800232,0.548808718 10.0432877,1.21867222 10,2 C10.0438457,2.78152229 9.44826104,3.45172257 8.667,3.5 Z" id="路径"></path>
                            <path d="M10.5,5.5 L10.5,10.5 C10.5,11.0522847 10.0522847,11.5 9.5,11.5 L2.5,11.5 C1.94771525,11.5 1.5,11.0522847 1.5,10.5 L1.5,5.5" id="路径"></path>
                            <line x1="6" y1="5.5" x2="6" y2="11.5" id="路径"></line>
                        </g>
                    </g>
                </g>
            </g>
        </g>
    </g>
</svg>