<?xml version="1.0" encoding="UTF-8"?>
<svg width="62px" height="59px" viewBox="0 0 62 59" version="1.1" xmlns="http://www.w3.org/2000/svg" xmlns:xlink="http://www.w3.org/1999/xlink">
    <title>gift-2</title>
    <g id="活动与合作" stroke="none" stroke-width="1" fill="none" fill-rule="evenodd" stroke-linecap="square">
        <g id="邀请好友" transform="translate(-1335.000000, -1386.000000)" stroke-width="2">
            <g id="客户按钮" transform="translate(0.000000, 1207.000000)">
                <g id="编组-20" transform="translate(442.000000, 148.000000)">
                    <g id="编组-18" transform="translate(864.000000, 0.000000)">
                        <g id="gift-2" transform="translate(30.000000, 32.000000)">
                            <path d="M54,28 L54,52 C54,54.7614237 51.7614237,57 49,57 L11,57 C8.23857625,57 6,54.7614237 6,52 L6,28" id="路径" stroke="#333333"></path>
                            <rect id="矩形" stroke="#333333" x="0" y="12" width="60" height="10"></rect>
                            <path d="M12,6 C12,2.6862915 14.6862915,0 18,0 C26.875,0 30,12 30,12 L18,12 C14.6862915,12 12,9.3137085 12,6 Z" id="路径" stroke="#00AAE7"></path>
                            <path d="M48,6 C48,2.6862915 45.3137085,0 42,0 C33.125,0 30,12 30,12 L42,12 C45.3137085,12 48,9.3137085 48,6 L48,6 Z" id="路径" stroke="#00AAE7"></path>
                            <polyline id="路径" stroke="#00AAE7" points="36 12 36 57 24 57 24 12"></polyline>
                        </g>
                    </g>
                </g>
            </g>
        </g>
    </g>
</svg>