<?xml version="1.0" encoding="UTF-8"?>
<svg width="58px" height="58px" viewBox="0 0 58 58" version="1.1" xmlns="http://www.w3.org/2000/svg" xmlns:xlink="http://www.w3.org/1999/xlink">
    <title>link-72</title>
    <g id="活动与合作" stroke="none" stroke-width="1" fill="none" fill-rule="evenodd" stroke-linecap="square">
        <g id="邀请好友" transform="translate(-1059.000000, -1386.000000)" stroke-width="2">
            <g id="客户按钮" transform="translate(0.000000, 1207.000000)">
                <g id="编组-20" transform="translate(442.000000, 148.000000)">
                    <g id="编组-7" transform="translate(586.000000, 0.000000)">
                        <g id="link-72" transform="translate(32.000000, 32.000000)">
                            <path d="M26,19.323 C28.6149917,19.8932461 31.0104433,21.2044955 32.9,23.1 L32.9,23.1 C35.5258183,25.7255504 37.0010102,29.2867216 37.0010102,33 C37.0010102,36.7132784 35.5258183,40.2744496 32.9,42.9 L23.9,51.9 C21.2744496,54.5258183 17.7132784,56.0010102 14,56.0010102 C10.2867216,56.0010102 6.72555035,54.5258183 4.1,51.9 L4.1,51.9 C1.47418172,49.2744496 -0.00101015255,45.7132784 -0.00101015255,42 C-0.00101015255,38.2867216 1.47418172,34.7255504 4.1,32.1 L13.1,23.1" id="路径" stroke="#333333"></path>
                            <path d="M30,36.677 C27.3850083,36.1067539 24.9895567,34.7955045 23.1,32.9 L23.1,32.9 C20.4741817,30.2744496 18.9989898,26.7132784 18.9989898,23 C18.9989898,19.2867216 20.4741817,15.7255504 23.1,13.1 L32.1,4.1 C34.7255504,1.47418172 38.2867216,-0.00101015255 42,-0.00101015255 C45.7132784,-0.00101015255 49.2744496,1.47418172 51.9,4.1 L51.9,4.1 C54.5258183,6.72555035 56.0010102,10.2867216 56.0010102,14 C56.0010102,17.7132784 54.5258183,21.2744496 51.9,23.9 L42.9,32.9" id="路径" stroke="#00AAE7"></path>
                        </g>
                    </g>
                </g>
            </g>
        </g>
    </g>
</svg>