<?xml version="1.0" encoding="UTF-8"?>
<svg width="462px" height="50px" viewBox="15 8 462 50" version="1.1" xmlns="http://www.w3.org/2000/svg" xmlns:xlink="http://www.w3.org/1999/xlink">
    <title>邀请好友礼上加礼</title>
    <defs>
        <path d="M28.0396996,19.90625 C31.9686159,20.0520833 33.9717454,18.2291667 34.049088,14.4375 L34.7186159,3.0625 L29.0311159,3.0625 C29.3742847,2.1875 29.6488287,1.23958333 29.8547479,0.21875 L22.6359979,0.21875 C22.4300787,1.23958333 22.1555347,2.1875 21.8123659,3.0625 L17.2186159,3.0625 L16.2271996,19.90625 L28.0396996,19.90625 Z M51.4967811,37.625 C49.2922031,35.4375 47.4479167,33.3229167 45.9639217,31.28125 C49.1638501,26.46875 51.1071173,19.46875 51.7937232,10.28125 L53.3249732,10.28125 L53.6211105,5.25 L45.0898605,5.25 C45.570279,4.52083333 46.0078237,3.28125 46.4024946,1.53125 C46.574079,1.09375 46.6684549,0.729166667 46.6856223,0.4375 L40.3418723,0.4375 C39.4838609,5.10416667 37.7508941,8.53125 35.1429721,10.71875 L34.8725858,15.3125 C35.3272532,15.0208333 35.7776288,14.8020833 36.2237124,14.65625 C36.2491953,21.65625 37.3856402,27.125 39.6330472,31.0625 C38.0545422,33.1041667 36.107162,35.21875 33.7909067,37.40625 L33.4690182,42.875 C37.1063573,40.5416667 40.1689467,38.0625 42.6567865,35.4375 C44.8356134,38.0625 47.679274,40.5416667 51.1877682,42.875 L51.4967811,37.625 Z M14.4774678,12.46875 C13.9628934,8.82291667 12.8692775,5.10416667 11.1966202,1.3125 L4.63412017,1.3125 C6.25527539,5.97916667 7.13014127,9.69791667 7.25871781,12.46875 L14.4774678,12.46875 Z M28.4260998,9.625 L22.7385998,9.625 L22.8931062,7 L28.5806062,7 L28.4260998,9.625 Z M43.3005633,24.5 C42.4599875,21.4375 42.104122,17.5729167 42.2329667,12.90625 L39.6079667,12.90625 C40.8261356,12.03125 41.7526377,11.15625 42.3874732,10.28125 L46.1062232,10.28125 C45.6256259,15.96875 44.6904059,20.7083333 43.3005633,24.5 Z M28.1943401,13.5625 C28.2371692,15.3125 27.4607922,16.1145833 25.8652092,15.96875 L22.3652092,15.96875 L22.5197157,13.34375 L28.2072157,13.34375 L28.1943401,13.5625 Z M0,50.3125 C4.26350143,49.7291667 7.41613019,48.1979167 9.45788627,45.71875 C11.0619635,48.1979167 14.0515021,49.4375 18.4265021,49.4375 L50.8015021,49.4375 L51.0847639,44.625 L18.7097639,44.625 C16.8225143,44.4791667 15.2483906,43.96875 13.9873927,43.09375 C19.0916488,40.6145833 22.059907,37.2604167 22.8921674,33.03125 L27.0484174,33.03125 L26.8552843,36.3125 C26.9152808,37.7708333 26.070279,38.5 24.320279,38.5 L22.789029,38.5 L22.5443938,42.65625 L26.2631438,42.65625 C30.7753934,42.8020833 33.0787732,40.8333333 33.1732833,36.75 L33.623927,29.09375 L23.561427,29.09375 L23.7030579,26.6875 L35.0780579,26.6875 L35.3226931,22.53125 L28.5414431,22.53125 L28.657323,20.5625 L21.438573,20.5625 L21.3226931,22.53125 L14.5414431,22.53125 L14.2968079,26.6875 L17.3593079,26.6875 L17.2563036,28.4375 C17.1188752,33.25 15.9692418,36.6770833 13.8074034,38.71875 L13.5885193,42.4375 C12.3532725,41.125 11.795735,39.4479167 11.9159067,37.40625 L13.1519582,16.40625 L2.43320815,16.40625 L2.13707082,21.4375 L5.85582082,21.4375 L4.83865343,38.71875 C4.7613108,42.5104167 3.23855508,44.84375 0.270386266,45.71875 L0,50.3125 Z M108.887071,21.4375 L109.144582,17.0625 L94.2695815,17.0625 L94.4498391,14 L107.137339,14 L107.39485,9.625 L94.7073498,9.625 L94.8618562,7 L108.861856,7 L109.119367,2.625 L95.119367,2.625 L95.2609979,0.21875 L87.3859979,0.21875 L87.244367,2.625 L73.900617,2.625 L73.6431062,7 L86.9868562,7 L86.8323498,9.625 L74.3635998,9.625 L74.1060891,14 L86.5748391,14 L86.3945815,17.0625 L71.7383315,17.0625 L71.4808208,21.4375 L108.887071,21.4375 Z M71.1723444,11.8125 C70.3918544,7.72916667 69.1481134,4.08333333 67.4411212,0.875 L60.2223712,0.875 C61.6462804,3.9375 62.7441881,7.58333333 63.5160944,11.8125 L71.1723444,11.8125 Z M59.7316255,50.09375 C64.1924624,48.6354167 68.1043008,46.59375 71.4671406,43.96875 L71.8019045,38.28125 C70.4379024,39.15625 69.2326091,39.8125 68.1860247,40.25 L69.6280848,15.75 L58.0343348,15.75 L57.7253219,21 L61.4440719,21 L59.7316255,50.09375 Z M80.4871245,50.53125 L80.9635193,42.4375 L96.9322693,42.4375 L96.8807672,43.3125 C96.9407636,44.7708333 96.1000536,45.4270833 94.3586373,45.28125 L92.3898873,45.28125 L92.1066255,50.09375 L97.3566255,50.09375 C102.006125,50.3854167 104.326672,48.125 104.318267,43.3125 L105.477065,23.625 L74.4145655,23.625 L72.8308745,50.53125 L80.4871245,50.53125 Z M97.5889217,31.28125 L81.6201717,31.28125 L81.8004292,28.21875 L97.7691792,28.21875 L97.5889217,31.28125 Z M97.1769045,38.28125 L81.2081545,38.28125 L81.388412,35.21875 L97.357162,35.21875 L97.1769045,38.28125 Z M134.827387,45.28125 C132.271057,44.1145833 130.092185,42.7291667 128.290773,41.125 C132.031116,37.0416667 134.055839,31.1354167 134.364941,23.40625 L135.008718,12.46875 L137.414968,12.46875 L137.723981,7.21875 L135.317731,7.21875 L135.716872,0.4375 L128.935622,0.4375 L128.536481,7.21875 L124.161481,7.21875 L124.560622,0.4375 L117.560622,0.4375 L117.161481,7.21875 L114.536481,7.21875 L114.227468,12.46875 L116.852468,12.46875 L116.208691,23.40625 C115.607922,31.1354167 116.937366,37.0416667 120.197023,41.125 C118.352602,42.7291667 116.01064,44.1145833 113.171137,45.28125 L112.849249,50.75 C117.498838,48.5625 121.260551,46.59375 124.134388,44.84375 C126.802217,46.59375 130.259254,48.5625 134.505499,50.75 L134.827387,45.28125 Z M144.825376,50.09375 C151.079041,50.3854167 154.158798,47.6145833 154.064646,41.78125 L154.901556,27.5625 L164.745306,27.5625 L165.067194,22.09375 L155.223444,22.09375 L155.49383,17.5 C159.139753,15.0208333 162.240969,11.8854167 164.797479,8.09375 L165.119367,2.625 L139.306867,2.625 L138.984979,8.09375 L155.172479,8.09375 C153.096388,11.15625 150.458423,13.8541667 147.258584,16.1875 L146.910944,22.09375 L136.192194,22.09375 L135.870306,27.5625 L146.589056,27.5625 L145.752146,41.78125 C145.76064,44.1145833 144.529596,45.2083333 142.059013,45.0625 L139.215263,45.0625 L138.919126,50.09375 L144.825376,50.09375 Z M124.662285,35.875 C123.358459,33.25 122.873927,29.09375 123.208691,23.40625 L123.852468,12.46875 L128.227468,12.46875 L127.583691,23.40625 C127.274678,28.65625 126.300876,32.8125 124.662285,35.875 Z M218.377012,45.5 C213.058432,44.1875 208.507645,42.21875 204.724651,39.59375 C209.631661,35.5104167 213.53505,29.8958333 216.434818,22.75 L216.756706,17.28125 L189.631706,17.28125 C190.189378,15.2395833 190.751341,13.125 191.317597,10.9375 L220.848847,10.9375 L221.183611,5.25 L192.308611,5.25 L193.055123,0 L184.523873,0 L183.777361,5.25 L171.527361,5.25 L171.192597,10.9375 L183.005097,10.9375 C181.168902,22.3125 176.553335,32.59375 169.158396,41.78125 L168.785005,48.125 C176.900438,41.5625 182.71258,34.4895833 186.221432,26.90625 C188.408754,31.8645833 191.007868,36.0208333 194.018777,39.375 C190.673104,41.7083333 185.881974,43.8229167 179.645386,45.71875 L179.349249,50.75 C187.335837,48.8541667 193.962759,46.5208333 199.230016,43.75 C204.016676,46.6666667 210.296003,49 218.067999,50.75 L218.377012,45.5 Z M199.757913,34.78125 C197.973668,32.8854167 196.180883,29.8958333 194.37956,25.8125 L186.72331,25.8125 L187.778568,22.75 L207.903568,22.75 C205.715889,27.7083333 203.000671,31.71875 199.757913,34.78125 Z M262.308476,8.96875 C261.896817,6.05208333 261.116282,3.20833333 259.966872,0.4375 L252.966872,0.4375 C253.979033,3.0625 254.613734,5.90625 254.870976,8.96875 L262.308476,8.96875 Z M285.970628,49.21875 C290.774544,49.3645833 293.236633,47.1770833 293.356894,42.65625 L293.601529,38.5 L287.257779,38.5 L287.090397,41.34375 C286.987393,43.09375 285.987974,43.96875 284.092141,43.96875 L281.685891,43.96875 C279.63564,44.1145833 278.743518,43.1666667 279.009523,41.125 L281.378621,0.875 L273.066121,0.875 L270.632645,42.21875 C270.357967,46.8854167 272.553961,49.21875 277.220628,49.21875 L285.970628,49.21875 Z M259.424624,50.53125 L260.531921,31.71875 C262.633584,33.1770833 265.164163,34.78125 268.123659,36.53125 L268.432672,31.28125 C265.927843,29.2395833 263.877682,26.90625 262.282189,24.28125 C264.169528,21.9479167 265.799535,19.03125 267.17221,15.53125 L267.481223,10.28125 L246.481223,10.28125 L246.17221,15.53125 L259.29721,15.53125 C256.131527,22.2395833 250.979971,28 243.842543,32.8125 L243.546406,37.84375 C246.994993,36.2395833 250.083289,34.5625 252.811293,32.8125 L251.768374,50.53125 L259.424624,50.53125 Z M349.253755,48.125 L349.575644,42.65625 L327.044394,42.65625 L328.319072,21 L347.131572,21 L347.466336,15.3125 L328.653836,15.3125 L329.529372,0.4375 L320.560622,0.4375 L318.075644,42.65625 L299.263144,42.65625 L298.941255,48.125 L349.253755,48.125 Z M354.773873,50.96875 C364.536391,43.6770833 369.748256,30.6979167 370.409469,12.03125 L374.346969,12.03125 L372.58302,42 C372.480016,43.75 371.553514,44.625 369.803514,44.625 L366.959764,44.625 L366.676502,49.4375 L371.489002,49.4375 C377.167918,49.5833333 380.088966,47.03125 380.252146,41.78125 L382.312232,6.78125 L370.937232,6.78125 L371.323498,0.21875 L363.667248,0.21875 L363.280982,6.78125 L357.812232,6.78125 L357.503219,12.03125 L362.971969,12.03125 C362.233682,27.0520833 359.621155,37.9895833 355.134388,44.84375 L354.773873,50.96875 Z M396.349383,47.03125 C401.444966,47.1770833 404.070055,44.6979167 404.224651,39.59375 L406.271862,4.8125 L385.709362,4.8125 L383.224383,47.03125 L396.349383,47.03125 Z M396.800027,39.375 C396.825688,41.4166667 395.894894,42.3645833 394.007645,42.21875 L390.726395,42.21875 L392.619099,10.0625 L398.525349,10.0625 L396.800027,39.375 Z M430.308476,8.96875 C429.896817,6.05208333 429.116282,3.20833333 427.966872,0.4375 L420.966872,0.4375 C421.979033,3.0625 422.613734,5.90625 422.870976,8.96875 L430.308476,8.96875 Z M453.970628,49.21875 C458.774544,49.3645833 461.659886,47.7395833 461.780147,43.21875 L462.024782,39.0625 L456.257779,38.5 L456.090397,41.34375 C455.987393,43.09375 453.987974,43.96875 452.092141,43.96875 L449.685891,43.96875 C447.63564,44.1145833 446.743518,43.1666667 447.009523,41.125 L449.378621,0.875 L441.066121,0.875 L438.632645,42.21875 C438.357967,46.8854167 440.553961,49.21875 445.220628,49.21875 L453.970628,49.21875 Z M427.424624,50.53125 L428.531921,31.71875 C430.633584,33.1770833 433.164163,34.78125 436.123659,36.53125 L436.432672,31.28125 C433.927843,29.2395833 431.877682,26.90625 430.282189,24.28125 C432.169528,21.9479167 433.799535,19.03125 435.17221,15.53125 L435.481223,10.28125 L414.481223,10.28125 L414.17221,15.53125 L427.29721,15.53125 C424.131527,22.2395833 418.979971,28 411.842543,32.8125 L411.546406,37.84375 C414.994993,36.2395833 418.083289,34.5625 420.811293,32.8125 L419.768374,50.53125 L427.424624,50.53125 Z" id="path-1"></path>
        <filter x="-6.1%" y="-39.2%" width="112.1%" height="209.9%" filterUnits="objectBoundingBox" id="filter-2">
            <feOffset dx="0" dy="8" in="SourceAlpha" result="shadowOffsetOuter1"></feOffset>
            <feGaussianBlur stdDeviation="8" in="shadowOffsetOuter1" result="shadowBlurOuter1"></feGaussianBlur>
            <feColorMatrix values="0 0 0 0 0.117918597   0 0 0 0 0.473252539   0 0 0 0 0.7169101  0 0 0 0.5 0" type="matrix" in="shadowBlurOuter1"></feColorMatrix>
        </filter>
    </defs>
    <g id="活动与合作" stroke="none" stroke-width="1" fill="none" fill-rule="evenodd">
        <g id="邀请好友" transform="translate(-357.000000, -217.000000)" fill-rule="nonzero">
            <g id="banner" transform="translate(0.000000, 121.000000)">
                <g id="编组-8" transform="translate(372.000000, 104.000000)">
                    <g id="邀请好友礼上加礼">
                        <use fill="black" fill-opacity="1" filter="url(#filter-2)" xlink:href="#path-1"></use>
                        <use fill="#FFFFFF" xlink:href="#path-1"></use>
                    </g>
                </g>
            </g>
        </g>
    </g>
</svg>