<svg xmlns="http://www.w3.org/2000/svg" width="60" height="52" viewBox="0 0 60 52">
  <g fill="none" fill-rule="evenodd" transform="translate(1 1)">
    <line x1="13" x2="45" y1="50" y2="50" stroke="#00AAE7" stroke-linecap="square" stroke-width="2"/>
    <rect width="58" height="42" stroke="#333" stroke-linecap="square" stroke-width="2"/>
    <path fill="#00AAE7" fill-rule="nonzero" d="M15.76,28 L17.28,24 L23.84,24 L25.36,28 L27.14,28 L21.52,13.72 L19.62,13.72 L14,28 L15.76,28 Z M23.32,22.62 L17.8,22.62 L20.54,15.48 L20.62,15.48 L23.32,22.62 Z M37.54,28 C39.78,28 41.5,27.34 42.7,26.04 C43.84,24.8 44.42,23.06 44.42,20.86 C44.42,18.62 43.88,16.88 42.82,15.68 C41.66,14.36 39.96,13.72 37.7,13.72 L32.58,13.72 L32.58,28 L37.54,28 Z M37.26,26.58 L34.22,26.58 L34.22,15.14 L37.44,15.14 C39.32,15.14 40.68,15.62 41.56,16.6 C42.38,17.52 42.8,18.94 42.8,20.86 C42.8,22.72 42.34,24.14 41.46,25.1 C40.52,26.08 39.12,26.58 37.26,26.58 Z"/>
  </g>
</svg>
