<svg xmlns="http://www.w3.org/2000/svg" width="62" height="62" viewBox="0 0 62 62">
  <g fill="none" fill-rule="evenodd" stroke-width="2" transform="translate(1 1)">
    <line x1="9" x2="51" y1="9" y2="9" stroke="#333"/>
    <line x1="9" x2="51" y1="49" y2="49" stroke="#333"/>
    <path stroke="#00AAE7" stroke-linecap="square" d="M0,35 L11,35 C13.209139,35 15,33.209139 15,31 L15,26 C15,24.3431458 16.3431458,23 18,23 C19.6568542,23 21,24.3431458 21,26 L21,38 C21,39.6568542 22.3431458,41 24,41 C25.6568542,41 27,39.6568542 27,38 L27,20 C27,18.3431458 28.3431458,17 30,17 C31.6568542,17 33,18.3431458 33,20 L33,38 C33,39.6568542 34.3431458,41 36,41 C37.6568542,41 39,39.6568542 39,38 L39,26 C39,24.3431458 40.3431458,23 42,23 C43.6568542,23 45,24.3431458 45,26 L45,31 C45,33.209139 46.790861,35 49,35 L60,35"/>
    <path stroke="#333" stroke-linecap="square" d="M9 41L9 55C9 57.7614237 11.2385763 60 14 60L46 60C48.7614237 60 51 57.7614237 51 55L51 41M51 29L51 5C51 2.23857625 48.7614237 0 46 0L14 0C11.2385763 0 9 2.23857625 9 5L9 29"/>
  </g>
</svg>
