<svg xmlns="http://www.w3.org/2000/svg" xmlns:xlink="http://www.w3.org/1999/xlink" width="1176" height="479" viewBox="0 0 1176 479">
  <defs>
    <rect id="方案架构01-a" width="112" height="196" x="0" y="0"/>
    <mask id="方案架构01-c" width="112" height="196" x="0" y="0" fill="#fff" maskContentUnits="userSpaceOnUse" maskUnits="objectBoundingBox">
      <use xlink:href="#方案架构01-a"/>
    </mask>
    <rect id="方案架构01-b" width="112" height="196" x="0" y="0"/>
    <mask id="方案架构01-d" width="112" height="196" x="0" y="0" fill="#fff" maskContentUnits="userSpaceOnUse" maskUnits="objectBoundingBox">
      <use xlink:href="#方案架构01-b"/>
    </mask>
  </defs>
  <g fill="none" fill-rule="evenodd">
    <g fill="#47C2C5">
      <rect width="128" height="479" opacity=".1"/>
      <g transform="translate(16 88)">
        <text font-family="PingFangSC-Medium, PingFang SC" font-size="16" font-weight="400">
          <tspan x="8" y="72">行车记录仪</tspan>
        </text>
        <text font-family="PingFangSC-Medium, PingFang SC" font-size="16" font-weight="400">
          <tspan x="0" y="342">车载主机监控</tspan>
        </text>
        <text font-family="PingFangSC-Medium, PingFang SC" font-size="16" font-weight="400">
          <tspan x="0" y="211">车载智能监控</tspan>
        </text>
        <path fill-rule="nonzero" d="M32.4680043 33.062C36.3130043 37.311 41.8510043 40 48.0190043 40 54.1870043 40 59.7250043 37.311 63.5700043 33.063L63.5700043 33.063 68.6040043 41.453C69.2180043 42.476 69.1780043 43.722 68.5 44.704 67.9280043 45.53 67.0220043 45.999 66.0490043 45.999 65.8660043 45.999 65.6820043 45.982 65.4960043 45.948L65.4960043 45.948 48.0190043 42.771 30.5420043 45.948C29.3680043 46.167 28.2180043 45.685 27.5380043 44.704 26.8600043 43.723 26.8200043 42.476 27.4340043 41.453L27.4340043 41.453zM48.0190043 0C58.4960043 0 67.0190043 8.523 67.0190043 19 67.0190043 29.477 58.4960043 38 48.0190043 38 37.5420043 38 29.0190043 29.477 29.0190043 19 29.0190043 8.523 37.5420043 0 48.0190043 0zM48.0190043 11C42.4960043 11 38.0190043 15.477 38.0190043 21 38.0190043 26.523 42.4960043 31 48.0190043 31 53.5420043 31 58.0190043 26.523 58.0190043 21 58.0190043 15.477 53.5420043 11 48.0190043 11zM48.0190043 19C49.1235738 19 50.0190043 19.8954305 50.0190043 21 50.0190043 22.1045695 49.1235738 23 48.0190043 23 46.9144348 23 46.0190043 22.1045695 46.0190043 21 46.0190043 19.8954305 46.9144348 19 48.0190043 19zM54.7432446 166.928528C55.2882446 166.830528 55.8052446 167.194528 55.9022446 167.737528L55.9022446 167.737528 57.4282446 176.311528C57.6722446 177.775528 58.9162446 178.829528 60.3892446 178.829528L60.3892446 178.829528 69.0002446 178.829528 69.0002446 173.829528C69.0002446 173.277528 69.4472446 172.829528 70.0002446 172.829528 70.5532446 172.829528 71.0002446 173.277528 71.0002446 173.829528L71.0002446 173.829528 71.0002446 184.829528C71.0002446 185.381528 70.5532446 185.829528 70.0002446 185.829528 69.4472446 185.829528 69.0002446 185.381528 69.0002446 184.829528L69.0002446 184.829528 69.0002446 180.829528 60.3892446 180.829528C57.9352446 180.829528 55.8602446 179.072528 55.4572446 176.651528L55.4572446 176.651528 53.9332446 168.088528C53.8372446 167.544528 54.1992446 167.025528 54.7432446 166.928528zM61.7172446 141.086528C63.0272446 140.840528 64.3592446 141.123528 65.4602446 141.878528 66.5622446 142.634528 67.3022446 143.773528 67.5472446 145.086528L67.5472446 145.086528 70.4762446 160.816528C70.5762446 161.359528 70.2182446 161.881528 69.6752446 161.982528L69.6752446 161.982528 36.8532446 168.094528C36.7922446 168.106528 36.7312446 168.111528 36.6702446 168.111528 36.4702446 168.111528 36.2722446 168.051528 36.1052446 167.936528 35.8862446 167.786528 35.7362446 167.555528 35.6872446 167.294528L35.6872446 167.294528 32.0262446 147.632528C31.9782446 147.371528 32.0352446 147.102528 32.1852446 146.883528 32.3342446 146.664528 32.5652446 146.514528 32.8262446 146.466528L32.8262446 146.466528zM25.3142446 150.101528C25.5622446 149.868528 25.9152446 149.777528 26.2422446 149.859528L26.2422446 149.859528 30.6092446 150.951528 33.2322446 165.035528 29.5812446 167.643528C29.4092446 167.766528 29.2052446 167.829528 29.0002446 167.829528 28.8742446 167.829528 28.7472446 167.805528 28.6272446 167.757528 28.3102446 167.629528 28.0802446 167.349528 28.0172446 167.013528L28.0172446 167.013528 25.0172446 151.013528C24.9542446 150.679528 25.0662446 150.335528 25.3142446 150.101528zM43.9662446 152.464528C43.7642446 151.378528 42.7202446 150.662528 41.6342446 150.864528 40.5482446 151.066528 39.8322446 152.110528 40.0342446 153.196528 40.2362446 154.282528 41.2802446 154.998528 42.3662446 154.796528 43.4522446 154.593528 44.1692446 153.549528 43.9662446 152.464528zM47 281C53.0721626 281.007164 57.9928365 285.927837 58 292L58 292 58 311C57.9966939 313.760053 55.7600532 315.996694 53 316L53 316 33 316C30.2399468 315.996694 28.0033061 313.760053 28 311L28 311 28 292C28.0071635 285.927837 32.9278374 281.007164 39 281L39 281zM43 304C40.790861 304 39 305.790861 39 308 39 310.209139 40.790861 312 43 312 45.209139 312 47 310.209139 47 308 47 305.790861 45.209139 304 43 304zM47 285L39 285C35.1360624 285.004958 32.0049584 288.136062 32 292L32 292 32 299C32 299.552285 32.4477153 300 33 300L33 300 53 300C53.5522847 300 54 299.552285 54 299L54 299 54 292C53.9950416 288.136062 50.8639376 285.004958 47 285L47 285zM68 286C68.5522847 286 69 286.447715 69 287 69 287.552285 68.5522847 288 68 288L63 288C62.4477153 288 62 287.552285 62 287 62 286.447715 62.4477153 286 63 286L68 286zM29.5 270C30.3284271 270 31 270.671573 31 271.5L31 271.5 31 281.775C29.8161791 282.702511 28.8012888 283.827348 28 285.1L28 285.1 28 271.5C28 270.671573 28.6715729 270 29.5 270zM63.8812426 275.394805C64.2371625 275.484924 64.515076 275.762838 64.6051953 276.118757 64.6953146 276.474677 64.5831457 276.85136 64.313 277.1L60.778 280.635C60.5906711 280.822916 60.3363384 280.928678 60.071 280.929 59.6666041 280.928914 59.3020659 280.685272 59.147322 280.311655 58.9925781 279.938037 59.0780921 279.507994 59.364 279.222L62.9 275.687C63.1486399 275.416854 63.5253227 275.304685 63.8812426 275.394805zM53 271C53.5522847 271 54 271.447715 54 272L54 277C54 277.552285 53.5522847 278 53 278 52.4477153 278 52 277.552285 52 277L52 272C52 271.447715 52.4477153 271 53 271z"/>
      </g>
      <text font-family="PingFangSC-Semibold, PingFang SC" font-size="20" font-weight="500">
        <tspan x="44" y="41">终端</tspan>
      </text>
    </g>
    <g fill="#47C2C5" transform="translate(1048)">
      <rect width="128" height="479" opacity=".1"/>
      <text font-family="PingFangSC-Medium, PingFang SC" font-size="16" font-weight="400">
        <tspan x="32" y="160">直播分享</tspan>
      </text>
      <text font-family="PingFangSC-Medium, PingFang SC" font-size="16" font-weight="400">
        <tspan x="32" y="430">录像回放</tspan>
      </text>
      <path fill-rule="nonzero" d="M28,16 C30.7600532,16.0033061 32.9966939,18.2399468 33,21 L33,21 L33,25.326 L44.526,19.12 C44.8356466,18.9518857 45.2111516,18.9602556 45.513,19.142 C45.8149347,19.3224456 46,19.6482542 46,20 L46,20 L46,40 C46,40.3518593 45.8147241,40.6777303 45.5126101,40.8580968 C45.2104961,41.0384634 44.8358208,41.0467814 44.526,40.88 L44.526,40.88 L33,34.674 L33,39 C32.9966939,41.7600532 30.7600532,43.9966939 28,44 L28,44 L5,44 C2.23994685,43.9966939 0.00330611633,41.7600532 0,39 L0,39 L0,21 C0.00330611633,18.2399468 2.23994685,16.0033061 5,16 L5,16 Z M7.5,0 C11.0898509,0 14,2.91014913 14,6.5 C14,10.0898509 11.0898509,13 7.5,13 C3.91014913,13 1,10.0898509 1,6.5 C1,2.91014913 3.91014913,0 7.5,0 Z M24.5,4 C26.9852814,4 29,6.01471863 29,8.5 C29,10.9852814 26.9852814,13 24.5,13 C22.0147186,13 20,10.9852814 20,8.5 C20,6.01471863 22.0147186,4 24.5,4 Z" transform="translate(41 357)"/>
      <text font-family="PingFangSC-Medium, PingFang SC" font-size="16" font-weight="400">
        <tspan x="32" y="299">告警回放</tspan>
      </text>
      <path fill-rule="nonzero" d="M41,0 L5,0 C2.23994685,0.00330611633 0.00330611633,2.23994685 0,5 L0,33 C0.00330611633,35.7600532 2.23994685,37.9966939 5,38 L41,38 C43.7600532,37.9966939 45.9966939,35.7600532 46,33 L46,5 C45.9966939,2.23994685 43.7600532,0.00330611633 41,0 Z M31.524,19.852 L18.524,27.852 C18.2154122,28.0418515 17.8282713,28.0499385 17.5120246,27.8731391 C17.1957778,27.6963398 17,27.362312 17,27 L17,11 C17,10.637688 17.1957778,10.3036602 17.5120246,10.1268609 C17.8282713,9.95006149 18.2154122,9.95814847 18.524,10.148 L31.524,18.148 C31.8182169,18.3303393 31.9972173,18.6518624 31.9972173,18.998 C31.9972173,19.3441376 31.8182169,19.6656607 31.524,19.848 L31.524,19.852 Z" transform="translate(41 232)"/>
      <path fill-rule="nonzero" d="M49,96.9989985 C49.5522847,96.9989985 50,97.4467137 50,97.9989985 C50,98.5512832 49.5522847,98.9989985 49,98.9989985 L49,98.9989985 L47,98.9989985 C45.3431458,98.9989985 44,100.342144 44,101.998998 L44,101.998998 L44,125.998998 C44,127.655853 45.3431458,128.998998 47,128.998998 L47,128.998998 L77,128.998998 C78.6568542,128.998998 80,127.655853 80,125.998998 L80,125.998998 L80,115.998998 C80,115.446714 80.4477153,114.998998 81,114.998998 C81.5522847,114.998998 82,115.446714 82,115.998998 L82,115.998998 L82,125.998998 C81.9966939,128.759052 79.7600532,130.995692 77,130.998998 L77,130.998998 L47,130.998998 C44.2399468,130.995692 42.0033061,128.759052 42,125.998998 L42,125.998998 L42,101.998998 C42.0033061,99.2389453 44.2399468,97.0023046 47,96.9989985 L47,96.9989985 Z M68.5869416,88.0893112 C68.9440028,87.927363 69.3627634,87.9890153 69.658,88.2469985 L69.658,88.2469985 L85.658,102.246998 C85.8732504,102.440832 85.9965622,102.713998 85.9965622,103.000998 C85.9965622,103.287999 85.8732504,103.561165 85.658,103.750998 L85.658,103.750998 L69.658,117.750998 C69.3627634,118.008982 68.9440028,118.070634 68.5869416,117.908686 C68.2298804,117.746738 68.0003989,117.39107 68,116.998998 L68,116.998998 L68,109.998998 C58.351,110.098998 55.288,113.098998 51.79,117.611998 C51.6005955,117.856118 51.3089796,117.998998 51,117.998998 C50.889777,117.998998 50.7803299,117.980557 50.676,117.944998 C50.271663,117.806524 50,117.42639 50,116.998998 C50,99.0829985 59.406,96.1989985 68,96.0099985 L68,96.0099985 L68,88.9989985 C68.0003989,88.6069274 68.2298804,88.2512594 68.5869416,88.0893112 Z"/>
      <text font-family="PingFangSC-Semibold, PingFang SC" font-size="20" font-weight="500">
        <tspan x="44" y="41">应用</tspan>
      </text>
    </g>
    <g fill="#47C2C5" transform="translate(811)">
      <rect width="128" height="479" opacity=".1"/>
      <g transform="translate(32 85)">
        <text font-family="PingFangSC-Medium, PingFang SC" font-size="16" font-weight="400">
          <tspan x="0" y="75">全球节点</tspan> <tspan x="16" y="97">覆盖</tspan>
        </text>
        <text font-family="PingFangSC-Medium, PingFang SC" font-size="16" font-weight="400">
          <tspan x="8" y="345">防盗链</tspan>
        </text>
        <path fill-rule="nonzero" d="M54,276.28615 C48.069,276.28615 39.321,274.67915 32.555,270.16815 C32.2189631,269.94395 31.7810369,269.94395 31.445,270.16815 C24.679,274.67915 15.931,276.28615 10,276.28615 C9.44771525,276.28615 9,276.733865 9,277.28615 C9,295.41115 17.451,309.85315 31.606,315.91915 C31.8575954,316.027002 32.1424046,316.027002 32.394,315.91915 C46.549,309.85315 55,295.41115 55,277.28615 C55,276.733865 54.5522847,276.28615 54,276.28615 Z M31,272.80015 L31,292.00015 L13.178,292.00015 C11.7989466,287.55184 11.0684319,282.927942 11.009,278.27115 C18.0142351,278.071984 24.8695739,276.195862 31,272.80015 L31,272.80015 Z M33,313.42115 L33,294.00015 L50.132,294.00015 C47.180076,302.463714 41.0299964,309.434068 33,313.41715 L33,313.42115 Z"/>
        <text font-family="PingFangSC-Medium, PingFang SC" font-size="16" font-weight="400">
          <tspan x="0" y="214">智能选路</tspan>
        </text>
        <path fill-rule="nonzero" d="M32 139C32.5522844 139 33 139.447715 33 140 33 140.552285 32.5522844 141 32 141 20.4020199 141 11 150.40202 11 162 11 173.59798 20.4020199 183 32 183 43.5979794 183 53 173.59798 53 162 53 161.447715 53.4477149 161 54 161 54.5522844 161 55 161.447715 55 162 54.9856713 174.696609 44.6966091 184.985672 32 185 19.2974505 185 9 174.702549 9 162 9 149.297451 19.2974505 139 32 139zM31.9999997 146C40.8365557 146 47.9999997 153.163444 47.9999997 162 47.9999997 170.836556 40.8365557 178 31.9999997 178 31.4477149 178 30.9999997 177.552285 30.9999997 177 30.9999997 176.447715 31.4477149 176 31.9999997 176 39.7319862 176 45.9999997 169.731986 45.9999997 162 45.9999997 154.268014 39.7319862 148 31.9999997 148 24.2680132 148 17.9999997 154.268014 17.9999997 162 17.9999997 162.552285 17.5522844 163 16.9999997 163 16.4477149 163 15.9999997 162.552285 15.9999997 162 15.9999997 153.163444 23.1634437 146 31.9999997 146zM18.3555196 166.97929C18.7173992 167.023704 19.0264277 167.261548 19.1619997 167.6 20.5732022 170.841533 23.1596621 173.42835 26.4009997 174.84 26.8343391 175.029788 27.0753975 175.49727 26.9787183 175.960363 26.8820391 176.423456 26.4740769 176.755443 26.0009997 176.756L25.9999997 176.752C25.8622689 176.752187 25.7260205 176.723575 25.5999997 176.668 21.8971965 175.056634 18.9422615 172.102413 17.3299997 168.4 17.1738959 168.070514 17.2094845 167.682182 17.4228763 167.386558 17.6362681 167.090935 17.9936401 166.934877 18.3555196 166.97929zM31.9999997 153C32.5522844 153 32.9999997 153.447715 32.9999997 154 32.9999997 154.552285 32.5522844 155 31.9999997 155 28.1340064 155 24.9999997 158.134007 24.9999997 162 24.9999997 165.865993 28.1340064 169 31.9999997 169 35.8659929 169 38.9999997 165.865993 38.9999997 162 38.9999997 161.447715 39.4477149 161 39.9999997 161 40.5522844 161 40.9999997 161.447715 40.9999997 162 40.9944885 166.968278 36.9682778 170.994489 31.9999997 171 27.0294369 171 22.9999997 166.970563 22.9999997 162 22.9999997 157.029437 27.0294369 153 31.9999997 153zM31.9999997 160C33.1045692 160 33.9999997 160.895431 33.9999997 162 33.9999997 163.104569 33.1045692 164 31.9999997 164 30.8954302 164 29.9999997 163.104569 29.9999997 162 29.9999997 160.895431 30.8954302 160 31.9999997 160zM38.2729997 139.866C45.9413229 142.064842 51.9356414 148.059538 54.1339997 155.728 54.2841231 156.258978 53.9757878 156.811207 53.4449997 156.962 53.355928 156.987585 53.2636721 157.000379 53.1709997 157.000008 52.7239516 156.99942 52.3315965 156.702194 52.2099997 156.272 50.2021197 149.270832 44.7291678 143.79788 37.7279997 141.79 37.2057689 141.632254 36.9063327 141.085061 37.0550133 140.560178 37.203694 140.035294 37.7456206 139.726429 38.2729997 139.866zM43.1 34.3C45.2 35.6 47.1 37.1 48.6 38.7 45.2 42.1 40.8 44.6 35.9 45.4 39.3 42.6 41.6 38.6 43.1 34.3zM20.9 34.3C22.4 38.6 24.8 42.6 28.1 45.4 23.1 44.6 18.7 42.2 15.4 38.7 16.9 37.1 18.8 35.6 20.9 34.3zM31 30.7L31 45C27.3 42.7 24.4 38.4 22.7 33.2 25.3 31.9 28.2 30.9 31 30.7L31 30.7zM33 30.7C35.8 30.9 38.6 31.9 41.3 33.2 39.6 38.3 36.7 42.6 33 44.9L33 44.9zM55 23.7C54.8 28.7 52.9 33.4 49.9 37.1 48.2 35.4 46.1 33.7 43.7 32.3 44.5 29.4 44.9 26.5 45 23.7L45 23.7zM19 23.7C19.1 26.5 19.5 29.4 20.3 32.3 17.9 33.7 15.8 35.4 14.1 37.1 11.1 33.4 9.2 28.8 9 23.7L9 23.7zM31 23.7L31 28.7C27.9 28.9 24.9 29.9 22.1 31.3 21.5 28.9 21.1 26.3 21 23.7L21 23.7 31 23.7zM43 23.7C42.9 26.3 42.5 28.9 41.9 31.3 39.1 29.9 36 28.9 33 28.7L33 28.7 33 23.7zM22.1 14.1C24.9 15.5 28 16.5 31 16.7L31 16.7 31 21.7 21 21.7C21.1 19.1 21.5 16.5 22.1 14.1zM41.9 14.1C42.5 16.5 42.9 19.1 43 21.7L43 21.7 33 21.7 33 16.7C36 16.5 39.1 15.5 41.9 14.1zM49.9 8.3C52.9 12 54.8 16.6 55 21.7L55 21.7 45 21.7C44.9 18.9 44.5 16 43.7 13.1 46.1 11.7 48.2 10 49.9 8.3zM14.1 8.3C15.8 10 17.9 11.7 20.3 13.1 19.5 16 19.1 18.9 19 21.7L19 21.7 9 21.7C9.2 16.6 11.1 12 14.1 8.3zM31 .4L31 14.7C28.2 14.5 25.3 13.5 22.7 12.1 24.4 7 27.3 2.7 31 .4L31 .4zM33 .4C36.7 2.7 39.6 7 41.3 12.1 38.6 13.5 35.8 14.5 33 14.7L33 14.7zM36 0C40.9.8 45.3 3.2 48.6 6.7 47.1 8.3 45.2 9.8 43.1 11.1 41.6 6.8 39.2 2.8 36 0zM28.1 0C24.7 2.8 22.4 6.8 20.9 11.1 18.8 9.8 16.9 8.3 15.5 6.7 18.8 3.3 23.2.8 28.1 0z"/>
      </g>
      <text font-family="PingFangSC-Semibold, PingFang SC" font-size="20" font-weight="500">
        <tspan x="34" y="41">QCDN</tspan>
      </text>
    </g>
    <g transform="translate(237)">
      <rect width="260" height="326" fill="#EDF9FA"/>
      <text fill="#00AAE7" font-family="PingFangSC-Semibold, PingFang SC" font-size="20" font-weight="500">
        <tspan x="56" y="41">监控流分发 QVS</tspan>
      </text>
      <g transform="translate(16 66)">
        <rect width="105" height="47" x=".5" y=".5" stroke="#00AAE7" rx="2"/>
        <text fill="#00AAE7" font-family="PingFangSC-Regular, PingFang SC" font-size="14">
          <tspan x="25" y="29">实时观看</tspan>
        </text>
        <g transform="translate(122)">
          <rect width="105" height="47" x=".5" y=".5" stroke="#00AAE7" rx="2"/>
          <text fill="#00AAE7" font-family="PingFangSC-Regular, PingFang SC" font-size="14">
            <tspan x="25" y="29">视频录制</tspan>
          </text>
        </g>
        <g transform="translate(0 64)">
          <rect width="105" height="47" x=".5" y=".5" stroke="#00AAE7" rx="2"/>
          <text fill="#00AAE7" font-family="PingFangSC-Regular, PingFang SC" font-size="14">
            <tspan x="25" y="29">视频截图</tspan>
          </text>
        </g>
        <g transform="translate(122 64)">
          <rect width="105" height="47" x=".5" y=".5" stroke="#00AAE7" rx="2"/>
          <text fill="#00AAE7" font-family="PingFangSC-Regular, PingFang SC" font-size="14">
            <tspan x="25" y="29">视频回放</tspan>
          </text>
        </g>
        <g transform="translate(0 128)">
          <rect width="105" height="47" x=".5" y=".5" stroke="#00AAE7" rx="2"/>
          <text fill="#00AAE7" font-family="PingFangSC-Regular, PingFang SC" font-size="14">
            <tspan x="23" y="29">PTZ 管理</tspan>
          </text>
        </g>
        <g transform="translate(122 128)">
          <rect width="105" height="47" x=".5" y=".5" stroke="#00AAE7" rx="2"/>
          <text fill="#00AAE7" font-family="PingFangSC-Regular, PingFang SC" font-size="14">
            <tspan x="25" y="29">语音对讲</tspan>
          </text>
        </g>
        <g transform="translate(0 192)">
          <rect width="105" height="47" x=".5" y=".5" stroke="#00AAE7" rx="2"/>
          <text fill="#00AAE7" font-family="PingFangSC-Regular, PingFang SC" font-size="14">
            <tspan x="25" y="29">国际报警</tspan>
          </text>
        </g>
        <g transform="translate(122 192)">
          <rect width="105" height="47" x=".5" y=".5" stroke="#00AAE7" rx="2"/>
          <text fill="#00AAE7" font-family="PingFangSC-Regular, PingFang SC" font-size="14">
            <tspan x="25" y="19">本地录像</tspan> <tspan x="32" y="39">远程看</tspan>
          </text>
        </g>
      </g>
    </g>
    <g transform="translate(237 399)">
      <rect width="536" height="80" fill="#EDF9FA"/>
      <text fill="#00AAE7" font-family="PingFangSC-Medium, PingFang SC" font-size="20" font-weight="400">
        <tspan x="200" y="47">对象存储 Kodo</tspan>
      </text>
    </g>
    <path fill="#00AAE7" fill-rule="nonzero" d="M367.5 340.5L372 349.5 368 349.5 368 375 372 375 367.5 384 363 375 367 375 367 349.5 363 349.5 367.5 340.5zM643.5 340.5L648 349.5 644 349.5 644 375 648 375 643.5 384 639 375 643 375 643 349.5 639 349.5 643.5 340.5z"/>
    <path fill="#47C2C5" fill-rule="nonzero" d="M798.5 435L807.5 439.5 798.5 444 798.5 440 776.5 440 776.5 439 798.5 439 798.5 435zM798.5 159L807.5 163.5 798.5 168 798.5 164 776.5 164 776.5 163 798.5 163 798.5 159z"/>
    <g transform="translate(513)">
      <rect width="260" height="326" fill="#EDF9FA"/>
      <text fill="#00AAE7" font-family="PingFangSC-Semibold, PingFang SC" font-size="20" font-weight="500">
        <tspan x="54" y="41">智能多媒体 Dora</tspan>
      </text>
      <g transform="translate(12 66)">
        <g transform="translate(0 208)">
          <rect width="235" height="35" x=".5" y=".5" stroke="#00AAE7" rx="2"/>
          <text fill="#00AAE7" font-family="PingFangSC-Regular, PingFang SC" font-size="14">
            <tspan x="69" y="23">多媒体解析引擎</tspan>
          </text>
        </g>
        <use stroke="#00AAE7" stroke-dasharray="2 2" stroke-width="2" mask="url(#方案架构01-c)" xlink:href="#方案架构01-a"/>
        <text fill="#00AAE7" font-family="PingFangSC-Medium, PingFang SC" font-size="14" font-weight="400">
          <tspan x="14" y="27">内容安全模型</tspan>
        </text>
        <g transform="translate(12 44)">
          <rect width="87" height="27" x=".5" y=".5" stroke="#00AAE7" rx="2"/>
          <text fill="#00AAE7" font-family="PingFangSC-Regular, PingFang SC" font-size="12">
            <tspan x="20" y="19">图片审核</tspan>
          </text>
        </g>
        <g transform="translate(12 80)">
          <rect width="87" height="27" x=".5" y=".5" stroke="#00AAE7" rx="2"/>
          <text fill="#00AAE7" font-family="PingFangSC-Regular, PingFang SC" font-size="12">
            <tspan x="20" y="19">视频审核</tspan>
          </text>
        </g>
        <g transform="translate(12 116)">
          <rect width="87" height="27" x=".5" y=".5" stroke="#00AAE7" rx="2"/>
          <text fill="#00AAE7" font-family="PingFangSC-Regular, PingFang SC" font-size="12">
            <tspan x="20" y="19">语音审核</tspan>
          </text>
        </g>
        <g transform="translate(12 152)">
          <rect width="87" height="27" x=".5" y=".5" stroke="#00AAE7" rx="2"/>
          <text fill="#00AAE7" font-family="PingFangSC-Regular, PingFang SC" font-size="12">
            <tspan x="20" y="19">创新算法</tspan>
          </text>
        </g>
        <g transform="translate(124)">
          <use stroke="#00AAE7" stroke-dasharray="2 2" stroke-width="2" mask="url(#方案架构01-d)" xlink:href="#方案架构01-b"/>
          <text fill="#00AAE7" font-family="PingFangSC-Medium, PingFang SC" font-size="14" font-weight="400">
            <tspan x="14" y="27">业务安全模型</tspan>
          </text>
          <g transform="translate(12 44)">
            <rect width="87" height="27" x=".5" y=".5" stroke="#00AAE7" rx="2"/>
            <text fill="#00AAE7" font-family="PingFangSC-Regular, PingFang SC" font-size="12">
              <tspan x="20" y="19">人脸核验</tspan>
            </text>
          </g>
          <g transform="translate(12 80)">
            <rect width="87" height="27" x=".5" y=".5" stroke="#00AAE7" rx="2"/>
            <text fill="#00AAE7" font-family="PingFangSC-Regular, PingFang SC" font-size="12">
              <tspan x="20" y="19">智能语音</tspan>
            </text>
          </g>
          <g transform="translate(12 116)">
            <rect width="87" height="27" x=".5" y=".5" stroke="#00AAE7" rx="2"/>
            <text fill="#00AAE7" font-family="PingFangSC-Regular, PingFang SC" font-size="12">
              <tspan x="20" y="19">票证识别</tspan>
            </text>
          </g>
          <g transform="translate(12 152)">
            <rect width="87" height="27" x=".5" y=".5" stroke="#00AAE7" rx="2"/>
            <text fill="#00AAE7" font-family="PingFangSC-Regular, PingFang SC" font-size="12">
              <tspan x="20" y="19">创新算法</tspan>
            </text>
          </g>
        </g>
      </g>
    </g>
    <g transform="translate(132 181)">
      <path fill="#47C2C5" fill-rule="nonzero" d="M92,9 L101,13.5 L92,18 L92,14 L0,14 L0,13 L92,13 L92,9 Z"/>
      <g transform="translate(9)">
        <path fill="#EDF9FA" stroke="#47C2C5" d="M74,0.5 C74.4142136,0.5 74.7892136,0.667893219 75.0606602,0.939339828 C75.3321068,1.21078644 75.5,1.58578644 75.5,2 L75.5,2 L75.5,26 C75.5,26.4142136 75.3321068,26.7892136 75.0606602,27.0606602 C74.7892136,27.3321068 74.4142136,27.5 74,27.5 L74,27.5 L2,27.5 C1.58578644,27.5 1.21078644,27.3321068 0.939339828,27.0606602 C0.667893219,26.7892136 0.5,26.4142136 0.5,26 L0.5,26 L0.5,2 C0.5,1.58578644 0.667893219,1.21078644 0.939339828,0.939339828 C1.21078644,0.667893219 1.58578644,0.5 2,0.5 L2,0.5 Z"/>
        <text fill="#47C2C5" font-family="PingFangSC-Regular, PingFang SC" font-size="12">
          <tspan x="7" y="18">GB/T28181</tspan>
        </text>
      </g>
      <g transform="translate(0 81)">
        <path fill="#47C2C5" fill-rule="nonzero" d="M92,10 L101,14.5 L92,19 L92,15 L0,15 L0,14 L92,14 L92,10 Z"/>
        <g transform="translate(9)">
          <path fill="#EDF9FA" stroke="#47C2C5" d="M48,0.5 C48.4142136,0.5 48.7892136,0.667893219 49.0606602,0.939339828 C49.3321068,1.21078644 49.5,1.58578644 49.5,2 L49.5,2 L49.5,26 C49.5,26.4142136 49.3321068,26.7892136 49.0606602,27.0606602 C48.7892136,27.3321068 48.4142136,27.5 48,27.5 L48,27.5 L2,27.5 C1.58578644,27.5 1.21078644,27.3321068 0.939339828,27.0606602 C0.667893219,26.7892136 0.5,26.4142136 0.5,26 L0.5,26 L0.5,2 C0.5,1.58578644 0.667893219,1.21078644 0.939339828,0.939339828 C1.21078644,0.667893219 1.58578644,0.5 2,0.5 L2,0.5 Z"/>
          <text fill="#47C2C5" font-family="PingFangSC-Regular, PingFang SC" font-size="12">
            <tspan x="8" y="18">RTMP</tspan>
          </text>
        </g>
      </g>
    </g>
    <g transform="translate(943 158)">
      <path fill="#47C2C5" fill-rule="nonzero" d="M92,9 L101,13.5 L92,18 L92,14 L0,14 L0,13 L92,13 L92,9 Z"/>
      <g transform="translate(9)">
        <path fill="#EDF9FA" stroke="#47C2C5" d="M74,0.5 C74.4142136,0.5 74.7892136,0.667893219 75.0606602,0.939339828 C75.3321068,1.21078644 75.5,1.58578644 75.5,2 L75.5,2 L75.5,26 C75.5,26.4142136 75.3321068,26.7892136 75.0606602,27.0606602 C74.7892136,27.3321068 74.4142136,27.5 74,27.5 L74,27.5 L2,27.5 C1.58578644,27.5 1.21078644,27.3321068 0.939339828,27.0606602 C0.667893219,26.7892136 0.5,26.4142136 0.5,26 L0.5,26 L0.5,2 C0.5,1.58578644 0.667893219,1.21078644 0.939339828,0.939339828 C1.21078644,0.667893219 1.58578644,0.5 2,0.5 L2,0.5 Z"/>
        <text fill="#47C2C5" font-family="PingFangSC-Regular, PingFang SC" font-size="12">
          <tspan x="7" y="18">HTTP-FLV</tspan>
        </text>
      </g>
      <g transform="translate(0 68)">
        <path fill="#47C2C5" fill-rule="nonzero" d="M92,9 L101,13.5 L92,18 L92,14 L0,14 L0,13 L92,13 L92,9 Z"/>
        <g transform="translate(9)">
          <path fill="#EDF9FA" stroke="#47C2C5" d="M74,0.5 C74.4142136,0.5 74.7892136,0.667893219 75.0606602,0.939339828 C75.3321068,1.21078644 75.5,1.58578644 75.5,2 L75.5,2 L75.5,26 C75.5,26.4142136 75.3321068,26.7892136 75.0606602,27.0606602 C74.7892136,27.3321068 74.4142136,27.5 74,27.5 L74,27.5 L2,27.5 C1.58578644,27.5 1.21078644,27.3321068 0.939339828,27.0606602 C0.667893219,26.7892136 0.5,26.4142136 0.5,26 L0.5,26 L0.5,2 C0.5,1.58578644 0.667893219,1.21078644 0.939339828,0.939339828 C1.21078644,0.667893219 1.58578644,0.5 2,0.5 L2,0.5 Z"/>
          <text fill="#47C2C5" font-family="PingFangSC-Regular, PingFang SC" font-size="12">
            <tspan x="13" y="18">WebRTC</tspan>
          </text>
        </g>
      </g>
      <g transform="translate(0 136)">
        <path fill="#47C2C5" fill-rule="nonzero" d="M92,10 L101,14.5 L92,19 L92,15 L0,15 L0,14 L92,14 L92,10 Z"/>
        <g transform="translate(9)">
          <path fill="#EDF9FA" stroke="#47C2C5" d="M73,0.5 C73.4142136,0.5 73.7892136,0.667893219 74.0606602,0.939339828 C74.3321068,1.21078644 74.5,1.58578644 74.5,2 L74.5,2 L74.5,26 C74.5,26.4142136 74.3321068,26.7892136 74.0606602,27.0606602 C73.7892136,27.3321068 73.4142136,27.5 73,27.5 L73,27.5 L2,27.5 C1.58578644,27.5 1.21078644,27.3321068 0.939339828,27.0606602 C0.667893219,26.7892136 0.5,26.4142136 0.5,26 L0.5,26 L0.5,2 C0.5,1.58578644 0.667893219,1.21078644 0.939339828,0.939339828 C1.21078644,0.667893219 1.58578644,0.5 2,0.5 L2,0.5 Z"/>
          <text fill="#47C2C5" font-family="PingFangSC-Regular, PingFang SC" font-size="12">
            <tspan x="6" y="18">RTMP\HLS</tspan>
          </text>
        </g>
      </g>
    </g>
  </g>
</svg>
