<svg xmlns="http://www.w3.org/2000/svg" xmlns:xlink="http://www.w3.org/1999/xlink" width="1176" height="479" viewBox="0 0 1176 479">
  <defs>
    <rect id="方案架构02-a" width="622" height="96" x="0" y="0"/>
    <mask id="方案架构02-b" width="622" height="96" x="0" y="0" fill="#fff" maskContentUnits="userSpaceOnUse" maskUnits="objectBoundingBox">
      <use xlink:href="#方案架构02-a"/>
    </mask>
  </defs>
  <g fill="none" fill-rule="evenodd">
    <g fill="#47C2C5">
      <rect width="150" height="228" opacity=".1"/>
      <text font-family="PingFangSC-Medium, PingFang SC" font-size="16" font-weight="400">
        <tspan x="48" y="160">T-BOX</tspan>
      </text>
      <text font-family="PingFangSC-Regular, PingFang SC" font-size="14">
        <tspan x="26" y="188">机器数据采集器</tspan>
      </text>
      <path fill-rule="nonzero" d="M68,131 L68,134 C68,134.512836 67.6139598,134.935507 67.1166211,134.993272 L67,135 C66.4477153,135 66,134.552285 66,134 L66,131 L68,131 Z M84,131 L84,134 C84,134.512836 83.6139598,134.935507 83.1166211,134.993272 L83,135 C82.4477153,135 82,134.552285 82,134 L82,131 L84,131 Z M76,131 L76,134 C76,134.512836 75.6139598,134.935507 75.1166211,134.993272 L75,135 C74.4477153,135 74,134.552285 74,134 L74,131 L76,131 Z M89,93 C91.209139,93 93,94.790861 93,97 L93,97 L93,125 C93,127.209139 91.209139,129 89,129 L89,129 L61,129 C58.790861,129 57,127.209139 57,125 L57,125 L57,97 C57,94.790861 58.790861,93 61,93 L61,93 Z M83,116 C81.3431458,116 80,117.343146 80,119 C80,120.656854 81.3431458,122 83,122 C84.6568542,122 86,120.656854 86,119 C86,117.343146 84.6568542,116 83,116 Z M55,118 L55,120 L52,120 C51.4871642,120 51.0644928,119.61396 51.0067277,119.116621 L51,119 C51,118.447715 51.4477153,118 52,118 L55,118 Z M98,118 C98.5128358,118 98.9355072,118.38604 98.9932723,118.883379 L99,119 C99,119.552285 98.5522847,120 98,120 L95,120 L95,118 L98,118 Z M55,110 L55,112 L52,112 C51.4871642,112 51.0644928,111.61396 51.0067277,111.116621 L51,111 C51,110.447715 51.4477153,110 52,110 L55,110 Z M98,110 C98.5128358,110 98.9355072,110.38604 98.9932723,110.883379 L99,111 C99,111.552285 98.5522847,112 98,112 L95,112 L95,110 L98,110 Z M55,102 L55,104 L52,104 C51.4871642,104 51.0644928,103.61396 51.0067277,103.116621 L51,103 C51,102.447715 51.4477153,102 52,102 L55,102 Z M98,102 C98.5128358,102 98.9355072,102.38604 98.9932723,102.883379 L99,103 C99,103.552285 98.5522847,104 98,104 L95,104 L95,102 L98,102 Z M67,87 C67.5522847,87 68,87.4477153 68,88 L68,91 L66,91 L66,88 C66,87.4871642 66.3860402,87.0644928 66.8833789,87.0067277 L67,87 Z M83,87 C83.5522847,87 84,87.4477153 84,88 L84,91 L82,91 L82,88 C82,87.4871642 82.3860402,87.0644928 82.8833789,87.0067277 L83,87 Z M75,87 C75.5522847,87 76,87.4477153 76,88 L76,91 L74,91 L74,88 C74,87.4871642 74.3860402,87.0644928 74.8833789,87.0067277 L75,87 Z"/>
      <text font-family="PingFangSC-Semibold, PingFang SC" font-size="20" font-weight="500">
        <tspan x="55" y="44">终端</tspan>
      </text>
      <g transform="translate(0 251)">
        <rect width="150" height="228" opacity=".1"/>
        <text font-family="PingFangSC-Medium, PingFang SC" font-size="16" font-weight="400">
          <tspan x="49" y="160">IT 系统</tspan>
        </text>
        <text font-family="PingFangSC-Regular, PingFang SC" font-size="14">
          <tspan x="26" y="188">机器数据采集器</tspan>
        </text>
        <path fill-rule="nonzero" d="M93,128 C93.5522847,128 94,128.447715 94,129 L94,129 L94,134 C94,134.552285 93.5522847,135 93,135 L93,135 L57,135 C56.4477153,135 56,134.552285 56,134 L56,134 L56,129 C56,128.447715 56.4477153,128 57,128 C57.5522847,128 58,128.447715 58,129 L58,129 L58,133 L62,133 L62,130 C62,129.447715 62.4477153,129 63,129 C63.5522847,129 64,129.447715 64,130 L64,130 L64,133 L68,133 L68,130 C68,129.447715 68.4477153,129 69,129 C69.5522847,129 70,129.447715 70,130 L70,130 L70,133 L74,133 L74,130 C74,129.447715 74.4477153,129 75,129 C75.5522847,129 76,129.447715 76,130 L76,130 L76,133 L80,133 L80,130 C80,129.447715 80.4477153,129 81,129 C81.5522847,129 82,129.447715 82,130 L82,130 L82,133 L86,133 L86,130 C86,129.447715 86.4477153,129 87,129 C87.5522847,129 88,129.447715 88,130 L88,130 L88,133 L92,133 L92,129 C92,128.447715 92.4477153,128 93,128 Z M93,101 C95.7600532,101.003306 97.9966939,103.239947 98,106 L98,106 L98,125 C98,125.552285 97.5522847,126 97,126 L97,126 L53,126 C52.4477153,126 52,125.552285 52,125 L52,125 L52,106 C52.0033061,103.239947 54.2399468,101.003306 57,101 L57,101 Z M65,107 L61,107 C60.4477153,107 60,107.447715 60,108 L60,108 L60,119 C60,119.552285 60.4477153,120 61,120 L61,120 L65,120 C65.5522847,120 66,119.552285 66,119 L66,119 L66,108 C66,107.447715 65.5522847,107 65,107 L65,107 Z M77,107 L73,107 C72.4477153,107 72,107.447715 72,108 L72,108 L72,119 C72,119.552285 72.4477153,120 73,120 L73,120 L77,120 C77.5522847,120 78,119.552285 78,119 L78,119 L78,108 C78,107.447715 77.5522847,107 77,107 L77,107 Z M89,107 L85,107 C84.4477153,107 84,107.447715 84,108 L84,108 L84,119 C84,119.552285 84.4477153,120 85,120 L85,120 L89,120 C89.5522847,120 90,119.552285 90,119 L90,119 L90,108 C90,107.447715 89.5522847,107 89,107 L89,107 Z"/>
        <text font-family="PingFangSC-Semibold, PingFang SC" font-size="20" font-weight="500">
          <tspan x="55" y="44">机房</tspan>
        </text>
      </g>
      <g transform="translate(1026)">
        <rect width="150" height="479" opacity=".1"/>
        <g transform="translate(27 89)">
          <text font-family="PingFangSC-Medium, PingFang SC" font-size="16" font-weight="400">
            <tspan x="16" y="71">智能运维</tspan>
          </text>
          <path fill-rule="nonzero" d="M31,34 C34.3137085,34 37,36.6862915 37,40 C37,43.3137085 34.3137085,46 31,46 C27.6862915,46 25,43.3137085 25,40 C25,36.6862915 27.6862915,34 31,34 Z M48,34 C51.3137085,34 54,36.6862915 54,40 C54,43.3137085 51.3137085,46 48,46 C44.6862915,46 42,43.3137085 42,40 C42,36.6862915 44.6862915,34 48,34 Z M65,34 C68.3137085,34 71,36.6862915 71,40 C71,43.3137085 68.3137085,46 65,46 C61.6862915,46 59,43.3137085 59,40 C59,36.6862915 61.6862915,34 65,34 Z M48,16 C48.553,16 49,16.447 49,17 L49,17 L49,22 L65,22 C65.553,22 66,22.447 66,23 L66,23 L66,29 C66,29.553 65.553,30 65,30 C64.447,30 64,29.553 64,29 L64,29 L64,24 L49,24 L49,29 C49,29.553 48.553,30 48,30 C47.447,30 47,29.553 47,29 L47,29 L47,24 L32,24 L32,29 C32,29.553 31.553,30 31,30 C30.447,30 30,29.553 30,29 L30,29 L30,23 C30,22.447 30.447,22 31,22 L31,22 L47,22 L47,17 C47,16.447 47.447,16 48,16 Z M53,0 C53.553,0 54,0.447 54,1 L54,1 L54,11 C54,11.553 53.553,12 53,12 L53,12 L43,12 C42.447,12 42,11.553 42,11 L42,11 L42,1 C42,0.447 42.447,0 43,0 L43,0 Z"/>
          <text font-family="PingFangSC-Medium, PingFang SC" font-size="16" font-weight="400">
            <tspan x="0" y="341">车型口碑分析</tspan>
          </text>
          <path fill-rule="nonzero" d="M65,270 L31,270 C29.895,270 29,270.895 29,272 L29,314 C29,315.105 29.895,316 31,316 L65,316 C66.105,316 67,315.105 67,314 L67,272 C67,270.895 66.105,270 65,270 Z M39,307 C37.895,307 37,306.105 37,305 C37,303.895 37.895,303 39,303 C40.105,303 41,303.895 41,305 C41,306.105 40.105,307 39,307 Z M43.707,290.707 L38.707,295.707 C38.512,295.902 38.256,296 38,296 C37.744,296 37.488,295.902 37.293,295.707 L35.293,293.707 C34.902,293.316 34.902,292.684 35.293,292.293 C35.684,291.902 36.316,291.902 36.707,292.293 L38,293.586 L42.293,289.293 C42.684,288.902 43.316,288.902 43.707,289.293 C44.098,289.684 44.098,290.316 43.707,290.707 Z M43.707,278.707 L38.707,283.707 C38.512,283.902 38.256,284 38,284 C37.744,284 37.488,283.902 37.293,283.707 L35.293,281.707 C34.902,281.316 34.902,280.684 35.293,280.293 C35.684,279.902 36.316,279.902 36.707,280.293 L38,281.586 L42.293,277.293 C42.684,276.902 43.316,276.902 43.707,277.293 C44.098,277.684 44.098,278.316 43.707,278.707 Z M60,306 L48,306 C47.448,306 47,305.553 47,305 C47,304.447 47.448,304 48,304 L60,304 C60.552,304 61,304.447 61,305 C61,305.553 60.552,306 60,306 Z M60,294 L48,294 C47.448,294 47,293.553 47,293 C47,292.447 47.448,292 48,292 L60,292 C60.552,292 61,292.447 61,293 C61,293.553 60.552,294 60,294 Z M60,282 L48,282 C47.448,282 47,281.553 47,281 C47,280.447 47.448,280 48,280 L60,280 C60.552,280 61,280.447 61,281 C61,281.553 60.552,282 60,282 Z"/>
          <text font-family="PingFangSC-Medium, PingFang SC" font-size="16" font-weight="400">
            <tspan x="8" y="210">车联网安全</tspan>
          </text>
          <path fill-rule="nonzero" d="M34.5,173 C36.9852814,173 39,175.014719 39,177.5 C39,179.985281 36.9852814,182 34.5,182 C32.0147186,182 30,179.985281 30,177.5 C30,175.014719 32.0147186,173 34.5,173 Z M61.5,173 C63.9852814,173 66,175.014719 66,177.5 C66,179.985281 63.9852814,182 61.5,182 C59.0147186,182 57,179.985281 57,177.5 C57,175.014719 59.0147186,173 61.5,173 Z M52.6,153 C53.856,153 54.989,153.793 55.418,154.975 L55.418,154.975 L58.7,164 L68,164 C69.654,164 71,165.346 71,167 L71,167 L71,177 C71,177.552 70.553,178 70,178 L70,178 L67.975,178 C67.987,177.834 68,177.669 68,177.5 C68,173.916 65.084,171 61.5,171 C57.916,171 55,173.916 55,177.5 C55,177.669 55.013,177.834 55.026,178 L55.026,178 L40.975,178 C40.987,177.834 41,177.669 41,177.5 C41,173.916 38.084,171 34.5,171 C30.916,171 28,173.916 28,177.5 C28,177.669 28.013,177.834 28.025,178 L28.025,178 L26,178 C25.447,178 25,177.552 25,177 L25,177 L25,167 C25,165.346 26.346,164 28,164 L28,164 L31.3,164 L34.582,154.975 C35.01,153.793 36.143,153 37.4,153 L37.4,153 Z M44,155 L37.4,155 C36.981,155 36.604,155.265 36.461,155.658 L36.461,155.658 L33.427,164 L44,164 L44,155 Z M52.6,155 L46,155 L46,164 L56.573,164 L53.539,155.658 C53.396,155.265 53.019,155 52.6,155 L52.6,155 Z"/>
        </g>
        <text font-family="PingFangSC-Semibold, PingFang SC" font-size="20" font-weight="500">
          <tspan x="55" y="44">应用</tspan>
        </text>
      </g>
    </g>
    <g transform="translate(267 399)">
      <rect width="654" height="80" fill="#EDF9FA"/>
      <text fill="#00AAE7" font-family="PingFangSC-Medium, PingFang SC" font-size="20" font-weight="400">
        <tspan x="267" y="47">机器数据存储</tspan>
      </text>
    </g>
    <path fill="#00AAE7" fill-rule="nonzero" d="M594.5,340.5 L599,349.5 L595,349.5 L595,380.5 L599,380.5 L594.5,389.5 L590,380.5 L594,380.5 L594,349.5 L590,349.5 L594.5,340.5 Z"/>
    <line x1="158.5" x2="594.5" y1="365.5" y2="365.5" stroke="#00AAE7" stroke-linecap="square"/>
    <polyline stroke="#00AAE7" points="158.5 104.5 204.411 104.5 204.411 365.5"/>
    <g transform="translate(267)">
      <rect width="654" height="326" fill="#EDF9FA"/>
      <text fill="#00AAE7" font-family="PingFangSC-Semibold, PingFang SC" font-size="20" font-weight="500">
        <tspan x="224" y="44">机器数据分析 Pandora</tspan>
      </text>
      <g transform="translate(16 66)">
        <rect width="109" height="131" x=".5" y=".5" stroke="#00AAE7" rx="2"/>
        <rect width="109" height="131" x="128.5" y=".5" stroke="#00AAE7" rx="2"/>
        <rect width="109" height="131" x="256.5" y=".5" stroke="#00AAE7" rx="2"/>
        <rect width="109" height="131" x="384.5" y=".5" stroke="#00AAE7" rx="2"/>
        <rect width="109" height="131" x="512.5" y=".5" stroke="#00AAE7" rx="2"/>
        <text fill="#00AAE7" font-family="PingFangSC-Regular, PingFang SC" font-size="14">
          <tspan x="34.742" y="84">AI 运维</tspan> <tspan x="27" y="104">分析模型</tspan>
        </text>
        <path fill="#00AAE7" fill-rule="nonzero" d="M60.5,42.012313 C60.7761424,42.012313 61,42.2361706 61,42.512313 L61,50.512313 C61,50.7884554 60.7761424,51.012313 60.5,51.012313 L57.5,51.012313 C57.2238576,51.012313 57,50.7884554 57,50.512313 L57,42.512313 C57,42.2361706 57.2238576,42.012313 57.5,42.012313 L60.5,42.012313 Z M68.5,33.012313 C68.7761424,33.012313 69,33.2361706 69,33.512313 L69,50.512313 C69,50.7884554 68.7761424,51.012313 68.5,51.012313 L65.5,51.012313 C65.2238576,51.012313 65,50.7884554 65,50.512313 L65,33.512313 C65,33.2361706 65.2238576,33.012313 65.5,33.012313 L68.5,33.012313 Z M52.5,33.012313 C52.7761424,33.012313 53,33.2361706 53,33.512313 L53,50.512313 C53,50.7884554 52.7761424,51.012313 52.5,51.012313 L49.5,51.012313 C49.2238576,51.012313 49,50.7884554 49,50.512313 L49,33.512313 C49,33.2361706 49.2238576,33.012313 49.5,33.012313 L52.5,33.012313 Z M44.5,42.012313 C44.7761424,42.012313 45,42.2361706 45,42.512313 L45,50.512313 C45,50.7884554 44.7761424,51.012313 44.5,51.012313 L41.5,51.012313 C41.2238576,51.012313 41,50.7884554 41,50.512313 L41,42.512313 C41,42.2361706 41.2238576,42.012313 41.5,42.012313 L44.5,42.012313 Z M67.293,23.305313 C67.5440745,23.0453564 67.9158779,22.9411004 68.2655073,23.0326158 C68.6151368,23.1241313 68.8881817,23.3971762 68.9796972,23.7468057 C69.0712126,24.0964351 68.9669566,24.4682385 68.707,24.719313 L68.707,24.719313 L59.707,33.719313 C59.3165001,34.1096949 58.6834999,34.1096949 58.293,33.719313 L58.293,33.719313 L51,26.426313 L42.707,34.719313 C42.5195073,34.9068624 42.2651948,35.012313 42,35.012313 C41.5956041,35.012313 41.2310659,34.7685855 41.076322,34.3949676 C40.9215781,34.0213496 41.0070921,33.5913072 41.293,33.305313 L41.293,33.305313 L50.293,24.305313 C50.6834999,23.9149311 51.3165001,23.9149311 51.707,24.305313 L51.707,24.305313 L59,31.598313 Z"/>
        <text fill="#00AAE7" font-family="PingFangSC-Regular, PingFang SC" font-size="14">
          <tspan x="155" y="84">用户行为</tspan> <tspan x="155" y="104">分析模型</tspan>
        </text>
        <path fill="#00AAE7" fill-rule="nonzero" d="M196.516181,28.7292692 C199.423947,34.531925 197.962181,41.5722663 192.98476,45.7377432 L192.98476,52.0007432 C192.98476,52.553028 192.537045,53.0007432 191.98476,53.0007432 L185.64476,53.0007432 C187.765558,51.2959681 188.99933,48.72178 188.99976,46.0007432 L188.99976,39.9007432 C191.514723,39.3873785 193.23243,37.0530445 192.974441,34.499219 C192.716452,31.9453934 190.566584,30.0017638 187.99976,30.0017638 C185.432937,30.0017638 183.283068,31.9453934 183.025079,34.499219 C182.767091,37.0530445 184.484797,39.3873785 186.99976,39.9007432 L186.99976,46.0007432 C186.995352,49.8649089 183.863926,52.9963346 179.99976,53.0007432 L173.99976,53.0007432 C171.790621,53.0007432 169.99976,51.2098822 169.99976,49.0007432 L169.99976,44.1187432 L167.55276,42.9007432 C167.315487,42.7820977 167.135081,42.574034 167.051247,42.3223453 C166.967413,42.0706565 166.987023,41.7959705 167.10576,41.5587432 L169.99976,35.7647432 L169.99976,35.0007432 C170.000049,28.5102951 174.461285,22.8710984 180.777479,21.3772376 C187.093672,19.8833768 193.608415,22.9266135 196.516181,28.7292692 Z M187.99976,32.0007432 C189.656614,32.0007432 190.99976,33.343889 190.99976,35.0007432 C190.99976,36.6575975 189.656614,38.0007432 187.99976,38.0007432 C186.342906,38.0007432 184.99976,36.6575975 184.99976,35.0007432 C184.99976,33.343889 186.342906,32.0007432 187.99976,32.0007432 Z"/>
        <text fill="#00AAE7" font-family="PingFangSC-Regular, PingFang SC" font-size="14">
          <tspan x="283" y="84">网联安全</tspan> <tspan x="283" y="104">分析模型</tspan>
        </text>
        <path fill="#00AAE7" fill-rule="nonzero" d="M29,5.001 C25.009,5.001 19.249,2.938 15.6,0.201 C15.245,-0.067 14.755,-0.067 14.4,0.201 C10.751,2.938 4.991,5.001 1,5.001 C0.448,5.001 0,5.448 0,6.001 C0,16.729 5.733,26.117 14.606,29.92 C14.732,29.974 14.866,30.001 15,30.001 C15.134,30.001 15.268,29.974 15.394,29.92 C24.267,26.117 30,16.729 30,6.001 C30,5.448 29.552,5.001 29,5.001 Z M15,27.908 L15,15.001 L3.54,15.001 C2.645,12.497 2.114,9.79 2.016,6.965 C6.116,6.687 11.303,4.804 15,2.234 L15,15.001 L26.46,15.001 C24.389,20.793 20.341,25.481 15,27.908 Z" transform="translate(296 23)"/>
        <text fill="#00AAE7" font-family="PingFangSC-Regular, PingFang SC" font-size="14">
          <tspan x="411" y="84">商业运营</tspan> <tspan x="411" y="104">分析模型</tspan>
        </text>
        <path fill="#00AAE7" fill-rule="nonzero" d="M434.892,31.1347417 L441.892,45.1347417 L446.531,37.0167417 L454.902,37.0167417 C454.393064,45.4526526 447.403249,52.0334834 438.952,52.0334834 C430.500751,52.0334834 423.510936,45.4526526 423.002,37.0167417 L423.002,37.0167417 L431.531,37.0167417 L434.892,31.1347417 Z M438.95,20 C447.401249,20 454.391064,26.5808309 454.9,35.0167417 L454.9,35.0167417 L445.371,35.0167417 L442.01,40.8987417 L435.01,26.8987417 L430.371,35.0167417 L423,35.0167417 C423.508936,26.5808309 430.498751,20 438.95,20 Z"/>
        <text fill="#00AAE7" font-family="PingFangSC-Regular, PingFang SC" font-size="14">
          <tspan x="539" y="84">车辆监控</tspan> <tspan x="539" y="104">分析模型</tspan>
        </text>
        <path fill="#00AAE7" fill-rule="nonzero" d="M567,20 C575.836556,20 583,27.163444 583,36 C582.99008,44.8324438 575.832444,51.9900802 567,52 C558.163444,52 551,44.836556 551,36 C551,27.163444 558.163444,20 567,20 Z M565.000187,47.8341145 L565,42 C565,39.790861 563.209139,38 561,38 L561,38 L555.166053,38.0008092 C556.00939,43.0254979 559.975359,46.99119 565.000187,47.8341145 Z M578.833947,38.0008092 L573,38 C570.790861,38 569,39.790861 569,42 L569,42 L569.000809,47.8339473 C574.025166,46.9906657 577.990666,43.0251658 578.833947,38.0008092 Z M567,24 C561.053942,24 556.117964,28.3246685 555.165885,34.0001873 L561,34 C563,34 564,32 567,32 C570,32 571,34 573,34 L573,34 L578.832136,34.0004463 C577.875325,28.3280345 572.943155,24.006428 567,24 Z"/>
        <g transform="translate(0 148)">
          <use stroke="#00AAE7" stroke-dasharray="2 2" stroke-width="2" mask="url(#方案架构02-b)" xlink:href="#方案架构02-a"/>
          <text fill="#00AAE7" font-family="PingFangSC-Medium, PingFang SC" font-size="14" font-weight="400">
            <tspan x="267" y="31">SPL 计算引擎</tspan>
          </text>
          <g transform="translate(319 52)">
            <rect width="85" height="27" x=".5" y=".5" stroke="#00AAE7" rx="2"/>
            <text fill="#00AAE7" font-family="PingFangSC-Regular, PingFang SC" font-size="12">
              <tspan x="19" y="19">关联分析</tspan>
            </text>
          </g>
          <g transform="translate(420 52)">
            <rect width="85" height="27" x=".5" y=".5" stroke="#00AAE7" rx="2"/>
            <text fill="#00AAE7" font-family="PingFangSC-Regular, PingFang SC" font-size="12">
              <tspan x="19" y="19">异常预测</tspan>
            </text>
          </g>
          <g transform="translate(520 52)">
            <rect width="85" height="27" x=".5" y=".5" stroke="#00AAE7" rx="2"/>
            <text fill="#00AAE7" font-family="PingFangSC-Regular, PingFang SC" font-size="12">
              <tspan x="19" y="19">聚类分析</tspan>
            </text>
          </g>
          <g transform="translate(218 52)">
            <rect width="85" height="27" x=".5" y=".5" stroke="#00AAE7" rx="2"/>
            <text fill="#00AAE7" font-family="PingFangSC-Regular, PingFang SC" font-size="12">
              <tspan x="19" y="19">回归预测</tspan>
            </text>
          </g>
          <g transform="translate(117 52)">
            <rect width="85" height="27" x=".5" y=".5" stroke="#00AAE7" rx="2"/>
            <text fill="#00AAE7" font-family="PingFangSC-Regular, PingFang SC" font-size="12">
              <tspan x="19" y="19">时序预测</tspan>
            </text>
          </g>
          <g transform="translate(16 52)">
            <rect width="85" height="27" x=".5" y=".5" stroke="#00AAE7" rx="2"/>
            <text fill="#00AAE7" font-family="PingFangSC-Regular, PingFang SC" font-size="12">
              <tspan x="19" y="19">分类预测</tspan>
            </text>
          </g>
        </g>
      </g>
    </g>
    <path fill="#47C2C5" fill-rule="nonzero" d="M55.5,-4 L64.5,0.5 L55.5,5 L55.5,1 L-0.5,1 L-0.5,0 L55.5,0 L55.5,-4 Z" transform="translate(939.5 239)"/>
  </g>
</svg>
