<?xml version="1.0" encoding="UTF-8"?>
<svg width="54px" height="62px" viewBox="0 0 54 62" version="1.1" xmlns="http://www.w3.org/2000/svg" xmlns:xlink="http://www.w3.org/1999/xlink">
    <!-- Generator: Sketch 64 (93537) - https://sketch.com -->
    <title>p-sync</title>
    <desc>Created with Sketch.</desc>
    <g id="解决方案" stroke="none" stroke-width="1" fill="none" fill-rule="evenodd">
        <g id="行业解决方案-监控视频边缘存储解决方案✅" transform="translate(-933.000000, -2069.000000)" stroke-width="2">
            <g id="产品介绍-2备份" transform="translate(0.000000, 1892.000000)">
                <g id="01" transform="translate(772.000000, 148.000000)">
                    <g id="p-sync" transform="translate(162.000000, 30.000000)">
                        <line x1="0" y1="9" x2="42" y2="9" id="路径" stroke="#333333"></line>
                        <line x1="0" y1="49" x2="26" y2="49" id="路径" stroke="#333333" stroke-linecap="square"></line>
                        <path d="M26,60 L5,60 C2.23857625,60 0,57.7614237 0,55 L0,5 C0,2.23857625 2.23857625,0 5,0 L37,0 C38.3260824,0 39.597852,0.526784202 40.5355339,1.46446609 C41.4732158,2.40214799 42,3.67391755 42,5 L42,33" id="路径" stroke="#333333" stroke-linecap="square"></path>
                        <path d="M32.2,46.9999998 C33.1505372,42.3433375 37.2473138,38.99903 42,38.9999998 C45.9342939,39.005902 49.4813621,41.3706141 51,44.9999998" id="路径" stroke="#00AAE7"></path>
                        <path d="M51.8,51 C50.8494628,55.6566625 46.7526862,59.00097 42,59 C38.0657061,58.994098 34.5186379,56.6293859 33,53" id="路径" stroke="#00AAE7"></path>
                        <polyline id="路径" stroke="#00AAE7" stroke-linecap="square" points="51 38 51 45 44 45"></polyline>
                        <polyline id="路径" stroke="#00AAE7" stroke-linecap="square" points="33 60 33 53 40 53"></polyline>
                    </g>
                </g>
            </g>
        </g>
    </g>
</svg>