<svg xmlns="http://www.w3.org/2000/svg" width="1002" height="422" viewBox="0 0 1002 422">
  <g fill="none" fill-rule="evenodd" transform="translate(1)">
    <g transform="translate(0 215)">
      <rect width="160" height="90" fill="#42C0C3" rx="4"/>
      <g fill="#FFF" transform="translate(20 33)">
        <text font-family="PingFangSC-Regular, PingFang SC" font-size="14">
          <tspan x="34" y="17">实时数据存储</tspan>
        </text>
        <path fill-rule="nonzero" d="M10,0 L10,22 L1,22 C0.44771525,22 0,21.5522847 0,21 L0,21 L0,1 C0,0.44771525 0.44771525,0 1,0 L1,0 L10,0 Z M21,0 C21.5522847,0 22,0.44771525 22,1 L22,1 L22,21 C22,21.5522847 21.5522847,22 21,22 L21,22 L12,22 L12,0 Z M8,12 L2,12 L2,14 L8,14 L8,12 Z M20,12 L14,12 L14,14 L20,14 L20,12 Z M8,8 L2,8 L2,10 L8,10 L8,8 Z M20,8 L14,8 L14,10 L20,10 L20,8 Z M8,4 L2,4 L2,6 L8,6 L8,4 Z M20,4 L14,4 L14,6 L20,6 L20,4 Z"/>
      </g>
      <g transform="translate(840)">
        <rect width="160" height="90" fill="#42C0C3" rx="4"/>
        <text fill="#FFF" font-family="PingFangSC-Regular, PingFang SC" font-size="14">
          <tspan x="47" y="42">指标参数/评分</tspan> <tspan x="47" y="62">公式库</tspan>
        </text>
        <path fill="#FFF" fill-rule="nonzero" d="M26,34 L26,56 L17,56 C16.4477153,56 16,55.5522847 16,55 L16,55 L16,35 C16,34.4477153 16.4477153,34 17,34 L17,34 L26,34 Z M37,34 C37.5522847,34 38,34.4477153 38,35 L38,35 L38,55 C38,55.5522847 37.5522847,56 37,56 L37,56 L28,56 L28,34 Z M24,46 L18,46 L18,48 L24,48 L24,46 Z M36,46 L30,46 L30,48 L36,48 L36,46 Z M24,42 L18,42 L18,44 L24,44 L24,42 Z M36,42 L30,42 L30,44 L36,44 L36,42 Z M24,38 L18,38 L18,40 L24,40 L24,38 Z M36,38 L30,38 L30,40 L36,40 L36,38 Z"/>
      </g>
      <g transform="translate(180)">
        <rect width="640" height="90" fill="#42C0C3" rx="4"/>
        <text fill="#FFF" font-family="PingFangSC-Regular, PingFang SC" font-size="14">
          <tspan x="279" y="23">指标处理</tspan>
        </text>
        <g transform="translate(20 36)">
          <rect width="133" height="42" fill="#E2F2F3" rx="2"/>
          <text fill="#42C0C3" font-family="PingFangSC-Regular, PingFang SC" font-size="14">
            <tspan x="39" y="26">指标提取</tspan>
          </text>
        </g>
        <g transform="translate(176 36)">
          <rect width="133" height="42" fill="#E2F2F3" rx="2"/>
          <text fill="#42C0C3" font-family="PingFangSC-Regular, PingFang SC" font-size="14">
            <tspan x="32" y="26">指标预处理</tspan>
          </text>
        </g>
        <g transform="translate(331 36)">
          <rect width="133" height="42" fill="#E2F2F3" rx="2"/>
          <text fill="#42C0C3" font-family="PingFangSC-Regular, PingFang SC" font-size="14">
            <tspan x="39" y="26">模型匹配</tspan>
          </text>
        </g>
        <g transform="translate(487 36)">
          <rect width="133" height="42" fill="#E2F2F3" rx="2"/>
          <text fill="#42C0C3" font-family="PingFangSC-Regular, PingFang SC" font-size="14">
            <tspan x="39" y="26">评分处理</tspan>
          </text>
        </g>
        <polygon fill="#E2F2F3" fill-rule="nonzero" points="161.59 61.34 166.17 56.75 161.59 52.16 163 50.75 169 56.75 163 62.75"/>
        <polygon fill="#E2F2F3" fill-rule="nonzero" points="316.59 61.34 321.17 56.75 316.59 52.16 318 50.75 324 56.75 318 62.75"/>
        <polygon fill="#E2F2F3" fill-rule="nonzero" points="472.59 61.34 477.17 56.75 472.59 52.16 474 50.75 480 56.75 474 62.75"/>
      </g>
    </g>
    <g transform="translate(36 31)">
      <rect width="36" height="148" fill="#21B4E9" rx="4"/>
      <text fill="#FFF" font-family="PingFangSC-Regular, PingFang SC" font-size="12">
        <tspan x="11" y="53">模</tspan> <tspan x="11" y="70">型</tspan> <tspan x="11" y="87">训</tspan> <tspan x="11" y="104">练</tspan>
      </text>
      <g transform="translate(56)">
        <rect width="36" height="148" fill="#21B4E9" rx="4"/>
        <text fill="#FFF" font-family="PingFangSC-Regular, PingFang SC" font-size="12">
          <tspan x="12" y="53">趋</tspan> <tspan x="12" y="70">势</tspan> <tspan x="12" y="87">预</tspan> <tspan x="12" y="104">测</tspan>
        </text>
      </g>
      <g transform="translate(112)">
        <rect width="36" height="148" fill="#21B4E9" rx="4"/>
        <text fill="#FFF" font-family="PingFangSC-Regular, PingFang SC" font-size="12">
          <tspan x="12" y="53">异</tspan> <tspan x="12" y="70">常</tspan> <tspan x="12" y="87">检</tspan> <tspan x="12" y="104">测</tspan>
        </text>
      </g>
    </g>
    <path stroke="#BFBFBF" stroke-dasharray="4 4" stroke-width="2" d="M149.736605,11 L220,11 L220,199 L0,199 L0,11 L68.1665948,11"/>
    <text fill="#333" font-family="PingFangSC-Regular, PingFang SC" font-size="14">
      <tspan x="82" y="15">智能检测</tspan>
    </text>
    <g transform="translate(780)">
      <g transform="translate(36 31)">
        <rect width="36" height="148" fill="#21B4E9" rx="4"/>
        <text fill="#FFF" font-family="PingFangSC-Regular, PingFang SC" font-size="12">
          <tspan x="12" y="42">线</tspan> <tspan x="12" y="57">性</tspan> <tspan x="12" y="72">指</tspan> <tspan x="12" y="87">标</tspan> <tspan x="12" y="102">管</tspan> <tspan x="12" y="117">理</tspan>
        </text>
        <g transform="translate(56)">
          <rect width="36" height="148" fill="#21B4E9" rx="4"/>
          <text fill="#FFF" font-family="PingFangSC-Regular, PingFang SC" font-size="12">
            <tspan x="12" y="27">阶</tspan> <tspan x="12" y="42">段</tspan> <tspan x="12" y="57">线</tspan> <tspan x="12" y="72">性</tspan> <tspan x="12" y="87">指</tspan> <tspan x="12" y="102">标</tspan> <tspan x="12" y="117">管</tspan> <tspan x="12" y="132">理</tspan>
          </text>
        </g>
        <g transform="translate(112)">
          <rect width="36" height="148" fill="#21B4E9" rx="4"/>
          <text fill="#FFF" font-family="PingFangSC-Regular, PingFang SC" font-size="12">
            <tspan x="12" y="57">异</tspan> <tspan x="12" y="72">常</tspan> <tspan x="12" y="87">检</tspan> <tspan x="12" y="102">测</tspan>
          </text>
        </g>
      </g>
      <path stroke="#BFBFBF" stroke-dasharray="4 4" stroke-width="2" d="M149.736605,11 L220,11 L220,199 L0,199 L0,11 L68.1665948,11"/>
      <text fill="#333" font-family="PingFangSC-Regular, PingFang SC" font-size="14">
        <tspan x="82" y="15">指标管理</tspan>
      </text>
    </g>
    <g transform="translate(240)">
      <path stroke="#BFBFBF" stroke-dasharray="4 4" stroke-width="2" d="M332.831976,11 L520,11 L520,199 L0,199 L0,11 L187.484679,11"/>
      <g transform="translate(20 31)">
        <rect width="232" height="56" fill="#21B4E9" rx="4"/>
        <text fill="#FFF" font-family="PingFangSC-Regular, PingFang SC" font-size="12">
          <tspan x="55" y="33">单设备多指标趋势分析</tspan>
        </text>
      </g>
      <g transform="translate(20 103)">
        <rect width="150" height="76" fill="#21B4E9" rx="4"/>
        <text fill="#FFF" font-family="PingFangSC-Regular, PingFang SC" font-size="12">
          <tspan x="18" y="34">系统指标雷达图分析/</tspan> <tspan x="18" y="51">指标下钻</tspan>
        </text>
      </g>
      <g transform="translate(185 103)">
        <rect width="150" height="76" fill="#21B4E9" rx="4"/>
        <text fill="#FFF" font-family="PingFangSC-Regular, PingFang SC" font-size="12">
          <tspan x="18" y="34">系统指标拓扑/得分拓</tspan> <tspan x="18" y="51">扑展示</tspan>
        </text>
      </g>
      <g transform="translate(350 103)">
        <rect width="150" height="76" fill="#21B4E9" rx="4"/>
        <text fill="#FFF" font-family="PingFangSC-Regular, PingFang SC" font-size="12">
          <tspan x="27" y="43">指标实时异常告警</tspan>
        </text>
      </g>
      <g transform="translate(268 31)">
        <rect width="232" height="56" fill="#21B4E9" rx="4"/>
        <text fill="#FFF" font-family="PingFangSC-Regular, PingFang SC" font-size="12">
          <tspan x="56" y="33">多设备单指标历史分布</tspan>
        </text>
      </g>
      <text fill="#333" font-family="PingFangSC-Regular, PingFang SC" font-size="14">
        <tspan x="204" y="15">数据分析及可视化</tspan>
      </text>
    </g>
    <g transform="translate(0 309)">
      <path stroke="#BFBFBF" stroke-dasharray="4 4" stroke-width="2" d="M143.807089,24 L1000,24 L1000,112 L0,112 L0,24 L58.8230139,24"/>
      <g transform="translate(20 42)">
        <path fill="#E2F5FC" stroke="#1AB9EB" d="M144,0.5 L2,0.5 C1.58578644,0.5 1.21078644,0.667893219 0.939339828,0.939339828 C0.667893219,1.21078644 0.5,1.58578644 0.5,2 L0.5,50 C0.5,50.4142136 0.667893219,50.7892136 0.939339828,51.0606602 C1.21078644,51.3321068 1.58578644,51.5 2,51.5 L144,51.5 C144.414214,51.5 144.789214,51.3321068 145.06066,51.0606602 C145.332107,50.7892136 145.5,50.4142136 145.5,50 L145.5,2 C145.5,1.58578644 145.332107,1.21078644 145.06066,0.939339828 C144.789214,0.667893219 144.414214,0.5 144,0.5 Z"/>
        <path fill="#1AB9EB" fill-rule="nonzero" d="M23,12 C23.5522847,12 24,12.4477153 24,13 L24,13 L24,21 C24,21.5522847 23.5522847,22 23,22 L23,22 L1,22 C0.44771525,22 0,21.5522847 0,21 L0,21 L0,13 C0,12.4477153 0.44771525,12 1,12 L1,12 Z M10,16 L4,16 L4,18 L10,18 L10,16 Z M19,16 C18.4477153,16 18,16.4477153 18,17 C18,17.5522847 18.4477153,18 19,18 C19.5522847,18 20,17.5522847 20,17 C20,16.4477153 19.5522847,16 19,16 Z M23,0 C23.5522847,0 24,0.44771525 24,1 L24,1 L24,9 C24,9.55228475 23.5522847,10 23,10 L23,10 L1,10 C0.44771525,10 0,9.55228475 0,9 L0,9 L0,1 C0,0.44771525 0.44771525,0 1,0 L1,0 Z M10,4 L4,4 L4,6 L10,6 L10,4 Z M19,4 C18.4477153,4 18,4.44771525 18,5 C18,5.55228475 18.4477153,6 19,6 C19.5522847,6 20,5.55228475 20,5 C20,4.44771525 19.5522847,4 19,4 Z" transform="translate(12 15)"/>
        <text fill="#00AAE7" font-family="PingFangSC-Regular, PingFang SC" font-size="14">
          <tspan x="48" y="21">真空与压力</tspan> <tspan x="48" y="41">控制系统</tspan>
        </text>
      </g>
      <g transform="translate(182 42)">
        <path fill="#E2F5FC" stroke="#1AB9EB" d="M145,0.5 L2,0.5 C1.58578644,0.5 1.21078644,0.667893219 0.939339828,0.939339828 C0.667893219,1.21078644 0.5,1.58578644 0.5,2 L0.5,50 C0.5,50.4142136 0.667893219,50.7892136 0.939339828,51.0606602 C1.21078644,51.3321068 1.58578644,51.5 2,51.5 L145,51.5 C145.414214,51.5 145.789214,51.3321068 146.06066,51.0606602 C146.332107,50.7892136 146.5,50.4142136 146.5,50 L146.5,2 C146.5,1.58578644 146.332107,1.21078644 146.06066,0.939339828 C145.789214,0.667893219 145.414214,0.5 145,0.5 Z"/>
        <path fill="#1AB9EB" fill-rule="nonzero" d="M23,12 C23.5522847,12 24,12.4477153 24,13 L24,13 L24,21 C24,21.5522847 23.5522847,22 23,22 L23,22 L1,22 C0.44771525,22 0,21.5522847 0,21 L0,21 L0,13 C0,12.4477153 0.44771525,12 1,12 L1,12 Z M10,16 L4,16 L4,18 L10,18 L10,16 Z M19,16 C18.4477153,16 18,16.4477153 18,17 C18,17.5522847 18.4477153,18 19,18 C19.5522847,18 20,17.5522847 20,17 C20,16.4477153 19.5522847,16 19,16 Z M23,0 C23.5522847,0 24,0.44771525 24,1 L24,1 L24,9 C24,9.55228475 23.5522847,10 23,10 L23,10 L1,10 C0.44771525,10 0,9.55228475 0,9 L0,9 L0,1 C0,0.44771525 0.44771525,0 1,0 L1,0 Z M10,4 L4,4 L4,6 L10,6 L10,4 Z M19,4 C18.4477153,4 18,4.44771525 18,5 C18,5.55228475 18.4477153,6 19,6 C19.5522847,6 20,5.55228475 20,5 C20,4.44771525 19.5522847,4 19,4 Z" transform="translate(12 15)"/>
        <text fill="#00AAE7" font-family="PingFangSC-Regular, PingFang SC" font-size="14">
          <tspan x="48" y="31">热场系统</tspan>
        </text>
      </g>
      <g transform="translate(345 42)">
        <path fill="#E2F5FC" stroke="#1AB9EB" d="M145,0.5 L2,0.5 C1.58578644,0.5 1.21078644,0.667893219 0.939339828,0.939339828 C0.667893219,1.21078644 0.5,1.58578644 0.5,2 L0.5,50 C0.5,50.4142136 0.667893219,50.7892136 0.939339828,51.0606602 C1.21078644,51.3321068 1.58578644,51.5 2,51.5 L145,51.5 C145.414214,51.5 145.789214,51.3321068 146.06066,51.0606602 C146.332107,50.7892136 146.5,50.4142136 146.5,50 L146.5,2 C146.5,1.58578644 146.332107,1.21078644 146.06066,0.939339828 C145.789214,0.667893219 145.414214,0.5 145,0.5 Z"/>
        <path fill="#1AB9EB" fill-rule="nonzero" d="M23,12 C23.5522847,12 24,12.4477153 24,13 L24,13 L24,21 C24,21.5522847 23.5522847,22 23,22 L23,22 L1,22 C0.44771525,22 0,21.5522847 0,21 L0,21 L0,13 C0,12.4477153 0.44771525,12 1,12 L1,12 Z M10,16 L4,16 L4,18 L10,18 L10,16 Z M19,16 C18.4477153,16 18,16.4477153 18,17 C18,17.5522847 18.4477153,18 19,18 C19.5522847,18 20,17.5522847 20,17 C20,16.4477153 19.5522847,16 19,16 Z M23,0 C23.5522847,0 24,0.44771525 24,1 L24,1 L24,9 C24,9.55228475 23.5522847,10 23,10 L23,10 L1,10 C0.44771525,10 0,9.55228475 0,9 L0,9 L0,1 C0,0.44771525 0.44771525,0 1,0 L1,0 Z M10,4 L4,4 L4,6 L10,6 L10,4 Z M19,4 C18.4477153,4 18,4.44771525 18,5 C18,5.55228475 18.4477153,6 19,6 C19.5522847,6 20,5.55228475 20,5 C20,4.44771525 19.5522847,4 19,4 Z" transform="translate(12 15)"/>
        <text fill="#00AAE7" font-family="PingFangSC-Regular, PingFang SC" font-size="14">
          <tspan x="48" y="31">引放系统</tspan>
        </text>
      </g>
      <g transform="translate(508 42)">
        <path fill="#E2F5FC" stroke="#1AB9EB" d="M145,0.5 L2,0.5 C1.58578644,0.5 1.21078644,0.667893219 0.939339828,0.939339828 C0.667893219,1.21078644 0.5,1.58578644 0.5,2 L0.5,50 C0.5,50.4142136 0.667893219,50.7892136 0.939339828,51.0606602 C1.21078644,51.3321068 1.58578644,51.5 2,51.5 L145,51.5 C145.414214,51.5 145.789214,51.3321068 146.06066,51.0606602 C146.332107,50.7892136 146.5,50.4142136 146.5,50 L146.5,2 C146.5,1.58578644 146.332107,1.21078644 146.06066,0.939339828 C145.789214,0.667893219 145.414214,0.5 145,0.5 Z"/>
        <path fill="#1AB9EB" fill-rule="nonzero" d="M23,12 C23.5522847,12 24,12.4477153 24,13 L24,13 L24,21 C24,21.5522847 23.5522847,22 23,22 L23,22 L1,22 C0.44771525,22 0,21.5522847 0,21 L0,21 L0,13 C0,12.4477153 0.44771525,12 1,12 L1,12 Z M10,16 L4,16 L4,18 L10,18 L10,16 Z M19,16 C18.4477153,16 18,16.4477153 18,17 C18,17.5522847 18.4477153,18 19,18 C19.5522847,18 20,17.5522847 20,17 C20,16.4477153 19.5522847,16 19,16 Z M23,0 C23.5522847,0 24,0.44771525 24,1 L24,1 L24,9 C24,9.55228475 23.5522847,10 23,10 L23,10 L1,10 C0.44771525,10 0,9.55228475 0,9 L0,9 L0,1 C0,0.44771525 0.44771525,0 1,0 L1,0 Z M10,4 L4,4 L4,6 L10,6 L10,4 Z M19,4 C18.4477153,4 18,4.44771525 18,5 C18,5.55228475 18.4477153,6 19,6 C19.5522847,6 20,5.55228475 20,5 C20,4.44771525 19.5522847,4 19,4 Z" transform="translate(12 15)"/>
        <text fill="#00AAE7" font-family="PingFangSC-Regular, PingFang SC" font-size="14">
          <tspan x="48" y="31">等径系统</tspan>
        </text>
      </g>
      <g transform="translate(671 42)">
        <path fill="#E2F5FC" stroke="#1AB9EB" d="M145,0.5 L2,0.5 C1.58578644,0.5 1.21078644,0.667893219 0.939339828,0.939339828 C0.667893219,1.21078644 0.5,1.58578644 0.5,2 L0.5,50 C0.5,50.4142136 0.667893219,50.7892136 0.939339828,51.0606602 C1.21078644,51.3321068 1.58578644,51.5 2,51.5 L145,51.5 C145.414214,51.5 145.789214,51.3321068 146.06066,51.0606602 C146.332107,50.7892136 146.5,50.4142136 146.5,50 L146.5,2 C146.5,1.58578644 146.332107,1.21078644 146.06066,0.939339828 C145.789214,0.667893219 145.414214,0.5 145,0.5 Z"/>
        <path fill="#1AB9EB" fill-rule="nonzero" d="M23,12 C23.5522847,12 24,12.4477153 24,13 L24,13 L24,21 C24,21.5522847 23.5522847,22 23,22 L23,22 L1,22 C0.44771525,22 0,21.5522847 0,21 L0,21 L0,13 C0,12.4477153 0.44771525,12 1,12 L1,12 Z M10,16 L4,16 L4,18 L10,18 L10,16 Z M19,16 C18.4477153,16 18,16.4477153 18,17 C18,17.5522847 18.4477153,18 19,18 C19.5522847,18 20,17.5522847 20,17 C20,16.4477153 19.5522847,16 19,16 Z M23,0 C23.5522847,0 24,0.44771525 24,1 L24,1 L24,9 C24,9.55228475 23.5522847,10 23,10 L23,10 L1,10 C0.44771525,10 0,9.55228475 0,9 L0,9 L0,1 C0,0.44771525 0.44771525,0 1,0 L1,0 Z M10,4 L4,4 L4,6 L10,6 L10,4 Z M19,4 C18.4477153,4 18,4.44771525 18,5 C18,5.55228475 18.4477153,6 19,6 C19.5522847,6 20,5.55228475 20,5 C20,4.44771525 19.5522847,4 19,4 Z" transform="translate(12 15)"/>
        <text fill="#00AAE7" font-family="PingFangSC-Regular, PingFang SC" font-size="14">
          <tspan x="48" y="31">坩埚系统</tspan>
        </text>
      </g>
      <g transform="translate(834 42)">
        <path fill="#E2F5FC" stroke="#1AB9EB" d="M144,0.5 L2,0.5 C1.58578644,0.5 1.21078644,0.667893219 0.939339828,0.939339828 C0.667893219,1.21078644 0.5,1.58578644 0.5,2 L0.5,50 C0.5,50.4142136 0.667893219,50.7892136 0.939339828,51.0606602 C1.21078644,51.3321068 1.58578644,51.5 2,51.5 L144,51.5 C144.414214,51.5 144.789214,51.3321068 145.06066,51.0606602 C145.332107,50.7892136 145.5,50.4142136 145.5,50 L145.5,2 C145.5,1.58578644 145.332107,1.21078644 145.06066,0.939339828 C144.789214,0.667893219 144.414214,0.5 144,0.5 Z"/>
        <path fill="#1AB9EB" fill-rule="nonzero" d="M23,12 C23.5522847,12 24,12.4477153 24,13 L24,13 L24,21 C24,21.5522847 23.5522847,22 23,22 L23,22 L1,22 C0.44771525,22 0,21.5522847 0,21 L0,21 L0,13 C0,12.4477153 0.44771525,12 1,12 L1,12 Z M10,16 L4,16 L4,18 L10,18 L10,16 Z M19,16 C18.4477153,16 18,16.4477153 18,17 C18,17.5522847 18.4477153,18 19,18 C19.5522847,18 20,17.5522847 20,17 C20,16.4477153 19.5522847,16 19,16 Z M23,0 C23.5522847,0 24,0.44771525 24,1 L24,1 L24,9 C24,9.55228475 23.5522847,10 23,10 L23,10 L1,10 C0.44771525,10 0,9.55228475 0,9 L0,9 L0,1 C0,0.44771525 0.44771525,0 1,0 L1,0 Z M10,4 L4,4 L4,6 L10,6 L10,4 Z M19,4 C18.4477153,4 18,4.44771525 18,5 C18,5.55228475 18.4477153,6 19,6 C19.5522847,6 20,5.55228475 20,5 C20,4.44771525 19.5522847,4 19,4 Z" transform="translate(12 16)"/>
        <text fill="#00AAE7" font-family="PingFangSC-Regular, PingFang SC" font-size="12">
          <tspan x="48" y="31">……</tspan>
        </text>
      </g>
      <text fill="#333" font-family="PingFangSC-Regular, PingFang SC" font-size="14">
        <tspan x="81" y="29">单晶炉</tspan>
      </text>
      <g fill="#1AB9EB" transform="translate(448)">
        <text font-family="PingFangSC-Regular, PingFang SC" font-size="14">
          <tspan x="21" y="15">数据采集</tspan>
        </text>
        <path fill-rule="nonzero" d="M7,0 L14,10 L8,10 L8,19 C8,19.553 7.552,20 7,20 C6.448,20 6,19.553 6,19 L6,10 L0,10 L7,0 Z"/>
      </g>
    </g>
  </g>
</svg>
