<svg xmlns="http://www.w3.org/2000/svg" width="1102" height="596" viewBox="0 0 1102 596">
  <g fill="none" fill-rule="evenodd">
    <g transform="translate(340 242)">
      <polygon fill="#00AAE7" points="0 0 422 0 422 354 0 354" opacity=".08"/>
      <g transform="translate(12 19)">
        <path fill="#FFF" d="M2,0 L124,0 C125.104569,-2.02906125e-16 126,0.8954305 126,2 L126,46 C126,47.1045695 125.104569,48 124,48 L2,48 C0.8954305,48 1.3527075e-16,47.1045695 0,46 L0,2 C-1.3527075e-16,0.8954305 0.8954305,2.02906125e-16 2,0 Z" opacity=".85"/>
        <g transform="translate(17 12)">
          <text fill="#00AAE7" font-family="PingFangSC-Regular, PingFang SC" font-size="14">
            <tspan x="36" y="17">认证鉴权</tspan>
          </text>
          <g fill-rule="nonzero">
            <rect width="24" height="24" fill="#000" opacity="0"/>
            <path fill="#00AAE7" d="M22,15.586 L23.414,17 L17,23.414 L13.586,20 L15,18.586 L17,20.586 L22,15.586 Z M9,14 C11.038,14 12.904,14.333 14.406,14.727 C12.934,16.01 12,17.894 12,20 C12,20.695 12.105,21.366 12.294,22 L12.294,22 L-9.59232693e-13,22 L-9.59232693e-13,18.032 C-9.59232693e-13,16.749 0.81,15.604 2.026,15.193 C3.671,14.638 6.176,14 9,14 Z M9,0 C11.761,0 14,2.239 14,5 L14,6 C14,8.6952619 11.8663498,11.8460329 9.19630336,11.9945417 L9,12 C6.239,12 4,8.761 4,6 L4,5 C4,2.31165789 6.12270845,0.118203601 8.78314209,0.00462037105 L9,0 Z" transform="translate(1)"/>
          </g>
        </g>
        <g transform="translate(0 58)">
          <path fill="#FFF" d="M2,0 L124,0 C125.104569,-2.02906125e-16 126,0.8954305 126,2 L126,46 C126,47.1045695 125.104569,48 124,48 L2,48 C0.8954305,48 1.3527075e-16,47.1045695 0,46 L0,2 C-1.3527075e-16,0.8954305 0.8954305,2.02906125e-16 2,0 Z" opacity=".85"/>
          <g transform="translate(17 12)">
            <text fill="#00AAE7" font-family="PingFangSC-Regular, PingFang SC" font-size="14">
              <tspan x="36" y="17">数据统计</tspan>
            </text>
            <g fill-rule="nonzero">
              <rect width="24" height="24" fill="#000" opacity="0"/>
              <path fill="#00AAE7" d="M9.66666667,2 L15,2 L15,22 L9.66666667,22 L9.66666667,2 Z M16.3333333,7.33333333 L21.6666667,7.33333333 L21.6666667,22 L16.3333333,22 L16.3333333,7.33333333 Z M3,11.3333333 L8.33333333,11.3333333 L8.33333333,22 L3,22 L3,11.3333333 Z"/>
            </g>
          </g>
        </g>
        <g transform="translate(136)">
          <path fill="#FFF" d="M2,0 L124,0 C125.104569,-2.02906125e-16 126,0.8954305 126,2 L126,46 C126,47.1045695 125.104569,48 124,48 L2,48 C0.8954305,48 1.3527075e-16,47.1045695 0,46 L0,2 C-1.3527075e-16,0.8954305 0.8954305,2.02906125e-16 2,0 Z" opacity=".85"/>
          <g transform="translate(19 12)">
            <text fill="#00AAE7" font-family="PingFangSC-Regular, PingFang SC" font-size="14">
              <tspan x="33" y="17">直播封面</tspan>
            </text>
            <g fill-rule="nonzero">
              <rect width="24" height="24" fill="#000" opacity="0"/>
              <path fill="#00AAE7" d="M22.1844153,8.87376378 L22.1844153,20.8351795 C22.1844153,22.0288295 21.2132448,23 20.0195948,23 L3.16482046,23 C1.97117047,23 1,22.0288295 1,20.8351795 L1,8.87376378 C1,7.68011379 1.97117047,6.70894332 3.16482046,6.70894332 L7.66680031,6.70894332 L2.7907506,1.91407989 C2.58077317,1.70776266 2.57790673,1.36961144 2.78448854,1.15965607 C2.99080578,0.949171482 3.3281632,0.946569645 3.53891236,1.15339401 L9.18852488,6.70896538 L14.2092635,6.70896538 L19.858876,1.15339401 C20.0688534,0.9465476 20.4064534,0.949149438 20.6132998,1.15965607 C20.8198816,1.36963351 20.8170152,1.70776268 20.6070377,1.91407989 L15.730966,6.70896536 L20.0195948,6.70896536 C21.2132448,6.70894332 22.1844153,7.68011379 22.1844153,8.87376378 Z M15.2652804,14.9171143 L8.80528244,11.1874405 L8.80528244,18.6468102 L15.2652804,14.9171143 Z"/>
            </g>
          </g>
        </g>
        <g transform="translate(136 58)">
          <path fill="#FFF" d="M2,0 L124,0 C125.104569,-2.02906125e-16 126,0.8954305 126,2 L126,46 C126,47.1045695 125.104569,48 124,48 L2,48 C0.8954305,48 1.3527075e-16,47.1045695 0,46 L0,2 C-1.3527075e-16,0.8954305 0.8954305,2.02906125e-16 2,0 Z" opacity=".85"/>
          <g transform="translate(17 11)">
            <text fill="#00AAE7" font-family="PingFangSC-Regular, PingFang SC" font-size="14">
              <tspan x="35" y="18">自动鉴黄</tspan>
            </text>
            <g fill-rule="nonzero">
              <rect width="24" height="24" fill="#000" opacity="0"/>
              <path fill="#00AAE7" d="M2.2734375,13.2734375 C2.2734375,19.3485697 7.19830525,24.2734375 13.2734375,24.2734375 C19.3485697,24.2734375 24.2734375,19.3485697 24.2734375,13.2734375 C24.2734375,7.19830525 19.3485697,2.2734375 13.2734375,2.2734375 C7.19830525,2.2734375 2.2734375,7.19830525 2.2734375,13.2734375 Z"/>
              <path fill="#FFF" d="M8.76639023,18.7137082 C8.84817612,19.8691544 9.54019461,20.8931901 10.5817521,21.4000458 C11.6233096,21.9069016 12.8561565,21.8195681 13.8158612,21.1709452 C14.7755659,20.5223222 15.3163151,19.4109587 15.2344006,18.2555216 C15.1526147,17.1000754 14.4605962,16.0760398 13.4190387,15.569184 C12.3774812,15.0623282 11.1446343,15.1496617 10.1849296,15.7982846 C9.22522494,16.4469076 8.68447575,17.5582711 8.76639023,18.7137082 L8.76639023,18.7137082 Z"/>
            </g>
          </g>
        </g>
        <g transform="translate(272)">
          <path fill="#FFF" d="M2,0 L124,0 C125.104569,-2.02906125e-16 126,0.8954305 126,2 L126,46 C126,47.1045695 125.104569,48 124,48 L2,48 C0.8954305,48 1.3527075e-16,47.1045695 0,46 L0,2 C-1.3527075e-16,0.8954305 0.8954305,2.02906125e-16 2,0 Z" opacity=".85"/>
          <g transform="translate(18 12)">
            <text fill="#00AAE7" font-family="PingFangSC-Regular, PingFang SC" font-size="14">
              <tspan x="34" y="17">实时转码</tspan>
            </text>
            <circle cx="10.942" cy="12.158" r="10.942" fill="#00AAE7"/>
            <path fill="#FFF" fill-rule="nonzero" d="M8.56584474,8.85520263 C8.56584474,8.41934211 8.87404737,8.24244474 9.25155,8.45946316 L15.7548079,12.2144289 C16.1323105,12.4314474 16.1323105,12.7888895 15.7548079,13.0059079 L9.25155,16.7608737 C8.87404737,16.9778921 8.56584474,16.8009947 8.56584474,16.3651342 L8.56584474,8.85520263 Z"/>
            <path fill="#00AAE7" fill-rule="nonzero" d="M11.0051968,20.924277 C7.62735244,20.8945999 4.60834351,18.8101447 3.38361939,15.6620082 C2.13509003,12.5064786 2.90082195,8.90994222 5.32647691,6.53667648 C6.09484018,5.79118501 7.0009189,5.20232261 7.99420325,4.80291573 C8.39974172,4.6377567 8.59646,4.17667394 8.43504894,3.76962918 C8.35932721,3.57386812 8.20828104,3.41663824 8.01571404,3.33312704 C7.82314704,3.24961584 7.60513734,3.24679598 7.41047475,3.32529854 C6.2289669,3.80063154 5.15125391,4.50135212 4.23743122,5.3883867 C2.31675972,7.25861442 1.22806874,9.8221238 1.21598284,12.5029044 C1.1999309,15.0894786 2.18380314,17.5822463 3.96212047,19.4605995 C5.09302085,20.651979 6.50442321,21.5409947 8.06738712,22.0464296 L6.195971,22.8009205 C5.81866494,22.98135 5.64523315,23.4229165 5.79889691,23.8118922 C5.95256066,24.200868 6.3809501,24.4046867 6.77969949,24.2785377 L11.2944473,22.4576533 C11.6447173,22.3145415 11.8459121,21.9447086 11.7757732,21.572888 C11.7056343,21.2010674 11.3835324,20.9299472 11.0051968,20.924277 L11.0051968,20.924277 Z M18.2713097,5.64627272 C17.1398345,4.45598888 15.7285746,3.56766185 14.166043,3.0621851 L16.3737564,1.51486897 C16.7510625,1.3344395 16.9244943,0.892872947 16.7708305,0.503897234 C16.6171668,0.114921522 16.1887773,-0.0888972585 15.7900279,0.0372517744 L10.9407253,2.65096144 C10.5896162,2.79423373 10.3878162,3.16480047 10.4579563,3.53747308 C10.5280965,3.91014569 10.8508049,4.18199542 11.2299758,4.18782273 C14.6066021,4.22134433 17.6236656,6.30445632 18.8515532,9.45009152 C19.6670447,11.5097502 19.6388763,13.8076605 18.7731419,15.8467103 C17.9156297,17.8777001 16.2839009,19.4830905 14.2392269,20.3074415 C13.9415811,20.4275363 13.7451299,20.7145836 13.7409421,21.035517 C13.7367544,21.3564504 13.9256488,21.648526 14.2200597,21.7763463 C14.4047618,21.8565001 14.6208285,21.8652124 14.8229554,21.7833162 C17.2587188,20.8029347 19.2020499,18.8903407 20.2211371,16.4705157 C21.7828701,12.795878 21.0171315,8.54496811 18.2713097,5.64627272 L18.2713097,5.64627272 Z"/>
          </g>
        </g>
        <g transform="translate(272 58)">
          <path fill="#FFF" d="M2,0 L124,0 C125.104569,-2.02906125e-16 126,0.8954305 126,2 L126,46 C126,47.1045695 125.104569,48 124,48 L2,48 C0.8954305,48 1.3527075e-16,47.1045695 0,46 L0,2 C-1.3527075e-16,0.8954305 0.8954305,2.02906125e-16 2,0 Z" opacity=".85"/>
          <g fill="#00AAE7" transform="translate(18 13)">
            <text font-family="PingFangSC-Regular, PingFang SC" font-size="14">
              <tspan x="34" y="16">录制回放</tspan>
            </text>
            <path fill-rule="nonzero" d="M11,0 C4.9217064,0 0,4.9272271 0,11 C0,17.0782936 4.9272271,22 11,22 C17.0727729,22 22,17.0782936 22,11 C22,4.9217064 17.0727729,0 11,0 Z M11,16.5013802 C7.9608532,16.5013802 5.50138018,14.0391468 5.50138018,11.0027604 L7.14930991,11.0027604 C7.14930991,13.1282309 8.87452949,14.8534504 11,14.8534504 C13.1254705,14.8534504 14.8506901,13.1254705 14.8506901,11 C14.8506901,8.87452949 13.1254705,7.14930991 11,7.14930991 C10.0780427,7.14930991 9.24165621,7.48883312 8.57917189,8.02710163 L7.40050188,6.84843162 C8.36662484,6.01204517 9.62258469,5.50138018 11,5.50138018 C14.0391468,5.50138018 16.4986198,7.96361355 16.4986198,11 C16.4986198,14.0363864 14.0391468,16.5013802 11,16.5013802 Z M9.07603513,11.1407779 C9.07603513,10.5969887 9.10915935,10.0614806 9.17264743,9.53977415 C9.23889586,8.99322459 9.75508156,8.65922208 10.2188206,8.85796738 C11.0717691,9.22785445 11.872271,9.71091593 12.6010038,10.2933501 C13.0343789,10.638394 13.0343789,11.3478043 12.6010038,11.6928482 C11.8612296,12.2835634 11.0496863,12.7721455 10.182936,13.1420326 C9.70539523,13.3462986 9.18920954,12.9819322 9.13676286,12.4215809 C9.09259724,11.9992472 9.07603513,11.5741531 9.07603513,11.1407779 L9.07603513,11.1407779 Z"/>
          </g>
        </g>
        <g transform="translate(0 116)">
          <path fill="#FFF" d="M2,0 L124,0 C125.104569,-2.02906125e-16 126,0.8954305 126,2 L126,46 C126,47.1045695 125.104569,48 124,48 L2,48 C0.8954305,48 1.3527075e-16,47.1045695 0,46 L0,2 C-1.3527075e-16,0.8954305 0.8954305,2.02906125e-16 2,0 Z" opacity=".85"/>
          <g transform="translate(17 12)">
            <text fill="#39AAEB" font-family="PingFangSC-Regular, PingFang SC" font-size="14">
              <tspan x="36" y="17">RTC</tspan>
            </text>
            <rect width="24" height="24" fill="#FFF"/>
            <rect width="22" height="16" x="1" y="4" fill="#39AAEB" rx="2"/>
            <path fill="#FFF" fill-rule="nonzero" d="M9,8.48845193 C9,8.0525914 9.30820263,7.87569403 9.68570526,8.09271245 L16.1889632,11.8476782 C16.5664658,12.0646967 16.5664658,12.4221388 16.1889632,12.6391572 L9.68570526,16.394123 C9.30820263,16.6111414 9,16.434244 9,15.9983835 L9,8.48845193 Z"/>
          </g>
        </g>
        <g transform="translate(136 116)">
          <path fill="#FFF" d="M2,0 L124,0 C125.104569,-2.02906125e-16 126,0.8954305 126,2 L126,46 C126,47.1045695 125.104569,48 124,48 L2,48 C0.8954305,48 1.3527075e-16,47.1045695 0,46 L0,2 C-1.3527075e-16,0.8954305 0.8954305,2.02906125e-16 2,0 Z" opacity=".85"/>
          <path fill="#00AAE7" fill-rule="nonzero" d="M21.0833333,3.66666667 L11.4583333,3.66666667 L8.70833333,0 L0.916666667,0 C0.410405646,0 0,0.410405646 0,0.916666667 L0,17.4166667 C0,18.9354497 1.23121694,20.1666667 2.75,20.1666667 L19.25,20.1666667 C20.7687831,20.1666667 22,18.9354497 22,17.4166667 L22,4.58333333 C22,4.07707231 21.5895944,3.66666667 21.0833333,3.66666667 Z M16.5,14.2083333 C16.5,15.4739859 15.4739859,16.5 14.2083333,16.5 C12.9426808,16.5 11.9166667,15.4739859 11.9166667,14.2083333 C11.9166667,12.9426808 12.9426808,11.9166667 14.2083333,11.9166667 C14.3622394,11.9169772 14.5157468,11.9323279 14.6666667,11.9625 L14.6666667,8.25 L10.0833333,8.25 L10.0833333,16.0416667 C10.0833333,17.3073192 9.05731922,18.3333333 7.79166667,18.3333333 C6.52601411,18.3333333 5.5,17.3073192 5.5,16.0416667 C5.5,14.7760141 6.52601411,13.75 7.79166667,13.75 C7.94557273,13.7503105 8.09908009,13.7656613 8.25,13.7958333 L8.25,7.33333333 C8.25,6.82707231 8.66040565,6.41666667 9.16666667,6.41666667 L15.5833333,6.41666667 C16.0895944,6.41666667 16.5,6.82707231 16.5,7.33333333 L16.5,14.2083333 Z" transform="translate(18 13)"/>
          <text fill="#39AAEB" font-family="PingFangSC-Regular, PingFang SC" font-size="14" transform="translate(52 14)">
            <tspan x="0" y="15">音频审核</tspan>
          </text>
        </g>
        <g transform="translate(272 116)">
          <path fill="#FFF" d="M2,0 L124,0 C125.104569,-2.02906125e-16 126,0.8954305 126,2 L126,46 C126,47.1045695 125.104569,48 124,48 L2,48 C0.8954305,48 1.3527075e-16,47.1045695 0,46 L0,2 C-1.3527075e-16,0.8954305 0.8954305,2.02906125e-16 2,0 Z" opacity=".85"/>
          <g transform="translate(20 14)">
            <path fill="#00AAE7" d="M18,11.4285714 C18,16.1624406 13.9705627,19.9999999 9,19.9999999 C4.0294373,19.9999999 0,16.1624406 0,11.4285714 L0,1.90476178 L9,-1.34110451e-07 L18,1.90476178 L18,11.4285714 Z"/>
            <polyline stroke="#FFF" stroke-width="2" points="4.5 8.791 7.54 12 13.5 6"/>
          </g>
          <text fill="#39AAEB" font-family="PingFangSC-Regular, PingFang SC" font-size="14">
            <tspan x="52" y="29">内容审核</tspan>
          </text>
        </g>
      </g>
      <g transform="translate(12 278)">
        <rect width="397" height="55" x=".5" y=".5" fill="#E2F5FC" stroke="#00AAE7" rx="2"/>
        <text fill="#00AAE7" font-family="PingFangSC-Medium, PingFang SC" font-size="18" font-weight="400">
          <tspan x="119" y="35">LiveNet 实时网络流</tspan>
        </text>
      </g>
      <g transform="translate(12 202)">
        <path fill="#E2F5FC" stroke="#00AAE7" d="M176,0.5 C176.414214,0.5 176.789214,0.667893219 177.06066,0.939339828 C177.332107,1.21078644 177.5,1.58578644 177.5,2 L177.5,2 L177.5,54 C177.5,54.4142136 177.332107,54.7892136 177.06066,55.0606602 C176.789214,55.3321068 176.414214,55.5 176,55.5 L176,55.5 L2,55.5 C1.58578644,55.5 1.21078644,55.3321068 0.939339828,55.0606602 C0.667893219,54.7892136 0.5,54.4142136 0.5,54 L0.5,54 L0.5,2 C0.5,1.58578644 0.667893219,1.21078644 0.939339828,0.939339828 C1.21078644,0.667893219 1.58578644,0.5 2,0.5 L2,0.5 Z"/>
        <g transform="translate(59 18)">
          <rect width="20" height="6" fill="#00AAE7"/>
          <rect width="20" height="6" y="7" fill="#00AAE7"/>
          <rect width="20" height="6" y="14" fill="#00AAE7"/>
          <line x1="4" x2="7" y1="3" y2="3" stroke="#FFF" stroke-linecap="square" stroke-width="2"/>
          <line x1="4" x2="7" y1="10" y2="10" stroke="#FFF" stroke-linecap="square" stroke-width="2"/>
          <line x1="4" x2="7" y1="17" y2="17" stroke="#FFF" stroke-linecap="square" stroke-width="2"/>
          <text fill="#00AAE7" font-family="PingFangSC-Regular, PingFang SC" font-size="14">
            <tspan x="32" y="15">存储</tspan>
          </text>
        </g>
        <path fill="#1AB9EB" fill-rule="nonzero" d="M202.5,24 L211.5,28.5 L202.5,33 L202.5,29 L187,29 L187,28 L202.5,28 L202.5,24 Z"/>
        <g transform="translate(220)">
          <path fill="#E2F5FC" stroke="#00AAE7" d="M176,0.5 C176.414214,0.5 176.789214,0.667893219 177.06066,0.939339828 C177.332107,1.21078644 177.5,1.58578644 177.5,2 L177.5,2 L177.5,54 C177.5,54.4142136 177.332107,54.7892136 177.06066,55.0606602 C176.789214,55.3321068 176.414214,55.5 176,55.5 L176,55.5 L2,55.5 C1.58578644,55.5 1.21078644,55.3321068 0.939339828,55.0606602 C0.667893219,54.7892136 0.5,54.4142136 0.5,54 L0.5,54 L0.5,2 C0.5,1.58578644 0.667893219,1.21078644 0.939339828,0.939339828 C1.21078644,0.667893219 1.58578644,0.5 2,0.5 L2,0.5 Z"/>
          <g transform="translate(57 17)">
            <polygon fill="#00AAE7" stroke="#00AAE7" stroke-width="2" points="10.993 .561 20.086 5.811 20.086 16.311 10.993 21.561 1.9 16.311 1.9 5.811"/>
            <polygon stroke="#FFF" stroke-width="2" points="7 8 7 12.986 11.5 15.5 11.5 10.5"/>
            <polyline stroke="#FFF" stroke-linecap="square" stroke-width="2" points="10.324 6 14.824 8.511 14.824 13.5"/>
            <text fill="#00AAE7" font-family="PingFangSC-Regular, PingFang SC" font-size="14">
              <tspan x="34" y="16">CDN</tspan>
            </text>
          </g>
        </g>
      </g>
    </g>
    <g transform="translate(902 242)">
      <path fill="#28B8BB" d="M2,0 L198,0 C199.104569,-2.02906125e-16 200,0.8954305 200,2 L200,352 C200,353.104569 199.104569,354 198,354 L2,354 C0.8954305,354 1.3527075e-16,353.104569 0,352 L0,2 C-1.3527075e-16,0.8954305 0.8954305,2.02906125e-16 2,0 Z" opacity=".11"/>
      <rect width="200" height="44" fill="#28B8BB" fill-opacity=".85"/>
      <text fill="#FFF" font-family="PingFangSC-Medium, PingFang SC" font-size="18" font-weight="400">
        <tspan x="73" y="28">播放端</tspan>
      </text>
      <g transform="translate(15 111)">
        <polygon fill="#FFF" points="0 0 170 0 170 227 0 227" opacity=".85"/>
        <g transform="translate(14 8)">
          <text fill="#28B8BB" font-family="PingFangSC-Medium, PingFang SC" font-size="18" font-weight="400">
            <tspan x="31" y="19">播放 SDK</tspan>
          </text>
          <g transform="translate(0 34)">
            <path fill="#E7F7F8" stroke="#28B8BB" d="M140,0.5 C140.414214,0.5 140.789214,0.667893219 141.06066,0.939339828 C141.332107,1.21078644 141.5,1.58578644 141.5,2 L141.5,2 L141.5,34 C141.5,34.4142136 141.332107,34.7892136 141.06066,35.0606602 C140.789214,35.3321068 140.414214,35.5 140,35.5 L140,35.5 L2,35.5 C1.58578644,35.5 1.21078644,35.3321068 0.939339828,35.0606602 C0.667893219,34.7892136 0.5,34.4142136 0.5,34 L0.5,34 L0.5,2 C0.5,1.58578644 0.667893219,1.21078644 0.939339828,0.939339828 C1.21078644,0.667893219 1.58578644,0.5 2,0.5 L2,0.5 Z"/>
            <text fill="#28B8BB" font-family="PingFangSC-Regular, PingFang SC" font-size="14">
              <tspan x="43" y="23">高效解码</tspan>
            </text>
          </g>
          <g transform="translate(0 76)">
            <path fill="#E7F7F8" stroke="#28B8BB" d="M140,0.5 C140.414214,0.5 140.789214,0.667893219 141.06066,0.939339828 C141.332107,1.21078644 141.5,1.58578644 141.5,2 L141.5,2 L141.5,34 C141.5,34.4142136 141.332107,34.7892136 141.06066,35.0606602 C140.789214,35.3321068 140.414214,35.5 140,35.5 L140,35.5 L2,35.5 C1.58578644,35.5 1.21078644,35.3321068 0.939339828,35.0606602 C0.667893219,34.7892136 0.5,34.4142136 0.5,34 L0.5,34 L0.5,2 C0.5,1.58578644 0.667893219,1.21078644 0.939339828,0.939339828 C1.21078644,0.667893219 1.58578644,0.5 2,0.5 L2,0.5 Z"/>
            <text fill="#28B8BB" font-family="PingFangSC-Regular, PingFang SC" font-size="14">
              <tspan x="43" y="23">硬件加速</tspan>
            </text>
          </g>
          <g transform="translate(0 118)">
            <path fill="#E7F7F8" stroke="#28B8BB" d="M140,0.5 C140.414214,0.5 140.789214,0.667893219 141.06066,0.939339828 C141.332107,1.21078644 141.5,1.58578644 141.5,2 L141.5,2 L141.5,34 C141.5,34.4142136 141.332107,34.7892136 141.06066,35.0606602 C140.789214,35.3321068 140.414214,35.5 140,35.5 L140,35.5 L2,35.5 C1.58578644,35.5 1.21078644,35.3321068 0.939339828,35.0606602 C0.667893219,34.7892136 0.5,34.4142136 0.5,34 L0.5,34 L0.5,2 C0.5,1.58578644 0.667893219,1.21078644 0.939339828,0.939339828 C1.21078644,0.667893219 1.58578644,0.5 2,0.5 L2,0.5 Z"/>
            <text fill="#28B8BB" font-family="PingFangSC-Regular, PingFang SC" font-size="14">
              <tspan x="43" y="23">首屏秒开</tspan>
            </text>
          </g>
          <g transform="translate(0 160)">
            <path fill="#E7F7F8" stroke="#28B8BB" d="M140,0.5 C140.414214,0.5 140.789214,0.667893219 141.06066,0.939339828 C141.332107,1.21078644 141.5,1.58578644 141.5,2 L141.5,2 L141.5,34 C141.5,34.4142136 141.332107,34.7892136 141.06066,35.0606602 C140.789214,35.3321068 140.414214,35.5 140,35.5 L140,35.5 L2,35.5 C1.58578644,35.5 1.21078644,35.3321068 0.939339828,35.0606602 C0.667893219,34.7892136 0.5,34.4142136 0.5,34 L0.5,34 L0.5,2 C0.5,1.58578644 0.667893219,1.21078644 0.939339828,0.939339828 C1.21078644,0.667893219 1.58578644,0.5 2,0.5 L2,0.5 Z"/>
            <text fill="#28B8BB" font-family="PingFangSC-Regular, PingFang SC" font-size="14">
              <tspan x="43" y="23">动态追帧</tspan>
            </text>
          </g>
          <g fill-rule="nonzero" transform="translate(63 200)">
            <rect width="16" height="16" fill="#000" opacity="0"/>
            <path fill="#28B8BB" d="M0,8 C0,9.00414753 0.814022408,9.81816994 1.81816994,9.81816994 C2.82231747,9.81816994 3.63633987,9.00414753 3.63633987,8 C3.63633987,6.99585247 2.82231747,6.18183006 1.81816994,6.18183006 C0.814022408,6.18183006 0,6.99585247 0,8 Z M6.18183006,8 C6.18183006,8.64956956 6.52837128,9.2497966 7.09091502,9.57458139 C7.65345876,9.89936617 8.34654124,9.89936617 8.90908498,9.57458139 C9.47162872,9.2497966 9.81816994,8.64956956 9.81816994,8 C9.81816994,6.99585247 9.00414753,6.18183006 8,6.18183006 C6.99585247,6.18183006 6.18183006,6.99585247 6.18183006,8 L6.18183006,8 Z M12.3636601,8 C12.3636601,9.00414753 13.1776825,9.81816994 14.1818301,9.81816994 C15.1859776,9.81816994 16,9.00414753 16,8 C16,6.99585247 15.1859776,6.18183006 14.1818301,6.18183006 C13.1776825,6.18183006 12.3636601,6.99585247 12.3636601,8 Z"/>
          </g>
        </g>
      </g>
      <g transform="translate(17 54)">
        <text fill="#28B8BB" font-family="PingFangSC-Regular, PingFang SC" font-size="16">
          <tspan x="0" y="42">安卓</tspan>
        </text>
        <g fill-rule="nonzero" transform="translate(4)">
          <rect width="24" height="24" fill="#000" opacity="0"/>
          <path fill="#28B8BB" d="M19.889116,8.25588864 C19.1818423,8.25588864 18.5959323,8.81588948 18.5959323,9.49589049 L18.5959323,14.3181704 C18.5959323,14.9981714 19.1618422,15.5586268 19.889116,15.5586268 C20.5959323,15.5586268 21.1818452,14.9981714 21.1818452,14.3177159 L21.1818452,9.49634503 C21.1618452,8.81634401 20.5959323,8.25634318 19.889116,8.2563432 L19.889116,8.25588864 Z M4.29272921,8.25588864 C3.58636452,8.25588864 3,8.81588948 3,9.49543594 L3,14.3181704 C3,14.9981714 3.56545538,15.5586268 4.29272921,15.5586268 C5.02000301,15.5586268 5.58591294,14.9981714 5.58591294,14.3177159 L5.58591294,9.49634503 C5.58591294,8.81634401 5.02000299,8.25634318 4.29272921,8.2563432 L4.29272921,8.25588864 Z M6.37364138,8.29588871 L6.37364138,17.1186291 C6.37364138,17.6386299 6.8181875,18.0786305 7.38364289,18.0786305 L8.5354628,18.0786305 L8.5354628,20.7595436 C8.5354628,21.4399992 9.10091818,22 9.82819198,22 C10.5354658,22 11.1213757,21.4399992 11.1213757,20.7595436 L11.1213757,18.0786305 L13.1413787,18.0786305 L13.1413787,20.7595436 C13.1413787,21.4399992 13.7072887,22 14.4345625,22 C15.1409272,22 15.7272917,21.4399992 15.7272917,20.7595436 L15.7272917,18.0786305 L16.878657,18.0786305 C17.444567,18.0786305 17.8891131,17.6586299 17.8891131,17.1186291 L17.8891131,8.29543417 L6.37364138,8.29543417 L6.37364138,8.29588871 Z M14.8181994,3.73406374 L15.8891101,2.29360704 C15.9291102,2.19360689 15.9291102,2.07360671 15.8282009,2.03360666 C15.7472917,1.97360658 15.6263824,2.01360664 15.5654732,2.09360675 L14.4745625,3.59406353 C13.7099386,3.31856362 12.9036612,3.17649643 12.0909226,3.17406291 C11.242285,3.17406291 10.4345565,3.31406311 9.7072827,3.59406353 L8.616372,2.09406129 C8.55546282,1.99406114 8.43455353,1.97360656 8.35364433,2.03360666 C8.27181091,2.09487193 8.25366924,2.21017228 8.31273518,2.29360704 L9.38364586,3.73451828 C7.70727973,4.47451938 6.51545978,5.87497601 6.37364138,7.515433 L17.869113,7.515433 C17.6872946,5.87452148 16.5150201,4.4745194 14.8181994,3.73406374 L14.8181994,3.73406374 Z M9.6668281,6.01497622 C9.3031912,6.01497622 9.04046354,5.75497583 9.04046354,5.41497533 C9.04046354,5.07452027 9.32319124,4.81497443 9.6668281,4.81497443 C10.030465,4.81497443 10.2927381,5.07452027 10.2927381,5.41497533 C10.2927381,5.75497583 10.0100104,6.01497622 9.6668281,6.01497622 Z M14.5959264,6.01497622 C14.2322895,6.01497622 13.9695618,5.75497583 13.9695618,5.41497533 C13.9695618,5.07452027 14.252744,4.81497443 14.5959264,4.81497443 C14.9595633,4.81497443 15.2222909,5.07452027 15.2222909,5.41497533 C15.2222909,5.75497583 14.9395632,6.01497622 14.5959264,6.01497622 Z"/>
        </g>
        <g transform="translate(75)">
          <text fill="#28B8BB" font-family="PingFangSC-Regular, PingFang SC" font-size="16">
            <tspan x="0" y="42">iOS</tspan>
          </text>
          <g fill-rule="nonzero" transform="translate(1)">
            <rect width="24" height="24" fill="#000" opacity="0"/>
            <path fill="#28B8BB" d="M15.2680129,5.22015971 C15.9168721,4.38431208 16.4084691,3.20419349 16.2313758,2 C15.1688162,2.07365285 13.929204,2.75085102 13.2067124,3.63201249 C12.5464891,4.4310541 12.0039063,5.61825234 12.2150105,6.7714601 C13.376726,6.80828653 14.5724117,6.11552129 15.2680129,5.22015971 Z M21,16.5524565 C20.5353138,17.5823927 20.3129066,18.0442225 19.7150536,18.9565794 C18.8791652,20.231651 17.7033107,21.8183496 16.2455147,21.8296934 C14.9506324,21.8438527 14.6162974,20.9853175 12.8595851,20.9952331 C11.1028728,21.0051487 10.7345474,21.8466886 9.43823683,21.8340606 C7.98046128,21.819737 6.86691588,20.3888723 6.03247602,19.1138619 C3.69917007,15.5522467 3.45409582,11.3715396 4.8920402,9.14730516 C5.91630446,7.56909394 7.52995475,6.64682153 9.04722385,6.64682153 C10.5914446,6.64682153 11.5618872,7.49542069 12.8411821,7.49542069 C14.0807942,7.49542069 14.835889,6.64539335 16.6209402,6.64539335 C17.9725006,6.64539335 19.4047935,7.38210547 20.4247937,8.65713627 C17.0827701,10.4917655 17.623986,15.2731412 21,16.5538439 L21,16.5524565 L21,16.5524565 L21,16.5524565 Z"/>
          </g>
        </g>
        <g transform="translate(144)">
          <text fill="#28B8BB" font-family="PingFangSC-Regular, PingFang SC" font-size="16">
            <tspan x="1" y="42">H5</tspan>
          </text>
          <g fill-rule="nonzero">
            <rect width="24" height="24" fill="#000" opacity="0"/>
            <path fill="#28B8BB" d="M3.57105881,2.44101698 L5.10469901,19.6475749 L11.9894471,21.558983 L18.8921591,19.6449607 L20.4289172,2.44101698 L3.57144255,2.44101698 L3.57105881,2.44101698 L3.57105881,2.44101698 Z M17.0897332,8.0685855 L9.01433627,8.0685855 L9.20668587,10.2296643 L16.898151,10.2296643 L16.318512,16.7083437 L11.9898309,17.9078185 L7.66647413,16.7083437 L7.37099447,13.3941028 L9.4899818,13.3941028 L9.64026391,15.0787686 L11.9901907,15.7119153 L11.995539,15.7104043 L14.3466889,15.0757706 L14.5906515,12.3394658 L7.27683431,12.3394658 L6.70758026,5.95830427 L17.2786051,5.95830427 L17.0897332,8.0685855 L17.0897332,8.0685855 L17.0897332,8.0685855 Z"/>
          </g>
        </g>
      </g>
    </g>
    <path fill="#28B8BB" d="M2,0 L198,0 C199.104569,-2.02906125e-16 200,0.8954305 200,2 L200,332 C200,333.104569 199.104569,334 198,334 L2,334 C0.8954305,334 1.3527075e-16,333.104569 0,332 L0,2 C-1.3527075e-16,0.8954305 0.8954305,2.02906125e-16 2,0 Z" opacity=".11"/>
    <rect width="200" height="44" y="1" fill="#28B8BB" fill-opacity=".85"/>
    <path fill="#FFF" d="M17,105 L183,105 C184.104569,105 185,105.895431 185,107 L185,314 C185,315.104569 184.104569,316 183,316 L17,316 C15.8954305,316 15,315.104569 15,314 L15,107 C15,105.895431 15.8954305,105 17,105 Z" opacity=".85"/>
    <text fill="#28B8BB" font-family="PingFangSC-Medium, PingFang SC" font-size="16" font-weight="400">
      <tspan x="65" y="129">推流 SDK</tspan>
    </text>
    <g transform="translate(36 141)">
      <path fill="#E7F7F8" stroke="#28B8BB" d="M126,0.5 C126.414214,0.5 126.789214,0.667893219 127.06066,0.939339828 C127.332107,1.21078644 127.5,1.58578644 127.5,2 L127.5,2 L127.5,34 C127.5,34.4142136 127.332107,34.7892136 127.06066,35.0606602 C126.789214,35.3321068 126.414214,35.5 126,35.5 L126,35.5 L2,35.5 C1.58578644,35.5 1.21078644,35.3321068 0.939339828,35.0606602 C0.667893219,34.7892136 0.5,34.4142136 0.5,34 L0.5,34 L0.5,2 C0.5,1.58578644 0.667893219,1.21078644 0.939339828,0.939339828 C1.21078644,0.667893219 1.58578644,0.5 2,0.5 L2,0.5 Z"/>
      <text fill="#28B8BB" font-family="PingFangSC-Regular, PingFang SC" font-size="14">
        <tspan x="29" y="23">音视频采集</tspan>
      </text>
      <g transform="translate(0 42)">
        <path fill="#E7F7F8" stroke="#28B8BB" d="M126,0.5 C126.414214,0.5 126.789214,0.667893219 127.06066,0.939339828 C127.332107,1.21078644 127.5,1.58578644 127.5,2 L127.5,2 L127.5,33 C127.5,33.4142136 127.332107,33.7892136 127.06066,34.0606602 C126.789214,34.3321068 126.414214,34.5 126,34.5 L126,34.5 L2,34.5 C1.58578644,34.5 1.21078644,34.3321068 0.939339828,34.0606602 C0.667893219,33.7892136 0.5,33.4142136 0.5,33 L0.5,33 L0.5,2 C0.5,1.58578644 0.667893219,1.21078644 0.939339828,0.939339828 C1.21078644,0.667893219 1.58578644,0.5 2,0.5 L2,0.5 Z"/>
        <text fill="#28B8BB" font-family="PingFangSC-Regular, PingFang SC" font-size="14">
          <tspan x="36" y="22">美颜滤镜</tspan>
        </text>
      </g>
      <g transform="translate(0 83)">
        <path fill="#E7F7F8" stroke="#28B8BB" d="M126,0.5 C126.414214,0.5 126.789214,0.667893219 127.06066,0.939339828 C127.332107,1.21078644 127.5,1.58578644 127.5,2 L127.5,2 L127.5,33 C127.5,33.4142136 127.332107,33.7892136 127.06066,34.0606602 C126.789214,34.3321068 126.414214,34.5 126,34.5 L126,34.5 L2,34.5 C1.58578644,34.5 1.21078644,34.3321068 0.939339828,34.0606602 C0.667893219,33.7892136 0.5,33.4142136 0.5,33 L0.5,33 L0.5,2 C0.5,1.58578644 0.667893219,1.21078644 0.939339828,0.939339828 C1.21078644,0.667893219 1.58578644,0.5 2,0.5 L2,0.5 Z"/>
        <text fill="#28B8BB" font-family="PingFangSC-Regular, PingFang SC" font-size="14">
          <tspan x="36" y="23">编码压缩</tspan>
        </text>
      </g>
      <g transform="translate(0 124)">
        <path fill="#E7F7F8" stroke="#28B8BB" d="M126,0.5 C126.414214,0.5 126.789214,0.667893219 127.06066,0.939339828 C127.332107,1.21078644 127.5,1.58578644 127.5,2 L127.5,2 L127.5,34 C127.5,34.4142136 127.332107,34.7892136 127.06066,35.0606602 C126.789214,35.3321068 126.414214,35.5 126,35.5 L126,35.5 L2,35.5 C1.58578644,35.5 1.21078644,35.3321068 0.939339828,35.0606602 C0.667893219,34.7892136 0.5,34.4142136 0.5,34 L0.5,34 L0.5,2 C0.5,1.58578644 0.667893219,1.21078644 0.939339828,0.939339828 C1.21078644,0.667893219 1.58578644,0.5 2,0.5 L2,0.5 Z"/>
        <text fill="#28B8BB" font-family="PingFangSC-Regular, PingFang SC" font-size="14">
          <tspan x="36" y="23">推流传输</tspan>
        </text>
      </g>
    </g>
    <text fill="#FFF" font-family="PingFangSC-Medium, PingFang SC" font-size="18" font-weight="400">
      <tspan x="73" y="29">采集端</tspan>
    </text>
    <g transform="translate(16 51)">
      <text fill="#28B8BB" font-family="PingFangSC-Regular, PingFang SC" font-size="14">
        <tspan x="0" y="41">安卓</tspan>
      </text>
      <text fill="#28B8BB" font-family="PingFangSC-Regular, PingFang SC" font-size="14">
        <tspan x="53" y="41">iOS</tspan>
      </text>
      <g fill-rule="nonzero" transform="translate(52)">
        <rect width="24" height="24" fill="#000" opacity="0"/>
        <path fill="#28B8BB" d="M15.2680129,5.22015971 C15.9168721,4.38431208 16.4084691,3.20419349 16.2313758,2 C15.1688162,2.07365285 13.929204,2.75085102 13.2067124,3.63201249 C12.5464891,4.4310541 12.0039063,5.61825234 12.2150105,6.7714601 C13.376726,6.80828653 14.5724117,6.11552129 15.2680129,5.22015971 Z M21,16.5524565 C20.5353138,17.5823927 20.3129066,18.0442225 19.7150536,18.9565794 C18.8791652,20.231651 17.7033107,21.8183496 16.2455147,21.8296934 C14.9506324,21.8438527 14.6162974,20.9853175 12.8595851,20.9952331 C11.1028728,21.0051487 10.7345474,21.8466886 9.43823683,21.8340606 C7.98046128,21.819737 6.86691588,20.3888723 6.03247602,19.1138619 C3.69917007,15.5522467 3.45409582,11.3715396 4.8920402,9.14730516 C5.91630446,7.56909394 7.52995475,6.64682153 9.04722385,6.64682153 C10.5914446,6.64682153 11.5618872,7.49542069 12.8411821,7.49542069 C14.0807942,7.49542069 14.835889,6.64539335 16.6209402,6.64539335 C17.9725006,6.64539335 19.4047935,7.38210547 20.4247937,8.65713627 C17.0827701,10.4917655 17.623986,15.2731412 21,16.5538439 L21,16.5524565 L21,16.5524565 L21,16.5524565 Z"/>
      </g>
      <g fill-rule="nonzero" transform="translate(2)">
        <rect width="24" height="24" fill="#000" opacity="0"/>
        <path fill="#28B8BB" d="M19.889116,8.25588864 C19.1818423,8.25588864 18.5959323,8.81588948 18.5959323,9.49589049 L18.5959323,14.3181704 C18.5959323,14.9981714 19.1618422,15.5586268 19.889116,15.5586268 C20.5959323,15.5586268 21.1818452,14.9981714 21.1818452,14.3177159 L21.1818452,9.49634503 C21.1618452,8.81634401 20.5959323,8.25634318 19.889116,8.2563432 L19.889116,8.25588864 Z M4.29272921,8.25588864 C3.58636452,8.25588864 3,8.81588948 3,9.49543594 L3,14.3181704 C3,14.9981714 3.56545538,15.5586268 4.29272921,15.5586268 C5.02000301,15.5586268 5.58591294,14.9981714 5.58591294,14.3177159 L5.58591294,9.49634503 C5.58591294,8.81634401 5.02000299,8.25634318 4.29272921,8.2563432 L4.29272921,8.25588864 Z M6.37364138,8.29588871 L6.37364138,17.1186291 C6.37364138,17.6386299 6.8181875,18.0786305 7.38364289,18.0786305 L8.5354628,18.0786305 L8.5354628,20.7595436 C8.5354628,21.4399992 9.10091818,22 9.82819198,22 C10.5354658,22 11.1213757,21.4399992 11.1213757,20.7595436 L11.1213757,18.0786305 L13.1413787,18.0786305 L13.1413787,20.7595436 C13.1413787,21.4399992 13.7072887,22 14.4345625,22 C15.1409272,22 15.7272917,21.4399992 15.7272917,20.7595436 L15.7272917,18.0786305 L16.878657,18.0786305 C17.444567,18.0786305 17.8891131,17.6586299 17.8891131,17.1186291 L17.8891131,8.29543417 L6.37364138,8.29543417 L6.37364138,8.29588871 Z M14.8181994,3.73406374 L15.8891101,2.29360704 C15.9291102,2.19360689 15.9291102,2.07360671 15.8282009,2.03360666 C15.7472917,1.97360658 15.6263824,2.01360664 15.5654732,2.09360675 L14.4745625,3.59406353 C13.7099386,3.31856362 12.9036612,3.17649643 12.0909226,3.17406291 C11.242285,3.17406291 10.4345565,3.31406311 9.7072827,3.59406353 L8.616372,2.09406129 C8.55546282,1.99406114 8.43455353,1.97360656 8.35364433,2.03360666 C8.27181091,2.09487193 8.25366924,2.21017228 8.31273518,2.29360704 L9.38364586,3.73451828 C7.70727973,4.47451938 6.51545978,5.87497601 6.37364138,7.515433 L17.869113,7.515433 C17.6872946,5.87452148 16.5150201,4.4745194 14.8181994,3.73406374 L14.8181994,3.73406374 Z M9.6668281,6.01497622 C9.3031912,6.01497622 9.04046354,5.75497583 9.04046354,5.41497533 C9.04046354,5.07452027 9.32319124,4.81497443 9.6668281,4.81497443 C10.030465,4.81497443 10.2927381,5.07452027 10.2927381,5.41497533 C10.2927381,5.75497583 10.0100104,6.01497622 9.6668281,6.01497622 Z M14.5959264,6.01497622 C14.2322895,6.01497622 13.9695618,5.75497583 13.9695618,5.41497533 C13.9695618,5.07452027 14.252744,4.81497443 14.5959264,4.81497443 C14.9595633,4.81497443 15.2222909,5.07452027 15.2222909,5.41497533 C15.2222909,5.75497583 14.9395632,6.01497622 14.5959264,6.01497622 Z"/>
      </g>
      <g transform="translate(97)">
        <rect width="24" height="24" x="22" fill="#000" fill-rule="nonzero" opacity="0"/>
        <path fill="#28B8BB" fill-rule="nonzero" d="M35.8867187,9.1828125 C35.3546875,8.65078125 34.7335937,8.3953125 34,8.3953125 C33.2664062,8.3953125 32.6453125,8.65078125 32.1132812,9.1828125 C31.58125,9.69609375 31.3257812,10.3171875 31.3257812,11.0507812 C31.3257812,11.784375 31.58125,12.4054687 32.1132812,12.91875 C32.6429687,13.4320312 33.2664062,13.6875 34,13.6875 C34.7335937,13.6875 35.3546875,13.4320312 35.8867187,12.91875 C36.41875,12.4054687 36.6742187,11.784375 36.6742187,11.0507812 C36.6742187,10.3171875 36.4164062,9.69609375 35.8867187,9.1828125 L35.8867187,9.1828125 Z M35.8867187,9.1828125 C35.3546875,8.65078125 34.7335937,8.3953125 34,8.3953125 C33.2664062,8.3953125 32.6453125,8.65078125 32.1132812,9.1828125 C31.58125,9.69609375 31.3257812,10.3171875 31.3257812,11.0507812 C31.3257812,11.784375 31.58125,12.4054687 32.1132812,12.91875 C32.6429687,13.4320312 33.2664062,13.6875 34,13.6875 C34.7335937,13.6875 35.3546875,13.4320312 35.8867187,12.91875 C36.41875,12.4054687 36.6742187,11.784375 36.6742187,11.0507812 C36.6742187,10.3171875 36.4164062,9.69609375 35.8867187,9.1828125 L35.8867187,9.1828125 Z M35.8867187,9.1828125 C35.3546875,8.65078125 34.7335937,8.3953125 34,8.3953125 C33.2664062,8.3953125 32.6453125,8.65078125 32.1132812,9.1828125 C31.58125,9.69609375 31.3257812,10.3171875 31.3257812,11.0507812 C31.3257812,11.784375 31.58125,12.4054687 32.1132812,12.91875 C32.6429687,13.4320312 33.2664062,13.6875 34,13.6875 C34.7335937,13.6875 35.3546875,13.4320312 35.8867187,12.91875 C36.41875,12.4054687 36.6742187,11.784375 36.6742187,11.0507812 C36.6742187,10.3171875 36.4164062,9.69609375 35.8867187,9.1828125 L35.8867187,9.1828125 Z"/>
        <path fill="#28B8BB" fill-rule="nonzero" d="M40.9398438,15.0421875 C41.6546875,13.8164062 42.0203125,12.496875 42.0203125,11.0507812 C42.0203125,9.6046875 41.6546875,8.28515625 40.9398438,7.059375 C40.225,5.83125 39.2359375,4.8796875 38.0101563,4.1671875 C36.7820313,3.45234375 35.4460938,3.10546875 34,3.10546875 C32.5539063,3.10546875 31.1992188,3.45234375 29.9710938,4.1671875 C28.7453125,4.88203125 27.7726563,5.83359375 27.0601563,7.059375 C26.3453125,8.28515625 25.9796875,9.6046875 25.9796875,11.0507812 C25.9796875,12.496875 26.3453125,13.8164062 27.0601563,15.0421875 C27.6507813,16.0570312 28.4171875,16.884375 29.359375,17.5429688 C28.1992188,17.8992188 27.484375,18.3867188 27.484375,18.9257812 C27.484375,20.0132813 30.4023438,20.8945312 34,20.8945312 C37.5976563,20.8945312 40.515625,20.0132813 40.515625,18.9257812 C40.515625,18.384375 39.7960938,17.896875 38.6289063,17.540625 C39.5734375,16.8820312 40.3492188,16.0570313 40.9398438,15.0421875 Z M30.9414063,8.0296875 C31.7828125,7.18828125 32.809375,6.76640625 34,6.76640625 C35.190625,6.76640625 36.2148438,7.18828125 37.0585938,8.0296875 C37.9,8.8546875 38.321875,9.86015625 38.321875,11.0507812 C38.321875,12.2414062 37.9,13.2492188 37.0585938,14.071875 C36.2171875,14.896875 35.190625,15.3164062 34,15.3164062 C32.809375,15.3164062 31.7851563,14.8945312 30.9414063,14.071875 C30.1,13.246875 29.678125,12.2414062 29.678125,11.0507812 C29.678125,9.8625 30.1,8.8546875 30.9414063,8.0296875 Z"/>
        <text fill="#28B8BB" font-family="PingFangSC-Regular, PingFang SC" font-size="14">
          <tspan x="0" y="41">IP Camera</tspan>
        </text>
      </g>
    </g>
    <g transform="translate(0 346)">
      <path fill="#28B8BB" d="M2,0 L198,0 C199.104569,-1.58997828e-14 200,0.8954305 200,2 L200,248 C200,249.104569 199.104569,250 198,250 L2,250 C0.8954305,250 1.3527075e-16,249.104569 0,248 L0,2 C-1.3527075e-16,0.8954305 0.8954305,2.02906125e-16 2,0 Z" opacity=".11"/>
      <path fill="#FFF" d="M17,17 L183,17 C184.104569,17 185,17.8954305 185,19 L185,231 C185,232.104569 184.104569,233 183,233 L17,233 C15.8954305,233 15,232.104569 15,231 L15,19 C15,17.8954305 15.8954305,17 17,17 Z" opacity=".85"/>
      <text fill="#28B8BB" font-family="PingFangSC-Medium, PingFang SC" font-size="16" font-weight="400">
        <tspan x="68" y="42">云导播台</tspan>
      </text>
      <path fill="#E7F7F8" stroke="#28B8BB" d="M162 54.5C162.414214 54.5 162.789214 54.6678932 163.06066 54.9393398 163.332107 55.2107864 163.5 55.5857864 163.5 56L163.5 56 163.5 88C163.5 88.4142136 163.332107 88.7892136 163.06066 89.0606602 162.789214 89.3321068 162.414214 89.5 162 89.5L162 89.5 38 89.5C37.5857864 89.5 37.2107864 89.3321068 36.9393398 89.0606602 36.6678932 88.7892136 36.5 88.4142136 36.5 88L36.5 88 36.5 56C36.5 55.5857864 36.6678932 55.2107864 36.9393398 54.9393398 37.2107864 54.6678932 37.5857864 54.5 38 54.5L38 54.5zM162 96.5C162.414214 96.5 162.789214 96.6678932 163.06066 96.9393398 163.332107 97.2107864 163.5 97.5857864 163.5 98L163.5 98 163.5 130C163.5 130.414214 163.332107 130.789214 163.06066 131.06066 162.789214 131.332107 162.414214 131.5 162 131.5L162 131.5 38 131.5C37.5857864 131.5 37.2107864 131.332107 36.9393398 131.06066 36.6678932 130.789214 36.5 130.414214 36.5 130L36.5 130 36.5 98C36.5 97.5857864 36.6678932 97.2107864 36.9393398 96.9393398 37.2107864 96.6678932 37.5857864 96.5 38 96.5L38 96.5zM162 138.5C162.414214 138.5 162.789214 138.667893 163.06066 138.93934 163.332107 139.210786 163.5 139.585786 163.5 140L163.5 140 163.5 172C163.5 172.414214 163.332107 172.789214 163.06066 173.06066 162.789214 173.332107 162.414214 173.5 162 173.5L162 173.5 38 173.5C37.5857864 173.5 37.2107864 173.332107 36.9393398 173.06066 36.6678932 172.789214 36.5 172.414214 36.5 172L36.5 172 36.5 140C36.5 139.585786 36.6678932 139.210786 36.9393398 138.93934 37.2107864 138.667893 37.5857864 138.5 38 138.5L38 138.5z"/>
      <text fill="#28B8BB" font-family="PingFangSC-Regular, PingFang SC" font-size="14">
        <tspan x="79" y="77">直播流</tspan>
      </text>
      <text fill="#28B8BB" font-family="PingFangSC-Regular, PingFang SC" font-size="14">
        <tspan x="86" y="119">图片</tspan>
      </text>
      <text fill="#28B8BB" font-family="PingFangSC-Regular, PingFang SC" font-size="14">
        <tspan x="65" y="161">音视频文件</tspan>
      </text>
      <path fill="#E7F7F8" stroke="#28B8BB" d="M162,180.5 C162.414214,180.5 162.789214,180.667893 163.06066,180.93934 C163.332107,181.210786 163.5,181.585786 163.5,182 L163.5,182 L163.5,214 C163.5,214.414214 163.332107,214.789214 163.06066,215.06066 C162.789214,215.332107 162.414214,215.5 162,215.5 L162,215.5 L38,215.5 C37.5857864,215.5 37.2107864,215.332107 36.9393398,215.06066 C36.6678932,214.789214 36.5,214.414214 36.5,214 L36.5,214 L36.5,182 C36.5,181.585786 36.6678932,181.210786 36.9393398,180.93934 C37.2107864,180.667893 37.5857864,180.5 38,180.5 L38,180.5 L162,180.5 Z"/>
      <text fill="#28B8BB" font-family="PingFangSC-Regular, PingFang SC" font-size="14">
        <tspan x="72" y="203">文字水印</tspan>
      </text>
      <g fill-rule="nonzero" transform="translate(92 217)">
        <rect width="16" height="16" fill="#000" opacity="0"/>
        <path fill="#28B8BB" d="M0,7.81816994 C0,8.82231747 0.814022408,9.63633988 1.81816994,9.63633988 C2.82231747,9.63633988 3.63633987,8.82231747 3.63633987,7.81816994 C3.63633987,6.81402241 2.82231747,6 1.81816994,6 C0.814022408,6 0,6.81402241 0,7.81816994 Z M6.18183006,7.81816994 C6.18183006,8.4677395 6.52837128,9.06796654 7.09091502,9.39275132 C7.65345876,9.71753611 8.34654124,9.71753611 8.90908498,9.39275132 C9.47162872,9.06796654 9.81816994,8.4677395 9.81816994,7.81816994 C9.81816994,6.81402241 9.00414753,6 8,6 C6.99585247,6 6.18183006,6.81402241 6.18183006,7.81816994 L6.18183006,7.81816994 Z M12.3636601,7.81816994 C12.3636601,8.82231747 13.1776825,9.63633988 14.1818301,9.63633988 C15.1859776,9.63633988 16,8.82231747 16,7.81816994 C16,6.81402241 15.1859776,6 14.1818301,6 C13.1776825,6 12.3636601,6.81402241 12.3636601,7.81816994 Z"/>
      </g>
    </g>
    <path fill="#EBF9FD" stroke="#00AAE7" d="M760,0.5 C760.414214,0.5 760.789214,0.667893219 761.06066,0.939339828 C761.332107,1.21078644 761.5,1.58578644 761.5,2 L761.5,2 L761.5,62 C761.5,62.4142136 761.332107,62.7892136 761.06066,63.0606602 C760.789214,63.3321068 760.414214,63.5 760,63.5 L760,63.5 L342,63.5 C341.585786,63.5 341.210786,63.3321068 340.93934,63.0606602 C340.667893,62.7892136 340.5,62.4142136 340.5,62 L340.5,62 L340.5,2 C340.5,1.58578644 340.667893,1.21078644 340.93934,0.939339828 C341.210786,0.667893219 341.585786,0.5 342,0.5 L342,0.5 Z"/>
    <g transform="translate(462 18)">
      <text fill="#00AAE7" font-family="PingFangSC-Medium, PingFang SC" font-size="18" font-weight="400">
        <tspan x="40" y="21">云主机服务 QVM</tspan>
      </text>
      <rect width="24" height="18" fill="#00AAE7"/>
      <rect width="24" height="8" y="20" fill="#00AAE7"/>
      <circle cx="18" cy="6" r="2" fill="#FFF"/>
      <circle cx="18" cy="12" r="2" fill="#FFF"/>
      <circle cx="18" cy="24" r="2" fill="#FFF"/>
    </g>
    <g transform="translate(209 14)">
      <path fill="#1AB9EB" fill-rule="nonzero" d="M111.5,22 L120.5,26.5 L111.5,31 L111.5,27 L8.5,27 L8.5,31 L-0.5,26.5 L8.5,22 L8.5,26 L111.5,26 L111.5,22 Z"/>
      <g transform="translate(18)">
        <path fill="#E2F5FC" stroke="#1AB9EB" d="M82,0.5 C82.4142136,0.5 82.7892136,0.667893219 83.0606602,0.939339828 C83.3321068,1.21078644 83.5,1.58578644 83.5,2 L83.5,2 L83.5,50 C83.5,50.4142136 83.3321068,50.7892136 83.0606602,51.0606602 C82.7892136,51.3321068 82.4142136,51.5 82,51.5 L82,51.5 L2,51.5 C1.58578644,51.5 1.21078644,51.3321068 0.939339828,51.0606602 C0.667893219,50.7892136 0.5,50.4142136 0.5,50 L0.5,50 L0.5,2 C0.5,1.58578644 0.667893219,1.21078644 0.939339828,0.939339828 C1.21078644,0.667893219 1.58578644,0.5 2,0.5 L2,0.5 Z"/>
        <text fill="#00AAE7" font-family="PingFangSC-Regular, PingFang SC" font-size="14">
          <tspan x="8" y="21">授权并获取</tspan> <tspan x="8" y="41">推流地址</tspan>
        </text>
      </g>
      <g transform="translate(0 513)">
        <path fill="#1AB9EB" fill-rule="nonzero" d="M111.5,12 L120.5,16.5 L111.5,21 L111.5,17 L0,17 L0,16 L111.5,16 L111.5,12 Z"/>
        <g transform="translate(30)">
          <path fill="#E2F5FC" stroke="#1AB9EB" d="M58,0.5 C58.4142136,0.5 58.7892136,0.667893219 59.0606602,0.939339828 C59.3321068,1.21078644 59.5,1.58578644 59.5,2 L59.5,2 L59.5,30 C59.5,30.4142136 59.3321068,30.7892136 59.0606602,31.0606602 C58.7892136,31.3321068 58.4142136,31.5 58,31.5 L58,31.5 L2,31.5 C1.58578644,31.5 1.21078644,31.3321068 0.939339828,31.0606602 C0.667893219,30.7892136 0.5,30.4142136 0.5,30 L0.5,30 L0.5,2 C0.5,1.58578644 0.667893219,1.21078644 0.939339828,0.939339828 C1.21078644,0.667893219 1.58578644,0.5 2,0.5 L2,0.5 Z"/>
          <text fill="#00AAE7" font-family="PingFangSC-Regular, PingFang SC" font-size="14">
            <tspan x="10" y="21">RTMP</tspan>
          </text>
        </g>
      </g>
      <g transform="translate(0 274)">
        <path fill="#1AB9EB" fill-rule="nonzero" d="M111.5,12 L120.5,16.5 L111.5,21 L111.5,17 L0,17 L0,16 L111.5,16 L111.5,12 Z"/>
        <g transform="translate(30)">
          <path fill="#E2F5FC" stroke="#1AB9EB" d="M58,0.5 C58.4142136,0.5 58.7892136,0.667893219 59.0606602,0.939339828 C59.3321068,1.21078644 59.5,1.58578644 59.5,2 L59.5,2 L59.5,26 C59.5,26.4142136 59.3321068,26.7892136 59.0606602,27.0606602 C58.7892136,27.3321068 58.4142136,27.5 58,27.5 L58,27.5 L2,27.5 C1.58578644,27.5 1.21078644,27.3321068 0.939339828,27.0606602 C0.667893219,26.7892136 0.5,26.4142136 0.5,26 L0.5,26 L0.5,2 C0.5,1.58578644 0.667893219,1.21078644 0.939339828,0.939339828 C1.21078644,0.667893219 1.58578644,0.5 2,0.5 L2,0.5 Z"/>
          <text fill="#00AAE7" font-family="PingFangSC-Regular, PingFang SC" font-size="14">
            <tspan x="11" y="19">RTMP</tspan>
          </text>
        </g>
      </g>
    </g>
    <path fill="#1AB9EB" fill-rule="nonzero" d="M800.5,36.5 L791.5,32 L800.5,27.5 L800.5,31.5 L1002.5,31.5 L1002.5,222.5 L1006.5,222.5 L1002,231.5 L997.5,222.5 L1001.5,222.5 L1001.5,32.5 L800.5,32.5 L800.5,36.5 Z"/>
    <g transform="translate(928 136)">
      <path fill="#E2F5FC" stroke="#1AB9EB" d="M146,0.5 C146.414214,0.5 146.789214,0.667893219 147.06066,0.939339828 C147.332107,1.21078644 147.5,1.58578644 147.5,2 L147.5,2 L147.5,30 C147.5,30.4142136 147.332107,30.7892136 147.06066,31.0606602 C146.789214,31.3321068 146.414214,31.5 146,31.5 L146,31.5 L2,31.5 C1.58578644,31.5 1.21078644,31.3321068 0.939339828,31.0606602 C0.667893219,30.7892136 0.5,30.4142136 0.5,30 L0.5,30 L0.5,2 C0.5,1.58578644 0.667893219,1.21078644 0.939339828,0.939339828 C1.21078644,0.667893219 1.58578644,0.5 2,0.5 L2,0.5 Z"/>
      <text fill="#00AAE7" font-family="PingFangSC-Regular, PingFang SC" font-size="14">
        <tspan x="11" y="21">授权并获取拉流地址</tspan>
      </text>
    </g>
    <path fill="#1AB9EB" fill-rule="nonzero" d="M550.815478,72.0025077 L555.279728,81.0202938 L551.279,81.004 L550.72,222.003 L554.720209,222.019184 L550.18453,231.001256 L545.72028,221.98347 L549.72,221.999 L550.279,81 L546.279799,80.9845798 L550.815478,72.0025077 Z"/>
    <g transform="translate(340 130)">
      <path fill="#E2F5FC" stroke="#1AB9EB" d="M420,0.5 C420.414214,0.5 420.789214,0.667893219 421.06066,0.939339828 C421.332107,1.21078644 421.5,1.58578644 421.5,2 L421.5,2 L421.5,42 C421.5,42.4142136 421.332107,42.7892136 421.06066,43.0606602 C420.789214,43.3321068 420.414214,43.5 420,43.5 L420,43.5 L2,43.5 C1.58578644,43.5 1.21078644,43.3321068 0.939339828,43.0606602 C0.667893219,42.7892136 0.5,42.4142136 0.5,42 L0.5,42 L0.5,2 C0.5,1.58578644 0.667893219,1.21078644 0.939339828,0.939339828 C1.21078644,0.667893219 1.58578644,0.5 2,0.5 L2,0.5 Z"/>
      <text fill="#00AAE7" font-family="PingFangSC-Regular, PingFang SC" font-size="18">
        <tspan x="167" y="28">服务端 SDK</tspan>
      </text>
    </g>
    <g transform="translate(772 271)">
      <path fill="#1AB9EB" fill-rule="nonzero" d="M111.5 12L120.5 16.5 111.5 21 111.5 17 0 17 0 16 111.5 16 111.5 12zM111.5 68L120.5 72.5 111.5 77 111.5 73 0 73 0 72 111.5 72 111.5 68zM111.5 124L120.5 128.5 111.5 133 111.5 129 0 129 0 128 111.5 128 111.5 124z"/>
      <g transform="translate(30)">
        <path fill="#E2F5FC" stroke="#1AB9EB" d="M58,0.5 C58.4142136,0.5 58.7892136,0.667893219 59.0606602,0.939339828 C59.3321068,1.21078644 59.5,1.58578644 59.5,2 L59.5,2 L59.5,30 C59.5,30.4142136 59.3321068,30.7892136 59.0606602,31.0606602 C58.7892136,31.3321068 58.4142136,31.5 58,31.5 L58,31.5 L2,31.5 C1.58578644,31.5 1.21078644,31.3321068 0.939339828,31.0606602 C0.667893219,30.7892136 0.5,30.4142136 0.5,30 L0.5,30 L0.5,2 C0.5,1.58578644 0.667893219,1.21078644 0.939339828,0.939339828 C1.21078644,0.667893219 1.58578644,0.5 2,0.5 L2,0.5 Z"/>
        <text fill="#00AAE7" font-family="PingFangSC-Regular, PingFang SC" font-size="14">
          <tspan x="10" y="21">RTMP</tspan>
        </text>
      </g>
      <g transform="translate(30 56)">
        <path fill="#E2F5FC" stroke="#1AB9EB" d="M58,0.5 C58.4142136,0.5 58.7892136,0.667893219 59.0606602,0.939339828 C59.3321068,1.21078644 59.5,1.58578644 59.5,2 L59.5,2 L59.5,30 C59.5,30.4142136 59.3321068,30.7892136 59.0606602,31.0606602 C58.7892136,31.3321068 58.4142136,31.5 58,31.5 L58,31.5 L2,31.5 C1.58578644,31.5 1.21078644,31.3321068 0.939339828,31.0606602 C0.667893219,30.7892136 0.5,30.4142136 0.5,30 L0.5,30 L0.5,2 C0.5,1.58578644 0.667893219,1.21078644 0.939339828,0.939339828 C1.21078644,0.667893219 1.58578644,0.5 2,0.5 L2,0.5 Z"/>
        <text fill="#00AAE7" font-family="PingFangSC-Regular, PingFang SC" font-size="14">
          <tspan x="16" y="21">HLS</tspan>
        </text>
      </g>
      <g transform="translate(30 112)">
        <path fill="#E2F5FC" stroke="#1AB9EB" d="M58,0.5 C58.4142136,0.5 58.7892136,0.667893219 59.0606602,0.939339828 C59.3321068,1.21078644 59.5,1.58578644 59.5,2 L59.5,2 L59.5,30 C59.5,30.4142136 59.3321068,30.7892136 59.0606602,31.0606602 C58.7892136,31.3321068 58.4142136,31.5 58,31.5 L58,31.5 L2,31.5 C1.58578644,31.5 1.21078644,31.3321068 0.939339828,31.0606602 C0.667893219,30.7892136 0.5,30.4142136 0.5,30 L0.5,30 L0.5,2 C0.5,1.58578644 0.667893219,1.21078644 0.939339828,0.939339828 C1.21078644,0.667893219 1.58578644,0.5 2,0.5 L2,0.5 Z"/>
        <text fill="#00AAE7" font-family="PingFangSC-Regular, PingFang SC" font-size="14">
          <tspan x="16" y="21">HDL</tspan>
        </text>
      </g>
      <g transform="translate(0 185)">
        <path fill="#1AB9EB" fill-rule="nonzero" d="M111.5,12 L120.5,16.5 L111.5,21 L111.5,17 L0,17 L0,16 L111.5,16 L111.5,12 Z"/>
        <g transform="translate(30)">
          <path fill="#E2F5FC" stroke="#1AB9EB" d="M58,0.5 C58.4142136,0.5 58.7892136,0.667893219 59.0606602,0.939339828 C59.3321068,1.21078644 59.5,1.58578644 59.5,2 L59.5,2 L59.5,30 C59.5,30.4142136 59.3321068,30.7892136 59.0606602,31.0606602 C58.7892136,31.3321068 58.4142136,31.5 58,31.5 L58,31.5 L2,31.5 C1.58578644,31.5 1.21078644,31.3321068 0.939339828,31.0606602 C0.667893219,30.7892136 0.5,30.4142136 0.5,30 L0.5,30 L0.5,2 C0.5,1.58578644 0.667893219,1.21078644 0.939339828,0.939339828 C1.21078644,0.667893219 1.58578644,0.5 2,0.5 L2,0.5 Z"/>
          <text fill="#39AAEB" font-family="PingFangSC-Regular, PingFang SC" font-size="14">
            <tspan x="16" y="21">点播</tspan>
          </text>
        </g>
      </g>
    </g>
  </g>
</svg>
