<?xml version="1.0" encoding="UTF-8"?>
<svg width="520px" height="350px" viewBox="0 0 520 350" version="1.1" xmlns="http://www.w3.org/2000/svg" xmlns:xlink="http://www.w3.org/1999/xlink">
    <title>插画</title>
    <defs>
        <linearGradient x1="50%" y1="0%" x2="50%" y2="100%" id="linearGradient-1">
            <stop stop-color="#00D4F5" stop-opacity="0" offset="0%"></stop>
            <stop stop-color="#00BCED" offset="48.7070261%"></stop>
            <stop stop-color="#00AAE7" stop-opacity="0" offset="100%"></stop>
        </linearGradient>
        <linearGradient x1="50%" y1="0%" x2="50%" y2="100%" id="linearGradient-2">
            <stop stop-color="#00D4F5" stop-opacity="0" offset="0%"></stop>
            <stop stop-color="#00BCED" offset="48.7070261%"></stop>
            <stop stop-color="#00AAE7" stop-opacity="0" offset="100%"></stop>
        </linearGradient>
        <filter x="-55.0%" y="-254.8%" width="210.0%" height="609.5%" filterUnits="objectBoundingBox" id="filter-3">
            <feGaussianBlur stdDeviation="50" in="SourceGraphic"></feGaussianBlur>
        </filter>
        <linearGradient x1="50%" y1="0%" x2="50%" y2="100%" id="linearGradient-4">
            <stop stop-color="#7AE9FF" stop-opacity="0" offset="0%"></stop>
            <stop stop-color="#44CFFF" offset="100%"></stop>
        </linearGradient>
        <linearGradient x1="50%" y1="0%" x2="50%" y2="100%" id="linearGradient-5">
            <stop stop-color="#7AE9FF" stop-opacity="0" offset="0%"></stop>
            <stop stop-color="#56D3FF" stop-opacity="0.500027316" offset="100%"></stop>
        </linearGradient>
        <filter x="-16.7%" y="-187.5%" width="133.3%" height="475.0%" filterUnits="objectBoundingBox" id="filter-6">
            <feGaussianBlur stdDeviation="10" in="SourceGraphic"></feGaussianBlur>
        </filter>
        <linearGradient x1="50%" y1="0%" x2="50%" y2="100%" id="linearGradient-7">
            <stop stop-color="#CAF0FF" offset="1.45956503%"></stop>
            <stop stop-color="#95D8FF" offset="100%"></stop>
        </linearGradient>
        <polygon id="path-8" points="14 0 14 2 2 2 2 14 0 14 0 0"></polygon>
        <filter x="-7.1%" y="-7.1%" width="114.3%" height="114.3%" filterUnits="objectBoundingBox" id="filter-9">
            <feGaussianBlur stdDeviation="0.5" in="SourceAlpha" result="shadowBlurInner1"></feGaussianBlur>
            <feOffset dx="0" dy="1" in="shadowBlurInner1" result="shadowOffsetInner1"></feOffset>
            <feComposite in="shadowOffsetInner1" in2="SourceAlpha" operator="arithmetic" k2="-1" k3="1" result="shadowInnerInner1"></feComposite>
            <feColorMatrix values="0 0 0 0 0.2   0 0 0 0 0.568627451   0 0 0 0 0.819607843  0 0 0 0.5 0" type="matrix" in="shadowInnerInner1"></feColorMatrix>
        </filter>
        <polygon id="path-10" points="42 0 42 14 40 14 40 2 28 2 28 0"></polygon>
        <filter x="-7.1%" y="-7.1%" width="114.3%" height="114.3%" filterUnits="objectBoundingBox" id="filter-11">
            <feGaussianBlur stdDeviation="0.5" in="SourceAlpha" result="shadowBlurInner1"></feGaussianBlur>
            <feOffset dx="0" dy="1" in="shadowBlurInner1" result="shadowOffsetInner1"></feOffset>
            <feComposite in="shadowOffsetInner1" in2="SourceAlpha" operator="arithmetic" k2="-1" k3="1" result="shadowInnerInner1"></feComposite>
            <feColorMatrix values="0 0 0 0 0.2   0 0 0 0 0.568627451   0 0 0 0 0.819607843  0 0 0 0.5 0" type="matrix" in="shadowInnerInner1"></feColorMatrix>
        </filter>
        <polygon id="path-12" points="42 28 42 42 28 42 28 40 40 40 40 28"></polygon>
        <filter x="-7.1%" y="-7.1%" width="114.3%" height="114.3%" filterUnits="objectBoundingBox" id="filter-13">
            <feGaussianBlur stdDeviation="0.5" in="SourceAlpha" result="shadowBlurInner1"></feGaussianBlur>
            <feOffset dx="0" dy="1" in="shadowBlurInner1" result="shadowOffsetInner1"></feOffset>
            <feComposite in="shadowOffsetInner1" in2="SourceAlpha" operator="arithmetic" k2="-1" k3="1" result="shadowInnerInner1"></feComposite>
            <feColorMatrix values="0 0 0 0 0.2   0 0 0 0 0.568627451   0 0 0 0 0.819607843  0 0 0 0.5 0" type="matrix" in="shadowInnerInner1"></feColorMatrix>
        </filter>
        <polygon id="path-14" points="2 28 2 40 14 40 14 42 0 42 0 28"></polygon>
        <filter x="-7.1%" y="-7.1%" width="114.3%" height="114.3%" filterUnits="objectBoundingBox" id="filter-15">
            <feGaussianBlur stdDeviation="0.5" in="SourceAlpha" result="shadowBlurInner1"></feGaussianBlur>
            <feOffset dx="0" dy="1" in="shadowBlurInner1" result="shadowOffsetInner1"></feOffset>
            <feComposite in="shadowOffsetInner1" in2="SourceAlpha" operator="arithmetic" k2="-1" k3="1" result="shadowInnerInner1"></feComposite>
            <feColorMatrix values="0 0 0 0 0.2   0 0 0 0 0.568627451   0 0 0 0 0.819607843  0 0 0 0.5 0" type="matrix" in="shadowInnerInner1"></feColorMatrix>
        </filter>
        <path d="M16.2437885,16.6253868 C16.5611386,17.0773904 16.4519803,17.7010749 15.9999766,18.0184251 C13.7354543,19.6083379 11.4345808,20.4160553 9.11268169,20.4160553 C6.79078261,20.4160553 4.48990906,19.6083379 2.22538675,18.0184251 C1.77338306,17.7010749 1.66422478,17.0773904 1.98157492,16.6253868 C2.29892505,16.1733831 2.92260956,16.0642248 3.37461325,16.3815749 C5.3185454,17.7464026 7.22612631,18.4160553 9.11268169,18.4160553 C10.9992371,18.4160553 12.906818,17.7464026 14.8507501,16.3815749 C15.3027538,16.0642248 15.9264383,16.1733831 16.2437885,16.6253868 Z M9.9185099,-5.63282754e-12 C10.4313457,-5.63282754e-12 10.8540171,0.38604019 10.9117822,0.883378875 L10.9185099,1 L10.9185099,7.01373202 C10.9185099,8.78787638 10.1336945,10.4661763 8.78344122,11.603116 L8.57668987,11.769541 L7.00969666,12.9748761 C6.57193653,13.3116022 5.94409133,13.229698 5.60736516,12.7919379 C5.29654101,12.3878516 5.34241966,11.8217994 5.69562731,11.4722612 L5.79030334,11.3896064 L7.35729655,10.1842714 C8.2801472,9.47441237 8.84481306,8.40044674 8.9117914,7.24567899 L8.9185099,7.01373202 L8.9185099,1 C8.9185099,0.44771525 9.36622515,-5.63282754e-12 9.9185099,-5.63282754e-12 Z M1.69230769,1.8 C2.20514353,1.8 2.62781485,2.18604019 2.68557996,2.68337887 L2.69230769,2.8 L2.69230769,8.33846154 C2.69230769,8.89074629 2.24459244,9.33846154 1.69230769,9.33846154 C1.17947185,9.33846154 0.756800532,8.95242135 0.699035424,8.45508266 L0.692307692,8.33846154 L0.692307692,2.8 C0.692307692,2.24771525 1.14002294,1.8 1.69230769,1.8 Z M17.8923077,1.8 C18.4051435,1.8 18.8278149,2.18604019 18.88558,2.68337887 L18.8923077,2.8 L18.8923077,8.33846154 C18.8923077,8.89074629 18.4445924,9.33846154 17.8923077,9.33846154 C17.3794719,9.33846154 16.9568005,8.95242135 16.8990354,8.45508266 L16.8923077,8.33846154 L16.8923077,2.8 C16.8923077,2.24771525 17.3400229,1.8 17.8923077,1.8 Z" id="path-16"></path>
        <filter x="-5.5%" y="-4.9%" width="111.0%" height="109.8%" filterUnits="objectBoundingBox" id="filter-17">
            <feGaussianBlur stdDeviation="0.5" in="SourceAlpha" result="shadowBlurInner1"></feGaussianBlur>
            <feOffset dx="0" dy="1" in="shadowBlurInner1" result="shadowOffsetInner1"></feOffset>
            <feComposite in="shadowOffsetInner1" in2="SourceAlpha" operator="arithmetic" k2="-1" k3="1" result="shadowInnerInner1"></feComposite>
            <feColorMatrix values="0 0 0 0 0.2   0 0 0 0 0.568627451   0 0 0 0 0.819607843  0 0 0 0.5 0" type="matrix" in="shadowInnerInner1"></feColorMatrix>
        </filter>
        <linearGradient x1="55.4089177%" y1="0%" x2="53.6202829%" y2="100%" id="linearGradient-18">
            <stop stop-color="#E7F9FF" offset="0%"></stop>
            <stop stop-color="#A5DDFE" offset="100%"></stop>
        </linearGradient>
        <circle id="path-19" cx="227.5" cy="73.5" r="42.5"></circle>
        <filter x="-16.5%" y="-11.8%" width="132.9%" height="132.9%" filterUnits="objectBoundingBox" id="filter-20">
            <feOffset dx="0" dy="4" in="SourceAlpha" result="shadowOffsetOuter1"></feOffset>
            <feGaussianBlur stdDeviation="4" in="shadowOffsetOuter1" result="shadowBlurOuter1"></feGaussianBlur>
            <feColorMatrix values="0 0 0 0 0.203921569   0 0 0 0 0.631372549   0 0 0 0 0.925490196  0 0 0 0.2 0" type="matrix" in="shadowBlurOuter1"></feColorMatrix>
        </filter>
        <linearGradient x1="0%" y1="50%" x2="100%" y2="50%" id="linearGradient-21">
            <stop stop-color="#8AD7F5" stop-opacity="0.8" offset="0%"></stop>
            <stop stop-color="#59B4EC" offset="100%"></stop>
        </linearGradient>
        <linearGradient x1="0%" y1="45.9000079%" x2="100%" y2="45.9000079%" id="linearGradient-22">
            <stop stop-color="#52AEE8" stop-opacity="0" offset="0%"></stop>
            <stop stop-color="#52AEE8" offset="100%"></stop>
        </linearGradient>
        <linearGradient x1="50%" y1="0%" x2="50%" y2="99.3322424%" id="linearGradient-23">
            <stop stop-color="#DFF8FF" offset="0%"></stop>
            <stop stop-color="#A5DDFE" offset="100%"></stop>
        </linearGradient>
        <rect id="path-24" x="19" y="85" width="95" height="61"></rect>
        <filter x="-14.7%" y="-16.4%" width="129.5%" height="145.9%" filterUnits="objectBoundingBox" id="filter-25">
            <feOffset dx="0" dy="4" in="SourceAlpha" result="shadowOffsetOuter1"></feOffset>
            <feGaussianBlur stdDeviation="4" in="shadowOffsetOuter1" result="shadowBlurOuter1"></feGaussianBlur>
            <feColorMatrix values="0 0 0 0 0.203921569   0 0 0 0 0.631372549   0 0 0 0 0.925490196  0 0 0 0.2 0" type="matrix" in="shadowBlurOuter1"></feColorMatrix>
        </filter>
        <linearGradient x1="58.6472846%" y1="50%" x2="40.4296875%" y2="56.821238%" id="linearGradient-26">
            <stop stop-color="#8AD7F5" stop-opacity="0.4" offset="0%"></stop>
            <stop stop-color="#52AEE8" stop-opacity="0.8" offset="100%"></stop>
        </linearGradient>
    </defs>
    <g id="产品" stroke="none" stroke-width="1" fill="none" fill-rule="evenodd">
        <g id="智能视频-推流SDK✅" transform="translate(-1028.000000, -120.000000)">
            <g id="banner" transform="translate(0.000000, 120.000000)">
                <g id="插画" transform="translate(1135.000000, 40.000000)">
                    <g id="编组-21" transform="translate(2.000000, 0.000000)" fill-rule="nonzero">
                        <polygon id="路径" fill="url(#linearGradient-1)" points="4 96 4 126 0 126 0 96"></polygon>
                        <path d="M27,33 L27,60 L27,60 L24,60 L24,30 C25.6568542,30 27,31.3431458 27,33 Z" id="路径" fill="url(#linearGradient-2)"></path>
                        <path d="M275,37 L275,63 L275,63 L271,63 L271,33 C273.209139,33 275,34.790861 275,37 Z" id="路径" fill="url(#linearGradient-1)"></path>
                        <path d="M298,109 L298,135 L298,135 L294,135 L294,105 C296.209139,105 298,106.790861 298,109 Z" id="路径" fill="url(#linearGradient-1)" opacity="0.300000012"></path>
                        <path d="M228,4 L228,30 L228,30 L224,30 L224,0 C226.209139,-4.05812251e-16 228,1.790861 228,4 Z" id="路径" fill="url(#linearGradient-1)" opacity="0.400000006"></path>
                        <path d="M312,166 L312,193 L312,193 L309,193 L309,163 C310.656854,163 312,164.343146 312,166 Z" id="路径" fill="url(#linearGradient-2)" opacity="0.449999988"></path>
                    </g>
                    <g id="编组-22" transform="translate(0.000000, 24.000000)">
                        <ellipse id="椭圆形" fill="#00BDFF" filter="url(#filter-3)" cx="149.36" cy="180.12" rx="136.32" ry="29.44"></ellipse>
                        <ellipse id="椭圆形" fill="url(#linearGradient-4)" cx="150" cy="160.44" rx="150" ry="29.44"></ellipse>
                        <ellipse id="椭圆形" fill="url(#linearGradient-5)" cx="150" cy="183.44" rx="150" ry="29.44"></ellipse>
                        <ellipse id="椭圆形" fill-opacity="0.5" fill="#0784DA" filter="url(#filter-6)" cx="148" cy="163" rx="90" ry="8"></ellipse>
                        <g id="矩形-2" transform="translate(102.000000, 0.000000)">
                            <rect id="矩形" fill="#7FD1FB" x="0" y="0" width="96" height="158" rx="14"></rect>
                            <path d="M84,4 C90.627417,4 96,9.372583 96,16 L96,152 C96,158.627417 90.627417,164 84,164 L12,164 C5.372583,164 8.11624501e-16,158.627417 0,152 L0,16 C-8.11624501e-16,9.372583 5.372583,4 12,4 L27,4 C27,6.209139 28.790861,8 31,8 L31,8 L65,8 C67.209139,8 69,6.209139 69,4 L69,4 L84,4 Z" id="形状结合" fill="url(#linearGradient-7)"></path>
                            <g id="编组-45" transform="translate(27.000000, 56.000000)">
                                <g id="zoom-88">
                                    <g id="路径">
                                        <use fill="#60BBF2" fill-rule="evenodd" xlink:href="#path-8"></use>
                                        <use fill="black" fill-opacity="1" filter="url(#filter-9)" xlink:href="#path-8"></use>
                                    </g>
                                    <g id="路径">
                                        <use fill="#60BBF2" fill-rule="evenodd" xlink:href="#path-10"></use>
                                        <use fill="black" fill-opacity="1" filter="url(#filter-11)" xlink:href="#path-10"></use>
                                    </g>
                                    <g id="路径">
                                        <use fill="#60BBF2" fill-rule="evenodd" xlink:href="#path-12"></use>
                                        <use fill="black" fill-opacity="1" filter="url(#filter-13)" xlink:href="#path-12"></use>
                                    </g>
                                    <g id="路径">
                                        <use fill="#60BBF2" fill-rule="evenodd" xlink:href="#path-14"></use>
                                        <use fill="black" fill-opacity="1" filter="url(#filter-15)" xlink:href="#path-14"></use>
                                    </g>
                                </g>
                                <g id="编组" transform="translate(11.000000, 11.000000)">
                                    <g id="形状结合">
                                        <use fill="#60BBF2" fill-rule="evenodd" xlink:href="#path-16"></use>
                                        <use fill="black" fill-opacity="1" filter="url(#filter-17)" xlink:href="#path-16"></use>
                                    </g>
                                </g>
                            </g>
                        </g>
                        <g id="椭圆形">
                            <use fill="black" fill-opacity="1" filter="url(#filter-20)" xlink:href="#path-19"></use>
                            <use fill="url(#linearGradient-18)" fill-rule="evenodd" xlink:href="#path-19"></use>
                        </g>
                        <g id="短视频SDK备份-2" transform="translate(215.000000, 64.000000)">
                            <rect id="形状结合" fill="url(#linearGradient-21)" x="0" y="0" width="22" height="20"></rect>
                            <circle id="椭圆形" fill="#FFFFFF" cx="6" cy="6" r="2"></circle>
                            <polygon id="矩形备份-16" fill="url(#linearGradient-22)" points="20 5.33333333 28 3 28 17 20 14.6666667"></polygon>
                        </g>
                        <g id="矩形">
                            <use fill="black" fill-opacity="1" filter="url(#filter-25)" xlink:href="#path-24"></use>
                            <use fill="url(#linearGradient-23)" fill-rule="evenodd" xlink:href="#path-24"></use>
                        </g>
                        <g id="编组-12" transform="translate(49.000000, 99.000000)" fill="url(#linearGradient-26)">
                            <polygon id="矩形备份-15" points="0 9 14 1 14 25 0 33"></polygon>
                            <polygon id="矩形备份-17" points="11 8 25 7.27595761e-12 25 24 11 32"></polygon>
                            <polygon id="矩形备份-18" points="22 8 36 7.27595761e-12 36 24 22 32"></polygon>
                        </g>
                    </g>
                </g>
            </g>
        </g>
    </g>
</svg>