<?xml version="1.0" encoding="UTF-8"?>
<svg width="32px" height="30px" viewBox="0 0 32 30" version="1.1" xmlns="http://www.w3.org/2000/svg" xmlns:xlink="http://www.w3.org/1999/xlink">
    <title>chat-46</title>
    <g id="活动与合作" stroke="none" stroke-width="1" fill="none" fill-rule="evenodd" stroke-linecap="square">
        <g id="联系我们" transform="translate(-398.000000, -661.000000)" stroke-width="2">
            <g id="矩形-2" transform="translate(0.000000, 471.000000)">
                <g id="01" transform="translate(372.000000, 162.000000)">
                    <g id="编组-5" transform="translate(24.000000, 24.000000)">
                        <g id="chat-46" transform="translate(3.000000, 5.000000)">
                            <path d="M28,7 C29.1045695,7 30,7.8954305 30,9 L30,20 C30,21.1045695 29.1045695,22 28,22 L26,22 L26,27 L19,22 L13,22" id="路径" stroke="#00AAE7"></path>
                            <path d="M22,0 L2,0 C0.8954305,0 0,0.8954305 0,2 L0,15 C0,16.1045695 0.8954305,17 2,17 L5,17 L5,24 L13,17 L22,17 C23.1045695,17 24,16.1045695 24,15 L24,2 C24,0.8954305 23.1045695,0 22,0 Z" id="路径" stroke="#333333"></path>
                        </g>
                    </g>
                </g>
            </g>
        </g>
    </g>
</svg>