<svg width="36" height="36" viewBox="0 0 36 36" fill="none" xmlns="http://www.w3.org/2000/svg">
<path d="M23 18H13V25H23V18Z" stroke="#00AAE7" stroke-width="2" stroke-miterlimit="10" stroke-linecap="square"/>
<path d="M15 18V15C15 14.2044 15.3161 13.4413 15.8787 12.8787C16.4413 12.3161 17.2044 12 18 12V12C18.7956 12 19.5587 12.3161 20.1213 12.8787C20.6839 13.4413 21 14.2044 21 15V18" stroke="#00AAE7" stroke-width="2" stroke-miterlimit="10" stroke-linecap="square"/>
<path d="M30 21C30 24.1826 28.7357 27.2348 26.4853 29.4853C24.2348 31.7357 21.1826 33 18 33C14.8174 33 11.7652 31.7357 9.51472 29.4853C7.26428 27.2348 6 24.1826 6 21V7L18 4L30 7V21Z" stroke="#333333" stroke-width="2" stroke-miterlimit="10" stroke-linecap="square"/>
</svg>
