<svg xmlns="http://www.w3.org/2000/svg" width="62" height="56" viewBox="0 0 62 56">
  <g fill="none" fill-rule="evenodd" stroke-linecap="square" stroke-width="2" transform="translate(1 1)">
    <path stroke="#00AAE7" d="M48,13 L55,13 C57.7614237,13 60,15.2385763 60,18 L60,38 C60,39.3260824 59.4732158,40.597852 58.5355339,41.5355339 C57.597852,42.4732158 56.3260824,43 55,43 L52,43 L52,53 L38,43 L26,43"/>
    <path stroke="#333" d="M43,0 L5,0 C2.23857625,0 0,2.23857625 0,5 L0,28 C0,29.3260824 0.526784202,30.597852 1.46446609,31.5355339 C2.40214799,32.4732158 3.67391755,33 5,33 L10,33 L10,47 L26,33 L43,33 C45.7614237,33 48,30.7614237 48,28 L48,5 C48,2.23857625 45.7614237,0 43,0 Z"/>
  </g>
</svg>
