<svg width="737" height="594" viewBox="0 0 737 594" xmlns="http://www.w3.org/2000/svg" xmlns:xlink="http://www.w3.org/1999/xlink"><defs><rect id="a" x="0" y="0" width="228" height="153"/><mask id="b" maskContentUnits="userSpaceOnUse" maskUnits="objectBoundingBox" x="0" y="0" width="228" height="153" fill="#fff"><use xlink:href="#a"/></mask></defs><g fill="none" fill-rule="evenodd"><g transform="translate(233)"><path d="M2,0 L250,0 C251.104569,-1.58997828e-14 252,0.8954305 252,2 L252,314 C252,315.104569 251.104569,316 250,316 L2,316 C0.8954305,316 1.3527075e-16,315.104569 0,314 L0,2 C-1.3527075e-16,0.8954305 0.8954305,2.02906125e-16 2,0 Z" fill="#EDF9FA"/><text font-family="PingFangSC-Medium, PingFang SC" font-size="14" font-weight="400" fill="#22B5E9">
                                <tspan x="67" y="27">实时音视频 QRTC</tspan>
                            </text><g transform="translate(12 151)"><use stroke="#00AAE7" mask="url(#b)" stroke-width="2" stroke-dasharray="2,2" xlink:href="#a"/><text font-family="PingFangSC-Medium, PingFang SC" font-size="14" font-weight="400" fill="#22B5E9">
                                    <tspan x="58" y="27">存储及多媒体处理</tspan>
                                </text><g transform="translate(11 40)"><rect stroke="#00AAE7" x=".5" y=".5" width="97" height="27"/><text font-family="PingFangSC-Regular, PingFang SC" font-size="12" fill="#00AAE7">
                                            <tspan x="26" y="18">内容审核</tspan>
                                        </text><g transform="translate(108)"><rect stroke="#00AAE7" x=".5" y=".5" width="97" height="27"/><text font-family="PingFangSC-Regular, PingFang SC" font-size="12" fill="#00AAE7">
                                            <tspan x="26" y="18">视频分析</tspan>
                                        </text></g><g transform="translate(0 38)"><rect stroke="#00AAE7" x=".5" y=".5" width="97" height="27"/><text font-family="PingFangSC-Regular, PingFang SC" font-size="12" fill="#00AAE7">
                                            <tspan x="20" y="19">音视频处理</tspan>
                                        </text></g><g transform="translate(0 76)"><rect stroke="#00AAE7" x=".5" y=".5" width="97" height="27"/><text font-family="PingFangSC-Regular, PingFang SC" font-size="12" fill="#00AAE7">
                                            <tspan x="26" y="18">录制存储</tspan>
                                        </text></g><g transform="translate(108 76)"><rect stroke="#00AAE7" x=".5" y=".5" width="97" height="27"/><text font-family="PingFangSC-Regular, PingFang SC" font-size="12" fill="#00AAE7">
                                            <tspan x="26" y="18">实时转码</tspan>
                                        </text></g><g transform="translate(108 38)"><rect stroke="#00AAE7" x=".5" y=".5" width="97" height="27"/><text font-family="PingFangSC-Regular, PingFang SC" font-size="12" fill="#00AAE7">
                                            <tspan x="26" y="18">质量分析</tspan>
                                        </text></g></g></g><g transform="translate(10 44)"><rect fill="#00AAE7" opacity=".854" width="110" height="28"/><text font-family="PingFangSC-Regular, PingFang SC" font-size="12" fill="#FFF">
                                        <tspan x="30" y="19">调度中心</tspan>
                                    </text><g transform="translate(122)"><rect fill="#00AAE7" opacity=".854" width="110" height="28"/><text font-family="PingFangSC-Regular, PingFang SC" font-size="12" fill="#FFF">
                                        <tspan x="31" y="19">业务中心</tspan>
                                    </text></g><g transform="translate(0 62)"><rect fill="#00AAE7" opacity=".854" width="232" height="28"/><text font-family="PingFangSC-Regular, PingFang SC" font-size="12" fill="#FFF">
                                        <tspan x="74" y="19">实时音视频网络</tspan>
                                    </text></g><path d="M55 33 55 45 59 45 54.5 54 50 45 54 45 54 33 55 33ZM178 33 178 45 182 45 177.5 54 173 45 177 45 177 33 178 33Z" fill="#00AAE7" fill-rule="nonzero"/></g></g><g transform="translate(489 100)"><path d="M84,8 L93,12.5 L84,17 L84,13 L9,13 L9,17 L0,12.5 L9,8 L9,12 L84,12 L84,8 Z" fill="#00AAE7" fill-rule="nonzero"/><g transform="translate(19)"><path d="M54,0.5 C54.4142136,0.5 54.7892136,0.667893219 55.0606602,0.939339828 C55.3321068,1.21078644 55.5,1.58578644 55.5,2 L55.5,2 L55.5,22 C55.5,22.4142136 55.3321068,22.7892136 55.0606602,23.0606602 C54.7892136,23.3321068 54.4142136,23.5 54,23.5 L54,23.5 L2,23.5 C1.58578644,23.5 1.21078644,23.3321068 0.939339828,23.0606602 C0.667893219,22.7892136 0.5,22.4142136 0.5,22 L0.5,22 L0.5,2 C0.5,1.58578644 0.667893219,1.21078644 0.939339828,0.939339828 C1.21078644,0.667893219 1.58578644,0.5 2,0.5 L2,0.5 Z" stroke="#00AAE7" fill="#EDF9FA"/><text font-family="PingFangSC-Regular, PingFang SC" font-size="12" fill="#00AAE7">
                                    <tspan x="3" y="17">连麦互动</tspan>
                                </text></g></g><g transform="translate(489 449)"><path d="M84,8 L93,12.5 L84,17 L84,13 L0,13 L0,12 L84,12 L84,8 Z" fill="#00AAE7" fill-rule="nonzero"/><g transform="translate(17)"><path d="M54,0.5 C54.4142136,0.5 54.7892136,0.667893219 55.0606602,0.939339828 C55.3321068,1.21078644 55.5,1.58578644 55.5,2 L55.5,2 L55.5,22 C55.5,22.4142136 55.3321068,22.7892136 55.0606602,23.0606602 C54.7892136,23.3321068 54.4142136,23.5 54,23.5 L54,23.5 L2,23.5 C1.58578644,23.5 1.21078644,23.3321068 0.939339828,23.0606602 C0.667893219,22.7892136 0.5,22.4142136 0.5,22 L0.5,22 L0.5,2 C0.5,1.58578644 0.667893219,1.21078644 0.939339828,0.939339828 C1.21078644,0.667893219 1.58578644,0.5 2,0.5 L2,0.5 Z" stroke="#00AAE7" fill="#EDF9FA"/><text font-family="PingFangSC-Regular, PingFang SC" font-size="12" fill="#00AAE7">
                                    <tspan x="3" y="17">直播下行</tspan>
                                </text></g></g><path d="M2,0 L148,0 C149.104569,-2.02906125e-16 150,0.8954305 150,2 L150,225 C150,226.104569 149.104569,227 148,227 L2,227 C0.8954305,227 1.3527075e-16,226.104569 0,225 L0,2 C-1.3527075e-16,0.8954305 0.8954305,2.02906125e-16 2,0 Z" fill="#EDF9FA"/><text font-family="PingFangSC-Medium, PingFang SC" font-size="14" font-weight="400" fill="#28B8BB">
                                <tspan x="61" y="23">主播</tspan>
                            </text><g transform="translate(10 36)" fill="#47C2C5"><path d="M38.0923862 4.81905403C39.5677271 4.81905403 41.0792571 5.60511698 42.1354766 6.9205521L42.1354766 6.9205521 42.7641586 7.70324861 41.8838355 8.18549066C40.8250911 8.76535937 40.2426976 9.82073725 40.3260169 11.0090894 40.4110194 12.228581 41.1642596 13.2511362 42.2903327 13.6769904L42.2903327 13.6769904 43.129417 13.9942771 42.7607922 14.8106379C42.3256803 15.7734388 42.1093867 16.2169668 41.5505582 17.0644673 40.6045895 18.5061437 39.4145542 19.9814846 37.7641586 19.9966336 36.3948605 20.0058913 36.2097065 19.3233462 34.7436234 19.2543343 34.1683234 19.2579412 33.7839313 19.3954155 33.4236318 19.5513512L33.0651848 19.7091664C32.702412 19.8645868 32.3081267 20 31.7155136 20L31.7155136 20 31.6826909 20C29.9935813 19.984851 28.8010211 18.4977277 27.9501543 17.2033328 25.8032093 13.936206 25.3756718 9.8249453 26.9334904 7.42720081 27.9770857 5.81972732 29.6661953 4.81989564 31.3409975 4.81989564 32.207855 4.81989564 32.8828255 5.06059586 33.4786848 5.27268137 33.9331537 5.43427032 34.3253436 5.57397744 34.7225831 5.57397744 35.0710093 5.57397744 35.388296 5.45446894 35.7905852 5.30213769 36.3603546 5.08668574 37.0698311 4.81905403 38.0923862 4.81905403ZM37.8382202 0C37.9888683 1.01245582 37.573955 2.00302979 37.026909 2.70493183 36.441149 3.45648881 35.4320597 4.03888234 34.4574763 4.00858441 34.2798967 3.03905066 34.7368905 2.04258542 35.2906693 1.37013971 35.900836.629523649 36.9444313.0614374684 37.8382202 0ZM71 11.8181818 71 20 62.8181818 20 62.8181818 11.8181818 71 11.8181818ZM61.1818182 11.8181818 61.1818182 20 53 20 53 11.8181818 61.1818182 11.8181818ZM61.1818182 2 61.1818182 10.1818182 53 10.1818182 53 2 61.1818182 2ZM71 2 71 10.1818182 62.8181818 10.1818182 62.8181818 2 71 2ZM96.3358333 8.1105C99.5643333 8.1105 103 10.2555 103 13.18425 103 14.9589167 102.228167 16.74 100.606583 17.87025L100.606583 17.87025 100.996167 19.5615C101.031917 19.7173333 100.8605 19.83925 100.724833 19.7530833L100.724833 19.7530833 99.0079167 18.6631667C98.2351667 18.9198333 97.346 19.0646667 96.3358333 19.0646667 91.7699167 19.0646667 89.833 15.7710833 89.833 13.5875833 89.833 11.40775 91.7699167 8.1105 96.3358333 8.1105ZM88.9786667 2C92.7095 2 96.01225 4.2 96.6759167 7.37991667 96.56225 7.37533333 96.4485833 7.37258333 96.3349167 7.37258333 91.3409167 7.37258333 89.0941667 11.0071667 89.0941667 13.5875833 89.0941667 14.0440833 89.16475 14.5326667 89.3068333 15.0285833 89.1079167 15.0194167 87.0600833 14.9213333 86.09575 14.61425L86.09575 14.61425 83.9140833 15.8508333C83.6959167 15.9745833 83.4365 15.77475 83.5006667 15.5318333L83.5006667 15.5318333 83.9865 13.6920833C83.9865 13.6920833 81 11.7551667 81 8.41116667 81 5.06716667 84.4595 2 88.9786667 2ZM94.2476667 10.8751667C93.7636667 10.8751667 93.3713333 11.2675 93.3713333 11.7515 93.3713333 12.2355 93.7636667 12.6278333 94.2476667 12.6278333 94.7316667 12.6278333 95.124 12.2355 95.124 11.7515 95.124 11.2675 94.7316667 10.8751667 94.2476667 10.8751667ZM98.6293333 10.8751667C98.1453333 10.8751667 97.753 11.2675 97.753 11.7515 97.753 12.2355 98.1453333 12.6278333 98.6293333 12.6278333 99.1133333 12.6278333 99.5056667 12.2355 99.5056667 11.7515 99.5056667 11.2675 99.1133333 10.8751667 98.6293333 10.8751667ZM86.0040833 5.34308333C85.4559167 5.34308333 85.01225 5.78675 85.01225 6.33491667 85.01225 6.88308333 85.4568333 7.32675 86.0040833 7.32675 86.55225 7.32675 86.9959167 6.88308333 86.9959167 6.33491667 86.9959167 5.78675 86.55225 5.34308333 86.0040833 5.34308333ZM91.769 5.34308333C91.2208333 5.34308333 90.7771667 5.78675 90.7771667 6.33491667 90.7771667 6.88308333 91.22175 7.32675 91.769 7.32675 92.3171667 7.32675 92.7608333 6.88308333 92.7608333 6.33491667 92.7608333 5.78675 92.31625 5.34308333 91.769 5.34308333Z" fill-rule="nonzero"/><path d="M130,2 L130,20 L112,20 L112,2 L130,2 Z M120.556,9.432 L119.248,9.432 L119.248,15.192 C119.248,15.828 119.128,16.284 118.912,16.572 C118.684,16.86 118.324,17.016 117.82,17.016 C116.932,17.016 116.488,16.5 116.488,15.48 L116.488,15.204 L115.18,15.204 L115.18,15.492 C115.18,16.332 115.408,16.98 115.864,17.46 C116.296,17.928 116.944,18.168 117.796,18.168 C118.78,18.168 119.5,17.904 119.956,17.4 C120.352,16.92 120.556,16.2 120.556,15.24 L120.556,9.432 Z M125.236,9.264 C124.324,9.264 123.568,9.468 122.968,9.876 C122.332,10.308 122.02,10.896 122.02,11.652 C122.02,12.396 122.344,12.972 123.004,13.368 C123.268,13.512 123.916,13.74 124.972,14.076 C125.92,14.364 126.484,14.556 126.676,14.652 C127.216,14.928 127.492,15.3 127.492,15.78 C127.492,16.164 127.3,16.464 126.916,16.68 C126.532,16.896 126.016,17.016 125.368,17.016 C124.648,17.016 124.12,16.884 123.772,16.62 C123.388,16.332 123.148,15.84 123.052,15.168 L121.756,15.168 C121.828,16.248 122.212,17.04 122.92,17.544 C123.508,17.952 124.324,18.168 125.368,18.168 C126.448,18.168 127.288,17.952 127.888,17.52 C128.488,17.076 128.788,16.476 128.788,15.708 C128.788,14.916 128.416,14.304 127.684,13.86 C127.348,13.656 126.592,13.38 125.44,13.02 C124.636,12.78 124.144,12.6 123.952,12.492 C123.52,12.264 123.316,11.964 123.316,11.58 C123.316,11.148 123.496,10.836 123.868,10.644 C124.168,10.476 124.6,10.392 125.164,10.392 C125.812,10.392 126.292,10.512 126.628,10.764 C126.964,11.004 127.18,11.412 127.3,11.964 L128.596,11.964 C128.512,11.028 128.176,10.344 127.576,9.9 C127.012,9.468 126.232,9.264 125.236,9.264 Z"/><path d="M3.33333333,16 C3.33333333,16.4583333 3.70833333,16.8333333 4.16666667,16.8333333 L5,16.8333333 L5,19.75 C5,20.4416667 5.55833333,21 6.25,21 C6.94166667,21 7.5,20.4416667 7.5,19.75 L7.5,16.8333333 L9.16666667,16.8333333 L9.16666667,19.75 C9.16666667,20.4416667 9.725,21 10.4166667,21 C11.1083333,21 11.6666667,20.4416667 11.6666667,19.75 L11.6666667,16.8333333 L12.5,16.8333333 C12.9583333,16.8333333 13.3333333,16.4583333 13.3333333,16 L13.3333333,7.66666667 L3.33333333,7.66666667 L3.33333333,16 Z M1.25,7.66666667 C0.558333333,7.66666667 0,8.225 0,8.91666667 L0,14.75 C0,15.4416667 0.558333333,16 1.25,16 C1.94166667,16 2.5,15.4416667 2.5,14.75 L2.5,8.91666667 C2.5,8.225 1.94166667,7.66666667 1.25,7.66666667 Z M15.4166667,7.66666667 C14.725,7.66666667 14.1666667,8.225 14.1666667,8.91666667 L14.1666667,14.75 C14.1666667,15.4416667 14.725,16 15.4166667,16 C16.1083333,16 16.6666667,15.4416667 16.6666667,14.75 L16.6666667,8.91666667 C16.6666667,8.225 16.1083333,7.66666667 15.4166667,7.66666667 Z M11.275,2.8 L12.3583333,1.71666667 C12.525,1.55 12.525,1.29166667 12.3583333,1.125 C12.1916667,0.958333333 11.9333333,0.958333333 11.7666667,1.125 L10.5333333,2.35833333 C9.85140601,2.01298937 9.0977202,1.83313253 8.33333317,1.83333333 C7.53333333,1.83333333 6.78333333,2.025 6.11666667,2.35833333 L4.875,1.125 C4.70833333,0.958333333 4.45,0.958333333 4.28333333,1.125 C4.11666667,1.29166667 4.11666667,1.55 4.28333333,1.71666667 L5.375,2.80833333 C4.09139882,3.74754494 3.33292877,5.24281447 3.33333317,6.83333333 L13.3333332,6.83333333 C13.3333332,5.175 12.525,3.70833333 11.275,2.8 L11.275,2.8 Z M6.66666667,5.16666667 L5.83333333,5.16666667 L5.83333333,4.33333333 L6.66666667,4.33333333 L6.66666667,5.16666667 Z M10.8333333,5.16666667 L10,5.16666667 L10,4.33333333 L10.8333333,4.33333333 L10.8333333,5.16666667 Z" fill-rule="nonzero"/></g><g transform="translate(10 81)"><rect fill="#28B8BB" opacity=".854" width="130" height="28"/><text font-family="PingFangSC-Regular, PingFang SC" font-size="12" fill="#FFF">
                                        <tspan x="41" y="18">直播讲解</tspan>
                                    </text><g transform="translate(0 36)"><rect fill="#28B8BB" opacity=".854" width="130" height="28"/><text font-family="PingFangSC-Regular, PingFang SC" font-size="12" fill="#FFF">
                                        <tspan x="43" y="18">AR 特效</tspan>
                                    </text></g><g transform="translate(0 72)"><rect fill="#28B8BB" opacity=".854" width="130" height="28"/><text font-family="PingFangSC-Regular, PingFang SC" font-size="12" fill="#FFF">
                                        <tspan x="41" y="18">美颜滤镜</tspan>
                                    </text></g><g transform="translate(0 108)"><rect fill="#28B8BB" opacity=".854" width="130" height="28"/><text font-family="PingFangSC-Regular, PingFang SC" font-size="12" fill="#FFF">
                                        <tspan x="44" y="18">IM 聊天</tspan>
                                    </text></g></g><g transform="translate(587)"><path d="M2,0 L148,0 C149.104569,-4.2495073e-16 150,0.8954305 150,2 L150,260 C150,261.104569 149.104569,262 148,262 L2,262 C0.8954305,262 -8.67738547e-17,261.104569 0,260 L0,2 C-3.57315355e-16,0.8954305 0.8954305,-1.91384796e-17 2,0 Z" fill="#EDF9FA"/><path d="M7.23931034 12.2610345C8.05206897 12.7865517 8.98689655 13.1034483 10 13.1034483 11.0058621 13.1034483 11.9348276 12.7906897 12.7437931 12.272069L12.7437931 12.272069 18.0796552 14.4655172C19.2417241 14.9444828 20 16.0775862 20 17.3344828L20 17.3344828 20 21.0344828C20 21.2248276 19.8455172 21.3793103 19.6551724 21.3793103L19.6551724 21.3793103 11.6944828 21.3793103 10.7113793 16.9558621 11.6748276 15.35C11.7389655 15.2434483 11.7406897 15.1106897 11.6793103 15.0024138 11.617931 14.8941379 11.5034483 14.8275862 11.3793103 14.8275862L11.3793103 14.8275862 8.62068966 14.8275862C8.49655172 14.8275862 8.38206897 14.8941379 8.32068966 15.0024138 8.25965517 15.1110345 8.26103448 15.2434483 8.32517241 15.35L8.32517241 15.35 9.28862069 16.9558621 8.30551724 21.3793103.344827586 21.3793103C.154482759 21.3793103 0 21.2248276 0 21.0344828L0 21.0344828 0 17.3344828C0 16.0775862.758275862 14.9444828 1.92034483 14.4655172L1.92034483 14.4655172ZM10 0C12.852069 0 15.1724138 2.32034483 15.1724138 5.17241379L15.1724138 5.17241379 15.1724138 6.55172414C15.1724138 9.31862069 12.9603448 12.4137931 10 12.4137931 7.03965517 12.4137931 4.82758621 9.31862069 4.82758621 6.55172414L4.82758621 6.55172414 4.82758621 5.17241379C4.82758621 2.32034483 7.14793103 0 10 0ZM11.7244828 4.34C10.6762069 5.31103448 9.18896552 5.86206897 7.5862069 5.86206897 6.86724138 5.86206897 6.17482759 5.74689655 5.51724138 5.52931034L5.51724138 5.52931034 5.51724138 6.55172414C5.51724138 8.9437931 7.47551724 11.7241379 10 11.7241379 12.5244828 11.7241379 14.4827586 8.9437931 14.4827586 6.55172414L14.4827586 6.55172414 14.4827586 5.71068966C13.4131034 5.4862069 12.452069 5.01103448 11.7244828 4.34ZM62.2393103 12.2610345C63.052069 12.7865517 63.9868966 13.1034483 65 13.1034483 66.0058621 13.1034483 66.9348276 12.7906897 67.7437931 12.272069L67.7437931 12.272069 73.0796552 14.4655172C74.2417241 14.9444828 75 16.0775862 75 17.3344828L75 17.3344828 75 21.0344828C75 21.2248276 74.8455172 21.3793103 74.6551724 21.3793103L74.6551724 21.3793103 66.6944828 21.3793103 65.7113793 16.9558621 66.6748276 15.35C66.7389655 15.2434483 66.7406897 15.1106897 66.6793103 15.0024138 66.617931 14.8941379 66.5034483 14.8275862 66.3793103 14.8275862L66.3793103 14.8275862 63.6206897 14.8275862C63.4965517 14.8275862 63.382069 14.8941379 63.3206897 15.0024138 63.2596552 15.1110345 63.2610345 15.2434483 63.3251724 15.35L63.3251724 15.35 64.2886207 16.9558621 63.3055172 21.3793103 55.3448276 21.3793103C55.1544828 21.3793103 55 21.2248276 55 21.0344828L55 21.0344828 55 17.3344828C55 16.0775862 55.7582759 14.9444828 56.9203448 14.4655172L56.9203448 14.4655172ZM65 0C67.852069 0 70.1724138 2.32034483 70.1724138 5.17241379L70.1724138 5.17241379 70.1724138 6.55172414C70.1724138 9.31862069 67.9603448 12.4137931 65 12.4137931 62.0396552 12.4137931 59.8275862 9.31862069 59.8275862 6.55172414L59.8275862 6.55172414 59.8275862 5.17241379C59.8275862 2.32034483 62.147931 0 65 0ZM66.7244828 4.34C65.6762069 5.31103448 64.1889655 5.86206897 62.5862069 5.86206897 61.8672414 5.86206897 61.1748276 5.74689655 60.5172414 5.52931034L60.5172414 5.52931034 60.5172414 6.55172414C60.5172414 8.9437931 62.4755172 11.7241379 65 11.7241379 67.5244828 11.7241379 69.4827586 8.9437931 69.4827586 6.55172414L69.4827586 6.55172414 69.4827586 5.71068966C68.4131034 5.4862069 67.452069 5.01103448 66.7244828 4.34ZM117.23931 12.2610345C118.052069 12.7865517 118.986897 13.1034483 120 13.1034483 121.005862 13.1034483 121.934828 12.7906897 122.743793 12.272069L122.743793 12.272069 128.079655 14.4655172C129.241724 14.9444828 130 16.0775862 130 17.3344828L130 17.3344828 130 21.0344828C130 21.2248276 129.845517 21.3793103 129.655172 21.3793103L129.655172 21.3793103 121.694483 21.3793103 120.711379 16.9558621 121.674828 15.35C121.738966 15.2434483 121.74069 15.1106897 121.67931 15.0024138 121.617931 14.8941379 121.503448 14.8275862 121.37931 14.8275862L121.37931 14.8275862 118.62069 14.8275862C118.496552 14.8275862 118.382069 14.8941379 118.32069 15.0024138 118.259655 15.1110345 118.261034 15.2434483 118.325172 15.35L118.325172 15.35 119.288621 16.9558621 118.305517 21.3793103 110.344828 21.3793103C110.154483 21.3793103 110 21.2248276 110 21.0344828L110 21.0344828 110 17.3344828C110 16.0775862 110.758276 14.9444828 111.920345 14.4655172L111.920345 14.4655172ZM120 0C122.852069 0 125.172414 2.32034483 125.172414 5.17241379L125.172414 5.17241379 125.172414 6.55172414C125.172414 9.31862069 122.960345 12.4137931 120 12.4137931 117.039655 12.4137931 114.827586 9.31862069 114.827586 6.55172414L114.827586 6.55172414 114.827586 5.17241379C114.827586 2.32034483 117.147931 0 120 0ZM121.724483 4.34C120.676207 5.31103448 119.188966 5.86206897 117.586207 5.86206897 116.867241 5.86206897 116.174828 5.74689655 115.517241 5.52931034L115.517241 5.52931034 115.517241 6.55172414C115.517241 8.9437931 117.475517 11.7241379 120 11.7241379 122.524483 11.7241379 124.482759 8.9437931 124.482759 6.55172414L124.482759 6.55172414 124.482759 5.71068966C123.413103 5.4862069 122.452069 5.01103448 121.724483 4.34Z" transform="translate(10 227)" fill="#47C2C5" fill-rule="nonzero"/><text font-family="PingFangSC-Medium, PingFang SC" font-size="14" font-weight="400" fill="#28B8BB">
                                <tspan x="47" y="23">连麦观众</tspan>
                            </text><g transform="translate(10 36)" fill="#47C2C5"><path d="M38.0923862 4.81905403C39.5677271 4.81905403 41.0792571 5.60511698 42.1354766 6.9205521L42.1354766 6.9205521 42.7641586 7.70324861 41.8838355 8.18549066C40.8250911 8.76535937 40.2426976 9.82073725 40.3260169 11.0090894 40.4110194 12.228581 41.1642596 13.2511362 42.2903327 13.6769904L42.2903327 13.6769904 43.129417 13.9942771 42.7607922 14.8106379C42.3256803 15.7734388 42.1093867 16.2169668 41.5505582 17.0644673 40.6045895 18.5061437 39.4145542 19.9814846 37.7641586 19.9966336 36.3948605 20.0058913 36.2097065 19.3233462 34.7436234 19.2543343 34.1683234 19.2579412 33.7839313 19.3954155 33.4236318 19.5513512L33.0651848 19.7091664C32.702412 19.8645868 32.3081267 20 31.7155136 20L31.7155136 20 31.6826909 20C29.9935813 19.984851 28.8010211 18.4977277 27.9501543 17.2033328 25.8032093 13.936206 25.3756718 9.8249453 26.9334904 7.42720081 27.9770857 5.81972732 29.6661953 4.81989564 31.3409975 4.81989564 32.207855 4.81989564 32.8828255 5.06059586 33.4786848 5.27268137 33.9331537 5.43427032 34.3253436 5.57397744 34.7225831 5.57397744 35.0710093 5.57397744 35.388296 5.45446894 35.7905852 5.30213769 36.3603546 5.08668574 37.0698311 4.81905403 38.0923862 4.81905403ZM37.8382202 0C37.9888683 1.01245582 37.573955 2.00302979 37.026909 2.70493183 36.441149 3.45648881 35.4320597 4.03888234 34.4574763 4.00858441 34.2798967 3.03905066 34.7368905 2.04258542 35.2906693 1.37013971 35.900836.629523649 36.9444313.0614374684 37.8382202 0ZM71 11.8181818 71 20 62.8181818 20 62.8181818 11.8181818 71 11.8181818ZM61.1818182 11.8181818 61.1818182 20 53 20 53 11.8181818 61.1818182 11.8181818ZM61.1818182 2 61.1818182 10.1818182 53 10.1818182 53 2 61.1818182 2ZM71 2 71 10.1818182 62.8181818 10.1818182 62.8181818 2 71 2ZM96.3358333 8.1105C99.5643333 8.1105 103 10.2555 103 13.18425 103 14.9589167 102.228167 16.74 100.606583 17.87025L100.606583 17.87025 100.996167 19.5615C101.031917 19.7173333 100.8605 19.83925 100.724833 19.7530833L100.724833 19.7530833 99.0079167 18.6631667C98.2351667 18.9198333 97.346 19.0646667 96.3358333 19.0646667 91.7699167 19.0646667 89.833 15.7710833 89.833 13.5875833 89.833 11.40775 91.7699167 8.1105 96.3358333 8.1105ZM88.9786667 2C92.7095 2 96.01225 4.2 96.6759167 7.37991667 96.56225 7.37533333 96.4485833 7.37258333 96.3349167 7.37258333 91.3409167 7.37258333 89.0941667 11.0071667 89.0941667 13.5875833 89.0941667 14.0440833 89.16475 14.5326667 89.3068333 15.0285833 89.1079167 15.0194167 87.0600833 14.9213333 86.09575 14.61425L86.09575 14.61425 83.9140833 15.8508333C83.6959167 15.9745833 83.4365 15.77475 83.5006667 15.5318333L83.5006667 15.5318333 83.9865 13.6920833C83.9865 13.6920833 81 11.7551667 81 8.41116667 81 5.06716667 84.4595 2 88.9786667 2ZM94.2476667 10.8751667C93.7636667 10.8751667 93.3713333 11.2675 93.3713333 11.7515 93.3713333 12.2355 93.7636667 12.6278333 94.2476667 12.6278333 94.7316667 12.6278333 95.124 12.2355 95.124 11.7515 95.124 11.2675 94.7316667 10.8751667 94.2476667 10.8751667ZM98.6293333 10.8751667C98.1453333 10.8751667 97.753 11.2675 97.753 11.7515 97.753 12.2355 98.1453333 12.6278333 98.6293333 12.6278333 99.1133333 12.6278333 99.5056667 12.2355 99.5056667 11.7515 99.5056667 11.2675 99.1133333 10.8751667 98.6293333 10.8751667ZM86.0040833 5.34308333C85.4559167 5.34308333 85.01225 5.78675 85.01225 6.33491667 85.01225 6.88308333 85.4568333 7.32675 86.0040833 7.32675 86.55225 7.32675 86.9959167 6.88308333 86.9959167 6.33491667 86.9959167 5.78675 86.55225 5.34308333 86.0040833 5.34308333ZM91.769 5.34308333C91.2208333 5.34308333 90.7771667 5.78675 90.7771667 6.33491667 90.7771667 6.88308333 91.22175 7.32675 91.769 7.32675 92.3171667 7.32675 92.7608333 6.88308333 92.7608333 6.33491667 92.7608333 5.78675 92.31625 5.34308333 91.769 5.34308333Z" fill-rule="nonzero"/><path d="M130,2 L130,20 L112,20 L112,2 L130,2 Z M120.556,9.432 L119.248,9.432 L119.248,15.192 C119.248,15.828 119.128,16.284 118.912,16.572 C118.684,16.86 118.324,17.016 117.82,17.016 C116.932,17.016 116.488,16.5 116.488,15.48 L116.488,15.204 L115.18,15.204 L115.18,15.492 C115.18,16.332 115.408,16.98 115.864,17.46 C116.296,17.928 116.944,18.168 117.796,18.168 C118.78,18.168 119.5,17.904 119.956,17.4 C120.352,16.92 120.556,16.2 120.556,15.24 L120.556,9.432 Z M125.236,9.264 C124.324,9.264 123.568,9.468 122.968,9.876 C122.332,10.308 122.02,10.896 122.02,11.652 C122.02,12.396 122.344,12.972 123.004,13.368 C123.268,13.512 123.916,13.74 124.972,14.076 C125.92,14.364 126.484,14.556 126.676,14.652 C127.216,14.928 127.492,15.3 127.492,15.78 C127.492,16.164 127.3,16.464 126.916,16.68 C126.532,16.896 126.016,17.016 125.368,17.016 C124.648,17.016 124.12,16.884 123.772,16.62 C123.388,16.332 123.148,15.84 123.052,15.168 L121.756,15.168 C121.828,16.248 122.212,17.04 122.92,17.544 C123.508,17.952 124.324,18.168 125.368,18.168 C126.448,18.168 127.288,17.952 127.888,17.52 C128.488,17.076 128.788,16.476 128.788,15.708 C128.788,14.916 128.416,14.304 127.684,13.86 C127.348,13.656 126.592,13.38 125.44,13.02 C124.636,12.78 124.144,12.6 123.952,12.492 C123.52,12.264 123.316,11.964 123.316,11.58 C123.316,11.148 123.496,10.836 123.868,10.644 C124.168,10.476 124.6,10.392 125.164,10.392 C125.812,10.392 126.292,10.512 126.628,10.764 C126.964,11.004 127.18,11.412 127.3,11.964 L128.596,11.964 C128.512,11.028 128.176,10.344 127.576,9.9 C127.012,9.468 126.232,9.264 125.236,9.264 Z"/><path d="M3.33333333,16 C3.33333333,16.4583333 3.70833333,16.8333333 4.16666667,16.8333333 L5,16.8333333 L5,19.75 C5,20.4416667 5.55833333,21 6.25,21 C6.94166667,21 7.5,20.4416667 7.5,19.75 L7.5,16.8333333 L9.16666667,16.8333333 L9.16666667,19.75 C9.16666667,20.4416667 9.725,21 10.4166667,21 C11.1083333,21 11.6666667,20.4416667 11.6666667,19.75 L11.6666667,16.8333333 L12.5,16.8333333 C12.9583333,16.8333333 13.3333333,16.4583333 13.3333333,16 L13.3333333,7.66666667 L3.33333333,7.66666667 L3.33333333,16 Z M1.25,7.66666667 C0.558333333,7.66666667 0,8.225 0,8.91666667 L0,14.75 C0,15.4416667 0.558333333,16 1.25,16 C1.94166667,16 2.5,15.4416667 2.5,14.75 L2.5,8.91666667 C2.5,8.225 1.94166667,7.66666667 1.25,7.66666667 Z M15.4166667,7.66666667 C14.725,7.66666667 14.1666667,8.225 14.1666667,8.91666667 L14.1666667,14.75 C14.1666667,15.4416667 14.725,16 15.4166667,16 C16.1083333,16 16.6666667,15.4416667 16.6666667,14.75 L16.6666667,8.91666667 C16.6666667,8.225 16.1083333,7.66666667 15.4166667,7.66666667 Z M11.275,2.8 L12.3583333,1.71666667 C12.525,1.55 12.525,1.29166667 12.3583333,1.125 C12.1916667,0.958333333 11.9333333,0.958333333 11.7666667,1.125 L10.5333333,2.35833333 C9.85140601,2.01298937 9.0977202,1.83313253 8.33333317,1.83333333 C7.53333333,1.83333333 6.78333333,2.025 6.11666667,2.35833333 L4.875,1.125 C4.70833333,0.958333333 4.45,0.958333333 4.28333333,1.125 C4.11666667,1.29166667 4.11666667,1.55 4.28333333,1.71666667 L5.375,2.80833333 C4.09139882,3.74754494 3.33292877,5.24281447 3.33333317,6.83333333 L13.3333332,6.83333333 C13.3333332,5.175 12.525,3.70833333 11.275,2.8 L11.275,2.8 Z M6.66666667,5.16666667 L5.83333333,5.16666667 L5.83333333,4.33333333 L6.66666667,4.33333333 L6.66666667,5.16666667 Z M10.8333333,5.16666667 L10,5.16666667 L10,4.33333333 L10.8333333,4.33333333 L10.8333333,5.16666667 Z" fill-rule="nonzero"/></g><g transform="translate(10 81)"><rect fill="#28B8BB" opacity=".854" width="130" height="28"/><text font-family="PingFangSC-Regular, PingFang SC" font-size="12" fill="#FFF">
                                        <tspan x="41" y="18">实时互动</tspan>
                                    </text><g transform="translate(0 36)"><rect fill="#28B8BB" opacity=".854" width="130" height="28"/><text font-family="PingFangSC-Regular, PingFang SC" font-size="12" fill="#FFF">
                                        <tspan x="43" y="18">AR 特效</tspan>
                                    </text></g><g transform="translate(0 72)"><rect fill="#28B8BB" opacity=".854" width="130" height="28"/><text font-family="PingFangSC-Regular, PingFang SC" font-size="12" fill="#FFF">
                                        <tspan x="41" y="18">美颜滤镜</tspan>
                                    </text></g><g transform="translate(0 108)"><rect fill="#28B8BB" opacity=".854" width="130" height="28"/><text font-family="PingFangSC-Regular, PingFang SC" font-size="12" fill="#FFF">
                                        <tspan x="44" y="18">IM 聊天</tspan>
                                    </text></g></g></g><g transform="translate(634 271)"><path d="M27.5,-0.5 L32,8.5 L28,8.5 L28,52.5 L27,52.5 L27,8.5 L23,8.5 L27.5,-0.5 Z" fill="#47C2C5" fill-rule="nonzero"/><g transform="translate(0 18.5)"><path d="M54,0.5 C54.4142136,0.5 54.7892136,0.667893219 55.0606602,0.939339828 C55.3321068,1.21078644 55.5,1.58578644 55.5,2 L55.5,2 L55.5,22 C55.5,22.4142136 55.3321068,22.7892136 55.0606602,23.0606602 C54.7892136,23.3321068 54.4142136,23.5 54,23.5 L54,23.5 L2,23.5 C1.58578644,23.5 1.21078644,23.3321068 0.939339828,23.0606602 C0.667893219,22.7892136 0.5,22.4142136 0.5,22 L0.5,22 L0.5,2 C0.5,1.58578644 0.667893219,1.21078644 0.939339828,0.939339828 C1.21078644,0.667893219 1.58578644,0.5 2,0.5 L2,0.5 Z" stroke="#47C2C5" fill="#EDF9FA"/><text font-family="PingFangSC-Regular, PingFang SC" font-size="12" fill="#47C2C5">
                                    <tspan x="4" y="17">申请连麦</tspan>
                                </text></g></g><g transform="translate(587 332)"><path d="M2,0 L148,0 C149.104569,-4.2495073e-16 150,0.8954305 150,2 L150,260 C150,261.104569 149.104569,262 148,262 L2,262 C0.8954305,262 -8.67738547e-17,261.104569 0,260 L0,2 C-3.57315355e-16,0.8954305 0.8954305,-1.91384796e-17 2,0 Z" fill="#EDF9FA"/><path d="M7.23931034 12.2610345C8.05206897 12.7865517 8.98689655 13.1034483 10 13.1034483 11.0058621 13.1034483 11.9348276 12.7906897 12.7437931 12.272069L12.7437931 12.272069 18.0796552 14.4655172C19.2417241 14.9444828 20 16.0775862 20 17.3344828L20 17.3344828 20 21.0344828C20 21.2248276 19.8455172 21.3793103 19.6551724 21.3793103L19.6551724 21.3793103 11.6944828 21.3793103 10.7113793 16.9558621 11.6748276 15.35C11.7389655 15.2434483 11.7406897 15.1106897 11.6793103 15.0024138 11.617931 14.8941379 11.5034483 14.8275862 11.3793103 14.8275862L11.3793103 14.8275862 8.62068966 14.8275862C8.49655172 14.8275862 8.38206897 14.8941379 8.32068966 15.0024138 8.25965517 15.1110345 8.26103448 15.2434483 8.32517241 15.35L8.32517241 15.35 9.28862069 16.9558621 8.30551724 21.3793103.344827586 21.3793103C.154482759 21.3793103 0 21.2248276 0 21.0344828L0 21.0344828 0 17.3344828C0 16.0775862.758275862 14.9444828 1.92034483 14.4655172L1.92034483 14.4655172ZM10 0C12.852069 0 15.1724138 2.32034483 15.1724138 5.17241379L15.1724138 5.17241379 15.1724138 6.55172414C15.1724138 9.31862069 12.9603448 12.4137931 10 12.4137931 7.03965517 12.4137931 4.82758621 9.31862069 4.82758621 6.55172414L4.82758621 6.55172414 4.82758621 5.17241379C4.82758621 2.32034483 7.14793103 0 10 0ZM11.7244828 4.34C10.6762069 5.31103448 9.18896552 5.86206897 7.5862069 5.86206897 6.86724138 5.86206897 6.17482759 5.74689655 5.51724138 5.52931034L5.51724138 5.52931034 5.51724138 6.55172414C5.51724138 8.9437931 7.47551724 11.7241379 10 11.7241379 12.5244828 11.7241379 14.4827586 8.9437931 14.4827586 6.55172414L14.4827586 6.55172414 14.4827586 5.71068966C13.4131034 5.4862069 12.452069 5.01103448 11.7244828 4.34ZM62.2393103 12.2610345C63.052069 12.7865517 63.9868966 13.1034483 65 13.1034483 66.0058621 13.1034483 66.9348276 12.7906897 67.7437931 12.272069L67.7437931 12.272069 73.0796552 14.4655172C74.2417241 14.9444828 75 16.0775862 75 17.3344828L75 17.3344828 75 21.0344828C75 21.2248276 74.8455172 21.3793103 74.6551724 21.3793103L74.6551724 21.3793103 66.6944828 21.3793103 65.7113793 16.9558621 66.6748276 15.35C66.7389655 15.2434483 66.7406897 15.1106897 66.6793103 15.0024138 66.617931 14.8941379 66.5034483 14.8275862 66.3793103 14.8275862L66.3793103 14.8275862 63.6206897 14.8275862C63.4965517 14.8275862 63.382069 14.8941379 63.3206897 15.0024138 63.2596552 15.1110345 63.2610345 15.2434483 63.3251724 15.35L63.3251724 15.35 64.2886207 16.9558621 63.3055172 21.3793103 55.3448276 21.3793103C55.1544828 21.3793103 55 21.2248276 55 21.0344828L55 21.0344828 55 17.3344828C55 16.0775862 55.7582759 14.9444828 56.9203448 14.4655172L56.9203448 14.4655172ZM65 0C67.852069 0 70.1724138 2.32034483 70.1724138 5.17241379L70.1724138 5.17241379 70.1724138 6.55172414C70.1724138 9.31862069 67.9603448 12.4137931 65 12.4137931 62.0396552 12.4137931 59.8275862 9.31862069 59.8275862 6.55172414L59.8275862 6.55172414 59.8275862 5.17241379C59.8275862 2.32034483 62.147931 0 65 0ZM66.7244828 4.34C65.6762069 5.31103448 64.1889655 5.86206897 62.5862069 5.86206897 61.8672414 5.86206897 61.1748276 5.74689655 60.5172414 5.52931034L60.5172414 5.52931034 60.5172414 6.55172414C60.5172414 8.9437931 62.4755172 11.7241379 65 11.7241379 67.5244828 11.7241379 69.4827586 8.9437931 69.4827586 6.55172414L69.4827586 6.55172414 69.4827586 5.71068966C68.4131034 5.4862069 67.452069 5.01103448 66.7244828 4.34ZM117.23931 12.2610345C118.052069 12.7865517 118.986897 13.1034483 120 13.1034483 121.005862 13.1034483 121.934828 12.7906897 122.743793 12.272069L122.743793 12.272069 128.079655 14.4655172C129.241724 14.9444828 130 16.0775862 130 17.3344828L130 17.3344828 130 21.0344828C130 21.2248276 129.845517 21.3793103 129.655172 21.3793103L129.655172 21.3793103 121.694483 21.3793103 120.711379 16.9558621 121.674828 15.35C121.738966 15.2434483 121.74069 15.1106897 121.67931 15.0024138 121.617931 14.8941379 121.503448 14.8275862 121.37931 14.8275862L121.37931 14.8275862 118.62069 14.8275862C118.496552 14.8275862 118.382069 14.8941379 118.32069 15.0024138 118.259655 15.1110345 118.261034 15.2434483 118.325172 15.35L118.325172 15.35 119.288621 16.9558621 118.305517 21.3793103 110.344828 21.3793103C110.154483 21.3793103 110 21.2248276 110 21.0344828L110 21.0344828 110 17.3344828C110 16.0775862 110.758276 14.9444828 111.920345 14.4655172L111.920345 14.4655172ZM120 0C122.852069 0 125.172414 2.32034483 125.172414 5.17241379L125.172414 5.17241379 125.172414 6.55172414C125.172414 9.31862069 122.960345 12.4137931 120 12.4137931 117.039655 12.4137931 114.827586 9.31862069 114.827586 6.55172414L114.827586 6.55172414 114.827586 5.17241379C114.827586 2.32034483 117.147931 0 120 0ZM121.724483 4.34C120.676207 5.31103448 119.188966 5.86206897 117.586207 5.86206897 116.867241 5.86206897 116.174828 5.74689655 115.517241 5.52931034L115.517241 5.52931034 115.517241 6.55172414C115.517241 8.9437931 117.475517 11.7241379 120 11.7241379 122.524483 11.7241379 124.482759 8.9437931 124.482759 6.55172414L124.482759 6.55172414 124.482759 5.71068966C123.413103 5.4862069 122.452069 5.01103448 121.724483 4.34Z" transform="translate(10 227)" fill="#47C2C5" fill-rule="nonzero"/><text font-family="PingFangSC-Medium, PingFang SC" font-size="14" font-weight="400" fill="#28B8BB">
                                <tspan x="61" y="23">观众</tspan>
                            </text><g transform="translate(10 36)" fill="#47C2C5"><path d="M38.0923862 4.81905403C39.5677271 4.81905403 41.0792571 5.60511698 42.1354766 6.9205521L42.1354766 6.9205521 42.7641586 7.70324861 41.8838355 8.18549066C40.8250911 8.76535937 40.2426976 9.82073725 40.3260169 11.0090894 40.4110194 12.228581 41.1642596 13.2511362 42.2903327 13.6769904L42.2903327 13.6769904 43.129417 13.9942771 42.7607922 14.8106379C42.3256803 15.7734388 42.1093867 16.2169668 41.5505582 17.0644673 40.6045895 18.5061437 39.4145542 19.9814846 37.7641586 19.9966336 36.3948605 20.0058913 36.2097065 19.3233462 34.7436234 19.2543343 34.1683234 19.2579412 33.7839313 19.3954155 33.4236318 19.5513512L33.0651848 19.7091664C32.702412 19.8645868 32.3081267 20 31.7155136 20L31.7155136 20 31.6826909 20C29.9935813 19.984851 28.8010211 18.4977277 27.9501543 17.2033328 25.8032093 13.936206 25.3756718 9.8249453 26.9334904 7.42720081 27.9770857 5.81972732 29.6661953 4.81989564 31.3409975 4.81989564 32.207855 4.81989564 32.8828255 5.06059586 33.4786848 5.27268137 33.9331537 5.43427032 34.3253436 5.57397744 34.7225831 5.57397744 35.0710093 5.57397744 35.388296 5.45446894 35.7905852 5.30213769 36.3603546 5.08668574 37.0698311 4.81905403 38.0923862 4.81905403ZM37.8382202 0C37.9888683 1.01245582 37.573955 2.00302979 37.026909 2.70493183 36.441149 3.45648881 35.4320597 4.03888234 34.4574763 4.00858441 34.2798967 3.03905066 34.7368905 2.04258542 35.2906693 1.37013971 35.900836.629523649 36.9444313.0614374684 37.8382202 0ZM71 11.8181818 71 20 62.8181818 20 62.8181818 11.8181818 71 11.8181818ZM61.1818182 11.8181818 61.1818182 20 53 20 53 11.8181818 61.1818182 11.8181818ZM61.1818182 2 61.1818182 10.1818182 53 10.1818182 53 2 61.1818182 2ZM71 2 71 10.1818182 62.8181818 10.1818182 62.8181818 2 71 2ZM96.3358333 8.1105C99.5643333 8.1105 103 10.2555 103 13.18425 103 14.9589167 102.228167 16.74 100.606583 17.87025L100.606583 17.87025 100.996167 19.5615C101.031917 19.7173333 100.8605 19.83925 100.724833 19.7530833L100.724833 19.7530833 99.0079167 18.6631667C98.2351667 18.9198333 97.346 19.0646667 96.3358333 19.0646667 91.7699167 19.0646667 89.833 15.7710833 89.833 13.5875833 89.833 11.40775 91.7699167 8.1105 96.3358333 8.1105ZM88.9786667 2C92.7095 2 96.01225 4.2 96.6759167 7.37991667 96.56225 7.37533333 96.4485833 7.37258333 96.3349167 7.37258333 91.3409167 7.37258333 89.0941667 11.0071667 89.0941667 13.5875833 89.0941667 14.0440833 89.16475 14.5326667 89.3068333 15.0285833 89.1079167 15.0194167 87.0600833 14.9213333 86.09575 14.61425L86.09575 14.61425 83.9140833 15.8508333C83.6959167 15.9745833 83.4365 15.77475 83.5006667 15.5318333L83.5006667 15.5318333 83.9865 13.6920833C83.9865 13.6920833 81 11.7551667 81 8.41116667 81 5.06716667 84.4595 2 88.9786667 2ZM94.2476667 10.8751667C93.7636667 10.8751667 93.3713333 11.2675 93.3713333 11.7515 93.3713333 12.2355 93.7636667 12.6278333 94.2476667 12.6278333 94.7316667 12.6278333 95.124 12.2355 95.124 11.7515 95.124 11.2675 94.7316667 10.8751667 94.2476667 10.8751667ZM98.6293333 10.8751667C98.1453333 10.8751667 97.753 11.2675 97.753 11.7515 97.753 12.2355 98.1453333 12.6278333 98.6293333 12.6278333 99.1133333 12.6278333 99.5056667 12.2355 99.5056667 11.7515 99.5056667 11.2675 99.1133333 10.8751667 98.6293333 10.8751667ZM86.0040833 5.34308333C85.4559167 5.34308333 85.01225 5.78675 85.01225 6.33491667 85.01225 6.88308333 85.4568333 7.32675 86.0040833 7.32675 86.55225 7.32675 86.9959167 6.88308333 86.9959167 6.33491667 86.9959167 5.78675 86.55225 5.34308333 86.0040833 5.34308333ZM91.769 5.34308333C91.2208333 5.34308333 90.7771667 5.78675 90.7771667 6.33491667 90.7771667 6.88308333 91.22175 7.32675 91.769 7.32675 92.3171667 7.32675 92.7608333 6.88308333 92.7608333 6.33491667 92.7608333 5.78675 92.31625 5.34308333 91.769 5.34308333Z" fill-rule="nonzero"/><path d="M130,2 L130,20 L112,20 L112,2 L130,2 Z M120.556,9.432 L119.248,9.432 L119.248,15.192 C119.248,15.828 119.128,16.284 118.912,16.572 C118.684,16.86 118.324,17.016 117.82,17.016 C116.932,17.016 116.488,16.5 116.488,15.48 L116.488,15.204 L115.18,15.204 L115.18,15.492 C115.18,16.332 115.408,16.98 115.864,17.46 C116.296,17.928 116.944,18.168 117.796,18.168 C118.78,18.168 119.5,17.904 119.956,17.4 C120.352,16.92 120.556,16.2 120.556,15.24 L120.556,9.432 Z M125.236,9.264 C124.324,9.264 123.568,9.468 122.968,9.876 C122.332,10.308 122.02,10.896 122.02,11.652 C122.02,12.396 122.344,12.972 123.004,13.368 C123.268,13.512 123.916,13.74 124.972,14.076 C125.92,14.364 126.484,14.556 126.676,14.652 C127.216,14.928 127.492,15.3 127.492,15.78 C127.492,16.164 127.3,16.464 126.916,16.68 C126.532,16.896 126.016,17.016 125.368,17.016 C124.648,17.016 124.12,16.884 123.772,16.62 C123.388,16.332 123.148,15.84 123.052,15.168 L121.756,15.168 C121.828,16.248 122.212,17.04 122.92,17.544 C123.508,17.952 124.324,18.168 125.368,18.168 C126.448,18.168 127.288,17.952 127.888,17.52 C128.488,17.076 128.788,16.476 128.788,15.708 C128.788,14.916 128.416,14.304 127.684,13.86 C127.348,13.656 126.592,13.38 125.44,13.02 C124.636,12.78 124.144,12.6 123.952,12.492 C123.52,12.264 123.316,11.964 123.316,11.58 C123.316,11.148 123.496,10.836 123.868,10.644 C124.168,10.476 124.6,10.392 125.164,10.392 C125.812,10.392 126.292,10.512 126.628,10.764 C126.964,11.004 127.18,11.412 127.3,11.964 L128.596,11.964 C128.512,11.028 128.176,10.344 127.576,9.9 C127.012,9.468 126.232,9.264 125.236,9.264 Z"/><path d="M3.33333333,16 C3.33333333,16.4583333 3.70833333,16.8333333 4.16666667,16.8333333 L5,16.8333333 L5,19.75 C5,20.4416667 5.55833333,21 6.25,21 C6.94166667,21 7.5,20.4416667 7.5,19.75 L7.5,16.8333333 L9.16666667,16.8333333 L9.16666667,19.75 C9.16666667,20.4416667 9.725,21 10.4166667,21 C11.1083333,21 11.6666667,20.4416667 11.6666667,19.75 L11.6666667,16.8333333 L12.5,16.8333333 C12.9583333,16.8333333 13.3333333,16.4583333 13.3333333,16 L13.3333333,7.66666667 L3.33333333,7.66666667 L3.33333333,16 Z M1.25,7.66666667 C0.558333333,7.66666667 0,8.225 0,8.91666667 L0,14.75 C0,15.4416667 0.558333333,16 1.25,16 C1.94166667,16 2.5,15.4416667 2.5,14.75 L2.5,8.91666667 C2.5,8.225 1.94166667,7.66666667 1.25,7.66666667 Z M15.4166667,7.66666667 C14.725,7.66666667 14.1666667,8.225 14.1666667,8.91666667 L14.1666667,14.75 C14.1666667,15.4416667 14.725,16 15.4166667,16 C16.1083333,16 16.6666667,15.4416667 16.6666667,14.75 L16.6666667,8.91666667 C16.6666667,8.225 16.1083333,7.66666667 15.4166667,7.66666667 Z M11.275,2.8 L12.3583333,1.71666667 C12.525,1.55 12.525,1.29166667 12.3583333,1.125 C12.1916667,0.958333333 11.9333333,0.958333333 11.7666667,1.125 L10.5333333,2.35833333 C9.85140601,2.01298937 9.0977202,1.83313253 8.33333317,1.83333333 C7.53333333,1.83333333 6.78333333,2.025 6.11666667,2.35833333 L4.875,1.125 C4.70833333,0.958333333 4.45,0.958333333 4.28333333,1.125 C4.11666667,1.29166667 4.11666667,1.55 4.28333333,1.71666667 L5.375,2.80833333 C4.09139882,3.74754494 3.33292877,5.24281447 3.33333317,6.83333333 L13.3333332,6.83333333 C13.3333332,5.175 12.525,3.70833333 11.275,2.8 L11.275,2.8 Z M6.66666667,5.16666667 L5.83333333,5.16666667 L5.83333333,4.33333333 L6.66666667,4.33333333 L6.66666667,5.16666667 Z M10.8333333,5.16666667 L10,5.16666667 L10,4.33333333 L10.8333333,4.33333333 L10.8333333,5.16666667 Z" fill-rule="nonzero"/></g><g transform="translate(10 81)"><rect fill="#28B8BB" opacity=".854" width="130" height="28"/><text font-family="PingFangSC-Regular, PingFang SC" font-size="12" fill="#FFF">
                                        <tspan x="41" y="18">实时互动</tspan>
                                    </text><g transform="translate(0 36)"><rect fill="#28B8BB" opacity=".854" width="130" height="28"/><text font-family="PingFangSC-Regular, PingFang SC" font-size="12" fill="#FFF">
                                        <tspan x="43" y="18">AR 特效</tspan>
                                    </text></g><g transform="translate(0 72)"><rect fill="#28B8BB" opacity=".854" width="130" height="28"/><text font-family="PingFangSC-Regular, PingFang SC" font-size="12" fill="#FFF">
                                        <tspan x="41" y="18">美颜滤镜</tspan>
                                    </text></g><g transform="translate(0 108)"><rect fill="#28B8BB" opacity=".854" width="130" height="28"/><text font-family="PingFangSC-Regular, PingFang SC" font-size="12" fill="#FFF">
                                        <tspan x="44" y="18">IM 聊天</tspan>
                                    </text></g></g></g><g transform="translate(233 431)"><rect fill="#EDF9FA" width="252" height="60"/><g transform="translate(71 18)"><path d="M28,4 L28,24 L0,24 L0,4 L28,4 Z M11,10 L11,18 L19,14 L11,10 Z" fill="#00AAE7"/><line x1="6" x2="11.414" y2="5.414" stroke="#00AAE7" stroke-width="2"/><line x1="16.586" x2="22" y2="5.414" stroke="#00AAE7" stroke-width="2" transform="matrix(-1 0 0 1 38.586 0)"/><text font-family="PingFangSC-Medium, PingFang SC" font-size="12" font-weight="400" fill="#00AAE7">
                                    <tspan x="40" y="17">视频直播 Pili</tspan>
                                </text></g></g><g transform="translate(331 337)"><path d="M29,0 L29,67 L33,67 L28.5,76 L24,67 L28,67 L28,0 L29,0 Z" fill="#00AAE7" fill-rule="nonzero"/><g transform="translate(0 21)"><path d="M54,0.5 C54.4142136,0.5 54.7892136,0.667893219 55.0606602,0.939339828 C55.3321068,1.21078644 55.5,1.58578644 55.5,2 L55.5,2 L55.5,22 C55.5,22.4142136 55.3321068,22.7892136 55.0606602,23.0606602 C54.7892136,23.3321068 54.4142136,23.5 54,23.5 L54,23.5 L2,23.5 C1.58578644,23.5 1.21078644,23.3321068 0.939339828,23.0606602 C0.667893219,22.7892136 0.5,22.4142136 0.5,22 L0.5,22 L0.5,2 C0.5,1.58578644 0.667893219,1.21078644 0.939339828,0.939339828 C1.21078644,0.667893219 1.58578644,0.5 2,0.5 L2,0.5 Z" stroke="#00AAE7" fill="#EDF9FA"/><text font-family="PingFangSC-Regular, PingFang SC" font-size="12" fill="#00AAE7">
                                    <tspan x="4" y="17">旁路直播</tspan>
                                </text></g></g><g transform="translate(157 90)"><path d="M60,18 L69,22.5 L60,27 L60,23 L9,23 L9,27 L0,22.5 L9,18 L9,22 L60,22 L60,18 Z" fill="#47C2C5" fill-rule="nonzero"/><g transform="translate(14)"><path d="M34,0.5 C34.4142136,0.5 34.7892136,0.667893219 35.0606602,0.939339828 C35.3321068,1.21078644 35.5,1.58578644 35.5,2 L35.5,2 L35.5,42 C35.5,42.4142136 35.3321068,42.7892136 35.0606602,43.0606602 C34.7892136,43.3321068 34.4142136,43.5 34,43.5 L34,43.5 L2,43.5 C1.58578644,43.5 1.21078644,43.3321068 0.939339828,43.0606602 C0.667893219,42.7892136 0.5,42.4142136 0.5,42 L0.5,42 L0.5,2 C0.5,1.58578644 0.667893219,1.21078644 0.939339828,0.939339828 C1.21078644,0.667893219 1.58578644,0.5 2,0.5 L2,0.5 Z" stroke="#47C2C5" fill="#EDF9FA"/><text font-family="PingFangSC-Regular, PingFang SC" font-size="12" fill="#47C2C5">
                                    <tspan x="6" y="17">连麦</tspan>
                                    <tspan x="6" y="34">互动</tspan>
                                </text></g></g></g></svg>