<svg width="707" height="468" viewBox="0 0 707 468" xmlns="http://www.w3.org/2000/svg" xmlns:xlink="http://www.w3.org/1999/xlink"><defs><rect id="a" x="0" y="0" width="228" height="153"/><mask id="b" maskContentUnits="userSpaceOnUse" maskUnits="objectBoundingBox" x="0" y="0" width="228" height="153" fill="#fff"><use xlink:href="#a"/></mask></defs><g fill="none" fill-rule="evenodd"><g transform="translate(232)"><path d="M2,0 L250,0 C251.104569,-1.58997828e-14 252,0.8954305 252,2 L252,314 C252,315.104569 251.104569,316 250,316 L2,316 C0.8954305,316 1.3527075e-16,315.104569 0,314 L0,2 C-1.3527075e-16,0.8954305 0.8954305,2.02906125e-16 2,0 Z" fill="#EDF9FA"/><text font-family="PingFangSC-Medium, PingFang SC" font-size="14" font-weight="400" fill="#22B5E9">
                                <tspan x="67" y="27">实时音视频 QRTC</tspan>
                            </text><g transform="translate(12 151)"><use stroke="#00AAE7" mask="url(#b)" stroke-width="2" stroke-dasharray="2,2" xlink:href="#a"/><text font-family="PingFangSC-Medium, PingFang SC" font-size="14" font-weight="400" fill="#22B5E9">
                                    <tspan x="58" y="27">存储及多媒体处理</tspan>
                                </text><g transform="translate(11 40)"><rect stroke="#00AAE7" x=".5" y=".5" width="97" height="27"/><text font-family="PingFangSC-Regular, PingFang SC" font-size="12" fill="#00AAE7">
                                            <tspan x="26" y="18">内容审核</tspan>
                                        </text><g transform="translate(108)"><rect stroke="#00AAE7" x=".5" y=".5" width="97" height="27"/><text font-family="PingFangSC-Regular, PingFang SC" font-size="12" fill="#00AAE7">
                                            <tspan x="26" y="18">视频分析</tspan>
                                        </text></g><g transform="translate(0 38)"><rect stroke="#00AAE7" x=".5" y=".5" width="97" height="27"/><text font-family="PingFangSC-Regular, PingFang SC" font-size="12" fill="#00AAE7">
                                            <tspan x="20" y="19">音视频处理</tspan>
                                        </text></g><g transform="translate(0 76)"><rect stroke="#00AAE7" x=".5" y=".5" width="97" height="27"/><text font-family="PingFangSC-Regular, PingFang SC" font-size="12" fill="#00AAE7">
                                            <tspan x="26" y="18">录制存储</tspan>
                                        </text></g><g transform="translate(108 76)"><rect stroke="#00AAE7" x=".5" y=".5" width="97" height="27"/><text font-family="PingFangSC-Regular, PingFang SC" font-size="12" fill="#00AAE7">
                                            <tspan x="26" y="18">实时转码</tspan>
                                        </text></g><g transform="translate(108 38)"><rect stroke="#00AAE7" x=".5" y=".5" width="97" height="27"/><text font-family="PingFangSC-Regular, PingFang SC" font-size="12" fill="#00AAE7">
                                            <tspan x="26" y="18">质量分析</tspan>
                                        </text></g></g></g><g transform="translate(10 44)"><rect fill="#00AAE7" opacity=".854" width="110" height="28"/><text font-family="PingFangSC-Regular, PingFang SC" font-size="12" fill="#FFF">
                                        <tspan x="30" y="19">调度中心</tspan>
                                    </text><g transform="translate(122)"><rect fill="#00AAE7" opacity=".854" width="110" height="28"/><text font-family="PingFangSC-Regular, PingFang SC" font-size="12" fill="#FFF">
                                        <tspan x="31" y="19">业务中心</tspan>
                                    </text></g><g transform="translate(0 62)"><rect fill="#00AAE7" opacity=".854" width="232" height="28"/><text font-family="PingFangSC-Regular, PingFang SC" font-size="12" fill="#FFF">
                                        <tspan x="74" y="19">实时音视频网络</tspan>
                                    </text></g><path d="M55 33 55 45 59 45 54.5 54 50 45 54 45 54 33 55 33ZM178 33 178 45 182 45 177.5 54 173 45 177 45 177 33 178 33Z" fill="#00AAE7" fill-rule="nonzero"/></g></g><g transform="translate(489 86)"><path d="M84,8 L93,12.5 L84,17 L84,13 L9,13 L9,17 L0,12.5 L9,8 L9,12 L84,12 L84,8 Z" fill="#00AAE7" fill-rule="nonzero"/><g transform="translate(19)"><path d="M54,0.5 C54.4142136,0.5 54.7892136,0.667893219 55.0606602,0.939339828 C55.3321068,1.21078644 55.5,1.58578644 55.5,2 L55.5,2 L55.5,22 C55.5,22.4142136 55.3321068,22.7892136 55.0606602,23.0606602 C54.7892136,23.3321068 54.4142136,23.5 54,23.5 L54,23.5 L2,23.5 C1.58578644,23.5 1.21078644,23.3321068 0.939339828,23.0606602 C0.667893219,22.7892136 0.5,22.4142136 0.5,22 L0.5,22 L0.5,2 C0.5,1.58578644 0.667893219,1.21078644 0.939339828,0.939339828 C1.21078644,0.667893219 1.58578644,0.5 2,0.5 L2,0.5 Z" stroke="#00AAE7" fill="#EDF9FA"/><text font-family="PingFangSC-Regular, PingFang SC" font-size="12" fill="#00AAE7">
                                    <tspan x="3" y="17">连麦互动</tspan>
                                </text></g></g><g transform="translate(489 426)"><path d="M83.5,8 L92.5,12.5 L83.5,17 L83.5,13 L-0.5,13 L-0.5,12 L83.5,12 L83.5,8 Z" fill="#00AAE7" fill-rule="nonzero"/><g transform="translate(14)"><path d="M54,0.5 C54.4142136,0.5 54.7892136,0.667893219 55.0606602,0.939339828 C55.3321068,1.21078644 55.5,1.58578644 55.5,2 L55.5,2 L55.5,22 C55.5,22.4142136 55.3321068,22.7892136 55.0606602,23.0606602 C54.7892136,23.3321068 54.4142136,23.5 54,23.5 L54,23.5 L2,23.5 C1.58578644,23.5 1.21078644,23.3321068 0.939339828,23.0606602 C0.667893219,22.7892136 0.5,22.4142136 0.5,22 L0.5,22 L0.5,2 C0.5,1.58578644 0.667893219,1.21078644 0.939339828,0.939339828 C1.21078644,0.667893219 1.58578644,0.5 2,0.5 L2,0.5 Z" stroke="#00AAE7" fill="#EDF9FA"/><text font-family="PingFangSC-Regular, PingFang SC" font-size="12" fill="#00AAE7">
                                    <tspan x="4" y="17">直播下行</tspan>
                                </text></g></g><rect fill="#EDF9FA" width="120" height="316"/><g transform="translate(39 129)" fill="#47C2C5"><text font-family="PingFangSC-Regular, PingFang SC" font-size="14">
                                    <tspan x="0" y="53">鉴定官</tspan>
                                </text><path d="M33.4,22.993 L26.029,18.959 C28.6757987,16.3360903 30.1140699,12.7315385 30,9.007 L30,7.2 C31.592,6.3 32,5.283 32,4.5 C32,1.546 26.466,0 21,0 C15.534,0 10,1.546 10,4.5 C10,5.279 10.408,6.3 12,7.2 L12,9.007 C11.8879706,12.7321532 13.3279843,16.3365336 15.976,18.959 L8.606,22.992 C6.99943091,23.8681866 6,25.5520363 6,27.382 L6,31.007 C6,31.5592847 6.44771525,32.007 7,32.007 L20,32.007 L20,26.007 C20,25.4547153 20.4477153,25.007 21,25.007 C21.5522847,25.007 22,25.4547153 22,26.007 L22,32.007 L35,32.007 C35.5522847,32.007 36,31.5592847 36,31.007 L36,27.382 C36.0009716,25.5536705 35.0039362,23.870598 33.4,22.993 L33.4,22.993 Z M21,2 C22.3807119,2 23.5,3.11928813 23.5,4.5 C23.5,5.88071187 22.3807119,7 21,7 C19.6192881,7 18.5,5.88071187 18.5,4.5 C18.5,3.11928813 19.6192881,2 21,2 Z M21,19.007 C17.206,19.007 14,14.428 14,9.007 L14,8.435 C15.368,10 18.008,11 21,11 C23.992,11 26.632,10 28,8.435 L28,9.007 C28,14.428 24.794,19.007 21,19.007 Z" fill-rule="nonzero"/></g><g transform="translate(587)"><path d="M2,0 L118,0 C119.104569,7.20144301e-15 120,0.8954305 120,2 L120,194 C120,195.104569 119.104569,196 118,196 L2,196 C0.8954305,196 -8.67738547e-17,195.104569 0,194 L0,2 C-3.57315355e-16,0.8954305 0.8954305,-1.91384796e-17 2,0 Z" fill="#EDF9FA"/><g transform="translate(32 20)"><path d="M23.5828966,80.6176552 C24.8833103,81.4584828 26.3790345,81.9655172 28,81.9655172 C29.6093793,81.9655172 31.0957241,81.4651034 32.390069,80.6353103 L32.390069,80.6353103 L40.9274483,84.1448276 C42.7867586,84.9111724 44,86.7241379 44,88.7351724 L44,88.7351724 L44,94.6551724 C44,94.9597241 43.7528276,95.2068966 43.4482759,95.2068966 L43.4482759,95.2068966 L30.7111724,95.2068966 L29.1382069,88.1293793 L30.6797241,85.56 C30.7823448,85.3895172 30.7851034,85.1771034 30.6868966,85.0038621 C30.5886897,84.8306207 30.4055172,84.7241379 30.2068966,84.7241379 L30.2068966,84.7241379 L25.7931034,84.7241379 C25.5944828,84.7241379 25.4113103,84.8306207 25.3131034,85.0038621 C25.2154483,85.1776552 25.2176552,85.3895172 25.3202759,85.56 L25.3202759,85.56 L26.8617931,88.1293793 L25.2888276,95.2068966 L12.5517241,95.2068966 C12.2471724,95.2068966 12,94.9597241 12,94.6551724 L12,94.6551724 L12,88.7351724 C12,86.7241379 13.2132414,84.9111724 15.0725517,84.1448276 L15.0725517,84.1448276 Z M28,61 C32.5633103,61 36.2758621,64.7125517 36.2758621,69.2758621 L36.2758621,69.2758621 L36.2758621,71.4827586 C36.2758621,75.9097931 32.7365517,80.862069 28,80.862069 C23.2634483,80.862069 19.7241379,75.9097931 19.7241379,71.4827586 L19.7241379,71.4827586 L19.7241379,69.2758621 C19.7241379,64.7125517 23.4366897,61 28,61 Z M30.7591724,67.944 C29.081931,69.4976552 26.7023448,70.3793103 24.137931,70.3793103 C22.9875862,70.3793103 21.8797241,70.1950345 20.8275862,69.8468966 L20.8275862,69.8468966 L20.8275862,71.4827586 C20.8275862,75.310069 23.9608276,79.7586207 28,79.7586207 C32.0391724,79.7586207 35.1724138,75.310069 35.1724138,71.4827586 L35.1724138,71.4827586 L35.1724138,70.1371034 C33.4609655,69.777931 31.9233103,69.0176552 30.7591724,67.944 Z" fill="#47C2C5" fill-rule="nonzero"/><text font-family="PingFangSC-Regular, PingFang SC" font-size="14" fill="#28B8BB">
                                    <tspan x="0" y="15">连麦观众</tspan>
                                </text></g></g><g transform="translate(587 272)"><path d="M2,0 L118,0 C119.104569,7.20144301e-15 120,0.8954305 120,2 L120,194 C120,195.104569 119.104569,196 118,196 L2,196 C0.8954305,196 -8.67738547e-17,195.104569 0,194 L0,2 C-3.57315355e-16,0.8954305 0.8954305,-1.91384796e-17 2,0 Z" fill="#EDF9FA"/><g transform="translate(25 20)"><path d="M31.6871724,130.713241 C32.6624828,131.343862 33.7842759,131.724138 35,131.724138 C36.1064483,131.724138 37.1353592,131.408773 38.046892,130.876848 L38.2925517,130.726483 L44.6955862,133.358621 C46.0266834,133.907254 46.9162779,135.171114 46.9943999,136.596686 L47,136.801379 L47,141.241379 C47,141.441241 46.858069,141.608155 46.6695668,141.646761 L46.5862069,141.655172 L37.0333793,141.655172 L35.8536552,136.347034 L37.0097931,134.42 C37.0867586,134.292138 37.0888276,134.132828 37.0151724,134.002897 C36.9562483,133.898952 36.8565407,133.827051 36.7427443,133.802449 L36.6551724,133.793103 L33.3448276,133.793103 C33.1958621,133.793103 33.0584828,133.872966 32.9848276,134.002897 C32.9262345,134.107172 32.9155752,134.229721 32.9530615,134.340035 L32.9902069,134.42 L34.1463448,136.347034 L32.9666207,141.655172 L23.4137931,141.655172 C23.213931,141.655172 23.0470172,141.513241 23.0084116,141.324739 L23,141.241379 L23,136.801379 C23,135.361661 23.8290901,134.057298 25.1173004,133.441803 L25.3044138,133.358621 L31.6871724,130.713241 Z M35,116 C38.3464276,116 41.0828297,118.662037 41.202795,121.9797 L41.2068966,122.206897 L41.2068966,123.862069 C41.2068966,127.182345 38.5524138,130.896552 35,130.896552 C31.5231695,130.896552 28.9064666,127.338715 28.7966915,124.074497 L28.7931034,123.862069 L28.7931034,122.206897 C28.7931034,118.784414 31.5775172,116 35,116 Z M37.0693793,121.208 C35.8114483,122.373241 34.0267586,123.034483 32.1034483,123.034483 C31.3639409,123.034483 30.6478424,122.932943 29.9614067,122.739505 L29.6206897,122.635172 L29.6206897,123.862069 C29.6206897,126.732552 31.9706207,130.068966 35,130.068966 C37.9589286,130.068966 40.2696438,126.885929 40.3755186,124.063043 L40.3793103,123.862069 L40.3793103,122.852828 C39.0957241,122.583448 37.9424828,122.013241 37.0693793,121.208 Z M31.6871724,92.7132414 C32.6624828,93.3438621 33.7842759,93.7241379 35,93.7241379 C36.1064483,93.7241379 37.1353592,93.408773 38.046892,92.8768482 L38.2925517,92.7264828 L44.6955862,95.3586207 C46.0266834,95.9072539 46.9162779,97.171114 46.9943999,98.5966859 L47,98.8013793 L47,103.241379 C47,103.441241 46.858069,103.608155 46.6695668,103.646761 L46.5862069,103.655172 L37.0333793,103.655172 L35.8536552,98.3470345 L37.0097931,96.42 C37.0867586,96.2921379 37.0888276,96.1328276 37.0151724,96.0028966 C36.9562483,95.8989517 36.8565407,95.827051 36.7427443,95.8024486 L36.6551724,95.7931034 L33.3448276,95.7931034 C33.1958621,95.7931034 33.0584828,95.8729655 32.9848276,96.0028966 C32.9262345,96.1071724 32.9155752,96.2297214 32.9530615,96.3400353 L32.9902069,96.42 L34.1463448,98.3470345 L32.9666207,103.655172 L23.4137931,103.655172 C23.213931,103.655172 23.0470172,103.513241 23.0084116,103.324739 L23,103.241379 L23,98.8013793 C23,97.3616614 23.8290901,96.0572975 25.1173004,95.4418026 L25.3044138,95.3586207 L31.6871724,92.7132414 Z M35,78 C38.3464276,78 41.0828297,80.6620371 41.202795,83.9796999 L41.2068966,84.2068966 L41.2068966,85.862069 C41.2068966,89.1823448 38.5524138,92.8965517 35,92.8965517 C31.5231695,92.8965517 28.9064666,89.3387148 28.7966915,86.0744969 L28.7931034,85.862069 L28.7931034,84.2068966 C28.7931034,80.7844138 31.5775172,78 35,78 Z M37.0693793,83.208 C35.8114483,84.3732414 34.0267586,85.0344828 32.1034483,85.0344828 C31.3639409,85.0344828 30.6478424,84.932943 29.9614067,84.739505 L29.6206897,84.6351724 L29.6206897,85.862069 C29.6206897,88.7325517 31.9706207,92.0689655 35,92.0689655 C37.9589286,92.0689655 40.2696438,88.8859293 40.3755186,86.0630434 L40.3793103,85.862069 L40.3793103,84.8528276 C39.0957241,84.5834483 37.9424828,84.0132414 37.0693793,83.208 Z M31.6871724,54.7132414 C32.6624828,55.3438621 33.7842759,55.7241379 35,55.7241379 C36.1064483,55.7241379 37.1353592,55.408773 38.046892,54.8768482 L38.2925517,54.7264828 L44.6955862,57.3586207 C46.0266834,57.9072539 46.9162779,59.171114 46.9943999,60.5966859 L47,60.8013793 L47,65.2413793 C47,65.4412414 46.858069,65.6081552 46.6695668,65.6467608 L46.5862069,65.6551724 L37.0333793,65.6551724 L35.8536552,60.3470345 L37.0097931,58.42 C37.0867586,58.2921379 37.0888276,58.1328276 37.0151724,58.0028966 C36.9562483,57.8989517 36.8565407,57.827051 36.7427443,57.8024486 L36.6551724,57.7931034 L33.3448276,57.7931034 C33.1958621,57.7931034 33.0584828,57.8729655 32.9848276,58.0028966 C32.9262345,58.1071724 32.9155752,58.2297214 32.9530615,58.3400353 L32.9902069,58.42 L34.1463448,60.3470345 L32.9666207,65.6551724 L23.4137931,65.6551724 C23.213931,65.6551724 23.0470172,65.5132414 23.0084116,65.3247392 L23,65.2413793 L23,60.8013793 C23,59.3616614 23.8290901,58.0572975 25.1173004,57.4418026 L25.3044138,57.3586207 L31.6871724,54.7132414 Z M35,40 C38.3464276,40 41.0828297,42.6620371 41.202795,45.9796999 L41.2068966,46.2068966 L41.2068966,47.862069 C41.2068966,51.1823448 38.5524138,54.8965517 35,54.8965517 C31.5231695,54.8965517 28.9064666,51.3387148 28.7966915,48.0744969 L28.7931034,47.862069 L28.7931034,46.2068966 C28.7931034,42.7844138 31.5775172,40 35,40 Z M37.0693793,45.208 C35.8114483,46.3732414 34.0267586,47.0344828 32.1034483,47.0344828 C31.3639409,47.0344828 30.6478424,46.932943 29.9614067,46.739505 L29.6206897,46.6351724 L29.6206897,47.862069 C29.6206897,50.7325517 31.9706207,54.0689655 35,54.0689655 C37.9589286,54.0689655 40.2696438,50.8859293 40.3755186,48.0630434 L40.3793103,47.862069 L40.3793103,46.8528276 C39.0957241,46.5834483 37.9424828,46.0132414 37.0693793,45.208 Z" fill="#47C2C5" fill-rule="nonzero"/><text font-family="PingFangSC-Regular, PingFang SC" font-size="14" fill="#28B8BB">
                                    <tspan x="0" y="15">低延时观众</tspan>
                                </text></g></g><g transform="translate(619 208)"><path d="M27.5,-0.5 L32,8.5 L28,8.5 L28,52.5 L27,52.5 L27,8.5 L23,8.5 L27.5,-0.5 Z" fill="#47C2C5" fill-rule="nonzero"/><g transform="translate(0 19)"><path d="M54,0.5 C54.4142136,0.5 54.7892136,0.667893219 55.0606602,0.939339828 C55.3321068,1.21078644 55.5,1.58578644 55.5,2 L55.5,2 L55.5,22 C55.5,22.4142136 55.3321068,22.7892136 55.0606602,23.0606602 C54.7892136,23.3321068 54.4142136,23.5 54,23.5 L54,23.5 L2,23.5 C1.58578644,23.5 1.21078644,23.3321068 0.939339828,23.0606602 C0.667893219,22.7892136 0.5,22.4142136 0.5,22 L0.5,22 L0.5,2 C0.5,1.58578644 0.667893219,1.21078644 0.939339828,0.939339828 C1.21078644,0.667893219 1.58578644,0.5 2,0.5 L2,0.5 Z" stroke="#47C2C5" fill="#EDF9FA"/><text font-family="PingFangSC-Regular, PingFang SC" font-size="12" fill="#47C2C5">
                                    <tspan x="4" y="17">申请鉴定</tspan>
                                </text></g></g><g transform="translate(232 408)"><rect fill="#EDF9FA" width="252" height="60"/><g transform="translate(71 18)"><path d="M28,4 L28,24 L0,24 L0,4 L28,4 Z M11,10 L11,18 L19,14 L11,10 Z" fill="#00AAE7"/><line x1="6" x2="11.414" y2="5.414" stroke="#00AAE7" stroke-width="2"/><line x1="16.586" x2="22" y2="5.414" stroke="#00AAE7" stroke-width="2" transform="matrix(-1 0 0 1 38.586 0)"/><text font-family="PingFangSC-Medium, PingFang SC" font-size="12" font-weight="400" fill="#00AAE7">
                                    <tspan x="40" y="17">视频直播 Pili</tspan>
                                </text></g></g><g transform="translate(330 323)"><path d="M29,0 L29,67 L33,67 L28.5,76 L24,67 L28,67 L28,0 L29,0 Z" fill="#00AAE7" fill-rule="nonzero"/><g transform="translate(0 21)"><path d="M54,0.5 C54.4142136,0.5 54.7892136,0.667893219 55.0606602,0.939339828 C55.3321068,1.21078644 55.5,1.58578644 55.5,2 L55.5,2 L55.5,22 C55.5,22.4142136 55.3321068,22.7892136 55.0606602,23.0606602 C54.7892136,23.3321068 54.4142136,23.5 54,23.5 L54,23.5 L2,23.5 C1.58578644,23.5 1.21078644,23.3321068 0.939339828,23.0606602 C0.667893219,22.7892136 0.5,22.4142136 0.5,22 L0.5,22 L0.5,2 C0.5,1.58578644 0.667893219,1.21078644 0.939339828,0.939339828 C1.21078644,0.667893219 1.58578644,0.5 2,0.5 L2,0.5 Z" stroke="#00AAE7" fill="#EDF9FA"/><text font-family="PingFangSC-Regular, PingFang SC" font-size="12" fill="#00AAE7">
                                    <tspan x="4" y="17">旁路直播</tspan>
                                </text></g></g><g transform="translate(126 145)"><path d="M91.5,7.5 L100.5,12 L91.5,16.5 L91.5,12.5 L8.5,12.5 L8.5,16.5 L-0.5,12 L8.5,7.5 L8.5,11.5 L91.5,11.5 L91.5,7.5 Z" fill="#47C2C5" fill-rule="nonzero"/><g transform="translate(18)"><path d="M62,0.5 C62.4142136,0.5 62.7892136,0.667893219 63.0606602,0.939339828 C63.3321068,1.21078644 63.5,1.58578644 63.5,2 L63.5,2 L63.5,22 C63.5,22.4142136 63.3321068,22.7892136 63.0606602,23.0606602 C62.7892136,23.3321068 62.4142136,23.5 62,23.5 L62,23.5 L2,23.5 C1.58578644,23.5 1.21078644,23.3321068 0.939339828,23.0606602 C0.667893219,22.7892136 0.5,22.4142136 0.5,22 L0.5,22 L0.5,2 C0.5,1.58578644 0.667893219,1.21078644 0.939339828,0.939339828 C1.21078644,0.667893219 1.58578644,0.5 2,0.5 L2,0.5 Z" stroke="#47C2C5" fill="#EDF9FA"/><text font-family="PingFangSC-Regular, PingFang SC" font-size="12" fill="#47C2C5">
                                    <tspan x="8" y="16">连麦互动</tspan>
                                </text></g></g></g></svg>