<svg xmlns="http://www.w3.org/2000/svg" width="32" height="32" viewBox="0 0 32 32">
  <g fill="none" fill-rule="evenodd" stroke-linecap="square" stroke-width="2" transform="translate(2 2)">
    <line x1="16" x2="12" y1="16" y2="12" stroke="#00AAE7"/>
    <line x1="6" x2="3" y1="25" y2="22" stroke="#00AAE7"/>
    <line x1="22" x2="25" y1="3" y2="6" stroke="#00AAE7"/>
    <path stroke="#333" d="M13 19.839C13.6622042 19.9383076 14.3304375 19.9921004 15 20 16.3260824 20 17.597852 19.4732158 18.5355339 18.5355339 19.4732158 17.597852 20 16.3260824 20 15 20 11 18 7 18 3 18.0012866 1.91413049 18.3620586.859241578 19.026 0M5 18.161C4.33779582 18.0616924 3.66956252 18.0078996 3 18 1.91497755 18.0034079.861054847 18.3627956 0 19.023M15 8.161C14.3377958 8.0616924 13.6695625 8.00789962 13 8 10.2385763 8 8 10.2385763 8 13 8 18 10 20 10 25 9.99871339 26.0858695 9.63794138 27.1407584 8.974 28M23 9.839C23.6622042 9.9383076 24.3304375 9.99210038 25 10 26.0850224 9.99659207 27.1389452 9.63720442 28 8.977"/>
  </g>
</svg>
