<?xml version="1.0" encoding="UTF-8"?>
<svg width="32px" height="32px" viewBox="0 0 32 32" version="1.1" xmlns="http://www.w3.org/2000/svg" xmlns:xlink="http://www.w3.org/1999/xlink">
    <title>数据分析备份 8</title>
    <g id="公共组件" stroke="none" stroke-width="1" fill="none" fill-rule="evenodd" stroke-linecap="square">
        <g id="导航-下拉菜单" transform="translate(-381.000000, -2382.000000)" stroke-width="2">
            <g id="编组-6备份-2" transform="translate(172.000000, 1622.000000)">
                <g id="弹出框">
                    <g id="编组-9" transform="translate(183.000000, 20.000000)">
                        <g transform="translate(0.000000, 400.000000)" id="编组-14备份-4">
                            <g transform="translate(0.000000, 304.000000)">
                                <g id="01" transform="translate(20.000000, 20.000000)">
                                    <g id="编组-45" transform="translate(0.000000, 10.000000)">
                                        <g id="ai" transform="translate(8.000000, 8.000000)">
                                            <rect id="矩形" stroke="#333333" x="3" y="3" width="22" height="22" rx="2"></rect>
                                            <rect id="矩形" stroke="#00AAE7" x="8" y="8" width="12" height="12"></rect>
                                            <line x1="3" y1="9" x2="0" y2="9" id="路径" stroke="#333333"></line>
                                            <line x1="3" y1="14" x2="0" y2="14" id="路径" stroke="#333333"></line>
                                            <line x1="3" y1="19" x2="0" y2="19" id="路径" stroke="#333333"></line>
                                            <line x1="9" y1="28" x2="9" y2="25" id="路径" stroke="#333333"></line>
                                            <line x1="19" y1="28" x2="19" y2="25" id="路径" stroke="#333333"></line>
                                            <line x1="14" y1="28" x2="14" y2="25" id="路径" stroke="#333333"></line>
                                            <line x1="28" y1="19" x2="25" y2="19" id="路径" stroke="#333333"></line>
                                            <line x1="28" y1="9" x2="25" y2="9" id="路径" stroke="#333333"></line>
                                            <line x1="28" y1="14" x2="25" y2="14" id="路径" stroke="#333333"></line>
                                            <line x1="9" y1="3" x2="9" y2="0" id="路径" stroke="#333333"></line>
                                            <line x1="19" y1="3" x2="19" y2="0" id="路径" stroke="#333333"></line>
                                            <line x1="14" y1="3" x2="14" y2="0" id="路径" stroke="#333333"></line>
                                        </g>
                                    </g>
                                </g>
                            </g>
                        </g>
                    </g>
                </g>
            </g>
        </g>
    </g>
</svg>