<svg width="1em" height="1em" viewBox="0 0 39 39" fill="none" xmlns="http://www.w3.org/2000/svg">
<g id="Icon">
<path id="Oval" fill-rule="evenodd" clip-rule="evenodd" d="M19.5 39C30.2696 39 39 30.2696 39 19.5C39 8.73045 30.2696 0 19.5 0C8.73045 0 0 8.73045 0 19.5C0 30.2696 8.73045 39 19.5 39Z" fill="#4DBDE7"/>
<g id="&#229;&#175;&#185;&#229;&#143;&#183;">
<path id="c" d="M16.8977 25.7143L11.5974 20.4458C11.4493 20.2977 11.3752 20.1072 11.3752 19.8745C11.3752 19.6418 11.4493 19.4513 11.5974 19.3032L12.7717 18.1606C12.9198 17.9914 13.105 17.9067 13.3271 17.9067C13.5493 17.9067 13.745 17.9914 13.9143 18.1606L17.469 21.7153L25.0861 14.0981C25.2554 13.9289 25.4511 13.8442 25.6733 13.8442C25.8955 13.8442 26.0806 13.9289 26.2287 14.0981L27.403 15.2407C27.5511 15.3888 27.6252 15.5793 27.6252 15.812C27.6252 16.0448 27.5511 16.2352 27.403 16.3833L18.0403 25.7143C17.8922 25.8836 17.7017 25.9682 17.469 25.9682C17.2362 25.9682 17.0458 25.8836 16.8977 25.7143Z" fill="white"/>
</g>
</g>
</svg>
