<?xml version="1.0" encoding="UTF-8"?>
<svg width="300px" height="200px" viewBox="0 0 300 200" version="1.1" xmlns="http://www.w3.org/2000/svg" xmlns:xlink="http://www.w3.org/1999/xlink">
    <title>Fill 1</title>
    <defs>
        <linearGradient x1="50%" y1="0%" x2="50%" y2="100%" id="linearGradient-1">
            <stop stop-color="#FFFFFF" stop-opacity="0.8" offset="0%"></stop>
            <stop stop-color="#FFFFFF" stop-opacity="0" offset="100%"></stop>
        </linearGradient>
    </defs>
    <g id="活动与合作" stroke="none" stroke-width="1" fill="none" fill-rule="evenodd">
        <g id="公司介绍" transform="translate(-1148.000000, -183.000000)" fill="url(#linearGradient-1)">
            <g id="banner" transform="translate(0.000000, 121.000000)">
                <path d="M1448,62.6450195 C1442.95012,60.9125774 1438.7726,63.0234537 1436.37666,64.824702 C1403.14326,104.105677 1353.4873,129.050386 1298,129.050386 C1278.93576,129.050386 1260.55959,126.106463 1243.30152,120.646199 C1238.807,104.336669 1235.62963,92.7575668 1235.62963,92.7575668 C1235.62963,92.7575668 1231.89689,81.3947124 1219.26358,83.3434026 L1222.89556,112.780175 C1198.39564,101.601622 1176.81014,85.1348215 1159.62334,64.8197873 C1157.22495,63.0234537 1153.04988,60.9125774 1148,62.6450195 C1162.35592,101.046258 1191.04074,132.444007 1227.53998,150.370483 L1237.49477,230.98679 C1237.49477,230.98679 1241.94505,261.834089 1270.8879,261.834089 L1332.79383,261.834089 C1361.73667,261.834089 1366.18696,230.98679 1366.18696,230.98679 L1373.18307,173.214145 C1354.38669,171.683207 1342.56677,184.780961 1338.81683,197.706699 C1332.52352,219.471579 1332.53089,220.862447 1331.28992,224.659076 C1328.749,232.43172 1320.41117,233.358147 1320.41117,233.358147 L1283.27301,233.358147 C1283.27301,233.358147 1274.93026,232.43172 1272.38934,224.659076 C1270.75274,219.653424 1262.57954,190.371466 1254.35229,160.664384 C1268.22903,164.588795 1282.87001,166.694757 1298,166.694757 C1366.70055,166.694757 1425.27921,123.418106 1448,62.6450195" id="Fill-1"></path>
            </g>
        </g>
    </g>
</svg>