<?xml version="1.0" encoding="UTF-8"?>
<svg width="54px" height="62px" viewBox="0 0 54 62" version="1.1" xmlns="http://www.w3.org/2000/svg" xmlns:xlink="http://www.w3.org/1999/xlink">
    <title>building</title>
    <g id="活动与合作" stroke="none" stroke-width="1" fill="none" fill-rule="evenodd" stroke-linecap="square">
        <g id="公司介绍" transform="translate(-1333.000000, -1955.000000)" stroke-width="2">
            <g id="产品介绍-2" transform="translate(0.000000, 1778.000000)">
                <g id="01" transform="translate(1172.000000, 148.000000)">
                    <g id="building" transform="translate(162.000000, 30.000000)">
                        <polyline id="路径" stroke="#00AAE7" points="41 26 41 6 11 6 11 32"></polyline>
                        <line x1="22" y1="60" x2="30" y2="60" id="路径" stroke="#333333"></line>
                        <line x1="26" y1="0" x2="26" y2="6" id="路径" stroke="#00AAE7"></line>
                        <rect id="矩形" stroke="#333333" x="0" y="38" width="22" height="22"></rect>
                        <rect id="矩形" stroke="#333333" x="30" y="32" width="22" height="28"></rect>
                        <line x1="19" y1="13" x2="33" y2="13" id="路径" stroke="#00AAE7"></line>
                        <line x1="19" y1="19" x2="33" y2="19" id="路径" stroke="#00AAE7"></line>
                        <line x1="19" y1="25" x2="33" y2="25" id="路径" stroke="#00AAE7"></line>
                        <line x1="8" y1="46" x2="14" y2="46" id="路径" stroke="#333333"></line>
                        <line x1="38" y1="40" x2="44" y2="40" id="路径" stroke="#333333"></line>
                        <line x1="38" y1="46" x2="44" y2="46" id="路径" stroke="#333333"></line>
                        <line x1="38" y1="52" x2="44" y2="52" id="路径" stroke="#333333"></line>
                        <line x1="8" y1="52" x2="14" y2="52" id="路径" stroke="#333333"></line>
                    </g>
                </g>
            </g>
        </g>
    </g>
</svg>