<?xml version="1.0" encoding="UTF-8"?>
<svg width="62px" height="61px" viewBox="0 0 62 61" version="1.1" xmlns="http://www.w3.org/2000/svg" xmlns:xlink="http://www.w3.org/1999/xlink">
    <title>a-heart</title>
    <g id="活动与合作" stroke="none" stroke-width="1" fill="none" fill-rule="evenodd">
        <g id="公司介绍" transform="translate(-532.000000, -1954.000000)" stroke-width="2">
            <g id="产品介绍-2" transform="translate(0.000000, 1778.000000)">
                <g id="01" transform="translate(372.000000, 148.000000)">
                    <g id="a-heart" transform="translate(161.000000, 29.000000)">
                        <path d="M12,14 C12,6.268 18.268,0 26,0 C33.732,0 40,6.268 40,14 C40,21.732 33.732,30 26,30 C18.268,30 12,21.732 12,14 Z" id="路径" stroke="#333333" stroke-linecap="square"></path>
                        <path d="M37.195,38.869 C34.009,38.345 30.285,38 26,38 C14.86,38 7.506,40.331 3.547,42.087 C1.379,43.048 0,45.196 0,47.567 L0,58 L37,58" id="路径" stroke="#333333"></path>
                        <path d="M58.083,37.984 C55.164,34.962 50.292,35.456 48,39.03 C45.706,35.452 40.833,34.965 37.917,37.983 C35.361,40.628 35.361,44.918 37.917,47.563 L47.999,58 L58.083,47.564 C60.639,44.918 60.639,40.629 58.083,37.984 Z" id="路径" stroke="#00AAE7" stroke-linecap="square"></path>
                    </g>
                </g>
            </g>
        </g>
    </g>
</svg>