<svg xmlns="http://www.w3.org/2000/svg" width="62" height="61" viewBox="0 0 62 61">
  <g fill="none" fill-rule="evenodd" stroke-width="2" transform="translate(1 1)">
    <path stroke="#333" stroke-linecap="square" d="M12,14 C12,6.268 18.268,0 26,0 C33.732,0 40,6.268 40,14 C40,21.732 33.732,30 26,30 C18.268,30 12,21.732 12,14 Z"/>
    <path stroke="#333" d="M37.195,38.869 C34.009,38.345 30.285,38 26,38 C14.86,38 7.506,40.331 3.547,42.087 C1.379,43.048 0,45.196 0,47.567 L0,58 L37,58"/>
    <path stroke="#00AAE7" stroke-linecap="square" d="M58.083,37.984 C55.164,34.962 50.292,35.456 48,39.03 C45.706,35.452 40.833,34.965 37.917,37.983 C35.361,40.628 35.361,44.918 37.917,47.563 L47.999,58 L58.083,47.564 C60.639,44.918 60.639,40.629 58.083,37.984 Z"/>
  </g>
</svg>
