<svg xmlns="http://www.w3.org/2000/svg" width="58" height="62" viewBox="0 0 58 62">
  <g fill="none" fill-rule="evenodd" stroke-width="2" transform="translate(1 1)">
    <path stroke="#333" d="M21,31.618 L21,39 L5.802,43.342 C2.368,44.323 0,47.463 0,51.034 L0,60 L56,60 L56,51.034 C56,47.462 53.632,44.323 50.198,43.342 L35,39 L35,31.618"/>
    <path stroke="#333" stroke-linecap="square" d="M28,34 L28,34 C20.268,34 14,25.732 14,18 L14,14 C14,6.268 20.268,0 28,0 L28,0 C35.732,0 42,6.268 42,14 L42,18 C42,25.732 35.732,34 28,34 Z"/>
    <path stroke="#333" d="M14.019,13.617 C16.105,14.497 18.478,15 21,15 C25.915,15 30.264,13.1 33,10.178 C35.162,12.487 38.34,14.14 42,14.74"/>
    <line x1="28" x2="28" y1="55" y2="52" stroke="#00AAE7" stroke-linecap="square"/>
    <polyline stroke="#333" points="35 39 28 46 21 39"/>
  </g>
</svg>
