<svg width="52" height="52" viewBox="0 0 52 52" fill="none" xmlns="http://www.w3.org/2000/svg">
<rect x="2" y="8" width="36" height="24" rx="2" fill="url(#paint0_linear_96_70)"/>
<rect x="2" y="8" width="36" height="24" rx="2" fill="#3AFFF3" fill-opacity="0.2"/>
<g filter="url(#filter0_b_96_70)">
<rect x="8" y="14" width="42" height="30" rx="2" fill="#0091FF" fill-opacity="0.2"/>
<rect x="8.5" y="14.5" width="41" height="29" rx="1.5" stroke="url(#paint1_linear_96_70)" stroke-opacity="0.8"/>
</g>
<g filter="url(#filter1_d_96_70)">
<path fill-rule="evenodd" clip-rule="evenodd" d="M43.5 20.5C43.5 21.8807 42.3807 23 41 23C39.6193 23 38.5 21.8807 38.5 20.5C38.5 19.1193 39.6193 18 41 18C42.3807 18 43.5 19.1193 43.5 20.5ZM40.1667 23.833C37.8658 23.833 36 25.6988 36 27.9997H46C46 25.6988 44.1342 23.833 41.8333 23.833H40.1667Z" fill="white"/>
</g>
<g filter="url(#filter2_d_96_70)">
<path fill-rule="evenodd" clip-rule="evenodd" d="M43 32H12V34H43V32ZM25 36H12V38H25V36Z" fill="white"/>
</g>
<rect x="13" y="19" width="10" height="6" stroke="white" stroke-width="2"/>
<defs>
<filter id="filter0_b_96_70" x="2.7809" y="8.7809" width="52.4382" height="40.4382" filterUnits="userSpaceOnUse" color-interpolation-filters="sRGB">
<feFlood flood-opacity="0" result="BackgroundImageFix"/>
<feGaussianBlur in="BackgroundImageFix" stdDeviation="2.60955"/>
<feComposite in2="SourceAlpha" operator="in" result="effect1_backgroundBlur_96_70"/>
<feBlend mode="normal" in="SourceGraphic" in2="effect1_backgroundBlur_96_70" result="shape"/>
</filter>
<filter id="filter1_d_96_70" x="34" y="18" width="14" height="13.9998" filterUnits="userSpaceOnUse" color-interpolation-filters="sRGB">
<feFlood flood-opacity="0" result="BackgroundImageFix"/>
<feColorMatrix in="SourceAlpha" type="matrix" values="0 0 0 0 0 0 0 0 0 0 0 0 0 0 0 0 0 0 127 0" result="hardAlpha"/>
<feOffset dy="2"/>
<feGaussianBlur stdDeviation="1"/>
<feComposite in2="hardAlpha" operator="out"/>
<feColorMatrix type="matrix" values="0 0 0 0 0 0 0 0 0 0.568627 0 0 0 0 1 0 0 0 0.15 0"/>
<feBlend mode="normal" in2="BackgroundImageFix" result="effect1_dropShadow_96_70"/>
<feBlend mode="normal" in="SourceGraphic" in2="effect1_dropShadow_96_70" result="shape"/>
</filter>
<filter id="filter2_d_96_70" x="10" y="32" width="35" height="10" filterUnits="userSpaceOnUse" color-interpolation-filters="sRGB">
<feFlood flood-opacity="0" result="BackgroundImageFix"/>
<feColorMatrix in="SourceAlpha" type="matrix" values="0 0 0 0 0 0 0 0 0 0 0 0 0 0 0 0 0 0 127 0" result="hardAlpha"/>
<feOffset dy="2"/>
<feGaussianBlur stdDeviation="1"/>
<feComposite in2="hardAlpha" operator="out"/>
<feColorMatrix type="matrix" values="0 0 0 0 0 0 0 0 0 0.568627 0 0 0 0 1 0 0 0 0.15 0"/>
<feBlend mode="normal" in2="BackgroundImageFix" result="effect1_dropShadow_96_70"/>
<feBlend mode="normal" in="SourceGraphic" in2="effect1_dropShadow_96_70" result="shape"/>
</filter>
<linearGradient id="paint0_linear_96_70" x1="2" y1="12.9091" x2="19.6134" y2="35.5002" gradientUnits="userSpaceOnUse">
<stop stop-color="#0EC1FF"/>
<stop offset="1" stop-color="#0D7DFF"/>
</linearGradient>
<linearGradient id="paint1_linear_96_70" x1="17.1" y1="16.5" x2="32.6223" y2="46.0787" gradientUnits="userSpaceOnUse">
<stop stop-color="white"/>
<stop offset="0.489583" stop-color="white" stop-opacity="0.5"/>
<stop offset="1" stop-color="#0EC1FF" stop-opacity="0.2"/>
</linearGradient>
</defs>
</svg>
