<svg width="52" height="52" viewBox="0 0 52 52" fill="none" xmlns="http://www.w3.org/2000/svg">
<rect x="6" y="6" width="32" height="32" rx="2" fill="url(#paint0_linear_96_44)"/>
<rect x="6" y="6" width="32" height="32" rx="2" fill="#3AFFF3" fill-opacity="0.2"/>
<g filter="url(#filter0_b_96_44)">
<rect x="14" y="14" width="32" height="32" rx="2" fill="#0091FF" fill-opacity="0.2"/>
<rect x="14.5" y="14.5" width="31" height="31" rx="1.5" stroke="url(#paint1_linear_96_44)" stroke-opacity="0.8"/>
</g>
<g filter="url(#filter1_d_96_44)">
<path fill-rule="evenodd" clip-rule="evenodd" d="M34 27C34 29.7614 31.7614 32 29 32C26.2386 32 24 29.7614 24 27C24 24.2386 26.2386 22 29 22C31.7614 22 34 24.2386 34 27ZM29 33C30.5731 33 32.0189 33.1898 33.3152 33.565C31.9343 34.3334 31 35.8076 31 37.5C31 38.9136 31.6518 40.175 32.6713 41H21V37.688C21 36.062 21.967 34.611 23.464 33.992C25.05 33.334 26.913 33 29 33Z" fill="white"/>
</g>
<path fill-rule="evenodd" clip-rule="evenodd" d="M36.5 36.5V34.5H34.5L34.5 36.5H32.5V38.5H34.5L34.5 40.5H36.5V38.5H38.5V36.5H36.5Z" fill="white"/>
<defs>
<filter id="filter0_b_96_44" x="8.7809" y="8.7809" width="42.4382" height="42.4382" filterUnits="userSpaceOnUse" color-interpolation-filters="sRGB">
<feFlood flood-opacity="0" result="BackgroundImageFix"/>
<feGaussianBlur in="BackgroundImageFix" stdDeviation="2.60955"/>
<feComposite in2="SourceAlpha" operator="in" result="effect1_backgroundBlur_96_44"/>
<feBlend mode="normal" in="SourceGraphic" in2="effect1_backgroundBlur_96_44" result="shape"/>
</filter>
<filter id="filter1_d_96_44" x="19" y="22" width="17" height="23" filterUnits="userSpaceOnUse" color-interpolation-filters="sRGB">
<feFlood flood-opacity="0" result="BackgroundImageFix"/>
<feColorMatrix in="SourceAlpha" type="matrix" values="0 0 0 0 0 0 0 0 0 0 0 0 0 0 0 0 0 0 127 0" result="hardAlpha"/>
<feOffset dy="2"/>
<feGaussianBlur stdDeviation="1"/>
<feComposite in2="hardAlpha" operator="out"/>
<feColorMatrix type="matrix" values="0 0 0 0 0 0 0 0 0 0.568627 0 0 0 0 1 0 0 0 0.15 0"/>
<feBlend mode="normal" in2="BackgroundImageFix" result="effect1_dropShadow_96_44"/>
<feBlend mode="normal" in="SourceGraphic" in2="effect1_dropShadow_96_44" result="shape"/>
</filter>
<linearGradient id="paint0_linear_96_44" x1="6" y1="12.5455" x2="29.9219" y2="33.0004" gradientUnits="userSpaceOnUse">
<stop stop-color="#0EC1FF"/>
<stop offset="1" stop-color="#0D7DFF"/>
</linearGradient>
<linearGradient id="paint1_linear_96_44" x1="20.9333" y1="16.6667" x2="40.1333" y2="42.8" gradientUnits="userSpaceOnUse">
<stop stop-color="white"/>
<stop offset="0.489583" stop-color="white" stop-opacity="0.5"/>
<stop offset="1" stop-color="#0EC1FF" stop-opacity="0.2"/>
</linearGradient>
</defs>
</svg>
