<svg width="52" height="52" viewBox="0 0 52 52" fill="none" xmlns="http://www.w3.org/2000/svg">
<rect x="6" y="6" width="32" height="32" rx="2" fill="url(#paint0_linear_96_59)"/>
<rect x="6" y="6" width="32" height="32" rx="2" fill="#3AFFF3" fill-opacity="0.2"/>
<g filter="url(#filter0_b_96_59)">
<rect x="14" y="14" width="32" height="32" rx="2" fill="#0091FF" fill-opacity="0.2"/>
<rect x="14.5" y="14.5" width="31" height="31" rx="1.5" stroke="url(#paint1_linear_96_59)" stroke-opacity="0.8"/>
</g>
<path fill-rule="evenodd" clip-rule="evenodd" d="M22.4629 22.4629C21.6074 23.3184 21.6074 24.7054 22.4629 25.5609L26.6529 29.7509C27.0434 30.1414 27.0434 30.7746 26.6529 31.1651C26.2623 31.5556 25.6292 31.5556 25.2386 31.1651L21.0487 26.9752C19.4122 25.3386 19.4122 22.6852 21.0487 21.0487C22.6852 19.4122 25.3386 19.4122 26.9752 21.0487L31.1651 25.2386C31.5556 25.6292 31.5556 26.2623 31.1651 26.6529C30.7746 27.0434 30.1414 27.0434 29.7509 26.6529L25.5609 22.4629C24.7054 21.6074 23.3184 21.6074 22.4629 22.4629ZM37.1637 37.1643C38.0192 36.3088 38.0192 34.9217 37.1637 34.0662L32.9738 29.8763C32.5833 29.4857 32.5833 28.8526 32.9738 28.4621C33.3643 28.0715 33.9975 28.0715 34.388 28.4621L38.5779 32.652C40.2145 34.2886 40.2145 36.9419 38.5779 38.5785C36.9414 40.215 34.288 40.215 32.6515 38.5785L28.4615 34.3885C28.071 33.998 28.071 33.3648 28.4615 32.9743C28.8521 32.5838 29.4852 32.5838 29.8757 32.9743L34.0657 37.1643C34.9212 38.0198 36.3082 38.0198 37.1637 37.1643ZM26.9132 26.913C26.5572 27.269 26.5572 27.8462 26.9132 28.2022L31.4254 32.7145C31.7814 33.0705 32.3586 33.0705 32.7146 32.7145C33.0706 32.3585 33.0706 31.7813 32.7146 31.4253L28.2024 26.913C27.8464 26.557 27.2692 26.557 26.9132 26.913Z" fill="white"/>
<defs>
<filter id="filter0_b_96_59" x="8.7809" y="8.7809" width="42.4382" height="42.4382" filterUnits="userSpaceOnUse" color-interpolation-filters="sRGB">
<feFlood flood-opacity="0" result="BackgroundImageFix"/>
<feGaussianBlur in="BackgroundImageFix" stdDeviation="2.60955"/>
<feComposite in2="SourceAlpha" operator="in" result="effect1_backgroundBlur_96_59"/>
<feBlend mode="normal" in="SourceGraphic" in2="effect1_backgroundBlur_96_59" result="shape"/>
</filter>
<linearGradient id="paint0_linear_96_59" x1="6" y1="12.5455" x2="29.9219" y2="33.0004" gradientUnits="userSpaceOnUse">
<stop stop-color="#0EC1FF"/>
<stop offset="1" stop-color="#0D7DFF"/>
</linearGradient>
<linearGradient id="paint1_linear_96_59" x1="20.9333" y1="16.6667" x2="40.1333" y2="42.8" gradientUnits="userSpaceOnUse">
<stop stop-color="white"/>
<stop offset="0.489583" stop-color="white" stop-opacity="0.5"/>
<stop offset="1" stop-color="#0EC1FF" stop-opacity="0.2"/>
</linearGradient>
</defs>
</svg>
