<svg width="52" height="52" viewBox="0 0 52 52" fill="none" xmlns="http://www.w3.org/2000/svg">
<circle cx="18" cy="18" r="14" fill="url(#paint0_linear_96_101)"/>
<circle cx="18" cy="18" r="14" fill="#3AFFF3" fill-opacity="0.2"/>
<g filter="url(#filter0_b_96_101)">
<circle cx="27" cy="28" r="20" fill="#0091FF" fill-opacity="0.2"/>
<circle cx="27" cy="28" r="19.5" stroke="url(#paint1_linear_96_101)" stroke-opacity="0.8"/>
</g>
<path d="M16 19.6188C16 19.1174 16.4065 18.7109 16.9079 18.7109H17.5837C18.7343 18.7109 19.4232 19.4845 19.8171 20.2035C20.0797 20.6828 20.2696 21.2387 20.4182 21.742C20.4584 21.7389 20.4992 21.7373 20.5404 21.7373H35.6687C36.6737 21.7373 37.3995 22.6989 37.1239 23.6654L34.9114 31.4238C34.5036 32.8537 33.197 33.8398 31.7101 33.8398H24.5097C23.0105 33.8398 21.6963 32.8377 21.2995 31.3919L20.3789 28.0375L18.8553 22.8943L18.8528 22.8852C18.6644 22.1979 18.4875 21.5557 18.2246 21.0759C17.9694 20.61 17.7659 20.5267 17.5837 20.5267H16.9079C16.4065 20.5267 16 20.1202 16 19.6188ZM23.8684 39.8951C25.2055 39.8951 26.2895 38.8112 26.2895 37.4741C26.2895 36.137 25.2055 35.053 23.8684 35.053C22.5313 35.053 21.4474 36.137 21.4474 37.4741C21.4474 38.8112 22.5313 39.8951 23.8684 39.8951ZM32.3421 39.8951C33.6792 39.8951 34.7632 38.8112 34.7632 37.4741C34.7632 36.137 33.6792 35.053 32.3421 35.053C31.005 35.053 29.9211 36.137 29.9211 37.4741C29.9211 38.8112 31.005 39.8951 32.3421 39.8951Z" fill="white"/>
<defs>
<filter id="filter0_b_96_101" x="1.7809" y="2.7809" width="50.4382" height="50.4382" filterUnits="userSpaceOnUse" color-interpolation-filters="sRGB">
<feFlood flood-opacity="0" result="BackgroundImageFix"/>
<feGaussianBlur in="BackgroundImageFix" stdDeviation="2.60955"/>
<feComposite in2="SourceAlpha" operator="in" result="effect1_backgroundBlur_96_101"/>
<feBlend mode="normal" in="SourceGraphic" in2="effect1_backgroundBlur_96_101" result="shape"/>
</filter>
<linearGradient id="paint0_linear_96_101" x1="4" y1="9.72727" x2="24.9317" y2="27.6254" gradientUnits="userSpaceOnUse">
<stop stop-color="#0EC1FF"/>
<stop offset="1" stop-color="#0D7DFF"/>
</linearGradient>
<linearGradient id="paint1_linear_96_101" x1="15.6667" y1="11.3333" x2="39.6667" y2="44" gradientUnits="userSpaceOnUse">
<stop stop-color="white"/>
<stop offset="0.489583" stop-color="white" stop-opacity="0.5"/>
<stop offset="1" stop-color="#0EC1FF" stop-opacity="0.2"/>
</linearGradient>
</defs>
</svg>
