<svg width="52" height="52" viewBox="0 0 52 52" fill="none" xmlns="http://www.w3.org/2000/svg">
<rect x="2" y="8" width="36" height="24" rx="2" fill="url(#paint0_linear_96_84)"/>
<rect x="2" y="8" width="36" height="24" rx="2" fill="#3AFFF3" fill-opacity="0.2"/>
<g filter="url(#filter0_b_96_84)">
<mask id="path-2-inside-1_96_84" fill="white">
<path fill-rule="evenodd" clip-rule="evenodd" d="M10 14C8.89543 14 8 14.8954 8 16V24.5275C8.16417 24.5093 8.331 24.5 8.5 24.5C10.9853 24.5 13 26.5147 13 29C13 31.4853 10.9853 33.5 8.5 33.5C8.331 33.5 8.16417 33.4907 8 33.4725V42C8 43.1046 8.89543 44 10 44H48C49.1046 44 50 43.1046 50 42V33.4725C49.8358 33.4907 49.669 33.5 49.5 33.5C47.0147 33.5 45 31.4853 45 29C45 26.5147 47.0147 24.5 49.5 24.5C49.669 24.5 49.8358 24.5093 50 24.5275V16C50 14.8954 49.1046 14 48 14H10Z"/>
</mask>
<path fill-rule="evenodd" clip-rule="evenodd" d="M10 14C8.89543 14 8 14.8954 8 16V24.5275C8.16417 24.5093 8.331 24.5 8.5 24.5C10.9853 24.5 13 26.5147 13 29C13 31.4853 10.9853 33.5 8.5 33.5C8.331 33.5 8.16417 33.4907 8 33.4725V42C8 43.1046 8.89543 44 10 44H48C49.1046 44 50 43.1046 50 42V33.4725C49.8358 33.4907 49.669 33.5 49.5 33.5C47.0147 33.5 45 31.4853 45 29C45 26.5147 47.0147 24.5 49.5 24.5C49.669 24.5 49.8358 24.5093 50 24.5275V16C50 14.8954 49.1046 14 48 14H10Z" fill="#0091FF" fill-opacity="0.2"/>
<path d="M8 24.5275H7V25.6441L8.10987 25.5214L8 24.5275ZM8 33.4725L8.10988 32.4786L7 32.3559V33.4725H8ZM50 33.4725H51V32.3559L49.8901 32.4786L50 33.4725ZM50 24.5275L49.8901 25.5214L51 25.6441V24.5275H50ZM9 16C9 15.4477 9.44772 15 10 15V13C8.34315 13 7 14.3431 7 16H9ZM9 24.5275V16H7V24.5275H9ZM8.5 23.5C8.29421 23.5 8.0907 23.5113 7.89013 23.5335L8.10987 25.5214C8.23763 25.5073 8.36778 25.5 8.5 25.5V23.5ZM14 29C14 25.9624 11.5376 23.5 8.5 23.5V25.5C10.433 25.5 12 27.067 12 29H14ZM8.5 34.5C11.5376 34.5 14 32.0376 14 29H12C12 30.933 10.433 32.5 8.5 32.5V34.5ZM7.89012 34.4665C8.09071 34.4887 8.29422 34.5 8.5 34.5V32.5C8.36777 32.5 8.23762 32.4927 8.10988 32.4786L7.89012 34.4665ZM9 42V33.4725H7V42H9ZM10 43C9.44772 43 9 42.5523 9 42H7C7 43.6569 8.34315 45 10 45V43ZM48 43H10V45H48V43ZM49 42C49 42.5523 48.5523 43 48 43V45C49.6569 45 51 43.6569 51 42H49ZM49 33.4725V42H51V33.4725H49ZM49.5 34.5C49.7058 34.5 49.9093 34.4887 50.1099 34.4665L49.8901 32.4786C49.7624 32.4927 49.6322 32.5 49.5 32.5V34.5ZM44 29C44 32.0376 46.4624 34.5 49.5 34.5V32.5C47.567 32.5 46 30.933 46 29H44ZM49.5 23.5C46.4624 23.5 44 25.9624 44 29H46C46 27.067 47.567 25.5 49.5 25.5V23.5ZM50.1099 23.5335C49.9093 23.5113 49.7058 23.5 49.5 23.5V25.5C49.6322 25.5 49.7624 25.5073 49.8901 25.5214L50.1099 23.5335ZM49 16V24.5275H51V16H49ZM48 15C48.5523 15 49 15.4477 49 16H51C51 14.3431 49.6569 13 48 13V15ZM10 15H48V13H10V15Z" fill="url(#paint1_linear_96_84)" fill-opacity="0.8" mask="url(#path-2-inside-1_96_84)"/>
</g>
<g filter="url(#filter1_d_96_84)">
<path fill-rule="evenodd" clip-rule="evenodd" d="M29.0357 25.1218L23.7073 19.7934C23.3168 19.4029 22.6836 19.4029 22.2931 19.7934C21.9026 20.1839 21.9026 20.8171 22.2931 21.2076L27.243 26.1575L22 26.1575C21.4477 26.1575 21 26.6052 21 27.1575C21 27.7097 21.4477 28.1575 22 28.1575H28V31.1575H22C21.4477 31.1575 21 31.6052 21 32.1575C21 32.7097 21.4477 33.1575 22 33.1575H28V38.1575C28 38.7097 28.4477 39.1575 29 39.1575C29.5523 39.1575 30 38.7097 30 38.1575V33.1575H36C36.5523 33.1575 37 32.7097 37 32.1575C37 31.6052 36.5523 31.1575 36 31.1575H30V28.1575H36C36.5523 28.1575 37 27.7097 37 27.1575C37 26.6052 36.5523 26.1575 36 26.1575H30.8284L35.7782 21.2077C36.1687 20.8172 36.1687 20.184 35.7782 19.7935C35.3877 19.403 34.7545 19.403 34.364 19.7935L29.0357 25.1218Z" fill="white"/>
</g>
<defs>
<filter id="filter0_b_96_84" x="2.7809" y="8.7809" width="52.4382" height="40.4382" filterUnits="userSpaceOnUse" color-interpolation-filters="sRGB">
<feFlood flood-opacity="0" result="BackgroundImageFix"/>
<feGaussianBlur in="BackgroundImageFix" stdDeviation="2.60955"/>
<feComposite in2="SourceAlpha" operator="in" result="effect1_backgroundBlur_96_84"/>
<feBlend mode="normal" in="SourceGraphic" in2="effect1_backgroundBlur_96_84" result="shape"/>
</filter>
<filter id="filter1_d_96_84" x="19" y="19.5005" width="20" height="23.657" filterUnits="userSpaceOnUse" color-interpolation-filters="sRGB">
<feFlood flood-opacity="0" result="BackgroundImageFix"/>
<feColorMatrix in="SourceAlpha" type="matrix" values="0 0 0 0 0 0 0 0 0 0 0 0 0 0 0 0 0 0 127 0" result="hardAlpha"/>
<feOffset dy="2"/>
<feGaussianBlur stdDeviation="1"/>
<feComposite in2="hardAlpha" operator="out"/>
<feColorMatrix type="matrix" values="0 0 0 0 0 0 0 0 0 0.568627 0 0 0 0 1 0 0 0 0.15 0"/>
<feBlend mode="normal" in2="BackgroundImageFix" result="effect1_dropShadow_96_84"/>
<feBlend mode="normal" in="SourceGraphic" in2="effect1_dropShadow_96_84" result="shape"/>
</filter>
<linearGradient id="paint0_linear_96_84" x1="2" y1="12.9091" x2="19.6134" y2="35.5002" gradientUnits="userSpaceOnUse">
<stop stop-color="#0EC1FF"/>
<stop offset="1" stop-color="#0D7DFF"/>
</linearGradient>
<linearGradient id="paint1_linear_96_84" x1="17.1" y1="16.5" x2="32.6223" y2="46.0787" gradientUnits="userSpaceOnUse">
<stop stop-color="white"/>
<stop offset="0.489583" stop-color="white" stop-opacity="0.5"/>
<stop offset="1" stop-color="#0EC1FF" stop-opacity="0.2"/>
</linearGradient>
</defs>
</svg>
