<svg width="62" height="58" viewBox="0 0 62 58" fill="none" xmlns="http://www.w3.org/2000/svg">
<path d="M31 37C40.9411 37 49 28.9411 49 19C49 9.05887 40.9411 1 31 1C21.0589 1 13 9.05887 13 19C13 28.9411 21.0589 37 31 37Z" stroke="#00AAE7" stroke-width="2" stroke-miterlimit="10" stroke-linecap="square"/>
<path d="M19 57C28.9411 57 37 48.9411 37 39C37 29.0589 28.9411 21 19 21C9.05887 21 1 29.0589 1 39C1 48.9411 9.05887 57 19 57Z" stroke="#333333" stroke-width="2" stroke-miterlimit="10" stroke-linecap="square"/>
<path d="M43 57C52.9411 57 61 48.9411 61 39C61 29.0589 52.9411 21 43 21C33.0589 21 25 29.0589 25 39C25 48.9411 33.0589 57 43 57Z" stroke="#333333" stroke-width="2" stroke-miterlimit="10" stroke-linecap="square"/>
</svg>
