<?xml version="1.0" encoding="UTF-8"?>
<svg width="1081px" height="416px" viewBox="0 0 1081 416" version="1.1" xmlns="http://www.w3.org/2000/svg" xmlns:xlink="http://www.w3.org/1999/xlink">
    <!-- Generator: Sketch 64 (93537) - https://sketch.com -->
    <title>编组 2</title>
    <desc>Created with Sketch.</desc>
    <g id="解决方案" stroke="none" stroke-width="1" fill="none" fill-rule="evenodd">
        <g id="场景解决方案-智能视频云解决方案✅" transform="translate(-420.000000, -758.000000)">
            <g id="产品介绍-2" transform="translate(0.000000, 610.000000)">
                <g id="编组-2" transform="translate(420.000000, 148.000000)">
                    <path d="M2,0 L1079,0 C1080.10457,-2.02906125e-16 1081,0.8954305 1081,2 L1081,414 C1081,415.104569 1080.10457,416 1079,416 L2,416 C0.8954305,416 1.3527075e-16,415.104569 0,414 L0,2 C-1.3527075e-16,0.8954305 0.8954305,2.02906125e-16 2,0 Z" id="矩形" fill="#00AAE7" opacity="0.08"></path>
                    <path d="M1055,80.5 L26,80.5 C25.5857864,80.5 25.2107864,80.6678932 24.9393398,80.9393398 C24.6678932,81.2107864 24.5,81.5857864 24.5,82 L24.5,138 C24.5,138.414214 24.6678932,138.789214 24.9393398,139.06066 C25.2107864,139.332107 25.5857864,139.5 26,139.5 L1055,139.5 C1055.41421,139.5 1055.78921,139.332107 1056.06066,139.06066 C1056.33211,138.789214 1056.5,138.414214 1056.5,138 L1056.5,82 C1056.5,81.5857864 1056.33211,81.2107864 1056.06066,80.9393398 C1055.78921,80.6678932 1055.41421,80.5 1055,80.5 Z" id="矩形备份-17" stroke="#00AAE7" opacity="0.85"></path>
                    <g id="编组-3" transform="translate(665.000000, 101.000000)">
                        <g id="短视频SDK备份-3" fill="#00AAE7">
                            <rect id="矩形备份-15" x="0" y="0" width="18.2537143" height="16.456"></rect>
                            <polygon id="矩形备份-16" points="18.2537143 5.21106667 23.232 3.2912 23.232 14.8104 18.2537143 12.8905333"></polygon>
                        </g>
                        <circle id="椭圆形备份-2" fill="#FFFFFF" cx="8.712" cy="5.808" r="2.904"></circle>
                        <path d="M8.712,7.744 C11.3850582,7.744 13.552,9.91094181 13.552,12.584 L13.552,13.552 L13.552,13.552 L3.872,13.552 L3.872,12.584 C3.872,9.91094181 6.03894181,7.744 8.712,7.744 Z" id="矩形备份-7" fill="#FFFFFF"></path>
                    </g>
                    <path d="M349,164.5 L26,164.5 C25.5857864,164.5 25.2107864,164.667893 24.9393398,164.93934 C24.6678932,165.210786 24.5,165.585786 24.5,166 L24.5,222 C24.5,222.414214 24.6678932,222.789214 24.9393398,223.06066 C25.2107864,223.332107 25.5857864,223.5 26,223.5 L349,223.5 C349.414214,223.5 349.789214,223.332107 350.06066,223.06066 C350.332107,222.789214 350.5,222.414214 350.5,222 L350.5,166 C350.5,165.585786 350.332107,165.210786 350.06066,164.93934 C349.789214,164.667893 349.414214,164.5 349,164.5 Z" id="矩形备份-18" stroke="#00AAE7" opacity="0.85"></path>
                    <g id="编组-3" transform="translate(147.000000, 186.000000)" fill="#00AAE7">
                        <g id="短视频SDK备份-3">
                            <rect id="矩形备份-15" x="0" y="0" width="18.8571429" height="17"></rect>
                            <polygon id="矩形备份-16" points="18.8571429 5.38333333 24 3.4 24 15.3 18.8571429 13.3166667"></polygon>
                        </g>
                    </g>
                    <polygon id="三角形备份-6" stroke="#FFFFFF" stroke-width="1.5" fill="#FFFFFF" transform="translate(157.000000, 195.000000) rotate(-270.000000) translate(-157.000000, -195.000000) " points="157 192 160 198 154 198"></polygon>
                    <path d="M261,332.5 L26,332.5 C25.5857864,332.5 25.2107864,332.667893 24.9393398,332.93934 C24.6678932,333.210786 24.5,333.585786 24.5,334 L24.5,390 C24.5,390.414214 24.6678932,390.789214 24.9393398,391.06066 C25.2107864,391.332107 25.5857864,391.5 26,391.5 L261,391.5 C261.414214,391.5 261.789214,391.332107 262.06066,391.06066 C262.332107,390.789214 262.5,390.414214 262.5,390 L262.5,334 C262.5,333.585786 262.332107,333.210786 262.06066,332.93934 C261.789214,332.667893 261.414214,332.5 261,332.5 Z" id="矩形备份-23" stroke="#00AAE7" opacity="0.85"></path>
                    <path d="M519,248.5 L26,248.5 C25.5857864,248.5 25.2107864,248.667893 24.9393398,248.93934 C24.6678932,249.210786 24.5,249.585786 24.5,250 L24.5,306 C24.5,306.414214 24.6678932,306.789214 24.9393398,307.06066 C25.2107864,307.332107 25.5857864,307.5 26,307.5 L519,307.5 C519.414214,307.5 519.789214,307.332107 520.06066,307.06066 C520.332107,306.789214 520.5,306.414214 520.5,306 L520.5,250 C520.5,249.585786 520.332107,249.210786 520.06066,248.93934 C519.789214,248.667893 519.414214,248.5 519,248.5 Z" id="矩形备份-21" stroke="#00AAE7" opacity="0.85"></path>
                    <text id="内容处理" font-family="PingFangSC-Regular, PingFang SC" font-size="14" font-weight="normal" fill="#00AAE7">
                        <tspan x="260" y="283">内容处理</tspan>
                    </text>
                    <text id="对象存储" font-family="PingFangSC-Regular, PingFang SC" font-size="14" font-weight="normal" fill="#00AAE7">
                        <tspan x="131" y="367">对象存储</tspan>
                    </text>
                    <g id="neirong-mian" transform="translate(230.000000, 266.000000)" fill-rule="nonzero">
                        <polygon id="路径" fill-opacity="0" fill="#D9D9D9" points="0 0 24 0 24 24 0 24"></polygon>
                        <path d="M22,7.56323196 L18.0538451,7.56323196 C17.2466597,7.56323196 16.5923067,6.89223428 16.5923067,6.06451671 L16.5923067,2.01798552 L14.6923068,2.01798552 L14.6923068,6.51413128 C14.6923068,8.16956644 16.0010129,9.51156179 17.6153836,9.51156179 L22,9.51156179 L22,20.0025686 C22,21.6580037 20.6912926,23.0000005 19.0769219,23.0000005 L5.92307671,23.0000005 C4.30870602,23.0000005 3,21.6580037 3,20.0025686 L3,5.0124186 C3,3.35815331 4.3069246,2.01664236 5.92015364,2.01498809 L17.0073836,2.00000047 C17.3969162,1.99968443 17.7704554,2.15883523 18.0450758,2.44212194 L21.574691,6.07500771 C21.8473721,6.35612813 22.0003046,6.73659793 22,7.13310068 L22,7.56323196 Z M8.334615,12.6588638 C7.80994453,12.6588638 7.38461507,13.0950123 7.38461507,13.6330287 C7.38461507,14.1710452 7.80994453,14.6071936 8.334615,14.6071936 L16.6653836,14.6071936 C17.1900541,14.6071936 17.6153836,14.1710452 17.6153836,13.6330287 C17.6153836,13.0950123 17.1900541,12.6588638 16.6653836,12.6588638 L8.334615,12.6588638 Z M8.334615,17.0051381 C7.80994453,17.0051381 7.38461507,17.4412865 7.38461507,17.979303 C7.38461507,18.5173194 7.80994453,18.9534679 8.334615,18.9534679 L16.6653836,18.9534679 C17.1900541,18.9534679 17.6153836,18.5173194 17.6153836,17.979303 C17.6153836,17.4412865 17.1900541,17.0051381 16.6653836,17.0051381 L8.334615,17.0051381 Z" id="形状" fill="#00AAE7"></path>
                    </g>
                    <path d="M702,164.5 L377,164.5 C376.585786,164.5 376.210786,164.667893 375.93934,164.93934 C375.667893,165.210786 375.5,165.585786 375.5,166 L375.5,222 C375.5,222.414214 375.667893,222.789214 375.93934,223.06066 C376.210786,223.332107 376.585786,223.5 377,223.5 L702,223.5 C702.414214,223.5 702.789214,223.332107 703.06066,223.06066 C703.332107,222.789214 703.5,222.414214 703.5,222 L703.5,166 C703.5,165.585786 703.332107,165.210786 703.06066,164.93934 C702.789214,164.667893 702.414214,164.5 702,164.5 Z" id="矩形备份-19" stroke="#00AAE7"></path>
                    <circle id="椭圆形" fill="#00AAE7" cx="508" cy="194" r="11"></circle>
                    <polygon id="三角形备份-6" stroke="#FFFFFF" stroke-width="1.5" fill="#FFFFFF" transform="translate(508.860097, 194.500000) rotate(-270.000000) translate(-508.860097, -194.500000) " points="508.860097 191.5 511.860097 197.5 505.860097 197.5"></polygon>
                    <text id="播放SDK" font-family="PingFangSC-Regular, PingFang SC" font-size="14" font-weight="normal" fill="#00AAE7">
                        <tspan x="527" y="199">播放SDK</tspan>
                    </text>
                    <path d="M526,332.5 L289,332.5 C288.585786,332.5 288.210786,332.667893 287.93934,332.93934 C287.667893,333.210786 287.5,333.585786 287.5,334 L287.5,390 C287.5,390.414214 287.667893,390.789214 287.93934,391.06066 C288.210786,391.332107 288.585786,391.5 289,391.5 L526,391.5 C526.414214,391.5 526.789214,391.332107 527.06066,391.06066 C527.332107,390.789214 527.5,390.414214 527.5,390 L527.5,334 C527.5,333.585786 527.332107,333.210786 527.06066,332.93934 C526.789214,332.667893 526.414214,332.5 526,332.5 Z" id="矩形备份-24" stroke="#00AAE7" opacity="0.85"></path>
                    <g id="wangluoguanwang-" transform="translate(354.000000, 349.000000)" fill-rule="nonzero">
                        <path d="M0.2,12.7 C0.2,19.6035594 5.79644063,25.2 12.7,25.2 C19.6035594,25.2 25.2,19.6035594 25.2,12.7 C25.2,5.79644063 19.6035594,0.2 12.7,0.2 C5.79644063,0.2 0.2,5.79644063 0.2,12.7 L0.2,12.7 Z" id="路径" fill="#00AAE7"></path>
                        <path d="M12.65,16.4 C7.5825495,16.4 2.2,15.0534673 2.2,12.5512898 C2.2,10.0491122 7.58490099,8.7 12.65,8.7 C17.715099,8.7 23.1,10.0516918 23.1,12.5512898 C23.1,15.0508878 17.715099,16.4 12.65,16.4 Z M12.65,9.69055276 C6.73366337,9.69055276 3.10061881,11.3569514 3.10061881,12.5512898 C3.10061881,13.7456281 6.73366337,15.4120268 12.65,15.4120268 C18.5663366,15.4120268 22.1993812,13.7456281 22.1993812,12.5512898 C22.1993812,11.3569514 18.5663366,9.69055276 12.65,9.69055276 Z" id="形状" stroke="#FFFFFF" stroke-width="0.55" fill="#FFFFFF"></path>
                        <path d="M12.6512898,23 C10.1516918,23 8.8,17.6174505 8.8,12.5523515 C8.8,7.48725248 10.1491122,2.1 12.6512898,2.1 C15.1534673,2.1 16.5,7.48490099 16.5,12.55 C16.5,17.615099 15.1508878,23 12.6512898,23 Z M12.6512898,3.00061881 C11.4569514,3.00061881 9.79055276,6.63366337 9.79055276,12.55 C9.79055276,18.4663366 11.4569514,22.0970297 12.6512898,22.0970297 C13.8456281,22.0970297 15.5120268,18.4663366 15.5120268,12.55 C15.5120268,6.63366337 13.8456281,3.00061881 12.6512898,3.00061881 Z" id="形状" stroke="#FFFFFF" stroke-width="0.55" fill="#FFFFFF"></path>
                    </g>
                    <text id="实时流网络" font-family="PingFangSC-Regular, PingFang SC" font-size="14" font-weight="normal" fill="#00AAE7">
                        <tspan x="388" y="367">实时流网络</tspan>
                    </text>
                    <path d="M1055,248.5 L547,248.5 C546.585786,248.5 546.210786,248.667893 545.93934,248.93934 C545.667893,249.210786 545.5,249.585786 545.5,250 L545.5,306 C545.5,306.414214 545.667893,306.789214 545.93934,307.06066 C546.210786,307.332107 546.585786,307.5 547,307.5 L1055,307.5 C1055.41421,307.5 1055.78921,307.332107 1056.06066,307.06066 C1056.33211,306.789214 1056.5,306.414214 1056.5,306 L1056.5,250 C1056.5,249.585786 1056.33211,249.210786 1056.06066,248.93934 C1055.78921,248.667893 1055.41421,248.5 1055,248.5 Z" id="矩形备份-22" stroke="#00AAE7" opacity="0.85"></path>
                    <g id="编组-3" transform="translate(757.000000, 270.000000)" fill="#00AAE7">
                        <g id="短视频SDK备份-3">
                            <rect id="矩形备份-15" x="0" y="0" width="18.8571429" height="17"></rect>
                            <polygon id="矩形备份-16" points="18.8571429 5.38333333 24 3.4 24 15.3 18.8571429 13.3166667"></polygon>
                        </g>
                    </g>
                    <circle id="椭圆形" stroke="#FFFFFF" fill="#FFFFFF" cx="762" cy="275" r="2"></circle>
                    <text id="视频智能" font-family="PingFangSC-Regular, PingFang SC" font-size="14" font-weight="normal" fill="#00AAE7">
                        <tspan x="789" y="283">视频智能</tspan>
                    </text>
                    <path d="M1055,164.5 L730,164.5 C729.585786,164.5 729.210786,164.667893 728.93934,164.93934 C728.667893,165.210786 728.5,165.585786 728.5,166 L728.5,222 C728.5,222.414214 728.667893,222.789214 728.93934,223.06066 C729.210786,223.332107 729.585786,223.5 730,223.5 L1055,223.5 C1055.41421,223.5 1055.78921,223.332107 1056.06066,223.06066 C1056.33211,222.789214 1056.5,222.414214 1056.5,222 L1056.5,166 C1056.5,165.585786 1056.33211,165.210786 1056.06066,164.93934 C1055.78921,164.667893 1055.41421,164.5 1055,164.5 Z" id="矩形备份-20" stroke="#00AAE7" opacity="0.85"></path>
                    <text id="短视频SDK" font-family="PingFangSC-Regular, PingFang SC" font-size="14" font-weight="normal" fill="#00AAE7">
                        <tspan x="873" y="199">短视频SDK</tspan>
                    </text>
                    <path d="M791,332.5 L554,332.5 C553.585786,332.5 553.210786,332.667893 552.93934,332.93934 C552.667893,333.210786 552.5,333.585786 552.5,334 L552.5,390 C552.5,390.414214 552.667893,390.789214 552.93934,391.06066 C553.210786,391.332107 553.585786,391.5 554,391.5 L791,391.5 C791.414214,391.5 791.789214,391.332107 792.06066,391.06066 C792.332107,390.789214 792.5,390.414214 792.5,390 L792.5,334 C792.5,333.585786 792.332107,333.210786 792.06066,332.93934 C791.789214,332.667893 791.414214,332.5 791,332.5 Z" id="矩形备份-25" stroke="#00AAE7" opacity="0.85"></path>
                    <g id="wangluo" transform="translate(614.000000, 350.000000)" fill-rule="nonzero">
                        <path d="M0,12.1 C0,18.7826455 5.41735453,24.2 12.1,24.2 C18.7826455,24.2 24.2,18.7826455 24.2,12.1 C24.2,5.41735453 18.7826455,0 12.1,0 C5.41735453,0 0,5.41735453 0,12.1 Z" id="路径" fill="#000000"></path>
                        <path d="M0,12.1 C0,18.7826455 5.41735453,24.2 12.1,24.2 C18.7826455,24.2 24.2,18.7826455 24.2,12.1 C24.2,5.41735453 18.7826455,0 12.1,0 C5.41735453,0 0,5.41735453 0,12.1 Z" id="路径" fill="#00AAE7"></path>
                        <polygon id="路径" fill="#FFFFFF" points="17.6286753 15.4 17.6286753 11.2816 12.6918753 11.2816 12.6918753 8.80000002 13.7368 8.80000002 13.7368 5.5 10.4632 5.5 10.4632 8.80000002 11.5695706 8.80000002 11.5695706 11.2816 6.6327706 11.2816 6.6327706 15.4 5.5 15.4 5.5 18.7 8.79999999 18.7 8.79999999 15.4 7.72867527 15.4 7.72867527 12.4250427 11.5695706 12.4250427 11.5695706 15.4 10.4632 15.4 10.4632 18.7 13.7368 18.7 13.7368 15.4 12.6918753 15.4 12.6918753 12.4250427 16.5327706 12.4250427 16.5327706 15.4 15.4 15.4 15.4 18.7 18.7 18.7 18.7 15.4"></polygon>
                    </g>
                    <text id="内容分发网络" font-family="PingFangSC-Regular, PingFang SC" font-size="14" font-weight="normal" fill="#00AAE7">
                        <tspan x="647" y="367">内容分发网络</tspan>
                    </text>
                    <path d="M1055,332.5 L819,332.5 C818.585786,332.5 818.210786,332.667893 817.93934,332.93934 C817.667893,333.210786 817.5,333.585786 817.5,334 L817.5,390 C817.5,390.414214 817.667893,390.789214 817.93934,391.06066 C818.210786,391.332107 818.585786,391.5 819,391.5 L1055,391.5 C1055.41421,391.5 1055.78921,391.332107 1056.06066,391.06066 C1056.33211,390.789214 1056.5,390.414214 1056.5,390 L1056.5,334 C1056.5,333.585786 1056.33211,333.210786 1056.06066,332.93934 C1055.78921,332.667893 1055.41421,332.5 1055,332.5 Z" id="矩形备份-26" stroke="#00AAE7" opacity="0.85"></path>
                    <g id="pingtai" transform="translate(873.000000, 352.000000)" fill="#00AAE7" fill-rule="nonzero">
                        <path d="M7.81204461,19.48 L0.994498141,19.48 C0.444907063,19.48 -2.30926389e-14,19.0347619 -2.30926389e-14,18.4847619 L-2.30926389e-14,11.6686905 C-2.30926389e-14,11.4067857 0.104684015,11.1514286 0.287881041,10.9680952 C0.471078067,10.7847619 0.726245353,10.68 0.98795539,10.68 L7.80550186,10.68 C8.35509294,10.68 8.8,11.1252381 8.8,11.6752381 L8.8,18.4978571 C8.8,19.0413095 8.35509294,19.48 7.81204461,19.48 Z" id="路径"></path>
                        <path d="M1.92331606,11.6286989 C1.91094004,11.6286989 1.89856403,11.6352416 1.89237602,11.6417844 C1.88618801,11.6483271 1.88,11.6614126 1.88,11.6744981 L1.88,18.4920446 C1.88,18.5051301 1.88618801,18.5182156 1.89237602,18.5247584 C1.89856403,18.5313011 1.91094004,18.5378439 1.92331606,18.5378439 L8.37122132,18.5378439 C8.38359734,18.5378439 8.39597335,18.5313011 8.40216136,18.5247584 C8.40834937,18.5182156 8.41453738,18.5051301 8.41453738,18.4920446 L8.41453738,11.6744981 C8.41453738,11.6614126 8.40834937,11.6483271 8.40216136,11.6417844 C8.39597335,11.6352416 8.38359734,11.6286989 8.37122132,11.6286989 L1.92331606,11.6286989 Z M17.6594226,19.48 L11.2115174,19.48 C10.6917246,19.48 10.27094,19.0350929 10.27094,18.4855019 L10.27094,11.6744981 C10.27094,11.1249071 10.6917246,10.68 11.2115174,10.68 L17.6594226,10.68 C18.1792154,10.68 18.6,11.1249071 18.6,11.6744981 L18.6,18.4920446 C18.593812,19.0416357 18.1792154,19.48 17.6594226,19.48 L17.6594226,19.48 Z" id="形状"></path>
                        <path d="M11.2287787,12.0411887 C11.2164027,12.0411887 11.2040266,12.0473997 11.1978386,12.0536107 C11.1916506,12.0598217 11.1854626,12.0722437 11.1854626,12.0846657 L11.1854626,18.556523 C11.1854626,18.568945 11.1916506,18.581367 11.1978386,18.587578 C11.2040266,18.593789 11.2164027,18.6 11.2287787,18.6 L17.6766839,18.6 C17.701436,18.6 17.72,18.581367 17.72,18.556523 L17.72,12.0846657 C17.72,12.0598217 17.701436,12.0411887 17.6766839,12.0411887 L11.2287787,12.0411887 L11.2287787,12.0411887 Z M7.38848261,9.233789 L0.94057735,9.233789 C0.420784604,9.233789 1.24344979e-14,8.81144131 1.24344979e-14,8.28971768 L1.24344979e-14,1.82407132 C1.24344979e-14,1.3023477 0.420784604,0.88 0.94057735,0.88 L7.38848261,0.88 C7.90827535,0.88 8.32905996,1.3023477 8.32905996,1.82407132 L8.32905996,8.29592868 C8.32287195,8.81144131 7.90208734,9.233789 7.38848261,9.233789 Z" id="形状"></path>
                        <path d="M0.924520734,1.17302825 C0.899080314,1.17302825 0.88,1.19133299 0.88,1.2157393 L0.88,7.57358294 C0.88,7.5857861 0.886360105,7.59798925 0.89272021,7.60409083 C0.899080314,7.61019241 0.911800524,7.61629399 0.924520734,7.61629399 L7.55174993,7.61629399 C7.56447014,7.61629399 7.57719035,7.61019241 7.58355046,7.60409083 C7.58991056,7.59798925 7.59627067,7.5857861 7.59627067,7.57358294 L7.59627067,1.22184087 C7.59627067,1.20963772 7.58991056,1.19743456 7.58355046,1.19133299 C7.57719035,1.18523141 7.56447014,1.17912983 7.55174993,1.17912983 L0.924520734,1.17912983 L0.924520734,1.17302825 Z M14.8927744,9.8 C14.6383702,9.8 14.3903261,9.70237476 14.2122432,9.53153059 L10.5869835,6.05363148 C10.2117373,5.69363841 10.2117373,5.10788698 10.5869835,4.74789392 L14.2122432,1.2699948 C14.5874894,0.910001733 15.1980594,0.910001733 15.5733056,1.2699948 L19.1985654,4.74789392 C19.5738115,5.10788698 19.5738115,5.69363841 19.1985654,6.05363148 L15.5733056,9.53153059 C15.3952227,9.70237476 15.1471786,9.8 14.8927744,9.8 L14.8927744,9.8 Z" id="形状"></path>
                        <path d="M16.0495106,8.90627977 C16.0678042,8.92457341 16.0921958,8.92457341 16.1104894,8.90627977 L19.5862798,5.43048939 C19.6045734,5.41219576 19.6045734,5.38780424 19.5862798,5.36951061 L16.1104894,1.89372023 C16.0921958,1.87542659 16.0678042,1.87542659 16.0495106,1.89372023 L12.5737202,5.36951061 C12.5554266,5.38780424 12.5554266,5.41219576 12.5737202,5.43048939 L16.0495106,8.90627977 Z" id="路径"></path>
                    </g>
                    <text id="流媒体计算平台" font-family="PingFangSC-Regular, PingFang SC" font-size="14" font-weight="normal" fill="#00AAE7">
                        <tspan x="901" y="367">流媒体计算平台</tspan>
                    </text>
                    <text id="直播" font-family="PingFangSC-Regular, PingFang SC" font-size="14" font-weight="normal" fill="#00AAE7">
                        <tspan x="358" y="115">直播</tspan>
                    </text>
                    <text id="推流SDK" font-family="PingFangSC-Regular, PingFang SC" font-size="14" font-weight="normal" fill="#00AAE7">
                        <tspan x="175" y="199">推流SDK</tspan>
                    </text>
                    <text id="点播" font-family="PingFangSC-Regular, PingFang SC" font-size="14" font-weight="normal" fill="#00AAE7">
                        <tspan x="534" y="115">点播</tspan>
                    </text>
                    <text id="实时音视频" font-family="PingFangSC-Regular, PingFang SC" font-size="14" font-weight="normal" fill="#00AAE7">
                        <tspan x="697" y="115">实时音视频</tspan>
                    </text>
                    <rect id="矩形" fill="#00AAE7" opacity="0.854399182" x="0" y="0" width="1081" height="56"></rect>
                    <text id="七牛智能视频云" font-family="PingFangSC-Medium, PingFang SC" font-size="18" font-weight="400" line-spacing="36" fill="#FFFFFF">
                        <tspan x="477" y="29">七牛智能视频云</tspan>
                    </text>
                    <g id="直播-2" transform="translate(330.000000, 101.000000)" stroke-width="1.65">
                        <g id="直播">
                            <rect id="矩形备份-20" stroke="#00AAE7" fill="#00AAE7" x="0" y="2.75" width="19.8" height="13.75"></rect>
                            <polygon id="三角形备份-6" stroke="#FFFFFF" fill="#FFFFFF" transform="translate(10.239520, 9.625000) rotate(-270.000000) translate(-10.239520, -9.625000) " points="10.2395201 6.79642857 12.9895201 12.4535714 7.48952015 12.4535714"></polygon>
                            <line x1="4.24285714" y1="2.59287426e-18" x2="7.07142857" y2="2.75" id="直线-8备份-3" stroke="#00AAE7" fill="#00AAE7"></line>
                            <line x1="12.7285714" y1="2.59287426e-18" x2="15.5571429" y2="2.75" id="直线-8备份-6" stroke="#00AAE7" fill="#00AAE7" transform="translate(14.142857, 1.375000) scale(-1, 1) translate(-14.142857, -1.375000) "></line>
                        </g>
                    </g>
                    <g id="直播-2备份" transform="translate(505.000000, 102.000000)" stroke-width="1.485">
                        <g id="直播">
                            <rect id="矩形备份-20" stroke="#00AAE7" fill="#00AAE7" x="0" y="0" width="20.79" height="14.85"></rect>
                            <polygon id="三角形备份-6" stroke="#FFFFFF" fill="#FFFFFF" transform="translate(10.751496, 7.425000) rotate(-270.000000) translate(-10.751496, -7.425000) " points="10.7514962 4.455 13.7214962 10.395 7.78149615 10.395"></polygon>
                        </g>
                    </g>
                    <circle id="椭圆形" fill="#FFFFFF" cx="523.5" cy="105.5" r="1.5"></circle>
                    <g id="编组" transform="translate(848.000000, 184.000000)" stroke-width="1.5">
                        <g id="云主机" fill="#00AAE7" stroke="#00AAE7">
                            <rect id="矩形备份-17" x="0" y="0" width="17" height="20"></rect>
                        </g>
                        <polygon id="三角形备份-6" stroke="#FFFFFF" fill="#FFFFFF" transform="translate(9.000000, 8.000000) rotate(-270.000000) translate(-9.000000, -8.000000) " points="9 5 12 11 6 11"></polygon>
                        <line x1="6" y1="15" x2="12" y2="15" id="直线-12" stroke="#FFFFFF" stroke-linecap="square"></line>
                    </g>
                    <rect id="矩形" fill="#00AAE7" x="106" y="352" width="18" height="6"></rect>
                    <line x1="108" y1="355" x2="111" y2="355" id="直线" stroke="#FFFFFF" stroke-width="1.65" stroke-linecap="square"></line>
                    <rect id="矩形备份" fill="#00AAE7" x="106" y="359" width="18" height="6"></rect>
                    <line x1="108" y1="362" x2="111" y2="362" id="直线" stroke="#FFFFFF" stroke-width="1.5" stroke-linecap="square"></line>
                    <rect id="矩形备份-2" fill="#00AAE7" x="106" y="366" width="18" height="6"></rect>
                    <line x1="108" y1="369" x2="111" y2="369" id="直线" stroke="#FFFFFF" stroke-width="1.65" stroke-linecap="square"></line>
                </g>
            </g>
        </g>
    </g>
</svg>