<?xml version="1.0" encoding="UTF-8"?>
<svg width="520px" height="350px" viewBox="0 0 520 350" version="1.1" xmlns="http://www.w3.org/2000/svg" xmlns:xlink="http://www.w3.org/1999/xlink">
    <title>插画</title>
    <defs>
        <filter x="-55.0%" y="-254.8%" width="210.0%" height="609.5%" filterUnits="objectBoundingBox" id="filter-1">
            <feGaussianBlur stdDeviation="50" in="SourceGraphic"></feGaussianBlur>
        </filter>
        <linearGradient x1="50%" y1="0%" x2="50%" y2="100%" id="linearGradient-2">
            <stop stop-color="#7AE9FF" stop-opacity="0" offset="0%"></stop>
            <stop stop-color="#44CFFF" offset="100%"></stop>
        </linearGradient>
        <linearGradient x1="50%" y1="0%" x2="50%" y2="100%" id="linearGradient-3">
            <stop stop-color="#7AE9FF" stop-opacity="0" offset="0%"></stop>
            <stop stop-color="#56D3FF" stop-opacity="0.500027316" offset="100%"></stop>
        </linearGradient>
        <filter x="-4.1%" y="-64.3%" width="108.2%" height="228.6%" filterUnits="objectBoundingBox" id="filter-4">
            <feGaussianBlur stdDeviation="3" in="SourceGraphic"></feGaussianBlur>
        </filter>
        <linearGradient x1="50%" y1="0%" x2="50%" y2="97.6061022%" id="linearGradient-5">
            <stop stop-color="#E2F7FF" offset="0%"></stop>
            <stop stop-color="#94D8FF" offset="100%"></stop>
        </linearGradient>
        <linearGradient x1="50%" y1="0%" x2="50%" y2="97.6061022%" id="linearGradient-6">
            <stop stop-color="#E2F7FF" offset="0%"></stop>
            <stop stop-color="#94D8FF" offset="100%"></stop>
        </linearGradient>
        <linearGradient x1="50%" y1="0%" x2="50%" y2="97.6061022%" id="linearGradient-7">
            <stop stop-color="#E2F7FF" offset="0%"></stop>
            <stop stop-color="#94D8FF" offset="100%"></stop>
        </linearGradient>
        <linearGradient x1="50%" y1="0%" x2="50%" y2="97.6061022%" id="linearGradient-8">
            <stop stop-color="#E2F7FF" offset="0%"></stop>
            <stop stop-color="#94D8FF" offset="100%"></stop>
        </linearGradient>
        <path d="M24,48 L24,54 L0,54 L0,48 L24,48 Z M58,48 L58,54 L34,54 L34,48 L58,48 Z M92,48 L92,54 L68,54 L68,48 L92,48 Z M24,32 L24,38 L0,38 L0,32 L24,32 Z M58,32 L58,38 L34,38 L34,32 L58,32 Z M92,32 L92,38 L68,38 L68,32 L92,32 Z M24,16 L24,22 L0,22 L0,16 L24,16 Z M58,16 L58,22 L34,22 L34,16 L58,16 Z M92,16 L92,22 L68,22 L68,16 L92,16 Z M24,0 L24,6 L0,6 L0,0 L24,0 Z M58,0 L58,6 L34,6 L34,0 L58,0 Z M92,0 L92,6 L68,6 L68,0 L92,0 Z" id="path-9"></path>
        <filter x="-1.1%" y="-1.9%" width="102.2%" height="103.7%" filterUnits="objectBoundingBox" id="filter-10">
            <feGaussianBlur stdDeviation="0.5" in="SourceAlpha" result="shadowBlurInner1"></feGaussianBlur>
            <feOffset dx="0" dy="1" in="shadowBlurInner1" result="shadowOffsetInner1"></feOffset>
            <feComposite in="shadowOffsetInner1" in2="SourceAlpha" operator="arithmetic" k2="-1" k3="1" result="shadowInnerInner1"></feComposite>
            <feColorMatrix values="0 0 0 0 0   0 0 0 0 0.387630184   0 0 0 0 0.526721014  0 0 0 0.5 0" type="matrix" in="shadowInnerInner1"></feColorMatrix>
        </filter>
        <linearGradient x1="50%" y1="0%" x2="50%" y2="97.6061022%" id="linearGradient-11">
            <stop stop-color="#E2F7FF" offset="0%"></stop>
            <stop stop-color="#94D8FF" offset="100%"></stop>
        </linearGradient>
        <linearGradient x1="50%" y1="0%" x2="50%" y2="100%" id="linearGradient-12">
            <stop stop-color="#00D4F5" stop-opacity="0" offset="0%"></stop>
            <stop stop-color="#00BCED" offset="48.7070261%"></stop>
            <stop stop-color="#00AAE7" stop-opacity="0" offset="100%"></stop>
        </linearGradient>
        <linearGradient x1="50%" y1="0%" x2="50%" y2="100%" id="linearGradient-13">
            <stop stop-color="#00D4F5" stop-opacity="0" offset="0%"></stop>
            <stop stop-color="#00BCED" offset="48.7070261%"></stop>
            <stop stop-color="#00AAE7" stop-opacity="0" offset="100%"></stop>
        </linearGradient>
    </defs>
    <g id="产品" stroke="none" stroke-width="1" fill="none" fill-rule="evenodd">
        <g id="机器与数据智能-智能日志管理平台✅" transform="translate(-1028.000000, -120.000000)">
            <g id="banner" transform="translate(0.000000, 120.000000)">
                <g id="编组-8" transform="translate(372.000000, 0.000000)">
                    <g id="编组-12" transform="translate(760.000000, 30.000000)">
                        <ellipse id="椭圆形" fill="#00BDFF" filter="url(#filter-1)" cx="152.36" cy="199.12" rx="136.32" ry="29.44"></ellipse>
                        <ellipse id="椭圆形" fill="url(#linearGradient-2)" cx="153.04" cy="179.12" rx="150" ry="29.44"></ellipse>
                        <ellipse id="椭圆形" fill="url(#linearGradient-3)" cx="153.04" cy="202.12" rx="150" ry="29.44"></ellipse>
                        <ellipse id="椭圆形" fill-opacity="0.5" fill="#0784DA" filter="url(#filter-4)" cx="154.54" cy="181.68" rx="109.5" ry="7"></ellipse>
                        <rect id="矩形" fill="url(#linearGradient-5)" opacity="0.5" x="46.76" y="101.04" width="33.28" height="83.2"></rect>
                        <polygon id="矩形" fill="url(#linearGradient-6)" opacity="0.600000024" transform="translate(63.400000, 97.040000) scale(1, -1) translate(-63.400000, -97.040000) " points="46.76 93.04 80.04 93.04 80.04 101.04 56.76 101.04"></polygon>
                        <polygon id="矩形" fill="url(#linearGradient-7)" opacity="0.600000024" transform="translate(244.500000, 97.000000) scale(-1, -1) translate(-244.500000, -97.000000) " points="228 93 261 93 261 101 237.915865 101"></polygon>
                        <rect id="矩形" fill="url(#linearGradient-5)" opacity="0.600000024" x="228.52" y="101.04" width="33.28" height="83.2"></rect>
                        <rect id="矩形" fill="url(#linearGradient-8)" x="80" y="78" width="148.48" height="106.24"></rect>
                        <g id="编组-21" opacity="0.5" transform="translate(106.000000, 104.000000)">
                            <g id="形状结合">
                                <use fill="#2194E1" fill-rule="evenodd" xlink:href="#path-9"></use>
                                <use fill="black" fill-opacity="1" filter="url(#filter-10)" xlink:href="#path-9"></use>
                            </g>
                        </g>
                        <polygon id="矩形" fill="url(#linearGradient-11)" opacity="0.600000024" points="90 70 218.48 70 228.48 78 80 78"></polygon>
                        <g id="编组-21" fill-rule="nonzero">
                            <polygon id="路径" fill="url(#linearGradient-12)" points="4 96 4 126 0 126 0 96"></polygon>
                            <path d="M27,33 L27,60 L27,60 L24,60 L24,30 C25.6568542,30 27,31.3431458 27,33 Z" id="路径" fill="url(#linearGradient-13)"></path>
                            <path d="M275,37 L275,63 L275,63 L271,63 L271,33 C273.209139,33 275,34.790861 275,37 Z" id="路径" fill="url(#linearGradient-12)"></path>
                            <path d="M298,109 L298,135 L298,135 L294,135 L294,105 C296.209139,105 298,106.790861 298,109 Z" id="路径" fill="url(#linearGradient-12)" opacity="0.300000012"></path>
                            <path d="M228,4 L228,30 L228,30 L224,30 L224,0 C226.209139,-4.05812251e-16 228,1.790861 228,4 Z" id="路径" fill="url(#linearGradient-12)" opacity="0.400000006"></path>
                            <path d="M312,166 L312,193 L312,193 L309,193 L309,163 C310.656854,163 312,164.343146 312,166 Z" id="路径" fill="url(#linearGradient-13)" opacity="0.449999988"></path>
                        </g>
                    </g>
                </g>
            </g>
        </g>
    </g>
</svg>