<?xml version="1.0" encoding="UTF-8"?>
<svg width="62px" height="42px" viewBox="0 0 62 42" version="1.1" xmlns="http://www.w3.org/2000/svg" xmlns:xlink="http://www.w3.org/1999/xlink">
    <!-- Generator: Sketch 64 (93537) - https://sketch.com -->
    <title>ram-2</title>
    <desc>Created with Sketch.</desc>
    <g id="产品" stroke="none" stroke-width="1" fill="none" fill-rule="evenodd" stroke-linecap="square">
        <g id="基础服务-云主机✅" transform="translate(-529.000000, -1894.000000)" stroke-width="2">
            <g id="产品介绍-2" transform="translate(0.000000, 1407.000000)">
                <g id="01" transform="translate(372.000000, 448.000000)">
                    <g id="ram-2" transform="translate(158.000000, 40.000000)">
                        <path d="M5,0 L55,0 C57.7614237,0 60,2.23857625 60,5 L60,30 L0,30 L0,5 C0,2.23857625 2.23857625,0 5,0 Z" id="路径" stroke="#333333"></path>
                        <polyline id="路径" stroke="#00AAE7" points="54 35 54 40 6 40 6 35"></polyline>
                        <line x1="30" y1="40" x2="30" y2="36" id="路径" stroke="#00AAE7"></line>
                        <line x1="24" y1="40" x2="24" y2="36" id="路径" stroke="#00AAE7"></line>
                        <line x1="18" y1="40" x2="18" y2="36" id="路径" stroke="#00AAE7"></line>
                        <line x1="12" y1="40" x2="12" y2="36" id="路径" stroke="#00AAE7"></line>
                        <line x1="36" y1="40" x2="36" y2="36" id="路径" stroke="#00AAE7"></line>
                        <line x1="42" y1="40" x2="42" y2="36" id="路径" stroke="#00AAE7"></line>
                        <line x1="48" y1="40" x2="48" y2="36" id="路径" stroke="#00AAE7"></line>
                        <rect id="矩形" stroke="#333333" x="26" y="7" width="8" height="16"></rect>
                        <rect id="矩形" stroke="#333333" x="10" y="7" width="8" height="16"></rect>
                        <rect id="矩形" stroke="#333333" x="42" y="7" width="8" height="16"></rect>
                    </g>
                </g>
            </g>
        </g>
    </g>
</svg>