<?xml version="1.0" encoding="UTF-8"?>
<svg width="1081px" height="642px" viewBox="0 0 1081 642" version="1.1" xmlns="http://www.w3.org/2000/svg" xmlns:xlink="http://www.w3.org/1999/xlink">
    <title>编组</title>
    <defs>
        <path d="M632,406 L1057,406 C1058.10457,406 1059,406.895431 1059,408 L1059,620 C1059,621.104569 1058.10457,622 1057,622 L24,622 C22.8954305,622 22,621.104569 22,620 L22,563.265355 L22,563.265355 L630,563.265355 L630,408 C630,406.895431 630.895431,406 632,406 Z" id="path-1"></path>
        <mask id="mask-2" maskContentUnits="userSpaceOnUse" maskUnits="objectBoundingBox" x="0" y="0" width="1037" height="216" fill="white">
            <use xlink:href="#path-1"></use>
        </mask>
        <path d="M632,262 L1057,262 C1058.10457,262 1059,262.895431 1059,264 L1059,380 C1059,381.104569 1058.10457,382 1057,382 L632,382 C630.895431,382 630,381.104569 630,380 L630,264 C630,262.895431 630.895431,262 632,262 Z" id="path-3"></path>
        <mask id="mask-4" maskContentUnits="userSpaceOnUse" maskUnits="objectBoundingBox" x="0" y="0" width="429" height="120" fill="white">
            <use xlink:href="#path-3"></use>
        </mask>
        <path d="M632,72 L1057,72 C1058.10457,72 1059,72.8954305 1059,74 L1059,236 C1059,237.104569 1058.10457,238 1057,238 L632,238 C630.895431,238 630,237.104569 630,236 L630,74 C630,72.8954305 630.895431,72 632,72 Z" id="path-5"></path>
        <mask id="mask-6" maskContentUnits="userSpaceOnUse" maskUnits="objectBoundingBox" x="0" y="0" width="429" height="166" fill="white">
            <use xlink:href="#path-5"></use>
        </mask>
    </defs>
    <g id="解决方案" stroke="none" stroke-width="1" fill="none" fill-rule="evenodd">
        <g id="场景解决方案-私有云行业解决方案✅" transform="translate(-420.000000, -690.000000)">
            <g id="产品介绍-2" transform="translate(0.000000, 542.000000)">
                <g id="编组" transform="translate(420.000000, 148.000000)">
                    <path d="M1079,1 L2,1 C1.72385763,1 1.47385763,1.11192881 1.29289322,1.29289322 C1.11192881,1.47385763 1,1.72385763 1,2 L1,640 C1,640.276142 1.11192881,640.526142 1.29289322,640.707107 C1.47385763,640.888071 1.72385763,641 2,641 L1079,641 C1079.27614,641 1079.52614,640.888071 1079.70711,640.707107 C1079.88807,640.526142 1080,640.276142 1080,640 L1080,2 C1080,1.72385763 1079.88807,1.47385763 1079.70711,1.29289322 C1079.52614,1.11192881 1079.27614,1 1079,1 Z" id="矩形" stroke="#21B4E9" stroke-width="2"></path>
                    <rect id="矩形" stroke="#20B4E9" fill="#FFFFFF" x="22.5" y="406.5" width="583" height="134"></rect>
                    <use id="矩形备份-18" stroke="#28B8BB" mask="url(#mask-2)" stroke-width="2" fill="#FFFFFF" stroke-dasharray="5,5" xlink:href="#path-1"></use>
                    <use id="矩形备份-18" stroke="#28B8BB" mask="url(#mask-4)" stroke-width="2" fill="#FFFFFF" stroke-dasharray="5,5" xlink:href="#path-3"></use>
                    <use id="矩形备份-18" stroke="#28B8BB" mask="url(#mask-6)" stroke-width="2" fill="#FFFFFF" stroke-dasharray="5,5" xlink:href="#path-5"></use>
                    <path d="M830,480.5 L656,480.5 C655.585786,480.5 655.210786,480.667893 654.93934,480.93934 C654.667893,481.210786 654.5,481.585786 654.5,482 L654.5,510 C654.5,510.414214 654.667893,510.789214 654.93934,511.06066 C655.210786,511.332107 655.585786,511.5 656,511.5 L830,511.5 C830.414214,511.5 830.789214,511.332107 831.06066,511.06066 C831.332107,510.789214 831.5,510.414214 831.5,510 L831.5,482 C831.5,481.585786 831.332107,481.210786 831.06066,480.93934 C830.789214,480.667893 830.414214,480.5 830,480.5 Z" id="矩形备份-19" stroke="#69CCCE" opacity="0.85"></path>
                    <path d="M1033,480.5 L859,480.5 C858.585786,480.5 858.210786,480.667893 857.93934,480.93934 C857.667893,481.210786 857.5,481.585786 857.5,482 L857.5,510 C857.5,510.414214 857.667893,510.789214 857.93934,511.06066 C858.210786,511.332107 858.585786,511.5 859,511.5 L1033,511.5 C1033.41421,511.5 1033.78921,511.332107 1034.06066,511.06066 C1034.33211,510.789214 1034.5,510.414214 1034.5,510 L1034.5,482 C1034.5,481.585786 1034.33211,481.210786 1034.06066,480.93934 C1033.78921,480.667893 1033.41421,480.5 1033,480.5 Z" id="矩形备份-20" stroke="#69CCCE" opacity="0.85"></path>
                    <text id="展示和警告" font-family="PingFangSC-Regular, PingFang SC" font-size="14" font-weight="normal" fill="#28B8BB">
                        <tspan x="708" y="501">展示和警告</tspan>
                    </text>
                    <text id="归类查询" font-family="PingFangSC-Regular, PingFang SC" font-size="14" font-weight="normal" fill="#28B8BB">
                        <tspan x="918" y="501">归类查询</tspan>
                    </text>
                    <path d="M830,533.5 L656,533.5 C655.585786,533.5 655.210786,533.667893 654.93934,533.93934 C654.667893,534.210786 654.5,534.585786 654.5,535 L654.5,563 C654.5,563.414214 654.667893,563.789214 654.93934,564.06066 C655.210786,564.332107 655.585786,564.5 656,564.5 L830,564.5 C830.414214,564.5 830.789214,564.332107 831.06066,564.06066 C831.332107,563.789214 831.5,563.414214 831.5,563 L831.5,535 C831.5,534.585786 831.332107,534.210786 831.06066,533.93934 C830.789214,533.667893 830.414214,533.5 830,533.5 Z" id="矩形备份-19" stroke="#69CCCE" opacity="0.85"></path>
                    <path d="M1033,533.5 L859,533.5 C858.585786,533.5 858.210786,533.667893 857.93934,533.93934 C857.667893,534.210786 857.5,534.585786 857.5,535 L857.5,563 C857.5,563.414214 857.667893,563.789214 857.93934,564.06066 C858.210786,564.332107 858.585786,564.5 859,564.5 L1033,564.5 C1033.41421,564.5 1033.78921,564.332107 1034.06066,564.06066 C1034.33211,563.789214 1034.5,563.414214 1034.5,563 L1034.5,535 C1034.5,534.585786 1034.33211,534.210786 1034.06066,533.93934 C1033.78921,533.667893 1033.41421,533.5 1033,533.5 Z" id="矩形备份-20" stroke="#69CCCE" opacity="0.85"></path>
                    <text id="监控数据存储" font-family="PingFangSC-Regular, PingFang SC" font-size="14" font-weight="normal" fill="#28B8BB">
                        <tspan x="705" y="554">监控数据存储</tspan>
                    </text>
                    <text id="基础数据存储" font-family="PingFangSC-Regular, PingFang SC" font-size="14" font-weight="normal" fill="#28B8BB">
                        <tspan x="908" y="554">基础数据存储</tspan>
                    </text>
                    <path d="M296,577.5 L48,577.5 C47.5857864,577.5 47.2107864,577.667893 46.9393398,577.93934 C46.6678932,578.210786 46.5,578.585786 46.5,579 L46.5,607 C46.5,607.414214 46.6678932,607.789214 46.9393398,608.06066 C47.2107864,608.332107 47.5857864,608.5 48,608.5 L296,608.5 C296.414214,608.5 296.789214,608.332107 297.06066,608.06066 C297.332107,607.789214 297.5,607.414214 297.5,607 L297.5,579 C297.5,578.585786 297.332107,578.210786 297.06066,577.93934 C296.789214,577.667893 296.414214,577.5 296,577.5 Z" id="矩形备份-19" stroke="#69CCCE" opacity="0.85"></path>
                    <path d="M580,577.5 L332,577.5 C331.585786,577.5 331.210786,577.667893 330.93934,577.93934 C330.667893,578.210786 330.5,578.585786 330.5,579 L330.5,607 C330.5,607.414214 330.667893,607.789214 330.93934,608.06066 C331.210786,608.332107 331.585786,608.5 332,608.5 L580,608.5 C580.414214,608.5 580.789214,608.332107 581.06066,608.06066 C581.332107,607.789214 581.5,607.414214 581.5,607 L581.5,579 C581.5,578.585786 581.332107,578.210786 581.06066,577.93934 C580.789214,577.667893 580.414214,577.5 580,577.5 Z" id="矩形备份-20" stroke="#69CCCE" opacity="0.85"></path>
                    <rect id="矩形" fill-opacity="0.64682583" fill="#B6EBEC" opacity="0.651692708" x="631" y="407" width="427" height="43"></rect>
                    <line x1="631.5" y1="449.5" x2="1059.5" y2="449.5" id="直线-2" stroke="#28B8BB" stroke-linecap="square" stroke-dasharray="5"></line>
                    <text id="日志分析" font-family="PingFangSC-Regular, PingFang SC" font-size="14" font-weight="normal" fill="#28B8BB">
                        <tspan x="144" y="598">日志分析</tspan>
                    </text>
                    <text id="业务数据收集" font-family="PingFangSC-Regular, PingFang SC" font-size="14" font-weight="normal" fill="#28B8BB">
                        <tspan x="414" y="598">业务数据收集</tspan>
                    </text>
                    <text id="监控平台" font-family="PingFangSC-Medium, PingFang SC" font-size="18" font-weight="400" line-spacing="36" fill="#28B8BB">
                        <tspan x="808" y="430">监控平台</tspan>
                    </text>
                    <rect id="矩形" fill-opacity="0.64682583" fill="#B6EBEC" opacity="0.651692708" x="631" y="263" width="427" height="43"></rect>
                    <line x1="631.5" y1="305.5" x2="1059.5" y2="305.5" id="直线-2" stroke="#28B8BB" stroke-linecap="square" stroke-dasharray="5"></line>
                    <path d="M830,326.5 L656,326.5 C655.585786,326.5 655.210786,326.667893 654.93934,326.93934 C654.667893,327.210786 654.5,327.585786 654.5,328 L654.5,356 C654.5,356.414214 654.667893,356.789214 654.93934,357.06066 C655.210786,357.332107 655.585786,357.5 656,357.5 L830,357.5 C830.414214,357.5 830.789214,357.332107 831.06066,357.06066 C831.332107,356.789214 831.5,356.414214 831.5,356 L831.5,328 C831.5,327.585786 831.332107,327.210786 831.06066,326.93934 C830.789214,326.667893 830.414214,326.5 830,326.5 Z" id="矩形备份-19" stroke="#69CCCE" opacity="0.85"></path>
                    <path d="M1033,326.5 L859,326.5 C858.585786,326.5 858.210786,326.667893 857.93934,326.93934 C857.667893,327.210786 857.5,327.585786 857.5,328 L857.5,356 C857.5,356.414214 857.667893,356.789214 857.93934,357.06066 C858.210786,357.332107 858.585786,357.5 859,357.5 L1033,357.5 C1033.41421,357.5 1033.78921,357.332107 1034.06066,357.06066 C1034.33211,356.789214 1034.5,356.414214 1034.5,356 L1034.5,328 C1034.5,327.585786 1034.33211,327.210786 1034.06066,326.93934 C1033.78921,326.667893 1033.41421,326.5 1033,326.5 Z" id="矩形备份-20" stroke="#69CCCE" opacity="0.85"></path>
                    <text id="内存缓存" font-family="PingFangSC-Regular, PingFang SC" font-size="14" font-weight="normal" fill="#28B8BB">
                        <tspan x="715" y="347">内存缓存</tspan>
                    </text>
                    <text id="磁盘缓存" font-family="PingFangSC-Regular, PingFang SC" font-size="14" font-weight="normal" fill="#28B8BB">
                        <tspan x="918" y="347">磁盘缓存</tspan>
                    </text>
                    <text id="缓存系统" font-family="PingFangSC-Medium, PingFang SC" font-size="18" font-weight="400" line-spacing="36" fill="#28B8BB">
                        <tspan x="808" y="286">缓存系统</tspan>
                    </text>
                    <rect id="矩形" stroke="#20B4E9" fill="#FFFFFF" x="22.5" y="262.5" width="583" height="119"></rect>
                    <rect id="矩形" stroke="#20B4E9" fill="#FFFFFF" x="22.5" y="72.5" width="583" height="165"></rect>
                    <g id="nav" transform="translate(491.000000, 468.000000)" fill-rule="nonzero">
                        <path d="M14.6378896,10.9726932 C14.6364738,10.9180798 14.6336422,10.8651047 14.6336422,10.8110374 L14.6336422,1 L25,1 C25,1.04969825 24.996602,1.09966958 24.996602,1.14936786 C24.996602,4.38048297 24.9975459,7.61178012 24.9994337,10.8432593 C24.9994337,10.967505 24.9711173,11 24.8388796,11 C21.4884809,10.995995 18.1377046,10.9949027 14.7865508,10.9967232 C14.7435099,10.9967232 14.7016016,10.9945387 14.657428,10.9931733 L14.6378896,10.9726932 Z M16.0401187,5.98648316 L16.0435167,5.98648316 C16.0435167,7.15830625 16.0427616,8.33012933 16.0412514,9.50195242 C16.0412514,9.60216814 16.0624887,9.63575544 16.1740554,9.63575544 C18.6000174,9.63247863 21.0257906,9.63247863 23.451375,9.63575544 C23.5598269,9.63575544 23.585878,9.60844871 23.5855971,9.50495617 C23.5825744,7.16549703 23.5825744,4.82621993 23.5855971,2.48712486 C23.5855971,2.37926326 23.5510488,2.35905628 23.4471276,2.35932933 C21.632989,2.36224204 19.8188504,2.36297023 18.0047118,2.36151389 C17.392794,2.36151389 16.7808762,2.36424456 16.1692416,2.3571448 C16.0582412,2.3571448 16.0361544,2.38226699 16.0364349,2.48466727 C16.0415345,3.65011879 16.0401187,4.81857403 16.0401187,5.98648316 L16.0401187,5.98648316 Z M0.00424746156,10.9726932 C0.00283164104,10.9180798 0,10.8651047 0,10.8110374 L0,1 L10.3417225,1 L10.3609777,1.02539528 C10.3609777,1.07099752 10.3643757,1.11659978 10.3643757,1.16192894 C10.3643757,4.38885702 10.3655083,7.6157851 10.3677737,10.8427132 C10.3677737,10.967778 10.3380414,10.9989077 10.2066532,10.9986364 C6.8604076,10.9948117 3.51416198,10.9938105 0.167916358,10.9956309 C0.120627948,10.9956309 0.0733395128,10.9934464 0.0263342567,10.992081 L0.00424746156,10.9726932 Z M1.40534386,5.98593703 L1.41242297,5.98593703 C1.41242297,7.15302693 1.41468827,8.32038993 1.40930817,9.48747986 C1.40930817,9.61363697 1.45065014,9.63466316 1.56957909,9.63466316 C3.97760737,9.63138635 6.38563564,9.63138635 8.79366392,9.63466316 C8.92845007,9.63466316 8.95393484,9.59779907 8.95393484,9.47573795 C8.95015932,7.15776011 8.94921544,4.83978227 8.9511032,2.52180444 C8.9511032,2.36124083 8.9511032,2.36124083 8.785169,2.36124081 C6.36883458,2.36124081 3.95250016,2.36033059 1.53616573,2.35851014 C1.42969599,2.35851014 1.40336173,2.37844404 1.40391916,2.48330194 C1.40704284,3.65011879 1.40534386,4.81857403 1.40534386,5.98593703 Z" id="形状" fill="#20B4E9"></path>
                        <polygon id="路径" fill="#4784FD" points="10.0247253 1.05 9.95 0.95 10.05 0.95"></polygon>
                        <path d="M5.17083461,25.6952223 C3.49431628,25.6952223 1.81779796,25.6961838 0.14127964,25.6981084 C0.0282559429,25.6981084 0,25.6707042 0,25.5538823 C0.00339070688,22.1309544 0.00339070688,18.7073534 0,15.2830794 C0,15.1561619 0.0395582854,15.1359705 0.151169212,15.1359705 C3.50062677,15.1386627 6.85008432,15.1386627 10.1995419,15.1359705 C10.3165214,15.1359705 10.3484506,15.1648154 10.3484506,15.2868293 C10.3450599,18.7061035 10.3450599,22.1253777 10.3484506,25.5446519 C10.3484506,25.6600315 10.3247156,25.6983953 10.2029326,25.6981084 C8.52584915,25.6938762 6.84848316,25.6929147 5.17083461,25.6952223 L5.17083461,25.6952223 Z M1.40742772,20.4223749 C1.40742772,21.651456 1.40940564,22.8805371 1.40431955,24.1093298 C1.40431955,24.2359589 1.43257547,24.2679768 1.55887948,24.2676902 C3.96666118,24.2634577 6.37444288,24.2634577 8.78222459,24.2676902 C8.90485531,24.2676902 8.93847986,24.2405741 8.93847986,24.111349 C8.93433565,21.6489562 8.93433565,19.1865634 8.93847986,16.7241706 C8.93847986,16.6044642 8.91022394,16.5736002 8.79154906,16.5738866 C6.37943479,16.5775423 3.9673205,16.5775423 1.55520622,16.5738866 C1.44218252,16.5738866 1.404037,16.5963876 1.40460213,16.721863 C1.40940564,17.9555593 1.40742772,19.1889671 1.40742772,20.4223749 Z M14.7156867,20.6245777 C14.7156867,18.8865764 14.7146506,17.1486713 14.7125785,15.4108623 C14.7125785,15.2804834 14.7478984,15.254523 14.8693989,15.2548115 C16.7224226,15.259042 18.5753521,15.259042 20.4281874,15.2548115 C20.5460146,15.2548115 20.576531,15.2836563 20.5759659,15.4053818 C20.5717275,16.8098399 20.5759659,18.214298 20.5705972,19.6184676 C20.5705972,19.738174 20.5988531,19.7713456 20.7183757,19.7707687 C21.625391,19.7653843 22.5325004,19.7653843 23.439704,19.7707687 C23.5699639,19.7707687 23.5905907,19.7309627 23.5903081,19.6098142 C23.5860697,18.1219943 23.5903081,16.6341745 23.5849395,15.1463546 C23.5849395,15.030975 23.6100873,14.9978034 23.7262191,15.000111 C24.1088044,15.0081876 24.4913896,15.00588 24.8739749,15.000111 C24.9683497,15.000111 25.0002789,15.0266483 24.9999982,15.1264516 C24.9975475,17.1102114 24.9975475,19.0939712 24.9999982,21.077731 C24.9999982,21.1732077 24.9756962,21.2078215 24.877083,21.2075331 C23.0121919,21.2050332 21.1463589,21.2050332 19.2795839,21.2075331 C19.1665603,21.2075331 19.1707986,21.151574 19.1707986,21.0716736 C19.1707986,19.6628888 19.1707986,18.2541039 19.175037,16.8453191 C19.175037,16.7094597 19.1399997,16.6811917 19.0122829,16.682057 C18.0966025,16.6880183 17.1809221,16.6880183 16.2652417,16.682057 C16.152218,16.682057 16.123962,16.7109019 16.123962,16.8262815 C16.1273528,19.8238433 16.1282946,22.8214051 16.1267876,25.8189669 C16.1267876,25.9972284 16.1267876,25.9972284 15.9462323,25.9972284 C15.5808831,25.9972284 15.2152514,25.9929017 14.8499023,25.9999162 C14.7422472,26.0018436 14.7142739,25.9709796 14.7145564,25.8616574 C14.7170053,24.1171179 14.717382,22.3714247 14.7156867,20.6245777 L14.7156867,20.6245777 Z" id="形状" fill="#20B4E9"></path>
                        <path d="M25,25.0268741 L25,25.9785487 L24.979787,25.9947876 C24.9393609,25.9947876 24.8999988,25.9975943 24.8587748,25.9975942 C22.9532547,25.9975942 21.0478233,25.9983962 19.1424804,26 C19.0214683,26 18.9975318,25.9745392 19.0001914,25.889135 C19.007993,25.6301159 19.007993,25.3709632 19.0001914,25.1116768 C18.9975318,25.0260722 19.0220002,24.9994085 19.1432783,25 C20.1911637,25.0040195 21.2387831,25.0024157 22.2866684,25.0024157 L24.8353703,25.0024157 C24.8837751,25.0024157 24.93218,25.0050219 24.9805849,25.0064252 L25,25.0268741 Z" id="路径" fill="#20B4E9"></path>
                        <path d="M0.00539698891,11.005376 L0.0933802889,11.0876461 C0.0236791889,11.1013578 -0.00260151109,11.0727918 0.00539698891,11.005376 Z M14.4929177,11.005376 L14.580901,11.0876461 C14.5100573,11.1013578 14.4860619,11.0727918 14.4929177,11.005376 Z M25.0666107,24.6792509 L24.9831979,24.5793984 C25.0666106,24.5764029 25.0791797,24.6193394 25.0666107,24.6792509 Z M24.9818317,26.0710065 L25.0686724,25.9784526 C25.0812414,26.0492963 25.0526754,26.0801476 24.9818317,26.0710065 Z" id="形状" fill="#397CFD"></path>
                        <path d="M2.00262536,6.48896574 C2.00262536,5.3659081 2.00420057,4.24285046 2,3.12005553 C2,3.01917737 2.02389079,3 2.12260437,3 C4.36291241,3.00350271 6.60322045,3.0043784 8.8435285,3.00262706 C8.99737464,3.00262706 8.99737464,3.00262706 8.99737464,3.15709673 C8.99737464,5.38709952 8.99824976,7.61710232 9,9.84710512 C9,9.9645336 8.97663429,10.0002613 8.85140458,10 C6.61879759,9.99562017 4.3861906,9.99562017 2.15358362,10 C2.04305592,10 2.00446312,9.97977039 2.00498819,9.85840137 C2.00997639,8.73560644 2.00787608,7.6125488 2.00787608,6.48975385 L2.00262536,6.48896574 Z" id="路径" fill="#20B4E9"></path>
                        <path d="M16.0026254,6.48896574 C16.0026254,5.3659081 16.0042006,4.24285046 16,3.12005553 C16,3.01917737 16.0238908,3 16.1226044,3 C18.3629124,3.00350271 20.6032204,3.0043784 22.8435285,3.00262706 C22.9973746,3.00262706 22.9973746,3.00262706 22.9973746,3.15709673 C22.9973746,5.38709952 22.9982498,7.61710232 23,9.84710512 C23,9.9645336 22.9766343,10.0002613 22.8514046,10 C20.6187976,9.99562017 18.3861906,9.99562017 16.1535836,10 C16.0430559,10 16.0044631,9.97977039 16.0049882,9.85840137 C16.0099764,8.73560644 16.0078761,7.6125488 16.0078761,6.48975385 L16.0026254,6.48896574 Z" id="路径备份" fill="#20B4E9"></path>
                        <path d="M2.00262536,20.4889657 C2.00262536,19.3659081 2.00420057,18.2428505 2,17.1200555 C2,17.0191774 2.02389079,17 2.12260437,17 C4.36291241,17.0035027 6.60322045,17.0043784 8.8435285,17.0026271 C8.99737464,17.0026271 8.99737464,17.0026271 8.99737464,17.1570967 C8.99737464,19.3870995 8.99824976,21.6171023 9,23.8471051 C9,23.9645336 8.97663429,24.0002613 8.85140458,24 C6.61879759,23.9956202 4.3861906,23.9956202 2.15358362,24 C2.04305592,24 2.00446312,23.9797704 2.00498819,23.8584014 C2.00997639,22.7356064 2.00787608,21.6125488 2.00787608,20.4897538 L2.00262536,20.4889657 Z" id="路径备份-2" fill="#20B4E9"></path>
                    </g>
                    <g id="wode-fuben" transform="translate(88.000000, 466.000000)" fill-rule="nonzero">
                        <path d="M16.7580697,28 L3.24193034,28 C1.45433628,28 0,26.5144441 0,24.6884064 L0,2.94517042 C0,2.4231843 0.414282123,2 0.925287649,2 C1.43629317,2 1.8505753,2.4231843 1.8505753,2.94517042 L1.8505753,24.6884064 C1.8505753,25.4720787 2.4747435,26.1096592 3.24193034,26.1096592 L16.7580697,26.1096592 C17.5252873,26.1096592 18.1494247,25.4720787 18.1494247,24.6884064 C18.1494247,24.1664203 18.5637068,23.743236 19.0747124,23.743236 C19.5857179,23.743236 20,24.1664203 20,24.6884064 C20,26.5144441 18.5456946,28 16.7580697,28 Z" id="路径" fill="#20B4E9"></path>
                        <path d="M18.3990882,22 L0,22 L0,3.16249016 C0,1.41587996 1.43350718,0 3.20179224,0 L18.3990882,0 C19.2832308,0 20,0.70793998 20,1.58126052 L20,20.4188012 C20,21.29206 19.283262,22 18.3990882,22 Z" id="路径" fill="#20B4E9"></path>
                        <path d="M9.74360448,9.03584366 L3.89745158,9.03584366 C3.40179882,9.03584366 3,9.47553073 3,10.0179218 C3,10.5603129 3.40179882,11 3.89745158,11 L9.74360448,11 C10.2392572,11 10.6409643,10.5603129 10.6409643,10.0179218 C10.6409643,9.47553073 10.2392267,9.03584366 9.74360448,9.03584366 Z M12.1025484,4 L3.89745158,4 C3.40179882,4 3,4.43968706 3,4.98207817 C3,5.52446927 3.40179882,5.96415634 3.89745158,5.96415634 L12.1025484,5.96415634 C12.5982012,5.96415634 13,5.52446927 13,4.98207817 C13,4.43968706 12.5981706,4 12.1025484,4 Z" id="形状" fill="#FFFFFF"></path>
                    </g>
                    <g id="wode-fuben备份" transform="translate(113.000000, 466.000000)" fill-rule="nonzero">
                        <path d="M16.7580697,28 L3.24193034,28 C1.45433628,28 0,26.5144441 0,24.6884064 L0,2.94517042 C0,2.4231843 0.414282123,2 0.925287649,2 C1.43629317,2 1.8505753,2.4231843 1.8505753,2.94517042 L1.8505753,24.6884064 C1.8505753,25.4720787 2.4747435,26.1096592 3.24193034,26.1096592 L16.7580697,26.1096592 C17.5252873,26.1096592 18.1494247,25.4720787 18.1494247,24.6884064 C18.1494247,24.1664203 18.5637068,23.743236 19.0747124,23.743236 C19.5857179,23.743236 20,24.1664203 20,24.6884064 C20,26.5144441 18.5456946,28 16.7580697,28 Z" id="路径" fill="#20B4E9"></path>
                        <path d="M18.3990882,22 L0,22 L0,3.16249016 C0,1.41587996 1.43350718,0 3.20179224,0 L18.3990882,0 C19.2832308,0 20,0.70793998 20,1.58126052 L20,20.4188012 C20,21.29206 19.283262,22 18.3990882,22 Z" id="路径" fill="#20B4E9"></path>
                        <path d="M9.74360448,9.03584366 L3.89745158,9.03584366 C3.40179882,9.03584366 3,9.47553073 3,10.0179218 C3,10.5603129 3.40179882,11 3.89745158,11 L9.74360448,11 C10.2392572,11 10.6409643,10.5603129 10.6409643,10.0179218 C10.6409643,9.47553073 10.2392267,9.03584366 9.74360448,9.03584366 Z M12.1025484,4 L3.89745158,4 C3.40179882,4 3,4.43968706 3,4.98207817 C3,5.52446927 3.40179882,5.96415634 3.89745158,5.96415634 L12.1025484,5.96415634 C12.5982012,5.96415634 13,5.52446927 13,4.98207817 C13,4.43968706 12.5981706,4 12.1025484,4 Z" id="形状" fill="#FFFFFF"></path>
                    </g>
                    <g id="wode-fuben备份-2" transform="translate(138.000000, 466.000000)" fill-rule="nonzero">
                        <path d="M16.7580697,28 L3.24193034,28 C1.45433628,28 0,26.5144441 0,24.6884064 L0,2.94517042 C0,2.4231843 0.414282123,2 0.925287649,2 C1.43629317,2 1.8505753,2.4231843 1.8505753,2.94517042 L1.8505753,24.6884064 C1.8505753,25.4720787 2.4747435,26.1096592 3.24193034,26.1096592 L16.7580697,26.1096592 C17.5252873,26.1096592 18.1494247,25.4720787 18.1494247,24.6884064 C18.1494247,24.1664203 18.5637068,23.743236 19.0747124,23.743236 C19.5857179,23.743236 20,24.1664203 20,24.6884064 C20,26.5144441 18.5456946,28 16.7580697,28 Z" id="路径" fill="#20B4E9"></path>
                        <path d="M18.3990882,22 L0,22 L0,3.16249016 C0,1.41587996 1.43350718,0 3.20179224,0 L18.3990882,0 C19.2832308,0 20,0.70793998 20,1.58126052 L20,20.4188012 C20,21.29206 19.283262,22 18.3990882,22 Z" id="路径" fill="#20B4E9"></path>
                        <path d="M9.74360448,9.03584366 L3.89745158,9.03584366 C3.40179882,9.03584366 3,9.47553073 3,10.0179218 C3,10.5603129 3.40179882,11 3.89745158,11 L9.74360448,11 C10.2392572,11 10.6409643,10.5603129 10.6409643,10.0179218 C10.6409643,9.47553073 10.2392267,9.03584366 9.74360448,9.03584366 Z M12.1025484,4 L3.89745158,4 C3.40179882,4 3,4.43968706 3,4.98207817 C3,5.52446927 3.40179882,5.96415634 3.89745158,5.96415634 L12.1025484,5.96415634 C12.5982012,5.96415634 13,5.52446927 13,4.98207817 C13,4.43968706 12.5981706,4 12.1025484,4 Z" id="形状" fill="#FFFFFF"></path>
                    </g>
                    <rect id="矩形" fill-opacity="0.64682583" fill="#B6EBEC" opacity="0.651692708" x="631" y="73" width="427" height="43"></rect>
                    <line x1="631.5" y1="116.5" x2="1059.5" y2="116.5" id="直线-2" stroke="#28B8BB" stroke-linecap="square" stroke-dasharray="5"></line>
                    <path d="M296,136.5 L48,136.5 C47.5857864,136.5 47.2107864,136.667893 46.9393398,136.93934 C46.6678932,137.210786 46.5,137.585786 46.5,138 L46.5,166 C46.5,166.414214 46.6678932,166.789214 46.9393398,167.06066 C47.2107864,167.332107 47.5857864,167.5 48,167.5 L296,167.5 C296.414214,167.5 296.789214,167.332107 297.06066,167.06066 C297.332107,166.789214 297.5,166.414214 297.5,166 L297.5,138 C297.5,137.585786 297.332107,137.210786 297.06066,136.93934 C296.789214,136.667893 296.414214,136.5 296,136.5 Z" id="矩形备份-17" stroke="#1AB9EB" opacity="0.85"></path>
                    <path d="M296,326.5 L48,326.5 C47.5857864,326.5 47.2107864,326.667893 46.9393398,326.93934 C46.6678932,327.210786 46.5,327.585786 46.5,328 L46.5,356 C46.5,356.414214 46.6678932,356.789214 46.9393398,357.06066 C47.2107864,357.332107 47.5857864,357.5 48,357.5 L296,357.5 C296.414214,357.5 296.789214,357.332107 297.06066,357.06066 C297.332107,356.789214 297.5,356.414214 297.5,356 L297.5,328 C297.5,327.585786 297.332107,327.210786 297.06066,326.93934 C296.789214,326.667893 296.414214,326.5 296,326.5 Z" id="矩形备份-23" stroke="#00AAE7" opacity="0.85"></path>
                    <path d="M580,182.5 L48,182.5 C47.5857864,182.5 47.2107864,182.667893 46.9393398,182.93934 C46.6678932,183.210786 46.5,183.585786 46.5,184 L46.5,212 C46.5,212.414214 46.6678932,212.789214 46.9393398,213.06066 C47.2107864,213.332107 47.5857864,213.5 48,213.5 L580,213.5 C580.414214,213.5 580.789214,213.332107 581.06066,213.06066 C581.332107,212.789214 581.5,212.414214 581.5,212 L581.5,184 C581.5,183.585786 581.332107,183.210786 581.06066,182.93934 C580.789214,182.667893 580.414214,182.5 580,182.5 Z" id="矩形备份-22" stroke="#00AAE7" opacity="0.85"></path>
                    <path d="M580,136.5 L332,136.5 C331.585786,136.5 331.210786,136.667893 330.93934,136.93934 C330.667893,137.210786 330.5,137.585786 330.5,138 L330.5,166 C330.5,166.414214 330.667893,166.789214 330.93934,167.06066 C331.210786,167.332107 331.585786,167.5 332,167.5 L580,167.5 C580.414214,167.5 580.789214,167.332107 581.06066,167.06066 C581.332107,166.789214 581.5,166.414214 581.5,166 L581.5,138 C581.5,137.585786 581.332107,137.210786 581.06066,136.93934 C580.789214,136.667893 580.414214,136.5 580,136.5 Z" id="矩形备份-21" stroke="#1AB9EB" opacity="0.85"></path>
                    <path d="M580,326.5 L332,326.5 C331.585786,326.5 331.210786,326.667893 330.93934,326.93934 C330.667893,327.210786 330.5,327.585786 330.5,328 L330.5,356 C330.5,356.414214 330.667893,356.789214 330.93934,357.06066 C331.210786,357.332107 331.585786,357.5 332,357.5 L580,357.5 C580.414214,357.5 580.789214,357.332107 581.06066,357.06066 C581.332107,356.789214 581.5,356.414214 581.5,356 L581.5,328 C581.5,327.585786 581.332107,327.210786 581.06066,326.93934 C580.789214,326.667893 580.414214,326.5 580,326.5 Z" id="矩形备份-24" stroke="#00AAE7" opacity="0.85"></path>
                    <path d="M99,136.5 L48,136.5 C47.5857864,136.5 47.2107864,136.667893 46.9393398,136.93934 C46.6678932,137.210786 46.5,137.585786 46.5,138 L46.5,166 C46.5,166.414214 46.6678932,166.789214 46.9393398,167.06066 C47.2107864,167.332107 47.5857864,167.5 48,167.5 L99,167.5 C99.4142136,167.5 99.7892136,167.332107 100.06066,167.06066 C100.332107,166.789214 100.5,166.414214 100.5,166 L100.5,138 C100.5,137.585786 100.332107,137.210786 100.06066,136.93934 C99.7892136,136.667893 99.4142136,136.5 99,136.5 Z" id="矩形备份-3" stroke="#1AB9EB" fill-opacity="0.0717875874" fill="#24B5E9"></path>
                    <path d="M383,136.5 L332,136.5 C331.585786,136.5 331.210786,136.667893 330.93934,136.93934 C330.667893,137.210786 330.5,137.585786 330.5,138 L330.5,166 C330.5,166.414214 330.667893,166.789214 330.93934,167.06066 C331.210786,167.332107 331.585786,167.5 332,167.5 L383,167.5 C383.414214,167.5 383.789214,167.332107 384.06066,167.06066 C384.332107,166.789214 384.5,166.414214 384.5,166 L384.5,138 C384.5,137.585786 384.332107,137.210786 384.06066,136.93934 C383.789214,136.667893 383.414214,136.5 383,136.5 Z" id="矩形备份-4" stroke="#1AB9EB" fill-opacity="0.0717875874" fill="#24B5E9"></path>
                    <text id="对象" font-family="PingFangSC-Regular, PingFang SC" font-size="14" font-weight="normal" fill="#24B5E9">
                        <tspan x="59" y="156">对象</tspan>
                    </text>
                    <text id="文件" font-family="PingFangSC-Regular, PingFang SC" font-size="14" font-weight="normal" fill="#24B5E9">
                        <tspan x="343" y="156">文件</tspan>
                    </text>
                    <text id="Qiniu-API" font-family="PingFangSC-Regular, PingFang SC" font-size="14" font-weight="normal" line-spacing="18" fill="#00AAE7">
                        <tspan x="128" y="158">Qiniu API</tspan>
                    </text>
                    <text id="负载均衡" font-family="PingFangSC-Regular, PingFang SC" font-size="14" font-weight="normal" line-spacing="18" fill="#00AAE7">
                        <tspan x="286" y="204">负载均衡</tspan>
                    </text>
                    <text id="分区扩展" font-family="PingFangSC-Regular, PingFang SC" font-size="14" font-weight="normal" line-spacing="18" fill="#00AAE7">
                        <tspan x="144" y="348">分区扩展</tspan>
                    </text>
                    <text id="三副本" font-family="PingFangSC-Regular, PingFang SC" font-size="14" font-weight="normal" line-spacing="18" fill="#00AAE7">
                        <tspan x="102" y="523">三副本</tspan>
                    </text>
                    <text id="智能迁移" font-family="PingFangSC-Regular, PingFang SC" font-size="14" font-weight="normal" line-spacing="18" fill="#00AAE7">
                        <tspan x="299" y="523">智能迁移</tspan>
                    </text>
                    <text id="纠删码" font-family="PingFangSC-Regular, PingFang SC" font-size="14" font-weight="normal" line-spacing="18" fill="#00AAE7">
                        <tspan x="484" y="523">纠删码</tspan>
                    </text>
                    <text id="复制集自愈" font-family="PingFangSC-Regular, PingFang SC" font-size="14" font-weight="normal" line-spacing="18" fill="#00AAE7">
                        <tspan x="421" y="348">复制集自愈</tspan>
                    </text>
                    <text id="NFS" font-family="PingFangSC-Regular, PingFang SC" font-size="14" font-weight="normal" line-spacing="18" fill="#00AAE7">
                        <tspan x="419" y="158">NFS</tspan>
                    </text>
                    <text id="S3-API" font-family="PingFangSC-Regular, PingFang SC" font-size="14" font-weight="normal" line-spacing="18" fill="#00AAE7">
                        <tspan x="226" y="158">S3 API</tspan>
                    </text>
                    <text id="SMB" font-family="PingFangSC-Regular, PingFang SC" font-size="14" font-weight="normal" line-spacing="18" fill="#00AAE7">
                        <tspan x="470" y="158">SMB</tspan>
                    </text>
                    <text id="FTP" font-family="PingFangSC-Regular, PingFang SC" font-size="14" font-weight="normal" line-spacing="18" fill="#00AAE7">
                        <tspan x="524" y="158">FTP</tspan>
                    </text>
                    <path d="M830,136.5 L656,136.5 C655.585786,136.5 655.210786,136.667893 654.93934,136.93934 C654.667893,137.210786 654.5,137.585786 654.5,138 L654.5,166 C654.5,166.414214 654.667893,166.789214 654.93934,167.06066 C655.210786,167.332107 655.585786,167.5 656,167.5 L830,167.5 C830.414214,167.5 830.789214,167.332107 831.06066,167.06066 C831.332107,166.789214 831.5,166.414214 831.5,166 L831.5,138 C831.5,137.585786 831.332107,137.210786 831.06066,136.93934 C830.789214,136.667893 830.414214,136.5 830,136.5 Z" id="矩形备份-19" stroke="#69CCCE" opacity="0.85"></path>
                    <path d="M1033,136.5 L859,136.5 C858.585786,136.5 858.210786,136.667893 857.93934,136.93934 C857.667893,137.210786 857.5,137.585786 857.5,138 L857.5,166 C857.5,166.414214 857.667893,166.789214 857.93934,167.06066 C858.210786,167.332107 858.585786,167.5 859,167.5 L1033,167.5 C1033.41421,167.5 1033.78921,167.332107 1034.06066,167.06066 C1034.33211,166.789214 1034.5,166.414214 1034.5,166 L1034.5,138 C1034.5,137.585786 1034.33211,137.210786 1034.06066,136.93934 C1033.78921,136.667893 1033.41421,136.5 1033,136.5 Z" id="矩形备份-20" stroke="#69CCCE" opacity="0.85"></path>
                    <text id="服务注册" font-family="PingFangSC-Regular, PingFang SC" font-size="14" font-weight="normal" fill="#28B8BB">
                        <tspan x="715" y="157">服务注册</tspan>
                    </text>
                    <text id="服务发现" font-family="PingFangSC-Regular, PingFang SC" font-size="14" font-weight="normal" fill="#28B8BB">
                        <tspan x="918" y="157">服务发现</tspan>
                    </text>
                    <path d="M830,182.5 L656,182.5 C655.585786,182.5 655.210786,182.667893 654.93934,182.93934 C654.667893,183.210786 654.5,183.585786 654.5,184 L654.5,212 C654.5,212.414214 654.667893,212.789214 654.93934,213.06066 C655.210786,213.332107 655.585786,213.5 656,213.5 L830,213.5 C830.414214,213.5 830.789214,213.332107 831.06066,213.06066 C831.332107,212.789214 831.5,212.414214 831.5,212 L831.5,184 C831.5,183.585786 831.332107,183.210786 831.06066,182.93934 C830.789214,182.667893 830.414214,182.5 830,182.5 Z" id="矩形备份-19" stroke="#69CCCE" opacity="0.85"></path>
                    <path d="M1033,182.5 L859,182.5 C858.585786,182.5 858.210786,182.667893 857.93934,182.93934 C857.667893,183.210786 857.5,183.585786 857.5,184 L857.5,212 C857.5,212.414214 857.667893,212.789214 857.93934,213.06066 C858.210786,213.332107 858.585786,213.5 859,213.5 L1033,213.5 C1033.41421,213.5 1033.78921,213.332107 1034.06066,213.06066 C1034.33211,212.789214 1034.5,212.414214 1034.5,212 L1034.5,184 C1034.5,183.585786 1034.33211,183.210786 1034.06066,182.93934 C1033.78921,182.667893 1033.41421,182.5 1033,182.5 Z" id="矩形备份-20" stroke="#69CCCE" opacity="0.85"></path>
                    <text id="配置上报" font-family="PingFangSC-Regular, PingFang SC" font-size="14" font-weight="normal" fill="#28B8BB">
                        <tspan x="715" y="203">配置上报</tspan>
                    </text>
                    <text id="配置分发" font-family="PingFangSC-Regular, PingFang SC" font-size="14" font-weight="normal" fill="#28B8BB">
                        <tspan x="918" y="203">配置分发</tspan>
                    </text>
                    <rect id="矩形" fill="#00AAE7" opacity="0.854399182" x="0" y="0" width="1081" height="50"></rect>
                    <text id="私有云存储架构图" font-family="PingFangSC-Medium, PingFang SC" font-size="18" font-weight="400" line-spacing="36" fill="#FFFFFF">
                        <tspan x="468" y="26">私有云存储架构图</tspan>
                    </text>
                    <polygon id="矩形" fill="#BCECFF" opacity="0.651692708" points="23 407 605 407 605 451 23 451"></polygon>
                    <line x1="22.4991453" y1="451.5" x2="605.500855" y2="451.5" id="直线" stroke="#20B4E9" stroke-linecap="square"></line>
                    <polygon id="矩形" fill="#BCECFF" opacity="0.651692708" points="23 263 605 263 605 307 23 307"></polygon>
                    <line x1="22.4991453" y1="306.5" x2="605.500855" y2="306.5" id="直线" stroke="#20B4E9" stroke-linecap="square"></line>
                    <polygon id="矩形" fill="#BCECFF" opacity="0.651692708" points="23 73 605 73 605 117 23 117"></polygon>
                    <line x1="22.4991453" y1="116.5" x2="605.500855" y2="116.5" id="直线" stroke="#20B4E9" stroke-linecap="square"></line>
                    <text id="元数据" font-family="PingFangSC-Medium, PingFang SC" font-size="18" font-weight="400" line-spacing="36" fill="#20B4E9">
                        <tspan x="287" y="286">元数据</tspan>
                    </text>
                    <text id="存储引擎" font-family="PingFangSC-Medium, PingFang SC" font-size="18" font-weight="400" line-spacing="36" fill="#20B4E9">
                        <tspan x="278" y="430">存储引擎</tspan>
                    </text>
                    <text id="访问调度" font-family="PingFangSC-Medium, PingFang SC" font-size="18" font-weight="400" line-spacing="36" fill="#20B4E9">
                        <tspan x="278" y="96">访问调度</tspan>
                    </text>
                    <text id="配置和服务发现" font-family="PingFangSC-Medium, PingFang SC" font-size="18" font-weight="400" line-spacing="36" fill="#28B8BB">
                        <tspan x="781" y="96">配置和服务发现</tspan>
                    </text>
                    <g id="yunqianyi" transform="translate(310.000000, 468.000000)" fill-rule="nonzero">
                        <path d="M9.50020576,25 C14.7465942,25 19,20.7465021 19,15.5 C19,10.8061728 15.5922549,6.91687243 11.1178662,6.14773663 C10.8602586,6.10329218 10.5997704,6.06790123 10.3359901,6.04238683 C10.0598644,6.018107 9.78209266,6 9.49979424,6 C4.25340582,6 0,10.2530864 0,15.5 C0.000411513721,20.7465021 4.25381733,25 9.50020576,25 L9.50020576,25 Z" id="路径" fill="#20B4E9"></path>
                        <path d="M22.0248289,0 C17.8257379,0 14.1370895,2.25958415 12,5.67413905 C16.4336923,6.61955815 19.7795816,10.7220598 19.7795816,15.625 C19.7795816,19.8436485 17.3016782,23.467755 13.7861602,25 L22.0248289,25 C28.638407,25 34,19.4034276 34,12.5 C34,5.59657245 28.638407,0 22.0248289,0 Z" id="路径" fill="#20B4E9"></path>
                        <path d="M12.1673772,17 L4.83261982,17 C4.37260169,17 4,16.6682161 4,16.258592 C4,15.848968 4.37216894,15.5171841 4.83261982,15.5171841 L10.1576649,15.5171841 L8.75207806,14.2651911 C8.42707937,13.9757954 8.42707937,13.5060572 8.75207806,13.2170468 C9.07707675,12.9276511 9.60417183,12.9276511 9.92917052,13.2170468 L12.7559235,15.7345199 C12.9939385,15.9464608 13.0657757,16.2655283 12.9363821,16.5425929 C12.8075013,16.8195006 12.5040006,17 12.1673772,17 L12.1673772,17 Z" id="路径" fill="#FFFFFF"></path>
                    </g>
                </g>
            </g>
        </g>
    </g>
</svg>