<?xml version="1.0" encoding="UTF-8"?>
<svg width="191px" height="180px" viewBox="0 0 191 180" version="1.1" xmlns="http://www.w3.org/2000/svg" xmlns:xlink="http://www.w3.org/1999/xlink">
    <title>编组 5</title>
    <defs>
        <linearGradient x1="73.1837385%" y1="2.8877444%" x2="13.7259239%" y2="82.9544669%" id="linearGradient-1">
            <stop stop-color="#E5F6FC" offset="0%"></stop>
            <stop stop-color="#C7D1F8" stop-opacity="0" offset="100%"></stop>
        </linearGradient>
        <linearGradient x1="50%" y1="0%" x2="50%" y2="100%" id="linearGradient-2">
            <stop stop-color="#77DCFD" stop-opacity="0.244208916" offset="0%"></stop>
            <stop stop-color="#427AF9" stop-opacity="0.295399913" offset="100%"></stop>
        </linearGradient>
        <linearGradient x1="50%" y1="0.422475726%" x2="50%" y2="98.8993046%" id="linearGradient-3">
            <stop stop-color="#72D0FF" offset="0%"></stop>
            <stop stop-color="#388AFF" offset="99.9472128%"></stop>
        </linearGradient>
        <linearGradient x1="50%" y1="0%" x2="50%" y2="98.8202069%" id="linearGradient-4">
            <stop stop-color="#72D0FF" offset="0%"></stop>
            <stop stop-color="#38B0FF" offset="100%"></stop>
        </linearGradient>
    </defs>
    <g id="产品" stroke="none" stroke-width="1" fill="none" fill-rule="evenodd">
        <g id="存储与数据湖-对象存储02✅" transform="translate(-413.000000, -252.000000)">
            <g id="编组-17">
                <g id="编组-5" transform="translate(413.000000, 252.000000)">
                    <circle id="椭圆形" fill="url(#linearGradient-1)" cx="101" cy="90" r="90"></circle>
                    <rect id="矩形" fill="url(#linearGradient-2)" x="68" y="100" width="87" height="62" rx="6"></rect>
                    <rect id="矩形" fill="url(#linearGradient-3)" x="89" y="71" width="82" height="105" rx="6"></rect>
                    <line x1="140.5" y1="141.5" x2="140.5" y2="165.5" id="直线备份" stroke-opacity="0.655321241" stroke="#FFFFFF" stroke-width="3" stroke-linecap="square"></line>
                    <line x1="128.5" y1="141.5" x2="128.5" y2="165.5" id="直线备份-3" stroke-opacity="0.655321241" stroke="#FFFFFF" stroke-width="3" stroke-linecap="square"></line>
                    <line x1="152.5" y1="141.5" x2="152.5" y2="165.5" id="直线备份-2" stroke-opacity="0.655321241" stroke="#FFFFFF" stroke-width="3" stroke-linecap="square"></line>
                    <circle id="椭圆形" fill="#FFFFFF" cx="128" cy="149" r="4"></circle>
                    <circle id="椭圆形备份-2" fill="#FFFFFF" cx="140" cy="161" r="4"></circle>
                    <circle id="椭圆形备份-3" fill="#FFFFFF" cx="152" cy="154" r="4"></circle>
                    <g id="Group" transform="translate(95.000000, 78.000000)" fill-rule="nonzero">
                        <polygon id="路径" fill-opacity="0.01" fill="#011528" points="12 0 58 0 58 46 12 46"></polygon>
                        <path d="M35.3790118,11.2332653 C38.034638,11.2332653 40.5234345,11.9769624 42.6527886,13.265015 L46,8.02846769 C42.8051423,6.0445518 39.1283377,4.99615173 35.3790118,5 C24.1407534,5 15,14.2433217 15,25.605786 C15,30.7165948 16.8533268,35.394986 19.9123777,39 L24.8065558,35.1987113 C22.4601971,32.5669955 21.1627025,29.148904 21.1651174,25.605786 C21.1651174,17.6811955 27.541047,11.2332653 35.3790118,11.2332653" id="路径" fill="#FFFFFF"></path>
                        <path d="M47.2801579,9 L44,14.1669357 C47.7312176,16.8162067 49.9554192,21.1543213 49.9568976,25.785354 C49.9568976,29.4196086 48.6044084,32.7391567 46.3884068,35.2507565 L51.1845416,39 C54.2933721,35.3248782 56.0022483,30.6353547 56,25.785354 C56,18.8209603 52.5400034,12.6645148 47.2801579,9" id="路径" fill-opacity="0.645623907" fill="#FFFFFF"></path>
                        <path d="M39.5988432,19.1024524 L33.4834225,28.4093281 L33.481964,28.4250068 C32.9396007,29.1090744 32.8460519,30.0819308 33.2467792,30.8707983 C33.6475065,31.6596657 34.4594249,32.1009835 35.2879674,31.9802851 C36.1165099,31.8595866 36.7898898,31.2018971 36.9808656,30.326833 L39.9897167,19.3047076 C40.0611824,19.0491448 39.7417746,18.8829506 39.5988432,19.1008845" id="路径" fill="#FFFFFF"></path>
                        <polygon id="路径" fill="#C5D7FF" points="0 44 70 44 70 46 5.46437895e-15 46"></polygon>
                    </g>
                    <path d="M37,32 C48.6768776,32 58.1428571,41.4915633 58.1428571,53.2 C66.9005153,53.2 74,60.3186725 74,69.1 C74,77.8813275 66.9005153,85 58.1428571,85 L58.1428571,85 L58.1428571,85 L15.8571429,85 C7.09948468,85 0,77.8813275 0,69.1 C0,60.3186725 7.09948468,53.2 15.8571429,53.2 L15.8571429,53.2 L15.8599754,52.8494192 C16.0466835,41.3026812 25.4398912,32 37,32 Z" id="形状结合" fill="url(#linearGradient-4)"></path>
                    <circle id="椭圆形" fill="#FFFFFF" cx="36.5" cy="54.5" r="7.5"></circle>
                    <line x1="37" y1="58.625" x2="37" y2="74.375" id="直线-19" stroke="#FFFFFF" stroke-width="5.28"></line>
                    <path d="M68.0052707,55.1780317 C68.0052707,37.7609891 68.0052707,29.0524678 68.0052707,29.0524678 C68.0052707,29.0524678 67.7277747,25.3709393 71.1997822,25.3709393 C73.397862,25.3709393 74.4969019,26.5981155 74.4969019,29.0524678 L74.4969019,54.1765473 C74.6447108,57.7625203 76.3983903,59.5555069 79.7579406,59.5555069 C83.1174909,59.5555069 84.7972661,57.7625203 84.7972661,54.1765473 L84.7972661,24.1320169 C84.7435556,20.0440056 86.4903348,18 90.0376035,18 C93.5848722,18 95.3802648,20.0440056 95.4237812,24.1320169 L95.4237812,51.1524856 C95.5556529,53.4672749 96.7493541,54.6246696 99.0048849,54.6246696 C101.260416,54.6246696 102.498972,53.4672749 102.720555,51.1524856 L102.720555,32.5887654 C102.923709,27.7768814 105.12125,25.3709393 109.31318,25.3709393 C113.50511,25.3709393 115.73405,27.7768814 116,32.5887654 L116,70" id="路径-2" stroke-opacity="0.851316652" stroke="#52A6FF" stroke-dasharray="2"></path>
                </g>
            </g>
        </g>
    </g>
</svg>