<?xml version="1.0" encoding="UTF-8"?>
<svg width="208px" height="180px" viewBox="0 0 208 180" version="1.1" xmlns="http://www.w3.org/2000/svg" xmlns:xlink="http://www.w3.org/1999/xlink">
    <title>编组 9</title>
    <defs>
        <linearGradient x1="73.1837385%" y1="2.8877444%" x2="13.7259239%" y2="82.9544669%" id="linearGradient-1">
            <stop stop-color="#E5F6FC" offset="0%"></stop>
            <stop stop-color="#C7D1F8" stop-opacity="0" offset="100%"></stop>
        </linearGradient>
        <linearGradient x1="50%" y1="0%" x2="50%" y2="100%" id="linearGradient-2">
            <stop stop-color="#77DCFD" stop-opacity="0.244208916" offset="0%"></stop>
            <stop stop-color="#427AF9" stop-opacity="0.295399913" offset="100%"></stop>
        </linearGradient>
        <linearGradient x1="50%" y1="0.422475726%" x2="50%" y2="98.8993046%" id="linearGradient-3">
            <stop stop-color="#72D0FF" offset="0%"></stop>
            <stop stop-color="#388AFF" offset="99.9472128%"></stop>
        </linearGradient>
    </defs>
    <g id="产品" stroke="none" stroke-width="1" fill="none" fill-rule="evenodd">
        <g id="存储与数据湖-对象存储02✅" transform="translate(-396.000000, -792.000000)">
            <g id="编组-9" transform="translate(396.000000, 792.000000)">
                <circle id="椭圆形" fill="url(#linearGradient-1)" cx="118" cy="90" r="90"></circle>
                <g id="编组-4" transform="translate(88.000000, 93.000000)">
                    <rect id="矩形" fill="url(#linearGradient-2)" x="0" y="13" width="87" height="62" rx="6"></rect>
                    <rect id="矩形" fill="url(#linearGradient-3)" x="18" y="0" width="82" height="75" rx="6"></rect>
                    <path d="M23.6644261,13.7581477 C23.6644261,15.9667655 25.4548646,17.757204 27.6634824,17.757204 C29.8721003,17.757204 31.6625388,15.9667655 31.6625388,13.7581477 C31.6625388,11.5495299 29.8721003,9.75909134 27.6634824,9.75909134 C25.4548646,9.75909134 23.6644261,11.5495299 23.6644261,13.7581477 Z" id="路径" fill="#FFFFFF" fill-rule="nonzero"></path>
                    <path d="M23.6644261,29.7576085 C23.6644261,31.9662263 25.4548646,33.7566648 27.6634824,33.7566648 C29.8721003,33.7566648 31.6625388,31.9662263 31.6625388,29.7576085 C31.6625388,27.5489906 29.8721003,25.7585521 27.6634824,25.7585521 C25.4548646,25.7585521 23.6644261,27.5489906 23.6644261,29.7576085 Z" id="路径" fill="#FFFFFF" fill-rule="nonzero"></path>
                    <path d="M23.6644261,45.7603047 C23.6644261,47.9689225 25.4548646,49.759361 27.6634824,49.759361 C29.8721003,49.759361 31.6625388,47.9689225 31.6625388,45.7603047 C31.6625388,43.5516868 29.8721003,41.7612483 27.6634824,41.7612483 C25.4548646,41.7612483 23.6644261,43.5516868 23.6644261,45.7603047 Z" id="路径" fill="#FFFFFF" fill-rule="nonzero"></path>
                    <path d="M23.6644261,61.7597654 C23.6644261,63.9683833 25.4548646,65.7588218 27.6634824,65.7588218 C29.8721003,65.7588218 31.6625388,63.9683833 31.6625388,61.7597654 C31.6625388,59.5511476 29.8721003,57.7607091 27.6634824,57.7607091 C26.6028668,57.7607091 25.5856911,58.182037 24.8357226,58.9320056 C24.085754,59.6819741 23.6644261,60.6991498 23.6644261,61.7597654 L23.6644261,61.7597654 Z" id="路径" fill="#FFFFFF" fill-rule="nonzero"></path>
                    <path d="M86.4669606,13.7581477 C86.4669606,15.9667655 88.2573991,17.757204 90.4660169,17.757204 C92.6746347,17.757204 94.4650732,15.9667655 94.4650732,13.7581477 C94.4650732,11.5495299 92.6746347,9.75909134 90.4660169,9.75909134 C88.2573991,9.75909134 86.4669606,11.5495299 86.4669606,13.7581477 Z" id="路径" fill="#FFFFFF" fill-rule="nonzero"></path>
                    <path d="M86.4669606,29.7576085 C86.4669606,31.9662263 88.2573991,33.7566648 90.4660169,33.7566648 C92.6746347,33.7566648 94.4650732,31.9662263 94.4650732,29.7576085 C94.4650732,27.5489906 92.6746347,25.7585521 90.4660169,25.7585521 C88.2573991,25.7585521 86.4669606,27.5489906 86.4669606,29.7576085 Z" id="路径" fill="#FFFFFF" fill-rule="nonzero"></path>
                    <path d="M86.4669606,45.7603047 C86.4669606,47.9689225 88.2573991,49.759361 90.4660169,49.759361 C92.6746347,49.759361 94.4650732,47.9689225 94.4650732,45.7603047 C94.4650732,43.5516868 92.6746347,41.7612483 90.4660169,41.7612483 C88.2573991,41.7612483 86.4669606,43.5516868 86.4669606,45.7603047 Z" id="路径" fill="#FFFFFF" fill-rule="nonzero"></path>
                    <path d="M86.4669606,61.7597654 C86.4669606,63.9683833 88.2573991,65.7588218 90.4660169,65.7588218 C92.6746347,65.7588218 94.4650732,63.9683833 94.4650732,61.7597654 C94.4650732,59.5511476 92.6746347,57.7607091 90.4660169,57.7607091 C89.4054012,57.7607091 88.3882256,58.182037 87.638257,58.9320056 C86.8882885,59.6819741 86.4669606,60.6991498 86.4669606,61.7597654 L86.4669606,61.7597654 Z" id="路径" fill="#FFFFFF" fill-rule="nonzero"></path>
                    <path d="M71.865936,37.3609922 L50.6670549,22.8013212 C50.1688711,22.4553689 49.5169685,22.4239671 48.9878395,22.7204341 C48.4580974,23.0084274 48.1225219,23.5574387 48.1077883,24.1602237 L48.1077883,53.2019143 C48.1225219,53.8046994 48.4580973,54.3537107 48.9878395,54.6417041 C49.5169685,54.9381711 50.1688711,54.9067692 50.6670549,54.5608169 L71.865936,39.9202588 C72.3270003,39.6552204 72.6044189,39.1576086 72.5874486,38.6260659 C72.5486578,38.1096485 72.2848164,37.6363903 71.865936,37.3318729 L71.865936,37.3609922 Z" id="路径" fill="#FFFFFF" fill-rule="nonzero"></path>
                </g>
                <g id="编组-2" transform="translate(68.500000, 135.000000) scale(-1, 1) translate(-68.500000, -135.000000) translate(42.000000, 112.000000)" fill-rule="nonzero">
                    <path d="M53,13.7781879 C52.6613312,12.5244235 52.2444015,11.2927223 51.7516199,10.0902011 C47.3189841,11.0614505 45.8768898,7.24797933 47.7330007,4.578926 C47.0131127,3.50956902 45.9109949,2.7504191 44.6487674,2.454475 C42.7863261,5.2766193 37.7117748,3.85362613 38.1637745,0 L33.8235645,0 C34.1882029,4.12969183 29.1693602,5.00180845 27.0372384,2.45071046 C25.9863707,3.13711017 24.5518731,3.43074368 24.2454755,4.89263702 C26.2826395,7.31574091 24.4227303,11.1016055 20.2281224,10.0902011 C19.7735905,11.258461 19.324123,12.4831888 19,13.7781879 C22.5134431,14.3290644 22.5134431,19.6608968 19,20.2117734 C19.3279214,21.4967337 19.7723244,22.7239712 20.2281224,23.8884665 C24.6594921,22.9197269 26.1446339,26.7344529 24.2454755,29.4035062 C24.9494303,30.4450268 25.9458554,31.1878944 27.3524987,31.5405056 C29.2136739,28.7158516 34.2755642,30.13759 33.8235645,34 L38.1637745,34 C37.786475,29.8514855 42.8154465,28.9881528 44.9640277,31.5405056 C46.011097,30.8541059 47.4557235,30.5391401 47.7330007,29.0897952 C45.7148283,26.6553977 47.5722053,22.8908655 51.7516199,23.8909762 C52.2251434,22.7239712 52.6480226,21.4954789 52.9974678,20.2142831 C49.3333582,19.3195793 49.3333582,14.6603432 52.9974678,13.7781879 L53,13.7781879 Z M35.9987339,23.3802547 C32.4422432,23.3802547 29.5593208,20.5217199 29.5593208,16.995608 C29.5593208,13.4694962 32.4422432,10.6122163 35.9987339,10.6122163 C39.5561724,10.6122163 42.4400462,13.470439 42.4400462,16.9962355 C42.4400462,20.5220319 39.5561724,23.3802547 35.9987339,23.3802547 L35.9987339,23.3802547 Z" id="形状" fill="#69BDFF"></path>
                    <path d="M24,31.7272824 C23.7610558,30.8418709 23.4666671,29.9720799 23.1185459,29.1229674 C19.9890622,29.8078436 18.971208,27.1168031 20.2811645,25.2330747 C19.773922,24.478353 18.9967754,23.9423686 18.1064822,23.7332341 C16.7926653,25.7253693 13.2089432,24.7190987 13.5280682,22 L10.464211,22 C10.7228567,24.9155064 7.17902525,25.5315124 5.67347595,23.729408 C4.93099566,24.2153258 3.91957536,24.4219364 3.70339392,25.4537145 C5.14074312,27.1652673 3.82692617,29.8371772 0.866012546,29.1229674 C0.545600772,29.9468594 0.229049381,30.8115634 0,31.7272824 C2.48093936,32.117547 2.48093936,35.8786268 0,36.2688915 C0.230336175,37.1769582 0.545600772,38.0416622 0.866012546,38.8630035 C3.99420943,38.1806781 5.04294676,40.8717186 3.70339392,42.7554469 C4.19880972,43.4913381 4.90268618,44.0155171 5.89609136,44.2654905 C7.20990832,42.2708045 10.783336,43.2757998 10.464211,46 L13.5280682,46 C13.2617018,43.0730152 16.8106804,42.4646615 18.326524,44.2654905 C19.0664308,43.7808481 20.084285,43.5589329 20.2811645,42.5348071 C18.8579701,40.8168775 20.1692134,38.1577213 23.1185459,38.8668296 C23.4518256,38.0429376 23.7503619,37.1744075 23.9987132,36.2714422 C21.4122567,35.6388564 21.4122567,32.3509406 24,31.7272824 L24,31.7272824 Z M12.0006434,38.5033479 C10.3584281,38.5307341 8.82899478,37.6780762 7.99980697,36.2728846 C7.17061916,34.8676929 7.17061916,33.128481 7.99980697,31.7232893 C8.82899478,30.3180977 10.3584281,29.4654397 12.0006434,29.492826 C14.4812955,29.5341944 16.4704045,31.5391014 16.4704045,33.9980869 C16.4704045,36.4570725 14.4812955,38.4619795 12.0006434,38.5033479 L12.0006434,38.5033479 Z" id="形状" fill="#5BA5FF"></path>
                </g>
                <g id="tupian-6" transform="translate(0.000000, 32.000000)" fill-rule="nonzero">
                    <path d="M53.7714862,3.497175 L73.4031862,42.2037 C75.5415862,46.428525 72.4750612,51.42555 67.7453362,51.42555 L28.4819362,51.42555 C23.7447862,51.42555 20.6782612,46.428525 22.8240862,42.2037 L42.4557862,3.497175 C44.8020862,-1.14345 51.4177612,-1.14345 53.7714862,3.497175 L53.7714862,3.497175 Z" id="路径" fill="#72D0FF"></path>
                    <path d="M24.673275,17.367075 L37.2735,42.211125 C39.4119,46.43595 36.345375,51.432975 31.61565,51.432975 L6.4152,51.432975 C1.67805,51.432975 -1.388475,46.43595 0.75735,42.211125 L13.357575,17.367075 C15.703875,12.72645 22.31955,12.72645 24.673275,17.367075 L24.673275,17.367075 Z" id="路径" fill="#3E92FF"></path>
                </g>
                <polyline id="路径-3" stroke="#5CB6FF" points="74 32 85 41.8654227 74 52"></polyline>
                <polyline id="路径-3备份" stroke="#5CB6FF" points="88 32 99 41.8654227 88 52"></polyline>
                <polyline id="路径-3备份-2" stroke="#5CB6FF" points="102 32 113 41.8654227 102 52"></polyline>
            </g>
        </g>
    </g>
</svg>