<?xml version="1.0" encoding="UTF-8"?>
<svg width="180px" height="181px" viewBox="0 0 180 181" version="1.1" xmlns="http://www.w3.org/2000/svg" xmlns:xlink="http://www.w3.org/1999/xlink">
    <title>编组 10</title>
    <defs>
        <linearGradient x1="73.1837385%" y1="2.8877444%" x2="13.7259239%" y2="82.9544669%" id="linearGradient-1">
            <stop stop-color="#E5F6FC" offset="0%"></stop>
            <stop stop-color="#C7D1F8" stop-opacity="0" offset="100%"></stop>
        </linearGradient>
        <linearGradient x1="50%" y1="0.674460788%" x2="50%" y2="98.7953658%" id="linearGradient-2">
            <stop stop-color="#72C4FF" offset="0%"></stop>
            <stop stop-color="#388AFF" offset="99.9472128%"></stop>
        </linearGradient>
        <linearGradient x1="50%" y1="0%" x2="50%" y2="100%" id="linearGradient-3">
            <stop stop-color="#72D0FF" offset="0%"></stop>
            <stop stop-color="#499FFF" offset="100%"></stop>
        </linearGradient>
        <linearGradient x1="50%" y1="0%" x2="50%" y2="100%" id="linearGradient-4">
            <stop stop-color="#71CFFF" offset="0%"></stop>
            <stop stop-color="#3A8DFF" offset="100%"></stop>
        </linearGradient>
    </defs>
    <g id="产品" stroke="none" stroke-width="1" fill="none" fill-rule="evenodd">
        <g id="存储与数据湖-对象存储02✅" transform="translate(-424.000000, -1342.000000)">
            <g id="编组-10" transform="translate(424.000000, 1342.000000)">
                <circle id="椭圆形" fill="url(#linearGradient-1)" cx="90" cy="90" r="90"></circle>
                <g id="编组-7" transform="translate(101.000000, 40.000000)">
                    <g id="qiyewenhua-rencaitisheng" fill="#3D91FF" fill-rule="nonzero">
                        <path d="M0.533237093,16.0270603 C-0.596443008,17.7810578 0.18942141,20.6789668 1.76115025,20.6789668 L6.91838549,20.6789668 L6.91838549,31.2546125 C6.91838549,32.7798278 7.70424991,34 8.68658044,34 L18.3134196,34 C19.2957501,34 20.0816145,32.7798278 20.0816145,31.2546125 L20.0816145,20.6789668 L25.2388498,20.6789668 C26.8105786,20.6789668 27.596443,17.704797 26.4667629,16.0270603 L14.7279132,0.800738007 C14.0402818,-0.266912669 12.9597182,-0.266912669 12.2720868,0.800738007 L0.533237093,16.0270603 Z" id="路径"></path>
                    </g>
                    <line x1="8.5" y1="37.5" x2="18.5" y2="37.5" id="直线" stroke="#50A6FF" stroke-width="2" stroke-linecap="square"></line>
                    <line x1="8.5" y1="41.5" x2="18.5" y2="41.5" id="直线" stroke="#50A6FF" stroke-width="2" stroke-linecap="square"></line>
                </g>
                <g id="编组-3" transform="translate(121.000000, 94.000000)">
                    <rect id="矩形" fill="url(#linearGradient-2)" x="7.865" y="0" width="49.61" height="39.93" rx="3.63"></rect>
                    <path d="M11.2919778,5.29867935 C11.2919778,6.63489314 12.3751931,7.71810844 13.7114069,7.71810844 C15.0476207,7.71810844 16.130836,6.63489314 16.130836,5.29867935 C16.130836,3.96246556 15.0476207,2.87925026 13.7114069,2.87925026 C12.3751931,2.87925026 11.2919778,3.96246556 11.2919778,5.29867935 Z" id="路径" fill="#FFFFFF" fill-rule="nonzero"></path>
                    <path d="M11.2919778,14.9783531 C11.2919778,16.3145669 12.3751931,17.3977822 13.7114069,17.3977822 C15.0476207,17.3977822 16.130836,16.3145669 16.130836,14.9783531 C16.130836,13.6421393 15.0476207,12.558924 13.7114069,12.558924 C12.3751931,12.558924 11.2919778,13.6421393 11.2919778,14.9783531 Z" id="路径" fill="#FFFFFF" fill-rule="nonzero"></path>
                    <path d="M11.2919778,24.6599843 C11.2919778,25.9961981 12.3751931,27.0794134 13.7114069,27.0794134 C15.0476207,27.0794134 16.130836,25.9961981 16.130836,24.6599843 C16.130836,23.3237705 15.0476207,22.2405552 13.7114069,22.2405552 C12.3751931,22.2405552 11.2919778,23.3237705 11.2919778,24.6599843 Z" id="路径" fill="#FFFFFF" fill-rule="nonzero"></path>
                    <path d="M11.2919778,34.3396581 C11.2919778,35.6758719 12.3751931,36.7590872 13.7114069,36.7590872 C15.0476207,36.7590872 16.130836,35.6758719 16.130836,34.3396581 C16.130836,33.0034443 15.0476207,31.920229 13.7114069,31.920229 C13.0697344,31.920229 12.4543431,32.1751324 12.0006122,32.6288634 C11.5468812,33.0825943 11.2919778,33.6979856 11.2919778,34.3396581 L11.2919778,34.3396581 Z" id="路径" fill="#FFFFFF" fill-rule="nonzero"></path>
                    <path d="M49.2875111,5.29867935 C49.2875111,6.63489314 50.3707264,7.71810844 51.7069402,7.71810844 C53.043154,7.71810844 54.1263693,6.63489314 54.1263693,5.29867935 C54.1263693,3.96246556 53.043154,2.87925026 51.7069402,2.87925026 C50.3707264,2.87925026 49.2875111,3.96246556 49.2875111,5.29867935 Z" id="路径" fill="#FFFFFF" fill-rule="nonzero"></path>
                    <path d="M49.2875111,14.9783531 C49.2875111,16.3145669 50.3707264,17.3977822 51.7069402,17.3977822 C53.043154,17.3977822 54.1263693,16.3145669 54.1263693,14.9783531 C54.1263693,13.6421393 53.043154,12.558924 51.7069402,12.558924 C50.3707264,12.558924 49.2875111,13.6421393 49.2875111,14.9783531 Z" id="路径" fill="#FFFFFF" fill-rule="nonzero"></path>
                    <path d="M49.2875111,24.6599843 C49.2875111,25.9961981 50.3707264,27.0794134 51.7069402,27.0794134 C53.043154,27.0794134 54.1263693,25.9961981 54.1263693,24.6599843 C54.1263693,23.3237705 53.043154,22.2405552 51.7069402,22.2405552 C50.3707264,22.2405552 49.2875111,23.3237705 49.2875111,24.6599843 Z" id="路径" fill="#FFFFFF" fill-rule="nonzero"></path>
                    <path d="M49.2875111,34.3396581 C49.2875111,35.6758719 50.3707264,36.7590872 51.7069402,36.7590872 C53.043154,36.7590872 54.1263693,35.6758719 54.1263693,34.3396581 C54.1263693,33.0034443 53.043154,31.920229 51.7069402,31.920229 C51.0652677,31.920229 50.4498765,32.1751324 49.9961455,32.6288634 C49.5424145,33.0825943 49.2875111,33.6979856 49.2875111,34.3396581 L49.2875111,34.3396581 Z" id="路径" fill="#FFFFFF" fill-rule="nonzero"></path>
                    <path d="M40.4538913,19.5784003 L27.6285682,10.7697993 C27.327167,10.5604982 26.9327659,10.5415001 26.6126429,10.7208626 C26.2921489,10.8950986 26.0891258,11.2272504 26.0802119,11.5919354 L26.0802119,29.1621582 C26.0891258,29.5268432 26.2921489,29.858995 26.6126429,30.033231 C26.9327659,30.2125935 27.327167,30.1935954 27.6285682,29.9842942 L40.4538913,21.1267566 C40.7328352,20.9664084 40.9006734,20.6653532 40.8904064,20.3437699 C40.866938,20.0313373 40.7073139,19.7450161 40.4538913,19.5607831 L40.4538913,19.5784003 Z" id="路径" fill="#FFFFFF" fill-rule="nonzero"></path>
                </g>
                <g id="QCDN备份-8" transform="translate(0.000000, 23.000000)">
                    <polygon id="多边形" fill="url(#linearGradient-3)" points="28.62 0 53.4056471 14.31 53.4056471 42.93 28.62 57.24 3.83435294 42.93 3.83435294 14.31"></polygon>
                    <polygon id="路径-6" stroke="#FFFFFF" stroke-width="4.08857143" points="18.6190959 20.4428571 18.6190959 34.0327539 30.8848102 40.8857143 30.8848102 27.2571429"></polygon>
                    <polyline id="路径-7" stroke="#FFFFFF" stroke-width="4.08857143" stroke-linecap="square" points="26.7962388 16.3542857 39.0619531 23.1989923 39.0619531 36.7971429"></polyline>
                </g>
                <g id="youxi-2" transform="translate(58.000000, 111.000000)" fill-rule="nonzero">
                    <path d="M91.5046245,44.6469309 C88.5146661,18.6534592 83.2209065,0.0198851774 66.4273069,0.0198851774 C57.9174253,0.0198851774 53.5455694,8.76168025 45.9537583,9.45167054 C38.1300339,8.75976358 33.9900915,0.0179685 25.4782932,0.0179685 C8.68469354,0.0179685 3.39285047,18.6515425 0.632888865,44.4188507 C-0.977088735,58.2205754 0.402892065,69.7242487 8.91277367,69.7242487 C20.8764405,69.7242487 21.3383508,58.9124824 29.8501491,53.8506362 C33.0701043,52.2406586 40.2000051,51.5506682 46.1837551,51.3206714 C52.1636719,51.5506682 59.2954894,52.2406586 62.5173613,53.8506362 C71.0272429,58.9105658 71.4891531,69.7242487 83.4509033,69.7242487 C91.7327048,69.9542455 92.8846053,58.4505722 91.5046245,44.6488475 L91.5046245,44.6469309 Z M25.70829,42.3469629 C19.0383828,42.3469629 13.7446231,36.8270397 13.7446231,30.3852127 C13.7446231,23.9433856 19.0364662,18.4215459 25.70829,18.4215457 C28.8876544,18.3999271 31.9430411,19.6534999 34.1910631,21.9018821 C36.439085,24.1502643 37.6921683,27.2058518 37.6700403,30.3852127 C37.6700403,37.0551199 32.1501171,42.3469629 25.70829,42.3469629 Z M79.3109609,32.6870973 L69.8791754,32.6870973 L69.8791754,42.1169661 L65.2792394,42.1169661 L65.2792394,32.6870973 L55.8455374,32.6870973 L55.8455374,28.083328 L65.2773229,28.083328 L65.2773229,18.883456 L69.8772589,18.883456 L69.8772589,28.083328 L79.3109609,28.083328 L79.3109609,32.6851807 L79.3109609,32.6870973 Z" id="形状" fill="url(#linearGradient-4)"></path>
                    <path d="M18.8064694,30.3852127 C18.8064694,32.2251871 19.4964598,33.8351647 20.8764406,35.2151455 C22.0264246,36.3651295 23.866399,37.2851167 25.70829,37.2851167 C27.5482644,37.2851167 29.158242,36.5951263 30.5382228,35.2151455 C31.6882068,34.0651615 32.608194,32.2251871 32.608194,30.3852127 C32.608194,28.5452383 31.9182036,26.9352607 30.5382228,25.5552799 C29.3882388,24.4052959 27.5482644,23.483392 25.70829,23.483392 C23.8683156,23.483392 22.258338,24.1733824 20.8783572,25.5533632 C19.4983764,26.7033472 18.808386,28.5433216 18.808386,30.383296 L18.8064694,30.3852127 Z" id="路径" fill="#53ABFF"></path>
                </g>
                <path d="M36,80 C38.4589111,105.164133 47.4589111,119.497467 63,123" id="路径-4" stroke="#61BBFF" stroke-dasharray="2"></path>
                <path d="M45,76 C65.5468289,96.9163876 91.5468289,107.248212 123,106.995474" id="路径-5" stroke="#61BBFF" stroke-dasharray="2"></path>
            </g>
        </g>
    </g>
</svg>