<?xml version="1.0" encoding="UTF-8"?>
<svg width="188px" height="180px" viewBox="0 0 188 180" version="1.1" xmlns="http://www.w3.org/2000/svg" xmlns:xlink="http://www.w3.org/1999/xlink">
    <title>编组 12</title>
    <defs>
        <linearGradient x1="73.1837385%" y1="2.8877444%" x2="13.7259239%" y2="82.9544669%" id="linearGradient-1">
            <stop stop-color="#E5F6FC" offset="0%"></stop>
            <stop stop-color="#C7D1F8" stop-opacity="0" offset="100%"></stop>
        </linearGradient>
        <linearGradient x1="50%" y1="0%" x2="50%" y2="100%" id="linearGradient-2">
            <stop stop-color="#6ECCFF" offset="0%"></stop>
            <stop stop-color="#398CFF" offset="100%"></stop>
        </linearGradient>
        <linearGradient x1="50%" y1="0%" x2="50%" y2="100%" id="linearGradient-3">
            <stop stop-color="#58B1FF" offset="0%"></stop>
            <stop stop-color="#2372F9" offset="100%"></stop>
        </linearGradient>
    </defs>
    <g id="产品" stroke="none" stroke-width="1" fill="none" fill-rule="evenodd">
        <g id="存储与数据湖-对象存储02✅" transform="translate(-416.000000, -1892.000000)">
            <g id="编组-12" transform="translate(416.000000, 1892.000000)">
                <circle id="椭圆形" fill="url(#linearGradient-1)" cx="98" cy="90" r="90"></circle>
                <g id="shuju" transform="translate(45.000000, 25.000000)" fill-rule="nonzero">
                    <path d="M5.43267316,23.6066478 C5.02434544,23.6066478 4.66705864,23.4024839 4.41185383,23.0962381 C4.00352611,22.5347874 4.15664901,21.7181319 4.71809963,21.3098042 L25.9511429,6.04855431 C26.5125936,5.64022659 27.3292491,5.7933495 27.7375769,6.35480012 C28.1459046,6.91625082 27.9927817,7.73290633 27.4313311,8.14123405 L6.14724676,23.3514429 C5.94308287,23.5556068 5.68787805,23.6066478 5.43267316,23.6066478 Z M48.6133334,24.5764263 C48.2560466,24.5764263 47.8987598,24.4233033 47.643555,24.1170575 C47.1841863,23.6066478 47.2352273,22.7899923 47.7456369,22.3306235 L67.4474512,5.12981681 C67.9578609,4.67044809 68.7745164,4.72148909 69.2338851,5.23189879 C69.6932538,5.7423085 69.6422128,6.55896402 69.1318032,7.01833273 L49.429989,24.2701804 C49.2258251,24.4743443 48.9195793,24.5764263 48.6133334,24.5764263 L48.6133334,24.5764263 Z" id="形状" fill="#55AEFF"></path>
                    <path d="M48.5112515,24.5253853 C48.2560467,24.5253853 48.0008418,24.4233033 47.7456369,24.2701804 L26.6657165,8.80476666 C26.1042658,8.39643894 25.9511429,7.57978343 26.4105117,7.01833273 C26.8188394,6.45688203 27.635495,6.30375912 28.1969457,6.76312784 L49.2768661,22.2285416 C49.8383168,22.6368693 49.9914397,23.4535249 49.5320709,24.0149756 C49.2768661,24.3722624 48.8685383,24.5253853 48.5112515,24.5253853 L48.5112515,24.5253853 Z" id="路径" fill="#55AEFF"></path>
                    <path d="M20.4387182,7.12041464 C20.4387182,9.93932957 22.7239003,12.2245116 25.5428152,12.2245116 C28.3617301,12.2245116 30.6469122,9.93932957 30.6469122,7.12041464 C30.6469122,4.30149971 28.3617301,2.01631765 25.5428152,2.01631765 C22.7239003,2.01631765 20.4387182,4.30149971 20.4387182,7.12041464 L20.4387182,7.12041464 Z" id="路径" fill="#5CB6FF"></path>
                    <path d="M44.274851,22.4837465 C44.2746263,24.3074146 45.2474125,25.9926495 46.8267179,26.9045485 C48.4060233,27.8164474 50.3518727,27.8164474 51.9311781,26.9045485 C53.5104835,25.9926495 54.4832698,24.3074146 54.483045,22.4837465 C54.4832698,20.6600784 53.5104835,18.9748435 51.9311781,18.0629445 C50.3518727,17.1510456 48.4060233,17.1510456 46.8267179,18.0629445 C45.2474125,18.9748435 44.2746263,20.6600784 44.274851,22.4837465 L44.274851,22.4837465 Z" id="路径" fill="#5CB6FF"></path>
                    <path d="M0.0733713609,22.4837465 C0.0733713609,24.3072648 1.0462067,25.9922651 2.62541982,26.9040243 C4.20463294,27.8157834 6.15030375,27.8157834 7.72951687,26.9040243 C9.30872999,25.9922651 10.2815653,24.3072648 10.2815653,22.4837465 C10.2815653,19.6648316 7.99638327,17.3796495 5.17746835,17.3796495 C2.35855342,17.3796495 0.0733713609,19.6648316 0.0733713609,22.4837465 Z" id="路径" fill="#5CB6FF"></path>
                    <path d="M63.4152146,5.1808578 C63.4149898,7.00452586 64.387776,8.68976083 65.9670814,9.60165977 C67.5463869,10.5135587 69.4922363,10.5135587 71.0715417,9.60165977 C72.6508471,8.68976083 73.6236333,7.00452586 73.6234085,5.1808578 C73.6236333,3.35718974 72.6508471,1.67195477 71.0715417,0.760055837 C69.4922363,-0.151843096 67.5463869,-0.151843096 65.9670814,0.760055837 C64.387776,1.67195477 63.4149898,3.35718974 63.4152146,5.1808578 Z" id="路径" fill="#5CB6FF"></path>
                    <polygon id="路径" fill="url(#linearGradient-2)" points="72.5005072 23.0878434 49.378948 41.5646744 26.0532249 23.2409663 2.62541989 41.5646744 2.62541989 66.1664217 72.5005072 66.1664217"></polygon>
                    <path d="M70.9692781,67.7997327 L4.10560802,67.7997327 C3.23791151,67.7997327 2.5743789,67.1362001 2.5743789,66.3195447 L2.5743789,47.1281401 C2.5743789,46.4135665 3.1358296,45.8521158 3.85040313,45.8521158 C4.56497665,45.8521158 5.12642735,46.4135665 5.12642735,47.1281401 L5.12642735,65.2476843 L69.9484587,65.2476843 L69.9484587,30.7439889 C69.9484587,30.0294153 70.5099094,29.4679646 71.224483,29.4679646 C71.9390565,29.4679646 72.5005072,30.0294153 72.5005072,30.7439889 L72.5005072,66.2685037 C72.5005072,67.1362002 71.7859336,67.7997327 70.9692781,67.7997327 Z" id="路径" fill="url(#linearGradient-3)"></path>
                    <path d="M24.7772007,23.2409663 L27.3292491,23.2409663 L27.3292491,67.7997327 L24.7772007,67.7997327 L24.7772007,23.2409663 Z M48.1029237,40.2886501 L50.6549723,40.2886501 L50.6549723,67.7997327 L48.1029237,67.7997327 L48.1029237,40.2886501 Z" id="形状" fill="#FFFFFF"></path>
                </g>
                <path id="路径-8" d="M16.5,146 L16.5,147.5 L20.5,147.5 L16,156.5 L11.5,147.5 L15.5,147.5 L15.5,146 L16.5,146 Z M16.5,142 L16.5,144 L15.5,144 L15.5,142 L16.5,142 Z M16.5,138 L16.5,140 L15.5,140 L15.5,138 L16.5,138 Z M16.5,134 L16.5,136 L15.5,136 L15.5,134 L16.5,134 Z M16.5,130 L16.5,132 L15.5,132 L15.5,130 L16.5,130 Z M16.5,126 L16.5,128 L15.5,128 L15.5,126 L16.5,126 Z M16.5,122 L16.5,124 L15.5,124 L15.5,122 L16.5,122 Z M16.5,118 L16.5,120 L15.5,120 L15.5,118 L16.5,118 Z M16.5,114 L16.5,116 L15.5,116 L15.5,114 L16.5,114 Z M16.5,110 L16.5,112 L15.5,112 L15.5,110 L16.5,110 Z M16.5,106 L16.5,108 L15.5,108 L15.5,106 L16.5,106 Z M16.5,102 L16.5,104 L15.5,104 L15.5,102 L16.5,102 Z M16.5,98 L16.5,100 L15.5,100 L15.5,98 L16.5,98 Z M16.5,94 L16.5,96 L15.5,96 L15.5,94 L16.5,94 Z M16.5,90 L16.5,92 L15.5,92 L15.5,90 L16.5,90 Z M16.5,86 L16.5,88 L15.5,88 L15.5,86 L16.5,86 Z M18,83.5 L18,84.5 L16.5,84.5 L16.5,85 L15.5,85 L15.5,83.5 L18,83.5 Z M38,83.5 L38,84.5 L36,84.5 L36,83.5 L38,83.5 Z M34,83.5 L34,84.5 L32,84.5 L32,83.5 L34,83.5 Z M30,83.5 L30,84.5 L28,84.5 L28,83.5 L30,83.5 Z M26,83.5 L26,84.5 L24,84.5 L24,83.5 L26,83.5 Z M22,83.5 L22,84.5 L20,84.5 L20,83.5 L22,83.5 Z" fill="#5CB6FF" fill-rule="nonzero"></path>
                <rect id="矩形" fill="#52AAFF" x="0" y="110" width="32" height="12"></rect>
                <circle id="椭圆形" fill="#FFFFFF" cx="7" cy="116" r="3"></circle>
                <path id="路径-9" d="M172.5,147 L172.5,147.5 L176.5,147.5 L172,156.5 L167.5,147.5 L171.5,147.5 L171.5,147 L172.5,147 Z M172.5,143 L172.5,145 L171.5,145 L171.5,143 L172.5,143 Z M172.5,139 L172.5,141 L171.5,141 L171.5,139 L172.5,139 Z M172.5,135 L172.5,137 L171.5,137 L171.5,135 L172.5,135 Z M172.5,131 L172.5,133 L171.5,133 L171.5,131 L172.5,131 Z M172.5,127 L172.5,129 L171.5,129 L171.5,127 L172.5,127 Z M172.5,123 L172.5,125 L171.5,125 L171.5,123 L172.5,123 Z M172.5,119 L172.5,121 L171.5,121 L171.5,119 L172.5,119 Z M172.5,115 L172.5,117 L171.5,117 L171.5,115 L172.5,115 Z M172.5,111 L172.5,113 L171.5,113 L171.5,111 L172.5,111 Z M172.5,107 L172.5,109 L171.5,109 L171.5,107 L172.5,107 Z M172.5,103 L172.5,105 L171.5,105 L171.5,103 L172.5,103 Z M172.5,99 L172.5,101 L171.5,101 L171.5,99 L172.5,99 Z M172.5,95 L172.5,97 L171.5,97 L171.5,95 L172.5,95 Z M172.5,91 L172.5,93 L171.5,93 L171.5,91 L172.5,91 Z M172.5,87 L172.5,89 L171.5,89 L171.5,87 L172.5,87 Z M172.5,83.5 L172.5,85 L171.5,85 L171.5,84.5 L171,84.5 L171,83.5 L172.5,83.5 Z M129,83.5 L129,84.5 L127,84.5 L127,83.5 L129,83.5 Z M133,83.5 L133,84.5 L131,84.5 L131,83.5 L133,83.5 Z M137,83.5 L137,84.5 L135,84.5 L135,83.5 L137,83.5 Z M141,83.5 L141,84.5 L139,84.5 L139,83.5 L141,83.5 Z M145,83.5 L145,84.5 L143,84.5 L143,83.5 L145,83.5 Z M149,83.5 L149,84.5 L147,84.5 L147,83.5 L149,83.5 Z M153,83.5 L153,84.5 L151,84.5 L151,83.5 L153,83.5 Z M157,83.5 L157,84.5 L155,84.5 L155,83.5 L157,83.5 Z M161,83.5 L161,84.5 L159,84.5 L159,83.5 L161,83.5 Z M165,83.5 L165,84.5 L163,84.5 L163,83.5 L165,83.5 Z M169,83.5 L169,84.5 L167,84.5 L167,83.5 L169,83.5 Z" fill="#5CB6FF" fill-rule="nonzero"></path>
                <path id="路径-10" d="M63,147 L63,147.5 L67,147.5 L62.5,156.5 L58,147.5 L62,147.5 L62,147 L63,147 Z M63,143 L63,145 L62,145 L62,143 L63,143 Z M63,139 L63,141 L62,141 L62,139 L63,139 Z M63,135 L63,137 L62,137 L62,135 L63,135 Z M63,131 L63,133 L62,133 L62,131 L63,131 Z M63,127 L63,129 L62,129 L62,127 L63,127 Z M63,123 L63,125 L62,125 L62,123 L63,123 Z M63,119 L63,121 L62,121 L62,119 L63,119 Z M63,115 L63,117 L62,117 L62,115 L63,115 Z M63,111 L63,113 L62,113 L62,111 L63,111 Z M63,107 L63,109 L62,109 L62,107 L63,107 Z M63,103 L63,105 L62,105 L62,103 L63,103 Z M63,99 L63,101 L62,101 L62,99 L63,99 Z" fill="#5CB6FF" fill-rule="nonzero"></path>
                <rect id="矩形" fill="#52AAFF" x="46" y="110" width="32" height="12"></rect>
                <circle id="椭圆形" fill="#FFFFFF" cx="53" cy="116" r="3"></circle>
                <path id="路径-10" d="M115,147 L115,147.5 L119,147.5 L114.5,156.5 L110,147.5 L114,147.5 L114,147 L115,147 Z M115,143 L115,145 L114,145 L114,143 L115,143 Z M115,139 L115,141 L114,141 L114,139 L115,139 Z M115,135 L115,137 L114,137 L114,135 L115,135 Z M115,131 L115,133 L114,133 L114,131 L115,131 Z M115,127 L115,129 L114,129 L114,127 L115,127 Z M115,123 L115,125 L114,125 L114,123 L115,123 Z M115,119 L115,121 L114,121 L114,119 L115,119 Z M115,115 L115,117 L114,117 L114,115 L115,115 Z M115,111 L115,113 L114,113 L114,111 L115,111 Z M115,107 L115,109 L114,109 L114,107 L115,107 Z M115,103 L115,105 L114,105 L114,103 L115,103 Z M115,99 L115,101 L114,101 L114,99 L115,99 Z" fill="#5CB6FF" fill-rule="nonzero"></path>
                <rect id="矩形" fill="#52AAFF" x="98" y="110" width="32" height="12"></rect>
                <circle id="椭圆形" fill="#FFFFFF" cx="104" cy="116" r="3"></circle>
                <rect id="矩形" fill="#52AAFF" x="155" y="110" width="32" height="12"></rect>
                <circle id="椭圆形" fill="#FFFFFF" cx="162" cy="116" r="3"></circle>
            </g>
        </g>
    </g>
</svg>