<?xml version="1.0" encoding="UTF-8"?>
<svg width="183px" height="180px" viewBox="0 0 183 180" version="1.1" xmlns="http://www.w3.org/2000/svg" xmlns:xlink="http://www.w3.org/1999/xlink">
    <title>编组 14</title>
    <defs>
        <linearGradient x1="73.1837385%" y1="2.8877444%" x2="13.7259239%" y2="82.9544669%" id="linearGradient-1">
            <stop stop-color="#E5F6FC" offset="0%"></stop>
            <stop stop-color="#C7D1F8" stop-opacity="0" offset="100%"></stop>
        </linearGradient>
        <linearGradient x1="50%" y1="0%" x2="50%" y2="100%" id="linearGradient-2">
            <stop stop-color="#6CC9FF" offset="0%"></stop>
            <stop stop-color="#3A8DFF" offset="100%"></stop>
        </linearGradient>
        <linearGradient x1="50%" y1="0%" x2="50%" y2="112.471773%" id="linearGradient-3">
            <stop stop-color="#6ECCFF" offset="0%"></stop>
            <stop stop-color="#3A8DFF" offset="100%"></stop>
        </linearGradient>
    </defs>
    <g id="产品" stroke="none" stroke-width="1" fill="none" fill-rule="evenodd">
        <g id="存储与数据湖-对象存储02✅" transform="translate(-421.000000, -2442.000000)">
            <g id="编组-14" transform="translate(421.000000, 2442.000000)">
                <circle id="椭圆形" fill="url(#linearGradient-1)" cx="93" cy="90" r="90"></circle>
                <polyline id="路径-3" stroke="#5CB6FF" points="61 46 72 55.8654227 61 66"></polyline>
                <polyline id="路径-3备份" stroke="#5CB6FF" points="75 46 86 55.8654227 75 66"></polyline>
                <polyline id="路径-3备份-2" stroke="#5CB6FF" points="89 46 100 55.8654227 89 66"></polyline>
                <g id="anquan-4" transform="translate(0.000000, 39.000000)" fill-rule="nonzero">
                    <path d="M0.050128,4.622748 L0.050128,32.568068 C0.050128,32.568068 0.661856,45.569212 23.645128,51.868596 C23.645128,51.868596 42.530852,47.70038 46.388264,32.945744 C46.393204,32.914752 46.388264,4.622748 46.388264,4.622748 L23.716992,0.003796 L0.050128,4.622748 Z" id="路径" fill="url(#linearGradient-2)"></path>
                    <path d="M3.683368,6.904976 L23.220392,3.043872 L23.220392,23.5716 L3.683368,23.5716 L3.683368,6.904976 Z M23.360324,23.572848 L42.917212,23.572848 L42.917212,32.938308 C42.917212,32.938308 41.94268,43.373668 23.374,48.511476 L23.35918,23.5716 L23.360324,23.572848 Z" id="形状" fill-opacity="0.93198208" fill="#FFFFFF"></path>
                </g>
                <g id="jieshengziyuan" opacity="0.451381138" transform="translate(59.500000, 153.000000) scale(-1, 1) translate(-59.500000, -153.000000) translate(34.000000, 132.000000)" fill="#007AFF" fill-rule="nonzero">
                    <path d="M45.1151889,38.6458002 C43.6665514,38.6345364 42.4993086,37.4548141 42.5034395,36.0061387 C42.5034395,34.5615848 43.6873889,33.3627541 45.1151889,33.3627541 C46.5653274,33.3627541 47.7287889,34.5615848 47.7287889,36.0061387 C47.7287889,37.448831 46.5448505,38.6458002 45.1151889,38.6458002 M40.0518043,34.6639695 L37.1962043,34.6639695 C35.4217611,34.6572477 33.6710961,34.2553515 32.0713889,33.4874772 L27.6837428,31.3429849 C25.7375385,30.3946576 23.6013748,29.9007175 21.4364197,29.898431 L1.35246587,29.898431 C0.642313502,29.9250968 0.0803672983,30.5085397 0.0803672983,31.2191925 C0.0803672983,31.9298454 0.642313502,32.5132883 1.35246587,32.5399541 L21.4568966,32.5399541 C23.230555,32.5464955 24.9805202,32.9477411 26.5798505,33.7145849 L30.9693582,35.8609387 C32.9149973,36.8089914 35.0504932,37.3029243 37.2148197,37.3054926 L40.0722813,37.3054926 C40.6572722,39.6273852 42.7412312,41.2577766 45.1356659,41.2668464 C48.0340813,41.2668464 50.3610043,38.8933848 50.3610043,35.9838002 C50.3405274,33.0760772 47.9931274,30.7026156 45.1151889,30.7026156 C42.6858813,30.7026156 40.6456351,32.3947541 40.0518043,34.6639695 Z" id="形状" fill-opacity="0.5"></path>
                    <path d="M1.35246587,26.7412618 L27.9276043,26.7412618 C28.5022342,28.274419 29.9649881,29.2925669 31.6022813,29.2990156 C33.7776203,29.2856879 35.5311315,27.5130172 35.5209098,25.3376618 C35.5311314,23.1623063 33.7776203,21.3896357 31.6022813,21.3763079 C29.8654659,21.3763079 28.3762351,22.5323233 27.8661736,24.0997387 L1.35246587,24.0997387 C0.622515365,24.0997387 0.0307735613,24.6914805 0.0307735613,25.421431 C0.0307735613,26.1513815 0.622515365,26.7431233 1.35246587,26.7431233 M36.3715428,17.2194926 C38.5476104,17.2071878 40.3022519,15.4342167 40.2920772,13.2581387 C40.3022519,11.0820607 38.5476104,9.30908963 36.3715428,9.29678487 C34.6365889,9.29678487 33.1473582,10.4509387 32.6372966,12.0202156 L1.33943512,12.0202156 C0.629282747,12.0468814 0.0673365437,12.6303243 0.0673365437,13.3409772 C0.0673365437,14.05163 0.629282747,14.6350729 1.33943512,14.6617387 L32.6950043,14.6617387 C33.2714957,16.1948959 34.7342496,17.2130438 36.3715428,17.2194926 Z" id="形状"></path>
                    <path d="M1.35246587,17.7463079 L21.0268813,17.7463079 C22.8152228,17.740579 24.2946898,16.352969 24.4148813,14.5686618 L24.4372197,10.0711849 C24.4372197,6.70738487 27.1308658,3.98395412 30.4574351,3.98395407 L40.0518043,3.98395407 C40.6437736,1.71473869 42.6858813,0.0226002477 45.1151889,0.0226002477 C47.9931274,0.0226002477 50.3610043,2.3960618 50.3610043,5.30564638 C50.3610043,8.21336945 48.0340813,10.586831 45.1356659,10.586831 C42.7412312,10.5777612 40.6572722,8.94736982 40.0722813,6.62547718 L30.477912,6.62547718 C28.5879188,6.63981661 27.0650924,8.17928592 27.0712966,10.0693233 L27.0284813,14.5686618 C26.8851428,17.8077387 24.2529274,20.3859695 21.0268813,20.3859695 L1.35246587,20.3859695 C0.65075463,20.3486872 0.100896899,19.7688397 0.100896899,19.0661387 C0.100896899,18.3634378 0.65075463,17.7835902 1.35246587,17.7463079 L1.35246587,17.7463079 Z M45.1151889,2.66412331 C43.6650505,2.66412331 42.5015889,3.86109256 42.5015889,5.30564638 C42.5015889,6.74833869 43.6650505,7.94530794 45.1151889,7.94530794 C46.5429889,7.94530794 47.7269274,6.76881563 47.7269274,5.30564638 C47.7269274,3.86109251 46.5634658,2.66226176 45.1151889,2.66226176 L45.1151889,2.66412331 Z" id="形状" fill-opacity="0.5"></path>
                </g>
                <g id="guidang-3" transform="translate(86.000000, 94.000000)">
                    <path d="M4.10568851,44 L16.8210671,44 L20.2373676,51.6892404 C21.6008239,54.7550995 24.4962534,56.7061008 27.6674382,56.7061008 L50.6929973,56.7061008 C53.8795018,56.7061008 56.7749313,54.7387046 58.1383876,51.6728454 L61.5087289,44.016395 L73.9789918,44.016395 C75.0666928,44.016395 76.1084347,44.4754541 76.8897411,45.3115975 C77.6557277,46.1313459 78.1,47.2625988 78.1,48.4266416 L78.1,70.4122947 C78.1,72.7403803 77.2267752,74.986491 75.6948019,76.6259879 C74.1558068,78.2754276 72.0666952,79.2015779 69.888623,79.2 L8.21137701,79.2 C6.03597489,79.2 3.93717144,78.2654848 2.40519812,76.6259879 C0.873224794,74.9537011 0,72.7239853 0,70.3795048 L0,48.3938516 C0,45.9673963 1.83836799,44 4.10568851,44 L4.10568851,44 Z" id="路径" fill="#3A8DFF" fill-rule="nonzero"></path>
                    <path d="M64.8848624,39.9755498 L58.2091743,39.9755498 L56.6197248,46.3057771 C55.6509174,50.1432725 52.4417431,52.8 48.7784404,52.8 L28.7665138,52.8 C24.906422,52.8 21.5761468,49.8480805 20.8041284,45.7481923 L19.7293578,39.9755498 L12.1,39.9755498 L12.1,4.41147969 C12.1,3.24711144 12.5238532,2.13194186 13.2958716,1.29556467 C14.0527523,0.475587029 15.0972477,0 16.1720183,0 L60.8431193,0 C63.0834862,0 64.9,1.96794633 64.9,4.39508013 L64.9,39.9755498 L64.8848624,39.9755498 Z" id="形状" fill="url(#linearGradient-3)" fill-rule="nonzero"></path>
                    <line x1="22.6111111" y1="20.9" x2="54.3888889" y2="20.9" id="直线-2" stroke="#FFFFFF" stroke-width="3.267" stroke-linecap="square"></line>
                    <line x1="23.1" y1="11" x2="54.8777778" y2="11" id="直线-2备份-2" stroke="#FFFFFF" stroke-width="3.267" stroke-linecap="square"></line>
                    <line x1="22.6111111" y1="30.8" x2="54.3888889" y2="30.8" id="直线-2备份" stroke="#FFFFFF" stroke-width="3.267" stroke-linecap="square"></line>
                </g>
                <path d="M49,71 L123.479318,71 L124,91" id="路径-11" stroke="#5CB6FF" stroke-dasharray="2"></path>
            </g>
        </g>
    </g>
</svg>