<?xml version="1.0" encoding="UTF-8"?>
<svg width="184px" height="180px" viewBox="0 0 184 180" version="1.1" xmlns="http://www.w3.org/2000/svg" xmlns:xlink="http://www.w3.org/1999/xlink">
    <title>编组 15</title>
    <defs>
        <linearGradient x1="73.1837385%" y1="2.8877444%" x2="13.7259239%" y2="82.9544669%" id="linearGradient-1">
            <stop stop-color="#E5F6FC" offset="0%"></stop>
            <stop stop-color="#C7D1F8" stop-opacity="0" offset="100%"></stop>
        </linearGradient>
        <linearGradient x1="50%" y1="0%" x2="50%" y2="98.8202069%" id="linearGradient-2">
            <stop stop-color="#72D0FF" offset="0%"></stop>
            <stop stop-color="#38B0FF" offset="100%"></stop>
        </linearGradient>
        <linearGradient x1="50%" y1="0%" x2="50%" y2="98.8202069%" id="linearGradient-3">
            <stop stop-color="#65AEFF" offset="0%"></stop>
            <stop stop-color="#3A8DFF" offset="100%"></stop>
        </linearGradient>
        <linearGradient x1="8.10209247%" y1="50%" x2="78.5016345%" y2="50%" id="linearGradient-4">
            <stop stop-color="#B3E9FF" offset="0%"></stop>
            <stop stop-color="#88D5FF" offset="100%"></stop>
        </linearGradient>
        <linearGradient x1="50%" y1="0%" x2="50%" y2="100%" id="linearGradient-5">
            <stop stop-color="#6BC9FF" offset="0%"></stop>
            <stop stop-color="#3A8DFF" offset="100%"></stop>
        </linearGradient>
    </defs>
    <g id="产品" stroke="none" stroke-width="1" fill="none" fill-rule="evenodd">
        <g id="存储与数据湖-对象存储02✅" transform="translate(-424.000000, -2992.000000)">
            <g id="编组-15" transform="translate(424.000000, 2992.000000)">
                <circle id="椭圆形" fill="url(#linearGradient-1)" cx="90" cy="90" r="90"></circle>
                <path d="M26,101.633429 C26,81.8142898 26,71.9047203 26,71.9047203 C26,71.9047203 26,65.7395786 32.0822704,65.7395786 C35.9699848,65.7395786 37.913842,67.7946258 37.913842,71.9047203 L37.913842,96.6929455 C38.082743,100.230982 40.0866703,102 43.925624,102 C47.7645777,102 49.6840545,100.230982 49.6840545,96.6929455 L49.6840545,67.0500452 C49.6226796,63.0166817 51.6187218,61 55.6721811,61 C59.7256404,61 61.7772331,63.0166817 61.8269592,67.0500452 L61.8269592,93.7093089 C61.9776489,95.9931545 63.3416897,97.1350773 65.9190817,97.1350773 C68.4964737,97.1350773 69.9117708,95.9931545 70.1649728,93.7093089 L70.1649728,75.3937453 C70.3971165,70.6461857 72.9082445,68.2724059 77.6983569,68.2724059 C82.4884694,68.2724059 85.0354761,70.6461857 85.3393772,75.3937453 L85.3393772,97.4834228 C87.4763873,102.636629 90.3632616,102.702502 94,97.6810421" id="路径-2" stroke-opacity="0.851316652" stroke="#52A6FF" stroke-dasharray="2"></path>
                <g id="成功" transform="translate(12.000000, 16.000000)">
                    <rect id="矩形" fill="#000000" fill-rule="nonzero" opacity="0" x="0" y="0" width="40.642487" height="40.642487"></rect>
                    <path d="M20.3212435,0 C9.09812237,0 0,9.09812237 0,20.3212435 C0,31.5443647 9.09812237,40.642487 20.3212435,40.642487 C31.5443647,40.642487 40.642487,31.5443647 40.642487,20.3212435 C40.642487,9.09812237 31.5443647,0 20.3212435,0 Z M31.4349792,15.494075 L18.1883068,28.7406681 C17.8783284,29.0506465 17.3756952,29.0506465 17.0657168,28.7406681 L9.20750781,20.8824591 C8.89752947,20.5725602 8.89752947,20.0699269 9.20750781,19.7599486 L11.6772533,17.2902824 C11.9872317,16.9802247 12.4898649,16.9803041 12.7998433,17.2902824 L17.6270912,22.1173716 L27.8428025,11.9017396 C28.1527809,11.5917612 28.6553348,11.5917612 28.9653925,11.9017396 L31.4350586,14.3714851 C31.7449576,14.6814634 31.745037,15.1840967 31.4349792,15.494075 Z" id="形状" fill="url(#linearGradient-2)"></path>
                </g>
                <g id="编组-8" transform="translate(98.000000, 58.000000)">
                    <g id="编组-11" transform="translate(76.000000, 50.000000) scale(-1, -1) rotate(-90.000000) translate(-76.000000, -50.000000) translate(39.000000, 40.000000)">
                        <rect id="矩形" fill="#479CFF" opacity="0.747698103" x="0.5" y="0.5" width="9" height="18" rx="2"></rect>
                        <rect id="矩形备份-10" fill="#479CFF" opacity="0.747698103" transform="translate(69.000000, 9.500000) scale(-1, 1) translate(-69.000000, -9.500000) " x="64.5" y="0.5" width="9" height="18" rx="2"></rect>
                        <rect id="矩形备份-9" fill="#6AC7FF" opacity="0.761672247" x="13" y="3" width="7" height="15" rx="2"></rect>
                        <rect id="矩形备份-11" fill="#6AC7FF" opacity="0.761672247" transform="translate(58.500000, 10.500000) scale(-1, 1) translate(-58.500000, -10.500000) " x="55" y="3" width="7" height="15" rx="2"></rect>
                        <rect id="矩形备份-12" fill="url(#linearGradient-2)" x="30" y="4" width="16" height="16" rx="2"></rect>
                    </g>
                    <path d="M-10.5,14.5 L77.5,14.5 C79.709139,14.5 81.5,16.290861 81.5,18.5 L81.5,77.5 C81.5,79.709139 79.709139,81.5 77.5,81.5 L-10.5,81.5 C-12.709139,81.5 -14.5,79.709139 -14.5,77.5 L-14.5,18.5 C-14.5,16.290861 -12.709139,14.5 -10.5,14.5 Z" id="矩形" fill="url(#linearGradient-3)" transform="translate(33.500000, 48.000000) scale(1, -1) rotate(-90.000000) translate(-33.500000, -48.000000) "></path>
                    <rect id="矩形" fill="url(#linearGradient-4)" x="9" y="13" width="49" height="15"></rect>
                    <circle id="椭圆形" fill="#FFFFFF" cx="18.5" cy="20.5" r="3.5"></circle>
                    <rect id="矩形备份" fill="url(#linearGradient-4)" x="9" y="40" width="49" height="15"></rect>
                    <circle id="椭圆形" fill="#FFFFFF" cx="18.5" cy="47.5" r="3.5"></circle>
                    <rect id="矩形备份-2" fill="url(#linearGradient-4)" x="9" y="67" width="49" height="15"></rect>
                    <circle id="椭圆形" fill="#FFFFFF" cx="18.5" cy="74.5" r="3.5"></circle>
                </g>
                <g id="yijianchuhang" transform="translate(9.000000, 106.000000)" fill-rule="nonzero">
                    <path d="M44.0227307,38.225385 C43.6129022,36.2038993 41.7719422,34.5841965 39.927965,34.5841965 C38.8036653,34.5837069 37.7434352,35.1075 37.0606735,36.000745 L37.0606735,35.5949393 C37.0606735,33.1676478 35.2202164,31.3457965 33.1725822,31.3457965 C31.1254507,31.3457965 29.2814736,33.3702993 29.2814735,35.5949393 L29.2814735,33.3702993 C29.2814735,30.9430078 27.4410164,29.1211565 25.3933822,29.1211565 C23.3462507,29.1211565 21.5022736,31.1456593 21.5022735,33.3702993 L21.5022735,19.410985 C21.5022735,16.9806765 19.6618164,15.1613393 17.6141822,15.1613393 C15.5670507,15.1613393 13.9267307,17.182825 13.9267307,19.4104822 L13.9267307,44.0942307 C13.9267307,45.3081279 13.1095879,46.3188707 11.8826165,46.3188707 L11.2691307,46.3188707 L5.74021645,43.8915793 C5.12673073,43.4857735 4.513245,43.6889278 3.89975927,43.4857735 C1.852125,42.8808364 0.00865072656,45.5107793 0.00865072656,47.7354193 C0.00865072656,49.1519678 1.64595355,50.971305 2.46611355,51.7824135 L17.4110278,66.955625 L40.3382965,66.955625 C40.9517822,64.1225278 43.2025707,53.4016135 44.0227307,46.7246765 C44.2289022,43.4862765 44.4330622,40.4530422 44.0227307,38.225385 Z" id="路径" fill="url(#linearGradient-5)"></path>
                    <path d="M8.09911927,22.0479678 C7.18267929,22.0528443 6.32645799,21.5920643 5.82570218,20.8245165 C2.190045,15.1321736 3.37175936,7.73112218 8.61857073,3.36984218 C13.8643765,-0.993952094 21.6184335,-1.026135 26.903965,3.29592218 C32.1859765,7.61596791 33.4350735,15.007465 29.8426622,20.7244478 C29.3959373,21.6118827 28.4951875,22.1796163 27.5018622,22.1998307 C26.5080311,22.2335086 25.5763907,21.7172407 25.0780907,20.8566993 C24.5957391,20.0072528 24.6500826,18.9551082 25.2173822,18.1598765 C27.4294507,14.6318307 26.6545479,10.0206307 23.408605,7.39772782 C20.127965,4.72403637 15.4026165,4.72403637 12.1214735,7.39772782 C8.87553073,10.0201278 8.100125,14.6318306 10.3116907,18.1598765 C10.6758469,18.7405421 10.7876981,19.4445144 10.6214507,20.1094535 C10.4519705,20.7770754 10.021501,21.3486794 9.42666218,21.6959678 C9.02021965,21.9213553 8.56385509,22.0414967 8.09911927,22.0454535 L8.09911927,22.0479678 L8.09911927,22.0479678 Z" id="路径" fill="#6BC9FF"></path>
                </g>
            </g>
        </g>
    </g>
</svg>