<?xml version="1.0" encoding="UTF-8"?>
<svg width="60px" height="58px" viewBox="0 0 60 58" version="1.1" xmlns="http://www.w3.org/2000/svg" xmlns:xlink="http://www.w3.org/1999/xlink">
    <title>movie</title>
    <g id="产品" stroke="none" stroke-width="1" fill="none" fill-rule="evenodd">
        <g id="智能视频-视频监控qvs" transform="translate(-426.000000, -1451.000000)" stroke-width="2">
            <g id="产品介绍-2" transform="translate(0.000000, 1062.000000)">
                <g id="编组-44" transform="translate(372.000000, 148.000000)">
                    <g id="编组-5" transform="translate(0.000000, 188.000000)">
                        <g id="编组-46" transform="translate(24.000000, 22.000000)">
                            <g id="movie" transform="translate(31.000000, 32.000000)">
                                <circle id="椭圆形" stroke="#00AAE7" stroke-linecap="square" cx="9.5" cy="8.5" r="8.5"></circle>
                                <circle id="椭圆形" stroke="#00AAE7" stroke-linecap="square" cx="33" cy="11" r="6"></circle>
                                <polyline id="路径" stroke="#333333" points="41 35 58 25 58 53 41 43"></polyline>
                                <path d="M36,56 L5,56 C2.23857625,56 0,53.7614237 0,51 L0,27 C0,24.2385763 2.23857625,22 5,22 L36,22 C38.7614237,22 41,24.2385763 41,27 L41,51 C41,53.7614237 38.7614237,56 36,56 Z" id="路径" stroke="#333333" stroke-linecap="square"></path>
                            </g>
                        </g>
                    </g>
                </g>
            </g>
        </g>
    </g>
</svg>