<?xml version="1.0" encoding="UTF-8"?>
<svg width="54px" height="62px" viewBox="0 0 54 62" version="1.1" xmlns="http://www.w3.org/2000/svg" xmlns:xlink="http://www.w3.org/1999/xlink">
    <title>lock-portrait</title>
    <g id="解决方案" stroke="none" stroke-width="1" fill="none" fill-rule="evenodd">
        <g id="行业解决方案-监控视频边缘存储解决方案✅" transform="translate(-933.000000, -2565.000000)">
            <g id="产品介绍-2" transform="translate(0.000000, 2388.000000)">
                <g id="01" transform="translate(772.000000, 148.000000)">
                    <g id="lock-portrait" transform="translate(162.000000, 30.000000)">
                        <circle id="椭圆形" fill="#00AAE7" fill-rule="nonzero" cx="42" cy="53" r="2"></circle>
                        <rect id="矩形" stroke="#00AAE7" stroke-width="2" stroke-linecap="square" x="32" y="46" width="20" height="14"></rect>
                        <path d="M36,46 L36,38 C36,34.6862915 38.6862915,32 42,32 L42,32 C45.3137085,32 48,34.6862915 48,38 L48,46" id="路径" stroke="#00AAE7" stroke-width="2" stroke-linecap="square"></path>
                        <line x1="0" y1="9" x2="42" y2="9" id="路径" stroke="#333333" stroke-width="2"></line>
                        <line x1="0" y1="49" x2="26" y2="49" id="路径" stroke="#333333" stroke-width="2" stroke-linecap="square"></line>
                        <path d="M26,60 L5,60 C2.23857625,60 0,57.7614237 0,55 L0,5 C0,2.23857625 2.23857625,0 5,0 L37,0 C38.3260824,0 39.597852,0.526784202 40.5355339,1.46446609 C41.4732158,2.40214799 42,3.67391755 42,5 L42,26" id="路径" stroke="#333333" stroke-width="2" stroke-linecap="square"></path>
                    </g>
                </g>
            </g>
        </g>
    </g>
</svg>