<svg xmlns="http://www.w3.org/2000/svg" width="60" height="60" viewBox="0 0 60 60">
  <g fill="none" fill-rule="evenodd" stroke-linecap="square" stroke-width="2" transform="translate(1 1)">
    <circle cx="18" cy="18" r="5" stroke="#333"/>
    <polygon stroke="#00AAE6" points="27.416 38.99 33.131 38.919 36.43 43.585 38.126 38.129 43.583 36.432 38.919 33.132 38.992 27.417 34.412 30.835 29 29 30.834 34.41"/>
    <path stroke="#00AAE6" d="M3.64701815,34.7590084 L10.0720182,55.1170084 C13.5210182,57.1880084 18.8960182,58.7080084 26.2190182,57.5780084"/>
    <path stroke="#333" d="M3.21601815,11.4180084 C1.1057026,14.985396 -0.00517866735,19.0551731 0,23.2000084 L34.8000182,58 C47.6130243,58 58.0000182,47.6130146 58.0000182,34.8000084 L23.2000182,0 C17.0464287,-0.00522927972 11.1444319,2.44194013 6.80001815,6.80000839"/>
    <line x1="14.464" x2=".967" y1="14.464" y2=".967" stroke="#333"/>
  </g>
</svg>
