<svg xmlns="http://www.w3.org/2000/svg" width="62" height="56" viewBox="0 0 62 56">
  <g fill="none" fill-rule="evenodd" stroke-linecap="square" stroke-width="2" transform="translate(1 1)">
    <path stroke="#333" d="M6.9999981 54L6.9999981 47.9C6.99862383 46.4865074 7.74335844 45.1772343 8.959 44.456 10.86 43.328 14.309 42 19.9999981 42 25.691 42 29.14 43.328 31.041 44.454 32.2572561 45.1755977 33.0020835 46.4857942 32.9999981 47.9L32.9999981 54M13 29.0000001C13 25.1340068 16.1340068 22.0000001 20 22.0000001 23.8659932 22.0000001 27 25.1340068 27 29.0000001 27 32.866 23.866 37.0000001 20 37.0000001 16.134 37.0000001 13 32.866 13 29.0000001z"/>
    <polyline stroke="#333" points="26 12 0 12 0 54 54 54 54 28"/>
    <path stroke="#00AAE6" d="M32,5 L32,17 C32,19.7614237 34.2385763,22 37,22 L38,22 L38,28 L48,22 L55,22 C57.7614237,22 60,19.7614237 60,17 L60,5 C60,2.23857625 57.7614237,1.77635684e-15 55,1.77635684e-15 L37,1.77635684e-15 C34.2385763,1.77635684e-15 32,2.23857625 32,5 Z"/>
  </g>
</svg>
