<?xml version="1.0" encoding="UTF-8"?>
<svg width="156px" height="32px" viewBox="0 0 156 32" version="1.1" xmlns="http://www.w3.org/2000/svg" xmlns:xlink="http://www.w3.org/1999/xlink">
    <title>矩形 2</title>
    <g id="产品" stroke="none" stroke-width="1" fill="none" fill-rule="evenodd">
        <g id="基础服务-证书02✅" transform="translate(-754.000000, -2931.000000)">
            <g id="个人备份" transform="translate(0.000000, 1154.000000)">
                <g id="产品介绍-2备份-2" transform="translate(0.000000, 1596.000000)">
                    <g id="编组-26备份" transform="translate(536.000000, 148.000000)">
                        <g id="矩形-2" transform="translate(218.000000, 33.000000)">
                            <rect id="矩形" stroke="#BFBFBF" fill="#FFFFFF" x="0.5" y="0.5" width="155" height="31" rx="4"></rect>
                            <rect id="矩形" fill="#4BC310" x="4" y="4" width="71" height="24" rx="2"></rect>
                            <path d="M15,8 C12.8,8 11,9.8 11,12 L11,13 L9,13 C8.4,13 8,13.4 8,14 L8,23 C8,23.6 8.4,24 9,24 L21,24 C21.6,24 22,23.6 22,23 L22,14 C22,13.4 21.6,13 21,13 L19,13 L19,12 C19,9.8 17.2,8 15,8 Z M16,19.7 L16,21 L14,21 L14,19.7 C13.4,19.4 13,18.7 13,18 C13,16.9 13.9,16 15,16 C16.1,16 17,16.9 17,18 C17,18.7 16.6,19.4 16,19.7 Z M17,13 L13,13 L13,12 C13,10.9 13.9,10 15,10 C16.1,10 17,10.9 17,12 L17,13 Z" id="形状" fill="#FFFFFF" fill-rule="nonzero"></path>
                            <text id="https" font-family="PingFangSC-Regular, PingFang SC" font-size="16" font-weight="normal" fill="#4BC310">
                                <tspan x="83" y="22">https</tspan>
                            </text>
                            <text id="://" font-family="PingFangSC-Regular, PingFang SC" font-size="16" font-weight="normal" fill="#333333">
                                <tspan x="127" y="22">://</tspan>
                            </text>
                            <text id="企业名称" font-family="PingFangSC-Regular, PingFang SC" font-size="11" font-weight="normal" fill="#FFFFFF">
                                <tspan x="25" y="20">企业名称</tspan>
                            </text>
                        </g>
                    </g>
                </g>
            </g>
        </g>
    </g>
</svg>