<?xml version="1.0" encoding="UTF-8"?>
<svg width="112px" height="32px" viewBox="0 0 112 32" version="1.1" xmlns="http://www.w3.org/2000/svg" xmlns:xlink="http://www.w3.org/1999/xlink">
    <title>矩形 2</title>
    <g id="产品" stroke="none" stroke-width="1" fill="none" fill-rule="evenodd">
        <g id="基础服务-证书02✅" transform="translate(-738.000000, -957.000000)">
            <g id="个人">
                <g id="产品介绍-2备份-5" transform="translate(0.000000, 776.000000)">
                    <g id="编组-26" transform="translate(522.000000, 148.000000)">
                        <g id="矩形-2" transform="translate(216.000000, 33.000000)">
                            <rect id="矩形" stroke="#BFBFBF" fill="#FFFFFF" x="0.5" y="0.5" width="111" height="31" rx="4"></rect>
                            <line x1="28.5" y1="7" x2="28.5" y2="25" id="直线" stroke="#BFBFBF" stroke-linecap="square"></line>
                            <g id="lock" transform="translate(8.000000, 5.000000)">
                                <path d="M7,3 C4.8,3 3,4.8 3,7 L3,8 L1,8 C0.4,8 0,8.4 0,9 L0,18 C0,18.6 0.4,19 1,19 L13,19 C13.6,19 14,18.6 14,18 L14,9 C14,8.4 13.6,8 13,8 L11,8 L11,7 C11,4.8 9.2,3 7,3 Z M8,14.7 L8,16 L6,16 L6,14.7 C5.4,14.4 5,13.7 5,13 C5,11.9 5.9,11 7,11 C8.1,11 9,11.9 9,13 C9,13.7 8.6,14.4 8,14.7 Z M9,8 L5,8 L5,7 C5,5.9 5.9,5 7,5 C8.1,5 9,5.9 9,7 L9,8 Z" id="形状" fill="#4BC310" fill-rule="nonzero"></path>
                                <text id="https" font-family="PingFangSC-Regular, PingFang SC" font-size="16" font-weight="normal" fill="#4BC310">
                                    <tspan x="27" y="17">https</tspan>
                                </text>
                                <text id="://" font-family="PingFangSC-Regular, PingFang SC" font-size="16" font-weight="normal" fill="#333333">
                                    <tspan x="71" y="17">://</tspan>
                                </text>
                            </g>
                        </g>
                    </g>
                </g>
            </g>
        </g>
    </g>
</svg>