<?xml version="1.0" encoding="UTF-8"?>
<svg width="62px" height="62px" viewBox="0 0 62 62" version="1.1" xmlns="http://www.w3.org/2000/svg" xmlns:xlink="http://www.w3.org/1999/xlink">
    <title>plug-2</title>
    <g id="解决方案" stroke="none" stroke-width="1" fill="none" fill-rule="evenodd">
        <g id="教育解决方案" transform="translate(-529.000000, -2848.000000)" stroke-width="2">
            <g id="产品介绍-2备份-3" transform="translate(0.000000, 2671.000000)">
                <g id="01" transform="translate(372.000000, 148.000000)">
                    <g id="plug-2" transform="translate(159.000000, 31.000000)">
                        <line x1="29.672" y1="9.003" x2="48.997" y2="28.328" id="路径" stroke="#00AAE7"></line>
                        <line x1="0" y1="58" x2="9.003" y2="48.997" id="路径" stroke="#333333" stroke-linecap="square"></line>
                        <line x1="25.033" y1="25" x2="19.033" y2="31" id="路径" stroke="#333333" stroke-linecap="square"></line>
                        <line x1="33.033" y1="33" x2="27.033" y2="39" id="路径" stroke="#333333" stroke-linecap="square"></line>
                        <path d="M13.337,25.337 L9,29.672 C3.66272037,35.0092799 3.66272046,43.6627201 9.0000002,48.9999998 C14.3372799,54.3372795 22.9907201,54.3372796 28.328,49 L32.663,44.666 L13.337,25.337 Z" id="路径" stroke="#333333" stroke-linecap="square"></path>
                        <line x1="58" y1="0" x2="48.997" y2="9.003" id="路径" stroke="#00AAE7" stroke-linecap="square"></line>
                        <path d="M44.663,32.663 L49,28.328 C54.3372796,22.9907201 54.3372795,14.3372799 48.9999998,9.0000002 C43.6627201,3.66272046 35.0092799,3.66272037 29.672,9 L25.337,13.334 L44.663,32.663 Z" id="路径" stroke="#00AAE7" stroke-linecap="square"></path>
                        <line x1="9.003" y1="29.672" x2="28.328" y2="48.998" id="路径" stroke="#333333"></line>
                    </g>
                </g>
            </g>
        </g>
    </g>
</svg>