<?xml version="1.0" encoding="UTF-8"?>
<svg width="60px" height="56px" viewBox="0 0 60 56" version="1.1" xmlns="http://www.w3.org/2000/svg" xmlns:xlink="http://www.w3.org/1999/xlink">
    <title>signal-2</title>
    <g id="解决方案" stroke="none" stroke-width="1" fill="none" fill-rule="evenodd" stroke-linecap="square">
        <g id="教育解决方案" transform="translate(-1330.000000, -3127.000000)" stroke-width="2">
            <g id="产品介绍-2备份-3" transform="translate(0.000000, 2671.000000)">
                <g id="01备份-3" transform="translate(1172.000000, 424.000000)">
                    <g id="signal-2" transform="translate(159.000000, 33.000000)">
                        <path d="M13,53.19 C2.32570542,46.1287558 -2.45755323,32.9050314 1.22936421,20.6490788 C4.91628165,8.39312618 16.2014948,0.0032267551 29,0.0032267551 C41.7985052,0.0032267551 53.0837183,8.39312618 56.7706358,20.6490788 C60.4575532,32.9050314 55.6742946,46.1287558 45,53.19" id="路径" stroke="#333333"></path>
                        <path d="M19,43.969 C12.4075424,39.564229 9.47354726,31.3646041 11.7750278,23.7773983 C14.0765084,16.1901925 21.0714122,11.0023705 29,11.0023705 C36.9285878,11.0023705 43.9234916,16.1901925 46.2249722,23.7773983 C48.5264527,31.3646041 45.5924576,39.564229 39,43.969" id="路径" stroke="#00AAE7"></path>
                        <circle id="椭圆形" stroke="#333333" cx="29" cy="29" r="7"></circle>
                    </g>
                </g>
            </g>
        </g>
    </g>
</svg>