<?xml version="1.0" encoding="UTF-8"?>
<svg width="46px" height="46px" viewBox="0 0 46 46" version="1.1" xmlns="http://www.w3.org/2000/svg" xmlns:xlink="http://www.w3.org/1999/xlink">
    <title>focus</title>
    <g id="解决方案" stroke="none" stroke-width="1" fill="none" fill-rule="evenodd" stroke-linecap="square">
        <g id="教育解决方案" transform="translate(-1337.000000, -463.000000)" stroke-width="2">
            <g id="矩形-2" transform="translate(372.000000, 426.000000)">
                <g id="编组-23" transform="translate(844.000000, 32.000000)">
                    <g id="编组-12" transform="translate(116.000000, 0.000000)">
                        <g id="focus" transform="translate(6.000000, 6.000000)">
                            <path d="M36,36 L8,36 L8,33.375 C8,30.948 9.45,28.76 11.692,27.831 C13.962,26.89 17.341,26 22,26 C26.659,26 30.038,26.89 32.308,27.831 C34.55,28.76 36,30.948 36,33.375 L36,36 Z" id="路径" stroke="#333333"></path>
                            <path d="M14,12 C14,7.582 17.582,4 22,4 C26.418,4 30,7.582 30,12 C30,16.418 26.418,21 22,21 C17.582,21 14,16.418 14,12 Z" id="路径" stroke="#333333"></path>
                            <polyline id="路径" stroke="#00AAE7" points="0 8 0 0 8 0"></polyline>
                            <polyline id="路径" stroke="#00AAE7" points="44 8 44 0 36 0"></polyline>
                            <polyline id="路径" stroke="#00AAE7" points="0 36 0 44 8 44"></polyline>
                            <polyline id="路径" stroke="#00AAE7" points="44 36 44 44 36 44"></polyline>
                        </g>
                    </g>
                </g>
            </g>
        </g>
    </g>
</svg>