<?xml version="1.0" encoding="UTF-8"?>
<svg width="46px" height="46px" viewBox="0 0 46 46" version="1.1" xmlns="http://www.w3.org/2000/svg" xmlns:xlink="http://www.w3.org/1999/xlink">
    <title>b-meeting</title>
    <g id="解决方案" stroke="none" stroke-width="1" fill="none" fill-rule="evenodd" stroke-linecap="square">
        <g id="教育解决方案" transform="translate(-537.000000, -463.000000)" stroke-width="2">
            <g id="矩形-2" transform="translate(372.000000, 426.000000)">
                <g id="编组-23" transform="translate(44.000000, 32.000000)">
                    <g id="编组-12" transform="translate(116.000000, 0.000000)">
                        <g id="b-meeting" transform="translate(6.000000, 6.000000)">
                            <polygon id="路径" stroke="#00AAE7" points="44 0 20 0 20 21 29 14 44 14"></polygon>
                            <path d="M18,41.672 C18,40.464 17.471,39.315 16.524,38.564 C15.078,37.416 12.57,36 9,36 C5.43,36 2.922,37.416 1.476,38.564 C0.529,39.315 0,40.464 0,41.672 L0,44 L18,44 L18,41.672 Z" id="路径" stroke="#333333"></path>
                            <circle id="椭圆形" stroke="#333333" cx="9" cy="26" r="5"></circle>
                            <path d="M44,41.672 C44,40.464 43.471,39.315 42.524,38.564 C41.078,37.416 38.57,36 35,36 C31.43,36 28.922,37.416 27.476,38.564 C26.529,39.315 26,40.464 26,41.672 L26,44 L44,44 L44,41.672 Z" id="路径" stroke="#333333"></path>
                            <circle id="椭圆形" stroke="#333333" cx="35" cy="26" r="5"></circle>
                        </g>
                    </g>
                </g>
            </g>
        </g>
    </g>
</svg>