<?xml version="1.0" encoding="UTF-8"?>
<svg width="60px" height="56px" viewBox="0 0 60 56" version="1.1" xmlns="http://www.w3.org/2000/svg" xmlns:xlink="http://www.w3.org/1999/xlink">
    <title>show</title>
    <g id="解决方案" stroke="none" stroke-width="1" fill="none" fill-rule="evenodd" stroke-linecap="square">
        <g id="教育解决方案" transform="translate(-930.000000, -1757.000000)" stroke-width="2">
            <g id="产品介绍-2备份-2" transform="translate(0.000000, 1301.000000)">
                <g id="01备份-2" transform="translate(772.000000, 424.000000)">
                    <g id="show" transform="translate(159.000000, 33.000000)">
                        <polyline id="路径" stroke="#00AAE7" points="0 54 0 49 10 49 10 54"></polyline>
                        <polyline id="路径" stroke="#00AAE7" points="32 54 32 49 42 49 42 54"></polyline>
                        <polyline id="路径" stroke="#00AAE7" points="48 54 48 49 58 49 58 54"></polyline>
                        <polyline id="路径" stroke="#00AAE7" points="16 54 16 49 26 49 26 54"></polyline>
                        <polyline id="路径" stroke="#00AAE7" points="24 43 24 38 34 38 34 43"></polyline>
                        <polyline id="路径" stroke="#00AAE7" points="8 43 8 38 18 38 18 43"></polyline>
                        <polyline id="路径" stroke="#00AAE7" points="40 43 40 38 50 38 50 43"></polyline>
                        <rect id="矩形" stroke="#333333" x="6" y="0" width="46" height="32"></rect>
                        <line x1="12" y1="26" x2="46" y2="26" id="路径" stroke="#333333"></line>
                    </g>
                </g>
            </g>
        </g>
    </g>
</svg>