<svg xmlns="http://www.w3.org/2000/svg" width="38" height="46" viewBox="0 0 38 46">
  <g fill="none" fill-rule="evenodd" stroke-width="2" transform="translate(1 1)">
    <path stroke="#333" stroke-linecap="square" d="M0,0 L0,12 C0.0131792044,16.4128075 3.58719254,19.9868208 8,20 L28,20 C32.4128075,19.9868208 35.9868208,16.4128075 36,12 L36,0"/>
    <path stroke="#333" d="M0,7 C6.85692555,7.02194324 13.3888652,9.92502754 18,15 C22.6111348,9.92502754 29.1430745,7.02194324 36,7"/>
    <path stroke="#00AAE6" stroke-linecap="square" d="M18,28 L0,28 L0,34 C6.84713504,33.8559084 13.1290906,37.7821306 16,44 L20,44 C22.8709094,37.7821306 29.152865,33.8559084 36,34 L36,28 L18,28 Z"/>
  </g>
</svg>
