<svg xmlns="http://www.w3.org/2000/svg" width="46" height="46" viewBox="0 0 46 46">
  <g fill="none" fill-rule="evenodd" stroke-width="2" transform="translate(1 1)">
    <path stroke="#00AAE6" d="M24.91 27.463C25.14 29.159 25.978 32.354 29.023 33.369 33.006 34.697 35.73 36.182 36.001 40.958L36.001 44M19.131 27.462C18.906 29.15 18.083 32.349 15.022 33.37 11.039 34.698 8.315 36.183 8.044 40.96L8 44"/>
    <path stroke="#00AAE6" stroke-linecap="square" d="M22.022,28 L22.022,28 C17.604,28 14.022,24.418 14.022,20 L14.022,18 C14.022,13.582 17.604,10 22.022,10 L22.022,10 C26.44,10 30.022,13.582 30.022,18 L30.022,20 C30.022,24.418 26.441,28 22.022,28 Z"/>
    <rect width="44" height="44" stroke="#333" stroke-linecap="square"/>
  </g>
</svg>
