<svg xmlns="http://www.w3.org/2000/svg" width="52" height="42" viewBox="0 0 52 42">
  <g fill="none" fill-rule="evenodd" transform="translate(1 1)">
    <polyline stroke="#333" stroke-linecap="square" stroke-width="2" points="21 40 0 40 0 0 40 0 40 21"/>
    <path fill="#00AAE6" fill-rule="nonzero" d="M29,39 L30.04,36.136 L34.824,36.136 L35.864,39 L37.864,39 L33.496,27.576 L31.368,27.576 L27,39 L29,39 Z M34.264,34.6 L30.6,34.6 L32.408,29.592 L32.472,29.592 L34.264,34.6 Z M45.16,39 C47.016,39 48.408,38.488 49.368,37.464 C50.28,36.488 50.744,35.096 50.744,33.288 C50.744,31.464 50.28,30.072 49.368,29.112 C48.408,28.088 47.016,27.576 45.16,27.576 L40.984,27.576 L40.984,39 L45.16,39 Z M44.808,37.4 L42.856,37.4 L42.856,29.176 L44.808,29.176 C46.232,29.176 47.272,29.496 47.928,30.152 C48.568,30.792 48.888,31.848 48.888,33.288 C48.888,34.696 48.568,35.736 47.928,36.408 C47.272,37.064 46.232,37.4 44.808,37.4 Z"/>
    <circle cx="15" cy="10" r="4" stroke="#333" stroke-linecap="square" stroke-width="2"/>
    <polyline stroke="#333" stroke-linecap="square" stroke-width="2" points="7 30 15 20 23 26 33 14"/>
  </g>
</svg>
