<?xml version="1.0" encoding="UTF-8"?>
<svg width="520px" height="350px" viewBox="0 0 520 350" version="1.1" xmlns="http://www.w3.org/2000/svg" xmlns:xlink="http://www.w3.org/1999/xlink">
    <title>插画</title>
    <defs>
        <filter x="-55.0%" y="-254.8%" width="210.0%" height="609.5%" filterUnits="objectBoundingBox" id="filter-1">
            <feGaussianBlur stdDeviation="50" in="SourceGraphic"></feGaussianBlur>
        </filter>
        <linearGradient x1="50%" y1="0%" x2="50%" y2="100%" id="linearGradient-2">
            <stop stop-color="#7AE9FF" stop-opacity="0" offset="0%"></stop>
            <stop stop-color="#44CFFF" offset="100%"></stop>
        </linearGradient>
        <linearGradient x1="50%" y1="0%" x2="50%" y2="100%" id="linearGradient-3">
            <stop stop-color="#7AE9FF" stop-opacity="0" offset="0%"></stop>
            <stop stop-color="#56D3FF" stop-opacity="0.500027316" offset="100%"></stop>
        </linearGradient>
        <filter x="-10.3%" y="-163.6%" width="120.7%" height="427.3%" filterUnits="objectBoundingBox" id="filter-4">
            <feGaussianBlur stdDeviation="6" in="SourceGraphic"></feGaussianBlur>
        </filter>
        <linearGradient x1="50%" y1="0%" x2="50%" y2="100%" id="linearGradient-5">
            <stop stop-color="#00D4F5" stop-opacity="0" offset="0%"></stop>
            <stop stop-color="#00BCED" offset="48.7070261%"></stop>
            <stop stop-color="#00AAE7" stop-opacity="0" offset="100%"></stop>
        </linearGradient>
        <linearGradient x1="50%" y1="0%" x2="50%" y2="100%" id="linearGradient-6">
            <stop stop-color="#00D4F5" stop-opacity="0" offset="0%"></stop>
            <stop stop-color="#00BCED" offset="48.7070261%"></stop>
            <stop stop-color="#00AAE7" stop-opacity="0" offset="100%"></stop>
        </linearGradient>
        <linearGradient x1="50%" y1="0%" x2="50%" y2="97.6061022%" id="linearGradient-7">
            <stop stop-color="#E2F7FF" offset="0%"></stop>
            <stop stop-color="#94D8FF" offset="100%"></stop>
        </linearGradient>
        <linearGradient x1="50%" y1="0%" x2="50%" y2="97.6061022%" id="linearGradient-8">
            <stop stop-color="#E2F7FF" offset="0%"></stop>
            <stop stop-color="#94D8FF" offset="100%"></stop>
        </linearGradient>
        <linearGradient x1="50%" y1="0%" x2="50%" y2="97.6061022%" id="linearGradient-9">
            <stop stop-color="#E2F7FF" offset="0%"></stop>
            <stop stop-color="#94D8FF" offset="100%"></stop>
        </linearGradient>
        <linearGradient x1="50%" y1="0%" x2="50%" y2="97.6061022%" id="linearGradient-10">
            <stop stop-color="#E2F7FF" offset="0%"></stop>
            <stop stop-color="#94D8FF" offset="100%"></stop>
        </linearGradient>
        <linearGradient x1="50%" y1="0%" x2="50%" y2="100%" id="linearGradient-11">
            <stop stop-color="#C8F1FF" offset="0%"></stop>
            <stop stop-color="#97DFFD" offset="100%"></stop>
        </linearGradient>
        <path d="M11,16 C12.1045695,16 13,16.8954305 13,18 C13,19.1045695 12.1045695,20 11,20 C9.8954305,20 9,19.1045695 9,18 C9,16.8954305 9.8954305,16 11,16 Z M32,16 C33.1045695,16 34,16.8954305 34,18 C34,19.1045695 33.1045695,20 32,20 L17,20 C15.8954305,20 15,19.1045695 15,18 C15,16.8954305 15.8954305,16 17,16 L32,16 Z M11,9 C12.1045695,9 13,9.8954305 13,11 C13,12.1045695 12.1045695,13 11,13 C9.8954305,13 9,12.1045695 9,11 C9,9.8954305 9.8954305,9 11,9 Z M37,9 C38.1045695,9 39,9.8954305 39,11 C39,12.1045695 38.1045695,13 37,13 L17,13 C15.8954305,13 15,12.1045695 15,11 C15,9.8954305 15.8954305,9 17,9 L37,9 Z" id="path-12"></path>
        <filter x="-5.0%" y="-13.6%" width="110.0%" height="127.3%" filterUnits="objectBoundingBox" id="filter-13">
            <feGaussianBlur stdDeviation="1" in="SourceAlpha" result="shadowBlurInner1"></feGaussianBlur>
            <feOffset dx="0" dy="1" in="shadowBlurInner1" result="shadowOffsetInner1"></feOffset>
            <feComposite in="shadowOffsetInner1" in2="SourceAlpha" operator="arithmetic" k2="-1" k3="1" result="shadowInnerInner1"></feComposite>
            <feColorMatrix values="0 0 0 0 0.2   0 0 0 0 0.568627451   0 0 0 0 0.819607843  0 0 0 0.5 0" type="matrix" in="shadowInnerInner1"></feColorMatrix>
        </filter>
    </defs>
    <g id="产品" stroke="none" stroke-width="1" fill="none" fill-rule="evenodd">
        <g id="机器与数据智能-机器数据分析平台✅" transform="translate(-1028.000000, -120.000000)">
            <g id="banner" transform="translate(0.000000, 120.000000)">
                <g id="编组-35">
                    <rect id="矩形" x="0" y="0" width="1920" height="350"></rect>
                    <g id="插画" transform="translate(1135.000000, 40.000000)">
                        <g id="编组-22" transform="translate(0.000000, 155.000000)">
                            <ellipse id="椭圆形" fill="#00BDFF" filter="url(#filter-1)" cx="149.36" cy="49.12" rx="136.32" ry="29.44"></ellipse>
                            <ellipse id="椭圆形" fill="url(#linearGradient-2)" cx="150" cy="29.44" rx="150" ry="29.44"></ellipse>
                            <ellipse id="椭圆形" fill="url(#linearGradient-3)" cx="150" cy="52.44" rx="150" ry="29.44"></ellipse>
                            <ellipse id="椭圆形" fill-opacity="0.4" fill="#0784DA" filter="url(#filter-4)" cx="150" cy="30.5" rx="87" ry="5.5"></ellipse>
                        </g>
                        <g id="编组-21" transform="translate(2.000000, 0.000000)" fill-rule="nonzero">
                            <path d="M4,100 L4,126 L4,126 L0,126 L0,96 C2.209139,96 4,97.790861 4,100 Z" id="路径" fill="url(#linearGradient-5)"></path>
                            <path d="M27,33 L27,60 L27,60 L24,60 L24,30 C25.6568542,30 27,31.3431458 27,33 Z" id="路径" fill="url(#linearGradient-6)"></path>
                            <path d="M275,37 L275,63 L275,63 L271,63 L271,33 C273.209139,33 275,34.790861 275,37 Z" id="路径" fill="url(#linearGradient-5)"></path>
                            <path d="M298,109 L298,135 L298,135 L294,135 L294,105 C296.209139,105 298,106.790861 298,109 Z" id="路径" fill="url(#linearGradient-5)" opacity="0.300000012"></path>
                            <path d="M228,4 L228,30 L228,30 L224,30 L224,0 C226.209139,-4.05812251e-16 228,1.790861 228,4 Z" id="路径" fill="url(#linearGradient-5)" opacity="0.400000006"></path>
                            <path d="M312,166 L312,193 L312,193 L309,193 L309,163 C310.656854,163 312,164.343146 312,166 Z" id="路径" fill="url(#linearGradient-6)" opacity="0.449999988"></path>
                        </g>
                        <g id="编组-48" transform="translate(43.000000, 45.000000)">
                            <g id="编组-21备份" transform="translate(24.000000, 93.000000)">
                                <rect id="矩形" fill="url(#linearGradient-7)" x="0" y="6" width="32" height="40"></rect>
                                <polygon id="矩形" fill="#78CAF6" points="4.08695652 0 27.770921 0 32 6 -1.04521947e-12 6"></polygon>
                            </g>
                            <g id="编组-21备份" transform="translate(68.000000, 65.000000)">
                                <rect id="矩形" fill="url(#linearGradient-8)" x="0" y="6" width="32" height="68"></rect>
                                <polygon id="矩形" fill="#78CAF6" points="4.08695652 0 27.770921 0 32 6 -1.04521947e-12 6"></polygon>
                            </g>
                            <g id="编组-21备份" transform="translate(156.000000, 73.000000)">
                                <rect id="矩形" fill="url(#linearGradient-9)" x="0" y="6" width="32" height="60"></rect>
                                <polygon id="矩形" fill="#78CAF6" points="4.08695652 0 27.770921 0 32 6 7.73769937e-13 6"></polygon>
                            </g>
                            <g id="编组-21备份" transform="translate(112.000000, 16.000000)">
                                <polygon id="矩形" fill="url(#linearGradient-10)" points="0 6 32 6 32 123 0 123"></polygon>
                                <polygon id="矩形" fill="#78CAF6" points="4.08695652 0 27.770921 0 32 6 7.73769937e-13 6"></polygon>
                            </g>
                            <g id="编组-59">
                                <path d="M25.5,0 C38.4786916,0 49,10.5213084 49,23.5 C49,36.4786916 38.4786916,47 25.5,47 C12.5213084,47 2,36.4786916 2,23.5 C2,10.5213084 12.5213084,0 25.5,0 Z M24,18 C20.1340068,18 17,21.1340068 17,25 C17,28.8659932 20.1340068,32 24,32 C27.8659932,32 31,28.8659932 31,25 C31,21.1340068 27.8659932,18 24,18 Z" id="形状结合" fill="#3391D1"></path>
                                <g id="Chart" transform="translate(0.000000, 1.000000)">
                                    <path d="M29.0511329,28.5039 C27.5729953,30.0679 25.4790636,31.05 23.1501577,31.05 C18.6752322,31.05 15.0476025,27.4459 15.0476025,23 C15.0476025,18.5541 18.6752322,14.95 23.1501577,14.95 L23.1501577,0 C10.419886,0 0,10.3523 0,23 C0,35.6477 10.419886,46 23.1501577,46 C29.8370808,46 35.8804294,43.1894 40,38.7182 L29.0511329,28.5039 Z" id="Value" fill="#9ADEFF"></path>
                                    <path d="M23,0 L23,14.95 C27.4459,14.95 31.05,18.5541 31.05,23 L46,23 C46,10.3523 35.6477,0 23,0 Z" id="Value" fill="#B3EBFF"></path>
                                    <path d="M31.0727226,23 C31.0727226,25.5552376 29.9392093,27.9033788 28.0698549,29.3698928 L37.321558,41.1675725 C42.7466743,37.2533413 46,30.3119634 46,23 L31.0727226,23 Z" id="Value" fill="#7FC5F6"></path>
                                </g>
                            </g>
                            <g id="形状结合-2" transform="translate(172.000000, 16.000000)">
                                <path d="M44,1 C44.6186282,1 45.2110161,1.11234796 45.7578735,1.31775361 L45.8856036,1.22804747 L46.080495,1.45206689 C47.803294,2.24146354 49,3.98097894 49,6 L49,26 C49,28.7614237 46.7614237,31 44,31 L8,31 L2.001,36.999 L2.00186521,37 L2,37 L2,36.999 L0,35 L2,32.796 L2,6 C2,3.23857625 4.23857625,1 7,1 L44,1 Z" id="形状结合" fill="#3391D1"></path>
                                <path d="M0,4 C-2.705415e-16,1.790861 1.790861,4.05812251e-16 4,0 L43,0 C45.209139,-4.05812251e-16 47,1.790861 47,4 L47,25 C47,27.209139 45.209139,29 43,29 L6,29 L0,35 L0,4 Z" id="形状结合" fill="url(#linearGradient-11)"></path>
                                <g id="形状结合">
                                    <use fill="#60BBF2" fill-rule="evenodd" xlink:href="#path-12"></use>
                                    <use fill="black" fill-opacity="1" filter="url(#filter-13)" xlink:href="#path-12"></use>
                                </g>
                            </g>
                        </g>
                    </g>
                </g>
            </g>
        </g>
    </g>
</svg>