<svg xmlns="http://www.w3.org/2000/svg" width="62" height="62" viewBox="0 0 62 62">
  <g fill="none" fill-rule="evenodd" stroke-linecap="square" stroke-width="2" transform="translate(1 1)">
    <path stroke="#333" d="M48 49L12 49 12 44.517C12 40.967 14.328 37.848 17.733 36.84 20.92 35.896 25.208 35 30 35 34.713 35 39.027 35.911 42.25 36.864 45.661 37.872 48 40.989 48 44.546L48 49zM20 17C20 11.477 24.477 7 30 7 35.523 7 40 11.477 40 17 40 22.523 35.523 29 30 29 24.477 29 20 22.523 20 17z"/>
    <polyline stroke="#00AAE7" points="0 12 0 0 12 0"/>
    <polyline stroke="#00AAE7" points="48 0 60 0 60 12"/>
    <polyline stroke="#00AAE7" points="0 48 0 60 12 60"/>
    <polyline stroke="#00AAE7" points="48 60 60 60 60 48"/>
  </g>
</svg>
