<svg xmlns="http://www.w3.org/2000/svg" width="62" height="49" viewBox="0 0 62 49">
  <g fill="none" fill-rule="evenodd" stroke-linecap="square" stroke-width="2" transform="translate(1 1)">
    <line x2="12" y1="42" y2="42" stroke="#00AAE7"/>
    <line x1="22" y1="6" y2="6" stroke="#00AAE7"/>
    <line x1="22" y1="18" y2="18" stroke="#00AAE7"/>
    <line x1="12" y1="30" y2="30" stroke="#00AAE7"/>
    <path stroke="#333" d="M24 47L60 47 60 37.517C60 33.967 57.672 30.848 54.267 29.84 51.08 28.896 46.792 28 42 28 37.287 28 32.973 28.911 29.75 29.864 26.339 30.872 24 33.988 24 37.545L24 47zM52 10C52 4.477 47.523 0 42 0 36.477 0 32 4.477 32 10 32 15.523 36.477 22 42 22 47.523 22 52 15.523 52 10z"/>
  </g>
</svg>
