<?xml version="1.0" encoding="UTF-8"?>
<svg width="30px" height="30px" viewBox="0 0 30 30" version="1.1" xmlns="http://www.w3.org/2000/svg" xmlns:xlink="http://www.w3.org/1999/xlink">
    <g id="首页" stroke="none" stroke-width="1" fill="none" fill-rule="evenodd">
        <g id="切图" transform="translate(-154.000000, -274.000000)" fill="currentColor">
            <path d="M168.999063,274 C160.71625,274 154,280.885378 154,289.380837 C154,296.174897 158.2975,301.939466 164.259062,303.973455 C165.009062,304.114757 165.282813,303.639903 165.282813,303.232337 C165.282813,302.867065 165.269687,301.900055 165.262188,300.616797 C161.089375,301.546318 160.209062,298.554932 160.209062,298.554932 C159.5275,296.778557 158.544062,296.305625 158.544062,296.305625 C157.181875,295.351112 158.647188,295.370337 158.647188,295.370337 C160.151875,295.478957 160.944062,296.955425 160.944062,296.955425 C162.282813,299.305662 164.455,298.627025 165.31,298.232916 C165.445938,297.238992 165.834062,296.561316 166.2625,296.176819 C162.931562,295.788477 159.43,294.469653 159.43,288.576277 C159.43,286.896987 160.014062,285.524333 160.974063,284.448703 C160.819375,284.0594 160.304688,282.49642 161.120313,280.378803 C161.120313,280.378803 162.380313,279.965469 165.245313,281.955241 C166.4425,281.614 167.725,281.44386 169.000937,281.437131 C170.275,281.44386 171.558437,281.614 172.756563,281.955241 C175.619687,279.965469 176.876875,280.378803 176.876875,280.378803 C177.695312,282.49642 177.180625,284.0594 177.025937,284.448703 C177.987812,285.524333 178.568125,286.896987 178.568125,288.576277 C178.568125,294.484071 175.060937,295.784632 171.719687,296.165284 C172.257812,296.640138 172.737812,297.57831 172.737812,299.013445 C172.737812,301.069542 172.719062,302.727685 172.719062,303.232337 C172.719062,303.643748 172.989062,304.122447 173.750313,303.971532 C179.70625,301.933699 184,296.172974 184,289.380837 C184,280.885378 177.28375,274 168.999063,274" id="Github_d"></path>
        </g>
    </g>
</svg>