<?xml version="1.0" encoding="UTF-8"?>
<svg width="14px" height="14px" viewBox="0 0 14 14" version="1.1" xmlns="http://www.w3.org/2000/svg" xmlns:xlink="http://www.w3.org/1999/xlink">
   <g id="首页" stroke="none" stroke-width="1" fill="none" fill-rule="evenodd">
        <g transform="translate(-1233.000000, -3972.000000)" fill="#999999" fill-rule="nonzero" id="footer">
            <g transform="translate(0.000000, 3508.000000)">
                <g id="编组-49" transform="translate(372.000000, 444.000000)">
                    <g id="编组-52" transform="translate(745.000000, 0.000000)">
                        <path d="M130,26.9998354 C130,30.8658827 126.865914,33.9999059 122.999851,33.9999059 C119.134102,33.9999059 116,30.865867 116,26.9998354 C116,23.1337725 119.13407,20 122.999835,20 C126.86593,20 130,23.1337725 130,26.9998354 Z M119.216256,23.7983339 C118.635987,24.3783082 119.185997,26.5408885 121.322392,28.6774856 C123.459413,30.8141013 125.621643,31.3632092 126.20158,30.7838983 C126.704251,30.2805463 127.582919,29.6676601 126.43915,28.7490587 C125.295031,27.8297756 124.975458,28.2820461 124.456664,28.8001403 C124.094117,29.1633682 123.177119,28.4063776 122.385503,27.6147246 C121.594219,26.8224081 120.837836,25.9061286 121.19935,25.5429007 C121.718182,25.0241062 122.170102,24.7042386 121.2508,23.5607827 C120.331186,22.4173637 119.719,23.295332 119.216274,23.7983339 L119.216256,23.7983339 Z" id="phone"></path>
                    </g>
                </g>
            </g>
        </g>
    </g>
</svg>