<svg width="78" height="22" viewBox="0 0 78 22" fill="none" xmlns="http://www.w3.org/2000/svg">
<mask id="mask0_594_966" style="mask-type:alpha" maskUnits="userSpaceOnUse" x="0" y="0" width="31" height="21">
<path d="M0 0.0800171H30.5205V20.41H0V0.0800171Z" fill="white"/>
</mask>
<g mask="url(#mask0_594_966)">
<path fill-rule="evenodd" clip-rule="evenodd" d="M30.5205 0.315621C30.0068 0.139371 29.5817 0.354121 29.338 0.537371C25.957 4.53362 20.9053 7.07137 15.2603 7.07137C13.3208 7.07137 11.4513 6.77187 9.6955 6.21637C9.23825 4.55712 8.915 3.37912 8.915 3.37912C8.915 3.37912 8.53525 2.22312 7.25 2.42137L7.6195 5.41612C5.127 4.27887 2.931 2.60362 1.1825 0.536871C0.9385 0.354121 0.51375 0.139371 0 0.315621C1.4605 4.22237 4.37875 7.41662 8.092 9.24037L9.10475 17.4419C9.10475 17.4419 9.5575 20.5801 12.502 20.5801H18.8C21.7445 20.5801 22.1973 17.4419 22.1973 17.4419L22.909 11.5644C20.9967 11.4086 19.7943 12.7411 19.4128 14.0561C18.7725 16.2704 18.7732 16.4119 18.647 16.7981C18.3885 17.5889 17.5403 17.6831 17.5403 17.6831H13.762C13.762 17.6831 12.9132 17.5889 12.6547 16.7981C12.4882 16.2889 11.6567 13.3099 10.8197 10.2876C12.2315 10.6869 13.721 10.9011 15.2603 10.9011C22.2495 10.9011 28.209 6.49837 30.5205 0.315621Z" fill="currentColor"/>
</g>
<path fill-rule="evenodd" clip-rule="evenodd" d="M77.8348 12.6241V10.4211H64.1113V12.6241H66.6365L64.6838 17.5323H64.65V19.7353H76.393C77.1303 19.6816 77.7928 19.0263 77.7928 18.3471C77.7928 18.0091 77.684 17.6238 77.6615 17.5468H77.663L76.669 14.8093H74.2385L75.227 17.5323H67.0668L69.0193 12.6241H77.8348ZM56.4613 9.32408H61.3543V7.17334H56.4613V4.99384H54.2583V7.17334H50.8743L51.1568 5.55759H48.854L47.6775 12.2868H48.6138C48.9255 12.2556 49.9728 12.0576 50.238 10.8106L50.498 9.32408H54.2583V15.8871H47.6888V18.0901H54.2583V20.2568H56.4613V18.0901H61.91V15.8871H56.4613V9.32408ZM35.7125 5.01709H33.5095V7.16409H31.3213V9.38458H33.5095V18.3506C33.5718 19.0916 34.1655 19.6801 34.908 19.7353L43.5613 19.7351C44.3385 19.7006 44.964 19.0816 45.0085 18.3071V14.8016H42.8095V17.4801H35.7125V9.38458H45.5388V7.16409H35.7125V5.01709ZM64.6838 7.68134H77.2363V5.53034H64.6838V7.68134Z" fill="currentColor"/>
</svg>
