<?xml version="1.0" encoding="UTF-8"?>
<svg width="30px" height="30px" viewBox="0 0 30 30" version="1.1" xmlns="http://www.w3.org/2000/svg" xmlns:xlink="http://www.w3.org/1999/xlink">
    <g id="首页" stroke="none" stroke-width="1" fill="none" fill-rule="evenodd">
        <g id="切图" transform="translate(-204.000000, -274.000000)" fill="currentColor">
            <path d="M219,274 C227.284272,274 234,280.715728 234,289 C234,297.284272 227.284272,304 219,304 C210.715728,304 204,297.284272 204,289 C204,280.715728 210.715728,274 219,274 Z M216.821198,282.254187 C214.435902,282.254187 208.2,287.486291 208.2,290.8 C208.2,294.113709 212.363752,296.8 217.5,296.8 C222.636248,296.8 226.759927,294.113709 226.759927,290.8 C226.759927,288.000581 223.254267,288.000581 223.254267,287.819876 C223.254267,287.639172 225,286.012835 223.254267,285.000891 C221.508533,283.988947 218.315369,285.527474 218.411395,285.362299 C219.784747,283 217.821777,282.254187 216.821198,282.254187 Z M216.657225,287.237955 C219.938685,286.776775 222.841842,288.132012 223.141608,290.264961 C223.441375,292.39791 221.024235,294.500866 217.742775,294.962045 C214.461315,295.423225 211.558158,294.067988 211.258392,291.935039 C210.958625,289.80209 213.375765,287.699134 216.657225,287.237955 Z M215.991432,288.491259 C214.039736,288.870631 212.713859,290.49664 213.030001,292.123053 C213.346144,293.749466 215.18459,294.760394 217.136286,294.381022 C219.087982,294.001651 220.41386,292.375642 220.097717,290.749228 C219.781574,289.122815 217.943128,288.111888 215.991432,288.491259 Z M215.055784,291.137309 C215.656432,290.857222 216.313645,290.995358 216.52371,291.445844 C216.733775,291.89633 216.417145,292.488576 215.816497,292.768663 C215.215849,293.04875 214.558637,292.910614 214.348571,292.460128 C214.138506,292.009642 214.455136,291.417396 215.055784,291.137309 Z M217.2,290.2 C217.531371,290.2 217.8,290.468629 217.8,290.8 C217.8,291.131371 217.531371,291.4 217.2,291.4 C216.868629,291.4 216.6,291.131371 216.6,290.8 C216.6,290.468629 216.868629,290.2 217.2,290.2 Z M223.493777,280.033005 C222.943784,280.020853 222.463214,280.308369 222.203944,280.74662 L222.175,280.799 L222.229712,280.895446 C222.496462,281.314225 222.969214,281.594205 223.506722,281.618704 C223.506722,281.618704 225.458858,281.288236 226.651505,283 C227.844153,284.711764 227.386288,286.01568 227.386288,286.01568 C227.328655,286.560206 227.57393,287.035999 227.992599,287.292691 L228.043,287.32 L228.13903,287.270168 C228.591076,287.008548 228.91765,286.542025 228.946639,285.998622 C228.946639,285.998622 229.542772,283.482976 227.555026,281.603652 C225.56728,279.724328 223.493777,280.033005 223.493777,280.033005 Z M223.589634,282.910274 C223.238274,282.94213 222.929681,283.152227 222.754074,283.44676 L222.725,283.501 L222.756343,283.556321 C222.934396,283.83111 223.246893,284.013676 223.600933,284.031734 C223.600933,284.031734 224.230069,283.844384 224.808322,284.53106 C225.386576,285.217736 225.040682,285.78037 225.040682,285.78037 C224.946574,286.167267 225.11112,286.500444 225.41853,286.650626 L225.453,286.665 L225.531998,286.63433 C225.889047,286.472204 226.167935,286.132713 226.203633,285.742309 C226.203633,285.742309 226.615364,284.53106 225.531139,283.555258 C224.446914,282.579455 223.589634,282.910274 223.589634,282.910274 Z" id="sina_weibo_d"></path>
        </g>
    </g>
</svg>