<?xml version="1.0" encoding="UTF-8"?>
<svg width="30px" height="30px" viewBox="0 0 30 30" version="1.1" xmlns="http://www.w3.org/2000/svg" xmlns:xlink="http://www.w3.org/1999/xlink">
    <g id="首页" stroke="none" stroke-width="1" fill="none" fill-rule="evenodd">
        <g id="切图" transform="translate(-104.000000, -274.000000)" fill="currentColor">
            <path d="M119,274 C127.284272,274 134,280.715728 134,289 C134,297.284272 127.284272,304 119,304 C110.715728,304 104,297.284272 104,289 C104,280.715728 110.715728,274 119,274 Z M116.3,281.2 C112.489235,281.2 109.4,283.869626 109.4,287.162777 C109.4,289.129997 110.502386,290.874713 112.202436,291.960762 C112.392904,292.082439 111.570315,293.795041 111.775077,293.89957 C112.118769,294.075019 113.502155,292.626256 113.880762,292.748763 C114.633583,292.992355 115.448791,293.125554 116.3,293.125554 C116.726552,293.125554 117.144064,293.092106 117.549215,293.028079 C118.350346,294.853468 120.443737,296.155769 122.9,296.155769 C123.571288,296.155769 124.215473,296.058499 124.813589,295.879856 C125.009975,295.8212 126.339019,296.988371 126.524801,296.912733 C126.826227,296.790011 125.975189,295.411078 126.244065,295.247536 C127.671636,294.379225 128.6,292.969432 128.6,291.377885 C128.6,288.81501 126.192679,286.723436 123.170043,286.605267 C122.845237,283.573764 119.893401,281.2 116.3,281.2 Z M116.3,282.4 C119.23965,282.4 121.659549,284.266896 121.967024,286.664541 C119.261978,287.03771 117.2,289.005952 117.2,291.377885 C117.2,291.554257 117.211401,291.728398 117.233619,291.899817 C116.930537,291.941962 116.618316,291.963852 116.3,291.963852 C115.504271,291.963852 114.746625,291.82706 114.058651,291.579978 C113.990025,291.555331 113.74531,291.481495 113.612926,291.579978 C113.315333,291.801364 112.916279,292.260896 112.916279,292.260896 C112.916279,292.260896 113.062371,291.926292 113.11134,291.437668 C113.133715,291.214405 112.792968,291.057858 112.724964,291.011861 C111.429042,290.135307 110.6,288.687201 110.6,287.181926 C110.6,284.540941 113.151977,282.4 116.3,282.4 Z M120.8,289 C121.131371,289 121.4,289.268629 121.4,289.6 C121.4,289.931371 121.131371,290.2 120.8,290.2 C120.468629,290.2 120.2,289.931371 120.2,289.6 C120.2,289.268629 120.468629,289 120.8,289 Z M124.4,289 C124.731371,289 125,289.268629 125,289.6 C125,289.931371 124.731371,290.2 124.4,290.2 C124.068629,290.2 123.8,289.931371 123.8,289.6 C123.8,289.268629 124.068629,289 124.4,289 Z M113.9,284.2 C113.402944,284.2 113,284.602944 113,285.1 C113,285.597056 113.402944,286 113.9,286 C114.397056,286 114.8,285.597056 114.8,285.1 C114.8,284.602944 114.397056,284.2 113.9,284.2 Z M118.7,284.2 C118.202944,284.2 117.8,284.602944 117.8,285.1 C117.8,285.597056 118.202944,286 118.7,286 C119.197056,286 119.6,285.597056 119.6,285.1 C119.6,284.602944 119.197056,284.2 118.7,284.2 Z" id="wechat_d"></path>
        </g>
    </g>
</svg>