<svg width="24" height="24" viewBox="0 0 24 24" fill="none" xmlns="http://www.w3.org/2000/svg">
<path fill-rule="evenodd" clip-rule="evenodd" d="M0 9.29478C0 5.64678 3.774 2.30078 8.704 2.30078C12.774 2.30078 16.377 4.70078 17.101 8.16978C16.977 8.16478 16.853 8.16178 16.729 8.16178C11.281 8.16178 8.83 12.1268 8.83 14.9418C8.83 15.4398 8.907 15.9728 9.062 16.5138C8.845 16.5038 6.611 16.3968 5.559 16.0618L3.179 17.4108C2.941 17.5458 2.658 17.3278 2.728 17.0628L3.258 15.0558C3.258 15.0558 0 12.9428 0 9.29478ZM4.377 7.02978C4.377 7.62778 4.862 8.11178 5.459 8.11178C6.057 8.11178 6.541 7.62778 6.541 7.02978C6.541 6.43178 6.057 5.94778 5.459 5.94778C4.861 5.94778 4.377 6.43178 4.377 7.02978ZM10.666 7.02978C10.666 7.62778 11.151 8.11178 11.748 8.11178C12.346 8.11178 12.83 7.62778 12.83 7.02978C12.83 6.43178 12.345 5.94778 11.748 5.94778C11.15 5.94778 10.666 6.43178 10.666 7.02978ZM16.7297 8.9668C20.2517 8.9668 23.9997 11.3068 23.9997 14.5018C23.9997 16.4378 23.1577 18.3808 21.3887 19.6138L21.8137 21.4588C21.8527 21.6288 21.6657 21.7618 21.5177 21.6678L19.6447 20.4788C18.8017 20.7588 17.8317 20.9168 16.7297 20.9168C11.7487 20.9168 9.63574 17.3238 9.63574 14.9418C9.63574 12.5638 11.7487 8.9668 16.7297 8.9668ZM13.4957 12.9388C13.4957 13.4668 13.9237 13.8948 14.4517 13.8948C14.9797 13.8948 15.4077 13.4668 15.4077 12.9388C15.4077 12.4108 14.9797 11.9828 14.4517 11.9828C13.9237 11.9828 13.4957 12.4108 13.4957 12.9388ZM18.2757 12.9388C18.2757 13.4668 18.7037 13.8948 19.2317 13.8948C19.7597 13.8948 20.1877 13.4668 20.1877 12.9388C20.1877 12.4108 19.7597 11.9828 19.2317 11.9828C18.7037 11.9828 18.2757 12.4108 18.2757 12.9388Z" fill="#BFBFBF"/>
</svg>
