<svg xmlns="http://www.w3.org/2000/svg" width="769" height="412" viewBox="0 0 769 412">
  <g fill="none" fill-rule="evenodd">
    <path fill="#E2F2F3" d="M2,0 L98,0 C99.1045695,-4.2495073e-16 100,0.8954305 100,2 L100,410 C100,411.104569 99.1045695,412 98,412 L2,412 C0.8954305,412 1.3527075e-16,411.104569 0,410 L0,2 C-1.3527075e-16,0.8954305 0.8954305,2.02906125e-16 2,0 Z"/>
    <path fill="#45BFC4" fill-rule="nonzero" d="M50,211 C56.554,211 61.926,212.188 65.278,213.185 C68.7,214.203 71,217.286 71,220.856 L71,220.856 L71,228 C71,228.552 70.552,229 70,229 L70,229 L30,229 C29.448,229 29,228.552 29,228 L29,228 L29,220.856 C29,217.286 31.3,214.203 34.722,213.185 C38.074,212.188 43.446,211 50,211 Z M50,183 C56.065,183 61,187.935 61,194 L61,194 L61,196 C61,202.065 56.065,207 50,207 C43.935,207 39,202.065 39,196 L39,196 L39,194 C39,187.935 43.935,183 50,183 Z"/>
    <g transform="translate(566.5)">
      <path fill="#E2F2F3" d="M74,0 L200,0 C201.104569,-4.2495073e-16 202,0.8954305 202,2 L202,410 C202,411.104569 201.104569,412 200,412 L74,412 C72.8954305,412 72,411.104569 72,410 L72,2 C72,0.8954305 72.8954305,2.02906125e-16 74,0 Z"/>
      <path fill="#1AB9EB" fill-rule="nonzero" d="M51.5,201 L60.5,205.5 L51.5,210 L51.5,206 L8.5,206 L8.5,210 L-0.5,205.5 L8.5,201 L8.5,205 L51.5,205 L51.5,201 Z"/>
      <g fill="#45BFC4" transform="translate(94.5 68)">
        <g transform="translate(14)">
          <path fill-rule="nonzero" d="M50,20 C50.553,20 51,20.447 51,21 L51,21 L51,45 C51,45.553 50.553,46 50,46 L50,46 L34,46 C33.447,46 33,45.553 33,45 L33,45 L33,21 C33,20.447 33.447,20 34,20 L34,20 Z M28,0 C28.553,0 29,0.447 29,1 L29,1 L29,4 L40,4 C40.552,4 41,4.448 41,5 L41,5 L41,18 L33,18 C31.895,18 31,18.895 31,20 L31,20 L31,46 L25,46 L25,26 C25,24.895 24.105,24 23,24 L23,24 L15,24 L15,5 C15,4.448 15.448,4 16,4 L16,4 L27,4 L27,1 C27,0.447 27.447,0 28,0 Z M22,26 C22.553,26 23,26.447 23,27 L23,27 L23,45 C23,45.553 22.553,46 22,46 L22,46 L6,46 C5.447,46 5,45.553 5,45 L5,45 L5,27 C5,26.447 5.447,26 6,26 L6,26 Z M45,38 L39,38 C38.447,38 38,38.447 38,39 C38,39.553 38.447,40 39,40 L39,40 L45,40 C45.553,40 46,39.553 46,39 C46,38.447 45.553,38 45,38 L45,38 Z M17,38 L11,38 C10.447,38 10,38.447 10,39 C10,39.553 10.447,40 11,40 L11,40 L17,40 C17.553,40 18,39.553 18,39 C18,38.447 17.553,38 17,38 L17,38 Z M45,32 L39,32 C38.447,32 38,32.447 38,33 C38,33.553 38.447,34 39,34 L39,34 L45,34 C45.553,34 46,33.553 46,33 C46,32.447 45.553,32 45,32 L45,32 Z M17,32 L11,32 C10.447,32 10,32.447 10,33 C10,33.553 10.447,34 11,34 L11,34 L17,34 C17.553,34 18,33.553 18,33 C18,32.447 17.553,32 17,32 L17,32 Z M45,26 L39,26 C38.447,26 38,26.447 38,27 C38,27.553 38.447,28 39,28 L39,28 L45,28 C45.553,28 46,27.553 46,27 C46,26.447 45.553,26 45,26 L45,26 Z M32,12 L24,12 C23.447,12 23,12.447 23,13 C23,13.553 23.447,14 24,14 L24,14 L32,14 C32.553,14 33,13.553 33,13 C33,12.447 32.553,12 32,12 L32,12 Z"/>
          <text font-family="PingFangSC-Regular, PingFang SC" font-size="14">
            <tspan x="0" y="69">线下 IDC</tspan>
          </text>
        </g>
        <g transform="translate(7 104)">
          <path fill-rule="nonzero" d="M49.9,14 C48.9,6.1 42.1,0 34,0 C25.7,0 18.8,6.3 18.1,14.5 C14.5,15.7 12,19.1 12,23 C12,28 16,32 21,32 L49,32 C54,32 58,28 58,23 C58,18.3 54.4,14.5 49.9,14 Z"/>
          <text font-family="PingFangSC-Regular, PingFang SC" font-size="14">
            <tspan x="0" y="59">其他公有云</tspan>
          </text>
        </g>
        <g transform="translate(0 198)">
          <path fill-rule="nonzero" d="M58,31.999988 L58,44.999988 C58,45.5522727 57.5522848,45.999988 57,45.999988 L57,45.999988 L45,45.999988 L45,36.999988 C45,36.4477032 44.5522848,35.999988 44,35.999988 L44,35.999988 L39,35.999988 C38.4477153,35.999988 38,36.4477032 38,36.999988 L38,36.999988 L38,45.999988 L26,45.999988 C25.4477153,45.999988 25,45.5522727 25,44.999988 L25,44.999988 L25,31.999988 L58,31.999988 Z M41.193,0.0479879959 C41.392666,-0.0159959986 41.6073341,-0.0159959986 41.807,0.0479879959 L41.807,0.0479879959 L57.307,5.047988 C57.7201512,5.18126122 58,5.56587322 58,5.999988 L58,5.999988 L58,29.999988 L25,29.999988 L25,5.999988 C25,5.56587322 25.2798489,5.18126122 25.693,5.047988 L25.693,5.047988 Z M32,19.999988 L30,19.999988 C29.4477153,19.999988 29,20.4477032 29,20.999988 L29,20.999988 L29,24.999988 C29,25.5522727 29.4477153,25.999988 30,25.999988 L30,25.999988 L32,25.999988 C32.5522848,25.999988 33,25.5522727 33,24.999988 L33,24.999988 L33,20.999988 C33,20.4477032 32.5522848,19.999988 32,19.999988 L32,19.999988 Z M39,19.999988 L37,19.999988 C36.4477153,19.999988 36,20.4477032 36,20.999988 L36,20.999988 L36,24.999988 C36,25.5522727 36.4477153,25.999988 37,25.999988 L37,25.999988 L39,25.999988 C39.5522848,25.999988 40,25.5522727 40,24.999988 L40,24.999988 L40,20.999988 C40,20.4477032 39.5522848,19.999988 39,19.999988 L39,19.999988 Z M46,19.999988 L44,19.999988 C43.4477153,19.999988 43,20.4477032 43,20.999988 L43,20.999988 L43,24.999988 C43,25.5522727 43.4477153,25.999988 44,25.999988 L44,25.999988 L46,25.999988 C46.5522848,25.999988 47,25.5522727 47,24.999988 L47,24.999988 L47,20.999988 C47,20.4477032 46.5522848,19.999988 46,19.999988 L46,19.999988 Z M53,19.999988 L51,19.999988 C50.4477153,19.999988 50,20.4477032 50,20.999988 L50,20.999988 L50,24.999988 C50,25.5522727 50.4477153,25.999988 51,25.999988 L51,25.999988 L53,25.999988 C53.5522848,25.999988 54,25.5522727 54,24.999988 L54,24.999988 L54,20.999988 C54,20.4477032 53.5522848,19.999988 53,19.999988 L53,19.999988 Z M32,9.999988 L30,9.999988 C29.4477153,9.999988 29,10.4477032 29,10.999988 L29,10.999988 L29,14.999988 C29,15.5522727 29.4477153,15.999988 30,15.999988 L30,15.999988 L32,15.999988 C32.5522848,15.999988 33,15.5522727 33,14.999988 L33,14.999988 L33,10.999988 C33,10.4477032 32.5522848,9.999988 32,9.999988 L32,9.999988 Z M39,9.999988 L37,9.999988 C36.4477153,9.999988 36,10.4477032 36,10.999988 L36,10.999988 L36,14.999988 C36,15.5522727 36.4477153,15.999988 37,15.999988 L37,15.999988 L39,15.999988 C39.5522848,15.999988 40,15.5522727 40,14.999988 L40,14.999988 L40,10.999988 C40,10.4477032 39.5522848,9.999988 39,9.999988 L39,9.999988 Z M46,9.999988 L44,9.999988 C43.4477153,9.999988 43,10.4477032 43,10.999988 L43,10.999988 L43,14.999988 C43,15.5522727 43.4477153,15.999988 44,15.999988 L44,15.999988 L46,15.999988 C46.5522848,15.999988 47,15.5522727 47,14.999988 L47,14.999988 L47,10.999988 C47,10.4477032 46.5522848,9.999988 46,9.999988 L46,9.999988 Z M53,9.999988 L51,9.999988 C50.4477153,9.999988 50,10.4477032 50,10.999988 L50,10.999988 L50,14.999988 C50,15.5522727 50.4477153,15.999988 51,15.999988 L51,15.999988 L53,15.999988 C53.5522848,15.999988 54,15.5522727 54,14.999988 L54,14.999988 L54,10.999988 C54,10.4477032 53.5522848,9.999988 53,9.999988 L53,9.999988 Z"/>
          <text font-family="PingFangSC-Regular, PingFang SC" font-size="14">
            <tspan x="0" y="73">本地办公环境</tspan>
          </text>
        </g>
      </g>
    </g>
    <g transform="translate(239)">
      <path fill="#E6F4F9" d="M2,0 L316,0 C317.104569,-4.2495073e-16 318,0.8954305 318,2 L318,410 C318,411.104569 317.104569,412 316,412 L2,412 C0.8954305,412 1.3527075e-16,411.104569 0,410 L0,2 C-1.3527075e-16,0.8954305 0.8954305,2.02906125e-16 2,0 Z"/>
      <g transform="translate(178 18)">
        <rect width="120" height="113" fill="#FFF" rx="2"/>
        <g transform="translate(20 25)">
          <g transform="translate(28 2)">
            <path fill="#00AAE7" d="M24,20 L24,28 L0,28 L0,20 L24,20 Z M24,10 L24,18 L0,18 L0,10 L24,10 Z M24,0 L24,8 L0,8 L0,0 L24,0 Z"/>
            <line x1="4" x2="8" y1="4" y2="4" stroke="#FFF" stroke-linecap="square" stroke-width="2"/>
            <line x1="4" x2="8" y1="14" y2="14" stroke="#FFF" stroke-linecap="square" stroke-width="2"/>
            <line x1="4" x2="8" y1="24" y2="24" stroke="#FFF" stroke-linecap="square" stroke-width="2"/>
          </g>
          <text fill="#00AAE7" font-family="PingFangSC-Regular, PingFang SC" font-size="16">
            <tspan x="0" y="57">七牛云主机</tspan>
          </text>
        </g>
      </g>
      <g transform="translate(178 149)">
        <rect width="120" height="113" fill="#FFF" rx="2"/>
        <g transform="translate(20 25)">
          <g transform="translate(28 2)">
            <path fill="#00AAE7" d="M24,20 L24,28 L0,28 L0,20 L24,20 Z M24,10 L24,18 L0,18 L0,10 L24,10 Z M24,0 L24,8 L0,8 L0,0 L24,0 Z"/>
            <line x1="4" x2="8" y1="4" y2="4" stroke="#FFF" stroke-linecap="square" stroke-width="2"/>
            <line x1="4" x2="8" y1="14" y2="14" stroke="#FFF" stroke-linecap="square" stroke-width="2"/>
            <line x1="4" x2="8" y1="24" y2="24" stroke="#FFF" stroke-linecap="square" stroke-width="2"/>
          </g>
          <text fill="#00AAE7" font-family="PingFangSC-Regular, PingFang SC" font-size="16">
            <tspan x="0" y="57">七牛云主机</tspan>
          </text>
        </g>
      </g>
      <g transform="translate(178 280)">
        <rect width="120" height="113" fill="#FFF" rx="2"/>
        <g fill="#00AAE7" transform="translate(44 26)">
          <text font-family="PingFangSC-Regular, PingFang SC" font-size="16">
            <tspan x="0" y="57">RDS</tspan>
          </text>
          <path fill-rule="nonzero" d="M28,19.8 L28,27 C28,30.4 20.7,32 14,32 C7.3,32 0,30.4 0,27 L0,27 L0,19.8 C2.9,22.1 8.6,23 14,23 C19.4,23 25.1,22.1 28,19.8 L28,19.8 Z M28,8.8 L28,16 C28,19.4 20.7,21 14,21 C7.3,21 0,19.4 0,16 L0,16 L0,8.8 C2.9,11.1 8.6,12 14,12 C19.4,12 25.1,11.1 28,8.8 L28,8.8 Z M14,0 C20.7,0 28,1.6 28,5 C28,8.4 20.7,10 14,10 C7.3,10 0,8.4 0,5 C0,1.6 7.3,0 14,0 Z" transform="translate(2)"/>
        </g>
      </g>
      <g transform="translate(20 18)">
        <rect width="140" height="376" fill="#FFF" rx="2"/>
        <g fill="#00AAE7" transform="translate(26 149)">
          <text font-family="PingFangSC-Regular, PingFang SC" font-size="16">
            <tspan x="0" y="73">七牛云 WAF</tspan>
          </text>
          <path fill-rule="nonzero" d="M67,29.98175 L67,39.98175 C67,41.08675 66.105,41.98175 65,41.98175 L65,41.98175 L53,41.98175 L53,29.98175 L67,29.98175 Z M21,27.15575 C23.449,31.23675 27.904,33.98175 33,33.98175 C33.681,33.98175 34.345,33.91675 35,33.82175 L35,33.82175 L35,41.98175 L23,41.98175 C21.895,41.98175 21,41.08675 21,39.98175 L21,39.98175 Z M51,29.98175 L51,41.98175 L37,41.98175 L37,33.39275 C39.2,32.73375 41.177,31.54875 42.779,29.98175 L42.779,29.98175 L51,29.98175 Z M32.239,0.33375 C32.618,-0.11125 33.382,-0.11125 33.762,0.33375 C34.22,0.87275 45,13.61175 45,19.98175 C45,26.59875 39.617,31.98175 33,31.98175 C26.383,31.98175 21,26.59875 21,19.98175 C21,13.61175 31.78,0.87275 32.239,0.33375 Z M67,15.98175 L67,27.98175 L44.473,27.98175 C46.061,25.71175 47,22.95575 47,19.98175 C47,18.77875 46.686,17.41575 46.176,15.98175 L46.176,15.98175 L67,15.98175 Z M33.828,11.99675 C33.456,11.44575 32.543,11.44575 32.171,11.99675 C31.017,13.70375 28.302,17.89375 28.011,19.92075 C28.003,19.97475 28,20.02975 28.001,20.08475 C28.056,22.78475 30.298,24.98175 33,24.98175 C35.702,24.98175 37.944,22.78475 37.998,20.08375 C37.999,20.02875 37.996,19.97475 37.988,19.92075 C37.697,17.89275 34.982,13.70375 33.828,11.99675 Z M65,1.98175 C66.105,1.98175 67,2.87675 67,3.98175 L67,3.98175 L67,13.98175 L53,13.98175 L53,1.98175 Z M51,1.98175 L51,13.98175 L45.36,13.98175 C43.387,9.66375 40.046,5.01675 37.677,1.98175 L37.677,1.98175 L51,1.98175 Z"/>
        </g>
      </g>
    </g>
    <g transform="translate(120.5 180)">
      <path fill="#1AB9EB" fill-rule="nonzero" d="M91.5,21 L100.5,25.5 L91.5,30 L91.5,26 L0,26 L0,25 L91.5,25 L91.5,21 Z"/>
      <g transform="translate(25.5)">
        <path fill="#E2F5FC" stroke="#1AB9EB" d="M46,0.5 C46.4142136,0.5 46.7892136,0.667893219 47.0606602,0.939339828 C47.3321068,1.21078644 47.5,1.58578644 47.5,2 L47.5,2 L47.5,50 C47.5,50.4142136 47.3321068,50.7892136 47.0606602,51.0606602 C46.7892136,51.3321068 46.4142136,51.5 46,51.5 L46,51.5 L2,51.5 C1.58578644,51.5 1.21078644,51.3321068 0.939339828,51.0606602 C0.667893219,50.7892136 0.5,50.4142136 0.5,50 L0.5,50 L0.5,2 C0.5,1.58578644 0.667893219,1.21078644 0.939339828,0.939339828 C1.21078644,0.667893219 1.58578644,0.5 2,0.5 L2,0.5 Z"/>
        <text fill="#00AAE7" font-family="PingFangSC-Regular, PingFang SC" font-size="14">
          <tspan x="10" y="21">统一</tspan> <tspan x="10" y="41">管理</tspan>
        </text>
      </g>
    </g>
  </g>
</svg>
