<svg xmlns="http://www.w3.org/2000/svg" width="768" height="412" viewBox="0 0 768 412">
  <g fill="none" fill-rule="evenodd">
    <path fill="#E2F2F3" d="M2,0 L174,0 C175.104569,-4.2495073e-16 176,0.8954305 176,2 L176,410 C176,411.104569 175.104569,412 174,412 L2,412 C0.8954305,412 1.3527075e-16,411.104569 0,410 L0,2 C-1.3527075e-16,0.8954305 0.8954305,2.02906125e-16 2,0 Z"/>
    <g fill="#45BFC4" transform="translate(28 117)">
      <g transform="translate(2 1)">
        <path fill-rule="nonzero" d="M31.181,29.947 L39.572,34.978 C41.069,35.875 42,37.519 42,39.265 L42,39.265 L42,45 C42,45.553 41.553,46 41,46 L41,46 L1,46 C0.447,46 0,45.553 0,45 L0,45 L0,39.265 C0,37.519 0.931,35.875 2.428,34.978 L2.428,34.978 L10.819,29.947 C13.537,32.47 17.155,34 21,34 C24.845,34 28.463,32.47 31.181,29.947 L31.181,29.947 Z M21,18.603 C22.226,20.637 24.457,22 27,22 L27,22 L33.635,22 C32.263,27.737 27.054,32 21,32 C14.946,32 9.737,27.737 8.365,22 L8.365,22 L15,22 C17.543,22 19.774,20.637 21,18.603 Z M34,9 C35.657,9 37,10.343 37,12 L37,12 L37,17 C37,18.657 35.657,20 34,20 L34,20 L27,20 C24.239,20 22,17.761 22,15 L22,15 L22,14 C22,13.448 21.552,13 21,13 L21,13 L20.8834315,13.0067318 C20.3862857,13.0645306 20,13.4874286 20,14 L20,14 L20,15 C20,17.761 17.761,20 15,20 L15,20 L8,20 C6.343,20 5,18.657 5,17 L5,17 L5,12 C5,10.343 6.343,9 8,9 L8,9 Z M21,0 C25.93,0 30.33,2.772 32.528,7 L32.528,7 L9.471,7 C11.669,2.772 16.069,0 21,0 Z"/>
        <text font-family="PingFangSC-Regular, PingFang SC" font-size="16">
          <tspan x="5" y="71">黑客</tspan>
        </text>
      </g>
      <g transform="translate(74)">
        <path fill-rule="nonzero" d="M32 11.0410493L32 11.0130493C31.9676904 8.71585872 30.8979717 6.55657068 29.09 5.13904928L31.79 1.62204928C32.014667 1.33924652 32.0693761.95727067 31.9331227.622774527 31.7968693.288278384 31.49083.0532494717 31.1325031.00792293948 30.7741762-.0374035928 30.4192531.114016922 30.204.404049285L27.404 4.04504928C24.6264072 2.66905168 21.3655928 2.66905168 18.588 4.04504928L15.788.404049285C15.4484462-.0233689698 14.828866-.099510521 14.395926.232974287 13.962986.565459095 13.876674 1.18370446 14.202 1.62204928L16.902 5.13904928C15.0970308 6.55816359 14.030372 8.71721026 14 11.0130493L14 11.0410493C10.2266977 13.8645323 8.00361853 18.3003162 8 23.0130493L8 31.0130493C8 39.2973205 14.7157288 46.0130493 23 46.0130493 31.2842712 46.0130493 38 39.2973205 38 31.0130493L38 23.0130493C37.9963815 18.3003162 35.7733023 13.8645323 32 11.0410493L32 11.0410493zM4.486 38.1550493C4.28124074 38.2780803 4.12728707 38.470345 4.052 38.6970493L2.052 44.6970493C1.87747802 45.2217198 2.16132949 45.7885273 2.686 45.9630493 3.21067051 46.1375713 3.77747802 45.8537198 3.952 45.3290493L5.835 39.6810493 7.775 38.5210493C7.47587772 37.9170575 7.21340257 37.2955992 6.989 36.6600493L4.486 38.1550493zM6 26.0130493L1 26.0130493C.44771525 26.0130493 0 26.4607645 0 27.0130493 0 27.565334.44771525 28.0130493 1 28.0130493L6 28.0130493 6 26.0130493zM3.948 8.69704928C3.77347801 8.17237878 3.20667051 7.88852732 2.682 8.0630493 2.1573295 8.23757128 1.87347803 8.80437878 2.048 9.32904928L4.048 15.3290493C4.12328707 15.5557536 4.27724074 15.7480183 4.482 15.8710493L6.982 17.3710493C7.20640257 16.7354994 7.46887772 16.114041 7.768 15.5100493L5.828 14.3500493 3.948 8.69704928zM41.948 38.6970493C41.8727129 38.470345 41.7187593 38.2780803 41.514 38.1550493L39.014 36.6550493C38.7895974 37.2905992 38.5271223 37.9120575 38.228 38.5160493L40.168 39.6760493 42.051 45.3240493C42.1638959 45.6634516 42.449285 45.916843 42.799664 45.9887734 43.150043 46.0607038 43.512181 45.9402453 43.749664 45.6727734 43.9871471 45.4053015 44.0638959 45.0314516 43.951 44.6920493L41.948 38.6970493zM45 26.0130493L40 26.0130493 40 28.0130493 45 28.0130493C45.5522847 28.0130493 46 27.565334 46 27.0130493 46 26.4607645 45.5522847 26.0130493 45 26.0130493zM41.514 15.8710493C41.7187593 15.7480183 41.8727129 15.5557536 41.948 15.3290493L43.948 9.32904928C44.0608959 8.98964697 43.9841471 8.61579703 43.746664 8.34832513 43.509181 8.08085322 43.147043 7.9603947 42.796664 8.03232512 42.446285 8.10425554 42.1608959 8.35764696 42.048 8.69704928L40.165 14.3450493 38.225 15.5050493C38.5241223 16.109041 38.7865974 16.7304994 39.011 17.3660493L41.514 15.8710493z"/>
        <text font-family="PingFangSC-Regular, PingFang SC" font-size="16">
          <tspan x="7" y="72">爬虫</tspan>
        </text>
      </g>
      <g transform="translate(0 104)">
        <path fill-rule="nonzero" d="M35.20508,28 C37.84863,28 40,30.15137 40,32.79493 L40,32.79493 L40,37.5127 C40,43.29492 35.29492,48 29.5127,48 L29.5127,48 L16.4873,48 C10.70508,48 6,43.29492 6,37.51269 L6,37.51269 L6,32.79492 C6,30.15137 8.15137,28 10.79492,28 L10.79492,28 Z M16,35 C14.34314,35 13,36.34314 13,38 C13,39.65686 14.34314,41 16,41 C17.65686,41 19,39.65686 19,38 C19,36.34314 17.65686,35 16,35 Z M30,35 C28.34314,35 27,36.34314 27,38 C27,39.65686 28.34314,41 30,41 C31.65686,41 33,39.65686 33,38 C33,36.34314 31.65686,35 30,35 Z M33,0 C34.10449,0 35,0.89551 35,2 L35,2 L35,7 L45,7 C45.55273,7 46,7.44727 46,8 C46,12.96289 41.96289,17 37,17 L37,17 L36.95245,17 L37.94434,26.42285 C37.94996,26.47552 37.93262,26.52325 37.93012,26.57458 C37.09503,26.20734 36.17438,26 35.20508,26 L35.20508,26 L10.79492,26 C9.82562,26 8.90497,26.20734 8.06989,26.57458 C8.06739,26.52325 8.05005,26.47552 8.05567,26.42285 L8.05567,26.42285 L9.04755,17 L9,17 C4.03711,17 0,12.96289 0,8 C0,7.44727 0.44727,7 1,7 L1,7 L11,7 L11,2 C11,0.89551 11.89551,0 13,0 C14.10449,0 15,0.89551 15,2 L15,2 L15,7 L31,7 L31,2 C31,0.89551 31.89551,0 33,0 Z M16,17 C14.89545,17 14,17.89539 14,19 C14,20.10455 14.89545,21 16,21 C17.10455,21 18,20.10455 18,19 C18,17.89539 17.10455,17 16,17 Z M30,17 C28.89545,17 28,17.89539 28,19 C28,20.10455 28.89545,21 30,21 C31.10455,21 32,20.10455 32,19 C32,17.89539 31.10455,17 30,17 Z"/>
        <text font-family="PingFangSC-Regular, PingFang SC" font-size="16">
          <tspan x="7" y="69">黄牛</tspan>
        </text>
      </g>
      <g transform="translate(73 105)">
        <path fill-rule="nonzero" d="M23,0 C29.32,0 35.052,2.563 39.213,6.704 C39.229,6.717 39.248,6.722 39.263,6.737 C39.278,6.752 39.282,6.772 39.296,6.787 C43.437,10.948 46,16.68 46,23 C46,29.32 43.437,35.052 39.296,39.213 C39.283,39.229 39.278,39.248 39.263,39.263 C39.248,39.278 39.228,39.282 39.213,39.296 C35.052,43.437 29.32,46 23,46 C10.318,46 0,35.682 0,23 C0,10.318 10.318,0 23,0 Z M23,2 C11.42,2 2,11.42 2,23 C2,34.58 11.42,44 23,44 C28.43,44 33.37,41.91 37.102,38.516 L37.102,38.516 L25.753,27.167 C24.962,27.691 24.017,28 23,28 C20.243,28 18,25.757 18,23 C18,20.243 20.243,18 23,18 C24.017,18 24.962,18.309 25.753,18.833 L25.753,18.833 L37.102,7.484 C33.37,4.09 28.43,2 23,2 Z M23,9 C25.717,9 28.312,9.778 30.544,11.213 L30.544,11.213 L29.088,12.669 C27.261,11.589 25.178,11 23,11 C16.383,11 11,16.383 11,23 C11,29.617 16.383,35 23,35 C25.177,35 27.26,34.411 29.087,33.33 L29.087,33.33 L30.543,34.786 C28.311,36.222 25.717,37 23,37 C15.28,37 9,30.72 9,23 C9,15.28 15.28,9 23,9 Z"/>
        <text font-family="PingFangSC-Regular, PingFang SC" font-size="16">
          <tspan x="7" y="68">扫描</tspan>
        </text>
      </g>
    </g>
    <g transform="translate(450)">
      <path fill="#E6F4F9" d="M2,0 L316,0 C317.104569,-4.2495073e-16 318,0.8954305 318,2 L318,410 C318,411.104569 317.104569,412 316,412 L2,412 C0.8954305,412 1.3527075e-16,411.104569 0,410 L0,2 C-1.3527075e-16,0.8954305 0.8954305,2.02906125e-16 2,0 Z"/>
      <g transform="translate(178 18)">
        <rect width="120" height="113" fill="#FFF" rx="2"/>
        <g transform="translate(20 25)">
          <g transform="translate(28 2)">
            <path fill="#00AAE7" d="M24,20 L24,28 L0,28 L0,20 L24,20 Z M24,10 L24,18 L0,18 L0,10 L24,10 Z M24,0 L24,8 L0,8 L0,0 L24,0 Z"/>
            <line x1="4" x2="8" y1="4" y2="4" stroke="#FFF" stroke-linecap="square" stroke-width="2"/>
            <line x1="4" x2="8" y1="14" y2="14" stroke="#FFF" stroke-linecap="square" stroke-width="2"/>
            <line x1="4" x2="8" y1="24" y2="24" stroke="#FFF" stroke-linecap="square" stroke-width="2"/>
          </g>
          <text fill="#00AAE7" font-family="PingFangSC-Regular, PingFang SC" font-size="16">
            <tspan x="0" y="57">七牛云主机</tspan>
          </text>
        </g>
      </g>
      <g transform="translate(178 149)">
        <rect width="120" height="113" fill="#FFF" rx="2"/>
        <g transform="translate(20 25)">
          <g transform="translate(28 2)">
            <path fill="#00AAE7" d="M24,20 L24,28 L0,28 L0,20 L24,20 Z M24,10 L24,18 L0,18 L0,10 L24,10 Z M24,0 L24,8 L0,8 L0,0 L24,0 Z"/>
            <line x1="4" x2="8" y1="4" y2="4" stroke="#FFF" stroke-linecap="square" stroke-width="2"/>
            <line x1="4" x2="8" y1="14" y2="14" stroke="#FFF" stroke-linecap="square" stroke-width="2"/>
            <line x1="4" x2="8" y1="24" y2="24" stroke="#FFF" stroke-linecap="square" stroke-width="2"/>
          </g>
          <text fill="#00AAE7" font-family="PingFangSC-Regular, PingFang SC" font-size="16">
            <tspan x="0" y="57">七牛云主机</tspan>
          </text>
        </g>
      </g>
      <g transform="translate(178 280)">
        <rect width="120" height="113" fill="#FFF" rx="2"/>
        <g fill="#00AAE7" transform="translate(44 26)">
          <text font-family="PingFangSC-Regular, PingFang SC" font-size="16">
            <tspan x="0" y="57">RDS</tspan>
          </text>
          <path fill-rule="nonzero" d="M28,19.8 L28,27 C28,30.4 20.7,32 14,32 C7.3,32 0,30.4 0,27 L0,27 L0,19.8 C2.9,22.1 8.6,23 14,23 C19.4,23 25.1,22.1 28,19.8 L28,19.8 Z M28,8.8 L28,16 C28,19.4 20.7,21 14,21 C7.3,21 0,19.4 0,16 L0,16 L0,8.8 C2.9,11.1 8.6,12 14,12 C19.4,12 25.1,11.1 28,8.8 L28,8.8 Z M14,0 C20.7,0 28,1.6 28,5 C28,8.4 20.7,10 14,10 C7.3,10 0,8.4 0,5 C0,1.6 7.3,0 14,0 Z" transform="translate(2)"/>
        </g>
      </g>
      <g transform="translate(20 18)">
        <rect width="140" height="376" fill="#FFF" rx="2"/>
        <g fill="#00AAE7" transform="translate(26 149)">
          <text font-family="PingFangSC-Regular, PingFang SC" font-size="16">
            <tspan x="0" y="73">七牛云 WAF</tspan>
          </text>
          <path fill-rule="nonzero" d="M67,29.98175 L67,39.98175 C67,41.08675 66.105,41.98175 65,41.98175 L65,41.98175 L53,41.98175 L53,29.98175 L67,29.98175 Z M21,27.15575 C23.449,31.23675 27.904,33.98175 33,33.98175 C33.681,33.98175 34.345,33.91675 35,33.82175 L35,33.82175 L35,41.98175 L23,41.98175 C21.895,41.98175 21,41.08675 21,39.98175 L21,39.98175 Z M51,29.98175 L51,41.98175 L37,41.98175 L37,33.39275 C39.2,32.73375 41.177,31.54875 42.779,29.98175 L42.779,29.98175 L51,29.98175 Z M32.239,0.33375 C32.618,-0.11125 33.382,-0.11125 33.762,0.33375 C34.22,0.87275 45,13.61175 45,19.98175 C45,26.59875 39.617,31.98175 33,31.98175 C26.383,31.98175 21,26.59875 21,19.98175 C21,13.61175 31.78,0.87275 32.239,0.33375 Z M67,15.98175 L67,27.98175 L44.473,27.98175 C46.061,25.71175 47,22.95575 47,19.98175 C47,18.77875 46.686,17.41575 46.176,15.98175 L46.176,15.98175 L67,15.98175 Z M33.828,11.99675 C33.456,11.44575 32.543,11.44575 32.171,11.99675 C31.017,13.70375 28.302,17.89375 28.011,19.92075 C28.003,19.97475 28,20.02975 28.001,20.08475 C28.056,22.78475 30.298,24.98175 33,24.98175 C35.702,24.98175 37.944,22.78475 37.998,20.08375 C37.999,20.02875 37.996,19.97475 37.988,19.92075 C37.697,17.89275 34.982,13.70375 33.828,11.99675 Z M65,1.98175 C66.105,1.98175 67,2.87675 67,3.98175 L67,3.98175 L67,13.98175 L53,13.98175 L53,1.98175 Z M51,1.98175 L51,13.98175 L45.36,13.98175 C43.387,9.66375 40.046,5.01675 37.677,1.98175 L37.677,1.98175 L51,1.98175 Z"/>
        </g>
      </g>
    </g>
    <g transform="translate(181 40)">
      <path fill="#E6F4F9" d="M94,86 L190,86 C191.104569,86 192,86.8954305 192,88 L192,244 C192,245.104569 191.104569,246 190,246 L94,246 C92.8954305,246 92,245.104569 92,244 L92,88 C92,86.8954305 92.8954305,86 94,86 Z"/>
      <g transform="translate(117 137)">
        <path fill="#00AAE7" fill-rule="nonzero" d="M39.9,14 C38.9,6.1 32.1,0 24,0 C15.7,0 8.8,6.3 8.1,14.5 C4.5,15.7 2,19.1 2,23 C2,28 6,32 11,32 L39,32 C44,32 48,28 48,23 C48,18.3 44.4,14.5 39.9,14 Z"/>
        <text fill="#00AAE7" font-family="PingFangSC-Regular, PingFang SC" font-size="14">
          <tspan x="0" y="53">Internet</tspan>
        </text>
        <path fill="#FFF" fill-rule="nonzero" d="M26.4809826,9.99999947 C26.7180113,10.0005222 26.9365891,10.1280065 27.0537421,10.33406 C28.3276341,12.5437629 28.9987786,15.0493083 29,17.5999133 C28.9968129,20.1434747 28.3256742,22.6415957 27.0537421,24.8442994 C26.9357185,25.0489952 26.7173443,25.1750578 26.4810608,25.1748958 C26.2451964,25.1746539 26.0273585,25.0486617 25.909531,24.8443366 C25.7917035,24.6400114 25.7917681,24.3883621 25.9097005,24.1840975 C27.0656287,22.182079 27.6757089,19.9116741 27.6789358,17.5999133 C27.6775858,15.2812248 27.0675038,13.0035246 25.9097005,10.9945921 C25.7898242,10.7901109 25.788702,10.5370749 25.9067599,10.3315385 C26.0248177,10.126002 26.2439539,9.99947999 26.4809826,9.99999947 Z M23.5364449,11.544156 C23.7736065,11.541627 23.9939395,11.6664077 24.1137136,11.8711182 C25.1474132,13.6034505 25.6945181,15.5826126 25.6973394,17.5999133 C25.694197,19.6177046 25.1465122,21.5972429 24.1120623,23.3296992 C23.9931182,23.5295172 23.7778657,23.6520706 23.5453257,23.6523691 C23.3076063,23.6523691 23.0882722,23.5244538 22.971008,23.3176698 C22.8537438,23.1108857 22.8566391,22.8570397 22.9785892,22.652984 C23.8904363,21.1249737 24.3732877,19.3793155 24.3762751,17.5999133 C24.3732877,15.8205112 23.8904363,14.074853 22.9785892,12.5468426 C22.8557327,12.343967 22.8510766,12.0907967 22.9663901,11.8835408 C23.0817037,11.6762849 23.2992833,11.5467627 23.5364449,11.544156 Z M21.1684009,13.3774617 C21.9686841,14.6404591 22.3939313,16.104716 22.3946788,17.5999133 C22.3939313,19.0951106 21.9686841,20.5593675 21.1684009,21.8223649 C21.0476267,22.0135882 20.8374113,22.1297238 20.6112421,22.1301729 C20.3705721,22.130012 20.1490371,21.9989641 20.0329984,21.7881157 C19.9169596,21.5772673 19.9247845,21.319993 20.0534227,21.1165863 C20.7195242,20.0645692 21.0733008,18.8450764 21.0736145,17.5999133 C21.0728068,16.3545874 20.718454,15.1350823 20.0517713,14.0832403 C19.861921,13.7751696 19.9552968,13.3716931 20.2611881,13.178351 C20.5670795,12.9850088 20.9715919,13.0737893 21.1684009,13.3774617 Z M18.1936945,14.8682827 C18.7782378,15.6589752 19.0931656,16.6166106 19.0920213,17.5999133 C19.0931656,18.583216 18.7782378,19.5408514 18.1936945,20.3315439 C18.0690953,20.5011712 17.8711167,20.6012645 17.6606451,20.6010414 C17.4113977,20.6010414 17.1833508,20.4608182 17.0709635,20.2383472 C16.9585762,20.0158762 16.9809884,19.7490858 17.1289167,19.5484831 C17.5462129,18.9845449 17.7712849,18.3014561 17.7709539,17.5999133 C17.7712849,16.8983705 17.5462129,16.2152818 17.1289167,15.6513436 C16.9890364,15.4611393 16.9612543,15.2107581 17.0560359,14.994516 C17.1508174,14.778274 17.3537629,14.6290234 17.5884248,14.6029856 C17.8230866,14.5769478 18.0538141,14.6780785 18.1936945,14.8682827 Z"/>
      </g>
      <g transform="translate(102)">
        <path fill="#00AAE7" fill-rule="nonzero" d="M134.939737,11.4349445 L143.939737,15.9349445 L134.939737,20.4349445 L134.939,16.434 L40.877,16.434 L40.8771816,75.9349445 L39.8771816,75.9349445 L39.8771816,15.4349445 L134.939,15.434 L134.939737,11.4349445 Z"/>
        <path fill="#E2F5FC" stroke="#00AAE7" d="M78,0.5 C78.4142136,0.5 78.7892136,0.667893219 79.0606602,0.939339828 C79.3321068,1.21078644 79.5,1.58578644 79.5,2 L79.5,2 L79.5,30 C79.5,30.4142136 79.3321068,30.7892136 79.0606602,31.0606602 C78.7892136,31.3321068 78.4142136,31.5 78,31.5 L78,31.5 L2,31.5 C1.58578644,31.5 1.21078644,31.3321068 0.939339828,31.0606602 C0.667893219,30.7892136 0.5,30.4142136 0.5,30 L0.5,30 L0.5,2 C0.5,1.58578644 0.667893219,1.21078644 0.939339828,0.939339828 C1.21078644,0.667893219 1.58578644,0.5 2,0.5 L2,0.5 Z"/>
        <text fill="#00AAE7" font-family="PingFangSC-Regular, PingFang SC" font-size="14">
          <tspan x="12" y="21">攻击请求</tspan>
        </text>
      </g>
      <g transform="translate(88 256.488)">
        <path fill="#00AAE7" fill-rule="nonzero" d="M53.5134333,-0.5 L58.0134333,8.5 L54.013,8.5 L54.013,59.012 L147.013,59.012 L147.013433,55.0124707 L156.013433,59.5124707 L147.013433,64.0124707 L147.013,60.012 L53.0134333,60.0124707 L53.013,8.5 L49.0134333,8.5 L53.5134333,-0.5 Z"/>
        <g transform="translate(0 43.512)">
          <path fill="#E2F5FC" stroke="#00AAE7" d="M106,0.5 C106.414214,0.5 106.789214,0.667893219 107.06066,0.939339828 C107.332107,1.21078644 107.5,1.58578644 107.5,2 L107.5,2 L107.5,30 C107.5,30.4142136 107.332107,30.7892136 107.06066,31.0606602 C106.789214,31.3321068 106.414214,31.5 106,31.5 L106,31.5 L2,31.5 C1.58578644,31.5 1.21078644,31.3321068 0.939339828,31.0606602 C0.667893219,30.7892136 0.5,30.4142136 0.5,30 L0.5,30 L0.5,2 C0.5,1.58578644 0.667893219,1.21078644 0.939339828,0.939339828 C1.21078644,0.667893219 1.58578644,0.5 2,0.5 L2,0.5 Z"/>
          <text fill="#00AAE7" font-family="PingFangSC-Regular, PingFang SC" font-size="14">
            <tspan x="12" y="21">正常业务流量</tspan>
          </text>
        </g>
      </g>
      <g transform="translate(0 140)">
        <path fill="#1AB9EB" fill-rule="nonzero" d="M73,21 L82,25.5 L73,30 L73,26 L0,26 L0,25 L73,25 L73,21 Z"/>
        <g transform="translate(11)">
          <path fill="#E2F5FC" stroke="#00AAE7" d="M46,0.5 C46.4142136,0.5 46.7892136,0.667893219 47.0606602,0.939339828 C47.3321068,1.21078644 47.5,1.58578644 47.5,2 L47.5,2 L47.5,50 C47.5,50.4142136 47.3321068,50.7892136 47.0606602,51.0606602 C46.7892136,51.3321068 46.4142136,51.5 46,51.5 L46,51.5 L2,51.5 C1.58578644,51.5 1.21078644,51.3321068 0.939339828,51.0606602 C0.667893219,50.7892136 0.5,50.4142136 0.5,50 L0.5,50 L0.5,2 C0.5,1.58578644 0.667893219,1.21078644 0.939339828,0.939339828 C1.21078644,0.667893219 1.58578644,0.5 2,0.5 L2,0.5 Z"/>
          <text fill="#00AAE7" font-family="PingFangSC-Regular, PingFang SC" font-size="14">
            <tspan x="10" y="21">攻击</tspan> <tspan x="10" y="41">请求</tspan>
          </text>
        </g>
      </g>
    </g>
  </g>
</svg>
