<?xml version="1.0" encoding="UTF-8"?>
<svg width="16px" height="16px" viewBox="0 0 16 16" version="1.1" xmlns="http://www.w3.org/2000/svg" xmlns:xlink="http://www.w3.org/1999/xlink">
    <title>laptop-72</title>
    <g id="页面-1" stroke="none" stroke-width="1" fill="none" fill-rule="evenodd" stroke-linecap="round" stroke-linejoin="round">
        <g id="在线教育解决方案02" transform="translate(-1204.000000, -1906.000000)" stroke="#333333">
            <g id="使用场景" transform="translate(0.000000, 1036.000000)">
                <g id="矩形-2" transform="translate(1176.000000, 248.000000)">
                    <g id="编组-5" transform="translate(20.000000, 482.000000)">
                        <g id="编组-24" transform="translate(0.000000, 130.000000)">
                            <g id="laptop-72" transform="translate(8.000000, 10.000000)">
                                <g id="b-comment" transform="translate(1.000000, 1.000000)">
                                    <path d="M6,0 C2.686,0 0,2.239 0,5 C0,6.021 0.369,6.97 1,7.762 L1,11.5 L3.573,9.57 C4.315,9.845 5.135,10 6,10 C9.314,10 12,7.761 12,5 C12,2.239 9.314,0 6,0 Z" id="路径"></path>
                                    <path d="M3.719,11.004 C4.808,11.927 6.324,12.5 8,12.5 C8.783,12.5 9.529,12.371 10.215,12.144 L13,14 L13,10.262 C13.631,9.47 14,8.522 14,7.5 C14,6.591 13.709,5.739 13.201,5.005" id="路径"></path>
                                </g>
                            </g>
                        </g>
                    </g>
                </g>
            </g>
        </g>
    </g>
</svg>