<?xml version="1.0" encoding="UTF-8"?>
<svg width="771px" height="290px" viewBox="0 0 771 290" version="1.1" xmlns="http://www.w3.org/2000/svg" xmlns:xlink="http://www.w3.org/1999/xlink">
    <title>编组</title>
    <defs>
        <path d="M2,0 L270,0 C271.104569,-2.02906125e-16 272,0.8954305 272,2 L272,288 C272,289.104569 271.104569,290 270,290 L2,290 C0.8954305,290 1.3527075e-16,289.104569 0,288 L0,2 C-1.3527075e-16,0.8954305 0.8954305,2.02906125e-16 2,0 Z" id="path-1"></path>
        <mask id="mask-2" maskContentUnits="userSpaceOnUse" maskUnits="objectBoundingBox" x="0" y="0" width="272" height="290" fill="white">
            <use xlink:href="#path-1"></use>
        </mask>
    </defs>
    <g id="页面-1" stroke="none" stroke-width="1" fill="none" fill-rule="evenodd">
        <g id="在线教育解决方案" transform="translate(-377.000000, -1004.000000)">
            <g id="使用场景" transform="translate(0.000000, 543.000000)">
                <g id="编组-20" transform="translate(377.000000, 248.000000)">
                    <g id="编组" transform="translate(0.000000, 213.000000)">
                        <g id="编组-9" transform="translate(171.000000, 0.000000)">
                            <use id="矩形备份-7" stroke="#00AAE7" mask="url(#mask-2)" stroke-width="2" opacity="0.85" stroke-dasharray="2" xlink:href="#path-1"></use>
                            <g id="编组-4" transform="translate(156.000000, 12.000000)">
                                <path d="M0,0 L104,0 L104,266 L0,266 L0,0 Z" id="矩形" fill="#EDF9FA"></path>
                                <g id="编组-10" transform="translate(12.000000, 19.000000)">
                                    <text id="多媒体处理" font-family="PingFangSC-Regular, PingFang SC" font-size="14" font-weight="normal" fill="#00AAE7">
                                        <tspan x="5" y="15">多媒体处理</tspan>
                                    </text>
                                    <g id="编组-17" transform="translate(0.000000, 35.000000)">
                                        <g id="编组-16">
                                            <rect id="矩形备份-36" fill="#00AAE7" opacity="0.854399182" x="0" y="0" width="80" height="36"></rect>
                                            <text id="图片瘦身" font-family="PingFangSC-Regular, PingFang SC" font-size="14" font-weight="normal" fill="#FFFFFF">
                                                <tspan x="12" y="23">图片瘦身</tspan>
                                            </text>
                                        </g>
                                        <g id="编组-2" transform="translate(0.000000, 52.000000)">
                                            <rect id="矩形备份-48" fill="#00AAE7" opacity="0.854399182" x="0" y="0" width="80" height="36"></rect>
                                            <text id="图片水印" font-family="PingFangSC-Regular, PingFang SC" font-size="14" font-weight="normal" fill="#FFFFFF">
                                                <tspan x="12" y="23">图片水印</tspan>
                                            </text>
                                        </g>
                                        <g id="编组-3" transform="translate(0.000000, 104.000000)">
                                            <rect id="矩形备份-51" fill="#00AAE7" opacity="0.854399182" x="0" y="0" width="80" height="36"></rect>
                                            <text id="全景拼接" font-family="PingFangSC-Regular, PingFang SC" font-size="14" font-weight="normal" fill="#FFFFFF">
                                                <tspan x="12" y="23">全景拼接</tspan>
                                            </text>
                                        </g>
                                        <g id="编组-3" transform="translate(0.000000, 156.000000)">
                                            <rect id="矩形备份-51" fill="#00AAE7" opacity="0.854399182" x="0" y="0" width="80" height="36"></rect>
                                            <text id="内容审核" font-family="PingFangSC-Regular, PingFang SC" font-size="14" font-weight="normal" fill="#FFFFFF">
                                                <tspan x="12" y="23">内容审核</tspan>
                                            </text>
                                        </g>
                                    </g>
                                </g>
                            </g>
                            <g id="编组-13" transform="translate(12.000000, 12.000000)">
                                <path d="M0,0 L100,0 L100,266 L0,266 L0,0 Z" id="矩形" fill="#EDF9FA"></path>
                                <g id="编组-8" transform="translate(22.000000, 91.000000)">
                                    <g id="对象存储备份" transform="translate(12.000000, 0.000000)">
                                        <rect id="矩形" fill="#21B4E9" x="0" y="0" width="31.5" height="10.5"></rect>
                                        <rect id="矩形备份-2" fill="#21B4E9" x="0" y="12" width="31.5" height="10.5"></rect>
                                        <rect id="矩形备份-3" fill="#21B4E9" x="0" y="24" width="31.5" height="12"></rect>
                                        <line x1="6" y1="6" x2="10.5" y2="6" id="直线-2" stroke="#FFFFFF" stroke-width="2.9403" stroke-linecap="square"></line>
                                        <line x1="6" y1="18" x2="10.5" y2="18" id="直线-2" stroke="#FFFFFF" stroke-width="2.9403" stroke-linecap="square"></line>
                                        <line x1="6" y1="30" x2="10.5" y2="30" id="直线-2" stroke="#FFFFFF" stroke-width="2.9403" stroke-linecap="square"></line>
                                    </g>
                                    <text id="对象存储-Kodo" font-family="PingFangSC-Regular, PingFang SC" font-size="14" font-weight="normal" fill="#21B4E9">
                                        <tspan x="0" y="62">对象存储</tspan>
                                        <tspan x="10.864" y="82">Kodo</tspan>
                                    </text>
                                </g>
                            </g>
                            <path id="直线-3" d="M139.5,141 L148.5,145.5 L139.5,150 L139.5,146 L119.5,146 L119.5,145 L139.5,145 L139.5,141 Z" fill="#00AAE7" fill-rule="nonzero"></path>
                            <path id="直线-3" d="M299.5,140.5 L308.5,145 L299.5,149.5 L299.5,145.5 L279.5,145.5 L279.5,144.5 L299.5,144.5 L299.5,140.5 Z" fill="#00AAE7" fill-rule="nonzero"></path>
                            <path id="直线-3" d="M463.5,140.5 L472.5,145 L463.5,149.5 L463.5,145.5 L443.5,145.5 L443.5,144.5 L463.5,144.5 L463.5,140.5 Z" fill="#44C1C4" fill-rule="nonzero"></path>
                        </g>
                        <g id="编组-11" transform="translate(497.000000, 0.000000)">
                            <path d="M0,0 L120,0 L120,290 L0,290 L0,0 Z" id="矩形" fill="#EDF9FA"></path>
                            <g id="编组-16" transform="translate(10.000000, 114.000000)">
                                <rect id="矩形备份-36" fill="#00AAE7" opacity="0.854399182" x="0" y="0" width="100" height="36"></rect>
                                <text id="全球节点覆盖" font-family="PingFangSC-Regular, PingFang SC" font-size="14" font-weight="normal" fill="#FFFFFF">
                                    <tspan x="8" y="23">全球节点覆盖</tspan>
                                </text>
                            </g>
                            <g id="编组-16" transform="translate(10.000000, 162.000000)">
                                <rect id="矩形备份-36" fill="#00AAE7" opacity="0.854399182" x="0" y="0" width="100" height="36"></rect>
                                <text id="智能选路" font-family="PingFangSC-Regular, PingFang SC" font-size="14" font-weight="normal" fill="#FFFFFF">
                                    <tspan x="22" y="23">智能选路</tspan>
                                </text>
                            </g>
                            <g id="编组-16" transform="translate(10.000000, 210.000000)">
                                <rect id="矩形备份-36" fill="#00AAE7" opacity="0.854399182" x="0" y="0" width="100" height="36"></rect>
                                <text id="防盗链" font-family="PingFangSC-Regular, PingFang SC" font-size="14" font-weight="normal" fill="#FFFFFF">
                                    <tspan x="29" y="23">防盗链</tspan>
                                </text>
                            </g>
                            <g id="编组-8" transform="translate(40.000000, 24.000000)">
                                <text id="QCDN" font-family="PingFangSC-Regular, PingFang SC" font-size="14" font-weight="normal" fill="#21B4E9">
                                    <tspan x="0.06" y="62">QCDN</tspan>
                                </text>
                                <g id="QCDN备份-8" transform="translate(0.500000, 0.000000)">
                                    <polygon id="多边形" fill="#00AAE7" points="20 0 37.3205081 10 37.3205081 30 20 40 2.67949192 30 2.67949192 10"></polygon>
                                    <polygon id="路径-6" stroke="#FFFFFF" stroke-width="2.14285714" points="13.011248 14.2857143 13.011248 23.7824975 21.5826766 28.5714286 21.5826766 19.047619"></polygon>
                                    <polyline id="路径-7" stroke="#FFFFFF" stroke-width="2.14285714" stroke-linecap="square" points="18.7255337 11.4285714 27.2969623 16.2117347 27.2969623 25.7142857"></polyline>
                                </g>
                            </g>
                        </g>
                        <g id="编组-11" transform="translate(651.000000, 0.000000)">
                            <path d="M0,0 L120,0 L120,290 L0,290 L0,0 Z" id="矩形" fill="#EDF9FA"></path>
                            <g id="编组-16" transform="translate(10.000000, 72.000000)">
                                <rect id="矩形备份-36" fill="#47C2C5" x="0" y="0" width="100" height="36"></rect>
                                <text id="首开优化" font-family="PingFangSC-Regular, PingFang SC" font-size="14" font-weight="normal" fill="#FFFFFF">
                                    <tspan x="22" y="23">首开优化</tspan>
                                </text>
                            </g>
                            <g id="编组-16" transform="translate(10.000000, 120.000000)">
                                <rect id="矩形备份-36" fill="#47C2C5" x="0" y="0" width="100" height="36"></rect>
                                <text id="多清晰度切换" font-family="PingFangSC-Regular, PingFang SC" font-size="14" font-weight="normal" fill="#FFFFFF">
                                    <tspan x="8" y="23">多清晰度切换</tspan>
                                </text>
                            </g>
                            <g id="编组-16" transform="translate(10.000000, 165.000000)">
                                <rect id="矩形备份-36" fill="#47C2C5" x="0" y="0" width="100" height="36"></rect>
                                <text id="倍速播放" font-family="PingFangSC-Regular, PingFang SC" font-size="14" font-weight="normal" fill="#FFFFFF">
                                    <tspan x="22" y="23">倍速播放</tspan>
                                </text>
                            </g>
                            <g id="编组-16" transform="translate(10.000000, 213.000000)">
                                <rect id="矩形备份-36" fill="#47C2C5" x="0" y="0" width="100" height="36"></rect>
                                <text id="DRM-版权保护" font-family="PingFangSC-Regular, PingFang SC" font-size="14" font-weight="normal" fill="#FFFFFF">
                                    <tspan x="3.821" y="23">DRM 版权保护</tspan>
                                </text>
                            </g>
                            <text id="学生点播观众" font-family="PingFangSC-Medium, PingFang SC" font-size="14" font-weight="400" fill="#47C2C5">
                                <tspan x="18.5" y="52">学生点播观众</tspan>
                            </text>
                        </g>
                        <g id="编组-18">
                            <g id="编组-19">
                                <path d="M2,0 L88,0 C89.1045695,-2.02906125e-16 90,0.8954305 90,2 L90,128 C90,129.104569 89.1045695,130 88,130 L2,130 C0.8954305,130 1.3527075e-16,129.104569 0,128 L0,2 C-1.3527075e-16,0.8954305 0.8954305,2.02906125e-16 2,0 Z" id="矩形备份-25" fill="#EDF9FA"></path>
                                <g id="编组-26" transform="translate(24.000000, 35.000000)">
                                    <path d="M34,8 C35.1045695,8 36,8.8954305 36,10 L36,10 L36,28 C36,29.1045695 35.1045695,30 34,30 L34,30 L8,30 C6.8954305,30 6,29.1045695 6,28 L6,28 L6,10 C6,8.8954305 6.8954305,8 8,8 L8,8 Z M18,14 L18,24 L26,19 L18,14 Z M31,4 C32.1045695,4 33,4.8954305 33,6 L9,6 C9,4.8954305 9.8954305,4 11,4 L31,4 Z M28,0 C29.1045695,0 30,0.8954305 30,2 L12,2 C12,0.8954305 12.8954305,0 14,0 L28,0 Z" id="形状结合" fill="#47C2C5" fill-rule="nonzero"></path>
                                    <text id="录播课" font-family="PingFangSC-Regular, PingFang SC" font-size="14" font-weight="normal" fill="#28B8BB">
                                        <tspan x="0" y="56">录播课</tspan>
                                    </text>
                                </g>
                            </g>
                            <g id="编组-19" transform="translate(0.000000, 148.000000)">
                                <path d="M2,0 L88,0 C89.1045695,-2.02906125e-16 90,0.8954305 90,2 L90,128 C90,129.104569 89.1045695,130 88,130 L2,130 C0.8954305,130 1.3527075e-16,129.104569 0,128 L0,2 C-1.3527075e-16,0.8954305 0.8954305,2.02906125e-16 2,0 Z" id="矩形备份-25" fill="#EDF9FA"></path>
                                <g id="编组-29" transform="translate(10.000000, 36.000000)">
                                    <text id="直播课回放" font-family="PingFangSC-Regular, PingFang SC" font-size="14" font-weight="normal" fill="#28B8BB">
                                        <tspan x="0" y="55">直播课回放</tspan>
                                    </text>
                                    <path d="M50,5 L34.566,5 L31.857,0.485 C31.6762425,0.184138741 31.3509854,0 31,0 L20,0 C19.4477153,0 19,0.44771525 19,1 L19,25 C19,27.209139 20.790861,29 23,29 L47,29 C49.209139,29 51,27.209139 51,25 L51,6 C51,5.44771525 50.5522847,5 50,5 Z M31,23 L31,11 L41,17 L31,23 Z" id="形状" fill="#47C2C5" fill-rule="nonzero"></path>
                                </g>
                            </g>
                            <g id="编组-27" transform="translate(98.000000, 42.000000)">
                                <g>
                                    <path id="直线-3" d="M56,19 L65,23.5 L56,28 L56,24 L0,24 L0,23 L56,23 L56,19 Z" fill="#47C2C5" fill-rule="nonzero"></path>
                                    <g id="编组-2备份" transform="translate(9.000000, 0.000000)">
                                        <path d="M37,0.5 C37.4142136,0.5 37.7892136,0.667893219 38.0606602,0.939339828 C38.3321068,1.21078644 38.5,1.58578644 38.5,2 L38.5,2 L38.5,44 C38.5,44.4142136 38.3321068,44.7892136 38.0606602,45.0606602 C37.7892136,45.3321068 37.4142136,45.5 37,45.5 L37,45.5 L2,45.5 C1.58578644,45.5 1.21078644,45.3321068 0.939339828,45.0606602 C0.667893219,44.7892136 0.5,44.4142136 0.5,44 L0.5,44 L0.5,2 C0.5,1.58578644 0.667893219,1.21078644 0.939339828,0.939339828 C1.21078644,0.667893219 1.58578644,0.5 2,0.5 L2,0.5 Z" id="矩形备份-3" stroke="#47C2C5" fill="#EDF9FA"></path>
                                        <text id="数据-上传" font-family="PingFangSC-Regular, PingFang SC" font-size="12" font-weight="normal" fill="#47C2C5">
                                            <tspan x="7" y="19">数据</tspan>
                                            <tspan x="7" y="36">上传</tspan>
                                        </text>
                                    </g>
                                </g>
                                <path id="直线-3" d="M56,167 L65,171.5 L56,176 L56,172 L0,172 L0,171 L56,171 L56,167 Z" fill="#47C2C5" fill-rule="nonzero"></path>
                            </g>
                        </g>
                    </g>
                </g>
            </g>
        </g>
    </g>
</svg>