<?xml version="1.0" encoding="UTF-8"?>
<svg width="770px" height="645px" viewBox="0 0 770 645" version="1.1" xmlns="http://www.w3.org/2000/svg" xmlns:xlink="http://www.w3.org/1999/xlink">
    <title>编组</title>
    <defs>
        <rect id="path-1" x="0" y="0" width="228" height="153"></rect>
        <mask id="mask-2" maskContentUnits="userSpaceOnUse" maskUnits="objectBoundingBox" x="0" y="0" width="228" height="153" fill="white">
            <use xlink:href="#path-1"></use>
        </mask>
    </defs>
    <g id="页面-1" stroke="none" stroke-width="1" fill="none" fill-rule="evenodd">
        <g id="在线教育解决方案02" transform="translate(-376.000000, -2356.000000)">
            <g id="使用场景" transform="translate(0.000000, 2072.000000)">
                <g id="编组-20" transform="translate(376.000000, 248.000000)">
                    <g id="编组" transform="translate(0.000000, 36.000000)">
                        <g id="编组-9" transform="translate(259.000000, 0.000000)">
                            <path d="M2,0 L250,0 C251.104569,-2.02906125e-16 252,0.8954305 252,2 L252,312 C252,313.104569 251.104569,314 250,314 L2,314 C0.8954305,314 1.3527075e-16,313.104569 0,312 L0,2 C-1.3527075e-16,0.8954305 0.8954305,2.02906125e-16 2,0 Z" id="矩形备份-7" fill="#EDF9FA"></path>
                            <text id="实时音视频-QRTC" font-family="PingFangSC-Medium, PingFang SC" font-size="14" font-weight="400" fill="#22B5E9">
                                <tspan x="67" y="27">实时音视频 QRTC</tspan>
                            </text>
                            <g id="编组-22" transform="translate(12.000000, 151.000000)">
                                <use id="矩形" stroke="#00AAE7" mask="url(#mask-2)" stroke-width="2" stroke-dasharray="2,2" xlink:href="#path-1"></use>
                                <text id="存储及多媒体处理" font-family="PingFangSC-Medium, PingFang SC" font-size="14" font-weight="400" fill="#22B5E9">
                                    <tspan x="58" y="27">存储及多媒体处理</tspan>
                                </text>
                                <g id="编组-21" transform="translate(11.000000, 40.000000)">
                                    <g id="编组-15">
                                        <rect id="矩形" stroke="#00AAE7" x="0.5" y="0.5" width="97" height="27"></rect>
                                        <text id="内容审核" font-family="PingFangSC-Regular, PingFang SC" font-size="12" font-weight="normal" fill="#00AAE7">
                                            <tspan x="26" y="18">内容审核</tspan>
                                        </text>
                                    </g>
                                    <g id="编组-14" transform="translate(108.000000, 0.000000)">
                                        <rect id="矩形" stroke="#00AAE7" x="0.5" y="0.5" width="97" height="27"></rect>
                                        <text id="视频分析" font-family="PingFangSC-Regular, PingFang SC" font-size="12" font-weight="normal" fill="#00AAE7">
                                            <tspan x="26" y="18">视频分析</tspan>
                                        </text>
                                    </g>
                                    <g id="编组-15" transform="translate(0.000000, 38.000000)">
                                        <rect id="矩形" stroke="#00AAE7" x="0.5" y="0.5" width="97" height="27"></rect>
                                        <text id="音视频处理" font-family="PingFangSC-Regular, PingFang SC" font-size="12" font-weight="normal" fill="#00AAE7">
                                            <tspan x="20" y="19">音视频处理</tspan>
                                        </text>
                                    </g>
                                    <g id="编组-15" transform="translate(0.000000, 76.000000)">
                                        <rect id="矩形" stroke="#00AAE7" x="0.5" y="0.5" width="97" height="27"></rect>
                                        <text id="录制存储" font-family="PingFangSC-Regular, PingFang SC" font-size="12" font-weight="normal" fill="#00AAE7">
                                            <tspan x="26" y="18">录制存储</tspan>
                                        </text>
                                    </g>
                                    <g id="编组-15" transform="translate(108.000000, 76.000000)">
                                        <rect id="矩形" stroke="#00AAE7" x="0.5" y="0.5" width="97" height="27"></rect>
                                        <text id="实时转码" font-family="PingFangSC-Regular, PingFang SC" font-size="12" font-weight="normal" fill="#00AAE7">
                                            <tspan x="26" y="18">实时转码</tspan>
                                        </text>
                                    </g>
                                    <g id="编组-14" transform="translate(108.000000, 38.000000)">
                                        <rect id="矩形" stroke="#00AAE7" x="0.5" y="0.5" width="97" height="27"></rect>
                                        <text id="质量分析" font-family="PingFangSC-Regular, PingFang SC" font-size="12" font-weight="normal" fill="#00AAE7">
                                            <tspan x="26" y="18">质量分析</tspan>
                                        </text>
                                    </g>
                                </g>
                            </g>
                            <g id="编组-17" transform="translate(10.000000, 44.000000)">
                                <g id="编组-16">
                                    <rect id="矩形备份-36" fill="#00AAE7" opacity="0.854399182" x="0" y="0" width="110" height="28"></rect>
                                    <text id="调度中心" font-family="PingFangSC-Regular, PingFang SC" font-size="12" font-weight="normal" fill="#FFFFFF">
                                        <tspan x="30" y="19">调度中心</tspan>
                                    </text>
                                </g>
                                <g id="编组-16" transform="translate(122.000000, 0.000000)">
                                    <rect id="矩形备份-36" fill="#00AAE7" opacity="0.854399182" x="0" y="0" width="110" height="28"></rect>
                                    <text id="业务中心" font-family="PingFangSC-Regular, PingFang SC" font-size="12" font-weight="normal" fill="#FFFFFF">
                                        <tspan x="31" y="19">业务中心</tspan>
                                    </text>
                                </g>
                                <g id="编组-2" transform="translate(0.000000, 62.000000)">
                                    <rect id="矩形备份-48" fill="#00AAE7" opacity="0.854399182" x="0" y="0" width="232" height="28"></rect>
                                    <text id="实时音视频网络" font-family="PingFangSC-Regular, PingFang SC" font-size="12" font-weight="normal" fill="#FFFFFF">
                                        <tspan x="74" y="19">实时音视频网络</tspan>
                                    </text>
                                </g>
                                <path id="直线-5" d="M55,33 L55,45 L59,45 L54.5,54 L50,45 L54,45 L54,33 L55,33 Z" fill="#00AAE7" fill-rule="nonzero"></path>
                                <path id="直线-5" d="M178,33 L178,45 L182,45 L177.5,54 L173,45 L177,45 L177,33 L178,33 Z" fill="#00AAE7" fill-rule="nonzero"></path>
                            </g>
                        </g>
                        <g id="编组-28" transform="translate(519.000000, 100.000000)">
                            <path id="直线-3" d="M84,8 L93,12.5 L84,17 L84,13 L9,13 L9,17 L0,12.5 L9,8 L9,12 L84,12 L84,8 Z" fill="#00AAE7" fill-rule="nonzero"></path>
                            <g id="编组-2备份" transform="translate(19.000000, 0.000000)">
                                <path d="M54,0.5 C54.4142136,0.5 54.7892136,0.667893219 55.0606602,0.939339828 C55.3321068,1.21078644 55.5,1.58578644 55.5,2 L55.5,2 L55.5,22 C55.5,22.4142136 55.3321068,22.7892136 55.0606602,23.0606602 C54.7892136,23.3321068 54.4142136,23.5 54,23.5 L54,23.5 L2,23.5 C1.58578644,23.5 1.21078644,23.3321068 0.939339828,23.0606602 C0.667893219,22.7892136 0.5,22.4142136 0.5,22 L0.5,22 L0.5,2 C0.5,1.58578644 0.667893219,1.21078644 0.939339828,0.939339828 C1.21078644,0.667893219 1.58578644,0.5 2,0.5 L2,0.5 Z" id="矩形备份-3" stroke="#00AAE7" fill="#EDF9FA"></path>
                                <text id="连麦互动" font-family="PingFangSC-Regular, PingFang SC" font-size="12" font-weight="normal" fill="#00AAE7">
                                    <tspan x="4" y="17">连麦互动</tspan>
                                </text>
                            </g>
                        </g>
                        <g id="编组-28" transform="translate(519.000000, 448.000000)">
                            <path id="直线-3" d="M84,8 L93,12.5 L84,17 L84,13 L0,13 L0,12 L84,12 L84,8 Z" fill="#00AAE7" fill-rule="nonzero"></path>
                            <g id="编组-2备份" transform="translate(17.000000, 0.000000)">
                                <path d="M54,0.5 C54.4142136,0.5 54.7892136,0.667893219 55.0606602,0.939339828 C55.3321068,1.21078644 55.5,1.58578644 55.5,2 L55.5,2 L55.5,22 C55.5,22.4142136 55.3321068,22.7892136 55.0606602,23.0606602 C54.7892136,23.3321068 54.4142136,23.5 54,23.5 L54,23.5 L2,23.5 C1.58578644,23.5 1.21078644,23.3321068 0.939339828,23.0606602 C0.667893219,22.7892136 0.5,22.4142136 0.5,22 L0.5,22 L0.5,2 C0.5,1.58578644 0.667893219,1.21078644 0.939339828,0.939339828 C1.21078644,0.667893219 1.58578644,0.5 2,0.5 L2,0.5 Z" id="矩形备份-3" stroke="#00AAE7" fill="#EDF9FA"></path>
                                <text id="直播下行" font-family="PingFangSC-Regular, PingFang SC" font-size="12" font-weight="normal" fill="#00AAE7">
                                    <tspan x="3" y="17">直播下行</tspan>
                                </text>
                            </g>
                        </g>
                        <g id="编组-18">
                            <path d="M2,0 L148,0 C149.104569,-2.02906125e-16 150,0.8954305 150,2 L150,225 C150,226.104569 149.104569,227 148,227 L2,227 C0.8954305,227 1.3527075e-16,226.104569 0,225 L0,2 C-1.3527075e-16,0.8954305 0.8954305,2.02906125e-16 2,0 Z" id="矩形备份-25" fill="#EDF9FA"></path>
                            <text id="教师" font-family="PingFangSC-Medium, PingFang SC" font-size="14" font-weight="400" fill="#28B8BB">
                                <tspan x="61" y="23">教师</tspan>
                            </text>
                            <g id="apple" transform="translate(10.000000, 36.000000)" fill="#47C2C5">
                                <path d="M38.0923862,4.81905403 C39.5677271,4.81905403 41.0792571,5.60511698 42.1354766,6.9205521 L42.1354766,6.9205521 L42.7641586,7.70324861 L41.8838355,8.18549066 C40.8250911,8.76535937 40.2426976,9.82073725 40.3260169,11.0090894 C40.4110194,12.228581 41.1642596,13.2511362 42.2903327,13.6769904 L42.2903327,13.6769904 L43.129417,13.9942771 L42.7607922,14.8106379 C42.3256803,15.7734388 42.1093867,16.2169668 41.5505582,17.0644673 C40.6045895,18.5061437 39.4145542,19.9814846 37.7641586,19.9966336 C36.3948605,20.0058913 36.2097065,19.3233462 34.7436234,19.2543343 C34.1683234,19.2579412 33.7839313,19.3954155 33.4236318,19.5513512 L33.0651848,19.7091664 C32.702412,19.8645868 32.3081267,20 31.7155136,20 L31.7155136,20 L31.6826909,20 C29.9935813,19.984851 28.8010211,18.4977277 27.9501543,17.2033328 C25.8032093,13.936206 25.3756718,9.8249453 26.9334904,7.42720081 C27.9770857,5.81972732 29.6661953,4.81989564 31.3409975,4.81989564 C32.207855,4.81989564 32.8828255,5.06059586 33.4786848,5.27268137 C33.9331537,5.43427032 34.3253436,5.57397744 34.7225831,5.57397744 C35.0710093,5.57397744 35.388296,5.45446894 35.7905852,5.30213769 C36.3603546,5.08668574 37.0698311,4.81905403 38.0923862,4.81905403 Z M37.8382202,0 C37.9888683,1.01245582 37.573955,2.00302979 37.026909,2.70493183 C36.441149,3.45648881 35.4320597,4.03888234 34.4574763,4.00858441 C34.2798967,3.03905066 34.7368905,2.04258542 35.2906693,1.37013971 C35.900836,0.629523649 36.9444313,0.0614374684 37.8382202,0 Z" id="形状结合" fill-rule="nonzero"></path>
                                <path d="M71,11.8181818 L71,20 L62.8181818,20 L62.8181818,11.8181818 L71,11.8181818 Z M61.1818182,11.8181818 L61.1818182,20 L53,20 L53,11.8181818 L61.1818182,11.8181818 Z M61.1818182,2 L61.1818182,10.1818182 L53,10.1818182 L53,2 L61.1818182,2 Z M71,2 L71,10.1818182 L62.8181818,10.1818182 L62.8181818,2 L71,2 Z" id="形状结合" fill-rule="nonzero"></path>
                                <path d="M96.3358333,8.1105 C99.5643333,8.1105 103,10.2555 103,13.18425 C103,14.9589167 102.228167,16.74 100.606583,17.87025 L100.606583,17.87025 L100.996167,19.5615 C101.031917,19.7173333 100.8605,19.83925 100.724833,19.7530833 L100.724833,19.7530833 L99.0079167,18.6631667 C98.2351667,18.9198333 97.346,19.0646667 96.3358333,19.0646667 C91.7699167,19.0646667 89.833,15.7710833 89.833,13.5875833 C89.833,11.40775 91.7699167,8.1105 96.3358333,8.1105 Z M88.9786667,2 C92.7095,2 96.01225,4.2 96.6759167,7.37991667 C96.56225,7.37533333 96.4485833,7.37258333 96.3349167,7.37258333 C91.3409167,7.37258333 89.0941667,11.0071667 89.0941667,13.5875833 C89.0941667,14.0440833 89.16475,14.5326667 89.3068333,15.0285833 C89.1079167,15.0194167 87.0600833,14.9213333 86.09575,14.61425 L86.09575,14.61425 L83.9140833,15.8508333 C83.6959167,15.9745833 83.4365,15.77475 83.5006667,15.5318333 L83.5006667,15.5318333 L83.9865,13.6920833 C83.9865,13.6920833 81,11.7551667 81,8.41116667 C81,5.06716667 84.4595,2 88.9786667,2 Z M94.2476667,10.8751667 C93.7636667,10.8751667 93.3713333,11.2675 93.3713333,11.7515 C93.3713333,12.2355 93.7636667,12.6278333 94.2476667,12.6278333 C94.7316667,12.6278333 95.124,12.2355 95.124,11.7515 C95.124,11.2675 94.7316667,10.8751667 94.2476667,10.8751667 Z M98.6293333,10.8751667 C98.1453333,10.8751667 97.753,11.2675 97.753,11.7515 C97.753,12.2355 98.1453333,12.6278333 98.6293333,12.6278333 C99.1133333,12.6278333 99.5056667,12.2355 99.5056667,11.7515 C99.5056667,11.2675 99.1133333,10.8751667 98.6293333,10.8751667 Z M86.0040833,5.34308333 C85.4559167,5.34308333 85.01225,5.78675 85.01225,6.33491667 C85.01225,6.88308333 85.4568333,7.32675 86.0040833,7.32675 C86.55225,7.32675 86.9959167,6.88308333 86.9959167,6.33491667 C86.9959167,5.78675 86.55225,5.34308333 86.0040833,5.34308333 Z M91.769,5.34308333 C91.2208333,5.34308333 90.7771667,5.78675 90.7771667,6.33491667 C90.7771667,6.88308333 91.22175,7.32675 91.769,7.32675 C92.3171667,7.32675 92.7608333,6.88308333 92.7608333,6.33491667 C92.7608333,5.78675 92.31625,5.34308333 91.769,5.34308333 Z" id="形状结合" fill-rule="nonzero"></path>
                                <path d="M130,2 L130,20 L112,20 L112,2 L130,2 Z M120.556,9.432 L119.248,9.432 L119.248,15.192 C119.248,15.828 119.128,16.284 118.912,16.572 C118.684,16.86 118.324,17.016 117.82,17.016 C116.932,17.016 116.488,16.5 116.488,15.48 L116.488,15.204 L115.18,15.204 L115.18,15.492 C115.18,16.332 115.408,16.98 115.864,17.46 C116.296,17.928 116.944,18.168 117.796,18.168 C118.78,18.168 119.5,17.904 119.956,17.4 C120.352,16.92 120.556,16.2 120.556,15.24 L120.556,9.432 Z M125.236,9.264 C124.324,9.264 123.568,9.468 122.968,9.876 C122.332,10.308 122.02,10.896 122.02,11.652 C122.02,12.396 122.344,12.972 123.004,13.368 C123.268,13.512 123.916,13.74 124.972,14.076 C125.92,14.364 126.484,14.556 126.676,14.652 C127.216,14.928 127.492,15.3 127.492,15.78 C127.492,16.164 127.3,16.464 126.916,16.68 C126.532,16.896 126.016,17.016 125.368,17.016 C124.648,17.016 124.12,16.884 123.772,16.62 C123.388,16.332 123.148,15.84 123.052,15.168 L121.756,15.168 C121.828,16.248 122.212,17.04 122.92,17.544 C123.508,17.952 124.324,18.168 125.368,18.168 C126.448,18.168 127.288,17.952 127.888,17.52 C128.488,17.076 128.788,16.476 128.788,15.708 C128.788,14.916 128.416,14.304 127.684,13.86 C127.348,13.656 126.592,13.38 125.44,13.02 C124.636,12.78 124.144,12.6 123.952,12.492 C123.52,12.264 123.316,11.964 123.316,11.58 C123.316,11.148 123.496,10.836 123.868,10.644 C124.168,10.476 124.6,10.392 125.164,10.392 C125.812,10.392 126.292,10.512 126.628,10.764 C126.964,11.004 127.18,11.412 127.3,11.964 L128.596,11.964 C128.512,11.028 128.176,10.344 127.576,9.9 C127.012,9.468 126.232,9.264 125.236,9.264 Z" id="形状结合"></path>
                                <path d="M3.33333333,16 C3.33333333,16.4583333 3.70833333,16.8333333 4.16666667,16.8333333 L5,16.8333333 L5,19.75 C5,20.4416667 5.55833333,21 6.25,21 C6.94166667,21 7.5,20.4416667 7.5,19.75 L7.5,16.8333333 L9.16666667,16.8333333 L9.16666667,19.75 C9.16666667,20.4416667 9.725,21 10.4166667,21 C11.1083333,21 11.6666667,20.4416667 11.6666667,19.75 L11.6666667,16.8333333 L12.5,16.8333333 C12.9583333,16.8333333 13.3333333,16.4583333 13.3333333,16 L13.3333333,7.66666667 L3.33333333,7.66666667 L3.33333333,16 Z M1.25,7.66666667 C0.558333333,7.66666667 0,8.225 0,8.91666667 L0,14.75 C0,15.4416667 0.558333333,16 1.25,16 C1.94166667,16 2.5,15.4416667 2.5,14.75 L2.5,8.91666667 C2.5,8.225 1.94166667,7.66666667 1.25,7.66666667 Z M15.4166667,7.66666667 C14.725,7.66666667 14.1666667,8.225 14.1666667,8.91666667 L14.1666667,14.75 C14.1666667,15.4416667 14.725,16 15.4166667,16 C16.1083333,16 16.6666667,15.4416667 16.6666667,14.75 L16.6666667,8.91666667 C16.6666667,8.225 16.1083333,7.66666667 15.4166667,7.66666667 Z M11.275,2.8 L12.3583333,1.71666667 C12.525,1.55 12.525,1.29166667 12.3583333,1.125 C12.1916667,0.958333333 11.9333333,0.958333333 11.7666667,1.125 L10.5333333,2.35833333 C9.85140601,2.01298937 9.0977202,1.83313253 8.33333317,1.83333333 C7.53333333,1.83333333 6.78333333,2.025 6.11666667,2.35833333 L4.875,1.125 C4.70833333,0.958333333 4.45,0.958333333 4.28333333,1.125 C4.11666667,1.29166667 4.11666667,1.55 4.28333333,1.71666667 L5.375,2.80833333 C4.09139882,3.74754494 3.33292877,5.24281447 3.33333317,6.83333333 L13.3333332,6.83333333 C13.3333332,5.175 12.525,3.70833333 11.275,2.8 L11.275,2.8 Z M6.66666667,5.16666667 L5.83333333,5.16666667 L5.83333333,4.33333333 L6.66666667,4.33333333 L6.66666667,5.16666667 Z M10.8333333,5.16666667 L10,5.16666667 L10,4.33333333 L10.8333333,4.33333333 L10.8333333,5.16666667 Z" id="形状" fill-rule="nonzero"></path>
                            </g>
                            <g id="编组-17" transform="translate(10.000000, 81.000000)">
                                <g id="编组-16">
                                    <rect id="矩形备份-36" fill="#28B8BB" opacity="0.854399182" x="0" y="0" width="130" height="28"></rect>
                                    <text id="实时互动" font-family="PingFangSC-Regular, PingFang SC" font-size="12" font-weight="normal" fill="#FFFFFF">
                                        <tspan x="41" y="18">实时互动</tspan>
                                    </text>
                                </g>
                                <g id="编组-2" transform="translate(0.000000, 36.000000)">
                                    <rect id="矩形备份-48" fill="#28B8BB" opacity="0.854399182" x="0" y="0" width="130" height="28"></rect>
                                    <text id="教学白板" font-family="PingFangSC-Regular, PingFang SC" font-size="12" font-weight="normal" fill="#FFFFFF">
                                        <tspan x="43" y="18">教学白板</tspan>
                                    </text>
                                </g>
                                <g id="编组-3" transform="translate(0.000000, 72.000000)">
                                    <rect id="矩形备份-51" fill="#28B8BB" opacity="0.854399182" x="0" y="0" width="130" height="28"></rect>
                                    <text id="美颜特效" font-family="PingFangSC-Regular, PingFang SC" font-size="12" font-weight="normal" fill="#FFFFFF">
                                        <tspan x="41" y="18">美颜特效</tspan>
                                    </text>
                                </g>
                                <g id="编组-3" transform="translate(0.000000, 108.000000)">
                                    <rect id="矩形备份-51" fill="#28B8BB" opacity="0.854399182" x="0" y="0" width="130" height="28"></rect>
                                    <text id="IM-聊天" font-family="PingFangSC-Regular, PingFang SC" font-size="12" font-weight="normal" fill="#FFFFFF">
                                        <tspan x="44" y="18">IM 聊天</tspan>
                                    </text>
                                </g>
                            </g>
                        </g>
                        <g id="编组-18" transform="translate(620.000000, 0.000000)">
                            <path d="M2,0 L148,0 C149.104569,-4.2495073e-16 150,0.8954305 150,2 L150,276 C150,277.104569 149.104569,278 148,278 L2,278 C0.8954305,278 -8.67738547e-17,277.104569 0,276 L0,2 C-3.57315355e-16,0.8954305 0.8954305,-1.91384796e-17 2,0 Z" id="矩形备份-25" fill="#EDF9FA"></path>
                            <g id="形状结合-2" transform="translate(14.000000, 225.000000)" fill="#47C2C5" fill-rule="nonzero">
                                <path d="M15.7001432,10 C16.885414,10 17.9595281,10.6979885 18.4411432,11.781 L18.4411432,11.781 L21.9141432,19.594 C22.069403,19.9434709 22.011766,20.3508868 21.7656598,20.6435765 C21.5195537,20.9362663 21.1280761,21.0629746 20.7571432,20.97 L20.7571432,20.97 L17.0001432,20.03 L17.0001432,24 L5.00014315,24 L5.00014315,20.03 L1.24314315,20.97 C0.872210211,21.0629746 0.480732622,20.9362663 0.234626479,20.6435765 C-0.0114796635,20.3508868 -0.0691166817,19.9434709 0.0861431547,19.594 L0.0861431547,19.594 L3.55914315,11.781 C4.04075819,10.6979885 5.11487236,10 6.30014315,10 L6.30014315,10 Z M15.0001432,14 L11.0001432,15 L7.00014315,14 L7.00014315,17.469 L8.75714315,17.03 L9.24314315,18.97 L7.00014315,19.53 L7.00014315,21 L11.0001432,22 L15.0001432,21 L15.0001432,19.53 L12.7571432,18.97 L13.2431432,17.03 L15.0001432,17.469 L15.0001432,14 Z M5.00014315,13.462 L2.74714315,18.532 L5.00014315,17.969 L5.00014315,13.462 Z M17.0001432,13.462 L17.0001432,17.97 L19.2531432,18.532 L17.0001432,13.462 Z M11.0001432,0 C13.1423385,0 14.891222,1.68396847 14.9952478,3.80035966 L15.0001432,4 C15.0001432,6.14219539 13.3161747,7.89107888 11.1997835,7.99510469 L11.0001432,8 C8.85794776,8 7.10906428,6.31603153 7.00503846,4.19964034 L7.00014315,4 C7.00014315,1.85780461 8.68411163,0.108921124 10.8005028,0.00489530723 L11.0001432,0 Z" id="形状结合"></path>
                                <path d="M66.7001432,10 C67.885414,10 68.9595281,10.6979885 69.4411432,11.781 L69.4411432,11.781 L72.9141432,19.594 C73.069403,19.9434709 73.011766,20.3508868 72.7656598,20.6435765 C72.5195537,20.9362663 72.1280761,21.0629746 71.7571432,20.97 L71.7571432,20.97 L68.0001432,20.03 L68.0001432,24 L56.0001432,24 L56.0001432,20.03 L52.2431432,20.97 C51.8722102,21.0629746 51.4807326,20.9362663 51.2346265,20.6435765 C50.9885203,20.3508868 50.9308833,19.9434709 51.0861432,19.594 L51.0861432,19.594 L54.5591432,11.781 C55.0407582,10.6979885 56.1148724,10 57.3001432,10 L57.3001432,10 Z M66.0001432,14 L62.0001432,15 L58.0001432,14 L58.0001432,17.469 L59.7571432,17.03 L60.2431432,18.97 L58.0001432,19.53 L58.0001432,21 L62.0001432,22 L66.0001432,21 L66.0001432,19.53 L63.7571432,18.97 L64.2431432,17.03 L66.0001432,17.469 L66.0001432,14 Z M56.0001432,13.462 L53.7471432,18.532 L56.0001432,17.969 L56.0001432,13.462 Z M68.0001432,13.462 L68.0001432,17.97 L70.2531432,18.532 L68.0001432,13.462 Z M62.0001432,0 C64.1423385,0 65.891222,1.68396847 65.9952478,3.80035966 L66.0001432,4 C66.0001432,6.14219539 64.3161747,7.89107888 62.1997835,7.99510469 L62.0001432,8 C59.8579478,8 58.1090643,6.31603153 58.0050385,4.19964034 L58.0001432,4 C58.0001432,1.85780461 59.6841116,0.108921124 61.8005028,0.00489530723 L62.0001432,0 Z" id="形状结合"></path>
                                <path d="M115.700143,10 C116.885414,10 117.959528,10.6979885 118.441143,11.781 L118.441143,11.781 L121.914143,19.594 C122.069403,19.9434709 122.011766,20.3508868 121.76566,20.6435765 C121.519554,20.9362663 121.128076,21.0629746 120.757143,20.97 L120.757143,20.97 L117.000143,20.03 L117.000143,24 L105.000143,24 L105.000143,20.03 L101.243143,20.97 C100.87221,21.0629746 100.480733,20.9362663 100.234626,20.6435765 C99.9885203,20.3508868 99.9308833,19.9434709 100.086143,19.594 L100.086143,19.594 L103.559143,11.781 C104.040758,10.6979885 105.114872,10 106.300143,10 L106.300143,10 Z M115.000143,14 L111.000143,15 L107.000143,14 L107.000143,17.469 L108.757143,17.03 L109.243143,18.97 L107.000143,19.53 L107.000143,21 L111.000143,22 L115.000143,21 L115.000143,19.53 L112.757143,18.97 L113.243143,17.03 L115.000143,17.469 L115.000143,14 Z M105.000143,13.462 L102.747143,18.532 L105.000143,17.969 L105.000143,13.462 Z M117.000143,13.462 L117.000143,17.97 L119.253143,18.532 L117.000143,13.462 Z M111.000143,0 C113.142339,0 114.891222,1.68396847 114.995248,3.80035966 L115.000143,4 C115.000143,6.14219539 113.316175,7.89107888 111.199783,7.99510469 L111.000143,8 C108.857948,8 107.109064,6.31603153 107.005038,4.19964034 L107.000143,4 C107.000143,1.85780461 108.684112,0.108921124 110.800503,0.00489530723 L111.000143,0 Z" id="形状结合"></path>
                            </g>
                            <text id="学生1" font-family="PingFangSC-Regular, PingFang SC" font-size="12" font-weight="normal" line-spacing="18" fill="#47C2C5">
                                <tspan x="10" y="266">学生1</tspan>
                            </text>
                            <text id="学生2" font-family="PingFangSC-Regular, PingFang SC" font-size="12" font-weight="normal" line-spacing="18" fill="#47C2C5">
                                <tspan x="59" y="266">学生2</tspan>
                            </text>
                            <text id="学生N" font-family="PingFangSC-Regular, PingFang SC" font-size="12" font-weight="normal" line-spacing="18" fill="#47C2C5">
                                <tspan x="108" y="266">学生N</tspan>
                            </text>
                            <text id="互动学生" font-family="PingFangSC-Medium, PingFang SC" font-size="14" font-weight="400" fill="#28B8BB">
                                <tspan x="47" y="23">互动学生</tspan>
                            </text>
                            <g id="apple" transform="translate(10.000000, 36.000000)" fill="#47C2C5">
                                <path d="M38.0923862,4.81905403 C39.5677271,4.81905403 41.0792571,5.60511698 42.1354766,6.9205521 L42.1354766,6.9205521 L42.7641586,7.70324861 L41.8838355,8.18549066 C40.8250911,8.76535937 40.2426976,9.82073725 40.3260169,11.0090894 C40.4110194,12.228581 41.1642596,13.2511362 42.2903327,13.6769904 L42.2903327,13.6769904 L43.129417,13.9942771 L42.7607922,14.8106379 C42.3256803,15.7734388 42.1093867,16.2169668 41.5505582,17.0644673 C40.6045895,18.5061437 39.4145542,19.9814846 37.7641586,19.9966336 C36.3948605,20.0058913 36.2097065,19.3233462 34.7436234,19.2543343 C34.1683234,19.2579412 33.7839313,19.3954155 33.4236318,19.5513512 L33.0651848,19.7091664 C32.702412,19.8645868 32.3081267,20 31.7155136,20 L31.7155136,20 L31.6826909,20 C29.9935813,19.984851 28.8010211,18.4977277 27.9501543,17.2033328 C25.8032093,13.936206 25.3756718,9.8249453 26.9334904,7.42720081 C27.9770857,5.81972732 29.6661953,4.81989564 31.3409975,4.81989564 C32.207855,4.81989564 32.8828255,5.06059586 33.4786848,5.27268137 C33.9331537,5.43427032 34.3253436,5.57397744 34.7225831,5.57397744 C35.0710093,5.57397744 35.388296,5.45446894 35.7905852,5.30213769 C36.3603546,5.08668574 37.0698311,4.81905403 38.0923862,4.81905403 Z M37.8382202,0 C37.9888683,1.01245582 37.573955,2.00302979 37.026909,2.70493183 C36.441149,3.45648881 35.4320597,4.03888234 34.4574763,4.00858441 C34.2798967,3.03905066 34.7368905,2.04258542 35.2906693,1.37013971 C35.900836,0.629523649 36.9444313,0.0614374684 37.8382202,0 Z" id="形状结合" fill-rule="nonzero"></path>
                                <path d="M71,11.8181818 L71,20 L62.8181818,20 L62.8181818,11.8181818 L71,11.8181818 Z M61.1818182,11.8181818 L61.1818182,20 L53,20 L53,11.8181818 L61.1818182,11.8181818 Z M61.1818182,2 L61.1818182,10.1818182 L53,10.1818182 L53,2 L61.1818182,2 Z M71,2 L71,10.1818182 L62.8181818,10.1818182 L62.8181818,2 L71,2 Z" id="形状结合" fill-rule="nonzero"></path>
                                <path d="M96.3358333,8.1105 C99.5643333,8.1105 103,10.2555 103,13.18425 C103,14.9589167 102.228167,16.74 100.606583,17.87025 L100.606583,17.87025 L100.996167,19.5615 C101.031917,19.7173333 100.8605,19.83925 100.724833,19.7530833 L100.724833,19.7530833 L99.0079167,18.6631667 C98.2351667,18.9198333 97.346,19.0646667 96.3358333,19.0646667 C91.7699167,19.0646667 89.833,15.7710833 89.833,13.5875833 C89.833,11.40775 91.7699167,8.1105 96.3358333,8.1105 Z M88.9786667,2 C92.7095,2 96.01225,4.2 96.6759167,7.37991667 C96.56225,7.37533333 96.4485833,7.37258333 96.3349167,7.37258333 C91.3409167,7.37258333 89.0941667,11.0071667 89.0941667,13.5875833 C89.0941667,14.0440833 89.16475,14.5326667 89.3068333,15.0285833 C89.1079167,15.0194167 87.0600833,14.9213333 86.09575,14.61425 L86.09575,14.61425 L83.9140833,15.8508333 C83.6959167,15.9745833 83.4365,15.77475 83.5006667,15.5318333 L83.5006667,15.5318333 L83.9865,13.6920833 C83.9865,13.6920833 81,11.7551667 81,8.41116667 C81,5.06716667 84.4595,2 88.9786667,2 Z M94.2476667,10.8751667 C93.7636667,10.8751667 93.3713333,11.2675 93.3713333,11.7515 C93.3713333,12.2355 93.7636667,12.6278333 94.2476667,12.6278333 C94.7316667,12.6278333 95.124,12.2355 95.124,11.7515 C95.124,11.2675 94.7316667,10.8751667 94.2476667,10.8751667 Z M98.6293333,10.8751667 C98.1453333,10.8751667 97.753,11.2675 97.753,11.7515 C97.753,12.2355 98.1453333,12.6278333 98.6293333,12.6278333 C99.1133333,12.6278333 99.5056667,12.2355 99.5056667,11.7515 C99.5056667,11.2675 99.1133333,10.8751667 98.6293333,10.8751667 Z M86.0040833,5.34308333 C85.4559167,5.34308333 85.01225,5.78675 85.01225,6.33491667 C85.01225,6.88308333 85.4568333,7.32675 86.0040833,7.32675 C86.55225,7.32675 86.9959167,6.88308333 86.9959167,6.33491667 C86.9959167,5.78675 86.55225,5.34308333 86.0040833,5.34308333 Z M91.769,5.34308333 C91.2208333,5.34308333 90.7771667,5.78675 90.7771667,6.33491667 C90.7771667,6.88308333 91.22175,7.32675 91.769,7.32675 C92.3171667,7.32675 92.7608333,6.88308333 92.7608333,6.33491667 C92.7608333,5.78675 92.31625,5.34308333 91.769,5.34308333 Z" id="形状结合" fill-rule="nonzero"></path>
                                <path d="M130,2 L130,20 L112,20 L112,2 L130,2 Z M120.556,9.432 L119.248,9.432 L119.248,15.192 C119.248,15.828 119.128,16.284 118.912,16.572 C118.684,16.86 118.324,17.016 117.82,17.016 C116.932,17.016 116.488,16.5 116.488,15.48 L116.488,15.204 L115.18,15.204 L115.18,15.492 C115.18,16.332 115.408,16.98 115.864,17.46 C116.296,17.928 116.944,18.168 117.796,18.168 C118.78,18.168 119.5,17.904 119.956,17.4 C120.352,16.92 120.556,16.2 120.556,15.24 L120.556,9.432 Z M125.236,9.264 C124.324,9.264 123.568,9.468 122.968,9.876 C122.332,10.308 122.02,10.896 122.02,11.652 C122.02,12.396 122.344,12.972 123.004,13.368 C123.268,13.512 123.916,13.74 124.972,14.076 C125.92,14.364 126.484,14.556 126.676,14.652 C127.216,14.928 127.492,15.3 127.492,15.78 C127.492,16.164 127.3,16.464 126.916,16.68 C126.532,16.896 126.016,17.016 125.368,17.016 C124.648,17.016 124.12,16.884 123.772,16.62 C123.388,16.332 123.148,15.84 123.052,15.168 L121.756,15.168 C121.828,16.248 122.212,17.04 122.92,17.544 C123.508,17.952 124.324,18.168 125.368,18.168 C126.448,18.168 127.288,17.952 127.888,17.52 C128.488,17.076 128.788,16.476 128.788,15.708 C128.788,14.916 128.416,14.304 127.684,13.86 C127.348,13.656 126.592,13.38 125.44,13.02 C124.636,12.78 124.144,12.6 123.952,12.492 C123.52,12.264 123.316,11.964 123.316,11.58 C123.316,11.148 123.496,10.836 123.868,10.644 C124.168,10.476 124.6,10.392 125.164,10.392 C125.812,10.392 126.292,10.512 126.628,10.764 C126.964,11.004 127.18,11.412 127.3,11.964 L128.596,11.964 C128.512,11.028 128.176,10.344 127.576,9.9 C127.012,9.468 126.232,9.264 125.236,9.264 Z" id="形状结合"></path>
                                <path d="M3.33333333,16 C3.33333333,16.4583333 3.70833333,16.8333333 4.16666667,16.8333333 L5,16.8333333 L5,19.75 C5,20.4416667 5.55833333,21 6.25,21 C6.94166667,21 7.5,20.4416667 7.5,19.75 L7.5,16.8333333 L9.16666667,16.8333333 L9.16666667,19.75 C9.16666667,20.4416667 9.725,21 10.4166667,21 C11.1083333,21 11.6666667,20.4416667 11.6666667,19.75 L11.6666667,16.8333333 L12.5,16.8333333 C12.9583333,16.8333333 13.3333333,16.4583333 13.3333333,16 L13.3333333,7.66666667 L3.33333333,7.66666667 L3.33333333,16 Z M1.25,7.66666667 C0.558333333,7.66666667 0,8.225 0,8.91666667 L0,14.75 C0,15.4416667 0.558333333,16 1.25,16 C1.94166667,16 2.5,15.4416667 2.5,14.75 L2.5,8.91666667 C2.5,8.225 1.94166667,7.66666667 1.25,7.66666667 Z M15.4166667,7.66666667 C14.725,7.66666667 14.1666667,8.225 14.1666667,8.91666667 L14.1666667,14.75 C14.1666667,15.4416667 14.725,16 15.4166667,16 C16.1083333,16 16.6666667,15.4416667 16.6666667,14.75 L16.6666667,8.91666667 C16.6666667,8.225 16.1083333,7.66666667 15.4166667,7.66666667 Z M11.275,2.8 L12.3583333,1.71666667 C12.525,1.55 12.525,1.29166667 12.3583333,1.125 C12.1916667,0.958333333 11.9333333,0.958333333 11.7666667,1.125 L10.5333333,2.35833333 C9.85140601,2.01298937 9.0977202,1.83313253 8.33333317,1.83333333 C7.53333333,1.83333333 6.78333333,2.025 6.11666667,2.35833333 L4.875,1.125 C4.70833333,0.958333333 4.45,0.958333333 4.28333333,1.125 C4.11666667,1.29166667 4.11666667,1.55 4.28333333,1.71666667 L5.375,2.80833333 C4.09139882,3.74754494 3.33292877,5.24281447 3.33333317,6.83333333 L13.3333332,6.83333333 C13.3333332,5.175 12.525,3.70833333 11.275,2.8 L11.275,2.8 Z M6.66666667,5.16666667 L5.83333333,5.16666667 L5.83333333,4.33333333 L6.66666667,4.33333333 L6.66666667,5.16666667 Z M10.8333333,5.16666667 L10,5.16666667 L10,4.33333333 L10.8333333,4.33333333 L10.8333333,5.16666667 Z" id="形状" fill-rule="nonzero"></path>
                            </g>
                            <g id="编组-17" transform="translate(10.000000, 81.000000)">
                                <g id="编组-16">
                                    <rect id="矩形备份-36" fill="#28B8BB" opacity="0.854399182" x="0" y="0" width="130" height="28"></rect>
                                    <text id="实时互动" font-family="PingFangSC-Regular, PingFang SC" font-size="12" font-weight="normal" fill="#FFFFFF">
                                        <tspan x="41" y="18">实时互动</tspan>
                                    </text>
                                </g>
                                <g id="编组-2" transform="translate(0.000000, 36.000000)">
                                    <rect id="矩形备份-48" fill="#28B8BB" opacity="0.854399182" x="0" y="0" width="130" height="28"></rect>
                                    <text id="教学白板" font-family="PingFangSC-Regular, PingFang SC" font-size="12" font-weight="normal" fill="#FFFFFF">
                                        <tspan x="41" y="18">教学白板</tspan>
                                    </text>
                                </g>
                                <g id="编组-3" transform="translate(0.000000, 72.000000)">
                                    <rect id="矩形备份-51" fill="#28B8BB" opacity="0.854399182" x="0" y="0" width="130" height="28"></rect>
                                    <text id="美颜特效" font-family="PingFangSC-Regular, PingFang SC" font-size="12" font-weight="normal" fill="#FFFFFF">
                                        <tspan x="41" y="18">美颜特效</tspan>
                                    </text>
                                </g>
                                <g id="编组-3" transform="translate(0.000000, 108.000000)">
                                    <rect id="矩形备份-51" fill="#28B8BB" opacity="0.854399182" x="0" y="0" width="130" height="28"></rect>
                                    <text id="IM-聊天" font-family="PingFangSC-Regular, PingFang SC" font-size="12" font-weight="normal" fill="#FFFFFF">
                                        <tspan x="44" y="18">IM 聊天</tspan>
                                    </text>
                                </g>
                            </g>
                        </g>
                        <g id="编组-33" transform="translate(667.000000, 294.000000)">
                            <path id="直线-6" d="M27.5,-0.5 L32,8.5 L28,8.5 L28,52.5 L27,52.5 L27,8.5 L23,8.5 L27.5,-0.5 Z" fill="#47C2C5" fill-rule="nonzero"></path>
                            <g id="编组-2备份" transform="translate(0.000000, 16.500000)">
                                <path d="M54,0.5 C54.4142136,0.5 54.7892136,0.667893219 55.0606602,0.939339828 C55.3321068,1.21078644 55.5,1.58578644 55.5,2 L55.5,2 L55.5,22 C55.5,22.4142136 55.3321068,22.7892136 55.0606602,23.0606602 C54.7892136,23.3321068 54.4142136,23.5 54,23.5 L54,23.5 L2,23.5 C1.58578644,23.5 1.21078644,23.3321068 0.939339828,23.0606602 C0.667893219,22.7892136 0.5,22.4142136 0.5,22 L0.5,22 L0.5,2 C0.5,1.58578644 0.667893219,1.21078644 0.939339828,0.939339828 C1.21078644,0.667893219 1.58578644,0.5 2,0.5 L2,0.5 Z" id="矩形备份-3" stroke="#47C2C5" fill="#EDF9FA"></path>
                                <text id="申请连麦" font-family="PingFangSC-Regular, PingFang SC" font-size="12" font-weight="normal" fill="#47C2C5">
                                    <tspan x="4" y="17">申请连麦</tspan>
                                </text>
                            </g>
                        </g>
                        <g id="编组-18" transform="translate(620.000000, 362.000000)">
                            <path d="M2,0 L148,0 C149.104569,-4.2495073e-16 150,0.8954305 150,2 L150,281 C150,282.104569 149.104569,283 148,283 L2,283 C0.8954305,283 -8.67738547e-17,282.104569 0,281 L0,2 C-3.57315355e-16,0.8954305 0.8954305,-1.91384796e-17 2,0 Z" id="矩形备份-25" fill="#EDF9FA"></path>
                            <g id="形状结合-2" transform="translate(14.000000, 224.000000)" fill="#47C2C5" fill-rule="nonzero">
                                <path d="M15.7001432,10 C16.885414,10 17.9595281,10.6979885 18.4411432,11.781 L18.4411432,11.781 L21.9141432,19.594 C22.069403,19.9434709 22.011766,20.3508868 21.7656598,20.6435765 C21.5195537,20.9362663 21.1280761,21.0629746 20.7571432,20.97 L20.7571432,20.97 L17.0001432,20.03 L17.0001432,24 L5.00014315,24 L5.00014315,20.03 L1.24314315,20.97 C0.872210211,21.0629746 0.480732622,20.9362663 0.234626479,20.6435765 C-0.0114796635,20.3508868 -0.0691166817,19.9434709 0.0861431547,19.594 L0.0861431547,19.594 L3.55914315,11.781 C4.04075819,10.6979885 5.11487236,10 6.30014315,10 L6.30014315,10 Z M15.0001432,14 L11.0001432,15 L7.00014315,14 L7.00014315,17.469 L8.75714315,17.03 L9.24314315,18.97 L7.00014315,19.53 L7.00014315,21 L11.0001432,22 L15.0001432,21 L15.0001432,19.53 L12.7571432,18.97 L13.2431432,17.03 L15.0001432,17.469 L15.0001432,14 Z M5.00014315,13.462 L2.74714315,18.532 L5.00014315,17.969 L5.00014315,13.462 Z M17.0001432,13.462 L17.0001432,17.97 L19.2531432,18.532 L17.0001432,13.462 Z M11.0001432,0 C13.1423385,0 14.891222,1.68396847 14.9952478,3.80035966 L15.0001432,4 C15.0001432,6.14219539 13.3161747,7.89107888 11.1997835,7.99510469 L11.0001432,8 C8.85794776,8 7.10906428,6.31603153 7.00503846,4.19964034 L7.00014315,4 C7.00014315,1.85780461 8.68411163,0.108921124 10.8005028,0.00489530723 L11.0001432,0 Z" id="形状结合"></path>
                                <path d="M65.7001432,10 C66.885414,10 67.9595281,10.6979885 68.4411432,11.781 L68.4411432,11.781 L71.9141432,19.594 C72.069403,19.9434709 72.011766,20.3508868 71.7656598,20.6435765 C71.5195537,20.9362663 71.1280761,21.0629746 70.7571432,20.97 L70.7571432,20.97 L67.0001432,20.03 L67.0001432,24 L55.0001432,24 L55.0001432,20.03 L51.2431432,20.97 C50.8722102,21.0629746 50.4807326,20.9362663 50.2346265,20.6435765 C49.9885203,20.3508868 49.9308833,19.9434709 50.0861432,19.594 L50.0861432,19.594 L53.5591432,11.781 C54.0407582,10.6979885 55.1148724,10 56.3001432,10 L56.3001432,10 Z M65.0001432,14 L61.0001432,15 L57.0001432,14 L57.0001432,17.469 L58.7571432,17.03 L59.2431432,18.97 L57.0001432,19.53 L57.0001432,21 L61.0001432,22 L65.0001432,21 L65.0001432,19.53 L62.7571432,18.97 L63.2431432,17.03 L65.0001432,17.469 L65.0001432,14 Z M55.0001432,13.462 L52.7471432,18.532 L55.0001432,17.969 L55.0001432,13.462 Z M67.0001432,13.462 L67.0001432,17.97 L69.2531432,18.532 L67.0001432,13.462 Z M61.0001432,0 C63.1423385,0 64.891222,1.68396847 64.9952478,3.80035966 L65.0001432,4 C65.0001432,6.14219539 63.3161747,7.89107888 61.1997835,7.99510469 L61.0001432,8 C58.8579478,8 57.1090643,6.31603153 57.0050385,4.19964034 L57.0001432,4 C57.0001432,1.85780461 58.6841116,0.108921124 60.8005028,0.00489530723 L61.0001432,0 Z" id="形状结合"></path>
                                <path d="M113.700143,10 C114.885414,10 115.959528,10.6979885 116.441143,11.781 L116.441143,11.781 L119.914143,19.594 C120.069403,19.9434709 120.011766,20.3508868 119.76566,20.6435765 C119.519554,20.9362663 119.128076,21.0629746 118.757143,20.97 L118.757143,20.97 L115.000143,20.03 L115.000143,24 L103.000143,24 L103.000143,20.03 L99.2431432,20.97 C98.8722102,21.0629746 98.4807326,20.9362663 98.2346265,20.6435765 C97.9885203,20.3508868 97.9308833,19.9434709 98.0861432,19.594 L98.0861432,19.594 L101.559143,11.781 C102.040758,10.6979885 103.114872,10 104.300143,10 L104.300143,10 Z M113.000143,14 L109.000143,15 L105.000143,14 L105.000143,17.469 L106.757143,17.03 L107.243143,18.97 L105.000143,19.53 L105.000143,21 L109.000143,22 L113.000143,21 L113.000143,19.53 L110.757143,18.97 L111.243143,17.03 L113.000143,17.469 L113.000143,14 Z M103.000143,13.462 L100.747143,18.532 L103.000143,17.969 L103.000143,13.462 Z M115.000143,13.462 L115.000143,17.97 L117.253143,18.532 L115.000143,13.462 Z M109.000143,0 C111.142339,0 112.891222,1.68396847 112.995248,3.80035966 L113.000143,4 C113.000143,6.14219539 111.316175,7.89107888 109.199783,7.99510469 L109.000143,8 C106.857948,8 105.109064,6.31603153 105.005038,4.19964034 L105.000143,4 C105.000143,1.85780461 106.684112,0.108921124 108.800503,0.00489530723 L109.000143,0 Z" id="形状结合"></path>
                            </g>
                            <text id="学生1" font-family="PingFangSC-Regular, PingFang SC" font-size="12" font-weight="normal" line-spacing="18" fill="#47C2C5">
                                <tspan x="10" y="268">学生1</tspan>
                            </text>
                            <text id="学生2" font-family="PingFangSC-Regular, PingFang SC" font-size="12" font-weight="normal" line-spacing="18" fill="#47C2C5">
                                <tspan x="59" y="268">学生2</tspan>
                            </text>
                            <text id="学生N" font-family="PingFangSC-Regular, PingFang SC" font-size="12" font-weight="normal" line-spacing="18" fill="#47C2C5">
                                <tspan x="107" y="268">学生N</tspan>
                            </text>
                            <text id="连麦观众" font-family="PingFangSC-Medium, PingFang SC" font-size="14" font-weight="400" fill="#28B8BB">
                                <tspan x="47" y="23">连麦观众</tspan>
                            </text>
                            <g id="apple" transform="translate(10.000000, 36.000000)" fill="#47C2C5">
                                <path d="M38.0923862,4.81905403 C39.5677271,4.81905403 41.0792571,5.60511698 42.1354766,6.9205521 L42.1354766,6.9205521 L42.7641586,7.70324861 L41.8838355,8.18549066 C40.8250911,8.76535937 40.2426976,9.82073725 40.3260169,11.0090894 C40.4110194,12.228581 41.1642596,13.2511362 42.2903327,13.6769904 L42.2903327,13.6769904 L43.129417,13.9942771 L42.7607922,14.8106379 C42.3256803,15.7734388 42.1093867,16.2169668 41.5505582,17.0644673 C40.6045895,18.5061437 39.4145542,19.9814846 37.7641586,19.9966336 C36.3948605,20.0058913 36.2097065,19.3233462 34.7436234,19.2543343 C34.1683234,19.2579412 33.7839313,19.3954155 33.4236318,19.5513512 L33.0651848,19.7091664 C32.702412,19.8645868 32.3081267,20 31.7155136,20 L31.7155136,20 L31.6826909,20 C29.9935813,19.984851 28.8010211,18.4977277 27.9501543,17.2033328 C25.8032093,13.936206 25.3756718,9.8249453 26.9334904,7.42720081 C27.9770857,5.81972732 29.6661953,4.81989564 31.3409975,4.81989564 C32.207855,4.81989564 32.8828255,5.06059586 33.4786848,5.27268137 C33.9331537,5.43427032 34.3253436,5.57397744 34.7225831,5.57397744 C35.0710093,5.57397744 35.388296,5.45446894 35.7905852,5.30213769 C36.3603546,5.08668574 37.0698311,4.81905403 38.0923862,4.81905403 Z M37.8382202,0 C37.9888683,1.01245582 37.573955,2.00302979 37.026909,2.70493183 C36.441149,3.45648881 35.4320597,4.03888234 34.4574763,4.00858441 C34.2798967,3.03905066 34.7368905,2.04258542 35.2906693,1.37013971 C35.900836,0.629523649 36.9444313,0.0614374684 37.8382202,0 Z" id="形状结合" fill-rule="nonzero"></path>
                                <path d="M71,11.8181818 L71,20 L62.8181818,20 L62.8181818,11.8181818 L71,11.8181818 Z M61.1818182,11.8181818 L61.1818182,20 L53,20 L53,11.8181818 L61.1818182,11.8181818 Z M61.1818182,2 L61.1818182,10.1818182 L53,10.1818182 L53,2 L61.1818182,2 Z M71,2 L71,10.1818182 L62.8181818,10.1818182 L62.8181818,2 L71,2 Z" id="形状结合" fill-rule="nonzero"></path>
                                <path d="M96.3358333,8.1105 C99.5643333,8.1105 103,10.2555 103,13.18425 C103,14.9589167 102.228167,16.74 100.606583,17.87025 L100.606583,17.87025 L100.996167,19.5615 C101.031917,19.7173333 100.8605,19.83925 100.724833,19.7530833 L100.724833,19.7530833 L99.0079167,18.6631667 C98.2351667,18.9198333 97.346,19.0646667 96.3358333,19.0646667 C91.7699167,19.0646667 89.833,15.7710833 89.833,13.5875833 C89.833,11.40775 91.7699167,8.1105 96.3358333,8.1105 Z M88.9786667,2 C92.7095,2 96.01225,4.2 96.6759167,7.37991667 C96.56225,7.37533333 96.4485833,7.37258333 96.3349167,7.37258333 C91.3409167,7.37258333 89.0941667,11.0071667 89.0941667,13.5875833 C89.0941667,14.0440833 89.16475,14.5326667 89.3068333,15.0285833 C89.1079167,15.0194167 87.0600833,14.9213333 86.09575,14.61425 L86.09575,14.61425 L83.9140833,15.8508333 C83.6959167,15.9745833 83.4365,15.77475 83.5006667,15.5318333 L83.5006667,15.5318333 L83.9865,13.6920833 C83.9865,13.6920833 81,11.7551667 81,8.41116667 C81,5.06716667 84.4595,2 88.9786667,2 Z M94.2476667,10.8751667 C93.7636667,10.8751667 93.3713333,11.2675 93.3713333,11.7515 C93.3713333,12.2355 93.7636667,12.6278333 94.2476667,12.6278333 C94.7316667,12.6278333 95.124,12.2355 95.124,11.7515 C95.124,11.2675 94.7316667,10.8751667 94.2476667,10.8751667 Z M98.6293333,10.8751667 C98.1453333,10.8751667 97.753,11.2675 97.753,11.7515 C97.753,12.2355 98.1453333,12.6278333 98.6293333,12.6278333 C99.1133333,12.6278333 99.5056667,12.2355 99.5056667,11.7515 C99.5056667,11.2675 99.1133333,10.8751667 98.6293333,10.8751667 Z M86.0040833,5.34308333 C85.4559167,5.34308333 85.01225,5.78675 85.01225,6.33491667 C85.01225,6.88308333 85.4568333,7.32675 86.0040833,7.32675 C86.55225,7.32675 86.9959167,6.88308333 86.9959167,6.33491667 C86.9959167,5.78675 86.55225,5.34308333 86.0040833,5.34308333 Z M91.769,5.34308333 C91.2208333,5.34308333 90.7771667,5.78675 90.7771667,6.33491667 C90.7771667,6.88308333 91.22175,7.32675 91.769,7.32675 C92.3171667,7.32675 92.7608333,6.88308333 92.7608333,6.33491667 C92.7608333,5.78675 92.31625,5.34308333 91.769,5.34308333 Z" id="形状结合" fill-rule="nonzero"></path>
                                <path d="M130,2 L130,20 L112,20 L112,2 L130,2 Z M120.556,9.432 L119.248,9.432 L119.248,15.192 C119.248,15.828 119.128,16.284 118.912,16.572 C118.684,16.86 118.324,17.016 117.82,17.016 C116.932,17.016 116.488,16.5 116.488,15.48 L116.488,15.204 L115.18,15.204 L115.18,15.492 C115.18,16.332 115.408,16.98 115.864,17.46 C116.296,17.928 116.944,18.168 117.796,18.168 C118.78,18.168 119.5,17.904 119.956,17.4 C120.352,16.92 120.556,16.2 120.556,15.24 L120.556,9.432 Z M125.236,9.264 C124.324,9.264 123.568,9.468 122.968,9.876 C122.332,10.308 122.02,10.896 122.02,11.652 C122.02,12.396 122.344,12.972 123.004,13.368 C123.268,13.512 123.916,13.74 124.972,14.076 C125.92,14.364 126.484,14.556 126.676,14.652 C127.216,14.928 127.492,15.3 127.492,15.78 C127.492,16.164 127.3,16.464 126.916,16.68 C126.532,16.896 126.016,17.016 125.368,17.016 C124.648,17.016 124.12,16.884 123.772,16.62 C123.388,16.332 123.148,15.84 123.052,15.168 L121.756,15.168 C121.828,16.248 122.212,17.04 122.92,17.544 C123.508,17.952 124.324,18.168 125.368,18.168 C126.448,18.168 127.288,17.952 127.888,17.52 C128.488,17.076 128.788,16.476 128.788,15.708 C128.788,14.916 128.416,14.304 127.684,13.86 C127.348,13.656 126.592,13.38 125.44,13.02 C124.636,12.78 124.144,12.6 123.952,12.492 C123.52,12.264 123.316,11.964 123.316,11.58 C123.316,11.148 123.496,10.836 123.868,10.644 C124.168,10.476 124.6,10.392 125.164,10.392 C125.812,10.392 126.292,10.512 126.628,10.764 C126.964,11.004 127.18,11.412 127.3,11.964 L128.596,11.964 C128.512,11.028 128.176,10.344 127.576,9.9 C127.012,9.468 126.232,9.264 125.236,9.264 Z" id="形状结合"></path>
                                <path d="M3.33333333,16 C3.33333333,16.4583333 3.70833333,16.8333333 4.16666667,16.8333333 L5,16.8333333 L5,19.75 C5,20.4416667 5.55833333,21 6.25,21 C6.94166667,21 7.5,20.4416667 7.5,19.75 L7.5,16.8333333 L9.16666667,16.8333333 L9.16666667,19.75 C9.16666667,20.4416667 9.725,21 10.4166667,21 C11.1083333,21 11.6666667,20.4416667 11.6666667,19.75 L11.6666667,16.8333333 L12.5,16.8333333 C12.9583333,16.8333333 13.3333333,16.4583333 13.3333333,16 L13.3333333,7.66666667 L3.33333333,7.66666667 L3.33333333,16 Z M1.25,7.66666667 C0.558333333,7.66666667 0,8.225 0,8.91666667 L0,14.75 C0,15.4416667 0.558333333,16 1.25,16 C1.94166667,16 2.5,15.4416667 2.5,14.75 L2.5,8.91666667 C2.5,8.225 1.94166667,7.66666667 1.25,7.66666667 Z M15.4166667,7.66666667 C14.725,7.66666667 14.1666667,8.225 14.1666667,8.91666667 L14.1666667,14.75 C14.1666667,15.4416667 14.725,16 15.4166667,16 C16.1083333,16 16.6666667,15.4416667 16.6666667,14.75 L16.6666667,8.91666667 C16.6666667,8.225 16.1083333,7.66666667 15.4166667,7.66666667 Z M11.275,2.8 L12.3583333,1.71666667 C12.525,1.55 12.525,1.29166667 12.3583333,1.125 C12.1916667,0.958333333 11.9333333,0.958333333 11.7666667,1.125 L10.5333333,2.35833333 C9.85140601,2.01298937 9.0977202,1.83313253 8.33333317,1.83333333 C7.53333333,1.83333333 6.78333333,2.025 6.11666667,2.35833333 L4.875,1.125 C4.70833333,0.958333333 4.45,0.958333333 4.28333333,1.125 C4.11666667,1.29166667 4.11666667,1.55 4.28333333,1.71666667 L5.375,2.80833333 C4.09139882,3.74754494 3.33292877,5.24281447 3.33333317,6.83333333 L13.3333332,6.83333333 C13.3333332,5.175 12.525,3.70833333 11.275,2.8 L11.275,2.8 Z M6.66666667,5.16666667 L5.83333333,5.16666667 L5.83333333,4.33333333 L6.66666667,4.33333333 L6.66666667,5.16666667 Z M10.8333333,5.16666667 L10,5.16666667 L10,4.33333333 L10.8333333,4.33333333 L10.8333333,5.16666667 Z" id="形状" fill-rule="nonzero"></path>
                            </g>
                            <g id="编组-17" transform="translate(10.000000, 81.000000)">
                                <g id="编组-16">
                                    <rect id="矩形备份-36" fill="#28B8BB" opacity="0.854399182" x="0" y="0" width="130" height="28"></rect>
                                    <text id="首屏秒开" font-family="PingFangSC-Regular, PingFang SC" font-size="12" font-weight="normal" fill="#FFFFFF">
                                        <tspan x="41" y="18">首屏秒开</tspan>
                                    </text>
                                </g>
                                <g id="编组-2" transform="translate(0.000000, 36.000000)">
                                    <rect id="矩形备份-48" fill="#28B8BB" opacity="0.854399182" x="0" y="0" width="130" height="28"></rect>
                                    <text id="追帧优化" font-family="PingFangSC-Regular, PingFang SC" font-size="12" font-weight="normal" fill="#FFFFFF">
                                        <tspan x="43" y="18">追帧优化</tspan>
                                    </text>
                                </g>
                                <g id="编组-3" transform="translate(0.000000, 72.000000)">
                                    <rect id="矩形备份-51" fill="#28B8BB" opacity="0.854399182" x="0" y="0" width="130" height="28"></rect>
                                    <text id="美颜特效" font-family="PingFangSC-Regular, PingFang SC" font-size="12" font-weight="normal" fill="#FFFFFF">
                                        <tspan x="41" y="18">美颜特效</tspan>
                                    </text>
                                </g>
                                <g id="编组-3" transform="translate(0.000000, 108.000000)">
                                    <rect id="矩形备份-51" fill="#28B8BB" opacity="0.854399182" x="0" y="0" width="130" height="28"></rect>
                                    <text id="IM-聊天" font-family="PingFangSC-Regular, PingFang SC" font-size="12" font-weight="normal" fill="#FFFFFF">
                                        <tspan x="44" y="18">IM 聊天</tspan>
                                    </text>
                                </g>
                            </g>
                        </g>
                        <g id="矩形-3" transform="translate(259.000000, 430.000000)">
                            <rect id="矩形" fill="#EDF9FA" x="0" y="0" width="252" height="60"></rect>
                            <g id="编组-32" transform="translate(71.000000, 18.000000)">
                                <g id="直播备份-4">
                                    <path d="M28,4 L28,24 L0,24 L0,4 L28,4 Z M11,10 L11,18 L19,14 L11,10 Z" id="形状结合" fill="#00AAE7"></path>
                                    <line x1="6" y1="3.77145347e-18" x2="11.4142134" y2="5.41421339" id="直线-8备份-3" stroke="#00AAE7" stroke-width="2"></line>
                                    <line x1="16.5857866" y1="3.77145347e-18" x2="22" y2="5.41421339" id="直线-8备份-6" stroke="#00AAE7" stroke-width="2" transform="translate(19.292893, 2.707107) scale(-1, 1) translate(-19.292893, -2.707107) "></line>
                                </g>
                                <text id="视频直播-Pili" font-family="PingFangSC-Medium, PingFang SC" font-size="14" font-weight="400" fill="#00AAE7">
                                    <tspan x="40" y="17">视频直播 Pili</tspan>
                                </text>
                            </g>
                        </g>
                        <g id="编组-33" transform="translate(357.000000, 334.000000)">
                            <path id="直线-6" d="M29,0 L29,67 L33,67 L28.5,76 L24,67 L28,67 L28,0 L29,0 Z" fill="#00AAE7" fill-rule="nonzero"></path>
                            <g id="编组-2备份" transform="translate(0.000000, 21.000000)">
                                <path d="M54,0.5 C54.4142136,0.5 54.7892136,0.667893219 55.0606602,0.939339828 C55.3321068,1.21078644 55.5,1.58578644 55.5,2 L55.5,2 L55.5,22 C55.5,22.4142136 55.3321068,22.7892136 55.0606602,23.0606602 C54.7892136,23.3321068 54.4142136,23.5 54,23.5 L54,23.5 L2,23.5 C1.58578644,23.5 1.21078644,23.3321068 0.939339828,23.0606602 C0.667893219,22.7892136 0.5,22.4142136 0.5,22 L0.5,22 L0.5,2 C0.5,1.58578644 0.667893219,1.21078644 0.939339828,0.939339828 C1.21078644,0.667893219 1.58578644,0.5 2,0.5 L2,0.5 Z" id="矩形备份-3" stroke="#00AAE7" fill="#EDF9FA"></path>
                                <text id="旁路直播" font-family="PingFangSC-Regular, PingFang SC" font-size="12" font-weight="normal" fill="#00AAE7">
                                    <tspan x="4" y="17">旁路直播</tspan>
                                </text>
                            </g>
                        </g>
                        <g id="编组-27" transform="translate(159.000000, 100.000000)">
                            <path id="直线-3" d="M83.5,7.5 L92.5,12 L83.5,16.5 L83.5,12.5 L8.5,12.5 L8.5,16.5 L-0.5,12 L8.5,7.5 L8.5,11.5 L83.5,11.5 L83.5,7.5 Z" fill="#47C2C5" fill-rule="nonzero"></path>
                            <g id="编组-2" transform="translate(18.000000, 0.000000)">
                                <path d="M54,0.5 C54.4142136,0.5 54.7892136,0.667893219 55.0606602,0.939339828 C55.3321068,1.21078644 55.5,1.58578644 55.5,2 L55.5,2 L55.5,22 C55.5,22.4142136 55.3321068,22.7892136 55.0606602,23.0606602 C54.7892136,23.3321068 54.4142136,23.5 54,23.5 L54,23.5 L2,23.5 C1.58578644,23.5 1.21078644,23.3321068 0.939339828,23.0606602 C0.667893219,22.7892136 0.5,22.4142136 0.5,22 L0.5,22 L0.5,2 C0.5,1.58578644 0.667893219,1.21078644 0.939339828,0.939339828 C1.21078644,0.667893219 1.58578644,0.5 2,0.5 L2,0.5 Z" id="矩形备份-3" stroke="#47C2C5" fill="#EDF9FA"></path>
                                <text id="连麦互动" font-family="PingFangSC-Regular, PingFang SC" font-size="12" font-weight="normal" fill="#47C2C5">
                                    <tspan x="3" y="17">连麦互动</tspan>
                                </text>
                            </g>
                        </g>
                    </g>
                </g>
            </g>
        </g>
    </g>
</svg>