<?xml version="1.0" encoding="UTF-8"?>
<svg width="720px" height="314px" viewBox="0 0 720 314" version="1.1" xmlns="http://www.w3.org/2000/svg" xmlns:xlink="http://www.w3.org/1999/xlink">
    <title>编组</title>
    <defs>
        <rect id="path-1" x="0" y="0" width="228" height="153"></rect>
        <mask id="mask-2" maskContentUnits="userSpaceOnUse" maskUnits="objectBoundingBox" x="0" y="0" width="228" height="153" fill="white">
            <use xlink:href="#path-1"></use>
        </mask>
    </defs>
    <g id="页面-1" stroke="none" stroke-width="1" fill="none" fill-rule="evenodd">
        <g id="在线教育解决方案02" transform="translate(-416.000000, -4593.000000)">
            <g id="使用场景" transform="translate(0.000000, 4144.000000)">
                <g id="编组-20" transform="translate(376.000000, 248.000000)">
                    <g id="编组" transform="translate(40.000000, 201.000000)">
                        <g id="编组-9" transform="translate(232.000000, 0.000000)">
                            <path d="M2,0 L250,0 C251.104569,-2.02906125e-16 252,0.8954305 252,2 L252,312 C252,313.104569 251.104569,314 250,314 L2,314 C0.8954305,314 1.3527075e-16,313.104569 0,312 L0,2 C-1.3527075e-16,0.8954305 0.8954305,2.02906125e-16 2,0 Z" id="矩形备份-7" fill="#EDF9FA"></path>
                            <text id="实时音视频-QRTC" font-family="PingFangSC-Medium, PingFang SC" font-size="14" font-weight="400" fill="#22B5E9">
                                <tspan x="67" y="27">实时音视频 QRTC</tspan>
                            </text>
                            <g id="编组-22" transform="translate(12.000000, 151.000000)">
                                <use id="矩形" stroke="#00AAE7" mask="url(#mask-2)" stroke-width="2" stroke-dasharray="2,2" xlink:href="#path-1"></use>
                                <text id="存储及多媒体处理" font-family="PingFangSC-Medium, PingFang SC" font-size="14" font-weight="400" fill="#22B5E9">
                                    <tspan x="58" y="27">存储及多媒体处理</tspan>
                                </text>
                                <g id="编组-21" transform="translate(11.000000, 40.000000)">
                                    <g id="编组-15">
                                        <rect id="矩形" stroke="#00AAE7" x="0.5" y="0.5" width="97" height="27"></rect>
                                        <text id="内容审核" font-family="PingFangSC-Regular, PingFang SC" font-size="12" font-weight="normal" fill="#00AAE7">
                                            <tspan x="26" y="18">内容审核</tspan>
                                        </text>
                                    </g>
                                    <g id="编组-14" transform="translate(108.000000, 0.000000)">
                                        <rect id="矩形" stroke="#00AAE7" x="0.5" y="0.5" width="97" height="27"></rect>
                                        <text id="视频分析" font-family="PingFangSC-Regular, PingFang SC" font-size="12" font-weight="normal" fill="#00AAE7">
                                            <tspan x="26" y="18">视频分析</tspan>
                                        </text>
                                    </g>
                                    <g id="编组-15" transform="translate(0.000000, 38.000000)">
                                        <rect id="矩形" stroke="#00AAE7" x="0.5" y="0.5" width="97" height="27"></rect>
                                        <text id="音视频处理" font-family="PingFangSC-Regular, PingFang SC" font-size="12" font-weight="normal" fill="#00AAE7">
                                            <tspan x="20" y="19">音视频处理</tspan>
                                        </text>
                                    </g>
                                    <g id="编组-15" transform="translate(0.000000, 76.000000)">
                                        <rect id="矩形" stroke="#00AAE7" x="0.5" y="0.5" width="97" height="27"></rect>
                                        <text id="录制存储" font-family="PingFangSC-Regular, PingFang SC" font-size="12" font-weight="normal" fill="#00AAE7">
                                            <tspan x="26" y="18">录制存储</tspan>
                                        </text>
                                    </g>
                                    <g id="编组-15" transform="translate(108.000000, 76.000000)">
                                        <rect id="矩形" stroke="#00AAE7" x="0.5" y="0.5" width="97" height="27"></rect>
                                        <text id="实时转码" font-family="PingFangSC-Regular, PingFang SC" font-size="12" font-weight="normal" fill="#00AAE7">
                                            <tspan x="26" y="18">实时转码</tspan>
                                        </text>
                                    </g>
                                    <g id="编组-14" transform="translate(108.000000, 38.000000)">
                                        <rect id="矩形" stroke="#00AAE7" x="0.5" y="0.5" width="97" height="27"></rect>
                                        <text id="质量分析" font-family="PingFangSC-Regular, PingFang SC" font-size="12" font-weight="normal" fill="#00AAE7">
                                            <tspan x="26" y="18">质量分析</tspan>
                                        </text>
                                    </g>
                                </g>
                            </g>
                            <g id="编组-17" transform="translate(10.000000, 44.000000)">
                                <g id="编组-16">
                                    <rect id="矩形备份-36" fill="#00AAE7" opacity="0.854399182" x="0" y="0" width="110" height="28"></rect>
                                    <text id="调度中心" font-family="PingFangSC-Regular, PingFang SC" font-size="12" font-weight="normal" fill="#FFFFFF">
                                        <tspan x="30" y="19">调度中心</tspan>
                                    </text>
                                </g>
                                <g id="编组-16" transform="translate(122.000000, 0.000000)">
                                    <rect id="矩形备份-36" fill="#00AAE7" opacity="0.854399182" x="0" y="0" width="110" height="28"></rect>
                                    <text id="业务中心" font-family="PingFangSC-Regular, PingFang SC" font-size="12" font-weight="normal" fill="#FFFFFF">
                                        <tspan x="31" y="19">业务中心</tspan>
                                    </text>
                                </g>
                                <g id="编组-2" transform="translate(0.000000, 62.000000)">
                                    <rect id="矩形备份-48" fill="#00AAE7" opacity="0.854399182" x="0" y="0" width="232" height="28"></rect>
                                    <text id="实时音视频网络" font-family="PingFangSC-Regular, PingFang SC" font-size="12" font-weight="normal" fill="#FFFFFF">
                                        <tspan x="74" y="19">实时音视频网络</tspan>
                                    </text>
                                </g>
                                <path id="直线-5" d="M55,33 L55,45 L59,45 L54.5,54 L50,45 L54,45 L54,33 L55,33 Z" fill="#00AAE7" fill-rule="nonzero"></path>
                                <path id="直线-5" d="M178,33 L178,45 L182,45 L177.5,54 L173,45 L177,45 L177,33 L178,33 Z" fill="#00AAE7" fill-rule="nonzero"></path>
                            </g>
                        </g>
                        <g id="编组-28" transform="translate(492.000000, 145.000000)">
                            <path id="直线-3" d="M91.5,8 L100.5,12.5 L91.5,17 L91.5,13 L8.5,13 L8.5,17 L-0.5,12.5 L8.5,8 L8.5,12 L91.5,12 L91.5,8 Z" fill="#00AAE7" fill-rule="nonzero"></path>
                            <g id="编组-2备份" transform="translate(17.500000, 0.000000)">
                                <path d="M62,0.5 C62.4142136,0.5 62.7892136,0.667893219 63.0606602,0.939339828 C63.3321068,1.21078644 63.5,1.58578644 63.5,2 L63.5,2 L63.5,22 C63.5,22.4142136 63.3321068,22.7892136 63.0606602,23.0606602 C62.7892136,23.3321068 62.4142136,23.5 62,23.5 L62,23.5 L2,23.5 C1.58578644,23.5 1.21078644,23.3321068 0.939339828,23.0606602 C0.667893219,22.7892136 0.5,22.4142136 0.5,22 L0.5,22 L0.5,2 C0.5,1.58578644 0.667893219,1.21078644 0.939339828,0.939339828 C1.21078644,0.667893219 1.58578644,0.5 2,0.5 L2,0.5 Z" id="矩形备份-3" stroke="#00AAE7" fill="#EDF9FA"></path>
                                <text id="问题回复" font-family="PingFangSC-Regular, PingFang SC" font-size="12" font-weight="normal" fill="#00AAE7">
                                    <tspan x="8" y="17">问题回复</tspan>
                                </text>
                            </g>
                        </g>
                        <g id="编组-31">
                            <rect id="矩形" fill="#EDF9FA" x="0" y="0" width="120" height="314"></rect>
                            <g id="编组-23" transform="translate(39.000000, 31.000000)" fill="#47C2C5">
                                <g id="编组-12" transform="translate(2.000000, 0.000000)">
                                    <text id="考生-1" font-family="PingFangSC-Regular, PingFang SC" font-size="14" font-weight="normal">
                                        <tspan x="0" y="55">考生 1</tspan>
                                    </text>
                                    <path d="M24.9335242,13.3333333 C26.5138853,13.3333333 27.9460375,14.2639847 28.5881909,15.708 L28.5881909,15.708 L33.2188575,26.1253333 C33.4258707,26.5912945 33.3490213,27.1345157 33.0208798,27.5247687 C32.6927382,27.9150217 32.1707681,28.0839662 31.6761909,27.96 L31.6761909,27.96 L26.6668575,26.7066667 L26.6668575,32 L10.6668575,32 L10.6668575,26.7066667 L5.65752421,27.96 C5.16294695,28.0839662 4.64097683,27.9150217 4.31283531,27.5247687 C3.98469378,27.1345157 3.90784442,26.5912945 4.11485754,26.1253333 L4.11485754,26.1253333 L8.74552421,15.708 C9.38767758,14.2639847 10.8198298,13.3333333 12.4001909,13.3333333 L12.4001909,13.3333333 Z M24.0001909,18.6666667 L18.6668575,20 L13.3335242,18.6666667 L13.3335242,23.292 L15.6761909,22.7066667 L16.3241909,25.2933333 L13.3335242,26.04 L13.3335242,28 L18.6668575,29.3333333 L24.0001909,28 L24.0001909,26.04 L21.0095242,25.2933333 L21.6575242,22.7066667 L24.0001909,23.292 L24.0001909,18.6666667 Z M10.6668575,17.9493333 L7.66285754,24.7093333 L10.6668575,23.9586667 L10.6668575,17.9493333 Z M26.6668575,17.9493333 L26.6668575,23.96 L29.6708575,24.7093333 L26.6668575,17.9493333 Z M18.6668575,0 C21.5387382,0 23.8804516,2.26991632 23.9957423,5.11349372 L24.0001909,5.33333333 C24.0001909,8.20521403 21.7302746,10.5469274 18.8866971,10.6622181 L18.6668575,10.6666667 C15.7949768,10.6666667 13.4532635,8.39675035 13.3379728,5.55317294 L13.3335242,5.33333333 C13.3335242,2.46145263 15.6034405,0.119739298 18.4470179,0.00444855702 L18.6668575,0 Z" id="形状结合" fill-rule="nonzero"></path>
                                </g>
                                <g id="编组-12" transform="translate(0.000000, 81.000000)">
                                    <text id="考生-2" font-family="PingFangSC-Regular, PingFang SC" font-size="14" font-weight="normal">
                                        <tspan x="0" y="55">考生 2</tspan>
                                    </text>
                                    <path d="M26.9335242,13.3333333 C28.5138853,13.3333333 29.9460375,14.2639847 30.5881909,15.708 L30.5881909,15.708 L35.2188575,26.1253333 C35.4258707,26.5912945 35.3490213,27.1345157 35.0208798,27.5247687 C34.6927382,27.9150217 34.1707681,28.0839662 33.6761909,27.96 L33.6761909,27.96 L28.6668575,26.7066667 L28.6668575,32 L12.6668575,32 L12.6668575,26.7066667 L7.65752421,27.96 C7.16294695,28.0839662 6.64097683,27.9150217 6.31283531,27.5247687 C5.98469378,27.1345157 5.90784442,26.5912945 6.11485754,26.1253333 L6.11485754,26.1253333 L10.7455242,15.708 C11.3876776,14.2639847 12.8198298,13.3333333 14.4001909,13.3333333 L14.4001909,13.3333333 Z M26.0001909,18.6666667 L20.6668575,20 L15.3335242,18.6666667 L15.3335242,23.292 L17.6761909,22.7066667 L18.3241909,25.2933333 L15.3335242,26.04 L15.3335242,28 L20.6668575,29.3333333 L26.0001909,28 L26.0001909,26.04 L23.0095242,25.2933333 L23.6575242,22.7066667 L26.0001909,23.292 L26.0001909,18.6666667 Z M12.6668575,17.9493333 L9.66285754,24.7093333 L12.6668575,23.9586667 L12.6668575,17.9493333 Z M28.6668575,17.9493333 L28.6668575,23.96 L31.6708575,24.7093333 L28.6668575,17.9493333 Z M20.6668575,0 C23.5387382,0 25.8804516,2.26991632 25.9957423,5.11349372 L26.0001909,5.33333333 C26.0001909,8.20521403 23.7302746,10.5469274 20.8866971,10.6622181 L20.6668575,10.6666667 C17.7949768,10.6666667 15.4532635,8.39675035 15.3379728,5.55317294 L15.3335242,5.33333333 C15.3335242,2.46145263 17.6034405,0.119739298 20.4470179,0.00444855702 L20.6668575,0 Z" id="形状结合" fill-rule="nonzero"></path>
                                </g>
                                <path d="M11,165 C12.1045695,165 13,165.895431 13,167 C13,168.104569 12.1045695,169 11,169 C9.8954305,169 9,168.104569 9,167 C9,165.895431 9.8954305,165 11,165 Z M21,165 C22.1045695,165 23,165.895431 23,167 C23,168.104569 22.1045695,169 21,169 C19.8954305,169 19,168.104569 19,167 C19,165.895431 19.8954305,165 21,165 Z M31,165 C32.1045695,165 33,165.895431 33,167 C33,168.104569 32.1045695,169 31,169 C29.8954305,169 29,168.104569 29,167 C29,165.895431 29.8954305,165 31,165 Z" id="形状结合"></path>
                                <g id="编组-12" transform="translate(0.000000, 193.000000)">
                                    <text id="考生-N" font-family="PingFangSC-Regular, PingFang SC" font-size="14" font-weight="normal">
                                        <tspan x="0" y="55">考生 N</tspan>
                                    </text>
                                    <path d="M26.9335242,13.3333333 C28.5138853,13.3333333 29.9460375,14.2639847 30.5881909,15.708 L30.5881909,15.708 L35.2188575,26.1253333 C35.4258707,26.5912945 35.3490213,27.1345157 35.0208798,27.5247687 C34.6927382,27.9150217 34.1707681,28.0839662 33.6761909,27.96 L33.6761909,27.96 L28.6668575,26.7066667 L28.6668575,32 L12.6668575,32 L12.6668575,26.7066667 L7.65752421,27.96 C7.16294695,28.0839662 6.64097683,27.9150217 6.31283531,27.5247687 C5.98469378,27.1345157 5.90784442,26.5912945 6.11485754,26.1253333 L6.11485754,26.1253333 L10.7455242,15.708 C11.3876776,14.2639847 12.8198298,13.3333333 14.4001909,13.3333333 L14.4001909,13.3333333 Z M26.0001909,18.6666667 L20.6668575,20 L15.3335242,18.6666667 L15.3335242,23.292 L17.6761909,22.7066667 L18.3241909,25.2933333 L15.3335242,26.04 L15.3335242,28 L20.6668575,29.3333333 L26.0001909,28 L26.0001909,26.04 L23.0095242,25.2933333 L23.6575242,22.7066667 L26.0001909,23.292 L26.0001909,18.6666667 Z M12.6668575,17.9493333 L9.66285754,24.7093333 L12.6668575,23.9586667 L12.6668575,17.9493333 Z M28.6668575,17.9493333 L28.6668575,23.96 L31.6708575,24.7093333 L28.6668575,17.9493333 Z M20.6668575,0 C23.5387382,0 25.8804516,2.26991632 25.9957423,5.11349372 L26.0001909,5.33333333 C26.0001909,8.20521403 23.7302746,10.5469274 20.8866971,10.6622181 L20.6668575,10.6666667 C17.7949768,10.6666667 15.4532635,8.39675035 15.3379728,5.55317294 L15.3335242,5.33333333 C15.3335242,2.46145263 17.6034405,0.119739298 20.4470179,0.00444855702 L20.6668575,0 Z" id="形状结合" fill-rule="nonzero"></path>
                                </g>
                            </g>
                        </g>
                        <g id="编组-18" transform="translate(600.000000, 0.000000)">
                            <path d="M2,0 L118,0 C119.104569,-2.02906125e-16 120,0.8954305 120,2 L120,312 C120,313.104569 119.104569,314 118,314 L2,314 C0.8954305,314 1.3527075e-16,313.104569 0,312 L0,2 C-1.3527075e-16,0.8954305 0.8954305,2.02906125e-16 2,0 Z" id="矩形备份-25" fill="#EDF9FA"></path>
                            <g id="编组-35" transform="translate(18.000000, 124.000000)">
                                <path d="M37.5828966,19.6176552 C38.8833103,20.4584828 40.3790345,20.9655172 42,20.9655172 C43.6093793,20.9655172 45.0957241,20.4651034 46.390069,19.6353103 L46.390069,19.6353103 L54.9274483,23.1448276 C56.7867586,23.9111724 58,25.7241379 58,27.7351724 L58,27.7351724 L58,33.6551724 C58,33.9597241 57.7528276,34.2068966 57.4482759,34.2068966 L57.4482759,34.2068966 L44.7111724,34.2068966 L43.1382069,27.1293793 L44.6797241,24.56 C44.7823448,24.3895172 44.7851034,24.1771034 44.6868966,24.0038621 C44.5886897,23.8306207 44.4055172,23.7241379 44.2068966,23.7241379 L44.2068966,23.7241379 L39.7931034,23.7241379 C39.5944828,23.7241379 39.4113103,23.8306207 39.3131034,24.0038621 C39.2154483,24.1776552 39.2176552,24.3895172 39.3202759,24.56 L39.3202759,24.56 L40.8617931,27.1293793 L39.2888276,34.2068966 L26.5517241,34.2068966 C26.2471724,34.2068966 26,33.9597241 26,33.6551724 L26,33.6551724 L26,27.7351724 C26,25.7241379 27.2132414,23.9111724 29.0725517,23.1448276 L29.0725517,23.1448276 Z M42,0 C46.5633103,0 50.2758621,3.71255172 50.2758621,8.27586207 L50.2758621,8.27586207 L50.2758621,10.4827586 C50.2758621,14.9097931 46.7365517,19.862069 42,19.862069 C37.2634483,19.862069 33.7241379,14.9097931 33.7241379,10.4827586 L33.7241379,10.4827586 L33.7241379,8.27586207 C33.7241379,3.71255172 37.4366897,0 42,0 Z M44.7591724,6.944 C43.081931,8.49765517 40.7023448,9.37931034 38.137931,9.37931034 C36.9875862,9.37931034 35.8797241,9.19503448 34.8275862,8.84689655 L34.8275862,8.84689655 L34.8275862,10.4827586 C34.8275862,14.310069 37.9608276,18.7586207 42,18.7586207 C46.0391724,18.7586207 49.1724138,14.310069 49.1724138,10.4827586 L49.1724138,10.4827586 L49.1724138,9.13710345 C47.4609655,8.77793103 45.9233103,8.01765517 44.7591724,6.944 Z" id="形状结合" fill="#47C2C5" fill-rule="nonzero"></path>
                                <text id="远程监考教师" font-family="PingFangSC-Regular, PingFang SC" font-size="14" font-weight="normal" fill="#28B8BB">
                                    <tspan x="0" y="61">远程监考教师</tspan>
                                </text>
                            </g>
                        </g>
                        <g id="编组-27" transform="translate(126.000000, 145.000000)">
                            <path id="直线-3" d="M91.5,7.5 L100.5,12 L91.5,16.5 L91.5,12.5 L8.5,12.5 L8.5,16.5 L-0.5,12 L8.5,7.5 L8.5,11.5 L91.5,11.5 L91.5,7.5 Z" fill="#47C2C5" fill-rule="nonzero"></path>
                            <g id="编组-2备份" transform="translate(18.000000, 0.000000)">
                                <path d="M62,0.5 C62.4142136,0.5 62.7892136,0.667893219 63.0606602,0.939339828 C63.3321068,1.21078644 63.5,1.58578644 63.5,2 L63.5,2 L63.5,22 C63.5,22.4142136 63.3321068,22.7892136 63.0606602,23.0606602 C62.7892136,23.3321068 62.4142136,23.5 62,23.5 L62,23.5 L2,23.5 C1.58578644,23.5 1.21078644,23.3321068 0.939339828,23.0606602 C0.667893219,22.7892136 0.5,22.4142136 0.5,22 L0.5,22 L0.5,2 C0.5,1.58578644 0.667893219,1.21078644 0.939339828,0.939339828 C1.21078644,0.667893219 1.58578644,0.5 2,0.5 L2,0.5 Z" id="矩形备份-3" stroke="#47C2C5" fill="#EDF9FA"></path>
                                <text id="问题反馈" font-family="PingFangSC-Regular, PingFang SC" font-size="12" font-weight="normal" fill="#47C2C5">
                                    <tspan x="8" y="16">问题反馈</tspan>
                                </text>
                            </g>
                        </g>
                    </g>
                </g>
            </g>
        </g>
    </g>
</svg>