<?xml version="1.0" encoding="UTF-8"?>
<svg width="767px" height="478px" viewBox="0 0 767 478" version="1.1" xmlns="http://www.w3.org/2000/svg" xmlns:xlink="http://www.w3.org/1999/xlink">
    <title>编组</title>
    <defs>
        <rect id="path-1" x="0" y="0" width="228" height="153"></rect>
        <mask id="mask-2" maskContentUnits="userSpaceOnUse" maskUnits="objectBoundingBox" x="0" y="0" width="228" height="153" fill="white">
            <use xlink:href="#path-1"></use>
        </mask>
        <rect id="path-3" x="0" y="0" width="130" height="188"></rect>
        <mask id="mask-4" maskContentUnits="userSpaceOnUse" maskUnits="objectBoundingBox" x="0" y="0" width="130" height="188" fill="white">
            <use xlink:href="#path-3"></use>
        </mask>
    </defs>
    <g id="页面-1" stroke="none" stroke-width="1" fill="none" fill-rule="evenodd">
        <g id="在线教育解决方案02" transform="translate(-376.000000, -3475.000000)">
            <g id="使用场景" transform="translate(0.000000, 3108.000000)">
                <g id="编组-20" transform="translate(376.000000, 248.000000)">
                    <g id="编组" transform="translate(0.000000, 119.000000)">
                        <g id="编组-9" transform="translate(258.000000, 82.000000)">
                            <path d="M2,0 L250,0 C251.104569,-2.02906125e-16 252,0.8954305 252,2 L252,312 C252,313.104569 251.104569,314 250,314 L2,314 C0.8954305,314 1.3527075e-16,313.104569 0,312 L0,2 C-1.3527075e-16,0.8954305 0.8954305,2.02906125e-16 2,0 Z" id="矩形备份-7" fill="#EDF9FA"></path>
                            <text id="实时音视频-QRTC" font-family="PingFangSC-Medium, PingFang SC" font-size="14" font-weight="400" fill="#22B5E9">
                                <tspan x="67" y="27">实时音视频 QRTC</tspan>
                            </text>
                            <g id="编组-22" transform="translate(12.000000, 151.000000)">
                                <use id="矩形" stroke="#00AAE7" mask="url(#mask-2)" stroke-width="2" stroke-dasharray="2,2" xlink:href="#path-1"></use>
                                <text id="存储及多媒体处理" font-family="PingFangSC-Medium, PingFang SC" font-size="14" font-weight="400" fill="#22B5E9">
                                    <tspan x="58" y="27">存储及多媒体处理</tspan>
                                </text>
                                <g id="编组-21" transform="translate(11.000000, 40.000000)">
                                    <g id="编组-15">
                                        <rect id="矩形" stroke="#00AAE7" x="0.5" y="0.5" width="97" height="27"></rect>
                                        <text id="内容审核" font-family="PingFangSC-Regular, PingFang SC" font-size="12" font-weight="normal" fill="#00AAE7">
                                            <tspan x="26" y="18">内容审核</tspan>
                                        </text>
                                    </g>
                                    <g id="编组-14" transform="translate(108.000000, 0.000000)">
                                        <rect id="矩形" stroke="#00AAE7" x="0.5" y="0.5" width="97" height="27"></rect>
                                        <text id="视频分析" font-family="PingFangSC-Regular, PingFang SC" font-size="12" font-weight="normal" fill="#00AAE7">
                                            <tspan x="26" y="18">视频分析</tspan>
                                        </text>
                                    </g>
                                    <g id="编组-15" transform="translate(0.000000, 38.000000)">
                                        <rect id="矩形" stroke="#00AAE7" x="0.5" y="0.5" width="97" height="27"></rect>
                                        <text id="音视频处理" font-family="PingFangSC-Regular, PingFang SC" font-size="12" font-weight="normal" fill="#00AAE7">
                                            <tspan x="20" y="19">音视频处理</tspan>
                                        </text>
                                    </g>
                                    <g id="编组-15" transform="translate(0.000000, 76.000000)">
                                        <rect id="矩形" stroke="#00AAE7" x="0.5" y="0.5" width="97" height="27"></rect>
                                        <text id="录制存储" font-family="PingFangSC-Regular, PingFang SC" font-size="12" font-weight="normal" fill="#00AAE7">
                                            <tspan x="26" y="18">录制存储</tspan>
                                        </text>
                                    </g>
                                    <g id="编组-15" transform="translate(108.000000, 76.000000)">
                                        <rect id="矩形" stroke="#00AAE7" x="0.5" y="0.5" width="97" height="27"></rect>
                                        <text id="实时转码" font-family="PingFangSC-Regular, PingFang SC" font-size="12" font-weight="normal" fill="#00AAE7">
                                            <tspan x="26" y="18">实时转码</tspan>
                                        </text>
                                    </g>
                                    <g id="编组-14" transform="translate(108.000000, 38.000000)">
                                        <rect id="矩形" stroke="#00AAE7" x="0.5" y="0.5" width="97" height="27"></rect>
                                        <text id="质量分析" font-family="PingFangSC-Regular, PingFang SC" font-size="12" font-weight="normal" fill="#00AAE7">
                                            <tspan x="26" y="18">质量分析</tspan>
                                        </text>
                                    </g>
                                </g>
                            </g>
                            <g id="编组-17" transform="translate(10.000000, 44.000000)">
                                <g id="编组-16">
                                    <rect id="矩形备份-36" fill="#00AAE7" opacity="0.854399182" x="0" y="0" width="110" height="28"></rect>
                                    <text id="调度中心" font-family="PingFangSC-Regular, PingFang SC" font-size="12" font-weight="normal" fill="#FFFFFF">
                                        <tspan x="30" y="19">调度中心</tspan>
                                    </text>
                                </g>
                                <g id="编组-16" transform="translate(122.000000, 0.000000)">
                                    <rect id="矩形备份-36" fill="#00AAE7" opacity="0.854399182" x="0" y="0" width="110" height="28"></rect>
                                    <text id="业务中心" font-family="PingFangSC-Regular, PingFang SC" font-size="12" font-weight="normal" fill="#FFFFFF">
                                        <tspan x="31" y="19">业务中心</tspan>
                                    </text>
                                </g>
                                <g id="编组-2" transform="translate(0.000000, 62.000000)">
                                    <rect id="矩形备份-48" fill="#00AAE7" opacity="0.854399182" x="0" y="0" width="232" height="28"></rect>
                                    <text id="实时音视频网络" font-family="PingFangSC-Regular, PingFang SC" font-size="12" font-weight="normal" fill="#FFFFFF">
                                        <tspan x="74" y="19">实时音视频网络</tspan>
                                    </text>
                                </g>
                                <path id="直线-5" d="M55,33 L55,45 L59,45 L54.5,54 L50,45 L54,45 L54,33 L55,33 Z" fill="#00AAE7" fill-rule="nonzero"></path>
                                <path id="直线-5" d="M178,33 L178,45 L182,45 L177.5,54 L173,45 L177,45 L177,33 L178,33 Z" fill="#00AAE7" fill-rule="nonzero"></path>
                            </g>
                        </g>
                        <g id="编组-28" transform="translate(517.000000, 227.000000)">
                            <path id="直线-3" d="M84,8 L93,12.5 L84,17 L84,13 L9,13 L9,17 L0,12.5 L9,8 L9,12 L84,12 L84,8 Z" fill="#00AAE7" fill-rule="nonzero"></path>
                            <g id="编组-2备份" transform="translate(19.000000, 0.000000)">
                                <path d="M54,0.5 C54.4142136,0.5 54.7892136,0.667893219 55.0606602,0.939339828 C55.3321068,1.21078644 55.5,1.58578644 55.5,2 L55.5,2 L55.5,22 C55.5,22.4142136 55.3321068,22.7892136 55.0606602,23.0606602 C54.7892136,23.3321068 54.4142136,23.5 54,23.5 L54,23.5 L2,23.5 C1.58578644,23.5 1.21078644,23.3321068 0.939339828,23.0606602 C0.667893219,22.7892136 0.5,22.4142136 0.5,22 L0.5,22 L0.5,2 C0.5,1.58578644 0.667893219,1.21078644 0.939339828,0.939339828 C1.21078644,0.667893219 1.58578644,0.5 2,0.5 L2,0.5 Z" id="矩形备份-3" stroke="#00AAE7" fill="#EDF9FA"></path>
                                <text id="连麦互动" font-family="PingFangSC-Regular, PingFang SC" font-size="12" font-weight="normal" fill="#00AAE7">
                                    <tspan x="4" y="17">连麦互动</tspan>
                                </text>
                            </g>
                        </g>
                        <g id="编组-18" transform="translate(0.000000, 116.000000)">
                            <path d="M2,0 L148,0 C149.104569,-2.02906125e-16 150,0.8954305 150,2 L150,244 C150,245.104569 149.104569,246 148,246 L2,246 C0.8954305,246 1.3527075e-16,245.104569 0,244 L0,2 C-1.3527075e-16,0.8954305 0.8954305,2.02906125e-16 2,0 Z" id="矩形备份-25" fill="#EDF9FA"></path>
                            <text id="教师" font-family="PingFangSC-Medium, PingFang SC" font-size="14" font-weight="400" fill="#28B8BB">
                                <tspan x="61" y="23">教师</tspan>
                            </text>
                            <path d="M70.5828966,67.6176552 C71.8833103,68.4584828 73.3790345,68.9655172 75,68.9655172 C76.6093793,68.9655172 78.0957241,68.4651034 79.390069,67.6353103 L79.390069,67.6353103 L87.9274483,71.1448276 C89.7867586,71.9111724 91,73.7241379 91,75.7351724 L91,75.7351724 L91,81.6551724 C91,81.9597241 90.7528276,82.2068966 90.4482759,82.2068966 L90.4482759,82.2068966 L77.7111724,82.2068966 L76.1382069,75.1293793 L77.6797241,72.56 C77.7823448,72.3895172 77.7851034,72.1771034 77.6868966,72.0038621 C77.5886897,71.8306207 77.4055172,71.7241379 77.2068966,71.7241379 L77.2068966,71.7241379 L72.7931034,71.7241379 C72.5944828,71.7241379 72.4113103,71.8306207 72.3131034,72.0038621 C72.2154483,72.1776552 72.2176552,72.3895172 72.3202759,72.56 L72.3202759,72.56 L73.8617931,75.1293793 L72.2888276,82.2068966 L59.5517241,82.2068966 C59.2471724,82.2068966 59,81.9597241 59,81.6551724 L59,81.6551724 L59,75.7351724 C59,73.7241379 60.2132414,71.9111724 62.0725517,71.1448276 L62.0725517,71.1448276 Z M75,48 C79.5633103,48 83.2758621,51.7125517 83.2758621,56.2758621 L83.2758621,56.2758621 L83.2758621,58.4827586 C83.2758621,62.9097931 79.7365517,67.862069 75,67.862069 C70.2634483,67.862069 66.7241379,62.9097931 66.7241379,58.4827586 L66.7241379,58.4827586 L66.7241379,56.2758621 C66.7241379,51.7125517 70.4366897,48 75,48 Z M77.7591724,54.944 C76.081931,56.4976552 73.7023448,57.3793103 71.137931,57.3793103 C69.9875862,57.3793103 68.8797241,57.1950345 67.8275862,56.8468966 L67.8275862,56.8468966 L67.8275862,58.4827586 C67.8275862,62.310069 70.9608276,66.7586207 75,66.7586207 C79.0391724,66.7586207 82.1724138,62.310069 82.1724138,58.4827586 L82.1724138,58.4827586 L82.1724138,57.1371034 C80.4609655,56.777931 78.9233103,56.0176552 77.7591724,54.944 Z" id="形状结合" fill="#47C2C5" fill-rule="nonzero"></path>
                            <g id="编组-17" transform="translate(10.000000, 100.000000)">
                                <g id="编组-16">
                                    <rect id="矩形备份-36" fill="#28B8BB" opacity="0.854399182" x="0" y="0" width="130" height="28"></rect>
                                    <text id="实时互动" font-family="PingFangSC-Regular, PingFang SC" font-size="12" font-weight="normal" fill="#FFFFFF">
                                        <tspan x="41" y="18">实时互动</tspan>
                                    </text>
                                </g>
                                <g id="编组-2" transform="translate(0.000000, 36.000000)">
                                    <rect id="矩形备份-48" fill="#28B8BB" opacity="0.854399182" x="0" y="0" width="130" height="28"></rect>
                                    <text id="教学白板" font-family="PingFangSC-Regular, PingFang SC" font-size="12" font-weight="normal" fill="#FFFFFF">
                                        <tspan x="43" y="18">教学白板</tspan>
                                    </text>
                                </g>
                                <g id="编组-3" transform="translate(0.000000, 72.000000)">
                                    <rect id="矩形备份-51" fill="#28B8BB" opacity="0.854399182" x="0" y="0" width="130" height="28"></rect>
                                    <text id="美颜特效" font-family="PingFangSC-Regular, PingFang SC" font-size="12" font-weight="normal" fill="#FFFFFF">
                                        <tspan x="41" y="18">美颜特效</tspan>
                                    </text>
                                </g>
                                <g id="编组-3" transform="translate(0.000000, 108.000000)">
                                    <rect id="矩形备份-51" fill="#28B8BB" opacity="0.854399182" x="0" y="0" width="130" height="28"></rect>
                                    <text id="IM-聊天" font-family="PingFangSC-Regular, PingFang SC" font-size="12" font-weight="normal" fill="#FFFFFF">
                                        <tspan x="44" y="18">IM 聊天</tspan>
                                    </text>
                                </g>
                            </g>
                        </g>
                        <g id="编组-18" transform="translate(617.000000, 0.000000)">
                            <path d="M2,0 L148,0 C149.104569,-6.46995335e-16 150,0.8954305 150,2 L150,476 C150,477.104569 149.104569,478 148,478 L2,478 C0.8954305,478 1.3527075e-16,477.104569 0,476 L0,2 C-1.3527075e-16,0.8954305 0.8954305,2.02906125e-16 2,0 Z" id="矩形备份-25" fill="#EDF9FA"></path>
                            <path d="M70.5828966,206.617655 C71.8833103,207.458483 73.3790345,207.965517 75,207.965517 C76.6093793,207.965517 78.0957241,207.465103 79.390069,206.63531 L79.390069,206.63531 L87.9274483,210.144828 C89.7867586,210.911172 91,212.724138 91,214.735172 L91,214.735172 L91,220.655172 C91,220.959724 90.7528276,221.206897 90.4482759,221.206897 L90.4482759,221.206897 L77.7111724,221.206897 L76.1382069,214.129379 L77.6797241,211.56 C77.7823448,211.389517 77.7851034,211.177103 77.6868966,211.003862 C77.5886897,210.830621 77.4055172,210.724138 77.2068966,210.724138 L77.2068966,210.724138 L72.7931034,210.724138 C72.5944828,210.724138 72.4113103,210.830621 72.3131034,211.003862 C72.2154483,211.177655 72.2176552,211.389517 72.3202759,211.56 L72.3202759,211.56 L73.8617931,214.129379 L72.2888276,221.206897 L59.5517241,221.206897 C59.2471724,221.206897 59,220.959724 59,220.655172 L59,220.655172 L59,214.735172 C59,212.724138 60.2132414,210.911172 62.0725517,210.144828 L62.0725517,210.144828 Z M75,187 C79.5633103,187 83.2758621,190.712552 83.2758621,195.275862 L83.2758621,195.275862 L83.2758621,197.482759 C83.2758621,201.909793 79.7365517,206.862069 75,206.862069 C70.2634483,206.862069 66.7241379,201.909793 66.7241379,197.482759 L66.7241379,197.482759 L66.7241379,195.275862 C66.7241379,190.712552 70.4366897,187 75,187 Z M77.7591724,193.944 C76.081931,195.497655 73.7023448,196.37931 71.137931,196.37931 C69.9875862,196.37931 68.8797241,196.195034 67.8275862,195.846897 L67.8275862,195.846897 L67.8275862,197.482759 C67.8275862,201.310069 70.9608276,205.758621 75,205.758621 C79.0391724,205.758621 82.1724138,201.310069 82.1724138,197.482759 L82.1724138,197.482759 L82.1724138,196.137103 C80.4609655,195.777931 78.9233103,195.017655 77.7591724,193.944 Z" id="形状结合" fill="#47C2C5" fill-rule="nonzero"></path>
                            <path id="直线-5" d="M75,228 L75,268 L79,268 L74.5,277 L70,268 L74,268 L74,228 L75,228 Z" fill="#47C2C5" fill-rule="nonzero"></path>
                            <g id="编组-2备份" transform="translate(47.000000, 235.000000)">
                                <path d="M54,0.5 C54.4142136,0.5 54.7892136,0.667893219 55.0606602,0.939339828 C55.3321068,1.21078644 55.5,1.58578644 55.5,2 L55.5,2 L55.5,22 C55.5,22.4142136 55.3321068,22.7892136 55.0606602,23.0606602 C54.7892136,23.3321068 54.4142136,23.5 54,23.5 L54,23.5 L2,23.5 C1.58578644,23.5 1.21078644,23.3321068 0.939339828,23.0606602 C0.667893219,22.7892136 0.5,22.4142136 0.5,22 L0.5,22 L0.5,2 C0.5,1.58578644 0.667893219,1.21078644 0.939339828,0.939339828 C1.21078644,0.667893219 1.58578644,0.5 2,0.5 L2,0.5 Z" id="矩形备份-3" stroke="#47C2C5" fill="#EDF9FA"></path>
                                <text id="辅助教学" font-family="PingFangSC-Regular, PingFang SC" font-size="12" font-weight="normal" fill="#47C2C5">
                                    <tspan x="4" y="17">辅助教学</tspan>
                                </text>
                            </g>
                            <text id="远程教室" font-family="PingFangSC-Medium, PingFang SC" font-size="14" font-weight="400" fill="#28B8BB">
                                <tspan x="47" y="23">远程教室</tspan>
                            </text>
                            <g id="编组-17" transform="translate(10.000000, 36.000000)">
                                <g id="编组-16">
                                    <rect id="矩形备份-36" fill="#28B8BB" opacity="0.854399182" x="0" y="0" width="130" height="28"></rect>
                                    <text id="实时互动" font-family="PingFangSC-Regular, PingFang SC" font-size="12" font-weight="normal" fill="#FFFFFF">
                                        <tspan x="41" y="18">实时互动</tspan>
                                    </text>
                                </g>
                                <g id="编组-2" transform="translate(0.000000, 36.000000)">
                                    <rect id="矩形备份-48" fill="#28B8BB" opacity="0.854399182" x="0" y="0" width="130" height="28"></rect>
                                    <text id="教学白板" font-family="PingFangSC-Regular, PingFang SC" font-size="12" font-weight="normal" fill="#FFFFFF">
                                        <tspan x="41" y="18">教学白板</tspan>
                                    </text>
                                </g>
                                <g id="编组-3" transform="translate(0.000000, 72.000000)">
                                    <rect id="矩形备份-51" fill="#28B8BB" opacity="0.854399182" x="0" y="0" width="130" height="28"></rect>
                                    <text id="美颜特效" font-family="PingFangSC-Regular, PingFang SC" font-size="12" font-weight="normal" fill="#FFFFFF">
                                        <tspan x="41" y="18">美颜特效</tspan>
                                    </text>
                                </g>
                                <g id="编组-3" transform="translate(0.000000, 108.000000)">
                                    <rect id="矩形备份-51" fill="#28B8BB" opacity="0.854399182" x="0" y="0" width="130" height="28"></rect>
                                    <text id="IM-聊天" font-family="PingFangSC-Regular, PingFang SC" font-size="12" font-weight="normal" fill="#FFFFFF">
                                        <tspan x="44" y="18">IM 聊天</tspan>
                                    </text>
                                </g>
                            </g>
                        </g>
                        <g id="编组-31" transform="translate(627.000000, 280.000000)">
                            <use id="矩形" stroke="#47C2C5" mask="url(#mask-4)" stroke-width="2" fill="#EDF9FA" stroke-dasharray="2,2" xlink:href="#path-3"></use>
                            <g id="编组-23" transform="translate(17.000000, 16.000000)" fill="#47C2C5">
                                <g id="编组-12">
                                    <text id="学生-1" font-family="PingFangSC-Regular, PingFang SC" font-size="14" font-weight="normal">
                                        <tspan x="0" y="55">学生 1</tspan>
                                    </text>
                                    <path d="M24.9335242,13.3333333 C26.5138853,13.3333333 27.9460375,14.2639847 28.5881909,15.708 L28.5881909,15.708 L33.2188575,26.1253333 C33.4258707,26.5912945 33.3490213,27.1345157 33.0208798,27.5247687 C32.6927382,27.9150217 32.1707681,28.0839662 31.6761909,27.96 L31.6761909,27.96 L26.6668575,26.7066667 L26.6668575,32 L10.6668575,32 L10.6668575,26.7066667 L5.65752421,27.96 C5.16294695,28.0839662 4.64097683,27.9150217 4.31283531,27.5247687 C3.98469378,27.1345157 3.90784442,26.5912945 4.11485754,26.1253333 L4.11485754,26.1253333 L8.74552421,15.708 C9.38767758,14.2639847 10.8198298,13.3333333 12.4001909,13.3333333 L12.4001909,13.3333333 Z M24.0001909,18.6666667 L18.6668575,20 L13.3335242,18.6666667 L13.3335242,23.292 L15.6761909,22.7066667 L16.3241909,25.2933333 L13.3335242,26.04 L13.3335242,28 L18.6668575,29.3333333 L24.0001909,28 L24.0001909,26.04 L21.0095242,25.2933333 L21.6575242,22.7066667 L24.0001909,23.292 L24.0001909,18.6666667 Z M10.6668575,17.9493333 L7.66285754,24.7093333 L10.6668575,23.9586667 L10.6668575,17.9493333 Z M26.6668575,17.9493333 L26.6668575,23.96 L29.6708575,24.7093333 L26.6668575,17.9493333 Z M18.6668575,0 C21.5387382,0 23.8804516,2.26991632 23.9957423,5.11349372 L24.0001909,5.33333333 C24.0001909,8.20521403 21.7302746,10.5469274 18.8866971,10.6622181 L18.6668575,10.6666667 C15.7949768,10.6666667 13.4532635,8.39675035 13.3379728,5.55317294 L13.3335242,5.33333333 C13.3335242,2.46145263 15.6034405,0.119739298 18.4470179,0.00444855702 L18.6668575,0 Z" id="形状结合" fill-rule="nonzero"></path>
                                </g>
                                <g id="编组-12" transform="translate(54.000000, 0.000000)">
                                    <text id="学生-2" font-family="PingFangSC-Regular, PingFang SC" font-size="14" font-weight="normal">
                                        <tspan x="0" y="55">学生 2</tspan>
                                    </text>
                                    <path d="M26.9335242,13.3333333 C28.5138853,13.3333333 29.9460375,14.2639847 30.5881909,15.708 L30.5881909,15.708 L35.2188575,26.1253333 C35.4258707,26.5912945 35.3490213,27.1345157 35.0208798,27.5247687 C34.6927382,27.9150217 34.1707681,28.0839662 33.6761909,27.96 L33.6761909,27.96 L28.6668575,26.7066667 L28.6668575,32 L12.6668575,32 L12.6668575,26.7066667 L7.65752421,27.96 C7.16294695,28.0839662 6.64097683,27.9150217 6.31283531,27.5247687 C5.98469378,27.1345157 5.90784442,26.5912945 6.11485754,26.1253333 L6.11485754,26.1253333 L10.7455242,15.708 C11.3876776,14.2639847 12.8198298,13.3333333 14.4001909,13.3333333 L14.4001909,13.3333333 Z M26.0001909,18.6666667 L20.6668575,20 L15.3335242,18.6666667 L15.3335242,23.292 L17.6761909,22.7066667 L18.3241909,25.2933333 L15.3335242,26.04 L15.3335242,28 L20.6668575,29.3333333 L26.0001909,28 L26.0001909,26.04 L23.0095242,25.2933333 L23.6575242,22.7066667 L26.0001909,23.292 L26.0001909,18.6666667 Z M12.6668575,17.9493333 L9.66285754,24.7093333 L12.6668575,23.9586667 L12.6668575,17.9493333 Z M28.6668575,17.9493333 L28.6668575,23.96 L31.6708575,24.7093333 L28.6668575,17.9493333 Z M20.6668575,0 C23.5387382,0 25.8804516,2.26991632 25.9957423,5.11349372 L26.0001909,5.33333333 C26.0001909,8.20521403 23.7302746,10.5469274 20.8866971,10.6622181 L20.6668575,10.6666667 C17.7949768,10.6666667 15.4532635,8.39675035 15.3379728,5.55317294 L15.3335242,5.33333333 C15.3335242,2.46145263 17.6034405,0.119739298 20.4470179,0.00444855702 L20.6668575,0 Z" id="形状结合" fill-rule="nonzero"></path>
                                </g>
                                <path d="M38,78 C39.1045695,78 40,78.8954305 40,80 C40,81.1045695 39.1045695,82 38,82 C36.8954305,82 36,81.1045695 36,80 C36,78.8954305 36.8954305,78 38,78 Z M48,78 C49.1045695,78 50,78.8954305 50,80 C50,81.1045695 49.1045695,82 48,82 C46.8954305,82 46,81.1045695 46,80 C46,78.8954305 46.8954305,78 48,78 Z M58,78 C59.1045695,78 60,78.8954305 60,80 C60,81.1045695 59.1045695,82 58,82 C56.8954305,82 56,81.1045695 56,80 C56,78.8954305 56.8954305,78 58,78 Z" id="形状结合"></path>
                                <g id="编组-12" transform="translate(27.000000, 100.000000)">
                                    <text id="学生-N" font-family="PingFangSC-Regular, PingFang SC" font-size="14" font-weight="normal">
                                        <tspan x="0" y="55">学生 N</tspan>
                                    </text>
                                    <path d="M26.9335242,13.3333333 C28.5138853,13.3333333 29.9460375,14.2639847 30.5881909,15.708 L30.5881909,15.708 L35.2188575,26.1253333 C35.4258707,26.5912945 35.3490213,27.1345157 35.0208798,27.5247687 C34.6927382,27.9150217 34.1707681,28.0839662 33.6761909,27.96 L33.6761909,27.96 L28.6668575,26.7066667 L28.6668575,32 L12.6668575,32 L12.6668575,26.7066667 L7.65752421,27.96 C7.16294695,28.0839662 6.64097683,27.9150217 6.31283531,27.5247687 C5.98469378,27.1345157 5.90784442,26.5912945 6.11485754,26.1253333 L6.11485754,26.1253333 L10.7455242,15.708 C11.3876776,14.2639847 12.8198298,13.3333333 14.4001909,13.3333333 L14.4001909,13.3333333 Z M26.0001909,18.6666667 L20.6668575,20 L15.3335242,18.6666667 L15.3335242,23.292 L17.6761909,22.7066667 L18.3241909,25.2933333 L15.3335242,26.04 L15.3335242,28 L20.6668575,29.3333333 L26.0001909,28 L26.0001909,26.04 L23.0095242,25.2933333 L23.6575242,22.7066667 L26.0001909,23.292 L26.0001909,18.6666667 Z M12.6668575,17.9493333 L9.66285754,24.7093333 L12.6668575,23.9586667 L12.6668575,17.9493333 Z M28.6668575,17.9493333 L28.6668575,23.96 L31.6708575,24.7093333 L28.6668575,17.9493333 Z M20.6668575,0 C23.5387382,0 25.8804516,2.26991632 25.9957423,5.11349372 L26.0001909,5.33333333 C26.0001909,8.20521403 23.7302746,10.5469274 20.8866971,10.6622181 L20.6668575,10.6666667 C17.7949768,10.6666667 15.4532635,8.39675035 15.3379728,5.55317294 L15.3335242,5.33333333 C15.3335242,2.46145263 17.6034405,0.119739298 20.4470179,0.00444855702 L20.6668575,0 Z" id="形状结合" fill-rule="nonzero"></path>
                                </g>
                            </g>
                        </g>
                        <g id="编组-27" transform="translate(157.000000, 227.000000)">
                            <path id="直线-3" d="M85.5,7 L94.5,11.5 L85.5,16 L85.5,12 L8.5,12 L8.5,16 L-0.5,11.5 L8.5,7 L8.5,11 L85.5,11 L85.5,7 Z" fill="#47C2C5" fill-rule="nonzero"></path>
                            <g id="编组-2备份" transform="translate(19.000000, 0.000000)">
                                <path d="M54,0.5 C54.4142136,0.5 54.7892136,0.667893219 55.0606602,0.939339828 C55.3321068,1.21078644 55.5,1.58578644 55.5,2 L55.5,2 L55.5,22 C55.5,22.4142136 55.3321068,22.7892136 55.0606602,23.0606602 C54.7892136,23.3321068 54.4142136,23.5 54,23.5 L54,23.5 L2,23.5 C1.58578644,23.5 1.21078644,23.3321068 0.939339828,23.0606602 C0.667893219,22.7892136 0.5,22.4142136 0.5,22 L0.5,22 L0.5,2 C0.5,1.58578644 0.667893219,1.21078644 0.939339828,0.939339828 C1.21078644,0.667893219 1.58578644,0.5 2,0.5 L2,0.5 Z" id="矩形备份-3" stroke="#47C2C5" fill="#EDF9FA"></path>
                                <text id="连麦互动" font-family="PingFangSC-Regular, PingFang SC" font-size="12" font-weight="normal" fill="#47C2C5">
                                    <tspan x="4" y="17">连麦互动</tspan>
                                </text>
                            </g>
                        </g>
                    </g>
                </g>
            </g>
        </g>
    </g>
</svg>