<?xml version="1.0" encoding="UTF-8"?>
<svg width="62px" height="53px" viewBox="0 0 62 53" version="1.1" xmlns="http://www.w3.org/2000/svg" xmlns:xlink="http://www.w3.org/1999/xlink">
    <!-- Generator: Sketch 64 (93537) - https://sketch.com -->
    <title>family</title>
    <desc>Created with Sketch.</desc>
    <g id="产品" stroke="none" stroke-width="1" fill="none" fill-rule="evenodd">
        <g id="机器与数据智能-智能日志管理平台✅" transform="translate(-529.000000, -1736.000000)" stroke-width="2">
            <g id="产品介绍-2" transform="translate(0.000000, 1273.000000)">
                <g id="01" transform="translate(372.000000, 430.000000)">
                    <g id="family" transform="translate(158.000000, 35.000000)">
                        <polyline id="路径" stroke="#00AAE7" points="0 16 30 0 60 16"></polyline>
                        <circle id="椭圆形" stroke="#333333" stroke-linecap="square" cx="48" cy="30" r="6"></circle>
                        <circle id="椭圆形" stroke="#333333" stroke-linecap="square" cx="12" cy="30" r="6"></circle>
                        <path d="M24,50 L24,48.035 C24,46.615 23.255,45.309 22.033,44.586 C20.088,43.435 16.716,42 12,42 C7.223,42 3.873,43.426 1.948,44.575 C0.736,45.299 0,46.601 0,48.013 L0,50 L24,50 Z" id="路径" stroke="#333333" stroke-linecap="square"></path>
                        <path d="M60,50 L60,48.035 C60,46.615 59.255,45.309 58.033,44.586 C56.088,43.435 52.716,42 48,42 C43.223,42 39.873,43.426 37.948,44.575 C36.736,45.299 36,46.601 36,48.013 L36,50 L60,50 Z" id="路径" stroke="#333333" stroke-linecap="square"></path>
                    </g>
                </g>
            </g>
        </g>
    </g>
</svg>