<?xml version="1.0" encoding="UTF-8"?>
<svg width="689px" height="286px" viewBox="0 0 689 286" version="1.1" xmlns="http://www.w3.org/2000/svg" xmlns:xlink="http://www.w3.org/1999/xlink">
    <title>编组 11</title>
    <g id="产品" stroke="none" stroke-width="1" fill="none" fill-rule="evenodd">
        <g id="机器与数据智能-智能日志管理平台02✅" transform="translate(-428.000000, -1038.000000)">
            <g id="产品介绍-2备份" transform="translate(0.000000, 719.000000)">
                <g id="编组-5" transform="translate(372.000000, 256.000000)">
                    <g id="编组" transform="translate(0.000000, 15.000000)">
                        <g id="编组-11" transform="translate(56.000000, 48.000000)">
                            <path d="M179,0 L687,0 C688.104569,-2.02906125e-16 689,0.8954305 689,2 L689,284 C689,285.104569 688.104569,286 687,286 L179,286 C177.895431,286 177,285.104569 177,284 L177,2 C177,0.8954305 177.895431,2.02906125e-16 179,0 Z" id="矩形备份-30" fill="#E6F4F9"></path>
                            <path id="直线-9备份-4" d="M450.5,161 L459.5,165.5 L450.5,170 L450.5,166 L419.5,166 L419.5,165 L450.5,165 L450.5,161 Z" fill="#21B4E9" fill-rule="nonzero"></path>
                            <path id="路径-13备份-2" d="M451.5,82.5 L460.5,87 L451.5,91.5 L451.5,87.5 L433.5,87.5 L433.5,243.5 L451.5,243.5 L451.5,239.5 L460.5,244 L451.5,248.5 L451.5,244.5 L432.5,244.5 L432.5,86.5 L451.5,86.5 L451.5,82.5 Z" fill="#21B4E9" fill-rule="nonzero"></path>
                            <rect id="矩形备份-31" stroke="#00AAE7" x="197" y="60" width="97" height="208" rx="2"></rect>
                            <path id="路径-3备份" d="M314.5,160 L323.5,164.5 L314.5,169 L314.5,165 L294,165 L294,164 L314.5,164 L314.5,160 Z" fill="#1AB9EB" fill-rule="nonzero"></path>
                            <rect id="矩形备份-42" stroke="#00AAE7" x="322" y="60" width="97" height="208" rx="2"></rect>
                            <rect id="矩形备份-43" stroke="#00AAE7" x="461" y="59" width="204" height="56" rx="2"></rect>
                            <rect id="矩形备份-44" stroke="#00AAE7" x="461" y="135" width="204" height="57" rx="2"></rect>
                            <rect id="矩形备份-45" stroke="#00AAE7" x="460" y="211" width="204" height="56" rx="2"></rect>
                            <rect id="矩形备份-36" fill="#00AAE7" opacity="0.854399182" x="177" y="0" width="512" height="40"></rect>
                            <path d="M2,0 L133,0 C134.104569,-2.02906125e-16 135,0.8954305 135,2 L135,284 C135,285.104569 134.104569,286 133,286 L2,286 C0.8954305,286 1.3527075e-16,285.104569 0,284 L0,2 C-1.3527075e-16,0.8954305 0.8954305,2.02906125e-16 2,0 Z" id="矩形备份-37" fill="#E2F2F3"></path>
                            <rect id="矩形备份-34" stroke="#42C0C3" x="17" y="60" width="100" height="36" rx="2"></rect>
                            <rect id="矩形备份-57" stroke="#42C0C3" x="17" y="108" width="100" height="36" rx="2"></rect>
                            <rect id="矩形备份-58" stroke="#42C0C3" x="17" y="156" width="100" height="36" rx="2"></rect>
                            <rect id="矩形备份-59" stroke="#42C0C3" x="17" y="204" width="100" height="36" rx="2"></rect>
                            <g id="更多" transform="translate(54.000000, 250.000000)" fill-rule="nonzero">
                                <rect id="矩形" fill="#000000" opacity="0" x="0" y="0" width="16" height="16"></rect>
                                <path d="M5,8 C5,9.00414753 5.81402241,9.81816994 6.81816994,9.81816994 C7.82231747,9.81816994 8.63633988,9.00414753 8.63633988,8 C8.63633988,6.99585247 7.82231747,6.18183006 6.81816994,6.18183006 C5.81402241,6.18183006 5,6.99585247 5,8 Z M11.1818301,8 C11.1818301,8.64956956 11.5283713,9.2497966 12.090915,9.57458139 C12.6534588,9.89936617 13.3465412,9.89936617 13.909085,9.57458139 C14.4716287,9.2497966 14.8181699,8.64956956 14.8181699,8 C14.8181699,6.99585247 14.0041475,6.18183006 13,6.18183006 C11.9958525,6.18183006 11.1818301,6.99585247 11.1818301,8 L11.1818301,8 Z M17.3636601,8 C17.3636601,9.00414753 18.1776825,9.81816994 19.1818301,9.81816994 C20.1859776,9.81816994 21,9.00414753 21,8 C21,6.99585247 20.1859776,6.18183006 19.1818301,6.18183006 C18.1776825,6.18183006 17.3636601,6.99585247 17.3636601,8 Z" id="形状" fill="#42C0C3"></path>
                            </g>
                            <path id="路径-3备份" d="M168.5,160 L177.5,164.5 L168.5,169 L168.5,165 L135,165 L135,164 L168.5,164 L168.5,160 Z" fill="#1AB9EB" fill-rule="nonzero"></path>
                            <rect id="矩形备份-39" fill="#28B8BB" opacity="0.854399182" x="0" y="0" width="135" height="40"></rect>
                            <text id="日志来源" font-family="PingFangSC-Medium, PingFang SC" font-size="16" font-weight="400" fill="#FFFFFF">
                                <tspan x="33" y="26">日志来源</tspan>
                            </text>
                            <text id="日志管理系统" font-family="PingFangSC-Medium, PingFang SC" font-size="16" font-weight="400" fill="#FFFFFF">
                                <tspan x="385" y="26">日志管理系统</tspan>
                            </text>
                            <text id="交易系统" font-family="PingFangSC-Regular, PingFang SC" font-size="14" font-weight="normal" fill="#28B8BB">
                                <tspan x="39" y="83">交易系统</tspan>
                            </text>
                            <text id="logkit" font-family="PingFangSC-Regular, PingFang SC" font-size="14" font-weight="normal" fill="#00AAE7">
                                <tspan x="218" y="119">logkit</tspan>
                            </text>
                            <text id="实时汇聚与清洗" font-family="PingFangSC-Regular, PingFang SC" font-size="14" font-weight="normal" fill="#00AAE7">
                                <tspan x="218" y="211">实时汇聚</tspan>
                                <tspan x="218" y="231">与清洗</tspan>
                            </text>
                            <text id="统一日志存储" font-family="PingFangSC-Regular, PingFang SC" font-size="14" font-weight="normal" fill="#00AAE7">
                                <tspan x="343" y="163">统一日志</tspan>
                                <tspan x="343" y="183">存储</tspan>
                            </text>
                            <text id="监控与告警-更快发现问题" font-family="PingFangSC-Regular, PingFang SC" font-size="14" font-weight="normal" fill="#00AAE7">
                                <tspan x="517" y="83">监控与告警</tspan>
                                <tspan x="517" y="103" font-family="PingFangSC-Medium, PingFang SC" font-weight="400">更快发现问题</tspan>
                            </text>
                            <text id="检索-更快解决问题" font-family="PingFangSC-Regular, PingFang SC" font-size="14" font-weight="normal" fill="#00AAE7">
                                <tspan x="517" y="160">检索</tspan>
                                <tspan x="517" y="180" font-family="PingFangSC-Medium, PingFang SC" font-weight="400">更快解决问题</tspan>
                            </text>
                            <text id="历史质量分析-更全面复盘问题" font-family="PingFangSC-Regular, PingFang SC" font-size="14" font-weight="normal" fill="#00AAE7">
                                <tspan x="517" y="235">历史质量分析</tspan>
                                <tspan x="517" y="255" font-family="PingFangSC-Medium, PingFang SC" font-weight="400">更全面复盘问题</tspan>
                            </text>
                            <text id="OA系统" font-family="PingFangSC-Regular, PingFang SC" font-size="14" font-weight="normal" fill="#28B8BB">
                                <tspan x="44" y="131">OA系统</tspan>
                            </text>
                            <text id="机房运维" font-family="PingFangSC-Regular, PingFang SC" font-size="14" font-weight="normal" fill="#28B8BB">
                                <tspan x="37" y="179">机房运维</tspan>
                            </text>
                            <text id="手机客户端" font-family="PingFangSC-Regular, PingFang SC" font-size="14" font-weight="normal" fill="#28B8BB">
                                <tspan x="32" y="227">手机客户端</tspan>
                            </text>
                        </g>
                    </g>
                </g>
            </g>
        </g>
    </g>
</svg>