<?xml version="1.0" encoding="UTF-8"?>
<svg width="690px" height="286px" viewBox="0 0 690 286" version="1.1" xmlns="http://www.w3.org/2000/svg" xmlns:xlink="http://www.w3.org/1999/xlink">
    <title>编组 17</title>
    <g id="产品" stroke="none" stroke-width="1" fill="none" fill-rule="evenodd">
        <g id="机器与数据智能-智能日志管理平台02✅" transform="translate(-415.000000, -324.000000)">
            <g id="产品介绍-2">
                <g id="编组-5" transform="translate(372.000000, 256.000000)">
                    <g id="编组">
                        <g id="编组-17" transform="translate(43.000000, 68.000000)">
                            <text id="交换机备份-2" font-family="PingFangSC-Regular, PingFang SC" font-size="14" font-weight="normal" line-spacing="30" fill="#28B8BB">
                                <tspan x="107" y="65">交换机</tspan>
                            </text>
                            <line x1="71" y1="143.5" x2="85" y2="143.5" id="直线-9备份-2" stroke="#21B4E9" stroke-linecap="square"></line>
                            <line x1="154" y1="65.5" x2="163" y2="65.5" id="直线-9备份-3" stroke="#21B4E9" stroke-linecap="square"></line>
                            <path d="M229,0.5 L180,0.5 C179.585786,0.5 179.210786,0.667893219 178.93934,0.939339828 C178.667893,1.21078644 178.5,1.58578644 178.5,2 L178.5,62 C178.5,62.4142136 178.667893,62.7892136 178.93934,63.0606602 C179.210786,63.3321068 179.585786,63.5 180,63.5 L229,63.5 C229.414214,63.5 229.789214,63.3321068 230.06066,63.0606602 C230.332107,62.7892136 230.5,62.4142136 230.5,62 L230.5,2 C230.5,1.58578644 230.332107,1.21078644 230.06066,0.939339828 C229.789214,0.667893219 229.414214,0.5 229,0.5 Z" id="矩形备份-23" stroke="#1AB9EB" fill="#E2F5FC"></path>
                            <path d="M152,33.5 L103,33.5 C102.585786,33.5 102.210786,33.6678932 101.93934,33.9393398 C101.667893,34.2107864 101.5,34.5857864 101.5,35 L101.5,95 C101.5,95.4142136 101.667893,95.7892136 101.93934,96.0606602 C102.210786,96.3321068 102.585786,96.5 103,96.5 L152,96.5 C152.414214,96.5 152.789214,96.3321068 153.06066,96.0606602 C153.332107,95.7892136 153.5,95.4142136 153.5,95 L153.5,35 C153.5,34.5857864 153.332107,34.2107864 153.06066,33.9393398 C152.789214,33.6678932 152.414214,33.5 152,33.5 Z" id="矩形备份-24" stroke="#42C0C3" fill="#E2F2F3"></path>
                            <text id="交换机备份-2" font-family="PingFangSC-Regular, PingFang SC" font-size="14" font-weight="normal" fill="#28B8BB">
                                <tspan x="107" y="70">交换机</tspan>
                            </text>
                            <text id="服务器备份-2" font-family="PingFangSC-Regular, PingFang SC" font-size="14" font-weight="normal" fill="#00AAE7">
                                <tspan x="183" y="37">服务器</tspan>
                            </text>
                            <text id="服务器备份-3" font-family="PingFangSC-Regular, PingFang SC" font-size="12" font-weight="normal" line-spacing="30" fill="#00AAE7">
                                <tspan x="187" y="117">服务器</tspan>
                            </text>
                            <path d="M75,122.5 L2,122.5 C1.58578644,122.5 1.21078644,122.667893 0.939339828,122.93934 C0.667893219,123.210786 0.5,123.585786 0.5,124 L0.5,164 C0.5,164.414214 0.667893219,164.789214 0.939339828,165.06066 C1.21078644,165.332107 1.58578644,165.5 2,165.5 L75,165.5 C75.4142136,165.5 75.7892136,165.332107 76.0606602,165.06066 C76.3321068,164.789214 76.5,164.414214 76.5,164 L76.5,124 C76.5,123.585786 76.3321068,123.210786 76.0606602,122.93934 C75.7892136,122.667893 75.4142136,122.5 75,122.5 Z" id="矩形备份-25" stroke="#1AB9EB" fill="#E2F5FC"></path>
                            <text id="TCP/IP备份" font-family="PingFangSC-Medium, PingFang SC" font-size="16" font-weight="400" fill="#21B4E9">
                                <tspan x="11" y="150">TCP/IP</tspan>
                            </text>
                            <path d="M152,190.5 L103,190.5 C102.585786,190.5 102.210786,190.667893 101.93934,190.93934 C101.667893,191.210786 101.5,191.585786 101.5,192 L101.5,252 C101.5,252.414214 101.667893,252.789214 101.93934,253.06066 C102.210786,253.332107 102.585786,253.5 103,253.5 L152,253.5 C152.414214,253.5 152.789214,253.332107 153.06066,253.06066 C153.332107,252.789214 153.5,252.414214 153.5,252 L153.5,192 C153.5,191.585786 153.332107,191.210786 153.06066,190.93934 C152.789214,190.667893 152.414214,190.5 152,190.5 Z" id="矩形备份-26" stroke="#42C0C3" fill="#E2F2F3"></path>
                            <text id="交换机备份-3" font-family="PingFangSC-Regular, PingFang SC" font-size="14" font-weight="normal" fill="#28B8BB">
                                <tspan x="107" y="226">交换机</tspan>
                            </text>
                            <path d="M229,72.5 L180,72.5 C179.585786,72.5 179.210786,72.6678932 178.93934,72.9393398 C178.667893,73.2107864 178.5,73.5857864 178.5,74 L178.5,133 C178.5,133.414214 178.667893,133.789214 178.93934,134.06066 C179.210786,134.332107 179.585786,134.5 180,134.5 L229,134.5 C229.414214,134.5 229.789214,134.332107 230.06066,134.06066 C230.332107,133.789214 230.5,133.414214 230.5,133 L230.5,74 C230.5,73.5857864 230.332107,73.2107864 230.06066,72.9393398 C229.789214,72.6678932 229.414214,72.5 229,72.5 Z" id="矩形备份-27" stroke="#1AB9EB" fill="#E2F5FC"></path>
                            <text id="服务器备份-4" font-family="PingFangSC-Regular, PingFang SC" font-size="14" font-weight="normal" fill="#00AAE7">
                                <tspan x="183" y="109">服务器</tspan>
                            </text>
                            <path d="M229,151.5 L180,151.5 C179.585786,151.5 179.210786,151.667893 178.93934,151.93934 C178.667893,152.210786 178.5,152.585786 178.5,153 L178.5,212 C178.5,212.414214 178.667893,212.789214 178.93934,213.06066 C179.210786,213.332107 179.585786,213.5 180,213.5 L229,213.5 C229.414214,213.5 229.789214,213.332107 230.06066,213.06066 C230.332107,212.789214 230.5,212.414214 230.5,212 L230.5,153 C230.5,152.585786 230.332107,152.210786 230.06066,151.93934 C229.789214,151.667893 229.414214,151.5 229,151.5 Z" id="矩形备份-28" stroke="#1AB9EB" fill="#E2F5FC"></path>
                            <text id="服务器备份-5" font-family="PingFangSC-Regular, PingFang SC" font-size="14" font-weight="normal" fill="#00AAE7">
                                <tspan x="183" y="188">服务器</tspan>
                            </text>
                            <path d="M229,222.5 L180,222.5 C179.585786,222.5 179.210786,222.667893 178.93934,222.93934 C178.667893,223.210786 178.5,223.585786 178.5,224 L178.5,284 C178.5,284.414214 178.667893,284.789214 178.93934,285.06066 C179.210786,285.332107 179.585786,285.5 180,285.5 L229,285.5 C229.414214,285.5 229.789214,285.332107 230.06066,285.06066 C230.332107,284.789214 230.5,284.414214 230.5,284 L230.5,224 C230.5,223.585786 230.332107,223.210786 230.06066,222.93934 C229.789214,222.667893 229.414214,222.5 229,222.5 Z" id="矩形备份-29" stroke="#1AB9EB" fill="#E2F5FC"></path>
                            <text id="服务器备份-6" font-family="PingFangSC-Regular, PingFang SC" font-size="14" font-weight="normal" fill="#00AAE7">
                                <tspan x="183" y="259">服务器</tspan>
                            </text>
                            <path d="M400,0 L688,0 C689.104569,-2.02906125e-16 690,0.8954305 690,2 L690,284 C690,285.104569 689.104569,286 688,286 L400,286 C398.895431,286 398,285.104569 398,284 L398,2 C398,0.8954305 398.895431,2.02906125e-16 400,0 Z" id="矩形备份-30" fill="#E6F4F9"></path>
                            <path id="直线-9备份-4" d="M586.5,159 L595.5,163.5 L586.5,168 L586.5,164 L568.5,164 L568.5,163 L586.5,163 L586.5,159 Z" fill="#21B4E9" fill-rule="nonzero"></path>
                            <path id="路径-13备份-2" d="M587.5,80.5 L596.5,85 L587.5,89.5 L587.5,85.5 L581.5,85.5 L581.5,241.5 L587.5,241.5 L587.5,237.5 L596.5,242 L587.5,246.5 L587.5,242.5 L580.5,242.5 L580.5,84.5 L587.5,84.5 L587.5,80.5 Z" fill="#21B4E9" fill-rule="nonzero"></path>
                            <rect id="矩形备份-31" fill="#FFFFFF" x="414" y="59" width="69" height="208" rx="2"></rect>
                            <text id="logkit备份" font-family="PingFangSC-Regular, PingFang SC" font-size="14" font-weight="normal" fill="#21B4E9">
                                <tspan x="431" y="119">logkit</tspan>
                            </text>
                            <text id="实时汇聚-与清洗备份" font-family="PingFangSC-Regular, PingFang SC" font-size="14" font-weight="normal" fill="#21B4E9">
                                <tspan x="421" y="198">实时汇聚</tspan>
                                <tspan x="421" y="218">与清洗</tspan>
                            </text>
                            <rect id="矩形备份-32" fill="#FFFFFF" x="505" y="59" width="69" height="208" rx="2"></rect>
                            <text id="统一日志-存储备份" font-family="PingFangSC-Regular, PingFang SC" font-size="14" font-weight="normal" fill="#21B4E9">
                                <tspan x="512" y="158">统一日志</tspan>
                                <tspan x="512" y="178">存储</tspan>
                            </text>
                            <rect id="矩形备份-33" fill="#FFFFFF" x="596" y="59" width="78" height="57" rx="2"></rect>
                            <text id="监控与告警备份" font-family="PingFangSC-Regular, PingFang SC" font-size="14" font-weight="normal" fill="#21B4E9">
                                <tspan x="600" y="93">监控与告警</tspan>
                            </text>
                            <rect id="矩形备份-34" fill="#FFFFFF" x="596" y="134" width="78" height="58" rx="2"></rect>
                            <text id="检索备份" font-family="PingFangSC-Regular, PingFang SC" font-size="14" font-weight="normal" fill="#21B4E9">
                                <tspan x="623" y="168">检索</tspan>
                            </text>
                            <rect id="矩形备份-35" fill="#FFFFFF" x="596" y="210" width="78" height="57" rx="2"></rect>
                            <text id="历史质量-分析" font-family="PingFangSC-Regular, PingFang SC" font-size="14" font-weight="normal" fill="#21B4E9">
                                <tspan x="607" y="237">历史质量</tspan>
                                <tspan x="607" y="257">分析</tspan>
                            </text>
                            <rect id="矩形备份-36" fill="#00AAE7" opacity="0.854399182" x="398" y="0" width="292" height="40"></rect>
                            <path d="M257,0 L371,0 C372.104569,-2.02906125e-16 373,0.8954305 373,2 L373,157 C373,158.104569 372.104569,159 371,159 L257,159 C255.895431,159 255,158.104569 255,157 L255,2 C255,0.8954305 255.895431,2.02906125e-16 257,0 Z" id="矩形备份-37" fill="#E2F2F3"></path>
                            <text id="身份证读卡器备份" font-family="PingFangSC-Regular, PingFang SC" font-size="14" font-weight="normal" fill="#28B8BB">
                                <tspan x="272" y="79">身份证读卡器</tspan>
                            </text>
                            <text id="出入证读卡器备份" font-family="PingFangSC-Regular, PingFang SC" font-size="14" font-weight="normal" fill="#28B8BB">
                                <tspan x="272" y="124">出入证读卡器</tspan>
                            </text>
                            <path d="M258,179 L372,179 C373.104569,179 374,179.895431 374,181 L374,284 C374,285.104569 373.104569,286 372,286 L258,286 C256.895431,286 256,285.104569 256,284 L256,181 C256,179.895431 256.895431,179 258,179 Z" id="矩形备份-38" fill="#E2F2F3"></path>
                            <text id="日志" font-family="PingFangSC-Regular, PingFang SC" font-size="14" font-weight="normal" fill="#28B8BB">
                                <tspan x="301" y="256">日志</tspan>
                            </text>
                            <rect id="矩形备份-39" fill="#28B8BB" opacity="0.854399182" x="255" y="0" width="118" height="40"></rect>
                            <text id="保安系统日志备份" font-family="PingFangSC-Medium, PingFang SC" font-size="16" font-weight="400" fill="#FFFFFF">
                                <tspan x="267" y="26">保安系统日志</tspan>
                            </text>
                            <text id="日志管理系统备份" font-family="PingFangSC-Medium, PingFang SC" font-size="16" font-weight="400" fill="#FFFFFF">
                                <tspan x="499" y="26">日志管理系统</tspan>
                            </text>
                            <rect id="矩形备份-40" fill="#28B8BB" opacity="0.854399182" x="256" y="179" width="118" height="40"></rect>
                            <text id="业务日志备份" font-family="PingFangSC-Medium, PingFang SC" font-size="16" font-weight="400" fill="#FFFFFF">
                                <tspan x="281" y="205">业务日志</tspan>
                            </text>
                            <path id="路径-13备份-3" d="M91.5,60.5 L100.5,65 L91.5,69.5 L91.5,65.5 L85.5,65.5 L85.5,221.5 L91.5,221.5 L91.5,217.5 L100.5,222 L91.5,226.5 L91.5,222.5 L84.5,222.5 L84.5,64.5 L91.5,64.5 L91.5,60.5 Z" fill="#21B4E9" fill-rule="nonzero"></path>
                            <path id="路径-13备份-4" d="M169.5,15.5 L178.5,20 L169.5,24.5 L169.5,20.5 L163.5,20.5 L163.5,108.5 L169.5,108.5 L169.5,104.5 L178.5,109 L169.5,113.5 L169.5,109.5 L162.5,109.5 L162.5,19.5 L169.5,19.5 L169.5,15.5 Z" fill="#21B4E9" fill-rule="nonzero"></path>
                            <line x1="154" y1="220.5" x2="163" y2="220.5" id="直线-9备份-5" stroke="#21B4E9" stroke-linecap="square"></line>
                            <path id="路径-13备份-5" d="M169.5,170.5 L178.5,175 L169.5,179.5 L169.5,175.5 L163.5,175.5 L163.5,263.5 L169.5,263.5 L169.5,259.5 L178.5,264 L169.5,268.5 L169.5,264.5 L162.5,264.5 L162.5,174.5 L169.5,174.5 L169.5,170.5 Z" fill="#21B4E9" fill-rule="nonzero"></path>
                            <polyline id="路径-14备份-2" stroke="#21B4E9" points="230 32 239 32 239 104 230 104"></polyline>
                            <polyline id="路径-14备份-3" stroke="#21B4E9" points="373 103 387 103 387 236 373 236"></polyline>
                            <path id="路径-15备份-3" d="M245.5,64 L254.5,68.5 L245.5,73 L245.5,69 L239,69 L239,68 L245.5,68 L245.5,64 Z" fill="#21B4E9" fill-rule="nonzero"></path>
                            <path id="路径-15备份-4" d="M403.5,164 L412.5,168.5 L403.5,173 L403.5,169 L387,169 L387,168 L403.5,168 L403.5,164 Z" fill="#21B4E9" fill-rule="nonzero"></path>
                            <path id="路径-15备份-5" d="M494.5,164 L503.5,168.5 L494.5,173 L494.5,169 L483,169 L483,168 L494.5,168 L494.5,164 Z" fill="#21B4E9" fill-rule="nonzero"></path>
                            <polyline id="路径-14备份-4" stroke="#21B4E9" points="230 182 239 182 239 254 230 254"></polyline>
                            <path id="路径-15备份-6" d="M245.5,214 L254.5,218.5 L245.5,223 L245.5,219 L239,219 L239,218 L245.5,218 L245.5,214 Z" fill="#21B4E9" fill-rule="nonzero"></path>
                        </g>
                    </g>
                </g>
            </g>
        </g>
    </g>
</svg>