<?xml version="1.0" encoding="UTF-8"?>
<svg width="685px" height="281px" viewBox="0 0 685 281" version="1.1" xmlns="http://www.w3.org/2000/svg" xmlns:xlink="http://www.w3.org/1999/xlink">
    <title>编组 14</title>
    <g id="产品" stroke="none" stroke-width="1" fill="none" fill-rule="evenodd">
        <g id="机器与数据智能-智能日志管理平台02✅" transform="translate(-430.000000, -1760.000000)">
            <g id="产品介绍-2备份-2" transform="translate(0.000000, 1438.000000)">
                <g id="编组-5" transform="translate(372.000000, 256.000000)">
                    <g id="编组">
                        <g id="编组-14" transform="translate(58.000000, 66.000000)">
                            <g id="编组-13">
                                <path id="直线-9备份-4" d="M555.5,62.5 L564.5,67 L555.5,71.5 L555.5,67.5 L529.5,67.5 L529.5,66.5 L555.5,66.5 L555.5,62.5 Z" fill="#21B4E9" fill-rule="nonzero"></path>
                                <path id="直线-9备份-4" d="M555.5,111.5 L564.5,116 L555.5,120.5 L555.5,116.5 L529.5,116.5 L529.5,115.5 L555.5,115.5 L555.5,111.5 Z" fill="#21B4E9" fill-rule="nonzero"></path>
                                <path id="直线-9备份-4" d="M555.5,160.5 L564.5,165 L555.5,169.5 L555.5,165.5 L529.5,165.5 L529.5,164.5 L555.5,164.5 L555.5,160.5 Z" fill="#21B4E9" fill-rule="nonzero"></path>
                                <path id="直线-9备份-4" d="M555.5,209.5 L564.5,214 L555.5,218.5 L555.5,214.5 L529.5,214.5 L529.5,213.5 L555.5,213.5 L555.5,209.5 Z" fill="#21B4E9" fill-rule="nonzero"></path>
                                <path id="路径-13备份-2" d="M555.5,13.5 L564.5,18 L555.5,22.5 L555.5,18.5 L530.5,18.5 L530.5,262.5 L555.5,262.5 L555.5,258.5 L564.5,263 L555.5,267.5 L555.5,263.5 L529.5,263.5 L529.5,17.5 L555.5,17.5 L555.5,13.5 Z" fill="#21B4E9" fill-rule="nonzero"></path>
                                <line x1="513.5" y1="143.5" x2="529.5" y2="143.5" id="直线-9" stroke="#21B4E9" stroke-linecap="square"></line>
                                <path d="M301,104.5 L148,104.5 C147.585786,104.5 147.210786,104.667893 146.93934,104.93934 C146.667893,105.210786 146.5,105.585786 146.5,106 L146.5,142 C146.5,142.414214 146.667893,142.789214 146.93934,143.06066 C147.210786,143.332107 147.585786,143.5 148,143.5 L301,143.5 C301.414214,143.5 301.789214,143.332107 302.06066,143.06066 C302.332107,142.789214 302.5,142.414214 302.5,142 L302.5,106 C302.5,105.585786 302.332107,105.210786 302.06066,104.93934 C301.789214,104.667893 301.414214,104.5 301,104.5 Z" id="矩形备份-23" stroke="#1AB9EB" fill="#E2F5FC"></path>
                                <path d="M511,123.5 L340,123.5 C339.585786,123.5 339.210786,123.667893 338.93934,123.93934 C338.667893,124.210786 338.5,124.585786 338.5,125 L338.5,161 C338.5,161.414214 338.667893,161.789214 338.93934,162.06066 C339.210786,162.332107 339.585786,162.5 340,162.5 L511,162.5 C511.414214,162.5 511.789214,162.332107 512.06066,162.06066 C512.332107,161.789214 512.5,161.414214 512.5,161 L512.5,125 C512.5,124.585786 512.332107,124.210786 512.06066,123.93934 C511.789214,123.667893 511.414214,123.5 511,123.5 Z" id="矩形备份-48" stroke="#1AB9EB" fill="#E2F5FC"></path>
                                <text id="消息队列" font-family="PingFangSC-Regular, PingFang SC" font-size="14" font-weight="normal" fill="#00AAE7">
                                    <tspan x="197" y="129">消息队列</tspan>
                                </text>
                                <text id="统一日志仓库" font-family="PingFangSC-Regular, PingFang SC" font-size="14" font-weight="normal" fill="#00AAE7">
                                    <tspan x="384" y="148">统一日志仓库</tspan>
                                </text>
                                <path d="M301,143.5 L148,143.5 C147.585786,143.5 147.210786,143.667893 146.93934,143.93934 C146.667893,144.210786 146.5,144.585786 146.5,145 L146.5,181 C146.5,181.414214 146.667893,181.789214 146.93934,182.06066 C147.210786,182.332107 147.585786,182.5 148,182.5 L301,182.5 C301.414214,182.5 301.789214,182.332107 302.06066,182.06066 C302.332107,181.789214 302.5,181.414214 302.5,181 L302.5,145 C302.5,144.585786 302.332107,144.210786 302.06066,143.93934 C301.789214,143.667893 301.414214,143.5 301,143.5 Z" id="矩形备份-27" stroke="#1AB9EB" fill="#E2F5FC"></path>
                                <text id="实时数据分析" font-family="PingFangSC-Regular, PingFang SC" font-size="14" font-weight="normal" fill="#00AAE7">
                                    <tspan x="183" y="168">实时数据分析</tspan>
                                </text>
                                <polyline id="路径-14备份-3" stroke="#21B4E9" points="102 60 116 60 116 227 102 227"></polyline>
                                <path id="路径-15备份-4" d="M136.5,138 L145.5,142.5 L136.5,147 L136.5,143 L116,143 L116,142 L136.5,142 L136.5,138 Z" fill="#21B4E9" fill-rule="nonzero"></path>
                                <path id="路径-15备份-4" d="M329.5,138.5 L338.5,143 L329.5,147.5 L329.5,143.5 L305,143.5 L305,142.5 L329.5,142.5 L329.5,138.5 Z" fill="#21B4E9" fill-rule="nonzero"></path>
                                <path d="M100,36.5 L2,36.5 C1.58578644,36.5 1.21078644,36.6678932 0.939339828,36.9393398 C0.667893219,37.2107864 0.5,37.5857864 0.5,38 L0.5,82 C0.5,82.4142136 0.667893219,82.7892136 0.939339828,83.0606602 C1.21078644,83.3321068 1.58578644,83.5 2,83.5 L100,83.5 C100.414214,83.5 100.789214,83.3321068 101.06066,83.0606602 C101.332107,82.7892136 101.5,82.4142136 101.5,82 L101.5,38 C101.5,37.5857864 101.332107,37.2107864 101.06066,36.9393398 C100.789214,36.6678932 100.414214,36.5 100,36.5 Z" id="矩形备份-24" stroke="#42C0C3" fill="#E2F2F3"></path>
                                <path d="M683,0.5 L567,0.5 C566.585786,0.5 566.210786,0.667893219 565.93934,0.939339828 C565.667893,1.21078644 565.5,1.58578644 565.5,2 L565.5,34 C565.5,34.4142136 565.667893,34.7892136 565.93934,35.0606602 C566.210786,35.3321068 566.585786,35.5 567,35.5 L683,35.5 C683.414214,35.5 683.789214,35.3321068 684.06066,35.0606602 C684.332107,34.7892136 684.5,34.4142136 684.5,34 L684.5,2 C684.5,1.58578644 684.332107,1.21078644 684.06066,0.939339828 C683.789214,0.667893219 683.414214,0.5 683,0.5 Z" id="矩形备份-50" stroke="#42C0C3" fill="#E2F2F3"></path>
                                <path d="M683,98.5 L567,98.5 C566.585786,98.5 566.210786,98.6678932 565.93934,98.9393398 C565.667893,99.2107864 565.5,99.5857864 565.5,100 L565.5,132 C565.5,132.414214 565.667893,132.789214 565.93934,133.06066 C566.210786,133.332107 566.585786,133.5 567,133.5 L683,133.5 C683.414214,133.5 683.789214,133.332107 684.06066,133.06066 C684.332107,132.789214 684.5,132.414214 684.5,132 L684.5,100 C684.5,99.5857864 684.332107,99.2107864 684.06066,98.9393398 C683.789214,98.6678932 683.414214,98.5 683,98.5 Z" id="矩形备份-52" stroke="#42C0C3" fill="#E2F2F3"></path>
                                <path d="M683,196.5 L567,196.5 C566.585786,196.5 566.210786,196.667893 565.93934,196.93934 C565.667893,197.210786 565.5,197.585786 565.5,198 L565.5,230 C565.5,230.414214 565.667893,230.789214 565.93934,231.06066 C566.210786,231.332107 566.585786,231.5 567,231.5 L683,231.5 C683.414214,231.5 683.789214,231.332107 684.06066,231.06066 C684.332107,230.789214 684.5,230.414214 684.5,230 L684.5,198 C684.5,197.585786 684.332107,197.210786 684.06066,196.93934 C683.789214,196.667893 683.414214,196.5 683,196.5 Z" id="矩形备份-54" stroke="#42C0C3" fill="#E2F2F3"></path>
                                <path d="M683,49.5 L567,49.5 C566.585786,49.5 566.210786,49.6678932 565.93934,49.9393398 C565.667893,50.2107864 565.5,50.5857864 565.5,51 L565.5,83 C565.5,83.4142136 565.667893,83.7892136 565.93934,84.0606602 C566.210786,84.3321068 566.585786,84.5 567,84.5 L683,84.5 C683.414214,84.5 683.789214,84.3321068 684.06066,84.0606602 C684.332107,83.7892136 684.5,83.4142136 684.5,83 L684.5,51 C684.5,50.5857864 684.332107,50.2107864 684.06066,49.9393398 C683.789214,49.6678932 683.414214,49.5 683,49.5 Z" id="矩形备份-51" stroke="#42C0C3" fill="#E2F2F3"></path>
                                <path d="M683,147.5 L567,147.5 C566.585786,147.5 566.210786,147.667893 565.93934,147.93934 C565.667893,148.210786 565.5,148.585786 565.5,149 L565.5,181 C565.5,181.414214 565.667893,181.789214 565.93934,182.06066 C566.210786,182.332107 566.585786,182.5 567,182.5 L683,182.5 C683.414214,182.5 683.789214,182.332107 684.06066,182.06066 C684.332107,181.789214 684.5,181.414214 684.5,181 L684.5,149 C684.5,148.585786 684.332107,148.210786 684.06066,147.93934 C683.789214,147.667893 683.414214,147.5 683,147.5 Z" id="矩形备份-53" stroke="#42C0C3" fill="#E2F2F3"></path>
                                <path d="M683,245.5 L567,245.5 C566.585786,245.5 566.210786,245.667893 565.93934,245.93934 C565.667893,246.210786 565.5,246.585786 565.5,247 L565.5,279 C565.5,279.414214 565.667893,279.789214 565.93934,280.06066 C566.210786,280.332107 566.585786,280.5 567,280.5 L683,280.5 C683.414214,280.5 683.789214,280.332107 684.06066,280.06066 C684.332107,279.789214 684.5,279.414214 684.5,279 L684.5,247 C684.5,246.585786 684.332107,246.210786 684.06066,245.93934 C683.789214,245.667893 683.414214,245.5 683,245.5 Z" id="矩形备份-55" stroke="#42C0C3" fill="#E2F2F3"></path>
                                <text id="交换机" font-family="PingFangSC-Regular, PingFang SC" font-size="14" font-weight="normal" fill="#28B8BB">
                                    <tspan x="30" y="65">交换机</tspan>
                                </text>
                                <text id="监控" font-family="PingFangSC-Regular, PingFang SC" font-size="14" font-weight="normal" fill="#28B8BB">
                                    <tspan x="600" y="23">监控</tspan>
                                </text>
                                <text id="统计分析" font-family="PingFangSC-Regular, PingFang SC" font-size="14" font-weight="normal" fill="#28B8BB">
                                    <tspan x="600" y="121">统计分析</tspan>
                                </text>
                                <text id="报表" font-family="PingFangSC-Regular, PingFang SC" font-size="14" font-weight="normal" fill="#28B8BB">
                                    <tspan x="600" y="219">报表</tspan>
                                </text>
                                <text id="告警" font-family="PingFangSC-Regular, PingFang SC" font-size="14" font-weight="normal" fill="#28B8BB">
                                    <tspan x="600" y="72">告警</tspan>
                                </text>
                                <text id="检索" font-family="PingFangSC-Regular, PingFang SC" font-size="14" font-weight="normal" fill="#28B8BB">
                                    <tspan x="600" y="170">检索</tspan>
                                </text>
                                <text id="预测" font-family="PingFangSC-Regular, PingFang SC" font-size="14" font-weight="normal" fill="#28B8BB">
                                    <tspan x="600" y="268">预测</tspan>
                                </text>
                                <path d="M100,124.5 L2,124.5 C1.58578644,124.5 1.21078644,124.667893 0.939339828,124.93934 C0.667893219,125.210786 0.5,125.585786 0.5,126 L0.5,170 C0.5,170.414214 0.667893219,170.789214 0.939339828,171.06066 C1.21078644,171.332107 1.58578644,171.5 2,171.5 L100,171.5 C100.414214,171.5 100.789214,171.332107 101.06066,171.06066 C101.332107,170.789214 101.5,170.414214 101.5,170 L101.5,126 C101.5,125.585786 101.332107,125.210786 101.06066,124.93934 C100.789214,124.667893 100.414214,124.5 100,124.5 Z" id="矩形备份-26" stroke="#42C0C3" fill="#E2F2F3"></path>
                                <path d="M100,203.5 L2,203.5 C1.58578644,203.5 1.21078644,203.667893 0.939339828,203.93934 C0.667893219,204.210786 0.5,204.585786 0.5,205 L0.5,249 C0.5,249.414214 0.667893219,249.789214 0.939339828,250.06066 C1.21078644,250.332107 1.58578644,250.5 2,250.5 L100,250.5 C100.414214,250.5 100.789214,250.332107 101.06066,250.06066 C101.332107,249.789214 101.5,249.414214 101.5,249 L101.5,205 C101.5,204.585786 101.332107,204.210786 101.06066,203.93934 C100.789214,203.667893 100.414214,203.5 100,203.5 Z" id="矩形备份-47" stroke="#42C0C3" fill="#E2F2F3"></path>
                                <text id="服务器" font-family="PingFangSC-Regular, PingFang SC" font-size="14" font-weight="normal" fill="#28B8BB">
                                    <tspan x="30" y="153">服务器</tspan>
                                </text>
                                <text id="云" font-family="PingFangSC-Regular, PingFang SC" font-size="14" font-weight="normal" fill="#28B8BB">
                                    <tspan x="44" y="232">云</tspan>
                                </text>
                            </g>
                        </g>
                    </g>
                </g>
            </g>
        </g>
    </g>
</svg>