<?xml version="1.0" encoding="UTF-8"?>
<svg width="62px" height="54px" viewBox="0 0 62 54" version="1.1" xmlns="http://www.w3.org/2000/svg" xmlns:xlink="http://www.w3.org/1999/xlink">
    <!-- Generator: Sketch 64 (93537) - https://sketch.com -->
    <title>code-editor</title>
    <desc>Created with Sketch.</desc>
    <g id="解决方案" stroke="none" stroke-width="1" fill="none" fill-rule="evenodd" stroke-linecap="square">
        <g id="场景解决方案-智能视频云解决方案✅" transform="translate(-425.000000, -1427.000000)" stroke-width="2">
            <g id="产品介绍-2" transform="translate(0.000000, 1246.000000)">
                <g id="01" transform="translate(372.000000, 148.000000)">
                    <g id="编组-19" transform="translate(24.000000, 0.000000)">
                        <g id="code-editor" transform="translate(30.000000, 34.000000)">
                            <line x1="8" y1="21" x2="14" y2="21" id="路径" stroke="#00AAE7"></line>
                            <line x1="8" y1="33" x2="12" y2="33" id="路径" stroke="#00AAE7"></line>
                            <line x1="8" y1="27" x2="10" y2="27" id="路径" stroke="#00AAE7"></line>
                            <line x1="8" y1="39" x2="10" y2="39" id="路径" stroke="#00AAE7"></line>
                            <line x1="8" y1="45" x2="14" y2="45" id="路径" stroke="#00AAE7"></line>
                            <line x1="30" y1="21" x2="35" y2="21" id="路径" stroke="#00AAE7"></line>
                            <line x1="34" y1="27" x2="42" y2="27" id="路径" stroke="#00AAE7"></line>
                            <line x1="38" y1="33" x2="52" y2="33" id="路径" stroke="#00AAE7"></line>
                            <line x1="34" y1="39" x2="42" y2="39" id="路径" stroke="#00AAE7"></line>
                            <line x1="30" y1="45" x2="35" y2="45" id="路径" stroke="#00AAE7"></line>
                            <line x1="22" y1="14" x2="22" y2="52" id="路径" stroke="#333333"></line>
                            <line x1="8" y1="7" x2="12" y2="7" id="路径" stroke="#00AAE7"></line>
                            <line x1="0" y1="14" x2="60" y2="14" id="路径" stroke="#333333"></line>
                            <rect id="矩形" stroke="#333333" x="0" y="0" width="60" height="52"></rect>
                        </g>
                    </g>
                </g>
            </g>
        </g>
    </g>
</svg>