<?xml version="1.0" encoding="UTF-8"?>
<svg width="62px" height="42px" viewBox="0 0 62 42" version="1.1" xmlns="http://www.w3.org/2000/svg" xmlns:xlink="http://www.w3.org/1999/xlink">
    <!-- Generator: Sketch 64 (93537) - https://sketch.com -->
    <title>cloud-upload-96</title>
    <desc>Created with Sketch.</desc>
    <g id="解决方案" stroke="none" stroke-width="1" fill="none" fill-rule="evenodd">
        <g id="场景解决方案-智能视频云解决方案✅" transform="translate(-425.000000, -1577.000000)" stroke-width="2">
            <g id="产品介绍-2" transform="translate(0.000000, 1246.000000)">
                <g id="01" transform="translate(372.000000, 292.000000)">
                    <g id="编组-19" transform="translate(24.000000, 0.000000)">
                        <g id="cloud-upload-96" transform="translate(30.000000, 40.000000)">
                            <line x1="30" y1="36" x2="30" y2="14" id="路径" stroke="#333333"></line>
                            <polyline id="路径" stroke="#333333" stroke-linecap="square" points="20 24 30 14 40 24"></polyline>
                            <path d="M38,40 L50,40 C55.6,39.5 60,34.7 60,29 C60,23.2 55.6,18.5 49.9,18 C48.9,7.9 40.4,0 30,0 C21,0 13.4,6 10.9,14.2 C4.7,15.2 0,20.5 0,27 C0,33.8 5.3,39.5 12,40 L22,40" id="路径" stroke="#00AAE7" stroke-linecap="square"></path>
                        </g>
                    </g>
                </g>
            </g>
        </g>
    </g>
</svg>