
<?xml version="1.0" encoding="UTF-8"?>
<svg width="54px" height="58px" viewBox="0 0 54 58" version="1.1" xmlns="http://www.w3.org/2000/svg" xmlns:xlink="http://www.w3.org/1999/xlink">
    <!-- Generator: Sketch 64 (93537) - https://sketch.com -->
    <title>electronic-circuit</title>
    <desc>Created with Sketch.</desc>
    <g id="产品" stroke="none" stroke-width="1" fill="none" fill-rule="evenodd" stroke-linecap="square">
        <g id="基础服务-直播✅" transform="translate(-933.000000, -1022.000000)" stroke-width="2">
            <g id="产品介绍-2" transform="translate(0.000000, 543.000000)">
                <g id="01" transform="translate(772.000000, 448.000000)">
                    <g id="electronic-circuit" transform="translate(162.000000, 32.000000)">
                        <polyline id="路径" stroke="#333333" points="10 14 10 22 18 30 18 56"></polyline>
                        <polyline id="路径" stroke="#333333" points="4 36 4 44 10 50 10 56"></polyline>
                        <polyline id="路径" stroke="#333333" points="48 36 48 44 42 50 42 56"></polyline>
                        <polyline id="路径" stroke="#333333" points="42 14 42 22 34 30 34 56"></polyline>
                        <line x1="26" y1="8" x2="26" y2="56" id="路径" stroke="#333333"></line>
                        <circle id="椭圆形" stroke="#00AAE7" cx="10" cy="10" r="4"></circle>
                        <circle id="椭圆形" stroke="#00AAE7" cx="4" cy="32" r="4"></circle>
                        <circle id="椭圆形" stroke="#00AAE7" cx="48" cy="32" r="4"></circle>
                        <circle id="椭圆形" stroke="#00AAE7" cx="42" cy="10" r="4"></circle>
                        <circle id="椭圆形" stroke="#00AAE7" cx="26" cy="4" r="4"></circle>
                    </g>
                </g>
            </g>
        </g>
    </g>
</svg>