<svg width="800" height="330" viewBox="0 0 800 330" fill="none" xmlns="http://www.w3.org/2000/svg">
<path opacity="0.08" fill-rule="evenodd" clip-rule="evenodd" d="M0 2C0 0.895429 0.895431 0 2 0H798C799.105 0 800 0.895431 800 2V328C800 329.105 799.105 330 798 330H2C0.895429 330 0 329.105 0 328V2Z" fill="#00AAE7"/>
<path d="M79.444 105.694V106.99H84.322V116.836H85.654V106.99H90.28V105.694H85.654V100.276H84.322V105.694H79.444ZM75.916 100.474L75.016 101.356C76.312 102.328 77.356 103.264 78.112 104.146L78.994 103.246C78.166 102.31 77.14 101.392 75.916 100.474ZM73.81 105.802V107.044H76.456V114.226C76.456 114.514 76.312 114.766 76.042 114.982L76.546 116.152C77.824 115.306 79.03 114.352 80.146 113.272L79.822 111.94C79.066 112.66 78.346 113.272 77.698 113.812V105.802H73.81ZM94.186 104.362V111.436H96.472V112.138C96.472 112.282 96.454 112.462 96.436 112.642H92.026V113.794H96.112C96.004 114.01 95.878 114.208 95.734 114.406C95.23 114.946 94.348 115.396 93.088 115.756L93.754 116.782C95.14 116.386 96.148 115.846 96.76 115.144C97.084 114.766 97.318 114.316 97.498 113.794H102.61V116.836H103.888V113.794H107.974V112.642H103.888V111.436H106.03V104.362H94.186ZM97.768 111.436H102.61V112.642H97.732C97.75 112.48 97.768 112.318 97.768 112.138V111.436ZM104.77 110.428H95.446V109.312H104.77V110.428ZM95.446 108.376V107.368H104.77V108.376H95.446ZM95.446 106.45V105.37H104.77V106.45H95.446ZM94.726 102.598H96.112C96.472 103.084 96.796 103.588 97.084 104.092L98.164 103.696C97.966 103.354 97.714 102.994 97.408 102.598H99.766V101.5H95.302C95.446 101.158 95.608 100.798 95.752 100.438L94.51 100.168C94.024 101.536 93.232 102.796 92.134 103.948L93.214 104.614C93.79 104.002 94.294 103.318 94.726 102.598ZM102.124 102.544H103.492C103.888 103.048 104.23 103.57 104.518 104.11L105.598 103.714C105.382 103.354 105.13 102.958 104.806 102.544H107.812V101.446H102.682L103.06 100.474L101.8 100.204C101.404 101.428 100.756 102.562 99.856 103.57L100.918 104.254C101.368 103.732 101.764 103.156 102.124 102.544ZM123.148 107.404H112.87V116.782H114.166V116.044H122.698V116.8H123.976V112.174H114.166V110.932H123.148V107.404ZM114.166 114.892V113.218H122.698V114.892H114.166ZM114.166 109.888V108.448H121.888V109.888H114.166ZM125.632 105.226H118.792C118.612 104.722 118.414 104.272 118.216 103.858L119.188 104.452C119.584 103.912 119.962 103.336 120.286 102.724H121.42C121.852 103.3 122.23 103.912 122.554 104.56L123.706 104.128C123.49 103.696 123.184 103.228 122.806 102.724H126.01V101.59H120.808C120.952 101.23 121.078 100.87 121.204 100.492L119.962 100.222C119.566 101.518 118.954 102.688 118.09 103.768L118.198 103.84L116.938 104.056C117.136 104.416 117.316 104.794 117.496 105.226H110.368V108.484H111.628V106.342H124.372V108.484H125.632V105.226ZM112.528 102.724H113.554C114.004 103.372 114.4 104.038 114.724 104.722L115.912 104.272C115.66 103.786 115.318 103.264 114.922 102.724H117.946V101.59H113.122C113.266 101.23 113.428 100.87 113.572 100.474L112.33 100.204C111.826 101.572 111.034 102.832 109.954 103.948L111.088 104.668C111.628 104.074 112.096 103.426 112.528 102.724ZM134.488 101.014V109.33H138.25V111.454H134.182V112.678H138.25V115.018H133.426V116.26H144.262V115.018H139.546V112.678H143.596V111.454H139.546V109.33H143.29V101.014H134.488ZM142.048 108.178H139.546V105.748H142.048V108.178ZM138.25 108.178H135.73V105.748H138.25V108.178ZM135.73 104.614V102.166H138.25V104.614H135.73ZM139.546 102.166H142.048V104.614H139.546V102.166ZM128.134 106.972V108.214H130.096V112.732C129.322 112.948 128.53 113.128 127.738 113.272L128.062 114.514C129.97 114.046 131.752 113.47 133.408 112.786V111.526C132.76 111.814 132.112 112.066 131.428 112.3V108.214H133.408V106.972H131.428V102.706H133.624V101.482H127.882V102.706H130.096V106.972H128.134Z" fill="#00AAE7"/>
<rect x="24.5" y="78.5" width="169" height="59" rx="1.5" stroke="#00AAE7" stroke-miterlimit="0" stroke-linejoin="bevel"/>
<path d="M287.052 110.212C288.168 112.84 289.932 115.018 292.362 116.764L293.244 115.72C290.814 114.172 289.05 112.102 287.952 109.51H293.064V108.268H291.498V103.03H287.592V100.312H286.35V103.03H283.038V104.272H286.35V105.874C286.35 106.702 286.296 107.494 286.188 108.268H282.282V109.51H285.972C285.324 112.39 283.812 114.478 281.472 115.738L282.264 116.782C284.676 115.378 286.278 113.2 287.052 110.212ZM287.592 104.272H290.238V108.268H287.412C287.52 107.404 287.592 106.504 287.592 105.568V104.272ZM276.882 105.082V106.342H278.898V112.768C278.16 112.984 277.404 113.182 276.612 113.362L276.936 114.658C278.988 114.118 280.878 113.434 282.642 112.606V111.31C281.85 111.688 281.022 112.03 280.194 112.336V106.342H282.246V105.082H280.194V100.402H278.898V105.082H276.882ZM295.386 102.13V103.39H299.76C298.59 105.928 296.916 108.16 294.72 110.086L295.53 111.112C296.214 110.5 296.844 109.87 297.456 109.204V116.818H298.716V107.656C299.688 106.36 300.516 104.938 301.182 103.39H310.884V102.13H301.668C301.866 101.554 302.046 100.978 302.226 100.384L300.912 100.222C300.732 100.87 300.516 101.5 300.282 102.13H295.386ZM300.12 110.5V111.742H305.34V114.73C305.34 115.27 305.052 115.558 304.512 115.558C303.774 115.558 303.09 115.54 302.442 115.522L302.784 116.746H305.034C306.096 116.746 306.636 116.206 306.636 115.144V111.742H311.136V110.5H306.636V109.366C307.86 108.556 308.958 107.692 309.93 106.792V105.586H301.506V106.792H308.274C307.338 107.584 306.366 108.25 305.34 108.826V110.5H300.12ZM314.412 106.774V116.818H315.672V104.326C316.14 103.228 316.554 102.058 316.878 100.834L315.708 100.294C315.078 102.958 314.052 105.316 312.63 107.386L313.062 108.772C313.548 108.124 313.998 107.458 314.412 106.774ZM318.102 101.014L317.22 101.878C318.3 102.85 319.164 103.786 319.794 104.65L320.748 103.696C320.028 102.796 319.146 101.914 318.102 101.014ZM316.392 105.892V107.098H318.408V114.28C318.408 114.532 318.282 114.766 318.03 114.982L318.552 116.17C319.56 115.27 320.532 114.262 321.432 113.128L321.126 111.85C320.604 112.462 320.118 113.02 319.65 113.524V105.892H316.392ZM321.666 102.4V103.534H323.826V105.856H321.27V107.044H324.546C323.358 108.304 321.99 109.276 320.46 109.978L321.108 111.004C321.54 110.788 321.972 110.572 322.404 110.32V116.764H323.61V116.008H326.976V116.764H328.2V108.736H324.528C325.086 108.232 325.626 107.656 326.13 107.044H329.082V105.856H327.012C327.804 104.668 328.524 103.318 329.136 101.806L328.056 101.248C327.732 102.004 327.39 102.742 327.03 103.462V102.4H324.996V100.33H323.826V102.4H321.666ZM325.536 105.856H324.996V103.534H326.994C326.544 104.362 326.058 105.136 325.536 105.856ZM323.61 112.894H326.976V114.874H323.61V112.894ZM326.976 111.814H323.61V109.87H326.976V111.814Z" fill="#00AAE7"/>
<rect x="218.5" y="78.5" width="169" height="59" rx="1.5" stroke="#00AAE7" stroke-miterlimit="0" stroke-linejoin="bevel"/>
<path d="M469.586 103.786V105.028H474.806V114.604C474.806 115.234 474.464 115.558 473.798 115.558C472.97 115.558 472.088 115.522 471.152 115.468L471.422 116.746H474.248C475.472 116.746 476.102 116.134 476.102 114.928V105.028H478.1V103.786H476.102V100.258H474.806V103.786H469.586ZM463.142 104.956L462.278 105.766C463.538 107.17 464.69 108.556 465.698 109.906C464.762 111.67 463.448 113.2 461.756 114.496L462.512 115.63C464.168 114.262 465.5 112.714 466.49 110.986C467.138 111.904 467.732 112.804 468.272 113.704L469.208 112.768C468.578 111.76 467.876 110.734 467.12 109.726C468.056 107.728 468.56 105.496 468.65 103.048V102.094H462.548V103.354H467.48C467.354 105.262 466.958 107.026 466.292 108.646C465.32 107.422 464.276 106.18 463.142 104.956ZM470.558 107.152L469.568 107.872C470.684 109.258 471.602 110.572 472.322 111.814L473.348 111.094C472.7 109.942 471.764 108.628 470.558 107.152ZM481.97 104.47V107.872H485.804C484.544 108.736 482.798 109.348 480.566 109.708L481.07 110.788C483.518 110.374 485.444 109.636 486.848 108.574C487.208 108.862 487.55 109.186 487.874 109.546C486.164 110.716 483.752 111.67 480.638 112.426L481.268 113.524C484.31 112.696 486.722 111.634 488.486 110.338C488.72 110.698 488.918 111.058 489.08 111.454C487.064 112.984 484.184 114.226 480.458 115.198L481.106 116.314C484.58 115.36 487.352 114.118 489.404 112.606C489.458 112.876 489.494 113.164 489.494 113.47C489.494 114.334 489.314 114.91 488.972 115.198C488.612 115.468 488.126 115.63 487.55 115.666C487.136 115.666 486.632 115.684 486.02 115.684L486.416 116.872C486.884 116.872 487.298 116.854 487.694 116.818C488.828 116.71 489.62 116.44 490.07 116.044C490.556 115.558 490.808 114.694 490.808 113.47C490.772 112.804 490.646 112.156 490.43 111.544C490.7 111.454 490.988 111.364 491.294 111.256C492.122 113.02 493.526 114.604 495.488 116.044L496.352 114.964C494.462 113.776 493.13 112.39 492.374 110.842C493.418 110.41 494.39 109.924 495.254 109.348L494.408 108.376C493.22 109.222 491.726 109.924 489.962 110.482C489.458 109.546 488.702 108.682 487.712 107.872H494.93V103.858H490.25C490.826 103.426 491.384 102.922 491.96 102.328V101.464H486.236C486.56 101.14 486.866 100.816 487.172 100.492L485.822 100.186C484.31 101.788 482.348 103.084 479.936 104.074L480.746 105.064C481.16 104.884 481.574 104.686 481.97 104.47ZM488.558 103.858H483.068C483.77 103.426 484.436 102.976 485.048 102.49H490.322C489.746 102.994 489.152 103.462 488.558 103.858ZM493.652 106.792H488.522C488.864 106.252 489.134 105.622 489.332 104.938H493.652V106.792ZM487.01 106.792H483.248V104.938H488.036C487.82 105.604 487.478 106.216 487.01 106.792ZM498.386 102.13V103.39H502.76C501.59 105.928 499.916 108.16 497.72 110.086L498.53 111.112C499.214 110.5 499.844 109.87 500.456 109.204V116.818H501.716V107.656C502.688 106.36 503.516 104.938 504.182 103.39H513.884V102.13H504.668C504.866 101.554 505.046 100.978 505.226 100.384L503.912 100.222C503.732 100.87 503.516 101.5 503.282 102.13H498.386ZM503.12 110.5V111.742H508.34V114.73C508.34 115.27 508.052 115.558 507.512 115.558C506.774 115.558 506.09 115.54 505.442 115.522L505.784 116.746H508.034C509.096 116.746 509.636 116.206 509.636 115.144V111.742H514.136V110.5H509.636V109.366C510.86 108.556 511.958 107.692 512.93 106.792V105.586H504.506V106.792H511.274C510.338 107.584 509.366 108.25 508.34 108.826V110.5H503.12ZM517.412 106.774V116.818H518.672V104.326C519.14 103.228 519.554 102.058 519.878 100.834L518.708 100.294C518.078 102.958 517.052 105.316 515.63 107.386L516.062 108.772C516.548 108.124 516.998 107.458 517.412 106.774ZM521.102 101.014L520.22 101.878C521.3 102.85 522.164 103.786 522.794 104.65L523.748 103.696C523.028 102.796 522.146 101.914 521.102 101.014ZM519.392 105.892V107.098H521.408V114.28C521.408 114.532 521.282 114.766 521.03 114.982L521.552 116.17C522.56 115.27 523.532 114.262 524.432 113.128L524.126 111.85C523.604 112.462 523.118 113.02 522.65 113.524V105.892H519.392ZM524.666 102.4V103.534H526.826V105.856H524.27V107.044H527.546C526.358 108.304 524.99 109.276 523.46 109.978L524.108 111.004C524.54 110.788 524.972 110.572 525.404 110.32V116.764H526.61V116.008H529.976V116.764H531.2V108.736H527.528C528.086 108.232 528.626 107.656 529.13 107.044H532.082V105.856H530.012C530.804 104.668 531.524 103.318 532.136 101.806L531.056 101.248C530.732 102.004 530.39 102.742 530.03 103.462V102.4H527.996V100.33H526.826V102.4H524.666ZM528.536 105.856H527.996V103.534H529.994C529.544 104.362 529.058 105.136 528.536 105.856ZM526.61 112.894H529.976V114.874H526.61V112.894ZM529.976 111.814H526.61V109.87H529.976V111.814Z" fill="#00AAE7"/>
<rect x="412.5" y="78.5" width="169" height="59" rx="1.5" stroke="#00AAE7" stroke-miterlimit="0" stroke-linejoin="bevel"/>
<path d="M662.668 101.662V102.742H664.108C664.36 103.318 664.594 103.966 664.81 104.686H662.128V105.784H671.902V104.686H669.166C669.454 104.074 669.67 103.426 669.832 102.742H671.308V101.662H667.492C667.312 101.086 667.114 100.564 666.934 100.114L665.638 100.33C665.854 100.744 666.07 101.194 666.25 101.662H662.668ZM667.924 104.686H665.98C665.782 103.984 665.584 103.336 665.368 102.742H668.626C668.482 103.408 668.248 104.056 667.924 104.686ZM663.226 106.864V112.516H664.846C664.684 113.308 664.378 113.938 663.946 114.442C663.388 115.018 662.488 115.486 661.264 115.81L661.714 116.89C663.208 116.476 664.27 115.9 664.918 115.144C665.476 114.478 665.854 113.596 666.052 112.516H667.636V115.108C667.636 116.098 668.14 116.602 669.166 116.602H670.48C671.038 116.602 671.452 116.476 671.704 116.242C671.992 115.936 672.19 115.108 672.298 113.74L671.236 113.416C671.182 114.442 671.074 115.072 670.912 115.288C670.786 115.45 670.57 115.54 670.282 115.54H669.508C669.058 115.54 668.842 115.306 668.842 114.856V112.516H670.678V106.864H663.226ZM669.508 111.472H664.396V110.158H669.508V111.472ZM664.396 109.204V107.89H669.508V109.204H664.396ZM657.934 100.186C657.448 102.418 656.674 104.452 655.612 106.288L656.674 106.954C657.268 105.946 657.79 104.812 658.258 103.57H661.786V102.328H658.672C658.852 101.752 659.014 101.122 659.176 100.456L657.934 100.186ZM657.484 105.964V107.134H658.42V109.348H656.17V110.536H658.42V114.622C658.42 114.892 658.258 115.09 657.952 115.198L658.456 116.278C659.716 115.882 660.814 115.36 661.786 114.712L661.552 113.596C660.922 114.046 660.292 114.424 659.68 114.712V110.536H661.984V109.348H659.68V107.134H661.57V105.964H657.484ZM679.282 104.578V107.818H682.234C681.298 108.7 679.984 109.33 678.274 109.69L678.76 110.77C680.524 110.374 681.964 109.672 683.044 108.682C683.296 108.97 683.548 109.276 683.764 109.6C682.468 110.716 680.632 111.634 678.256 112.354L678.886 113.416C681.154 112.66 682.954 111.67 684.286 110.482C684.448 110.824 684.592 111.202 684.718 111.598C683.17 113.038 681.01 114.226 678.202 115.126L678.85 116.242C681.37 115.342 683.404 114.172 684.952 112.768C684.97 112.984 684.988 113.2 684.988 113.434C684.988 114.298 684.862 114.874 684.646 115.162C684.394 115.45 684.07 115.594 683.674 115.63C683.314 115.648 682.882 115.666 682.36 115.666L682.738 116.836C683.134 116.836 683.494 116.818 683.818 116.782C684.718 116.674 685.348 116.404 685.69 116.008C686.086 115.522 686.284 114.658 686.284 113.434C686.248 112.75 686.14 112.102 685.96 111.454C686.194 111.346 686.428 111.238 686.68 111.13C687.256 112.912 688.192 114.532 689.506 116.008L690.352 114.946C689.056 113.686 688.156 112.246 687.652 110.626C688.336 110.248 688.948 109.816 689.506 109.33L688.66 108.358C687.832 109.15 686.788 109.816 685.564 110.356C685.168 109.456 684.574 108.628 683.8 107.836L683.818 107.818H689.2V103.894H685.852C686.32 103.444 686.788 102.922 687.256 102.31V101.464H682.738C682.99 101.158 683.224 100.834 683.476 100.474L682.144 100.168C681.028 101.77 679.57 103.066 677.806 104.038L678.598 105.01C678.814 104.866 679.03 104.722 679.282 104.578ZM684.214 103.894H680.236C680.776 103.462 681.316 102.994 681.838 102.472H685.744C685.24 102.976 684.736 103.462 684.214 103.894ZM687.94 106.756H684.466C684.718 106.216 684.934 105.604 685.078 104.956H687.94V106.756ZM683.098 106.756H680.542V104.956H683.818C683.674 105.604 683.422 106.198 683.098 106.756ZM675.79 106.648V116.782H677.104V104.326C677.644 103.21 678.112 102.022 678.472 100.78L677.266 100.204C676.51 102.976 675.322 105.442 673.666 107.584L674.08 108.952C674.692 108.214 675.268 107.44 675.79 106.648ZM705.148 107.404H694.87V116.782H696.166V116.044H704.698V116.8H705.976V112.174H696.166V110.932H705.148V107.404ZM696.166 114.892V113.218H704.698V114.892H696.166ZM696.166 109.888V108.448H703.888V109.888H696.166ZM707.632 105.226H700.792C700.612 104.722 700.414 104.272 700.216 103.858L701.188 104.452C701.584 103.912 701.962 103.336 702.286 102.724H703.42C703.852 103.3 704.23 103.912 704.554 104.56L705.706 104.128C705.49 103.696 705.184 103.228 704.806 102.724H708.01V101.59H702.808C702.952 101.23 703.078 100.87 703.204 100.492L701.962 100.222C701.566 101.518 700.954 102.688 700.09 103.768L700.198 103.84L698.938 104.056C699.136 104.416 699.316 104.794 699.496 105.226H692.368V108.484H693.628V106.342H706.372V108.484H707.632V105.226ZM694.528 102.724H695.554C696.004 103.372 696.4 104.038 696.724 104.722L697.912 104.272C697.66 103.786 697.318 103.264 696.922 102.724H699.946V101.59H695.122C695.266 101.23 695.428 100.87 695.572 100.474L694.33 100.204C693.826 101.572 693.034 102.832 691.954 103.948L693.088 104.668C693.628 104.074 694.096 103.426 694.528 102.724ZM716.488 101.014V109.33H720.25V111.454H716.182V112.678H720.25V115.018H715.426V116.26H726.262V115.018H721.546V112.678H725.596V111.454H721.546V109.33H725.29V101.014H716.488ZM724.048 108.178H721.546V105.748H724.048V108.178ZM720.25 108.178H717.73V105.748H720.25V108.178ZM717.73 104.614V102.166H720.25V104.614H717.73ZM721.546 102.166H724.048V104.614H721.546V102.166ZM710.134 106.972V108.214H712.096V112.732C711.322 112.948 710.53 113.128 709.738 113.272L710.062 114.514C711.97 114.046 713.752 113.47 715.408 112.786V111.526C714.76 111.814 714.112 112.066 713.428 112.3V108.214H715.408V106.972H713.428V102.706H715.624V101.482H709.882V102.706H712.096V106.972H710.134Z" fill="#00AAE7"/>
<rect x="606.5" y="78.5" width="169" height="59" rx="1.5" stroke="#00AAE7" stroke-miterlimit="0" stroke-linejoin="bevel"/>
<path d="M81.478 196.714L82.342 195.85C81.622 194.734 80.902 193.708 80.218 192.772C80.686 191.242 81.064 189.55 81.352 187.696L80.164 187.48C79.948 188.92 79.66 190.288 79.318 191.548C78.562 190.54 77.842 189.694 77.176 188.992L76.366 189.766C77.194 190.72 78.04 191.764 78.904 192.916C78.292 194.734 77.518 196.318 76.582 197.65L77.41 198.658C78.328 197.398 79.12 195.886 79.768 194.122C80.326 194.932 80.902 195.796 81.478 196.714ZM86.752 197.542L87.634 196.678C86.86 195.382 86.122 194.212 85.438 193.168C85.978 191.548 86.41 189.748 86.734 187.75L85.51 187.534C85.258 189.082 84.952 190.54 84.556 191.89C83.8 190.81 83.08 189.91 82.432 189.172L81.622 189.946C82.45 190.954 83.26 192.07 84.088 193.294C83.422 195.13 82.576 196.732 81.568 198.1L82.396 199.09C83.368 197.83 84.214 196.318 84.934 194.554C85.528 195.49 86.14 196.48 86.752 197.542ZM87.58 200.692C88.642 200.692 89.182 200.134 89.182 199.036V185.032H74.818V200.764H76.096V186.274H87.904V198.748C87.904 199.234 87.652 199.486 87.148 199.486L85.42 199.432L85.762 200.692H87.58ZM98.254 197.218C96.49 197.884 94.42 198.424 92.062 198.82L92.224 200.098C94.492 199.666 96.49 199.126 98.254 198.442V197.218ZM95.032 184.258C94.312 186.382 93.484 188.254 92.53 189.892C92.368 190.126 92.188 190.288 91.99 190.378L92.314 191.566C93.304 191.422 94.276 191.26 95.248 191.08C94.294 192.808 93.484 194.014 92.836 194.734C92.692 194.878 92.494 195.004 92.26 195.112L92.602 196.282C94.294 196.048 96.058 195.598 97.912 194.95V193.78C96.634 194.248 95.374 194.608 94.114 194.878C95.122 193.582 96.4 191.422 97.948 188.38L96.832 187.966C96.508 188.632 96.184 189.28 95.878 189.892C95.086 190.036 94.312 190.162 93.538 190.27C94.438 188.902 95.338 187.048 96.238 184.726L95.032 184.258ZM106.732 194.05H99.334V200.692H100.576V199.918H105.49V200.692H106.732V194.05ZM100.576 198.73V195.238H105.49V198.73H100.576ZM101.116 184.258C100.54 186.166 99.46 187.786 97.858 189.1L98.614 190.108C99.208 189.622 99.748 189.082 100.234 188.506C100.72 189.298 101.296 190.054 101.98 190.738C100.738 191.638 99.244 192.394 97.516 193.042L98.308 194.086C100.072 193.402 101.62 192.556 102.916 191.584C104.212 192.628 105.796 193.42 107.686 193.996L108.424 192.934C106.66 192.43 105.13 191.71 103.87 190.792C105.112 189.658 106.066 188.344 106.732 186.85V185.914H101.854C102.034 185.464 102.214 184.996 102.358 184.492L101.116 184.258ZM100.936 187.588C101.044 187.426 101.152 187.246 101.26 187.066H105.328C104.734 188.146 103.924 189.118 102.898 190C102.124 189.298 101.476 188.488 100.936 187.588ZM123.148 191.404H112.87V200.782H114.166V200.044H122.698V200.8H123.976V196.174H114.166V194.932H123.148V191.404ZM114.166 198.892V197.218H122.698V198.892H114.166ZM114.166 193.888V192.448H121.888V193.888H114.166ZM125.632 189.226H118.792C118.612 188.722 118.414 188.272 118.216 187.858L119.188 188.452C119.584 187.912 119.962 187.336 120.286 186.724H121.42C121.852 187.3 122.23 187.912 122.554 188.56L123.706 188.128C123.49 187.696 123.184 187.228 122.806 186.724H126.01V185.59H120.808C120.952 185.23 121.078 184.87 121.204 184.492L119.962 184.222C119.566 185.518 118.954 186.688 118.09 187.768L118.198 187.84L116.938 188.056C117.136 188.416 117.316 188.794 117.496 189.226H110.368V192.484H111.628V190.342H124.372V192.484H125.632V189.226ZM112.528 186.724H113.554C114.004 187.372 114.4 188.038 114.724 188.722L115.912 188.272C115.66 187.786 115.318 187.264 114.922 186.724H117.946V185.59H113.122C113.266 185.23 113.428 184.87 113.572 184.474L112.33 184.204C111.826 185.572 111.034 186.832 109.954 187.948L111.088 188.668C111.628 188.074 112.096 187.426 112.528 186.724ZM134.488 185.014V193.33H138.25V195.454H134.182V196.678H138.25V199.018H133.426V200.26H144.262V199.018H139.546V196.678H143.596V195.454H139.546V193.33H143.29V185.014H134.488ZM142.048 192.178H139.546V189.748H142.048V192.178ZM138.25 192.178H135.73V189.748H138.25V192.178ZM135.73 188.614V186.166H138.25V188.614H135.73ZM139.546 186.166H142.048V188.614H139.546V186.166ZM128.134 190.972V192.214H130.096V196.732C129.322 196.948 128.53 197.128 127.738 197.272L128.062 198.514C129.97 198.046 131.752 197.47 133.408 196.786V195.526C132.76 195.814 132.112 196.066 131.428 196.3V192.214H133.408V190.972H131.428V186.706H133.624V185.482H127.882V186.706H130.096V190.972H128.134Z" fill="#00AAE7"/>
<rect x="24.5" y="162.5" width="169" height="59" rx="1.5" stroke="#00AAE7" stroke-miterlimit="0" stroke-linejoin="bevel"/>
<path d="M374.872 271.696H380.668V270.436H375.304C375.484 269.788 375.646 269.122 375.79 268.402L374.458 268.15C374.008 270.742 373.144 272.794 371.866 274.324L372.694 275.332C373.576 274.36 374.296 273.136 374.872 271.696ZM376.762 272.92L375.718 273.568C376.636 274.774 377.356 275.872 377.896 276.862L378.976 276.124C378.472 275.206 377.734 274.144 376.762 272.92ZM369.796 268.24V277.132H371.11V268.24H369.796ZM366.07 269.122V276.466H367.348V269.122H366.07ZM379.192 278.032H366.844V283.036H364.828V284.206H381.118V283.036H379.192V278.032ZM368.086 283.036V279.22H370.48V283.036H368.086ZM371.722 283.036V279.22H374.242V283.036H371.722ZM375.484 283.036V279.22H377.95V283.036H375.484ZM393.142 279.022V282.964H388.228V284.224H399.226V282.964H394.438V279.022H398.56V277.816H388.948V279.022H393.142ZM384.934 284.638C385.978 284.638 386.518 284.116 386.518 283.072V277.762C387.04 277.528 387.562 277.276 388.084 277.024V275.71C387.58 275.98 387.058 276.232 386.518 276.484V272.992H388.012V271.75H386.518V268.312H385.186V271.75H382.99V272.992H385.186V277.024C384.376 277.312 383.548 277.564 382.702 277.78L383.026 279.076C383.746 278.842 384.466 278.59 385.186 278.32V282.748C385.186 283.216 384.952 283.45 384.484 283.45C384.034 283.45 383.566 283.414 383.08 283.378L383.35 284.638H384.934ZM393.628 268.096L392.314 268.312C392.638 268.888 392.944 269.554 393.232 270.274H388.768V273.676H389.992V271.444H397.552V273.676H398.758V270.274H394.528C394.24 269.464 393.934 268.744 393.628 268.096ZM391.954 272.56C391.27 274.108 390.244 275.35 388.894 276.286L389.83 277.096C391.18 276.16 392.26 274.792 393.088 273.01L391.954 272.56ZM395.428 272.524L394.33 272.992C395.41 274.144 396.382 275.476 397.264 276.952L398.398 276.376C397.534 274.972 396.544 273.676 395.428 272.524ZM414.922 278.158H403.186V284.782H404.5V283.828H413.608V284.782H414.922V278.158ZM404.5 282.604V279.4H413.608V282.604H404.5ZM404.266 272.074H408.568V274.99H400.864V276.268H417.136V274.99H409.882V272.074H415.768V270.832H409.882V268.276H408.568V270.832H405.04C405.4 270.166 405.688 269.464 405.922 268.708L404.626 268.564C404.05 270.454 402.934 272.056 401.314 273.352L402.088 274.378C402.934 273.676 403.654 272.902 404.266 272.074ZM419.314 269.05V270.004H421.492V270.652L420.592 270.508C420.286 271.66 419.71 272.578 418.864 273.262L419.566 274.126C420.214 273.586 420.736 272.92 421.132 272.128H426.01C425.992 273.316 425.938 274.09 425.848 274.414C425.74 274.738 425.488 274.9 425.092 274.936H424.642V272.83H420.808V275.296H424.444L424.588 275.782H425.326C425.614 275.764 425.866 275.71 426.1 275.638C426.244 275.854 426.406 276.124 426.55 276.43H419.242V277.384H434.776V276.43H427.774C427.594 275.998 427.432 275.62 427.252 275.278L426.55 275.386C426.64 275.314 426.73 275.206 426.802 275.08C427.054 274.612 427.198 273.334 427.198 271.246H421.492C421.546 271.102 421.6 270.958 421.636 270.814H422.572V270.004H424.534V270.814H425.614V270.004H427.774V269.05H425.614V268.24H424.534V269.05H422.572V268.24H421.492V269.05H419.314ZM423.652 274.576H421.78V273.532H423.652V274.576ZM429.052 271.858C429.34 272.47 429.754 273.046 430.33 273.586C429.592 274.09 428.674 274.45 427.558 274.702L428.044 275.746C429.286 275.458 430.348 274.972 431.23 274.324C432.058 274.9 433.12 275.404 434.38 275.818L434.974 274.774C433.858 274.432 432.886 274.018 432.076 273.532C432.796 272.722 433.3 271.696 433.57 270.436H434.578V269.356H430.294C430.402 269.032 430.492 268.708 430.582 268.348L429.394 268.132C429.016 269.824 428.296 271.174 427.234 272.182L427.954 273.082C428.35 272.722 428.728 272.308 429.052 271.858ZM429.862 270.436H432.436C432.22 271.372 431.788 272.2 431.158 272.884C430.438 272.272 429.952 271.57 429.7 270.778C429.736 270.67 429.79 270.562 429.862 270.436ZM421.438 278.23V279.022H432.724V278.23H421.438ZM421.438 279.85V280.642H432.724V279.85H421.438ZM433.3 281.524H420.898V284.944H422.158V284.404H432.04V284.944H433.3V281.524ZM422.158 283.522V282.388H432.04V283.522H422.158Z" fill="#00AAE7"/>
<rect x="24.5" y="246.5" width="751" height="59" rx="1.5" stroke="#00AAE7" stroke-miterlimit="0" stroke-linejoin="bevel"/>
<path d="M268.026 189.226V190.468H270.312C269.772 192.448 268.89 194.23 267.666 195.814L268.206 197.146C269.16 195.778 269.916 194.248 270.492 192.556V200.728H271.734V192.394C272.094 192.916 272.526 193.582 272.994 194.374L273.66 193.348C273.012 192.538 272.364 191.818 271.734 191.17V190.468H273.732V189.226H271.734V186.4C272.544 186.202 273.3 185.986 274.002 185.752L273.552 184.546C271.986 185.14 270.186 185.536 268.152 185.752L268.404 186.976C269.106 186.886 269.808 186.778 270.492 186.652V189.226H268.026ZM280.77 200.278C281.418 200.278 281.886 200.098 282.174 199.774C282.534 199.396 282.75 198.334 282.858 196.57L281.67 196.192C281.598 197.596 281.472 198.442 281.274 198.73C281.13 198.964 280.896 199.09 280.536 199.09H278.898C278.448 199.09 278.232 198.874 278.232 198.442V196.48C280.32 193.87 281.94 190.306 283.092 185.77L281.922 185.266C281.058 188.902 279.834 191.926 278.232 194.32V187.822H276.99V195.958C275.838 197.29 274.524 198.37 273.012 199.18L273.75 200.26C274.902 199.648 275.982 198.838 276.99 197.848V198.694C276.99 199.738 277.494 200.278 278.52 200.278H280.77ZM275.136 189.658C274.812 191.746 274.344 193.672 273.696 195.4L274.758 196.084C275.388 194.338 275.874 192.268 276.198 189.874L275.136 189.658ZM282.66 190.486L281.544 190.846C282.156 192.196 282.714 193.744 283.218 195.508L284.316 195.022C283.848 193.42 283.308 191.908 282.66 190.486ZM277.422 184.276L276.558 185.086C277.872 186.13 278.898 187.102 279.654 188.02L280.554 187.138C279.69 186.184 278.646 185.23 277.422 184.276ZM288.258 184.33C287.736 186.49 286.89 188.47 285.72 190.252L286.764 190.918C287.43 189.91 288.024 188.776 288.528 187.552H292.884V186.346H288.978C289.176 185.77 289.356 185.194 289.518 184.582L288.258 184.33ZM287.646 189.964V191.134H289.104V193.348H286.278V194.536H289.104V198.676C289.104 198.91 288.906 199.09 288.528 199.216L289.068 200.332C290.508 199.954 291.786 199.468 292.884 198.874L292.686 197.722C291.912 198.172 291.138 198.532 290.364 198.82V194.536H293.136V193.348H290.364V191.134H292.668V189.964H287.646ZM295.584 190.612H300.228V193.816H295.566C295.566 193.51 295.584 193.204 295.584 192.88V190.612ZM300.228 189.37H295.584V186.274H300.228V189.37ZM295.458 195.04H300.228V198.712C300.228 199.144 300.03 199.378 299.634 199.378C299.022 199.378 298.338 199.342 297.618 199.306L297.978 200.584H300.048C301.02 200.584 301.506 200.116 301.506 199.18V185.014H294.324V192.97C294.288 195.778 293.694 198.1 292.524 199.936L293.532 200.854C294.558 199.288 295.206 197.344 295.458 195.04ZM317.148 191.404H306.87V200.782H308.166V200.044H316.698V200.8H317.976V196.174H308.166V194.932H317.148V191.404ZM308.166 198.892V197.218H316.698V198.892H308.166ZM308.166 193.888V192.448H315.888V193.888H308.166ZM319.632 189.226H312.792C312.612 188.722 312.414 188.272 312.216 187.858L313.188 188.452C313.584 187.912 313.962 187.336 314.286 186.724H315.42C315.852 187.3 316.23 187.912 316.554 188.56L317.706 188.128C317.49 187.696 317.184 187.228 316.806 186.724H320.01V185.59H314.808C314.952 185.23 315.078 184.87 315.204 184.492L313.962 184.222C313.566 185.518 312.954 186.688 312.09 187.768L312.198 187.84L310.938 188.056C311.136 188.416 311.316 188.794 311.496 189.226H304.368V192.484H305.628V190.342H318.372V192.484H319.632V189.226ZM306.528 186.724H307.554C308.004 187.372 308.4 188.038 308.724 188.722L309.912 188.272C309.66 187.786 309.318 187.264 308.922 186.724H311.946V185.59H307.122C307.266 185.23 307.428 184.87 307.572 184.474L306.33 184.204C305.826 185.572 305.034 186.832 303.954 187.948L305.088 188.668C305.628 188.074 306.096 187.426 306.528 186.724ZM328.488 185.014V193.33H332.25V195.454H328.182V196.678H332.25V199.018H327.426V200.26H338.262V199.018H333.546V196.678H337.596V195.454H333.546V193.33H337.29V185.014H328.488ZM336.048 192.178H333.546V189.748H336.048V192.178ZM332.25 192.178H329.73V189.748H332.25V192.178ZM329.73 188.614V186.166H332.25V188.614H329.73ZM333.546 186.166H336.048V188.614H333.546V186.166ZM322.134 190.972V192.214H324.096V196.732C323.322 196.948 322.53 197.128 321.738 197.272L322.062 198.514C323.97 198.046 325.752 197.47 327.408 196.786V195.526C326.76 195.814 326.112 196.066 325.428 196.3V192.214H327.408V190.972H325.428V186.706H327.624V185.482H321.882V186.706H324.096V190.972H322.134Z" fill="#00AAE7"/>
<rect x="218.5" y="162.5" width="169" height="59" rx="1.5" stroke="#00AAE7" stroke-miterlimit="0" stroke-linejoin="bevel"/>
<path d="M467.444 189.694V190.99H472.322V200.836H473.654V190.99H478.28V189.694H473.654V184.276H472.322V189.694H467.444ZM463.916 184.474L463.016 185.356C464.312 186.328 465.356 187.264 466.112 188.146L466.994 187.246C466.166 186.31 465.14 185.392 463.916 184.474ZM461.81 189.802V191.044H464.456V198.226C464.456 198.514 464.312 198.766 464.042 198.982L464.546 200.152C465.824 199.306 467.03 198.352 468.146 197.272L467.822 195.94C467.066 196.66 466.346 197.272 465.698 197.812V189.802H461.81ZM482.816 188.434H485.39C485.372 188.83 485.3 189.208 485.192 189.568H482.528L482.816 188.434ZM486.65 188.434H489.278V189.568H486.488C486.56 189.208 486.614 188.83 486.65 188.434ZM490.538 188.434H494.516V185.194H490.538V184.258H489.278V185.194H486.65V184.258H485.39V185.194H481.286V186.256H485.39V187.408H481.754L481.124 190.558H484.67C484.562 190.702 484.436 190.846 484.31 190.99C483.608 191.638 482.348 192.16 480.512 192.556L481.16 193.582C481.628 193.474 482.096 193.348 482.546 193.204V197.992H483.824V194.248H492.644V197.992H493.922V193.096H482.87C483.914 192.736 484.706 192.286 485.282 191.746C485.606 191.404 485.894 191.008 486.128 190.558H489.278V192.61H490.538V190.558H494.156C494.138 191.026 494.084 191.332 493.976 191.494C493.832 191.674 493.49 191.764 492.932 191.764C492.644 191.764 492.338 191.746 492.014 191.728L492.266 192.646C492.518 192.646 492.806 192.664 493.094 192.664C494.066 192.664 494.696 192.466 494.966 192.07C495.236 191.728 495.38 190.9 495.38 189.568H490.538V188.434ZM486.65 186.256H489.278V187.408H486.65V186.256ZM490.538 186.256H493.292V187.408H490.538V186.256ZM489.206 197.74L488.558 198.712C490.718 199.234 492.824 199.954 494.876 200.89L495.578 199.81C493.652 198.982 491.528 198.298 489.206 197.74ZM487.532 194.878C487.388 196.516 486.92 197.686 486.11 198.388C485.192 199.108 483.302 199.522 480.44 199.666L480.962 200.818C484.202 200.584 486.272 200.026 487.208 199.144C488.054 198.424 488.594 197.056 488.828 195.004L487.532 194.878ZM500.276 190.45H503.174V193.456H500.276V190.45ZM503.174 189.28H500.276V186.238H503.174V189.28ZM500.258 194.626H503.174V198.694C503.174 199.342 502.94 199.666 502.49 199.666C502.058 199.666 501.608 199.63 501.104 199.594L501.41 200.746H502.85C503.858 200.746 504.362 200.188 504.362 199.108V185.068H499.106V193.708C499.088 196.228 498.728 198.316 498.008 199.936L498.98 200.836C499.718 199.216 500.15 197.146 500.258 194.626ZM507.098 192.844H507.53C507.926 194.608 508.7 196.192 509.852 197.596C509.132 198.46 508.268 199.162 507.242 199.72L507.926 200.764C509.006 200.188 509.924 199.45 510.716 198.532C511.544 199.342 512.516 200.08 513.668 200.746L514.316 199.648C513.218 199.018 512.264 198.316 511.454 197.524C512.282 196.228 512.876 194.644 513.218 192.79V191.692H507.098V186.238H511.904C511.868 187.606 511.796 188.488 511.67 188.884C511.562 189.154 511.4 189.334 511.184 189.406C510.968 189.46 510.662 189.496 510.23 189.496C509.726 189.496 509.33 189.478 509.024 189.478L509.366 190.594H510.824C511.958 190.594 512.624 190.216 512.84 189.478C513.056 188.758 513.164 187.282 513.164 185.05H505.874V200.818H507.098V192.844ZM508.646 192.844H512.066C511.742 194.266 511.256 195.508 510.59 196.588C509.672 195.472 509.024 194.23 508.646 192.844ZM521.192 184.24C520.436 186.04 518.96 187.552 516.8 188.794L517.592 189.838C518.42 189.334 519.158 188.776 519.842 188.164C520.706 188.92 521.642 189.604 522.65 190.198C520.67 190.99 518.384 191.566 515.774 191.926L516.368 193.15C519.284 192.7 521.858 191.962 524.054 190.954C526.286 192.07 528.824 192.79 531.668 193.114L532.262 191.908C529.76 191.656 527.492 191.098 525.458 190.234C527.114 189.298 528.518 188.164 529.67 186.832V185.788H521.822C522.074 185.356 522.308 184.906 522.506 184.42L521.192 184.24ZM524.036 189.568C522.83 188.938 521.714 188.182 520.706 187.3L520.94 187.012H527.816C526.754 187.984 525.494 188.848 524.036 189.568ZM522.938 192.25C522.938 192.97 522.866 193.654 522.722 194.302H516.998V195.472H522.362C522.218 195.832 522.02 196.174 521.804 196.498C520.868 197.812 518.906 198.91 515.954 199.774L516.818 200.836C520.13 199.792 522.236 198.442 523.154 196.822C523.388 196.39 523.586 195.94 523.73 195.472H529.058C529.004 197.272 528.842 198.388 528.572 198.82C528.284 199.252 527.618 199.486 526.538 199.504L524.414 199.414L524.738 200.584C525.566 200.62 526.268 200.656 526.844 200.656C528.122 200.656 529.022 200.35 529.544 199.756C530.066 199.162 530.336 197.344 530.372 194.302H524.036C524.144 193.654 524.216 192.97 524.216 192.25H522.938Z" fill="#00AAE7"/>
<rect x="412.5" y="162.5" width="169" height="59" rx="1.5" stroke="#00AAE7" stroke-miterlimit="0" stroke-linejoin="bevel"/>
<path d="M670.102 188.938H666.178C666.808 188.344 667.438 187.624 668.086 186.778V185.824H662.128C662.416 185.428 662.686 185.014 662.956 184.582L661.678 184.312C660.274 186.49 658.456 188.254 656.26 189.586L657.088 190.576C657.628 190.216 658.186 189.82 658.726 189.388V197.254H659.986V190.162H668.842V197.11H670.102V188.938ZM664.666 188.938H659.266C659.95 188.344 660.616 187.696 661.228 186.976H666.502C665.89 187.732 665.278 188.38 664.666 188.938ZM665.368 196.624L664.72 197.596C666.916 198.388 669.058 199.468 671.146 200.836L671.866 199.738C669.904 198.514 667.744 197.488 665.368 196.624ZM663.73 191.206V193.69C663.658 195.238 663.154 196.498 662.2 197.47C661.174 198.406 659.356 199.144 656.764 199.72L657.466 200.818C660.076 200.206 661.966 199.378 663.118 198.316C664.288 197.164 664.918 195.634 664.99 193.69V191.206H663.73ZM675.016 185.752V186.94H678.526V188.596H674.08V189.766H684.178C684.286 191.386 684.484 192.772 684.736 193.96C684.934 194.914 685.168 195.778 685.42 196.57C684.502 197.956 683.386 199 682.09 199.72L682.792 200.764C683.98 200.116 685.042 199.198 685.978 197.974C686.122 198.316 686.302 198.64 686.5 198.946C687.202 200.026 687.868 200.584 688.48 200.584C689.236 200.584 689.794 199.378 690.19 196.984L689.074 196.39C688.858 198.298 688.606 199.252 688.318 199.27C688.03 199.27 687.652 198.82 687.184 197.938C687.022 197.614 686.86 197.254 686.716 196.84C687.616 195.328 688.354 193.438 688.93 191.188L687.778 190.666C687.382 192.358 686.86 193.87 686.212 195.166C686.104 194.698 685.996 194.212 685.888 193.69C685.69 192.682 685.546 191.368 685.438 189.766H689.902V188.596H685.366C685.294 187.3 685.258 185.842 685.258 184.204H683.998C683.998 185.788 684.034 187.246 684.106 188.596H679.786V186.94H683.044V185.752H679.786V184.24H678.526V185.752H675.016ZM687.112 184.438L686.122 185.068C687.022 186.058 687.724 186.958 688.228 187.768L689.2 187.084C688.714 186.328 688.012 185.446 687.112 184.438ZM683.044 197.128C682.162 197.236 681.226 197.344 680.236 197.452V195.976H682.972V194.878H680.236V193.474H678.958V194.878H676.636C677.086 194.23 677.518 193.492 677.914 192.664H683.134V191.512H678.418C678.562 191.152 678.706 190.774 678.85 190.378L677.608 190.144C677.446 190.612 677.284 191.08 677.104 191.512H674.62V192.664H676.6C676.168 193.564 675.7 194.302 675.196 194.914L675.448 195.976H678.958V197.578C677.626 197.686 676.204 197.794 674.692 197.884L674.854 199.09C676.294 198.982 677.662 198.874 678.958 198.748V200.746H680.236V198.622C681.208 198.514 682.144 198.388 683.044 198.28V197.128ZM704.518 193.96C702.862 195.058 700.882 195.994 698.578 196.75L699.118 197.974C701.404 197.164 703.312 196.228 704.86 195.166L704.518 193.96ZM700.918 190.144L700.09 190.954C701.278 191.872 702.214 192.736 702.898 193.546L703.798 192.646C703.024 191.818 702.07 190.972 700.918 190.144ZM700.45 184.186C699.91 186.742 698.866 188.92 697.336 190.702L698.2 191.818C699.1 190.774 699.856 189.604 700.468 188.29H706.318C706.282 193.744 706.192 196.984 706.012 198.028C705.85 198.964 705.31 199.432 704.374 199.432C703.654 199.432 702.808 199.396 701.836 199.36L702.16 200.584C703.312 200.62 704.122 200.656 704.608 200.656C706.174 200.656 707.056 199.918 707.254 198.46C707.47 197.038 707.578 193.222 707.578 187.03H700.99C701.296 186.184 701.548 185.284 701.746 184.348L700.45 184.186ZM691.846 189.082V190.342H693.826V196.75C693.124 196.93 692.404 197.074 691.648 197.2L692.008 198.568C694.024 198.136 695.914 197.578 697.66 196.912V195.562C696.832 195.886 696.004 196.156 695.14 196.408V190.342H696.994V189.082H695.14V184.366H693.826V189.082H691.846ZM714.67 188.542V194.482H717.352C717.334 194.95 717.298 195.382 717.226 195.796H714.076V196.966H716.92L716.812 197.254C716.344 198.298 715.372 199.18 713.932 199.882L714.706 200.818C716.146 200.098 717.136 199.234 717.694 198.19C718.738 198.784 719.746 199.558 720.754 200.494L721.438 199.45C720.43 198.604 719.296 197.884 718.072 197.272L718.162 196.966H721.924V195.796H718.396C718.45 195.382 718.486 194.95 718.504 194.482H721.204V188.02H719.188C719.584 187.57 719.98 187.03 720.376 186.382V185.5H717.514C717.73 185.176 717.928 184.816 718.126 184.456L716.902 184.168C716.074 185.662 715.03 186.868 713.752 187.804L714.49 188.686L714.67 188.542ZM717.946 188.02H715.318C715.822 187.57 716.308 187.084 716.74 186.544H719.062C718.702 187.084 718.324 187.588 717.946 188.02ZM720.124 193.51H718.468V191.728H720.124V193.51ZM717.424 193.51H715.768V191.728H717.424V193.51ZM715.768 190.792V188.992H717.424V190.792H715.768ZM718.468 188.992H720.124V190.792H718.468V188.992ZM712.834 184.312C712.186 185.968 711.16 187.444 709.72 188.722L710.098 189.982C711.862 188.47 713.158 186.76 713.95 184.816L712.834 184.312ZM713.104 189.064C712.384 190.846 711.232 192.43 709.666 193.834L710.044 195.04C710.638 194.536 711.178 194.014 711.682 193.474V200.8H712.888V191.98C713.41 191.224 713.842 190.414 714.202 189.586L713.104 189.064ZM723.508 200.728C724.444 200.728 724.912 200.26 724.912 199.342V191.314H726.262V190.09H721.762V191.314H723.706V199.036C723.706 199.432 723.49 199.648 723.076 199.648C722.734 199.648 722.374 199.612 721.996 199.558L722.248 200.728H723.508ZM721.96 185.554V186.724H725.974V185.554H721.96Z" fill="#00AAE7"/>
<rect x="606.5" y="162.5" width="169" height="59" rx="1.5" stroke="#00AAE7" stroke-miterlimit="0" stroke-linejoin="bevel"/>
<rect opacity="0.854399" width="800" height="54" fill="#00AAE7"/>
<path d="M326.902 23.362L318.352 24.928V19.33H316.624V25.234L310.738 26.314L311.008 27.952L316.624 26.926V33.478C316.624 34.756 317.218 35.404 318.424 35.404H324.256C325.12 35.404 325.714 35.206 326.038 34.81C326.362 34.378 326.578 33.19 326.686 31.246L325.048 30.724C324.994 32.236 324.886 33.118 324.742 33.37C324.58 33.622 324.31 33.748 323.95 33.748H318.82C318.496 33.748 318.352 33.568 318.352 33.244V26.602L327.172 25L326.902 23.362ZM331.942 24.532H336.568V28.654H329.008V30.328H336.568V35.764H338.278V30.328H345.172V28.654H338.278V24.532H344.146V22.876H338.278V19.204H336.568V22.876H332.716C333.058 22.048 333.382 21.166 333.706 20.212L332.086 19.834C331.15 22.606 330.052 24.748 328.756 26.296L329.926 27.7C330.646 26.782 331.33 25.72 331.942 24.532ZM348.628 20.158V21.814H361.552V20.158H348.628ZM346.9 25.126V26.836H352.714C350.932 30.4 349.492 32.596 348.394 33.424C348.304 33.478 348.16 33.532 347.98 33.586L348.43 35.332C352.678 35.044 356.602 34.648 360.22 34.144C360.544 34.756 360.832 35.368 361.12 35.98L362.65 34.918C361.75 33.118 360.49 30.994 358.852 28.564L357.484 29.41C358.168 30.49 358.798 31.552 359.374 32.578C356.458 32.992 353.506 33.298 350.554 33.478C351.724 32.146 353.074 29.932 354.622 26.836H363.154V25.126H346.9ZM364.864 24.568V26.206H369.454C369.076 27.448 368.68 28.636 368.248 29.788H376.96C376.078 30.796 374.872 31.768 373.342 32.74C372.19 32.344 370.984 32.002 369.724 31.678L368.824 33.01C371.632 33.73 374.386 34.738 377.068 35.998L378.004 34.522C377.104 34.126 376.168 33.748 375.196 33.388C376.924 32.146 378.202 30.922 379.03 29.698V28.222H370.696C370.912 27.592 371.11 26.926 371.326 26.206H381.136V24.568H371.776C371.92 23.992 372.064 23.38 372.208 22.75H380.074V21.148H372.55C372.658 20.536 372.784 19.888 372.91 19.222L371.146 19.078C371.002 19.762 370.876 20.464 370.732 21.148H366.088V22.75H370.372C370.228 23.362 370.066 23.956 369.922 24.568H364.864ZM388.516 25.954H395.248V27.538H388.516V25.954ZM395.248 29.032V30.58H388.516V29.032H395.248ZM395.248 32.056V33.694C395.248 34.09 395.014 34.288 394.582 34.288C393.988 34.288 393.358 34.252 392.692 34.198L393.106 35.746H395.122C396.274 35.71 396.85 35.206 396.85 34.216V24.478H388.642C388.984 23.92 389.308 23.344 389.596 22.75H399.028V21.094H390.334C390.55 20.536 390.748 19.942 390.928 19.33L389.182 19.132C388.966 19.78 388.732 20.446 388.462 21.094H383.188V22.75H387.634C386.446 24.874 384.79 26.782 382.702 28.438L383.8 29.878C384.952 28.942 385.978 27.934 386.914 26.836V35.818H388.516V32.056H395.248ZM402.628 20.158V21.814H415.552V20.158H402.628ZM400.9 25.126V26.836H406.714C404.932 30.4 403.492 32.596 402.394 33.424C402.304 33.478 402.16 33.532 401.98 33.586L402.43 35.332C406.678 35.044 410.602 34.648 414.22 34.144C414.544 34.756 414.832 35.368 415.12 35.98L416.65 34.918C415.75 33.118 414.49 30.994 412.852 28.564L411.484 29.41C412.168 30.49 412.798 31.552 413.374 32.578C410.458 32.992 407.506 33.298 404.554 33.478C405.724 32.146 407.074 29.932 408.622 26.836H417.154V25.126H400.9ZM424.39 24.496V26.188H429.106V35.89H430.87V26.188H435.334V24.496H430.87V19.222H429.106V24.496H424.39ZM421.114 19.384L419.926 20.554C421.204 21.49 422.194 22.39 422.914 23.236L424.084 22.048C423.274 21.148 422.284 20.266 421.114 19.384ZM418.738 24.604V26.242H421.258V32.866C421.258 33.226 421.096 33.532 420.79 33.784L421.438 35.314C422.752 34.468 423.994 33.496 425.146 32.416L424.696 30.67C424.066 31.264 423.472 31.804 422.896 32.272V24.604H418.738ZM439.024 23.272V30.58H441.274V31.138L441.238 31.516H436.972V33.01H440.716C440.68 33.082 440.626 33.154 440.554 33.244C440.086 33.748 439.24 34.18 437.998 34.522L438.88 35.872C440.284 35.476 441.292 34.936 441.922 34.216C442.21 33.874 442.444 33.478 442.624 33.01H447.412V35.89H449.086V33.01H453.028V31.516H449.086V30.58H451.192V23.272H446.17C446.566 22.804 446.944 22.282 447.268 21.724H448.456C448.78 22.192 449.086 22.66 449.356 23.164L450.742 22.66C450.58 22.372 450.382 22.048 450.13 21.724H452.812V20.284H447.97C448.06 20.032 448.15 19.762 448.258 19.492L446.62 19.132C446.242 20.302 445.612 21.4 444.73 22.426L446.044 23.272H439.024ZM442.966 30.58H447.412V31.516H442.948C442.948 31.39 442.966 31.264 442.966 31.138V30.58ZM449.518 29.284H440.698V28.456H449.518V29.284ZM440.698 27.268V26.53H449.518V27.268H440.698ZM440.698 25.36V24.568H449.518V25.36H440.698ZM439.834 21.796H441.058C441.382 22.228 441.67 22.678 441.922 23.146L443.326 22.642C443.164 22.372 442.984 22.084 442.768 21.796H444.766V20.356H440.59C440.698 20.068 440.824 19.78 440.95 19.456L439.33 19.096C438.862 20.428 438.088 21.652 437.008 22.804L438.43 23.704C438.952 23.128 439.42 22.48 439.834 21.796ZM455.692 19.924V21.598H462.064V27.97H454.972V29.608H462.064V35.836H463.792V29.608H471.028V27.97H463.792V21.598H470.344V19.924H455.692ZM458.212 22.444L456.61 23.218C457.276 24.406 457.906 25.756 458.5 27.268L460.102 26.476C459.49 25 458.86 23.668 458.212 22.444ZM467.932 22.372C467.428 23.686 466.762 25.018 465.916 26.386L467.464 27.178C468.292 25.846 468.976 24.496 469.498 23.11L467.932 22.372ZM487.156 28.222H474.844V35.872H476.572V35.134H485.428V35.872H487.156V28.222ZM476.572 33.496V29.86H485.428V33.496H476.572ZM473.674 26.548C478.282 26.368 482.476 26.116 486.238 25.792C486.652 26.458 487.066 27.16 487.498 27.916L489.172 27.088C487.858 24.91 486.472 22.93 485.014 21.13L483.466 21.868C484.06 22.624 484.654 23.416 485.23 24.28C482.368 24.55 479.416 24.748 476.356 24.856C477.868 23.488 479.344 21.796 480.802 19.78L479.02 19.168C476.608 22.696 474.718 24.622 473.35 24.928L473.674 26.548Z" fill="white"/>
</svg>
