<svg width="24" height="24" viewBox="0 0 24 24" fill="none" xmlns="http://www.w3.org/2000/svg">
<path fill-rule="evenodd" clip-rule="evenodd" d="M16.3157 2.41913C18.4617 1.96313 20.7867 2.62913 22.3627 4.37613C23.9397 6.12213 24.3647 8.50113 23.6917 10.5911V10.5941C23.5347 11.0761 23.0167 11.3401 22.5347 11.1841C22.0507 11.0281 21.7867 10.5111 21.9427 10.0271V10.0261C22.4217 8.54113 22.1177 6.84813 20.9987 5.60713C19.8777 4.36713 18.2257 3.89213 16.6987 4.21613C16.2027 4.32213 15.7137 4.00513 15.6087 3.50913C15.5017 3.01413 15.8187 2.52513 16.3147 2.41913H16.3157ZM2.421 16.2862C2.679 18.8942 6.109 20.6902 10.082 20.2982C14.055 19.9062 17.067 17.4722 16.809 14.8632C16.551 12.2562 13.121 10.4602 9.148 10.8532C5.176 11.2452 2.163 13.6782 2.421 16.2862ZM18.0283 11.639L18.029 11.6392C19.406 12.0662 20.938 13.0982 20.938 14.9182C20.938 17.9292 16.596 21.7212 10.069 21.7212C5.09 21.7212 0 19.3082 0 15.3392C0 13.2642 1.315 10.8642 3.578 8.60019C6.602 5.57819 10.127 4.20119 11.452 5.52719C12.037 6.11219 12.094 7.12419 11.718 8.33219C11.5302 8.91581 12.2267 8.63063 12.2851 8.60673C12.2877 8.60569 12.289 8.60515 12.289 8.60519C14.732 7.58219 16.864 7.52219 17.643 8.63519C18.059 9.22919 18.019 10.0612 17.636 11.0252C17.4591 11.4689 17.6907 11.5381 18.0283 11.639ZM19.942 6.56001C19.175 5.70901 18.042 5.38601 16.997 5.60801C16.569 5.69901 16.297 6.12001 16.389 6.54801C16.481 6.97401 16.901 7.24801 17.327 7.15501V7.15601C17.838 7.04801 18.392 7.20501 18.768 7.62001C19.143 8.03601 19.244 8.60401 19.083 9.10101H19.084C18.95 9.51601 19.177 9.96201 19.593 10.097C20.009 10.23 20.455 10.003 20.589 9.58701C20.917 8.57001 20.711 7.41101 19.942 6.56001ZM9.614 15.8269C9.855 15.9259 10.162 15.8119 10.301 15.5739C10.434 15.3349 10.348 15.0659 10.107 14.9779C9.871 14.8839 9.576 14.9979 9.437 15.2299C9.303 15.4639 9.377 15.7299 9.614 15.8269ZM7.208 17.7979C7.828 18.0809 8.651 17.8119 9.035 17.1989C9.413 16.5799 9.214 15.8719 8.591 15.6069C7.976 15.3489 7.181 15.6149 6.801 16.2099C6.417 16.8069 6.597 17.5199 7.208 17.7979ZM5.63 14.9759C6.451 13.3099 8.588 12.3679 10.479 12.8599C12.436 13.3649 13.434 15.2109 12.634 17.0039C11.823 18.8379 9.491 19.8159 7.512 19.1779C5.602 18.5609 4.794 16.6749 5.63 14.9759Z" fill="#BFBFBF"/>
</svg>
