<svg xmlns="http://www.w3.org/2000/svg" width="120" height="120" viewBox="0 0 120 120">
  <g fill="none" fill-rule="evenodd" stroke-linecap="square" stroke-width="2">
    <path stroke="#333" d="M30,38 L30,70 C30,71.3260824 30.5267842,72.597852 31.4644661,73.5355339 C32.402148,74.4732158 33.6739176,75 35,75 L50,75 L60,87 L70,75 L85,75 C86.3260824,75 87.597852,74.4732158 88.5355339,73.5355339 C89.4732158,72.597852 90,71.3260824 90,70 L90,38 C90,35.2385763 87.7614237,33 85,33 L35,33 C32.2385763,33 30,35.2385763 30,38 Z"/>
    <line x1="40" x2="40" y1="48" y2="60" stroke="#00AAE7"/>
    <line x1="50" x2="50" y1="42" y2="66" stroke="#00AAE7"/>
    <line x1="60" x2="60" y1="50" y2="58" stroke="#00AAE7"/>
    <line x1="80" x2="80" y1="50" y2="58" stroke="#00AAE7"/>
    <line x1="70" x2="70" y1="46" y2="62" stroke="#00AAE7"/>
  </g>
</svg>
