<svg xmlns="http://www.w3.org/2000/svg" width="120" height="120" viewBox="0 0 120 120">
  <g fill="none" fill-rule="evenodd" stroke-linecap="square" stroke-width="2">
    <rect width="12" height="12" x="45" y="45" stroke="#00AAE7"/>
    <rect width="12" height="12" x="63" y="45" stroke="#00AAE7"/>
    <rect width="12" height="12" x="45" y="65" stroke="#00AAE7"/>
    <rect width="12" height="12" x="63" y="65" stroke="#00AAE7"/>
    <path stroke="#333" d="M82,70 C82,66.6862915 84.6862915,64 88,64 L88,58 C84.6862915,58 82,55.3137085 82,52 C82,48.6862915 84.6862915,46 88,46 L88,42 C88,36.4771525 83.5228475,32 78,32 L42,32 C36.4771525,32 32,36.4771525 32,42 L32,46.017 C32.057,46.017 32.109,46 32.167,46 C35.4807085,46 38.167,48.6862915 38.167,52 C38.167,55.3137085 35.4807085,58 32.167,58 C32.109,58 32.057,57.985 32,57.983 L32,64.017 C32.057,64.017 32.109,64 32.167,64 C35.4807085,64 38.167,66.6862915 38.167,70 C38.167,73.3137085 35.4807085,76 32.167,76 C32.109,76 32.057,75.985 32,75.983 L32,78 C32,83.5228475 36.4771525,88 42,88 L78,88 C83.5228475,88 88,83.5228475 88,78 L88,76 C84.6862915,76 82,73.3137085 82,70 Z"/>
  </g>
</svg>
