<svg xmlns="http://www.w3.org/2000/svg" width="60" height="54" viewBox="0 0 60 54">
  <g fill="none" fill-rule="evenodd" stroke-linecap="square" stroke-width="2" transform="translate(1 1)">
    <path stroke="#333" d="M53,52 L5,52 C2.23857625,52 0,49.7614237 0,47 L0,0 L21,0 L27,10 L58,10 L58,47 C58,49.7614237 55.7614237,52 53,52 Z"/>
    <path stroke="#00AAE7" d="M40,30 C39.6576434,30.0019546 39.3160755,30.033067 38.979,30.093 C38.7703348,24.3714485 34.0137198,19.8733469 28.2894416,19.9843999 C22.5651635,20.0954529 17.9865915,24.7746604 18,30.5 C18.0042639,31.0504972 18.0514065,31.5998257 18.141,32.143 C16.2610376,31.683808 14.2849058,32.3507054 13.067622,33.8551443 C11.8503383,35.3595831 11.610517,37.4313782 12.4519223,39.1741212 C13.2933275,40.9168642 15.0648496,42.0175725 17,42.0002073 L40,42.0002073 C43.3137085,42.0002073 46,39.3137085 46,36 C46,32.6862915 43.3137085,30 40,30 Z"/>
  </g>
</svg>
