<svg xmlns="http://www.w3.org/2000/svg" width="120" height="120" viewBox="0 0 120 120">
  <g fill="none" fill-rule="evenodd" stroke-linecap="square" stroke-width="2">
    <path stroke="#333" d="M84,86 L36,86 C33.2385763,86 31,83.7614237 31,81 L31,34 L52,34 L58,44 L89,44 L89,81 C89,83.7614237 86.7614237,86 84,86 Z"/>
    <path stroke="#00AAE7" d="M71,64 C70.6576434,64.0019546 70.3160755,64.033067 69.979,64.093 C69.7703348,58.3714485 65.0137198,53.8733469 59.2894416,53.9843999 C53.5651635,54.0954529 48.9865915,58.7746604 49,64.5 C49.0042639,65.0504972 49.0514065,65.5998257 49.141,66.143 C47.2610376,65.683808 45.2849058,66.3507054 44.067622,67.8551443 C42.8503383,69.3595831 42.610517,71.4313782 43.4519223,73.1741212 C44.2933275,74.9168642 46.0648496,76.0175725 48,76.0002073 L71,76.0002073 C74.3137085,76.0002073 77,73.3137085 77,70 C77,66.6862915 74.3137085,64 71,64 Z"/>
  </g>
</svg>
