<svg xmlns="http://www.w3.org/2000/svg" width="58" height="58" viewBox="0 0 58 58">
  <g fill="none" fill-rule="evenodd" stroke-linecap="square" stroke-width="2" transform="translate(1 1)">
    <rect width="12" height="12" x="13" y="13" stroke="#00AAE7"/>
    <rect width="12" height="12" x="31" y="13" stroke="#00AAE7"/>
    <rect width="12" height="12" x="13" y="33" stroke="#00AAE7"/>
    <rect width="12" height="12" x="31" y="33" stroke="#00AAE7"/>
    <path stroke="#333" d="M50,38 C50,34.6862915 52.6862915,32 56,32 L56,26 C52.6862915,26 50,23.3137085 50,20 C50,16.6862915 52.6862915,14 56,14 L56,10 C56,4.4771525 51.5228475,0 46,0 L10,0 C4.4771525,0 0,4.4771525 0,10 L0,14.017 C0.057,14.017 0.109,14 0.167,14 C3.4807085,14 6.167,16.6862915 6.167,20 C6.167,23.3137085 3.4807085,26 0.167,26 C0.109,26 0.057,25.985 0,25.983 L0,32.017 C0.057,32.017 0.109,32 0.167,32 C3.4807085,32 6.167,34.6862915 6.167,38 C6.167,41.3137085 3.4807085,44 0.167,44 C0.109,44 0.057,43.985 0,43.983 L0,46 C0,51.5228475 4.4771525,56 10,56 L46,56 C51.5228475,56 56,51.5228475 56,46 L56,44 C52.6862915,44 50,41.3137085 50,38 Z"/>
  </g>
</svg>
