<svg xmlns="http://www.w3.org/2000/svg" width="62" height="57" viewBox="0 0 62 57">
  <g fill="none" fill-rule="evenodd" stroke-linecap="square" stroke-width="2" transform="translate(1 1)">
    <path stroke="#333" d="M0,5 L0,37 C0,38.3260824 0.526784202,39.597852 1.46446609,40.5355339 C2.40214799,41.4732158 3.67391755,42 5,42 L20,42 L30,54 L40,42 L55,42 C56.3260824,42 57.597852,41.4732158 58.5355339,40.5355339 C59.4732158,39.597852 60,38.3260824 60,37 L60,5 C60,2.23857625 57.7614237,0 55,0 L5,0 C2.23857625,0 0,2.23857625 0,5 Z"/>
    <line x1="10" x2="10" y1="15" y2="27" stroke="#00AAE7"/>
    <line x1="20" x2="20" y1="9" y2="33" stroke="#00AAE7"/>
    <line x1="30" x2="30" y1="17" y2="25" stroke="#00AAE7"/>
    <line x1="50" x2="50" y1="17" y2="25" stroke="#00AAE7"/>
    <line x1="40" x2="40" y1="13" y2="29" stroke="#00AAE7"/>
  </g>
</svg>
