<?xml version="1.0" encoding="UTF-8"?>
<svg width="520px" height="350px" viewBox="0 0 520 350" version="1.1" xmlns="http://www.w3.org/2000/svg" xmlns:xlink="http://www.w3.org/1999/xlink">
    <title>插画</title>
    <defs>
        <linearGradient x1="50%" y1="0%" x2="50%" y2="100%" id="linearGradient-1">
            <stop stop-color="#00D4F5" stop-opacity="0" offset="0%"></stop>
            <stop stop-color="#00BCED" offset="48.7070261%"></stop>
            <stop stop-color="#00AAE7" stop-opacity="0" offset="100%"></stop>
        </linearGradient>
        <linearGradient x1="50%" y1="0%" x2="50%" y2="100%" id="linearGradient-2">
            <stop stop-color="#00D4F5" stop-opacity="0" offset="0%"></stop>
            <stop stop-color="#00BCED" offset="48.7070261%"></stop>
            <stop stop-color="#00AAE7" stop-opacity="0" offset="100%"></stop>
        </linearGradient>
        <filter x="-55.0%" y="-254.8%" width="210.0%" height="609.5%" filterUnits="objectBoundingBox" id="filter-3">
            <feGaussianBlur stdDeviation="50" in="SourceGraphic"></feGaussianBlur>
        </filter>
        <linearGradient x1="50%" y1="0%" x2="50%" y2="100%" id="linearGradient-4">
            <stop stop-color="#7AE9FF" stop-opacity="0" offset="0%"></stop>
            <stop stop-color="#44CFFF" offset="100%"></stop>
        </linearGradient>
        <linearGradient x1="50%" y1="0%" x2="50%" y2="100%" id="linearGradient-5">
            <stop stop-color="#7AE9FF" stop-opacity="0" offset="0%"></stop>
            <stop stop-color="#56D3FF" stop-opacity="0.500027316" offset="100%"></stop>
        </linearGradient>
        <filter x="-30.0%" y="-187.5%" width="160.0%" height="475.0%" filterUnits="objectBoundingBox" id="filter-6">
            <feGaussianBlur stdDeviation="10" in="SourceGraphic"></feGaussianBlur>
        </filter>
        <linearGradient x1="25.8288973%" y1="37.8597263%" x2="50%" y2="68.1865372%" id="linearGradient-7">
            <stop stop-color="#E2F7FF" offset="0%"></stop>
            <stop stop-color="#94D8FF" offset="100%"></stop>
        </linearGradient>
        <linearGradient x1="25.8288973%" y1="37.8597263%" x2="50%" y2="68.1865372%" id="linearGradient-8">
            <stop stop-color="#E2F7FF" offset="0%"></stop>
            <stop stop-color="#94D8FF" offset="100%"></stop>
        </linearGradient>
        <linearGradient x1="50%" y1="0%" x2="50%" y2="97.6061022%" id="linearGradient-9">
            <stop stop-color="#E2F7FF" offset="0%"></stop>
            <stop stop-color="#94D8FF" offset="100%"></stop>
        </linearGradient>
        <linearGradient x1="0%" y1="50%" x2="100%" y2="50%" id="linearGradient-10">
            <stop stop-color="#8AD7F5" stop-opacity="0.8" offset="0%"></stop>
            <stop stop-color="#59B4EC" offset="100%"></stop>
        </linearGradient>
        <linearGradient x1="0%" y1="45.9000079%" x2="100%" y2="45.9000079%" id="linearGradient-11">
            <stop stop-color="#52AEE8" stop-opacity="0" offset="0%"></stop>
            <stop stop-color="#52AEE8" offset="100%"></stop>
        </linearGradient>
        <polygon id="path-12" points="10 0 19.5262794 5.5 19.5262794 46.5 10 52 0.473720558 46.5 0.473720558 5.5"></polygon>
        <polygon id="path-14" points="10 0 19.5262794 5.5 19.5262794 36.5 10 42 0.473720558 36.5 0.473720558 5.5"></polygon>
        <polygon id="path-16" points="10 1.25070787e-12 19.5262794 5.5 19.5262794 20.5 10 26 0.473720558 20.5 0.473720558 5.5"></polygon>
    </defs>
    <g id="解决方案" stroke="none" stroke-width="1" fill="none" fill-rule="evenodd">
        <g id="场景解决方案-短视频解决方案✅" transform="translate(-1028.000000, -120.000000)">
            <g id="banner" transform="translate(0.000000, 120.000000)">
                <g id="编组-35">
                    <g id="插画" transform="translate(1107.000000, 40.000000)">
                        <g id="编组-21" fill-rule="nonzero">
                            <polygon id="路径" fill="url(#linearGradient-1)" points="4 136 4 166 0 166 0 136"></polygon>
                            <path d="M27,3 L27,30 L27,30 L24,30 L24,0 C25.6568542,-3.04359188e-16 27,1.34314575 27,3 Z" id="路径" fill="url(#linearGradient-2)"></path>
                            <path d="M305,47 L305,73 L305,73 L301,73 L301,43 C303.209139,43 305,44.790861 305,47 Z" id="路径" fill="url(#linearGradient-1)"></path>
                            <path d="M328,119 L328,145 L328,145 L324,145 L324,115 C326.209139,115 328,116.790861 328,119 Z" id="路径" fill="url(#linearGradient-1)" opacity="0.300000012"></path>
                            <path d="M258,14 L258,40 L258,40 L254,40 L254,10 C256.209139,10 258,11.790861 258,14 Z" id="路径" fill="url(#linearGradient-1)" opacity="0.400000006"></path>
                            <path d="M342,176 L342,203 L342,203 L339,203 L339,173 C340.656854,173 342,174.343146 342,176 Z" id="路径" fill="url(#linearGradient-2)" opacity="0.449999988"></path>
                        </g>
                        <g id="编组-22" transform="translate(28.000000, 165.000000)">
                            <ellipse id="椭圆形" fill="#00BDFF" filter="url(#filter-3)" cx="149.36" cy="49.12" rx="136.32" ry="29.44"></ellipse>
                            <ellipse id="椭圆形" fill="url(#linearGradient-4)" cx="150" cy="29.44" rx="150" ry="29.44"></ellipse>
                            <ellipse id="椭圆形" fill="url(#linearGradient-5)" cx="150" cy="52.44" rx="150" ry="29.44"></ellipse>
                            <ellipse id="椭圆形" fill-opacity="0.5" fill="#0784DA" filter="url(#filter-6)" cx="150" cy="29" rx="50" ry="8"></ellipse>
                        </g>
                        <g id="编组" transform="translate(58.000000, 125.000000)">
                            <polygon id="路径" fill="#95D9FF" points="11.198723 9.0758211 26.0543557 0 26.0543557 25.755995 33.7499775 20.8060918 19.0669905 51.2 0.14997749 40.4421058 11.198723 34.8267468"></polygon>
                            <polygon id="路径" fill="#C5ECFF" points="18.4308345 14.8534187 34.025019 5.40789154 34.025019 32.213064 43.7827751 27.0615251 26.690275 58.6935375 6.83279762 47.4974176 18.4308345 41.6533154"></polygon>
                            <path d="M11.198723,34.8267468 L18.4308345,41.6533154 L6.83279762,47.4974176 L0.14997749,40.4421058 L11.198723,34.8267468 Z M36.9499775,22.4060918 L43.7827751,27.0615251 L34.025019,32.213064 L34.025019,23.8897247 L36.9499775,22.4060918 Z M26.0543557,-4.81072959e-12 L34.025019,5.40789154 L18.4308345,14.8534187 L11.198723,9.0758211 L26.0543557,-4.81072959e-12 Z" id="形状结合" fill="#DBF6FF"></path>
                        </g>
                        <g id="编组" transform="translate(265.000000, 61.000000)">
                            <path d="M30.7217365,0.135815225 C31.0150561,0.213641444 31.2795298,0.318791197 31.517972,0.446522483 L31.5164799,0.446958917 L31.5358065,0.456144596 C31.629611,0.507115679 31.7193534,0.561601529 31.8052079,0.619308647 L37.2948774,3.93089129 L33.6606537,4.76568292 C33.703031,5.45890832 33.6759473,6.04450388 33.6759473,6.35979731 C33.6759473,7.44282177 33.4893379,10.6815462 29.9138624,14.2939823 C27.4757508,16.7572971 16.5849286,23.0274927 9.59419244,26.9576383 L16.2227788,24.2691074 L7.865522,33.5040699 L2.009941,30.0339156 C0.667039903,29.234419 -0.753717488,27.1581675 0.460665649,23.6884251 C1.64282571,20.9159571 3.28028316,18.9180884 5.37303799,17.6948191 C7.06284698,11.0797278 9.8868077,6.49945426 13.8449202,3.95399865 C17.8030326,1.40854303 20.8732329,1.40854303 23.0555209,3.95399865 C25.9838168,0.829458312 28.539222,-0.443269496 30.7217365,0.135815225 Z" id="形状结合" fill="#95D9FF"></path>
                            <path d="M9.76514674,33.9265056 C8.67655121,34.5126258 4.81769782,32.4436508 6.61484097,27.3088433 C7.79700103,24.5363752 9.43445847,22.5385065 11.5272133,21.3152373 C13.2170223,14.7001459 16.040983,10.1198724 19.9990955,7.57441677 C23.9572079,5.02896116 27.0274082,5.02896116 29.2096963,7.57441677 C32.1379921,4.44987644 34.6933973,3.17714863 36.8759118,3.75623335 C40.1496837,4.62486043 39.8301227,8.89719097 39.8301227,9.98021543 C39.8301227,11.0632399 39.6435133,14.3019643 36.0680377,17.9144004 C32.4925621,21.5268365 10.7386512,33.3263664 9.76514674,33.9265056 Z" id="路径" fill="url(#linearGradient-7)"></path>
                        </g>
                        <g id="编组备份" transform="translate(36.000000, 44.000000)">
                            <path d="M43.0104311,0.190141315 C43.3629912,0.28368577 43.685784,0.405426585 43.9813029,0.551162479 L44.1230718,0.625742484 C44.2711925,0.703519544 44.406955,0.785719067 44.5363842,0.873159719 L52.2128284,5.5032478 L47.1248454,6.67081561 C47.180349,7.57771204 47.1509131,8.35314403 47.1467837,8.81135302 L47.1463263,8.90371623 C47.1463263,10.4199505 46.8850731,14.9541647 41.8794073,20.0115752 C38.4659643,23.4603038 23.2181237,32.2389368 13.4311219,37.7411138 L22.7118904,33.9767504 L11.0117308,46.9056978 L2.8139174,42.0474818 L2.82316489,42.0433277 C0.933879062,40.9282205 -1.0552144,38.0214628 0.644931908,33.1637952 C2.29995599,29.2823399 4.59239642,26.4853238 7.52225319,24.7727468 C9.88798577,15.5116189 13.8415308,9.09923597 19.3828882,5.53559811 C24.9242457,1.97196025 29.222526,1.97196025 32.2777293,5.53559811 C36.3773435,1.16124164 39.9549107,-0.620577294 43.0104311,0.190141315 Z" id="形状结合" fill="#95D9FF"></path>
                            <path d="M13.6712054,47.4971078 C12.1471717,48.3176761 6.74477694,45.4211111 9.26077735,38.2323806 C10.9158014,34.3509253 13.2082419,31.5539091 16.1380986,29.8413322 C18.5038312,20.5802042 22.4573762,14.1678213 27.9987337,10.6041835 C33.5400911,7.04054562 37.8383715,7.04054562 40.8935748,10.6041835 C44.9931889,6.22982701 48.5707562,4.44800808 51.6262766,5.25872669 C56.2095572,6.4748046 55.7621717,12.4560674 55.7621717,13.9723016 C55.7621717,15.4885359 55.5009186,20.0227501 50.4952528,25.0801606 C45.489587,30.1375711 15.0341117,46.6569129 13.6712054,47.4971078 Z" id="路径" fill="url(#linearGradient-8)"></path>
                        </g>
                        <g id="矩形-2" transform="translate(130.000000, 28.000000)">
                            <rect id="矩形" fill="#7FD1FB" x="0" y="0" width="96" height="158" rx="14"></rect>
                            <path d="M84,4 C90.627417,4 96,9.372583 96,16 L96,152 C96,158.627417 90.627417,164 84,164 L12,164 C5.372583,164 8.11624501e-16,158.627417 0,152 L0,16 C-8.11624501e-16,9.372583 5.372583,4 12,4 L27,4 C27,6.209139 28.790861,8 31,8 L31,8 L65,8 C67.209139,8 69,6.209139 69,4 L69,4 L84,4 Z" id="形状结合" fill="url(#linearGradient-9)"></path>
                            <g id="短视频SDK备份-2" transform="translate(30.000000, 71.000000)">
                                <path d="M28.2857143,1.03028697e-12 L28.2857143,25.7142857 L6.23145979e-12,25.7142857 L6.23145979e-12,1.03028697e-12 L28.2857143,1.03028697e-12 Z M7.71428571,5.14285714 C6.29412493,5.14285714 5.14285714,6.29412493 5.14285714,7.71428571 C5.14285714,9.1344465 6.29412493,10.2857143 7.71428571,10.2857143 C9.1344465,10.2857143 10.2857143,9.1344465 10.2857143,7.71428571 C10.2857143,6.29412493 9.1344465,5.14285714 7.71428571,5.14285714 Z" id="形状结合" fill="url(#linearGradient-10)"></path>
                                <polygon id="矩形备份-16" fill="url(#linearGradient-11)" points="25.7142857 6.85714286 36 3.85714286 36 21.8571429 25.7142857 18.8571429"></polygon>
                            </g>
                        </g>
                        <g id="编组-48" transform="translate(250.000000, 135.000000)">
                            <g id="编组备份-2" transform="translate(26.000000, 0.000000)">
                                <mask id="mask-13" fill="white">
                                    <use xlink:href="#path-12"></use>
                                </mask>
                                <use id="多边形" fill="#FFFFFF" xlink:href="#path-12"></use>
                                <polygon id="多边形" fill="#DBF6FF" mask="url(#mask-13)" points="10 -11 19.5262794 -5.5 19.5262794 5.5 10 11 0.473720558 5.5 0.473720558 -5.5"></polygon>
                                <polygon id="多边形" fill="#95D9FF" mask="url(#mask-13)" points="0.5 5.5 10.0262794 11 10.0262794 52 0.5 57.5 -9.02627944 52 -9.02627944 11"></polygon>
                                <polygon id="多边形" fill="#C5ECFF" mask="url(#mask-13)" points="19.5 5.5 29.0262794 11 29.0262794 52 19.5 57.5 9.97372056 52 9.97372056 11"></polygon>
                            </g>
                            <g id="编组备份-3" transform="translate(13.000000, 18.000000)">
                                <mask id="mask-15" fill="white">
                                    <use xlink:href="#path-14"></use>
                                </mask>
                                <use id="多边形" fill="#FFFFFF" xlink:href="#path-14"></use>
                                <polygon id="多边形" fill="#DBF6FF" mask="url(#mask-15)" points="10 -11 19.5262794 -5.5 19.5262794 5.5 10 11 0.473720558 5.5 0.473720558 -5.5"></polygon>
                                <polygon id="多边形" fill="#95D9FF" mask="url(#mask-15)" points="0.5 5.5 10.0262794 11 10.0262794 42 0.5 37.5 -9.02627944 32 -9.02627944 11"></polygon>
                                <polygon id="多边形" fill="#C5ECFF" mask="url(#mask-15)" points="19.5 5.5 29.0262794 11 29.0262794 32 19.5 37.5 9.97372056 42 9.97372056 11"></polygon>
                            </g>
                            <g id="编组" transform="translate(0.000000, 42.000000)">
                                <mask id="mask-17" fill="white">
                                    <use xlink:href="#path-16"></use>
                                </mask>
                                <use id="多边形" fill="#FFFFFF" xlink:href="#path-16"></use>
                                <polygon id="多边形" fill="#DBF6FF" mask="url(#mask-17)" points="10 -11 19.5262794 -5.5 19.5262794 5.5 10 11 0.473720558 5.5 0.473720558 -5.5"></polygon>
                                <polygon id="多边形" fill="#95D9FF" mask="url(#mask-17)" points="0.5 5.5 10.0262794 11 10.0262794 27 0.5 32.5 -9.02627944 27 -9.02627944 11"></polygon>
                                <polygon id="多边形" fill="#C5ECFF" mask="url(#mask-17)" points="19.5 5.5 29.0262794 11 29.0262794 26 19.5 31.5 9.97372056 26 9.97372056 11"></polygon>
                            </g>
                        </g>
                    </g>
                </g>
            </g>
        </g>
    </g>
</svg>