<?xml version="1.0" encoding="UTF-8"?>
<svg width="802px" height="651px" viewBox="0 0 802 651" version="1.1" xmlns="http://www.w3.org/2000/svg" xmlns:xlink="http://www.w3.org/1999/xlink">
    <!-- Generator: Sketch 64 (93537) - https://sketch.com -->
    <title>编组 18</title>
    <desc>Created with Sketch.</desc>
    <g id="产品" stroke="none" stroke-width="1" fill="none" fill-rule="evenodd">
        <g id="基础服务-CDN✅" transform="translate(-559.000000, -1025.000000)" fill="#A1DCFF" stroke="#CDF2FF" stroke-width="0.933724156">
            <g id="产品介绍-2" transform="translate(372.000000, 738.000000)">
                <g id="编组-18" transform="translate(188.000000, 288.000000)">
                    <path d="M687.9959,511.913768 L681.937561,513.066273 L681.937561,516.930554 L678.670142,520.523658 L676.696076,524.116762 L674.585868,528.320015 L671.250378,533.201213 L667.574531,535.438428 L667.574531,539.641682 L667.574531,542.895813 L666.621534,548.726133 L669.208241,551.980264 L670.501594,557.471611 L677.104503,562.352809 L677.104503,569.877988 L681.597204,569.877988 L681.937561,563.030753 L683.57127,556.997051 C683.57127,556.997051 689.765752,554.014096 692.012102,540.251831 L694.939165,528.997959 L696.572875,525.743828 L697.593943,521.811752 L697.593943,518.218648 L700.18065,513.676423 L699.363795,512.591712 L699.363795,510.829057 L696.572875,510.829057 L695.075308,509.473169 L690.650678,509.473169 L687.9959,511.913768 Z" id="Path"></path>
                    <polygon id="Path" points="482.693077 621.062768 485.143641 617.944225 489.023701 617.944225 492.631476 616.588337 498.825958 616.588337 506.586078 615.232449 510.534209 615.232449 513.257058 617.40187 514.414269 620.588207 514.414269 623.842339 511.69142 625.808377 509.308927 630.01163 507.471004 634.553855 506.858363 638.418137 502.365661 642.079035 499.234385 645.739933 494.265185 645.739933 493.244117 649.129654 488.41106 649.129654 485.143641 646.689055 478.540732 645.468755 474.252244 642.960362 474.252244 637.469015 472.414321 632.92679 474.524529 627.977798"></polygon>
                    <path d="M799.700785,64.5384573 L795.820725,64.6740461 L795.820725,65.9621399 L792.076807,66.640084 L784.588972,71.9958424 L782.614907,74.4364411 L777.849921,76.0635069 L773.153006,80.9447045 L773.153006,84.1988361 L763.146535,87.1139958 L757.83698,87.9275287 L755.590629,88.8766504 C755.318344,89.0122392 754.909917,88.8766504 754.773774,88.6054728 C752.86778,85.2835467 750.417216,84.2666305 750.417216,84.2666305 L751.097928,81.690443 L751.097928,79.1142554 L749.872646,75.7245349 L747.217868,73.9618802 L747.217868,69.2162715 C747.217868,68.8772995 746.945583,68.6061219 746.673298,68.6061219 L744.086592,68.2671498 C743.678164,68.1993554 743.337808,68.5383275 743.337808,68.8772995 L743.337808,69.7586268 L739.934247,69.0128883 L735.373474,64.335074 L732.786768,64.0638964 L731.969913,62.5724194 L730.200061,62.5724194 L728.702494,64.5384573 L726.932642,64.5384573 L719.308665,61.35212 L713.931038,63.996102 L712.433471,63.3181579 L710.119049,62.9791858 L708.893767,61.2165312 L706.30706,58.9793157 L706.30706,52.74223 C706.30706,52.4032579 706.034775,52.1320803 705.694419,52.0642859 L703.039641,51.7931082 L703.039641,46.9119107 L701.746288,45.149256 L695.892162,39.4545256 L695.892162,34.7767113 L694.598809,33.6242064 L693.645812,30.7090467 L691.263319,26.9803542 L688.676612,24.5397554 L688.676612,19.6585579 L686.498333,18.0314921 L685.273051,14.7773604 L682.686344,12.3367617 L680.23578,8.47248031 L674.245512,4.60819895 L666.145036,4.2692269 L662.401118,3.93025485 L660.29091,1.82862814 L656.070494,0.404945535 C649.73987,-0.544176203 646.812807,0.472739945 646.812807,0.472739945 L642.252035,2.70995547 L637.55512,2.70995547 L630.543784,5.96408714 L628.70586,5.96408714 L630.679926,8.74365795 L632.722063,11.726612 L630.816068,15.9976598 L627.889006,19.9297356 L631.156425,22.8448952 L636.057553,25.4210828 L638.984616,21.5568014 L642.047821,23.1838672 L645.111026,25.4210828 L645.111026,30.3022803 L646.608593,33.2174399 L648.582659,38.2342262 L650.829009,41.1493859 L655.525924,41.9629188 L657.295776,45.3526393 L661.039694,49.4203039 L663.286044,52.4710523 L664.783611,54.9116511 L663.013759,58.3013716 L662.877617,61.2165312 L666.621534,62.3690362 L669.208241,60.8775591 L670.365452,57.4878386 L675.743079,58.3013716 L680.167709,60.4029983 L680.984563,66.0977287 L681.801418,75.1143852 L680.167709,77.2838063 L678.670142,77.2838063 C678.329785,77.2838063 678.057501,77.554984 677.989429,77.893956 L677.853287,80.0633771 L676.559934,83.9276585 L676.423791,88.469884 L677.240646,92.5375485 L677.376788,95.927269 L675.879221,96.740802 L673.292515,92.0629877 L672.47566,89.6223889 L668.731742,95.927269 L664.647469,100.808467 L659.950554,105.960842 L656.206636,108.198057 L654.709069,110.435273 L653.756072,114.163965 L655.525924,116.604564 L658.316844,117.960452 L660.903551,122.570472 L663.013759,122.570472 L665.123967,118.977368 L667.370318,118.84178 L668.663671,120.333257 L670.433523,121.011201 L670.433523,123.587388 L667.370318,125.078865 L664.783611,126.570342 L663.286044,128.061819 L663.6264,129.75668 L665.123967,131.112568 L669.548597,131.112568 L672.816016,131.112568 L675.402723,131.112568 L676.083435,136.197148 L678.874355,141.824085 L680.712278,143.993506 L686.430262,144.67145 L688.812755,143.247767 L690.991034,143.45115 L693.57774,143.45115 L697.798157,141.485112 L699.772222,141.688496 L699.772222,143.722328 L704.741422,146.637488 L708.417268,145.213805 L712.433471,144.332478 L715.564747,145.213805 L716.517744,146.637488 L717.062314,152.332218 L717.94724,153.823695 L721.555015,153.823695 L723.801366,152.942368 L723.801366,155.450761 L725.298933,157.145621 L727.545283,161.009903 L731.221129,161.009903 L732.854839,160.060781 L732.854839,154.908406 L734.488548,152.535601 L736.122258,155.247378 L737.551754,159.992986 L742.861309,166.297866 C742.861309,166.297866 744.290805,168.19611 744.56309,168.19611 C744.835375,168.19611 747.490153,168.19611 747.490153,168.19611 L749.123862,166.230072 L749.123862,164.603006 L748.375079,162.636968 L751.438284,161.755641 L755.318344,158.704893 L756.611697,157.959154 L757.700837,159.789603 L759.198404,160.19637 L760.423686,157.687976 L761.648968,157.552388 L762.87425,160.264164 L766.890453,163.382707 L769.613302,163.721679 L772.131937,162.97594 L775.059,163.382707 L775.127071,156.060911 L774.786715,152.67119 L769.885587,142.637617 L767.911521,140.535991 L767.707308,139.383486 C767.639236,139.044514 767.84345,138.705542 768.183806,138.637747 L769.068732,138.434364 L773.629504,135.519204 L774.446359,132.739634 L774.922858,131.383745 C774.990929,131.112568 775.263214,130.976979 775.535499,130.976979 L790.919596,131.112568 C791.191881,131.112568 791.464166,130.976979 791.532237,130.705801 L792.008736,129.485502 L791.66838,122.706061 L793.91473,118.84178 L794.255086,114.977498 L795.684582,111.791161 L796.637579,107.859085 L796.161081,101.215233 L795.820725,96.6730075 L796.297223,92.2663709 L795.956867,89.0122392 L796.024938,85.9614908 L799.904998,83.520892 L799.904998,76.8770399 L797.522505,73.8262914 L797.454434,69.1484771 L799.904998,67.9959722 L799.904998,64.5384573 L799.700785,64.5384573 Z" id="Path"></path>
                    <path d="M771.791581,162.97594 L769.272946,163.721679 L766.550097,163.382707 L762.533894,160.264164 L761.308612,157.552388 L760.08333,157.687976 L758.858048,160.19637 L757.360481,159.789603 L756.271341,157.959154 L754.977988,158.704893 L751.097928,161.755641 L748.034723,162.636968 L748.783506,164.603006 L748.783506,166.230072 L747.149797,168.19611 C747.149797,168.19611 744.56309,168.19611 744.222734,168.19611 C743.882378,168.19611 742.520953,166.297866 742.520953,166.297866 L737.211398,159.992986 L735.781902,155.247378 L734.148192,152.535601 L732.514483,154.908406 L732.514483,160.060781 L730.880773,161.009903 L727.204927,161.009903 L724.958577,157.145621 L723.46101,155.450761 L723.46101,152.942368 L721.214659,153.823695 L717.606884,153.823695 L716.721958,152.332218 L716.177388,146.637488 L715.224391,145.213805 L712.093114,144.332478 L708.076912,145.213805 L704.401066,146.637488 L699.431866,143.722328 L699.431866,141.688496 L697.4578,141.485112 L693.237384,143.45115 L690.650678,143.45115 L688.472398,143.247767 L686.089905,144.67145 L680.371922,143.993506 L678.533999,141.824085 L675.743079,136.197148 L675.062367,131.112568 L672.47566,131.112568 L669.208241,131.112568 L664.987825,131.112568 L664.17097,134.434494 L662.605332,135.722588 L661.039694,136.400532 L661.039694,139.180103 L661.92462,140.400402 L660.495124,142.095262 L658.112631,141.14614 L656.274708,139.654663 L654.096428,140.332607 L650.965152,138.84113 L648.378445,138.84113 L647.629662,140.67158 L648.174232,142.095262 L647.629662,143.790122 L648.038089,145.078216 L650.080226,145.959544 L654.1645,150.298386 L654.572927,152.332218 L654.572927,161.213286 L656.206636,163.382707 L658.04456,165.416539 L658.589129,168.738465 L659.882483,169.484204 L663.354115,167.314783 L665.872751,165.619922 L667.029962,163.58609 L668.255244,163.721679 L668.255244,165.755511 L670.433523,167.450371 L671.658805,167.992727 L672.203375,171.043475 L673.428657,172.670541 L674.109369,174.907757 L674.109369,177.41615 L673.360586,179.246599 L674.109369,181.483814 L676.35572,182.229553 L678.942427,182.229553 L679.69121,180.80587 L680.78035,180.941459 L682.277917,182.432936 L683.775484,183.585441 L686.021834,183.585441 L688.268185,185.280301 L688.268185,187.11075 L688.268185,188.737816 C688.268185,189.076788 688.54047,189.41576 688.948897,189.41576 L690.922963,189.41576 C691.263319,189.41576 691.603675,189.144583 691.603675,188.737816 L691.603675,185.619273 C691.603675,185.348096 691.739817,185.144712 692.012102,185.009124 L693.986168,184.195591 C694.394595,183.992207 694.871094,184.33118 694.871094,184.80574 L694.871094,189.076788 L696.913231,190.703854 L699.704151,194.907107 L701.133647,197.279912 L702.767356,199.110361 L703.992638,199.110361 C704.332994,199.110361 704.673351,199.381538 704.673351,199.788305 L704.673351,201.415371 L703.924567,206.025391 L704.673351,208.194812 L706.511274,210.16085 L708.144983,211.787915 L710.663619,214.567486 L711.888901,216.736907 L711.888901,218.906329 L710.391334,220.330011 L711.752758,221.889283 L715.973174,220.940161 L720.397804,211.923504 L721.691158,207.788045 L723.324867,205.008475 L725.911574,205.008475 L729.655491,208.059223 L737.960181,207.24569 L741.567956,208.194812 L743.201666,206.432157 L743.337808,202.02552 L741.023386,199.449333 L740.546888,196.398584 L746.1968,195.110491 C751.370213,194.296958 753.003922,190.229293 753.003922,190.229293 L753.208136,187.314134 C753.208136,186.771778 753.752706,186.500601 754.229205,186.703984 C757.700837,188.33105 758.789977,185.822657 758.789977,185.822657 L758.789977,178.229683 L758.99419,176.602617 C759.062262,175.992467 759.606832,175.585701 760.219473,175.721289 L762.87425,176.263645 L764.167604,178.839832 L765.937456,180.941459 L767.911521,181.280431 L768.251877,182.704114 C768.319949,182.975291 768.592234,183.246469 768.93259,183.178675 L770.021729,183.11088 C770.430157,183.11088 770.702442,182.704114 770.63437,182.297347 L769.545231,178.026299 L768.93259,177.755122 C768.456091,177.551739 768.456091,176.873794 768.864518,176.602617 L769.681373,176.060261 L771.17894,174.907757 L773.765647,174.229812 L774.718644,172.738335 L774.786715,163.247118 L771.791581,162.97594 Z" id="Path"></path>
                    <path d="M61.6725324,278.42982 L64.2592391,275.921427 L68.1392991,275.921427 L70.521792,271.853763 L73.3127124,271.853763 L75.4909917,274.023184 L80.0517639,274.836717 L84.8167499,277.548493 L88.6968099,279.378942 L92.5768699,278.972176 L97.5460695,277.548493 L102.311055,276.328194 L105.782688,277.548493 L108.573608,281.141597 L111.636814,284.802495 L115.993372,286.429561 L120.962572,287.446477 L127.225125,287.446477 L135.461743,285.751617 L141.315869,285.616028 L144.991715,287.514271 L149.960915,287.514271 L154.11326,286.022794 L157.584892,282.294102 L162.758306,282.022924 L184.404956,282.836457 L190.054868,283.921168 L192.437361,285.073673 L193.730714,287.446477 L198.291487,287.446477 L203.737185,292.937824 L206.528105,294.225918 L210.68045,294.225918 L213.062943,292.463263 L216.126148,295.514012 L220.278493,297.005489 L222.456773,298.971527 L226.268761,298.971527 L226.268761,290.836197 L223.205556,288.87016 L222.048345,285.277056 L225.996476,283.243223 L231.71446,283.03984 L231.71446,279.785709 L229.944608,277.006138 L229.53618,273.141856 L222.8652,267.311537 L222.8652,261.074451 L221.163419,255.447515 L223.273627,253.956038 L228.651254,252.667945 L236.411374,251.583234 L245.05642,251.583234 L257.445384,251.583234 L258.942951,249.142635 L262.21037,245.752915 L262.21037,237.143025 L264.933219,231.99065 L264.933219,227.245041 L270.446988,227.245041 L274.122835,228.194163 L277.390253,225.550181 L288.213579,214.16072 L295.361058,210.296438 L300.330257,210.296438 L304.89103,210.296438 L306.59281,208.262606 L312.038508,208.262606 L315.305927,205.211858 L315.305927,201.55096 L313.740289,197.212117 L316.939637,195.313874 L316.939637,189.212377 L313.059577,183.043086 L310.813226,169.755381 L308.566876,166.50125 L308.566876,163.58609 L304.482602,163.58609 L286.784083,147.789993 L279.636604,145.417188 L275.075832,145.417188 L267.928353,142.230851 L263.844079,141.14614 L262.686868,139.519075 L260.100162,139.519075 L258.602595,138.163186 C253.088825,136.400532 254.177965,132.061689 254.177965,132.061689 C254.654463,128.671969 259.827877,124.604304 259.827877,124.604304 L260.236304,118.773985 L262.346512,114.570732 L262.346512,110.164095 L261.257372,107.384524 L258.398381,104.130393 L258.398381,100.062728 L257.717669,95.1137361 L254.45025,87.7241454 L251.046688,87.656351 L248.93648,84.4022194 L243.763067,84.4022194 L238.249297,79.5210218 L238.249297,76.6058622 L235.04995,72.1992256 L233.007813,70.4365709 L233.007813,67.5214113 L231.71446,65.5553734 L233.007813,63.9283076 L233.007813,58.7759324 L226.336833,58.1657827 L222.592915,56.6065113 L219.665852,58.6403436 C218.98514,67.3858225 213.131014,68.1993554 213.131014,68.1993554 L205.643179,68.1993554 C198.836057,71.4534871 199.789054,80.537938 199.789054,80.537938 C199.789054,83.7920697 197.814988,86.7072293 197.814988,86.7072293 L195.840923,90.300333 L192.573504,89.3512113 C187.672375,88.0631175 181.545965,87.4529678 181.545965,87.4529678 C177.665905,87.7919399 173.105132,84.2666305 173.105132,84.2666305 L168.884716,80.537938 L165.617297,80.537938 L150.028986,101.283027 L149.68863,107.452319 L151.662696,109.079385 L150.028986,112.333516 L146.761567,112.333516 L142.541151,106.977758 L129.335333,106.70658 L117.627082,105.960842 L115.584945,108.265852 L119.260791,111.994544 C122.800495,113.892788 118.443936,119.112957 118.443936,119.112957 L118.443936,140.807168 L112.453668,140.807168 L112.725953,145.349394 L109.050107,145.349394 L106.803756,147.586609 L106.803756,154.705022 L104.965833,155.043994 L98.2267818,158.094743 L91.6919439,158.569304 L81.7535446,160.806519 L77.3289148,160.331958 L76.6482026,158.230332 L70.3175784,158.094743 L64.9399514,160.331958 L61.6725324,162.433585 L59.0858258,160.467547 L55.8184068,160.331958 L47.513717,168.738465 L45.1992953,168.602876 L42.6806599,166.840222 L38.4602437,166.975811 L38.4602437,161.484463 L36.9626767,161.484463 L32.0615483,162.162407 L30.2916964,161.484463 L28.9983431,159.518425 L26.5477789,159.382837 L25.7309241,161.959024 L23.7568585,162.297996 L20.9659382,163.247118 L18.9918726,163.58609 L17.017807,162.908146 L12.7973908,163.043735 L11.8443936,165.009773 L8.10047611,170.026559 L5.64991191,171.653625 C-1.97406561,171.179064 2.99513403,176.060261 2.99513403,176.060261 L3.06320525,179.788954 L7.04670482e-14,181.890581 L7.04670482e-14,185.280301 L2.11020806,189.347966 L5.64991191,189.212377 C7.14747892,187.585311 10.0064705,189.686938 10.0064705,189.686938 C14.4311003,192.602098 11.5721087,196.33079 11.5721087,196.33079 L10.6871828,205.754213 L8.44083225,206.567746 L8.44083225,209.957466 L10.4148979,212.398065 L10.0745417,214.635281 L7.14747892,214.635281 L5.51376946,213.347187 L7.04670482e-14,213.347187 L7.04670482e-14,217.075879 L3.6758463,217.55044 L5.377627,219.652067 L10.4148979,222.702815 L10.4148979,224.668853 L12.8654621,226.906069 L16.2690235,229.821229 L16.2690235,233.07536 L13.0016045,238.227735 L13.0016045,240.668334 L14.9756701,242.769961 L14.9756701,245.21056 L20.1490834,245.346148 L20.1490834,248.60028 C28.5899157,258.498264 38.9367423,259.921947 38.9367423,259.921947 L36.758463,261.549012 L36.6223206,264.599761 C38.8686711,267.989481 36.6223206,270.904641 36.6223206,270.904641 L36.9626767,275.785838 L40.5704518,276.12481 L40.7065943,278.565409 L43.9740132,279.378942 L44.3143693,283.243223 L59.6303956,283.243223 L61.6725324,278.42982 Z" id="Path"></path>
                    <path d="M312.242722,452.458071 L314.35293,452.932631 L314.693286,456.254557 L318.77756,456.254557 L320.138985,454.76308 L320.138985,443.780386 L321.56848,441.678759 L321.908836,444.932891 L323.882902,447.034518 L325.176255,444.932891 L325.99311,440.729638 L327.831033,438.7636 L328.035247,434.899318 L327.967176,428.594438 L329.056315,426.357223 L329.056315,422.153969 L328.375603,417.950716 L328.375603,409.883181 L327.150321,406.493461 L324.291329,403.10374 L324.972042,400.324169 L328.239461,401.273291 L327.422606,397.544599 L323.678688,391.036335 L321.704623,384.867044 L318.641418,379.714669 L314.080645,376.935098 L308.703018,377.070687 L308.703018,379.511286 L306.728953,379.985846 L303.938032,384.528072 L297.879693,384.867044 L297.879693,389.748241 L295.292986,390.087213 L293.182778,387.849998 L291.208713,384.256894 L289.234647,383.917922 L287.532866,386.155138 L289.030433,387.443231 L289.030433,391.239718 L287.941294,391.239718 L286.988297,388.527942 L284.40159,388.527942 L281.134171,386.49411 L278.207108,386.49411 L277.254111,381.748501 L278.207108,379.104519 L276.233043,376.867304 L272.012626,375.104649 L271.059629,372.528461 L269.085564,369.613302 L266.158501,368.325208 L262.891082,369.613302 L255.743603,369.613302 L253.293039,367.579469 L251.182831,368.460797 L248.93648,367.104908 L246.69013,364.189749 L243.763067,364.189749 L242.129357,362.833861 L239.066152,362.833861 C226.541046,359.44414 222.933271,351.851166 222.933271,351.851166 L220.686921,348.461446 L217.896,348.325857 L214.288225,349.613951 L210.203952,348.664829 L206.80039,346.698791 L205.302823,344.258192 L203.805256,340.665089 L199.720982,334.021236 L198.427629,331.580638 L199.244484,328.801067 L201.014336,327.30959 L201.831191,325.072374 L201.626977,321.682654 L201.082407,319.242055 L202.443832,317.4794 L202.443832,315.716746 L199.720982,314.903213 L199.720982,308.937305 L201.014336,306.700089 L204.55404,306.157734 L205.166681,302.022275 L205.166681,299.107115 L203.532971,297.819022 L201.082407,297.819022 L201.082407,295.107245 L203.805256,295.107245 L203.805256,293.141207 L203.805256,293.141207 L198.359558,287.64986 L193.798786,287.64986 L192.505432,285.277056 L190.122939,284.124551 L184.404956,282.836457 L162.962519,281.95513 L157.789106,282.226307 L154.317474,285.955 L150.165129,287.446477 L145.195929,287.446477 L141.520083,285.548233 L135.665957,285.683822 L127.429339,287.378682 L121.166786,287.378682 L116.197586,286.361766 L111.841027,284.734701 L108.777822,281.073802 L105.986902,277.480699 L102.515269,276.260399 L97.7502832,277.480699 L92.7810836,278.904381 L88.9010236,279.311148 L85.0209636,277.480699 L80.2559776,274.768922 L75.4909917,274.023184 L73.3127124,271.853763 L70.521792,271.853763 L68.1392991,275.921427 L64.2592391,275.921427 L61.6725324,278.42982 L59.6984668,283.378812 L44.3824406,283.378812 L44.3824406,283.514401 C42.6125886,285.955 38.6644574,285.751617 38.6644574,285.751617 L39.0048136,291.242964 L37.2349616,292.056497 L37.0988192,297.547844 L39.5493834,301.615509 L39.4132409,313.140558 C37.1668904,315.920129 33.8994715,316.39469 33.8994715,316.39469 L32.6061181,314.157474 L32.7422606,310.767754 C27.3646336,307.513622 25.9351378,315.309979 25.9351378,315.309979 C23.4845736,316.598073 24.6417845,318.6997 24.6417845,318.6997 L26.888135,322.08942 C24.0972147,323.377514 26.3435652,325.818113 26.3435652,325.818113 L26.6158501,328.868861 L24.3687772,329.00445 L24.3687772,333.546676 L25.6628529,336.122863 L25.6628529,339.038023 L27.6369185,342.902304 L30.2236252,342.563332 L30.2236252,341.071855 L32.1976908,340.597294 L32.1976908,342.563332 L35.4651097,344.52937 L38.7325286,347.783502 L38.7325286,351.512194 L43.2252297,355.105298 L47.3775746,357.342513 L51.8022044,364.66431 L51.8022044,368.393002 L55.1376946,368.528591 L56.3629767,366.087992 L58.9496833,365.952404 L58.9496833,362.562683 L61.4002475,362.223711 L68.7519401,367.240497 L68.7519401,370.833601 L73.7211398,374.901266 L75.7632766,378.290986 L77.7373422,381.680707 L82.0939008,384.460277 L85.4974622,393.680317 C90.534733,391.917663 93.3937246,392.527812 93.3937246,392.527812 C95.9804313,393.680317 94.2105793,398.358131 94.2105793,398.358131 L94.2105793,401.40888 L96.5930723,401.883441 L101.562272,408.188321 L107.756754,408.32391 L107.076041,410.086564 C104.489335,411.578041 104.965833,414.01864 104.965833,414.01864 C108.573608,415.510117 114.700019,417.001594 114.700019,417.001594 L116.674085,420.459109 L115.993372,425.136923 L119.056577,425.136923 L119.19272,422.560736 L121.166786,422.560736 L121.98364,426.425017 L126.40827,426.425017 L127.088982,424.797951 L129.879903,425.611484 L136.414741,431.306215 L142.609222,432.93328 L147.306137,432.255336 L155.951183,432.390925 L158.061391,431.23842 L160.171599,431.102831 L161.464952,433.204458 L161.124596,438.085656 L158.197534,442.627881 L161.260739,447.983639 L165.004656,448.322612 L165.821511,446.356574 L165.481155,443.305825 L166.978722,441.543171 L169.565429,438.628011 L174.126201,434.899318 L176.576765,434.085785 L180.18454,433.950197 L183.247745,435.102702 L187.127805,436.390795 L188.761515,439.305955 L192.165076,438.966983 L193.45843,440.45846 L197.33849,442.560087 L200.605908,442.424498 L202.852259,441.610965 L204.826325,444.187153 L204.349826,451.644538 L211.497305,453.136015 L211.361162,456.525735 L209.387097,459.305306 L209.727453,463.169587 L215.10508,464.796653 L222.729058,465.610186 L228.447041,467.372841 L236.411374,467.237252 L238.861939,465.474597 L240.836004,463.576354 L243.626924,460.390016 L247.506984,458.898539 L253.224968,458.898539 L255.675532,457.407062 L258.466452,456.118969 L264.660934,453.881753 L268.404851,450.492033 L273.30598,449.6785 L276.709541,450.492033 L282.427524,452.593659 L286.511798,456.661324 L293.182778,461.813699 L295.769485,460.525605 L298.220049,459.712072 L299.036904,457.949418 L299.173046,453.881753 L301.555539,452.254687 L301.827824,448.864967 L304.618745,449.542911 L304.618745,453.136015 L307.886164,453.136015 L309.792158,456.118969 L311.970437,454.76308 L312.242722,452.458071 Z" id="Path"></path>
                    <path d="M310.336728,368.325208 L315.510141,361.816945 L311.630081,358.35943 L312.515007,353.410438 L316.939637,351.037633 L319.458272,352.52911 L324.90397,353.410438 L329.87317,359.647523 L331.847236,368.731974 L336.816435,370.698012 L337.905575,374.562294 L343.351273,376.324948 L344.84884,374.562294 L346.822906,371.375956 L349.409613,375.443621 L350.702966,378.901136 L353.493886,376.935098 L354.378812,380.595996 L355.263738,383.782333 L358.939584,381.002763 L362.615431,381.002763 L365.678636,379.240108 L366.087063,376.392743 L365.88285,372.189489 L369.150269,370.833601 L371.941189,372.257284 L374.527896,372.257284 L374.732109,366.35917 L373.847183,362.766066 L367.993058,362.766066 L367.312345,359.308551 L363.432285,356.05442 L362.343146,351.512194 L363.840713,349.342773 L367.312345,350.427484 L375.753178,354.630737 L379.22481,354.630737 L381.40309,352.461316 L384.19401,350.902045 L381.811517,348.122474 L378.339884,344.664959 L380.926591,341.207444 L386.576503,337.749929 L386.98493,333.207704 L393.04327,330.631516 L393.247483,326.157085 L396.514902,326.157085 L397.808256,318.6997 L396.514902,315.716746 L394.20048,312.259231 L394.20048,308.801716 L391.817987,306.022145 L392.907127,303.378163 L391.477631,298.971527 L386.712645,296.056367 L386.712645,291.514141 L384.466295,291.310758 L380.926591,292.802235 L377.659172,290.429431 L372.213474,285.887205 L367.244274,283.311018 L366.155135,280.531447 L363.296143,278.294232 L361.730505,275.582455 L359.484154,275.379072 L359.484154,278.090848 L357.510089,278.090848 L355.331809,275.582455 L349.477684,269.209781 L343.827772,262.498134 L342.125991,262.498134 L339.743498,264.73535 L336.271866,263.854022 L333.004447,266.498004 L320.819697,257.413553 L316.667352,257.82032 L316.667352,267.108154 L314.284859,269.480958 L313.536075,274.023184 L309.179517,275.785838 L306.116312,274.565539 L304.822958,272.599501 L297.675479,272.599501 L291.821354,269.887725 L287.941294,269.887725 L283.788949,269.887725 L281.202242,268.870809 L281.202242,266.091238 L279.228177,262.837106 L272.352983,261.752396 L272.352983,259.040619 L264.729005,259.040619 L263.299509,255.447515 L259.419449,254.227216 L257.24117,251.651028 L244.988349,251.651028 L236.343303,251.651028 L228.583183,252.735739 L223.205556,254.023833 L221.095348,255.51531 L222.797129,261.142246 L222.797129,267.379332 L229.468109,273.209651 L229.876536,277.073932 L231.646388,279.853503 L231.646388,283.107635 L225.928405,283.311018 L221.980274,285.34485 L223.137485,288.937954 L226.20069,290.903992 L226.20069,299.039321 L222.388701,299.039321 L220.210422,297.073283 L216.058077,295.581806 L212.994872,292.531058 L210.612379,294.293712 L206.460034,294.293712 L203.669114,293.005619 L203.669114,294.971656 L200.946265,294.971656 L200.946265,297.683433 L203.396829,297.683433 L205.030538,298.971527 L205.030538,301.886686 L204.417897,306.022145 L200.878193,306.5645 L199.58484,308.801716 L199.58484,314.767624 L202.307689,315.581157 L202.307689,317.343812 L200.946265,319.106466 L201.490834,321.547065 L201.695048,324.936786 L200.878193,327.174001 L199.108341,328.665478 L198.291487,331.445049 L199.58484,333.885648 L203.669114,340.5295 L205.166681,344.122604 L206.664248,346.563202 L210.067809,348.52924 L214.152083,349.478362 L217.759858,348.190268 L220.550778,348.325857 L222.797129,351.715577 C222.797129,351.715577 226.404904,359.308551 238.93001,362.698272 L241.993215,362.698272 L243.626924,364.05416 L246.553987,364.05416 L248.800338,366.96932 L251.046688,368.325208 L253.156896,367.443881 L255.607461,369.477713 L262.686868,369.477713 L265.954287,368.189619 L268.88135,369.477713 L270.855416,372.392872 L271.808413,374.96906 L276.028829,376.731715 L278.002895,378.96893 L277.049897,381.612912 L278.002895,386.358521 L280.929957,386.358521 L284.197376,388.392353 L286.784083,388.392353 L287.73708,391.10413 L288.82622,391.10413 L288.82622,387.307643 L287.328653,386.019549 L289.030433,383.782333 L291.004499,384.121305 L292.978565,387.714409 L295.088773,389.951625 L297.675479,389.612653 L297.675479,384.731455 L303.733819,384.392483 L306.524739,379.850258 L308.498805,379.375697 L308.498805,376.935098 L312.923434,376.799509 L309.656015,373.2742 L310.336728,368.325208 Z" id="Path"></path>
                    <path d="M711.82083,216.736907 L710.595547,214.567486 L708.076912,211.787915 L706.443203,210.16085 L704.605279,208.194812 L703.856496,206.025391 L704.605279,201.415371 L704.605279,199.788305 C704.605279,199.449333 704.332994,199.110361 703.924567,199.110361 L702.699285,199.110361 L701.065576,197.279912 L699.63608,194.907107 L696.845159,190.703854 L694.803023,189.076788 L694.803023,184.80574 C694.803023,184.33118 694.326524,183.992207 693.918097,184.195591 L691.944031,185.009124 C691.739817,185.144712 691.535604,185.348096 691.535604,185.619273 L691.535604,188.737816 C691.535604,189.076788 691.263319,189.41576 690.854891,189.41576 L688.880826,189.41576 C688.54047,189.41576 688.200113,189.144583 688.200113,188.737816 L688.200113,187.11075 L688.200113,185.280301 L685.953763,183.585441 L683.707412,183.585441 L682.209845,182.432936 L680.712278,180.941459 L679.623139,180.80587 L678.874355,182.229553 L678.738213,182.229553 L678.738213,187.7209 L676.764147,188.398844 L673.700942,188.398844 L672.407589,192.263125 L669.14017,194.229163 L663.286044,193.076658 L662.128833,195.517257 L657.227705,196.669762 L656.070494,199.720511 L650.692867,201.347576 L646.268237,205.211858 L643.205032,206.499952 L637.214764,211.991299 L636.397909,214.228514 L634.900342,216.804702 L630.475712,208.059223 L627.548649,207.24569 L625.574584,205.144063 L623.055948,205.957596 L622.102951,207.923634 L622.102951,210.364233 L623.464376,211.516738 L623.464376,218.499562 L624.8258,220.262217 L624.8258,223.990909 L623.66859,226.77048 L620.605384,229.68564 L619.380102,233.07536 L619.380102,235.651548 L623.532447,237.414202 L625.574584,239.176857 L629.999214,239.176857 L630.952211,242.769961 L634.21963,248.871458 L634.355772,248.803663 L637.759334,245.21056 L642.456248,242.634372 L648.582659,232.939771 L648.174232,230.024612 L650.420582,229.889023 L650.420582,228.126368 L654.1645,229.007696 L657.772275,229.278873 L657.908417,227.651807 L660.154768,227.651807 L660.83548,229.821229 L664.579397,234.092276 L664.239041,238.634502 L659.337913,244.939382 L656.070494,246.702037 L656.546993,250.634112 L653.279574,251.786617 L653.143431,255.244132 L654.640998,256.735609 L659.814411,256.735609 L659.474055,260.938863 L656.206636,261.616807 L652.939217,263.447256 L653.211502,267.311537 C653.211502,267.718304 653.688001,268.057276 654.096428,267.853892 L660.222839,265.345499 L662.333047,261.955779 L664.783611,261.955779 L666.281178,260.396507 L668.255244,257.752525 L668.935956,255.51531 L670.705808,254.566188 L675.26658,250.430729 L679.350854,248.329102 L682.141774,248.329102 L683.639341,246.159681 L685.273051,244.464821 L690.174179,244.464821 L693.57774,243.312316 L701.542074,230.838145 L703.992638,230.838145 L705.490205,226.973863 L708.281126,226.973863 L711.208189,223.651937 L711.548545,221.821488 L710.18712,220.262217 L711.684687,218.838534 L711.684687,216.736907 L711.82083,216.736907 Z" id="Path"></path>
                    <path d="M333.140589,207.584662 L335.38694,213.686159 L334.161657,216.058963 L332.527948,219.516478 L335.455011,223.38076 L338.586287,228.533135 L339.811569,231.99065 L339.811569,237.210819 L343.895843,237.210819 L343.895843,233.753304 L341.921777,232.261827 L343.691629,230.973733 L356.352878,232.058444 L362.00279,231.855061 L364.181069,233.549921 L366.359348,236.329492 L366.359348,239.583624 L362.138932,242.634372 L358.258872,247.041009 L356.284807,249.074841 L359.960653,252.125589 L366.359348,256.871198 L368.197271,259.650769 L371.805046,259.650769 L371.805046,266.226827 L375.685106,268.803014 L378.476027,272.667296 L381.879588,273.887595 L385.555435,273.887595 L388.61864,270.023314 L385.827719,266.972565 L388.61864,264.803144 L393.179412,265.413294 L401.143746,267.989481 L411.626715,263.040489 L416.527843,263.243873 L418.161553,266.904771 L418.161553,271.446996 L415.302561,276.057016 L411.014074,278.700998 L406.453301,278.700998 L407.542441,282.361896 L405.364162,286.971916 L405.568375,290.700609 L413.124282,297.073283 L420.475974,298.903732 L428.916807,297.073283 L438.650992,292.327674 L440.148559,283.446607 L442.122625,275.243483 L447.296038,268.328453 L451.176098,266.633593 L454.239303,267.718304 L456.417583,272.463912 L454.920016,276.12481 L451.448383,280.667036 L450.767671,284.802495 L453.150164,288.056627 L458.323577,287.853243 L461.590996,290.429431 L463.973489,292.124291 L467.445122,293.615768 L472.005894,297.073283 L481.331652,297.276666 L481.331652,290.768403 L484.054501,290.090459 L484.054501,285.548233 L488.274917,279.03997 L492.631476,274.497745 L497.056106,268.260659 L500.391596,267.853892 L500.391596,264.803144 L504.135513,265.887855 L507.607146,267.582715 L511.555277,263.040489 L514.005841,262.633723 L514.005841,264.803144 L517.137118,264.599761 L519.111184,261.142246 L524.965309,261.345629 L527.143588,256.193254 L528.845369,251.651028 L532.112788,248.871458 L535.380207,250.566318 L538.647626,248.803663 L540.349407,246.702037 L546.884244,246.702037 L549.266737,244.60041 L552.534156,244.261438 L554.712436,239.787007 L552.125729,234.160071 L551.717302,226.838274 L554.780507,224.872237 L556.278074,220.533394 L560.430419,214.703075 L563.561695,214.296309 L565.195405,217.753824 L565.195405,224.668853 L569.007394,225.07562 L570.436889,221.753694 L576.903656,217.075879 L580.103004,219.719861 L583.574636,216.194552 L589.837189,216.194552 L591.811255,208.194812 L595.282887,206.160979 L600.252087,203.110231 L604.812859,205.483035 L607.60378,211.313355 L611.960338,214.77087 L610.871199,217.821618 L610.666985,221.821488 L611.960338,225.550181 L623.872803,226.77048 L625.030014,224.058704 L625.030014,220.330011 L623.66859,218.567356 L623.66859,211.652327 L622.307165,210.499822 L622.307165,208.059223 L623.260162,206.093185 L625.778798,205.279652 L627.752863,207.381279 L630.679926,208.194812 L635.104556,216.940291 L636.602123,214.364103 L637.418978,212.126888 L643.409246,206.63554 L646.472451,205.347447 L650.897081,201.483165 L656.274708,199.856099 L657.431919,196.805351 L662.333047,195.652846 L663.490258,193.212247 L669.344383,194.364752 L672.611802,192.398714 L673.905156,188.534433 L676.968361,188.534433 L678.942427,187.856489 L678.942427,182.365142 L676.491862,182.365142 L674.245512,181.619403 L673.496728,179.382188 L674.245512,177.551739 L674.245512,175.043345 L673.5648,172.80613 L672.339517,171.179064 L671.794948,168.128316 L670.569665,167.58596 L668.391386,165.8911 L668.391386,163.857268 L667.166104,163.721679 L666.008893,165.755511 L663.490258,167.450371 L660.018625,169.619793 L658.725272,168.874054 L658.180702,165.552128 L656.342779,163.518296 L654.709069,161.348875 L654.709069,152.467807 L654.300642,150.433975 L650.216368,146.095132 L648.174232,145.213805 L647.765804,143.925711 L648.310374,142.230851 L647.765804,140.807168 L648.514588,138.976719 L651.101294,138.976719 L654.232571,140.468196 L656.41085,139.790252 L658.248773,141.281729 L660.631266,142.230851 L662.060762,140.535991 L661.175836,139.315691 L661.175836,136.536121 L662.741474,135.858176 L664.307113,134.570083 L665.123967,131.248157 L664.987825,131.248157 L663.490258,129.892268 L663.149902,128.197408 L664.647469,126.705931 L667.234175,125.214454 L670.297381,123.722977 L670.297381,121.14679 L668.527529,120.468845 L667.234175,118.977368 L664.987825,119.112957 L662.877617,122.706061 L660.767409,122.706061 L658.180702,118.096041 L655.389782,116.740153 L653.61993,114.299554 L654.572927,110.570862 L656.070494,108.333646 L659.814411,106.096431 L664.511326,100.944055 L668.5956,96.0628579 L672.339517,89.7579777 L673.156372,92.1985765 L675.743079,96.8763908 L677.240646,96.0628579 L677.104503,92.6731374 L676.287649,88.6054728 L676.423791,84.0632473 L677.717144,80.1989659 L677.853287,78.0295448 C677.853287,77.6905728 678.125572,77.4193951 678.533999,77.4193951 L680.031566,77.4193951 L681.665276,75.249974 L680.848421,66.2333175 L680.031566,60.5385871 L675.606936,58.4369604 L670.229309,57.6234275 L669.072098,61.013148 L666.485392,62.504625 L662.741474,61.35212 L662.877617,58.4369604 L664.647469,55.0472399 L663.149902,52.6066411 L660.903551,49.5558927 L657.159634,45.4882281 L655.389782,42.0985076 L650.692867,41.2849747 L648.446516,38.3698151 L646.472451,33.3530287 L644.974884,30.4378691 L644.974884,25.5566716 L641.911679,23.3194561 L638.848473,21.6923902 L635.921411,25.5566716 L631.020282,22.980484 L627.752863,20.0653244 L630.679926,16.1332486 L632.58592,11.8622008 L630.543784,8.87924677 L628.569718,6.09967596 L625.983011,6.09967596 C617.201823,8.06571385 614.138618,15.5908933 614.138618,15.5908933 L612.02841,17.014576 L612.368766,22.2347455 L615.636185,22.641512 L617.406037,21.6923902 L619.516245,21.6923902 L619.856601,25.9634381 L621.286097,27.9972704 L620.94574,31.251402 L614.138618,39.0477592 L612.981407,45.0136672 L609.237489,52.9456132 L607.944136,58.9115212 L606.446569,61.4877088 L606.038141,63.9283076 L608.624848,64.0638964 L608.624848,66.8434672 C604.744788,71.3856927 601.477369,71.0467206 601.477369,71.0467206 L592.696181,78.6396945 L587.65891,77.8261616 L582.417425,76.0635069 L580.44336,74.7754132 L577.788582,75.5889461 L569.007394,97.1475684 L569.007394,102.842299 L565.535761,105.893047 L565.944188,108.808207 L567.918254,112.062339 L569.89232,115.113087 L572.955525,115.452059 L575.201875,112.536899 L579.626505,112.197927 L581.056001,110.909834 L583.166209,110.774245 L585.140275,111.92675 L589.701047,115.180881 C592.491967,113.689404 594.397962,108.537029 594.397962,108.537029 L604.472503,108.672618 L607.876065,112.062339 L610.803127,112.875872 L611.892267,116.130003 L616.180754,119.723107 C622.171022,123.587388 621.694524,126.366959 621.694524,126.366959 L621.694524,128.468586 L620.401171,129.621091 L612.913336,129.485502 C609.509774,126.434753 608.012207,128.332997 608.012207,128.332997 L608.012207,129.960063 L606.174284,129.824474 C602.770723,128.332997 601.273156,129.349913 601.273156,129.349913 L596.167813,133.553167 L594.125677,132.604045 L590.381759,132.943017 L590.381759,137.824214 L582.485497,138.298775 C578.265081,138.637747 576.699442,143.993506 576.699442,143.993506 L576.699442,150.637358 L567.237542,156.603266 L557.163,156.603266 L557.163,158.704893 L545.182464,168.602876 L536.333204,168.467288 L531.432076,164.264034 L526.871304,163.111529 L521.970175,164.060651 L517.205189,173.484074 L517.749759,179.653365 L522.650887,187.449722 L522.650887,188.941199 L514.958839,194.432547 L511.963705,194.771519 L503.522872,206.771129 L500.255453,206.906718 L496.511536,207.720251 L489.159843,211.313355 L466.560196,210.703205 L453.694734,213.347187 L433.069152,223.719732 L426.262029,223.719732 L426.262029,220.4656 L416.800128,220.4656 L414.009208,219.584273 L401.824458,212.669243 L394.813121,212.669243 C392.022201,204.872886 387.461429,203.991558 387.461429,203.991558 L379.020597,201.618754 L360.777508,201.618754 L329.532814,195.110491 L328.852102,195.110491 L331.302666,202.432287 L333.140589,207.584662 Z" id="Path"></path>
                    <polygon id="Path" points="427.215026 550.488787 431.571585 550.488787 433.749864 546.760095 433.749864 542.624636 432.592653 539.234915 430.482445 537.946821 425.921673 538.963738 421.3609 538.963738 418.093481 536.794316 416.187487 532.455474 411.35443 532.048708 408.903866 533.540185 406.521373 531.16738 406.521373 526.896333 409.72072 521.676163 412.035142 519.506742 411.830928 517.133938 408.835794 514.964516 404.887663 509.812141 406.861729 504.863149 408.359296 499.846363 411.218287 497.744736 411.422501 494.693988 409.244222 491.439856 406.657515 492.321184 403.185883 492.524567 399.918464 494.287221 397.331757 490.558529 396.651045 485.406154 395.357691 483.236733 399.918464 480.253779 401.143746 478.084357 405.568375 480.863928 407.065943 477.880974 411.422501 481.067311 416.595914 480.457162 421.292829 477.406413 422.858467 473.542132 422.858467 467.50843 419.65912 465.745775 416.391701 468.796523 412.239356 470.694767 409.244222 468.999907 409.244222 464.050915 407.882797 461.203549 407.882797 458.220595 409.244222 456.390146 406.861729 454.966464 402.096743 455.169847 399.918464 456.390146 401.143746 459.508689 399.918464 462.762821 396.242617 461.67811 394.064338 465.542392 395.153478 470.694767 391.273418 472.864188 387.325286 476.321703 384.330152 476.796264 383.241013 482.152022 385.147007 491.03309 383.445226 495.100754 378.884454 499.03283 377.999528 495.778698 374.732109 495.982082 371.056263 499.03283 364.521425 497.473559 362.683502 493.812661 360.232938 491.643239 360.232938 487.575575 358.599228 483.643499 355.876379 481.270695 355.059524 476.931852 352.200533 470.355795 348.524687 465.745775 343.759701 465.745775 340.832638 461.67811 341.853706 458.627362 341.853706 455.169847 338.382074 450.424238 335.727296 447.441284 331.438808 452.119098 330.145455 456.390146 327.762962 454.085136 327.558748 445.000685 326.741894 439.780516 325.925039 440.661843 325.108184 444.865097 323.814831 446.966723 321.840765 444.865097 321.56848 441.610965 320.070913 443.712592 320.070913 454.76308 318.77756 456.254557 314.693286 456.254557 314.35293 452.932631 312.242722 452.458071 311.289725 454.695286 309.111446 456.118969 309.179517 456.186763 308.703018 463.508559 310.813226 464.525475 310.47287 468.59314 312.10658 468.864318 313.399933 467.372841 315.510141 467.372841 316.803494 468.999907 316.326996 486.626453 314.35293 492.185595 311.902366 493.270305 313.263791 495.575315 313.059577 498.015914 310.132514 498.626064 308.839161 501.744606 307.409665 501.405634 305.095243 501.066662 302.644679 506.422421 298.424263 506.896982 296.314055 508.998608 296.450197 513.879806 293.386992 514.693339 292.433995 518.55762 291.61714 521.337191 293.727348 524.048967 294.067704 526.353977 290.459929 528.658987 290.936428 531.438558 294.067704 532.794446 298.424263 530.218259 312.446936 530.218259 309.179517 531.574147 309.315659 535.574017 311.289725 537.540055 309.996372 539.77727 312.10658 541.539925 311.902366 546.760095 315.646284 549.675254 318.913702 549.471871 321.023911 550.149815 320.887768 552.590414 317.960705 554.21748 318.437204 559.505444 316.463138 560.657949 313.876432 563.573108 313.536075 566.013707 316.122782 567.166212 319.8667 566.962829 324.223258 568.454306 327.354535 568.793278 326.061181 570.691521 326.061181 574.759186 328.78403 576.386252 328.375603 579.775972 335.523082 580.453916 338.790501 580.725094 341.717564 579.301411 342.670561 577.335373 346.074122 576.386252 346.414478 578.691262 348.048188 580.521711 346.074122 583.843637 347.231333 586.555413 352.60896 586.555413 355.059524 587.911301 357.782374 587.911301 357.373946 585.335114 356.829376 583.165693 357.986587 580.453916 357.986587 575.43713 355.467952 572.793148 355.195667 567.979745 356.625163 566.691651 356.829376 564.251052 358.463086 564.52223 361.730505 565.539146 367.380417 565.200174 369.354482 561.810454 370.783978 560.318977 374.255611 561.335893 376.501961 564.52223 379.565166 566.352679 382.492229 564.52223 385.759648 560.657949 387.733714 564.386641 389.639708 562.962959 390.660777 560.861332 392.430629 564.251052 394.540837 566.962829 396.991401 566.149296 398.284754 561.471482 399.918464 560.861332 401.143746 563.91208 403.322025 564.251052 406.181017 561.471482 408.359296 562.149426 409.993005 559.708827 409.993005 556.454695 412.44357 555.641162 416.051345 553.878508 419.11455 552.590414 421.224758 555.031013 422.654254 557.403817 422.722325 557.471611 425.513245 552.251442"></polygon>
                    <polygon id="Path" points="428.168023 306.08994 431.707727 310.022015 431.707727 314.157474 433.069152 318.225139 433.069152 322.563981 431.639656 325.818113 433.341436 328.597684 436.744998 330.156955 438.038351 332.733143 440.897343 333.61447 443.075622 335.987274 446.002685 337.885518 447.364109 335.987274 447.364109 331.648432 449.202033 329.479011 452.741736 329.275628 454.103161 323.241925 448.657463 319.78441 446.547255 316.123512 446.751468 312.869381 449.542389 311.649081 450.223101 305.750968 459.140432 305.750968 460.297643 302.293453 460.297643 297.276666 464.177703 292.192086 464.109631 292.124291 461.727138 290.361637 458.45972 287.785449 453.286306 287.988832 450.903813 284.802495 451.516454 280.667036 454.988087 276.12481 456.485654 272.463912 454.375446 267.718304 451.312241 266.633593 447.432181 268.396248 442.190696 275.243483 440.284702 283.514401 438.719063 292.327674 428.984878 297.073283 422.858467 298.429171 424.015678 301.886686"></polygon>
                    <polygon id="Path" points="378.544098 367.240497 376.570032 370.087863 376.570032 373.138611 380.654306 369.884479 386.100004 367.511675 386.100004 364.66431 382.900657 360.122084 384.602437 357.342513 388.890925 356.257803 391.273418 352.596905 394.949264 353.884999 396.651045 356.461186 397.944398 361.206795 401.143746 363.850777 407.950868 365.342254 410.946002 366.630348 413.328495 372.0539 414.68992 375.918182 413.124282 378.96893 413.804994 381.88409 419.250692 383.714539 428.508379 383.714539 430.482445 380.392613 435.451645 379.57908 437.221496 375.714799 434.09022 372.66405 438.310636 368.121825 442.190696 368.121825 446.751468 369.138741 447.840608 367.037114 445.458115 362.698272 446.343041 357.545897 449.338175 354.969709 447.159896 352.596905 443.552121 350.630867 446.547255 346.563202 445.662329 342.020977 453.286306 341.13965 456.077227 344.190398 464.109631 344.597164 465.607198 341.13965 464.109631 337.885518 471.393253 338.970228 477.31545 337.885518 477.31545 333.61447 476.294381 328.801067 480.038299 325.818113 480.038299 319.30985 461.386782 309.411866 459.140432 305.683173 459.140432 305.750968 450.223101 305.750968 449.542389 311.649081 446.751468 312.869381 446.547255 316.123512 448.657463 319.78441 454.103161 323.241925 452.741736 329.275628 449.202033 329.479011 447.364109 331.648432 447.364109 335.987274 446.002685 337.885518 443.075622 335.987274 440.897343 333.61447 438.038351 332.733143 436.744998 330.156955 433.341436 328.597684 431.639656 325.818113 433.069152 322.563981 433.069152 318.225139 431.707727 314.157474 431.707727 310.022015 428.168023 306.08994 424.015678 301.886686 422.858467 298.429171 420.544046 298.903732 413.124282 297.073283 405.568375 290.56502 405.364162 286.904122 407.47437 282.294102 406.453301 278.633204 410.946002 278.633204 415.23449 275.989222 418.093481 271.379202 418.093481 266.836976 416.527843 263.176078 411.626715 262.972695 401.143746 267.921687 393.179412 265.345499 388.61864 264.73535 385.827719 266.904771 388.61864 270.023314 385.623506 273.887595 381.947659 273.887595 378.476027 272.667296 375.753178 268.803014 371.805046 266.226827 371.805046 259.650769 368.265343 259.650769 366.427419 256.871198 360.028724 252.193384 356.352878 249.142635 358.258872 247.108803 362.207003 242.634372 366.359348 239.651418 366.359348 236.397286 364.181069 233.617715 362.00279 231.855061 356.352878 232.058444 343.691629 230.973733 341.921777 232.329622 343.895843 233.821099 343.895843 237.278614 339.811569 237.278614 339.811569 232.058444 338.654359 228.600929 335.523082 223.448554 332.596019 219.516478 334.161657 216.058963 335.38694 213.686159 333.140589 207.584662 331.438808 202.567876 328.988244 195.246079 317.211922 195.178285 317.007708 195.178285 313.740289 197.076529 315.305927 201.415371 315.305927 205.076269 312.10658 208.127017 306.660881 208.127017 304.959101 210.16085 300.398328 210.16085 295.429129 210.16085 288.213579 214.025131 277.390253 225.414592 274.122835 228.058574 270.446988 227.109452 264.933219 227.109452 264.933219 231.855061 262.21037 237.07523 262.21037 245.68512 259.011022 249.074841 257.377312 251.51544 259.555592 254.091627 263.435652 255.379721 264.797076 258.972825 272.421054 258.972825 272.421054 261.684601 279.296248 262.769312 281.270313 265.955649 281.270313 268.803014 283.925091 269.81993 288.009365 269.81993 291.957496 269.81993 297.811622 272.531707 304.959101 272.531707 306.252454 274.497745 309.247588 275.718044 313.604147 274.023184 314.35293 269.480958 316.667352 267.04036 316.667352 257.752525 320.819697 257.345759 333.072518 266.43021 336.339937 263.718433 339.811569 264.599761 342.262134 262.362545 343.963914 262.362545 349.613826 269.074192 355.467952 275.446866 357.646231 277.95526 359.552225 277.95526 359.552225 275.243483 361.798576 275.514661 363.432285 278.158643 366.291277 280.463653 367.380417 283.243223 372.349616 285.887205 377.795315 290.361637 381.062733 292.802235 384.602437 291.242964 386.780717 291.446347 386.780717 295.988573 391.545703 298.903732 393.04327 303.378163 391.95413 305.954351 394.268552 308.733922 394.268552 312.191437 396.651045 315.648951 397.944398 318.631905 396.651045 326.089291 393.383626 326.089291 393.179412 330.563722 387.121073 333.139909 386.712645 337.682135 381.062733 341.13965 378.476027 344.597164 381.947659 348.054679 384.330152 350.83425 381.471161 352.393522 379.292882 354.562943 375.821249 354.562943 367.380417 350.359689 363.908784 349.342773 362.411217 351.512194 363.500357 356.05442 367.380417 359.240757 368.061129 362.698272 373.915255 362.698272 374.664038 365.952404 377.046531 364.596515"></polygon>
                    <path d="M498.009103,581.877599 L504.816226,580.928477 L505.292724,577.606551 L508.35593,577.606551 L510.466138,575.776102 L510.942636,570.081372 L514.958839,568.589895 L518.975041,565.674735 L521.561748,561.60707 L521.561748,554.692041 L522.78703,551.031142 L527.552016,546.6923 L529.526081,543.031402 L529.389939,538.963738 L531.976646,538.963738 L533.201928,535.099456 L531.840503,531.235175 L531.840503,528.184426 L526.462876,528.184426 L525.509879,530.286053 L522.923172,528.658987 L522.923172,524.252351 L521.902104,522.015135 L518.294329,522.489696 C515.843765,530.421642 514.754625,525.404856 514.754625,525.404856 L514.754625,520.25248 L520.812964,514.55775 L522.310531,508.591842 L518.838899,507.303748 L518.838899,502.151373 L513.052844,500.456513 L508.492072,500.456513 L504.612012,506.55801 L501.004237,506.55801 L497.396462,503.64285 L493.720616,508.524047 L489.908627,505.880065 L487.662276,509.94773 L482.761148,509.94773 L481.127438,514.015395 L477.247378,514.015395 L474.660672,516.998349 L472.550464,514.150983 L468.46619,516.455993 L466.21984,521.404985 L461.046426,521.404985 L456.145298,517.608498 L453.218235,513.9476 L448.725534,513.9476 L448.725534,517.94747 L445.458115,520.049097 L441.509984,523.438818 L436.33657,523.438818 L433.749864,528.184426 L427.555382,528.184426 L423.53918,525.540444 L418.56998,522.828668 L414.757991,527.031921 L410.401433,528.591193 L406.657515,526.760744 L406.589444,526.828538 L406.589444,531.16738 L408.971937,533.540185 L411.422501,532.048708 L416.187487,532.455474 L418.161553,536.794316 L421.428972,538.963738 L425.989744,538.963738 L430.550516,537.946821 L432.660724,539.234915 L433.886006,542.69243 L433.886006,546.827889 L431.707727,550.556582 L427.351168,550.556582 L425.649388,552.319236 L422.858467,557.539406 L426.262029,560.115593 L429.052949,560.793537 L433.273365,560.318977 L436.540784,562.420603 L442.39491,562.285015 L442.054554,566.691651 L439.127491,567.640773 L438.446779,572.182998 L440.897343,572.860942 L441.237699,577.877729 L445.934614,579.165823 L446.411112,581.403038 L448.385178,583.504665 L451.788739,584.453787 L452.94595,586.080852 L457.166366,585.606291 L460.774141,585.267319 L463.360848,587.504535 L466.287911,588.318068 L472.142036,587.979096 L473.095034,586.013058 L472.958891,584.385992 L475.409455,582.758926 L476.362452,585.674086 L483.033433,586.013058 L481.399723,587.504535 L482.35272,589.74175 L489.704413,588.792629 L490.044769,586.826591 L492.495333,586.96218 L492.495333,586.96218 L496.375393,586.148647 L498.009103,581.877599 Z" id="Path"></path>
                    <polygon id="Path" points="616.521111 538.963738 615.704256 533.811362 612.845264 530.760614 611.551911 526.421772 606.991139 526.218388 604.812859 524.048967 602.362295 524.252351 597.937665 522.896462 594.397962 522.760874 594.397962 530.353847 590.177545 526.760744 587.250483 527.438688 582.68971 527.438688 577.856653 530.489436 572.070599 532.048708 569.075465 530.08267 571.04953 528.252221 572.342884 525.608239 575.47416 522.354107 578.060867 520.794836 578.060867 516.930554 574.793448 514.964516 570.573032 517.337321 566.01226 517.811882 564.106265 516.049227 557.775641 517.337321 554.984721 515.235694 551.308874 513.676423 548.654096 516.523788 545.52282 518.218648 548.790239 520.184686 548.790239 524.116762 545.182464 525.133678 542.868042 521.676163 538.171127 519.981303 533.814569 520.794836 533.814569 526.896333 531.636289 528.116632 531.772432 528.116632 531.772432 531.16738 533.201928 535.099456 531.976646 538.963738 529.389939 538.963738 529.526081 543.031402 527.552016 546.6923 522.78703 550.963348 521.561748 554.692041 521.561748 561.60707 518.975041 565.674735 514.958839 568.589895 510.942636 570.081372 510.466138 575.776102 508.424001 577.606551 505.292724 577.606551 504.816226 580.996272 498.009103 581.877599 496.17118 586.080852 492.29112 586.894385 492.427262 588.860423 495.694681 589.334984 494.265185 591.301022 492.767618 594.080593 492.154977 598.758407 493.448331 604.453137 495.08204 608.927568 496.851892 611.842728 503.318659 611.842728 508.083645 608.995363 507.607146 606.961531 507.607146 604.724315 506.245721 604.724315 505.769223 602.351511 504.680083 600.860034 502.365661 600.860034 502.365661 598.893996 505.565009 598.893996 507.26679 600.860034 509.989639 600.860034 509.240855 598.893996 508.083645 598.893996 507.743288 596.65678 509.51314 595.097509 509.989639 593.199265 510.534209 590.487489 515.231124 590.487489 516.660619 588.928218 520.268394 589.809545 523.535813 589.809545 525.782164 588.182479 528.573084 586.555413 530.683292 588.04689 532.7935 585.945264 532.317002 583.640254 533.950711 583.030104 536.537418 584.182609 539.464481 583.504665 540.893976 582.555543 542.391543 583.979226 542.18733 586.080852 545.931247 587.097769 547.76917 586.148647 547.292672 583.43687 547.564957 582.080982 551.513088 581.403038 554.440151 581.403038 556.550359 578.691262 557.367214 576.928607 558.456353 574.82698 560.090063 574.081242 559.95392 564.52223 562.744841 564.52223 563.221339 567.234006 567.577898 567.030623 567.918254 569.471222 565.944188 569.7424 564.514693 574.284625 567.782111 574.284625 571.321815 574.284625 573.295881 571.098288 572.13867 567.301801 574.589234 568.115334 575.746445 569.877988 577.516297 567.979745 576.359086 566.081501 576.699442 563.844286 579.286149 564.251052 579.490363 567.166212 582.213212 567.166212 584.527633 563.437519 586.637842 562.623987 589.224548 564.52223 592.832323 564.52223 592.832323 561.335893 595.41903 561.335893 597.66538 563.098547 600.932799 561.946042 603.72372 561.946042 604.200218 560.047799 607.263424 560.047799 609.85013 558.8275 609.373632 554.827629 611.143484 554.827629 613.594048 552.929386 613.934404 550.69217 616.384968 548.38716 616.521111 547.031272 619.175888 547.031272 620.605384 544.929646 620.605384 544.929646 617.814464 543.641552"></polygon>
                    <polygon id="Path" points="427.895738 474.559048 434.09022 474.559048 438.719063 473.338749 440.012417 469.610056 437.629924 466.966074 432.252297 465.000036 428.984878 462.762821 429.393305 458.491773 433.069152 456.796913 434.907075 456.254557 438.855206 458.491773 439.467847 457.000296 439.603989 453.339398 436.88114 452.390276 431.435442 450.966594 431.367371 446.085396 427.010812 445.339657 425.989744 443.37362 423.53918 441.814348 423.53918 439.509338 427.623453 437.272123 431.707727 435.170496 431.911941 433.136664 430.346302 430.763859 430.346302 428.187672 431.571585 425.814867 435.383573 425.475895 440.556987 429.272382 442.667195 427.441933 445.458115 427.713111 448.044822 431.84857 453.082093 431.84857 454.443517 430.15371 457.710936 424.865746 458.800076 422.492941 458.119363 419.509987 459.140432 418.560866 463.020492 419.645576 465.947555 419.645576 466.355982 416.052472 467.581264 414.222023 471.393253 406.764638 473.571532 405.40875 475.613669 403.849479 474.864885 401.612263 472.89082 399.917403 473.911888 397.070038 473.911888 394.154878 471.393253 393.273551 468.874617 393.8837 465.947555 393.8837 463.905418 391.036335 460.637999 389.273681 457.847078 387.985587 456.28144 390.087213 455.192301 388.731325 454.239303 384.528072 446.955682 384.867044 442.93948 385.341605 439.603989 381.680707 435.792001 381.680707 431.707727 383.104389 430.414374 380.528202 428.508379 383.714539 419.250692 383.714539 413.804994 381.88409 413.124282 378.96893 414.68992 375.918182 413.328495 372.0539 410.946002 366.630348 407.950868 365.342254 401.143746 363.850777 397.944398 361.206795 396.651045 356.461186 394.949264 353.884999 391.273418 352.596905 388.890925 356.257803 384.602437 357.342513 382.900657 360.122084 386.100004 364.66431 386.100004 367.511675 380.654306 369.884479 376.570032 373.138611 376.570032 370.087863 378.544098 367.240497 377.046531 364.596515 374.664038 365.952404 374.732109 366.291376 374.527896 372.189489 371.941189 372.189489 369.150269 370.765807 365.88285 372.121695 366.087063 376.324948 365.678636 379.240108 362.615431 381.002763 358.939584 381.002763 355.263738 383.782333 354.378812 380.595996 353.493886 376.935098 350.702966 378.901136 349.409613 375.443621 346.822906 371.375956 344.84884 374.562294 343.351273 376.324948 337.905575 374.562294 336.816435 370.698012 331.847236 368.799769 329.87317 359.715318 324.90397 353.478232 319.458272 352.596905 317.007708 351.105428 312.515007 353.478232 311.630081 358.427224 315.578212 361.884739 310.336728 368.325208 309.724087 373.341994 312.991506 376.867304 313.876432 376.799509 318.437204 379.57908 321.500409 384.799249 323.474475 390.900746 327.218392 397.40901 328.035247 401.137702 324.767828 400.188581 324.155187 402.900357 327.014179 406.290077 328.239461 409.679798 328.239461 417.815127 328.920173 422.01838 328.920173 426.221634 327.831033 428.526644 327.967176 434.831524 327.762962 438.695805 326.741894 439.780516 327.558748 445.000685 327.762962 454.085136 330.145455 456.390146 331.438808 452.119098 335.727296 447.441284 338.382074 450.424238 341.853706 455.169847 341.853706 458.627362 340.832638 461.67811 343.759701 465.745775 348.524687 465.745775 352.200533 470.355795 355.059524 476.931852 355.876379 481.270695 358.599228 483.643499 360.232938 487.575575 360.232938 491.643239 362.683502 493.812661 364.521425 497.473559 371.056263 499.03283 374.732109 495.982082 377.999528 495.778698 378.884454 499.03283 383.445226 495.100754 385.147007 491.03309 383.241013 482.152022 384.330152 476.796264 387.325286 476.321703 391.273418 472.864188 395.153478 470.694767 394.064338 465.542392 396.242617 461.67811 399.918464 462.762821 401.143746 459.508689 399.918464 456.390146 402.096743 455.169847 406.861729 454.966464 409.244222 456.390146 407.882797 458.220595 407.882797 461.203549 409.244222 464.050915 409.244222 468.999907 412.239356 470.694767 416.391701 468.796523 419.65912 465.745775 422.858467 467.50843 422.858467 473.542132 422.858467 473.609926 426.262029 472.050655"></polygon>
                    <polygon id="Path" points="662.877617 472.186244 659.337913 474.28787 655.934352 473.406543 654.913283 469.135495 652.190434 469.135495 649.807941 472.254038 645.723667 473.20316 641.367109 472.864188 641.367109 467.033869 638.780402 464.118709 637.827405 458.152801 633.13049 459.305306 631.973279 462.356054 626.936008 465.271214 621.898738 467.237252 618.495176 465.271214 614.887401 469.474467 611.688053 473.338749 613.934404 480.185984 610.054344 483.575705 605.833928 485.677331 605.289358 491.372062 606.923067 493.948249 603.383364 496.863409 604.812859 500.388718 603.655649 502.219167 599.707517 504.795355 598.346093 510.625674 596.440098 516.930554 596.440098 522.828668 597.937665 522.896462 602.362295 524.252351 604.812859 524.048967 606.991139 526.218388 611.551911 526.421772 612.845264 530.760614 615.704256 533.811362 616.521111 538.963738 617.814464 543.641552 620.605384 544.929646 623.192091 543.505963 624.485444 541.878897 624.8258 540.116242 627.412507 538.828149 630.135356 537.675644 634.015416 532.455474 634.7642 529.540315 637.01055 527.981043 637.01055 526.489566 639.529186 525.269267 642.252035 526.557361 644.158029 523.574406 644.498385 520.523658 647.629662 520.523658 648.242303 518.625415 646.812807 516.930554 647.765804 514.693339 651.033223 514.693339 652.803075 512.86289 652.326576 510.761263 649.876012 510.761263 650.556725 508.117281 653.61993 508.727431 654.913283 510.693469 656.206636 508.998608 658.180702 510.151113 659.610198 510.151113 661.243907 507.303748 661.788477 505.269916 660.767409 503.64285 658.521058 503.64285 656.887349 502.015784 656.683135 500.456513 658.316844 498.965036 657.363847 497.066792 657.227705 494.558399 658.180702 493.270305 660.427053 493.270305 661.584263 491.439856 658.521058 490.355146 658.521058 488.592491 661.243907 487.50778 664.17097 486.42307 663.558329 483.440116 663.354115 481.609667 665.192038 481.609667 666.145036 478.287741 666.621534 476.457292 667.029962 476.457292 665.80468 472.999777"></polygon>
                    <path d="M442.599123,455.98338 C442.667195,455.508819 443.143693,455.305436 443.552121,455.508819 L444.232833,455.915585 C444.437047,456.051174 444.573189,456.186763 444.573189,456.457941 L444.981616,460.728989 L446.955682,459.440895 L448.589391,455.576613 L451.652597,453.746164 L454.920016,454.966464 L456.894081,454.085136 L456.894081,450.627621 C456.894081,450.288649 457.166366,449.949677 457.574794,449.949677 L462.067495,449.949677 C462.33978,449.949677 462.543993,450.085266 462.680136,450.356444 L463.565062,452.322482 L465.539127,452.525865 L466.424053,451.102182 L471.869751,451.305566 L472.278179,455.305436 L473.707675,458.220595 L476.498595,458.898539 L476.498595,460.5934 L475.613669,462.017082 C475.477526,462.28826 475.477526,462.627232 475.68174,462.830615 L476.090168,463.237382 C476.294381,463.440765 476.702809,463.508559 476.975093,463.305176 L477.451592,462.966204 C477.860019,462.627232 478.472661,462.966204 478.472661,463.508559 L478.472661,465.20342 L479.5618,466.627102 L482.488863,467.372841 L484.667142,464.118709 L487.049635,462.830615 L486.300852,458.220595 L487.049635,456.254557 L485.960496,453.136015 L486.845422,449.542911 C486.913493,449.136144 486.641208,448.729378 486.23278,448.729378 L484.667142,448.729378 L484.462929,445.136274 L480.582869,444.051564 L480.174441,440.255077 L477.383521,437.678889 C477.111236,437.407712 476.702809,437.475506 476.430524,437.746684 L475.273313,439.102572 L472.958891,437.5433 C472.686606,437.339917 472.618535,437.000945 472.754677,436.729767 L473.503461,435.170496 L475.341384,433.950197 L476.634737,428.797821 L474.660672,426.357223 C474.456458,426.086045 474.524529,425.611484 474.796814,425.408101 L476.907022,424.052213 L479.493729,424.797951 L482.284649,424.052213 L485.07557,425.001335 L488.95563,424.865746 L496.647678,418.832043 L500.527738,419.23881 L501.480736,412.32378 L502.365661,409.069648 L496.17118,405.273161 L495.08204,402.49359 L492.359191,401.544469 L492.223049,402.968151 L487.253849,403.10374 L483.646074,398.222543 L477.451592,395.104 L475.613669,393.137962 L473.843817,394.154878 L473.979959,394.222672 L473.979959,397.137832 L472.89082,399.917403 L474.932957,401.612263 L475.68174,403.849479 L473.639603,405.340956 L471.461324,406.764638 L467.649335,414.222023 L466.424053,415.984678 L466.015626,419.577782 L463.088563,419.577782 L459.208503,418.493071 L458.255506,419.442193 L458.936218,422.425147 L457.847078,424.797951 L454.57966,430.085915 L453.218235,431.780776 L448.180964,431.780776 L445.594257,427.645317 L442.803337,427.374139 L440.7612,429.204588 L435.587787,425.408101 L431.775798,425.747073 L430.550516,428.119877 L430.550516,430.696065 L432.048083,433.068869 L431.911941,435.102702 L427.759596,437.136534 L423.743393,439.373749 L423.743393,441.610965 L426.193958,443.238031 L427.215026,445.204069 L431.571585,445.949807 L431.707727,450.831005 L437.153425,452.254687 L439.876274,453.203809 L439.740132,456.864707 L439.331705,457.746034 L442.39491,459.644278 L442.599123,455.98338 Z" id="Path"></path>
                    <polygon id="Path" points="490.65741 390.900746 492.971832 388.460148 499.098243 388.460148 501.072308 386.358521 499.778955 383.714539 495.218183 382.426445 494.877826 380.121435 493.244117 378.96893 489.227915 378.155397 490.65741 376.053771 496.511536 376.189359 501.548807 378.155397 505.973437 376.731715 507.402932 378.155397 511.351064 377.341864 513.93777 374.426705 513.120915 369.681096 509.104713 365.477843 508.083645 361.206795 505.837294 357.478102 505.565009 353.546027 503.182516 351.579989 503.182516 345.410697 506.518006 336.597424 507.062576 332.190787 505.905365 326.157085 505.905365 320.191177 505.905365 315.106596 505.905365 308.937305 507.947502 304.666257 508.083645 300.598592 509.240855 297.819022 508.083645 294.56489 506.109579 292.25988 505.496938 288.531187 506.790291 285.277056 510.670351 282.022924 511.827562 278.768792 512.984773 276.12481 515.231124 271.243613 514.073913 267.51492 514.073913 264.938733 514.073913 264.73535 514.073913 262.769312 511.69142 263.176078 507.675217 267.718304 504.271656 265.955649 500.459667 264.938733 500.459667 267.921687 497.124177 268.396248 492.699547 274.633333 488.41106 279.175559 484.122572 285.616028 484.122572 290.158253 481.399723 290.836197 481.399723 297.276666 472.142036 297.073283 467.581264 293.615768 464.177703 292.192086 460.297643 297.276666 460.297643 302.293453 459.140432 305.683173 461.386782 309.411866 480.038299 319.30985 480.038299 325.818113 476.294381 328.801067 477.31545 333.61447 477.31545 337.885518 471.393253 338.970228 464.109631 337.885518 465.607198 341.13965 464.109631 344.597164 456.077227 344.190398 453.286306 341.13965 445.662329 342.020977 446.547255 346.563202 443.552121 350.630867 447.159896 352.596905 449.338175 354.969709 446.343041 357.545897 445.458115 362.698272 447.840608 367.037114 446.751468 369.138741 442.190696 368.121825 438.310636 368.121825 434.09022 372.66405 437.221496 375.714799 435.451645 379.57908 430.482445 380.392613 430.414374 380.528202 431.707727 383.104389 435.792001 381.680707 439.603989 381.680707 442.93948 385.341605 446.955682 384.867044 454.239303 384.528072 455.192301 388.731325 456.28144 390.087213 457.847078 387.985587 460.637999 389.273681 463.905418 391.036335 465.947555 393.8837 468.874617 393.8837 471.393253 393.273551 473.843817 394.087084 475.613669 393.070167 477.451592 395.036205 483.646074 398.154748 487.185778 403.035946 492.154977 402.900357 492.29112 401.951235 491.133909 393.8837"></polygon>
                    <path d="M488.070704,502.354756 L486.77735,500.524307 L488.274917,498.015914 L487.798419,494.626193 L489.636342,492.999128 L490.929695,490.42294 L490.929695,487.846752 L488.751416,485.880715 L485.756282,486.829836 L482.965362,486.829836 L481.19551,488.863669 L478.676874,488.863669 L478.676874,485.270565 L482.148507,483.168938 L483.98643,481.067311 L486.913493,480.253779 L488.887558,477.474208 L488.887558,474.559048 L487.32192,470.288 L487.662276,465.542392 L486.368923,463.101793 L484.462929,464.118709 L482.284649,467.372841 L479.357586,466.627102 L478.268447,465.20342 L478.268447,463.508559 C478.268447,462.966204 477.655806,462.695026 477.247378,462.966204 L476.77088,463.305176 C476.498595,463.508559 476.158239,463.508559 475.885954,463.237382 L475.477526,462.830615 C475.273313,462.627232 475.205242,462.28826 475.409455,462.017082 L476.294381,460.5934 L476.294381,458.898539 L473.503461,458.220595 L472.073965,455.305436 L471.665538,451.305566 L466.21984,451.102182 L465.334914,452.525865 L463.360848,452.322482 L462.475922,450.356444 C462.33978,450.153061 462.135566,449.949677 461.863281,449.949677 L457.37058,449.949677 C457.030224,449.949677 456.689868,450.220855 456.689868,450.627621 L456.689868,454.085136 L454.715802,454.966464 L451.448383,453.746164 L448.385178,455.576613 L446.751468,459.440895 L444.777403,460.728989 L444.368975,456.457941 C444.368975,456.254557 444.232833,456.051174 444.028619,455.915585 L443.347907,455.508819 C442.93948,455.305436 442.462981,455.576613 442.39491,455.98338 L441.918411,459.847661 L438.855206,457.949418 L438.582921,458.559567 L434.702861,456.322352 L432.864938,456.864707 L429.189092,458.559567 L428.780664,462.762821 L432.048083,465.000036 L437.493781,466.966074 L439.876274,469.677851 L438.582921,473.406543 L433.954078,474.626843 L427.759596,474.626843 L426.125886,472.118449 L422.722325,473.677721 L421.292829,477.406413 L416.527843,480.457162 L411.35443,481.135106 L406.997871,477.880974 L405.500304,480.931723 L401.075674,478.152152 L399.850392,480.321573 L395.28962,483.372321 L396.582973,485.541743 L397.263686,490.694118 L399.850392,494.355016 L403.117811,492.660156 L406.589444,492.456772 L409.176151,491.575445 L411.35443,494.829577 L411.150216,497.880325 L408.359296,500.049746 L406.861729,504.998738 L404.887663,509.94773 L408.767723,515.100105 L411.830928,517.269526 L412.035142,519.642331 L409.72072,521.811752 L406.589444,526.896333 L410.333361,528.726782 L414.68992,527.16751 L418.501909,522.964257 L423.471108,525.608239 L427.487311,528.252221 L433.681793,528.252221 L436.268499,523.506612 L441.441913,523.506612 L445.390044,520.116892 L448.657463,518.015265 L448.657463,514.015395 L453.150164,514.015395 L456.077227,517.676293 L460.978355,521.47278 L466.151768,521.47278 L468.398119,516.523788 L472.482392,514.218778 L474.592601,517.066143 L477.179307,514.083189 L481.059367,514.083189 L482.693077,510.015524 L487.594205,510.015524 L489.840556,506.015654 L489.500199,502.558139 L488.070704,502.558139 L488.070704,502.354756 Z" id="Path"></path>
                    <path d="M564.650835,508.524047 L565.263476,504.320794 L564.174336,501.270046 L565.127334,498.219297 L565.127334,494.287221 L562.200271,494.287221 L561.383416,490.694118 L562.064128,487.304397 L561.247274,484.796004 L561.927986,480.796134 L557.231071,480.796134 L557.571427,475.50817 L559.817778,470.423589 L563.221339,467.372841 L564.786977,465.406803 L566.624901,464.59327 L566.624901,461.203549 L565.263476,459.440895 L565.263476,454.559697 L563.629767,452.254687 L561.383416,450.153061 L557.979855,448.932761 L557.163,446.559957 L558.115997,444.119358 L559.273208,441.339787 L557.503356,438.7636 L555.801575,438.7636 L555.801575,435.577262 L553.963652,435.916235 L549.539022,442.560087 L547.633028,443.37362 L545.863176,442.085526 L546.952316,439.983899 L546.952316,437.407712 L544.705965,436.390795 L542.595757,438.628011 L541.302404,440.187282 L538.715697,440.187282 L535.107922,441.475376 L532.657358,438.7636 L528.777298,435.984029 L522.923172,435.509468 L519.996109,434.085785 L515.775693,432.797692 L512.984773,431.712981 L510.738423,433.407841 L508.492072,433.407841 L507.198719,435.441674 L509.445069,437.950067 L507.334861,439.916105 L503.250587,440.594049 L501.616878,438.831394 L496.851892,438.017861 L493.9929,439.983899 L488.751416,444.322741 L485.824353,448.797172 L486.300852,448.797172 C486.709279,448.797172 487.049635,449.203939 486.913493,449.610705 L486.028567,453.203809 L487.117706,456.322352 L486.368923,458.28839 L487.117706,462.89841 L486.641208,463.169587 L487.934561,465.610186 L487.594205,470.355795 L489.159843,474.626843 L489.159843,477.542002 L487.185778,480.321573 L484.258715,481.135106 L482.420792,483.236733 L478.949159,485.338359 L478.949159,488.931463 L481.467795,488.931463 L483.237646,486.897631 L486.028567,486.897631 L489.023701,485.948509 L491.20198,487.914547 L491.20198,490.490734 L489.908627,493.066922 L488.070704,494.693988 L488.547202,498.083708 L487.049635,500.592102 L488.342989,502.422551 L489.976698,502.422551 L490.317054,505.880065 L490.317054,505.880065 L494.129043,508.524047 L497.804889,503.64285 L501.412664,506.55801 L505.020439,506.55801 L508.900499,500.456513 L513.461272,500.456513 L519.247326,502.151373 L519.247326,507.303748 L522.718959,508.591842 L521.221392,514.55775 L515.163052,520.25248 L515.163052,525.404856 C515.163052,525.404856 516.252192,530.421642 518.702756,522.489696 L522.310531,522.015135 L523.3316,524.252351 L523.3316,528.658987 L525.918306,530.286053 L526.871304,528.184426 L532.112788,528.184426 L534.291067,526.964127 L534.291067,520.930424 L538.647626,520.049097 L543.344541,521.743957 L545.658962,525.201472 L549.266737,524.184556 L549.266737,520.25248 L545.999319,518.286442 L549.062524,516.591582 L551.717302,513.812011 L555.393148,515.303488 L558.184068,517.47291 L564.446621,516.184816 L564.242408,511.845974 L564.650835,508.524047 Z" id="Path"></path>
                    <polygon id="Path" points="631.837137 449.6785 627.752863 445.814218 626.45951 441.678759 627.752863 438.560216 625.642655 436.594179 618.359034 436.594179 616.861467 435.441674 614.887401 432.255336 612.981407 431.441803 610.530843 432.390925 609.237489 435.984029 606.991139 437.746684 604.404432 437.882272 604.26829 435.306085 605.97007 432.729897 605.97007 430.289298 604.200218 429.136794 601.205084 429.136794 601.205084 431.441803 598.346093 434.560346 594.602175 434.560346 591.675112 436.051823 589.224548 434.560346 584.86799 434.560346 584.86799 436.594179 580.715645 437.475506 579.490363 439.983899 577.175941 439.983899 575.950659 442.356703 570.981459 444.051564 566.488758 444.051564 566.488758 445.339657 563.28941 447.237901 561.247274 450.017472 561.247274 450.017472 563.561695 452.119098 565.127334 454.424108 565.127334 459.305306 566.488758 461.067961 566.488758 464.457681 564.718906 465.271214 563.153268 467.237252 559.749707 470.288 557.503356 475.372581 557.163 480.660545 561.927986 480.660545 561.247274 484.660415 562.064128 487.236603 561.383416 490.626323 562.200271 494.219427 565.127334 494.219427 565.127334 498.151503 564.174336 501.202251 565.263476 504.320794 564.650835 508.524047 563.83398 511.778179 564.038194 516.049227 564.106265 516.049227 566.01226 517.811882 570.573032 517.337321 574.793448 514.964516 578.060867 516.930554 578.060867 520.794836 575.47416 522.354107 572.342884 525.608239 571.04953 528.252221 569.075465 530.08267 572.070599 532.048708 577.856653 530.489436 582.68971 527.438688 587.250483 527.438688 590.177545 526.760744 594.397962 530.353847 594.397962 522.760874 596.440098 522.828668 596.440098 516.930554 598.346093 510.625674 599.707517 504.795355 603.655649 502.219167 604.812859 500.388718 603.383364 496.863409 606.923067 493.948249 605.289358 491.372062 605.833928 485.677331 610.054344 483.575705 613.934404 480.185984 611.688053 473.338749 614.887401 469.474467 618.495176 465.271214 621.898738 467.237252 626.936008 465.271214 631.973279 462.356054 633.13049 459.305306 633.879274 459.101923 633.879274 455.508819"></polygon>
                    <path d="M594.397962,427.645317 L591.743184,425.475895 L590.722115,421.408231 L588.611907,419.306604 L589.496833,415.916884 L591.743184,414.62879 L591.743184,412.527163 L588.816121,410.900097 L584.391491,409.950976 L582.281283,407.171405 L579.35422,405.544339 L578.333152,403.442712 L574.521163,405.544339 L568.598966,403.578301 L568.598966,400.79873 L564.514693,399.849608 L561.927986,401.544469 L559.000923,400.052992 L556.346145,395.849738 L556.346145,390.019419 L551.921515,391.917663 L548.926381,391.239718 L542.391543,391.239718 L535.584421,391.239718 L530.411007,390.222802 L523.399671,386.629699 L519.179255,383.917922 L517.409403,379.307902 L515.163052,377.002892 L511.827562,377.002892 L511.419135,377.409659 L507.539075,378.223192 L506.041508,376.731715 L501.616878,378.223192 L496.579607,376.257154 L490.725482,376.121565 L489.227915,378.223192 L493.312188,379.036725 L494.945898,380.18923 L495.286254,382.49424 L499.847026,383.782333 L501.140379,386.426315 L499.166314,388.527942 L492.971832,388.527942 L490.725482,390.968541 L491.20198,393.951495 L492.359191,401.544469 L495.08204,402.49359 L496.17118,405.273161 L502.365661,409.069648 L501.480736,412.32378 L500.527738,419.23881 L496.647678,418.832043 L488.95563,424.865746 L485.07557,425.001335 L482.284649,424.052213 L479.493729,424.797951 L476.907022,424.052213 L474.796814,425.408101 C474.456458,425.611484 474.388387,426.086045 474.660672,426.357223 L476.634737,428.797821 L475.341384,433.950197 L473.503461,435.170496 L472.754677,436.729767 C472.618535,437.000945 472.686606,437.339917 472.958891,437.5433 L475.273313,439.102572 L476.430524,437.746684 C476.702809,437.475506 477.111236,437.475506 477.383521,437.678889 L480.174441,440.255077 L480.582869,444.051564 L484.462929,445.136274 L484.667142,448.729378 L485.756282,448.729378 L488.683345,444.254947 L493.924829,439.916105 L496.783821,437.950067 L501.548807,438.7636 L503.182516,440.526254 L507.26679,439.84831 L509.376998,437.882272 L507.130647,435.373879 L508.424001,433.340047 L510.670351,433.340047 L512.916702,431.645187 L515.707622,432.729897 L519.928038,434.017991 L522.855101,435.441674 L528.709227,435.916235 L532.589287,438.695805 L535.039851,441.407582 L538.647626,440.119488 L541.234333,440.119488 L542.527686,438.560216 L544.637894,436.323001 L546.884244,437.339917 L546.884244,439.916105 L545.795105,442.017731 L547.564957,443.305825 L549.470951,442.492292 L553.895581,435.84844 L555.733504,435.509468 L555.733504,438.695805 L557.435285,438.695805 L559.205137,441.271993 L558.047926,444.051564 L557.094929,446.492162 L557.911783,448.864967 L561.315345,450.085266 L563.357482,447.305695 L566.624901,445.407452 L566.624901,444.119358 L571.117602,444.119358 L576.01873,442.424498 L577.244012,440.051694 L579.490363,440.051694 L580.715645,437.5433 L584.86799,436.661973 L584.86799,434.628141 L589.156477,434.628141 L591.607041,436.119618 L594.534104,434.628141 L594.670246,434.628141 L594.397962,431.509598 L594.397962,427.645317 L594.397962,427.645317 Z" id="Path"></path>
                    <polygon id="Path" points="514.414269 348.461446 521.561748 347.037763 523.876169 344.122604 528.232728 343.241276 530.00258 340.326117 539.804837 340.326117 544.637894 337.817723 550.083592 333.207704 552.874513 329.072245 552.874513 321.275887 551.989587 318.225139 549.539022 316.259101 548.517954 313.47953 550.560091 312.191437 552.874513 310.293193 552.874513 305.954351 555.120863 302.157864 556.686501 297.615638 555.937718 294.090329 554.167866 289.819281 551.785373 287.243094 548.790239 285.616028 548.790239 279.514531 549.879379 277.684082 551.513088 275.243483 551.513088 271.853763 554.099795 270.497874 558.184068 270.497874 560.362348 268.464042 561.723772 264.938733 561.723772 261.684601 560.770775 258.769442 558.660567 255.583104 556.07386 255.583104 552.874513 254.566188 552.874513 252.464561 556.210003 250.159551 559.477422 248.939252 560.566561 246.973214 557.639498 246.769831 557.639498 244.193643 556.958786 241.68525 554.576293 240.125979 552.602228 244.329232 549.334809 244.668204 546.952316 246.769831 540.417478 246.769831 538.715697 248.871458 535.448278 250.634112 532.180859 248.939252 528.91344 251.718823 527.21166 256.261048 525.03338 261.481218 519.179255 261.21004 517.27326 264.667555 514.073913 264.938733 514.073913 267.51492 515.231124 271.243613 512.984773 276.12481 511.827562 278.768792 510.670351 282.022924 506.790291 285.277056 505.496938 288.531187 506.109579 292.25988 508.083645 294.56489 509.240855 297.819022 508.083645 300.598592 507.947502 304.666257 505.905365 308.937305 505.905365 315.106596 505.905365 320.191177 505.905365 326.157085 507.062576 332.190787 506.518006 336.597424 503.182516 345.410697 503.182516 351.579989 505.088511 353.13926 508.560143 351.918961"></polygon>
                    <polygon id="Path" points="585.957129 399.985197 589.632976 399.985197 589.632976 389.816036 588.952263 386.087343 587.250483 385.748371 585.140275 387.714409 582.417425 386.426315 578.197009 383.850128 576.835585 380.121435 573.772379 379.104519 573.636237 376.935098 577.380155 376.935098 579.626505 374.155527 580.103004 368.799769 583.23428 368.799769 583.710779 364.799899 582.417425 362.766066 582.553568 359.308551 586.910126 359.511935 588.884192 363.715188 592.287753 364.66431 594.534104 362.766066 597.733452 361.139 596.440098 357.545897 596.440098 353.884999 594.602175 353.884999 591.675112 352.800288 590.517902 349.13939 587.931195 349.13939 580.103004 348.597035 577.992796 345.410697 574.589234 343.173482 570.845317 341.546416 571.662171 338.088901 576.291015 334.22462 578.128938 331.173871 576.699442 327.106207 576.699442 322.902953 573.976593 320.462355 571.662171 322.69957 568.394752 322.69957 565.127334 322.69957 561.383416 321.208093 555.461219 320.258971 552.261871 319.106466 552.874513 321.275887 552.874513 329.072245 550.083592 333.207704 544.637894 337.817723 539.804837 340.326117 530.00258 340.326117 528.232728 343.241276 523.876169 344.122604 521.561748 347.037763 514.414269 348.461446 508.560143 351.918961 505.088511 353.13926 505.565009 353.546027 505.837294 357.478102 508.083645 361.206795 509.104713 365.477843 513.120915 369.681096 513.93777 374.426705 511.69142 376.935098 515.094981 376.935098 517.341332 379.240108 519.111184 383.850128 523.3316 386.561904 530.342936 390.155008 535.584421 391.171924 542.391543 391.171924 548.85831 391.171924 551.853444 391.849868 556.278074 389.951625 556.278074 395.781944 558.932852 399.985197 561.859915 401.476674 564.514693 399.849608 568.530895 400.79873 568.530895 403.578301 574.521163 405.476544 578.265081 403.374918 579.286149 405.476544 582.213212 407.10361 582.213212 407.10361 582.553568 403.849479"></polygon>
                    <polygon id="Path" points="608.692919 262.023573 608.692919 261.006657 609.441703 258.90503 608.965204 257.616937 607.671851 256.938992 605.493572 256.938992 605.085144 255.650899 603.859862 254.837366 603.247221 251.854412 603.247221 251.312056 605.833928 250.837496 606.174284 248.939252 604.404432 248.396897 603.927933 247.176597 602.770723 246.769831 600.932799 246.769831 599.84366 246.973214 599.84366 248.057925 598.482235 248.939252 598.482235 250.023963 597.120811 250.362935 597.120811 251.312056 597.66538 252.328973 597.120811 253.345889 597.801523 253.956038 597.801523 255.176338 598.482235 256.464432 597.529238 257.006787 595.691315 257.345759 594.670246 257.616937 593.717249 259.311797 593.717249 260.396507 593.717249 262.294751 594.87446 263.379461 595.146745 264.938733 594.534104 266.498004 594.193748 268.328453 593.036537 268.870809 593.036537 272.057146 593.513036 273.548623 594.806389 274.904511 597.597309 275.175689 598.073808 275.921427 600.932799 275.921427 602.702651 275.65025 606.106213 276.395988 605.017073 275.243483 604.676717 273.141856 605.833928 270.904641 607.739922 268.12507 609.033276 264.938733 610.735056 264.531966 610.190486 262.633723"></polygon>
                    <polygon id="Path" points="594.602175 250.837496 592.491967 250.837496 592.832323 251.854412 592.491967 253.142506 593.717249 254.227216 594.397962 254.227216 594.738318 255.989871 594.397962 258.091497 594.670246 257.616937 595.691315 257.345759 597.529238 257.006787 598.482235 256.464432 597.801523 255.176338 597.801523 253.956038 597.120811 253.345889 597.66538 252.328973 597.120811 251.312056 597.120811 250.362935 597.256953 250.091757 595.759386 250.159551"></polygon>
                    <polygon id="Path" points="599.162947 244.193643 598.20995 242.498783 599.162947 241.481867 601.068942 240.397156 601.885797 238.837885 601.885797 237.278614 600.252087 237.278614 598.278022 236.532875 592.491967 236.939642 592.832323 235.312576 592.491967 234.29566 590.585973 232.939771 588.884192 231.719472 587.522768 232.126238 585.684844 234.431248 584.187277 235.38037 584.187277 236.397286 582.893924 237.956558 581.396357 240.397156 578.945793 240.871717 576.699442 242.2954 576.699442 244.193643 579.218078 246.498653 579.013864 247.99013 577.856653 248.939252 575.47416 249.956168 573.159738 250.769701 571.934456 252.60015 571.934456 255.854282 572.955525 258.498264 574.589234 260.396507 577.039798 261.481218 579.89879 261.887984 581.464428 260.667685 584.051135 260.938863 586.978198 262.972695 589.496833 262.226956 592.491967 260.057535 593.717249 260.464302 593.717249 260.396507 593.717249 259.311797 594.397962 258.091497 594.738318 255.989871 594.397962 254.227216 593.717249 254.227216 592.491967 253.142506 592.832323 251.854412 592.491967 250.837496 594.602175 250.837496 595.759386 250.159551 597.869594 250.159551 598.482235 250.023963 598.482235 248.939252 599.84366 248.057925 599.84366 246.973214 600.728586 246.837625 599.162947 245.278354"></polygon>
                    <polygon id="Path" points="578.877722 319.919999 577.516297 318.767494 576.01873 316.123512 576.01873 313.615119 577.10787 311.242315 579.081935 310.564371 580.715645 309.072894 581.872856 307.7848 582.825853 305.750968 582.825853 304.666257 583.914992 303.717135 584.731847 301.344331 585.276417 299.717265 588.271551 299.242704 588.271551 297.412255 588.543836 296.25975 591.470899 296.25975 592.832323 295.107245 593.308822 293.412385 595.895529 292.192086 596.372027 290.158253 601.817725 290.158253 602.906865 289.480309 605.017073 289.480309 605.765857 287.310888 606.923067 286.158383 608.012207 285.616028 608.012207 284.734701 608.692919 284.734701 609.577845 282.294102 609.373632 282.226307 608.760991 279.514531 607.127281 277.412904 606.106213 276.395988 602.702651 275.65025 600.932799 275.921427 598.073808 275.921427 597.597309 275.175689 594.806389 274.904511 593.513036 273.548623 593.036537 272.057146 593.036537 268.870809 594.193748 268.328453 594.534104 266.498004 595.146745 264.938733 594.87446 263.379461 593.717249 262.294751 593.717249 260.464302 592.491967 260.057535 589.496833 262.226956 586.978198 262.972695 584.051135 260.938863 581.464428 260.667685 579.89879 261.887984 577.039798 261.481218 574.589234 260.396507 572.955525 258.498264 571.934456 255.854282 571.934456 252.60015 573.159738 250.769701 575.47416 249.956168 577.856653 248.939252 579.013864 247.99013 579.218078 246.498653 576.699442 244.193643 576.699442 242.2954 578.945793 240.871717 581.396357 240.397156 582.893924 237.956558 584.187277 236.397286 584.187277 235.38037 585.684844 234.431248 587.522768 232.126238 588.884192 231.719472 590.585973 232.939771 592.491967 234.29566 592.832323 235.312576 592.491967 236.939642 598.278022 236.532875 600.252087 237.278614 601.885797 237.278614 601.885797 238.837885 601.068942 240.397156 599.162947 241.481867 598.20995 242.498783 599.162947 244.193643 599.162947 245.278354 600.728586 246.837625 600.932799 246.769831 602.770723 246.769831 603.927933 247.176597 604.404432 248.396897 606.174284 248.939252 605.833928 250.837496 603.247221 251.312056 603.247221 251.854412 603.859862 254.837366 605.085144 255.650899 605.493572 256.938992 607.671851 256.938992 608.965204 257.616937 609.441703 258.90503 608.692919 261.006657 608.692919 262.023573 610.190486 262.633723 610.735056 264.531966 611.143484 264.396378 615.90847 267.175948 618.835532 264.260789 622.919806 263.921817 626.323367 262.294751 628.569718 260.057535 629.522715 254.701777 630.33957 251.786617 634.491915 248.939252 631.156425 242.90555 630.203427 239.312446 625.846869 239.312446 623.804732 237.549791 619.584316 235.787137 619.584316 233.143155 620.877669 229.753434 623.872803 226.838274 623.872803 226.838274 611.960338 225.617975 610.666985 221.821488 610.93927 217.821618 611.960338 214.838664 607.671851 211.381149 604.812859 205.55083 600.252087 203.178025 595.282887 206.228774 591.811255 208.262606 589.90526 216.262347 583.574636 216.262347 580.103004 219.787656 576.903656 217.211468 570.436889 221.821488 569.007394 225.143414 565.127334 224.736648 565.127334 217.821618 563.561695 214.364103 560.362348 214.838664 556.278074 220.668983 554.712436 224.940031 551.717302 226.906069 552.125729 234.227865 554.712436 239.787007 554.576293 240.125979 556.958786 241.68525 557.639498 244.193643 557.639498 246.769831 560.566561 246.973214 559.477422 248.939252 556.210003 250.159551 552.874513 252.464561 552.874513 254.566188 556.07386 255.583104 558.660567 255.583104 560.770775 258.769442 561.723772 261.684601 561.723772 264.938733 560.362348 268.464042 558.184068 270.497874 554.099795 270.497874 551.513088 271.853763 551.513088 275.243483 549.879379 277.684082 548.790239 279.514531 548.790239 285.616028 551.785373 287.243094 554.167866 289.819281 555.937718 294.090329 556.686501 297.615638 555.120863 302.157864 552.874513 305.954351 552.874513 310.293193 550.560091 312.191437 548.517954 313.47953 549.539022 316.259101 551.989587 318.225139 552.261871 319.106466 555.461219 320.258971 561.383416 321.208093 565.127334 322.69957 568.394752 322.69957 571.662171 322.69957 573.976593 320.462355 576.631371 322.767364 578.605437 322.021626"></polygon>
                    <polygon id="Path" points="593.172679 345.13952 595.214816 342.359949 597.66538 342.359949 600.38823 341.61421 601.885797 343.715837 603.859862 346.969969 605.833928 349.410568 608.14835 348.190268 610.666985 349.410568 613.73019 347.512324 616.044612 345.478492 618.903604 345.885258 619.380102 347.851296 620.94574 349.13939 622.375236 349.13939 624.281231 345.342903 626.119154 344.258192 628.501647 341.071855 630.067285 337.207574 633.811202 336.394041 633.811202 335.851686 636.193695 335.851686 638.984616 329.072245 638.984616 326.157085 643.205032 326.157085 649.535656 317.886167 653.279574 316.123512 653.279574 312.530409 655.934352 312.530409 657.227705 310.360987 658.316844 306.700089 661.448121 304.123902 666.008893 304.123902 668.731742 299.988443 671.999161 299.242704 672.47566 300.86977 676.219577 300.86977 677.989429 299.242704 677.989429 296.463133 676.423791 295.17504 678.125572 294.225918 677.853287 291.446347 679.350854 290.836197 679.350854 288.87016 673.088301 288.734571 671.522663 287.107505 669.752811 287.446477 667.914888 289.887076 662.537261 289.548104 661.92462 287.717655 659.814411 287.243094 658.180702 288.26001 656.683135 286.632944 654.096428 284.666906 650.692867 284.870289 643.68153 288.124421 643.205032 291.64973 639.461114 294.971656 638.031619 298.293582 635.376841 299.581676 629.863071 299.581676 627.957077 298.225788 626.45951 295.514012 627.140222 289.073543 628.093219 286.768533 628.229362 285.34485 626.45951 284.802495 624.8258 282.226307 622.239094 282.090719 620.741527 283.988962 614.410903 284.531317 613.594048 286.768533 611.347697 283.03984 609.577845 282.294102 608.692919 284.734701 608.012207 284.734701 608.012207 285.616028 606.923067 286.158383 605.765857 287.310888 605.017073 289.480309 602.906865 289.480309 601.817725 290.158253 596.372027 290.158253 595.895529 292.192086 593.308822 293.412385 592.832323 295.107245 591.470899 296.25975 588.543836 296.25975 588.271551 297.412255 588.271551 299.242704 585.276417 299.717265 584.731847 301.344331 583.914992 303.717135 582.825853 304.666257 582.825853 305.750968 581.872856 307.7848 580.715645 309.072894 579.081935 310.564371 577.10787 311.242315 576.01873 313.615119 576.01873 316.123512 577.516297 318.767494 578.877722 319.919999 578.605437 322.021626 576.631371 322.767364 576.699442 322.902953 576.699442 327.106207 578.128938 331.173871 576.291015 334.22462 571.662171 338.088901 570.845317 341.546416 574.589234 343.173482 577.992796 345.410697 580.103004 348.597035 587.931195 349.13939 590.517902 349.13939 590.585973 349.274979 592.355825 348.122474"></polygon>
                    <polygon id="Path" points="634.355772 433.272253 638.09969 429.136794 638.031619 424.120007 638.848473 421.476025 641.367109 421.882792 643.205032 421.001464 644.294172 419.171015 643.273103 416.9338 643.409246 415.23894 645.31524 414.425407 647.289306 412.052602 647.901947 408.934059 646.880878 406.154489 644.021887 405.205367 642.388177 404.052862 639.801471 403.578301 637.350906 405.40875 634.7642 405.40875 634.083487 404.391834 635.104556 402.832562 635.921411 400.934319 635.921411 398.832692 633.743131 397.341215 632.245564 397.612393 629.863071 396.866654 629.25043 394.697233 627.616721 393.748112 626.936008 392.121046 626.867937 389.477064 628.365504 388.731325 630.747997 388.256764 631.428709 386.561904 631.700994 385.002633 630.747997 384.121305 629.318501 383.714539 628.637789 382.765417 629.318501 381.545118 631.088353 381.88409 633.811202 381.951884 634.7642 383.443361 636.806336 384.121305 638.64426 382.155267 638.64426 379.240108 637.759334 376.66392 636.057553 374.223322 633.198561 373.952144 631.428709 374.901266 630.543784 376.596126 630.067285 378.290986 628.229362 378.96893 624.349302 378.96893 624.349302 377.138481 623.66859 375.714799 623.66859 374.426705 623.192091 371.714928 621.966809 371.172573 620.469242 372.460667 618.631319 371.511545 618.086749 369.545507 619.448173 367.986236 620.265028 366.35917 620.877669 364.393132 621.422239 362.969449 620.877669 361.274589 619.380102 361.613561 617.474108 362.494889 615.227757 362.020328 614.342831 359.44414 613.049478 357.74928 610.530843 356.528981 606.582711 356.122214 604.608646 355.579859 604.608646 353.884999 602.770723 352.935877 601.613512 351.173222 599.639446 351.173222 598.958734 350.020717 595.759386 349.478362 594.466033 347.986885 592.560038 347.512324 592.355825 348.122474 590.585973 349.274979 591.675112 352.800288 594.602175 353.884999 596.440098 353.884999 596.440098 357.545897 597.733452 361.139 594.534104 362.766066 592.287753 364.66431 588.884192 363.715188 586.910126 359.511935 582.553568 359.308551 582.417425 362.766066 583.710779 364.799899 583.23428 368.799769 580.103004 368.799769 579.626505 374.155527 577.380155 376.935098 573.636237 376.935098 573.772379 379.104519 576.835585 380.121435 578.197009 383.850128 582.417425 386.426315 585.140275 387.714409 587.250483 385.748371 588.952263 386.087343 589.632976 389.816036 589.632976 399.985197 585.957129 399.985197 582.553568 403.849479 582.213212 407.10361 584.32342 409.883181 588.74805 410.832303 591.675112 412.459369 591.675112 414.560995 589.496833 415.849089 588.611907 419.23881 590.722115 421.340436 591.743184 425.408101 594.397962 427.645317 594.397962 431.441803 594.670246 434.560346 598.346093 434.560346 601.205084 431.441803 601.205084 429.136794 604.200218 429.136794 605.97007 430.289298 605.97007 432.729897 604.26829 435.306085 604.404432 437.882272 606.991139 437.746684 609.237489 435.984029 610.530843 432.390925 612.981407 431.441803 614.887401 432.255336 616.861467 435.441674 618.359034 436.594179 625.642655 436.594179 627.752863 438.560216 627.684792 438.7636 629.658858 437.475506"></polygon>
                    <polygon id="Path" points="651.033223 404.730806 653.960286 407.442582 656.206636 407.442582 659.950554 409.205237 662.264976 410.357742 664.987825 407.442582 666.553463 406.154489 666.553463 402.900357 668.459457 401.476674 669.276312 399.646225 669.276312 396.595477 672.679874 396.595477 673.5648 393.8837 677.581002 396.053122 682.141774 399.375048 682.550202 399.375048 683.0267 397.002243 683.639341 394.629439 681.733347 393.341345 681.256848 391.917663 681.256848 389.951625 680.031566 387.849998 676.90029 385.477194 672.679874 384.392483 671.522663 380.053641 669.888953 379.240108 667.778745 379.240108 665.464323 378.223192 663.08183 376.324948 663.08183 370.35904 660.563195 368.596386 660.154768 365.342254 658.04456 363.105038 653.61993 352.05455 650.352511 347.376735 647.901947 346.292025 638.508117 343.783632 638.64426 341.682005 633.811202 341.682005 633.811202 336.394041 630.067285 337.207574 628.501647 341.071855 626.119154 344.258192 624.281231 345.342903 622.375236 349.13939 620.94574 349.13939 619.380102 347.851296 618.903604 345.885258 616.044612 345.478492 613.73019 347.512324 610.666985 349.410568 608.14835 348.190268 605.833928 349.410568 603.859862 346.969969 601.885797 343.715837 600.38823 341.61421 597.66538 342.359949 595.214816 342.359949 593.172679 345.13952 592.560038 347.512324 594.466033 347.986885 595.759386 349.478362 598.958734 350.020717 599.639446 351.173222 601.613512 351.173222 602.770723 352.935877 604.608646 353.884999 604.608646 355.579859 606.582711 356.122214 610.530843 356.528981 613.049478 357.74928 614.342831 359.44414 615.227757 362.020328 617.474108 362.494889 619.380102 361.613561 620.877669 361.274589 621.422239 362.969449 620.877669 364.393132 620.265028 366.35917 619.448173 367.986236 618.086749 369.545507 618.631319 371.511545 620.469242 372.460667 621.966809 371.172573 623.192091 371.714928 623.66859 374.426705 623.66859 375.714799 624.349302 377.138481 624.349302 378.96893 628.229362 378.96893 630.067285 378.290986 630.543784 376.596126 631.428709 374.901266 633.198561 373.952144 636.057553 374.223322 637.759334 376.66392 638.64426 379.240108 638.64426 382.155267 636.806336 384.121305 634.7642 383.443361 633.811202 381.951884 631.088353 381.88409 629.318501 381.545118 628.637789 382.765417 629.318501 383.714539 630.747997 384.121305 631.700994 385.002633 631.428709 386.561904 630.747997 388.256764 628.365504 388.731325 626.867937 389.477064 626.936008 392.121046 627.616721 393.748112 629.25043 394.697233 629.863071 396.866654 632.245564 397.612393 633.743131 397.341215 635.921411 398.832692 635.921411 400.934319 635.104556 402.832562 634.083487 404.391834 634.7642 405.40875 637.350906 405.40875 639.801471 403.578301 642.388177 404.052862 644.021887 405.205367 646.880878 406.154489 647.901947 404.730806"></polygon>
                    <polygon id="Path" points="669.072098 408.052732 671.318449 409.001854 672.135304 410.425536 674.041298 411.374658 674.109369 411.306864 676.696076 409.40862 680.439994 408.459499 683.0267 406.968022 682.414059 403.985067 679.486996 400.79873 679.623139 399.375048 682.48213 399.71402 682.550202 399.375048 677.581002 396.053122 673.5648 393.8837 672.679874 396.595477 669.276312 396.595477 669.276312 399.646225 668.459457 401.476674 666.553463 402.900357 666.553463 406.154489 666.349249 406.357872 667.914888 406.764638"></polygon>
                    <path d="M701.610145,413.40849 L700.452935,410.01877 L696.572875,410.696714 L696.913231,409.205237 L699.704151,408.391704 L699.023439,406.629049 L696.777088,406.290077 L692.897028,405.815517 L691.127176,407.442582 L689.629609,410.493331 L688.812755,412.255985 L688.676612,414.357612 L685.885692,414.832173 L685.409193,417.001594 L685.273051,419.035426 L683.0267,421.950586 L681.256848,421.950586 L679.486996,420.052343 L675.879221,417.069389 L673.292515,417.408361 L670.025096,419.984548 C665.940822,423.374269 665.123967,419.984548 665.123967,419.984548 L664.783611,417.882921 C668.527529,419.171015 669.208241,416.730417 669.208241,416.730417 L669.68474,414.154229 L674.177441,411.306864 L672.339517,410.289948 L671.522663,408.866265 L669.276312,407.984938 L668.119101,406.696844 L666.485392,406.290077 L665.123967,407.374788 L662.401118,410.289948 L660.154768,409.137443 L656.41085,407.374788 L654.1645,407.374788 L651.237437,404.663012 L648.174232,404.663012 L647.085092,406.086694 L647.085092,406.086694 L648.174232,408.866265 L647.493519,412.052602 L645.519454,414.425407 L643.545388,415.23894 L643.477317,416.9338 L644.430314,419.171015 L643.341174,420.93367 L641.503251,421.814997 L638.984616,421.408231 L638.167761,424.052213 L638.235832,429.068999 L634.491915,433.204458 L629.795,437.407712 L627.820934,438.695805 L626.595652,441.610965 L627.889006,445.67863 L631.905208,449.610705 L634.015416,455.441025 L634.015416,458.966334 L637.963547,458.017212 L638.916545,463.98312 L641.503251,466.89828 L641.503251,472.728599 L645.85981,473.067571 L649.944083,472.118449 L652.258505,468.999907 L655.049426,468.999907 L656.002423,473.270954 L659.405984,474.152282 L663.013759,472.050655 L665.940822,472.864188 L667.166104,476.253908 L668.867885,476.253908 L669.68474,472.999777 C674.381654,470.423589 670.365452,468.321962 670.365452,468.321962 L671.522663,463.98312 L673.496728,461.067961 L675.130438,459.169717 L675.26658,461.339138 L676.559934,463.305176 L679.010498,463.305176 L679.282783,460.864577 L679.555068,457.610446 L681.120706,456.322352 L682.005632,453.407192 L683.979697,454.559697 L683.979697,451.508949 L681.869489,448.254817 L681.733347,445.814218 L683.843555,445.814218 L684.592338,444.119358 L684.183911,441.136404 L682.073703,440.322871 L682.073703,438.560216 L680.099637,438.424628 L680.099637,435.509468 L682.141774,435.373879 L683.0267,437.000945 L684.66041,437.136534 L684.66041,440.051694 L688.404327,440.051694 L690.514535,438.492422 L690.650678,436.45859 L688.54047,435.509468 L687.723615,429.814738 L686.226048,428.391055 L686.566404,426.763989 L688.336256,427.577522 L690.922963,428.458849 L692.42053,426.763989 L692.080173,424.526774 L694.054239,424.526774 L695.551806,419.577782 L699.295724,420.120137 L700.589077,417.679538 L700.248721,414.425407 L701.610145,413.40849 Z" id="Path"></path>
                </g>
            </g>
        </g>
    </g>
</svg>