<?xml version="1.0" encoding="UTF-8"?>
<svg width="42px" height="46px" viewBox="0 0 42 46" version="1.1" xmlns="http://www.w3.org/2000/svg" xmlns:xlink="http://www.w3.org/1999/xlink">
    <!-- Generator: Sketch 64 (93537) - https://sketch.com -->
    <title>business-contact-87</title>
    <desc>Created with Sketch.</desc>
    <g id="产品" stroke="none" stroke-width="1" fill="none" fill-rule="evenodd">
        <g id="基础服务-CDN✅" transform="translate(-1389.000000, -847.000000)" stroke-width="2">
            <g id="产品介绍-2" transform="translate(372.000000, 738.000000)">
                <g id="编组-23" transform="translate(0.000000, 80.000000)">
                    <g id="编组-29" transform="translate(1010.000000, 24.000000)">
                        <g id="business-contact-87" transform="translate(8.000000, 6.000000)">
                            <line x1="24" y1="36" x2="30" y2="36" id="路径" stroke="#00AAE7" stroke-linecap="square"></line>
                            <path d="M9.001,11.856 C9.959,12.078 10.948,12.211 11.971,12.211 C15.891,12.211 19.43,10.596 21.971,8 C24.295,10.373 27.476,11.92 31,12.169" id="路径" stroke="#333333"></path>
                            <path d="M9,12 C9,6 13.373,0 20,0 C26.627,0 31,6 31,12 C31,21 25,26 20,26 C15,26 9,21 9,12 Z" id="路径" stroke="#333333" stroke-linecap="square"></path>
                            <path d="M15.48,24.712 L1.942,32.835 C0.737,33.558 0,34.86 0,36.265 L0,44 L40,44 L40,36.265 C40,34.86 39.263,33.558 38.058,32.835 L24.52,24.712" id="路径" stroke="#333333"></path>
                            <path d="M9,12 C9,12 9.208,19.792 3,24 C4,28 8.177,29.094 8.177,29.094" id="路径" stroke="#333333"></path>
                            <path d="M31,12 C31,12 30.792,19.792 37,24 C36,28 31.823,29.094 31.823,29.094" id="路径" stroke="#333333"></path>
                        </g>
                    </g>
                </g>
            </g>
        </g>
    </g>
</svg>