<?xml version="1.0" encoding="UTF-8"?>
<svg width="46px" height="45px" viewBox="0 0 46 45" version="1.1" xmlns="http://www.w3.org/2000/svg" xmlns:xlink="http://www.w3.org/1999/xlink">
    <!-- Generator: Sketch 64 (93537) - https://sketch.com -->
    <title>distance</title>
    <desc>Created with Sketch.</desc>
    <g id="产品" stroke="none" stroke-width="1" fill="none" fill-rule="evenodd" stroke-linecap="square">
        <g id="基础服务-CDN✅" transform="translate(-484.000000, -848.000000)" stroke-width="2">
            <g id="产品介绍-2" transform="translate(372.000000, 738.000000)">
                <g id="编组-23" transform="translate(0.000000, 80.000000)">
                    <g id="编组-28" transform="translate(107.000000, 24.000000)">
                        <g id="distance" transform="translate(6.000000, 7.000000)">
                            <circle id="椭圆形" stroke="#333333" cx="8" cy="8" r="2"></circle>
                            <path d="M20,38 C13.372583,38 8,32.627417 8,26" id="路径" stroke="#00AAE7"></path>
                            <circle id="椭圆形" stroke="#333333" cx="32" cy="23" r="4"></circle>
                            <path d="M16,8 C16,12.418 8,20 8,20 C8,20 0,12.418 0,8 C0,3.581722 3.581722,0 8,0 C12.418278,0 16,3.581722 16,8 Z" id="路径" stroke="#333333"></path>
                            <path d="M44,23.0000002 C44,29.627 32,42.0000002 32,42.0000002 C32,42.0000002 20,29.627 20,23.0000002 C20,16.3725831 25.3725831,11.0000002 32,11.0000002 C38.6274169,11.0000002 44,16.3725831 44,23.0000002 Z" id="路径" stroke="#333333"></path>
                        </g>
                    </g>
                </g>
            </g>
        </g>
    </g>
</svg>