<svg width="64" height="64" viewBox="0 0 64 64" fill="none" xmlns="http://www.w3.org/2000/svg">
<path d="M43.0005 31C42.6581 31.002 42.3166 31.0331 41.9795 31.093C41.8792 28.3429 40.7025 25.7423 38.7031 23.8515C36.7036 21.9607 34.0413 20.931 31.2899 20.9844C28.5385 21.0378 25.9182 22.1699 23.9936 24.1368C22.0689 26.1038 20.994 28.7481 21.0005 31.5C21.0047 32.0505 21.0519 32.5998 21.1415 33.143C20.4528 32.9748 19.7362 32.9549 19.0392 33.0848C18.3422 33.2147 17.6809 33.4913 17.099 33.8962C16.5171 34.3012 16.0279 34.8253 15.664 35.4337C15.3001 36.0421 15.0698 36.721 14.9882 37.4253C14.9067 38.1295 14.9759 38.8431 15.1912 39.5185C15.4065 40.194 15.7629 40.816 16.2369 41.3432C16.7109 41.8704 17.2916 42.2907 17.9405 42.5764C18.5894 42.862 19.2916 43.0064 20.0005 43H43.0005C44.5918 43 46.1179 42.3679 47.2431 41.2426C48.3683 40.1174 49.0005 38.5913 49.0005 37C49.0005 35.4087 48.3683 33.8826 47.2431 32.7574C46.1179 31.6321 44.5918 31 43.0005 31Z" stroke="#00AAE7" stroke-width="2" stroke-miterlimit="10" stroke-linecap="square"/>
<path d="M56 3H8V61H56V3Z" stroke="#333333" stroke-width="2" stroke-miterlimit="10" stroke-linecap="square"/>
</svg>
