<svg width="64" height="64" viewBox="0 0 64 64" fill="none" xmlns="http://www.w3.org/2000/svg">
<path d="M48.0442 38.1719L51.8532 41.9799C52.5893 42.7166 53.0028 43.7154 53.0028 44.7569C53.0028 45.7983 52.5893 46.7971 51.8532 47.5339V47.5339C51.1166 48.2705 50.1175 48.6843 49.0757 48.6843C48.0339 48.6843 47.0349 48.2705 46.2982 47.5339L42.4912 43.7279" stroke="#00AAE7" stroke-width="2" stroke-miterlimit="10" stroke-linecap="square"/>
<path d="M36.974 49.2441L38.761 51.0321C39.4923 51.7635 39.9031 52.7554 39.9031 53.7896C39.9031 54.8239 39.4923 55.8158 38.761 56.5471V56.5471C38.3988 56.9102 37.9684 57.198 37.4946 57.394C37.0207 57.5899 36.5128 57.6903 36 57.6891" stroke="#00AAE7" stroke-width="2" stroke-miterlimit="10" stroke-linecap="square"/>
<path d="M7 29V23L3 19L17 5L20 8H25" stroke="#00AAE7" stroke-width="2" stroke-miterlimit="10" stroke-linecap="square"/>
<path d="M12.6479 40.3668L11.6183 41.3963C10.0844 42.9303 10.0842 45.4172 11.618 46.951C13.1518 48.4848 15.6387 48.4846 17.1727 46.9506L18.2022 45.9211C19.7362 44.3871 19.7363 41.9002 18.2026 40.3664C16.6688 38.8326 14.1819 38.8328 12.6479 40.3668Z" stroke="#333333" stroke-width="2" stroke-miterlimit="10" stroke-linecap="square"/>
<path d="M24.3424 50.8158L23.8163 51.3419C22.2933 52.8649 22.2933 55.3343 23.8163 56.8573C25.3394 58.3804 27.8087 58.3804 29.3317 56.8573L29.8578 56.3312C31.3809 54.8082 31.3809 52.3389 29.8578 50.8158C28.3348 49.2928 25.8654 49.2928 24.3424 50.8158Z" stroke="#333333" stroke-width="2" stroke-miterlimit="10" stroke-linecap="square"/>
<path d="M12.6305 40.3824L12.0505 40.9624C11.687 41.3267 11.2531 41.6132 10.7753 41.8045C10.2975 41.9957 9.78583 42.0878 9.27133 42.0751C8.75683 42.0624 8.2503 41.9451 7.78256 41.7304C7.31481 41.5158 6.89564 41.2082 6.55053 40.8264V40.8264C5.90342 40.1106 5.55285 39.1755 5.56993 38.2107C5.58702 37.2459 5.97048 36.3238 6.64253 35.6314L7.22253 35.0384C7.92182 34.3229 8.87504 33.9121 9.87533 33.8951C10.8756 33.878 11.8423 34.2562 12.5655 34.9474V34.9474C12.9319 35.297 13.2247 35.7162 13.4267 36.1805C13.6287 36.6449 13.7359 37.1449 13.742 37.6512C13.748 38.1575 13.6528 38.66 13.462 39.129C13.2711 39.598 12.9884 40.0242 12.6305 40.3824V40.3824Z" stroke="#333333" stroke-width="2" stroke-miterlimit="10" stroke-linecap="square"/>
<path d="M18.2248 45.9021L17.9335 46.1935C16.4105 47.7165 16.4105 50.1858 17.9335 51.7089C19.4565 53.2319 21.9259 53.2319 23.4489 51.7089L23.7403 51.4176C25.2633 49.8945 25.2633 47.4252 23.7403 45.9021C22.2172 44.3791 19.7479 44.3791 18.2248 45.9021Z" stroke="#333333" stroke-width="2" stroke-miterlimit="10" stroke-linecap="square"/>
<path d="M45.5375 46.7754C45.8997 47.1375 46.187 47.5675 46.3831 48.0407C46.5791 48.514 46.68 49.0212 46.68 49.5334C46.68 50.0456 46.5791 50.5528 46.3831 51.026C46.187 51.4993 45.8997 51.9292 45.5375 52.2914V52.2914C44.8061 53.0226 43.8142 53.4335 42.78 53.4335C41.7457 53.4335 40.7538 53.0226 40.0225 52.2914L38.7305 50.9994" stroke="#00AAE7" stroke-width="2" stroke-miterlimit="10" stroke-linecap="square"/>
<path d="M50.7756 40.8998C51.1396 41.2633 51.5736 41.5491 52.0513 41.7399C52.529 41.9307 53.0405 42.0225 53.5547 42.0098C54.069 41.9971 54.5753 41.8801 55.043 41.6659C55.5107 41.4517 55.93 41.1448 56.2756 40.7638V40.7638C56.9227 40.048 57.2733 39.1129 57.2562 38.1481C57.2391 37.1833 56.8556 36.2612 56.1836 35.5688L43.4756 22.5098" stroke="#00AAE7" stroke-width="2" stroke-miterlimit="10"/>
<path d="M57.0002 29V23L61.0002 19L47.0002 5L44.0002 8H37.4471C35.8622 7.99991 34.2928 8.31205 32.8285 8.91859C31.3642 9.52513 30.0338 10.4142 28.9132 11.535L19.7072 21.106C19.1165 21.7091 18.7713 22.5104 18.7388 23.354C18.7064 24.1976 18.9888 25.0231 19.5314 25.6699C20.0739 26.3166 20.8376 26.7385 21.6739 26.8533C22.5103 26.9681 23.3594 26.7677 24.0562 26.291L33.8561 19.973C34.7024 20.9326 35.7454 21.6986 36.9143 22.219C38.0831 22.7393 39.3503 23.0018 40.6297 22.9885C41.9091 22.9752 43.1705 22.6865 44.3283 22.142C45.4861 21.5975 46.513 20.8099 47.3392 19.833" stroke="#333333" stroke-width="2" stroke-miterlimit="10" stroke-linecap="square"/>
</svg>
