<svg width="32" height="32" viewBox="0 0 32 32" fill="none" xmlns="http://www.w3.org/2000/svg">
  <path fill-rule="evenodd" clip-rule="evenodd" d="M17.5416 3.5C22.8846 3.5 27.233 7.84843 27.233 13.1914C27.233 15.834 26.1474 18.3667 24.2433 20.1912C24.0465 20.3799 23.9352 20.6407 23.9352 20.9133V26.6406L12.7887 28.3364L12.7888 25.5781C12.7888 25.3129 12.6834 25.0586 12.4959 24.871C12.3083 24.6835 12.054 24.5781 11.7888 24.5781H7.85028V21.5677C7.85028 21.1343 7.57107 20.7502 7.15878 20.6165L5.10135 19.9492L7.77652 13.4241C7.82415 13.3079 7.84947 13.1838 7.85117 13.0583C7.92244 7.77652 12.2431 3.5 17.5416 3.5ZM29.233 13.1914C29.233 6.74386 23.9892 1.5 17.5416 1.5C11.2125 1.5 6.04342 6.55286 5.85556 12.8373L2.84173 20.1884C2.73616 20.4459 2.74268 20.7358 2.85972 20.9883C2.97676 21.2408 3.19374 21.4331 3.45848 21.5189L5.85028 22.2947V25.5781C5.85028 26.1304 6.29799 26.5781 6.85028 26.5781H10.7888L10.7887 29.5C10.7887 29.7915 10.9159 30.0684 11.1369 30.2584C11.358 30.4484 11.651 30.5325 11.9391 30.4886L25.0856 28.4886C25.5741 28.4143 25.9352 27.9942 25.9352 27.5V21.3289C28.0403 19.1559 29.233 16.2355 29.233 13.1914Z" fill="#333333"></path>
  <path d="M13.769 16.076L13.197 17.571C13.119 17.779 13.0107 17.9436 12.872 18.065C12.7333 18.195 12.5297 18.26 12.261 18.26C11.9923 18.26 11.7757 18.1863 11.611 18.039C11.455 17.8916 11.4377 17.6403 11.559 17.285L14.237 9.47196C14.2803 9.3333 14.3713 9.21196 14.51 9.10796C14.6573 8.9953 14.8523 8.93896 15.095 8.93896C15.3377 8.93896 15.5283 8.9953 15.667 9.10796C15.8143 9.21196 15.9097 9.3333 15.953 9.47196L18.657 17.311C18.761 17.6403 18.7307 17.8786 18.566 18.026C18.41 18.182 18.1977 18.26 17.929 18.26C17.6603 18.2686 17.461 18.208 17.331 18.078C17.201 17.9566 17.1013 17.8093 17.032 17.636L16.408 16.076H13.769ZM16.096 14.607L15.095 11.383L14.094 14.607H16.096Z" fill="#00AAE6"></path>
  <path d="M21.3777 17.428C21.3777 17.7053 21.3083 17.9133 21.1697 18.052C21.0397 18.1906 20.823 18.26 20.5197 18.26C20.2163 18.26 19.9997 18.1906 19.8697 18.052C19.7483 17.9133 19.6877 17.7096 19.6877 17.441V9.77097C19.6877 9.2163 19.965 8.93896 20.5197 8.93896C20.797 8.93896 21.0093 8.99963 21.1567 9.12096C21.304 9.2423 21.3777 9.45463 21.3777 9.75797V17.428Z" fill="#00AAE6"></path>
</svg>
