<svg xmlns="http://www.w3.org/2000/svg" width="32" height="32" viewBox="0 0 32 32">
  <g fill="none" fill-rule="evenodd" stroke-linecap="square" stroke-width="2" transform="translate(3 3)">
    <path stroke="#00AAE7" d="M17 2L17 2C18.3300943 1.98676962 19.6095654 2.50930422 20.5501306 3.44986941 21.4906958 4.39043461 22.0132304 5.66990575 22 7L22 7M4 19L4 19C3.98676962 20.3300943 4.50930422 21.6095654 5.44986941 22.5501306 6.39043461 23.4906958 7.66990575 24.0132304 9 24L9 24"/>
    <path stroke="#333" d="M9.77777778,15 L1.22222222,15 C0.547207528,15 0,14.4834055 0,13.8461538 L0,1.15384615 C0,0.516594519 0.547207528,0 1.22222222,0 L9.77777778,0 C10.4527925,0 11,0.516594519 11,1.15384615 L11,13.8461538 C11,14.4834055 10.4527925,15 9.77777778,15 Z"/>
    <line x1="1" x2="10" y1="11" y2="11" stroke="#333"/>
    <path stroke="#333" d="M24.7777778,26 L16.2222222,26 C15.5472075,26 15,25.4834055 15,24.8461538 L15,12.1538462 C15,11.5165945 15.5472075,11 16.2222222,11 L24.7777778,11 C25.4527925,11 26,11.5165945 26,12.1538462 L26,24.8461538 C26,25.4834055 25.4527925,26 24.7777778,26 Z"/>
    <line x1="16" x2="25" y1="22" y2="22" stroke="#333"/>
  </g>
</svg>
