<svg xmlns="http://www.w3.org/2000/svg" width="64" height="64" viewBox="0 0 64 64">
  <g fill="none" fill-rule="evenodd" stroke-width="2">
    <path stroke="#00AAE7" d="M5.58167439,49.0593073 C6.61059958,43.3033627 7.78961415,38.2874103 9.11871809,34.0114501 C10.447822,29.7354899 13.1160909,25.2353967 17.1235248,20.5111708 C16.113532,15.4182727 16.5471435,13.079383 18.4243592,13.4945017 C21.2401828,14.1171796 24.4726581,16.7797402 25.3661518,17.0377527 C26.2596455,17.2957652 34.8810604,16.6897241 36.4765892,17.9227897 C38.072118,19.1558553 41.0619732,22.7498107 42.4058713,23.4931446 C43.7497695,24.2364786 48.5654651,26.96452 52.7488524,25.8417598 C52.7488524,25.8417598 54.1512119,31.1264791 50.0955847,35.4286729 C47.3918332,38.2968022 42.852168,39.777392 36.4765892,39.8704425 C35.0799283,41.5860077 34.730763,43.3179965 35.4290935,45.066409 C36.1274239,46.8148215 38.7394384,52.1469624 43.265137,61.0628317"/>
    <circle cx="32" cy="32" r="31" stroke="#333"/>
  </g>
</svg>
