<svg xmlns="http://www.w3.org/2000/svg" width="60" height="60" viewBox="0 0 60 60">
  <g fill="none" fill-rule="evenodd" stroke-linecap="square" stroke-width="2" transform="translate(1 1)">
    <rect width="12" height="12" x="30" y="30" stroke="#333"/>
    <path stroke="#333" d="M30 30L26 30C23.790861 30 22 28.209139 22 26L22 26C22 23.790861 23.790861 22 26 22L26 22C28.209139 22 30 23.790861 30 26L30 30zM42 30L46 30C48.209139 30 50 28.209139 50 26L50 26C50 23.790861 48.209139 22 46 22L46 22C43.790861 22 42 23.790861 42 26L42 30zM30 42L26 42C23.790861 42 22 43.790861 22 46L22 46C22 48.209139 23.790861 50 26 50L26 50C28.209139 50 30 48.209139 30 46L30 42zM42 42L46 42C48.209139 42 50 43.790861 50 46L50 46C50 48.209139 48.209139 50 46 50L46 50C43.790861 50 42 48.209139 42 46L42 42z"/>
    <rect width="44" height="44" x="14" y="14" stroke="#333" rx="4"/>
    <path stroke="#00AAE7" d="M8,44 L4,44 C1.790861,44 0,42.209139 0,40 L0,4 C0,1.790861 1.790861,0 4,0 L40,0 C42.209139,0 44,1.790861 44,4 L44,8"/>
  </g>
</svg>
