<svg xmlns="http://www.w3.org/2000/svg" width="30" height="65" viewBox="0 0 30 65">
  <g fill="none" fill-rule="evenodd" stroke-width="2" transform="translate(.043 .012)">
    <path stroke="#00AAE7" stroke-linecap="round" stroke-linejoin="round" d="M13.8454244,4.91957049 C13.1560109,12.1468984 12.8829461,20.0826486 13.0262298,28.7268211 C13.1695136,37.3709936 13.6000096,45.8019212 14.317718,54.0196039"/>
    <path stroke="#333" d="M14.077,2.415 L14.2355094,2.72407874 L14.2355094,2.72407874 L14.7181759,3.64424736 C15.3165912,4.76357232 16.1848245,5.65833559 17.0633894,6.54387454 C17.2685954,6.75070952 17.4737638,6.95741501 17.6744302,7.16777749 C18.6137978,8.15238138 19.4927056,9.19294301 20.3066403,10.2841671 C23.3045396,14.299065 25.4280739,18.9316538 26.7050872,23.7720284 C27.1110124,25.2927966 27.3861716,26.8454894 27.524805,28.4034701 C27.9937354,34.1767941 26.8436514,39.8158211 24.361779,44.8708889 C23.4947082,46.6295725 22.4216873,48.2789705 21.1636187,49.7863904 C20.1819154,50.9689432 19.0843609,52.0602918 17.9871127,53.1391182 C17.5908897,53.5273367 17.1456042,53.8643384 16.7019988,54.2032506 C16.4748682,54.3767773 16.2478018,54.550398 16.0258478,54.7293271 C15.3723756,55.2561262 14.9774955,56.0134447 14.9127933,57.0421677 L14.9127933,57.0421677 L14.794,58.329 L14.6626998,55.9837325 L13.7229562,55.2323587 C13.4447467,55.0209772 13.1700846,54.7900349 12.8953028,54.5595047 C12.299315,54.0594965 11.7035155,53.5603828 11.1386931,53.0276368 C6.71253791,48.8513288 3.46744779,43.9411553 1.87253673,38.0145877 C1.43820624,36.3999239 1.1454718,34.7592663 1.05297954,33.0923952 C0.883424026,30.0281389 1.13038179,27.0886704 1.65927889,24.0643563 C1.90767728,22.652338 2.25776554,21.2601108 2.70711638,19.8976156 C4.25456504,15.190028 6.88469726,10.9981113 9.86360099,7.07367567 L9.86360099,7.07367567 L10.4320715,6.5110111 C11.4412825,5.5027343 12.142798,4.80087384 12.8800881,4.13846478 C13.2821609,3.77704107 13.6701717,3.17892286 14.0020623,2.55988261 L14.077,2.415 Z"/>
  </g>
</svg>
