<svg xmlns="http://www.w3.org/2000/svg" width="60" height="60" viewBox="0 0 60 60">
  <g fill="none" fill-rule="evenodd" stroke-width="2">
    <path stroke="#00AAE7" d="M58.7590458,45.0551942 C51.0249395,37.1403671 45.1565413,35.4966242 41.5385243,35.0564738 C37.9205074,34.6163233 29.3082988,35.4966242 31.7774113,37.236122 C34.2465239,38.9756197 33.9472168,42.2356581 33.7684782,42.8591902 C28.847228,42.8591902 25.1363942,41.4754955 22.6359767,38.7081061 C22.2209698,38.8301276 19.8348688,39.9705109 15.4776738,42.1292559 C11.1204787,44.2880009 8.59802434,44.5313123 7.91031081,42.8591902 C7.39477458,40.2065975 8.19701307,37.7524088 10.3170263,35.4966242 C10.3771877,35.4271543 10.6625538,27.8625827 14.7273156,23.6228079 C17.4371569,20.7962914 23.1205221,18.4871904 31.7774113,16.695505 C36.6098654,12.3523794 41.1389301,10.1808167 45.3646055,10.1808167 C48.6750173,10.6472924 42.89834,16.1729768 42.9781607,16.695505 C42.5054054,18.391843 55.3647224,21.6741585 58.7590458,28.0230841"/>
    <rect width="58" height="58" x="1" y="1" stroke="#333" rx="8"/>
  </g>
</svg>
