<svg xmlns="http://www.w3.org/2000/svg" width="62" height="62" viewBox="0 0 62 62">
  <g fill="none" fill-rule="evenodd" stroke-width="2" transform="translate(1 1)">
    <path stroke="#333" stroke-linecap="square" d="M7.464 14.536C6.52603295 13.5982802 5.99906775 12.3263109 5.99906775 11 5.99906775 9.67368912 6.52603295 8.40171976 7.464 7.464M52.536 7.464C53.4739671 8.40171976 54.0009322 9.67368912 54.0009322 11 54.0009322 12.3263109 53.4739671 13.5982802 52.536 14.536"/>
    <path stroke="#333" d="M24.409 5.024C19.971 3.325 17.7 0 11 0 4.92486775 0 0 4.92486775 0 11 0 20 6 20 6 28 5.99911804 31.4446789 8.20519996 34.5024493 11.4744012 35.5878695 14.7436023 36.6732897 18.3404528 35.5421734 20.4 32.781M35.591 5.024C40.029 3.325 42.3 0 49 0 55.0751322 0 60 4.92486775 60 11 60 20 54 20 54 28 54.000882 31.4446789 51.7948 34.5024493 48.5255988 35.5878695 45.2563977 36.6732897 41.6595472 35.5421734 39.6 32.781"/>
    <path stroke="#00AAE7" d="M10 50C17.7319865 50 24 43.7319865 24 36L24 34.816M50 50C42.2680135 50 36 43.7319865 36 36L36 34.813"/>
    <circle cx="23" cy="19" r="1" stroke="#00AAE7"/>
    <circle cx="37" cy="19" r="1" stroke="#00AAE7"/>
    <path stroke="#333" d="M46.0000081,20 C46.0082811,11.6832175 39.6434663,4.74685594 31.3566288,4.04168554 C23.0697914,3.33651513 15.6244758,9.09770034 14.2273764,17.296301 C12.830277,25.4949017 17.947307,33.3967992 26,35.476 L26,40.521 C25.9980085,47.8438126 29.3513495,54.7638556 35.1,59.3 C36.4769851,60.3556066 38.4320094,60.1855572 39.6060595,58.9080597 C40.7801095,57.6305623 40.7848562,55.6681621 39.617,54.385 C36.0114711,50.6709528 33.9963912,45.6972895 34,40.521 L34,35.476 C41.0601941,33.6559849 45.9955611,27.2910065 46.0000081,20 L46.0000081,20 Z"/>
    <line x1="26" x2="26" y1="35.476" y2="31" stroke="#333" stroke-linecap="square"/>
    <line x1="34" x2="34" y1="35.476" y2="31" stroke="#333" stroke-linecap="square"/>
  </g>
</svg>
