<svg xmlns="http://www.w3.org/2000/svg" width="69" height="65" viewBox="0 0 69 65">
  <g fill="none" fill-rule="evenodd" stroke-width="2" transform="translate(1 1)">
    <path stroke="#333" d="M0,8 L0,52 C0,56.6 12.1,60 26,60 C28.9026037,60 31.7267167,59.8517397 34.3785491,59.575252 M52,28.9720269 C52,23.0565031 52,16.0658275 52,8"/>
    <path stroke="#00AAE7" stroke-linecap="square" d="M52,8 C52,12.6 39.9,16 26,16 C12.1,16 0,12.6 0,8 C0,3.4 12.1,0 26,0 C39.9,0 52,3.4 52,8 Z"/>
    <path stroke="#333" stroke-linecap="square" d="M31.5668487,37.8154383 C29.76227,37.9366127 27.897914,38 26,38 C12.1,38 0,34.6 0,30"/>
    <g stroke-linecap="square" transform="translate(37 33)">
      <path stroke="#333" d="M26,15 C25.9998254,14.2696051 25.9271355,13.5410319 25.783,12.825 L29.49,10.1 L26.49,4.9 L22.263,6.754 C21.1689022,5.78708137 19.8925651,5.04861463 18.509,4.582 L18,0 L12,0 L11.491,4.582 C10.1074349,5.04861463 8.83109781,5.78708137 7.737,6.754 L3.51,4.9 L0.51,10.1 L4.217,12.827 C3.92799987,14.2625998 3.92799987,15.7414002 4.217,17.177 L0.51,19.9 L3.51,25.1 L7.737,23.248 C8.83109781,24.2149186 10.1074349,24.9533854 11.491,25.42 L12,30 L18,30 L18.509,25.418 C19.8925651,24.9513854 21.1689022,24.2129186 22.263,23.246 L26.49,25.1 L29.49,19.9 L25.783,17.173 C25.9271867,16.4576508 25.9998777,15.7297358 26,15 Z"/>
      <line x1="15" x2="15" y1="17" y2="20" stroke="#00AAE7"/>
      <circle cx="15" cy="14" r="3" stroke="#00AAE7"/>
    </g>
  </g>
</svg>
