<?xml version="1.0" encoding="UTF-8"?>
<svg width="520px" height="350px" viewBox="0 0 520 350" version="1.1" xmlns="http://www.w3.org/2000/svg" xmlns:xlink="http://www.w3.org/1999/xlink">
    <title>插画</title>
    <defs>
        <filter x="-55.0%" y="-254.8%" width="210.0%" height="609.5%" filterUnits="objectBoundingBox" id="filter-1">
            <feGaussianBlur stdDeviation="50" in="SourceGraphic"></feGaussianBlur>
        </filter>
        <linearGradient x1="50%" y1="0%" x2="50%" y2="100%" id="linearGradient-2">
            <stop stop-color="#7AE9FF" stop-opacity="0" offset="0%"></stop>
            <stop stop-color="#44CFFF" offset="100%"></stop>
        </linearGradient>
        <linearGradient x1="50%" y1="0%" x2="50%" y2="100%" id="linearGradient-3">
            <stop stop-color="#7AE9FF" stop-opacity="0" offset="0%"></stop>
            <stop stop-color="#56D3FF" stop-opacity="0.500027316" offset="100%"></stop>
        </linearGradient>
        <filter x="-15.0%" y="-100.0%" width="130.0%" height="300.0%" filterUnits="objectBoundingBox" id="filter-4">
            <feGaussianBlur stdDeviation="10" in="SourceGraphic"></feGaussianBlur>
        </filter>
        <linearGradient x1="50%" y1="0%" x2="50%" y2="100%" id="linearGradient-5">
            <stop stop-color="#00D4F5" stop-opacity="0" offset="0%"></stop>
            <stop stop-color="#00BCED" offset="48.7070261%"></stop>
            <stop stop-color="#00AAE7" stop-opacity="0" offset="100%"></stop>
        </linearGradient>
        <linearGradient x1="50%" y1="0%" x2="50%" y2="100%" id="linearGradient-6">
            <stop stop-color="#00D4F5" stop-opacity="0" offset="0%"></stop>
            <stop stop-color="#00BCED" offset="48.7070261%"></stop>
            <stop stop-color="#00AAE7" stop-opacity="0" offset="100%"></stop>
        </linearGradient>
        <linearGradient x1="50%" y1="0%" x2="50%" y2="97.6061022%" id="linearGradient-7">
            <stop stop-color="#E2F7FF" offset="0%"></stop>
            <stop stop-color="#94D8FF" offset="100%"></stop>
        </linearGradient>
        <linearGradient x1="50%" y1="0%" x2="50%" y2="100%" id="linearGradient-8">
            <stop stop-color="#33A1EC" offset="0%"></stop>
            <stop stop-color="#73C6F5" offset="100%"></stop>
        </linearGradient>
        <rect id="path-9" x="12" y="24" width="8" height="12"></rect>
        <filter x="-25.0%" y="-16.7%" width="150.0%" height="133.3%" filterUnits="objectBoundingBox" id="filter-10">
            <feGaussianBlur stdDeviation="1.5" in="SourceAlpha" result="shadowBlurInner1"></feGaussianBlur>
            <feOffset dx="0" dy="1" in="shadowBlurInner1" result="shadowOffsetInner1"></feOffset>
            <feComposite in="shadowOffsetInner1" in2="SourceAlpha" operator="arithmetic" k2="-1" k3="1" result="shadowInnerInner1"></feComposite>
            <feColorMatrix values="0 0 0 0 0.184313725   0 0 0 0 0.643137255   0 0 0 0 0.929411765  0 0 0 1 0" type="matrix" in="shadowInnerInner1"></feColorMatrix>
        </filter>
        <linearGradient x1="62.1048635%" y1="100%" x2="62.1048635%" y2="0%" id="linearGradient-11">
            <stop stop-color="#77C9F5" offset="0%"></stop>
            <stop stop-color="#A1E7FF" stop-opacity="0" offset="100%"></stop>
        </linearGradient>
        <linearGradient x1="50%" y1="0%" x2="50%" y2="97.6061022%" id="linearGradient-12">
            <stop stop-color="#E2F7FF" offset="0%"></stop>
            <stop stop-color="#94D8FF" offset="100%"></stop>
        </linearGradient>
        <linearGradient x1="50%" y1="0%" x2="50%" y2="100%" id="linearGradient-13">
            <stop stop-color="#33A1EC" offset="0%"></stop>
            <stop stop-color="#73C6F5" offset="100%"></stop>
        </linearGradient>
        <rect id="path-14" x="12" y="27" width="8" height="36"></rect>
        <filter x="-25.0%" y="-5.6%" width="150.0%" height="111.1%" filterUnits="objectBoundingBox" id="filter-15">
            <feGaussianBlur stdDeviation="1.5" in="SourceAlpha" result="shadowBlurInner1"></feGaussianBlur>
            <feOffset dx="0" dy="1" in="shadowBlurInner1" result="shadowOffsetInner1"></feOffset>
            <feComposite in="shadowOffsetInner1" in2="SourceAlpha" operator="arithmetic" k2="-1" k3="1" result="shadowInnerInner1"></feComposite>
            <feColorMatrix values="0 0 0 0 0.203921569   0 0 0 0 0.631372549   0 0 0 0 0.925490196  0 0 0 1 0" type="matrix" in="shadowInnerInner1"></feColorMatrix>
        </filter>
        <rect id="path-16" x="28" y="27" width="8" height="36"></rect>
        <filter x="-25.0%" y="-5.6%" width="150.0%" height="111.1%" filterUnits="objectBoundingBox" id="filter-17">
            <feGaussianBlur stdDeviation="1.5" in="SourceAlpha" result="shadowBlurInner1"></feGaussianBlur>
            <feOffset dx="0" dy="1" in="shadowBlurInner1" result="shadowOffsetInner1"></feOffset>
            <feComposite in="shadowOffsetInner1" in2="SourceAlpha" operator="arithmetic" k2="-1" k3="1" result="shadowInnerInner1"></feComposite>
            <feColorMatrix values="0 0 0 0 0.203921569   0 0 0 0 0.631372549   0 0 0 0 0.925490196  0 0 0 1 0" type="matrix" in="shadowInnerInner1"></feColorMatrix>
        </filter>
        <rect id="path-18" x="44" y="27" width="8" height="36"></rect>
        <filter x="-25.0%" y="-5.6%" width="150.0%" height="111.1%" filterUnits="objectBoundingBox" id="filter-19">
            <feGaussianBlur stdDeviation="1.5" in="SourceAlpha" result="shadowBlurInner1"></feGaussianBlur>
            <feOffset dx="0" dy="1" in="shadowBlurInner1" result="shadowOffsetInner1"></feOffset>
            <feComposite in="shadowOffsetInner1" in2="SourceAlpha" operator="arithmetic" k2="-1" k3="1" result="shadowInnerInner1"></feComposite>
            <feColorMatrix values="0 0 0 0 0.203921569   0 0 0 0 0.631372549   0 0 0 0 0.925490196  0 0 0 1 0" type="matrix" in="shadowInnerInner1"></feColorMatrix>
        </filter>
        <path d="M31.6302678,11.052275 C30.7753957,4.70179657 25.4019139,-4.0350253e-14 18.9293109,-4.0350253e-14 C13.3726422,-4.0350253e-14 8.54872103,3.48055071 6.77791453,8.73190791 C2.80886548,9.58678001 0,13.0062684 0,17.0974421 C0,21.5549895 3.48055071,25.2797893 7.9380981,25.6461631 L31.1417695,25.6461631 C31.1417695,25.6461631 31.2028318,25.6461631 31.2028318,25.6461631 C34.9276316,25.2797893 37.8586217,22.1045501 37.8586217,18.3186879 C37.8586217,14.7160126 35.1718808,11.6018357 31.6302678,11.052275 Z" id="path-20"></path>
        <linearGradient x1="50%" y1="0%" x2="50%" y2="97.6061022%" id="linearGradient-22">
            <stop stop-color="#E2F7FF" offset="0%"></stop>
            <stop stop-color="#94D8FF" offset="100%"></stop>
        </linearGradient>
        <path d="M31.6302678,11.052275 C30.7753957,4.70179657 25.4019139,-4.0350253e-14 18.9293109,-4.0350253e-14 C13.3726422,-4.0350253e-14 8.54872103,3.48055071 6.77791453,8.73190791 C2.80886548,9.58678001 0,13.0062684 0,17.0974421 C0,21.5549895 3.48055071,25.2797893 7.9380981,25.6461631 L31.1417695,25.6461631 C31.1417695,25.6461631 31.2028318,25.6461631 31.2028318,25.6461631 C34.9276316,25.2797893 37.8586217,22.1045501 37.8586217,18.3186879 C37.8586217,14.7160126 35.1718808,11.6018357 31.6302678,11.052275 Z" id="path-23"></path>
        <path d="M44.2823749,15.4731851 C43.085554,6.58251519 35.5626795,-5.64903541e-14 26.5010352,-5.64903541e-14 C18.7216991,-5.64903541e-14 11.9682094,4.87277099 9.48908034,12.2246711 C3.93241167,13.421492 0,18.2087758 0,23.9364189 C0,30.1769852 4.87277099,35.3917051 11.1133373,35.9046283 L43.5984773,35.9046283 C43.5984773,35.9046283 43.6839645,35.9046283 43.6839645,35.9046283 C48.8986843,35.3917051 53.0020704,30.9463701 53.0020704,25.6461631 C53.0020704,20.6024177 49.2406331,16.24257 44.2823749,15.4731851 Z" id="path-25"></path>
        <linearGradient x1="50%" y1="0%" x2="50%" y2="97.6061022%" id="linearGradient-27">
            <stop stop-color="#E2F7FF" offset="0%"></stop>
            <stop stop-color="#94D8FF" offset="100%"></stop>
        </linearGradient>
    </defs>
    <g id="解决方案" stroke="none" stroke-width="1" fill="none" fill-rule="evenodd">
        <g id="场景解决方案-私有云行业解决方案✅" transform="translate(-1028.000000, -120.000000)">
            <g id="banner" transform="translate(0.000000, 120.000000)">
                <g id="编组-35">
                    <g id="插画" transform="translate(1127.000000, 30.000000)">
                        <g id="编组-22" transform="translate(8.000000, 165.000000)">
                            <ellipse id="椭圆形" fill="#00BDFF" filter="url(#filter-1)" cx="149.36" cy="49.12" rx="136.32" ry="29.44"></ellipse>
                            <ellipse id="椭圆形" fill="url(#linearGradient-2)" cx="150" cy="29.44" rx="150" ry="29.44"></ellipse>
                            <ellipse id="椭圆形" fill="url(#linearGradient-3)" cx="150" cy="52.44" rx="150" ry="29.44"></ellipse>
                            <ellipse id="椭圆形" fill-opacity="0.5" fill="#0784DA" filter="url(#filter-4)" cx="150" cy="33" rx="100" ry="15"></ellipse>
                        </g>
                        <g id="编组-21" transform="translate(10.000000, 0.000000)" fill-rule="nonzero">
                            <polygon id="路径" fill="url(#linearGradient-5)" points="4 106 4 136 0 136 0 106"></polygon>
                            <path d="M77,3 L77,30 L77,30 L74,30 L74,0 C75.6568542,-3.04359188e-16 77,1.34314575 77,3 Z" id="路径" fill="url(#linearGradient-6)"></path>
                            <path d="M275,47 L275,73 L275,73 L271,73 L271,43 C273.209139,43 275,44.790861 275,47 Z" id="路径" fill="url(#linearGradient-5)"></path>
                            <path d="M298,119 L298,145 L298,145 L294,145 L294,115 C296.209139,115 298,116.790861 298,119 Z" id="路径" fill="url(#linearGradient-5)" opacity="0.300000012"></path>
                            <path d="M228,14 L228,40 L228,40 L224,40 L224,10 C226.209139,10 228,11.790861 228,14 Z" id="路径" fill="url(#linearGradient-5)" opacity="0.400000006"></path>
                            <path d="M312,176 L312,203 L312,203 L309,203 L309,173 C310.656854,173 312,174.343146 312,176 Z" id="路径" fill="url(#linearGradient-6)" opacity="0.449999988"></path>
                        </g>
                        <g id="编组-22备份" transform="translate(78.000000, 78.000000)">
                            <g id="编组-21备份" transform="translate(0.000000, 75.000000)">
                                <rect id="矩形" fill="url(#linearGradient-7)" x="0" y="10" width="160" height="40"></rect>
                                <g id="矩形">
                                    <use fill="url(#linearGradient-8)" fill-rule="evenodd" xlink:href="#path-9"></use>
                                    <use fill="black" fill-opacity="1" filter="url(#filter-10)" xlink:href="#path-9"></use>
                                </g>
                                <path d="M21.5629144,0 L141.717641,0 C142.423748,2.02983938e-14 143.117273,0.186915025 143.727747,0.541752862 L160,10 L160,10 L0,10 L19.8192006,0.400074705 C20.3627791,0.136778894 20.9589258,8.9927351e-15 21.5629144,0 Z" id="矩形" fill="url(#linearGradient-11)"></path>
                            </g>
                            <g id="编组-21备份">
                                <rect id="矩形" fill="url(#linearGradient-12)" x="0" y="10" width="160" height="67"></rect>
                                <g id="矩形">
                                    <use fill="url(#linearGradient-13)" fill-rule="evenodd" xlink:href="#path-14"></use>
                                    <use fill="black" fill-opacity="1" filter="url(#filter-15)" xlink:href="#path-14"></use>
                                </g>
                                <g id="矩形备份">
                                    <use fill="url(#linearGradient-13)" fill-rule="evenodd" xlink:href="#path-16"></use>
                                    <use fill="black" fill-opacity="1" filter="url(#filter-17)" xlink:href="#path-16"></use>
                                </g>
                                <g id="矩形备份-5">
                                    <use fill="url(#linearGradient-13)" fill-rule="evenodd" xlink:href="#path-18"></use>
                                    <use fill="black" fill-opacity="1" filter="url(#filter-19)" xlink:href="#path-18"></use>
                                </g>
                                <path d="M21.5629144,0 L141.717641,0 C142.423748,2.02983938e-14 143.117273,0.186915025 143.727747,0.541752862 L160,10 L160,10 L0,10 L19.8192006,0.400074705 C20.3627791,0.136778894 20.9589258,8.9927351e-15 21.5629144,0 Z" id="矩形" fill="url(#linearGradient-11)"></path>
                            </g>
                        </g>
                        <g id="编组-12" opacity="0.779999971" transform="translate(282.000000, 91.000000) scale(-1, 1) translate(-282.000000, -91.000000) translate(262.000000, 77.000000)">
                            <g id="编组-20" transform="translate(1.892931, 0.000000)">
                                <mask id="mask-21" fill="white">
                                    <use xlink:href="#path-20"></use>
                                </mask>
                                <use id="路径" fill="#9FD7F6" fill-rule="nonzero" xlink:href="#path-20"></use>
                                <polygon id="路径-6" fill="#7DC5ED" mask="url(#mask-21)" points="31.6302678 11.052275 28.2250969 14.4274766 29.2488384 27.5390942 40.0068067 24.1788979 40.0068067 10.6011978"></polygon>
                            </g>
                            <path d="M31.6302678,12.9452061 C30.7753957,6.59472765 25.4019139,1.89293109 18.9293109,1.89293109 C13.3726422,1.89293109 8.54872103,5.37348179 6.77791453,10.624839 C2.80886548,11.4797111 0,14.8991995 0,18.9903731 C0,23.4479205 3.48055071,27.1727204 7.9380981,27.5390942 L31.1417695,27.5390942 C31.1417695,27.5390942 31.2028318,27.5390942 31.2028318,27.5390942 C34.9276316,27.1727204 37.8586217,23.9974812 37.8586217,20.211619 C37.8586217,16.6089437 35.1718808,13.4947668 31.6302678,12.9452061 Z" id="路径" fill="url(#linearGradient-22)"></path>
                        </g>
                        <g id="编组-12备份" transform="translate(20.000000, 168.000000) scale(-1, 1) translate(-20.000000, -168.000000) translate(0.000000, 154.000000)">
                            <g id="编组-20" transform="translate(1.892931, 0.000000)">
                                <mask id="mask-24" fill="white">
                                    <use xlink:href="#path-23"></use>
                                </mask>
                                <use id="路径" fill="#9FD7F6" fill-rule="nonzero" xlink:href="#path-23"></use>
                                <polygon id="路径-6" fill="#7DC5ED" mask="url(#mask-24)" points="31.6302678 11.052275 28.2250969 14.4274766 29.2488384 27.5390942 40.0068067 24.1788979 40.0068067 10.6011978"></polygon>
                            </g>
                            <path d="M31.6302678,12.9452061 C30.7753957,6.59472765 25.4019139,1.89293109 18.9293109,1.89293109 C13.3726422,1.89293109 8.54872103,5.37348179 6.77791453,10.624839 C2.80886548,11.4797111 0,14.8991995 0,18.9903731 C0,23.4479205 3.48055071,27.1727204 7.9380981,27.5390942 L31.1417695,27.5390942 C31.1417695,27.5390942 31.2028318,27.5390942 31.2028318,27.5390942 C34.9276316,27.1727204 37.8586217,23.9974812 37.8586217,20.211619 C37.8586217,16.6089437 35.1718808,13.4947668 31.6302678,12.9452061 Z" id="路径" fill="url(#linearGradient-22)"></path>
                        </g>
                        <g id="编组-12" transform="translate(48.000000, 51.600000) scale(-1, 1) translate(-48.000000, -51.600000) translate(20.000000, 32.000000)">
                            <g id="编组-20" transform="translate(2.650104, 0.000000)">
                                <mask id="mask-26" fill="white">
                                    <use xlink:href="#path-25"></use>
                                </mask>
                                <use id="路径" fill="#9FD7F6" fill-rule="nonzero" xlink:href="#path-25"></use>
                                <polygon id="路径-6" fill="#7DC5ED" mask="url(#mask-26)" points="44.2823749 15.4731851 39.5151356 20.1984672 40.9483737 38.5547319 56.0095294 33.850457 56.0095294 14.841677"></polygon>
                            </g>
                            <path d="M44.2823749,18.1232886 C43.085554,9.23261871 35.5626795,2.65010352 26.5010352,2.65010352 C18.7216991,2.65010352 11.9682094,7.52287451 9.48908034,14.8747746 C3.93241167,16.0715955 0,20.8588793 0,26.5865224 C0,32.8270888 4.87277099,38.0418086 11.1133373,38.5547319 L43.5984773,38.5547319 C43.5984773,38.5547319 43.6839645,38.5547319 43.6839645,38.5547319 C48.8986843,38.0418086 53.0020704,33.5964737 53.0020704,28.2962666 C53.0020704,23.2525212 49.2406331,18.8926735 44.2823749,18.1232886 Z" id="路径" fill="url(#linearGradient-27)"></path>
                        </g>
                    </g>
                </g>
            </g>
        </g>
    </g>
</svg>