<svg xmlns="http://www.w3.org/2000/svg" width="1080" height="691" viewBox="0 0 1080 691">
  <g fill="none" fill-rule="evenodd">
    <g transform="translate(268 163)">
      <polygon fill="#00AAE7" points="0 0 310 0 310 248 0 248" opacity=".08"/>
      <g transform="translate(12 12)">
        <path fill="#FFF" d="M2,0 L88,0 C89.1045695,-2.02906125e-16 90,0.8954305 90,2 L90,30 C90,31.1045695 89.1045695,32 88,32 L2,32 C0.8954305,32 1.3527075e-16,31.1045695 0,30 L0,2 C-1.3527075e-16,0.8954305 0.8954305,2.02906125e-16 2,0 Z" opacity=".85"/>
        <g transform="translate(9 6)">
          <text fill="#00AAE7" font-family="PingFangSC-Regular, PingFang SC" font-size="12">
            <tspan x="25" y="15">认证鉴权</tspan>
          </text>
          <g fill-rule="nonzero">
            <rect width="19.2" height="19.2" fill="#000" opacity="0"/>
            <path fill="#00AAE7" d="M17.6,12.4688 L18.7312,13.6 L13.6,18.7312 L10.8688,16 L12,14.8688 L13.6,16.4688 L17.6,12.4688 Z M7.2,11.2 C8.8304,11.2 10.3232,11.4664 11.5248,11.7816 C10.3472,12.808 9.6,14.3152 9.6,16 C9.6,16.556 9.684,17.0928 9.8352,17.6 L9.8352,17.6 L-7.67386155e-13,17.6 L-7.67386155e-13,14.4256 C-7.67386155e-13,13.3992 0.648,12.4832 1.6208,12.1544 C2.9368,11.7104 4.9408,11.2 7.2,11.2 Z M7.2,0 C9.4088,0 11.2,1.7912 11.2,4 L11.2,4.8 C11.2,6.94383529 9.51261522,9.44790727 7.39377543,9.59335109 L7.2,9.6 C4.9912,9.6 3.2,7.0088 3.2,4.8 L3.2,4 C3.2,1.85813333 4.88428724,0.108941047 7.00038864,0.00489621282 L7.2,0 Z" transform="translate(.8)"/>
          </g>
        </g>
        <g transform="translate(0 40)">
          <path fill="#FFF" d="M2,0 L88,0 C89.1045695,-2.02906125e-16 90,0.8954305 90,2 L90,30 C90,31.1045695 89.1045695,32 88,32 L2,32 C0.8954305,32 1.3527075e-16,31.1045695 0,30 L0,2 C-1.3527075e-16,0.8954305 0.8954305,2.02906125e-16 2,0 Z" opacity=".85"/>
          <g transform="translate(6.862 8)">
            <text fill="#00AAE7" font-family="PingFangSC-Regular, PingFang SC" font-size="12">
              <tspan x="27" y="13">数据统计</tspan>
            </text>
            <g fill-rule="nonzero" transform="translate(.138)">
              <rect width="18.621" height="17" fill="#000" opacity="0"/>
              <path fill="#00AAE7" d="M7.5,1.41666667 L11.637931,1.41666667 L11.637931,15.5833333 L7.5,15.5833333 L7.5,1.41666667 Z M12.6724138,5.19444444 L16.8103448,5.19444444 L16.8103448,15.5833333 L12.6724138,15.5833333 L12.6724138,5.19444444 Z M2.32758621,8.02777778 L6.46551724,8.02777778 L6.46551724,15.5833333 L2.32758621,15.5833333 L2.32758621,8.02777778 Z"/>
            </g>
          </g>
        </g>
        <g transform="translate(98)">
          <path fill="#FFF" d="M2,0 L88,0 C89.1045695,-2.02906125e-16 90,0.8954305 90,2 L90,30 C90,31.1045695 89.1045695,32 88,32 L2,32 C0.8954305,32 1.3527075e-16,31.1045695 0,30 L0,2 C-1.3527075e-16,0.8954305 0.8954305,2.02906125e-16 2,0 Z" opacity=".85"/>
          <g transform="translate(7 6)">
            <text fill="#00AAE7" font-family="PingFangSC-Regular, PingFang SC" font-size="12">
              <tspan x="27" y="15">直播封面</tspan>
            </text>
            <g fill-rule="nonzero">
              <rect width="20" height="20" fill="#000" opacity="0"/>
              <path fill="#00AAE7" d="M18.4870127,7.39480315 L18.4870127,17.3626496 C18.4870127,18.3573579 17.677704,19.1666667 16.6829957,19.1666667 L2.63735039,19.1666667 C1.64264206,19.1666667 0.833333333,18.3573579 0.833333333,17.3626496 L0.833333333,7.39480315 C0.833333333,6.40009482 1.64264206,5.5907861 2.63735039,5.5907861 L6.38900026,5.5907861 L2.3256255,1.59506658 C2.15064431,1.42313555 2.14825561,1.14134287 2.32040712,0.966380057 C2.49233815,0.790976235 2.77346934,0.788808037 2.94909364,0.961161672 L7.65710407,5.59080448 L11.8410529,5.59080448 L16.5490633,0.961161672 C16.7240445,0.788789667 17.0053778,0.790957865 17.1777498,0.966380057 C17.3499013,1.14136126 17.3475126,1.42313557 17.1725314,1.59506658 L13.1091383,5.59080447 L16.6829957,5.59080447 C17.677704,5.5907861 18.4870127,6.40009482 18.4870127,7.39480315 Z M12.721067,12.4309286 L7.33773536,9.32286704 L7.33773536,15.5390085 L12.721067,12.4309286 Z"/>
            </g>
          </g>
        </g>
        <g transform="translate(98 40)">
          <path fill="#FFF" d="M2,0 L88,0 C89.1045695,-2.02906125e-16 90,0.8954305 90,2 L90,30 C90,31.1045695 89.1045695,32 88,32 L2,32 C0.8954305,32 1.3527075e-16,31.1045695 0,30 L0,2 C-1.3527075e-16,0.8954305 0.8954305,2.02906125e-16 2,0 Z" opacity=".85"/>
          <g transform="translate(7 6)">
            <text fill="#00AAE7" font-family="PingFangSC-Regular, PingFang SC" font-size="12">
              <tspan x="27" y="14">自动鉴黄</tspan>
            </text>
            <g fill-rule="nonzero">
              <rect width="20" height="20" fill="#000" opacity="0"/>
              <g transform="translate(.833 .833)">
                <path fill="#00AAE7" d="M0,9.16666667 C0,14.2292769 4.10405646,18.3333333 9.16666667,18.3333333 C14.2292769,18.3333333 18.3333333,14.2292769 18.3333333,9.16666667 C18.3333333,4.10405646 14.2292769,0 9.16666667,0 C4.10405646,0 0,4.10405646 0,9.16666667 Z"/>
                <path fill="#FFF" d="M5.41079395,13.7002256 C5.47894885,14.6630974 6.05563092,15.5164605 6.92359551,15.9388403 C7.79156009,16.3612201 8.8189325,16.2884422 9.6186864,15.7479231 C10.4184403,15.2074039 10.8690646,14.2812676 10.8008026,13.3184034 C10.7326476,12.3555316 10.1559656,11.5021685 9.288001,11.0797887 C8.42003642,10.6574089 7.392664,10.7301868 6.5929101,11.2707059 C5.7931562,11.8112251 5.34253187,12.7373614 5.41079395,13.7002256 L5.41079395,13.7002256 Z"/>
              </g>
            </g>
          </g>
        </g>
        <g transform="translate(196)">
          <path fill="#FFF" d="M2,0 L88,0 C89.1045695,-2.02906125e-16 90,0.8954305 90,2 L90,30 C90,31.1045695 89.1045695,32 88,32 L2,32 C0.8954305,32 1.3527075e-16,31.1045695 0,30 L0,2 C-1.3527075e-16,0.8954305 0.8954305,2.02906125e-16 2,0 Z" opacity=".85"/>
          <g transform="translate(8 6)">
            <text fill="#00AAE7" font-family="PingFangSC-Regular, PingFang SC" font-size="12">
              <tspan x="26" y="14">实时转码</tspan>
            </text>
            <circle cx="8.754" cy="9.726" r="8.754" fill="#00AAE7"/>
            <path fill="#FFF" fill-rule="nonzero" d="M6.85267579,7.08416211 C6.85267579,6.73547368 7.09923789,6.59395579 7.40124,6.76757053 L12.6038463,9.77154316 C12.9058484,9.94515789 12.9058484,10.2311116 12.6038463,10.4047263 L7.40124,13.4086989 C7.09923789,13.5823137 6.85267579,13.4407958 6.85267579,13.0921074 L6.85267579,7.08416211 Z"/>
            <path fill="#00AAE7" fill-rule="nonzero" d="M8.80415743,16.7394216 C6.10188195,16.7156799 3.68667481,15.0481158 2.70689552,12.5296065 C1.70807202,10.0051829 2.32065756,7.12795378 4.26118153,5.22934118 C4.87587215,4.63294801 5.60073512,4.16185809 6.3953626,3.84233259 C6.71979338,3.71020536 6.877168,3.34133915 6.74803915,3.01570334 C6.68746177,2.8590945 6.56662483,2.73331059 6.41257123,2.66650163 C6.25851763,2.59969267 6.08410987,2.59743678 5.9283798,2.66023883 C4.98317352,3.04050523 4.12100313,3.6010817 3.38994497,4.31070936 C1.85340777,5.80689154 0.982454989,7.85769904 0.972786275,10.0023235 C0.959944718,12.0715829 1.74704251,14.065797 3.16969637,15.5684796 C4.07441668,16.5215832 5.20353857,17.2327958 6.45390969,17.6371437 L4.9567768,18.2407364 C4.65493195,18.38508 4.51618652,18.7383332 4.63911753,19.0495138 C4.76204853,19.3606944 5.10476008,19.5237494 5.42375959,19.4228302 L9.03555786,17.9661226 C9.31577381,17.8516332 9.47672965,17.5557669 9.42061855,17.2583104 C9.36450744,16.9608539 9.10682594,16.7439578 8.80415743,16.7394216 L8.80415743,16.7394216 Z M14.6170477,4.51701818 C13.7118676,3.5647911 12.5828597,2.85412948 11.3328344,2.44974808 L13.0990052,1.21189518 C13.40085,1.0675516 13.5395954,0.714298358 13.4166644,0.403117787 C13.2937334,0.0919372173 12.9510219,-0.0711178068 12.6320224,0.0298014195 L8.75258022,2.12076915 C8.47169298,2.23538698 8.31025292,2.53184038 8.36636508,2.82997846 C8.42247723,3.12811655 8.68064394,3.34559633 8.98398065,3.35025818 C11.6852817,3.37707546 14.0989325,5.04356505 15.0812426,7.56007322 C15.7336357,9.20780018 15.7111011,11.0461284 15.0185135,12.6773683 C14.3325038,14.3021601 13.0271207,15.5864724 11.3913815,16.2459532 C11.1532648,16.342029 10.9961039,16.5716669 10.9927537,16.8284136 C10.9894035,17.0851604 11.140519,17.3188208 11.3760477,17.421077 C11.5238095,17.4852001 11.6966628,17.49217 11.8583643,17.426653 C13.8069751,16.6423478 15.3616399,15.1122725 16.1769097,13.1764125 C17.4262961,10.2367024 16.8137052,6.83597449 14.6170477,4.51701818 L14.6170477,4.51701818 Z"/>
          </g>
        </g>
        <g transform="translate(196 40)">
          <path fill="#FFF" d="M2,0 L88,0 C89.1045695,-2.02906125e-16 90,0.8954305 90,2 L90,30 C90,31.1045695 89.1045695,32 88,32 L2,32 C0.8954305,32 1.3527075e-16,31.1045695 0,30 L0,2 C-1.3527075e-16,0.8954305 0.8954305,2.02906125e-16 2,0 Z" opacity=".85"/>
          <g fill="#00AAE7" transform="translate(7 6)">
            <text font-family="PingFangSC-Regular, PingFang SC" font-size="12">
              <tspan x="27" y="14">录制回放</tspan>
            </text>
            <path fill-rule="nonzero" d="M10,0 C4.47427854,0 0,4.47929737 0,10 C0,15.5257215 4.47929737,20 10,20 C15.5207026,20 20,15.5257215 20,10 C20,4.47427854 15.5207026,0 10,0 Z M10,15.0012547 C7.23713927,15.0012547 5.00125471,12.7628607 5.00125471,10.0025094 L6.49937265,10.0025094 C6.49937265,11.9347553 8.06775408,13.5031368 10,13.5031368 C11.9322459,13.5031368 13.5006274,11.9322459 13.5006274,10 C13.5006274,8.06775408 11.9322459,6.49937265 10,6.49937265 C9.16185696,6.49937265 8.40150565,6.80803011 7.79924718,7.29736512 L6.72772898,6.22584693 C7.60602258,5.46549561 8.74780427,5.00125471 10,5.00125471 C12.7628607,5.00125471 14.9987453,7.23964868 14.9987453,10 C14.9987453,12.7603513 12.7628607,15.0012547 10,15.0012547 Z M8.25094103,10.1279799 C8.25094103,9.6336261 8.28105395,9.1468005 8.33877039,8.67252196 C8.39899624,8.17565872 8.86825596,7.87202008 9.28983689,8.05269762 C10.0652447,8.38895859 10.7929737,8.8281054 11.455458,9.35759097 C11.8494354,9.67126725 11.8494354,10.3161857 11.455458,10.629862 C10.782936,11.1668758 10.0451694,11.6110414 9.25721455,11.9473024 C8.82308657,12.1329987 8.35382685,11.8017566 8.30614806,11.2923463 C8.26599749,10.9084065 8.25094103,10.5219573 8.25094103,10.1279799 L8.25094103,10.1279799 Z"/>
          </g>
        </g>
        <g transform="translate(0 80)">
          <path fill="#FFF" d="M2,0 L88,0 C89.1045695,-2.02906125e-16 90,0.8954305 90,2 L90,30 C90,31.1045695 89.1045695,32 88,32 L2,32 C0.8954305,32 1.3527075e-16,31.1045695 0,30 L0,2 C-1.3527075e-16,0.8954305 0.8954305,2.02906125e-16 2,0 Z"/>
          <g transform="translate(7 6)">
            <text fill="#39AAEB" font-family="PingFangSC-Regular, PingFang SC" font-size="12">
              <tspan x="27" y="14">RTC</tspan>
            </text>
            <rect width="20" height="20" fill="#FFF"/>
            <rect width="18.333" height="13.333" x=".833" y="3.333" fill="#39AAEB" rx="2"/>
            <path fill="#FFF" fill-rule="nonzero" d="M7.5,7.07370994 C7.5,6.71049284 7.75683553,6.56307836 8.07142105,6.74392705 L13.4908026,9.8730652 C13.8053882,10.0539139 13.8053882,10.3517823 13.4908026,10.532631 L8.07142105,13.6617692 C7.75683553,13.8426178 7.5,13.6952034 7.5,13.3319863 L7.5,7.07370994 Z"/>
          </g>
        </g>
        <g transform="translate(98 80)">
          <path fill="#FFF" d="M2,0 L88,0 C89.1045695,-2.02906125e-16 90,0.8954305 90,2 L90,30 C90,31.1045695 89.1045695,32 88,32 L2,32 C0.8954305,32 1.3527075e-16,31.1045695 0,30 L0,2 C-1.3527075e-16,0.8954305 0.8954305,2.02906125e-16 2,0 Z" opacity=".85"/>
          <path fill="#00AAE7" fill-rule="nonzero" d="M17.25,3 L9.375,3 L7.125,0 L0.75,0 C0.335786438,0 0,0.335786438 0,0.75 L0,14.25 C0,15.4926407 1.00735931,16.5 2.25,16.5 L15.75,16.5 C16.9926407,16.5 18,15.4926407 18,14.25 L18,3.75 C18,3.33578644 17.6642136,3 17.25,3 Z M13.5,11.625 C13.5,12.6605339 12.6605339,13.5 11.625,13.5 C10.5894661,13.5 9.75,12.6605339 9.75,11.625 C9.75,10.5894661 10.5894661,9.75 11.625,9.75 C11.7509231,9.75025407 11.8765201,9.76281376 12,9.7875 L12,6.75 L8.25,6.75 L8.25,13.125 C8.25,14.1605339 7.41053391,15 6.375,15 C5.33946609,15 4.5,14.1605339 4.5,13.125 C4.5,12.0894661 5.33946609,11.25 6.375,11.25 C6.50092314,11.2502541 6.62652007,11.2628138 6.75,11.2875 L6.75,6 C6.75,5.58578644 7.08578644,5.25 7.5,5.25 L12.75,5.25 C13.1642136,5.25 13.5,5.58578644 13.5,6 L13.5,11.625 Z" transform="translate(9 7)"/>
          <text fill="#00AAE7" font-family="PingFangSC-Regular, PingFang SC" font-size="12" transform="translate(34 8)">
            <tspan x="0" y="13">音频审核</tspan>
          </text>
        </g>
        <g transform="translate(196 80)">
          <path fill="#FFF" d="M2,0 L88,0 C89.1045695,-2.02906125e-16 90,0.8954305 90,2 L90,30 C90,31.1045695 89.1045695,32 88,32 L2,32 C0.8954305,32 1.3527075e-16,31.1045695 0,30 L0,2 C-1.3527075e-16,0.8954305 0.8954305,2.02906125e-16 2,0 Z" opacity=".85"/>
          <g transform="translate(10 7)">
            <path fill="#00AAE7" d="M16,10.1587301 C16,14.3666139 12.418278,17.7777777 8,17.7777777 C3.58172205,17.7777777 0,14.3666139 0,10.1587301 L0,1.69312158 L8,-1.1920929e-07 L16,1.69312158 L16,10.1587301 Z"/>
            <polyline stroke="#FFF" stroke-width="2" points="4 7.814 6.703 10.667 12 5.333"/>
          </g>
          <text fill="#39AAEB" font-family="PingFangSC-Regular, PingFang SC" font-size="12">
            <tspan x="34" y="20">内容审核</tspan>
          </text>
        </g>
      </g>
      <g transform="translate(12 192)">
        <rect width="285" height="43" x=".5" y=".5" fill="#E2F5FC" stroke="#00AAE7" rx="2"/>
        <text fill="#00AAE7" font-family="PingFangSC-Regular, PingFang SC" font-size="16">
          <tspan x="72" y="28">LiveNet 实时网络流</tspan>
        </text>
      </g>
      <g transform="translate(12 136)">
        <path fill="#E2F5FC" stroke="#00AAE7" d="M120,0.5 C120.414214,0.5 120.789214,0.667893219 121.06066,0.939339828 C121.332107,1.21078644 121.5,1.58578644 121.5,2 L121.5,2 L121.5,42 C121.5,42.4142136 121.332107,42.7892136 121.06066,43.0606602 C120.789214,43.3321068 120.414214,43.5 120,43.5 L120,43.5 L2,43.5 C1.58578644,43.5 1.21078644,43.3321068 0.939339828,43.0606602 C0.667893219,42.7892136 0.5,42.4142136 0.5,42 L0.5,42 L0.5,2 C0.5,1.58578644 0.667893219,1.21078644 0.939339828,0.939339828 C1.21078644,0.667893219 1.58578644,0.5 2,0.5 L2,0.5 Z"/>
        <g transform="translate(31 12)">
          <rect width="20" height="6" fill="#00AAE7"/>
          <rect width="20" height="6" y="7" fill="#00AAE7"/>
          <rect width="20" height="6" y="14" fill="#00AAE7"/>
          <line x1="4" x2="7" y1="3" y2="3" stroke="#FFF" stroke-linecap="square" stroke-width="2"/>
          <line x1="4" x2="7" y1="10" y2="10" stroke="#FFF" stroke-linecap="square" stroke-width="2"/>
          <line x1="4" x2="7" y1="17" y2="17" stroke="#FFF" stroke-linecap="square" stroke-width="2"/>
          <text fill="#00AAE7" font-family="PingFangSC-Regular, PingFang SC" font-size="14">
            <tspan x="32" y="15">存储</tspan>
          </text>
        </g>
        <path fill="#00AAE7" fill-rule="nonzero" d="M146.5,18 L155.5,22.5 L146.5,27 L146.5,23 L131,23 L131,22 L146.5,22 L146.5,18 Z"/>
        <g transform="translate(164)">
          <path fill="#E2F5FC" stroke="#00AAE7" d="M120,0.5 C120.414214,0.5 120.789214,0.667893219 121.06066,0.939339828 C121.332107,1.21078644 121.5,1.58578644 121.5,2 L121.5,2 L121.5,42 C121.5,42.4142136 121.332107,42.7892136 121.06066,43.0606602 C120.789214,43.3321068 120.414214,43.5 120,43.5 L120,43.5 L2,43.5 C1.58578644,43.5 1.21078644,43.3321068 0.939339828,43.0606602 C0.667893219,42.7892136 0.5,42.4142136 0.5,42 L0.5,42 L0.5,2 C0.5,1.58578644 0.667893219,1.21078644 0.939339828,0.939339828 C1.21078644,0.667893219 1.58578644,0.5 2,0.5 L2,0.5 Z"/>
          <g transform="translate(29 11)">
            <polygon fill="#00AAE7" stroke="#00AAE7" stroke-width="2" points="10.993 .561 20.086 5.811 20.086 16.311 10.993 21.561 1.9 16.311 1.9 5.811"/>
            <polygon stroke="#FFF" stroke-width="2" points="7 8 7 12.986 11.5 15.5 11.5 10.5"/>
            <polyline stroke="#FFF" stroke-linecap="square" stroke-width="2" points="10.324 6 14.824 8.511 14.824 13.5"/>
            <text fill="#00AAE7" font-family="PingFangSC-Regular, PingFang SC" font-size="14">
              <tspan x="34" y="16">CDN</tspan>
            </text>
          </g>
        </g>
      </g>
    </g>
    <path fill="#28B8BB" d="M2,0 L164,0 C165.104569,-4.2495073e-16 166,0.8954305 166,2 L166,237 C166,238.104569 165.104569,239 164,239 L2,239 C0.8954305,239 1.3527075e-16,238.104569 0,237 L0,2 C-1.3527075e-16,0.8954305 0.8954305,2.02906125e-16 2,0 Z" opacity=".11"/>
    <rect width="166" height="44" fill="#28B8BB" fill-opacity=".85"/>
    <text fill="#FFF" font-family="PingFangSC-Medium, PingFang SC" font-size="18" font-weight="400">
      <tspan x="56" y="29">采集端</tspan>
    </text>
    <g transform="translate(8 103)">
      <path fill="#FFF" d="M2,0 L148,0 C149.104569,-2.02906125e-16 150,0.8954305 150,2 L150,126 C150,127.104569 149.104569,128 148,128 L2,128 C0.8954305,128 1.3527075e-16,127.104569 0,126 L0,2 C-1.3527075e-16,0.8954305 0.8954305,2.02906125e-16 2,0 Z" opacity=".85"/>
      <text fill="#28B8BB" font-family="PingFangSC-Medium, PingFang SC" font-size="14" font-weight="400">
        <tspan x="44" y="21">推流 SDK</tspan>
      </text>
      <g transform="translate(11 32)">
        <path fill="#E7F7F8" stroke="#28B8BB" d="M58,0.5 C58.4142136,0.5 58.7892136,0.667893219 59.0606602,0.939339828 C59.3321068,1.21078644 59.5,1.58578644 59.5,2 L59.5,2 L59.5,36 C59.5,36.4142136 59.3321068,36.7892136 59.0606602,37.0606602 C58.7892136,37.3321068 58.4142136,37.5 58,37.5 L58,37.5 L2,37.5 C1.58578644,37.5 1.21078644,37.3321068 0.939339828,37.0606602 C0.667893219,36.7892136 0.5,36.4142136 0.5,36 L0.5,36 L0.5,2 C0.5,1.58578644 0.667893219,1.21078644 0.939339828,0.939339828 C1.21078644,0.667893219 1.58578644,0.5 2,0.5 L2,0.5 Z"/>
        <text fill="#28B8BB" font-family="PingFangSC-Regular, PingFang SC" font-size="12">
          <tspan x="12.5" y="15">音视频</tspan> <tspan x="18.5" y="32">采集</tspan>
        </text>
        <g transform="translate(68)">
          <path fill="#E7F7F8" stroke="#28B8BB" d="M58,0.5 C58.4142136,0.5 58.7892136,0.667893219 59.0606602,0.939339828 C59.3321068,1.21078644 59.5,1.58578644 59.5,2 L59.5,2 L59.5,36 C59.5,36.4142136 59.3321068,36.7892136 59.0606602,37.0606602 C58.7892136,37.3321068 58.4142136,37.5 58,37.5 L58,37.5 L2,37.5 C1.58578644,37.5 1.21078644,37.3321068 0.939339828,37.0606602 C0.667893219,36.7892136 0.5,36.4142136 0.5,36 L0.5,36 L0.5,2 C0.5,1.58578644 0.667893219,1.21078644 0.939339828,0.939339828 C1.21078644,0.667893219 1.58578644,0.5 2,0.5 L2,0.5 Z"/>
          <text fill="#28B8BB" font-family="PingFangSC-Regular, PingFang SC" font-size="12">
            <tspan x="18" y="15">美颜</tspan> <tspan x="18" y="32">滤镜</tspan>
          </text>
        </g>
        <g transform="translate(0 46)">
          <path fill="#E7F7F8" stroke="#28B8BB" d="M58,0.5 C58.4142136,0.5 58.7892136,0.667893219 59.0606602,0.939339828 C59.3321068,1.21078644 59.5,1.58578644 59.5,2 L59.5,2 L59.5,36 C59.5,36.4142136 59.3321068,36.7892136 59.0606602,37.0606602 C58.7892136,37.3321068 58.4142136,37.5 58,37.5 L58,37.5 L2,37.5 C1.58578644,37.5 1.21078644,37.3321068 0.939339828,37.0606602 C0.667893219,36.7892136 0.5,36.4142136 0.5,36 L0.5,36 L0.5,2 C0.5,1.58578644 0.667893219,1.21078644 0.939339828,0.939339828 C1.21078644,0.667893219 1.58578644,0.5 2,0.5 L2,0.5 Z"/>
          <text fill="#28B8BB" font-family="PingFangSC-Regular, PingFang SC" font-size="12">
            <tspan x="18" y="15">编码</tspan> <tspan x="18" y="32">压缩</tspan>
          </text>
        </g>
        <g transform="translate(68 46)">
          <path fill="#E7F7F8" stroke="#28B8BB" d="M58,0.5 C58.4142136,0.5 58.7892136,0.667893219 59.0606602,0.939339828 C59.3321068,1.21078644 59.5,1.58578644 59.5,2 L59.5,2 L59.5,36 C59.5,36.4142136 59.3321068,36.7892136 59.0606602,37.0606602 C58.7892136,37.3321068 58.4142136,37.5 58,37.5 L58,37.5 L2,37.5 C1.58578644,37.5 1.21078644,37.3321068 0.939339828,37.0606602 C0.667893219,36.7892136 0.5,36.4142136 0.5,36 L0.5,36 L0.5,2 C0.5,1.58578644 0.667893219,1.21078644 0.939339828,0.939339828 C1.21078644,0.667893219 1.58578644,0.5 2,0.5 L2,0.5 Z"/>
          <text fill="#28B8BB" font-family="PingFangSC-Regular, PingFang SC" font-size="12">
            <tspan x="18" y="15">推流</tspan> <tspan x="18" y="32">传输</tspan>
          </text>
        </g>
      </g>
    </g>
    <g transform="translate(18 50)">
      <text fill="#28B8BB" font-family="PingFangSC-Regular, PingFang SC" font-size="12">
        <tspan x="0" y="41">安卓</tspan>
      </text>
      <g fill-rule="nonzero">
        <rect width="24" height="24" fill="#000" opacity="0"/>
        <path fill="#28B8BB" d="M19.889116,8.25588864 C19.1818423,8.25588864 18.5959323,8.81588948 18.5959323,9.49589049 L18.5959323,14.3181704 C18.5959323,14.9981714 19.1618422,15.5586268 19.889116,15.5586268 C20.5959323,15.5586268 21.1818452,14.9981714 21.1818452,14.3177159 L21.1818452,9.49634503 C21.1618452,8.81634401 20.5959323,8.25634318 19.889116,8.2563432 L19.889116,8.25588864 Z M4.29272921,8.25588864 C3.58636452,8.25588864 3,8.81588948 3,9.49543594 L3,14.3181704 C3,14.9981714 3.56545538,15.5586268 4.29272921,15.5586268 C5.02000301,15.5586268 5.58591294,14.9981714 5.58591294,14.3177159 L5.58591294,9.49634503 C5.58591294,8.81634401 5.02000299,8.25634318 4.29272921,8.2563432 L4.29272921,8.25588864 Z M6.37364138,8.29588871 L6.37364138,17.1186291 C6.37364138,17.6386299 6.8181875,18.0786305 7.38364289,18.0786305 L8.5354628,18.0786305 L8.5354628,20.7595436 C8.5354628,21.4399992 9.10091818,22 9.82819198,22 C10.5354658,22 11.1213757,21.4399992 11.1213757,20.7595436 L11.1213757,18.0786305 L13.1413787,18.0786305 L13.1413787,20.7595436 C13.1413787,21.4399992 13.7072887,22 14.4345625,22 C15.1409272,22 15.7272917,21.4399992 15.7272917,20.7595436 L15.7272917,18.0786305 L16.878657,18.0786305 C17.444567,18.0786305 17.8891131,17.6586299 17.8891131,17.1186291 L17.8891131,8.29543417 L6.37364138,8.29543417 L6.37364138,8.29588871 Z M14.8181994,3.73406374 L15.8891101,2.29360704 C15.9291102,2.19360689 15.9291102,2.07360671 15.8282009,2.03360666 C15.7472917,1.97360658 15.6263824,2.01360664 15.5654732,2.09360675 L14.4745625,3.59406353 C13.7099386,3.31856362 12.9036612,3.17649643 12.0909226,3.17406291 C11.242285,3.17406291 10.4345565,3.31406311 9.7072827,3.59406353 L8.616372,2.09406129 C8.55546282,1.99406114 8.43455353,1.97360656 8.35364433,2.03360666 C8.27181091,2.09487193 8.25366924,2.21017228 8.31273518,2.29360704 L9.38364586,3.73451828 C7.70727973,4.47451938 6.51545978,5.87497601 6.37364138,7.515433 L17.869113,7.515433 C17.6872946,5.87452148 16.5150201,4.4745194 14.8181994,3.73406374 L14.8181994,3.73406374 Z M9.6668281,6.01497622 C9.3031912,6.01497622 9.04046354,5.75497583 9.04046354,5.41497533 C9.04046354,5.07452027 9.32319124,4.81497443 9.6668281,4.81497443 C10.030465,4.81497443 10.2927381,5.07452027 10.2927381,5.41497533 C10.2927381,5.75497583 10.0100104,6.01497622 9.6668281,6.01497622 Z M14.5959264,6.01497622 C14.2322895,6.01497622 13.9695618,5.75497583 13.9695618,5.41497533 C13.9695618,5.07452027 14.252744,4.81497443 14.5959264,4.81497443 C14.9595633,4.81497443 15.2222909,5.07452027 15.2222909,5.41497533 C15.2222909,5.75497583 14.9395632,6.01497622 14.5959264,6.01497622 Z"/>
      </g>
      <g transform="translate(36)">
        <text fill="#28B8BB" font-family="PingFangSC-Regular, PingFang SC" font-size="12">
          <tspan x="3.07" y="41">iOS</tspan>
        </text>
        <g fill-rule="nonzero">
          <rect width="24" height="24" fill="#000" opacity="0"/>
          <path fill="#28B8BB" d="M15.2680129,5.22015971 C15.9168721,4.38431208 16.4084691,3.20419349 16.2313758,2 C15.1688162,2.07365285 13.929204,2.75085102 13.2067124,3.63201249 C12.5464891,4.4310541 12.0039063,5.61825234 12.2150105,6.7714601 C13.376726,6.80828653 14.5724117,6.11552129 15.2680129,5.22015971 Z M21,16.5524565 C20.5353138,17.5823927 20.3129066,18.0442225 19.7150536,18.9565794 C18.8791652,20.231651 17.7033107,21.8183496 16.2455147,21.8296934 C14.9506324,21.8438527 14.6162974,20.9853175 12.8595851,20.9952331 C11.1028728,21.0051487 10.7345474,21.8466886 9.43823683,21.8340606 C7.98046128,21.819737 6.86691588,20.3888723 6.03247602,19.1138619 C3.69917007,15.5522467 3.45409582,11.3715396 4.8920402,9.14730516 C5.91630446,7.56909394 7.52995475,6.64682153 9.04722385,6.64682153 C10.5914446,6.64682153 11.5618872,7.49542069 12.8411821,7.49542069 C14.0807942,7.49542069 14.835889,6.64539335 16.6209402,6.64539335 C17.9725006,6.64539335 19.4047935,7.38210547 20.4247937,8.65713627 C17.0827701,10.4917655 17.623986,15.2731412 21,16.5538439 L21,16.5524565 L21,16.5524565 L21,16.5524565 Z"/>
        </g>
      </g>
      <g transform="translate(72)">
        <rect width="24" height="24" x="27" fill="#000" fill-rule="nonzero" opacity="0"/>
        <path fill="#28B8BB" fill-rule="nonzero" d="M40.8867187,9.1828125 C40.3546875,8.65078125 39.7335937,8.3953125 39,8.3953125 C38.2664062,8.3953125 37.6453125,8.65078125 37.1132812,9.1828125 C36.58125,9.69609375 36.3257812,10.3171875 36.3257812,11.0507813 C36.3257812,11.784375 36.58125,12.4054688 37.1132812,12.91875 C37.6429687,13.4320313 38.2664062,13.6875 39,13.6875 C39.7335937,13.6875 40.3546875,13.4320313 40.8867187,12.91875 C41.41875,12.4054688 41.6742187,11.784375 41.6742187,11.0507813 C41.6742187,10.3171875 41.4164062,9.69609375 40.8867187,9.1828125 L40.8867187,9.1828125 Z M40.8867187,9.1828125 C40.3546875,8.65078125 39.7335937,8.3953125 39,8.3953125 C38.2664062,8.3953125 37.6453125,8.65078125 37.1132812,9.1828125 C36.58125,9.69609375 36.3257812,10.3171875 36.3257812,11.0507813 C36.3257812,11.784375 36.58125,12.4054688 37.1132812,12.91875 C37.6429687,13.4320313 38.2664062,13.6875 39,13.6875 C39.7335937,13.6875 40.3546875,13.4320313 40.8867187,12.91875 C41.41875,12.4054688 41.6742187,11.784375 41.6742187,11.0507813 C41.6742187,10.3171875 41.4164062,9.69609375 40.8867187,9.1828125 L40.8867187,9.1828125 Z M40.8867187,9.1828125 C40.3546875,8.65078125 39.7335937,8.3953125 39,8.3953125 C38.2664062,8.3953125 37.6453125,8.65078125 37.1132812,9.1828125 C36.58125,9.69609375 36.3257812,10.3171875 36.3257812,11.0507813 C36.3257812,11.784375 36.58125,12.4054688 37.1132812,12.91875 C37.6429687,13.4320313 38.2664062,13.6875 39,13.6875 C39.7335937,13.6875 40.3546875,13.4320313 40.8867187,12.91875 C41.41875,12.4054688 41.6742187,11.784375 41.6742187,11.0507813 C41.6742187,10.3171875 41.4164062,9.69609375 40.8867187,9.1828125 L40.8867187,9.1828125 Z"/>
        <g fill="#28B8BB" transform="translate(0 3.105)">
          <path fill-rule="nonzero" d="M35.9398438,11.9367188 C36.6546875,10.7109375 37.0203125,9.39140625 37.0203125,7.9453125 C37.0203125,6.49921875 36.6546875,5.1796875 35.9398438,3.95390625 C35.225,2.72578125 34.2359375,1.77421875 33.0101563,1.06171875 C31.7820313,0.346875 30.4460938,0 29,0 C27.5539063,0 26.1992188,0.346875 24.9710938,1.06171875 C23.7453125,1.7765625 22.7726563,2.728125 22.0601563,3.95390625 C21.3453125,5.1796875 20.9796875,6.49921875 20.9796875,7.9453125 C20.9796875,9.39140625 21.3453125,10.7109375 22.0601563,11.9367188 C22.6507813,12.9515625 23.4171875,13.7789063 24.359375,14.4375 C23.1992188,14.79375 22.484375,15.28125 22.484375,15.8203125 C22.484375,16.9078125 25.4023438,17.7890625 29,17.7890625 C32.5976563,17.7890625 35.515625,16.9078125 35.515625,15.8203125 C35.515625,15.2789063 34.7960938,14.7914063 33.6289063,14.4351563 C34.5734375,13.7765625 35.3492188,12.9515625 35.9398438,11.9367188 Z M25.9414063,4.92421875 C26.7828125,4.0828125 27.809375,3.6609375 29,3.6609375 C30.190625,3.6609375 31.2148438,4.0828125 32.0585938,4.92421875 C32.9,5.74921875 33.321875,6.7546875 33.321875,7.9453125 C33.321875,9.1359375 32.9,10.14375 32.0585938,10.9664063 C31.2171875,11.7914063 30.190625,12.2109375 29,12.2109375 C27.809375,12.2109375 26.7851563,11.7890625 25.9414063,10.9664063 C25.1,10.1414062 24.678125,9.1359375 24.678125,7.9453125 C24.678125,6.75703125 25.1,5.74921875 25.9414063,4.92421875 Z"/>
          <text font-family="PingFangSC-Regular, PingFang SC" font-size="12">
            <tspan x=".002" y="37.895">IP Camera</tspan>
          </text>
        </g>
      </g>
    </g>
    <g transform="translate(0 247)">
      <path fill="#28B8BB" d="M2,0 L164,0 C165.104569,-1.58997828e-14 166,0.8954305 166,2 L166,162 C166,163.104569 165.104569,164 164,164 L2,164 C0.8954305,164 1.3527075e-16,163.104569 0,162 L0,2 C-1.3527075e-16,0.8954305 0.8954305,2.02906125e-16 2,0 Z" opacity=".11"/>
      <g transform="translate(8 8)">
        <path fill="#FFF" d="M2,0 L148,0 C149.104569,-2.02906125e-16 150,0.8954305 150,2 L150,146 C150,147.104569 149.104569,148 148,148 L2,148 C0.8954305,148 1.3527075e-16,147.104569 0,146 L0,2 C-1.3527075e-16,0.8954305 0.8954305,2.02906125e-16 2,0 Z" opacity=".85"/>
        <text fill="#28B8BB" font-family="PingFangSC-Medium, PingFang SC" font-size="14" font-weight="400">
          <tspan x="47" y="21">云导播台</tspan>
        </text>
        <g transform="translate(11 32)">
          <path fill="#E7F7F8" stroke="#28B8BB" d="M58,0.5 C58.4142136,0.5 58.7892136,0.667893219 59.0606602,0.939339828 C59.3321068,1.21078644 59.5,1.58578644 59.5,2 L59.5,2 L59.5,36 C59.5,36.4142136 59.3321068,36.7892136 59.0606602,37.0606602 C58.7892136,37.3321068 58.4142136,37.5 58,37.5 L58,37.5 L2,37.5 C1.58578644,37.5 1.21078644,37.3321068 0.939339828,37.0606602 C0.667893219,36.7892136 0.5,36.4142136 0.5,36 L0.5,36 L0.5,2 C0.5,1.58578644 0.667893219,1.21078644 0.939339828,0.939339828 C1.21078644,0.667893219 1.58578644,0.5 2,0.5 L2,0.5 Z"/>
          <text fill="#28B8BB" font-family="PingFangSC-Regular, PingFang SC" font-size="12">
            <tspan x="12" y="24">直播流</tspan>
          </text>
          <g transform="translate(68)">
            <path fill="#E7F7F8" stroke="#28B8BB" d="M58,0.5 C58.4142136,0.5 58.7892136,0.667893219 59.0606602,0.939339828 C59.3321068,1.21078644 59.5,1.58578644 59.5,2 L59.5,2 L59.5,36 C59.5,36.4142136 59.3321068,36.7892136 59.0606602,37.0606602 C58.7892136,37.3321068 58.4142136,37.5 58,37.5 L58,37.5 L2,37.5 C1.58578644,37.5 1.21078644,37.3321068 0.939339828,37.0606602 C0.667893219,36.7892136 0.5,36.4142136 0.5,36 L0.5,36 L0.5,2 C0.5,1.58578644 0.667893219,1.21078644 0.939339828,0.939339828 C1.21078644,0.667893219 1.58578644,0.5 2,0.5 L2,0.5 Z"/>
            <text fill="#28B8BB" font-family="PingFangSC-Regular, PingFang SC" font-size="12">
              <tspan x="18" y="24">图片</tspan>
            </text>
          </g>
          <g transform="translate(0 46)">
            <path fill="#E7F7F8" stroke="#28B8BB" d="M58,0.5 C58.4142136,0.5 58.7892136,0.667893219 59.0606602,0.939339828 C59.3321068,1.21078644 59.5,1.58578644 59.5,2 L59.5,2 L59.5,36 C59.5,36.4142136 59.3321068,36.7892136 59.0606602,37.0606602 C58.7892136,37.3321068 58.4142136,37.5 58,37.5 L58,37.5 L2,37.5 C1.58578644,37.5 1.21078644,37.3321068 0.939339828,37.0606602 C0.667893219,36.7892136 0.5,36.4142136 0.5,36 L0.5,36 L0.5,2 C0.5,1.58578644 0.667893219,1.21078644 0.939339828,0.939339828 C1.21078644,0.667893219 1.58578644,0.5 2,0.5 L2,0.5 Z"/>
            <text fill="#28B8BB" font-family="PingFangSC-Regular, PingFang SC" font-size="12">
              <tspan x="12" y="15">音视频</tspan> <tspan x="18" y="32">文件</tspan>
            </text>
          </g>
          <g transform="translate(68 46)">
            <path fill="#E7F7F8" stroke="#28B8BB" d="M58,0.5 C58.4142136,0.5 58.7892136,0.667893219 59.0606602,0.939339828 C59.3321068,1.21078644 59.5,1.58578644 59.5,2 L59.5,2 L59.5,36 C59.5,36.4142136 59.3321068,36.7892136 59.0606602,37.0606602 C58.7892136,37.3321068 58.4142136,37.5 58,37.5 L58,37.5 L2,37.5 C1.58578644,37.5 1.21078644,37.3321068 0.939339828,37.0606602 C0.667893219,36.7892136 0.5,36.4142136 0.5,36 L0.5,36 L0.5,2 C0.5,1.58578644 0.667893219,1.21078644 0.939339828,0.939339828 C1.21078644,0.667893219 1.58578644,0.5 2,0.5 L2,0.5 Z"/>
            <text fill="#28B8BB" font-family="PingFangSC-Regular, PingFang SC" font-size="12">
              <tspan x="18" y="15">文字</tspan> <tspan x="18" y="32">水印</tspan>
            </text>
          </g>
        </g>
      </g>
      <g fill-rule="nonzero" transform="translate(73 132)">
        <rect width="16" height="16" fill="#000" opacity="0"/>
        <path fill="#28B8BB" d="M0,7.81816994 C0,8.82231747 0.814022408,9.63633988 1.81816994,9.63633988 C2.82231747,9.63633988 3.63633987,8.82231747 3.63633987,7.81816994 C3.63633987,6.81402241 2.82231747,6 1.81816994,6 C0.814022408,6 0,6.81402241 0,7.81816994 Z M6.18183006,7.81816994 C6.18183006,8.4677395 6.52837128,9.06796654 7.09091502,9.39275132 C7.65345876,9.71753611 8.34654124,9.71753611 8.90908498,9.39275132 C9.47162872,9.06796654 9.81816994,8.4677395 9.81816994,7.81816994 C9.81816994,6.81402241 9.00414753,6 8,6 C6.99585247,6 6.18183006,6.81402241 6.18183006,7.81816994 L6.18183006,7.81816994 Z M12.3636601,7.81816994 C12.3636601,8.82231747 13.1776825,9.63633988 14.1818301,9.63633988 C15.1859776,9.63633988 16,8.82231747 16,7.81816994 C16,6.81402241 15.1859776,6 14.1818301,6 C13.1776825,6 12.3636601,6.81402241 12.3636601,7.81816994 Z"/>
      </g>
    </g>
    <g transform="translate(680 98)">
      <path fill="#28B8BB" d="M2,0 L164,0 C165.104569,-2.02906125e-16 166,0.8954305 166,2 L166,311 C166,312.104569 165.104569,313 164,313 L2,313 C0.8954305,313 1.3527075e-16,312.104569 0,311 L0,2 C-1.3527075e-16,0.8954305 0.8954305,2.02906125e-16 2,0 Z" opacity=".11"/>
      <rect width="166" height="44" fill="#28B8BB" fill-opacity=".85"/>
      <text fill="#FFF" font-family="PingFangSC-Medium, PingFang SC" font-size="18" font-weight="400">
        <tspan x="56" y="29">播放端</tspan>
      </text>
      <g transform="translate(8 103)">
        <path fill="#FFF" d="M2,0 L148,0 C149.104569,-4.2495073e-16 150,0.8954305 150,2 L150,200 C150,201.104569 149.104569,202 148,202 L2,202 C0.8954305,202 -8.67738547e-17,201.104569 0,200 L0,2 C-3.57315355e-16,0.8954305 0.8954305,-1.91384796e-17 2,0 Z" opacity=".85"/>
        <g fill-rule="nonzero" transform="translate(67 182)">
          <rect width="16" height="16" fill="#000" opacity="0"/>
          <path fill="#28B8BB" d="M0,8 C0,9.00414753 0.814022408,9.81816994 1.81816994,9.81816994 C2.82231747,9.81816994 3.63633987,9.00414753 3.63633987,8 C3.63633987,6.99585247 2.82231747,6.18183006 1.81816994,6.18183006 C0.814022408,6.18183006 0,6.99585247 0,8 Z M6.18183006,8 C6.18183006,8.64956956 6.52837128,9.2497966 7.09091502,9.57458139 C7.65345876,9.89936617 8.34654124,9.89936617 8.90908498,9.57458139 C9.47162872,9.2497966 9.81816994,8.64956956 9.81816994,8 C9.81816994,6.99585247 9.00414753,6.18183006 8,6.18183006 C6.99585247,6.18183006 6.18183006,6.99585247 6.18183006,8 L6.18183006,8 Z M12.3636601,8 C12.3636601,9.00414753 13.1776825,9.81816994 14.1818301,9.81816994 C15.1859776,9.81816994 16,9.00414753 16,8 C16,6.99585247 15.1859776,6.18183006 14.1818301,6.18183006 C13.1776825,6.18183006 12.3636601,6.99585247 12.3636601,8 Z"/>
        </g>
        <text fill="#28B8BB" font-family="PingFangSC-Medium, PingFang SC" font-size="14" font-weight="400">
          <tspan x="44" y="21">播放 SDK</tspan>
        </text>
        <g transform="translate(11 32)">
          <path fill="#E7F7F8" stroke="#28B8BB" d="M126,0.5 C126.414214,0.5 126.789214,0.667893219 127.06066,0.939339828 C127.332107,1.21078644 127.5,1.58578644 127.5,2 L127.5,2 L127.5,30 C127.5,30.4142136 127.332107,30.7892136 127.06066,31.0606602 C126.789214,31.3321068 126.414214,31.5 126,31.5 L126,31.5 L2,31.5 C1.58578644,31.5 1.21078644,31.3321068 0.939339828,31.0606602 C0.667893219,30.7892136 0.5,30.4142136 0.5,30 L0.5,30 L0.5,2 C0.5,1.58578644 0.667893219,1.21078644 0.939339828,0.939339828 C1.21078644,0.667893219 1.58578644,0.5 2,0.5 L2,0.5 Z"/>
          <text fill="#28B8BB" font-family="PingFangSC-Regular, PingFang SC" font-size="12">
            <tspan x="40" y="21">高效解码</tspan>
          </text>
          <g transform="translate(0 38)">
            <path fill="#E7F7F8" stroke="#28B8BB" d="M126,0.5 C126.414214,0.5 126.789214,0.667893219 127.06066,0.939339828 C127.332107,1.21078644 127.5,1.58578644 127.5,2 L127.5,2 L127.5,30 C127.5,30.4142136 127.332107,30.7892136 127.06066,31.0606602 C126.789214,31.3321068 126.414214,31.5 126,31.5 L126,31.5 L2,31.5 C1.58578644,31.5 1.21078644,31.3321068 0.939339828,31.0606602 C0.667893219,30.7892136 0.5,30.4142136 0.5,30 L0.5,30 L0.5,2 C0.5,1.58578644 0.667893219,1.21078644 0.939339828,0.939339828 C1.21078644,0.667893219 1.58578644,0.5 2,0.5 L2,0.5 Z"/>
            <text fill="#28B8BB" font-family="PingFangSC-Regular, PingFang SC" font-size="12">
              <tspan x="40" y="21">硬件加速</tspan>
            </text>
          </g>
          <g transform="translate(0 76)">
            <path fill="#E7F7F8" stroke="#28B8BB" d="M126,0.5 C126.414214,0.5 126.789214,0.667893219 127.06066,0.939339828 C127.332107,1.21078644 127.5,1.58578644 127.5,2 L127.5,2 L127.5,30 C127.5,30.4142136 127.332107,30.7892136 127.06066,31.0606602 C126.789214,31.3321068 126.414214,31.5 126,31.5 L126,31.5 L2,31.5 C1.58578644,31.5 1.21078644,31.3321068 0.939339828,31.0606602 C0.667893219,30.7892136 0.5,30.4142136 0.5,30 L0.5,30 L0.5,2 C0.5,1.58578644 0.667893219,1.21078644 0.939339828,0.939339828 C1.21078644,0.667893219 1.58578644,0.5 2,0.5 L2,0.5 Z"/>
            <text fill="#28B8BB" font-family="PingFangSC-Regular, PingFang SC" font-size="12">
              <tspan x="40" y="21">首屏秒开</tspan>
            </text>
          </g>
          <g transform="translate(0 114)">
            <path fill="#E7F7F8" stroke="#28B8BB" d="M126,0.5 C126.414214,0.5 126.789214,0.667893219 127.06066,0.939339828 C127.332107,1.21078644 127.5,1.58578644 127.5,2 L127.5,2 L127.5,30 C127.5,30.4142136 127.332107,30.7892136 127.06066,31.0606602 C126.789214,31.3321068 126.414214,31.5 126,31.5 L126,31.5 L2,31.5 C1.58578644,31.5 1.21078644,31.3321068 0.939339828,31.0606602 C0.667893219,30.7892136 0.5,30.4142136 0.5,30 L0.5,30 L0.5,2 C0.5,1.58578644 0.667893219,1.21078644 0.939339828,0.939339828 C1.21078644,0.667893219 1.58578644,0.5 2,0.5 L2,0.5 Z"/>
            <text fill="#28B8BB" font-family="PingFangSC-Regular, PingFang SC" font-size="12">
              <tspan x="40" y="21">动态追帧</tspan>
            </text>
          </g>
        </g>
      </g>
      <g transform="translate(13 49)">
        <g transform="translate(0 1)">
          <text fill="#28B8BB" font-family="PingFangSC-Regular, PingFang SC" font-size="12">
            <tspan x="0" y="41">安卓</tspan>
          </text>
          <g fill-rule="nonzero">
            <rect width="24" height="24" fill="#000" opacity="0"/>
            <path fill="#28B8BB" d="M19.889116,8.25588864 C19.1818423,8.25588864 18.5959323,8.81588948 18.5959323,9.49589049 L18.5959323,14.3181704 C18.5959323,14.9981714 19.1618422,15.5586268 19.889116,15.5586268 C20.5959323,15.5586268 21.1818452,14.9981714 21.1818452,14.3177159 L21.1818452,9.49634503 C21.1618452,8.81634401 20.5959323,8.25634318 19.889116,8.2563432 L19.889116,8.25588864 Z M4.29272921,8.25588864 C3.58636452,8.25588864 3,8.81588948 3,9.49543594 L3,14.3181704 C3,14.9981714 3.56545538,15.5586268 4.29272921,15.5586268 C5.02000301,15.5586268 5.58591294,14.9981714 5.58591294,14.3177159 L5.58591294,9.49634503 C5.58591294,8.81634401 5.02000299,8.25634318 4.29272921,8.2563432 L4.29272921,8.25588864 Z M6.37364138,8.29588871 L6.37364138,17.1186291 C6.37364138,17.6386299 6.8181875,18.0786305 7.38364289,18.0786305 L8.5354628,18.0786305 L8.5354628,20.7595436 C8.5354628,21.4399992 9.10091818,22 9.82819198,22 C10.5354658,22 11.1213757,21.4399992 11.1213757,20.7595436 L11.1213757,18.0786305 L13.1413787,18.0786305 L13.1413787,20.7595436 C13.1413787,21.4399992 13.7072887,22 14.4345625,22 C15.1409272,22 15.7272917,21.4399992 15.7272917,20.7595436 L15.7272917,18.0786305 L16.878657,18.0786305 C17.444567,18.0786305 17.8891131,17.6586299 17.8891131,17.1186291 L17.8891131,8.29543417 L6.37364138,8.29543417 L6.37364138,8.29588871 Z M14.8181994,3.73406374 L15.8891101,2.29360704 C15.9291102,2.19360689 15.9291102,2.07360671 15.8282009,2.03360666 C15.7472917,1.97360658 15.6263824,2.01360664 15.5654732,2.09360675 L14.4745625,3.59406353 C13.7099386,3.31856362 12.9036612,3.17649643 12.0909226,3.17406291 C11.242285,3.17406291 10.4345565,3.31406311 9.7072827,3.59406353 L8.616372,2.09406129 C8.55546282,1.99406114 8.43455353,1.97360656 8.35364433,2.03360666 C8.27181091,2.09487193 8.25366924,2.21017228 8.31273518,2.29360704 L9.38364586,3.73451828 C7.70727973,4.47451938 6.51545978,5.87497601 6.37364138,7.515433 L17.869113,7.515433 C17.6872946,5.87452148 16.5150201,4.4745194 14.8181994,3.73406374 L14.8181994,3.73406374 Z M9.6668281,6.01497622 C9.3031912,6.01497622 9.04046354,5.75497583 9.04046354,5.41497533 C9.04046354,5.07452027 9.32319124,4.81497443 9.6668281,4.81497443 C10.030465,4.81497443 10.2927381,5.07452027 10.2927381,5.41497533 C10.2927381,5.75497583 10.0100104,6.01497622 9.6668281,6.01497622 Z M14.5959264,6.01497622 C14.2322895,6.01497622 13.9695618,5.75497583 13.9695618,5.41497533 C13.9695618,5.07452027 14.252744,4.81497443 14.5959264,4.81497443 C14.9595633,4.81497443 15.2222909,5.07452027 15.2222909,5.41497533 C15.2222909,5.75497583 14.9395632,6.01497622 14.5959264,6.01497622 Z"/>
          </g>
        </g>
        <g transform="translate(53 1)">
          <text fill="#28B8BB" font-family="PingFangSC-Regular, PingFang SC" font-size="12">
            <tspan x="3.07" y="41">iOS</tspan>
          </text>
          <g fill-rule="nonzero">
            <rect width="24" height="24" fill="#000" opacity="0"/>
            <path fill="#28B8BB" d="M15.2680129,5.22015971 C15.9168721,4.38431208 16.4084691,3.20419349 16.2313758,2 C15.1688162,2.07365285 13.929204,2.75085102 13.2067124,3.63201249 C12.5464891,4.4310541 12.0039063,5.61825234 12.2150105,6.7714601 C13.376726,6.80828653 14.5724117,6.11552129 15.2680129,5.22015971 Z M21,16.5524565 C20.5353138,17.5823927 20.3129066,18.0442225 19.7150536,18.9565794 C18.8791652,20.231651 17.7033107,21.8183496 16.2455147,21.8296934 C14.9506324,21.8438527 14.6162974,20.9853175 12.8595851,20.9952331 C11.1028728,21.0051487 10.7345474,21.8466886 9.43823683,21.8340606 C7.98046128,21.819737 6.86691588,20.3888723 6.03247602,19.1138619 C3.69917007,15.5522467 3.45409582,11.3715396 4.8920402,9.14730516 C5.91630446,7.56909394 7.52995475,6.64682153 9.04722385,6.64682153 C10.5914446,6.64682153 11.5618872,7.49542069 12.8411821,7.49542069 C14.0807942,7.49542069 14.835889,6.64539335 16.6209402,6.64539335 C17.9725006,6.64539335 19.4047935,7.38210547 20.4247937,8.65713627 C17.0827701,10.4917655 17.623986,15.2731412 21,16.5538439 L21,16.5524565 L21,16.5524565 L21,16.5524565 Z"/>
          </g>
        </g>
        <g transform="translate(116)">
          <text fill="#28B8BB" font-family="PingFangSC-Regular, PingFang SC" font-size="16">
            <tspan x="1" y="42">H5</tspan>
          </text>
          <g fill-rule="nonzero">
            <rect width="24" height="24" fill="#000" opacity="0"/>
            <path fill="#28B8BB" d="M3.57105881,2.44101698 L5.10469901,19.6475749 L11.9894471,21.558983 L18.8921591,19.6449607 L20.4289172,2.44101698 L3.57144255,2.44101698 L3.57105881,2.44101698 L3.57105881,2.44101698 Z M17.0897332,8.0685855 L9.01433627,8.0685855 L9.20668587,10.2296643 L16.898151,10.2296643 L16.318512,16.7083437 L11.9898309,17.9078185 L7.66647413,16.7083437 L7.37099447,13.3941028 L9.4899818,13.3941028 L9.64026391,15.0787686 L11.9901907,15.7119153 L11.995539,15.7104043 L14.3466889,15.0757706 L14.5906515,12.3394658 L7.27683431,12.3394658 L6.70758026,5.95830427 L17.2786051,5.95830427 L17.0897332,8.0685855 L17.0897332,8.0685855 L17.0897332,8.0685855 Z"/>
          </g>
        </g>
      </g>
    </g>
    <g transform="translate(859 9)">
      <g transform="translate(55 90)">
        <polygon fill="#E6F4F8" points="0 0 166 0 166 268 0 268"/>
        <g transform="translate(8 22)">
          <g fill-rule="nonzero" transform="translate(67 222)">
            <rect width="16" height="16" fill="#000" opacity="0"/>
            <path fill="#28B8BB" d="M0,8 C0,9.00414753 0.814022408,9.81816994 1.81816994,9.81816994 C2.82231747,9.81816994 3.63633987,9.00414753 3.63633987,8 C3.63633987,6.99585247 2.82231747,6.18183006 1.81816994,6.18183006 C0.814022408,6.18183006 0,6.99585247 0,8 Z M6.18183006,8 C6.18183006,8.64956956 6.52837128,9.2497966 7.09091502,9.57458139 C7.65345876,9.89936617 8.34654124,9.89936617 8.90908498,9.57458139 C9.47162872,9.2497966 9.81816994,8.64956956 9.81816994,8 C9.81816994,6.99585247 9.00414753,6.18183006 8,6.18183006 C6.99585247,6.18183006 6.18183006,6.99585247 6.18183006,8 L6.18183006,8 Z M12.3636601,8 C12.3636601,9.00414753 13.1776825,9.81816994 14.1818301,9.81816994 C15.1859776,9.81816994 16,9.00414753 16,8 C16,6.99585247 15.1859776,6.18183006 14.1818301,6.18183006 C13.1776825,6.18183006 12.3636601,6.99585247 12.3636601,8 Z"/>
          </g>
          <text fill="#00AAE7" font-family="PingFangSC-Medium, PingFang SC" font-size="14" font-weight="400">
            <tspan x="33" y="15">精准人物画像</tspan>
          </text>
          <g transform="translate(0 26)">
            <path fill="#EBF9FD" stroke="#00AAE7" d="M148,0.5 C148.414214,0.5 148.789214,0.667893219 149.06066,0.939339828 C149.332107,1.21078644 149.5,1.58578644 149.5,2 L149.5,2 L149.5,30 C149.5,30.4142136 149.332107,30.7892136 149.06066,31.0606602 C148.789214,31.3321068 148.414214,31.5 148,31.5 L148,31.5 L2,31.5 C1.58578644,31.5 1.21078644,31.3321068 0.939339828,31.0606602 C0.667893219,30.7892136 0.5,30.4142136 0.5,30 L0.5,30 L0.5,2 C0.5,1.58578644 0.667893219,1.21078644 0.939339828,0.939339828 C1.21078644,0.667893219 1.58578644,0.5 2,0.5 L2,0.5 Z"/>
            <text fill="#00AAE7" font-family="PingFangSC-Regular, PingFang SC" font-size="12">
              <tspan x="51" y="21">观看时长</tspan>
            </text>
            <g transform="translate(0 40)">
              <path fill="#EBF9FD" stroke="#00AAE7" d="M148,0.5 C148.414214,0.5 148.789214,0.667893219 149.06066,0.939339828 C149.332107,1.21078644 149.5,1.58578644 149.5,2 L149.5,2 L149.5,30 C149.5,30.4142136 149.332107,30.7892136 149.06066,31.0606602 C148.789214,31.3321068 148.414214,31.5 148,31.5 L148,31.5 L2,31.5 C1.58578644,31.5 1.21078644,31.3321068 0.939339828,31.0606602 C0.667893219,30.7892136 0.5,30.4142136 0.5,30 L0.5,30 L0.5,2 C0.5,1.58578644 0.667893219,1.21078644 0.939339828,0.939339828 C1.21078644,0.667893219 1.58578644,0.5 2,0.5 L2,0.5 Z"/>
              <text fill="#00AAE7" font-family="PingFangSC-Regular, PingFang SC" font-size="12">
                <tspan x="51" y="21">邀请关系</tspan>
              </text>
            </g>
            <g transform="translate(0 80)">
              <path fill="#EBF9FD" stroke="#00AAE7" d="M148,0.5 C148.414214,0.5 148.789214,0.667893219 149.06066,0.939339828 C149.332107,1.21078644 149.5,1.58578644 149.5,2 L149.5,2 L149.5,66 C149.5,66.4142136 149.332107,66.7892136 149.06066,67.0606602 C148.789214,67.3321068 148.414214,67.5 148,67.5 L148,67.5 L2,67.5 C1.58578644,67.5 1.21078644,67.3321068 0.939339828,67.0606602 C0.667893219,66.7892136 0.5,66.4142136 0.5,66 L0.5,66 L0.5,2 C0.5,1.58578644 0.667893219,1.21078644 0.939339828,0.939339828 C1.21078644,0.667893219 1.58578644,0.5 2,0.5 L2,0.5 Z"/>
              <text fill="#00AAE7" font-family="PingFangSC-Regular, PingFang SC" font-size="12">
                <tspan x="9" y="22">行为统计（聊天、点</tspan> <tspan x="9" y="39">赞、分享、浏览商品、</tspan> <tspan x="9" y="56">加入购物车、购买商品）</tspan>
              </text>
            </g>
            <g transform="translate(0 156)">
              <path fill="#EBF9FD" stroke="#00AAE7" d="M148,0.5 C148.414214,0.5 148.789214,0.667893219 149.06066,0.939339828 C149.332107,1.21078644 149.5,1.58578644 149.5,2 L149.5,2 L149.5,30 C149.5,30.4142136 149.332107,30.7892136 149.06066,31.0606602 C148.789214,31.3321068 148.414214,31.5 148,31.5 L148,31.5 L2,31.5 C1.58578644,31.5 1.21078644,31.3321068 0.939339828,31.0606602 C0.667893219,30.7892136 0.5,30.4142136 0.5,30 L0.5,30 L0.5,2 C0.5,1.58578644 0.667893219,1.21078644 0.939339828,0.939339828 C1.21078644,0.667893219 1.58578644,0.5 2,0.5 L2,0.5 Z"/>
              <text fill="#00AAE7" font-family="PingFangSC-Regular, PingFang SC" font-size="12">
                <tspan x="51" y="21">动态追帧</tspan>
              </text>
            </g>
          </g>
        </g>
      </g>
      <g transform="translate(55)">
        <rect width="166" height="72" fill="#E2F2F3"/>
        <g fill="#28B8BB" transform="translate(21 12)">
          <path fill-rule="nonzero" d="M6.95652174.869565217L.869565217.869565217C.389317609.869565217 0 1.25888283 0 1.73913043L0 7.82608696C0 8.30633457.389317609 8.69565217.869565217 8.69565217L6.95652174 8.69565217C7.43676935 8.69565217 7.82608696 8.30633457 7.82608696 7.82608696L7.82608696 1.73913043C7.82608696 1.25888283 7.43676935.869565217 6.95652174.869565217zM19.7643478 4.21391304L15.786087.235652174C15.4719843-.0783796674 14.9627983-.0783796674 14.6486957.235652174L10.6704348 4.21391304C10.3564029 4.52801573 10.3564029 5.03720166 10.6704348 5.35130435L14.6486957 9.32956522C14.9627983 9.64359706 15.4719843 9.64359706 15.786087 9.32956522L19.7643478 5.35130435C20.0783797 5.03720166 20.0783797 4.52801573 19.7643478 4.21391304L19.7643478 4.21391304zM18.2608696 12.173913L12.173913 12.173913C11.6936654 12.173913 11.3043478 12.5632307 11.3043478 13.0434783L11.3043478 19.1304348C11.3043478 19.6106824 11.6936654 20 12.173913 20L18.2608696 20C18.7411172 20 19.1304348 19.6106824 19.1304348 19.1304348L19.1304348 13.0434783C19.1304348 12.5632307 18.7411172 12.173913 18.2608696 12.173913zM6.95652174 12.173913L.869565217 12.173913C.389317609 12.173913 0 12.5632307 0 13.0434783L0 19.1304348C0 19.6106824.389317609 20 .869565217 20L6.95652174 20C7.43676935 20 7.82608696 19.6106824 7.82608696 19.1304348L7.82608696 13.0434783C7.82608696 12.5632307 7.43676935 12.173913 6.95652174 12.173913z" transform="translate(52)"/>
          <text font-family="PingFangSC-Regular, PingFang SC" font-size="14">
            <tspan x=".26" y="43">商城（小程序/H5）</tspan>
          </text>
        </g>
      </g>
      <g transform="translate(0 378)">
        <g transform="translate(55 60)">
          <rect width="166" height="72" fill="#E6F4F8"/>
          <g fill="#00AAE7" transform="translate(34 13)">
            <path fill-rule="nonzero" d="M4.5,17 C4.77614237,17 5,17.2238576 5,17.5 L5,21.5 C5,21.7761424 4.77614237,22 4.5,22 L1.5,22 C1.22385763,22 1,21.7761424 1,21.5 L1,17.5 C1,17.2238576 1.22385763,17 1.5,17 L4.5,17 Z M10.5,10 C10.7761424,10 11,10.2238576 11,10.5 L11,21.5 C11,21.7761424 10.7761424,22 10.5,22 L7.5,22 C7.22385763,22 7,21.7761424 7,21.5 L7,10.5 C7,10.2238576 7.22385763,10 7.5,10 L10.5,10 Z M16.5,17 C16.7761424,17 17,17.2238576 17,17.5 L17,21.5 C17,21.7761424 16.7761424,22 16.5,22 L13.5,22 C13.2238576,22 13,21.7761424 13,21.5 L13,17.5 C13,17.2238576 13.2238576,17 13.5,17 L16.5,17 Z M22.5,10 C22.7761424,10 23,10.2238576 23,10.5 L23,21.5 C23,21.7761424 22.7761424,22 22.5,22 L19.5,22 C19.2238576,22 19,21.7761424 19,21.5 L19,10.5 C19,10.2238576 19.2238576,10 19.5,10 L22.5,10 Z M21.293,0.293 C21.6853789,-0.0859722095 22.3090848,-0.0805523739 22.6948186,0.305181425 C23.0805524,0.690915223 23.0859722,1.31462111 22.707,1.707 L22.707,1.707 L15.707,8.707 C15.3165001,9.09738194 14.6834999,9.09738194 14.293,8.707 L14.293,8.707 L9,3.414 L2.707,9.707 C2.45592553,9.96695658 2.08412211,10.0712126 1.73449268,9.97969716 C1.38486324,9.88818172 1.11181828,9.61513676 1.02030284,9.26550732 C0.928787403,8.91587789 1.03304342,8.54407447 1.293,8.293 L1.293,8.293 L8.293,1.293 C8.68349985,0.902618062 9.31650015,0.902618062 9.707,1.293 L9.707,1.293 L15,6.586 Z" transform="translate(38)"/>
            <text font-family="PingFangSC-Regular, PingFang SC" font-size="14">
              <tspan x="0" y="42">数据统计服务器</tspan>
            </text>
          </g>
        </g>
        <path fill="#00AAE7" fill-rule="nonzero" d="M149-.07L149 34.07 153 34.07 148.5 43.07 144 34.07 148 34.07 148-.07 149-.07zM126.5-.5L126.5 34.5 130.5 34.5 126 43.5 121.5 34.5 125.5 34.5 125.5.5-.5.5-.5-.5 126.5-.5z"/>
      </g>
    </g>
    <g transform="translate(268)">
      <path fill="#EBF9FD" stroke="#00AAE7" d="M308,0.5 C308.414214,0.5 308.789214,0.667893219 309.06066,0.939339828 C309.332107,1.21078644 309.5,1.58578644 309.5,2 L309.5,2 L309.5,62 C309.5,62.4142136 309.332107,62.7892136 309.06066,63.0606602 C308.789214,63.3321068 308.414214,63.5 308,63.5 L308,63.5 L2,63.5 C1.58578644,63.5 1.21078644,63.3321068 0.939339828,63.0606602 C0.667893219,62.7892136 0.5,62.4142136 0.5,62 L0.5,62 L0.5,2 C0.5,1.58578644 0.667893219,1.21078644 0.939339828,0.939339828 C1.21078644,0.667893219 1.58578644,0.5 2,0.5 L2,0.5 Z"/>
      <g transform="translate(74 18)">
        <text fill="#00AAE7" font-family="PingFangSC-Regular, PingFang SC" font-size="16">
          <tspan x="40" y="20">云主机服务 QVM</tspan>
        </text>
        <rect width="24" height="18" fill="#00AAE7"/>
        <rect width="24" height="8" y="20" fill="#00AAE7"/>
        <circle cx="18" cy="6" r="2" fill="#FFF"/>
        <circle cx="18" cy="12" r="2" fill="#FFF"/>
        <circle cx="18" cy="24" r="2" fill="#FFF"/>
      </g>
    </g>
    <g transform="translate(172 3)">
      <path fill="#1AB9EB" fill-rule="nonzero" d="M81.5,25 L90.5,29.5 L81.5,34 L81.5,30 L8.5,30 L8.5,34 L-0.5,29.5 L8.5,25 L8.5,29 L81.5,29 L81.5,25 Z"/>
      <g transform="translate(15)">
        <path fill="#E2F5FC" stroke="#1AB9EB" d="M58,0.5 C58.4142136,0.5 58.7892136,0.667893219 59.0606602,0.939339828 C59.3321068,1.21078644 59.5,1.58578644 59.5,2 L59.5,2 L59.5,57 C59.5,57.4142136 59.3321068,57.7892136 59.0606602,58.0606602 C58.7892136,58.3321068 58.4142136,58.5 58,58.5 L58,58.5 L2,58.5 C1.58578644,58.5 1.21078644,58.3321068 0.939339828,58.0606602 C0.667893219,57.7892136 0.5,57.4142136 0.5,57 L0.5,57 L0.5,2 C0.5,1.58578644 0.667893219,1.21078644 0.939339828,0.939339828 C1.21078644,0.667893219 1.58578644,0.5 2,0.5 L2,0.5 Z"/>
        <text fill="#00AAE7" font-family="PingFangSC-Regular, PingFang SC" font-size="12">
          <tspan x="5" y="17">授权并获</tspan> <tspan x="5" y="34">取推流地</tspan> <tspan x="5" y="51">址</tspan>
        </text>
      </g>
      <g transform="translate(0 204)">
        <path fill="#1AB9EB" fill-rule="nonzero" d="M81.5,8 L90.5,12.5 L81.5,17 L81.5,13 L0,13 L0,12 L81.5,12 L81.5,8 Z"/>
        <g transform="translate(21)">
          <path fill="#E2F5FC" stroke="#1AB9EB" d="M46,0.5 C46.4142136,0.5 46.7892136,0.667893219 47.0606602,0.939339828 C47.3321068,1.21078644 47.5,1.58578644 47.5,2 L47.5,2 L47.5,22 C47.5,22.4142136 47.3321068,22.7892136 47.0606602,23.0606602 C46.7892136,23.3321068 46.4142136,23.5 46,23.5 L46,23.5 L2,23.5 C1.58578644,23.5 1.21078644,23.3321068 0.939339828,23.0606602 C0.667893219,22.7892136 0.5,22.4142136 0.5,22 L0.5,22 L0.5,2 C0.5,1.58578644 0.667893219,1.21078644 0.939339828,0.939339828 C1.21078644,0.667893219 1.58578644,0.5 2,0.5 L2,0.5 Z"/>
          <text fill="#00AAE7" font-family="PingFangSC-Regular, PingFang SC" font-size="12">
            <tspan x="7" y="16">RTMP</tspan>
          </text>
        </g>
      </g>
      <g transform="translate(0 319)">
        <path fill="#1AB9EB" fill-rule="nonzero" d="M81.5,8 L90.5,12.5 L81.5,17 L81.5,13 L0,13 L0,12 L81.5,12 L81.5,8 Z"/>
        <g transform="translate(21)">
          <path fill="#E2F5FC" stroke="#1AB9EB" d="M46,0.5 C46.4142136,0.5 46.7892136,0.667893219 47.0606602,0.939339828 C47.3321068,1.21078644 47.5,1.58578644 47.5,2 L47.5,2 L47.5,22 C47.5,22.4142136 47.3321068,22.7892136 47.0606602,23.0606602 C46.7892136,23.3321068 46.4142136,23.5 46,23.5 L46,23.5 L2,23.5 C1.58578644,23.5 1.21078644,23.3321068 0.939339828,23.0606602 C0.667893219,22.7892136 0.5,22.4142136 0.5,22 L0.5,22 L0.5,2 C0.5,1.58578644 0.667893219,1.21078644 0.939339828,0.939339828 C1.21078644,0.667893219 1.58578644,0.5 2,0.5 L2,0.5 Z"/>
          <text fill="#00AAE7" font-family="PingFangSC-Regular, PingFang SC" font-size="12">
            <tspan x="7" y="16">RTMP</tspan>
          </text>
        </g>
      </g>
    </g>
    <g transform="translate(587 16)">
      <path fill="#1AB9EB" fill-rule="nonzero" d="M8.5 20.5L-.5 16 8.5 11.5 8.5 15.5 174.5 15.5 174.5 64.5 178.5 64.5 174 73.5 169.5 64.5 173.5 64.5 173.5 16.5 8.5 16.5 8.5 20.5zM319 44L319 45 204 45 204 65 208 65 203.5 74 199 65 203 65 203 44 319 44z"/>
      <g transform="translate(102)">
        <path fill="#EBF9FD" stroke="#1AB9EB" d="M146,0.5 C146.414214,0.5 146.789214,0.667893219 147.06066,0.939339828 C147.332107,1.21078644 147.5,1.58578644 147.5,2 L147.5,2 L147.5,30 C147.5,30.4142136 147.332107,30.7892136 147.06066,31.0606602 C146.789214,31.3321068 146.414214,31.5 146,31.5 L146,31.5 L2,31.5 C1.58578644,31.5 1.21078644,31.3321068 0.939339828,31.0606602 C0.667893219,30.7892136 0.5,30.4142136 0.5,30 L0.5,30 L0.5,2 C0.5,1.58578644 0.667893219,1.21078644 0.939339828,0.939339828 C1.21078644,0.667893219 1.58578644,0.5 2,0.5 L2,0.5 Z"/>
        <text fill="#00AAE7" font-family="PingFangSC-Regular, PingFang SC" font-size="12">
          <tspan x="20" y="21">授权并获取拉流地址</tspan>
        </text>
      </g>
    </g>
    <g transform="translate(268 71)">
      <path fill="#1AB9EB" fill-rule="nonzero" d="M155.568922,-0.00162667569 L160.042489,9.01154106 L156.042,8.999 L155.845,75.999 L159.845859,76.0112525 L155.319466,84.9980073 L150.845898,75.9848395 L154.845,75.996 L155.042,8.997 L151.042528,8.98512807 L155.568922,-0.00162667569 Z"/>
      <g transform="translate(0 16)">
        <path fill="#EBF9FD" stroke="#1AB9EB" d="M308,0.5 C308.414214,0.5 308.789214,0.667893219 309.06066,0.939339828 C309.332107,1.21078644 309.5,1.58578644 309.5,2 L309.5,2 L309.5,42 C309.5,42.4142136 309.332107,42.7892136 309.06066,43.0606602 C308.789214,43.3321068 308.414214,43.5 308,43.5 L308,43.5 L2,43.5 C1.58578644,43.5 1.21078644,43.3321068 0.939339828,43.0606602 C0.667893219,42.7892136 0.5,42.4142136 0.5,42 L0.5,42 L0.5,2 C0.5,1.58578644 0.667893219,1.21078644 0.939339828,0.939339828 C1.21078644,0.667893219 1.58578644,0.5 2,0.5 L2,0.5 Z"/>
        <text fill="#00AAE7" font-family="PingFangSC-Regular, PingFang SC" font-size="16">
          <tspan x="112" y="28">服务端 SDK</tspan>
        </text>
      </g>
    </g>
    <g transform="translate(584 211)">
      <path fill="#1AB9EB" fill-rule="nonzero" d="M81.5,8 L90.5,12.5 L81.5,17 L81.5,13 L0,13 L0,12 L81.5,12 L81.5,8 Z"/>
      <g transform="translate(19)">
        <path fill="#E2F5FC" stroke="#1AB9EB" d="M46,0.5 C46.4142136,0.5 46.7892136,0.667893219 47.0606602,0.939339828 C47.3321068,1.21078644 47.5,1.58578644 47.5,2 L47.5,2 L47.5,22 C47.5,22.4142136 47.3321068,22.7892136 47.0606602,23.0606602 C46.7892136,23.3321068 46.4142136,23.5 46,23.5 L46,23.5 L2,23.5 C1.58578644,23.5 1.21078644,23.3321068 0.939339828,23.0606602 C0.667893219,22.7892136 0.5,22.4142136 0.5,22 L0.5,22 L0.5,2 C0.5,1.58578644 0.667893219,1.21078644 0.939339828,0.939339828 C1.21078644,0.667893219 1.58578644,0.5 2,0.5 L2,0.5 Z"/>
        <text fill="#00AAE7" font-family="PingFangSC-Regular, PingFang SC" font-size="12">
          <tspan x="7" y="16">RTMP</tspan>
        </text>
      </g>
      <g transform="translate(0 52)">
        <path fill="#1AB9EB" fill-rule="nonzero" d="M81.5,8 L90.5,12.5 L81.5,17 L81.5,13 L0,13 L0,12 L81.5,12 L81.5,8 Z"/>
        <g transform="translate(19)">
          <path fill="#E2F5FC" stroke="#1AB9EB" d="M46,0.5 C46.4142136,0.5 46.7892136,0.667893219 47.0606602,0.939339828 C47.3321068,1.21078644 47.5,1.58578644 47.5,2 L47.5,2 L47.5,22 C47.5,22.4142136 47.3321068,22.7892136 47.0606602,23.0606602 C46.7892136,23.3321068 46.4142136,23.5 46,23.5 L46,23.5 L2,23.5 C1.58578644,23.5 1.21078644,23.3321068 0.939339828,23.0606602 C0.667893219,22.7892136 0.5,22.4142136 0.5,22 L0.5,22 L0.5,2 C0.5,1.58578644 0.667893219,1.21078644 0.939339828,0.939339828 C1.21078644,0.667893219 1.58578644,0.5 2,0.5 L2,0.5 Z"/>
          <text fill="#00AAE7" font-family="PingFangSC-Regular, PingFang SC" font-size="12">
            <tspan x="12" y="16">HLS</tspan>
          </text>
        </g>
      </g>
      <g transform="translate(0 104)">
        <path fill="#1AB9EB" fill-rule="nonzero" d="M81.5,8 L90.5,12.5 L81.5,17 L81.5,13 L0,13 L0,12 L81.5,12 L81.5,8 Z"/>
        <g transform="translate(19)">
          <path fill="#E2F5FC" stroke="#1AB9EB" d="M46,0.5 C46.4142136,0.5 46.7892136,0.667893219 47.0606602,0.939339828 C47.3321068,1.21078644 47.5,1.58578644 47.5,2 L47.5,2 L47.5,22 C47.5,22.4142136 47.3321068,22.7892136 47.0606602,23.0606602 C46.7892136,23.3321068 46.4142136,23.5 46,23.5 L46,23.5 L2,23.5 C1.58578644,23.5 1.21078644,23.3321068 0.939339828,23.0606602 C0.667893219,22.7892136 0.5,22.4142136 0.5,22 L0.5,22 L0.5,2 C0.5,1.58578644 0.667893219,1.21078644 0.939339828,0.939339828 C1.21078644,0.667893219 1.58578644,0.5 2,0.5 L2,0.5 Z"/>
          <text fill="#00AAE7" font-family="PingFangSC-Regular, PingFang SC" font-size="12">
            <tspan x="12" y="16">HDL</tspan>
          </text>
        </g>
      </g>
      <g transform="translate(0 156)">
        <path fill="#1AB9EB" fill-rule="nonzero" d="M81.5,8 L90.5,12.5 L81.5,17 L81.5,13 L0,13 L0,12 L81.5,12 L81.5,8 Z"/>
        <g transform="translate(19)">
          <path fill="#E2F5FC" stroke="#1AB9EB" d="M46,0.5 C46.4142136,0.5 46.7892136,0.667893219 47.0606602,0.939339828 C47.3321068,1.21078644 47.5,1.58578644 47.5,2 L47.5,2 L47.5,22 C47.5,22.4142136 47.3321068,22.7892136 47.0606602,23.0606602 C46.7892136,23.3321068 46.4142136,23.5 46,23.5 L46,23.5 L2,23.5 C1.58578644,23.5 1.21078644,23.3321068 0.939339828,23.0606602 C0.667893219,22.7892136 0.5,22.4142136 0.5,22 L0.5,22 L0.5,2 C0.5,1.58578644 0.667893219,1.21078644 0.939339828,0.939339828 C1.21078644,0.667893219 1.58578644,0.5 2,0.5 L2,0.5 Z"/>
          <text fill="#00AAE7" font-family="PingFangSC-Regular, PingFang SC" font-size="12">
            <tspan x="12" y="16">点播</tspan>
          </text>
        </g>
      </g>
    </g>
    <g transform="translate(0 418)">
      <g transform="translate(0 29)">
        <polygon fill="#28B8BB" points="0 0 166 0 166 244 0 244" opacity=".11"/>
        <rect width="166" height="44" fill="#28B8BB" fill-opacity=".85"/>
        <g transform="translate(10 108)">
          <path fill="#E7F7F8" stroke="#28B8BB" d="M66,0.5 C66.4142136,0.5 66.7892136,0.667893219 67.0606602,0.939339828 C67.3321068,1.21078644 67.5,1.58578644 67.5,2 L67.5,2 L67.5,30 C67.5,30.4142136 67.3321068,30.7892136 67.0606602,31.0606602 C66.7892136,31.3321068 66.4142136,31.5 66,31.5 L66,31.5 L2,31.5 C1.58578644,31.5 1.21078644,31.3321068 0.939339828,31.0606602 C0.667893219,30.7892136 0.5,30.4142136 0.5,30 L0.5,30 L0.5,2 C0.5,1.58578644 0.667893219,1.21078644 0.939339828,0.939339828 C1.21078644,0.667893219 1.58578644,0.5 2,0.5 L2,0.5 Z"/>
          <text fill="#28B8BB" font-family="PingFangSC-Regular, PingFang SC" font-size="12">
            <tspan x="10" y="21">单向直播</tspan>
          </text>
          <g transform="translate(78)">
            <path fill="#E7F7F8" stroke="#28B8BB" d="M66,0.5 C66.4142136,0.5 66.7892136,0.667893219 67.0606602,0.939339828 C67.3321068,1.21078644 67.5,1.58578644 67.5,2 L67.5,2 L67.5,30 C67.5,30.4142136 67.3321068,30.7892136 67.0606602,31.0606602 C66.7892136,31.3321068 66.4142136,31.5 66,31.5 L66,31.5 L2,31.5 C1.58578644,31.5 1.21078644,31.3321068 0.939339828,31.0606602 C0.667893219,30.7892136 0.5,30.4142136 0.5,30 L0.5,30 L0.5,2 C0.5,1.58578644 0.667893219,1.21078644 0.939339828,0.939339828 C1.21078644,0.667893219 1.58578644,0.5 2,0.5 L2,0.5 Z"/>
            <text fill="#28B8BB" font-family="PingFangSC-Regular, PingFang SC" font-size="12">
              <tspan x="10" y="21">连麦互动</tspan>
            </text>
          </g>
          <g transform="translate(0 44)">
            <path fill="#E7F7F8" stroke="#28B8BB" d="M66,0.5 C66.4142136,0.5 66.7892136,0.667893219 67.0606602,0.939339828 C67.3321068,1.21078644 67.5,1.58578644 67.5,2 L67.5,2 L67.5,30 C67.5,30.4142136 67.3321068,30.7892136 67.0606602,31.0606602 C66.7892136,31.3321068 66.4142136,31.5 66,31.5 L66,31.5 L2,31.5 C1.58578644,31.5 1.21078644,31.3321068 0.939339828,31.0606602 C0.667893219,30.7892136 0.5,30.4142136 0.5,30 L0.5,30 L0.5,2 C0.5,1.58578644 0.667893219,1.21078644 0.939339828,0.939339828 C1.21078644,0.667893219 1.58578644,0.5 2,0.5 L2,0.5 Z"/>
            <text fill="#28B8BB" font-family="PingFangSC-Regular, PingFang SC" font-size="12">
              <tspan x="10" y="21">美颜美妆</tspan>
            </text>
          </g>
          <g transform="translate(78 44)">
            <path fill="#E7F7F8" stroke="#28B8BB" d="M66,0.5 C66.4142136,0.5 66.7892136,0.667893219 67.0606602,0.939339828 C67.3321068,1.21078644 67.5,1.58578644 67.5,2 L67.5,2 L67.5,30 C67.5,30.4142136 67.3321068,30.7892136 67.0606602,31.0606602 C66.7892136,31.3321068 66.4142136,31.5 66,31.5 L66,31.5 L2,31.5 C1.58578644,31.5 1.21078644,31.3321068 0.939339828,31.0606602 C0.667893219,30.7892136 0.5,30.4142136 0.5,30 L0.5,30 L0.5,2 C0.5,1.58578644 0.667893219,1.21078644 0.939339828,0.939339828 C1.21078644,0.667893219 1.58578644,0.5 2,0.5 L2,0.5 Z"/>
            <text fill="#28B8BB" font-family="PingFangSC-Regular, PingFang SC" font-size="12">
              <tspan x="10" y="21">房间管理</tspan>
            </text>
          </g>
          <g transform="translate(0 88)">
            <path fill="#E7F7F8" stroke="#28B8BB" d="M66,0.5 C66.4142136,0.5 66.7892136,0.667893219 67.0606602,0.939339828 C67.3321068,1.21078644 67.5,1.58578644 67.5,2 L67.5,2 L67.5,30 C67.5,30.4142136 67.3321068,30.7892136 67.0606602,31.0606602 C66.7892136,31.3321068 66.4142136,31.5 66,31.5 L66,31.5 L2,31.5 C1.58578644,31.5 1.21078644,31.3321068 0.939339828,31.0606602 C0.667893219,30.7892136 0.5,30.4142136 0.5,30 L0.5,30 L0.5,2 C0.5,1.58578644 0.667893219,1.21078644 0.939339828,0.939339828 C1.21078644,0.667893219 1.58578644,0.5 2,0.5 L2,0.5 Z"/>
            <text fill="#28B8BB" font-family="PingFangSC-Regular, PingFang SC" font-size="12">
              <tspan x="15.286" y="21">IM 聊天</tspan>
            </text>
          </g>
          <g transform="translate(78 88)">
            <path fill="#E7F7F8" stroke="#28B8BB" d="M66,0.5 C66.4142136,0.5 66.7892136,0.667893219 67.0606602,0.939339828 C67.3321068,1.21078644 67.5,1.58578644 67.5,2 L67.5,2 L67.5,30 C67.5,30.4142136 67.3321068,30.7892136 67.0606602,31.0606602 C66.7892136,31.3321068 66.4142136,31.5 66,31.5 L66,31.5 L2,31.5 C1.58578644,31.5 1.21078644,31.3321068 0.939339828,31.0606602 C0.667893219,30.7892136 0.5,30.4142136 0.5,30 L0.5,30 L0.5,2 C0.5,1.58578644 0.667893219,1.21078644 0.939339828,0.939339828 C1.21078644,0.667893219 1.58578644,0.5 2,0.5 L2,0.5 Z"/>
            <text fill="#58B8BD" font-family="PingFangSC-Regular, PingFang SC" font-size="12">
              <tspan x="10" y="21">人脸核验</tspan>
            </text>
          </g>
        </g>
        <text fill="#FFF" font-family="PingFangSC-Medium, PingFang SC" font-size="18" font-weight="400">
          <tspan x="56" y="29">代理人</tspan>
        </text>
        <g transform="translate(45 52)">
          <text fill="#28B8BB" font-family="PingFangSC-Regular, PingFang SC" font-size="14">
            <tspan x="0" y="41">安卓</tspan>
          </text>
          <text fill="#28B8BB" font-family="PingFangSC-Regular, PingFang SC" font-size="14">
            <tspan x="53" y="41">iOS</tspan>
          </text>
          <g fill-rule="nonzero" transform="translate(51)">
            <rect width="24" height="24" fill="#000" opacity="0"/>
            <path fill="#28B8BB" d="M15.2680129,5.22015971 C15.9168721,4.38431208 16.4084691,3.20419349 16.2313758,2 C15.1688162,2.07365285 13.929204,2.75085102 13.2067124,3.63201249 C12.5464891,4.4310541 12.0039063,5.61825234 12.2150105,6.7714601 C13.376726,6.80828653 14.5724117,6.11552129 15.2680129,5.22015971 Z M21,16.5524565 C20.5353138,17.5823927 20.3129066,18.0442225 19.7150536,18.9565794 C18.8791652,20.231651 17.7033107,21.8183496 16.2455147,21.8296934 C14.9506324,21.8438527 14.6162974,20.9853175 12.8595851,20.9952331 C11.1028728,21.0051487 10.7345474,21.8466886 9.43823683,21.8340606 C7.98046128,21.819737 6.86691588,20.3888723 6.03247602,19.1138619 C3.69917007,15.5522467 3.45409582,11.3715396 4.8920402,9.14730516 C5.91630446,7.56909394 7.52995475,6.64682153 9.04722385,6.64682153 C10.5914446,6.64682153 11.5618872,7.49542069 12.8411821,7.49542069 C14.0807942,7.49542069 14.835889,6.64539335 16.6209402,6.64539335 C17.9725006,6.64539335 19.4047935,7.38210547 20.4247937,8.65713627 C17.0827701,10.4917655 17.623986,15.2731412 21,16.5538439 L21,16.5524565 L21,16.5524565 L21,16.5524565 Z"/>
          </g>
          <g fill-rule="nonzero" transform="translate(1)">
            <rect width="24" height="24" fill="#000" opacity="0"/>
            <path fill="#28B8BB" d="M19.889116,8.25588864 C19.1818423,8.25588864 18.5959323,8.81588948 18.5959323,9.49589049 L18.5959323,14.3181704 C18.5959323,14.9981714 19.1618422,15.5586268 19.889116,15.5586268 C20.5959323,15.5586268 21.1818452,14.9981714 21.1818452,14.3177159 L21.1818452,9.49634503 C21.1618452,8.81634401 20.5959323,8.25634318 19.889116,8.2563432 L19.889116,8.25588864 Z M4.29272921,8.25588864 C3.58636452,8.25588864 3,8.81588948 3,9.49543594 L3,14.3181704 C3,14.9981714 3.56545538,15.5586268 4.29272921,15.5586268 C5.02000301,15.5586268 5.58591294,14.9981714 5.58591294,14.3177159 L5.58591294,9.49634503 C5.58591294,8.81634401 5.02000299,8.25634318 4.29272921,8.2563432 L4.29272921,8.25588864 Z M6.37364138,8.29588871 L6.37364138,17.1186291 C6.37364138,17.6386299 6.8181875,18.0786305 7.38364289,18.0786305 L8.5354628,18.0786305 L8.5354628,20.7595436 C8.5354628,21.4399992 9.10091818,22 9.82819198,22 C10.5354658,22 11.1213757,21.4399992 11.1213757,20.7595436 L11.1213757,18.0786305 L13.1413787,18.0786305 L13.1413787,20.7595436 C13.1413787,21.4399992 13.7072887,22 14.4345625,22 C15.1409272,22 15.7272917,21.4399992 15.7272917,20.7595436 L15.7272917,18.0786305 L16.878657,18.0786305 C17.444567,18.0786305 17.8891131,17.6586299 17.8891131,17.1186291 L17.8891131,8.29543417 L6.37364138,8.29543417 L6.37364138,8.29588871 Z M14.8181994,3.73406374 L15.8891101,2.29360704 C15.9291102,2.19360689 15.9291102,2.07360671 15.8282009,2.03360666 C15.7472917,1.97360658 15.6263824,2.01360664 15.5654732,2.09360675 L14.4745625,3.59406353 C13.7099386,3.31856362 12.9036612,3.17649643 12.0909226,3.17406291 C11.242285,3.17406291 10.4345565,3.31406311 9.7072827,3.59406353 L8.616372,2.09406129 C8.55546282,1.99406114 8.43455353,1.97360656 8.35364433,2.03360666 C8.27181091,2.09487193 8.25366924,2.21017228 8.31273518,2.29360704 L9.38364586,3.73451828 C7.70727973,4.47451938 6.51545978,5.87497601 6.37364138,7.515433 L17.869113,7.515433 C17.6872946,5.87452148 16.5150201,4.4745194 14.8181994,3.73406374 L14.8181994,3.73406374 Z M9.6668281,6.01497622 C9.3031912,6.01497622 9.04046354,5.75497583 9.04046354,5.41497533 C9.04046354,5.07452027 9.32319124,4.81497443 9.6668281,4.81497443 C10.030465,4.81497443 10.2927381,5.07452027 10.2927381,5.41497533 C10.2927381,5.75497583 10.0100104,6.01497622 9.6668281,6.01497622 Z M14.5959264,6.01497622 C14.2322895,6.01497622 13.9695618,5.75497583 13.9695618,5.41497533 C13.9695618,5.07452027 14.252744,4.81497443 14.5959264,4.81497443 C14.9595633,4.81497443 15.2222909,5.07452027 15.2222909,5.41497533 C15.2222909,5.75497583 14.9395632,6.01497622 14.5959264,6.01497622 Z"/>
          </g>
        </g>
      </g>
      <g transform="translate(185 98)">
        <g fill="#44C0C3">
          <path fill-rule="nonzero" d="M51.5,24 L60.5,28.5 L51.5,33 L51.5,29 L-0.5,29 L-0.5,28 L51.5,28 L51.5,24 Z"/>
          <text font-family="PingFangSC-Regular, PingFang SC" font-size="12">
            <tspan x="0" y="13">发布（推流）</tspan>
          </text>
        </g>
        <g transform="translate(0 55)">
          <text fill="#24B5E9" font-family="PingFangSC-Regular, PingFang SC" font-size="12">
            <tspan x="0" y="28">订阅（拉流）</tspan>
          </text>
          <path fill="#00AAE7" fill-rule="nonzero" d="M8.5,-4 L8.5,0 L60.5,0 L60.5,1 L8.5,1 L8.5,5 L-0.5,0.5 L8.5,-4 Z"/>
        </g>
      </g>
      <g transform="translate(268)">
        <g transform="translate(0 29)">
          <polygon fill="#E6F4F9" points="0 0 310 0 310 244 0 244"/>
          <rect width="310" height="44" fill="#24B5E9"/>
          <g transform="translate(30 70)">
            <path fill="#E6F4F9" stroke="#00AAE7" d="M238,0.5 C238.414214,0.5 238.789214,0.667893219 239.06066,0.939339828 C239.332107,1.21078644 239.5,1.58578644 239.5,2 L239.5,2 L239.5,30 C239.5,30.4142136 239.332107,30.7892136 239.06066,31.0606602 C238.789214,31.3321068 238.414214,31.5 238,31.5 L238,31.5 L2,31.5 C1.58578644,31.5 1.21078644,31.3321068 0.939339828,31.0606602 C0.667893219,30.7892136 0.5,30.4142136 0.5,30 L0.5,30 L0.5,2 C0.5,1.58578644 0.667893219,1.21078644 0.939339828,0.939339828 C1.21078644,0.667893219 1.58578644,0.5 2,0.5 L2,0.5 Z"/>
            <text fill="#24B5E9" font-family="PingFangSC-Regular, PingFang SC" font-size="14">
              <tspan x="64" y="21">连麦互动实时网络</tspan>
            </text>
          </g>
          <path fill="#00AAE7" fill-rule="nonzero" d="M81 109.5L81 141.5 85 141.5 80.5 150.5 76 141.5 80 141.5 80 109.5 81 109.5zM221 109.5L221 141.5 225 141.5 220.5 150.5 216 141.5 220 141.5 220 109.5 221 109.5z"/>
          <g transform="translate(30 158)">
            <path fill="#E6F4F9" stroke="#00AAE7" d="M110,0.5 C110.414214,0.5 110.789214,0.667893219 111.06066,0.939339828 C111.332107,1.21078644 111.5,1.58578644 111.5,2 L111.5,2 L111.5,30 C111.5,30.4142136 111.332107,30.7892136 111.06066,31.0606602 C110.789214,31.3321068 110.414214,31.5 110,31.5 L110,31.5 L2,31.5 C1.58578644,31.5 1.21078644,31.3321068 0.939339828,31.0606602 C0.667893219,30.7892136 0.5,30.4142136 0.5,30 L0.5,30 L0.5,2 C0.5,1.58578644 0.667893219,1.21078644 0.939339828,0.939339828 C1.21078644,0.667893219 1.58578644,0.5 2,0.5 L2,0.5 Z"/>
            <text fill="#24B5E9" font-family="PingFangSC-Regular, PingFang SC" font-size="14">
              <tspan x="14" y="21">单路转推服务</tspan>
            </text>
          </g>
          <g transform="translate(158 158)">
            <path fill="#E6F4F9" stroke="#00AAE7" d="M110,0.5 C110.414214,0.5 110.789214,0.667893219 111.06066,0.939339828 C111.332107,1.21078644 111.5,1.58578644 111.5,2 L111.5,2 L111.5,30 C111.5,30.4142136 111.332107,30.7892136 111.06066,31.0606602 C110.789214,31.3321068 110.414214,31.5 110,31.5 L110,31.5 L2,31.5 C1.58578644,31.5 1.21078644,31.3321068 0.939339828,31.0606602 C0.667893219,30.7892136 0.5,30.4142136 0.5,30 L0.5,30 L0.5,2 C0.5,1.58578644 0.667893219,1.21078644 0.939339828,0.939339828 C1.21078644,0.667893219 1.58578644,0.5 2,0.5 L2,0.5 Z"/>
            <text fill="#00AAE7" font-family="PingFangSC-Regular, PingFang SC" font-size="14">
              <tspan x="14" y="21">合流转推服务</tspan>
            </text>
          </g>
          <text fill="#00AAE7" font-family="PingFangSC-Regular, PingFang SC" font-size="14">
            <tspan x="113" y="219">实时内容审核</tspan>
          </text>
        </g>
        <path fill="#00AAE7" fill-rule="nonzero" d="M497,0 L497,12 L501,12 L496.5,21 L492,12 L496,12 L496,0 L497,0 Z"/>
        <text fill="#FFF" font-family="PingFangSC-Medium, PingFang SC" font-size="18" font-weight="400">
          <tspan x="82" y="58">实时音视频 QRTC</tspan>
        </text>
      </g>
      <g transform="translate(597 108)">
        <g fill="#44C0C3">
          <path fill-rule="nonzero" d="M8.5,24 L8.5,28 L60.5,28 L60.5,29 L8.5,29 L8.5,33 L-0.5,28.5 L8.5,24 Z"/>
          <text font-family="PingFangSC-Regular, PingFang SC" font-size="12">
            <tspan x="0" y="13">发布（推流）</tspan>
          </text>
        </g>
        <g transform="translate(0 55)">
          <text fill="#24B5E9" font-family="PingFangSC-Regular, PingFang SC" font-size="12">
            <tspan x="0" y="28">订阅（拉流）</tspan>
          </text>
          <path fill="#00AAE7" fill-rule="nonzero" d="M51.5,-4 L60.5,0.5 L51.5,5 L51.5,1 L-0.5,1 L-0.5,0 L51.5,0 L51.5,-4 Z"/>
        </g>
      </g>
      <g transform="translate(680 29)">
        <polygon fill="#28B8BB" points="0 0 166 0 166 244 0 244" opacity=".11"/>
        <rect width="166" height="44" fill="#28B8BB" fill-opacity=".85"/>
        <g transform="translate(14 108)">
          <path fill="#E7F7F8" stroke="#28B8BB" d="M136,0.5 C136.414214,0.5 136.789214,0.667893219 137.06066,0.939339828 C137.332107,1.21078644 137.5,1.58578644 137.5,2 L137.5,2 L137.5,30 C137.5,30.4142136 137.332107,30.7892136 137.06066,31.0606602 C136.789214,31.3321068 136.414214,31.5 136,31.5 L136,31.5 L2,31.5 C1.58578644,31.5 1.21078644,31.3321068 0.939339828,31.0606602 C0.667893219,30.7892136 0.5,30.4142136 0.5,30 L0.5,30 L0.5,2 C0.5,1.58578644 0.667893219,1.21078644 0.939339828,0.939339828 C1.21078644,0.667893219 1.58578644,0.5 2,0.5 L2,0.5 Z"/>
          <text fill="#28B8BB" font-family="PingFangSC-Regular, PingFang SC" font-size="12">
            <tspan x="35.01" y="21">连麦互动 PK</tspan>
          </text>
          <g transform="translate(0 44)">
            <path fill="#E7F7F8" stroke="#28B8BB" d="M136,0.5 C136.414214,0.5 136.789214,0.667893219 137.06066,0.939339828 C137.332107,1.21078644 137.5,1.58578644 137.5,2 L137.5,2 L137.5,30 C137.5,30.4142136 137.332107,30.7892136 137.06066,31.0606602 C136.789214,31.3321068 136.414214,31.5 136,31.5 L136,31.5 L2,31.5 C1.58578644,31.5 1.21078644,31.3321068 0.939339828,31.0606602 C0.667893219,30.7892136 0.5,30.4142136 0.5,30 L0.5,30 L0.5,2 C0.5,1.58578644 0.667893219,1.21078644 0.939339828,0.939339828 C1.21078644,0.667893219 1.58578644,0.5 2,0.5 L2,0.5 Z"/>
            <text fill="#28B8BB" font-family="PingFangSC-Regular, PingFang SC" font-size="12">
              <tspan x="45" y="21">美颜美妆</tspan>
            </text>
          </g>
          <g transform="translate(0 88)">
            <path fill="#E7F7F8" stroke="#28B8BB" d="M136,0.5 C136.414214,0.5 136.789214,0.667893219 137.06066,0.939339828 C137.332107,1.21078644 137.5,1.58578644 137.5,2 L137.5,2 L137.5,30 C137.5,30.4142136 137.332107,30.7892136 137.06066,31.0606602 C136.789214,31.3321068 136.414214,31.5 136,31.5 L136,31.5 L2,31.5 C1.58578644,31.5 1.21078644,31.3321068 0.939339828,31.0606602 C0.667893219,30.7892136 0.5,30.4142136 0.5,30 L0.5,30 L0.5,2 C0.5,1.58578644 0.667893219,1.21078644 0.939339828,0.939339828 C1.21078644,0.667893219 1.58578644,0.5 2,0.5 L2,0.5 Z"/>
            <text fill="#28B8BB" font-family="PingFangSC-Regular, PingFang SC" font-size="12">
              <tspan x="50.286" y="21">IM 聊天</tspan>
            </text>
          </g>
        </g>
        <text fill="#FFF" font-family="PingFangSC-Medium, PingFang SC" font-size="18" font-weight="400">
          <tspan x="57" y="29">连麦者</tspan>
        </text>
        <g transform="translate(45 54)">
          <text fill="#28B8BB" font-family="PingFangSC-Regular, PingFang SC" font-size="14">
            <tspan x="0" y="41">安卓</tspan>
          </text>
          <text fill="#28B8BB" font-family="PingFangSC-Regular, PingFang SC" font-size="14">
            <tspan x="53" y="41">iOS</tspan>
          </text>
          <g fill-rule="nonzero" transform="translate(52)">
            <rect width="24" height="24" fill="#000" opacity="0"/>
            <path fill="#28B8BB" d="M15.2680129,5.22015971 C15.9168721,4.38431208 16.4084691,3.20419349 16.2313758,2 C15.1688162,2.07365285 13.929204,2.75085102 13.2067124,3.63201249 C12.5464891,4.4310541 12.0039063,5.61825234 12.2150105,6.7714601 C13.376726,6.80828653 14.5724117,6.11552129 15.2680129,5.22015971 Z M21,16.5524565 C20.5353138,17.5823927 20.3129066,18.0442225 19.7150536,18.9565794 C18.8791652,20.231651 17.7033107,21.8183496 16.2455147,21.8296934 C14.9506324,21.8438527 14.6162974,20.9853175 12.8595851,20.9952331 C11.1028728,21.0051487 10.7345474,21.8466886 9.43823683,21.8340606 C7.98046128,21.819737 6.86691588,20.3888723 6.03247602,19.1138619 C3.69917007,15.5522467 3.45409582,11.3715396 4.8920402,9.14730516 C5.91630446,7.56909394 7.52995475,6.64682153 9.04722385,6.64682153 C10.5914446,6.64682153 11.5618872,7.49542069 12.8411821,7.49542069 C14.0807942,7.49542069 14.835889,6.64539335 16.6209402,6.64539335 C17.9725006,6.64539335 19.4047935,7.38210547 20.4247937,8.65713627 C17.0827701,10.4917655 17.623986,15.2731412 21,16.5538439 L21,16.5524565 L21,16.5524565 L21,16.5524565 Z"/>
          </g>
          <g fill-rule="nonzero" transform="translate(2)">
            <rect width="24" height="24" fill="#000" opacity="0"/>
            <path fill="#28B8BB" d="M19.889116,8.25588864 C19.1818423,8.25588864 18.5959323,8.81588948 18.5959323,9.49589049 L18.5959323,14.3181704 C18.5959323,14.9981714 19.1618422,15.5586268 19.889116,15.5586268 C20.5959323,15.5586268 21.1818452,14.9981714 21.1818452,14.3177159 L21.1818452,9.49634503 C21.1618452,8.81634401 20.5959323,8.25634318 19.889116,8.2563432 L19.889116,8.25588864 Z M4.29272921,8.25588864 C3.58636452,8.25588864 3,8.81588948 3,9.49543594 L3,14.3181704 C3,14.9981714 3.56545538,15.5586268 4.29272921,15.5586268 C5.02000301,15.5586268 5.58591294,14.9981714 5.58591294,14.3177159 L5.58591294,9.49634503 C5.58591294,8.81634401 5.02000299,8.25634318 4.29272921,8.2563432 L4.29272921,8.25588864 Z M6.37364138,8.29588871 L6.37364138,17.1186291 C6.37364138,17.6386299 6.8181875,18.0786305 7.38364289,18.0786305 L8.5354628,18.0786305 L8.5354628,20.7595436 C8.5354628,21.4399992 9.10091818,22 9.82819198,22 C10.5354658,22 11.1213757,21.4399992 11.1213757,20.7595436 L11.1213757,18.0786305 L13.1413787,18.0786305 L13.1413787,20.7595436 C13.1413787,21.4399992 13.7072887,22 14.4345625,22 C15.1409272,22 15.7272917,21.4399992 15.7272917,20.7595436 L15.7272917,18.0786305 L16.878657,18.0786305 C17.444567,18.0786305 17.8891131,17.6586299 17.8891131,17.1186291 L17.8891131,8.29543417 L6.37364138,8.29543417 L6.37364138,8.29588871 Z M14.8181994,3.73406374 L15.8891101,2.29360704 C15.9291102,2.19360689 15.9291102,2.07360671 15.8282009,2.03360666 C15.7472917,1.97360658 15.6263824,2.01360664 15.5654732,2.09360675 L14.4745625,3.59406353 C13.7099386,3.31856362 12.9036612,3.17649643 12.0909226,3.17406291 C11.242285,3.17406291 10.4345565,3.31406311 9.7072827,3.59406353 L8.616372,2.09406129 C8.55546282,1.99406114 8.43455353,1.97360656 8.35364433,2.03360666 C8.27181091,2.09487193 8.25366924,2.21017228 8.31273518,2.29360704 L9.38364586,3.73451828 C7.70727973,4.47451938 6.51545978,5.87497601 6.37364138,7.515433 L17.869113,7.515433 C17.6872946,5.87452148 16.5150201,4.4745194 14.8181994,3.73406374 L14.8181994,3.73406374 Z M9.6668281,6.01497622 C9.3031912,6.01497622 9.04046354,5.75497583 9.04046354,5.41497533 C9.04046354,5.07452027 9.32319124,4.81497443 9.6668281,4.81497443 C10.030465,4.81497443 10.2927381,5.07452027 10.2927381,5.41497533 C10.2927381,5.75497583 10.0100104,6.01497622 9.6668281,6.01497622 Z M14.5959264,6.01497622 C14.2322895,6.01497622 13.9695618,5.75497583 13.9695618,5.41497533 C13.9695618,5.07452027 14.252744,4.81497443 14.5959264,4.81497443 C14.9595633,4.81497443 15.2222909,5.07452027 15.2222909,5.41497533 C15.2222909,5.75497583 14.9395632,6.01497622 14.5959264,6.01497622 Z"/>
          </g>
        </g>
      </g>
    </g>
  </g>
</svg>
