<svg xmlns="http://www.w3.org/2000/svg" width="62" height="56" viewBox="0 0 62 56">
  <g fill="none" fill-rule="evenodd" stroke-linecap="square" stroke-width="2" transform="translate(1 2)">
    <path stroke="#333" d="M12,29.8 C12,18.6 30,0 30,0 C30,0 48,18.6 48,29.8 C48.103973,34.6232799 46.2475386,39.2825468 42.8550715,42.712708 C39.4626043,46.1428693 34.8241343,48.0506724 30,48 C25.1758657,48.0506724 20.5373957,46.1428693 17.1449285,42.712708 C13.7524614,39.2825468 11.896027,34.6232799 12,29.8 L12,29.8 Z"/>
    <path stroke="#00AAE7" d="M20 51.63C12.7686012 53.2913082 5.33022609 49.8437143 1.924 43.252-3.054 34.216 3.2 11.208 3.2 11.208 3.2 11.208 6.569 12.244 11 14.032M40 51.63C47.2313988 53.2913082 54.6697739 49.8437143 58.076 43.252 63.054 34.216 56.8 11.208 56.8 11.208 56.8 11.208 53.431 12.244 49 14.032"/>
  </g>
</svg>
