<svg xmlns="http://www.w3.org/2000/svg" width="570" height="478" viewBox="0 0 570 478">
  <defs>
    <linearGradient id="插画02-a" x1="50%" x2="50%" y1="0%" y2="100%">
      <stop offset="0%" stop-color="#D3E2FF"/>
      <stop offset="100%" stop-color="#E9F2FF" stop-opacity="0"/>
    </linearGradient>
    <linearGradient id="插画02-b" x1="50%" x2="50%" y1="0%" y2="100%">
      <stop offset="0%" stop-color="#E9F2FF"/>
      <stop offset="100%" stop-color="#F3F7FE" stop-opacity="0"/>
    </linearGradient>
    <linearGradient id="插画02-c" x1="23.678%" x2="74.258%" y1="43.258%" y2="57.656%">
      <stop offset="0%" stop-color="#E9F2FF"/>
      <stop offset="100%" stop-color="#D3E2FF"/>
    </linearGradient>
    <linearGradient id="插画02-d" x1="50%" x2="50%" y1="0%" y2="100%">
      <stop offset="0%" stop-color="#64CFF7"/>
      <stop offset="100%" stop-color="#34A1EC"/>
    </linearGradient>
    <linearGradient id="插画02-e" x1="50%" x2="50%" y1="0%" y2="100%">
      <stop offset="0%" stop-color="#D3E2FF"/>
      <stop offset="100%" stop-color="#E9F2FF" stop-opacity="0"/>
    </linearGradient>
    <linearGradient id="插画02-f" x1="50%" x2="50%" y1="0%" y2="100%">
      <stop offset="0%" stop-color="#E9F2FF"/>
      <stop offset="100%" stop-color="#F3F7FE" stop-opacity="0"/>
    </linearGradient>
    <linearGradient id="插画02-g" x1="23.678%" x2="74.258%" y1="43.258%" y2="57.656%">
      <stop offset="0%" stop-color="#E9F2FF"/>
      <stop offset="100%" stop-color="#D3E2FF"/>
    </linearGradient>
    <linearGradient id="插画02-h" x1="50%" x2="50%" y1="0%" y2="100%">
      <stop offset="0%" stop-color="#64CFF7"/>
      <stop offset="100%" stop-color="#34A1EC"/>
    </linearGradient>
    <linearGradient id="插画02-i" x1="50%" x2="50%" y1="2.375%" y2="100%">
      <stop offset="0%" stop-color="#ADCAFF"/>
      <stop offset="100%" stop-color="#D4E3FF" stop-opacity="0"/>
    </linearGradient>
    <linearGradient id="插画02-j" x1="50%" x2="50%" y1="2.375%" y2="100%">
      <stop offset="0%" stop-color="#ADCAFF"/>
      <stop offset="100%" stop-color="#D4E3FF" stop-opacity="0"/>
    </linearGradient>
    <linearGradient id="插画02-k" x1="50%" x2="50%" y1="2.375%" y2="100%">
      <stop offset="0%" stop-color="#ADCAFF"/>
      <stop offset="100%" stop-color="#D4E3FF" stop-opacity="0"/>
    </linearGradient>
    <linearGradient id="插画02-l" x1="50%" x2="50%" y1="0%" y2="100%">
      <stop offset="0%" stop-color="#D3E2FF"/>
      <stop offset="100%" stop-color="#E9F2FF" stop-opacity="0"/>
    </linearGradient>
    <linearGradient id="插画02-m" x1="50%" x2="50%" y1="0%" y2="100%">
      <stop offset="0%" stop-color="#E9F2FF"/>
      <stop offset="100%" stop-color="#F3F7FE" stop-opacity="0"/>
    </linearGradient>
    <linearGradient id="插画02-n" x1="23.678%" x2="74.258%" y1="43.258%" y2="57.656%">
      <stop offset="0%" stop-color="#E9F2FF"/>
      <stop offset="100%" stop-color="#D3E2FF"/>
    </linearGradient>
  </defs>
  <g fill="none" fill-rule="evenodd">
    <g transform="translate(219 197)">
      <rect width="67" height="188" y="53.077" fill="url(#插画02-a)"/>
      <rect width="67" height="188" x="67" y="53.077" fill="url(#插画02-b)"/>
      <polygon fill="url(#插画02-c)" points="0 53.366 66.787 91.731 134 53.366 67.305 17"/>
      <path fill="url(#插画02-d)" fill-rule="nonzero" d="M67,35 C72.4144737,35 77.9710526,35.79125 83.5144737,37.35125 C88.5894737,38.7775 92,43.11625 92,48.14625 L92,48.14625 L92,60 C92,60.69125 91.4105263,61.25 90.6842105,61.25 L90.6842105,61.25 L43.3157895,61.25 C42.5894737,61.25 42,60.69125 42,60 L42,60 L42,48.18125 C42,43.15125 45.4197368,38.81 50.5078947,37.38 C56.1355263,35.80125 61.6842105,35 67,35 Z M67,1.77635684e-15 C74.9802632,1.77635684e-15 81.4736842,6.16875 81.4736842,13.75 C81.4736842,21.265 75.1513158,30 67,30 C58.8486842,30 52.5263158,21.265 52.5263158,13.75 C52.5263158,6.16875 59.0197368,1.77635684e-15 67,1.77635684e-15 Z"/>
    </g>
    <g transform="translate(368 88)">
      <rect width="52" height="244" y="48" fill="url(#插画02-e)"/>
      <rect width="52" height="244" x="52" y="48" fill="url(#插画02-f)"/>
      <polygon fill="url(#插画02-g)" points="0 48.224 51.834 78 104 48.224 52.237 20"/>
      <path fill="url(#插画02-h)" fill-rule="nonzero" d="M52,28 C56.3315789,28 60.7768421,28.633 65.2115789,29.881 C69.2715789,31.022 72,34.493 72,38.517 L72,38.517 L72,48 C72,48.553 71.5284211,49 70.9473684,49 L70.9473684,49 L33.0526316,49 C32.4715789,49 32,48.553 32,48 L32,48 L32,38.545 C32,34.521 34.7357895,31.048 38.8063158,29.904 C43.3084211,28.641 47.7473684,28 52,28 Z M52,1.77635684e-15 C58.3842105,1.77635684e-15 63.5789474,4.935 63.5789474,11 C63.5789474,17.012 58.5210526,24 52,24 C45.4789474,24 40.4210526,17.012 40.4210526,11 C40.4210526,4.935 45.6157895,1.77635684e-15 52,1.77635684e-15 Z"/>
    </g>
    <g transform="translate(495 170)">
      <rect width="6" height="8" x="3" y="26" fill="url(#插画02-i)" rx="3"/>
      <rect width="6" height="8" x="3" y="40" fill="url(#插画02-i)" rx="3"/>
      <rect width="6" height="8" x="3" y="54" fill="url(#插画02-i)" rx="3"/>
      <rect width="6" height="8" x="3" y="68" fill="url(#插画02-i)" rx="3"/>
      <rect width="6" height="8" x="3" y="82" fill="url(#插画02-i)" rx="3"/>
      <rect width="6" height="8" x="3" y="96" fill="url(#插画02-i)" rx="3"/>
      <circle cx="6" cy="6" r="9" fill="#6BC1FC" stroke="#E3F4FF" stroke-width="6"/>
    </g>
    <g transform="translate(286 56)">
      <rect width="6" height="13" x="3" y="26" fill="url(#插画02-j)" rx="3"/>
      <rect width="6" height="13" x="3" y="43" fill="url(#插画02-j)" rx="3"/>
      <rect width="6" height="13" x="3" y="60" fill="url(#插画02-j)" opacity=".7" rx="3"/>
      <rect width="6" height="13" x="3" y="77" fill="url(#插画02-j)" opacity=".3" rx="3"/>
      <circle cx="6" cy="6" r="9" fill="#6BC1FC" stroke="#E3F4FF" stroke-width="6"/>
    </g>
    <g transform="translate(47 71)">
      <rect width="52" height="244" y="46" fill="url(#插画02-e)"/>
      <rect width="52" height="244" x="52" y="46" fill="url(#插画02-f)"/>
      <polygon fill="url(#插画02-g)" points="0 46.224 51.834 76 104 46.224 52.237 18"/>
      <path fill="url(#插画02-h)" fill-rule="nonzero" d="M52,28 C56.3315789,28 60.7768421,28.633 65.2115789,29.881 C69.2715789,31.022 72,34.493 72,38.517 L72,38.517 L72,48 C72,48.553 71.5284211,49 70.9473684,49 L70.9473684,49 L33.0526316,49 C32.4715789,49 32,48.553 32,48 L32,48 L32,38.545 C32,34.521 34.7357895,31.048 38.8063158,29.904 C43.3084211,28.641 47.7473684,28 52,28 Z M52,1.77635684e-15 C58.3842105,1.77635684e-15 63.5789474,4.935 63.5789474,11 C63.5789474,17.012 58.5210526,24 52,24 C45.4789474,24 40.4210526,17.012 40.4210526,11 C40.4210526,4.935 45.6157895,1.77635684e-15 52,1.77635684e-15 Z"/>
      <path stroke="#ADCAFF" stroke-linecap="round" stroke-linejoin="round" stroke-width="4" d="M222.677296,119.947021 C190.38828,73.8720566 144.574759,37.9686273 91,18" opacity=".5"/>
      <path stroke="#AECAFF" stroke-linecap="round" stroke-linejoin="round" stroke-width="4" d="M341,33 C301.775505,50.1536541 269.359525,80.2596728 249,118" opacity=".5"/>
    </g>
    <g transform="translate(10 94)">
      <rect width="6" height="100" x="3" y="26" fill="url(#插画02-k)" rx="3"/>
      <circle cx="6" cy="6" r="9" fill="#6BC1FC" stroke="#E3F4FF" stroke-width="6"/>
    </g>
    <g transform="translate(119 186)">
      <rect width="40" height="153" y="21.538" fill="url(#插画02-l)"/>
      <rect width="40" height="153" x="40" y="21.538" fill="url(#插画02-m)"/>
      <polygon fill="url(#插画02-n)" points="0 21.711 39.873 44.615 80 21.711 40.182 0"/>
    </g>
    <g transform="translate(11 335)">
      <rect width="65" height="6" x="5" fill="#ADCAFF" rx="3"/>
      <rect width="65" height="6" x="40" y="18" fill="#D7E5FF" rx="3"/>
      <rect width="40" height="6" y="36" fill="#ADCAFF" rx="3"/>
      <rect width="40" height="6" x="50" y="36" fill="#E1EBFF" rx="3"/>
      <rect width="21" height="6" x="98" y="36" fill="#E1EBFF" rx="3"/>
      <rect width="14" height="6" x="76" fill="#E1EBFF" rx="3"/>
    </g>
    <g transform="translate(339 301)">
      <rect width="33" height="6" x="8" fill="#ADCAFF" rx="3"/>
      <rect width="84" height="6" y="18" fill="#D7E5FF" rx="3"/>
      <rect width="11" height="6" x="91" y="18" fill="#ADCAFF" rx="3"/>
      <rect width="40" height="6" x="33" y="36" fill="#ADCAFF" rx="3"/>
      <rect width="40" height="6" x="85" y="36" fill="#E1EBFF" rx="3"/>
      <rect width="44" height="6" x="49" fill="#E1EBFF" rx="3"/>
    </g>
  </g>
</svg>
