<svg xmlns="http://www.w3.org/2000/svg" xmlns:xlink="http://www.w3.org/1999/xlink" width="570" height="478" viewBox="0 0 570 478">
  <defs>
    <linearGradient id="插画04-a" x1="50%" x2="95.836%" y1="41.219%" y2="41.219%">
      <stop offset="0%" stop-color="#E0EBFF" stop-opacity="0"/>
      <stop offset="100%" stop-color="#E0EBFF"/>
    </linearGradient>
    <linearGradient id="插画04-b" x1="28.584%" x2="71.416%" y1="5.293%" y2="96.564%">
      <stop offset="0%" stop-color="#74C6FE"/>
      <stop offset="100%" stop-color="#00AAE7"/>
    </linearGradient>
    <linearGradient id="插画04-c" x1="28.934%" x2="70.195%" y1="6.04%" y2="93.962%">
      <stop offset="0%" stop-color="#A6DBFF"/>
      <stop offset="100%" stop-color="#AFEAFF"/>
    </linearGradient>
    <linearGradient id="插画04-d" x1="28.934%" x2="70.195%" y1="6.04%" y2="93.962%">
      <stop offset="0%" stop-color="#A6DBFF"/>
      <stop offset="100%" stop-color="#AFEAFF"/>
    </linearGradient>
    <linearGradient id="插画04-e" x1="50%" x2="50%" y1="2.375%" y2="100%">
      <stop offset="0%" stop-color="#ADCAFF"/>
      <stop offset="100%" stop-color="#D4E3FF" stop-opacity="0"/>
    </linearGradient>
    <linearGradient id="插画04-f" x1="50%" x2="50%" y1="2.375%" y2="100%">
      <stop offset="0%" stop-color="#ADCAFF"/>
      <stop offset="100%" stop-color="#D4E3FF" stop-opacity="0"/>
    </linearGradient>
    <linearGradient id="插画04-g" x1="100%" x2="0%" y1="5.496%" y2="5.496%">
      <stop offset="0%" stop-color="#D6E7FF"/>
      <stop offset="100%" stop-color="#ADCAFF" stop-opacity="0"/>
    </linearGradient>
    <linearGradient id="插画04-h" x1="50%" x2="50%" y1="0%" y2="100%">
      <stop offset="0%" stop-color="#76C7FF"/>
      <stop offset="100%" stop-color="#3DA6EF"/>
    </linearGradient>
    <linearGradient id="插画04-k" x1="50%" x2="50%" y1="0%" y2="100%">
      <stop offset="0%" stop-color="#76C7FF"/>
      <stop offset="100%" stop-color="#3DA6EF"/>
    </linearGradient>
    <rect id="插画04-j" width="138" height="158" x="0" y="10" rx="5"/>
    <filter id="插画04-i" width="140.6%" height="135.4%" x="-20.3%" y="-12.7%" filterUnits="objectBoundingBox">
      <feOffset dy="8" in="SourceAlpha" result="shadowOffsetOuter1"/>
      <feGaussianBlur in="shadowOffsetOuter1" result="shadowBlurOuter1" stdDeviation="8"/>
      <feColorMatrix in="shadowBlurOuter1" values="0 0 0 0 0   0 0 0 0 0.666666667   0 0 0 0 0.905882353  0 0 0 0.2 0"/>
    </filter>
  </defs>
  <g fill="none" fill-rule="evenodd" transform="translate(-26 36)">
    <circle cx="191" cy="203" r="191" fill="url(#插画04-a)"/>
    <g transform="translate(93 325)">
      <rect width="34" height="6" x="25" fill="#ADCAFF" rx="3"/>
      <rect width="71" height="6" x="4" y="18" fill="#D7E5FF" rx="3"/>
      <rect width="29" height="6" y="36" fill="#ADCAFF" rx="3"/>
      <rect width="40" height="6" x="39" y="36" fill="#E1EBFF" rx="3"/>
      <rect width="21" height="6" x="87" y="36" fill="#E1EBFF" rx="3"/>
      <rect width="46" height="6" x="65" fill="#E1EBFF" rx="3"/>
    </g>
    <circle cx="361" cy="203" r="191" fill="url(#插画04-a)"/>
    <g transform="translate(106 152)">
      <path fill="url(#插画04-b)" fill-opacity=".15" d="M40,1.74743196 L40,60.4098224 C40,61.8345805 40.7578482,63.1517902 41.9895732,63.8678831 L103.24406,99.4796523 C104.198977,100.034816 105.423139,99.7107524 105.978304,98.7558353 C106.155782,98.4505606 106.249273,98.1037387 106.249273,97.7506219 L106.249273,41.7882092 C106.249273,40.0155212 105.310657,38.3753539 103.782281,37.4773075 L41.5066015,0.885251617 C41.0304324,0.605463345 40.4176079,0.764661424 40.1378197,1.24083048 C40.0475797,1.39440894 40,1.56930395 40,1.74743196 Z"/>
      <path fill="url(#插画04-c)" d="M20,1.74743196 L20,60.4098224 C20,61.8345805 20.7578482,63.1517902 21.9895732,63.8678831 L83.2440597,99.4796523 C84.1989768,100.034816 85.4231395,99.7107524 85.9783035,98.7558353 C86.1557823,98.4505606 86.2492731,98.1037387 86.2492731,97.7506219 L86.2492731,41.7882092 C86.2492731,40.0155212 85.3106573,38.3753539 83.7822805,37.4773075 L21.5066015,0.885251617 C21.0304324,0.605463345 20.4176079,0.764661424 20.1378197,1.24083048 C20.0475797,1.39440894 20,1.56930395 20,1.74743196 Z"/>
      <path fill="url(#插画04-b)" d="M1.13686838e-13,1.74743196 L1.13686838e-13,60.4098224 C1.18168556e-13,61.8345805 0.757848225,63.1517902 1.98957321,63.8678831 L63.2440597,99.4796523 C64.1989768,100.034816 65.4231395,99.7107524 65.9783035,98.7558353 C66.1557823,98.4505606 66.2492731,98.1037387 66.2492731,97.7506219 L66.2492731,41.7882092 C66.2492731,40.0155212 65.3106573,38.3753539 63.7822805,37.4773075 L1.50660148,0.885251617 C1.03043243,0.605463345 0.417607931,0.764661424 0.137819659,1.24083048 C0.0475797468,1.39440894 1.15663425e-13,1.56930395 1.13686838e-13,1.74743196 Z"/>
      <path fill="#FFF" fill-rule="nonzero" d="M30.7704918,36.0120084 C38.3721591,40.0708777 44.532383,49.5133502 44.5409836,57.1196 C44.5409836,64.7248327 38.3757244,67.6051604 30.7704918,63.552992 C23.1652592,59.5008237 17,50.050633 17,42.4454004 C17,34.8401678 23.1652592,31.9598401 30.7704918,36.0120084 Z M44.5409836,69.972059 C44.7944914,70.1071313 45,70.4221377 45,70.6756454 C45,70.9291532 44.7944914,71.0251641 44.5409836,70.8900918 L35.8798033,66.2753006 C36.5657454,66.3850729 37.2315093,66.4329264 37.8714754,66.418457 L44.5409836,69.972059 Z M30.7704918,54.3726641 C29.2494453,53.5622305 28.0163934,54.138296 28.0163934,55.6593425 C28.0163934,57.1803891 29.2494453,59.0704272 30.7704918,59.8808609 C32.2915383,60.6912945 33.5245902,60.115229 33.5245902,58.5941825 C33.5245902,57.0731359 32.2915383,55.1830978 30.7704918,54.3726641 Z M23.4262295,43.1152819 C21.905183,42.3048483 20.6721311,42.8809138 20.6721311,44.4019603 C20.6721311,45.9230069 21.905183,47.813045 23.4262295,48.6234787 C24.947276,49.4339123 26.1803279,48.8578468 26.1803279,47.3368003 C26.1803279,45.8157537 24.947276,43.9257156 23.4262295,43.1152819 Z M38.1147541,50.9415218 C36.5937076,50.1310881 35.3606557,50.7071536 35.3606557,52.2282001 C35.3606557,53.7492467 36.5937076,55.6392848 38.1147541,56.4497185 C39.6358006,57.2601521 40.8688525,56.6840866 40.8688525,55.1630401 C40.8688525,53.6419936 39.6358006,51.7519554 38.1147541,50.9415218 Z M30.7704918,39.6841395 C29.2494453,38.8737059 28.0163934,39.4497714 28.0163934,40.9708179 C28.0163934,42.4918645 29.2494453,44.3819026 30.7704918,45.1923363 C32.2915383,46.0027699 33.5245902,45.4267044 33.5245902,43.9056579 C33.5245902,42.3846114 32.2915383,40.4945732 30.7704918,39.6841395 Z"/>
    </g>
    <g transform="matrix(-1 0 0 1 518 152)">
      <path fill="url(#插画04-b)" fill-opacity=".15" d="M40,1.74743196 L40,60.4098224 C40,61.8345805 40.7578482,63.1517902 41.9895732,63.8678831 L103.24406,99.4796523 C104.198977,100.034816 105.423139,99.7107524 105.978304,98.7558353 C106.155782,98.4505606 106.249273,98.1037387 106.249273,97.7506219 L106.249273,41.7882092 C106.249273,40.0155212 105.310657,38.3753539 103.782281,37.4773075 L41.5066015,0.885251617 C41.0304324,0.605463345 40.4176079,0.764661424 40.1378197,1.24083048 C40.0475797,1.39440894 40,1.56930395 40,1.74743196 Z"/>
      <path fill="url(#插画04-d)" d="M20,1.74743196 L20,60.4098224 C20,61.8345805 20.7578482,63.1517902 21.9895732,63.8678831 L83.2440597,99.4796523 C84.1989768,100.034816 85.4231395,99.7107524 85.9783035,98.7558353 C86.1557823,98.4505606 86.2492731,98.1037387 86.2492731,97.7506219 L86.2492731,41.7882092 C86.2492731,40.0155212 85.3106573,38.3753539 83.7822805,37.4773075 L21.5066015,0.885251617 C21.0304324,0.605463345 20.4176079,0.764661424 20.1378197,1.24083048 C20.0475797,1.39440894 20,1.56930395 20,1.74743196 Z"/>
      <path fill="url(#插画04-b)" d="M1.13686838e-13,1.74743196 L1.13686838e-13,60.4098224 C1.18168556e-13,61.8345805 0.757848225,63.1517902 1.98957321,63.8678831 L63.2440597,99.4796523 C64.1989768,100.034816 65.4231395,99.7107524 65.9783035,98.7558353 C66.1557823,98.4505606 66.2492731,98.1037387 66.2492731,97.7506219 L66.2492731,41.7882092 C66.2492731,40.0155212 65.3106573,38.3753539 63.7822805,37.4773075 L1.50660148,0.885251617 C1.03043243,0.605463345 0.417607931,0.764661424 0.137819659,1.24083048 C0.0475797468,1.39440894 1.15663425e-13,1.56930395 1.13686838e-13,1.74743196 Z"/>
      <path fill="#FFF" fill-rule="nonzero" d="M43.1245389,41.5492939 L20.6190053,28.2549157 C19.5832167,27.6430588 18.7435441,28.1704 18.7435441,29.4327651 L18.7435441,56.8613366 C18.7435441,58.1237017 19.5832167,59.6430588 20.6190053,60.2549157 L43.1245389,73.5492939 C44.1603274,74.1611508 45,73.6338096 45,72.3714445 L45,44.942873 C45,43.6805079 44.1603274,42.1611508 43.1245389,41.5492939 Z M27.406768,56.1954127 C27.261475,56.2056886 27.0853939,56.0974262 26.9433358,55.9104743 C26.8012776,55.7235224 26.7142539,55.4855211 26.7142539,55.2840479 L26.7142539,40.426905 C26.7142539,40.2254318 26.8012776,40.090243 26.9433358,40.0711232 C27.0853939,40.0520034 27.261475,40.1517688 27.406768,40.3336984 L38.6595348,54.4094589 C38.8106938,54.5986854 38.9048349,54.8470629 38.9048349,55.0566473 C38.9048349,55.2662318 38.8106938,55.403388 38.6595348,55.4140304 L27.406768,56.1954127 Z"/>
    </g>
    <g transform="translate(84 55)">
      <rect width="6" height="100" x="47" y="-44" fill="url(#插画04-e)" rx="3" transform="rotate(90 50 6)"/>
      <circle cx="122" cy="6" r="9" fill="#6BC1FC" stroke="#E3F4FF" stroke-width="6"/>
      <g transform="rotate(90 4.5 264.5)">
        <rect width="6" height="8" x="1" y="20" fill="url(#插画04-f)" rx="3"/>
        <rect width="6" height="8" x="1" y="34" fill="url(#插画04-f)" rx="3"/>
        <rect width="6" height="8" x="1" y="48" fill="url(#插画04-f)" rx="3"/>
        <rect width="6" height="8" x="1" y="62" fill="url(#插画04-f)" rx="3"/>
        <rect width="6" height="8" x="1" y="76" fill="url(#插画04-f)" rx="3"/>
        <rect width="6" height="8" x="1" y="90" fill="url(#插画04-f)" rx="3"/>
        <circle cx="4" cy="4" r="6" fill="#6BC1FC" stroke="#E3F4FF" stroke-width="4"/>
      </g>
    </g>
    <g stroke-width="6" transform="translate(263)">
      <path stroke="url(#插画04-g)" stroke-linecap="round" stroke-linejoin="round" d="M0.161137151,47 L27.2795754,47 C40.258267,47 50.7795754,36.4786916 50.7795754,23.5 C50.7795754,10.5213084 61.3008838,-4.72128038e-15 74.2795754,0 L126.161137,0 L126.161137,0" transform="matrix(1 0 0 -1 0 47)"/>
      <circle cx="146.667" cy="48" r="9" fill="#6BC1FC" stroke="#E3F4FF"/>
    </g>
    <g transform="translate(243 108)">
      <rect width="112" height="158" x="13" fill="url(#插画04-h)" opacity=".5" rx="5"/>
      <use fill="#000" filter="url(#插画04-i)" xlink:href="#插画04-j"/>
      <use fill="url(#插画04-k)" xlink:href="#插画04-j"/>
      <g fill="#FFF" transform="translate(18 34)">
        <path fill-rule="nonzero" d="M73.473,69.38 L60.908,65.79 C59.784,65.47 59,64.43 59,63.263 C59,62.59 59.641,62.108 60.28,62.31 C62.213,62.923 64.751,63.148 68.045,62.999 C68.858,62.961 69.29,62.019 68.783,61.378 C66.365,58.332 66.915,55.795 67.748,51.955 C68.221,49.776 68.756,47.308 68.878,44.219 C69.145,37.47 67.402,31.717 64.215,28.829 C62.301,27.095 59.949,26.354 57.209,26.625 C53.551,23.507 45.412,22.301 39.307,28.169 C35.182,32.133 32.93,38.444 33.283,45.054 C33.522,49.515 34.58,53.068 31.119,59.528 C30.869,59.995 31.026,60.576 31.477,60.853 C34.782,62.879 38.407,63.383 41.682,62.268 C42.308,62.058 43,62.473 43,63.263 C43,64.43 42.216,65.47 41.093,65.79 L28.527,69.38 C24.684,70.479 22,74.037 22,78.034 L22,85 C22,85.553 22.448,86 23,86 L79,86 C79.552,86 80,85.553 80,85 L80,78.034 C80,74.037 77.316,70.479 73.473,69.38 Z"/>
        <path d="M24,0 L24,3 L3,3 L3,24 L0,24 L0,0 L24,0 Z" opacity=".4"/>
        <path d="M102,0 L102,3 L81,3 L81,24 L78,24 L78,0 L102,0 Z" opacity=".4" transform="matrix(-1 0 0 1 180 0)"/>
        <path d="M24,86 L24,89 L3,89 L3,110 L0,110 L0,86 L24,86 Z" opacity=".4" transform="matrix(1 0 0 -1 0 196)"/>
        <path d="M102,86 L102,89 L81,89 L81,110 L78,110 L78,86 L102,86 Z" opacity=".4" transform="rotate(180 90 98)"/>
      </g>
    </g>
  </g>
</svg>
