<svg xmlns="http://www.w3.org/2000/svg" width="56" height="62" viewBox="0 0 56 62">
  <g fill="none" fill-rule="evenodd" stroke-linecap="square" stroke-width="2" transform="translate(1)">
    <line x1="18" x2="34" y1="1" y2="1" stroke="#333"/>
    <line x1="26" x2="26" y1="1" y2="4" stroke="#333"/>
    <circle cx="26" cy="35" r="26" stroke="#333"/>
    <path stroke="#00AAE7" d="M22.716,37.284 C21.455,35.47 17.435,22.684 17.435,22.684 C17.435,22.684 28.022,30.9 29.283,32.717 C30.1270347,33.8893943 30.2733373,35.4257992 29.6657456,36.7364232 C29.0581538,38.0470472 27.7910838,38.9282271 26.3509354,39.0416977 C24.9107871,39.1551683 23.5213507,38.483297 22.716,37.284 Z"/>
    <line x1="26" x2="26" y1="15" y2="19" stroke="#00AAE7"/>
    <line x1="46" x2="42" y1="35" y2="35" stroke="#00AAE7"/>
    <line x1="26" x2="26" y1="55" y2="51" stroke="#00AAE7"/>
    <line x1="6" x2="10" y1="35" y2="35" stroke="#00AAE7"/>
    <line x1="44" x2="53" y1="8" y2="17" stroke="#333"/>
  </g>
</svg>
