<svg xmlns="http://www.w3.org/2000/svg" width="62" height="58" viewBox="0 0 62 58">
  <g fill="none" fill-rule="evenodd" stroke-width="2" transform="translate(1 1)">
    <path stroke="#333" d="M0,6 L0,14 C0,17.314 5.373,20 12,20 C18.627,20 24,17.314 24,14 L24,6"/>
    <path stroke="#333" d="M0,14 L0,22 C0,25.314 5.373,28 12,28 C18.627,28 24,25.314 24,22 L24,14"/>
    <path stroke="#333" d="M0,22 L0,30 C0,33.314 5.373,36 12,36"/>
    <path stroke="#333" d="M0,30 L0,38 C0,41.314 5.373,44 12,44"/>
    <ellipse cx="12" cy="6" stroke="#333" stroke-linecap="square" rx="12" ry="6"/>
    <path stroke="#333" d="M36,14 L36,22 C36,25.314 41.373,28 48,28 C54.627,28 60,25.314 60,22 L60,14"/>
    <path stroke="#333" d="M48,36 C54.627,36 60,33.314 60,30 L60,22"/>
    <path stroke="#333" d="M48,44 C54.627,44 60,41.314 60,38 L60,30"/>
    <ellipse cx="48" cy="14" stroke="#333" stroke-linecap="square" rx="12" ry="6"/>
    <path stroke="#00AAE7" d="M18,34 L18,42 C18,45.314 23.373,48 30,48 C36.627,48 42,45.314 42,42 L42,34"/>
    <path stroke="#00AAE7" d="M18,42 L18,50 C18,53.314 23.373,56 30,56 C36.627,56 42,53.314 42,50 L42,42"/>
    <ellipse cx="30" cy="34" stroke="#00AAE7" stroke-linecap="square" rx="12" ry="6"/>
  </g>
</svg>
