<svg xmlns="http://www.w3.org/2000/svg" width="62" height="60" viewBox="0 0 62 60">
  <g fill="none" fill-rule="evenodd" stroke-linecap="square" stroke-width="2" transform="translate(1 1)">
    <path stroke="#333" d="M50,40 C55.6702342,39.4587504 60,34.696008 60,29 C60,23.303992 55.6702342,18.5412496 50,18 C48.9691604,7.74197414 40.3095614,-0.0516649637 30,-0.000255370726 C21.1909123,0.0481201726 13.4256516,5.7911775 10.8,14.2 C4.33382315,15.3177782 -0.288865421,21.0744958 0.0160179181,27.6294875 C0.320901257,34.1844793 5.45798481,39.487254 12,40 L50,40 Z"/>
    <line x1="48" x2="60" y1="52" y2="52" stroke="#00AAE7"/>
    <line x2="30" y1="52" y2="52" stroke="#00AAE7"/>
    <circle cx="36" cy="52" r="6" stroke="#00AAE7"/>
    <polygon stroke="#00AAE7" points="26 15 26 29 37 22"/>
  </g>
</svg>
