<?xml version="1.0" encoding="UTF-8"?>
<svg width="63px" height="62px" viewBox="0 0 63 62" version="1.1" xmlns="http://www.w3.org/2000/svg" xmlns:xlink="http://www.w3.org/1999/xlink">
    <!-- Generator: Sketch 64 (93537) - https://sketch.com -->
    <title>paper-design</title>
    <desc>Created with Sketch.</desc>
    <g id="产品" stroke="none" stroke-width="1" fill="none" fill-rule="evenodd">
        <g id="基础服务-云短信✅" transform="translate(-929.000000, -1020.000000)" stroke-width="2">
            <g id="产品介绍-2" transform="translate(0.000000, 543.000000)">
                <g id="01" transform="translate(772.000000, 448.000000)">
                    <g id="paper-design" transform="translate(158.000000, 30.000000)">
                        <path d="M50,6.028 C50,2.715 47.314,0 44,0 L6,0 C9.314,0 12,2.686 12,6 L12,54 C12,57.314 14.686,60 18,60" id="路径" stroke="#333333"></path>
                        <line x1="50" y1="50" x2="50" y2="26" id="路径" stroke="#333333"></line>
                        <path d="M24,54 C24,57.314 21.314,60 18,60 L54,60 C57.314,60 60,57.314 60,54 L60,50 L24,50 L24,54 Z" id="路径" stroke="#333333" stroke-linecap="square"></path>
                        <path d="M0,6 C0,2.686 2.686,0 6,0 C9.314,0 12,2.686 12,6 L12,10 L0,10 L0,6 Z" id="路径" stroke="#333333" stroke-linecap="square"></path>
                        <path d="M33.848,22.152 L54,2.036 C55.381,0.655 57.619,0.655 59,2.036 L59,2.036 C60.381,3.417 60.381,5.655 59,7.036 L38.849,27.151" id="路径" stroke="#00AAE7"></path>
                        <path d="M37.08,23.92 C35.842,22.682 34.197,22 32.446,22 C30.695,22 29.049,22.682 27.812,23.92 C25.351,26.38 25,36 25,36 C25,36 34.62,35.649 37.08,33.189 C38.318,31.951 39,30.305 39,28.555 C39,26.805 38.318,25.158 37.08,23.92 Z" id="路径" stroke="#00AAE7" stroke-linecap="square"></path>
                    </g>
                </g>
            </g>
        </g>
    </g>
</svg>