<?xml version="1.0" encoding="UTF-8"?>
<svg width="56px" height="58px" viewBox="0 0 56 58" version="1.1" xmlns="http://www.w3.org/2000/svg" xmlns:xlink="http://www.w3.org/1999/xlink">
    <!-- Generator: Sketch 64 (93537) - https://sketch.com -->
    <title>archive-paper</title>
    <desc>Created with Sketch.</desc>
    <g id="产品" stroke="none" stroke-width="1" fill="none" fill-rule="evenodd" stroke-linecap="square">
        <g id="基础服务-云短信✅" transform="translate(-1332.000000, -1022.000000)" stroke-width="2">
            <g id="产品介绍-2" transform="translate(0.000000, 543.000000)">
                <g id="01" transform="translate(1172.000000, 448.000000)">
                    <g id="archive-paper" transform="translate(161.000000, 32.000000)">
                        <path d="M0,16 L0,51 C0,53.7614237 2.23857625,56 5,56 L49,56 C51.7614237,56 54,53.7614237 54,51 L54,16" id="路径" stroke="#333333"></path>
                        <polyline id="路径" stroke="#00AAE7" points="6 33 6 0 48 0 48 33"></polyline>
                        <polyline id="路径" stroke="#333333" points="0 39 17 39 17 46 37 46 37 39 54 39"></polyline>
                        <line x1="16" y1="11" x2="38" y2="11" id="路径" stroke="#00AAE7"></line>
                        <line x1="16" y1="20" x2="38" y2="20" id="路径" stroke="#00AAE7"></line>
                        <line x1="16" y1="29" x2="27" y2="29" id="路径" stroke="#00AAE7"></line>
                    </g>
                </g>
            </g>
        </g>
    </g>
</svg>