<?xml version="1.0" encoding="UTF-8"?>
<svg width="62px" height="37px" viewBox="0 0 62 37" version="1.1" xmlns="http://www.w3.org/2000/svg" xmlns:xlink="http://www.w3.org/1999/xlink">
    <!-- Generator: Sketch 64 (93537) - https://sketch.com -->
    <title>water-surface</title>
    <desc>Created with Sketch.</desc>
    <g id="产品" stroke="none" stroke-width="1" fill="none" fill-rule="evenodd" stroke-linecap="square">
        <g id="基础服务-云短信✅" transform="translate(-529.000000, -1033.000000)" stroke-width="2">
            <g id="产品介绍-2" transform="translate(0.000000, 543.000000)">
                <g id="01" transform="translate(372.000000, 448.000000)">
                    <g id="water-surface" transform="translate(158.000000, 43.000000)">
                        <path d="M0,35 C3.88926165,35.0007753 7.60003029,33.3679935 10.227,30.5 C12.8545661,33.3674784 16.5652153,35.0002004 20.4545,35.0002004 C24.3437847,35.0002004 28.0544339,33.3674784 30.682,30.5 C33.1961485,33.239921 36.7037638,34.8575852 40.4199855,34.9910256 C44.1362071,35.124466 47.7508121,33.7625433 50.455,31.21 C53.0305898,33.6542678 56.4492295,35.0116951 60,35" id="路径" stroke="#333333"></path>
                        <path d="M0,20 C3.88926165,20.0007753 7.60003029,18.3679935 10.227,15.5 C12.8545661,18.3674784 16.5652153,20.0002004 20.4545,20.0002004 C24.3437847,20.0002004 28.0544339,18.3674784 30.682,15.5 C33.1961485,18.239921 36.7037638,19.8575852 40.4199855,19.9910256 C44.1362071,20.124466 47.7508121,18.7625433 50.455,16.21 C53.0305898,18.6542678 56.4492295,20.0116951 60,20" id="路径" stroke="#00AAE7"></path>
                        <path d="M0,5 C3.88926165,5.00077528 7.60003029,3.36799354 10.227,0.5 C12.8545661,3.36747835 16.5652153,5.0002004 20.4545,5.0002004 C24.3437847,5.0002004 28.0544339,3.36747835 30.682,0.5 C33.1961485,3.23992102 36.7037638,4.85758516 40.4199855,4.99102558 C44.1362071,5.124466 47.7508121,3.76254334 50.455,1.21 C53.0305898,3.65426775 56.4492295,5.01169515 60,5" id="路径" stroke="#333333"></path>
                    </g>
                </g>
            </g>
        </g>
    </g>
</svg>