<?xml version="1.0" encoding="UTF-8"?>
<svg width="136px" height="136px" viewBox="0 0 136 136" version="1.1" xmlns="http://www.w3.org/2000/svg" xmlns:xlink="http://www.w3.org/1999/xlink">
    <!-- Generator: Sketch 64 (93537) - https://sketch.com -->
    <title>编组 18</title>
    <desc>Created with Sketch.</desc>
    <defs>
        <circle id="path-1" cx="60" cy="60" r="60"></circle>
        <filter x="-11.7%" y="-8.3%" width="123.3%" height="123.3%" filterUnits="objectBoundingBox" id="filter-2">
            <feOffset dx="0" dy="4" in="SourceAlpha" result="shadowOffsetOuter1"></feOffset>
            <feGaussianBlur stdDeviation="4" in="shadowOffsetOuter1" result="shadowBlurOuter1"></feGaussianBlur>
            <feComposite in="shadowBlurOuter1" in2="SourceAlpha" operator="out" result="shadowBlurOuter1"></feComposite>
            <feColorMatrix values="0 0 0 0 0.2   0 0 0 0 0.2   0 0 0 0 0.2  0 0 0 0.08 0" type="matrix" in="shadowBlurOuter1"></feColorMatrix>
        </filter>
    </defs>
    <g id="产品" stroke="none" stroke-width="1" fill="none" fill-rule="evenodd">
        <g id="基础服务-云短信✅" transform="translate(-1298.000000, -2651.000000)">
            <g id="客户按钮" transform="translate(0.000000, 2507.000000)">
                <g id="编组-19" transform="translate(441.500000, 148.000000)">
                    <g id="编组-18" transform="translate(864.500000, 0.000000)">
                        <g id="椭圆形">
                            <use fill="black" fill-opacity="1" filter="url(#filter-2)" xlink:href="#path-1"></use>
                            <circle stroke="#EEEEEE" stroke-width="1" stroke-linejoin="square" fill="#FFFFFF" fill-rule="evenodd" cx="60" cy="60" r="59.5"></circle>
                        </g>
                        <g id="cloud-refresh" transform="translate(30.000000, 35.000000)" stroke-width="2">
                            <path d="M45,46.255 C55.8438279,41.8697655 61.94694,30.3058707 59.4483774,18.878882 C56.9498148,7.45189327 46.5773989,-0.509553071 34.8929411,0.0311236303 C23.2084833,0.571800331 13.6156195,9.4571031 12.183,21.066 C4.76923364,21.7901715 -0.654606315,28.3859835 0.067,35.8 C0.723,42.526 6,48 13,48 L15,48" id="路径" stroke="#333333" stroke-linecap="square"></path>
                            <path d="M20.2,37.9999998 C21.1505372,33.3433375 25.2473138,29.99903 30,29.9999998 C33.9342939,30.005902 37.4813621,32.3706141 39,35.9999998" id="路径" stroke="#00AAE7"></path>
                            <path d="M39.8,42 C38.8494628,46.6566625 34.7526862,50.00097 30,50 C26.0657061,49.994098 22.5186379,47.6293859 21,44" id="路径" stroke="#00AAE7"></path>
                            <polyline id="路径" stroke="#00AAE7" stroke-linecap="square" points="39 29 39 36 32 36"></polyline>
                            <polyline id="路径" stroke="#00AAE7" stroke-linecap="square" points="21 51 21 44 28 44"></polyline>
                        </g>
                    </g>
                </g>
            </g>
        </g>
    </g>
</svg>