<?xml version="1.0" encoding="UTF-8"?>
<svg width="64px" height="64px" viewBox="36 32 64 64" version="1.1" xmlns="http://www.w3.org/2000/svg" xmlns:xlink="http://www.w3.org/1999/xlink">
    <!-- Generator: Sketch 64 (93537) - https://sketch.com -->
    <title>编组 17</title>
    <desc>Created with Sketch.</desc>
    <defs>
        <circle id="path-1" cx="60" cy="60" r="60"></circle>
        <filter x="-11.7%" y="-8.3%" width="123.3%" height="123.3%" filterUnits="objectBoundingBox" id="filter-2">
            <feOffset dx="0" dy="4" in="SourceAlpha" result="shadowOffsetOuter1"></feOffset>
            <feGaussianBlur stdDeviation="4" in="shadowOffsetOuter1" result="shadowBlurOuter1"></feGaussianBlur>
            <feComposite in="shadowBlurOuter1" in2="SourceAlpha" operator="out" result="shadowBlurOuter1"></feComposite>
            <feColorMatrix values="0 0 0 0 0.2   0 0 0 0 0.2   0 0 0 0 0.2  0 0 0 0.08 0" type="matrix" in="shadowBlurOuter1"></feColorMatrix>
        </filter>
    </defs>
    <g id="产品" stroke="none" stroke-width="1" fill="none" fill-rule="evenodd">
        <g id="基础服务-云短信✅" transform="translate(-464.000000, -2651.000000)">
            <g id="客户按钮" transform="translate(0.000000, 2507.000000)">
                <g id="编组-19" transform="translate(441.500000, 148.000000)">
                    <g id="编组-17" transform="translate(30.500000, 0.000000)">
                        <g id="badge-14" transform="translate(30.000000, 36.000000)" stroke-linecap="square" stroke-width="2">
                            <line x1="36" y1="22" x2="50" y2="22" id="路径" stroke="#00AAE7"></line>
                            <line x1="36" y1="32" x2="50" y2="32" id="路径" stroke="#00AAE7"></line>
                            <rect id="矩形" stroke="#00AAE7" x="10" y="18" width="18" height="18"></rect>
                            <path d="M48,0 C48,3.314 45.314,6 42,6 C38.686,6 36,3.314 36,0 L24,0 C24,3.314 21.314,6 18,6 C14.686,6 12,3.314 12,0 L0,0 L0,48 L60,48 L60,0 L48,0 Z" id="路径" stroke="#333333"></path>
                        </g>
                    </g>
                </g>
            </g>
        </g>
    </g>
</svg>