<?xml version="1.0" encoding="UTF-8"?>
<svg width="136px" height="136px" viewBox="0 0 136 136" version="1.1" xmlns="http://www.w3.org/2000/svg" xmlns:xlink="http://www.w3.org/1999/xlink">
    <!-- Generator: Sketch 64 (93537) - https://sketch.com -->
    <title>编组 7</title>
    <desc>Created with Sketch.</desc>
    <defs>
        <circle id="path-1" cx="60" cy="60" r="60"></circle>
        <filter x="-11.7%" y="-8.3%" width="123.3%" height="123.3%" filterUnits="objectBoundingBox" id="filter-2">
            <feOffset dx="0" dy="4" in="SourceAlpha" result="shadowOffsetOuter1"></feOffset>
            <feGaussianBlur stdDeviation="4" in="shadowOffsetOuter1" result="shadowBlurOuter1"></feGaussianBlur>
            <feComposite in="shadowBlurOuter1" in2="SourceAlpha" operator="out" result="shadowBlurOuter1"></feComposite>
            <feColorMatrix values="0 0 0 0 0.2   0 0 0 0 0.2   0 0 0 0 0.2  0 0 0 0.08 0" type="matrix" in="shadowBlurOuter1"></feColorMatrix>
        </filter>
    </defs>
    <g id="产品" stroke="none" stroke-width="1" fill="none" fill-rule="evenodd">
        <g id="基础服务-云短信✅" transform="translate(-1020.000000, -2651.000000)">
            <g id="客户按钮" transform="translate(0.000000, 2507.000000)">
                <g id="编组-19" transform="translate(441.500000, 148.000000)">
                    <g id="编组-7" transform="translate(586.500000, 0.000000)">
                        <g id="椭圆形">
                            <use fill="black" fill-opacity="1" filter="url(#filter-2)" xlink:href="#path-1"></use>
                            <circle stroke="#EEEEEE" stroke-width="1" stroke-linejoin="square" fill="#FFFFFF" fill-rule="evenodd" cx="60" cy="60" r="59.5"></circle>
                        </g>
                        <g id="house-search-engine" transform="translate(30.000000, 36.000000)" stroke-linecap="square" stroke-width="2">
                            <path d="M5,33 L5,5 C5,2.23857625 7.23857625,0 10,0 L50,0 C52.7614237,0 55,2.23857625 55,5 L55,33" id="路径" stroke="#333333"></path>
                            <path d="M38,39 L38,43 L22,43 L22,39 L0,39 C0,44 3,48 8,48 L52,48 C57,48 60,44 60,39 L38,39 Z" id="路径" stroke="#333333"></path>
                            <polygon id="路径" stroke="#00AAE7" points="30 10 20 18 20 31 27 31 27 24 33 24 33 31 40 31 40 18"></polygon>
                        </g>
                    </g>
                </g>
            </g>
        </g>
    </g>
</svg>