<?xml version="1.0" encoding="UTF-8"?>
<svg width="202px" height="135px" viewBox="0 0 202 135" version="1.1" xmlns="http://www.w3.org/2000/svg" xmlns:xlink="http://www.w3.org/1999/xlink">
    <!-- Generator: Sketch 52.4 (67378) - http://www.bohemiancoding.com/sketch -->
    <title>Group 3</title>
    <desc>Created with Sketch.</desc>
    <defs>
        <polygon id="path-1" points="0.0004 0.000211188504 201.817 0.000211188504 201.817 134.434 0.0004 134.434"></polygon>
    </defs>
    <g id="Page-1" stroke="none" stroke-width="1" fill="none" fill-rule="evenodd">
        <g id="Artboard" transform="translate(-1071.000000, -491.000000)">
            <g id="Group-3" transform="translate(1071.000000, 491.000000)">
                <mask id="mask-2" fill="white">
                    <use xlink:href="#path-1"></use>
                </mask>
                <g id="Clip-2"></g>
                <path d="M201.8174,0.4355 C198.4204,-0.7325 195.6114,0.6885 193.9984,1.8975 C171.6384,28.3255 138.2364,45.1085 100.9074,45.1085 C88.0834,45.1085 75.7214,43.1265 64.1124,39.4545 C61.0884,28.4805 58.9514,20.6905 58.9514,20.6905 C58.9514,20.6905 56.4384,13.0455 47.9394,14.3565 L50.3844,34.1615 C33.9014,26.6405 19.3804,15.5625 7.8184,1.8965 C6.2064,0.6885 3.3954,-0.7325 0.0004,0.4355 C9.6584,26.2695 28.9534,47.4015 53.5084,59.4595 L60.2054,113.6825 C60.2054,113.6825 63.2004,134.4345 82.6684,134.4345 L124.3154,134.4345 C143.7844,134.4345 146.7794,113.6825 146.7794,113.6825 L151.4844,74.8165 C138.8394,73.7865 130.8874,82.5965 128.3704,91.2925 C124.1324,105.9345 124.1374,106.8705 123.3034,109.4245 C121.5934,114.6535 115.9854,115.2765 115.9854,115.2765 L91.0004,115.2765 C91.0004,115.2765 85.3914,114.6535 83.6804,109.4245 C82.5814,106.0575 77.0824,86.3605 71.5474,66.3765 C80.8804,69.0165 90.7284,70.4305 100.9074,70.4305 C147.1244,70.4305 186.5324,41.3185 201.8174,0.4355" id="Fill-1" fill="#00A7E1" mask="url(#mask-2)"></path>
            </g>
        </g>
    </g>
</svg>