<svg xmlns="http://www.w3.org/2000/svg" width="32" height="32" viewBox="0 0 32 32">
  <g fill="none" fill-rule="evenodd" stroke-linecap="square" stroke-width="2" transform="translate(1 3)">
    <line x1="21" x2="21" y1="3" y2="11" stroke="#333"/>
    <polyline stroke="#333" points="14 3 30 3 30 27 3 27 3 23"/>
    <line x1="30" x2="18" y1="11" y2="11" stroke="#333"/>
    <line x1="30" x2="18" y1="19" y2="19" stroke="#333"/>
    <line x1="21" x2="21" y1="19" y2="27" stroke="#333"/>
    <line x1="12" x2="12" y1="23" y2="27" stroke="#333"/>
    <path stroke="#00AAE7" d="M0,13 C0,8 7,0 7,0 C7,0 14,8 14,13 C14,16.866 10.866,20 7,20 C3.134,20 0,16.866 0,13 Z"/>
    <path stroke="#00AAE7" d="M7,15 C5.897,15 5,14.103 5,13 C5,12.129 5.795,10.387 7,8.424 C8.205,10.387 9,12.129 9,13 C9,14.103 8.103,15 7,15 Z"/>
  </g>
</svg>
