<?xml version="1.0" encoding="UTF-8"?>
<svg width="520px" height="350px" viewBox="0 0 520 350" version="1.1" xmlns="http://www.w3.org/2000/svg" xmlns:xlink="http://www.w3.org/1999/xlink">
    <title>插画</title>
    <defs>
        <linearGradient x1="50%" y1="0%" x2="50%" y2="100%" id="linearGradient-1">
            <stop stop-color="#00D4F5" stop-opacity="0" offset="0%"></stop>
            <stop stop-color="#00BCED" offset="48.7070261%"></stop>
            <stop stop-color="#00AAE7" stop-opacity="0" offset="100%"></stop>
        </linearGradient>
        <linearGradient x1="50%" y1="0%" x2="50%" y2="100%" id="linearGradient-2">
            <stop stop-color="#00D4F5" stop-opacity="0" offset="0%"></stop>
            <stop stop-color="#00BCED" offset="48.7070261%"></stop>
            <stop stop-color="#00AAE7" stop-opacity="0" offset="100%"></stop>
        </linearGradient>
        <filter x="-55.0%" y="-254.8%" width="210.0%" height="609.5%" filterUnits="objectBoundingBox" id="filter-3">
            <feGaussianBlur stdDeviation="50" in="SourceGraphic"></feGaussianBlur>
        </filter>
        <linearGradient x1="50%" y1="0%" x2="50%" y2="100%" id="linearGradient-4">
            <stop stop-color="#7AE9FF" stop-opacity="0" offset="0%"></stop>
            <stop stop-color="#44CFFF" offset="100%"></stop>
        </linearGradient>
        <linearGradient x1="50%" y1="0%" x2="50%" y2="100%" id="linearGradient-5">
            <stop stop-color="#7AE9FF" stop-opacity="0" offset="0%"></stop>
            <stop stop-color="#56D3FF" stop-opacity="0.500027316" offset="100%"></stop>
        </linearGradient>
        <filter x="-30.0%" y="-136.4%" width="160.0%" height="372.7%" filterUnits="objectBoundingBox" id="filter-6">
            <feGaussianBlur stdDeviation="10" in="SourceGraphic"></feGaussianBlur>
        </filter>
        <linearGradient x1="52.8993512%" y1="11.0583206%" x2="62.5374051%" y2="55.0566039%" id="linearGradient-7">
            <stop stop-color="#E2F7FF" offset="0%"></stop>
            <stop stop-color="#94D8FF" offset="100%"></stop>
        </linearGradient>
    </defs>
    <g id="解决方案" stroke="none" stroke-width="1" fill="none" fill-rule="evenodd">
        <g id="行业解决方案-监控视频边缘存储解决方案✅" transform="translate(-1047.000000, -120.000000)">
            <g id="banner" transform="translate(0.000000, 120.000000)">
                <g id="编组-35">
                    <rect id="矩形" x="0" y="0" width="1920" height="350"></rect>
                    <g id="插画" transform="translate(1135.000000, 39.000000)">
                        <g id="编组-21" transform="translate(2.000000, 0.000000)" fill-rule="nonzero">
                            <polygon id="路径" fill="url(#linearGradient-1)" points="4 96 4 126 0 126 0 96"></polygon>
                            <path d="M27,33 L27,60 L27,60 L24,60 L24,30 C25.6568542,30 27,31.3431458 27,33 Z" id="路径" fill="url(#linearGradient-2)"></path>
                            <path d="M275,37 L275,63 L275,63 L271,63 L271,33 C273.209139,33 275,34.790861 275,37 Z" id="路径" fill="url(#linearGradient-1)"></path>
                            <path d="M298,109 L298,135 L298,135 L294,135 L294,105 C296.209139,105 298,106.790861 298,109 Z" id="路径" fill="url(#linearGradient-1)" opacity="0.300000012"></path>
                            <path d="M228,4 L228,30 L228,30 L224,30 L224,0 C226.209139,-4.05812251e-16 228,1.790861 228,4 Z" id="路径" fill="url(#linearGradient-1)" opacity="0.400000006"></path>
                            <path d="M312,166 L312,193 L312,193 L309,193 L309,163 C310.656854,163 312,164.343146 312,166 Z" id="路径" fill="url(#linearGradient-2)" opacity="0.449999988"></path>
                        </g>
                        <g id="编组-22" transform="translate(0.000000, 155.000000)">
                            <ellipse id="椭圆形" fill="#00BDFF" filter="url(#filter-3)" cx="149.36" cy="49.12" rx="136.32" ry="29.44"></ellipse>
                            <ellipse id="椭圆形" fill="url(#linearGradient-4)" cx="150" cy="29.44" rx="150" ry="29.44"></ellipse>
                            <ellipse id="椭圆形" fill="url(#linearGradient-5)" cx="150" cy="52.44" rx="150" ry="29.44"></ellipse>
                            <ellipse id="椭圆形" fill-opacity="0.5" fill="#0784DA" opacity="0.200000003" filter="url(#filter-6)" cx="150" cy="29" rx="50" ry="11"></ellipse>
                        </g>
                        <g id="cctv" transform="translate(50.000000, 28.000000)" fill="url(#linearGradient-7)">
                            <path d="M103.696209,88.7098977 L111.62901,121.295285 C112.452225,124.85911 115.554121,127.326175 119.179881,127.326175 L119.179881,127.326175 L154.838776,127.326175 L154.838776,106.681279 C154.838776,105.256781 155.99231,104.100667 157.419388,104.100667 C158.846466,104.100667 160,105.256781 160,106.681279 L160,106.681279 L160,153.132294 C160,154.556792 158.846466,155.712906 157.419388,155.712906 C155.99231,155.712906 154.838776,154.556792 154.838776,153.132294 L154.838776,153.132294 L154.838776,132.487398 L119.179881,132.487398 C113.136087,132.487398 107.967122,128.373903 106.607139,122.487527 L106.607139,122.487527 L98.6149841,89.6569823 L103.696209,88.7098977 Z M133.773241,0.223295328 C137.153843,-0.411535206 140.591218,0.318777969 143.432471,2.26713997 C146.276306,4.21808259 148.188539,7.15739958 148.820789,10.545743 L148.820789,10.545743 L159.95613,70.3591663 C160.214191,71.7604386 159.290332,73.107518 157.889059,73.3681598 L157.889059,73.3681598 L42.125389,94.9240112 C41.9679717,94.9549786 41.8105543,94.9678816 41.653137,94.9678816 C41.1370146,94.9678816 40.6260535,94.8130449 40.1950913,94.5162745 C39.6299373,94.1266021 39.2428455,93.5330614 39.1163955,92.8595217 L39.1163955,92.8595217 L26.0894665,22.8991323 C25.8314053,21.4978601 26.7552644,20.1507806 28.1565366,19.8901388 L28.1565366,19.8901388 Z M0.69882572,37.8228111 C1.26139912,37.2215285 2.07171127,36.9221775 2.88976525,37.025402 L2.88976525,37.025402 L23.9423974,39.5518211 L31.0261771,77.5900409 L12.3064182,87.5305581 C11.9270682,87.7318458 11.5115897,87.8324897 11.0961112,87.8324897 C10.7116,87.8324897 10.3296694,87.7473295 9.97354499,87.5770091 C9.23548998,87.2208846 8.70904514,86.5318612 8.55678904,85.7241297 L8.55678904,85.7241297 L0.0433502901,40.0602017 C-0.106325202,39.2524701 0.136252319,38.4215131 0.69882572,37.8228111 Z M60.0709643,31.2887017 C56.5071393,31.2887017 53.6194345,34.1764065 53.6194345,37.7402315 C53.6194345,41.3040566 56.5071393,44.1917613 60.0709643,44.1917613 C63.6322088,44.1917613 66.5224942,41.3040566 66.5224942,37.7402315 C66.5224942,34.1764065 63.6347894,31.2887017 60.0709643,31.2887017 Z" id="形状结合"></path>
                        </g>
                    </g>
                </g>
            </g>
        </g>
    </g>
</svg>