<svg width="24" height="24" viewBox="0 0 24 24" fill="none" xmlns="http://www.w3.org/2000/svg">
  <path fill-rule="evenodd" clip-rule="evenodd" d="M13.1563 2.7751C17.0807 2.7751 20.2748 5.96926 20.2748 9.89365C20.2748 11.8345 19.4774 13.695 18.0788 15.0352C17.9016 15.205 17.8014 15.4397 17.8014 15.6851V19.8517L9.74161 21.0778L9.74164 19.1837C9.74164 18.945 9.64682 18.7161 9.47804 18.5473C9.30925 18.3785 9.08033 18.2837 8.84164 18.2837H6.03776V16.1759C6.03776 15.7858 5.78647 15.4401 5.41542 15.3198L4.02622 14.8692L5.97123 10.1251C6.0141 10.0205 6.03689 9.90883 6.03842 9.79583C6.09076 5.91644 9.26458 2.7751 13.1563 2.7751ZM22.0748 9.89365C22.0748 4.97515 18.0748 0.975098 13.1563 0.975098C8.33726 0.975098 4.40007 4.81483 4.24265 9.59624L1.99257 15.0845C1.89755 15.3162 1.90342 15.5771 2.00875 15.8044C2.11409 16.0316 2.30938 16.2047 2.54764 16.282L4.23776 16.8301V19.1837C4.23776 19.6807 4.64071 20.0837 5.13776 20.0837H7.94162L7.9416 22.1251C7.94159 22.3874 8.05604 22.6367 8.255 22.8077C8.45396 22.9787 8.71761 23.0543 8.97696 23.0149L18.8368 21.5149C19.2765 21.448 19.6014 21.0699 19.6014 20.6251V16.0572C21.1809 14.4043 22.0748 12.1954 22.0748 9.89365Z" fill="#333333"></path>
  <path d="M10.38 12.77L9.94002 13.92C9.88002 14.08 9.79669 14.2067 9.69002 14.3C9.58336 14.4 9.42669 14.45 9.22002 14.45C9.01336 14.45 8.84669 14.3934 8.72002 14.28C8.60002 14.1667 8.58669 13.9734 8.68002 13.7L10.74 7.69003C10.7734 7.58336 10.8434 7.49003 10.95 7.41003C11.0634 7.32336 11.2134 7.28003 11.4 7.28003C11.5867 7.28003 11.7334 7.32336 11.84 7.41003C11.9534 7.49003 12.0267 7.58336 12.06 7.69003L14.14 13.72C14.22 13.9734 14.1967 14.1567 14.07 14.27C13.95 14.39 13.7867 14.45 13.58 14.45C13.3734 14.4567 13.22 14.41 13.12 14.31C13.02 14.2167 12.9434 14.1034 12.89 13.97L12.41 12.77H10.38ZM12.17 11.64L11.4 9.16003L10.63 11.64H12.17Z" fill="#00AAE6"></path>
  <path d="M16.2328 13.81C16.2328 14.0234 16.1795 14.1834 16.0728 14.29C15.9728 14.3967 15.8062 14.45 15.5728 14.45C15.3395 14.45 15.1728 14.3967 15.0728 14.29C14.9795 14.1834 14.9328 14.0267 14.9328 13.82V7.92003C14.9328 7.49336 15.1462 7.28003 15.5728 7.28003C15.7862 7.28003 15.9495 7.3267 16.0628 7.42003C16.1762 7.51336 16.2328 7.6767 16.2328 7.91003V13.81Z" fill="#00AAE6"></path>
</svg>
