<svg xmlns="http://www.w3.org/2000/svg" width="24" height="24" viewBox="0 0 24 24">
  <g fill="none" fill-rule="evenodd" stroke-linecap="square" stroke-width="2" transform="translate(1.464 1.417)">
    <line x1="11.548" x2="9.548" y1="11.434" y2="9.434" stroke="#00AAE7"/>
    <line x1="4.548" x2="2.548" y1="18.434" y2="16.434" stroke="#00AAE7"/>
    <line x1="16.548" x2="18.548" y1="2.434" y2="4.434" stroke="#00AAE7"/>
    <path stroke="#333" d="M17.548 7.314C18.7980585 7.66445143 20.1404479 7.34285308 21.096 6.464M3.548 13.554C2.29794146 13.2035486.955552107 13.5251469 0 14.404M10.582 6.07C9.33194146 5.71954857 7.98955211 6.04114692 7.034 6.92 6.19140674 7.90125664 5.87613797 9.22978286 6.188 10.485 6.804 14.45 7.405 15.397 7.548 18.434 7.60627591 19.2836222 7.40916653 20.1312621 6.982 20.868M10.514 14.798C11.7640585 15.1484514 13.1064479 14.8268531 14.062 13.948 14.9045933 12.9667434 15.219862 11.6382171 14.908 10.383 14.292 6.418 13.691 5.471 13.548 2.434 13.4897241 1.58437783 13.6868335.736737852 14.114 0"/>
  </g>
</svg>
