<svg xmlns="http://www.w3.org/2000/svg" width="24" height="24" viewBox="0 0 24 24">
  <g fill="none" fill-rule="evenodd">
    <path stroke="#333" stroke-width="2" d="M5.5,20 C3.01471863,20 1,17.9852814 1,15.5 C1,13.5384499 2.25505307,11.8700331 4.0059479,11.253961 L4,11 C4,7.13400675 7.13400675,4 11,4 C14.8659932,4 18,7.13400675 18,11 C18,11.0094019 17.9999815,11.0187995 17.9999444,11.0281926 C18.1636876,11.0093434 18.3307527,11 18.5,11 C20.9852814,11 23,13.0147186 23,15.5 C23,17.9852814 20.9852814,20 18.5,20 L18.5,20 Z"/>
    <circle cx="11" cy="11" r="2" fill="#00AAE6"/>
    <line x1="11" x2="11" y1="12" y2="16" stroke="#00AAE6" stroke-width="2"/>
  </g>
</svg>
