<svg width="24" height="24" viewBox="0 0 24 24" fill="none" xmlns="http://www.w3.org/2000/svg">
<path d="M18 12H19" stroke="#00AAE7" stroke-width="2" stroke-miterlimit="10" stroke-linecap="square"/>
<path d="M5 8H6" stroke="#333333" stroke-width="2" stroke-miterlimit="10" stroke-linecap="square"/>
<path d="M10 8H11" stroke="#333333" stroke-width="2" stroke-miterlimit="10" stroke-linecap="square"/>
<path d="M11.5 21.356C12.5203 22.2123 13.7638 22.7597 15.0844 22.9339C16.405 23.1082 17.7479 22.902 18.9554 22.3396C20.1629 21.7772 21.1848 20.882 21.9013 19.759C22.6177 18.6361 22.9989 17.332 23 16V6.22098C21.3846 5.64812 19.7057 5.27338 18 5.10498" stroke="#00AAE7" stroke-width="2" stroke-miterlimit="10" stroke-linecap="square"/>
<path d="M1 12V2.221C5.52468 0.593 10.4753 0.593 15 2.221V12C15 13.8565 14.2625 15.637 12.9497 16.9497C11.637 18.2625 9.85652 19 8 19C6.14348 19 4.36301 18.2625 3.05025 16.9497C1.7375 15.637 1 13.8565 1 12V12Z" stroke="#333333" stroke-width="2" stroke-miterlimit="10" stroke-linecap="square"/>
<path d="M11 13C11 13.7956 10.6839 14.5587 10.1213 15.1213C9.55871 15.6839 8.79565 16 8 16C7.20435 16 6.44129 15.6839 5.87868 15.1213C5.31607 14.5587 5 13.7956 5 13H11Z" fill="#333333"/>
<path d="M18.121 18.879C17.8428 18.6 17.5122 18.3787 17.1482 18.2279C16.7842 18.077 16.394 17.9996 16 18" stroke="#00AAE7" stroke-width="2" stroke-miterlimit="10" stroke-linecap="square"/>
</svg>
