<svg xmlns="http://www.w3.org/2000/svg" width="24" height="24" viewBox="0 0 24 24">
  <g fill="none" fill-rule="evenodd" stroke-linecap="square" stroke-width="2" transform="translate(1 1)">
    <path stroke="#00AAE7" d="M13-2.21936185e-16L13-2.21936185e-16C14.3300943-.0132303807 15.6095654.509304222 16.5501306 1.44986941 17.4906958 2.39043461 18.0132304 3.66990575 18 5L18 5M4 17L4 17C3.98676962 18.3300943 4.50930422 19.6095654 5.44986941 20.5501306 6.39043461 21.4906958 7.66990575 22.0132304 9 22L9 22"/>
    <path stroke="#333" d="M8,13 L1,13 C0.44771525,13 0,12.5522847 0,12 L0,1 C0,0.44771525 0.44771525,0 1,0 L8,0 C8.55228475,0 9,0.44771525 9,1 L9,12 C9,12.5522847 8.55228475,13 8,13 Z"/>
    <line x2="9" y1="9" y2="9" stroke="#333"/>
    <path stroke="#333" d="M21,22 L14,22 C13.4477153,22 13,21.5522847 13,21 L13,10 C13,9.44771525 13.4477153,9 14,9 L21,9 C21.5522847,9 22,9.44771525 22,10 L22,21 C22,21.5522847 21.5522847,22 21,22 Z"/>
    <line x1="13" x2="22" y1="18" y2="18" stroke="#333"/>
  </g>
</svg>