<svg xmlns="http://www.w3.org/2000/svg" width="50" height="46" viewBox="0 0 50 46">
  <g fill="none" fill-rule="evenodd" stroke-linecap="square" stroke-width="2" transform="translate(1 1)">
    <rect width="20" height="36" x="14" stroke="#333" rx="4"/>
    <path stroke="#00AAE7" d="M4.1 27.9C1.47418172 25.2744496-.00101015255 21.7132784-.00101015255 18-.00101015255 14.2867216 1.47418172 10.7255504 4.1 8.1M8.343 12.343C6.84261981 13.8433029 5.9997085 15.8781967 5.9997085 18 5.9997085 20.1218033 6.84261981 22.1566971 8.343 23.657M43.9 27.9C46.5258183 25.2744496 48.0010102 21.7132784 48.0010102 18 48.0010102 14.2867216 46.5258183 10.7255504 43.9 8.1M39.657 12.343C41.1573802 13.8433029 42.0002915 15.8781967 42.0002915 18 42.0002915 20.1218033 41.1573802 22.1566971 39.657 23.657"/>
    <line x1="14" x2="18" y1="10" y2="10" stroke="#333"/>
    <line x1="29" x2="33" y1="10" y2="10" stroke="#333"/>
    <line x1="14" x2="18" y1="26" y2="26" stroke="#333"/>
    <line x1="29" x2="33" y1="26" y2="26" stroke="#333"/>
    <line x1="14" x2="18" y1="18" y2="18" stroke="#333"/>
    <line x1="29" x2="33" y1="18" y2="18" stroke="#333"/>
    <line x1="27" x2="27" y1="36" y2="44" stroke="#333"/>
    <line x1="21" x2="21" y1="36" y2="44" stroke="#333"/>
  </g>
</svg>
