<svg xmlns="http://www.w3.org/2000/svg" xmlns:xlink="http://www.w3.org/1999/xlink" width="570" height="320" viewBox="0 0 570 320">
  <defs>
    <linearGradient id="场景03-a" x1="50%" x2="50%" y1="0%" y2="100%">
      <stop offset="0%" stop-color="#EEF4FF"/>
      <stop offset="82.132%" stop-color="#F2F7FF"/>
      <stop offset="100%" stop-color="#F2F7FF" stop-opacity="0"/>
    </linearGradient>
    <linearGradient id="场景03-b" x1="50%" x2="50%" y1="0%" y2="71.646%">
      <stop offset="0%" stop-color="#00AAE7"/>
      <stop offset="100%" stop-color="#00AAE7" stop-opacity="0"/>
    </linearGradient>
    <rect id="场景03-c" width="130" height="130" x="0" y="0"/>
    <rect id="场景03-e" width="130" height="130" x="0" y="0"/>
  </defs>
  <g fill="none" fill-rule="evenodd" transform="translate(90 5)">
    <g opacity=".5" transform="translate(112)">
      <rect width="159.6" height="302.4" x="2.8" y="2.8" fill="url(#场景03-a)" stroke="url(#场景03-b)" stroke-width="5.6" rx="16.8"/>
      <path fill="#00AAE7" d="M133,6.29995969 L133,7.69995969 C133,15.0453469 127.045387,20.9999597 119.7,20.9999597 L46.9,20.9999597 C39.5546128,20.9999597 33.6,15.0453469 33.6,7.69995969 L33.6,6.29995969 C33.6,6.06523294 33.6060806,5.83192639 33.618093,5.60018898 L132.981907,5.60018898 C132.993919,5.83192639 133,6.06523294 133,6.29995969 Z"/>
    </g>
    <g transform="translate(0 50)">
      <mask id="场景03-d" fill="#fff">
        <use xlink:href="#场景03-c"/>
      </mask>
      <use fill="#B1EAFF" xlink:href="#场景03-c"/>
      <g mask="url(#场景03-d)">
        <g transform="translate(7 24)">
          <path fill="#FFB27D" d="M90.9098413,143.368103 C109.131429,138.730008 129.161587,110.460167 129.161587,110.460167 L124.030794,106.009373 C118.71873,112.272865 96.6326984,123.060167 96.6326984,123.060167 C96.7511111,117.326833 96.6009524,112.101437 96.2390476,107.342706 C93.7885714,75.0061985 81.5984127,64.2315953 78.2707937,61.8696905 C77.7339683,61.4855636 77.4260317,61.3236588 77.4260317,61.3236588 C77.4260317,61.3236588 77.4133333,61.5585794 77.3942857,62.0061985 C77.3460317,62.9649286 77.2574603,64.9014366 77.1673016,67.5585794 C76.4911111,87.3490556 75.6834921,147.244294 90.9098413,143.368103"/>
          <path fill="#233862" d="M63.0901587,25.3525477 C63.0901587,25.3525477 53.2920635,33.6960397 62.2761905,43.298262 C62.2761905,43.298262 54.7892063,44.0347699 52.2552381,41.961754 C52.2552381,41.961754 52.7546032,42.9712778 53.2152381,43.4252461 C53.2152381,43.4252461 44.8453968,43.7268334 41.3898413,41.1173096 C37.9346032,38.5046112 40.1546032,-4.31951581 63.3860317,0.468103242 C63.3860317,0.468103242 83.0771429,-1.01824596 81.2425397,21.7655636 C79.4079365,44.5490556 86.8425397,44.5490556 86.8425397,44.5490556 C86.8425397,44.5490556 84.7746032,45.5681032 83.7765079,45.5681032 C83.7765079,45.5681032 82.3174603,45.0125477 82.0295238,44.2061985 C82.0295238,44.2061985 82.3174603,45.4728651 82.691746,45.8760397 C82.691746,45.8760397 74.6666667,46.6379445 70.66,43.6061985 C66.6530159,40.5776271 61.9466667,30.0531826 63.0901587,25.3525477"/>
          <path fill="#FFB27D" d="M92.6044444,75.314135 L38.9190476,75.314135 C42.7593651,65.6919128 48.2609524,58.7331826 52.4368254,57.8792144 C54.6619048,57.2919128 58.4412698,49.2442937 58.3955556,36.2801667 L59.3965079,36.478262 L76.2568254,39.8157223 C76.2568254,39.8157223 75.875873,45.1236588 75.8606349,50.1236588 C75.8504762,54.2887382 76.0739683,58.5268334 77.0187302,59.0220715 C78.2330159,59.130008 79.3352381,59.3522302 79.3352381,59.3522302 C79.3352381,59.3522302 88.4844444,65.7744524 92.6044444,75.314135"/>
          <path fill="#E8945B" d="M76.2571429,39.8157223 C76.2571429,39.8157223 75.8733333,45.1236588 75.8622222,50.1204842 C66.427619,49.8538175 61.4406349,41.2474683 59.3971429,36.4779445 L76.2571429,39.8157223"/>
          <path fill="#233862" d="M57.655873,34.642389 C57.655873,34.642389 52.7114286,26.830008 51.5247619,20.150008 C50.6777778,15.3811191 53.1066667,-2.29665866 70.8711111,0.249373083 C70.8711111,0.249373083 76.0304762,0.757627051 80.88,4.03318261 C84.7371429,6.63826197 90.3034921,12.2620715 84.0796825,27.6881032 L82.4628571,32.8988969 L57.655873,34.642389"/>
          <path fill="#FFB27D" d="M79.4079365,44.5490556 C79.4079365,44.5490556 57.0857143,44.9173096 57.0701587,31.0131826 C57.0549206,17.1084207 54.1634921,7.79127784 68.4152381,6.9684207 C82.6666667,6.1452461 85.4415873,11.4481032 86.5755556,16.0881032 C87.7095238,20.7277858 85.2139683,44.0950874 79.4079365,44.5490556"/>
          <path fill="#233862" d="M78.5815873,6.62778578 C78.5815873,6.62778578 72.4698413,22.9404842 63.0901587,25.3525477 C53.7107937,27.7646112 49.6422222,25.2515953 49.6422222,25.2515953 C49.6422222,25.2515953 56.8368254,19.5360397 58.3298413,9.55921435 C58.3298413,9.55921435 73.9714286,-1.1363412 78.5815873,6.62778578"/>
          <path fill="#233862" d="M77.0669841,7.95223023 C77.0669841,7.95223023 81.6314286,11.594135 82.744127,15.1350874 C83.8568254,18.6757223 84.3574603,25.9646112 86.4819048,25.7169921 C86.4819048,25.7169921 91.0863492,14.6290556 85.911746,8.35667467 C80.4244444,1.70588102 77.0669841,7.95223023 77.0669841,7.95223023"/>
          <path fill="#FFB27D" d="M53.5644444,57.4633413 L46.2873016,88.9776271 C46.2873016,88.9776271 42.5279365,102.225246 38.9987302,115.145881 C38.9949206,115.149056 38.9949206,115.15223 38.9949206,115.158579 C38.448254,117.149056 37.9126984,119.130008 37.392381,121.056992 C35.5184127,128.025246 33.912381,134.244294 33.2561905,137.35223 C32.3850794,141.479214 27.7587302,150.679214 22.7850794,159.796675 C19.4520635,165.91096 15.964127,171.980802 13.3473016,176.456992 L4.36222222,176.456992 C6.31142857,170.898262 8.29492063,164.168103 10.0822222,157.882389 C12.6460317,148.872865 14.7952381,140.780802 15.8361905,138.355405 C16.5561905,136.67604 17.94,128.745881 19.7498413,118.533183 C22.9961905,100.203024 27.6190476,74.5109604 32.2492063,64.330008 C32.8073016,63.1077858 34.3984127,62.0728651 36.4838095,61.1998493 C42.0114286,58.8887382 50.9739683,57.7585794 53.1006349,57.5173096 L53.1044444,57.5173096 C53.4022222,57.4792144 53.5644444,57.4633413 53.5644444,57.4633413"/>
          <path fill="#233862" d="M77.9149206,8.50302388 C77.9149206,8.50302388 73.5603175,25.585881 61.7253968,31.0566747 C61.7253968,31.0566747 73.5603175,20.5614366 74.5653968,9.28461118 C75.5701587,-1.99221422 77.9149206,8.50302388 77.9149206,8.50302388"/>
          <path fill="#FFF" d="M76.4803175,104.558579 C77.4247619,127.628421 80.8755556,150.469691 90.9190476,148.999849 C103.229841,147.203024 106.436508,135.714135 107.090476,127.171278 C107.49619,121.853818 106.911111,117.679214 106.911111,117.679214 C106.911111,117.679214 100.852381,117.653818 99.8711111,116.749056 C95.2177778,112.450643 96.6,70.2950874 94.2965079,65.9173096 C91.9926984,61.5427064 77.0469841,58.730008 77.0469841,58.730008 C77.0469841,58.730008 75.5403175,81.7585794 76.4803175,104.558579"/>
          <path fill="#F99746" d="M99.1320635,176.456992 L27.5888889,176.456992 C27.7698413,175.745881 27.9473016,175.072865 28.1168254,174.431595 C31.0314286,163.530008 40.7933333,139.685564 42.8863492,134.609373 C42.984127,134.374452 43.0634921,134.183976 43.1238095,134.031595 C43.1765079,133.91731 43.2142857,133.825246 43.2406349,133.761754 C43.2707937,133.685564 43.2860317,133.647468 43.2860317,133.647468 C45.9555556,134.650643 48.6701587,135.428421 51.3774603,136.012548 C52.7273016,136.301437 54.0771429,136.549056 55.4196825,136.75223 C64.9253968,138.196675 74.0349206,137.542706 80.4638095,136.618897 C81.1387302,136.526833 81.7834921,136.422071 82.3942857,136.326833 C86.8926984,135.587151 89.6638095,134.803024 89.6638095,134.803024 C89.6638095,134.803024 89.6790476,134.853818 89.7053968,134.955405 C89.728254,135.047468 89.7657143,135.177627 89.8073016,135.35223 C90.0863492,136.403024 90.7688889,138.964929 91.8736508,143.098262 C92.295873,144.669691 92.7784127,146.466516 93.3215873,148.498262 C94.2415873,151.91731 95.3387302,155.9935 96.6206349,160.736357 C97.8273016,165.203024 98.6190476,170.720484 99.1320635,176.456992"/>
          <path fill="#FFF" d="M0,147.466516 C0,153.263341 5.91111111,156.822071 12.2552381,158.555405 C18.3552381,160.222071 24.8514286,160.199849 26.8831746,158.841119 C30.3895238,156.491913 36.1022222,130.368103 37.7701587,122.415722 C38.0695238,120.974452 38.2403175,120.130008 38.2403175,120.130008 C38.2403175,120.130008 42.7968254,131.003024 42.9393651,132.018897 C43.0038095,132.472865 43.0593651,133.101437 43.1006349,133.653818 C43.1469841,134.320484 43.1742857,134.87604 43.1742857,134.87604 C43.1742857,134.87604 67.9015873,147.355405 89.5463492,135.891913 C89.5463492,135.891913 98.3460317,85.0379445 94.5266667,76.2855636 C92.6285714,71.9363572 82.727619,62.9585794 78.7653968,59.0887382 C77.8761905,58.2188969 77.9638095,56.4950874 78.3092063,54.9204842 C78.5949206,53.5903255 77.3971429,52.4188969 76.0793651,52.7585794 C73.5314286,53.4220715 68.9473016,53.3077858 64.0361905,51.6950874 C61.5895238,50.898262 59.0647619,49.7268334 56.6736508,48.098262 C55.9780952,47.6220715 55.0333333,48.0601667 54.9273016,48.8950874 C54.5542857,51.9268334 53.6374603,57.4633413 51.9650794,57.4633413 C49.6615873,57.4506429 33.9415873,59.3808017 32.7898413,61.3236588 C32.3888889,62.0030239 28.3022222,71.2474683 23.1422222,83.498262 C23.1422222,83.498262 23.1374603,83.5077858 23.1330159,83.530008 C13.4485714,106.51096 0,140.053818 0,147.466516"/>
          <path fill="#ECF3FE" d="M38.2403175,120.130008 C38.2403175,120.130008 42.7968254,131.003024 42.9393651,132.018897 C43.0038095,132.472865 43.0593651,133.101437 43.1006349,133.653818 C45.3028571,135.450643 47.9660317,136.815722 50.6796825,137.637945 C58.387619,139.974452 61.7371429,125.199849 61.2761905,117.828421 C60.8155556,110.456992 49.9146032,89.4157223 46.2844444,88.9776271 C42.6584127,88.5427064 38.2403175,120.130008 38.2403175,120.130008"/>
          <path fill="#233862" d="M69.3768254,141.498262 C83.4469841,141.498262 89.2466667,136.656992 89.675873,136.326833 L90.5860317,129.698262 C90.4511111,129.799849 71.5714286,141.136357 42.3533333,130.279214 L42.9726984,135.298262 C54.2088889,139.47604 62.0685714,141.498262 69.3768254,141.498262"/>
          <path fill="#E58638" d="M37.7701587,122.415722 C38.0695238,120.974452 38.2403175,120.130008 38.2403175,120.130008 C38.0006349,120.91096 37.8438095,121.669691 37.7701587,122.415722"/>
          <polyline fill="#233862" points="139.005 82.606 138.677 89.171 137.88 104.959 125.962 104.959 125.58 97.806 125.112 89.171 124.762 82.606 139.005 82.606"/>
          <polyline fill="#FFF" points="139.828 83.647 124.031 83.647 124.481 81.232 139.547 81.232 139.828 83.647"/>
          <polyline fill="#FFF" points="133.475 81.232 137.157 80.374 137.663 81.232 133.475 81.232"/>
          <path fill="#FFB27D" d="M138.676508,89.1712778 C138.676508,89.1712778 135.448889,86.7268334 134.938413,90.0284207 C134.689841,91.6347699 138.285397,96.914135 138.285397,96.914135 C139.519365,95.7998493 140.450476,89.9649286 138.676508,89.1712778"/>
        </g>
      </g>
      <g transform="translate(130 130)">
        <rect width="130" height="130" fill="#B1EAFF"/>
        <path fill="#CBF0FD" d="M43,59 C46.3137085,59 49,61.6862915 49,65 C49,68.3137085 46.3137085,71 43,71 C39.6862915,71 37,68.3137085 37,65 C37,61.6862915 39.6862915,59 43,59 Z M65,59 C68.3137085,59 71,61.6862915 71,65 C71,68.3137085 68.3137085,71 65,71 C61.6862915,71 59,68.3137085 59,65 C59,61.6862915 61.6862915,59 65,59 Z M87,59 C90.3137085,59 93,61.6862915 93,65 C93,68.3137085 90.3137085,71 87,71 C83.6862915,71 81,68.3137085 81,65 C81,61.6862915 83.6862915,59 87,59 Z"/>
      </g>
      <g transform="translate(260)">
        <rect width="130" height="130" fill="#B1EAFF"/>
        <g transform="matrix(-1 0 0 1 119 18)">
          <path fill="#FFB27D" d="M53.2012579,86.3572491 C53.2012579,86.3572491 56.6698113,82.1497019 58.5345912,81.5585069 C60.3993711,80.967312 64.0125786,78.1717145 64.4842767,79.3226579 C64.9528302,80.4767459 62.0566038,82.2503308 62.2075472,83.5679409 C62.3616352,84.8824063 71.4213836,86.9956139 71.3647799,88.3886956 C71.3081761,89.7817774 69.2327044,93.1497019 65.7798742,92.7629095 C62.3238994,92.376117 53.5597484,90.2975007 51.7610063,91.1937271 C49.9622642,92.0930981 53.2012579,86.3572491 53.2012579,86.3572491"/>
          <path fill="#2B478B" d="M53.4716981,0.0751736159 C53.4716981,0.0751736159 39.1037736,-1.67356852 31.8805031,11.6978151 C24.6540881,25.0695132 25.2389937,44.4408969 18.2358491,53.5773749 C11.2295597,62.7157397 19.4025157,71.3792617 19.4025157,71.3792617 L73.9748428,73.222029 C73.9748428,73.222029 77.7672956,63.0081925 73.9748428,50.7503308 C70.1792453,38.4934126 88.7106918,1.9289472 53.4716981,0.0751736159"/>
          <path fill="#FFB27D" d="M99.672956,162.360394 C99.1132075,164.492469 97.2861635,169.310079 95.8647799,169.310079 C94.7075472,169.306935 94.2924528,163.410708 92.8018868,162.159136 C90.6446541,160.341526 88.8836478,156.53335 88.6006289,155.608821 C88.0251572,153.706306 87.4811321,153.310079 87.4811321,153.310079 L87.4842767,153.306935 L87.4779874,153.306935 C87.4779874,153.306935 70.2232704,121.759765 68.8742138,113.684293 C68.4308176,111.055362 67.3018868,105.781777 65.9716981,99.8729724 C64.5314465,93.4515887 62.8584906,86.2754881 61.5974843,80.9012742 C67.1037736,79.8289472 73.1981132,79.4515887 78.1666667,79.3541044 C79.1792453,85.8918403 80.081761,92.5710856 80.8647799,98.3729724 C82.0251572,107.005048 82.9056604,113.706306 83.4496855,115.140268 C84.9496855,119.08052 89.0849057,140.313224 92.9811321,151.335237 C93.4308176,152.420142 94.6949686,155.244042 96.081761,156.203161 C97.8176101,157.401274 100.232704,160.222029 99.672956,162.360394"/>
          <path fill="#FFB27D" d="M68.3993711,131.222029 C58.8679245,100.75662 78.0534591,101.152847 77.0597484,85.9075636 C76.0691824,70.6591359 64.2641509,54.2660541 64.2641509,54.2660541 C64.2641509,54.2660541 63.8427673,54.2251736 63.1037736,54.1559912 C62.6981132,54.1182554 62.3490566,53.8572491 62.2106918,53.4736013 C61.7704403,52.2691988 61.6415094,49.6339786 61.6509434,46.8846076 C61.6603774,42.6880667 61.9811321,38.2330353 61.9811321,38.2330353 L47.8238994,35.4295761 L46.9842767,35.2638529 C47.009434,42.3846076 45.6603774,47.7380667 44.2012579,50.7283183 C43.509434,52.1497019 42.1540881,53.1245447 40.5880503,53.3415258 C37.5440252,53.7691988 32.1949686,54.6780038 28.5880503,56.1874378 C26.836478,56.9169975 25.5,57.7912114 25.0314465,58.8163686 C21.1446541,67.3635384 17.2641509,88.9358654 14.5345912,104.322658 C13.0157233,112.901274 11.8553459,119.558507 11.2515723,120.967312 C9.56289308,124.904419 4.40566038,146.561652 0,157.247186 L5.62578616,158.935865 C5.62578616,158.935865 24.1886792,128.137123 25.8773585,120.124545 C26.427673,117.517626 27.7767296,112.294356 29.3522013,106.445299 C29.5880503,105.561652 29.8333333,104.662281 30.0786164,103.753476 C32.8584906,111.297501 34.2798742,114.788067 34.2012579,118.045928 C34.0943396,122.684293 30.9496855,126.85096 24.3773585,141.589953 C20.745283,149.734608 78.1289308,162.338381 68.3993711,131.222029"/>
          <path fill="#E8945B" d="M61.9811321,38.2330353 C61.9811321,38.2330353 61.6603774,42.6880667 61.6509434,46.8846076 C53.7295597,46.6613371 49.5408805,39.434922 47.8238994,35.4295761 L61.9811321,38.2330353"/>
          <path fill="#FFB27D" d="M64.6257862,42.2069346 C64.6257862,42.2069346 45.8836478,42.5160541 45.8710692,30.8412114 C45.8584906,19.1663686 43.4308176,11.3437271 55.3962264,10.6525321 C67.3616352,9.9616516 69.6918239,14.4138529 70.6446541,18.3097648 C71.5974843,22.2053623 69.5031447,41.8254881 64.6257862,42.2069346"/>
          <path fill="#2B478B" d="M70.0880503,11.8182554 C67.1949686,8.312595 65.009434,9.07454469 63.7798742,10.1276893 C53.7327044,4.5534755 46.927673,12.8280038 46.927673,12.8280038 C45.6761006,21.2047334 39.6352201,26.0034755 39.6352201,26.0034755 C39.6352201,26.0034755 42.9716981,27.7770604 50.927673,26.0883812 C60.3679245,24.0842931 62.9654088,13.4456139 63.3396226,12.0622805 C64.4842767,13.089639 66.7421384,15.3217145 67.427673,17.5094503 C68.3616352,20.4824063 68.7830189,26.6025321 70.5660377,26.394356 C70.5660377,26.394356 74.4339623,17.0846076 70.0880503,11.8182554"/>
          <path fill="#F9DDBF" d="M83.8616352,186.228318 L51.6383648,186.228318 C51.4968553,186.272343 51.3584906,186.319513 51.2169811,186.366683 C51.2138365,186.319513 51.2044025,186.272343 51.1981132,186.228318 L13.8899371,186.228318 C15.5503145,176.291211 17.3993711,165.70945 19.3301887,155.272343 C22.3742138,138.788067 29.1572327,129.916998 31.8050314,125.828947 C31.8081761,125.825803 31.8081761,125.819513 31.8144654,125.816369 C31.8176101,125.813224 31.8207547,125.810079 31.8207547,125.800645 C31.8427673,125.772343 31.8647799,125.737752 31.8805031,125.70945 C32.6006289,124.586809 32.990566,123.84467 32.8742138,123.410708 C32.8490566,123.306935 32.7924528,123.222029 32.7044025,123.149702 C32.6918239,123.130834 32.6792453,123.124545 32.6792453,123.124545 C25.8962264,118.310079 28.827044,110.042784 29.2735849,107.086809 C29.2389937,107.093098 29.2044025,107.105677 29.172956,107.111966 C27.1320755,107.646557 21.245283,108.690582 14.3333333,105.464167 C13.8176101,105.225174 13.2987421,104.961023 12.7704403,104.66857 C13.2358491,102.413853 13.7232704,100.02706 14.2389937,97.5679409 C14.490566,96.3729724 14.745283,95.1591359 15.0062893,93.9358654 C15.9937107,89.2975007 17.0628931,84.5081925 18.1792453,79.9515887 C18.908805,76.9704566 19.6603774,74.0899535 20.4245283,71.4138529 C21.908805,66.2094503 23.4465409,61.7660541 24.9842767,58.8383812 C25.0566038,58.703161 25.1415094,58.5679409 25.2421384,58.4421547 C25.2421384,58.4358654 25.245283,58.4358654 25.245283,58.4358654 C25.4622642,58.1685698 25.7484277,57.9107082 26.0974843,57.6654252 C26.0597484,57.6276893 26.0534591,57.6119661 26.0534591,57.6119661 C26.836478,57.039639 27.7704403,56.539639 28.7767296,56.1119661 C28.7861635,56.1025321 28.8018868,56.0962428 28.8176101,56.0930981 C33.2327044,54.1968717 38.9496855,53.5742302 38.9496855,53.5742302 C38.9496855,53.5742302 38.9496855,53.5773749 38.9591195,53.5868088 C39.1163522,53.9767459 43.6415094,65.0333497 45.0408805,66.784922 C47.3396226,69.6528466 50.0849057,71.4830353 52.8867925,72.5081925 L52.8899371,72.5113371 C56.5974843,73.8698277 60.3993711,73.8132239 63.3584906,72.8603937 C67.1572327,71.6497019 69.5660377,68.967312 68.6100629,65.9295761 C67.7955975,63.3163686 63.6132075,55.0899535 63.0943396,54.1559912 L63.0943396,54.1528466 C63.072327,54.1151107 63.9748428,54.2283183 64.2106918,54.2629095 C64.2264151,54.2629095 64.2358491,54.2660541 64.245283,54.2660541 C64.2578616,54.2660541 64.2672956,54.2660541 64.2672956,54.2660541 C67.0534591,54.6339786 69.0220126,54.9138529 70.4402516,55.1591359 C73.2232704,55.630834 73.9150943,55.9641673 74.6100629,56.4987585 C74.8616352,56.7534755 75.1226415,57.0427837 75.3867925,57.376117 C77.6792453,60.2503308 80.2515723,66.130834 80.4811321,75.8383812 C80.5251572,77.7503308 81.4968553,88.7723434 81.0471698,99.7471862 L81.0471698,99.7566202 C80.5849057,111.159136 78.5943396,122.505048 72.4433962,123.498759 C72.0471698,123.564796 71.6352201,123.586809 71.2012579,123.561652 C71.163522,123.558507 71.1352201,123.567941 71.1132075,123.589953 L71.1100629,123.593098 C70.9716981,123.744042 71.2327044,124.448444 71.745283,125.646557 C71.8836478,125.964167 72.0377358,126.313224 72.2106918,126.696872 C74.4213836,131.655991 79.2106918,142.115111 80.672956,155.272343 C81.8584906,165.894985 82.918239,176.382406 83.8616352,186.228318"/>
          <path fill="#FFF" d="M59.2421384,35.3138529 C59.2421384,35.3138529 59.5974843,36.7509598 63.1823899,36.4861799 C63.1823899,36.4861799 66.1886792,36.2644818 66.0786164,34.6817774 C66.0786164,34.6817774 63.1446541,33.5893246 59.2421384,35.3138529"/>
          <path fill="#F99746" d="M83.8616352,186.228318 L13.8899371,186.228318 C15.5503145,176.291211 17.3993711,165.70945 19.3301887,155.272343 C22.3742138,138.788067 29.1572327,129.916998 31.8050314,125.828947 C31.8081761,125.825803 31.8081761,125.819513 31.8144654,125.816369 C31.8176101,125.813224 31.8207547,125.810079 31.8207547,125.800645 C31.8427673,125.772343 31.8647799,125.737752 31.8805031,125.70945 C32.6006289,124.586809 32.990566,123.84467 32.8742138,123.410708 C32.8490566,123.306935 32.7924528,123.222029 32.7044025,123.149702 C32.7389937,123.174859 32.8113208,123.231463 32.9150943,123.310079 C34.1572327,124.259765 40.4245283,128.583664 51.2138365,127.93901 C57.7138365,127.545928 63.2893082,126.89184 67.0566038,126.369828 C69.3616352,126.049073 70.9937107,125.778633 71.745283,125.646557 C71.8836478,125.964167 72.0377358,126.313224 72.2106918,126.696872 C74.4213836,131.655991 79.2106918,142.115111 80.672956,155.272343 C81.8584906,165.894985 82.918239,176.382406 83.8616352,186.228318"/>
          <path fill="#ED7D2B" d="M32.6792453,123.124545 C32.6792453,123.124545 51.2106918,130.857249 71.2012579,123.561652 L72.2169811,126.693727 C72.2169811,126.693727 51.6509434,133.838381 31.8805031,125.70945 L32.6792453,123.124545"/>
        </g>
      </g>
      <g transform="translate(130)">
        <mask id="场景03-f" fill="#fff">
          <use xlink:href="#场景03-e"/>
        </mask>
        <use fill="#CBF0FD" xlink:href="#场景03-e"/>
        <g mask="url(#场景03-f)">
          <g transform="translate(-8 17)">
            <path fill="#B0D0FF" d="M75.9626095,93.2062521 C81.5605063,100.726329 88.1148466,106.666673 94.8502194,111.347361 C116.257485,126.239522 139.475076,128.459407 139.475076,128.459407 C145.040277,126.676615 162.135114,124.818107 172.236453,123.190191 L172.239894,123.190191 C176.641806,122.481204 179.715229,121.81696 179.92173,121.22499 L179.670487,112.428049 C179.670487,112.428049 142.59324,110.46629 136.453279,107.620019 C126.771826,99.2773802 118.219244,88.4498468 112.64716,79.9867492 C107.938938,72.8407837 102.669722,67.5633076 93.9829154,64.4668257 C81.4235273,59.9885083 58.5817682,69.8568448 75.9626095,93.2062521"/>
            <path fill="#98BAF4" d="M92.9607357,105.813135 L94.8502194,111.347361 C116.257485,126.239522 139.475076,128.459407 139.475076,128.459407 C143.945822,128.459407 162.135114,124.818107 172.236453,123.190191 C171.837218,123.221166 144.733967,125.341243 138.741998,124.72174 C132.708728,124.095353 104.614273,99.7488907 104.614273,99.7488907 L92.9607357,105.813135"/>
            <path fill="#2B478B" d="M106.138938,186.080057 C106.138938,186.080057 106.138938,186.090382 106.135497,186.114474 C106.132055,186.128241 106.132055,186.142007 106.132055,186.152332 C106.125172,186.238374 106.114847,186.327858 106.111405,186.4139 C106.104522,186.496501 106.094196,186.582543 106.090755,186.668585 C106.083871,186.751185 106.08043,186.833786 106.070105,186.916386 C106.05978,187.071262 106.046013,187.233021 106.032246,187.391338 C105.956529,188.327476 105.87737,189.325564 105.798212,190.375277 C105.784445,190.523269 105.770678,190.671262 105.760353,190.815812 C105.715611,191.380248 105.67087,191.958451 105.622686,192.55042 C105.605478,192.75348 105.588269,192.959981 105.574502,193.16304 C105.571061,193.211223 105.567619,193.255965 105.564177,193.307591 C105.550411,193.46935 105.536644,193.63455 105.522877,193.799751 C105.50911,193.951185 105.498785,194.106061 105.485019,194.264378 C105.474694,194.408929 105.460927,194.560363 105.454044,194.715239 C105.395535,195.376042 105.34391,196.050612 105.288843,196.735506 C105.281959,196.842199 105.275076,196.945449 105.264751,197.052141 C105.257868,197.165717 105.244101,197.279292 105.237218,197.392868 C105.220009,197.630344 105.199359,197.86782 105.178709,198.108738 C105.013508,200.242581 104.831099,202.500325 104.64869,204.837227 C104.614273,205.229579 104.58674,205.621931 104.555764,206.014283 C104.507581,206.547744 104.469722,207.081204 104.428422,207.618107 C104.349263,208.581778 104.273546,209.572983 104.190946,210.584837 C104.122112,211.496883 104.046395,212.422696 103.97412,213.348508 C103.91217,214.08847 103.853661,214.835315 103.798594,215.592485 C103.719436,216.532065 103.64716,217.481969 103.571443,218.435315 C103.454426,219.925564 103.337409,221.429579 103.213508,222.937036 C103.165325,223.601281 103.110258,224.258642 103.058632,224.922887 L57.0374852,224.922887 C55.9788237,206.482352 55.128728,191.011988 54.8179441,185.278145 C54.731902,183.73283 54.686816,182.893059 54.686816,182.893059 L85.2857835,184.785984 C85.2892252,184.785984 85.2926669,184.785984 85.2926669,184.785984 L92.1829154,185.216195 L106.135497,186.080057 L106.138938,186.080057"/>
            <path fill="#233862" d="M106.768766,178.140095 C106.768766,178.140095 106.734349,178.580631 106.668957,179.403193 C106.565707,180.724799 106.379856,183.030726 106.135497,186.080057 L106.135497,186.114474 C106.132055,186.128241 106.132055,186.142007 106.132055,186.152332 C106.125172,186.238374 106.114847,186.327858 106.111405,186.4139 C106.104522,186.496501 106.094196,186.582543 106.090755,186.668585 C106.083871,186.751185 106.08043,186.833786 106.070105,186.916386 C106.05978,187.071262 106.046013,187.233021 106.032246,187.391338 C105.956529,188.327476 105.87737,189.325564 105.798212,190.375277 C105.784445,190.523269 105.770678,190.671262 105.760353,190.815812 C105.715611,191.380248 105.67087,191.958451 105.622686,192.55042 C105.605478,192.75348 105.588269,192.959981 105.574502,193.16304 C105.571061,193.211223 105.567619,193.255965 105.564177,193.307591 C105.550411,193.46935 105.536644,193.63455 105.522877,193.799751 C105.50911,193.951185 105.498785,194.106061 105.485019,194.264378 C105.474694,194.408929 105.460927,194.560363 105.454044,194.715239 C105.395535,195.376042 105.34391,196.050612 105.288843,196.735506 C105.281959,196.842199 105.275076,196.945449 105.264751,197.052141 C105.257868,197.165717 105.244101,197.279292 105.237218,197.392868 C105.220009,197.630344 105.199359,197.86782 105.178709,198.108738 C105.013508,200.242581 104.831099,202.500325 104.64869,204.837227 C104.614273,205.229579 104.58674,205.621931 104.555764,206.014283 C104.507581,206.547744 104.469722,207.081204 104.428422,207.618107 C104.349263,208.581778 104.273546,209.572983 104.190946,210.584837 C104.122112,211.496883 104.046395,212.422696 103.97412,213.348508 C103.915611,214.091912 103.853661,214.842199 103.798594,215.592485 C103.719436,216.532065 103.64716,217.481969 103.571443,218.435315 C103.454426,219.925564 103.337409,221.429579 103.213508,222.937036 C103.165325,223.601281 103.110258,224.258642 103.058632,224.922887 L57.0374852,224.922887 C55.9788237,206.482352 55.128728,191.011988 54.8179441,185.278145 C54.731902,183.73283 54.686816,182.893059 54.686816,182.893059 L94.5680015,179.2552 L106.768766,178.140095"/>
            <path fill="#2B478B" d="M95.0119785,178.140095 C95.0119785,178.140095 94.8571028,178.529005 94.5680015,179.2552 C94.2135082,180.136271 93.6593973,181.519828 92.9366439,183.323269 C92.7026095,183.911797 92.4513667,184.541625 92.1829154,185.216195 C88.7962997,193.703384 82.7905636,208.812371 76.511902,224.922887 L29.5143495,224.922887 C31.1739288,209.053288 33.626816,192.619254 38.2379824,180.841816 C42.1171028,170.933212 47.5212328,164.318298 55.2756879,164.101472 C85.6506019,163.251376 95.0119785,178.140095 95.0119785,178.140095"/>
            <path fill="#FFB27D" d="M81.9418447,70.7737091 C77.475229,73.1264433 73.1159938,73.2734032 69.3366822,72.4708028 C65.879512,71.7435752 62.9110607,70.2175332 60.7968351,68.8663286 C58.6271984,67.4796747 57.3517108,66.2712999 57.3517108,66.2712999 C57.3517108,66.2712999 57.5024565,66.0530972 57.7567969,65.6239194 C59.0759938,63.3665198 63.0779824,55.2517206 61.2975999,42.2135944 C61.2738523,42.0425427 62.5651716,42.2851814 64.5166057,42.7460227 C70.3223801,44.1209749 81.9934699,47.4311852 82.5100665,47.578145 C82.5221124,47.578145 82.5300282,47.578145 82.5300282,47.578145 C82.5300282,47.578145 82.6732022,50.3201336 83.1540053,55.2358888 C83.1935846,55.6691967 83.2376382,56.1221221 83.2851334,56.5908793 C83.3446745,57.1673611 83.4042156,57.7792923 83.4758026,58.4070552 C84.0158026,63.5176097 81.9418447,70.7737091 81.9418447,70.7737091"/>
            <path fill="#ED975D" d="M83.1540053,55.2358888 C74.486816,57.2227722 61.5519403,44.4269404 61.5519403,44.4269404 C62.4977147,43.7238047 63.4913284,43.1672846 64.5166057,42.7460227 C70.3223801,44.1209749 81.9934699,47.4311852 82.5100665,47.578145 C82.5221124,47.578145 82.5300282,47.578145 82.5300282,47.578145 C82.5300282,47.578145 82.6732022,50.3201336 83.1540053,55.2358888"/>
            <path fill="#FFB27D" d="M86.0980206,46.8853343 C86.0980206,46.8853343 82.5348466,48.1646077 77.9911372,48.7755064 C71.3466248,49.6724089 62.6095693,49.1434223 59.8648275,41.1043401 C55.2416152,27.5726766 49.3360321,19.4595982 62.9406592,13.9343209 C70.2236038,10.9761947 74.8829537,10.819254 78.0472367,11.9481259 C80.7967969,12.9221221 82.4178294,14.8687378 83.6441009,16.794015 C86.2873131,20.9357359 91.6012711,44.5167684 86.0980206,46.8853343"/>
            <path fill="#A9453D" d="M94.3546171,17.8626575 C86.4766057,23.5245695 75.5788619,17.9583362 72.191902,19.4651049 C68.8083839,20.9680877 68.2005827,26.6437664 68.139665,28.444799 C68.0787472,30.2499615 67.8412711,31.7711852 63.2466248,30.6915294 C62.4935846,30.5153152 61.9508313,30.5672846 61.5777529,30.7913381 C59.6717491,31.9222751 62.107772,37.4034988 62.8422271,38.5898468 C62.8422271,38.5898468 63.899512,42.5161183 61.553317,44.4279729 C61.2693781,44.6561565 56.6602768,46.6709175 45.5529345,29.6727913 C43.8073131,27.004799 42.1401621,20.9939003 44.8367204,15.206711 C47.5294929,9.41917754 58.7868925,3.82541081 68.332055,0.860745416 C71.9096841,-0.250918064 74.5618447,-0.209962041 76.636491,0.550993982 C80.097447,1.81581234 81.9428772,5.08678748 83.7748848,8.37187352 C86.8448657,13.8912999 94.3546171,17.8626575 94.3546171,17.8626575"/>
            <path fill="#B0D0FF" d="M110.716376,165.873939 C110.083107,174.223461 108.320965,180.201663 104.455956,180.201663 C104.455956,180.201663 87.264751,186.252141 66.7192825,186.414607 C62.7038715,186.441434 57.0168351,185.660172 52.3003533,184.872026 C47.4833743,184.052906 43.6689575,183.230344 43.6689575,183.230344 C39.5385942,182.280439 34.9804298,179.726711 35.5913284,175.018489 C35.9365292,172.351185 36.177447,168.875086 36.3426477,164.841434 C36.7955732,153.927858 36.7202003,138.894589 36.7776764,124.504914 C36.8172558,115.666673 36.903642,107.072791 37.19825,99.8280494 C37.19825,99.8280494 33.1432596,71.3546651 37.6477338,66.6853343 C42.921424,61.2209749 58.4117491,59.5421221 59.3823036,59.7506881 C59.6734699,59.6894261 59.9646363,59.6174949 60.2630302,59.5672464 C60.2630302,59.5672464 73.4563762,67.0012808 83.2558791,61.4976861 C83.2558791,61.4976861 83.3494929,61.5159271 83.5325904,61.5407072 C85.9190531,61.9182598 97.8341583,64.67195 101.946969,69.0218926 C103.364942,70.5173037 109.029952,79.7079729 109.184827,89.802428 C109.401653,103.875468 108.850984,119.862084 108.850984,119.865526 C108.998977,122.150803 109.243336,125.093441 109.511787,128.459407 C109.800889,132.042199 110.117523,136.093059 110.385975,140.312562 C110.5202,142.439522 110.644101,144.611223 110.747351,146.782925 C111.050219,153.483881 111.146587,160.222696 110.716376,165.873939"/>
            <path fill="#98BAF4" d="M59.4476955 59.7661756C59.4476955 59.7661756 74.0462806 74.8242253 84.4838715 71.7387569 84.4838715 71.7387569 85.8743112 69.7050666 81.173317 69.053212 76.4726669 68.4013573 71.3989384 68.6680877 59.4476955 59.7661756M50.1936999 112.686176C50.1936999 112.686176 50.2226095 153.408164 36.3426477 164.841434 36.7955732 153.927858 36.7202003 138.894589 36.7776764 124.504914L50.1936999 112.686176"/>
            <path fill="#FFB27D" d="M7.52337432,188.916004 C7.52337432,188.916004 0.4558791,200.011988 0.0597414326,204.259025 C-0.209742315,207.146596 0.438670687,218.528241 1.87935902,218.569541 C3.91408178,218.624608 5.94846036,211.545067 6.73591734,209.707208 C7.52337432,207.86935 8.44230357,206.423843 9.22976055,206.423843 C10.0172175,206.423843 7.52337432,213.513709 9.22976055,212.725564 C10.9361468,211.937418 13.8237185,205.377571 14.0863189,203.801281 C14.3489193,202.22499 12.5461659,197.179483 13.42586,195.193633 C14.3055541,193.207782 7.52337432,188.916004 7.52337432,188.916004"/>
            <path fill="#B0D0FF" d="M38.9930875,65.1431164 C38.9930875,65.1431164 29.4434508,69.6541297 21.4367204,103.049464 C15.4003533,128.225373 3.84834564,192.512562 3.84834564,192.512562 L13.6206592,196.532447 C13.6206592,196.532447 49.4083074,114.369158 54.5274661,102.811988 C59.6462806,91.2582598 38.9930875,65.1431164 38.9930875,65.1431164"/>
          </g>
        </g>
      </g>
      <rect width="130" height="130" x="260" y="130" fill="#CBF0FD"/>
      <path fill="#B1EAFF" d="M303,189 C306.313708,189 309,191.686292 309,195 C309,198.313708 306.313708,201 303,201 C299.686292,201 297,198.313708 297,195 C297,191.686292 299.686292,189 303,189 Z M325,189 C328.313708,189 331,191.686292 331,195 C331,198.313708 328.313708,201 325,201 C321.686292,201 319,198.313708 319,195 C319,191.686292 321.686292,189 325,189 Z M347,189 C350.313708,189 353,191.686292 353,195 C353,198.313708 350.313708,201 347,201 C343.686292,201 341,198.313708 341,195 C341,191.686292 343.686292,189 347,189 Z"/>
      <rect width="130" height="130" y="130" fill="#CBF0FD"/>
      <path fill="#B1EAFF" d="M43,189 C46.3137085,189 49,191.686292 49,195 C49,198.313708 46.3137085,201 43,201 C39.6862915,201 37,198.313708 37,195 C37,191.686292 39.6862915,189 43,189 Z M65,189 C68.3137085,189 71,191.686292 71,195 C71,198.313708 68.3137085,201 65,201 C61.6862915,201 59,198.313708 59,195 C59,191.686292 61.6862915,189 65,189 Z M87,189 C90.3137085,189 93,191.686292 93,195 C93,198.313708 90.3137085,201 87,201 C83.6862915,201 81,198.313708 81,195 C81,191.686292 83.6862915,189 87,189 Z"/>
    </g>
  </g>
</svg>
