<svg xmlns="http://www.w3.org/2000/svg" xmlns:xlink="http://www.w3.org/1999/xlink" width="570" height="320" viewBox="0 0 570 320">
  <defs>
    <linearGradient id="场景02-a" x1="50%" x2="50%" y1="0%" y2="100%">
      <stop offset="0%" stop-color="#EEF4FF"/>
      <stop offset="82.132%" stop-color="#F2F7FF"/>
      <stop offset="100%" stop-color="#F2F7FF" stop-opacity="0"/>
    </linearGradient>
    <linearGradient id="场景02-b" x1="50%" x2="50%" y1="0%" y2="71.646%">
      <stop offset="0%" stop-color="#00AAE7"/>
      <stop offset="100%" stop-color="#00AAE7" stop-opacity="0"/>
    </linearGradient>
    <circle id="场景02-c" cx="57.2" cy="57.2" r="57.2"/>
    <circle id="场景02-e" cx="57.2" cy="57.2" r="57.2"/>
    <circle id="场景02-g" cx="26.8" cy="26.8" r="26.8"/>
  </defs>
  <g fill="none" fill-rule="evenodd" transform="translate(76 6)">
    <g opacity=".5" transform="translate(120)">
      <rect width="159.6" height="302.4" x="2.8" y="2.8" fill="url(#场景02-a)" stroke="url(#场景02-b)" stroke-width="5.6" rx="16.8"/>
      <path fill="#00AAE7" d="M133,6.29995969 L133,7.69995969 C133,15.0453469 127.045387,20.9999597 119.7,20.9999597 L46.9,20.9999597 C39.5546128,20.9999597 33.6,15.0453469 33.6,7.69995969 L33.6,6.29995969 C33.6,6.06523294 33.6060806,5.83192639 33.618093,5.60018898 L132.981907,5.60018898 C132.993919,5.83192639 133,6.06523294 133,6.29995969 Z"/>
    </g>
    <g transform="translate(0 26)">
      <path fill="#B1EAFF" d="M409.261,26 L183.816,26 C178.947,26 175,29.947 175,34.816 L175,104.747 C175,109.616 178.947,113.563 183.816,113.563 L200.612,113.563 C201.965,120.866 203.548,130.08 203.548,130.08 L218.749,113.563 L409.261,113.563 C414.13,113.563 418.077,109.616 418.077,104.747 L418.077,34.816 C418.077,29.947 414.13,26 409.261,26"/>
      <path fill="#00AAE7" d="M291.58,68.0931018 C291.58,93.2207897 312.845824,113.592 339.078903,113.592 C365.313079,113.592 386.58,93.2207897 386.58,68.0931018 C386.58,42.9632103 365.313079,22.592 339.078903,22.592 C312.845824,22.592 291.58,42.9632103 291.58,68.0931018" opacity=".5"/>
      <g transform="translate(286)">
        <mask id="场景02-d" fill="#fff">
          <use xlink:href="#场景02-c"/>
        </mask>
        <g mask="url(#场景02-d)">
          <g transform="translate(8.8 2.4)">
            <path fill="#F4A671" d="M5.03386036,126.770431 L9.5849447,127.613322 C9.5849447,127.613322 22.0374748,108.415009 22.3953061,102.559828 C22.7398845,96.9697078 33.9625351,72.5046476 20.8261495,57.2292259 C20.2324146,56.5374186 19.5883182,55.8641656 18.8912098,55.2121174 C18.8673543,55.188262 18.8408483,55.1644066 18.8143423,55.1405512 C18.8143423,55.1405512 18.7931375,55.1776596 18.7507278,55.2492259 C18.483017,55.6945271 17.4386796,57.581756 16.2167519,61.7511536 C14.3003664,68.2663343 11.9333784,80.3636837 11.3741013,101.258382 C11.3741013,101.258382 8.31795675,119.147298 5.03386036,126.770431"/>
            <path fill="#F4A671" d="M5.03386036,126.770431 C5.03386036,126.770431 0.156751929,132.273081 0.00831819415,134.502238 C-0.142766143,136.734045 1.78687241,139.543684 3.95506518,140.023443 C6.12325795,140.500551 4.76880012,137.060069 5.09482422,135.679105 C5.42084831,134.298142 6.83627,132.201515 6.74880012,132.827057 C6.66398084,133.449949 5.79723386,135.909708 6.0649447,136.301997 C6.33265554,136.696937 7.03241458,136.757901 7.29747482,135.445852 C7.56253506,134.131154 9.74663145,132.601756 9.31723386,131.191636 C8.89048687,129.784166 9.24036639,128.700069 9.83145072,126.81019 C10.4225351,124.92031 11.4138604,122.654045 11.4138604,122.654045 L7.89916157,121.903925 L5.03386036,126.770431"/>
            <path fill="#2C3A64" d="M37.9516917,27.3993464 C37.9516917,27.3993464 38.0603664,29.7212741 36.6661495,30.1755873 C35.2745833,30.6299006 38.102776,35.6411295 37.8801254,39.0248885 C37.6574748,42.4097078 36.1598845,43.7694668 36.1598845,43.7694668 C36.1598845,43.7694668 36.8808483,41.9060933 36.4779567,40.7557319 C36.4779567,40.7557319 36.5415712,43.1492259 34.7921736,44.3579006 C33.0454266,45.5665753 33.5145833,46.6109126 33.5145833,46.6109126 C33.5145833,46.6109126 29.5625351,45.4260933 29.4512098,42.4627198 C29.4512098,42.4627198 29.2842218,43.8012741 29.4194025,44.3579006 C29.4194025,44.3579006 26.0080772,41.794768 25.8437399,38.841997 C25.6820531,35.8910813 28.5314507,33.4000451 29.8275953,33.3549849 C31.1263905,33.3099247 34.0208483,30.7624307 33.9439808,29.7994668 C33.8644628,28.8362379 37.9516917,27.3993464 37.9516917,27.3993464"/>
            <path fill="#E2AF64" d="M27.0312098,10.8092259 C29.329282,7.31758732 38.4579567,9.27187647 47.4222941,15.1739729 C56.3839808,21.0758042 61.783258,28.6907198 59.4851857,32.1820933 C57.1844628,35.6734668 48.0557881,33.7194427 39.0941013,27.8173464 C30.1324146,21.915515 24.7304869,14.3005994 27.0312098,10.8092259"/>
            <path fill="#F99746" d="M47.0538604,135.233804 C45.9644628,141.028021 44.7319327,147.736696 43.4888001,154.628262 L12.7656676,154.628262 C12.7842218,154.376455 12.802776,154.124648 12.8213302,153.875491 C13.0863905,150.474768 13.4389206,147.341756 13.823258,144.502961 C15.1485592,130.809949 16.5719327,123.942238 17.4386796,120.742961 C17.9422941,118.882238 18.2603664,118.261997 18.2603664,118.261997 L22.7875953,119.452117 C22.7902459,119.454768 22.7955471,119.454768 22.8008483,119.454768 L28.7541013,121.023925 L30.2304869,125.718142 L31.6671134,130.271876 L47.0538604,135.233804"/>
            <path fill="#F99746" d="M63.2490411,138.552358 C63.0688001,141.454768 62.8408483,147.471636 62.5757881,154.628262 L29.8912098,154.628262 C29.5439808,152.364648 29.2206074,150.167298 28.9184387,148.060069 C28.656029,148.060069 26.1777158,131.324166 20.1157881,121.784648 L20.1157881,121.781997 C19.569764,120.923202 18.9972339,120.12272 18.3928965,119.399105 C17.8389206,118.733804 21.3589206,119.229467 22.7875953,119.452117 C22.7902459,119.454768 22.7955471,119.454768 22.8008483,119.454768 C23.1507278,119.513081 23.3707278,119.55019 23.3707278,119.55019 C26.8456676,120.472599 32.6054266,119.656214 38.3148242,118.322961 C38.3148242,118.322961 38.3148242,118.322961 38.3174748,118.322961 C43.123017,117.204407 47.8888001,115.717419 51.2285592,114.601515 C54.0143423,113.668503 55.8141013,112.992599 55.8141013,112.992599 C55.8141013,112.992599 56.156029,113.294768 56.6967519,113.922961 C57.8259086,115.232358 59.8006074,117.954527 61.3088001,122.304166 C62.6924146,126.293322 63.6810893,131.655491 63.2490411,138.552358"/>
            <path fill="#2C3A64" d="M32.0779567,11.2062861 L48.1856676,35.6482861 C48.1856676,35.6482861 50.0278363,32.0394909 52.0741013,33.3340451 C55.2654266,35.3506235 62.1225351,28.4481897 60.6912098,18.7029849 C60.5984387,18.0657801 60.4871134,17.4606476 60.3625351,16.8852018 C57.1473543,12.2543343 53.5769929,7.09811744 51.016511,3.47315358 C43.6186796,-0.9949669 32.0779567,11.2062861 32.0779567,11.2062861"/>
            <path fill="#FFB27D" d="M24.9981977,60.5822379 C27.2512098,62.6470572 30.1801254,64.4945271 33.9731375,65.9338042 C48.1989206,71.3224789 55.5172339,59.6757319 58.7880772,51.4429608 C56.943258,50.0248885 55.0931375,49.5159729 54.0222941,49.2376596 C52.9779567,48.9672982 51.8726555,48.7313945 50.9528965,48.561756 C49.476511,47.0721174 47.7218122,41.5694668 48.2704869,33.4679006 L47.5548242,33.5593464 L35.5475953,35.1531536 C35.5475953,35.1531536 35.5767519,38.9056114 35.3647037,42.4176596 C35.1950652,45.1663343 34.8716917,47.7718765 34.2700049,48.3391054 C33.3396435,48.4106717 32.7803664,48.4663343 32.7803664,48.4663343 C32.7803664,48.4663343 32.7803664,48.4689849 32.7750652,48.4769367 C32.5842218,48.7101897 28.4757881,53.7754909 24.9981977,60.5822379"/>
            <path fill="#F9DDBF" d="M18.3584387,68.9289849 C18.3743423,69.2523584 18.4061495,69.5730813 18.443258,69.9044066 C19.6042218,78.9668162 21.2820531,108.224166 21.2820531,108.224166 C18.4485592,113.798382 60.569282,126.714768 62.3875953,121.395009 C65.1150652,117.236214 62.3955471,109.271154 60.036511,103.164166 C59.4586796,101.674527 59.3314507,100.086816 58.8172339,98.9338042 C58.4885592,98.1942861 58.2261495,97.4309126 58.0326555,96.6542861 C57.5449447,94.7034427 57.4919327,92.6571777 57.8974748,90.6665753 C58.9815712,85.3865753 60.4977158,80.4856114 61.7700049,76.515009 C62.3902459,74.5853704 62.949523,72.8810331 63.37627,71.4576596 C62.769282,70.6121174 62.1702459,69.8222379 61.61627,69.074768 C60.7733784,67.9270572 60.0391616,66.8694668 59.5673543,65.8834427 C59.0425351,64.8046476 58.8198845,63.8027198 59.0663905,62.8299488 C59.2572339,62.0957319 59.5143423,61.361515 59.8218122,60.6432018 C59.9675953,60.3039247 60.1239808,59.9725994 60.2883182,59.6386235 C62.0191616,56.1424789 64.6114507,53.2983825 64.6114507,53.2983825 C61.2239808,50.4913945 54.0222941,49.235009 54.0222941,49.235009 C54.0222941,49.235009 53.9056676,49.621997 53.709523,50.2501897 C52.9328965,52.781515 50.849523,59.2516355 49.6514507,60.221756 C48.156511,61.4277801 27.5268724,62.241515 27.2061495,59.8586235 C26.8933784,57.5154909 32.5603664,48.8029608 32.7724146,48.4742861 C32.7803664,48.4663343 32.7803664,48.4636837 32.7803664,48.4636837 C32.5577158,48.4795873 32.3403664,48.4954909 32.1283182,48.5087439 C31.062776,48.5935632 30.1085592,48.7764548 29.2338604,48.8109126 C23.6172339,49.0521174 22.6100049,50.5735632 22.6100049,50.5735632 C25.576029,54.1810331 17.9025351,60.3516355 18.3584387,68.9289849"/>
            <path fill="#ED985F" d="M35.5475953,35.155009 C35.5475953,35.155009 35.5794025,38.9029608 35.3620531,42.4203102 C42.009764,42.6562138 45.9034989,36.8254186 47.5548242,33.5617319 L35.5475953,35.155009"/>
            <path fill="#FFB27D" d="M33.1196435,38.3436837 C33.1196435,38.3436837 48.8006074,39.6000692 49.4341013,29.8225271 C50.0675953,20.0444548 52.5194025,13.62125 42.5319327,12.4043584 C32.5471134,11.1877319 30.3577158,14.7930813 29.3531375,18.0053464 C28.3459086,21.2176114 29.05627,37.7634668 33.1196435,38.3436837"/>
            <path fill="#2C3A64" d="M30.1642218,12.5978524 C32.7777158,9.81074394 34.5721736,10.5730572 35.5422941,11.522768 C44.4244628,7.35151503 49.5083182,14.6780451 49.5083182,14.6780451 C50.1126555,21.761515 54.9155471,26.1029367 54.9155471,26.1029367 C54.9155471,26.1029367 51.9415712,27.688262 45.4528965,25.5722861 C43.4728965,24.9258042 41.763258,23.3791777 40.3451857,21.5449608 C42.7307278,26.1898765 46.1579567,29.6449367 46.1579567,29.6449367 C38.5109688,25.5009849 36.043258,14.3406235 35.8020531,13.1619006 C34.789523,13.9613223 32.7803664,15.7107198 32.0885592,17.506503 C31.1475953,19.9469126 30.4690411,25.0509126 28.9873543,24.7813464 C28.9873543,24.7813464 26.2439808,16.7773223 30.1642218,12.5978524"/>
            <path fill="#EDBD77" d="M61.0278363,23.5146235 C61.0278363,23.5146235 68.3196435,8.99753912 58.1280772,3.25871985 C47.936511,-2.47956931 40.4777158,-0.226557261 34.8690411,6.79197286 L61.0278363,23.5146235"/>
            <path fill="#FFCF83" d="M61.8203664,21.6562861 C61.5155471,21.3413945 61.2001254,21.0235873 60.8741013,20.705515 L60.8714507,20.7023343 C57.7278363,17.629756 53.7201254,14.4877319 49.116029,11.6197801 C45.4131375,9.30898491 41.7234989,7.42016563 38.2618122,6.00659937 C37.5753061,5.72643069 36.8994025,5.46190057 36.2341013,5.22281623 C28.3008483,2.31696081 21.9049447,2.09643069 19.9673543,5.19737045 C17.9237399,8.46847888 21.3801254,14.5632741 28.149764,20.7463343 L28.1524146,20.749515 C28.136511,20.6047921 28.123258,20.4600692 28.1126555,20.3153464 C28.0994025,20.1515391 28.0861495,19.9877319 28.0781977,19.821009 C28.0702459,19.6951054 28.0675953,19.565756 28.0622941,19.4369367 C28.0543423,19.2103102 28.0516917,18.9834186 28.0596435,18.7536114 C28.0596435,18.6844307 28.0596435,18.6149849 28.0622941,18.5428885 C28.0649447,18.4387198 28.0675953,18.338262 28.0728965,18.2340933 C28.0781977,18.1272741 28.0834989,18.0201897 28.0941013,17.9131054 C28.0967519,17.8563825 28.0994025,17.7967439 28.1047037,17.7400211 C28.1100049,17.7052982 28.1126555,17.6676596 28.1153061,17.6329367 C28.1206074,17.585756 28.123258,17.5353945 28.1312098,17.4882138 C28.1338604,17.4439488 28.1391616,17.4031295 28.1444628,17.3591295 C28.1471134,17.3336837 28.149764,17.3055873 28.1550652,17.2772259 C28.163017,17.2077801 28.1709688,17.1385994 28.1842218,17.0662379 C28.189523,16.9967921 28.202776,16.9276114 28.216029,16.85525 C28.2266314,16.78925 28.2372339,16.7200692 28.2478363,16.6538042 C28.2663905,16.5530813 28.2875953,16.4523584 28.3061495,16.3548162 C28.3114507,16.3452741 28.3114507,16.3328162 28.3141013,16.3232741 C28.3353061,16.2193704 28.3618122,16.1186476 28.3856676,16.0147439 C28.3883182,16.0052018 28.3883182,15.9991054 28.3909688,15.9895632 C27.6673543,14.4657319 27.5348242,13.1499729 28.1285592,12.2023825 C28.8071134,11.1066235 30.3656676,10.6629126 32.4755471,10.8012741 L32.4781977,10.8012741 C32.5391616,10.8044548 32.589523,10.8108162 32.6478363,10.8171777 L32.6557881,10.8171777 C33.4324146,10.8736355 34.283258,11.012262 35.1924146,11.22325 L35.1950652,11.22325 C35.409764,11.2704307 35.6244628,11.3239729 35.8471134,11.3836114 C36.6475953,11.5914186 37.4878363,11.8559488 38.3572339,12.1676596 L38.3625351,12.1676596 C40.9601254,13.1057078 43.8174748,14.4972741 46.6907278,16.2917319 C47.8834989,17.0346958 49.0126555,17.8092018 50.0702459,18.5961656 C50.1789206,18.6751536 50.2849447,18.7536114 50.3883182,18.835515 C55.2680772,22.5378765 58.4912098,26.5140451 58.8596435,29.2624548 C58.8596435,29.2624548 58.8596435,29.2624548 58.8596435,29.2656355 C58.9577158,29.9958765 58.8569929,30.6349367 58.5256676,31.163997 C58.4991616,31.207997 58.4700049,31.251997 58.4381977,31.2930813 C58.4355471,31.2991777 58.4328965,31.3023584 58.4302459,31.3055391 C58.2128965,31.6045271 57.9266314,31.8470572 57.5767519,32.0389608 C57.5634989,32.0421415 57.5528965,32.0453223 57.5449447,32.0548644 C57.5157881,32.070503 57.4866314,32.0864066 57.4574748,32.0988644 C57.4521736,32.0988644 57.449523,32.1020451 57.4468724,32.1052259 C57.0837399,32.2846717 56.6622941,32.413756 56.1878363,32.4924789 L56.1851857,32.4924789 C56.0924146,32.5648403 56.0022941,32.6340211 55.909523,32.7002861 C55.8247037,32.7631054 55.7372339,32.823009 55.6524146,32.8797319 C55.6471134,32.8829126 55.6418122,32.8860933 55.636511,32.8892741 C55.5808483,32.9269126 55.5225351,32.9648162 55.4668724,32.9960933 C55.4059086,33.033997 55.3502459,33.0655391 55.2945833,33.0968162 C55.2336194,33.1283584 55.1779567,33.1599006 55.1196435,33.1914427 C55.0639808,33.2198042 55.0083182,33.2481656 54.9500049,33.276262 C54.8757881,33.3109849 54.7989206,33.3457078 54.7247037,33.3769849 C54.3615712,33.5283343 54.0090411,33.6226958 53.669764,33.663515 C53.6273543,33.6698765 53.5875953,33.6730572 53.5504869,33.6762379 C53.5080772,33.6762379 53.4709688,33.6791536 53.4312098,33.6791536 C53.3410893,33.6825994 53.2536194,33.6825994 53.1661495,33.6791536 C53.062776,33.6730572 52.9647037,33.6603343 52.8639808,33.641515 C52.81627,33.6319729 52.7659086,33.6226958 52.7181977,33.6099729 C52.6519327,33.5911536 52.5883182,33.5659729 52.5273543,33.5439729 C52.4054266,33.5028885 52.2941013,33.4557078 52.1801254,33.3960692 C52.1456676,33.3769849 52.1085592,33.3549849 52.0741013,33.3329849 C51.7136194,33.1063584 51.3637399,33.0308162 51.0244628,33.0591777 C50.9900049,33.0623584 50.9555471,33.0655391 50.9210893,33.0716355 C50.8680772,33.0811777 50.8177158,33.0904548 50.7620531,33.1031777 L50.7594025,33.1031777 C50.7169929,33.1127198 50.6745833,33.1251777 50.6321736,33.1410813 C50.5924146,33.1535391 50.5579567,33.1630813 50.5234989,33.1787198 C50.5208483,33.1787198 50.5155471,33.1787198 50.5102459,33.1819006 C50.4943423,33.188262 50.4863905,33.1943584 50.4731375,33.2007198 L50.4704869,33.2007198 C50.4148242,33.2227198 50.356511,33.2510813 50.3034989,33.2794427 C50.2743423,33.2921656 50.2478363,33.3078042 50.2213302,33.3234427 C50.1948242,33.3361656 50.1656676,33.3549849 50.1391616,33.3708885 C50.0941013,33.3989849 50.0463905,33.4273464 50.0013302,33.4588885 C49.9668724,33.4808885 49.9350652,33.5028885 49.903258,33.53125 C49.8608483,33.5627921 49.8157881,33.597515 49.7707278,33.6319729 C49.7283182,33.6666958 49.6859086,33.7014186 49.6461495,33.7390572 C49.5586796,33.8116837 49.476511,33.8933223 49.3943423,33.9752259 C49.3757881,33.9908644 49.3598845,34.0099488 49.3413302,34.028768 C49.3174748,34.050768 49.2989206,34.0759488 49.2777158,34.0979488 C49.269764,34.1043102 49.2671134,34.1074909 49.2618122,34.1138524 C50.0278363,34.4284789 50.783258,34.7213704 51.5254266,34.991997 C53.9056676,35.8579488 56.1480772,36.4781897 58.1678363,36.8431777 L58.1704869,36.8431777 C62.8514507,37.6836837 66.3528965,37.1360692 67.6994025,34.9763584 C69.4938604,32.1020451 67.0394025,27.0428403 61.8203664,21.6562861"/>
            <path fill="#F99746" d="M56.8080772 49.8154909C56.8080772 49.8154909 47.0114507 56.0762138 44.5066314 69.2762138L41.543258 68.33525C41.543258 68.33525 42.6909688 58.9123584 54.0222941 49.2376596L56.8080772 49.8154909M22.2071134 69.6101897L25.3083182 69.8142861C24.6880772 58.3689849 30.4319327 50.5576596 32.1283182 48.5113945 31.0654266 48.5962138 30.1006074 48.6995873 29.2338604 48.8135632 21.109764 60.5663343 22.2071134 69.6101897 22.2071134 69.6101897"/>
            <path fill="#F99746" d="M44.2071134,76.5971777 C44.4006074,75.7807921 46.2984387,67.8581415 46.2984387,67.8581415 C46.2984387,67.8581415 46.7357881,65.3798283 42.3834989,65.1359729 C38.0312098,64.8921174 22.5861495,64.0783825 22.5861495,64.0783825 C22.5861495,64.0783825 20.4842218,65.3480211 20.4524146,67.9535632 C20.4206074,70.5591054 18.3186796,85.4687439 18.3186796,85.4687439 L17.4413302,120.742961 L63.2490411,138.552358 C63.2490411,138.552358 66.4774748,121.978142 62.8620531,110.426816 C60.7521736,103.688985 58.0353061,96.6542861 58.0353061,96.6542861 C58.0353061,96.6542861 41.2781977,89.0470572 44.2071134,76.5971777"/>
            <path fill="#ED7D2B" d="M44.6285592,68.1232018 C44.8459086,67.4393464 44.4668724,66.7077801 43.7803664,66.4904307 C43.096511,66.2730813 42.3649447,66.6521174 42.1475953,67.3359729 C41.9302459,68.0224789 42.309282,68.7513945 42.9931375,68.9687439 C43.6796435,69.1860933 44.4112098,68.8097078 44.6285592,68.1232018"/>
            <path fill="#ED7D2B" d="M44.4059086,68.0542861 C44.623258,67.3677801 44.2442218,66.6362138 43.5577158,66.4188644 C42.8738604,66.201515 42.1422941,66.5805512 41.9249447,67.2644066 C41.7075953,67.9509126 42.0866314,68.6824789 42.7704869,68.8998283 C43.4569929,69.1171777 44.1885592,68.7381415 44.4059086,68.0542861"/>
            <path fill="#ED7D2B" d="M43.9712098 67.6593464C43.9712098 67.5533223 43.8863905 67.468503 43.783017 67.468503 43.6769929 67.468503 43.5921736 67.5533223 43.5921736 67.6593464 43.5921736 67.7627198 43.6769929 67.8475391 43.783017 67.8475391 43.8863905 67.8475391 43.9712098 67.7627198 43.9712098 67.6593464M42.736029 67.6593464C42.736029 67.5559729 42.6512098 67.4711536 42.5478363 67.4711536 42.4418122 67.4711536 42.3596435 67.5559729 42.3596435 67.661997 42.3596435 67.7653704 42.4444628 67.8501897 42.5478363 67.8501897 42.6512098 67.8501897 42.736029 67.7653704 42.736029 67.6593464M25.4806074 66.4718765C25.6979567 65.7853704 25.3189206 65.0564548 24.6350652 64.8364548 23.9485592 64.6191054 23.2169929 64.9981415 22.9996435 65.6846476 22.7822941 66.368503 23.1613302 67.1000692 23.8451857 67.3174186 24.5316917 67.534768 25.263258 67.1557319 25.4806074 66.4718765"/>
            <path fill="#ED7D2B" d="M25.2579567,66.4003102 C25.4753061,65.7164548 25.09627,64.9848885 24.4124146,64.7675391 C23.7259086,64.5501897 22.9943423,64.9292259 22.7769929,65.6130813 C22.5596435,66.2969367 22.9386796,67.028503 23.6225351,67.2458524 C24.3090411,67.4632018 25.0406074,67.0841656 25.2579567,66.4003102"/>
            <path fill="#ED7D2B" d="M24.823258 66.0053704C24.823258 65.901997 24.7384387 65.8171777 24.6350652 65.8171777 24.5290411 65.8171777 24.4442218 65.901997 24.4468724 66.0053704 24.4468724 66.1113945 24.5316917 66.1935632 24.6350652 66.1935632 24.7384387 66.1935632 24.823258 66.1087439 24.823258 66.0053704M23.5880772 66.0080211C23.5880772 65.901997 23.503258 65.8171777 23.3998845 65.8198283 23.296511 65.8198283 23.2116917 65.9046476 23.2116917 66.0080211 23.2116917 66.1113945 23.296511 66.1962138 23.3998845 66.1962138 23.5059086 66.1962138 23.5880772 66.1113945 23.5880772 66.0080211"/>
            <path fill="#2C3A64" d="M58.8596435,29.2619247 C58.8596435,29.2619247 58.9683182,31.5841174 57.5767519,32.0384307 C56.1825351,32.4927439 59.0107278,37.5039729 58.7880772,40.888262 C58.5680772,44.2730813 57.0704869,45.6301897 57.0704869,45.6301897 C57.0704869,45.6301897 57.7888001,43.7694668 57.3859086,42.6191054 C57.3859086,42.6191054 57.449523,45.0125994 55.702776,46.2212741 C53.9533784,47.4272982 54.4251857,48.4716355 54.4251857,48.4716355 C54.4251857,48.4716355 50.4731375,47.2894668 50.3618122,44.3260933 C50.3618122,44.3260933 50.1921736,45.6646476 50.3273543,46.2212741 C50.3273543,46.2212741 46.916029,43.6581415 46.7543423,40.7053704 C46.5900049,37.7539247 49.4394025,35.2628885 50.7381977,35.2178283 C52.0343423,35.172768 54.9288001,32.6252741 54.8519327,31.6623102 C54.7750652,30.6990813 58.8596435,29.2619247 58.8596435,29.2619247"/>
            <path fill="#FFB27D" d="M58.8437399,107.041997 C58.8437399,107.041997 54.149523,110.00537 53.463017,109.978864 C51.8514507,109.917901 48.6733784,106.400551 46.0254266,108.028021 C43.3801254,109.65284 40.7878363,112.364407 41.7022941,113.448503 C42.6194025,114.532599 45.7285592,113.252358 47.2181977,113.469708 C48.7104869,113.687057 52.3868724,115.513322 54.9791616,114.654527 C57.4733784,113.827539 62.8620531,110.426816 62.8620531,110.426816 L58.8437399,107.041997"/>
            <path fill="#FFB27D" d="M64.6114507,53.2983825 C64.6114507,53.2983825 82.0842218,73.9333223 87.8678363,85.5588644 C87.8678363,85.5588644 80.9153061,100.696455 58.3772339,112.992599 C58.3772339,112.992599 57.3753061,112.77525 55.8459086,111.680551 C53.463017,109.978864 56.1056676,108.730431 56.6278363,108.393804 C62.3451857,104.688262 72.3353061,88.7342861 72.6242218,87.3506717 C72.9131375,85.9670572 60.102776,73.5516355 56.2090411,68.9607921 C52.3153061,64.3699488 58.5601254,50.9313945 64.6114507,53.2983825"/>
            <path fill="#F9DDBF" d="M64.6114507 53.2983825L72.4598845 60.9639247C72.4598845 60.9639247 72.6666314 74.8689849 60.7866314 76.3480211 60.7866314 76.3480211 49.0391616 65.9603102 54.8651857 57.828262 60.6912098 49.6962138 64.6114507 53.2983825 64.6114507 53.2983825M22.6100049 50.5735632C22.6100049 50.5735632 16.5639808 53.3699488 14.6131375 63.134768 14.6131375 63.134768 14.7244628 66.2386235 19.3842218 67.8342861 19.3842218 67.8342861 25.5071134 51.3422379 24.6350652 50.5735632 23.763017 49.8048885 22.6100049 50.5735632 22.6100049 50.5735632"/>
            <path fill="#FFB27D" d="M53.463017,109.978864 C53.463017,109.978864 53.1979567,108.839105 52.1880772,108.388503 C51.1808483,107.940551 50.2398845,106.959828 50.1603664,107.246093 C50.0781977,107.532358 50.0145833,108.009467 50.5367519,108.587298 C51.05627,109.165129 51.9468724,110.132599 53.463017,109.978864"/>
          </g>
        </g>
      </g>
      <path fill="#B1EAFF" d="M234.261,156 L8.816,156 C3.947,156 0,159.947 0,164.816 L0,234.747 C0,239.616 3.947,243.563 8.816,243.563 L25.612,243.563 C26.965,250.866 28.548,260.08 28.548,260.08 L43.749,243.563 L234.261,243.563 C239.13,243.563 243.077,239.616 243.077,234.747 L243.077,164.816 C243.077,159.947 239.13,156 234.261,156" transform="matrix(-1 0 0 1 243.077 0)"/>
      <path fill="#58C9F3" d="M18,197.501102 C18,222.62879 39.2658235,243 65.4989027,243 C91.7330792,243 113,222.62879 113,197.501102 C113,172.37121 91.7330792,152 65.4989027,152 C39.2658235,152 18,172.37121 18,197.501102"/>
      <g transform="translate(8 129)">
        <mask id="场景02-f" fill="#fff">
          <use xlink:href="#场景02-e"/>
        </mask>
        <g mask="url(#场景02-f)">
          <g transform="translate(.8 8.8)">
            <path fill="#B0D0FF" d="M54.0178556,66.2800015 C57.9985822,71.6276114 62.6594465,75.8518562 67.4490449,79.1803457 C82.6719895,89.7703265 99.1822763,91.3489116 99.1822763,91.3489116 C103.139752,90.0811487 115.296081,88.7595426 122.479255,87.6019135 L122.481703,87.6019135 C125.611951,87.0977453 127.797496,86.6253935 127.944341,86.2044374 L127.76568,79.9488352 C127.76568,79.9488352 101.399638,78.5538065 97.0334426,76.5297912 C90.1488537,70.5972482 84.0670182,62.8976688 80.1046472,56.8794661 C76.7565784,51.7978906 73.0095803,48.0450187 66.8322954,45.8430761 C57.901175,42.6584948 41.6581463,49.6759786 54.0178556,66.2800015"/>
            <path fill="#98BAF4" d="M66.1054121,75.2448963 L67.4490449,79.1803457 C82.6719895,89.7703265 99.1822763,91.3489116 99.1822763,91.3489116 C102.361473,91.3489116 115.296081,88.7595426 122.479255,87.6019135 C122.195355,87.6239403 102.921932,89.1315503 98.6609761,88.6910149 C94.3706511,88.2455847 74.3923719,70.9325445 74.3923719,70.9325445 L66.1054121,75.2448963"/>
            <path fill="#2B478B" d="M75.4765784,132.323596 C75.4765784,132.323596 75.4765784,132.330938 75.474131,132.34807 C75.4716836,132.35786 75.4716836,132.36765 75.4716836,132.374992 C75.4667887,132.436177 75.4594465,132.49981 75.456999,132.560996 C75.4521042,132.619734 75.444762,132.680919 75.4423145,132.742105 C75.4374197,132.800843 75.4349723,132.859581 75.42763,132.918319 C75.4202878,133.028453 75.4104981,133.143481 75.4007084,133.256063 C75.3468652,133.921761 75.2905746,134.631512 75.2342839,135.377975 C75.2244943,135.483214 75.2147046,135.588453 75.2073623,135.691244 C75.1755459,136.092621 75.1437295,136.503787 75.1094656,136.924743 C75.0972285,137.069141 75.0849914,137.215986 75.0752017,137.360384 C75.0727543,137.394648 75.0703069,137.426464 75.0678595,137.463175 C75.0580698,137.578204 75.0482801,137.69568 75.0384904,137.813156 C75.0287008,137.920843 75.0213585,138.030977 75.0115688,138.143558 C75.0042266,138.246349 74.9944369,138.354036 74.9895421,138.46417 C74.947936,138.934074 74.9112247,139.413768 74.872066,139.900805 C74.8671711,139.976675 74.8622763,140.050097 74.854934,140.125967 C74.8500392,140.206732 74.8402495,140.287497 74.8353547,140.368262 C74.8231176,140.537133 74.8084331,140.706005 74.7937486,140.877325 C74.6762725,142.394724 74.5465593,144.000231 74.4168461,145.662028 C74.3923719,145.941034 74.3727925,146.22004 74.3507658,146.499045 C74.3165019,146.878395 74.2895803,147.257745 74.2602113,147.639543 C74.2039207,148.32482 74.1500774,149.029676 74.0913394,149.749218 C74.042391,150.397784 73.9885478,151.056139 73.937152,151.714495 C73.8930985,152.24069 73.8514924,152.77178 73.8123337,153.310212 C73.756043,153.978357 73.7046472,154.653845 73.650804,155.33178 C73.5675918,156.391512 73.4843795,157.461034 73.3962725,158.533003 C73.3620086,159.005355 73.3228499,159.472812 73.2861386,159.945164 L40.5599895,159.945164 C39.8071635,146.831894 39.2026511,135.830747 38.9816491,131.753348 C38.9204637,130.654457 38.8884025,130.057286 38.8884025,130.057286 L60.6476683,131.403367 C60.6501157,131.403367 60.6525631,131.403367 60.6525631,131.403367 L65.5522954,131.709294 L75.474131,132.323596 L75.4765784,132.323596"/>
            <path fill="#233862" d="M75.924456,126.677401 C75.924456,126.677401 75.8999818,126.990671 75.8534809,127.575604 C75.7800583,128.515413 75.6478977,130.155183 75.474131,132.323596 L75.474131,132.34807 C75.4716836,132.35786 75.4716836,132.36765 75.4716836,132.374992 C75.4667887,132.436177 75.4594465,132.49981 75.456999,132.560996 C75.4521042,132.619734 75.444762,132.680919 75.4423145,132.742105 C75.4374197,132.800843 75.4349723,132.859581 75.42763,132.918319 C75.4202878,133.028453 75.4104981,133.143481 75.4007084,133.256063 C75.3468652,133.921761 75.2905746,134.631512 75.2342839,135.377975 C75.2244943,135.483214 75.2147046,135.588453 75.2073623,135.691244 C75.1755459,136.092621 75.1437295,136.503787 75.1094656,136.924743 C75.0972285,137.069141 75.0849914,137.215986 75.0752017,137.360384 C75.0727543,137.394648 75.0703069,137.426464 75.0678595,137.463175 C75.0580698,137.578204 75.0482801,137.69568 75.0384904,137.813156 C75.0287008,137.920843 75.0213585,138.030977 75.0115688,138.143558 C75.0042266,138.246349 74.9944369,138.354036 74.9895421,138.46417 C74.947936,138.934074 74.9112247,139.413768 74.872066,139.900805 C74.8671711,139.976675 74.8622763,140.050097 74.854934,140.125967 C74.8500392,140.206732 74.8402495,140.287497 74.8353547,140.368262 C74.8231176,140.537133 74.8084331,140.706005 74.7937486,140.877325 C74.6762725,142.394724 74.5465593,144.000231 74.4168461,145.662028 C74.3923719,145.941034 74.3727925,146.22004 74.3507658,146.499045 C74.3165019,146.878395 74.2895803,147.257745 74.2602113,147.639543 C74.2039207,148.32482 74.1500774,149.029676 74.0913394,149.749218 C74.042391,150.397784 73.9885478,151.056139 73.937152,151.714495 C73.8955459,152.243137 73.8514924,152.776675 73.8123337,153.310212 C73.756043,153.978357 73.7046472,154.653845 73.650804,155.33178 C73.5675918,156.391512 73.4843795,157.461034 73.3962725,158.533003 C73.3620086,159.005355 73.3228499,159.472812 73.2861386,159.945164 L40.5599895,159.945164 C39.8071635,146.831894 39.2026511,135.830747 38.9816491,131.753348 C38.9204637,130.654457 38.8884025,130.057286 38.8884025,130.057286 L67.2483566,127.470365 L75.924456,126.677401"/>
            <path fill="#2B478B" d="M67.5640736,126.677401 C67.5640736,126.677401 67.4539398,126.953959 67.2483566,127.470365 C66.9962725,128.096904 66.6022381,129.080766 66.0882801,130.363214 C65.9218556,130.781722 65.7431941,131.2296 65.5522954,131.709294 C63.1440354,137.744629 58.8732897,148.488797 54.4084637,159.945164 L20.9879818,159.945164 C22.1681272,148.660116 23.9124025,136.973692 27.1914541,128.598625 C29.9499398,121.552506 33.7928767,116.848567 39.3071558,116.69438 C60.9070947,116.089868 67.5640736,126.677401 67.5640736,126.677401"/>
            <path fill="#FFB27D" d="M58.2697562,50.3279709 C55.0934962,52.0010264 51.9935956,52.1055311 49.3060851,51.5347931 C46.847653,51.0176535 44.7367543,49.932468 43.233305,48.9716114 C41.6904522,47.9855464 40.7834388,47.1262577 40.7834388,47.1262577 C40.7834388,47.1262577 40.8906358,46.9710914 41.0715,46.6658982 C42.0095956,45.0606363 44.8554541,39.2901124 43.5894044,30.018556 C43.5725172,29.8969193 44.4907887,30.0694623 45.8784751,30.3971717 C50.0070258,31.3749155 58.3064675,33.7288428 58.6738251,33.8333476 C58.682391,33.8333476 58.6880201,33.8333476 58.6880201,33.8333476 C58.6880201,33.8333476 58.7898327,35.7832061 59.1317371,39.2788543 C59.1598824,39.5869843 59.1912094,39.9090646 59.2249838,40.242403 C59.2673241,40.6523457 59.3096644,41.0874967 59.3605708,41.5339059 C59.7445708,45.168078 58.2697562,50.3279709 58.2697562,50.3279709"/>
            <path fill="#ED975D" d="M59.1317371,39.2788543 C52.9684025,40.6917491 43.7702686,31.592491 43.7702686,31.592491 C44.4428193,31.0924833 45.1493891,30.6967357 45.8784751,30.3971717 C50.0070258,31.3749155 58.3064675,33.7288428 58.6738251,33.8333476 C58.682391,33.8333476 58.6880201,33.8333476 58.6880201,33.8333476 C58.6880201,33.8333476 58.7898327,35.7832061 59.1317371,39.2788543"/>
            <path fill="#FFB27D" d="M61.2252591,33.3406822 C61.2252591,33.3406822 58.6914465,34.2503877 55.4603642,34.6848046 C50.7353776,35.3226019 44.5223604,34.9464336 42.570544,29.2297529 C39.2829264,19.6072367 35.0834006,13.8379365 44.7578021,9.90885045 C49.9367849,7.80529404 53.2501004,7.69369175 55.5002572,8.49644509 C57.4555,9.1890646 58.6082342,10.5733246 59.4802495,11.9424107 C61.3598671,14.8876344 65.1386816,31.6563686 61.2252591,33.3406822"/>
            <path fill="#A9453D" d="M67.0966166,12.7023342 C61.4944751,16.7285828 53.7449685,12.7703724 51.3364637,13.8418524 C48.9304063,14.9106401 48.4981922,18.9466784 48.4548729,20.2274126 C48.4115535,21.5110837 48.2426816,22.5928428 44.9753776,21.8250875 C44.4398824,21.6997797 44.0539245,21.7367357 43.7886243,21.8960627 C42.4332438,22.7002845 44.1655268,26.5980436 44.6878059,27.4416688 C44.6878059,27.4416688 45.439653,30.2336841 43.7712476,31.5932252 C43.5693356,31.7554891 40.2917524,33.188208 32.3931979,21.1006516 C31.1518671,19.2034126 29.9663375,14.9289958 31.8838901,10.8136612 C33.7987505,6.6980818 41.8040124,2.72029213 48.5916836,0.612085629 C51.1357753,-0.178430623 53.0217562,-0.14930634 54.4970602,0.391817943 C56.9581845,1.29124433 58.2704904,3.6172711 59.5732514,5.95333228 C61.756349,9.87825771 67.0966166,12.7023342 67.0966166,12.7023342"/>
            <path fill="#B0D0FF" d="M78.7316453,117.954801 C78.2813203,123.892239 77.0282419,128.143405 74.2797906,128.143405 C74.2797906,128.143405 62.054934,132.445967 47.4448231,132.561499 C44.5894197,132.580575 40.545305,132.025011 37.1913623,131.464552 C33.7659551,130.882067 31.0534809,130.297133 31.0534809,130.297133 C28.1163337,129.621646 24.8749723,127.805661 25.3093891,124.457592 C25.5548652,122.560843 25.7261845,120.08895 25.8436606,117.220575 C26.1657409,109.45981 26.1121425,98.7694852 26.1530143,88.5368275 C26.1811597,82.2518562 26.2425899,76.1406516 26.4520889,70.9888352 C26.4520889,70.9888352 23.5685402,50.7410952 26.7717218,47.4206822 C30.5219015,43.5349155 41.5372438,42.3410646 42.2274159,42.4893782 C42.4344675,42.4458141 42.6415191,42.3946631 42.8537103,42.3589308 C42.8537103,42.3589308 52.2356453,47.6453552 59.2041807,43.7316879 C59.2041807,43.7316879 59.2707505,43.7446592 59.4009532,43.7622807 C61.0979933,44.0307625 69.570957,45.9889422 72.4956224,49.0822348 C73.5039589,50.1456382 77.5324101,56.6812252 77.642544,63.8595044 C77.7967314,73.8669996 77.4051444,85.2352596 77.4051444,85.237707 C77.5103834,86.8627931 77.6841501,88.9553361 77.8750488,91.3489116 C78.0806319,93.8966745 78.3057945,96.7772864 78.4966931,99.7778218 C78.5921425,101.290327 78.6802495,102.834648 78.7536721,104.378969 C78.9690449,109.144093 79.0375727,113.936139 78.7316453,117.954801"/>
            <path fill="#98BAF4" d="M42.2739168 42.5003916C42.2739168 42.5003916 52.6551329 53.208338 60.0774197 51.0142271 60.0774197 51.0142271 61.0661769 49.5680474 57.7232476 49.1045063 54.3805631 48.6409652 50.7725784 48.8306401 42.2739168 42.5003916M35.6932977 80.1323916C35.6932977 80.1323916 35.7138556 109.09025 25.8436606 117.220575 26.1657409 109.45981 26.1121425 98.7694852 26.1530143 88.5368275L35.6932977 80.1323916"/>
            <path fill="#FFB27D" d="M5.34995507,134.340269 C5.34995507,134.340269 0.324180693,142.230747 0.0424827965,145.250862 C-0.149150091,147.304246 0.3119436,155.39786 1.33643308,155.427229 C2.78334704,155.466388 4.23001626,150.432047 4.78998566,149.125126 C5.34995507,147.818204 6.00341587,146.790288 6.56338528,146.790288 C7.12335469,146.790288 5.34995507,151.831971 6.56338528,151.271512 C7.77681549,150.711053 9.83019981,146.046273 10.0169379,144.925355 C10.2036759,143.804437 8.92171798,140.216522 9.54727821,138.804361 C10.1728384,137.3922 5.34995507,134.340269 5.34995507,134.340269"/>
            <path fill="#B0D0FF" d="M27.7284178,46.3239939 C27.7284178,46.3239939 20.937565,49.5318256 15.2438901,73.2796191 C10.9513623,91.1824872 2.73660134,136.897822 2.73660134,136.897822 L9.68580211,139.756407 C9.68580211,139.756407 35.1347964,81.3291793 38.775087,73.1107472 C42.4151329,64.8947625 27.7284178,46.3239939 27.7284178,46.3239939"/>
          </g>
        </g>
        <g transform="translate(92 59.2)">
          <mask id="场景02-h" fill="#fff">
            <use xlink:href="#场景02-g"/>
          </mask>
          <g mask="url(#场景02-h)">
            <g transform="translate(-91.2 -50.4)">
              <path fill="#FFB27D" d="M134.553984,70.1729869 C134.553984,70.1729869 129.746416,77.7208814 129.476948,80.6098708 C129.293635,82.5741026 129.73471,90.3163133 130.714719,90.3444072 C132.098811,90.3818657 133.48267,85.566103 134.018327,84.3159244 C134.553984,83.0657459 135.179073,82.0824594 135.71473,82.0824594 C136.250388,82.0824594 134.553984,86.9052456 135.71473,86.3691203 C136.875477,85.832995 138.839709,81.3707472 139.018339,80.2984967 C139.196969,79.2262462 137.970671,75.794108 138.569071,74.4432597 C139.167471,73.0924113 134.553984,70.1729869 134.553984,70.1729869" transform="rotate(-126 134.236 80.259)"/>
              <path fill="#B0D0FF" d="M54.0178556,66.2800015 C57.9985822,71.6276114 62.6594465,75.8518562 67.4490449,79.1803457 C82.6719895,89.7703265 99.1822763,91.3489116 99.1822763,91.3489116 C103.139752,90.0811487 115.296081,88.7595426 122.479255,87.6019135 L122.481703,87.6019135 C125.611951,87.0977453 127.797496,86.6253935 127.944341,86.2044374 L127.76568,79.9488352 C127.76568,79.9488352 101.399638,78.5538065 97.0334426,76.5297912 C90.1488537,70.5972482 84.0670182,62.8976688 80.1046472,56.8794661 C76.7565784,51.7978906 73.0095803,48.0450187 66.8322954,45.8430761 C57.901175,42.6584948 41.6581463,49.6759786 54.0178556,66.2800015"/>
              <path fill="#98BAF4" d="M66.1054121,75.2448963 L67.4490449,79.1803457 C82.6719895,89.7703265 99.1822763,91.3489116 99.1822763,91.3489116 C102.361473,91.3489116 115.296081,88.7595426 122.479255,87.6019135 C122.195355,87.6239403 102.921932,89.1315503 98.6609761,88.6910149 C94.3706511,88.2455847 74.3923719,70.9325445 74.3923719,70.9325445 L66.1054121,75.2448963"/>
              <path fill="#2B478B" d="M75.4765784,132.323596 C75.4765784,132.323596 75.4765784,132.330938 75.474131,132.34807 C75.4716836,132.35786 75.4716836,132.36765 75.4716836,132.374992 C75.4667887,132.436177 75.4594465,132.49981 75.456999,132.560996 C75.4521042,132.619734 75.444762,132.680919 75.4423145,132.742105 C75.4374197,132.800843 75.4349723,132.859581 75.42763,132.918319 C75.4202878,133.028453 75.4104981,133.143481 75.4007084,133.256063 C75.3468652,133.921761 75.2905746,134.631512 75.2342839,135.377975 C75.2244943,135.483214 75.2147046,135.588453 75.2073623,135.691244 C75.1755459,136.092621 75.1437295,136.503787 75.1094656,136.924743 C75.0972285,137.069141 75.0849914,137.215986 75.0752017,137.360384 C75.0727543,137.394648 75.0703069,137.426464 75.0678595,137.463175 C75.0580698,137.578204 75.0482801,137.69568 75.0384904,137.813156 C75.0287008,137.920843 75.0213585,138.030977 75.0115688,138.143558 C75.0042266,138.246349 74.9944369,138.354036 74.9895421,138.46417 C74.947936,138.934074 74.9112247,139.413768 74.872066,139.900805 C74.8671711,139.976675 74.8622763,140.050097 74.854934,140.125967 C74.8500392,140.206732 74.8402495,140.287497 74.8353547,140.368262 C74.8231176,140.537133 74.8084331,140.706005 74.7937486,140.877325 C74.6762725,142.394724 74.5465593,144.000231 74.4168461,145.662028 C74.3923719,145.941034 74.3727925,146.22004 74.3507658,146.499045 C74.3165019,146.878395 74.2895803,147.257745 74.2602113,147.639543 C74.2039207,148.32482 74.1500774,149.029676 74.0913394,149.749218 C74.042391,150.397784 73.9885478,151.056139 73.937152,151.714495 C73.8930985,152.24069 73.8514924,152.77178 73.8123337,153.310212 C73.756043,153.978357 73.7046472,154.653845 73.650804,155.33178 C73.5675918,156.391512 73.4843795,157.461034 73.3962725,158.533003 C73.3620086,159.005355 73.3228499,159.472812 73.2861386,159.945164 L40.5599895,159.945164 C39.8071635,146.831894 39.2026511,135.830747 38.9816491,131.753348 C38.9204637,130.654457 38.8884025,130.057286 38.8884025,130.057286 L60.6476683,131.403367 C60.6501157,131.403367 60.6525631,131.403367 60.6525631,131.403367 L65.5522954,131.709294 L75.474131,132.323596 L75.4765784,132.323596"/>
              <path fill="#233862" d="M75.924456,126.677401 C75.924456,126.677401 75.8999818,126.990671 75.8534809,127.575604 C75.7800583,128.515413 75.6478977,130.155183 75.474131,132.323596 L75.474131,132.34807 C75.4716836,132.35786 75.4716836,132.36765 75.4716836,132.374992 C75.4667887,132.436177 75.4594465,132.49981 75.456999,132.560996 C75.4521042,132.619734 75.444762,132.680919 75.4423145,132.742105 C75.4374197,132.800843 75.4349723,132.859581 75.42763,132.918319 C75.4202878,133.028453 75.4104981,133.143481 75.4007084,133.256063 C75.3468652,133.921761 75.2905746,134.631512 75.2342839,135.377975 C75.2244943,135.483214 75.2147046,135.588453 75.2073623,135.691244 C75.1755459,136.092621 75.1437295,136.503787 75.1094656,136.924743 C75.0972285,137.069141 75.0849914,137.215986 75.0752017,137.360384 C75.0727543,137.394648 75.0703069,137.426464 75.0678595,137.463175 C75.0580698,137.578204 75.0482801,137.69568 75.0384904,137.813156 C75.0287008,137.920843 75.0213585,138.030977 75.0115688,138.143558 C75.0042266,138.246349 74.9944369,138.354036 74.9895421,138.46417 C74.947936,138.934074 74.9112247,139.413768 74.872066,139.900805 C74.8671711,139.976675 74.8622763,140.050097 74.854934,140.125967 C74.8500392,140.206732 74.8402495,140.287497 74.8353547,140.368262 C74.8231176,140.537133 74.8084331,140.706005 74.7937486,140.877325 C74.6762725,142.394724 74.5465593,144.000231 74.4168461,145.662028 C74.3923719,145.941034 74.3727925,146.22004 74.3507658,146.499045 C74.3165019,146.878395 74.2895803,147.257745 74.2602113,147.639543 C74.2039207,148.32482 74.1500774,149.029676 74.0913394,149.749218 C74.042391,150.397784 73.9885478,151.056139 73.937152,151.714495 C73.8955459,152.243137 73.8514924,152.776675 73.8123337,153.310212 C73.756043,153.978357 73.7046472,154.653845 73.650804,155.33178 C73.5675918,156.391512 73.4843795,157.461034 73.3962725,158.533003 C73.3620086,159.005355 73.3228499,159.472812 73.2861386,159.945164 L40.5599895,159.945164 C39.8071635,146.831894 39.2026511,135.830747 38.9816491,131.753348 C38.9204637,130.654457 38.8884025,130.057286 38.8884025,130.057286 L67.2483566,127.470365 L75.924456,126.677401"/>
              <path fill="#2B478B" d="M67.5640736,126.677401 C67.5640736,126.677401 67.4539398,126.953959 67.2483566,127.470365 C66.9962725,128.096904 66.6022381,129.080766 66.0882801,130.363214 C65.9218556,130.781722 65.7431941,131.2296 65.5522954,131.709294 C63.1440354,137.744629 58.8732897,148.488797 54.4084637,159.945164 L20.9879818,159.945164 C22.1681272,148.660116 23.9124025,136.973692 27.1914541,128.598625 C29.9499398,121.552506 33.7928767,116.848567 39.3071558,116.69438 C60.9070947,116.089868 67.5640736,126.677401 67.5640736,126.677401"/>
              <path fill="#FFB27D" d="M58.2697562,50.3279709 C55.0934962,52.0010264 51.9935956,52.1055311 49.3060851,51.5347931 C46.847653,51.0176535 44.7367543,49.932468 43.233305,48.9716114 C41.6904522,47.9855464 40.7834388,47.1262577 40.7834388,47.1262577 C40.7834388,47.1262577 40.8906358,46.9710914 41.0715,46.6658982 C42.0095956,45.0606363 44.8554541,39.2901124 43.5894044,30.018556 C43.5725172,29.8969193 44.4907887,30.0694623 45.8784751,30.3971717 C50.0070258,31.3749155 58.3064675,33.7288428 58.6738251,33.8333476 C58.682391,33.8333476 58.6880201,33.8333476 58.6880201,33.8333476 C58.6880201,33.8333476 58.7898327,35.7832061 59.1317371,39.2788543 C59.1598824,39.5869843 59.1912094,39.9090646 59.2249838,40.242403 C59.2673241,40.6523457 59.3096644,41.0874967 59.3605708,41.5339059 C59.7445708,45.168078 58.2697562,50.3279709 58.2697562,50.3279709"/>
              <path fill="#ED975D" d="M59.1317371,39.2788543 C52.9684025,40.6917491 43.7702686,31.592491 43.7702686,31.592491 C44.4428193,31.0924833 45.1493891,30.6967357 45.8784751,30.3971717 C50.0070258,31.3749155 58.3064675,33.7288428 58.6738251,33.8333476 C58.682391,33.8333476 58.6880201,33.8333476 58.6880201,33.8333476 C58.6880201,33.8333476 58.7898327,35.7832061 59.1317371,39.2788543"/>
              <path fill="#FFB27D" d="M61.2252591,33.3406822 C61.2252591,33.3406822 58.6914465,34.2503877 55.4603642,34.6848046 C50.7353776,35.3226019 44.5223604,34.9464336 42.570544,29.2297529 C39.2829264,19.6072367 35.0834006,13.8379365 44.7578021,9.90885045 C49.9367849,7.80529404 53.2501004,7.69369175 55.5002572,8.49644509 C57.4555,9.1890646 58.6082342,10.5733246 59.4802495,11.9424107 C61.3598671,14.8876344 65.1386816,31.6563686 61.2252591,33.3406822"/>
              <path fill="#A9453D" d="M67.0966166,12.7023342 C61.4944751,16.7285828 53.7449685,12.7703724 51.3364637,13.8418524 C48.9304063,14.9106401 48.4981922,18.9466784 48.4548729,20.2274126 C48.4115535,21.5110837 48.2426816,22.5928428 44.9753776,21.8250875 C44.4398824,21.6997797 44.0539245,21.7367357 43.7886243,21.8960627 C42.4332438,22.7002845 44.1655268,26.5980436 44.6878059,27.4416688 C44.6878059,27.4416688 45.439653,30.2336841 43.7712476,31.5932252 C43.5693356,31.7554891 40.2917524,33.188208 32.3931979,21.1006516 C31.1518671,19.2034126 29.9663375,14.9289958 31.8838901,10.8136612 C33.7987505,6.6980818 41.8040124,2.72029213 48.5916836,0.612085629 C51.1357753,-0.178430623 53.0217562,-0.14930634 54.4970602,0.391817943 C56.9581845,1.29124433 58.2704904,3.6172711 59.5732514,5.95333228 C61.756349,9.87825771 67.0966166,12.7023342 67.0966166,12.7023342"/>
              <path fill="#B0D0FF" d="M78.7316453,117.954801 C78.2813203,123.892239 77.0282419,128.143405 74.2797906,128.143405 C74.2797906,128.143405 62.054934,132.445967 47.4448231,132.561499 C44.5894197,132.580575 40.545305,132.025011 37.1913623,131.464552 C33.7659551,130.882067 31.0534809,130.297133 31.0534809,130.297133 C28.1163337,129.621646 24.8749723,127.805661 25.3093891,124.457592 C25.5548652,122.560843 25.7261845,120.08895 25.8436606,117.220575 C26.1657409,109.45981 26.1121425,98.7694852 26.1530143,88.5368275 C26.1811597,82.2518562 26.2425899,76.1406516 26.4520889,70.9888352 C26.4520889,70.9888352 23.5685402,50.7410952 26.7717218,47.4206822 C30.5219015,43.5349155 41.5372438,42.3410646 42.2274159,42.4893782 C42.4344675,42.4458141 42.6415191,42.3946631 42.8537103,42.3589308 C42.8537103,42.3589308 52.2356453,47.6453552 59.2041807,43.7316879 C59.2041807,43.7316879 59.2707505,43.7446592 59.4009532,43.7622807 C61.0979933,44.0307625 69.570957,45.9889422 72.4956224,49.0822348 C73.5039589,50.1456382 77.5324101,56.6812252 77.642544,63.8595044 C77.7967314,73.8669996 77.4051444,85.2352596 77.4051444,85.237707 C77.5103834,86.8627931 77.6841501,88.9553361 77.8750488,91.3489116 C78.0806319,93.8966745 78.3057945,96.7772864 78.4966931,99.7778218 C78.5921425,101.290327 78.6802495,102.834648 78.7536721,104.378969 C78.9690449,109.144093 79.0375727,113.936139 78.7316453,117.954801"/>
              <path fill="#98BAF4" d="M42.2739168 42.5003916C42.2739168 42.5003916 52.6551329 53.208338 60.0774197 51.0142271 60.0774197 51.0142271 61.0661769 49.5680474 57.7232476 49.1045063 54.3805631 48.6409652 50.7725784 48.8306401 42.2739168 42.5003916M35.6932977 80.1323916C35.6932977 80.1323916 35.7138556 109.09025 25.8436606 117.220575 26.1657409 109.45981 26.1121425 98.7694852 26.1530143 88.5368275L35.6932977 80.1323916"/>
              <path fill="#FFB27D" d="M5.34995507,134.340269 C5.34995507,134.340269 0.324180693,142.230747 0.0424827965,145.250862 C-0.149150091,147.304246 0.3119436,155.39786 1.33643308,155.427229 C2.78334704,155.466388 4.23001626,150.432047 4.78998566,149.125126 C5.34995507,147.818204 6.00341587,146.790288 6.56338528,146.790288 C7.12335469,146.790288 5.34995507,151.831971 6.56338528,151.271512 C7.77681549,150.711053 9.83019981,146.046273 10.0169379,144.925355 C10.2036759,143.804437 8.92171798,140.216522 9.54727821,138.804361 C10.1728384,137.3922 5.34995507,134.340269 5.34995507,134.340269"/>
              <path fill="#B0D0FF" d="M27.7284178,46.3239939 C27.7284178,46.3239939 20.937565,49.5318256 15.2438901,73.2796191 C10.9513623,91.1824872 2.73660134,136.897822 2.73660134,136.897822 L9.68580211,139.756407 C9.68580211,139.756407 35.1347964,81.3291793 38.775087,73.1107472 C42.4151329,64.8947625 27.7284178,46.3239939 27.7284178,46.3239939"/>
            </g>
          </g>
        </g>
      </g>
    </g>
  </g>
</svg>
