<svg xmlns="http://www.w3.org/2000/svg" xmlns:xlink="http://www.w3.org/1999/xlink" width="570" height="320" viewBox="0 0 570 320">
  <defs>
    <linearGradient id="场景01-a" x1="50%" x2="50%" y1="0%" y2="71.646%">
      <stop offset="0%" stop-color="#00AAE7"/>
      <stop offset="100%" stop-color="#00AAE7" stop-opacity="0"/>
    </linearGradient>
    <rect id="场景01-b" width="300" height="160" x="0" y="0" rx="8"/>
    <filter id="场景01-c" width="124%" height="145%" x="-12%" y="-20%" filterUnits="objectBoundingBox">
      <feMorphology in="SourceAlpha" operator="dilate" radius="4" result="shadowSpreadOuter1"/>
      <feOffset dy="4" in="shadowSpreadOuter1" result="shadowOffsetOuter1"/>
      <feGaussianBlur in="shadowOffsetOuter1" result="shadowBlurOuter1" stdDeviation="10"/>
      <feComposite in="shadowBlurOuter1" in2="SourceAlpha" operator="out" result="shadowBlurOuter1"/>
      <feColorMatrix in="shadowBlurOuter1" values="0 0 0 0 0   0 0 0 0 0   0 0 0 0 0  0 0 0 0.08 0"/>
    </filter>
    <linearGradient id="场景01-e" x1="50%" x2="50%" y1="0%" y2="100%">
      <stop offset="0%" stop-color="#00D5F5"/>
      <stop offset="100%" stop-color="#00AAE7"/>
    </linearGradient>
    <rect id="场景01-g" width="300" height="25" x="0" y="0" rx="12.5"/>
    <filter id="场景01-f" width="124%" height="388%" x="-12%" y="-128%" filterUnits="objectBoundingBox">
      <feMorphology in="SourceAlpha" operator="dilate" radius="4" result="shadowSpreadOuter1"/>
      <feOffset dy="4" in="shadowSpreadOuter1" result="shadowOffsetOuter1"/>
      <feGaussianBlur in="shadowOffsetOuter1" result="shadowBlurOuter1" stdDeviation="10"/>
      <feComposite in="shadowBlurOuter1" in2="SourceAlpha" operator="out" result="shadowBlurOuter1"/>
      <feColorMatrix in="shadowBlurOuter1" values="0 0 0 0 0   0 0 0 0 0   0 0 0 0 0  0 0 0 0.08 0"/>
    </filter>
    <linearGradient id="场景01-h" x1="50%" x2="50%" y1="0%" y2="100%">
      <stop offset="0%" stop-color="#FDC031"/>
      <stop offset="100%" stop-color="#F99746"/>
    </linearGradient>
    <linearGradient id="场景01-i" x1="50%" x2="50%" y1="0%" y2="100%">
      <stop offset="0%" stop-color="#60EAFF"/>
      <stop offset="100%" stop-color="#57CEF8"/>
    </linearGradient>
  </defs>
  <g fill="none" fill-rule="evenodd">
    <path fill="#B1EAFF" d="M137.711,-1.59872116e-13 C143.439,-0.0179477947 148.093,4.62105221 148.093,10.3500522 L148.093,41.9450522 C148.093,47.6610522 143.46,52.2950522 137.743,52.2950522 L24.456,52.2950522 C18.738,52.2950522 14.105,47.6610522 14.105,41.9450522 L14.105,15.2490522 L0,0.431052205 L137.711,-1.59872116e-13 Z M71.467,36.3090522 L30.792,36.5090522 L30.804,39.6690522 L71.48,39.4680522 L71.467,36.3090522 Z M133.595,25.9020522 L30.794,26.3770522 L30.804,29.5360522 L133.605,29.0620522 L133.595,25.9020522 Z M133.595,15.5070522 L30.794,15.9820522 L30.804,19.1410522 L133.605,18.6670522 L133.595,15.5070522 Z" transform="translate(30 62)"/>
    <path fill="#B1EAFF" d="M137.711,0 C143.439,-0.0179477947 148.093,4.62105221 148.093,10.3500522 L148.093,41.9450522 C148.093,47.6610522 143.46,52.2950522 137.743,52.2950522 L24.456,52.2950522 C18.738,52.2950522 14.105,47.6610522 14.105,41.9450522 L14.105,15.2490522 L0,0.431052205 L137.711,0 Z M133.675,36 L93,36.2 L93.012,39.36 L133.688,39.159 L133.675,36 Z M133.801,26 L31,26.475 L31.01,29.634 L133.811,29.16 L133.801,26 Z M133.595,15.5070522 L30.794,15.9820522 L30.804,19.1410522 L133.605,18.6670522 L133.595,15.5070522 Z" transform="matrix(-1 0 0 1 550 122)"/>
    <g opacity=".5" transform="translate(202)">
      <rect width="159.6" height="302.4" x="2.8" y="2.8" fill="#F2F7FF" stroke="url(#场景01-a)" stroke-width="5.6" rx="16.8"/>
      <path fill="#00AAE7" d="M133,6.29995969 L133,7.69995969 C133,15.0453469 127.045387,20.9999597 119.7,20.9999597 L46.9,20.9999597 C39.5546128,20.9999597 33.6,15.0453469 33.6,7.69995969 L33.6,6.29995969 C33.6,6.06523294 33.6060806,5.83192639 33.618093,5.60018898 L132.981907,5.60018898 C132.993919,5.83192639 133,6.06523294 133,6.29995969 Z"/>
    </g>
    <g transform="translate(135 80)">
      <mask id="场景01-d" fill="#fff">
        <use xlink:href="#场景01-b"/>
      </mask>
      <use fill="#000" filter="url(#场景01-c)" xlink:href="#场景01-b"/>
      <rect width="304" height="164" x="-2" y="-2" fill="#D8D8D8" stroke="#FFF" stroke-width="4" rx="8"/>
      <rect width="150" height="160" fill="#B1EAFF" mask="url(#场景01-d)"/>
      <g mask="url(#场景01-d)">
        <g transform="translate(14 41)">
          <path fill="#233862" d="M164.989554,174.537619 C158.201253,169.771602 113.282033,161.270209 90.3572416,158.810599 L65.0229797,136.81617 C65.0229797,136.81617 43.4547346,168.76046 43.2839574,193.197786 C43.2068238,204.590544 48.4547346,205.721463 48.4547346,205.724248 C48.4547346,205.724248 129.677576,206.328705 133.237464,206.693608 C139.064762,207.295279 146.749999,221.813385 148.672005,235.036226 C150.59401,248.259067 184.463091,302.039012 184.463091,302.039012 C184.463091,302.039012 191.527158,304.303636 194.791782,304.111435 C198.304317,303.905307 199.931058,302.727034 199.931058,302.727034 C199.931058,302.727034 180.304317,185.292494 164.989554,174.537619"/>
          <path fill="#2B478B" d="M143.797353,174.537619 C137.897632,170.395558 120.153899,167.183858 100.568941,164.802243 C95.153899,164.142076 90.705431,160.206143 89.3850967,154.913663 L43.8279937,136.81617 C43.8279937,136.81617 22.2625341,168.76046 22.0889713,193.197786 C22.0118377,204.590544 27.2597485,205.721463 27.2597485,205.724248 C27.2597485,205.724248 108.48259,206.328705 112.042478,206.693608 C117.869776,207.295279 125.557799,221.813385 127.477019,235.036226 C129.399024,248.259067 163.268105,302.039012 163.268105,302.039012 C163.268105,302.039012 170.332172,304.303636 173.596796,304.111435 C177.112116,303.905307 178.736072,302.727034 178.736072,302.727034 C178.736072,302.727034 159.109331,185.292494 143.797353,174.537619"/>
          <path fill="#233862" d="M82.8363502,4.10196429 C76.5745118,0.814499111 67.0508349,0.369930866 65.5020884,0.161852871 C46.9839825,-2.32672652 35.8391357,24.5824657 35.1817541,32.7359476 C33.975626,47.7649169 26.0257653,50.0562818 14.8335647,59.4685381 C-7.60459686,78.3409615 -1.02465257,100.270767 11.245821,108.420627 C18.6051524,113.309207 31.5828683,108.417842 31.5828683,108.417842 C31.7667123,108.545975 67.0703335,88.6833013 84.4714477,79.1011286 C110.560584,75.3924935 98.7889965,12.4791231 82.8363502,4.10196429"/>
          <path fill="#FFB27D" d="M78.9728405,69.8440256 C79.0564059,69.8858083 70.7444282,73.6649169 64.7472137,71.6830228 C59.1037597,69.8236913 54.1344004,61.3278696 54.2123948,61.3156133 C56.6636483,60.9604601 59.1511134,58.5443041 59.8474923,44.2267554 L60.9310577,44.4997359 L79.1678265,49.1089281 C79.1678265,49.1089281 78.4463781,54.8860869 78.1483279,60.3484824 C77.8976316,64.9345548 77.9505563,69.2994573 78.9728405,69.8440256"/>
          <path fill="#ED975D" d="M79.1678265,49.1089281 C79.1678265,49.1089281 79.1678265,50.297786 78.4853753,55.6724378 C68.1733976,53.0710451 63.6246511,49.6509894 60.4185229,45.7370618 L79.1678265,49.1089281"/>
          <path fill="#FFB27D" d="M83.0591914,49.8365047 C83.0591914,49.8365047 58.9421998,53.7626885 56.7305006,38.7072568 C54.516016,23.6521036 49.9115591,14.0192345 65.2151803,10.8757804 C80.5188015,7.73260496 84.3628126,13.0365047 86.3238154,17.8819086 C88.2848182,22.7273125 89.2736761,48.4270339 83.0591914,49.8365047"/>
          <path fill="#233862" d="M83.0814756,10.2451398 C83.0814756,10.2451398 72.1316148,27.5320479 62.3544561,31.6261983 C52.5772973,35.7203487 47.7750689,33.6417972 47.7750689,33.6417972 C47.7750689,33.6417972 52.2235368,26.8980646 53.3823112,17.8431899 C53.7221441,15.1741091 55.4630912,12.8855298 57.9589129,11.8852512 C64.975626,9.0755019 78.5466566,4.64486123 83.0814756,10.2451398"/>
          <path fill="#B0D0FF" d="M98.2653196,106.624527 C97.5355146,155.643468 98.0647625,145.398343 92.7026455,150.050154 C91.4101664,151.169931 87.7806399,151.838455 82.9979101,152.153218 C67.9672694,153.150432 41.5466566,150.676895 40.5410856,147.89695 C37.073119,138.286923 39.521587,135.30085 36.6302221,120.584973 C36.3266009,119.019513 35.9533419,117.32592 35.516016,115.481909 C33.1037597,105.375502 30.7583558,101.93734 39.3126733,85.7005715 C47.073119,70.9930506 56.1984672,59.0454183 56.9227012,59.476059 C77.3934533,71.6281481 78.0954031,61.4417972 78.0954031,61.4417972 C78.0954031,61.4417972 98.6246511,82.7147777 98.2653196,106.624527"/>
          <path fill="#B0D0FF" d="M78.0954031,61.4417972 C78.0954031,61.4417972 99.0480494,64.9933292 101.521587,74.0626885 C103.995125,83.1320479 118.549442,136.448482 118.549442,136.448482 C118.549442,136.448482 107.841921,138.373273 102.894846,133.426198 C97.9477708,128.479123 85.6803614,87.5292623 85.6803614,87.5292623 L78.0954031,61.4417972"/>
          <path fill="#B1EAFF" d="M82.9979101,152.153218 C67.9672694,153.150432 41.5466566,150.676895 40.5410856,147.89695 C37.073119,138.286923 39.521587,135.30085 36.6302221,120.584973 L43.8781329,100.171602 C43.8781329,100.171602 42.6803614,122.905307 49.3850967,128.883023 C56.0814756,134.863524 76.8335647,140.426198 80.0926176,145.420627 C81.6636483,147.818956 82.6970745,150.222856 82.9979101,152.153218"/>
          <path fill="#B0D0FF" d="M56.9227012,59.476059 C56.9227012,59.476059 35.9366288,60.7025214 29.0424784,70.3161704 C19.3405285,83.8487609 0.0926176275,141.523691 11.1235368,149.214499 C23.5466566,157.877452 67.6636483,151.479123 67.6636483,151.479123 C67.6636483,151.479123 69.1316148,144.618399 67.0870466,141.298065 C65.0452639,137.980516 31.8530633,132.618399 30.3210299,131.086365 C28.7889965,129.554332 49.4686622,101.211714 49.4686622,96.6156133 C49.4686622,92.019513 56.9227012,59.476059 56.9227012,59.476059"/>
          <path fill="#FFB27D" d="M65.7778544,142.593329 C65.7778544,142.593329 80.6051524,139.292494 82.9979101,140.607257 C85.3906678,141.92202 91.2402499,146.715892 91.970055,148.384416 C92.7026455,150.050154 86.6441497,147.117006 84.6747903,146.587758 C83.3962388,146.24514 80.0369073,147.415056 78.3739547,147.969374 C71.3767402,150.30085 67.0870466,149.100293 67.0870466,149.100293 L65.7778544,142.593329"/>
          <path fill="#233862" d="M73.4630912,11.9161704 C73.4630912,11.9161704 79.8809185,15.2069782 82.5243725,18.2911008 C85.0759045,21.2674239 88.0229797,29.3431899 87.8112806,32.9699309 C87.8112806,32.9699309 90.9784115,15.5891509 84.3823112,9.61449911 C77.3878823,3.27912307 73.4630912,11.9161704 73.4630912,11.9161704"/>
          <path fill="#FFB27D" d="M82.9979101 140.607257L92.0313363 144.994443C92.0313363 144.994443 91.6469352 145.62397 90.5355146 145.571045 89.424094 145.520906 86.61908 144.495836 86.61908 144.495836L82.9979101 140.607257M83.7165731 144.73539C83.7165731 144.73539 86.8224226 148.740962 87.8419212 149.22007 88.8614199 149.699179 89.5188015 149.579402 89.5188015 149.579402L87.424094 145.810599 83.7165731 144.73539"/>
        </g>
      </g>
      <rect width="150" height="160" x="150" fill="#FFCAB2" mask="url(#场景01-d)"/>
      <g mask="url(#场景01-d)">
        <g transform="matrix(-1 0 0 1 297 39)">
          <path fill="#FFB27D" d="M105.195673,165.897377 C126.280653,160.530438 149.458408,127.818193 149.458408,127.818193 L143.521347,122.667989 C137.374531,129.915744 111.817837,142.398193 111.817837,142.398193 C111.954857,135.763907 111.781102,129.717377 111.362327,124.210846 C108.526776,86.7928868 94.4210204,74.3251317 90.5704898,71.5920705 C89.9493061,71.1475807 89.5929796,70.9602338 89.5929796,70.9602338 C89.5929796,70.9602338 89.5782857,71.2320705 89.5562449,71.7500297 C89.5004082,72.8594174 89.3979184,75.1002338 89.2935918,78.1749276 C88.5111429,101.075336 87.5766122,170.382683 105.195673,165.897377"/>
          <path fill="#233862" d="M73.0043265,29.3365195 C73.0043265,29.3365195 61.6665306,38.9911317 72.062449,50.1022746 C72.062449,50.1022746 63.3989388,50.9545195 60.4667755,48.555744 C60.4667755,48.555744 61.0446122,49.7239072 61.5776327,50.2492133 C61.5776327,50.2492133 51.8925306,50.5981929 47.8939592,47.5786011 C43.8957551,44.5553358 46.4646122,-4.99829686 73.3466939,0.541662323 C73.3466939,0.541662323 96.1321224,-1.17825604 94.0092245,25.1858664 C91.8863265,51.5496215 100.489224,51.5496215 100.489224,51.5496215 C100.489224,51.5496215 98.0963265,52.7288052 96.9413878,52.7288052 C96.9413878,52.7288052 95.2530612,52.085948 94.9198776,51.1528868 C94.9198776,51.1528868 95.2530612,52.6186011 95.6861633,53.0851317 C95.6861633,53.0851317 86.4,53.9667644 81.7637143,50.4586011 C77.1270612,46.9541113 71.6811429,34.7758256 73.0043265,29.3365195"/>
          <path fill="#FFB27D" d="M107.156571,87.1492133 L45.034898,87.1492133 C49.4786939,76.0149276 55.8448163,67.9626827 60.676898,66.9745195 C63.2516327,66.2949276 67.624898,56.9826827 67.572,41.9813358 L68.7302449,42.2105603 L88.2400408,46.0724786 C88.2400408,46.0724786 87.7992245,52.2145195 87.7815918,58.0002338 C87.7698367,62.8198256 88.028449,67.7239072 89.1216735,68.2969684 C90.5267755,68.4218664 91.8022041,68.6790093 91.8022041,68.6790093 C91.8022041,68.6790093 102.389143,76.1104378 107.156571,87.1492133"/>
          <path fill="#E8945B" d="M88.2404082,46.0724786 C88.2404082,46.0724786 87.7962857,52.2145195 87.7834286,57.9965603 C76.8662449,57.6879889 71.0955918,47.7292133 68.7309796,42.2101929 L88.2404082,46.0724786"/>
          <path fill="#233862" d="M66.7160816,40.0861929 C66.7160816,40.0861929 60.9946531,31.0461521 59.6215102,23.3164378 C58.6414286,17.7981521 61.452,-2.65756217 82.008,0.288560282 C82.008,0.288560282 87.9781224,0.876682731 93.5897143,4.66696844 C98.0529796,7.68141742 104.494041,14.1889684 97.2922041,32.0390909 L95.4213061,38.0687235 L66.7160816,40.0861929"/>
          <path fill="#FFB27D" d="M91.8863265,51.5496215 C91.8863265,51.5496215 66.0563265,51.975744 66.0383265,35.8866827 C66.0206939,19.7968868 62.674898,9.01562151 79.1662041,8.06345824 C95.6571429,7.11092763 98.8681224,13.2470909 100.180286,18.6162338 C101.492449,23.9850093 98.6047347,51.0243154 91.8863265,51.5496215"/>
          <path fill="#233862" d="M90.9301224,7.66929498 C90.9301224,7.66929498 83.8579592,26.5454174 73.0043265,29.3365195 C62.1510612,32.1276215 57.4431429,29.2197031 57.4431429,29.2197031 C57.4431429,29.2197031 65.7683265,22.6059889 67.4959592,11.0613766 C67.4959592,11.0613766 85.5955102,-1.31490911 90.9301224,7.66929498"/>
          <path fill="#233862" d="M89.1775102,9.2018664 C89.1775102,9.2018664 94.4592245,13.4160705 95.7467755,17.5134582 C97.0343265,21.6104786 97.6136327,30.0447644 100.071918,29.7582338 C100.071918,29.7582338 105.399918,16.9279072 99.4121633,9.6698664 C93.0625714,1.97394804 89.1775102,9.2018664 89.1775102,9.2018664"/>
          <path fill="#FFB27D" d="M61.9817143,66.493295 L53.5610204,102.959826 C53.5610204,102.959826 49.210898,118.289213 45.127102,133.240234 C45.1226939,133.243907 45.1226939,133.247581 45.1226939,133.254928 C44.4901224,135.558193 43.8704082,137.850438 43.2683265,140.080234 C41.0998776,148.143499 39.2414694,155.339826 38.4821633,158.936152 C37.4741633,163.711662 32.1208163,174.357377 26.3655918,184.907581 C22.5088163,191.982683 18.4727755,199.006356 15.4447347,204.185948 L5.04771429,204.185948 C7.30322449,197.753703 9.59840816,189.965948 11.6665714,182.692479 C14.6332653,172.267173 17.1202041,162.903499 18.3247347,160.096968 C19.1578776,158.153703 20.7591429,148.977377 22.8533878,137.159826 C26.6098776,115.949213 31.9591837,86.2198256 37.3169388,74.4390093 C37.9627347,73.0247235 39.8038776,71.8271725 42.2169796,70.8169684 C48.6132245,68.1426827 58.9841633,66.8349276 61.4450204,66.555744 L61.4494286,66.555744 C61.794,66.5116623 61.9817143,66.493295 61.9817143,66.493295"/>
          <path fill="#233862" d="M90.1586939,9.83921334 C90.1586939,9.83921334 85.1197959,29.6065195 71.425102,35.9370093 C71.425102,35.9370093 85.1197959,23.7925195 86.2828163,10.7436215 C87.4454694,-2.30527645 90.1586939,9.83921334 90.1586939,9.83921334"/>
          <path fill="#F99746" d="M88.4986531,120.989213 C89.5915102,147.684315 93.5845714,174.114928 105.206327,172.414111 C119.451673,170.334928 123.162245,157.040642 123.91898,147.155336 C124.388449,141.002275 123.711429,136.171662 123.711429,136.171662 C123.711429,136.171662 116.700612,136.142275 115.565143,135.095336 C110.180571,130.121458 111.78,81.3414582 109.114531,76.275744 C106.448694,71.2137031 89.1543673,67.9590093 89.1543673,67.9590093 C89.1543673,67.9590093 87.4109388,94.6063562 88.4986531,120.989213"/>
          <path fill="#F99746" d="M114.709959,204.185948 L31.9242857,204.185948 C32.1336735,203.363091 32.3390204,202.584315 32.5351837,201.842275 C35.9077959,189.227581 47.2037143,161.636152 49.6256327,155.762275 C49.7387755,155.490438 49.8306122,155.27003 49.9004082,155.093703 C49.9613878,154.961458 50.005102,154.854928 50.0355918,154.781458 C50.0704898,154.693295 50.0881224,154.649213 50.0881224,154.649213 C53.1771429,155.81003 56.3183265,156.71003 59.4510612,157.385948 C61.0130204,157.720234 62.5749796,158.006764 64.1284898,158.241866 C75.1279592,159.913295 85.6689796,159.15656 93.1081224,158.087581 C93.889102,157.98105 94.6351837,157.859826 95.3419592,157.749622 C100.547265,156.893703 103.753837,155.986356 103.753837,155.986356 C103.753837,155.986356 103.771469,156.045132 103.801959,156.162683 C103.828408,156.269213 103.871755,156.419826 103.919878,156.621866 C104.242776,157.837785 105.032571,160.802275 106.310939,165.585132 C106.79951,167.403499 107.357878,169.482683 107.986408,171.833703 C109.05098,175.79003 110.320531,180.506764 111.803878,185.994928 C113.200163,191.163499 114.116327,197.547989 114.709959,204.185948"/>
          <path fill="#F99746" d="M0,170.639826 C0,177.347581 6.84,181.46554 14.1810612,183.471254 C21.2396327,185.399826 28.7566531,185.374111 31.1076735,183.801866 C35.1650204,181.083499 41.7754286,150.854519 43.7054694,141.652479 C44.0518776,139.984724 44.2495102,139.007581 44.2495102,139.007581 C44.2495102,139.007581 49.5220408,151.589213 49.6869796,152.764724 C49.761551,153.29003 49.8258367,154.017377 49.8735918,154.65656 C49.9272245,155.427989 49.9588163,156.070846 49.9588163,156.070846 C49.9588163,156.070846 78.5718367,170.511254 103.617918,157.246356 C103.617918,157.246356 113.800408,98.4010501 109.380857,88.273295 C107.18449,83.2406419 95.7276735,72.8520705 91.1428163,68.3741113 C90.1138776,67.3675807 90.2152653,65.3728868 90.6149388,63.550846 C90.945551,62.0116623 89.559551,60.6561521 88.0346939,61.0492133 C85.0863673,61.8169684 79.7818776,61.6847235 74.0990204,59.8186011 C71.2678776,58.8965603 68.3463673,57.5410501 65.5795102,55.6565603 C64.7746531,55.1055399 63.6814286,55.6124786 63.5587347,56.5786011 C63.127102,60.0867644 62.0662041,66.493295 60.1310204,66.493295 C57.465551,66.4786011 39.2752653,68.7120705 37.9425306,70.9602338 C37.4785714,71.7463562 32.7497143,82.4434991 26.7788571,96.6194174 C26.7788571,96.6194174 26.7733469,96.6304378 26.7682041,96.6561521 C15.5619184,123.248397 0,162.062275 0,170.639826"/>
          <path fill="#F58930" d="M44.2495102,139.007581 C44.2495102,139.007581 49.5220408,151.589213 49.6869796,152.764724 C49.761551,153.29003 49.8258367,154.017377 49.8735918,154.65656 C52.4218776,156.735744 55.503551,158.315336 58.6436327,159.266764 C67.5628163,161.970438 71.4386939,144.874111 70.9053061,136.344315 C70.3722857,127.814519 57.7583265,103.466764 53.5577143,102.959826 C49.3618776,102.45656 44.2495102,139.007581 44.2495102,139.007581"/>
          <path fill="#233862" d="M80.278898,163.733703 C96.5600816,163.733703 103.271143,158.131662 103.767796,157.749622 L104.82098,150.079417 C104.664857,150.196968 82.8183673,163.314928 49.0088571,150.751662 L49.725551,156.559417 C62.7274286,161.393703 71.8222041,163.733703 80.278898,163.733703"/>
          <path fill="#E58638" d="M43.7054694,141.652479 C44.0518776,139.984724 44.2495102,139.007581 44.2495102,139.007581 C43.9721633,139.911254 43.7906939,140.789213 43.7054694,141.652479"/>
        </g>
      </g>
      <path fill="url(#场景01-e)" fill-rule="nonzero" stroke="#FFF" stroke-linejoin="round" stroke-width="2" d="M138.986174,13.008 C142.204644,13.008 144.598475,13.7421171 146.207309,15.1024823 C147.870272,16.5086173 148.759076,18.5976545 148.759076,21.4260139 C148.759076,24.274691 147.868315,26.3824963 146.192615,27.8013842 C144.642898,29.1135965 142.366553,29.8489214 139.320156,29.9079203 L138.91843,29.9117721 L133.923048,29.9117721 L133.923048,39.1927575 L127.96,39.1927575 L127.96,13.008 L138.986174,13.008 Z M138.681324,18.3952209 L133.923048,18.3952209 L133.923048,24.5245512 L138.681324,24.5245512 L138.98924,24.5210059 C140.299163,24.4902054 141.291236,24.2577506 141.92963,23.7859017 C142.534581,23.3017951 142.762156,22.4857905 142.762156,21.4260139 C142.762156,20.3780599 142.510828,19.5951008 141.888181,19.1276886 C141.207079,18.5884826 140.110101,18.3952209 138.681324,18.3952209 L138.681324,18.3952209 Z M156.109346,13.008 L156.109346,22.9829718 L165.936321,13.008 L173.826969,13.008 L162.112556,24.423957 L175.180048,39.1927575 L167.146442,39.1927575 L157.989308,28.4444906 L156.109346,30.2812352 L156.109346,39.1927575 L150.146297,39.1927575 L150.146297,13.008 L156.109346,13.008 Z" mask="url(#场景01-d)"/>
    </g>
    <g transform="translate(135 262)">
      <use fill="#000" filter="url(#场景01-f)" xlink:href="#场景01-g"/>
      <rect width="304" height="29" x="-2" y="-2" fill="#D8D8D8" stroke="#FFF" stroke-width="4" rx="12.5"/>
      <rect width="300" height="25" fill="url(#场景01-h)" rx="12.5"/>
      <path fill="url(#场景01-i)" d="M190,0 L190,25 L12.5,25 C5.59644063,25 8.45442189e-16,19.4035594 0,12.5 C-8.45442189e-16,5.59644063 5.59644063,1.26816328e-15 12.5,0 L190,0 Z"/>
    </g>
  </g>
</svg>
