<?xml version="1.0" encoding="UTF-8"?>
<svg width="520px" height="350px" viewBox="0 0 520 350" version="1.1" xmlns="http://www.w3.org/2000/svg" xmlns:xlink="http://www.w3.org/1999/xlink">
    <title>插画</title>
    <defs>
        <filter x="-55.0%" y="-254.8%" width="210.0%" height="609.5%" filterUnits="objectBoundingBox" id="filter-1">
            <feGaussianBlur stdDeviation="50" in="SourceGraphic"></feGaussianBlur>
        </filter>
        <linearGradient x1="50%" y1="0%" x2="50%" y2="100%" id="linearGradient-2">
            <stop stop-color="#7AE9FF" stop-opacity="0" offset="0%"></stop>
            <stop stop-color="#44CFFF" offset="100%"></stop>
        </linearGradient>
        <linearGradient x1="50%" y1="0%" x2="50%" y2="100%" id="linearGradient-3">
            <stop stop-color="#7AE9FF" stop-opacity="0" offset="0%"></stop>
            <stop stop-color="#56D3FF" stop-opacity="0.500027316" offset="100%"></stop>
        </linearGradient>
        <path d="M88.7465517,75.6568966 C82.1206897,73.7637931 70.3061261,74.7467511 63.7931034,68.5275862 C59.4510883,64.3814763 59.4510883,58.8153843 63.7931034,51.8293103 C59.7310345,54.4534483 55.0603448,56.0344828 50,56.0344828 C44.9396552,56.0344828 40.2689655,54.4534483 36.2068966,51.8293103 C40.1823106,59.1651826 40.1823106,64.7312746 36.2068966,68.5275862 C30.2437755,74.2220537 17.8827586,73.7637931 11.2551724,75.6568966 C4.62758621,77.55 0,83.6844828 0,90.5758621 L0,104.310345 C0,105.262069 0.772413793,106.034483 1.72413793,106.034483 L98.2758621,106.034483 C99.2275862,106.034483 100,105.262069 100,104.310345 L100,90.5758621 C100,83.6844828 95.3724138,77.55 88.7465517,75.6568966 Z" id="path-4"></path>
        <filter x="-2.5%" y="-4.6%" width="105.0%" height="109.2%" filterUnits="objectBoundingBox" id="filter-5">
            <feGaussianBlur stdDeviation="1.5" in="SourceAlpha" result="shadowBlurInner1"></feGaussianBlur>
            <feOffset dx="0" dy="2" in="shadowBlurInner1" result="shadowOffsetInner1"></feOffset>
            <feComposite in="shadowOffsetInner1" in2="SourceAlpha" operator="arithmetic" k2="-1" k3="1" result="shadowInnerInner1"></feComposite>
            <feColorMatrix values="0 0 0 0 0.813948171   0 0 0 0 0.952792819   0 0 0 0 1  0 0 0 1 0" type="matrix" in="shadowInnerInner1"></feColorMatrix>
        </filter>
        <linearGradient x1="50%" y1="1.32495777%" x2="50%" y2="100%" id="linearGradient-6">
            <stop stop-color="#E7F9FF" offset="0%"></stop>
            <stop stop-color="#C8F0FF" offset="100%"></stop>
        </linearGradient>
        <path d="M50,0 C35.7396552,0 25.862069,10.7396552 25.862069,25 L25.862069,31.8965517 C25.862069,45.7327586 35.1982759,61.2068966 50,61.2068966 C64.8017241,61.2068966 74.137931,45.7327586 74.137931,31.8965517 L74.137931,25 C74.137931,10.7396552 64.2603448,0 50,0 Z" id="path-7"></path>
        <filter x="-14.5%" y="-8.2%" width="129.0%" height="122.9%" filterUnits="objectBoundingBox" id="filter-9">
            <feOffset dx="0" dy="2" in="SourceAlpha" result="shadowOffsetOuter1"></feOffset>
            <feGaussianBlur stdDeviation="2" in="shadowOffsetOuter1" result="shadowBlurOuter1"></feGaussianBlur>
            <feColorMatrix values="0 0 0 0 0.164705882   0 0 0 0 0.650980392   0 0 0 0 0.937254902  0 0 0 0.2 0" type="matrix" in="shadowBlurOuter1"></feColorMatrix>
        </filter>
        <filter x="-12.4%" y="-6.5%" width="124.9%" height="119.6%" filterUnits="objectBoundingBox" id="filter-10">
            <feGaussianBlur stdDeviation="1.5" in="SourceAlpha" result="shadowBlurInner1"></feGaussianBlur>
            <feOffset dx="0" dy="1" in="shadowBlurInner1" result="shadowOffsetInner1"></feOffset>
            <feComposite in="shadowOffsetInner1" in2="SourceAlpha" operator="arithmetic" k2="-1" k3="1" result="shadowInnerInner1"></feComposite>
            <feColorMatrix values="0 0 0 0 1   0 0 0 0 1   0 0 0 0 1  0 0 0 0.5 0" type="matrix" in="shadowInnerInner1"></feColorMatrix>
        </filter>
        <filter x="-35.3%" y="-17.4%" width="170.7%" height="134.8%" filterUnits="objectBoundingBox" id="filter-11">
            <feGaussianBlur stdDeviation="4" in="SourceGraphic"></feGaussianBlur>
        </filter>
        <linearGradient x1="50%" y1="0%" x2="50%" y2="100%" id="linearGradient-12">
            <stop stop-color="#00D4F5" stop-opacity="0" offset="0%"></stop>
            <stop stop-color="#00BCED" offset="48.7070261%"></stop>
            <stop stop-color="#00AAE7" stop-opacity="0" offset="100%"></stop>
        </linearGradient>
        <linearGradient x1="50%" y1="0%" x2="50%" y2="100%" id="linearGradient-13">
            <stop stop-color="#00D4F5" stop-opacity="0" offset="0%"></stop>
            <stop stop-color="#00BCED" offset="48.7070261%"></stop>
            <stop stop-color="#00AAE7" stop-opacity="0" offset="100%"></stop>
        </linearGradient>
    </defs>
    <g id="产品" stroke="none" stroke-width="1" fill="none" fill-rule="evenodd">
        <g id="智能视频-人脸核验" transform="translate(-1028.000000, -120.000000)">
            <g id="banner" transform="translate(0.000000, 120.000000)">
                <g id="编组-35">
                    <g id="插画" transform="translate(1128.000000, 26.000000)">
                        <g id="编组-22" transform="translate(7.000000, 33.000000)">
                            <g id="编组-27" transform="translate(0.000000, 146.000000)">
                                <ellipse id="椭圆形" fill="#00BDFF" filter="url(#filter-1)" cx="149.36" cy="49.12" rx="136.32" ry="29.44"></ellipse>
                                <ellipse id="椭圆形" fill="url(#linearGradient-2)" cx="150" cy="29.44" rx="150" ry="29.44"></ellipse>
                                <ellipse id="椭圆形" fill="url(#linearGradient-3)" cx="150" cy="53.44" rx="150" ry="29.44"></ellipse>
                            </g>
                            <g id="编组-29" transform="translate(65.000000, 0.000000)">
                                <g id="编组-12">
                                    <rect id="矩形" fill="#FFFFFF" opacity="0.200000003" x="0" y="0" width="170" height="170"></rect>
                                    <path d="M44,0 L44,8 L8,8 L8,44 L0,44 L0,0 L44,0 Z" id="形状结合" fill="#A0E6FF"></path>
                                    <path d="M170,0 L170,8 L134,8 L134,44 L126,44 L126,0 L170,0 Z" id="形状结合" fill="#A0E6FF" transform="translate(148.000000, 22.000000) scale(-1, 1) translate(-148.000000, -22.000000) "></path>
                                    <path d="M44,126 L44,134 L8,134 L8,170 L0,170 L0,126 L44,126 Z" id="形状结合" fill="#A0E6FF" transform="translate(22.000000, 148.000000) scale(1, -1) translate(-22.000000, -148.000000) "></path>
                                    <path d="M170,126 L170,134 L134,134 L134,170 L126,170 L126,126 L170,126 Z" id="形状结合" fill="#A0E6FF" transform="translate(148.000000, 148.000000) scale(-1, -1) translate(-148.000000, -148.000000) "></path>
                                </g>
                                <g id="single-05" transform="translate(35.000000, 26.000000)">
                                    <g id="路径" fill-rule="nonzero">
                                        <use fill="#BCEEFF" xlink:href="#path-4"></use>
                                        <use fill="black" fill-opacity="1" filter="url(#filter-5)" xlink:href="#path-4"></use>
                                    </g>
                                    <mask id="mask-8" fill="white">
                                        <use xlink:href="#path-7"></use>
                                    </mask>
                                    <g id="路径" fill-rule="nonzero">
                                        <use fill="black" fill-opacity="1" filter="url(#filter-9)" xlink:href="#path-7"></use>
                                        <use fill="url(#linearGradient-6)" xlink:href="#path-7"></use>
                                        <use fill="black" fill-opacity="1" filter="url(#filter-10)" xlink:href="#path-7"></use>
                                    </g>
                                    <path d="M51.1724138,-2.78946926 C63.1302378,3.21605746 69.1091498,13.6160307 69.1091498,28.4104504 C69.1091498,43.2048701 62.7394332,55.8084252 50,66.2211155 C74.0194506,56.7356883 85.2933186,44.1321333 83.8216038,28.4104504 C82.349889,12.6887676 71.4668257,2.28879436 51.1724138,-2.78946926 Z" id="路径-2" fill="#C2E8F5" filter="url(#filter-11)" mask="url(#mask-8)"></path>
                                </g>
                            </g>
                        </g>
                        <g id="编组-21" fill-rule="nonzero">
                            <path d="M4,100 L4,126 L4,126 L0,126 L0,96 C2.209139,96 4,97.790861 4,100 Z" id="路径" fill="url(#linearGradient-12)"></path>
                            <path d="M37,33 L37,60 L37,60 L34,60 L34,30 C35.6568542,30 37,31.3431458 37,33 Z" id="路径" fill="url(#linearGradient-13)"></path>
                            <path d="M285,37 L285,63 L285,63 L281,63 L281,33 C283.209139,33 285,34.790861 285,37 Z" id="路径" fill="url(#linearGradient-12)"></path>
                            <path d="M308,109 L308,135 L308,135 L304,135 L304,105 C306.209139,105 308,106.790861 308,109 Z" id="路径" fill="url(#linearGradient-12)"></path>
                            <path d="M238,4 L238,30 L238,30 L234,30 L234,0 C236.209139,-4.05812251e-16 238,1.790861 238,4 Z" id="路径" fill="url(#linearGradient-12)" opacity="0.400000006"></path>
                            <path d="M322,166 L322,193 L322,193 L319,193 L319,163 C320.656854,163 322,164.343146 322,166 Z" id="路径" fill="url(#linearGradient-13)" opacity="0.449999988"></path>
                        </g>
                    </g>
                </g>
            </g>
        </g>
    </g>
</svg>