<?xml version="1.0" encoding="UTF-8"?>
<svg width="24px" height="24px" viewBox="0 0 24 24" version="1.1" xmlns="http://www.w3.org/2000/svg" xmlns:xlink="http://www.w3.org/1999/xlink">
    <g id="首页" stroke="none" stroke-width="1" fill="none" fill-rule="evenodd" stroke-linecap="square">
        <g transform="translate(-1840.000000, -1498.000000)" id="编组-62" stroke="#00AAE7" stroke-width="2">
            <g transform="translate(1820.000000, 1486.000000)">
                <g id="编组-29" transform="translate(20.000000, 12.000000)">
                    <g id="man-23" transform="translate(1.000000, 1.000000)">
                        <path d="M20.4961789,16.6135624 C18.6531742,16.1435624 15.7025656,15.3935624 15.0932334,15.2455624 C14.2057495,15.0305624 13.5874124,14.5045624 13.3422788,13.6125624 C13.0471179,12.5365624 13.139168,11.6435624 14.0246508,10.9715624 C15.2243048,10.0595624 16.0017287,8.62256242 16.0017287,6.99956242 L16.0017287,5.21456242 C16.0017287,2.60356242 14.0916873,0.271562421 11.4902691,0.0235624214 C8.5066425,-0.261437579 5.9962739,2.07656242 5.9962739,4.99956242 L5.9962739,6.99956242 C5.9962739,8.62256242 6.77369773,10.0595624 7.9743523,10.9705624 C8.85983505,11.6425624 8.95188523,12.5355624 8.65672432,13.6115624 C8.41159068,14.5045624 7.79325357,15.0295624 6.90576973,15.2445624 C6.29543699,15.3925624 3.34582893,16.1425624 1.50282416,16.6125624 C0.614339781,16.8385624 -0.00199623247,17.6325624 0,18.5485624 C0.00200594944,19.1805624 0.00300649491,19.9995624 0.00300649491,20.9975624 L10.9990013,20.9975624 L21.9969971,20.9975624 C21.9969971,19.9995624 21.9979977,19.1805624 22,18.5485624 C22.0009993,17.6335624 21.3836628,16.8395624 20.4961789,16.6135624 Z" id="路径"></path>
                    </g>
                </g>
            </g>
        </g>
    </g>
</svg>