<svg width="16" height="16" viewBox="0 0 16 16" fill="none" xmlns="http://www.w3.org/2000/svg">
    <path fill-rule="evenodd" clip-rule="evenodd" d="M13.7554 11.9409C12.6385 11.6424 10.8502 11.1662 10.4809 11.0722C9.94304 10.9357 9.56829 10.6017 9.41973 10.0353C9.24084 9.352 9.29663 8.78495 9.83329 8.35824C10.5603 7.77912 11.0315 6.86664 11.0315 5.83604V4.70257C11.0315 3.0446 9.87391 1.5638 8.2973 1.40632C6.48904 1.22535 4.9676 2.70996 4.9676 4.56605V5.83604C4.9676 6.86664 5.43877 7.77912 6.16644 8.3576C6.70309 8.78432 6.75888 9.35137 6.58 10.0346C6.43143 10.6017 6.05668 10.935 5.51881 11.0716C5.14891 11.1655 3.36127 11.6418 2.2443 11.9402C1.70582 12.0837 1.33229 12.5879 1.3335 13.1696C1.33471 13.5709 1.33532 14.091 1.33532 14.7247H7.99956H14.665C14.665 14.091 14.6656 13.5709 14.6668 13.1696C14.6674 12.5886 14.2933 12.0844 13.7554 11.9409Z" stroke="currentColor" stroke-linecap="square"/>
</svg>
