<svg xmlns="http://www.w3.org/2000/svg" width="60" height="60" viewBox="0 0 60 60">
  <g fill="none" fill-rule="evenodd" stroke-linecap="square" stroke-width="2" transform="translate(1 1)">
    <path stroke="#00AAE7" d="M29,43 L29,43 C22.372583,43 17,37.627417 17,31 L17,21 L41,21 L41,31 C41,37.627417 35.627417,43 29,43 Z"/>
    <line x1="22" x2="22" y1="21" y2="13" stroke="#00AAE7"/>
    <line x1="36" x2="36" y1="21" y2="13" stroke="#00AAE7"/>
    <path stroke="#333" d="M49,50 C59.0667244,40.4126435 60.9139072,25.0302557 53.4032345,13.3321302 C45.8925619,1.6340047 31.1370441,-3.08877354 18.2296704,2.07417596 C5.32229664,7.23712546 -2.105645,20.8332874 0.523264785,34.4841181 C3.15217457,48.1349488 15.098333,58 29,58 L29,48"/>
  </g>
</svg>
