<?xml version="1.0" encoding="UTF-8"?>
<svg width="1102px" height="596px" viewBox="0 0 1102 596" version="1.1" xmlns="http://www.w3.org/2000/svg" xmlns:xlink="http://www.w3.org/1999/xlink">
    <title>编组 87</title>
    <g id="页面-1" stroke="none" stroke-width="1" fill="none" fill-rule="evenodd">
        <g id="基础服务-直播✅" transform="translate(-409.000000, -2240.000000)">
            <g id="产品规格" transform="translate(0.000000, 2092.000000)">
                <g id="编组-87" transform="translate(409.000000, 148.000000)">
                    <g id="编组-46" transform="translate(340.000000, 204.000000)">
                        <path d="M2,0 L420,0 C421.104569,-6.46995335e-16 422,0.8954305 422,2 L422,390 C422,391.104569 421.104569,392 420,392 L2,392 C0.8954305,392 1.3527075e-16,391.104569 0,390 L0,2 C-1.3527075e-16,0.8954305 0.8954305,2.02906125e-16 2,0 Z" id="矩形" fill="#00AAE7" opacity="0.08"></path>
                        <g id="编组-70" transform="translate(12.000000, 140.000000)">
                            <path d="M2,0 L396,0 C397.104569,-2.02906125e-16 398,0.8954305 398,2 L398,94 C398,95.1045695 397.104569,96 396,96 L2,96 C0.8954305,96 1.3527075e-16,95.1045695 0,94 L0,2 C-1.3527075e-16,0.8954305 0.8954305,2.02906125e-16 2,0 Z" id="矩形备份-17" fill="#FFFFFF" opacity="0.85"></path>
                            <text id="直播边缘节点" font-family="PingFangSC-Medium, PingFang SC" font-size="14" font-weight="400" fill="#00AAE7">
                                <tspan x="159" y="21">直播边缘节点</tspan>
                            </text>
                            <g id="编组-47" transform="translate(37.000000, 33.000000)">
                                <g id="编组-2">
                                    <text id="节点-1" font-family="PingFangSC-Regular, PingFang SC" font-size="14" font-weight="normal" fill="#00AAE7">
                                        <tspan x="0" y="45">节点 1</tspan>
                                    </text>
                                    <g id="节点" transform="translate(11.000000, 0.000000)" fill-rule="nonzero">
                                        <rect id="矩形" fill="#000000" opacity="0" x="5" y="0" width="24" height="24"></rect>
                                        <path d="M14.784375,13.6320313 C14.0273437,13.6320313 13.3617187,14.0070313 12.9492187,14.5765625 L10.5492187,13.3414063 C10.74375,12.921875 10.8609375,12.4601562 10.8609375,11.9679687 C10.8609375,11.4078125 10.7085937,10.8898437 10.4601562,10.4304687 L11.8617187,9.8515625 C11.9859375,10.0625 12.1382812,10.2617187 12.3375,10.428125 C13.29375,11.2390625 14.7234375,11.121875 15.534375,10.165625 C16.3453125,9.209375 16.228125,7.7796875 15.271875,6.96875 C14.315625,6.1578125 12.8859375,6.275 12.075,7.23125 C11.5851562,7.8078125 11.4398437,8.5578125 11.6085937,9.2421875 L10.0828125,9.87265625 C9.55078125,9.2421875 8.7890625,8.8203125 7.921875,8.73125 L7.921875,6.5046875 C9.01640625,6.34296875 9.86015625,5.41015625 9.86015625,4.26875 C9.86015625,3.01484375 8.8453125,2 7.59140625,2 C6.3375,2 5.32265625,3.01484375 5.32265625,4.26875 C5.32265625,5.4078125 6.16640625,6.34296875 7.2609375,6.5046875 L7.2609375,8.73125 C5.61328125,8.9 4.321875,10.2757813 4.321875,11.9679688 C4.321875,12.78125 4.62890625,13.5171875 5.12109375,14.0890625 L4.134375,14.5976563 C3.72421875,14.0046875 3.0421875,13.615625 2.26875,13.615625 C1.01484375,13.615625 0,14.6304688 0,15.884375 C0,17.1382813 1.01484375,18.153125 2.26875,18.153125 C3.52265625,18.153125 4.5328125,17.1359375 4.5328125,15.884375 C4.5328125,15.6429688 4.4859375,15.4132813 4.415625,15.1953125 L5.62734375,14.571875 C6.17578125,14.9867188 6.85078125,15.2398438 7.5890625,15.2398438 C8.66484375,15.2398438 9.61171875,14.7125 10.2070312,13.9109375 L12.6492187,15.1671875 C12.5695312,15.3992188 12.515625,15.6429687 12.515625,15.903125 C12.515625,17.1570313 13.5304687,18.171875 14.784375,18.171875 C16.0382812,18.171875 17.053125,17.1570313 17.053125,15.903125 C17.053125,14.6492188 16.0382812,13.6320313 14.784375,13.6320313 Z" id="路径" fill="#00AAE7"></path>
                                    </g>
                                </g>
                                <g id="编组" transform="translate(96.000000, 0.000000)">
                                    <text id="节点-2" font-family="PingFangSC-Regular, PingFang SC" font-size="14" font-weight="normal" fill="#00AAE7">
                                        <tspan x="0" y="45">节点 2</tspan>
                                    </text>
                                    <g id="节点备份" transform="translate(9.000000, 0.000000)" fill-rule="nonzero">
                                        <rect id="矩形" fill="#000000" opacity="0" x="0" y="0" width="24" height="24"></rect>
                                        <path d="M18.24375,14.0507812 C17.4867187,14.0507812 16.8210937,14.4257812 16.4085937,14.9953125 L14.0085937,13.7601562 C14.203125,13.340625 14.3203125,12.8789062 14.3203125,12.3867187 C14.3203125,11.8265625 14.1679687,11.3085937 13.9195312,10.8492187 L15.3210937,10.2703125 C15.4453125,10.48125 15.5976562,10.6804687 15.796875,10.846875 C16.753125,11.6578125 18.1828125,11.540625 18.99375,10.584375 C19.8046875,9.628125 19.6875,8.1984375 18.73125,7.3875 C17.775,6.5765625 16.3453125,6.69375 15.534375,7.65 C15.0445312,8.2265625 14.8992187,8.9765625 15.0679687,9.6609375 L13.5421875,10.2914062 C13.0101562,9.6609375 12.2484375,9.2390625 11.38125,9.15 L11.38125,6.9234375 C12.4757812,6.76171875 13.3195312,5.82890625 13.3195312,4.6875 C13.3195312,3.43359375 12.3046875,2.41875 11.0507812,2.41875 C9.796875,2.41875 8.78203125,3.43359375 8.78203125,4.6875 C8.78203125,5.8265625 9.62578125,6.76171875 10.7203125,6.9234375 L10.7203125,9.15 C9.07265625,9.31875 7.78125,10.6945312 7.78125,12.3867187 C7.78125,13.2 8.08828125,13.9359375 8.58046875,14.5078125 L7.59375,15.0164062 C7.18359375,14.4234375 6.5015625,14.034375 5.728125,14.034375 C4.47421875,14.034375 3.459375,15.0492187 3.459375,16.303125 C3.459375,17.5570313 4.47421875,18.571875 5.728125,18.571875 C6.98203125,18.571875 7.9921875,17.5546875 7.9921875,16.303125 C7.9921875,16.0617188 7.9453125,15.8320312 7.875,15.6140625 L9.08671875,14.990625 C9.63515625,15.4054688 10.3101562,15.6585937 11.0484375,15.6585937 C12.1242187,15.6585937 13.0710937,15.13125 13.6664062,14.3296875 L16.1085937,15.5859375 C16.0289062,15.8179687 15.975,16.0617187 15.975,16.321875 C15.975,17.5757812 16.9898437,18.590625 18.24375,18.590625 C19.4976562,18.590625 20.5125,17.5757812 20.5125,16.321875 C20.5125,15.0679687 19.4976562,14.0507812 18.24375,14.0507812 Z" id="路径" fill="#00AAE7"></path>
                                    </g>
                                </g>
                                <g id="编组-5" transform="translate(194.000000, 0.000000)">
                                    <text id="节点-3" font-family="PingFangSC-Regular, PingFang SC" font-size="14" font-weight="normal" fill="#00AAE7">
                                        <tspan x="0" y="45">节点 3</tspan>
                                    </text>
                                    <g id="节点备份-2" transform="translate(9.000000, 0.000000)" fill-rule="nonzero">
                                        <rect id="矩形" fill="#000000" opacity="0" x="0" y="0" width="24" height="24"></rect>
                                        <path d="M18.24375,14.0507812 C17.4867187,14.0507812 16.8210937,14.4257812 16.4085937,14.9953125 L14.0085937,13.7601562 C14.203125,13.340625 14.3203125,12.8789062 14.3203125,12.3867187 C14.3203125,11.8265625 14.1679687,11.3085937 13.9195312,10.8492187 L15.3210937,10.2703125 C15.4453125,10.48125 15.5976562,10.6804687 15.796875,10.846875 C16.753125,11.6578125 18.1828125,11.540625 18.99375,10.584375 C19.8046875,9.628125 19.6875,8.1984375 18.73125,7.3875 C17.775,6.5765625 16.3453125,6.69375 15.534375,7.65 C15.0445312,8.2265625 14.8992187,8.9765625 15.0679687,9.6609375 L13.5421875,10.2914062 C13.0101562,9.6609375 12.2484375,9.2390625 11.38125,9.15 L11.38125,6.9234375 C12.4757812,6.76171875 13.3195312,5.82890625 13.3195312,4.6875 C13.3195312,3.43359375 12.3046875,2.41875 11.0507812,2.41875 C9.796875,2.41875 8.78203125,3.43359375 8.78203125,4.6875 C8.78203125,5.8265625 9.62578125,6.76171875 10.7203125,6.9234375 L10.7203125,9.15 C9.07265625,9.31875 7.78125,10.6945312 7.78125,12.3867187 C7.78125,13.2 8.08828125,13.9359375 8.58046875,14.5078125 L7.59375,15.0164062 C7.18359375,14.4234375 6.5015625,14.034375 5.728125,14.034375 C4.47421875,14.034375 3.459375,15.0492187 3.459375,16.303125 C3.459375,17.5570313 4.47421875,18.571875 5.728125,18.571875 C6.98203125,18.571875 7.9921875,17.5546875 7.9921875,16.303125 C7.9921875,16.0617188 7.9453125,15.8320312 7.875,15.6140625 L9.08671875,14.990625 C9.63515625,15.4054688 10.3101562,15.6585937 11.0484375,15.6585937 C12.1242187,15.6585937 13.0710937,15.13125 13.6664062,14.3296875 L16.1085937,15.5859375 C16.0289062,15.8179687 15.975,16.0617187 15.975,16.321875 C15.975,17.5757812 16.9898437,18.590625 18.24375,18.590625 C19.4976562,18.590625 20.5125,17.5757812 20.5125,16.321875 C20.5125,15.0679687 19.4976562,14.0507812 18.24375,14.0507812 Z" id="路径" fill="#00AAE7"></path>
                                    </g>
                                </g>
                                <g id="编组-6" transform="translate(292.000000, 0.000000)">
                                    <text id="节点-4" font-family="PingFangSC-Regular, PingFang SC" font-size="14" font-weight="normal" fill="#00AAE7">
                                        <tspan x="0" y="45">节点 4</tspan>
                                    </text>
                                    <g id="节点备份-3" transform="translate(9.000000, 0.000000)" fill-rule="nonzero">
                                        <rect id="矩形" fill="#000000" opacity="0" x="0" y="0" width="24" height="24"></rect>
                                        <path d="M18.24375,14.0507812 C17.4867187,14.0507812 16.8210937,14.4257812 16.4085937,14.9953125 L14.0085937,13.7601562 C14.203125,13.340625 14.3203125,12.8789062 14.3203125,12.3867187 C14.3203125,11.8265625 14.1679687,11.3085937 13.9195312,10.8492187 L15.3210937,10.2703125 C15.4453125,10.48125 15.5976562,10.6804687 15.796875,10.846875 C16.753125,11.6578125 18.1828125,11.540625 18.99375,10.584375 C19.8046875,9.628125 19.6875,8.1984375 18.73125,7.3875 C17.775,6.5765625 16.3453125,6.69375 15.534375,7.65 C15.0445312,8.2265625 14.8992187,8.9765625 15.0679687,9.6609375 L13.5421875,10.2914062 C13.0101562,9.6609375 12.2484375,9.2390625 11.38125,9.15 L11.38125,6.9234375 C12.4757812,6.76171875 13.3195312,5.82890625 13.3195312,4.6875 C13.3195312,3.43359375 12.3046875,2.41875 11.0507812,2.41875 C9.796875,2.41875 8.78203125,3.43359375 8.78203125,4.6875 C8.78203125,5.8265625 9.62578125,6.76171875 10.7203125,6.9234375 L10.7203125,9.15 C9.07265625,9.31875 7.78125,10.6945312 7.78125,12.3867187 C7.78125,13.2 8.08828125,13.9359375 8.58046875,14.5078125 L7.59375,15.0164062 C7.18359375,14.4234375 6.5015625,14.034375 5.728125,14.034375 C4.47421875,14.034375 3.459375,15.0492187 3.459375,16.303125 C3.459375,17.5570313 4.47421875,18.571875 5.728125,18.571875 C6.98203125,18.571875 7.9921875,17.5546875 7.9921875,16.303125 C7.9921875,16.0617188 7.9453125,15.8320312 7.875,15.6140625 L9.08671875,14.990625 C9.63515625,15.4054688 10.3101562,15.6585937 11.0484375,15.6585937 C12.1242187,15.6585937 13.0710937,15.13125 13.6664062,14.3296875 L16.1085937,15.5859375 C16.0289062,15.8179687 15.975,16.0617187 15.975,16.321875 C15.975,17.5757812 16.9898437,18.590625 18.24375,18.590625 C19.4976562,18.590625 20.5125,17.5757812 20.5125,16.321875 C20.5125,15.0679687 19.4976562,14.0507812 18.24375,14.0507812 Z" id="路径" fill="#00AAE7"></path>
                                    </g>
                                </g>
                            </g>
                        </g>
                        <g id="编组-68" transform="translate(14.000000, 66.000000)">
                            <g id="编组-66">
                                <path d="M92,0.5 C92.4142136,0.5 92.7892136,0.667893219 93.0606602,0.939339828 C93.3321068,1.21078644 93.5,1.58578644 93.5,2 L93.5,2 L93.5,31 C93.5,31.4142136 93.3321068,31.7892136 93.0606602,32.0606602 C92.7892136,32.3321068 92.4142136,32.5 92,32.5 L92,32.5 L2,32.5 C1.58578644,32.5 1.21078644,32.3321068 0.939339828,32.0606602 C0.667893219,31.7892136 0.5,31.4142136 0.5,31 L0.5,31 L0.5,2 C0.5,1.58578644 0.667893219,1.21078644 0.939339828,0.939339828 C1.21078644,0.667893219 1.58578644,0.5 2,0.5 L2,0.5 Z" id="矩形备份-3" stroke="#1AB9EB" fill="#E2F5FC"></path>
                                <text id="按需收缩" font-family="PingFangSC-Regular, PingFang SC" font-size="14" font-weight="normal" fill="#00AAE7">
                                    <tspan x="19" y="22">按需收缩</tspan>
                                </text>
                            </g>
                            <g id="编组-65" transform="translate(101.000000, 0.000000)">
                                <path d="M91,0.5 C91.4142136,0.5 91.7892136,0.667893219 92.0606602,0.939339828 C92.3321068,1.21078644 92.5,1.58578644 92.5,2 L92.5,2 L92.5,31 C92.5,31.4142136 92.3321068,31.7892136 92.0606602,32.0606602 C91.7892136,32.3321068 91.4142136,32.5 91,32.5 L91,32.5 L2,32.5 C1.58578644,32.5 1.21078644,32.3321068 0.939339828,32.0606602 C0.667893219,31.7892136 0.5,31.4142136 0.5,31 L0.5,31 L0.5,2 C0.5,1.58578644 0.667893219,1.21078644 0.939339828,0.939339828 C1.21078644,0.667893219 1.58578644,0.5 2,0.5 L2,0.5 Z" id="矩形备份-4" stroke="#1AB9EB" fill="#E2F5FC"></path>
                                <text id="智能选线" font-family="PingFangSC-Regular, PingFang SC" font-size="14" font-weight="normal" fill="#00AAE7">
                                    <tspan x="19" y="22">智能选线</tspan>
                                </text>
                            </g>
                            <g id="编组-67" transform="translate(201.000000, 0.000000)">
                                <g id="矩形备份-30" fill="#E2F5FC" stroke="#1AB9EB">
                                    <path d="M91,0.5 C91.4142136,0.5 91.7892136,0.667893219 92.0606602,0.939339828 C92.3321068,1.21078644 92.5,1.58578644 92.5,2 L92.5,2 L92.5,31 C92.5,31.4142136 92.3321068,31.7892136 92.0606602,32.0606602 C91.7892136,32.3321068 91.4142136,32.5 91,32.5 L91,32.5 L2,32.5 C1.58578644,32.5 1.21078644,32.3321068 0.939339828,32.0606602 C0.667893219,31.7892136 0.5,31.4142136 0.5,31 L0.5,31 L0.5,2 C0.5,1.58578644 0.667893219,1.21078644 0.939339828,0.939339828 C1.21078644,0.667893219 1.58578644,0.5 2,0.5 L2,0.5 Z" id="矩形备份-5"></path>
                                </g>
                                <text id="故障容错" font-family="PingFangSC-Regular, PingFang SC" font-size="14" font-weight="normal" fill="#00AAE7">
                                    <tspan x="19" y="22">故障容错</tspan>
                                </text>
                            </g>
                            <g id="编组-64" transform="translate(301.000000, 0.000000)">
                                <path d="M92,0.5 C92.4142136,0.5 92.7892136,0.667893219 93.0606602,0.939339828 C93.3321068,1.21078644 93.5,1.58578644 93.5,2 L93.5,2 L93.5,31 C93.5,31.4142136 93.3321068,31.7892136 93.0606602,32.0606602 C92.7892136,32.3321068 92.4142136,32.5 92,32.5 L92,32.5 L2,32.5 C1.58578644,32.5 1.21078644,32.3321068 0.939339828,32.0606602 C0.667893219,31.7892136 0.5,31.4142136 0.5,31 L0.5,31 L0.5,2 C0.5,1.58578644 0.667893219,1.21078644 0.939339828,0.939339828 C1.21078644,0.667893219 1.58578644,0.5 2,0.5 L2,0.5 Z" id="矩形备份-6" stroke="#1AB9EB" fill="#E2F5FC"></path>
                                <text id="弱网少卡顿" font-family="PingFangSC-Regular, PingFang SC" font-size="14" font-weight="normal" fill="#00AAE7">
                                    <tspan x="11" y="22">弱网少卡顿</tspan>
                                </text>
                            </g>
                        </g>
                        <g id="编组-71" transform="translate(12.000000, 248.000000)">
                            <g id="编组-55">
                                <path d="M2,0 L124,0 C125.104569,-8.05134447e-15 126,0.8954305 126,2 L126,58 C126,59.1045695 125.104569,60 124,60 L2,60 C0.8954305,60 1.3527075e-16,59.1045695 0,58 L0,2 C-1.3527075e-16,0.8954305 0.8954305,2.02906125e-16 2,0 Z" id="矩形备份-8" fill="#FFFFFF" opacity="0.85"></path>
                                <g id="编组-48" transform="translate(35.000000, 5.000000)">
                                    <text id="认证鉴权" font-family="PingFangSC-Regular, PingFang SC" font-size="14" font-weight="normal" fill="#00AAE7">
                                        <tspan x="0" y="45">认证鉴权</tspan>
                                    </text>
                                    <g id="认证管理" transform="translate(16.000000, 0.000000)" fill-rule="nonzero">
                                        <rect id="矩形" fill="#000000" opacity="0" x="0" y="0" width="24" height="24"></rect>
                                        <path d="M22.35,4.2 C22.35,3.75 22.05,3.3 21.6,3.3 L20.7,3.3 C20.7,3.3 18.75,3.3 16.8,2.4 C14.7,1.8 13.35,0.75 13.35,0.75 L12.75,0.3 C12.45,0.15 12,0.15 11.7,0.3 L11.25,0.75 C11.25,0.75 9.9,1.65 7.8,2.55 C5.85,3.3 4.05,3.45 3.9,3.45 L3,3.45 C2.55,3.45 2.25,3.9 2.25,4.35 L2.25,13.5 C2.25,15.9 3.6,18.45 5.85,20.7 C7.95,22.8 10.5,24 12.3,24 C14.1,24 16.65,22.8 18.75,20.7 C21.15,18.45 22.35,15.9 22.35,13.5 L22.35,4.2 Z M17.4,9.9 L11.85,15.45 C11.7,15.6 11.4,15.75 11.1,15.75 C10.8,15.75 10.5,15.6 10.35,15.45 L7.65,12.6 C7.5,12.45 7.35,12.15 7.35,11.85 C7.35,11.55 7.5,11.25 7.65,11.1 C8.1,10.65 8.7,10.65 9.15,11.1 L11.1,13.05 L15.9,8.25 C16.35,7.8 16.95,7.8 17.4,8.25 C17.55,8.4 17.7,8.7 17.7,9 C17.7,9.45 17.7,9.75 17.4,9.9 L17.4,9.9 Z" id="形状" fill="#00AAE7"></path>
                                    </g>
                                </g>
                            </g>
                            <g id="编组-63" transform="translate(0.000000, 70.000000)">
                                <path d="M2,0 L124,0 C125.104569,-8.05134447e-15 126,0.8954305 126,2 L126,58 C126,59.1045695 125.104569,60 124,60 L2,60 C0.8954305,60 1.3527075e-16,59.1045695 0,58 L0,2 C-1.3527075e-16,0.8954305 0.8954305,2.02906125e-16 2,0 Z" id="矩形备份-11" fill="#FFFFFF" opacity="0.85"></path>
                                <g id="编组-58" transform="translate(35.000000, 6.000000)">
                                    <text id="数据统计" font-family="PingFangSC-Regular, PingFang SC" font-size="14" font-weight="normal" fill="#00AAE7">
                                        <tspan x="0" y="43">数据统计</tspan>
                                    </text>
                                    <g id="节点-统计" transform="translate(15.000000, 0.000000)" fill-rule="nonzero">
                                        <rect id="矩形" fill="#000000" opacity="0" x="0" y="0" width="24" height="24"></rect>
                                        <path d="M9.66666667,2 L15,2 L15,22 L9.66666667,22 L9.66666667,2 Z M16.3333333,7.33333333 L21.6666667,7.33333333 L21.6666667,22 L16.3333333,22 L16.3333333,7.33333333 Z M3,11.3333333 L8.33333333,11.3333333 L8.33333333,22 L3,22 L3,11.3333333 Z" id="形状" fill="#00AAE7"></path>
                                    </g>
                                </g>
                            </g>
                            <g id="编组-56" transform="translate(136.000000, 0.000000)">
                                <path d="M2,0 L124,0 C125.104569,-8.05134447e-15 126,0.8954305 126,2 L126,58 C126,59.1045695 125.104569,60 124,60 L2,60 C0.8954305,60 1.3527075e-16,59.1045695 0,58 L0,2 C-1.3527075e-16,0.8954305 0.8954305,2.02906125e-16 2,0 Z" id="矩形备份-9" fill="#FFFFFF" opacity="0.85"></path>
                                <g id="编组-53" transform="translate(35.000000, 5.000000)">
                                    <text id="直播封面" font-family="PingFangSC-Regular, PingFang SC" font-size="14" font-weight="normal" fill="#00AAE7">
                                        <tspan x="0" y="45">直播封面</tspan>
                                    </text>
                                    <g id="直播-focus" transform="translate(16.000000, 0.000000)" fill-rule="nonzero">
                                        <rect id="矩形" fill="#000000" opacity="0" x="0" y="0" width="24" height="24"></rect>
                                        <path d="M22.1844153,8.87376378 L22.1844153,20.8351795 C22.1844153,22.0288295 21.2132448,23 20.0195948,23 L3.16482046,23 C1.97117047,23 1,22.0288295 1,20.8351795 L1,8.87376378 C1,7.68011379 1.97117047,6.70894332 3.16482046,6.70894332 L7.66680031,6.70894332 L2.7907506,1.91407989 C2.58077317,1.70776266 2.57790673,1.36961144 2.78448854,1.15965607 C2.99080578,0.949171482 3.3281632,0.946569645 3.53891236,1.15339401 L9.18852488,6.70896538 L14.2092635,6.70896538 L19.858876,1.15339401 C20.0688534,0.9465476 20.4064534,0.949149438 20.6132998,1.15965607 C20.8198816,1.36963351 20.8170152,1.70776268 20.6070377,1.91407989 L15.730966,6.70896536 L20.0195948,6.70896536 C21.2132448,6.70894332 22.1844153,7.68011379 22.1844153,8.87376378 Z M15.2652804,14.9171143 L8.80528244,11.1874405 L8.80528244,18.6468102 L15.2652804,14.9171143 Z" id="形状" fill="#00AAE7"></path>
                                    </g>
                                </g>
                            </g>
                            <g id="编组-62" transform="translate(136.000000, 70.000000)">
                                <path d="M2,0 L124,0 C125.104569,-8.05134447e-15 126,0.8954305 126,2 L126,58 C126,59.1045695 125.104569,60 124,60 L2,60 C0.8954305,60 1.3527075e-16,59.1045695 0,58 L0,2 C-1.3527075e-16,0.8954305 0.8954305,2.02906125e-16 2,0 Z" id="矩形备份-9" fill="#FFFFFF" opacity="0.85"></path>
                                <g id="编组-59" transform="translate(35.000000, 6.000000)">
                                    <text id="自动鉴黄" font-family="PingFangSC-Regular, PingFang SC" font-size="14" font-weight="normal" fill="#00AAE7">
                                        <tspan x="0" y="43">自动鉴黄</tspan>
                                    </text>
                                    <g id="寻找标的" transform="translate(16.000000, 0.000000)" fill-rule="nonzero">
                                        <rect id="矩形" fill="#000000" opacity="0" x="0" y="0" width="24" height="24"></rect>
                                        <path d="M2.2734375,13.2734375 C2.2734375,19.3485697 7.19830525,24.2734375 13.2734375,24.2734375 C19.3485697,24.2734375 24.2734375,19.3485697 24.2734375,13.2734375 C24.2734375,7.19830525 19.3485697,2.2734375 13.2734375,2.2734375 C7.19830525,2.2734375 2.2734375,7.19830525 2.2734375,13.2734375 Z" id="路径" fill="#00AAE7"></path>
                                        <path d="M8.76639023,18.7137082 C8.84817612,19.8691544 9.54019461,20.8931901 10.5817521,21.4000458 C11.6233096,21.9069016 12.8561565,21.8195681 13.8158612,21.1709452 C14.7755659,20.5223222 15.3163151,19.4109587 15.2344006,18.2555216 C15.1526147,17.1000754 14.4605962,16.0760398 13.4190387,15.569184 C12.3774812,15.0623282 11.1446343,15.1496617 10.1849296,15.7982846 C9.22522494,16.4469076 8.68447575,17.5582711 8.76639023,18.7137082 L8.76639023,18.7137082 Z" id="路径" fill="#FFFFFF"></path>
                                    </g>
                                </g>
                            </g>
                            <g id="编组-57" transform="translate(272.000000, 0.000000)">
                                <path d="M2,0 L124,0 C125.104569,-8.05134447e-15 126,0.8954305 126,2 L126,58 C126,59.1045695 125.104569,60 124,60 L2,60 C0.8954305,60 1.3527075e-16,59.1045695 0,58 L0,2 C-1.3527075e-16,0.8954305 0.8954305,2.02906125e-16 2,0 Z" id="矩形备份-10" fill="#FFFFFF" opacity="0.85"></path>
                                <g id="编组-54" transform="translate(35.000000, 4.000000)">
                                    <text id="实时转码" font-family="PingFangSC-Regular, PingFang SC" font-size="14" font-weight="normal" fill="#00AAE7">
                                        <tspan x="0" y="47">实时转码</tspan>
                                    </text>
                                    <g id="转码管理" transform="translate(16.000000, 0.000000)">
                                        <rect id="矩形" fill="#000000" fill-rule="nonzero" opacity="0" x="0" y="0" width="24" height="24"></rect>
                                        <g id="编组-9" transform="translate(3.000000, 2.894737)">
                                            <circle id="椭圆形" fill="#00AAE7" cx="10.9421053" cy="12.1578947" r="10.9421053"></circle>
                                            <path d="M8.56584474,8.85520263 C8.56584474,8.41934211 8.87404737,8.24244474 9.25155,8.45946316 L15.7548079,12.2144289 C16.1323105,12.4314474 16.1323105,12.7888895 15.7548079,13.0059079 L9.25155,16.7608737 C8.87404737,16.9778921 8.56584474,16.8009947 8.56584474,16.3651342 L8.56584474,8.85520263 Z" id="路径" fill="#FFFFFF" fill-rule="nonzero"></path>
                                            <path d="M11.0051968,20.924277 C7.62735244,20.8945999 4.60834351,18.8101447 3.38361939,15.6620082 C2.13509003,12.5064786 2.90082195,8.90994222 5.32647691,6.53667648 C6.09484018,5.79118501 7.0009189,5.20232261 7.99420325,4.80291573 C8.39974172,4.6377567 8.59646,4.17667394 8.43504894,3.76962918 C8.35932721,3.57386812 8.20828104,3.41663824 8.01571404,3.33312704 C7.82314704,3.24961584 7.60513734,3.24679598 7.41047475,3.32529854 C6.2289669,3.80063154 5.15125391,4.50135212 4.23743122,5.3883867 C2.31675972,7.25861442 1.22806874,9.8221238 1.21598284,12.5029044 C1.1999309,15.0894786 2.18380314,17.5822463 3.96212047,19.4605995 C5.09302085,20.651979 6.50442321,21.5409947 8.06738712,22.0464296 L6.195971,22.8009205 C5.81866494,22.98135 5.64523315,23.4229165 5.79889691,23.8118922 C5.95256066,24.200868 6.3809501,24.4046867 6.77969949,24.2785377 L11.2944473,22.4576533 C11.6447173,22.3145415 11.8459121,21.9447086 11.7757732,21.572888 C11.7056343,21.2010674 11.3835324,20.9299472 11.0051968,20.924277 L11.0051968,20.924277 Z M18.2713097,5.64627272 C17.1398345,4.45598888 15.7285746,3.56766185 14.166043,3.0621851 L16.3737564,1.51486897 C16.7510625,1.3344395 16.9244943,0.892872947 16.7708305,0.503897234 C16.6171668,0.114921522 16.1887773,-0.0888972585 15.7900279,0.0372517744 L10.9407253,2.65096144 C10.5896162,2.79423373 10.3878162,3.16480047 10.4579563,3.53747308 C10.5280965,3.91014569 10.8508049,4.18199542 11.2299758,4.18782273 C14.6066021,4.22134433 17.6236656,6.30445632 18.8515532,9.45009152 C19.6670447,11.5097502 19.6388763,13.8076605 18.7731419,15.8467103 C17.9156297,17.8777001 16.2839009,19.4830905 14.2392269,20.3074415 C13.9415811,20.4275363 13.7451299,20.7145836 13.7409421,21.035517 C13.7367544,21.3564504 13.9256488,21.648526 14.2200597,21.7763463 C14.4047618,21.8565001 14.6208285,21.8652124 14.8229554,21.7833162 C17.2587188,20.8029347 19.2020499,18.8903407 20.2211371,16.4705157 C21.7828701,12.795878 21.0171315,8.54496811 18.2713097,5.64627272 L18.2713097,5.64627272 Z" id="形状" fill="#00AAE7" fill-rule="nonzero"></path>
                                        </g>
                                    </g>
                                </g>
                            </g>
                            <g id="编组-61" transform="translate(272.000000, 70.000000)">
                                <path d="M2,0 L124,0 C125.104569,-8.05134447e-15 126,0.8954305 126,2 L126,58 C126,59.1045695 125.104569,60 124,60 L2,60 C0.8954305,60 1.3527075e-16,59.1045695 0,58 L0,2 C-1.3527075e-16,0.8954305 0.8954305,2.02906125e-16 2,0 Z" id="矩形备份-12" fill="#FFFFFF" opacity="0.85"></path>
                                <g id="编组-60" transform="translate(35.000000, 6.000000)">
                                    <text id="录制回放" font-family="PingFangSC-Regular, PingFang SC" font-size="14" font-weight="normal" fill="#00AAE7">
                                        <tspan x="0" y="43">录制回放</tspan>
                                    </text>
                                    <g id="直播回放" transform="translate(16.000000, 0.000000)" fill-rule="nonzero">
                                        <rect id="矩形" fill="#000000" opacity="0" x="0" y="0" width="24" height="24"></rect>
                                        <path d="M13.625,2.4609375 C7.5467064,2.4609375 2.625,7.3881646 2.625,13.4609375 C2.625,19.5392311 7.5522271,24.4609375 13.625,24.4609375 C19.6977729,24.4609375 24.625,19.5392311 24.625,13.4609375 C24.625,7.3826439 19.6977729,2.4609375 13.625,2.4609375 Z M13.625,18.9623177 C10.5858532,18.9623177 8.12638018,16.5000843 8.12638018,13.4636979 L9.77430991,13.4636979 C9.77430991,15.5891684 11.4995295,17.3143879 13.625,17.3143879 C15.7504705,17.3143879 17.4756901,15.586408 17.4756901,13.4609375 C17.4756901,11.335467 15.7504705,9.61024741 13.625,9.61024741 C12.7030427,9.61024741 11.8666562,9.94977062 11.2041719,10.4880391 L10.0255019,9.30936912 C10.9916248,8.47298267 12.2475847,7.96231768 13.625,7.96231768 C16.6641468,7.96231768 19.1236198,10.4245511 19.1236198,13.4609375 C19.1236198,16.4973239 16.6641468,18.9623177 13.625,18.9623177 Z M11.7010351,13.6017154 C11.7010351,13.0579262 11.7341593,12.5224181 11.7976474,12.0007117 C11.8638959,11.4541621 12.3800816,11.1201596 12.8438206,11.3189049 C13.6967691,11.688792 14.497271,12.1718534 15.2260038,12.7542876 C15.6593789,13.0993315 15.6593789,13.8087418 15.2260038,14.1537857 C14.4862296,14.7445009 13.6746863,15.233083 12.807936,15.6029701 C12.3303952,15.8072361 11.8142095,15.4428697 11.7617629,14.8825184 C11.7175972,14.4601847 11.7010351,14.0350906 11.7010351,13.6017154 L11.7010351,13.6017154 Z" id="形状" fill="#00AAE7"></path>
                                    </g>
                                </g>
                            </g>
                        </g>
                        <rect id="矩形" fill="#00AAE7" opacity="0.854399182" x="0" y="0" width="422" height="50"></rect>
                        <text id="LiveNet-实时网络流" font-family="PingFangSC-Medium, PingFang SC" font-size="18" font-weight="400" fill="#FFFFFF">
                            <tspan x="130" y="31">LiveNet 实时网络流</tspan>
                        </text>
                        <g id="编组-69" transform="translate(39.000000, 111.000000)" stroke="#00AAE7" stroke-linecap="round" stroke-width="1.5">
                            <g id="编组-3">
                                <path d="M8,0 L8,14.7928932 C8,15.0690356 8.22385763,15.2928932 8.5,15.2928932 C8.63260824,15.2928932 8.7597852,15.2402148 8.85355339,15.1464466 L12,12 L12,12" id="路径-7"></path>
                                <path d="M0,0 L0,14.7928932 C-1.74253915e-15,15.0690356 0.223857625,15.2928932 0.5,15.2928932 C0.632608245,15.2928932 0.759785201,15.2402148 0.853553391,15.1464466 L4,12 L4,12" id="路径-7备份" transform="translate(2.000000, 8.000000) scale(-1, -1) translate(-2.000000, -8.000000) "></path>
                            </g>
                            <g id="编组-4" transform="translate(156.000000, 0.000000)">
                                <g id="编组-3备份-2">
                                    <path d="M8,0 L8,14.7928932 C8,15.0690356 8.22385763,15.2928932 8.5,15.2928932 C8.63260824,15.2928932 8.7597852,15.2402148 8.85355339,15.1464466 L12,12 L12,12" id="路径-7"></path>
                                    <path d="M0,0 L0,14.7928932 C-1.74253915e-15,15.0690356 0.223857625,15.2928932 0.5,15.2928932 C0.632608245,15.2928932 0.759785201,15.2402148 0.853553391,15.1464466 L4,12 L4,12" id="路径-7备份" transform="translate(2.000000, 8.000000) scale(-1, -1) translate(-2.000000, -8.000000) "></path>
                                </g>
                                <g id="编组-3备份-3" transform="translate(28.000000, 0.000000)">
                                    <path d="M8,0 L8,14.7928932 C8,15.0690356 8.22385763,15.2928932 8.5,15.2928932 C8.63260824,15.2928932 8.7597852,15.2402148 8.85355339,15.1464466 L12,12 L12,12" id="路径-7"></path>
                                    <path d="M0,0 L0,14.7928932 C-1.74253915e-15,15.0690356 0.223857625,15.2928932 0.5,15.2928932 C0.632608245,15.2928932 0.759785201,15.2402148 0.853553391,15.1464466 L4,12 L4,12" id="路径-7备份" transform="translate(2.000000, 8.000000) scale(-1, -1) translate(-2.000000, -8.000000) "></path>
                                </g>
                            </g>
                            <g id="编组-3备份" transform="translate(28.000000, 0.000000)">
                                <path d="M8,0 L8,14.7928932 C8,15.0690356 8.22385763,15.2928932 8.5,15.2928932 C8.63260824,15.2928932 8.7597852,15.2402148 8.85355339,15.1464466 L12,12 L12,12" id="路径-7"></path>
                                <path d="M0,0 L0,14.7928932 C-1.74253915e-15,15.0690356 0.223857625,15.2928932 0.5,15.2928932 C0.632608245,15.2928932 0.759785201,15.2402148 0.853553391,15.1464466 L4,12 L4,12" id="路径-7备份" transform="translate(2.000000, 8.000000) scale(-1, -1) translate(-2.000000, -8.000000) "></path>
                            </g>
                            <g id="编组-3备份-5" transform="translate(312.000000, 0.000000)">
                                <path d="M8,0 L8,14.7928932 C8,15.0690356 8.22385763,15.2928932 8.5,15.2928932 C8.63260824,15.2928932 8.7597852,15.2402148 8.85355339,15.1464466 L12,12 L12,12" id="路径-7"></path>
                                <path d="M0,0 L0,14.7928932 C-1.74253915e-15,15.0690356 0.223857625,15.2928932 0.5,15.2928932 C0.632608245,15.2928932 0.759785201,15.2402148 0.853553391,15.1464466 L4,12 L4,12" id="路径-7备份" transform="translate(2.000000, 8.000000) scale(-1, -1) translate(-2.000000, -8.000000) "></path>
                            </g>
                            <g id="编组-3备份-4" transform="translate(340.000000, 0.000000)">
                                <path d="M8,0 L8,14.7928932 C8,15.0690356 8.22385763,15.2928932 8.5,15.2928932 C8.63260824,15.2928932 8.7597852,15.2402148 8.85355339,15.1464466 L12,12 L12,12" id="路径-7"></path>
                                <path d="M0,0 L0,14.7928932 C-1.74253915e-15,15.0690356 0.223857625,15.2928932 0.5,15.2928932 C0.632608245,15.2928932 0.759785201,15.2402148 0.853553391,15.1464466 L4,12 L4,12" id="路径-7备份" transform="translate(2.000000, 8.000000) scale(-1, -1) translate(-2.000000, -8.000000) "></path>
                            </g>
                        </g>
                    </g>
                    <g id="编组-72" transform="translate(902.000000, 204.000000)">
                        <path d="M2,0 L198,0 C199.104569,-4.2495073e-16 200,0.8954305 200,2 L200,390 C200,391.104569 199.104569,392 198,392 L2,392 C0.8954305,392 1.3527075e-16,391.104569 0,390 L0,2 C-1.3527075e-16,0.8954305 0.8954305,2.02906125e-16 2,0 Z" id="矩形" fill="#28B8BB" opacity="0.110165551"></path>
                        <rect id="矩形备份-2" fill-opacity="0.85" fill="#28B8BB" x="0" y="0" width="200" height="44"></rect>
                        <g id="编组-82" transform="translate(15.000000, 119.000000)">
                            <polygon id="矩形" fill="#FFFFFF" opacity="0.85" points="0 0 170 0 170 254 0 254"></polygon>
                            <g id="编组-83" transform="translate(14.000000, 15.000000)">
                                <g id="编组-77">
                                    <text id="播放-SDK" font-family="PingFangSC-Medium, PingFang SC" font-size="18" font-weight="400" line-spacing="30" fill="#28B8BB">
                                        <tspan x="31" y="19">播放 SDK</tspan>
                                    </text>
                                    <g id="编组-73" transform="translate(0.000000, 35.000000)">
                                        <path d="M140,0.5 C140.414214,0.5 140.789214,0.667893219 141.06066,0.939339828 C141.332107,1.21078644 141.5,1.58578644 141.5,2 L141.5,2 L141.5,34 C141.5,34.4142136 141.332107,34.7892136 141.06066,35.0606602 C140.789214,35.3321068 140.414214,35.5 140,35.5 L140,35.5 L2,35.5 C1.58578644,35.5 1.21078644,35.3321068 0.939339828,35.0606602 C0.667893219,34.7892136 0.5,34.4142136 0.5,34 L0.5,34 L0.5,2 C0.5,1.58578644 0.667893219,1.21078644 0.939339828,0.939339828 C1.21078644,0.667893219 1.58578644,0.5 2,0.5 L2,0.5 Z" id="矩形备份-13" stroke="#28B8BB" fill="#E7F7F8"></path>
                                        <text id="高效解码" font-family="PingFangSC-Regular, PingFang SC" font-size="14" font-weight="normal" fill="#28B8BB">
                                            <tspan x="43" y="23">高效解码</tspan>
                                        </text>
                                    </g>
                                    <g id="编组-74" transform="translate(0.000000, 77.000000)">
                                        <path d="M140,0.5 C140.414214,0.5 140.789214,0.667893219 141.06066,0.939339828 C141.332107,1.21078644 141.5,1.58578644 141.5,2 L141.5,2 L141.5,34 C141.5,34.4142136 141.332107,34.7892136 141.06066,35.0606602 C140.789214,35.3321068 140.414214,35.5 140,35.5 L140,35.5 L2,35.5 C1.58578644,35.5 1.21078644,35.3321068 0.939339828,35.0606602 C0.667893219,34.7892136 0.5,34.4142136 0.5,34 L0.5,34 L0.5,2 C0.5,1.58578644 0.667893219,1.21078644 0.939339828,0.939339828 C1.21078644,0.667893219 1.58578644,0.5 2,0.5 L2,0.5 Z" id="矩形备份-14" stroke="#28B8BB" fill="#E7F7F8"></path>
                                        <text id="硬件加速" font-family="PingFangSC-Regular, PingFang SC" font-size="14" font-weight="normal" fill="#28B8BB">
                                            <tspan x="43" y="23">硬件加速</tspan>
                                        </text>
                                    </g>
                                    <g id="编组-75" transform="translate(0.000000, 119.000000)">
                                        <path d="M140,0.5 C140.414214,0.5 140.789214,0.667893219 141.06066,0.939339828 C141.332107,1.21078644 141.5,1.58578644 141.5,2 L141.5,2 L141.5,34 C141.5,34.4142136 141.332107,34.7892136 141.06066,35.0606602 C140.789214,35.3321068 140.414214,35.5 140,35.5 L140,35.5 L2,35.5 C1.58578644,35.5 1.21078644,35.3321068 0.939339828,35.0606602 C0.667893219,34.7892136 0.5,34.4142136 0.5,34 L0.5,34 L0.5,2 C0.5,1.58578644 0.667893219,1.21078644 0.939339828,0.939339828 C1.21078644,0.667893219 1.58578644,0.5 2,0.5 L2,0.5 Z" id="矩形备份-15" stroke="#28B8BB" fill="#E7F7F8"></path>
                                        <text id="首屏秒开" font-family="PingFangSC-Regular, PingFang SC" font-size="14" font-weight="normal" fill="#28B8BB">
                                            <tspan x="43" y="23">首屏秒开</tspan>
                                        </text>
                                    </g>
                                    <g id="编组-76" transform="translate(0.000000, 161.000000)">
                                        <path d="M140,0.5 C140.414214,0.5 140.789214,0.667893219 141.06066,0.939339828 C141.332107,1.21078644 141.5,1.58578644 141.5,2 L141.5,2 L141.5,34 C141.5,34.4142136 141.332107,34.7892136 141.06066,35.0606602 C140.789214,35.3321068 140.414214,35.5 140,35.5 L140,35.5 L2,35.5 C1.58578644,35.5 1.21078644,35.3321068 0.939339828,35.0606602 C0.667893219,34.7892136 0.5,34.4142136 0.5,34 L0.5,34 L0.5,2 C0.5,1.58578644 0.667893219,1.21078644 0.939339828,0.939339828 C1.21078644,0.667893219 1.58578644,0.5 2,0.5 L2,0.5 Z" id="矩形备份-16" stroke="#28B8BB" fill="#E7F7F8"></path>
                                        <text id="动态追帧" font-family="PingFangSC-Regular, PingFang SC" font-size="14" font-weight="normal" fill="#28B8BB">
                                            <tspan x="43" y="23">动态追帧</tspan>
                                        </text>
                                    </g>
                                </g>
                                <g id="更多备份" transform="translate(63.000000, 198.000000)" fill-rule="nonzero">
                                    <rect id="矩形" fill="#000000" opacity="0" x="0" y="0" width="16" height="16"></rect>
                                    <path d="M0,8 C0,9.00414753 0.814022408,9.81816994 1.81816994,9.81816994 C2.82231747,9.81816994 3.63633987,9.00414753 3.63633987,8 C3.63633987,6.99585247 2.82231747,6.18183006 1.81816994,6.18183006 C0.814022408,6.18183006 0,6.99585247 0,8 Z M6.18183006,8 C6.18183006,8.64956956 6.52837128,9.2497966 7.09091502,9.57458139 C7.65345876,9.89936617 8.34654124,9.89936617 8.90908498,9.57458139 C9.47162872,9.2497966 9.81816994,8.64956956 9.81816994,8 C9.81816994,6.99585247 9.00414753,6.18183006 8,6.18183006 C6.99585247,6.18183006 6.18183006,6.99585247 6.18183006,8 L6.18183006,8 Z M12.3636601,8 C12.3636601,9.00414753 13.1776825,9.81816994 14.1818301,9.81816994 C15.1859776,9.81816994 16,9.00414753 16,8 C16,6.99585247 15.1859776,6.18183006 14.1818301,6.18183006 C13.1776825,6.18183006 12.3636601,6.99585247 12.3636601,8 Z" id="形状" fill="#28B8BB"></path>
                                </g>
                            </g>
                        </g>
                        <text id="播放端" font-family="PingFangSC-Medium, PingFang SC" font-size="18" font-weight="400" fill="#FFFFFF">
                            <tspan x="73" y="28">播放端</tspan>
                        </text>
                        <g id="编组-81" transform="translate(16.000000, 52.000000)">
                            <g id="编组-78">
                                <text id="安卓" font-family="PingFangSC-Regular, PingFang SC" font-size="16" font-weight="normal" fill="#28B8BB">
                                    <tspan x="0" y="42">安卓</tspan>
                                </text>
                                <g id="安卓" transform="translate(4.000000, 0.000000)" fill-rule="nonzero">
                                    <rect id="矩形" fill="#000000" opacity="0" x="0" y="0" width="24" height="24"></rect>
                                    <path d="M19.889116,8.25588864 C19.1818423,8.25588864 18.5959323,8.81588948 18.5959323,9.49589049 L18.5959323,14.3181704 C18.5959323,14.9981714 19.1618422,15.5586268 19.889116,15.5586268 C20.5959323,15.5586268 21.1818452,14.9981714 21.1818452,14.3177159 L21.1818452,9.49634503 C21.1618452,8.81634401 20.5959323,8.25634318 19.889116,8.2563432 L19.889116,8.25588864 Z M4.29272921,8.25588864 C3.58636452,8.25588864 3,8.81588948 3,9.49543594 L3,14.3181704 C3,14.9981714 3.56545538,15.5586268 4.29272921,15.5586268 C5.02000301,15.5586268 5.58591294,14.9981714 5.58591294,14.3177159 L5.58591294,9.49634503 C5.58591294,8.81634401 5.02000299,8.25634318 4.29272921,8.2563432 L4.29272921,8.25588864 Z M6.37364138,8.29588871 L6.37364138,17.1186291 C6.37364138,17.6386299 6.8181875,18.0786305 7.38364289,18.0786305 L8.5354628,18.0786305 L8.5354628,20.7595436 C8.5354628,21.4399992 9.10091818,22 9.82819198,22 C10.5354658,22 11.1213757,21.4399992 11.1213757,20.7595436 L11.1213757,18.0786305 L13.1413787,18.0786305 L13.1413787,20.7595436 C13.1413787,21.4399992 13.7072887,22 14.4345625,22 C15.1409272,22 15.7272917,21.4399992 15.7272917,20.7595436 L15.7272917,18.0786305 L16.878657,18.0786305 C17.444567,18.0786305 17.8891131,17.6586299 17.8891131,17.1186291 L17.8891131,8.29543417 L6.37364138,8.29543417 L6.37364138,8.29588871 Z M14.8181994,3.73406374 L15.8891101,2.29360704 C15.9291102,2.19360689 15.9291102,2.07360671 15.8282009,2.03360666 C15.7472917,1.97360658 15.6263824,2.01360664 15.5654732,2.09360675 L14.4745625,3.59406353 C13.7099386,3.31856362 12.9036612,3.17649643 12.0909226,3.17406291 C11.242285,3.17406291 10.4345565,3.31406311 9.7072827,3.59406353 L8.616372,2.09406129 C8.55546282,1.99406114 8.43455353,1.97360656 8.35364433,2.03360666 C8.27181091,2.09487193 8.25366924,2.21017228 8.31273518,2.29360704 L9.38364586,3.73451828 C7.70727973,4.47451938 6.51545978,5.87497601 6.37364138,7.515433 L17.869113,7.515433 C17.6872946,5.87452148 16.5150201,4.4745194 14.8181994,3.73406374 L14.8181994,3.73406374 Z M9.6668281,6.01497622 C9.3031912,6.01497622 9.04046354,5.75497583 9.04046354,5.41497533 C9.04046354,5.07452027 9.32319124,4.81497443 9.6668281,4.81497443 C10.030465,4.81497443 10.2927381,5.07452027 10.2927381,5.41497533 C10.2927381,5.75497583 10.0100104,6.01497622 9.6668281,6.01497622 Z M14.5959264,6.01497622 C14.2322895,6.01497622 13.9695618,5.75497583 13.9695618,5.41497533 C13.9695618,5.07452027 14.252744,4.81497443 14.5959264,4.81497443 C14.9595633,4.81497443 15.2222909,5.07452027 15.2222909,5.41497533 C15.2222909,5.75497583 14.9395632,6.01497622 14.5959264,6.01497622 Z" id="形状" fill="#28B8BB"></path>
                                </g>
                            </g>
                            <g id="编组-79" transform="translate(75.000000, 0.000000)">
                                <text id="iOS" font-family="PingFangSC-Regular, PingFang SC" font-size="16" font-weight="normal" fill="#28B8BB">
                                    <tspan x="0" y="42">iOS</tspan>
                                </text>
                                <g id="ios" transform="translate(1.000000, 0.000000)" fill-rule="nonzero">
                                    <rect id="矩形" fill="#000000" opacity="0" x="0" y="0" width="24" height="24"></rect>
                                    <path d="M15.2680129,5.22015971 C15.9168721,4.38431208 16.4084691,3.20419349 16.2313758,2 C15.1688162,2.07365285 13.929204,2.75085102 13.2067124,3.63201249 C12.5464891,4.4310541 12.0039063,5.61825234 12.2150105,6.7714601 C13.376726,6.80828653 14.5724117,6.11552129 15.2680129,5.22015971 Z M21,16.5524565 C20.5353138,17.5823927 20.3129066,18.0442225 19.7150536,18.9565794 C18.8791652,20.231651 17.7033107,21.8183496 16.2455147,21.8296934 C14.9506324,21.8438527 14.6162974,20.9853175 12.8595851,20.9952331 C11.1028728,21.0051487 10.7345474,21.8466886 9.43823683,21.8340606 C7.98046128,21.819737 6.86691588,20.3888723 6.03247602,19.1138619 C3.69917007,15.5522467 3.45409582,11.3715396 4.8920402,9.14730516 C5.91630446,7.56909394 7.52995475,6.64682153 9.04722385,6.64682153 C10.5914446,6.64682153 11.5618872,7.49542069 12.8411821,7.49542069 C14.0807942,7.49542069 14.835889,6.64539335 16.6209402,6.64539335 C17.9725006,6.64539335 19.4047935,7.38210547 20.4247937,8.65713627 C17.0827701,10.4917655 17.623986,15.2731412 21,16.5538439 L21,16.5524565 L21,16.5524565 L21,16.5524565 Z" id="形状" fill="#28B8BB"></path>
                                </g>
                            </g>
                            <g id="编组-80" transform="translate(144.000000, 0.000000)">
                                <text id="H5" font-family="PingFangSC-Regular, PingFang SC" font-size="16" font-weight="normal" fill="#28B8BB">
                                    <tspan x="1" y="42">H5</tspan>
                                </text>
                                <g id="h5" fill-rule="nonzero">
                                    <rect id="矩形" fill="#000000" opacity="0" x="0" y="0" width="24" height="24"></rect>
                                    <path d="M3.57105881,2.44101698 L5.10469901,19.6475749 L11.9894471,21.558983 L18.8921591,19.6449607 L20.4289172,2.44101698 L3.57144255,2.44101698 L3.57105881,2.44101698 L3.57105881,2.44101698 Z M17.0897332,8.0685855 L9.01433627,8.0685855 L9.20668587,10.2296643 L16.898151,10.2296643 L16.318512,16.7083437 L11.9898309,17.9078185 L7.66647413,16.7083437 L7.37099447,13.3941028 L9.4899818,13.3941028 L9.64026391,15.0787686 L11.9901907,15.7119153 L11.995539,15.7104043 L14.3466889,15.0757706 L14.5906515,12.3394658 L7.27683431,12.3394658 L6.70758026,5.95830427 L17.2786051,5.95830427 L17.0897332,8.0685855 L17.0897332,8.0685855 L17.0897332,8.0685855 Z" id="形状" fill="#28B8BB"></path>
                                </g>
                            </g>
                        </g>
                    </g>
                    <g id="编组-7">
                        <path d="M2,0 L198,0 C199.104569,-2.02906125e-16 200,0.8954305 200,2 L200,332 C200,333.104569 199.104569,334 198,334 L2,334 C0.8954305,334 1.3527075e-16,333.104569 0,332 L0,2 C-1.3527075e-16,0.8954305 0.8954305,2.02906125e-16 2,0 Z" id="矩形备份-18" fill="#28B8BB" opacity="0.110165551"></path>
                        <rect id="矩形" fill-opacity="0.85" fill="#28B8BB" x="0" y="1" width="200" height="44"></rect>
                        <path d="M17,105 L183,105 C184.104569,105 185,105.895431 185,107 L185,314 C185,315.104569 184.104569,316 183,316 L17,316 C15.8954305,316 15,315.104569 15,314 L15,107 C15,105.895431 15.8954305,105 17,105 Z" id="矩形备份-19" fill="#FFFFFF" opacity="0.85"></path>
                        <text id="推流-SDK" font-family="PingFangSC-Medium, PingFang SC" font-size="16" font-weight="400" fill="#28B8BB">
                            <tspan x="65" y="129">推流 SDK</tspan>
                        </text>
                        <g id="编组-42" transform="translate(36.000000, 141.000000)">
                            <g id="编组-32">
                                <path d="M126,0.5 C126.414214,0.5 126.789214,0.667893219 127.06066,0.939339828 C127.332107,1.21078644 127.5,1.58578644 127.5,2 L127.5,2 L127.5,34 C127.5,34.4142136 127.332107,34.7892136 127.06066,35.0606602 C126.789214,35.3321068 126.414214,35.5 126,35.5 L126,35.5 L2,35.5 C1.58578644,35.5 1.21078644,35.3321068 0.939339828,35.0606602 C0.667893219,34.7892136 0.5,34.4142136 0.5,34 L0.5,34 L0.5,2 C0.5,1.58578644 0.667893219,1.21078644 0.939339828,0.939339828 C1.21078644,0.667893219 1.58578644,0.5 2,0.5 L2,0.5 Z" id="矩形备份-20" stroke="#28B8BB" fill="#E7F7F8"></path>
                                <text id="音视频采集" font-family="PingFangSC-Regular, PingFang SC" font-size="14" font-weight="normal" fill="#28B8BB">
                                    <tspan x="29" y="23">音视频采集</tspan>
                                </text>
                            </g>
                            <g id="编组-33" transform="translate(0.000000, 42.000000)">
                                <path d="M126,0.5 C126.414214,0.5 126.789214,0.667893219 127.06066,0.939339828 C127.332107,1.21078644 127.5,1.58578644 127.5,2 L127.5,2 L127.5,33 C127.5,33.4142136 127.332107,33.7892136 127.06066,34.0606602 C126.789214,34.3321068 126.414214,34.5 126,34.5 L126,34.5 L2,34.5 C1.58578644,34.5 1.21078644,34.3321068 0.939339828,34.0606602 C0.667893219,33.7892136 0.5,33.4142136 0.5,33 L0.5,33 L0.5,2 C0.5,1.58578644 0.667893219,1.21078644 0.939339828,0.939339828 C1.21078644,0.667893219 1.58578644,0.5 2,0.5 L2,0.5 Z" id="矩形备份-21" stroke="#28B8BB" fill="#E7F7F8"></path>
                                <text id="美颜滤镜" font-family="PingFangSC-Regular, PingFang SC" font-size="14" font-weight="normal" fill="#28B8BB">
                                    <tspan x="36" y="22">美颜滤镜</tspan>
                                </text>
                            </g>
                            <g id="编组-34" transform="translate(0.000000, 83.000000)">
                                <path d="M126,0.5 C126.414214,0.5 126.789214,0.667893219 127.06066,0.939339828 C127.332107,1.21078644 127.5,1.58578644 127.5,2 L127.5,2 L127.5,33 C127.5,33.4142136 127.332107,33.7892136 127.06066,34.0606602 C126.789214,34.3321068 126.414214,34.5 126,34.5 L126,34.5 L2,34.5 C1.58578644,34.5 1.21078644,34.3321068 0.939339828,34.0606602 C0.667893219,33.7892136 0.5,33.4142136 0.5,33 L0.5,33 L0.5,2 C0.5,1.58578644 0.667893219,1.21078644 0.939339828,0.939339828 C1.21078644,0.667893219 1.58578644,0.5 2,0.5 L2,0.5 Z" id="矩形备份-22" stroke="#28B8BB" fill="#E7F7F8"></path>
                                <text id="编码压缩" font-family="PingFangSC-Regular, PingFang SC" font-size="14" font-weight="normal" fill="#28B8BB">
                                    <tspan x="36" y="23">编码压缩</tspan>
                                </text>
                            </g>
                            <g id="编组-36" transform="translate(0.000000, 124.000000)">
                                <path d="M126,0.5 C126.414214,0.5 126.789214,0.667893219 127.06066,0.939339828 C127.332107,1.21078644 127.5,1.58578644 127.5,2 L127.5,2 L127.5,34 C127.5,34.4142136 127.332107,34.7892136 127.06066,35.0606602 C126.789214,35.3321068 126.414214,35.5 126,35.5 L126,35.5 L2,35.5 C1.58578644,35.5 1.21078644,35.3321068 0.939339828,35.0606602 C0.667893219,34.7892136 0.5,34.4142136 0.5,34 L0.5,34 L0.5,2 C0.5,1.58578644 0.667893219,1.21078644 0.939339828,0.939339828 C1.21078644,0.667893219 1.58578644,0.5 2,0.5 L2,0.5 Z" id="矩形备份-23" stroke="#28B8BB" fill="#E7F7F8"></path>
                                <text id="推流传输" font-family="PingFangSC-Regular, PingFang SC" font-size="14" font-weight="normal" fill="#28B8BB">
                                    <tspan x="36" y="23">推流传输</tspan>
                                </text>
                            </g>
                        </g>
                        <text id="采集端" font-family="PingFangSC-Medium, PingFang SC" font-size="18" font-weight="400" fill="#FFFFFF">
                            <tspan x="73" y="29">采集端</tspan>
                        </text>
                        <g id="编组-43" transform="translate(16.000000, 51.000000)">
                            <text id="安卓备份" font-family="PingFangSC-Regular, PingFang SC" font-size="14" font-weight="normal" fill="#28B8BB">
                                <tspan x="0" y="41">安卓</tspan>
                            </text>
                            <text id="iOS" font-family="PingFangSC-Regular, PingFang SC" font-size="14" font-weight="normal" fill="#28B8BB">
                                <tspan x="53" y="41">iOS</tspan>
                            </text>
                            <g id="ios备份-2" transform="translate(52.000000, 0.000000)" fill-rule="nonzero">
                                <rect id="矩形" fill="#000000" opacity="0" x="0" y="0" width="24" height="24"></rect>
                                <path d="M15.2680129,5.22015971 C15.9168721,4.38431208 16.4084691,3.20419349 16.2313758,2 C15.1688162,2.07365285 13.929204,2.75085102 13.2067124,3.63201249 C12.5464891,4.4310541 12.0039063,5.61825234 12.2150105,6.7714601 C13.376726,6.80828653 14.5724117,6.11552129 15.2680129,5.22015971 Z M21,16.5524565 C20.5353138,17.5823927 20.3129066,18.0442225 19.7150536,18.9565794 C18.8791652,20.231651 17.7033107,21.8183496 16.2455147,21.8296934 C14.9506324,21.8438527 14.6162974,20.9853175 12.8595851,20.9952331 C11.1028728,21.0051487 10.7345474,21.8466886 9.43823683,21.8340606 C7.98046128,21.819737 6.86691588,20.3888723 6.03247602,19.1138619 C3.69917007,15.5522467 3.45409582,11.3715396 4.8920402,9.14730516 C5.91630446,7.56909394 7.52995475,6.64682153 9.04722385,6.64682153 C10.5914446,6.64682153 11.5618872,7.49542069 12.8411821,7.49542069 C14.0807942,7.49542069 14.835889,6.64539335 16.6209402,6.64539335 C17.9725006,6.64539335 19.4047935,7.38210547 20.4247937,8.65713627 C17.0827701,10.4917655 17.623986,15.2731412 21,16.5538439 L21,16.5524565 L21,16.5524565 L21,16.5524565 Z" id="形状" fill="#28B8BB"></path>
                            </g>
                            <g id="安卓备份-2" transform="translate(2.000000, 0.000000)" fill-rule="nonzero">
                                <rect id="矩形" fill="#000000" opacity="0" x="0" y="0" width="24" height="24"></rect>
                                <path d="M19.889116,8.25588864 C19.1818423,8.25588864 18.5959323,8.81588948 18.5959323,9.49589049 L18.5959323,14.3181704 C18.5959323,14.9981714 19.1618422,15.5586268 19.889116,15.5586268 C20.5959323,15.5586268 21.1818452,14.9981714 21.1818452,14.3177159 L21.1818452,9.49634503 C21.1618452,8.81634401 20.5959323,8.25634318 19.889116,8.2563432 L19.889116,8.25588864 Z M4.29272921,8.25588864 C3.58636452,8.25588864 3,8.81588948 3,9.49543594 L3,14.3181704 C3,14.9981714 3.56545538,15.5586268 4.29272921,15.5586268 C5.02000301,15.5586268 5.58591294,14.9981714 5.58591294,14.3177159 L5.58591294,9.49634503 C5.58591294,8.81634401 5.02000299,8.25634318 4.29272921,8.2563432 L4.29272921,8.25588864 Z M6.37364138,8.29588871 L6.37364138,17.1186291 C6.37364138,17.6386299 6.8181875,18.0786305 7.38364289,18.0786305 L8.5354628,18.0786305 L8.5354628,20.7595436 C8.5354628,21.4399992 9.10091818,22 9.82819198,22 C10.5354658,22 11.1213757,21.4399992 11.1213757,20.7595436 L11.1213757,18.0786305 L13.1413787,18.0786305 L13.1413787,20.7595436 C13.1413787,21.4399992 13.7072887,22 14.4345625,22 C15.1409272,22 15.7272917,21.4399992 15.7272917,20.7595436 L15.7272917,18.0786305 L16.878657,18.0786305 C17.444567,18.0786305 17.8891131,17.6586299 17.8891131,17.1186291 L17.8891131,8.29543417 L6.37364138,8.29543417 L6.37364138,8.29588871 Z M14.8181994,3.73406374 L15.8891101,2.29360704 C15.9291102,2.19360689 15.9291102,2.07360671 15.8282009,2.03360666 C15.7472917,1.97360658 15.6263824,2.01360664 15.5654732,2.09360675 L14.4745625,3.59406353 C13.7099386,3.31856362 12.9036612,3.17649643 12.0909226,3.17406291 C11.242285,3.17406291 10.4345565,3.31406311 9.7072827,3.59406353 L8.616372,2.09406129 C8.55546282,1.99406114 8.43455353,1.97360656 8.35364433,2.03360666 C8.27181091,2.09487193 8.25366924,2.21017228 8.31273518,2.29360704 L9.38364586,3.73451828 C7.70727973,4.47451938 6.51545978,5.87497601 6.37364138,7.515433 L17.869113,7.515433 C17.6872946,5.87452148 16.5150201,4.4745194 14.8181994,3.73406374 L14.8181994,3.73406374 Z M9.6668281,6.01497622 C9.3031912,6.01497622 9.04046354,5.75497583 9.04046354,5.41497533 C9.04046354,5.07452027 9.32319124,4.81497443 9.6668281,4.81497443 C10.030465,4.81497443 10.2927381,5.07452027 10.2927381,5.41497533 C10.2927381,5.75497583 10.0100104,6.01497622 9.6668281,6.01497622 Z M14.5959264,6.01497622 C14.2322895,6.01497622 13.9695618,5.75497583 13.9695618,5.41497533 C13.9695618,5.07452027 14.252744,4.81497443 14.5959264,4.81497443 C14.9595633,4.81497443 15.2222909,5.07452027 15.2222909,5.41497533 C15.2222909,5.75497583 14.9395632,6.01497622 14.5959264,6.01497622 Z" id="形状" fill="#28B8BB"></path>
                            </g>
                            <g id="摄像头" transform="translate(97.000000, 0.000000)">
                                <rect id="矩形" fill="#000000" fill-rule="nonzero" opacity="0" x="22" y="0" width="24" height="24"></rect>
                                <path d="M35.8867187,9.1828125 C35.3546875,8.65078125 34.7335937,8.3953125 34,8.3953125 C33.2664062,8.3953125 32.6453125,8.65078125 32.1132812,9.1828125 C31.58125,9.69609375 31.3257812,10.3171875 31.3257812,11.0507812 C31.3257812,11.784375 31.58125,12.4054687 32.1132812,12.91875 C32.6429687,13.4320312 33.2664062,13.6875 34,13.6875 C34.7335937,13.6875 35.3546875,13.4320312 35.8867187,12.91875 C36.41875,12.4054687 36.6742187,11.784375 36.6742187,11.0507812 C36.6742187,10.3171875 36.4164062,9.69609375 35.8867187,9.1828125 L35.8867187,9.1828125 Z M35.8867187,9.1828125 C35.3546875,8.65078125 34.7335937,8.3953125 34,8.3953125 C33.2664062,8.3953125 32.6453125,8.65078125 32.1132812,9.1828125 C31.58125,9.69609375 31.3257812,10.3171875 31.3257812,11.0507812 C31.3257812,11.784375 31.58125,12.4054687 32.1132812,12.91875 C32.6429687,13.4320312 33.2664062,13.6875 34,13.6875 C34.7335937,13.6875 35.3546875,13.4320312 35.8867187,12.91875 C36.41875,12.4054687 36.6742187,11.784375 36.6742187,11.0507812 C36.6742187,10.3171875 36.4164062,9.69609375 35.8867187,9.1828125 L35.8867187,9.1828125 Z M35.8867187,9.1828125 C35.3546875,8.65078125 34.7335937,8.3953125 34,8.3953125 C33.2664062,8.3953125 32.6453125,8.65078125 32.1132812,9.1828125 C31.58125,9.69609375 31.3257812,10.3171875 31.3257812,11.0507812 C31.3257812,11.784375 31.58125,12.4054687 32.1132812,12.91875 C32.6429687,13.4320312 33.2664062,13.6875 34,13.6875 C34.7335937,13.6875 35.3546875,13.4320312 35.8867187,12.91875 C36.41875,12.4054687 36.6742187,11.784375 36.6742187,11.0507812 C36.6742187,10.3171875 36.4164062,9.69609375 35.8867187,9.1828125 L35.8867187,9.1828125 Z" id="形状" fill="#28B8BB" fill-rule="nonzero"></path>
                                <path d="M40.9398438,15.0421875 C41.6546875,13.8164062 42.0203125,12.496875 42.0203125,11.0507812 C42.0203125,9.6046875 41.6546875,8.28515625 40.9398438,7.059375 C40.225,5.83125 39.2359375,4.8796875 38.0101563,4.1671875 C36.7820313,3.45234375 35.4460938,3.10546875 34,3.10546875 C32.5539063,3.10546875 31.1992188,3.45234375 29.9710938,4.1671875 C28.7453125,4.88203125 27.7726563,5.83359375 27.0601563,7.059375 C26.3453125,8.28515625 25.9796875,9.6046875 25.9796875,11.0507812 C25.9796875,12.496875 26.3453125,13.8164062 27.0601563,15.0421875 C27.6507813,16.0570312 28.4171875,16.884375 29.359375,17.5429688 C28.1992188,17.8992188 27.484375,18.3867188 27.484375,18.9257812 C27.484375,20.0132813 30.4023438,20.8945312 34,20.8945312 C37.5976563,20.8945312 40.515625,20.0132813 40.515625,18.9257812 C40.515625,18.384375 39.7960938,17.896875 38.6289063,17.540625 C39.5734375,16.8820312 40.3492188,16.0570313 40.9398438,15.0421875 Z M30.9414063,8.0296875 C31.7828125,7.18828125 32.809375,6.76640625 34,6.76640625 C35.190625,6.76640625 36.2148438,7.18828125 37.0585938,8.0296875 C37.9,8.8546875 38.321875,9.86015625 38.321875,11.0507812 C38.321875,12.2414062 37.9,13.2492188 37.0585938,14.071875 C36.2171875,14.896875 35.190625,15.3164062 34,15.3164062 C32.809375,15.3164062 31.7851563,14.8945312 30.9414063,14.071875 C30.1,13.246875 29.678125,12.2414062 29.678125,11.0507812 C29.678125,9.8625 30.1,8.8546875 30.9414063,8.0296875 Z" id="形状" fill="#28B8BB" fill-rule="nonzero"></path>
                                <text id="IP-Camera" font-family="PingFangSC-Regular, PingFang SC" font-size="14" font-weight="normal" fill="#28B8BB">
                                    <tspan x="0" y="41">IP Camera</tspan>
                                </text>
                            </g>
                        </g>
                    </g>
                    <g id="编组-20" transform="translate(0.000000, 346.000000)">
                        <path d="M2,0 L198,0 C199.104569,-1.58997828e-14 200,0.8954305 200,2 L200,248 C200,249.104569 199.104569,250 198,250 L2,250 C0.8954305,250 1.3527075e-16,249.104569 0,248 L0,2 C-1.3527075e-16,0.8954305 0.8954305,2.02906125e-16 2,0 Z" id="矩形备份-24" fill="#28B8BB" opacity="0.110165551"></path>
                        <path d="M17,17 L183,17 C184.104569,17 185,17.8954305 185,19 L185,231 C185,232.104569 184.104569,233 183,233 L17,233 C15.8954305,233 15,232.104569 15,231 L15,19 C15,17.8954305 15.8954305,17 17,17 Z" id="矩形备份-25" fill="#FFFFFF" opacity="0.85"></path>
                        <text id="云导播台" font-family="PingFangSC-Medium, PingFang SC" font-size="16" font-weight="400" fill="#28B8BB">
                            <tspan x="68" y="42">云导播台</tspan>
                        </text>
                        <path d="M162,54.5 C162.414214,54.5 162.789214,54.6678932 163.06066,54.9393398 C163.332107,55.2107864 163.5,55.5857864 163.5,56 L163.5,56 L163.5,88 C163.5,88.4142136 163.332107,88.7892136 163.06066,89.0606602 C162.789214,89.3321068 162.414214,89.5 162,89.5 L162,89.5 L38,89.5 C37.5857864,89.5 37.2107864,89.3321068 36.9393398,89.0606602 C36.6678932,88.7892136 36.5,88.4142136 36.5,88 L36.5,88 L36.5,56 C36.5,55.5857864 36.6678932,55.2107864 36.9393398,54.9393398 C37.2107864,54.6678932 37.5857864,54.5 38,54.5 L38,54.5 Z" id="矩形备份-26" stroke="#28B8BB" fill="#E7F7F8"></path>
                        <path d="M162,96.5 C162.414214,96.5 162.789214,96.6678932 163.06066,96.9393398 C163.332107,97.2107864 163.5,97.5857864 163.5,98 L163.5,98 L163.5,130 C163.5,130.414214 163.332107,130.789214 163.06066,131.06066 C162.789214,131.332107 162.414214,131.5 162,131.5 L162,131.5 L38,131.5 C37.5857864,131.5 37.2107864,131.332107 36.9393398,131.06066 C36.6678932,130.789214 36.5,130.414214 36.5,130 L36.5,130 L36.5,98 C36.5,97.5857864 36.6678932,97.2107864 36.9393398,96.9393398 C37.2107864,96.6678932 37.5857864,96.5 38,96.5 L38,96.5 Z" id="矩形备份-27" stroke="#28B8BB" fill="#E7F7F8"></path>
                        <path d="M162,138.5 C162.414214,138.5 162.789214,138.667893 163.06066,138.93934 C163.332107,139.210786 163.5,139.585786 163.5,140 L163.5,140 L163.5,172 C163.5,172.414214 163.332107,172.789214 163.06066,173.06066 C162.789214,173.332107 162.414214,173.5 162,173.5 L162,173.5 L38,173.5 C37.5857864,173.5 37.2107864,173.332107 36.9393398,173.06066 C36.6678932,172.789214 36.5,172.414214 36.5,172 L36.5,172 L36.5,140 C36.5,139.585786 36.6678932,139.210786 36.9393398,138.93934 C37.2107864,138.667893 37.5857864,138.5 38,138.5 L38,138.5 Z" id="矩形备份-28" stroke="#28B8BB" fill="#E7F7F8"></path>
                        <text id="直播流" font-family="PingFangSC-Regular, PingFang SC" font-size="14" font-weight="normal" fill="#28B8BB">
                            <tspan x="79" y="77">直播流</tspan>
                        </text>
                        <text id="图片" font-family="PingFangSC-Regular, PingFang SC" font-size="14" font-weight="normal" fill="#28B8BB">
                            <tspan x="86" y="119">图片</tspan>
                        </text>
                        <text id="音视频文件" font-family="PingFangSC-Regular, PingFang SC" font-size="14" font-weight="normal" fill="#28B8BB">
                            <tspan x="65" y="161">音视频文件</tspan>
                        </text>
                        <path d="M162,180.5 C162.414214,180.5 162.789214,180.667893 163.06066,180.93934 C163.332107,181.210786 163.5,181.585786 163.5,182 L163.5,182 L163.5,214 C163.5,214.414214 163.332107,214.789214 163.06066,215.06066 C162.789214,215.332107 162.414214,215.5 162,215.5 L162,215.5 L38,215.5 C37.5857864,215.5 37.2107864,215.332107 36.9393398,215.06066 C36.6678932,214.789214 36.5,214.414214 36.5,214 L36.5,214 L36.5,182 C36.5,181.585786 36.6678932,181.210786 36.9393398,180.93934 C37.2107864,180.667893 37.5857864,180.5 38,180.5 L38,180.5 L162,180.5 Z" id="矩形备份-29" stroke="#28B8BB" fill="#E7F7F8"></path>
                        <text id="文字水印" font-family="PingFangSC-Regular, PingFang SC" font-size="14" font-weight="normal" fill="#28B8BB">
                            <tspan x="72" y="203">文字水印</tspan>
                        </text>
                        <g id="更多" transform="translate(92.000000, 217.000000)" fill-rule="nonzero">
                            <rect id="矩形" fill="#000000" opacity="0" x="0" y="0" width="16" height="16"></rect>
                            <path d="M0,7.81816994 C0,8.82231747 0.814022408,9.63633988 1.81816994,9.63633988 C2.82231747,9.63633988 3.63633987,8.82231747 3.63633987,7.81816994 C3.63633987,6.81402241 2.82231747,6 1.81816994,6 C0.814022408,6 0,6.81402241 0,7.81816994 Z M6.18183006,7.81816994 C6.18183006,8.4677395 6.52837128,9.06796654 7.09091502,9.39275132 C7.65345876,9.71753611 8.34654124,9.71753611 8.90908498,9.39275132 C9.47162872,9.06796654 9.81816994,8.4677395 9.81816994,7.81816994 C9.81816994,6.81402241 9.00414753,6 8,6 C6.99585247,6 6.18183006,6.81402241 6.18183006,7.81816994 L6.18183006,7.81816994 Z M12.3636601,7.81816994 C12.3636601,8.82231747 13.1776825,9.63633988 14.1818301,9.63633988 C15.1859776,9.63633988 16,8.82231747 16,7.81816994 C16,6.81402241 15.1859776,6 14.1818301,6 C13.1776825,6 12.3636601,6.81402241 12.3636601,7.81816994 Z" id="形状" fill="#28B8BB"></path>
                        </g>
                    </g>
                    <path d="M760,1 C760.276142,1 760.526142,1.11192881 760.707107,1.29289322 C760.888071,1.47385763 761,1.72385763 761,2 L761,2 L761,78 C761,78.2761424 760.888071,78.5261424 760.707107,78.7071068 C760.526142,78.8880712 760.276142,79 760,79 L760,79 L342,79 C341.723858,79 341.473858,78.8880712 341.292893,78.7071068 C341.111929,78.5261424 341,78.2761424 341,78 L341,78 L341,2 C341,1.72385763 341.111929,1.47385763 341.292893,1.29289322 C341.473858,1.11192881 341.723858,1 342,1 L342,1 Z" id="矩形" stroke="#00AAE7" stroke-width="2" fill="#EBF9FD"></path>
                    <g id="编组-84" transform="translate(483.000000, 22.000000)">
                        <text id="业务服务器" font-family="PingFangSC-Medium, PingFang SC" font-size="18" font-weight="400" fill="#00AAE7">
                            <tspan x="47" y="25">业务服务器</tspan>
                        </text>
                        <g id="业务服务器" fill-rule="nonzero">
                            <rect id="矩形" fill="#000000" opacity="0" x="0" y="0" width="36" height="36"></rect>
                            <path d="M35.4375,17.5 L31.5,17.5 L31.5,4.5625 C31.5,4.25183983 31.2481602,4 30.9375,4 L12.375,4 C12.0643398,4 11.8125,4.25183983 11.8125,4.5625 L11.8125,7.9375 L5.0625,7.9375 C4.75183983,7.9375 4.5,8.18933983 4.5,8.5 L4.5,17.5 L0.5625,17.5 C0.251839828,17.5 0,17.7518398 0,18.0625 L0,30.4375 C0,30.7481602 0.251839828,31 0.5625,31 L35.4375,31 C35.7481602,31 36,30.7481602 36,30.4375 L36,18.0625 C36,17.7518398 35.7481602,17.5 35.4375,17.5 Z M11.8125,17.5 L7.875,17.5 L7.875,11.3125 L11.8125,11.3125 L11.8125,17.5 Z M28.125,17.5 L15.1875,17.5 L15.1875,7.375 L28.125,7.375 L28.125,17.5 Z" id="形状" fill="#00AAE7"></path>
                            <polygon id="路径" fill="#00AAE7" points="18 10 26 10 26 13 18 13"></polygon>
                            <polygon id="路径" fill="#00AAE7" points="17 13 23 13 23 16 17 16"></polygon>
                            <polygon id="路径" fill="#FFFFFF" points="27 22 30 22 30 26 27 26"></polygon>
                            <polygon id="路径" fill="#FFFFFF" points="22 22 25 22 25 26 22 26"></polygon>
                            <polygon id="路径" fill="#FFFFFF" points="6 22 10 22 10 26 6 26"></polygon>
                            <polygon id="路径" fill="#FFFFFF" points="12 22 16 22 16 26 12 26"></polygon>
                        </g>
                    </g>
                    <g id="编组-86" transform="translate(208.000000, 14.000000)">
                        <path id="路径-4" d="M112.5,22 L121.5,26.5 L112.5,31 L112.5,27 L9.5,27 L9.5,31 L0.5,26.5 L9.5,22 L9.5,26 L112.5,26 L112.5,22 Z" fill="#1AB9EB" fill-rule="nonzero"></path>
                        <g id="编组-19" transform="translate(19.000000, 0.000000)">
                            <path d="M82,0.5 C82.4142136,0.5 82.7892136,0.667893219 83.0606602,0.939339828 C83.3321068,1.21078644 83.5,1.58578644 83.5,2 L83.5,2 L83.5,50 C83.5,50.4142136 83.3321068,50.7892136 83.0606602,51.0606602 C82.7892136,51.3321068 82.4142136,51.5 82,51.5 L82,51.5 L2,51.5 C1.58578644,51.5 1.21078644,51.3321068 0.939339828,51.0606602 C0.667893219,50.7892136 0.5,50.4142136 0.5,50 L0.5,50 L0.5,2 C0.5,1.58578644 0.667893219,1.21078644 0.939339828,0.939339828 C1.21078644,0.667893219 1.58578644,0.5 2,0.5 L2,0.5 Z" id="矩形备份-3" stroke="#1AB9EB" fill="#E2F5FC"></path>
                            <text id="授权并获取推流地址" font-family="PingFangSC-Regular, PingFang SC" font-size="14" font-weight="normal" fill="#00AAE7">
                                <tspan x="8" y="21">授权并获取</tspan>
                                <tspan x="8" y="41">推流地址</tspan>
                            </text>
                        </g>
                        <g id="编组-44" transform="translate(1.000000, 513.000000)">
                            <path id="路径-3备份" d="M111.5,12 L120.5,16.5 L111.5,21 L111.5,17 L0,17 L0,16 L111.5,16 L111.5,12 Z" fill="#1AB9EB" fill-rule="nonzero"></path>
                            <g id="编组-2备份-2" transform="translate(30.000000, 0.000000)">
                                <path d="M58,0.5 C58.4142136,0.5 58.7892136,0.667893219 59.0606602,0.939339828 C59.3321068,1.21078644 59.5,1.58578644 59.5,2 L59.5,2 L59.5,30 C59.5,30.4142136 59.3321068,30.7892136 59.0606602,31.0606602 C58.7892136,31.3321068 58.4142136,31.5 58,31.5 L58,31.5 L2,31.5 C1.58578644,31.5 1.21078644,31.3321068 0.939339828,31.0606602 C0.667893219,30.7892136 0.5,30.4142136 0.5,30 L0.5,30 L0.5,2 C0.5,1.58578644 0.667893219,1.21078644 0.939339828,0.939339828 C1.21078644,0.667893219 1.58578644,0.5 2,0.5 L2,0.5 Z" id="矩形备份-3" stroke="#1AB9EB" fill="#E2F5FC"></path>
                                <text id="RTMP" font-family="PingFangSC-Regular, PingFang SC" font-size="14" font-weight="normal" fill="#00AAE7">
                                    <tspan x="10" y="21">RTMP</tspan>
                                </text>
                            </g>
                        </g>
                        <g id="编组-45" transform="translate(1.000000, 274.000000)">
                            <path id="路径-3" d="M111.5,10 L120.5,14.5 L111.5,19 L111.5,15 L0,15 L0,14 L111.5,14 L111.5,10 Z" fill="#1AB9EB" fill-rule="nonzero"></path>
                            <g id="编组-2备份" transform="translate(30.000000, 0.000000)">
                                <path d="M58,0.5 C58.4142136,0.5 58.7892136,0.667893219 59.0606602,0.939339828 C59.3321068,1.21078644 59.5,1.58578644 59.5,2 L59.5,2 L59.5,26 C59.5,26.4142136 59.3321068,26.7892136 59.0606602,27.0606602 C58.7892136,27.3321068 58.4142136,27.5 58,27.5 L58,27.5 L2,27.5 C1.58578644,27.5 1.21078644,27.3321068 0.939339828,27.0606602 C0.667893219,26.7892136 0.5,26.4142136 0.5,26 L0.5,26 L0.5,2 C0.5,1.58578644 0.667893219,1.21078644 0.939339828,0.939339828 C1.21078644,0.667893219 1.58578644,0.5 2,0.5 L2,0.5 Z" id="矩形备份-3" stroke="#1AB9EB" fill="#E2F5FC"></path>
                                <text id="RTMP" font-family="PingFangSC-Regular, PingFang SC" font-size="14" font-weight="normal" fill="#00AAE7">
                                    <tspan x="11" y="19">RTMP</tspan>
                                </text>
                            </g>
                        </g>
                        <g id="编组-45" transform="translate(0.000000, 222.000000)">
                            <path id="路径-3" d="M111.5,10 L120.5,14.5 L111.5,19 L111.5,15 L0,15 L0,14 L111.5,14 L111.5,10 Z" fill="#1AB9EB" fill-rule="nonzero"></path>
                            <g id="编组-2备份" transform="translate(30.000000, 0.000000)">
                                <path d="M58,0.5 C58.4142136,0.5 58.7892136,0.667893219 59.0606602,0.939339828 C59.3321068,1.21078644 59.5,1.58578644 59.5,2 L59.5,2 L59.5,26 C59.5,26.4142136 59.3321068,26.7892136 59.0606602,27.0606602 C58.7892136,27.3321068 58.4142136,27.5 58,27.5 L58,27.5 L2,27.5 C1.58578644,27.5 1.21078644,27.3321068 0.939339828,27.0606602 C0.667893219,26.7892136 0.5,26.4142136 0.5,26 L0.5,26 L0.5,2 C0.5,1.58578644 0.667893219,1.21078644 0.939339828,0.939339828 C1.21078644,0.667893219 1.58578644,0.5 2,0.5 L2,0.5 Z" id="矩形备份-3" stroke="#1AB9EB" fill="#E2F5FC"></path>
                                <text id="SRT" font-family="PingFangSC-Regular, PingFang SC" font-size="14" font-weight="normal" fill="#00AAE7">
                                    <tspan x="17" y="19">SRT</tspan>
                                </text>
                            </g>
                        </g>
                    </g>
                    <path id="路径-5" d="M800.5,44.5 L791.5,40 L800.5,35.5 L800.5,39.5 L1002.5,39.5 L1002.5,182.5 L1006.5,182.5 L1002,191.5 L997.5,182.5 L1001.5,182.5 L1001.5,40.5 L800.5,40.5 L800.5,44.5 Z" fill="#1AB9EB" fill-rule="nonzero"></path>
                    <g id="编组-2备份-4" transform="translate(928.000000, 87.000000)">
                        <path d="M146,0.5 C146.414214,0.5 146.789214,0.667893219 147.06066,0.939339828 C147.332107,1.21078644 147.5,1.58578644 147.5,2 L147.5,2 L147.5,30 C147.5,30.4142136 147.332107,30.7892136 147.06066,31.0606602 C146.789214,31.3321068 146.414214,31.5 146,31.5 L146,31.5 L2,31.5 C1.58578644,31.5 1.21078644,31.3321068 0.939339828,31.0606602 C0.667893219,30.7892136 0.5,30.4142136 0.5,30 L0.5,30 L0.5,2 C0.5,1.58578644 0.667893219,1.21078644 0.939339828,0.939339828 C1.21078644,0.667893219 1.58578644,0.5 2,0.5 L2,0.5 Z" id="矩形备份-3" stroke="#1AB9EB" fill="#E2F5FC"></path>
                        <text id="授权并获取拉流地址" font-family="PingFangSC-Regular, PingFang SC" font-size="14" font-weight="normal" fill="#00AAE7">
                            <tspan x="11" y="21">授权并获取拉流地址</tspan>
                        </text>
                    </g>
                    <path id="路径-6" d="M550.720236,86.5000039 L555.184487,95.5177901 L551.184,95.501 L550.815,188.501 L554.815442,188.517058 L550.279764,197.49913 L545.815513,188.481344 L549.815,188.497 L550.184,95.498 L546.184558,95.4820761 L550.720236,86.5000039 Z" fill="#1AB9EB" fill-rule="nonzero"></path>
                    <g id="编组-23" transform="translate(340.000000, 118.000000)">
                        <path d="M420,0.5 C420.414214,0.5 420.789214,0.667893219 421.06066,0.939339828 C421.332107,1.21078644 421.5,1.58578644 421.5,2 L421.5,2 L421.5,42 C421.5,42.4142136 421.332107,42.7892136 421.06066,43.0606602 C420.789214,43.3321068 420.414214,43.5 420,43.5 L420,43.5 L2,43.5 C1.58578644,43.5 1.21078644,43.3321068 0.939339828,43.0606602 C0.667893219,42.7892136 0.5,42.4142136 0.5,42 L0.5,42 L0.5,2 C0.5,1.58578644 0.667893219,1.21078644 0.939339828,0.939339828 C1.21078644,0.667893219 1.58578644,0.5 2,0.5 L2,0.5 Z" id="矩形备份" stroke="#1AB9EB" fill="#E2F5FC"></path>
                        <text id="服务端-SDK" font-family="PingFangSC-Regular, PingFang SC" font-size="18" font-weight="normal" fill="#00AAE7">
                            <tspan x="167" y="28">服务端 SDK</tspan>
                        </text>
                    </g>
                    <g id="编组-85" transform="translate(772.000000, 419.000000)">
                        <path id="路径-3备份-2" d="M111.5,12 L120.5,16.5 L111.5,21 L111.5,17 L0,17 L0,16 L111.5,16 L111.5,12 Z" fill="#1AB9EB" fill-rule="nonzero"></path>
                        <path id="路径-3备份-3" d="M111.5,68 L120.5,72.5 L111.5,77 L111.5,73 L0,73 L0,72 L111.5,72 L111.5,68 Z" fill="#1AB9EB" fill-rule="nonzero"></path>
                        <path id="路径-3备份-4" d="M111.5,124 L120.5,128.5 L111.5,133 L111.5,129 L0,129 L0,128 L111.5,128 L111.5,124 Z" fill="#1AB9EB" fill-rule="nonzero"></path>
                        <g id="编组-2备份-5" transform="translate(30.000000, 0.000000)">
                            <path d="M58,0.5 C58.4142136,0.5 58.7892136,0.667893219 59.0606602,0.939339828 C59.3321068,1.21078644 59.5,1.58578644 59.5,2 L59.5,2 L59.5,30 C59.5,30.4142136 59.3321068,30.7892136 59.0606602,31.0606602 C58.7892136,31.3321068 58.4142136,31.5 58,31.5 L58,31.5 L2,31.5 C1.58578644,31.5 1.21078644,31.3321068 0.939339828,31.0606602 C0.667893219,30.7892136 0.5,30.4142136 0.5,30 L0.5,30 L0.5,2 C0.5,1.58578644 0.667893219,1.21078644 0.939339828,0.939339828 C1.21078644,0.667893219 1.58578644,0.5 2,0.5 L2,0.5 Z" id="矩形备份-3" stroke="#1AB9EB" fill="#E2F5FC"></path>
                            <text id="RTMP" font-family="PingFangSC-Regular, PingFang SC" font-size="14" font-weight="normal" fill="#00AAE7">
                                <tspan x="10" y="21">RTMP</tspan>
                            </text>
                        </g>
                        <g id="编组-2备份-6" transform="translate(30.000000, 56.000000)">
                            <path d="M58,0.5 C58.4142136,0.5 58.7892136,0.667893219 59.0606602,0.939339828 C59.3321068,1.21078644 59.5,1.58578644 59.5,2 L59.5,2 L59.5,30 C59.5,30.4142136 59.3321068,30.7892136 59.0606602,31.0606602 C58.7892136,31.3321068 58.4142136,31.5 58,31.5 L58,31.5 L2,31.5 C1.58578644,31.5 1.21078644,31.3321068 0.939339828,31.0606602 C0.667893219,30.7892136 0.5,30.4142136 0.5,30 L0.5,30 L0.5,2 C0.5,1.58578644 0.667893219,1.21078644 0.939339828,0.939339828 C1.21078644,0.667893219 1.58578644,0.5 2,0.5 L2,0.5 Z" id="矩形备份-3" stroke="#1AB9EB" fill="#E2F5FC"></path>
                            <text id="HLS" font-family="PingFangSC-Regular, PingFang SC" font-size="14" font-weight="normal" fill="#00AAE7">
                                <tspan x="16" y="21">HLS</tspan>
                            </text>
                        </g>
                        <g id="编组-2备份-7" transform="translate(30.000000, 112.000000)">
                            <path d="M58,0.5 C58.4142136,0.5 58.7892136,0.667893219 59.0606602,0.939339828 C59.3321068,1.21078644 59.5,1.58578644 59.5,2 L59.5,2 L59.5,30 C59.5,30.4142136 59.3321068,30.7892136 59.0606602,31.0606602 C58.7892136,31.3321068 58.4142136,31.5 58,31.5 L58,31.5 L2,31.5 C1.58578644,31.5 1.21078644,31.3321068 0.939339828,31.0606602 C0.667893219,30.7892136 0.5,30.4142136 0.5,30 L0.5,30 L0.5,2 C0.5,1.58578644 0.667893219,1.21078644 0.939339828,0.939339828 C1.21078644,0.667893219 1.58578644,0.5 2,0.5 L2,0.5 Z" id="矩形备份-3" stroke="#1AB9EB" fill="#E2F5FC"></path>
                            <text id="HDL" font-family="PingFangSC-Regular, PingFang SC" font-size="14" font-weight="normal" fill="#00AAE7">
                                <tspan x="16" y="21">HDL</tspan>
                            </text>
                        </g>
                    </g>
                </g>
            </g>
        </g>
    </g>
</svg>