<?xml version="1.0" encoding="UTF-8"?>
<svg width="1081px" height="689px" viewBox="0 0 1081 689" version="1.1" xmlns="http://www.w3.org/2000/svg" xmlns:xlink="http://www.w3.org/1999/xlink">
    <title>编组 7</title>
    <g id="产品" stroke="none" stroke-width="1" fill="none" fill-rule="evenodd">
        <g id="基础服务-直播✅" transform="translate(-420.000000, -1486.000000)">
            <g id="产品规格" transform="translate(0.000000, 1339.000000)">
                <g id="编组-7" transform="translate(420.000000, 148.000000)">
                    <path d="M327,223 L754,223 C755.104569,223 756,223.895431 756,225 L756,686 C756,687.104569 755.104569,688 754,688 L327,688 C325.895431,688 325,687.104569 325,686 L325,225 C325,223.895431 325.895431,223 327,223 Z" id="矩形" fill="#00AAE7" opacity="0.08"></path>
                    <path d="M859,339 L1079,339 C1080.10457,339 1081,339.895431 1081,341 L1081,686 C1081,687.104569 1080.10457,688 1079,688 L859,688 C857.895431,688 857,687.104569 857,686 L857,341 C857,339.895431 857.895431,339 859,339 Z" id="矩形" fill="#28B8BB" opacity="0.110165551"></path>
                    <path d="M2,93 L222,93 C223.104569,93 224,93.8954305 224,95 L224,425 C224,426.104569 223.104569,427 222,427 L2,427 C0.8954305,427 1.3527075e-16,426.104569 0,425 L0,95 C-1.3527075e-16,93.8954305 0.8954305,93 2,93 Z" id="矩形备份-18" fill="#28B8BB" opacity="0.110165551"></path>
                    <rect id="矩形" fill-opacity="0.85" fill="#28B8BB" x="0" y="94" width="224" height="44"></rect>
                    <rect id="矩形备份-2" fill-opacity="0.85" fill="#28B8BB" x="857" y="339" width="224" height="44"></rect>
                    <path d="M2,437 L222,437 C223.104569,437 224,437.895431 224,439 L224,686 C224,687.104569 223.104569,688 222,688 L2,688 C0.8954305,688 1.3527075e-16,687.104569 0,686 L0,439 C-1.3527075e-16,437.895431 0.8954305,437 2,437 Z" id="矩形备份-24" fill="#28B8BB" opacity="0.110165551"></path>
                    <path d="M345,364 L736,364 C737.104569,364 738,364.895431 738,366 L738,479 C738,480.104569 737.104569,481 736,481 L345,481 C343.895431,481 343,480.104569 343,479 L343,366 C343,364.895431 343.895431,364 345,364 Z" id="矩形备份-17" fill="#FFFFFF" opacity="0.85"></path>
                    <path d="M462,0 L619,0 C620.104569,-2.02906125e-16 621,0.8954305 621,2 L621,92 C621,93.1045695 620.104569,94 619,94 L462,94 C460.895431,94 460,93.1045695 460,92 L460,2 C460,0.8954305 460.895431,2.02906125e-16 462,0 Z" id="矩形" stroke="#00AAE7" stroke-width="2" fill="#EBF9FD"></path>
                    <path d="M435,291.5 L345,291.5 C344.585786,291.5 344.210786,291.667893 343.93934,291.93934 C343.667893,292.210786 343.5,292.585786 343.5,293 L343.5,322 C343.5,322.414214 343.667893,322.789214 343.93934,323.06066 C344.210786,323.332107 344.585786,323.5 345,323.5 L435,323.5 C435.414214,323.5 435.789214,323.332107 436.06066,323.06066 C436.332107,322.789214 436.5,322.414214 436.5,322 L436.5,293 C436.5,292.585786 436.332107,292.210786 436.06066,291.93934 C435.789214,291.667893 435.414214,291.5 435,291.5 Z" id="矩形备份-3" stroke="#1AB9EB" fill="#E2F5FC"></path>
                    <text id="按需收缩" font-family="PingFangSC-Regular, PingFang SC" font-size="14" font-weight="normal" fill="#00AAE7">
                        <tspan x="362" y="312">按需收缩</tspan>
                    </text>
                    <path d="M345,499 L467,499 C468.104569,499 469,499.895431 469,501 L469,578 C469,579.104569 468.104569,580 467,580 L345,580 C343.895431,580 343,579.104569 343,578 L343,501 C343,499.895431 343.895431,499 345,499 Z" id="矩形备份-8" fill="#FFFFFF" opacity="0.85"></path>
                    <path d="M345,589 L467,589 C468.104569,589 469,589.895431 469,591 L469,668 C469,669.104569 468.104569,670 467,670 L345,670 C343.895431,670 343,669.104569 343,668 L343,591 C343,589.895431 343.895431,589 345,589 Z" id="矩形备份-11" fill="#FFFFFF" opacity="0.85"></path>
                    <path d="M480,499 L602,499 C603.104569,499 604,499.895431 604,501 L604,578 C604,579.104569 603.104569,580 602,580 L480,580 C478.895431,580 478,579.104569 478,578 L478,501 C478,499.895431 478.895431,499 480,499 Z" id="矩形备份-9" fill="#FFFFFF" opacity="0.85"></path>
                    <text id="直播封面" font-family="PingFangSC-Regular, PingFang SC" font-size="14" font-weight="normal" fill="#00AAE7">
                        <tspan x="513" y="558">直播封面</tspan>
                    </text>
                    <path d="M480,589 L602,589 C603.104569,589 604,589.895431 604,591 L604,668 C604,669.104569 603.104569,670 602,670 L480,670 C478.895431,670 478,669.104569 478,668 L478,591 C478,589.895431 478.895431,589 480,589 Z" id="矩形备份-9" fill="#FFFFFF" opacity="0.85"></path>
                    <text id="自动鉴黄" font-family="PingFangSC-Regular, PingFang SC" font-size="14" font-weight="normal" fill="#00AAE7">
                        <tspan x="513" y="646">自动鉴黄</tspan>
                    </text>
                    <path d="M535,291.5 L446,291.5 C445.585786,291.5 445.210786,291.667893 444.93934,291.93934 C444.667893,292.210786 444.5,292.585786 444.5,293 L444.5,322 C444.5,322.414214 444.667893,322.789214 444.93934,323.06066 C445.210786,323.332107 445.585786,323.5 446,323.5 L535,323.5 C535.414214,323.5 535.789214,323.332107 536.06066,323.06066 C536.332107,322.789214 536.5,322.414214 536.5,322 L536.5,293 C536.5,292.585786 536.332107,292.210786 536.06066,291.93934 C535.789214,291.667893 535.414214,291.5 535,291.5 Z" id="矩形备份-4" stroke="#1AB9EB" fill="#E2F5FC"></path>
                    <text id="智能选线" font-family="PingFangSC-Regular, PingFang SC" font-size="14" font-weight="normal" fill="#00AAE7">
                        <tspan x="461" y="312">智能选线</tspan>
                    </text>
                    <path d="M635,291.5 L546,291.5 C545.585786,291.5 545.210786,291.667893 544.93934,291.93934 C544.667893,292.210786 544.5,292.585786 544.5,293 L544.5,322 C544.5,322.414214 544.667893,322.789214 544.93934,323.06066 C545.210786,323.332107 545.585786,323.5 546,323.5 L635,323.5 C635.414214,323.5 635.789214,323.332107 636.06066,323.06066 C636.332107,322.789214 636.5,322.414214 636.5,322 L636.5,293 C636.5,292.585786 636.332107,292.210786 636.06066,291.93934 C635.789214,291.667893 635.414214,291.5 635,291.5 Z" id="矩形备份-5" stroke="#1AB9EB" fill="#E2F5FC"></path>
                    <text id="故障容错" font-family="PingFangSC-Regular, PingFang SC" font-size="14" font-weight="normal" fill="#00AAE7">
                        <tspan x="563" y="312">故障容错</tspan>
                    </text>
                    <text id="业务服务器" font-family="PingFangSC-Medium, PingFang SC" font-size="18" font-weight="400" fill="#00AAE7">
                        <tspan x="495" y="73">业务服务器</tspan>
                    </text>
                    <text id="认证鉴权" font-family="PingFangSC-Regular, PingFang SC" font-size="14" font-weight="normal" fill="#00AAE7">
                        <tspan x="378" y="558">认证鉴权</tspan>
                    </text>
                    <text id="数据统计" font-family="PingFangSC-Regular, PingFang SC" font-size="14" font-weight="normal" fill="#00AAE7">
                        <tspan x="379" y="646">数据统计</tspan>
                    </text>
                    <path d="M736,291.5 L646,291.5 C645.585786,291.5 645.210786,291.667893 644.93934,291.93934 C644.667893,292.210786 644.5,292.585786 644.5,293 L644.5,322 C644.5,322.414214 644.667893,322.789214 644.93934,323.06066 C645.210786,323.332107 645.585786,323.5 646,323.5 L736,323.5 C736.414214,323.5 736.789214,323.332107 737.06066,323.06066 C737.332107,322.789214 737.5,322.414214 737.5,322 L737.5,293 C737.5,292.585786 737.332107,292.210786 737.06066,291.93934 C736.789214,291.667893 736.414214,291.5 736,291.5 Z" id="矩形备份-6" stroke="#1AB9EB" fill="#E2F5FC"></path>
                    <text id="弱网少卡顿" font-family="PingFangSC-Regular, PingFang SC" font-size="14" font-weight="normal" fill="#00AAE7">
                        <tspan x="655" y="312">弱网少卡顿</tspan>
                    </text>
                    <rect id="矩形" fill="#00AAE7" opacity="0.854399182" x="325" y="223" width="431" height="50"></rect>
                    <text id="LiveNet-实时网络流" font-family="PingFangSC-Medium, PingFang SC" font-size="18" font-weight="400" fill="#FFFFFF">
                        <tspan x="460" y="254">LiveNet 实时网络流</tspan>
                    </text>
                    <text id="直播边缘节点" font-family="PingFangSC-Medium, PingFang SC" font-size="14" font-weight="400" fill="#00AAE7">
                        <tspan x="496" y="392">直播边缘节点</tspan>
                    </text>
                    <g id="编组-2" transform="translate(374.000000, 413.000000)">
                        <text id="节点-1" font-family="PingFangSC-Regular, PingFang SC" font-size="14" font-weight="normal" fill="#00AAE7">
                            <tspan x="0" y="45">节点 1</tspan>
                        </text>
                        <g id="节点" transform="translate(11.000000, 0.000000)" fill-rule="nonzero">
                            <rect id="矩形" fill="#000000" opacity="0" x="5" y="0" width="24" height="24"></rect>
                            <path d="M14.784375,13.6320313 C14.0273437,13.6320313 13.3617187,14.0070313 12.9492187,14.5765625 L10.5492187,13.3414063 C10.74375,12.921875 10.8609375,12.4601562 10.8609375,11.9679687 C10.8609375,11.4078125 10.7085937,10.8898437 10.4601562,10.4304687 L11.8617187,9.8515625 C11.9859375,10.0625 12.1382812,10.2617187 12.3375,10.428125 C13.29375,11.2390625 14.7234375,11.121875 15.534375,10.165625 C16.3453125,9.209375 16.228125,7.7796875 15.271875,6.96875 C14.315625,6.1578125 12.8859375,6.275 12.075,7.23125 C11.5851562,7.8078125 11.4398437,8.5578125 11.6085937,9.2421875 L10.0828125,9.87265625 C9.55078125,9.2421875 8.7890625,8.8203125 7.921875,8.73125 L7.921875,6.5046875 C9.01640625,6.34296875 9.86015625,5.41015625 9.86015625,4.26875 C9.86015625,3.01484375 8.8453125,2 7.59140625,2 C6.3375,2 5.32265625,3.01484375 5.32265625,4.26875 C5.32265625,5.4078125 6.16640625,6.34296875 7.2609375,6.5046875 L7.2609375,8.73125 C5.61328125,8.9 4.321875,10.2757813 4.321875,11.9679688 C4.321875,12.78125 4.62890625,13.5171875 5.12109375,14.0890625 L4.134375,14.5976563 C3.72421875,14.0046875 3.0421875,13.615625 2.26875,13.615625 C1.01484375,13.615625 0,14.6304688 0,15.884375 C0,17.1382813 1.01484375,18.153125 2.26875,18.153125 C3.52265625,18.153125 4.5328125,17.1359375 4.5328125,15.884375 C4.5328125,15.6429688 4.4859375,15.4132813 4.415625,15.1953125 L5.62734375,14.571875 C6.17578125,14.9867188 6.85078125,15.2398438 7.5890625,15.2398438 C8.66484375,15.2398438 9.61171875,14.7125 10.2070312,13.9109375 L12.6492187,15.1671875 C12.5695312,15.3992188 12.515625,15.6429687 12.515625,15.903125 C12.515625,17.1570313 13.5304687,18.171875 14.784375,18.171875 C16.0382812,18.171875 17.053125,17.1570313 17.053125,15.903125 C17.053125,14.6492188 16.0382812,13.6320313 14.784375,13.6320313 Z" id="路径" fill="#00AAE7"></path>
                        </g>
                    </g>
                    <g id="编组" transform="translate(470.000000, 413.000000)">
                        <text id="节点-2" font-family="PingFangSC-Regular, PingFang SC" font-size="14" font-weight="normal" fill="#00AAE7">
                            <tspan x="0" y="45">节点 2</tspan>
                        </text>
                        <g id="节点备份" transform="translate(9.000000, 0.000000)" fill-rule="nonzero">
                            <rect id="矩形" fill="#000000" opacity="0" x="0" y="0" width="24" height="24"></rect>
                            <path d="M18.24375,14.0507812 C17.4867187,14.0507812 16.8210937,14.4257812 16.4085937,14.9953125 L14.0085937,13.7601562 C14.203125,13.340625 14.3203125,12.8789062 14.3203125,12.3867187 C14.3203125,11.8265625 14.1679687,11.3085937 13.9195312,10.8492187 L15.3210937,10.2703125 C15.4453125,10.48125 15.5976562,10.6804687 15.796875,10.846875 C16.753125,11.6578125 18.1828125,11.540625 18.99375,10.584375 C19.8046875,9.628125 19.6875,8.1984375 18.73125,7.3875 C17.775,6.5765625 16.3453125,6.69375 15.534375,7.65 C15.0445312,8.2265625 14.8992187,8.9765625 15.0679687,9.6609375 L13.5421875,10.2914062 C13.0101562,9.6609375 12.2484375,9.2390625 11.38125,9.15 L11.38125,6.9234375 C12.4757812,6.76171875 13.3195312,5.82890625 13.3195312,4.6875 C13.3195312,3.43359375 12.3046875,2.41875 11.0507812,2.41875 C9.796875,2.41875 8.78203125,3.43359375 8.78203125,4.6875 C8.78203125,5.8265625 9.62578125,6.76171875 10.7203125,6.9234375 L10.7203125,9.15 C9.07265625,9.31875 7.78125,10.6945312 7.78125,12.3867187 C7.78125,13.2 8.08828125,13.9359375 8.58046875,14.5078125 L7.59375,15.0164062 C7.18359375,14.4234375 6.5015625,14.034375 5.728125,14.034375 C4.47421875,14.034375 3.459375,15.0492187 3.459375,16.303125 C3.459375,17.5570313 4.47421875,18.571875 5.728125,18.571875 C6.98203125,18.571875 7.9921875,17.5546875 7.9921875,16.303125 C7.9921875,16.0617188 7.9453125,15.8320312 7.875,15.6140625 L9.08671875,14.990625 C9.63515625,15.4054688 10.3101562,15.6585937 11.0484375,15.6585937 C12.1242187,15.6585937 13.0710937,15.13125 13.6664062,14.3296875 L16.1085937,15.5859375 C16.0289062,15.8179687 15.975,16.0617187 15.975,16.321875 C15.975,17.5757812 16.9898437,18.590625 18.24375,18.590625 C19.4976562,18.590625 20.5125,17.5757812 20.5125,16.321875 C20.5125,15.0679687 19.4976562,14.0507812 18.24375,14.0507812 Z" id="路径" fill="#00AAE7"></path>
                        </g>
                    </g>
                    <g id="编组-5" transform="translate(568.000000, 413.000000)">
                        <text id="节点-3" font-family="PingFangSC-Regular, PingFang SC" font-size="14" font-weight="normal" fill="#00AAE7">
                            <tspan x="0" y="45">节点 3</tspan>
                        </text>
                        <g id="节点备份-2" transform="translate(9.000000, 0.000000)" fill-rule="nonzero">
                            <rect id="矩形" fill="#000000" opacity="0" x="0" y="0" width="24" height="24"></rect>
                            <path d="M18.24375,14.0507812 C17.4867187,14.0507812 16.8210937,14.4257812 16.4085937,14.9953125 L14.0085937,13.7601562 C14.203125,13.340625 14.3203125,12.8789062 14.3203125,12.3867187 C14.3203125,11.8265625 14.1679687,11.3085937 13.9195312,10.8492187 L15.3210937,10.2703125 C15.4453125,10.48125 15.5976562,10.6804687 15.796875,10.846875 C16.753125,11.6578125 18.1828125,11.540625 18.99375,10.584375 C19.8046875,9.628125 19.6875,8.1984375 18.73125,7.3875 C17.775,6.5765625 16.3453125,6.69375 15.534375,7.65 C15.0445312,8.2265625 14.8992187,8.9765625 15.0679687,9.6609375 L13.5421875,10.2914062 C13.0101562,9.6609375 12.2484375,9.2390625 11.38125,9.15 L11.38125,6.9234375 C12.4757812,6.76171875 13.3195312,5.82890625 13.3195312,4.6875 C13.3195312,3.43359375 12.3046875,2.41875 11.0507812,2.41875 C9.796875,2.41875 8.78203125,3.43359375 8.78203125,4.6875 C8.78203125,5.8265625 9.62578125,6.76171875 10.7203125,6.9234375 L10.7203125,9.15 C9.07265625,9.31875 7.78125,10.6945312 7.78125,12.3867187 C7.78125,13.2 8.08828125,13.9359375 8.58046875,14.5078125 L7.59375,15.0164062 C7.18359375,14.4234375 6.5015625,14.034375 5.728125,14.034375 C4.47421875,14.034375 3.459375,15.0492187 3.459375,16.303125 C3.459375,17.5570313 4.47421875,18.571875 5.728125,18.571875 C6.98203125,18.571875 7.9921875,17.5546875 7.9921875,16.303125 C7.9921875,16.0617188 7.9453125,15.8320312 7.875,15.6140625 L9.08671875,14.990625 C9.63515625,15.4054688 10.3101562,15.6585937 11.0484375,15.6585937 C12.1242187,15.6585937 13.0710937,15.13125 13.6664062,14.3296875 L16.1085937,15.5859375 C16.0289062,15.8179687 15.975,16.0617187 15.975,16.321875 C15.975,17.5757812 16.9898437,18.590625 18.24375,18.590625 C19.4976562,18.590625 20.5125,17.5757812 20.5125,16.321875 C20.5125,15.0679687 19.4976562,14.0507812 18.24375,14.0507812 Z" id="路径" fill="#00AAE7"></path>
                        </g>
                    </g>
                    <g id="编组-6" transform="translate(666.000000, 413.000000)">
                        <text id="节点-4" font-family="PingFangSC-Regular, PingFang SC" font-size="14" font-weight="normal" fill="#00AAE7">
                            <tspan x="0" y="45">节点 4</tspan>
                        </text>
                        <g id="节点备份-3" transform="translate(9.000000, 0.000000)" fill-rule="nonzero">
                            <rect id="矩形" fill="#000000" opacity="0" x="0" y="0" width="24" height="24"></rect>
                            <path d="M18.24375,14.0507812 C17.4867187,14.0507812 16.8210937,14.4257812 16.4085937,14.9953125 L14.0085937,13.7601562 C14.203125,13.340625 14.3203125,12.8789062 14.3203125,12.3867187 C14.3203125,11.8265625 14.1679687,11.3085937 13.9195312,10.8492187 L15.3210937,10.2703125 C15.4453125,10.48125 15.5976562,10.6804687 15.796875,10.846875 C16.753125,11.6578125 18.1828125,11.540625 18.99375,10.584375 C19.8046875,9.628125 19.6875,8.1984375 18.73125,7.3875 C17.775,6.5765625 16.3453125,6.69375 15.534375,7.65 C15.0445312,8.2265625 14.8992187,8.9765625 15.0679687,9.6609375 L13.5421875,10.2914062 C13.0101562,9.6609375 12.2484375,9.2390625 11.38125,9.15 L11.38125,6.9234375 C12.4757812,6.76171875 13.3195312,5.82890625 13.3195312,4.6875 C13.3195312,3.43359375 12.3046875,2.41875 11.0507812,2.41875 C9.796875,2.41875 8.78203125,3.43359375 8.78203125,4.6875 C8.78203125,5.8265625 9.62578125,6.76171875 10.7203125,6.9234375 L10.7203125,9.15 C9.07265625,9.31875 7.78125,10.6945312 7.78125,12.3867187 C7.78125,13.2 8.08828125,13.9359375 8.58046875,14.5078125 L7.59375,15.0164062 C7.18359375,14.4234375 6.5015625,14.034375 5.728125,14.034375 C4.47421875,14.034375 3.459375,15.0492187 3.459375,16.303125 C3.459375,17.5570313 4.47421875,18.571875 5.728125,18.571875 C6.98203125,18.571875 7.9921875,17.5546875 7.9921875,16.303125 C7.9921875,16.0617188 7.9453125,15.8320312 7.875,15.6140625 L9.08671875,14.990625 C9.63515625,15.4054688 10.3101562,15.6585937 11.0484375,15.6585937 C12.1242187,15.6585937 13.0710937,15.13125 13.6664062,14.3296875 L16.1085937,15.5859375 C16.0289062,15.8179687 15.975,16.0617187 15.975,16.321875 C15.975,17.5757812 16.9898437,18.590625 18.24375,18.590625 C19.4976562,18.590625 20.5125,17.5757812 20.5125,16.321875 C20.5125,15.0679687 19.4976562,14.0507812 18.24375,14.0507812 Z" id="路径" fill="#00AAE7"></path>
                        </g>
                    </g>
                    <polygon id="矩形" fill="#FFFFFF" opacity="0.85" points="878 444 1060 444 1060 671 878 671"></polygon>
                    <path d="M23,198 L201,198 C202.104569,198 203,198.895431 203,200 L203,407 C203,408.104569 202.104569,409 201,409 L23,409 C21.8954305,409 21,408.104569 21,407 L21,200 C21,198.895431 21.8954305,198 23,198 Z" id="矩形备份-19" fill="#FFFFFF" opacity="0.85"></path>
                    <path d="M23,454 L201,454 C202.104569,454 203,454.895431 203,456 L203,668 C203,669.104569 202.104569,670 201,670 L23,670 C21.8954305,670 21,669.104569 21,668 L21,456 C21,454.895431 21.8954305,454 23,454 Z" id="矩形备份-25" fill="#FFFFFF" opacity="0.85"></path>
                    <text id="播放-SDK" font-family="PingFangSC-Medium, PingFang SC" font-size="18" font-weight="400" line-spacing="30" fill="#28B8BB">
                        <tspan x="932" y="472">播放 SDK</tspan>
                    </text>
                    <text id="推流-SDK" font-family="PingFangSC-Medium, PingFang SC" font-size="16" font-weight="400" fill="#28B8BB">
                        <tspan x="76" y="222">推流 SDK</tspan>
                    </text>
                    <text id="云导播台" font-family="PingFangSC-Medium, PingFang SC" font-size="16" font-weight="400" fill="#28B8BB">
                        <tspan x="80" y="479">云导播台</tspan>
                    </text>
                    <path d="M614,499 L736,499 C737.104569,499 738,499.895431 738,501 L738,578 C738,579.104569 737.104569,580 736,580 L614,580 C612.895431,580 612,579.104569 612,578 L612,501 C612,499.895431 612.895431,499 614,499 Z" id="矩形备份-10" fill="#FFFFFF" opacity="0.85"></path>
                    <path d="M1038,488.5 L900,488.5 C899.585786,488.5 899.210786,488.667893 898.93934,488.93934 C898.667893,489.210786 898.5,489.585786 898.5,490 L898.5,522 C898.5,522.414214 898.667893,522.789214 898.93934,523.06066 C899.210786,523.332107 899.585786,523.5 900,523.5 L1038,523.5 C1038.41421,523.5 1038.78921,523.332107 1039.06066,523.06066 C1039.33211,522.789214 1039.5,522.414214 1039.5,522 L1039.5,490 C1039.5,489.585786 1039.33211,489.210786 1039.06066,488.93934 C1038.78921,488.667893 1038.41421,488.5 1038,488.5 Z" id="矩形备份-13" stroke="#28B8BB" fill="#E7F7F8"></path>
                    <path d="M184,234.5 L40,234.5 C39.5857864,234.5 39.2107864,234.667893 38.9393398,234.93934 C38.6678932,235.210786 38.5,235.585786 38.5,236 L38.5,268 C38.5,268.414214 38.6678932,268.789214 38.9393398,269.06066 C39.2107864,269.332107 39.5857864,269.5 40,269.5 L184,269.5 C184.414214,269.5 184.789214,269.332107 185.06066,269.06066 C185.332107,268.789214 185.5,268.414214 185.5,268 L185.5,236 C185.5,235.585786 185.332107,235.210786 185.06066,234.93934 C184.789214,234.667893 184.414214,234.5 184,234.5 Z" id="矩形备份-20" stroke="#28B8BB" fill="#E7F7F8"></path>
                    <path d="M184,491.5 L40,491.5 C39.5857864,491.5 39.2107864,491.667893 38.9393398,491.93934 C38.6678932,492.210786 38.5,492.585786 38.5,493 L38.5,525 C38.5,525.414214 38.6678932,525.789214 38.9393398,526.06066 C39.2107864,526.332107 39.5857864,526.5 40,526.5 L184,526.5 C184.414214,526.5 184.789214,526.332107 185.06066,526.06066 C185.332107,525.789214 185.5,525.414214 185.5,525 L185.5,493 C185.5,492.585786 185.332107,492.210786 185.06066,491.93934 C184.789214,491.667893 184.414214,491.5 184,491.5 Z" id="矩形备份-26" stroke="#28B8BB" fill="#E7F7F8"></path>
                    <path d="M1038,530.5 L900,530.5 C899.585786,530.5 899.210786,530.667893 898.93934,530.93934 C898.667893,531.210786 898.5,531.585786 898.5,532 L898.5,564 C898.5,564.414214 898.667893,564.789214 898.93934,565.06066 C899.210786,565.332107 899.585786,565.5 900,565.5 L1038,565.5 C1038.41421,565.5 1038.78921,565.332107 1039.06066,565.06066 C1039.33211,564.789214 1039.5,564.414214 1039.5,564 L1039.5,532 C1039.5,531.585786 1039.33211,531.210786 1039.06066,530.93934 C1038.78921,530.667893 1038.41421,530.5 1038,530.5 Z" id="矩形备份-14" stroke="#28B8BB" fill="#E7F7F8"></path>
                    <path d="M184,276.5 L40,276.5 C39.5857864,276.5 39.2107864,276.667893 38.9393398,276.93934 C38.6678932,277.210786 38.5,277.585786 38.5,278 L38.5,309 C38.5,309.414214 38.6678932,309.789214 38.9393398,310.06066 C39.2107864,310.332107 39.5857864,310.5 40,310.5 L184,310.5 C184.414214,310.5 184.789214,310.332107 185.06066,310.06066 C185.332107,309.789214 185.5,309.414214 185.5,309 L185.5,278 C185.5,277.585786 185.332107,277.210786 185.06066,276.93934 C184.789214,276.667893 184.414214,276.5 184,276.5 Z" id="矩形备份-21" stroke="#28B8BB" fill="#E7F7F8"></path>
                    <path d="M184,533.5 L40,533.5 C39.5857864,533.5 39.2107864,533.667893 38.9393398,533.93934 C38.6678932,534.210786 38.5,534.585786 38.5,535 L38.5,567 C38.5,567.414214 38.6678932,567.789214 38.9393398,568.06066 C39.2107864,568.332107 39.5857864,568.5 40,568.5 L184,568.5 C184.414214,568.5 184.789214,568.332107 185.06066,568.06066 C185.332107,567.789214 185.5,567.414214 185.5,567 L185.5,535 C185.5,534.585786 185.332107,534.210786 185.06066,533.93934 C184.789214,533.667893 184.414214,533.5 184,533.5 Z" id="矩形备份-27" stroke="#28B8BB" fill="#E7F7F8"></path>
                    <path d="M1038,572.5 L900,572.5 C899.585786,572.5 899.210786,572.667893 898.93934,572.93934 C898.667893,573.210786 898.5,573.585786 898.5,574 L898.5,606 C898.5,606.414214 898.667893,606.789214 898.93934,607.06066 C899.210786,607.332107 899.585786,607.5 900,607.5 L1038,607.5 C1038.41421,607.5 1038.78921,607.332107 1039.06066,607.06066 C1039.33211,606.789214 1039.5,606.414214 1039.5,606 L1039.5,574 C1039.5,573.585786 1039.33211,573.210786 1039.06066,572.93934 C1038.78921,572.667893 1038.41421,572.5 1038,572.5 Z" id="矩形备份-15" stroke="#28B8BB" fill="#E7F7F8"></path>
                    <path d="M184,317.5 L40,317.5 C39.5857864,317.5 39.2107864,317.667893 38.9393398,317.93934 C38.6678932,318.210786 38.5,318.585786 38.5,319 L38.5,350 C38.5,350.414214 38.6678932,350.789214 38.9393398,351.06066 C39.2107864,351.332107 39.5857864,351.5 40,351.5 L184,351.5 C184.414214,351.5 184.789214,351.332107 185.06066,351.06066 C185.332107,350.789214 185.5,350.414214 185.5,350 L185.5,319 C185.5,318.585786 185.332107,318.210786 185.06066,317.93934 C184.789214,317.667893 184.414214,317.5 184,317.5 Z" id="矩形备份-22" stroke="#28B8BB" fill="#E7F7F8"></path>
                    <path d="M184,575.5 L40,575.5 C39.5857864,575.5 39.2107864,575.667893 38.9393398,575.93934 C38.6678932,576.210786 38.5,576.585786 38.5,577 L38.5,609 C38.5,609.414214 38.6678932,609.789214 38.9393398,610.06066 C39.2107864,610.332107 39.5857864,610.5 40,610.5 L184,610.5 C184.414214,610.5 184.789214,610.332107 185.06066,610.06066 C185.332107,609.789214 185.5,609.414214 185.5,609 L185.5,577 C185.5,576.585786 185.332107,576.210786 185.06066,575.93934 C184.789214,575.667893 184.414214,575.5 184,575.5 Z" id="矩形备份-28" stroke="#28B8BB" fill="#E7F7F8"></path>
                    <path d="M614,589 L736,589 C737.104569,589 738,589.895431 738,591 L738,668 C738,669.104569 737.104569,670 736,670 L614,670 C612.895431,670 612,669.104569 612,668 L612,591 C612,589.895431 612.895431,589 614,589 Z" id="矩形备份-12" fill="#FFFFFF" opacity="0.85"></path>
                    <text id="实时转码" font-family="PingFangSC-Regular, PingFang SC" font-size="14" font-weight="normal" fill="#00AAE7">
                        <tspan x="647" y="558">实时转码</tspan>
                    </text>
                    <text id="高效解码" font-family="PingFangSC-Regular, PingFang SC" font-size="14" font-weight="normal" fill="#28B8BB">
                        <tspan x="941" y="511">高效解码</tspan>
                    </text>
                    <text id="音视频采集" font-family="PingFangSC-Regular, PingFang SC" font-size="14" font-weight="normal" fill="#28B8BB">
                        <tspan x="77" y="257">音视频采集</tspan>
                    </text>
                    <text id="直播流" font-family="PingFangSC-Regular, PingFang SC" font-size="14" font-weight="normal" fill="#28B8BB">
                        <tspan x="91" y="514">直播流</tspan>
                    </text>
                    <text id="硬件加速" font-family="PingFangSC-Regular, PingFang SC" font-size="14" font-weight="normal" fill="#28B8BB">
                        <tspan x="941" y="553">硬件加速</tspan>
                    </text>
                    <text id="美颜滤镜" font-family="PingFangSC-Regular, PingFang SC" font-size="14" font-weight="normal" fill="#28B8BB">
                        <tspan x="84" y="298">美颜滤镜</tspan>
                    </text>
                    <text id="图片" font-family="PingFangSC-Regular, PingFang SC" font-size="14" font-weight="normal" fill="#28B8BB">
                        <tspan x="98" y="556">图片</tspan>
                    </text>
                    <text id="首屏秒开" font-family="PingFangSC-Regular, PingFang SC" font-size="14" font-weight="normal" fill="#28B8BB">
                        <tspan x="941" y="595">首屏秒开</tspan>
                    </text>
                    <text id="编码压缩" font-family="PingFangSC-Regular, PingFang SC" font-size="14" font-weight="normal" fill="#28B8BB">
                        <tspan x="84" y="340">编码压缩</tspan>
                    </text>
                    <text id="音视频文件" font-family="PingFangSC-Regular, PingFang SC" font-size="14" font-weight="normal" fill="#28B8BB">
                        <tspan x="77" y="598">音视频文件</tspan>
                    </text>
                    <path d="M1038,614.5 L900,614.5 C899.585786,614.5 899.210786,614.667893 898.93934,614.93934 C898.667893,615.210786 898.5,615.585786 898.5,616 L898.5,648 C898.5,648.414214 898.667893,648.789214 898.93934,649.06066 C899.210786,649.332107 899.585786,649.5 900,649.5 L1038,649.5 C1038.41421,649.5 1038.78921,649.332107 1039.06066,649.06066 C1039.33211,648.789214 1039.5,648.414214 1039.5,648 L1039.5,616 C1039.5,615.585786 1039.33211,615.210786 1039.06066,614.93934 C1038.78921,614.667893 1038.41421,614.5 1038,614.5 Z" id="矩形备份-16" stroke="#28B8BB" fill="#E7F7F8"></path>
                    <path d="M184,358.5 L40,358.5 C39.5857864,358.5 39.2107864,358.667893 38.9393398,358.93934 C38.6678932,359.210786 38.5,359.585786 38.5,360 L38.5,392 C38.5,392.414214 38.6678932,392.789214 38.9393398,393.06066 C39.2107864,393.332107 39.5857864,393.5 40,393.5 L184,393.5 C184.414214,393.5 184.789214,393.332107 185.06066,393.06066 C185.332107,392.789214 185.5,392.414214 185.5,392 L185.5,360 C185.5,359.585786 185.332107,359.210786 185.06066,358.93934 C184.789214,358.667893 184.414214,358.5 184,358.5 Z" id="矩形备份-23" stroke="#28B8BB" fill="#E7F7F8"></path>
                    <path d="M184,617.5 L40,617.5 C39.5857864,617.5 39.2107864,617.667893 38.9393398,617.93934 C38.6678932,618.210786 38.5,618.585786 38.5,619 L38.5,651 C38.5,651.414214 38.6678932,651.789214 38.9393398,652.06066 C39.2107864,652.332107 39.5857864,652.5 40,652.5 L184,652.5 C184.414214,652.5 184.789214,652.332107 185.06066,652.06066 C185.332107,651.789214 185.5,651.414214 185.5,651 L185.5,619 C185.5,618.585786 185.332107,618.210786 185.06066,617.93934 C184.789214,617.667893 184.414214,617.5 184,617.5 Z" id="矩形备份-29" stroke="#28B8BB" fill="#E7F7F8"></path>
                    <text id="动态追帧" font-family="PingFangSC-Regular, PingFang SC" font-size="14" font-weight="normal" fill="#28B8BB">
                        <tspan x="941" y="637">动态追帧</tspan>
                    </text>
                    <text id="推流传输" font-family="PingFangSC-Regular, PingFang SC" font-size="14" font-weight="normal" fill="#28B8BB">
                        <tspan x="84" y="381">推流传输</tspan>
                    </text>
                    <text id="文字水印" font-family="PingFangSC-Regular, PingFang SC" font-size="14" font-weight="normal" fill="#28B8BB">
                        <tspan x="84" y="640">文字水印</tspan>
                    </text>
                    <text id="录制回放" font-family="PingFangSC-Regular, PingFang SC" font-size="14" font-weight="normal" fill="#00AAE7">
                        <tspan x="647" y="646">录制回放</tspan>
                    </text>
                    <text id="播放端" font-family="PingFangSC-Medium, PingFang SC" font-size="18" font-weight="400" fill="#FFFFFF">
                        <tspan x="942" y="367">播放端</tspan>
                    </text>
                    <text id="采集端" font-family="PingFangSC-Medium, PingFang SC" font-size="18" font-weight="400" fill="#FFFFFF">
                        <tspan x="85" y="122">采集端</tspan>
                    </text>
                    <text id="安卓" font-family="PingFangSC-Regular, PingFang SC" font-size="16" font-weight="normal" fill="#28B8BB">
                        <tspan x="888" y="433">安卓</tspan>
                    </text>
                    <text id="安卓备份" font-family="PingFangSC-Regular, PingFang SC" font-size="14" font-weight="normal" fill="#28B8BB">
                        <tspan x="34" y="185">安卓</tspan>
                    </text>
                    <text id="IOS" font-family="PingFangSC-Regular, PingFang SC" font-size="16" font-weight="normal" fill="#28B8BB">
                        <tspan x="963" y="433">IOS</tspan>
                    </text>
                    <text id="IOS" font-family="PingFangSC-Regular, PingFang SC" font-size="14" font-weight="normal" fill="#28B8BB">
                        <tspan x="97" y="185">IOS</tspan>
                    </text>
                    <text id="H5" font-family="PingFangSC-Regular, PingFang SC" font-size="16" font-weight="normal" fill="#28B8BB">
                        <tspan x="1033" y="433">H5</tspan>
                    </text>
                    <text id="IP-Camera" font-family="PingFangSC-Regular, PingFang SC" font-size="14" font-weight="normal" fill="#28B8BB">
                        <tspan x="134" y="185">IP Camera</tspan>
                    </text>
                    <g id="h5" transform="translate(1032.000000, 391.000000)" fill-rule="nonzero">
                        <rect id="矩形" fill="#000000" opacity="0" x="0" y="0" width="24" height="24"></rect>
                        <path d="M3.57105881,2.44101698 L5.10469901,19.6475749 L11.9894471,21.558983 L18.8921591,19.6449607 L20.4289172,2.44101698 L3.57144255,2.44101698 L3.57105881,2.44101698 L3.57105881,2.44101698 Z M17.0897332,8.0685855 L9.01433627,8.0685855 L9.20668587,10.2296643 L16.898151,10.2296643 L16.318512,16.7083437 L11.9898309,17.9078185 L7.66647413,16.7083437 L7.37099447,13.3941028 L9.4899818,13.3941028 L9.64026391,15.0787686 L11.9901907,15.7119153 L11.995539,15.7104043 L14.3466889,15.0757706 L14.5906515,12.3394658 L7.27683431,12.3394658 L6.70758026,5.95830427 L17.2786051,5.95830427 L17.0897332,8.0685855 L17.0897332,8.0685855 L17.0897332,8.0685855 Z" id="形状" fill="#28B8BB"></path>
                    </g>
                    <g id="ios" transform="translate(964.000000, 391.000000)" fill-rule="nonzero">
                        <rect id="矩形" fill="#000000" opacity="0" x="0" y="0" width="24" height="24"></rect>
                        <path d="M15.2680129,5.22015971 C15.9168721,4.38431208 16.4084691,3.20419349 16.2313758,2 C15.1688162,2.07365285 13.929204,2.75085102 13.2067124,3.63201249 C12.5464891,4.4310541 12.0039063,5.61825234 12.2150105,6.7714601 C13.376726,6.80828653 14.5724117,6.11552129 15.2680129,5.22015971 Z M21,16.5524565 C20.5353138,17.5823927 20.3129066,18.0442225 19.7150536,18.9565794 C18.8791652,20.231651 17.7033107,21.8183496 16.2455147,21.8296934 C14.9506324,21.8438527 14.6162974,20.9853175 12.8595851,20.9952331 C11.1028728,21.0051487 10.7345474,21.8466886 9.43823683,21.8340606 C7.98046128,21.819737 6.86691588,20.3888723 6.03247602,19.1138619 C3.69917007,15.5522467 3.45409582,11.3715396 4.8920402,9.14730516 C5.91630446,7.56909394 7.52995475,6.64682153 9.04722385,6.64682153 C10.5914446,6.64682153 11.5618872,7.49542069 12.8411821,7.49542069 C14.0807942,7.49542069 14.835889,6.64539335 16.6209402,6.64539335 C17.9725006,6.64539335 19.4047935,7.38210547 20.4247937,8.65713627 C17.0827701,10.4917655 17.623986,15.2731412 21,16.5538439 L21,16.5524565 L21,16.5524565 L21,16.5524565 Z" id="形状" fill="#28B8BB"></path>
                    </g>
                    <g id="ios备份-2" transform="translate(96.000000, 144.000000)" fill-rule="nonzero">
                        <rect id="矩形" fill="#000000" opacity="0" x="0" y="0" width="24" height="24"></rect>
                        <path d="M15.2680129,5.22015971 C15.9168721,4.38431208 16.4084691,3.20419349 16.2313758,2 C15.1688162,2.07365285 13.929204,2.75085102 13.2067124,3.63201249 C12.5464891,4.4310541 12.0039063,5.61825234 12.2150105,6.7714601 C13.376726,6.80828653 14.5724117,6.11552129 15.2680129,5.22015971 Z M21,16.5524565 C20.5353138,17.5823927 20.3129066,18.0442225 19.7150536,18.9565794 C18.8791652,20.231651 17.7033107,21.8183496 16.2455147,21.8296934 C14.9506324,21.8438527 14.6162974,20.9853175 12.8595851,20.9952331 C11.1028728,21.0051487 10.7345474,21.8466886 9.43823683,21.8340606 C7.98046128,21.819737 6.86691588,20.3888723 6.03247602,19.1138619 C3.69917007,15.5522467 3.45409582,11.3715396 4.8920402,9.14730516 C5.91630446,7.56909394 7.52995475,6.64682153 9.04722385,6.64682153 C10.5914446,6.64682153 11.5618872,7.49542069 12.8411821,7.49542069 C14.0807942,7.49542069 14.835889,6.64539335 16.6209402,6.64539335 C17.9725006,6.64539335 19.4047935,7.38210547 20.4247937,8.65713627 C17.0827701,10.4917655 17.623986,15.2731412 21,16.5538439 L21,16.5524565 L21,16.5524565 L21,16.5524565 Z" id="形状" fill="#28B8BB"></path>
                    </g>
                    <g id="安卓" transform="translate(892.000000, 391.000000)" fill-rule="nonzero">
                        <rect id="矩形" fill="#000000" opacity="0" x="0" y="0" width="24" height="24"></rect>
                        <path d="M19.889116,8.25588864 C19.1818423,8.25588864 18.5959323,8.81588948 18.5959323,9.49589049 L18.5959323,14.3181704 C18.5959323,14.9981714 19.1618422,15.5586268 19.889116,15.5586268 C20.5959323,15.5586268 21.1818452,14.9981714 21.1818452,14.3177159 L21.1818452,9.49634503 C21.1618452,8.81634401 20.5959323,8.25634318 19.889116,8.2563432 L19.889116,8.25588864 Z M4.29272921,8.25588864 C3.58636452,8.25588864 3,8.81588948 3,9.49543594 L3,14.3181704 C3,14.9981714 3.56545538,15.5586268 4.29272921,15.5586268 C5.02000301,15.5586268 5.58591294,14.9981714 5.58591294,14.3177159 L5.58591294,9.49634503 C5.58591294,8.81634401 5.02000299,8.25634318 4.29272921,8.2563432 L4.29272921,8.25588864 Z M6.37364138,8.29588871 L6.37364138,17.1186291 C6.37364138,17.6386299 6.8181875,18.0786305 7.38364289,18.0786305 L8.5354628,18.0786305 L8.5354628,20.7595436 C8.5354628,21.4399992 9.10091818,22 9.82819198,22 C10.5354658,22 11.1213757,21.4399992 11.1213757,20.7595436 L11.1213757,18.0786305 L13.1413787,18.0786305 L13.1413787,20.7595436 C13.1413787,21.4399992 13.7072887,22 14.4345625,22 C15.1409272,22 15.7272917,21.4399992 15.7272917,20.7595436 L15.7272917,18.0786305 L16.878657,18.0786305 C17.444567,18.0786305 17.8891131,17.6586299 17.8891131,17.1186291 L17.8891131,8.29543417 L6.37364138,8.29543417 L6.37364138,8.29588871 Z M14.8181994,3.73406374 L15.8891101,2.29360704 C15.9291102,2.19360689 15.9291102,2.07360671 15.8282009,2.03360666 C15.7472917,1.97360658 15.6263824,2.01360664 15.5654732,2.09360675 L14.4745625,3.59406353 C13.7099386,3.31856362 12.9036612,3.17649643 12.0909226,3.17406291 C11.242285,3.17406291 10.4345565,3.31406311 9.7072827,3.59406353 L8.616372,2.09406129 C8.55546282,1.99406114 8.43455353,1.97360656 8.35364433,2.03360666 C8.27181091,2.09487193 8.25366924,2.21017228 8.31273518,2.29360704 L9.38364586,3.73451828 C7.70727973,4.47451938 6.51545978,5.87497601 6.37364138,7.515433 L17.869113,7.515433 C17.6872946,5.87452148 16.5150201,4.4745194 14.8181994,3.73406374 L14.8181994,3.73406374 Z M9.6668281,6.01497622 C9.3031912,6.01497622 9.04046354,5.75497583 9.04046354,5.41497533 C9.04046354,5.07452027 9.32319124,4.81497443 9.6668281,4.81497443 C10.030465,4.81497443 10.2927381,5.07452027 10.2927381,5.41497533 C10.2927381,5.75497583 10.0100104,6.01497622 9.6668281,6.01497622 Z M14.5959264,6.01497622 C14.2322895,6.01497622 13.9695618,5.75497583 13.9695618,5.41497533 C13.9695618,5.07452027 14.252744,4.81497443 14.5959264,4.81497443 C14.9595633,4.81497443 15.2222909,5.07452027 15.2222909,5.41497533 C15.2222909,5.75497583 14.9395632,6.01497622 14.5959264,6.01497622 Z" id="形状" fill="#28B8BB"></path>
                    </g>
                    <g id="安卓备份-2" transform="translate(36.000000, 144.000000)" fill-rule="nonzero">
                        <rect id="矩形" fill="#000000" opacity="0" x="0" y="0" width="24" height="24"></rect>
                        <path d="M19.889116,8.25588864 C19.1818423,8.25588864 18.5959323,8.81588948 18.5959323,9.49589049 L18.5959323,14.3181704 C18.5959323,14.9981714 19.1618422,15.5586268 19.889116,15.5586268 C20.5959323,15.5586268 21.1818452,14.9981714 21.1818452,14.3177159 L21.1818452,9.49634503 C21.1618452,8.81634401 20.5959323,8.25634318 19.889116,8.2563432 L19.889116,8.25588864 Z M4.29272921,8.25588864 C3.58636452,8.25588864 3,8.81588948 3,9.49543594 L3,14.3181704 C3,14.9981714 3.56545538,15.5586268 4.29272921,15.5586268 C5.02000301,15.5586268 5.58591294,14.9981714 5.58591294,14.3177159 L5.58591294,9.49634503 C5.58591294,8.81634401 5.02000299,8.25634318 4.29272921,8.2563432 L4.29272921,8.25588864 Z M6.37364138,8.29588871 L6.37364138,17.1186291 C6.37364138,17.6386299 6.8181875,18.0786305 7.38364289,18.0786305 L8.5354628,18.0786305 L8.5354628,20.7595436 C8.5354628,21.4399992 9.10091818,22 9.82819198,22 C10.5354658,22 11.1213757,21.4399992 11.1213757,20.7595436 L11.1213757,18.0786305 L13.1413787,18.0786305 L13.1413787,20.7595436 C13.1413787,21.4399992 13.7072887,22 14.4345625,22 C15.1409272,22 15.7272917,21.4399992 15.7272917,20.7595436 L15.7272917,18.0786305 L16.878657,18.0786305 C17.444567,18.0786305 17.8891131,17.6586299 17.8891131,17.1186291 L17.8891131,8.29543417 L6.37364138,8.29543417 L6.37364138,8.29588871 Z M14.8181994,3.73406374 L15.8891101,2.29360704 C15.9291102,2.19360689 15.9291102,2.07360671 15.8282009,2.03360666 C15.7472917,1.97360658 15.6263824,2.01360664 15.5654732,2.09360675 L14.4745625,3.59406353 C13.7099386,3.31856362 12.9036612,3.17649643 12.0909226,3.17406291 C11.242285,3.17406291 10.4345565,3.31406311 9.7072827,3.59406353 L8.616372,2.09406129 C8.55546282,1.99406114 8.43455353,1.97360656 8.35364433,2.03360666 C8.27181091,2.09487193 8.25366924,2.21017228 8.31273518,2.29360704 L9.38364586,3.73451828 C7.70727973,4.47451938 6.51545978,5.87497601 6.37364138,7.515433 L17.869113,7.515433 C17.6872946,5.87452148 16.5150201,4.4745194 14.8181994,3.73406374 L14.8181994,3.73406374 Z M9.6668281,6.01497622 C9.3031912,6.01497622 9.04046354,5.75497583 9.04046354,5.41497533 C9.04046354,5.07452027 9.32319124,4.81497443 9.6668281,4.81497443 C10.030465,4.81497443 10.2927381,5.07452027 10.2927381,5.41497533 C10.2927381,5.75497583 10.0100104,6.01497622 9.6668281,6.01497622 Z M14.5959264,6.01497622 C14.2322895,6.01497622 13.9695618,5.75497583 13.9695618,5.41497533 C13.9695618,5.07452027 14.252744,4.81497443 14.5959264,4.81497443 C14.9595633,4.81497443 15.2222909,5.07452027 15.2222909,5.41497533 C15.2222909,5.75497583 14.9395632,6.01497622 14.5959264,6.01497622 Z" id="形状" fill="#28B8BB"></path>
                    </g>
                    <g id="认证管理" transform="translate(394.000000, 513.000000)" fill-rule="nonzero">
                        <rect id="矩形" fill="#000000" opacity="0" x="0" y="0" width="24" height="24"></rect>
                        <path d="M22.35,4.2 C22.35,3.75 22.05,3.3 21.6,3.3 L20.7,3.3 C20.7,3.3 18.75,3.3 16.8,2.4 C14.7,1.8 13.35,0.75 13.35,0.75 L12.75,0.3 C12.45,0.15 12,0.15 11.7,0.3 L11.25,0.75 C11.25,0.75 9.9,1.65 7.8,2.55 C5.85,3.3 4.05,3.45 3.9,3.45 L3,3.45 C2.55,3.45 2.25,3.9 2.25,4.35 L2.25,13.5 C2.25,15.9 3.6,18.45 5.85,20.7 C7.95,22.8 10.5,24 12.3,24 C14.1,24 16.65,22.8 18.75,20.7 C21.15,18.45 22.35,15.9 22.35,13.5 L22.35,4.2 Z M17.4,9.9 L11.85,15.45 C11.7,15.6 11.4,15.75 11.1,15.75 C10.8,15.75 10.5,15.6 10.35,15.45 L7.65,12.6 C7.5,12.45 7.35,12.15 7.35,11.85 C7.35,11.55 7.5,11.25 7.65,11.1 C8.1,10.65 8.7,10.65 9.15,11.1 L11.1,13.05 L15.9,8.25 C16.35,7.8 16.95,7.8 17.4,8.25 C17.55,8.4 17.7,8.7 17.7,9 C17.7,9.45 17.7,9.75 17.4,9.9 L17.4,9.9 Z" id="形状" fill="#00AAE7"></path>
                    </g>
                    <g id="直播-focus" transform="translate(529.000000, 513.000000)" fill-rule="nonzero">
                        <rect id="矩形" fill="#000000" opacity="0" x="0" y="0" width="24" height="24"></rect>
                        <path d="M22.1844153,8.87376378 L22.1844153,20.8351795 C22.1844153,22.0288295 21.2132448,23 20.0195948,23 L3.16482046,23 C1.97117047,23 1,22.0288295 1,20.8351795 L1,8.87376378 C1,7.68011379 1.97117047,6.70894332 3.16482046,6.70894332 L7.66680031,6.70894332 L2.7907506,1.91407989 C2.58077317,1.70776266 2.57790673,1.36961144 2.78448854,1.15965607 C2.99080578,0.949171482 3.3281632,0.946569645 3.53891236,1.15339401 L9.18852488,6.70896538 L14.2092635,6.70896538 L19.858876,1.15339401 C20.0688534,0.9465476 20.4064534,0.949149438 20.6132998,1.15965607 C20.8198816,1.36963351 20.8170152,1.70776268 20.6070377,1.91407989 L15.730966,6.70896536 L20.0195948,6.70896536 C21.2132448,6.70894332 22.1844153,7.68011379 22.1844153,8.87376378 Z M15.2652804,14.9171143 L8.80528244,11.1874405 L8.80528244,18.6468102 L15.2652804,14.9171143 Z" id="形状" fill="#00AAE7"></path>
                    </g>
                    <g id="转码管理" transform="translate(663.000000, 511.000000)">
                        <rect id="矩形" fill="#000000" fill-rule="nonzero" opacity="0" x="0" y="0" width="24" height="24"></rect>
                        <g id="编组-9" transform="translate(3.000000, 2.894737)">
                            <circle id="椭圆形" fill="#00AAE7" cx="10.9421053" cy="12.1578947" r="10.9421053"></circle>
                            <path d="M8.56584474,8.85520263 C8.56584474,8.41934211 8.87404737,8.24244474 9.25155,8.45946316 L15.7548079,12.2144289 C16.1323105,12.4314474 16.1323105,12.7888895 15.7548079,13.0059079 L9.25155,16.7608737 C8.87404737,16.9778921 8.56584474,16.8009947 8.56584474,16.3651342 L8.56584474,8.85520263 Z" id="路径" fill="#FFFFFF" fill-rule="nonzero"></path>
                            <path d="M11.0051968,20.924277 C7.62735244,20.8945999 4.60834351,18.8101447 3.38361939,15.6620082 C2.13509003,12.5064786 2.90082195,8.90994222 5.32647691,6.53667648 C6.09484018,5.79118501 7.0009189,5.20232261 7.99420325,4.80291573 C8.39974172,4.6377567 8.59646,4.17667394 8.43504894,3.76962918 C8.35932721,3.57386812 8.20828104,3.41663824 8.01571404,3.33312704 C7.82314704,3.24961584 7.60513734,3.24679598 7.41047475,3.32529854 C6.2289669,3.80063154 5.15125391,4.50135212 4.23743122,5.3883867 C2.31675972,7.25861442 1.22806874,9.8221238 1.21598284,12.5029044 C1.1999309,15.0894786 2.18380314,17.5822463 3.96212047,19.4605995 C5.09302085,20.651979 6.50442321,21.5409947 8.06738712,22.0464296 L6.195971,22.8009205 C5.81866494,22.98135 5.64523315,23.4229165 5.79889691,23.8118922 C5.95256066,24.200868 6.3809501,24.4046867 6.77969949,24.2785377 L11.2944473,22.4576533 C11.6447173,22.3145415 11.8459121,21.9447086 11.7757732,21.572888 C11.7056343,21.2010674 11.3835324,20.9299472 11.0051968,20.924277 L11.0051968,20.924277 Z M18.2713097,5.64627272 C17.1398345,4.45598888 15.7285746,3.56766185 14.166043,3.0621851 L16.3737564,1.51486897 C16.7510625,1.3344395 16.9244943,0.892872947 16.7708305,0.503897234 C16.6171668,0.114921522 16.1887773,-0.0888972585 15.7900279,0.0372517744 L10.9407253,2.65096144 C10.5896162,2.79423373 10.3878162,3.16480047 10.4579563,3.53747308 C10.5280965,3.91014569 10.8508049,4.18199542 11.2299758,4.18782273 C14.6066021,4.22134433 17.6236656,6.30445632 18.8515532,9.45009152 C19.6670447,11.5097502 19.6388763,13.8076605 18.7731419,15.8467103 C17.9156297,17.8777001 16.2839009,19.4830905 14.2392269,20.3074415 C13.9415811,20.4275363 13.7451299,20.7145836 13.7409421,21.035517 C13.7367544,21.3564504 13.9256488,21.648526 14.2200597,21.7763463 C14.4047618,21.8565001 14.6208285,21.8652124 14.8229554,21.7833162 C17.2587188,20.8029347 19.2020499,18.8903407 20.2211371,16.4705157 C21.7828701,12.795878 21.0171315,8.54496811 18.2713097,5.64627272 L18.2713097,5.64627272 Z" id="形状" fill="#00AAE7" fill-rule="nonzero"></path>
                        </g>
                    </g>
                    <g id="节点-统计" transform="translate(394.000000, 603.000000)" fill-rule="nonzero">
                        <rect id="矩形" fill="#000000" opacity="0" x="0" y="0" width="24" height="24"></rect>
                        <path d="M9.66666667,2 L15,2 L15,22 L9.66666667,22 L9.66666667,2 Z M16.3333333,7.33333333 L21.6666667,7.33333333 L21.6666667,22 L16.3333333,22 L16.3333333,7.33333333 Z M3,11.3333333 L8.33333333,11.3333333 L8.33333333,22 L3,22 L3,11.3333333 Z" id="形状" fill="#00AAE7"></path>
                    </g>
                    <g id="寻找标的" transform="translate(529.000000, 603.000000)" fill-rule="nonzero">
                        <rect id="矩形" fill="#000000" opacity="0" x="0" y="0" width="24" height="24"></rect>
                        <path d="M2.2734375,13.2734375 C2.2734375,19.3485697 7.19830525,24.2734375 13.2734375,24.2734375 C19.3485697,24.2734375 24.2734375,19.3485697 24.2734375,13.2734375 C24.2734375,7.19830525 19.3485697,2.2734375 13.2734375,2.2734375 C7.19830525,2.2734375 2.2734375,7.19830525 2.2734375,13.2734375 Z" id="路径" fill="#00AAE7"></path>
                        <path d="M8.76639023,18.7137082 C8.84817612,19.8691544 9.54019461,20.8931901 10.5817521,21.4000458 C11.6233096,21.9069016 12.8561565,21.8195681 13.8158612,21.1709452 C14.7755659,20.5223222 15.3163151,19.4109587 15.2344006,18.2555216 C15.1526147,17.1000754 14.4605962,16.0760398 13.4190387,15.569184 C12.3774812,15.0623282 11.1446343,15.1496617 10.1849296,15.7982846 C9.22522494,16.4469076 8.68447575,17.5582711 8.76639023,18.7137082 L8.76639023,18.7137082 Z" id="路径" fill="#FFFFFF"></path>
                    </g>
                    <g id="直播回放" transform="translate(663.000000, 603.000000)" fill-rule="nonzero">
                        <rect id="矩形" fill="#000000" opacity="0" x="0" y="0" width="24" height="24"></rect>
                        <path d="M13.625,2.4609375 C7.5467064,2.4609375 2.625,7.3881646 2.625,13.4609375 C2.625,19.5392311 7.5522271,24.4609375 13.625,24.4609375 C19.6977729,24.4609375 24.625,19.5392311 24.625,13.4609375 C24.625,7.3826439 19.6977729,2.4609375 13.625,2.4609375 Z M13.625,18.9623177 C10.5858532,18.9623177 8.12638018,16.5000843 8.12638018,13.4636979 L9.77430991,13.4636979 C9.77430991,15.5891684 11.4995295,17.3143879 13.625,17.3143879 C15.7504705,17.3143879 17.4756901,15.586408 17.4756901,13.4609375 C17.4756901,11.335467 15.7504705,9.61024741 13.625,9.61024741 C12.7030427,9.61024741 11.8666562,9.94977062 11.2041719,10.4880391 L10.0255019,9.30936912 C10.9916248,8.47298267 12.2475847,7.96231768 13.625,7.96231768 C16.6641468,7.96231768 19.1236198,10.4245511 19.1236198,13.4609375 C19.1236198,16.4973239 16.6641468,18.9623177 13.625,18.9623177 Z M11.7010351,13.6017154 C11.7010351,13.0579262 11.7341593,12.5224181 11.7976474,12.0007117 C11.8638959,11.4541621 12.3800816,11.1201596 12.8438206,11.3189049 C13.6967691,11.688792 14.497271,12.1718534 15.2260038,12.7542876 C15.6593789,13.0993315 15.6593789,13.8087418 15.2260038,14.1537857 C14.4862296,14.7445009 13.6746863,15.233083 12.807936,15.6029701 C12.3303952,15.8072361 11.8142095,15.4428697 11.7617629,14.8825184 C11.7175972,14.4601847 11.7010351,14.0350906 11.7010351,13.6017154 L11.7010351,13.6017154 Z" id="形状" fill="#00AAE7"></path>
                    </g>
                    <path id="路径-4" d="M113,77 L113,80 L119,80 L112,94 L105,80 L111,80 L111,77 L113,77 Z M113,69 L113,73 L111,73 L111,69 L113,69 Z M113,61 L113,65 L111,65 L111,61 L113,61 Z M446,45 L460,52 L446,59 L446,53 L443,53 L443,51 L446,51 L446,45 Z M113,53 L113,57 L111,57 L111,53 L113,53 Z M119,51 L119,53 L115,53 L115,51 L119,51 Z M127,51 L127,53 L123,53 L123,51 L127,51 Z M135,51 L135,53 L131,53 L131,51 L135,51 Z M143,51 L143,53 L139,53 L139,51 L143,51 Z M151,51 L151,53 L147,53 L147,51 L151,51 Z M159,51 L159,53 L155,53 L155,51 L159,51 Z M167,51 L167,53 L163,53 L163,51 L167,51 Z M175,51 L175,53 L171,53 L171,51 L175,51 Z M183,51 L183,53 L179,53 L179,51 L183,51 Z M191,51 L191,53 L187,53 L187,51 L191,51 Z M199,51 L199,53 L195,53 L195,51 L199,51 Z M207,51 L207,53 L203,53 L203,51 L207,51 Z M215,51 L215,53 L211,53 L211,51 L215,51 Z M223,51 L223,53 L219,53 L219,51 L223,51 Z M231,51 L231,53 L227,53 L227,51 L231,51 Z M239,51 L239,53 L235,53 L235,51 L239,51 Z M247,51 L247,53 L243,53 L243,51 L247,51 Z M255,51 L255,53 L251,53 L251,51 L255,51 Z M263,51 L263,53 L259,53 L259,51 L263,51 Z M271,51 L271,53 L267,53 L267,51 L271,51 Z M279,51 L279,53 L275,53 L275,51 L279,51 Z M287,51 L287,53 L283,53 L283,51 L287,51 Z M295,51 L295,53 L291,53 L291,51 L295,51 Z M303,51 L303,53 L299,53 L299,51 L303,51 Z M311,51 L311,53 L307,53 L307,51 L311,51 Z M319,51 L319,53 L315,53 L315,51 L319,51 Z M327,51 L327,53 L323,53 L323,51 L327,51 Z M335,51 L335,53 L331,53 L331,51 L335,51 Z M343,51 L343,53 L339,53 L339,51 L343,51 Z M351,51 L351,53 L347,53 L347,51 L351,51 Z M359,51 L359,53 L355,53 L355,51 L359,51 Z M367,51 L367,53 L363,53 L363,51 L367,51 Z M375,51 L375,53 L371,53 L371,51 L375,51 Z M383,51 L383,53 L379,53 L379,51 L383,51 Z M391,51 L391,53 L387,53 L387,51 L391,51 Z M399,51 L399,53 L395,53 L395,51 L399,51 Z M407,51 L407,53 L403,53 L403,51 L407,51 Z M415,51 L415,53 L411,53 L411,51 L415,51 Z M423,51 L423,53 L419,53 L419,51 L423,51 Z M431,51 L431,53 L427,53 L427,51 L431,51 Z M439,51 L439,53 L435,53 L435,51 L439,51 Z" fill="#1AB9EB" fill-rule="nonzero"></path>
                    <g id="编组-2备份-3" transform="translate(226.000000, 31.000000)">
                        <path d="M132,0.5 L16,0.5 C11.7197932,0.5 7.84479319,2.23489659 5.03984489,5.03984489 C2.23489659,7.84479319 0.5,11.7197932 0.5,16 C0.5,20.2802068 2.23489659,24.1552068 5.03984489,26.9601551 C7.84479319,29.7651034 11.7197932,31.5 16,31.5 L132,31.5 C136.280207,31.5 140.155207,29.7651034 142.960155,26.9601551 C145.765103,24.1552068 147.5,20.2802068 147.5,16 C147.5,11.7197932 145.765103,7.84479319 142.960155,5.03984489 C140.155207,2.23489659 136.280207,0.5 132,0.5 Z" id="矩形备份-3" stroke="#1AB9EB" fill="#E2F5FC"></path>
                        <text id="授权并获取推流地址" font-family="PingFangSC-Regular, PingFang SC" font-size="14" font-weight="normal" fill="#00AAE7">
                            <tspan x="11" y="21">授权并获取推流地址</tspan>
                        </text>
                    </g>
                    <path id="路径-5" d="M970,320 L970,323 L976,323 L969,337 L962,323 L968,323 L968,320 L970,320 Z M970,312 L970,316 L968,316 L968,312 L970,312 Z M970,304 L970,308 L968,308 L968,304 L970,304 Z M970,296 L970,300 L968,300 L968,296 L970,296 Z M970,288 L970,292 L968,292 L968,288 L970,288 Z M970,280 L970,284 L968,284 L968,280 L970,280 Z M970,272 L970,276 L968,276 L968,272 L970,272 Z M970,264 L970,268 L968,268 L968,264 L970,264 Z M970,256 L970,260 L968,260 L968,256 L970,256 Z M970,248 L970,252 L968,252 L968,248 L970,248 Z M970,240 L970,244 L968,244 L968,240 L970,240 Z M970,232 L970,236 L968,236 L968,232 L970,232 Z M970,224 L970,228 L968,228 L968,224 L970,224 Z M970,216 L970,220 L968,220 L968,216 L970,216 Z M970,208 L970,212 L968,212 L968,208 L970,208 Z M970,200 L970,204 L968,204 L968,200 L970,200 Z M970,192 L970,196 L968,196 L968,192 L970,192 Z M970,184 L970,188 L968,188 L968,184 L970,184 Z M970,176 L970,180 L968,180 L968,176 L970,176 Z M970,168 L970,172 L968,172 L968,168 L970,168 Z M970,160 L970,164 L968,164 L968,160 L970,160 Z M970,152 L970,156 L968,156 L968,152 L970,152 Z M970,144 L970,148 L968,148 L968,144 L970,144 Z M970,136 L970,140 L968,140 L968,136 L970,136 Z M970,128 L970,132 L968,132 L968,128 L970,128 Z M970,120 L970,124 L968,124 L968,120 L970,120 Z M970,112 L970,116 L968,116 L968,112 L970,112 Z M970,104 L970,108 L968,108 L968,104 L970,104 Z M970,96 L970,100 L968,100 L968,96 L970,96 Z M970,88 L970,92 L968,92 L968,88 L970,88 Z M970,80 L970,84 L968,84 L968,80 L970,80 Z M970,72 L970,76 L968,76 L968,72 L970,72 Z M970,64 L970,68 L968,68 L968,64 L970,64 Z M970,56 L970,60 L968,60 L968,56 L970,56 Z M636,45 L636,59 L622,52 L636,45 Z M969,51 L969,53 L965,53 L965,51 L969,51 Z M961,51 L961,53 L957,53 L957,51 L961,51 Z M953,51 L953,53 L949,53 L949,51 L953,51 Z M945,51 L945,53 L941,53 L941,51 L945,51 Z M937,51 L937,53 L933,53 L933,51 L937,51 Z M929,51 L929,53 L925,53 L925,51 L929,51 Z M921,51 L921,53 L917,53 L917,51 L921,51 Z M913,51 L913,53 L909,53 L909,51 L913,51 Z M905,51 L905,53 L901,53 L901,51 L905,51 Z M897,51 L897,53 L893,53 L893,51 L897,51 Z M889,51 L889,53 L885,53 L885,51 L889,51 Z M881,51 L881,53 L877,53 L877,51 L881,51 Z M873,51 L873,53 L869,53 L869,51 L873,51 Z M865,51 L865,53 L861,53 L861,51 L865,51 Z M857,51 L857,53 L853,53 L853,51 L857,51 Z M849,51 L849,53 L845,53 L845,51 L849,51 Z M841,51 L841,53 L837,53 L837,51 L841,51 Z M833,51 L833,53 L829,53 L829,51 L833,51 Z M825,51 L825,53 L821,53 L821,51 L825,51 Z M817,51 L817,53 L813,53 L813,51 L817,51 Z M809,51 L809,53 L805,53 L805,51 L809,51 Z M801,51 L801,53 L797,53 L797,51 L801,51 Z M793,51 L793,53 L789,53 L789,51 L793,51 Z M785,51 L785,53 L781,53 L781,51 L785,51 Z M777,51 L777,53 L773,53 L773,51 L777,51 Z M769,51 L769,53 L765,53 L765,51 L769,51 Z M761,51 L761,53 L757,53 L757,51 L761,51 Z M753,51 L753,53 L749,53 L749,51 L753,51 Z M745,51 L745,53 L741,53 L741,51 L745,51 Z M737,51 L737,53 L733,53 L733,51 L737,51 Z M729,51 L729,53 L725,53 L725,51 L729,51 Z M721,51 L721,53 L717,53 L717,51 L721,51 Z M713,51 L713,53 L709,53 L709,51 L713,51 Z M705,51 L705,53 L701,53 L701,51 L705,51 Z M697,51 L697,53 L693,53 L693,51 L697,51 Z M689,51 L689,53 L685,53 L685,51 L689,51 Z M681,51 L681,53 L677,53 L677,51 L681,51 Z M673,51 L673,53 L669,53 L669,51 L673,51 Z M665,51 L665,53 L661,53 L661,51 L665,51 Z M657,51 L657,53 L653,53 L653,51 L657,51 Z M649,51 L649,53 L645,53 L645,51 L649,51 Z M641,51 L641,53 L637,53 L637,51 L641,51 Z" fill="#1AB9EB" fill-rule="nonzero"></path>
                    <g id="编组-2备份-4" transform="translate(715.000000, 31.000000)">
                        <path d="M132,0.5 L16,0.5 C11.7197932,0.5 7.84479319,2.23489659 5.03984489,5.03984489 C2.23489659,7.84479319 0.5,11.7197932 0.5,16 C0.5,20.2802068 2.23489659,24.1552068 5.03984489,26.9601551 C7.84479319,29.7651034 11.7197932,31.5 16,31.5 L132,31.5 C136.280207,31.5 140.155207,29.7651034 142.960155,26.9601551 C145.765103,24.1552068 147.5,20.2802068 147.5,16 C147.5,11.7197932 145.765103,7.84479319 142.960155,5.03984489 C140.155207,2.23489659 136.280207,0.5 132,0.5 Z" id="矩形备份-3" stroke="#1AB9EB" fill="#E2F5FC"></path>
                        <text id="授权并获取拉流地址" font-family="PingFangSC-Regular, PingFang SC" font-size="14" font-weight="normal" fill="#00AAE7">
                            <tspan x="11" y="21">授权并获取拉流地址</tspan>
                        </text>
                    </g>
                    <g id="业务服务器" transform="translate(522.000000, 14.000000)" fill-rule="nonzero">
                        <rect id="矩形" fill="#000000" opacity="0" x="0" y="0" width="36" height="36"></rect>
                        <path d="M35.4375,17.5 L31.5,17.5 L31.5,4.5625 C31.5,4.25183983 31.2481602,4 30.9375,4 L12.375,4 C12.0643398,4 11.8125,4.25183983 11.8125,4.5625 L11.8125,7.9375 L5.0625,7.9375 C4.75183983,7.9375 4.5,8.18933983 4.5,8.5 L4.5,17.5 L0.5625,17.5 C0.251839828,17.5 0,17.7518398 0,18.0625 L0,30.4375 C0,30.7481602 0.251839828,31 0.5625,31 L35.4375,31 C35.7481602,31 36,30.7481602 36,30.4375 L36,18.0625 C36,17.7518398 35.7481602,17.5 35.4375,17.5 Z M11.8125,17.5 L7.875,17.5 L7.875,11.3125 L11.8125,11.3125 L11.8125,17.5 Z M28.125,17.5 L15.1875,17.5 L15.1875,7.375 L28.125,7.375 L28.125,17.5 Z" id="形状" fill="#00AAE7"></path>
                        <polygon id="路径" fill="#00AAE7" points="18 10 26 10 26 13 18 13"></polygon>
                        <polygon id="路径" fill="#00AAE7" points="17 13 23 13 23 16 17 16"></polygon>
                        <polygon id="路径" fill="#FFFFFF" points="27 22 30 22 30 26 27 26"></polygon>
                        <polygon id="路径" fill="#FFFFFF" points="22 22 25 22 25 26 22 26"></polygon>
                        <polygon id="路径" fill="#FFFFFF" points="6 22 10 22 10 26 6 26"></polygon>
                        <polygon id="路径" fill="#FFFFFF" points="12 22 16 22 16 26 12 26"></polygon>
                    </g>
                    <path id="路径-6" d="M539.317498,204.988488 L541.317482,204.996424 L541.305,208.003 L547.3055,208.027888 L540.25,222 L533.30561,207.972333 L539.305,207.996 L539.317498,204.988488 Z M539.349244,196.988551 L541.349228,196.996487 L541.333355,200.996456 L539.333371,200.988519 L539.349244,196.988551 Z M539.38099,188.988614 L541.380974,188.99655 L541.365101,192.996519 L539.365117,192.988582 L539.38099,188.988614 Z M539.412735,180.988677 L541.41272,180.996613 L541.396847,184.996582 L539.396863,184.988645 L539.412735,180.988677 Z M539.444481,172.98874 L541.444466,172.996676 L541.428593,176.996645 L539.428608,176.988708 L539.444481,172.98874 Z M539.476227,164.988803 L541.476211,164.996739 L541.460338,168.996708 L539.460354,168.988771 L539.476227,164.988803 Z M539.507973,156.988866 L541.507957,156.996802 L541.492084,160.996771 L539.4921,160.988834 L539.507973,156.988866 Z M539.539719,148.988929 L541.539703,148.996865 L541.52383,152.996834 L539.523846,152.988897 L539.539719,148.988929 Z M539.571464,140.988992 L541.571449,140.996928 L541.555576,144.996897 L539.555591,144.98896 L539.571464,140.988992 Z M539.60321,132.989055 L541.603194,132.996991 L541.587322,136.99696 L539.587337,136.989023 L539.60321,132.989055 Z M539.634956,124.989118 L541.63494,124.997054 L541.619067,128.997023 L539.619083,128.989086 L539.634956,124.989118 Z M539.666702,116.989181 L541.666686,116.997117 L541.650813,120.997086 L539.650829,120.989149 L539.666702,116.989181 Z M540.75,96 L547.69439,110.027667 L541.694,110.003 L541.682559,112.997149 L539.682575,112.989212 L539.694,109.996 L533.6945,109.972112 L540.75,96 Z" fill="#1AB9EB" fill-rule="nonzero"></path>
                    <path d="M619,134.5 L462,134.5 C461.585786,134.5 461.210786,134.667893 460.93934,134.93934 C460.667893,135.210786 460.5,135.585786 460.5,136 L460.5,176 C460.5,176.414214 460.667893,176.789214 460.93934,177.06066 C461.210786,177.332107 461.585786,177.5 462,177.5 L619,177.5 C619.414214,177.5 619.789214,177.332107 620.06066,177.06066 C620.332107,176.789214 620.5,176.414214 620.5,176 L620.5,136 C620.5,135.585786 620.332107,135.210786 620.06066,134.93934 C619.789214,134.667893 619.414214,134.5 619,134.5 Z" id="矩形备份" stroke="#1AB9EB" fill="#E2F5FC"></path>
                    <text id="服务端-SDK" font-family="PingFangSC-Regular, PingFang SC" font-size="18" font-weight="normal" fill="#00AAE7">
                        <tspan x="492" y="162">服务端 SDK</tspan>
                    </text>
                    <g id="编组-3" transform="translate(364.000000, 334.000000)" stroke="#00AAE7" stroke-linecap="round" stroke-width="1.5">
                        <path d="M8,0 L8,14.7928932 C8,15.0690356 8.22385763,15.2928932 8.5,15.2928932 C8.63260824,15.2928932 8.7597852,15.2402148 8.85355339,15.1464466 L12,12 L12,12" id="路径-7"></path>
                        <path d="M0,0 L0,14.7928932 C-1.74253915e-15,15.0690356 0.223857625,15.2928932 0.5,15.2928932 C0.632608245,15.2928932 0.759785201,15.2402148 0.853553391,15.1464466 L4,12 L4,12" id="路径-7备份" transform="translate(2.000000, 8.000000) scale(-1, -1) translate(-2.000000, -8.000000) "></path>
                    </g>
                    <g id="编组-4" transform="translate(520.000000, 336.000000)" stroke="#00AAE7" stroke-linecap="round" stroke-width="1.5">
                        <g id="编组-3备份-2">
                            <path d="M8,0 L8,14.7928932 C8,15.0690356 8.22385763,15.2928932 8.5,15.2928932 C8.63260824,15.2928932 8.7597852,15.2402148 8.85355339,15.1464466 L12,12 L12,12" id="路径-7"></path>
                            <path d="M0,0 L0,14.7928932 C-1.74253915e-15,15.0690356 0.223857625,15.2928932 0.5,15.2928932 C0.632608245,15.2928932 0.759785201,15.2402148 0.853553391,15.1464466 L4,12 L4,12" id="路径-7备份" transform="translate(2.000000, 8.000000) scale(-1, -1) translate(-2.000000, -8.000000) "></path>
                        </g>
                        <g id="编组-3备份-3" transform="translate(28.000000, 0.000000)">
                            <path d="M8,0 L8,14.7928932 C8,15.0690356 8.22385763,15.2928932 8.5,15.2928932 C8.63260824,15.2928932 8.7597852,15.2402148 8.85355339,15.1464466 L12,12 L12,12" id="路径-7"></path>
                            <path d="M0,0 L0,14.7928932 C-1.74253915e-15,15.0690356 0.223857625,15.2928932 0.5,15.2928932 C0.632608245,15.2928932 0.759785201,15.2402148 0.853553391,15.1464466 L4,12 L4,12" id="路径-7备份" transform="translate(2.000000, 8.000000) scale(-1, -1) translate(-2.000000, -8.000000) "></path>
                        </g>
                    </g>
                    <g id="编组-3备份" transform="translate(392.000000, 336.000000)" stroke="#00AAE7" stroke-linecap="round" stroke-width="1.5">
                        <path d="M8,0 L8,14.7928932 C8,15.0690356 8.22385763,15.2928932 8.5,15.2928932 C8.63260824,15.2928932 8.7597852,15.2402148 8.85355339,15.1464466 L12,12 L12,12" id="路径-7"></path>
                        <path d="M0,0 L0,14.7928932 C-1.74253915e-15,15.0690356 0.223857625,15.2928932 0.5,15.2928932 C0.632608245,15.2928932 0.759785201,15.2402148 0.853553391,15.1464466 L4,12 L4,12" id="路径-7备份" transform="translate(2.000000, 8.000000) scale(-1, -1) translate(-2.000000, -8.000000) "></path>
                    </g>
                    <g id="编组-3备份-5" transform="translate(676.000000, 336.000000)" stroke="#00AAE7" stroke-linecap="round" stroke-width="1.5">
                        <path d="M8,0 L8,14.7928932 C8,15.0690356 8.22385763,15.2928932 8.5,15.2928932 C8.63260824,15.2928932 8.7597852,15.2402148 8.85355339,15.1464466 L12,12 L12,12" id="路径-7"></path>
                        <path d="M0,0 L0,14.7928932 C-1.74253915e-15,15.0690356 0.223857625,15.2928932 0.5,15.2928932 C0.632608245,15.2928932 0.759785201,15.2402148 0.853553391,15.1464466 L4,12 L4,12" id="路径-7备份" transform="translate(2.000000, 8.000000) scale(-1, -1) translate(-2.000000, -8.000000) "></path>
                    </g>
                    <g id="编组-3备份-4" transform="translate(704.000000, 336.000000)" stroke="#00AAE7" stroke-linecap="round" stroke-width="1.5">
                        <path d="M8,0 L8,14.7928932 C8,15.0690356 8.22385763,15.2928932 8.5,15.2928932 C8.63260824,15.2928932 8.7597852,15.2402148 8.85355339,15.1464466 L12,12 L12,12" id="路径-7"></path>
                        <path d="M0,0 L0,14.7928932 C-1.74253915e-15,15.0690356 0.223857625,15.2928932 0.5,15.2928932 C0.632608245,15.2928932 0.759785201,15.2402148 0.853553391,15.1464466 L4,12 L4,12" id="路径-7备份" transform="translate(2.000000, 8.000000) scale(-1, -1) translate(-2.000000, -8.000000) "></path>
                    </g>
                    <g id="摄像头" transform="translate(156.000000, 144.000000)" fill-rule="nonzero">
                        <rect id="矩形" fill="#000000" opacity="0" x="0" y="0" width="24" height="24"></rect>
                        <path d="M13.8867188,9.1828125 C13.3546875,8.65078125 12.7335937,8.3953125 12,8.3953125 C11.2664063,8.3953125 10.6453125,8.65078125 10.1132812,9.1828125 C9.58125,9.69609375 9.32578125,10.3171875 9.32578125,11.0507812 C9.32578125,11.784375 9.58125,12.4054687 10.1132812,12.91875 C10.6429687,13.4320313 11.2664062,13.6875 12,13.6875 C12.7335937,13.6875 13.3546875,13.4320313 13.8867188,12.91875 C14.41875,12.4054688 14.6742188,11.784375 14.6742188,11.0507813 C14.6742188,10.3171875 14.4164063,9.69609375 13.8867188,9.1828125 L13.8867188,9.1828125 Z M13.8867188,9.1828125 C13.3546875,8.65078125 12.7335937,8.3953125 12,8.3953125 C11.2664063,8.3953125 10.6453125,8.65078125 10.1132812,9.1828125 C9.58125,9.69609375 9.32578125,10.3171875 9.32578125,11.0507812 C9.32578125,11.784375 9.58125,12.4054687 10.1132812,12.91875 C10.6429687,13.4320313 11.2664062,13.6875 12,13.6875 C12.7335937,13.6875 13.3546875,13.4320313 13.8867188,12.91875 C14.41875,12.4054688 14.6742188,11.784375 14.6742188,11.0507813 C14.6742188,10.3171875 14.4164063,9.69609375 13.8867188,9.1828125 L13.8867188,9.1828125 Z M13.8867188,9.1828125 C13.3546875,8.65078125 12.7335937,8.3953125 12,8.3953125 C11.2664063,8.3953125 10.6453125,8.65078125 10.1132812,9.1828125 C9.58125,9.69609375 9.32578125,10.3171875 9.32578125,11.0507812 C9.32578125,11.784375 9.58125,12.4054687 10.1132812,12.91875 C10.6429687,13.4320313 11.2664062,13.6875 12,13.6875 C12.7335937,13.6875 13.3546875,13.4320313 13.8867188,12.91875 C14.41875,12.4054688 14.6742188,11.784375 14.6742188,11.0507813 C14.6742188,10.3171875 14.4164063,9.69609375 13.8867188,9.1828125 L13.8867188,9.1828125 Z" id="形状" fill="#28B8BB"></path>
                        <path d="M18.9398437,15.0421875 C19.6546875,13.8164062 20.0203125,12.496875 20.0203125,11.0507812 C20.0203125,9.6046875 19.6546875,8.28515625 18.9398437,7.059375 C18.225,5.83125 17.2359375,4.8796875 16.0101562,4.1671875 C14.7820312,3.45234375 13.4460937,3.10546875 12,3.10546875 C10.5539062,3.10546875 9.19921875,3.45234375 7.97109375,4.1671875 C6.7453125,4.88203125 5.77265625,5.83359375 5.06015625,7.059375 C4.3453125,8.28515625 3.9796875,9.6046875 3.9796875,11.0507812 C3.9796875,12.496875 4.3453125,13.8164062 5.06015625,15.0421875 C5.65078125,16.0570312 6.4171875,16.884375 7.359375,17.5429688 C6.19921875,17.8992187 5.484375,18.3867188 5.484375,18.9257812 C5.484375,20.0132813 8.40234375,20.8945312 12,20.8945312 C15.5976562,20.8945312 18.515625,20.0132813 18.515625,18.9257812 C18.515625,18.384375 17.7960937,17.896875 16.6289062,17.540625 C17.5734375,16.8820312 18.3492187,16.0570313 18.9398437,15.0421875 Z M8.94140625,8.0296875 C9.7828125,7.18828125 10.809375,6.76640625 12,6.76640625 C13.190625,6.76640625 14.2148438,7.18828125 15.0585938,8.0296875 C15.9,8.8546875 16.321875,9.86015625 16.321875,11.0507812 C16.321875,12.2414062 15.9,13.2492188 15.0585938,14.071875 C14.2171875,14.896875 13.190625,15.3164062 12,15.3164062 C10.809375,15.3164062 9.78515625,14.8945312 8.94140625,14.071875 C8.1,13.246875 7.678125,12.2414062 7.678125,11.0507812 C7.678125,9.8625 8.1,8.8546875 8.94140625,8.0296875 Z" id="形状" fill="#28B8BB"></path>
                    </g>
                    <g id="更多" transform="translate(104.000000, 654.000000)" fill-rule="nonzero">
                        <rect id="矩形" fill="#000000" opacity="0" x="0" y="0" width="16" height="16"></rect>
                        <path d="M0,8 C0,9.00414753 0.814022408,9.81816994 1.81816994,9.81816994 C2.82231747,9.81816994 3.63633987,9.00414753 3.63633987,8 C3.63633987,6.99585247 2.82231747,6.18183006 1.81816994,6.18183006 C0.814022408,6.18183006 0,6.99585247 0,8 Z M6.18183006,8 C6.18183006,8.64956956 6.52837128,9.2497966 7.09091502,9.57458139 C7.65345876,9.89936617 8.34654124,9.89936617 8.90908498,9.57458139 C9.47162872,9.2497966 9.81816994,8.64956956 9.81816994,8 C9.81816994,6.99585247 9.00414753,6.18183006 8,6.18183006 C6.99585247,6.18183006 6.18183006,6.99585247 6.18183006,8 L6.18183006,8 Z M12.3636601,8 C12.3636601,9.00414753 13.1776825,9.81816994 14.1818301,9.81816994 C15.1859776,9.81816994 16,9.00414753 16,8 C16,6.99585247 15.1859776,6.18183006 14.1818301,6.18183006 C13.1776825,6.18183006 12.3636601,6.99585247 12.3636601,8 Z" id="形状" fill="#28B8BB"></path>
                    </g>
                    <g id="更多备份" transform="translate(961.000000, 651.000000)" fill-rule="nonzero">
                        <rect id="矩形" fill="#000000" opacity="0" x="0" y="0" width="16" height="16"></rect>
                        <path d="M0,8 C0,9.00414753 0.814022408,9.81816994 1.81816994,9.81816994 C2.82231747,9.81816994 3.63633987,9.00414753 3.63633987,8 C3.63633987,6.99585247 2.82231747,6.18183006 1.81816994,6.18183006 C0.814022408,6.18183006 0,6.99585247 0,8 Z M6.18183006,8 C6.18183006,8.64956956 6.52837128,9.2497966 7.09091502,9.57458139 C7.65345876,9.89936617 8.34654124,9.89936617 8.90908498,9.57458139 C9.47162872,9.2497966 9.81816994,8.64956956 9.81816994,8 C9.81816994,6.99585247 9.00414753,6.18183006 8,6.18183006 C6.99585247,6.18183006 6.18183006,6.99585247 6.18183006,8 L6.18183006,8 Z M12.3636601,8 C12.3636601,9.00414753 13.1776825,9.81816994 14.1818301,9.81816994 C15.1859776,9.81816994 16,9.00414753 16,8 C16,6.99585247 15.1859776,6.18183006 14.1818301,6.18183006 C13.1776825,6.18183006 12.3636601,6.99585247 12.3636601,8 Z" id="形状" fill="#28B8BB"></path>
                    </g>
                    <path id="路径-3备份" d="M315.5,579 L324.5,583.5 L315.5,588 L315.5,584 L224,584 L224,583 L315.5,583 L315.5,579 Z" fill="#1AB9EB" fill-rule="nonzero"></path>
                    <g id="编组-2备份-2" transform="translate(244.000000, 567.000000)">
                        <path d="M44,0.5 L16,0.5 C11.7197932,0.5 7.84479319,2.23489659 5.03984489,5.03984489 C2.23489659,7.84479319 0.5,11.7197932 0.5,16 C0.5,20.2802068 2.23489659,24.1552068 5.03984489,26.9601551 C7.84479319,29.7651034 11.7197932,31.5 16,31.5 L44,31.5 C48.2802068,31.5 52.1552068,29.7651034 54.9601551,26.9601551 C57.7651034,24.1552068 59.5,20.2802068 59.5,16 C59.5,11.7197932 57.7651034,7.84479319 54.9601551,5.03984489 C52.1552068,2.23489659 48.2802068,0.5 44,0.5 Z" id="矩形备份-3" stroke="#1AB9EB" fill="#E2F5FC"></path>
                        <text id="RTMP" font-family="PingFangSC-Regular, PingFang SC" font-size="14" font-weight="normal" fill="#00AAE7">
                            <tspan x="10" y="21">RTMP</tspan>
                        </text>
                    </g>
                    <path id="路径-3" d="M315.5,300 L324.5,304.5 L315.5,309 L315.5,305 L224,305 L224,304 L315.5,304 L315.5,300 Z" fill="#1AB9EB" fill-rule="nonzero"></path>
                    <g id="编组-2备份" transform="translate(243.000000, 288.000000)">
                        <path d="M44,0.5 L16,0.5 C11.7197932,0.5 7.84479319,2.23489659 5.03984489,5.03984489 C2.23489659,7.84479319 0.5,11.7197932 0.5,16 C0.5,20.2802068 2.23489659,24.1552068 5.03984489,26.9601551 C7.84479319,29.7651034 11.7197932,31.5 16,31.5 L44,31.5 C48.2802068,31.5 52.1552068,29.7651034 54.9601551,26.9601551 C57.7651034,24.1552068 59.5,20.2802068 59.5,16 C59.5,11.7197932 57.7651034,7.84479319 54.9601551,5.03984489 C52.1552068,2.23489659 48.2802068,0.5 44,0.5 Z" id="矩形备份-3" stroke="#1AB9EB" fill="#E2F5FC"></path>
                        <text id="RTMP" font-family="PingFangSC-Regular, PingFang SC" font-size="14" font-weight="normal" fill="#00AAE7">
                            <tspan x="11" y="21">RTMP</tspan>
                        </text>
                    </g>
                    <path id="路径-3备份-2" d="M847.5,431 L856.5,435.5 L847.5,440 L847.5,436 L756,436 L756,435 L847.5,435 L847.5,431 Z" fill="#1AB9EB" fill-rule="nonzero"></path>
                    <path id="路径-3备份-3" d="M847.5,487 L856.5,491.5 L847.5,496 L847.5,492 L756,492 L756,491 L847.5,491 L847.5,487 Z" fill="#1AB9EB" fill-rule="nonzero"></path>
                    <path id="路径-3备份-4" d="M847.5,543 L856.5,547.5 L847.5,552 L847.5,548 L756,548 L756,547 L847.5,547 L847.5,543 Z" fill="#1AB9EB" fill-rule="nonzero"></path>
                    <g id="编组-2备份-5" transform="translate(771.000000, 419.000000)">
                        <path d="M44,0.5 L16,0.5 C11.7197932,0.5 7.84479319,2.23489659 5.03984489,5.03984489 C2.23489659,7.84479319 0.5,11.7197932 0.5,16 C0.5,20.2802068 2.23489659,24.1552068 5.03984489,26.9601551 C7.84479319,29.7651034 11.7197932,31.5 16,31.5 L44,31.5 C48.2802068,31.5 52.1552068,29.7651034 54.9601551,26.9601551 C57.7651034,24.1552068 59.5,20.2802068 59.5,16 C59.5,11.7197932 57.7651034,7.84479319 54.9601551,5.03984489 C52.1552068,2.23489659 48.2802068,0.5 44,0.5 Z" id="矩形备份-3" stroke="#1AB9EB" fill="#E2F5FC"></path>
                        <text id="RTMP" font-family="PingFangSC-Regular, PingFang SC" font-size="14" font-weight="normal" fill="#00AAE7">
                            <tspan x="10" y="21">RTMP</tspan>
                        </text>
                    </g>
                    <g id="编组-2备份-6" transform="translate(771.000000, 475.000000)">
                        <path d="M44,0.5 L16,0.5 C11.7197932,0.5 7.84479319,2.23489659 5.03984489,5.03984489 C2.23489659,7.84479319 0.5,11.7197932 0.5,16 C0.5,20.2802068 2.23489659,24.1552068 5.03984489,26.9601551 C7.84479319,29.7651034 11.7197932,31.5 16,31.5 L44,31.5 C48.2802068,31.5 52.1552068,29.7651034 54.9601551,26.9601551 C57.7651034,24.1552068 59.5,20.2802068 59.5,16 C59.5,11.7197932 57.7651034,7.84479319 54.9601551,5.03984489 C52.1552068,2.23489659 48.2802068,0.5 44,0.5 Z" id="矩形备份-3" stroke="#1AB9EB" fill="#E2F5FC"></path>
                        <text id="HLS" font-family="PingFangSC-Regular, PingFang SC" font-size="14" font-weight="normal" fill="#00AAE7">
                            <tspan x="16" y="21">HLS</tspan>
                        </text>
                    </g>
                    <g id="编组-2备份-7" transform="translate(771.000000, 531.000000)">
                        <path d="M44,0.5 L16,0.5 C11.7197932,0.5 7.84479319,2.23489659 5.03984489,5.03984489 C2.23489659,7.84479319 0.5,11.7197932 0.5,16 C0.5,20.2802068 2.23489659,24.1552068 5.03984489,26.9601551 C7.84479319,29.7651034 11.7197932,31.5 16,31.5 L44,31.5 C48.2802068,31.5 52.1552068,29.7651034 54.9601551,26.9601551 C57.7651034,24.1552068 59.5,20.2802068 59.5,16 C59.5,11.7197932 57.7651034,7.84479319 54.9601551,5.03984489 C52.1552068,2.23489659 48.2802068,0.5 44,0.5 Z" id="矩形备份-3" stroke="#1AB9EB" fill="#E2F5FC"></path>
                        <text id="HDL" font-family="PingFangSC-Regular, PingFang SC" font-size="14" font-weight="normal" fill="#00AAE7">
                            <tspan x="16" y="21">HDL</tspan>
                        </text>
                    </g>
                </g>
            </g>
        </g>
    </g>
</svg>