<?xml version="1.0" encoding="UTF-8"?>
<svg width="62px" height="62px" viewBox="0 0 62 62" version="1.1" xmlns="http://www.w3.org/2000/svg" xmlns:xlink="http://www.w3.org/1999/xlink">
    <!-- Generator: Sketch 64 (93537) - https://sketch.com -->
    <title>上传下载</title>
    <desc>Created with Sketch.</desc>
    <g id="产品" stroke="none" stroke-width="1" fill="none" fill-rule="evenodd">
        <g id="存储与数据湖-对象存储✅" transform="translate(-1329.000000, -2698.000000)" stroke-width="2">
            <g id="产品介绍-2" transform="translate(0.000000, 2172.000000)">
                <g id="01" transform="translate(1172.000000, 497.000000)">
                    <g id="curve-circuit" transform="translate(158.000000, 30.000000)">
                        <path d="M30,21 L30,15 C30,6.716 36.716,0 45,0 L45,0 C53.284,0 60,6.716 60,15 L60,15 C60,23.284 53.284,30 45,30 L30,30 L15,30 C6.716,30 0,36.716 0,45 L0,45 C0,53.284 6.716,60 15,60 L15,60 C23.284,60 30,53.284 30,45 L30,39" id="路径" stroke="#00AAE7"></path>
                        <polyline id="路径" stroke="#333333" stroke-linecap="square" points="39 12 30 21 21 12"></polyline>
                        <polyline id="路径" stroke="#333333" stroke-linecap="square" points="39 48 30 39 21 48"></polyline>
                    </g>
                </g>
            </g>
        </g>
    </g>
</svg>
