<?xml version="1.0" encoding="UTF-8"?>
<svg width="62px" height="57px" viewBox="0 0 62 57" version="1.1" xmlns="http://www.w3.org/2000/svg" xmlns:xlink="http://www.w3.org/1999/xlink">
    <!-- Generator: Sketch 64 (93537) - https://sketch.com -->
    <title>生命周期管理</title>
    <desc>Created with Sketch.</desc>
    <g id="产品" stroke="none" stroke-width="1" fill="none" fill-rule="evenodd" stroke-linecap="square">
        <g id="存储与数据湖-对象存储✅" transform="translate(-1329.000000, -2352.000000)" stroke-width="2">
            <g id="产品介绍-2" transform="translate(0.000000, 2172.000000)">
                <g id="01" transform="translate(1172.000000, 148.000000)">
                    <g id="heartbeat" transform="translate(158.000000, 33.000000)">
                        <path d="M57.3,20 C57.745439,18.5253506 57.9810841,16.9953405 58.0004548,15.455 C58.0314211,11.3721626 56.4335651,7.44532004 53.560401,4.54437596 C50.6872369,1.64343188 46.7759507,0.00786558192 42.693,-0.000118775214 C37.5633295,-0.0203577209 32.7776569,2.57739573 30,6.89 C27.2223431,2.57739573 22.4366705,-0.0203577209 17.307,-0.000118775214 C13.2240493,0.00786558192 9.31276313,1.64343188 6.43959904,4.54437596 C3.56643495,7.44532004 1.96857891,11.3721626 1.99954521,15.455 C2.02053817,16.9955782 2.25786725,18.5255933 2.705,20" id="路径" stroke="#333333"></path>
                        <path d="M9,31.917 C17.293,43.48 30,54 30,54 C30,54 42.707,43.48 51,31.917" id="路径" stroke="#333333"></path>
                        <polyline id="路径" stroke="#00AAE7" points="0 26 18 26 24 16 36 34 42 26 60 26"></polyline>
                    </g>
                </g>
            </g>
        </g>
    </g>
</svg>
