<?xml version="1.0" encoding="UTF-8"?>
<svg width="62px" height="50px" viewBox="0 0 62 50" version="1.1" xmlns="http://www.w3.org/2000/svg" xmlns:xlink="http://www.w3.org/1999/xlink">
    <!-- Generator: Sketch 64 (93537) - https://sketch.com -->
    <title>多媒体数据处理</title>
    <desc>Created with Sketch.</desc>
    <g id="产品" stroke="none" stroke-width="1" fill="none" fill-rule="evenodd" stroke-linecap="square">
        <g id="存储与数据湖-对象存储✅" transform="translate(-529.000000, -2355.000000)" stroke-width="2">
            <g id="产品介绍-2" transform="translate(0.000000, 2172.000000)">
                <g id="01" transform="translate(372.000000, 148.000000)">
                    <g id="pc-play-media" transform="translate(158.000000, 36.000000)">
                        <path d="M5,33 L5,5 C5,2.23857625 7.23857625,0 10,0 L50,0 C52.7614237,0 55,2.23857625 55,5 L55,33" id="路径" stroke="#333333"></path>
                        <path d="M38,39 L38,43 L22,43 L22,39 L0,39 L0,40 C0,44.418278 3.581722,48 8,48 L52,48 C56.418278,48 60,44.418278 60,40 L60,39 L38,39 Z" id="路径" stroke="#333333"></path>
                        <polygon id="路径" stroke="#00AAE7" points="25 13 25 27 37 20"></polygon>
                    </g>
                </g>
            </g>
        </g>
    </g>
</svg>
