<svg xmlns="http://www.w3.org/2000/svg" width="46" height="46" viewBox="0 0 46 46">
  <g fill="none" fill-rule="evenodd" stroke-width="2" transform="translate(1 1)">
    <path stroke="#333" stroke-linecap="square" d="M20,24 L20,24 C14.477,24 10,17.523 10,12 L10,10 C10,4.477 14.477,0 20,0 L20,0 C25.523,0 30,4.477 30,10 L30,12 C30,17.523 25.523,24 20,24 Z"/>
    <path stroke="#333" d="M27.821,29.571 C25.475,29.227 22.851,29 20,29 C13.712,29 8.523,30.098 5.007,31.144 C2.034,32.028 0,34.755 0,37.856 L0,42 L22,42"/>
    <circle cx="35" cy="35" r="9" stroke="#00AAE7" stroke-linecap="square"/>
    <line x1="35" x2="35" y1="32" y2="38" stroke="#00AAE7" stroke-linecap="square"/>
    <line x1="32" x2="38" y1="35" y2="35" stroke="#00AAE7" stroke-linecap="square"/>
  </g>
</svg>
