<svg xmlns="http://www.w3.org/2000/svg" xmlns:xlink="http://www.w3.org/1999/xlink" width="881" height="442" viewBox="0 0 881 442">
  <defs>
    <rect id="基因计算解决方案-a" width="616" height="325" x="0" y="117"/>
    <mask id="基因计算解决方案-b" width="616" height="325" x="0" y="0" fill="#fff" maskContentUnits="userSpaceOnUse" maskUnits="objectBoundingBox">
      <use xlink:href="#基因计算解决方案-a"/>
    </mask>
    <polygon id="基因计算解决方案-c" points="22 12.571 30.165 17.286 30.165 26.714 22 31.429 13.835 26.714 13.835 17.286"/>
  </defs>
  <g fill="none" fill-rule="evenodd">
    <g transform="translate(0 117)">
      <polygon fill="#28B8BB" points="0 0 144 0 144 325 0 325" opacity=".11"/>
      <g transform="translate(12 62)">
        <path fill="#47C2C5" d="M2,0 L118,0 C119.104569,-2.02906125e-16 120,0.8954305 120,2 L120,33 C120,34.1045695 119.104569,35 118,35 L2,35 C0.8954305,35 1.3527075e-16,34.1045695 0,33 L0,2 C-1.3527075e-16,0.8954305 0.8954305,2.02906125e-16 2,0 Z"/>
        <text fill="#FFF" font-family="PingFangSC-Medium, PingFang SC" font-size="14" font-weight="400">
          <tspan x="23" y="22">FASTQ文件</tspan>
        </text>
        <g transform="translate(0 55)">
          <path fill="#47C2C5" d="M2,0 L118,0 C119.104569,-2.02906125e-16 120,0.8954305 120,2 L120,33 C120,34.1045695 119.104569,35 118,35 L2,35 C0.8954305,35 1.3527075e-16,34.1045695 0,33 L0,2 C-1.3527075e-16,0.8954305 0.8954305,2.02906125e-16 2,0 Z"/>
          <text fill="#FFF" font-family="PingFangSC-Medium, PingFang SC" font-size="14" font-weight="400">
            <tspan x="32" y="23">BCL文件</tspan>
          </text>
        </g>
        <g transform="translate(0 110)">
          <path fill="#47C2C5" d="M2,0 L118,0 C119.104569,-2.02906125e-16 120,0.8954305 120,2 L120,34 C120,35.1045695 119.104569,36 118,36 L2,36 C0.8954305,36 1.3527075e-16,35.1045695 0,34 L0,2 C-1.3527075e-16,0.8954305 0.8954305,2.02906125e-16 2,0 Z"/>
          <text fill="#FFF" font-family="PingFangSC-Medium, PingFang SC" font-size="14" font-weight="400">
            <tspan x="32" y="23">VCF文件</tspan>
          </text>
        </g>
        <g transform="translate(0 166)">
          <path fill="#47C2C5" d="M2,0 L118,0 C119.104569,-2.02906125e-16 120,0.8954305 120,2 L120,34 C120,35.1045695 119.104569,36 118,36 L2,36 C0.8954305,36 1.3527075e-16,35.1045695 0,34 L0,2 C-1.3527075e-16,0.8954305 0.8954305,2.02906125e-16 2,0 Z"/>
          <text fill="#FFF" font-family="PingFangSC-Medium, PingFang SC" font-size="14" font-weight="400">
            <tspan x="33" y="23">XXX文件</tspan>
          </text>
        </g>
      </g>
    </g>
    <path fill="#47C2C5" fill-rule="nonzero" d="M245,275 L254,279.5 L245,284 L245,280 L157,280 L157,279 L245,279 L245,275 Z"/>
    <g transform="translate(265)">
      <use stroke="#00AAE7" stroke-dasharray="4 4" stroke-width="4" mask="url(#基因计算解决方案-b)" xlink:href="#基因计算解决方案-a"/>
      <text fill="#00AAE7" font-family="PingFangSC-Semibold, PingFang SC" font-size="20" font-weight="500">
        <tspan x="241" y="154">七牛云 Region</tspan>
      </text>
      <g transform="translate(20)">
        <g transform="translate(154)">
          <rect width="270" height="100" fill="#EDF9FA"/>
          <g fill="#00AAE7" transform="translate(26 27)">
            <path fill-rule="nonzero" d="M21,28 C27.554,28 32.926,29.188 36.278,30.185 C39.7,31.203 42,34.286 42,37.856 L42,37.856 L42,45 C42,45.552 41.552,46 41,46 L41,46 L1,46 C0.448,46 0,45.552 0,45 L0,45 L0,37.856 C0,34.286 2.3,31.203 5.722,30.185 C9.074,29.188 14.446,28 21,28 Z M21,0 C27.065,0 32,4.935 32,11 L32,11 L32,13 C32,19.065 27.065,24 21,24 C14.935,24 10,19.065 10,13 L10,13 L10,11 C10,4.935 14.935,0 21,0 Z"/>
            <text font-family="PingFangSC-Medium, PingFang SC" font-size="14" font-weight="400">
              <tspan x="78" y="21">个人、医院、科研机构</tspan> <tspan x="78" y="41">制药企业、监管机构</tspan>
            </text>
          </g>
        </g>
        <g transform="translate(155 165)">
          <rect width="275" height="108" fill="#EDF9FA"/>
          <g transform="translate(24 20)">
            <rect width="36" height="27" fill="#00AAE7"/>
            <rect width="36" height="12" y="30" fill="#00AAE7"/>
            <circle cx="27" cy="9" r="3" fill="#FFF"/>
            <circle cx="27" cy="18" r="3" fill="#FFF"/>
            <circle cx="27" cy="36" r="3" fill="#FFF"/>
            <text fill="#00AAE7" font-family="PingFangSC-Medium, PingFang SC" font-size="12" font-weight="400">
              <tspan x="4" y="65">QVM</tspan>
            </text>
          </g>
          <g transform="translate(215 20)">
            <rect width="36" height="27" fill="#00AAE7"/>
            <rect width="36" height="12" y="30" fill="#00AAE7"/>
            <circle cx="27" cy="9" r="3" fill="#FFF"/>
            <circle cx="27" cy="18" r="3" fill="#FFF"/>
            <circle cx="27" cy="36" r="3" fill="#FFF"/>
            <text fill="#00AAE7" font-family="PingFangSC-Medium, PingFang SC" font-size="12" font-weight="400">
              <tspan x="4" y="65">QVM</tspan>
            </text>
          </g>
          <g fill="#00AAE7" transform="translate(101 43.14)">
            <text font-family="PingFangSC-Medium, PingFang SC" font-size="12" font-weight="400">
              <tspan x="0" y="41.86">Auto Scaling</tspan>
            </text>
            <path fill-rule="nonzero" d="M28.7936118,3.51351351 C29.2850123,3.51351351 29.7272727,3.34152334 30.0958231,3.02211302 C30.4398034,2.67813268 30.6117936,2.26044226 30.6117936,1.74447174 C30.6117936,1.22850123 30.4398034,0.810810811 30.0958231,0.491400491 C29.7518428,0.147420147 29.3095823,0 28.7936118,0 C28.3022113,0 27.8845209,0.147420147 27.5405405,0.491400491 C27.1719902,0.810810811 27,1.22850123 27,1.74447174 C27,2.23587224 27.1719902,2.65356265 27.5405405,2.997543 C27.8845209,3.34152334 28.3022113,3.51351351 28.7936118,3.51351351 Z M37,3.51351351 C37.4914005,3.51351351 37.9336609,3.34152334 38.3022113,3.02211302 C38.6461916,2.67813268 38.8181818,2.26044226 38.8181818,1.74447174 C38.8181818,1.22850123 38.6461916,0.810810811 38.3022113,0.491400491 C37.958231,0.147420147 37.5159705,0 37,0 C36.5085995,0 36.0909091,0.147420147 35.7469287,0.491400491 C35.3783784,0.810810811 35.2063882,1.22850123 35.2063882,1.74447174 C35.2063882,2.23587224 35.3783784,2.65356265 35.7469287,2.997543 C36.0909091,3.34152334 36.5085995,3.51351351 37,3.51351351 Z M45.1818182,3.51351351 C45.6732187,3.51351351 46.1154791,3.34152334 46.4594595,3.02211302 C46.8034398,2.67813268 47,2.26044226 47,1.74447174 C47,1.22850123 46.8280098,0.810810811 46.4840295,0.491400491 C46.1400491,0.147420147 45.6977887,0 45.1818182,0 C44.6904177,0 44.2481572,0.147420147 43.9041769,0.491400491 C43.5601966,0.810810811 43.3882064,1.22850123 43.3882064,1.74447174 C43.3882064,2.23587224 43.5601966,2.65356265 43.9041769,2.997543 C44.2481572,3.34152334 44.6904177,3.51351351 45.1818182,3.51351351 Z"/>
          </g>
          <g transform="translate(0 149)">
            <rect width="204" height="108" fill="#EDF9FA"/>
            <g fill="#00AAE7" transform="translate(12 17)">
              <path fill-rule="nonzero" d="M48,22.6285714 L48,30.8571429 C48,34.7428571 39.6571429,36.5714286 32,36.5714286 C24.3428571,36.5714286 16,34.7428571 16,30.8571429 L16,30.8571429 L16,22.6285714 C19.3142857,25.2571429 25.8285714,26.2857143 32,26.2857143 C38.1714286,26.2857143 44.6857143,25.2571429 48,22.6285714 L48,22.6285714 Z M48,10.0571429 L48,18.2857143 C48,22.1714286 39.6571429,24 32,24 C24.3428571,24 16,22.1714286 16,18.2857143 L16,18.2857143 L16,10.0571429 C19.3142857,12.6857143 25.8285714,13.7142857 32,13.7142857 C38.1714286,13.7142857 44.6857143,12.6857143 48,10.0571429 L48,10.0571429 Z M32,0 C39.6571429,0 48,1.82857143 48,5.71428571 C48,9.6 39.6571429,11.4285714 32,11.4285714 C24.3428571,11.4285714 16,9.6 16,5.71428571 C16,1.82857143 24.3428571,0 32,0 Z"/>
              <text font-family="PingFangSC-Medium, PingFang SC" font-size="12" font-weight="400">
                <tspan x="19.664" y="60">RDS</tspan> <tspan x=".302" y="77">（Master）</tspan>
              </text>
            </g>
            <g fill="#00AAE7" transform="translate(128 17)">
              <path fill-rule="nonzero" d="M48,22.6285714 L48,30.8571429 C48,34.7428571 39.6571429,36.5714286 32,36.5714286 C24.3428571,36.5714286 16,34.7428571 16,30.8571429 L16,30.8571429 L16,22.6285714 C19.3142857,25.2571429 25.8285714,26.2857143 32,26.2857143 C38.1714286,26.2857143 44.6857143,25.2571429 48,22.6285714 L48,22.6285714 Z M48,10.0571429 L48,18.2857143 C48,22.1714286 39.6571429,24 32,24 C24.3428571,24 16,22.1714286 16,18.2857143 L16,18.2857143 L16,10.0571429 C19.3142857,12.6857143 25.8285714,13.7142857 32,13.7142857 C38.1714286,13.7142857 44.6857143,12.6857143 48,10.0571429 L48,10.0571429 Z M32,0 C39.6571429,0 48,1.82857143 48,5.71428571 C48,9.6 39.6571429,11.4285714 32,11.4285714 C24.3428571,11.4285714 16,9.6 16,5.71428571 C16,1.82857143 24.3428571,0 32,0 Z"/>
              <text font-family="PingFangSC-Medium, PingFang SC" font-size="12" font-weight="400">
                <tspan x="19.664" y="60">RDS</tspan> <tspan x=".302" y="77">（Master）</tspan>
              </text>
            </g>
            <path fill="#00AAE7" fill-rule="nonzero" d="M1.79361179,3.51351351 C2.28501229,3.51351351 2.72727273,3.34152334 3.0958231,3.02211302 C3.43980344,2.67813268 3.61179361,2.26044226 3.61179361,1.74447174 C3.61179361,1.22850123 3.43980344,0.810810811 3.0958231,0.491400491 C2.75184275,0.147420147 2.30958231,0 1.79361179,0 C1.3022113,0 0.884520885,0.147420147 0.540540541,0.491400491 C0.171990172,0.810810811 0,1.22850123 0,1.74447174 C0,2.23587224 0.171990172,2.65356265 0.540540541,2.997543 C0.884520885,3.34152334 1.3022113,3.51351351 1.79361179,3.51351351 Z M10,3.51351351 C10.4914005,3.51351351 10.9336609,3.34152334 11.3022113,3.02211302 C11.6461916,2.67813268 11.8181818,2.26044226 11.8181818,1.74447174 C11.8181818,1.22850123 11.6461916,0.810810811 11.3022113,0.491400491 C10.958231,0.147420147 10.5159705,0 10,0 C9.50859951,0 9.09090909,0.147420147 8.74692875,0.491400491 C8.37837838,0.810810811 8.20638821,1.22850123 8.20638821,1.74447174 C8.20638821,2.23587224 8.37837838,2.65356265 8.74692875,2.997543 C9.09090909,3.34152334 9.50859951,3.51351351 10,3.51351351 Z M18.1818182,3.51351351 C18.6732187,3.51351351 19.1154791,3.34152334 19.4594595,3.02211302 C19.8034398,2.67813268 20,2.26044226 20,1.74447174 C20,1.22850123 19.8280098,0.810810811 19.4840295,0.491400491 C19.1400491,0.147420147 18.6977887,0 18.1818182,0 C17.6904177,0 17.2481572,0.147420147 16.9041769,0.491400491 C16.5601966,0.810810811 16.3882064,1.22850123 16.3882064,1.74447174 C16.3882064,2.23587224 16.5601966,2.65356265 16.9041769,2.997543 C17.2481572,3.34152334 17.6904177,3.51351351 18.1818182,3.51351351 Z" transform="translate(92 43)"/>
          </g>
          <g transform="translate(217 149)">
            <rect width="204" height="108" fill="#EDF9FA"/>
            <g fill="#00AAE7" transform="translate(12 17)">
              <path fill-rule="nonzero" d="M43.6666667,0 L20.3333333,0 C19.0446689,0 18,1.04466892 18,2.33333333 L18,35 C18,36.2886644 19.0446689,37.3333333 20.3333333,37.3333333 L43.6666667,37.3333333 C44.9553311,37.3333333 46,36.2886644 46,35 L46,2.33333333 C46,1.04466892 44.9553311,0 43.6666667,0 Z M32,29.1666667 C29.4226712,29.1666667 27.3333333,27.0773288 27.3333333,24.5 C27.3333333,21.9226712 29.4226712,19.8333333 32,19.8333333 C34.5773288,19.8333333 36.6666667,21.9226712 36.6666667,24.5 C36.6666667,27.0773288 34.5773288,29.1666667 32,29.1666667 Z M36.6666667,16.3333333 L27.3333333,16.3333333 L27.3333333,14 L36.6666667,14 L36.6666667,16.3333333 Z M36.6666667,10.5 L27.3333333,10.5 L27.3333333,8.16666667 L36.6666667,8.16666667 L36.6666667,10.5 Z"/>
              <text font-family="PingFangSC-Medium, PingFang SC" font-size="12" font-weight="400">
                <tspan x="16.13" y="60">Redis</tspan> <tspan x=".302" y="77">（Master）</tspan>
              </text>
            </g>
            <g fill="#00AAE7" transform="translate(128 17)">
              <text font-family="PingFangSC-Medium, PingFang SC" font-size="12" font-weight="400">
                <tspan x="16.13" y="60">Redis</tspan> <tspan x=".302" y="77">（Master）</tspan>
              </text>
              <path fill-rule="nonzero" d="M43.6666667,0 L20.3333333,0 C19.0446689,0 18,1.04466892 18,2.33333333 L18,35 C18,36.2886644 19.0446689,37.3333333 20.3333333,37.3333333 L43.6666667,37.3333333 C44.9553311,37.3333333 46,36.2886644 46,35 L46,2.33333333 C46,1.04466892 44.9553311,0 43.6666667,0 Z M32,29.1666667 C29.4226712,29.1666667 27.3333333,27.0773288 27.3333333,24.5 C27.3333333,21.9226712 29.4226712,19.8333333 32,19.8333333 C34.5773288,19.8333333 36.6666667,21.9226712 36.6666667,24.5 C36.6666667,27.0773288 34.5773288,29.1666667 32,29.1666667 Z M36.6666667,16.3333333 L27.3333333,16.3333333 L27.3333333,14 L36.6666667,14 L36.6666667,16.3333333 Z M36.6666667,10.5 L27.3333333,10.5 L27.3333333,8.16666667 L36.6666667,8.16666667 L36.6666667,10.5 Z"/>
            </g>
            <path fill="#00AAE7" fill-rule="nonzero" d="M1.79361179,3.51351351 C2.28501229,3.51351351 2.72727273,3.34152334 3.0958231,3.02211302 C3.43980344,2.67813268 3.61179361,2.26044226 3.61179361,1.74447174 C3.61179361,1.22850123 3.43980344,0.810810811 3.0958231,0.491400491 C2.75184275,0.147420147 2.30958231,0 1.79361179,0 C1.3022113,0 0.884520885,0.147420147 0.540540541,0.491400491 C0.171990172,0.810810811 0,1.22850123 0,1.74447174 C0,2.23587224 0.171990172,2.65356265 0.540540541,2.997543 C0.884520885,3.34152334 1.3022113,3.51351351 1.79361179,3.51351351 Z M10,3.51351351 C10.4914005,3.51351351 10.9336609,3.34152334 11.3022113,3.02211302 C11.6461916,2.67813268 11.8181818,2.26044226 11.8181818,1.74447174 C11.8181818,1.22850123 11.6461916,0.810810811 11.3022113,0.491400491 C10.958231,0.147420147 10.5159705,0 10,0 C9.50859951,0 9.09090909,0.147420147 8.74692875,0.491400491 C8.37837838,0.810810811 8.20638821,1.22850123 8.20638821,1.74447174 C8.20638821,2.23587224 8.37837838,2.65356265 8.74692875,2.997543 C9.09090909,3.34152334 9.50859951,3.51351351 10,3.51351351 Z M18.1818182,3.51351351 C18.6732187,3.51351351 19.1154791,3.34152334 19.4594595,3.02211302 C19.8034398,2.67813268 20,2.26044226 20,1.74447174 C20,1.22850123 19.8280098,0.810810811 19.4840295,0.491400491 C19.1400491,0.147420147 18.6977887,0 18.1818182,0 C17.6904177,0 17.2481572,0.147420147 16.9041769,0.491400491 C16.5601966,0.810810811 16.3882064,1.22850123 16.3882064,1.74447174 C16.3882064,2.23587224 16.5601966,2.65356265 16.9041769,2.997543 C17.2481572,3.34152334 17.6904177,3.51351351 18.1818182,3.51351351 Z" transform="translate(92 43)"/>
          </g>
          <g transform="translate(333)">
            <rect width="88" height="108" fill="#47C2C5" opacity=".1"/>
            <g transform="translate(26 20)">
              <text fill="#00AAE7" font-family="PingFangSC-Medium, PingFang SC" font-size="14" font-weight="400">
                <tspan x="1" y="65">Kodo</tspan>
              </text>
              <path fill="#00AAE7" d="M36,30 L36,42 L0,42 L0,30 L36,30 Z M36,15 L36,27 L0,27 L0,15 L36,15 Z M36,0 L36,12 L0,12 L0,0 L36,0 Z"/>
              <line x1="6" x2="12" y1="6" y2="6" stroke="#FFF" stroke-linecap="square" stroke-width="2"/>
              <line x1="6" x2="12" y1="21" y2="21" stroke="#FFF" stroke-linecap="square" stroke-width="2"/>
              <line x1="6" x2="12" y1="36" y2="36" stroke="#FFF" stroke-linecap="square" stroke-width="2"/>
            </g>
          </g>
        </g>
        <g transform="translate(488)">
          <rect width="88" height="100" fill="#47C2C5" opacity=".1"/>
          <g transform="translate(22 14)">
            <text fill="#00AAE7" font-family="PingFangSC-Medium, PingFang SC" font-size="14" font-weight="400">
              <tspan x="1" y="67">QCDN</tspan>
            </text>
            <polygon fill="#00AAE7" points="22 0 41.053 11 41.053 33 22 44 2.947 33 2.947 11"/>
            <mask id="基因计算解决方案-d" fill="#fff">
              <use xlink:href="#基因计算解决方案-c"/>
            </mask>
            <use stroke="#FFF" stroke-width="2" xlink:href="#基因计算解决方案-c"/>
            <polygon stroke="#FFF" stroke-width="2" points="22 3.143 30.165 7.857 30.165 17.286 22 22 13.835 17.286 13.835 7.857" mask="url(#基因计算解决方案-d)"/>
          </g>
        </g>
        <g transform="translate(0 165)">
          <rect width="88" height="257" fill="#47C2C5" opacity=".1"/>
          <g fill="#00AAE7" transform="translate(30 100)">
            <text font-family="PingFangSC-Medium, PingFang SC" font-size="14" font-weight="400">
              <tspan x="1" y="55">SLB</tspan>
            </text>
            <path fill-rule="nonzero" d="M23.926412,22.12492 C24.7437856,20.7334135 26.3172818,19.9693858 27.9162727,20.1876008 C29.5152637,20.4058159 30.8264996,21.5635244 31.2411291,23.1231629 C31.5639131,24.3256558 31.3083487,25.6098825 30.5497896,26.5971853 C29.7912306,27.5844881 28.616189,28.1622672 27.3711291,28.1601629 C26.8136551,28.1582096 26.2629116,28.0382457 25.7551291,27.8081629 C20.739779,32.7063725 12.9266604,33.2834179 7.2461291,29.1751629 C7.82593478,28.8099455 8.33843976,28.347507 8.7611291,27.8081629 C13.5667832,31.0241672 19.9549292,30.5041151 24.1771291,26.5531629 C23.2079146,25.262809 23.1090383,23.5164264 23.926412,22.12492 Z M9.7021291,4.21816289 C9.73465643,4.90551966 9.88553624,5.58211073 10.1481291,6.21816289 C5.88993891,8.32250221 3.19231457,12.6583851 3.1861291,17.4081629 C3.18775925,18.3447556 3.29612515,19.2781114 3.5091291,20.1901629 C5.10133153,19.9930229 6.65685391,20.7682237 7.4581291,22.1581629 L7.4581291,22.1581629 C8.26775427,23.5593356 8.15276299,25.3096341 7.16777073,26.5929696 C6.18277847,27.8763051 4.5217412,28.4399744 2.9591291,28.0211629 C1.47518459,27.6254605 0.35057237,26.4124091 0.0681227095,24.9028085 C-0.214326951,23.393208 0.395633354,21.8556142 1.6361291,20.9501629 C1.338867,19.7929088 1.18769089,18.6029848 1.1861291,17.4081629 C1.19557007,11.7227976 4.52452335,6.56675093 9.7021291,4.21816289 Z M15.7413696,7.01656973e-05 C17.7289759,0.0119631578 19.3988726,1.49746309 19.6421291,3.47016289 C25.8733714,5.24320785 30.1755248,10.9305862 30.1861291,17.4091629 C30.1861291,17.8901629 30.1601291,18.3641629 30.1141291,18.8331629 C29.4989822,18.5131336 28.833207,18.3016958 28.1461291,18.2081629 C28.1621291,17.9411629 28.1861291,17.6781629 28.1861291,17.4081629 C28.1792699,11.9267393 24.6078179,7.08700448 19.3721291,5.46416289 C18.6130192,7.30113604 16.6082058,8.28905737 14.6890283,7.77187654 C12.7698508,7.25469571 11.5329042,5.3931834 11.7996093,3.42351678 C12.0663144,1.45385015 13.7537634,-0.0116807998 15.7413696,7.01656973e-05 Z"/>
          </g>
        </g>
        <path fill="#00AAE7" fill-rule="nonzero" d="M474 215L483 219.5 474 224 474 220 436 220 436 219 474 219 474 215zM134 215L143 219.5 134 224 134 220 96 220 96 219 134 219 134 215zM445 46L445 50 483 50 483 51 445 51 445 55 436 50.5 445 46zM532.5 104L537 113 533 113 533 158.5 532 158.5 532 113 528 113 532.5 104zM143.322683 49.9800744L143.322683 50.9800744 42.822 50.98 42.822 148.98 46.8226828 148.980074 42.3226828 157.980074 37.8226828 148.980074 41.822 148.98 41.8226828 49.9800744 143.322683 49.9800744z"/>
        <g fill="#00AAE7" fill-rule="nonzero" transform="translate(190 275)">
          <path d="M229.5,19.5 L229.5,27.5 L233.5,27.5 L229,36.5 L224.5,27.5 L228.5,27.5 L228.5,20.5 L0.5,20.5 L0.5,27.5 L4.5,27.5 L-3.061617e-17,36.5 L-4.5,27.5 L-0.5,27.5 L-0.5,19.5 L229.5,19.5 Z"/>
          <path d="M102.5,0 L107,9 L103,9 L103,20.4963729 L102,20.4963729 L102,9 L98,9 L102.5,0 Z"/>
        </g>
      </g>
    </g>
  </g>
</svg>
