<svg xmlns="http://www.w3.org/2000/svg" xmlns:xlink="http://www.w3.org/1999/xlink" width="918" height="487" viewBox="0 0 918 487">
  <defs>
    <rect id="基因数据存储架构-a" width="392" height="487" x="0" y="0"/>
    <mask id="基因数据存储架构-c" width="392" height="487" x="0" y="0" fill="#fff" maskContentUnits="userSpaceOnUse" maskUnits="objectBoundingBox">
      <use xlink:href="#基因数据存储架构-a"/>
    </mask>
    <polygon id="基因数据存储架构-d" points="22 12.571 30.165 17.286 30.165 26.714 22 31.429 13.835 26.714 13.835 17.286"/>
    <rect id="基因数据存储架构-b" width="392" height="346" x="146.5" y="39.046"/>
    <mask id="基因数据存储架构-f" width="392" height="346" x="0" y="0" fill="#fff" maskContentUnits="userSpaceOnUse" maskUnits="objectBoundingBox">
      <use xlink:href="#基因数据存储架构-b"/>
    </mask>
  </defs>
  <g fill="none" fill-rule="evenodd">
    <g transform="translate(526)">
      <rect width="392" height="100" fill="#EDF9FA"/>
      <g fill="#00AAE7" transform="translate(58 14)">
        <path fill-rule="nonzero" d="M21,28 C27.554,28 32.926,29.188 36.278,30.185 C39.7,31.203 42,34.286 42,37.856 L42,37.856 L42,45 C42,45.552 41.552,46 41,46 L41,46 L1,46 C0.448,46 0,45.552 0,45 L0,45 L0,37.856 C0,34.286 2.3,31.203 5.722,30.185 C9.074,29.188 14.446,28 21,28 Z M21,0 C27.065,0 32,4.935 32,11 L32,11 L32,13 C32,19.065 27.065,24 21,24 C14.935,24 10,19.065 10,13 L10,13 L10,11 C10,4.935 14.935,0 21,0 Z"/>
        <path fill-rule="nonzero" d="M45,26 C45.6,26 46,26.4 46,27 L46,27 L46,45 C46,45.6 45.6,46 45,46 L45,46 L39,46 L39,26 Z M7,26 L7,46 L1,46 C0.4,46 0,45.6 0,45 L0,45 L0,27 C0,26.4 0.4,26 1,26 L1,26 L7,26 Z M27,0 C27.6,0 28,0.4 28,1 L28,1 L28,8 L36,8 C36.6,8 37,8.4 37,9 L37,9 L37,46 L26,46 L26,40 C26,39.4 25.6,39 25,39 L25,39 L21,39 C20.4,39 20,39.4 20,40 L20,40 L20,46 L9,46 L9,9 C9,8.4 9.4,8 10,8 L10,8 L18,8 L18,1 C18,0.4 18.4,0 19,0 C19.6,0 20,0.4 20,1 L20,1 L20,3 L26,3 L26,1 C26,0.4 26.4,0 27,0 Z M20,32 L15,32 L15,34 L20,34 L20,32 Z M31,32 L26,32 L26,34 L31,34 L31,32 Z M20,26 L15,26 L15,28 L20,28 L20,26 Z M31,26 L26,26 L26,28 L31,28 L31,26 Z M20,20 L15,20 L15,22 L20,22 L20,20 Z M31,20 L26,20 L26,22 L31,22 L31,20 Z M20,14 L15,14 L15,16 L20,16 L20,14 Z M31,14 L26,14 L26,16 L31,16 L31,14 Z M26,5 L20,5 L20,8 L26,8 L26,5 Z" transform="translate(114)"/>
        <path fill-rule="nonzero" d="M22.9881583,4.87584821 L40.9881583,19.5998482 L40.9881583,41.9998482 C40.9881583,43.1044177 40.0927278,43.9998482 38.9881583,43.9998482 L38.9881583,43.9998482 L6.98815829,43.9998482 C5.88358879,43.9998482 4.98815829,43.1044177 4.98815829,41.9998482 L4.98815829,41.9998482 L4.98815829,19.5998482 L22.9881583,4.87584821 Z M22.9941583,27.9998482 C18.0235955,27.9998482 13.9941583,32.0292855 13.9941583,36.9998482 L13.9941583,36.9998482 L31.9941583,36.9998482 C31.9941583,32.0292855 27.964721,27.9998482 22.9941583,27.9998482 Z M22.9941583,16.9998482 C20.7850193,16.9998482 18.9941583,18.7907092 18.9941583,20.9998482 C18.9941583,23.2089872 20.7850193,24.9998482 22.9941583,24.9998482 C25.2032973,24.9998482 26.9941583,23.2089872 26.9941583,20.9998482 C26.9941583,18.7907092 25.2032973,16.9998482 22.9941583,16.9998482 Z M23.6211583,0.225848206 L45.6211583,18.2258482 C45.9482897,18.4934643 46.0718497,18.9378474 45.9298107,19.3359155 C45.7877717,19.7339837 45.4108086,19.9998482 44.9881583,19.9998482 C44.7577462,19.9995748 44.5344972,19.9197421 44.3561583,19.7738482 L22.9881583,2.29184821 L1.62115829,19.7738482 C1.19301457,20.113178 0.571787109,20.0461093 0.225933916,19.6232178 C-0.119919278,19.2003262 -0.0623817739,18.5781436 0.355158287,18.2258482 L22.3551583,0.225848206 C22.723438,-0.0752827354 23.2528786,-0.0752827354 23.6211583,0.225848206 Z" transform="translate(225 1)"/>
        <text font-family="PingFangSC-Medium, PingFang SC" font-size="14" font-weight="400">
          <tspan x="7" y="67">用户</tspan>
        </text>
        <text font-family="PingFangSC-Medium, PingFang SC" font-size="14" font-weight="400">
          <tspan x="109" y="67">科研单位</tspan>
        </text>
        <text font-family="PingFangSC-Medium, PingFang SC" font-size="14" font-weight="400">
          <tspan x="220" y="67">监管部门</tspan>
        </text>
      </g>
    </g>
    <g transform="translate(16 365)">
      <rect width="360" height="106" fill="#47C2C5" opacity=".1"/>
      <text fill="#47C2C5" font-family="PingFangSC-Medium, PingFang SC" font-size="14" font-weight="400">
        <tspan x="139" y="89">Kodo 一体机</tspan>
      </text>
      <g transform="translate(82 20)">
        <rect width="36" height="12" fill="#47C2C5"/>
        <rect width="36" height="12" y="15" fill="#47C2C5"/>
        <rect width="36" height="12" y="30" fill="#47C2C5"/>
        <line x1="6" x2="12" y1="6" y2="6" stroke="#FFF" stroke-linecap="square" stroke-width="2"/>
        <line x1="6" x2="12" y1="21" y2="21" stroke="#FFF" stroke-linecap="square" stroke-width="2"/>
        <line x1="6" x2="12" y1="36" y2="36" stroke="#FFF" stroke-linecap="square" stroke-width="2"/>
        <g transform="translate(80)">
          <rect width="36" height="12" fill="#47C2C5"/>
          <rect width="36" height="12" y="15" fill="#47C2C5"/>
          <rect width="36" height="12" y="30" fill="#47C2C5"/>
          <line x1="6" x2="12" y1="6" y2="6" stroke="#FFF" stroke-linecap="square" stroke-width="2"/>
          <line x1="6" x2="12" y1="21" y2="21" stroke="#FFF" stroke-linecap="square" stroke-width="2"/>
          <line x1="6" x2="12" y1="36" y2="36" stroke="#FFF" stroke-linecap="square" stroke-width="2"/>
        </g>
        <g transform="translate(160)">
          <rect width="36" height="12" fill="#47C2C5"/>
          <rect width="36" height="12" y="15" fill="#47C2C5"/>
          <rect width="36" height="12" y="30" fill="#47C2C5"/>
          <line x1="6" x2="12" y1="6" y2="6" stroke="#FFF" stroke-linecap="square" stroke-width="2"/>
          <line x1="6" x2="12" y1="21" y2="21" stroke="#FFF" stroke-linecap="square" stroke-width="2"/>
          <line x1="6" x2="12" y1="36" y2="36" stroke="#FFF" stroke-linecap="square" stroke-width="2"/>
        </g>
      </g>
    </g>
    <use stroke="#47C2C5" stroke-dasharray="4 4" stroke-width="4" mask="url(#基因数据存储架构-c)" xlink:href="#基因数据存储架构-a"/>
    <g fill="#47C2C5" transform="translate(16 214)">
      <rect width="360" height="106" opacity=".1"/>
      <path fill-rule="nonzero" d="M41,27 C41.5522847,27 42,27.4477153 42,28 L42,28 L42,33 C42,33.5522847 41.5522847,34 41,34 L41,34 L5,34 C4.44771525,34 4,33.5522847 4,33 L4,33 L4,28 C4,27.4477153 4.44771525,27 5,27 C5.55228475,27 6,27.4477153 6,28 L6,28 L6,32 L10,32 L10,29 C10,28.4477153 10.4477153,28 11,28 C11.5522847,28 12,28.4477153 12,29 L12,29 L12,32 L16,32 L16,29 C16,28.4477153 16.4477153,28 17,28 C17.5522847,28 18,28.4477153 18,29 L18,29 L18,32 L22,32 L22,29 C22,28.4477153 22.4477153,28 23,28 C23.5522847,28 24,28.4477153 24,29 L24,29 L24,32 L28,32 L28,29 C28,28.4477153 28.4477153,28 29,28 C29.5522847,28 30,28.4477153 30,29 L30,29 L30,32 L34,32 L34,29 C34,28.4477153 34.4477153,28 35,28 C35.5522847,28 36,28.4477153 36,29 L36,29 L36,32 L40,32 L40,28 C40,27.4477153 40.4477153,27 41,27 Z M41,0 C43.7600532,0.00330611633 45.9966939,2.23994685 46,5 L46,5 L46,24 C46,24.5522847 45.5522847,25 45,25 L45,25 L1,25 C0.44771525,25 0,24.5522847 0,24 L0,24 L0,5 C0.00330611633,2.23994685 2.23994685,0.00330611633 5,0 L5,0 Z M13,6 L9,6 C8.44771525,6 8,6.44771525 8,7 L8,7 L8,18 C8,18.5522847 8.44771525,19 9,19 L9,19 L13,19 C13.5522847,19 14,18.5522847 14,18 L14,18 L14,7 C14,6.44771525 13.5522847,6 13,6 L13,6 Z M25,6 L21,6 C20.4477153,6 20,6.44771525 20,7 L20,7 L20,18 C20,18.5522847 20.4477153,19 21,19 L21,19 L25,19 C25.5522847,19 26,18.5522847 26,18 L26,18 L26,7 C26,6.44771525 25.5522847,6 25,6 L25,6 Z M37,6 L33,6 C32.4477153,6 32,6.44771525 32,7 L32,7 L32,18 C32,18.5522847 32.4477153,19 33,19 L33,19 L37,19 C37.5522847,19 38,18.5522847 38,18 L38,18 L38,7 C38,6.44771525 37.5522847,6 37,6 L37,6 Z" transform="translate(157 20)"/>
      <text font-family="PingFangSC-Medium, PingFang SC" font-size="14" font-weight="400">
        <tspan x="106" y="81">高速以太网和 IB 交换机</tspan>
      </text>
    </g>
    <path fill="#28B8BB" fill-rule="nonzero" d="M95.5 147L100 156 96 156 96 175 100 175 95.5 184 91 175 95 175 95 156 91 156 95.5 147zM1 0L1 27.5 5 27.5.5 36.5-4 27.5 0 27.5 0 0 1 0zM191 0L191 27.5 195 27.5 190.5 36.5 186 27.5 190 27.5 190 0 191 0z" transform="translate(101 176)"/>
    <g fill="#47C2C5" transform="translate(16 60)">
      <rect width="170" height="114" opacity=".1"/>
      <path fill-rule="nonzero" d="M105,22 C106.104569,22 107,22.8954305 107,24 L107,24 L107,64 C107,65.1045695 106.104569,66 105,66 L105,66 L81,66 C79.8954305,66 79,65.1045695 79,64 L79,64 L79,24 C79,22.8954305 79.8954305,22 81,22 L81,22 Z M77,60 L77,62 L68,62 C67.4477153,62 67,61.5522847 67,61 C67,60.4477153 67.4477153,60 68,60 L68,60 L77,60 Z M93,47 C90.2385763,47 88,49.2385763 88,52 C88,54.7614237 90.2385763,57 93,57 C95.7600532,56.9966939 97.9966939,54.7600532 98,52 C98,49.2385763 95.7614237,47 93,47 Z M77,26 L77,28 L65,28 L65,52 L77,52 L77,56 L64,56 C63.4477153,56 63,55.5522847 63,55 L63,27 C63,26.4477153 63.4477153,26 64,26 L77,26 Z M98,39 L88,39 C87.4477153,39 87,39.4477153 87,40 C87,40.5522847 87.4477153,41 88,41 L88,41 L98,41 C98.5522847,41 99,40.5522847 99,40 C99,39.4477153 98.5522847,39 98,39 L98,39 Z M98,31 L88,31 C87.4477153,31 87,31.4477153 87,32 C87,32.5522847 87.4477153,33 88,33 L88,33 L98,33 C98.5522847,33 99,32.5522847 99,32 C99,31.4477153 98.5522847,31 98,31 L98,31 Z"/>
      <text font-family="PingFangSC-Medium, PingFang SC" font-size="14" font-weight="400">
        <tspan x="50" y="93">基因测序仪</tspan>
      </text>
    </g>
    <g fill="#47C2C5" transform="translate(206 60)">
      <rect width="170" height="114" opacity=".1"/>
      <text font-family="PingFangSC-Medium, PingFang SC" font-size="14" font-weight="400">
        <tspan x="43" y="93">本地计算集群</tspan>
      </text>
      <path fill-rule="nonzero" d="M32,0 L2,0 C0.8954305,0 0,0.8954305 0,2 L0,44 C0,45.1045695 0.8954305,46 2,46 L32,46 C33.1045695,46 34,45.1045695 34,44 L34,2 C34,0.8954305 33.1045695,0 32,0 Z M17,38 C15.3431458,38 14,36.6568542 14,35 C14,33.3431458 15.3431458,32 17,32 C18.6568542,32 20,33.3431458 20,35 C20,36.6568542 18.6568542,38 17,38 Z M26,18 L8,18 C7.44771525,18 7,17.5522847 7,17 C7,16.4477153 7.44771525,16 8,16 L26,16 C26.5522847,16 27,16.4477153 27,17 C27,17.5522847 26.5522847,18 26,18 Z M26,10 L8,10 C7.44771525,10 7,9.55228475 7,9 C7,8.44771525 7.44771525,8 8,8 L26,8 C26.5522847,8 27,8.44771525 27,9 C27,9.55228475 26.5522847,10 26,10 Z" transform="translate(68 20)"/>
    </g>
    <text fill="#47C2C5" font-family="PingFangSC-Semibold, PingFang SC" font-size="20" font-weight="500">
      <tspan x="156" y="42">本地 IDC</tspan>
    </text>
    <g transform="translate(379.5 101.954)">
      <g transform="translate(0 193.046)">
        <rect width="360" height="176" x="163" fill="#EDF9FA"/>
        <path fill="#FFF" d="M180.5,16 L504.5,16 C505.604569,16 506.5,16.8954305 506.5,18 L506.5,134 C506.5,135.104569 505.604569,136 504.5,136 L180.5,136 C179.395431,136 178.5,135.104569 178.5,134 L178.5,18 C178.5,16.8954305 179.395431,16 180.5,16 Z" opacity=".85"/>
        <text fill="#00AAE7" font-family="PingFangSC-Medium, PingFang SC" font-size="14" font-weight="400">
          <tspan x="325.5" y="161">Kodo</tspan>
        </text>
        <g transform="translate(210.5 55)">
          <g transform="translate(6)">
            <path fill="#00AAE7" d="M36,30 L36,42 L0,42 L0,30 L36,30 Z M36,15 L36,27 L0,27 L0,15 L36,15 Z M36,0 L36,12 L0,12 L0,0 L36,0 Z"/>
            <line x1="6" x2="12" y1="6" y2="6" stroke="#FFF" stroke-linecap="square" stroke-width="2"/>
            <line x1="6" x2="12" y1="21" y2="21" stroke="#FFF" stroke-linecap="square" stroke-width="2"/>
            <line x1="6" x2="12" y1="36" y2="36" stroke="#FFF" stroke-linecap="square" stroke-width="2"/>
          </g>
          <text fill="#00AAE7" font-family="PingFangSC-Medium, PingFang SC" font-size="12" font-weight="400">
            <tspan x="0" y="65">标准存储</tspan>
          </text>
        </g>
        <path fill="#00AAE7" fill-rule="nonzero" d="M300.5,72 L309.5,76.5 L300.5,81 L300.5,77 L277.5,77 L277.5,81 L268.5,76.5 L277.5,72 L277.5,76 L300.5,76 L300.5,72 Z"/>
        <path fill="#47C2C5" fill-rule="nonzero" d="M151.5,127 L160.5,131.5 L151.5,136 L151.5,132 L8.5,132 L8.5,136 L-0.5,131.5 L8.5,127 L8.5,131 L151.5,131 L151.5,127 Z"/>
        <g transform="translate(40.5 111)">
          <path fill="#EDF9FA" stroke="#47C2C5" d="M74,0.5 C74.4142136,0.5 74.7892136,0.667893219 75.0606602,0.939339828 C75.3321068,1.21078644 75.5,1.58578644 75.5,2 L75.5,2 L75.5,38 C75.5,38.4142136 75.3321068,38.7892136 75.0606602,39.0606602 C74.7892136,39.3321068 74.4142136,39.5 74,39.5 L74,39.5 L2,39.5 C1.58578644,39.5 1.21078644,39.3321068 0.939339828,39.0606602 C0.667893219,38.7892136 0.5,38.4142136 0.5,38 L0.5,38 L0.5,2 C0.5,1.58578644 0.667893219,1.21078644 0.939339828,0.939339828 C1.21078644,0.667893219 1.58578644,0.5 2,0.5 L2,0.5 Z"/>
          <text fill="#47C2C5" font-family="PingFangSC-Regular, PingFang SC" font-size="12">
            <tspan x="5" y="15">公网/裸光纤</tspan> <tspan x="5" y="33">专线/VPN</tspan>
          </text>
        </g>
        <path fill="#00AAE7" fill-rule="nonzero" d="M408.5,72 L417.5,76.5 L408.5,81 L408.5,77 L385.5,77 L385.5,81 L376.5,76.5 L385.5,72 L385.5,76 L408.5,76 L408.5,72 Z"/>
        <g transform="translate(426.5 55)">
          <text fill="#00AAE7" font-family="PingFangSC-Medium, PingFang SC" font-size="12" font-weight="400">
            <tspan x="0" y="65">归档存储</tspan>
          </text>
          <g transform="translate(6)">
            <path fill="#00AAE7" d="M36,30 L36,42 L0,42 L0,30 L36,30 Z M36,0 L36,27 L0,27 L0,0 L36,0 Z"/>
            <line x1="6" x2="30" y1="18" y2="18" stroke="#FFF" stroke-linecap="square" stroke-width="2"/>
            <line x1="6" x2="30" y1="9" y2="9" stroke="#FFF" stroke-linecap="square" stroke-width="2"/>
            <line x1="12" x2="24" y1="36" y2="36" stroke="#FFF" stroke-linecap="square" stroke-width="2"/>
          </g>
        </g>
        <g transform="translate(318.5 55)">
          <g transform="translate(6)">
            <path fill="#00AAE7" d="M36,30 L36,42 L0,42 L0,30 L36,30 Z M36,0 L36,27 L0,27 L0,0 L36,0 Z"/>
            <circle cx="28" cy="6" r="2" fill="#FFF"/>
            <circle cx="28" cy="16" r="2" fill="#FFF"/>
          </g>
          <text fill="#00AAE7" font-family="PingFangSC-Medium, PingFang SC" font-size="12" font-weight="400">
            <tspan x="0" y="65">低频存储</tspan>
          </text>
        </g>
        <text fill="#00AAE7" font-family="PingFangSC-Medium, PingFang SC" font-size="14" font-weight="400">
          <tspan x="300.5" y="41">数据生命周期</tspan>
        </text>
      </g>
      <g transform="translate(298.5 55.046)">
        <rect width="88" height="106" fill="#47C2C5" opacity=".1"/>
        <text fill="#00AAE7" font-family="PingFangSC-Medium, PingFang SC" font-size="14" font-weight="400">
          <tspan x="23" y="89">QCDN</tspan>
        </text>
        <g transform="translate(22 20)">
          <polygon fill="#00AAE7" points="22 0 41.053 11 41.053 33 22 44 2.947 33 2.947 11"/>
          <mask id="基因数据存储架构-e" fill="#fff">
            <use xlink:href="#基因数据存储架构-d"/>
          </mask>
          <use stroke="#FFF" stroke-width="2" xlink:href="#基因数据存储架构-d"/>
          <polygon stroke="#FFF" stroke-width="2" points="22 3.143 30.165 7.857 30.165 17.286 22 22 13.835 17.286 13.835 7.857" mask="url(#基因数据存储架构-e)"/>
        </g>
      </g>
      <use stroke="#00AAE7" stroke-dasharray="4 4" stroke-width="4" mask="url(#基因数据存储架构-f)" xlink:href="#基因数据存储架构-b"/>
      <text fill="#00AAE7" font-family="PingFangSC-Semibold, PingFang SC" font-size="20" font-weight="500">
        <tspan x="163" y="76">云端</tspan>
      </text>
      <path fill="#00AAE7" fill-rule="nonzero" d="M456.494158,0.5 L460.994158,9.5 L456.994,9.5 L456.994158,28.5 L222.921854,28.5 L222.921,9.5 L218.921854,9.5 L223.421854,0.5 L227.921854,9.5 L223.921,9.5 L223.921,27.5 L455.994,27.5 L455.994,9.5 L451.994158,9.5 L456.494158,0.5 Z"/>
      <path fill="#00AAE7" fill-rule="nonzero" d="M343 .0461141417L347.5 9.04611414 343.5 9.046 343.5 51.0461141 342.5 51.0461141 342.5 9.046 338.5 9.04611414 343 .0461141417zM343 164.046114L347.5 173.046114 343.5 173.046 343.5 180.046 347.5 180.046114 343 189.046114 338.5 180.046114 342.5 180.046 342.5 173.046 338.5 173.046114 343 164.046114z"/>
    </g>
  </g>
</svg>
