<svg width="54" height="58" viewBox="0 0 54 58" xmlns="http://www.w3.org/2000/svg"><g transform="translate(1 2)" stroke-width="2" fill="none" fill-rule="evenodd" stroke-linecap="square"><circle stroke="#333" cx="26" cy="18.385" r="5"/><path d="M39.4354474 31.82C46.8553705 24.4000451 46.8553705 12.3699549 39.4354474 4.95M12.5654474 31.82C5.14552429 24.4000451 5.14552429 12.3699549 12.5654474 4.95" stroke="#00AAE7"/><line x1="26" y1="54.385" x2="26" y2="23.385" stroke="#333"/><line x1="16" y1="54.385" x2="36" y2="54.385" stroke="#333"/><path d="M44.3854474 36.77C49.2615301 31.894036 52.0008948 25.2807384 52.0008948 18.385 52.0008948 11.4892616 49.2615301 4.87596403 44.3854474-3.55271368e-15M7.61544738 36.77C2.7393647 31.894036 1.77635684e-15 25.2807384 1.77635684e-15 18.385 1.77635684e-15 11.4892616 2.7393647 4.87596403 7.61544738 3.55271368e-15M17.5154474 9.9C12.829531 14.5862271 12.829531 22.1837729 17.5154474 26.87M34.4854474 9.9C39.1713637 14.5862271 39.1713637 22.1837729 34.4854474 26.87" stroke="#00AAE7"/></g></svg>