<svg width="62" height="50" viewBox="0 0 62 50" fill="none" xmlns="http://www.w3.org/2000/svg">
<g id="web-hyperlink">
<path id="&#232;&#183;&#175;&#229;&#190;&#132;" d="M9 33H6C3.23858 33 1 30.7614 1 28V6C1 3.23858 3.23858 1 6 1H42C43.3261 1 44.5979 1.52678 45.5355 2.46447C46.4732 3.40215 47 4.67392 47 6V28C47 30.7614 44.7614 33 42 33H21" stroke="#333333" stroke-width="2" stroke-linecap="square"/>
<path id="&#232;&#183;&#175;&#229;&#190;&#132;_2" d="M53 17H56C58.7614 17 61 19.2386 61 22V44C61 46.7614 58.7614 49 56 49H20C17.2386 49 15 46.7614 15 44V22C15 19.2386 17.2386 17 20 17H41" stroke="#00AAE7" stroke-width="2" stroke-linecap="square"/>
</g>
</svg>
