<svg xmlns="http://www.w3.org/2000/svg" width="62" height="59" viewBox="0 0 62 59">
  <g fill="none" fill-rule="evenodd" stroke-width="2" transform="translate(2 2)">
    <path stroke="#00AAE7" stroke-linecap="square" d="M45.044 33.171L48.853 36.979C50.3857406 38.5130898 50.3857406 40.9989102 48.853 42.533L48.853 42.533C47.3190241 44.0669588 44.8319759 44.0669588 43.298 42.533L39.491 38.727M33.974 44.244L35.761 46.032C37.2837562 47.5549952 37.2837562 50.0240048 35.761 51.547L35.761 51.547C35.0295084 52.2802171 34.0357037 52.6912728 33 52.6890094"/>
    <polyline stroke="#00AAE7" stroke-linecap="square" points="4 24 4 18 0 14 14 0 17 3 22 3"/>
    <rect width="9.312" height="7.855" x="7.254" y="34.732" stroke="#333" stroke-linecap="square" rx="3.928" transform="rotate(-45 11.91 38.66)"/>
    <rect width="8.544" height="7.8" x="19.565" y="44.937" stroke="#333" stroke-linecap="square" rx="3.9" transform="rotate(-45 23.837 48.837)"/>
    <path stroke="#333" stroke-linecap="square" d="M9.631,35.383 L9.051,35.963 C8.31628206,36.6991696 7.31156109,37.1014369 6.27180385,37.0757265 C5.23204661,37.0500162 4.24843533,36.5985829 3.551,35.827 L3.551,35.827 C2.20808199,34.3415835 2.24832908,32.0689356 3.643,30.632 L4.223,30.039 C5.6783234,28.5500538 8.06081702,28.5094761 9.566,29.948 L9.566,29.948 C10.3060996,30.6541834 10.7302224,31.6289343 10.7424556,32.6518188 C10.7546888,33.6747034 10.3539991,34.6593186 9.631,35.383 L9.631,35.383 Z"/>
    <rect width="8.212" height="7.8" x="13.731" y="39.906" stroke="#333" stroke-linecap="square" rx="3.9" transform="rotate(-45 17.837 43.806)"/>
    <path stroke="#00AAE7" stroke-linecap="square" d="M42.537,41.776 C43.2685654,42.5074149 43.6795671,43.4995167 43.6795671,44.534 C43.6795671,45.5684833 43.2685654,46.5605851 42.537,47.292 L42.537,47.292 C41.0140048,48.8147562 38.5449952,48.8147562 37.022,47.292 L35.73,46"/>
    <path stroke="#00AAE7" d="M47.776,35.9 C48.5115521,36.6345614 49.5159195,37.0357197 50.5551293,37.0100229 C51.594339,36.984326 52.5776521,36.5340178 53.276,35.764 L53.276,35.764 C54.618918,34.2785835 54.5786709,32.0059356 53.184,30.569 L40.476,17.51"/>
    <path stroke="#333" stroke-linecap="square" d="M54,24 L54,18 L58,14 L44,0 L41,3 L34.447,3 C31.246073,2.9998183 28.1762227,4.27142843 25.913,6.535 L16.707,16.106 C15.4832548,17.3556182 15.4072092,19.3297977 16.5311999,20.669851 C17.6551906,22.0099043 19.6124779,22.278594 21.056,21.291 L30.856,14.973 C32.5683831,16.9146914 35.040774,18.0153655 37.629538,17.9884852 C40.2183019,17.9616049 42.6673046,16.8098297 44.339,14.833"/>
  </g>
</svg>
