<svg width="40" height="33" viewBox="0 0 40 33" fill="none" xmlns="http://www.w3.org/2000/svg">
<path d="M16.9344 23.904C16.9344 28.788 13.5464 32.264 8.70644 32.264C3.86644 32.264 0.478438 28.788 0.478438 23.904V8.768C0.478438 3.884 3.86644 0.407998 8.70644 0.407998C13.5464 0.407998 16.9344 3.884 16.9344 8.768V23.904ZM14.6904 23.684V8.988C14.6904 5.292 12.6224 2.388 8.70644 2.388C4.79044 2.388 2.72244 5.292 2.72244 8.988V23.684C2.72244 27.38 4.79044 30.284 8.70644 30.284C12.6224 30.284 14.6904 27.38 14.6904 23.684ZM39.756 32H23.168V30.02L35.752 13.52C36.984 11.936 37.512 10.44 37.512 8.636C37.512 4.896 35.268 2.388 31.484 2.388C28.228 2.388 25.456 4.236 25.456 8.636H23.212C23.212 3.972 26.292 0.407998 31.484 0.407998C36.5 0.407998 39.756 3.664 39.756 8.636C39.756 10.968 39.184 12.596 37.6 14.664L25.852 30.02H39.756V32Z" fill="currentColor"/>
<path d="M16.6844 23.904C16.6844 26.287 15.8588 28.3121 14.457 29.7404C13.0556 31.1683 11.0646 32.014 8.70644 32.014V32.514C11.1883 32.514 13.3113 31.6217 14.8139 30.0906C16.3161 28.5599 17.1844 26.405 17.1844 23.904H16.6844ZM8.70644 32.014C6.34826 32.014 4.35727 31.1683 2.95586 29.7404C1.55408 28.3121 0.728437 26.287 0.728437 23.904H0.228437C0.228437 26.405 1.09679 28.5599 2.59901 30.0906C4.1016 31.6217 6.22461 32.514 8.70644 32.514V32.014ZM0.728437 23.904V8.768H0.228437V23.904H0.728437ZM0.728437 8.768C0.728437 6.38501 1.55408 4.35994 2.95586 2.93161C4.35727 1.50366 6.34826 0.657997 8.70644 0.657997V0.157997C6.22461 0.157997 4.1016 1.05033 2.59901 2.58139C1.09679 4.11206 0.228437 6.26698 0.228437 8.768H0.728437ZM8.70644 0.657997C11.0646 0.657997 13.0556 1.50366 14.457 2.93161C15.8588 4.35994 16.6844 6.38501 16.6844 8.768H17.1844C17.1844 6.26698 16.3161 4.11206 14.8139 2.58139C13.3113 1.05033 11.1883 0.157997 8.70644 0.157997V0.657997ZM16.6844 8.768V23.904H17.1844V8.768H16.6844ZM14.9404 23.684V8.988H14.4404V23.684H14.9404ZM14.9404 8.988C14.9404 7.09574 14.4111 5.38376 13.3577 4.14039C12.2998 2.89171 10.7317 2.138 8.70644 2.138V2.638C10.5972 2.638 12.0211 3.33628 12.9762 4.4636C13.9358 5.59623 14.4404 7.18426 14.4404 8.988H14.9404ZM8.70644 2.138C6.68122 2.138 5.1131 2.89171 4.05519 4.14039C3.00178 5.38376 2.47244 7.09574 2.47244 8.988H2.97244C2.97244 7.18426 3.47709 5.59623 4.43668 4.4636C5.39177 3.33628 6.81565 2.638 8.70644 2.638V2.138ZM2.47244 8.988V23.684H2.97244V8.988H2.47244ZM2.47244 23.684C2.47244 25.5763 3.00178 27.2882 4.05519 28.5316C5.1131 29.7803 6.68122 30.534 8.70644 30.534V30.034C6.81565 30.034 5.39177 29.3357 4.43668 28.2084C3.47709 27.0758 2.97244 25.4877 2.97244 23.684H2.47244ZM8.70644 30.534C10.7317 30.534 12.2998 29.7803 13.3577 28.5316C14.4111 27.2882 14.9404 25.5763 14.9404 23.684H14.4404C14.4404 25.4877 13.9358 27.0758 12.9762 28.2084C12.0211 29.3357 10.5972 30.034 8.70644 30.034V30.534ZM39.756 32V32.25H40.006V32H39.756ZM23.168 32H22.918V32.25H23.168V32ZM23.168 30.02L22.9692 29.8684L22.918 29.9355V30.02H23.168ZM35.752 13.52L35.5547 13.3665L35.5532 13.3684L35.752 13.52ZM25.456 8.636V8.886H25.706V8.636H25.456ZM23.212 8.636H22.962V8.886H23.212V8.636ZM37.6 14.664L37.4015 14.512L37.4014 14.5121L37.6 14.664ZM25.852 30.02L25.6534 29.8681L25.346 30.27H25.852V30.02ZM39.756 30.02H40.006V29.77H39.756V30.02ZM39.756 31.75H23.168V32.25H39.756V31.75ZM23.418 32V30.02H22.918V32H23.418ZM23.3668 30.1716L35.9508 13.6716L35.5532 13.3684L22.9692 29.8684L23.3668 30.1716ZM35.9493 13.6735C37.2124 12.0495 37.762 10.5004 37.762 8.636H37.262C37.262 10.3796 36.7556 11.8225 35.5547 13.3665L35.9493 13.6735ZM37.762 8.636C37.762 6.71649 37.1855 5.0882 36.0987 3.93781C35.0102 2.78559 33.4333 2.138 31.484 2.138V2.638C33.3187 2.638 34.7558 3.24441 35.7353 4.28118C36.7165 5.3198 37.262 6.8155 37.262 8.636H37.762ZM31.484 2.138C29.811 2.138 28.2374 2.61293 27.0797 3.67801C25.9181 4.74668 25.206 6.38115 25.206 8.636H25.706C25.706 6.49085 26.3799 5.00132 27.4183 4.04598C28.4606 3.08706 29.901 2.638 31.484 2.638V2.138ZM25.456 8.386H23.212V8.886H25.456V8.386ZM23.462 8.636C23.462 6.35915 24.2131 4.36737 25.5811 2.94638C26.9476 1.52697 28.9477 0.657997 31.484 0.657997V0.157997C28.8283 0.157997 26.6924 1.07103 25.2209 2.59961C23.7509 4.12662 22.962 6.24885 22.962 8.636H23.462ZM31.484 0.657997C33.9369 0.657997 35.9377 1.45304 37.3246 2.83461C38.7114 4.21611 39.506 6.20571 39.506 8.636H40.006C40.006 6.09429 39.1726 3.96988 37.6774 2.48038C36.1823 0.990955 34.0471 0.157997 31.484 0.157997V0.657997ZM39.506 8.636C39.506 9.78037 39.3658 10.7409 39.0365 11.6651C38.7068 12.5904 38.1832 13.4915 37.4015 14.512L37.7985 14.816C38.6008 13.7685 39.1552 12.8216 39.5075 11.8329C39.8602 10.8431 40.006 9.82362 40.006 8.636H39.506ZM37.4014 14.5121L25.6534 29.8681L26.0506 30.1719L37.7986 14.8159L37.4014 14.5121ZM25.852 30.27H39.756V29.77H25.852V30.27ZM39.506 30.02V32H40.006V30.02H39.506Z" fill="currentColor"/>
</svg>
