<svg width="40" height="33" viewBox="0 0 40 33" fill="none" xmlns="http://www.w3.org/2000/svg">
<path d="M16.9344 23.904C16.9344 28.788 13.5464 32.264 8.70644 32.264C3.86644 32.264 0.478438 28.788 0.478438 23.904V8.768C0.478438 3.884 3.86644 0.407998 8.70644 0.407998C13.5464 0.407998 16.9344 3.884 16.9344 8.768V23.904ZM14.6904 23.684V8.988C14.6904 5.292 12.6224 2.388 8.70644 2.388C4.79044 2.388 2.72244 5.292 2.72244 8.988V23.684C2.72244 27.38 4.79044 30.284 8.70644 30.284C12.6224 30.284 14.6904 27.38 14.6904 23.684ZM39.668 23.64C39.668 29.228 35.796 32.308 30.78 32.308C25.896 32.308 22.156 29.8 21.848 24.388H24.092C24.4 28.656 27.524 30.328 30.78 30.328C34.52 30.328 37.424 27.82 37.424 23.64C37.424 19.416 35.4 16.952 30.604 16.952H30.076V14.972H30.604C34.784 14.972 36.808 12.684 36.808 8.68C36.808 4.544 34.124 2.344 30.736 2.344C27.04 2.344 24.884 4.588 24.488 8.064H22.244C22.684 3.18 26.204 0.363998 30.736 0.363998C35.664 0.363998 39.052 3.664 39.052 8.68C39.052 11.98 37.732 14.488 34.608 15.808C38.084 16.996 39.668 19.68 39.668 23.64Z" fill="currentColor"/>
<path d="M16.6844 23.904C16.6844 26.287 15.8588 28.3121 14.457 29.7404C13.0556 31.1683 11.0646 32.014 8.70644 32.014V32.514C11.1883 32.514 13.3113 31.6217 14.8139 30.0906C16.3161 28.5599 17.1844 26.405 17.1844 23.904H16.6844ZM8.70644 32.014C6.34826 32.014 4.35727 31.1683 2.95586 29.7404C1.55408 28.3121 0.728437 26.287 0.728437 23.904H0.228437C0.228437 26.405 1.09679 28.5599 2.59901 30.0906C4.1016 31.6217 6.22461 32.514 8.70644 32.514V32.014ZM0.728437 23.904V8.768H0.228437V23.904H0.728437ZM0.728437 8.768C0.728437 6.38501 1.55408 4.35994 2.95586 2.93161C4.35727 1.50366 6.34826 0.657997 8.70644 0.657997V0.157997C6.22461 0.157997 4.1016 1.05033 2.59901 2.58139C1.09679 4.11206 0.228437 6.26698 0.228437 8.768H0.728437ZM8.70644 0.657997C11.0646 0.657997 13.0556 1.50366 14.457 2.93161C15.8588 4.35994 16.6844 6.38501 16.6844 8.768H17.1844C17.1844 6.26698 16.3161 4.11206 14.8139 2.58139C13.3113 1.05033 11.1883 0.157997 8.70644 0.157997V0.657997ZM16.6844 8.768V23.904H17.1844V8.768H16.6844ZM14.9404 23.684V8.988H14.4404V23.684H14.9404ZM14.9404 8.988C14.9404 7.09574 14.4111 5.38376 13.3577 4.14039C12.2998 2.89171 10.7317 2.138 8.70644 2.138V2.638C10.5972 2.638 12.0211 3.33628 12.9762 4.4636C13.9358 5.59623 14.4404 7.18426 14.4404 8.988H14.9404ZM8.70644 2.138C6.68122 2.138 5.1131 2.89171 4.05519 4.14039C3.00178 5.38376 2.47244 7.09574 2.47244 8.988H2.97244C2.97244 7.18426 3.47709 5.59623 4.43668 4.4636C5.39177 3.33628 6.81565 2.638 8.70644 2.638V2.138ZM2.47244 8.988V23.684H2.97244V8.988H2.47244ZM2.47244 23.684C2.47244 25.5763 3.00178 27.2882 4.05519 28.5316C5.1131 29.7803 6.68122 30.534 8.70644 30.534V30.034C6.81565 30.034 5.39177 29.3357 4.43668 28.2084C3.47709 27.0758 2.97244 25.4877 2.97244 23.684H2.47244ZM8.70644 30.534C10.7317 30.534 12.2998 29.7803 13.3577 28.5316C14.4111 27.2882 14.9404 25.5763 14.9404 23.684H14.4404C14.4404 25.4877 13.9358 27.0758 12.9762 28.2084C12.0211 29.3357 10.5972 30.034 8.70644 30.034V30.534ZM21.848 24.388V24.138H21.5834L21.5984 24.4022L21.848 24.388ZM24.092 24.388L24.3414 24.37L24.3246 24.138H24.092V24.388ZM30.076 16.952H29.826V17.202H30.076V16.952ZM30.076 14.972V14.722H29.826V14.972H30.076ZM24.488 8.064V8.314H24.7111L24.7364 8.0923L24.488 8.064ZM22.244 8.064L21.995 8.04157L21.9705 8.314H22.244V8.064ZM34.608 15.808L34.5107 15.5777L33.9072 15.8327L34.5271 16.0446L34.608 15.808ZM39.418 23.64C39.418 26.3729 38.4731 28.4701 36.9357 29.8856C35.3953 31.3038 33.2378 32.058 30.78 32.058V32.558C33.3382 32.558 35.6247 31.7722 37.2743 30.2534C38.9269 28.7319 39.918 26.4951 39.918 23.64H39.418ZM30.78 32.058C28.3784 32.058 26.2842 31.4413 24.7569 30.1845C23.2345 28.9317 22.2482 27.0208 22.0976 24.3738L21.5984 24.4022C21.7558 27.1672 22.7935 29.2163 24.4391 30.5705C26.0798 31.9207 28.2976 32.558 30.78 32.558V32.058ZM21.848 24.638H24.092V24.138H21.848V24.638ZM23.8426 24.406C24.0013 26.6038 24.8894 28.1569 26.1773 29.156C27.4587 30.1501 29.1124 30.578 30.78 30.578V30.078C29.1916 30.078 27.6553 29.6699 26.4837 28.761C25.3186 27.8571 24.4907 26.4402 24.3414 24.37L23.8426 24.406ZM30.78 30.578C32.7061 30.578 34.432 29.9316 35.6779 28.7316C36.9254 27.53 37.674 25.7905 37.674 23.64H37.174C37.174 25.6695 36.4706 27.274 35.3311 28.3714C34.19 29.4704 32.5939 30.078 30.78 30.078V30.578ZM37.674 23.64C37.674 21.4921 37.1595 19.7462 35.9923 18.5383C34.8235 17.3288 33.0423 16.702 30.604 16.702V17.202C32.9617 17.202 34.5905 17.8072 35.6327 18.8857C36.6765 19.9658 37.174 21.5639 37.174 23.64H37.674ZM30.604 16.702H30.076V17.202H30.604V16.702ZM30.326 16.952V14.972H29.826V16.952H30.326ZM30.076 15.222H30.604V14.722H30.076V15.222ZM30.604 15.222C32.7385 15.222 34.3641 14.637 35.4539 13.5005C36.542 12.366 37.058 10.7212 37.058 8.68H36.558C36.558 10.6428 36.062 12.144 35.0931 13.1545C34.1259 14.163 32.6495 14.722 30.604 14.722V15.222ZM37.058 8.68C37.058 6.5559 36.3673 4.90339 35.217 3.78199C34.0683 2.66218 32.484 2.094 30.736 2.094V2.594C32.376 2.594 33.8277 3.12582 34.868 4.14001C35.9067 5.15261 36.558 6.66809 36.558 8.68H37.058ZM30.736 2.094C28.8354 2.094 27.3071 2.67227 26.2025 3.71904C25.0999 4.76399 24.4426 6.25368 24.2396 8.0357L24.7364 8.0923C24.9294 6.39832 25.5481 5.02801 26.5465 4.08196C27.5429 3.13772 28.9406 2.594 30.736 2.594V2.094ZM24.488 7.814H22.244V8.314H24.488V7.814ZM22.493 8.08643C22.7078 5.7019 23.6718 3.83863 25.1202 2.5706C26.57 1.30133 28.522 0.613998 30.736 0.613998V0.113998C28.418 0.113998 26.344 0.834661 24.7908 2.1944C23.2362 3.55537 22.2202 5.5421 21.995 8.04157L22.493 8.08643ZM30.736 0.613998C33.1431 0.613998 35.1558 1.41894 36.5659 2.81844C37.9757 4.21765 38.802 6.22983 38.802 8.68H39.302C39.302 6.11416 38.4343 3.96835 36.9181 2.46356C35.4022 0.959053 33.2569 0.113998 30.736 0.113998V0.613998ZM38.802 8.68C38.802 10.2974 38.4786 11.702 37.787 12.8582C37.0968 14.0119 36.0297 14.9359 34.5107 15.5777L34.7053 16.0383C36.3103 15.3601 37.4652 14.3701 38.216 13.1148C38.9655 11.862 39.302 10.3626 39.302 8.68H38.802ZM34.5271 16.0446C36.2188 16.6227 37.4342 17.5582 38.2301 18.818C39.0283 20.0813 39.418 21.6919 39.418 23.64H39.918C39.918 21.6281 39.5157 19.9167 38.6529 18.551C37.7878 17.1818 36.4732 16.1813 34.6889 15.5714L34.5271 16.0446Z" fill="currentColor"/>
</svg>
