<svg width="41" height="33" viewBox="0 0 41 33" fill="none" xmlns="http://www.w3.org/2000/svg">
<path d="M16.9344 23.904C16.9344 28.788 13.5464 32.264 8.70644 32.264C3.86644 32.264 0.478438 28.788 0.478438 23.904V8.768C0.478438 3.884 3.86644 0.407998 8.70644 0.407998C13.5464 0.407998 16.9344 3.884 16.9344 8.768V23.904ZM14.6904 23.684V8.988C14.6904 5.292 12.6224 2.388 8.70644 2.388C4.79044 2.388 2.72244 5.292 2.72244 8.988V23.684C2.72244 27.38 4.79044 30.284 8.70644 30.284C12.6224 30.284 14.6904 27.38 14.6904 23.684ZM40.724 26.852H36.544V32H34.3V26.852H21.892V24.872L33.42 0.671999H35.796L24.268 24.872H34.3V14.928H36.544V24.872H40.724V26.852Z" fill="currentColor"/>
<path d="M16.6844 23.904C16.6844 26.287 15.8588 28.3121 14.457 29.7404C13.0556 31.1683 11.0646 32.014 8.70644 32.014V32.514C11.1883 32.514 13.3113 31.6217 14.8139 30.0906C16.3161 28.5599 17.1844 26.405 17.1844 23.904H16.6844ZM8.70644 32.014C6.34826 32.014 4.35727 31.1683 2.95586 29.7404C1.55408 28.3121 0.728437 26.287 0.728437 23.904H0.228437C0.228437 26.405 1.09679 28.5599 2.59901 30.0906C4.1016 31.6217 6.22461 32.514 8.70644 32.514V32.014ZM0.728437 23.904V8.768H0.228437V23.904H0.728437ZM0.728437 8.768C0.728437 6.38501 1.55408 4.35994 2.95586 2.93161C4.35727 1.50366 6.34826 0.657997 8.70644 0.657997V0.157997C6.22461 0.157997 4.1016 1.05033 2.59901 2.58139C1.09679 4.11206 0.228437 6.26698 0.228437 8.768H0.728437ZM8.70644 0.657997C11.0646 0.657997 13.0556 1.50366 14.457 2.93161C15.8588 4.35994 16.6844 6.38501 16.6844 8.768H17.1844C17.1844 6.26698 16.3161 4.11206 14.8139 2.58139C13.3113 1.05033 11.1883 0.157997 8.70644 0.157997V0.657997ZM16.6844 8.768V23.904H17.1844V8.768H16.6844ZM14.9404 23.684V8.988H14.4404V23.684H14.9404ZM14.9404 8.988C14.9404 7.09574 14.4111 5.38376 13.3577 4.14039C12.2998 2.89171 10.7317 2.138 8.70644 2.138V2.638C10.5972 2.638 12.0211 3.33628 12.9762 4.4636C13.9358 5.59623 14.4404 7.18426 14.4404 8.988H14.9404ZM8.70644 2.138C6.68122 2.138 5.1131 2.89171 4.05519 4.14039C3.00178 5.38376 2.47244 7.09574 2.47244 8.988H2.97244C2.97244 7.18426 3.47709 5.59623 4.43668 4.4636C5.39177 3.33628 6.81565 2.638 8.70644 2.638V2.138ZM2.47244 8.988V23.684H2.97244V8.988H2.47244ZM2.47244 23.684C2.47244 25.5763 3.00178 27.2882 4.05519 28.5316C5.1131 29.7803 6.68122 30.534 8.70644 30.534V30.034C6.81565 30.034 5.39177 29.3357 4.43668 28.2084C3.47709 27.0758 2.97244 25.4877 2.97244 23.684H2.47244ZM8.70644 30.534C10.7317 30.534 12.2998 29.7803 13.3577 28.5316C14.4111 27.2882 14.9404 25.5763 14.9404 23.684H14.4404C14.4404 25.4877 13.9358 27.0758 12.9762 28.2084C12.0211 29.3357 10.5972 30.034 8.70644 30.034V30.534ZM40.724 26.852V27.102H40.974V26.852H40.724ZM36.544 26.852V26.602H36.294V26.852H36.544ZM36.544 32V32.25H36.794V32H36.544ZM34.3 32H34.05V32.25H34.3V32ZM34.3 26.852H34.55V26.602H34.3V26.852ZM21.892 26.852H21.642V27.102H21.892V26.852ZM21.892 24.872L21.6663 24.7645L21.642 24.8155V24.872H21.892ZM33.42 0.671999V0.421999H33.2622L33.1943 0.564484L33.42 0.671999ZM35.796 0.671999L36.0217 0.779514L36.192 0.421999H35.796V0.671999ZM24.268 24.872L24.0423 24.7645L23.872 25.122H24.268V24.872ZM34.3 24.872V25.122H34.55V24.872H34.3ZM34.3 14.928V14.678H34.05V14.928H34.3ZM36.544 14.928H36.794V14.678H36.544V14.928ZM36.544 24.872H36.294V25.122H36.544V24.872ZM40.724 24.872H40.974V24.622H40.724V24.872ZM40.724 26.602H36.544V27.102H40.724V26.602ZM36.294 26.852V32H36.794V26.852H36.294ZM36.544 31.75H34.3V32.25H36.544V31.75ZM34.55 32V26.852H34.05V32H34.55ZM34.3 26.602H21.892V27.102H34.3V26.602ZM22.142 26.852V24.872H21.642V26.852H22.142ZM22.1177 24.9795L33.6457 0.779514L33.1943 0.564484L21.6663 24.7645L22.1177 24.9795ZM33.42 0.921999H35.796V0.421999H33.42V0.921999ZM35.5703 0.564484L24.0423 24.7645L24.4937 24.9795L36.0217 0.779514L35.5703 0.564484ZM24.268 25.122H34.3V24.622H24.268V25.122ZM34.55 24.872V14.928H34.05V24.872H34.55ZM34.3 15.178H36.544V14.678H34.3V15.178ZM36.294 14.928V24.872H36.794V14.928H36.294ZM36.544 25.122H40.724V24.622H36.544V25.122ZM40.474 24.872V26.852H40.974V24.872H40.474Z" fill="currentColor"/>
</svg>
