<svg width="24" height="32" viewBox="0 0 24 32" fill="none" xmlns="http://www.w3.org/2000/svg">
<path d="M0.699951 24.8636C3.03328 22.9545 5.04844 21.2727 6.74541 19.8182C8.47268 18.3636 9.89692 17.0909 11.0181 16C12.1696 14.8788 13.0181 13.8939 13.5636 13.0455C14.109 12.1667 14.3818 11.3636 14.3818 10.6364C14.3818 9.36364 14.0636 8.45455 13.4272 7.90909C12.8212 7.33333 11.609 7.04546 9.79086 7.04546C8.73025 7.04546 7.59389 7.15152 6.38177 7.36364C5.19995 7.57576 3.88177 7.95455 2.42722 8.5V1.45455C3.73025 0.969698 5.1848 0.606062 6.79086 0.363637C8.39692 0.121212 10.0333 0 11.7 0C15.4272 0 18.306 0.757576 20.3363 2.27273C22.3666 3.78788 23.3818 5.98485 23.3818 8.86364C23.3818 10.0455 23.2909 11.1364 23.109 12.1364C22.9272 13.1061 22.5181 14.1212 21.8818 15.1818C21.2454 16.2121 20.306 17.3636 19.0636 18.6364C17.8212 19.8788 16.1393 21.3333 14.0181 23L11.8363 24.7273V25H23.7V32H0.699951V24.8636Z" fill="#E5F6FC"/>
</svg>
