<svg width="22" height="32" viewBox="0 0 22 32" fill="none" xmlns="http://www.w3.org/2000/svg">
<path d="M7.826 32C6.30219 32 4.97259 31.9552 3.83721 31.8655C2.7317 31.7759 1.68595 31.6265 0.699951 31.4174V24.2913C1.83534 24.5303 2.89603 24.7246 3.88202 24.8739C4.86802 24.9935 5.95859 25.0532 7.15373 25.0532C7.9007 25.0532 8.61778 25.0233 9.30499 24.9636C9.9922 24.8739 10.5898 24.7246 11.0977 24.5154C11.6355 24.2764 12.0538 23.9477 12.3526 23.5294C12.6514 23.0812 12.8008 22.4986 12.8008 21.7815C12.8008 21.1541 12.6365 20.6461 12.3078 20.2577C11.9791 19.8693 11.516 19.5705 10.9184 19.3613C10.3507 19.1223 9.66354 18.9729 8.85681 18.9132C8.05009 18.8235 7.15373 18.7787 6.16774 18.7787H3.83721V12.3697H6.12292C7.01928 12.3697 7.84094 12.3548 8.58791 12.3249C9.36475 12.2951 10.0221 12.1905 10.5599 12.0112C11.1276 11.8021 11.5758 11.5033 11.9044 11.1148C12.2331 10.6965 12.3974 10.1139 12.3974 9.36695C12.3974 8.79925 12.263 8.35107 11.9941 8.02241C11.755 7.66387 11.4114 7.39496 10.9633 7.21569C10.5151 7.03642 9.9922 6.9169 9.39463 6.85714C8.79706 6.79739 8.16961 6.76751 7.51228 6.76751C6.52628 6.76751 5.49547 6.85714 4.41984 7.03641C3.34421 7.21569 2.41797 7.42484 1.64113 7.66386V0.941178C1.99967 0.821663 2.43291 0.717087 2.94085 0.627451C3.47866 0.507938 4.0613 0.403363 4.68875 0.313727C5.34608 0.22409 6.01834 0.149394 6.70555 0.0896374C7.42264 0.0298791 8.12479 0 8.812 0C10.5748 0 12.2032 0.134454 13.6971 0.403361C15.1911 0.672269 16.4759 1.15033 17.5515 1.83754C18.657 2.49487 19.5085 3.39122 20.1061 4.52661C20.7336 5.662 21.0473 7.08123 21.0473 8.78431C21.0473 10.1289 20.7037 11.3838 20.0165 12.549C19.3591 13.7143 18.164 14.5957 16.431 15.1933V15.4622C18.1341 15.8506 19.4637 16.7021 20.4198 18.0168C21.376 19.3315 21.854 20.8852 21.854 22.6779C21.854 24.381 21.5403 25.8301 20.9128 27.0252C20.2854 28.1905 19.3741 29.1466 18.1789 29.8936C16.9838 30.6405 15.5197 31.1783 13.7868 31.507C12.0538 31.8357 10.0669 32 7.826 32Z" fill="#E5F6FC"/>
</svg>
