<svg width="23" height="32" viewBox="0 0 23 32" fill="none" xmlns="http://www.w3.org/2000/svg">
<path d="M7.94995 32C6.49541 32 5.22268 31.9545 4.13177 31.8636C3.07116 31.7727 1.9651 31.6212 0.813588 31.4091V24.1818C1.35904 24.303 1.85904 24.4091 2.31359 24.5C2.79844 24.5909 3.26813 24.6818 3.72268 24.7727C4.20753 24.8333 4.70753 24.8788 5.22268 24.9091C5.73783 24.9394 6.34389 24.9545 7.04086 24.9545C7.85904 24.9545 8.63177 24.9091 9.35904 24.8182C10.0863 24.7273 10.7227 24.5606 11.2681 24.3182C11.8136 24.0455 12.2378 23.6818 12.5409 23.2273C12.8742 22.7727 13.0409 22.1818 13.0409 21.4545C13.0409 20.0606 12.5712 19.1515 11.6318 18.7273C10.6924 18.2727 9.31359 18.0455 7.49541 18.0455C6.4045 18.0455 5.22268 18.1212 3.94995 18.2727C2.67722 18.3939 1.51056 18.5455 0.449951 18.7273L2.76813 0H20.2227V7.18182H9.72268L8.94995 12C9.49541 11.8788 9.99541 11.803 10.45 11.7727C10.9348 11.7121 11.4803 11.6818 12.0863 11.6818C15.5106 11.6818 18.0409 12.5 19.6772 14.1364C21.3439 15.7727 22.1772 18.2273 22.1772 21.5C22.1772 25.0455 20.9348 27.6818 18.45 29.4091C15.9651 31.1364 12.4651 32 7.94995 32Z" fill="#E5F6FC"/>
</svg>
