<svg xmlns="http://www.w3.org/2000/svg" width="228" height="170" viewBox="0 0 228 170">
  <defs>
    <linearGradient id="财税报销-a" x1="50%" x2="50%" y1="0%" y2="100%">
      <stop offset="0%" stop-color="#D1F4FF"/>
      <stop offset="100%" stop-color="#DCF6FF" stop-opacity=".197"/>
    </linearGradient>
    <linearGradient id="财税报销-b" x1="50%" x2="50%" y1="0%" y2="100%">
      <stop offset="0%" stop-color="#5A99FF"/>
      <stop offset="100%" stop-color="#60C3FE"/>
    </linearGradient>
  </defs>
  <g fill="none" fill-rule="evenodd">
    <circle cx="123.691" cy="84.726" r="84.726" fill="url(#财税报销-a)" opacity=".5"/>
    <g fill-rule="nonzero" transform="translate(50.955 23.979)">
      <path fill="url(#财税报销-b)" d="M117.92934,0 L31.447824,0 C30.3628741,0 29.482335,0.880539073 29.482335,1.965489 L29.482335,94.2196463 L84.5160271,94.2196463 C92.1146075,94.2196463 98.2744501,100.379489 98.2744501,107.978069 L98.2744501,110.926303 C98.2744501,116.897458 103.113484,121.736492 109.08464,121.736492 C115.055795,121.736492 119.894829,116.897458 119.894829,110.926303 L119.894829,1.965489 C119.894829,0.880539073 119.01429,0 117.92934,0 Z M96.3089611,72.5992673 L53.068203,72.5992673 C51.9812876,72.5992673 51.102714,71.7206937 51.102714,70.6337783 C51.102714,69.5468628 51.9812876,68.6682892 53.068203,68.6682892 L96.3089611,68.6682892 C97.3958765,68.6682892 98.2744501,69.5468628 98.2744501,70.6337783 C98.2744501,71.7206937 97.3958765,72.5992673 96.3089611,72.5992673 Z M96.3089611,49.0133992 L53.068203,49.0133992 C51.9812876,49.0133992 51.102714,48.1348256 51.102714,47.0479102 C51.102714,45.9609948 51.9812876,45.0824212 53.068203,45.0824212 L96.3089611,45.0824212 C97.3958765,45.0824212 98.2744501,45.9609948 98.2744501,47.0479102 C98.2744501,48.1348256 97.3958765,49.0133992 96.3089611,49.0133992 Z M96.3089611,25.4275312 L53.068203,25.4275312 C51.9812876,25.4275312 51.102714,24.5489576 51.102714,23.4620422 C51.102714,22.3751268 51.9812876,21.4965532 53.068203,21.4965532 L96.3089611,21.4965532 C97.3958765,21.4965532 98.2744501,22.3751268 98.2744501,23.4620422 C98.2744501,24.5489576 97.3958765,25.4275312 96.3089611,25.4275312 Z"/>
      <path fill="#5BA1FE" d="M74.6885821,109.943558 C74.6885821,103.429928 79.9678855,98.1506243 86.4815161,98.1506243 L11.792934,98.1506243 C5.27930346,98.1506243 0,103.429928 0,109.943558 L0,119.771003 C0,120.855953 0.880539073,121.736492 1.965489,121.736492 L72.7230931,121.736492 C73.808043,121.736492 74.6885821,120.855953 74.6885821,119.771003 L74.6885821,109.943558 Z"/>
    </g>
    <g transform="translate(0 1.998)">
      <g transform="translate(171.05)">
        <rect width="33.571" height="3.996" x="15.986" y="8.792" fill="#00AAE7" opacity=".6" rx="1.998"/>
        <rect width="23.979" height="3.996" x="8.792" y="17.984" fill="#82DEFF" rx="1.998"/>
        <rect width="5.595" height="3.996" x="51.155" y="8.792" fill="#00AAE7" opacity=".6" rx="1.998"/>
        <rect width="35.169" height="3.996" fill="#00AAE7" opacity=".4" rx="1.998"/>
      </g>
      <g fill="#00AAE7" transform="translate(0 122.892)">
        <rect width="35.968" height="3.996" x="5.595" y="8.792" opacity=".4" rx="1.998"/>
        <rect width="9.592" height="3.996" x="2.398" y="16.785" opacity=".3" rx="1.998"/>
        <rect width="19.183" height="3.996" opacity=".3" rx="1.998"/>
      </g>
    </g>
  </g>
</svg>
