<svg xmlns="http://www.w3.org/2000/svg" width="225" height="170" viewBox="0 0 225 170">
  <defs>
    <linearGradient id="用户身份验证-a" x1="50%" x2="50%" y1="0%" y2="100%">
      <stop offset="0%" stop-color="#D1F4FF"/>
      <stop offset="100%" stop-color="#DCF6FF" stop-opacity=".197"/>
    </linearGradient>
    <linearGradient id="用户身份验证-b" x1="50%" x2="50%" y1="0%" y2="100%">
      <stop offset="0%" stop-color="#62D4FE"/>
      <stop offset="100%" stop-color="#5990FF"/>
    </linearGradient>
  </defs>
  <g fill="none" fill-rule="evenodd">
    <circle cx="104.8" cy="84.8" r="84.8" fill="url(#用户身份验证-a)" opacity=".5"/>
    <g transform="translate(0 62)">
      <g transform="translate(167.2)">
        <rect width="33.6" height="4" x="16" y="8.8" fill="#00AAE7" opacity=".5" rx="2"/>
        <rect width="5.6" height="4" x="51.2" y="8.8" fill="#00AAE7" opacity=".5" rx="2"/>
        <rect width="35.2" height="4" fill="#B2EBFF" rx="2"/>
      </g>
      <g fill="#00AAE7" transform="translate(0 40)">
        <rect width="36" height="4" x="5.6" y="8.8" opacity=".2" rx="2"/>
        <rect width="9.6" height="4" x="2.4" y="16.8" opacity=".2" rx="2"/>
        <rect width="19.2" height="4" opacity=".1" rx="2"/>
      </g>
    </g>
    <g transform="translate(35 17)">
      <path fill="url(#用户身份验证-b)" fill-rule="nonzero" d="M84.2758621,78.1034483 L107.166414,87.5413793 C112.511931,89.7446207 116,94.9568966 116,100.738621 L116,100.738621 L116,117.758621 C116,118.634207 115.289379,119.344828 114.413793,119.344828 L114.413793,119.344828 L25.5862069,119.344828 C24.7106207,119.344828 24,118.634207 24,117.758621 L24,117.758621 L24,100.738621 C24,94.9568966 27.488069,89.7446207 32.8335862,87.5413793 L32.8335862,87.5413793 L55.7241379,78.1034483 L67.1622759,100.979724 C68.3313103,103.317793 71.6686897,103.317793 72.8377241,100.979724 L72.8377241,100.979724 L84.2758621,78.1034483 Z M70,21 C83.1195172,21 93.7931034,31.6735862 93.7931034,44.7931034 L93.7931034,44.7931034 L93.7931034,51.137931 C93.7931034,63.8656552 83.6175862,78.1034483 70,78.1034483 C56.3824138,78.1034483 46.2068966,63.8656552 46.2068966,51.137931 L46.2068966,51.137931 L46.2068966,44.7931034 C46.2068966,31.6735862 56.8804828,21 70,21 Z M77.9326207,40.964 C73.1105517,45.4307586 66.2692414,47.9655172 58.8965517,47.9655172 C55.5893103,47.9655172 52.4042069,47.4357241 49.3793103,46.4348276 L49.3793103,46.4348276 L49.3793103,51.137931 C49.3793103,62.1414483 58.3873793,74.9310345 70,74.9310345 C81.6126207,74.9310345 90.6206897,62.1414483 90.6206897,51.137931 L90.6206897,51.137931 L90.6206897,47.2691724 C85.7002759,46.2365517 81.2795172,44.0507586 77.9326207,40.964 Z"/>
      <path fill="#5CA7FE" d="M5,120 L5,135 L20,135 L20,140 L0,140 L0,120 L5,120 Z M140,120 L140,140 L120,140 L120,135 L135,135 L135,120 L140,120 Z M20,0 L20,5 L5,5 L5,20 L0,20 L0,0 L20,0 Z M140,0 L140,20 L135,20 L135,5 L120,5 L120,0 L140,0 Z"/>
    </g>
  </g>
</svg>
