<svg xmlns="http://www.w3.org/2000/svg" width="199" height="170" viewBox="0 0 199 170">
  <defs>
    <linearGradient id="车主信息服务-a" x1="50%" x2="50%" y1="0%" y2="100%">
      <stop offset="0%" stop-color="#D1F4FF"/>
      <stop offset="100%" stop-color="#DCF6FF" stop-opacity=".197"/>
    </linearGradient>
    <linearGradient id="车主信息服务-b" x1="50%" x2="50%" y1="0%" y2="100%">
      <stop offset="0%" stop-color="#60C5FE"/>
      <stop offset="100%" stop-color="#5990FF"/>
    </linearGradient>
  </defs>
  <g fill="none" fill-rule="evenodd">
    <circle cx="103.8" cy="84.8" r="84.8" fill="url(#车主信息服务-a)" opacity=".5"/>
    <g transform="translate(0 2)">
      <g transform="translate(141.2)">
        <rect width="33.6" height="4" x="16" y="8.8" fill="#00AAE7" opacity=".6" rx="2"/>
        <rect width="24" height="4" x="8.8" y="18" fill="#82DEFF" rx="2"/>
        <rect width="5.6" height="4" x="51.2" y="8.8" fill="#00AAE7" opacity=".6" rx="2"/>
        <rect width="35.2" height="4" fill="#00AAE7" opacity=".4" rx="2"/>
      </g>
      <g fill="#00AAE7" transform="translate(0 123)">
        <rect width="36" height="4" x="5.6" y="8.8" opacity=".4" rx="2"/>
        <rect width="9.6" height="4" x="2.4" y="16.8" opacity=".3" rx="2"/>
        <rect width="19.2" height="4" opacity=".3" rx="2"/>
      </g>
    </g>
    <path fill="url(#车主信息服务-b)" fill-rule="nonzero" d="M61.0967742,94.1935484 C68.5687097,94.1935484 74.6451613,100.27 74.6451613,107.741935 C74.6451613,115.213871 68.5687097,121.290323 61.0967742,121.290323 C53.6248387,121.290323 47.5483871,115.213871 47.5483871,107.741935 C47.5483871,100.27 53.6248387,94.1935484 61.0967742,94.1935484 Z M144.645161,94.1935484 C152.117097,94.1935484 158.193548,100.27 158.193548,107.741935 C158.193548,115.213871 152.117097,121.290323 144.645161,121.290323 C137.173226,121.290323 131.096774,115.213871 131.096774,107.741935 C131.096774,100.27 137.173226,94.1935484 144.645161,94.1935484 Z M116.823548,40 C120.865484,40 124.620645,42.1790323 126.625806,45.6903226 L126.625806,45.6903226 L141.43871,71.6129032 L162.709677,71.6129032 C168.935161,71.6129032 174,76.6777419 174,82.9032258 L174,82.9032258 L174,105.483871 C174,106.730323 172.990645,107.741935 171.741935,107.741935 L171.741935,107.741935 L162.709677,107.741935 C162.709677,97.7658065 154.62129,89.6774194 144.645161,89.6774194 C134.669032,89.6774194 126.580645,97.7658065 126.580645,107.741935 L126.580645,107.741935 L79.1612903,107.741935 C79.1612903,97.7658065 71.0729032,89.6774194 61.0967742,89.6774194 C51.1206452,89.6774194 43.0322581,97.7658065 43.0322581,107.741935 L43.0322581,107.741935 L36.2580645,107.741935 C35.0093548,107.741935 34,106.730323 34,105.483871 L34,105.483871 L34,73.8709677 C34,73.4374194 34.1241935,73.0151613 34.3590323,72.6493548 L34.3590323,72.6493548 L52.0170968,45.1845161 C54.1012903,41.9374194 57.6509677,40 61.5122581,40 L61.5122581,40 Z M88.1935484,44.516129 L61.5122581,44.516129 C59.1954839,44.516129 57.066129,45.6790323 55.8151613,47.6254839 L55.8151613,47.6254839 L40.3948387,71.6129032 L88.1935484,71.6129032 L88.1935484,44.516129 Z M116.823548,44.516129 L92.7096774,44.516129 L92.7096774,71.6129032 L136.238387,71.6129032 L122.703548,47.9303226 C121.502258,45.8235484 119.24871,44.516129 116.823548,44.516129 L116.823548,44.516129 Z"/>
  </g>
</svg>
