<svg xmlns="http://www.w3.org/2000/svg" width="207" height="172" viewBox="0 0 207 172">
  <defs>
    <linearGradient id="商户身份验证-a" x1="50%" x2="50%" y1="0%" y2="100%">
      <stop offset="0%" stop-color="#D1F4FF"/>
      <stop offset="100%" stop-color="#DCF6FF" stop-opacity=".197"/>
    </linearGradient>
    <linearGradient id="商户身份验证-b" x1="50%" x2="50%" y1="0%" y2="100%">
      <stop offset="0%" stop-color="#62D3FE"/>
      <stop offset="100%" stop-color="#5990FF"/>
    </linearGradient>
    <linearGradient id="商户身份验证-c" x1="50%" x2="50%" y1="0%" y2="100%">
      <stop offset="0%" stop-color="#60C6FE"/>
      <stop offset="100%" stop-color="#5A92FF"/>
    </linearGradient>
    <linearGradient id="商户身份验证-d" x1="0%" x2="98.082%" y1="48.161%" y2="50%">
      <stop offset="0%" stop-color="#93C5FF"/>
      <stop offset="100%" stop-color="#5A93FF"/>
    </linearGradient>
    <linearGradient id="商户身份验证-e" x1="50%" x2="50%" y1="0%" y2="100%">
      <stop offset="0%" stop-color="#96D8FF"/>
      <stop offset="100%" stop-color="#5DAFFE"/>
    </linearGradient>
  </defs>
  <g fill="none" fill-rule="evenodd">
    <circle cx="99.8" cy="86.8" r="84.8" fill="url(#商户身份验证-a)" opacity=".5"/>
    <g fill="#00AAE7" transform="translate(15 4)">
      <g transform="translate(117.2)">
        <rect width="33.6" height="4" x="16" y="8.8" opacity=".5" rx="2"/>
        <rect width="5.6" height="4" x="51.2" y="8.8" opacity=".5" rx="2"/>
        <rect width="35.2" height="4" opacity=".3" rx="2"/>
      </g>
      <g transform="translate(0 130)">
        <rect width="36" height="4" x="5.6" y="8.8" opacity=".2" rx="2"/>
        <rect width="9.6" height="4" x="2.4" y="16.8" opacity=".2" rx="2"/>
        <rect width="19.2" height="4" opacity=".1" rx="2"/>
      </g>
    </g>
    <path fill="url(#商户身份验证-b)" fill-rule="nonzero" d="M13.75,57 L13.75,65.75 C13.75,68.0625 15.85375,69.8925 18.2475,69.4275 C20.0275,69.0825 21.25,67.41625 21.25,65.6025 L21.25,65.6025 L21.25,57 L38.75,57 L38.75,65.75 C38.75,68.0625 40.85375,69.8925 43.2475,69.4275 C45.0275,69.0825 46.25,67.41625 46.25,65.6025 L46.25,65.6025 L46.25,57 L57.5,57 C58.88125,57 60,58.11875 60,59.5 L60,59.5 L60,117 C60,118.38125 58.88125,119.5 57.5,119.5 L57.5,119.5 L2.5,119.5 C1.11875,119.5 0,118.38125 0,117 L0,117 L0,59.5 C0,58.11875 1.11875,57 2.5,57 L2.5,57 L13.75,57 Z M30,42 C37.58125,42 43.75,48.16875 43.75,55.75 L43.75,65.75 C43.75,66.44 43.19,67 42.5,67 C41.81,67 41.25,66.44 41.25,65.75 L41.25,55.75 C41.25,49.5475 36.2025,44.5 30,44.5 C23.7975,44.5 18.75,49.5475 18.75,55.75 L18.75,65.75 C18.75,66.44 18.19,67 17.5,67 C16.81,67 16.25,66.44 16.25,65.75 L16.25,55.75 C16.25,48.16875 22.41875,42 30,42 Z"/>
    <path fill="url(#商户身份验证-c)" fill-rule="nonzero" d="M187.78125,107.0625 C191.319324,107.0625 194.1875,109.930676 194.1875,113.46875 C194.1875,117.006824 191.319324,119.875 187.78125,119.875 C184.243176,119.875 181.375,117.006824 181.375,113.46875 C181.375,109.930676 184.243176,107.0625 187.78125,107.0625 Z M142.9375,104.5 C147.183189,104.5 150.625,107.941811 150.625,112.1875 C150.625,116.433189 147.183189,119.875 142.9375,119.875 C138.691811,119.875 135.25,116.433189 135.25,112.1875 C135.25,107.941811 138.691811,104.5 142.9375,104.5 Z M195.46875,77.59375 C196.087594,77.59375 196.618031,78.0370625 196.7295,78.6469375 L196.7295,78.6469375 L199.156187,91.9937187 L206.123625,94.316625 C206.647656,94.490875 207,94.9790313 207,95.53125 L207,95.53125 L207,112.1875 C207,112.896031 206.426,113.46875 205.71875,113.46875 L205.71875,113.46875 L196.75,113.46875 C196.75,108.524406 192.726875,104.5 187.78125,104.5 C182.835625,104.5 178.8125,108.524406 178.8125,113.46875 L178.8125,113.46875 L174.96875,113.46875 C174.2615,113.46875 173.6875,112.896031 173.6875,112.1875 L173.6875,112.1875 L173.6875,78.875 C173.6875,78.1664688 174.2615,77.59375 174.96875,77.59375 L174.96875,77.59375 Z M168.5625,63.5 C169.978281,63.5 171.125,64.6467187 171.125,66.0625 L171.125,66.0625 L171.125,112.1875 C171.125,112.89475 170.551,113.46875 169.84375,113.46875 L169.84375,113.46875 L153.099094,113.46875 C153.151625,113.0485 153.1875,112.621844 153.1875,112.1875 C153.1875,106.535906 148.589094,101.9375 142.9375,101.9375 C137.285906,101.9375 132.6875,106.535906 132.6875,112.1875 C132.6875,112.621844 132.723375,113.0485 132.775906,113.46875 L132.775906,113.46875 L126.28125,113.46875 C125.574,113.46875 125,112.89475 125,112.1875 L125,112.1875 L125,69.2169375 C128.317156,74.9825625 134.526094,78.875 141.65625,78.875 C150.954281,78.875 158.708406,72.2727187 160.489344,63.5 L160.489344,63.5 Z M141.65625,43 C150.84025,43 158.3125,50.47225 158.3125,59.65625 C158.3125,68.84025 150.84025,76.3125 141.65625,76.3125 C132.47225,76.3125 125,68.84025 125,59.65625 C125,50.47225 132.47225,43 141.65625,43 Z M141.65625,49.40625 C140.949,49.40625 140.375,49.98025 140.375,50.6875 L140.375,50.6875 L140.375,59.65625 C140.375,60.3635 140.949,60.9375 141.65625,60.9375 L141.65625,60.9375 L150.625,60.9375 C151.33225,60.9375 151.90625,60.3635 151.90625,59.65625 C151.90625,58.949 151.33225,58.375 150.625,58.375 L150.625,58.375 L142.9375,58.375 L142.9375,50.6875 C142.9375,49.98025 142.3635,49.40625 141.65625,49.40625 Z"/>
    <path fill="url(#商户身份验证-d)" d="M96,76 L107.313708,87.3137085 L96,98.627417 L96,91.313 L82,91.3137085 L82,83.3137085 L95.999,83.313 L96,76 Z"/>
    <path fill="url(#商户身份验证-e)" fill-rule="nonzero" d="M79.8869677,15.6774194 L75.8709677,10.6575484 L75.8709677,4.64516129 C75.8709677,4.36025806 75.6397419,4.12903226 75.3548387,4.12903226 L69.3424516,4.12903226 L64.3225806,0.113032258 C64.1341935,-0.0376774194 63.8663226,-0.0376774194 63.6779355,0.113032258 L58.6575484,4.12903226 L52.6451613,4.12903226 C52.3602581,4.12903226 52.1290323,4.36025806 52.1290323,4.64516129 L52.1290323,10.6575484 L48.1130323,15.6774194 C47.9623226,15.8658065 47.9623226,16.1336774 48.1130323,16.3220645 L52.1290323,21.3424516 L52.1290323,27.3548387 C52.1290323,27.6397419 52.3602581,27.8709677 52.6451613,27.8709677 L58.6575484,27.8709677 L63.6774194,31.8869677 C63.771871,31.9623226 63.8859355,32 64,32 C64.1140645,32 64.228129,31.9623226 64.3225806,31.8869677 L69.3424516,27.8709677 L75.3548387,27.8709677 C75.6397419,27.8709677 75.8709677,27.6397419 75.8709677,27.3548387 L75.8709677,21.3424516 L79.8869677,16.3225806 C80.0376774,16.1336774 80.0376774,15.8663226 79.8869677,15.6774194 Z M57.2903226,11.8709677 C57.2903226,10.448 58.448,9.29032258 59.8709677,9.29032258 C61.2939355,9.29032258 62.4516129,10.448 62.4516129,11.8709677 C62.4516129,13.2939355 61.2939355,14.4516129 59.8709677,14.4516129 C58.448,14.4516129 57.2903226,13.2939355 57.2903226,11.8709677 Z M59.2036129,21.5261935 C59.1029677,21.6268387 58.9708387,21.6774194 58.8387097,21.6774194 C58.7065806,21.6774194 58.5744516,21.6268387 58.4738065,21.5261935 C58.272,21.3243871 58.272,20.9981935 58.4738065,20.7963871 L68.7963871,10.4738065 C68.9981935,10.272 69.3243871,10.272 69.5261935,10.4738065 C69.728,10.6756129 69.728,11.0018065 69.5261935,11.2036129 L59.2036129,21.5261935 Z M68.1290323,22.7096774 C66.7060645,22.7096774 65.5483871,21.552 65.5483871,20.1290323 C65.5483871,18.7060645 66.7060645,17.5483871 68.1290323,17.5483871 C69.552,17.5483871 70.7096774,18.7060645 70.7096774,20.1290323 C70.7096774,21.552 69.552,22.7096774 68.1290323,22.7096774 Z"/>
  </g>
</svg>
