<svg xmlns="http://www.w3.org/2000/svg" width="32" height="32" viewBox="0 0 32 32">
  <g fill="none" fill-rule="evenodd" stroke-linecap="square" stroke-width="2" transform="translate(4 2)">
    <path stroke="#333" d="M24,16.4137932 C24,22.8126786 18.6274169,28 12,28 C5.37258307,28 0,22.8126786 0,16.4137932 L0,3.89655174 L12,0 L24,3.89655174 L24,16.4137932 Z"/>
    <path stroke="#00AAE7" d="M16.3750001,13.375 C16.3750001,10.9587542 14.4162458,9 12,9 C9.58375424,9 7.62500001,10.9587542 7.62500001,13.375 C7.45000001,13.375 7.30416668,13.375 7.18750001,13.375 C5.97937711,13.375 5,14.3543771 5,15.5625 C5,16.7706229 5.97937711,17.75 7.18750001,17.75 L16.8125001,17.75 C18.0206229,17.75 19,16.7706229 19,15.5625 C19,14.3543772 18.0206229,13.3750001 16.8125001,13.375 C16.7116873,13.365921 16.565854,13.365921 16.3750001,13.375 Z"/>
  </g>
</svg>
