<?xml version="1.0" encoding="UTF-8"?>
<svg width="46px" height="32px" viewBox="0 0 46 32" version="1.1" xmlns="http://www.w3.org/2000/svg" xmlns:xlink="http://www.w3.org/1999/xlink">
    <title>cloud-upload-96</title>
    <g id="解决方案" stroke="none" stroke-width="1" fill="none" fill-rule="evenodd">
        <g id="场景解决方案-短视频解决方案02✅" transform="translate(-467.000000, -1230.000000)" stroke="#333333" stroke-width="2">
            <g id="应用场景备份" transform="translate(0.000000, 744.000000)">
                <g id="编组-19" transform="translate(372.000000, 72.000000)">
                    <g id="编组-6">
                        <g id="编组-20" transform="translate(0.000000, 370.000000)">
                            <g id="01">
                                <g id="编组-23" transform="translate(90.000000, 36.000000)">
                                    <g id="编组-17" transform="translate(4.000000, 0.000000)">
                                        <g id="cloud-upload-96" transform="translate(2.000000, 9.000000)">
                                            <line x1="22" y1="28" x2="22" y2="12" id="路径"></line>
                                            <polyline id="路径" stroke-linecap="square" points="16 18 22 12 28 18"></polyline>
                                            <path d="M30,30 L36,30 C40.4,30 44,26.4 44,22 C44,17.6 40.4,14 36,14 C36,14 36,14 35.9,14 C35.4,6.2 28.9,0 21,0 C13,0 6.4,6.3 6,14.3 C2.5,15.2 0,18.3 0,22 C0,26.4 3.6,30 8,30 L14,30" id="路径" stroke-linecap="square"></path>
                                        </g>
                                    </g>
                                </g>
                            </g>
                        </g>
                    </g>
                </g>
            </g>
        </g>
    </g>
</svg>