<?xml version="1.0" encoding="UTF-8"?>
<svg width="46px" height="46px" viewBox="0 0 46 46" version="1.1" xmlns="http://www.w3.org/2000/svg" xmlns:xlink="http://www.w3.org/1999/xlink">
    <title>cloud-download-93</title>
    <g id="解决方案" stroke="none" stroke-width="1" fill="none" fill-rule="evenodd">
        <g id="场景解决方案-短视频解决方案02✅" transform="translate(-937.000000, -2562.000000)" stroke="#333333" stroke-width="2">
            <g id="应用场景备份-3" transform="translate(0.000000, 2232.000000)">
                <g id="编组-19" transform="translate(372.000000, 72.000000)">
                    <g id="编组-6">
                        <g id="编组-20" transform="translate(0.000000, 220.000000)">
                            <g id="01备份" transform="translate(470.000000, 0.000000)">
                                <g id="编组-23" transform="translate(90.000000, 36.000000)">
                                    <g id="编组-17" transform="translate(4.000000, 0.000000)">
                                        <g id="cloud-download-93" transform="translate(2.000000, 3.000000)">
                                            <line x1="22" y1="18" x2="22" y2="43" id="路径"></line>
                                            <polyline id="路径" stroke-linecap="square" points="29 36 22 43 15 36"></polyline>
                                            <path d="M30,30 L36,30 C40.418,30 44,26.418 44,22 C44,17.582 40.418,14 36,14 C35.983,14 35.967,14.005 35.95,14.005 C35.435,6.187 28.948,0 21,0 C12.962,0 6.419,6.328 6.037,14.271 C2.573,15.151 0,18.263 0,22 C0,26.418 3.582,30 8,30 L14,30" id="路径" stroke-linecap="square"></path>
                                        </g>
                                    </g>
                                </g>
                            </g>
                        </g>
                    </g>
                </g>
            </g>
        </g>
    </g>
</svg>