<?xml version="1.0" encoding="UTF-8"?>
<svg width="44px" height="46px" viewBox="0 0 44 46" version="1.1" xmlns="http://www.w3.org/2000/svg" xmlns:xlink="http://www.w3.org/1999/xlink">
    <title>replace</title>
    <g id="解决方案" stroke="none" stroke-width="1" fill="none" fill-rule="evenodd">
        <g id="场景解决方案-短视频解决方案02✅" transform="translate(-1173.000000, -1817.000000)" stroke="#333333" stroke-width="2">
            <g id="应用场景备份-2" transform="translate(0.000000, 1488.000000)">
                <g id="编组-19" transform="translate(372.000000, 72.000000)">
                    <g id="编组-6">
                        <g id="编组-20" transform="translate(0.000000, 220.000000)">
                            <g id="01备份-2" transform="translate(705.000000, 0.000000)">
                                <g id="编组-23" transform="translate(83.000000, 36.000000)">
                                    <g id="编组-17" transform="translate(11.000000, 0.000000)">
                                        <g id="replace" transform="translate(3.000000, 3.000000)">
                                            <path d="M28,5 L35,5 C38.3137085,5 41,7.6862915 41,11 L41,13" id="路径"></path>
                                            <polyline id="路径" stroke-linecap="square" points="15 23 0 23 0 0 21 0 21 13"></polyline>
                                            <rect id="矩形" stroke-linecap="square" x="21" y="19" width="21" height="23"></rect>
                                            <polyline id="路径" stroke-linecap="square" points="33 0 28 5 33 10"></polyline>
                                            <path d="M14,37 L7,37 C3.6862915,37 1,34.3137085 1,31 L1,29" id="路径"></path>
                                            <polyline id="路径" stroke-linecap="square" points="9 42 14 37 9 32"></polyline>
                                        </g>
                                    </g>
                                </g>
                            </g>
                        </g>
                    </g>
                </g>
            </g>
        </g>
    </g>
</svg>