<?xml version="1.0" encoding="UTF-8"?>
<svg width="46px" height="46px" viewBox="0 0 46 46" version="1.1" xmlns="http://www.w3.org/2000/svg" xmlns:xlink="http://www.w3.org/1999/xlink">
    <title>path-minus</title>
    <g id="解决方案" stroke="none" stroke-width="1" fill="none" fill-rule="evenodd" stroke-linecap="square">
        <g id="场景解决方案-短视频解决方案02✅" transform="translate(-938.000000, -479.000000)" stroke="#333333" stroke-width="2">
            <g id="应用场景">
                <g id="编组-19" transform="translate(372.000000, 72.000000)">
                    <g id="编组-6">
                        <g id="编组-20" transform="translate(0.000000, 370.000000)">
                            <g id="01备份" transform="translate(470.000000, 0.000000)">
                                <g id="编组-23" transform="translate(90.000000, 36.000000)">
                                    <g id="编组-17" transform="translate(4.000000, 0.000000)">
                                        <g id="path-minus" transform="translate(2.000000, 2.000000)">
                                            <polyline id="路径" points="15 8 15 0 45 0 45 30 37 30"></polyline>
                                            <polyline id="路径" points="27 44 31 44 31 40"></polyline>
                                            <polyline id="路径" points="1 40 1 44 5 44"></polyline>
                                            <polyline id="路径" points="5 14 1 14 1 18"></polyline>
                                            <line x1="19" y1="44" x2="13" y2="44" id="路径"></line>
                                            <polyline id="路径" points="27 14 31 14 31 18"></polyline>
                                            <polyline id="路径" points="1 18 1 14 5 14"></polyline>
                                            <line x1="19" y1="14" x2="13" y2="14" id="路径"></line>
                                            <line x1="1" y1="32" x2="1" y2="26" id="路径"></line>
                                            <line x1="31" y1="32" x2="31" y2="26" id="路径"></line>
                                        </g>
                                    </g>
                                </g>
                            </g>
                        </g>
                    </g>
                </g>
            </g>
        </g>
    </g>
</svg>