<?xml version="1.0" encoding="UTF-8"?>
<svg width="45px" height="45px" viewBox="0 0 45 45" version="1.1" xmlns="http://www.w3.org/2000/svg" xmlns:xlink="http://www.w3.org/1999/xlink">
    <title>selfie-2</title>
    <g id="解决方案" stroke="none" stroke-width="1" fill="none" fill-rule="evenodd">
        <g id="场景解决方案-短视频解决方案02✅" transform="translate(-468.000000, -480.000000)" stroke="#333333" stroke-width="2">
            <g id="应用场景">
                <g id="编组-19" transform="translate(372.000000, 72.000000)">
                    <g id="编组-6">
                        <g id="编组-20" transform="translate(0.000000, 370.000000)">
                            <g id="01">
                                <g id="编组-23" transform="translate(90.000000, 36.000000)">
                                    <g id="编组-17" transform="translate(4.000000, 0.000000)">
                                        <g id="selfie-2" transform="translate(3.000000, 3.000000)">
                                            <circle id="椭圆形" stroke-linecap="square" cx="18" cy="16" r="4"></circle>
                                            <path d="M11,30 C11,26.1340068 14.1340068,23 18,23 L18,23 C21.8659932,23 25,26.1340068 25,30" id="路径"></path>
                                            <path d="M17,30 L3,30 C1.34314575,30 0,28.6568542 0,27 L0,9 C0,7.34314575 1.34314575,6 3,6 L21,6" id="路径" stroke-linecap="square"></path>
                                            <path d="M42,4 L32,0 L21,0 C19.3431458,0 18,1.34314575 18,3 C18,4.65685425 19.3431458,6 21,6 L28,6 L36,10 L36,26 C36,28.209139 34.209139,30 32,30 L17,30 C15.457955,30.018021 14.1807654,31.2022281 14.0464562,32.7385187 C13.912147,34.2748093 14.964475,35.6626729 16.48,35.948 L28,38 L34,42" id="路径" stroke-linecap="square"></path>
                                        </g>
                                    </g>
                                </g>
                            </g>
                        </g>
                    </g>
                </g>
            </g>
        </g>
    </g>
</svg>