<?xml version="1.0" encoding="UTF-8"?>
<svg width="46px" height="46px" viewBox="0 0 46 46" version="1.1" xmlns="http://www.w3.org/2000/svg" xmlns:xlink="http://www.w3.org/1999/xlink">
    <title>media-stream</title>
    <g id="解决方案" stroke="none" stroke-width="1" fill="none" fill-rule="evenodd" stroke-linecap="square">
        <g id="场景解决方案-短视频解决方案02✅" transform="translate(-1172.000000, -2561.000000)" stroke="#333333" stroke-width="2">
            <g id="应用场景备份-3" transform="translate(0.000000, 2232.000000)">
                <g id="编组-19" transform="translate(372.000000, 72.000000)">
                    <g id="编组-6">
                        <g id="编组-20" transform="translate(0.000000, 220.000000)">
                            <g id="01备份-2" transform="translate(705.000000, 0.000000)">
                                <g id="编组-23" transform="translate(90.000000, 36.000000)">
                                    <g id="编组-17" transform="translate(4.000000, 0.000000)">
                                        <g id="media-stream" transform="translate(2.000000, 2.000000)">
                                            <path d="M36.953,14.062 C36.5100174,6.89932788 31.0510683,1.05621941 23.935007,0.127899645 C16.8189458,-0.800420121 10.0436864,3.446685 7.778,10.256 C2.82788731,11.3980508 -0.479338051,16.0701007 0.0887978449,21.1183793 C0.656933741,26.166658 4.91987006,29.986758 10,30 L36,30 C40.2172489,29.978781 43.6937648,26.6873854 43.9454854,22.477602 C44.1972061,18.2678187 41.1376716,14.5856052 36.953,14.062 Z" id="路径"></path>
                                            <line x1="36" y1="40" x2="44" y2="40" id="路径"></line>
                                            <line x1="0" y1="40" x2="22" y2="40" id="路径"></line>
                                            <circle id="椭圆形" cx="26" cy="40" r="4"></circle>
                                            <polygon id="路径" points="19 11 19 21 27 16"></polygon>
                                        </g>
                                    </g>
                                </g>
                            </g>
                        </g>
                    </g>
                </g>
            </g>
        </g>
    </g>
</svg>