<?xml version="1.0" encoding="UTF-8"?>
<svg width="42px" height="42px" viewBox="0 0 42 42" version="1.1" xmlns="http://www.w3.org/2000/svg" xmlns:xlink="http://www.w3.org/1999/xlink">
    <title>zoom-88</title>
    <g id="解决方案" stroke="none" stroke-width="1" fill="none" fill-rule="evenodd">
        <g id="场景解决方案-短视频解决方案02✅" transform="translate(-705.000000, -481.000000)" stroke="#333333" stroke-width="2">
            <g id="应用场景">
                <g id="编组-19" transform="translate(372.000000, 72.000000)">
                    <g id="编组-6">
                        <g id="编组-20" transform="translate(0.000000, 370.000000)">
                            <g id="01" transform="translate(235.000000, 0.000000)">
                                <g id="编组-23" transform="translate(90.000000, 36.000000)">
                                    <g id="编组-17" transform="translate(4.000000, 0.000000)">
                                        <g id="zoom-88" transform="translate(5.000000, 4.000000)">
                                            <polyline id="路径" stroke-linecap="square" points="0 12 0 0 12 0"></polyline>
                                            <polyline id="路径" stroke-linecap="square" points="28 0 40 0 40 12"></polyline>
                                            <polyline id="路径" stroke-linecap="square" points="40 28 40 40 28 40"></polyline>
                                            <polyline id="路径" stroke-linecap="square" points="12 40 0 40 0 28"></polyline>
                                            <path d="M19.9185099,11 L19.9185099,17.013732 C19.9185099,18.5661083 19.1974607,20.0304275 17.9669932,20.9769062 L16.4,22.1822412 L16.4,22.1822412" id="路径-3" stroke-linecap="round" stroke-linejoin="round"></path>
                                            <path d="M12.8,27.2 C14.9042272,28.6773702 17.0084545,29.4160553 19.1126817,29.4160553 C21.2169089,29.4160553 23.3211362,28.6773702 25.4253634,27.2" id="路径-4" stroke-linecap="round" stroke-linejoin="round"></path>
                                            <line x1="11.6923077" y1="12.8" x2="11.6923077" y2="18.3384615" id="路径-2" stroke-linecap="round" stroke-linejoin="round"></line>
                                            <line x1="27.8923077" y1="12.8" x2="27.8923077" y2="18.3384615" id="路径-2备份" stroke-linecap="round" stroke-linejoin="round"></line>
                                        </g>
                                    </g>
                                </g>
                            </g>
                        </g>
                    </g>
                </g>
            </g>
        </g>
    </g>
</svg>