<?xml version="1.0" encoding="UTF-8"?>
<svg width="35px" height="42px" viewBox="0 0 35 42" version="1.1" xmlns="http://www.w3.org/2000/svg" xmlns:xlink="http://www.w3.org/1999/xlink">
    <title>路径</title>
    <g id="解决方案" stroke="none" stroke-width="1" fill="none" fill-rule="evenodd">
        <g id="场景解决方案-短视频解决方案02✅" transform="translate(-473.000000, -1075.000000)" fill-rule="nonzero" stroke="#333333" stroke-width="2">
            <g id="应用场景备份" transform="translate(0.000000, 744.000000)">
                <g id="编组-19" transform="translate(372.000000, 72.000000)">
                    <g id="编组-6">
                        <g id="编组-20" transform="translate(0.000000, 220.000000)">
                            <g id="01">
                                <g id="编组-23" transform="translate(90.000000, 36.000000)">
                                    <g id="编组-17" transform="translate(4.000000, 0.000000)">
                                        <path d="M40.8907822,20.5566205 C37.6485623,20.5566205 34.4915395,19.4869246 31.9024967,17.5179269 L31.9024967,31.2819785 C31.9024967,38.3107325 26.5540173,44 19.9512484,44 C13.3484795,44 8,38.3107325 8,31.2819785 C8,24.2532245 13.3484795,18.5639569 19.9512484,18.5639569 C20.6091587,18.5639569 21.2528695,18.6207549 21.8776476,18.7296178 L21.8776476,26.018696 C21.2812685,25.7820376 20.6422909,25.6589753 19.99858,25.6589753 C17.0545498,25.6589753 14.6643001,28.2006863 14.6643001,31.3340433 C14.6643001,34.4674003 17.0545498,37.0091113 19.99858,37.0091113 C22.9426103,37.0091113 25.3281268,34.4674003 25.3281268,31.3340433 L25.3281268,4 L31.9971601,4 C31.9971601,9.25381612 36.00142,13.513667 40.9381138,13.513667 L40.9381138,20.5566205 L40.8907822,20.5566205" id="路径"></path>
                                    </g>
                                </g>
                            </g>
                        </g>
                    </g>
                </g>
            </g>
        </g>
    </g>
</svg>