<?xml version="1.0" encoding="UTF-8"?>
<svg width="46px" height="44px" viewBox="0 0 46 44" version="1.1" xmlns="http://www.w3.org/2000/svg" xmlns:xlink="http://www.w3.org/1999/xlink">
    <title>video-off</title>
    <g id="解决方案" stroke="none" stroke-width="1" fill="none" fill-rule="evenodd">
        <g id="场景解决方案-短视频解决方案02✅" transform="translate(-702.000000, -2712.000000)" stroke="#333333" stroke-width="2">
            <g id="应用场景备份-3" transform="translate(0.000000, 2232.000000)">
                <g id="编组-19" transform="translate(372.000000, 72.000000)">
                    <g id="编组-6">
                        <g id="编组-20" transform="translate(0.000000, 370.000000)">
                            <g id="01" transform="translate(235.000000, 0.000000)">
                                <g id="编组-23" transform="translate(90.000000, 36.000000)">
                                    <g id="编组-17" transform="translate(4.000000, 0.000000)">
                                        <g id="video-off" transform="translate(2.000000, 4.000000)">
                                            <circle id="椭圆形" cx="8.5" cy="12.5" r="2.5"></circle>
                                            <path d="M31,11 L31,8 C31,5.790861 29.209139,4 27,4 L4,4 C1.790861,4 0,5.790861 0,8 L0,32 C0,34.209139 1.790861,36 4,36 L6,36" id="路径"></path>
                                            <path d="M13.071,36 L27,36 C29.209139,36 31,34.209139 31,32 L31,25 L44,31 L44,9 L36.7,12.368" id="路径" stroke-linecap="square"></path>
                                            <line x1="42" y1="0" x2="2" y2="40" id="路径" stroke-linecap="square"></line>
                                        </g>
                                    </g>
                                </g>
                            </g>
                        </g>
                    </g>
                </g>
            </g>
        </g>
    </g>
</svg>