<?xml version="1.0" encoding="UTF-8"?>
<svg width="43px" height="43px" viewBox="0 0 43 43" version="1.1" xmlns="http://www.w3.org/2000/svg" xmlns:xlink="http://www.w3.org/1999/xlink">
    <title>style</title>
    <g id="解决方案" stroke="none" stroke-width="1" fill="none" fill-rule="evenodd">
        <g id="场景解决方案-短视频解决方案02✅" transform="translate(-1174.000000, -481.000000)" stroke="#333333" stroke-width="2">
            <g id="应用场景">
                <g id="编组-19" transform="translate(372.000000, 72.000000)">
                    <g id="编组-6">
                        <g id="编组-20" transform="translate(0.000000, 370.000000)">
                            <g id="01备份-2" transform="translate(705.000000, 0.000000)">
                                <g id="编组-23" transform="translate(90.000000, 36.000000)">
                                    <g id="编组-17" transform="translate(4.000000, 0.000000)">
                                        <g id="style" transform="translate(4.000000, 4.000000)">
                                            <polyline id="路径" stroke-linecap="square" points="23 1 0 1 0 41 40 41 40 18"></polyline>
                                            <path d="M17.563,17.057 L34.144,1.177 C35.7124887,-0.39148869 38.2555113,-0.39148869 39.824,1.177 C41.3924887,2.74548869 41.3924887,5.28851131 39.824,6.857 L23.944,23.439" id="路径"></path>
                                            <path d="M11.462,19.151 C13.3119493,17.2683496 16.0298046,16.5230623 18.5812995,17.1987536 C21.1327944,17.8744449 23.1255551,19.8672056 23.8012464,22.4187005 C24.4769377,24.9701954 23.7316504,27.6880507 21.849,29.538 C18.98,32.406 8,33 8,33 C8,33 8.594,22.02 11.462,19.151 Z" id="路径" stroke-linecap="square"></path>
                                        </g>
                                    </g>
                                </g>
                            </g>
                        </g>
                    </g>
                </g>
            </g>
        </g>
    </g>
</svg>