<?xml version="1.0" encoding="UTF-8"?>
<svg width="42px" height="44px" viewBox="0 0 42 44" version="1.1" xmlns="http://www.w3.org/2000/svg" xmlns:xlink="http://www.w3.org/1999/xlink">
    <title>reload</title>
    <g id="解决方案" stroke="none" stroke-width="1" fill="none" fill-rule="evenodd">
        <g id="场景解决方案-短视频解决方案02✅" transform="translate(-1409.000000, -2712.000000)" stroke="#333333" stroke-width="2">
            <g id="应用场景备份-3" transform="translate(0.000000, 2232.000000)">
                <g id="编组-19" transform="translate(372.000000, 72.000000)">
                    <g id="编组-6">
                        <g id="编组-20" transform="translate(0.000000, 370.000000)">
                            <g id="01备份-3" transform="translate(940.000000, 0.000000)">
                                <g id="编组-23" transform="translate(83.000000, 36.000000)">
                                    <g id="编组-17" transform="translate(11.000000, 0.000000)">
                                        <g id="reload" transform="translate(4.000000, 3.000000)">
                                            <path d="M0,21 C0,10 9,1 20,1 C27.8,1 34.6,5.5 37.9,12" id="路径"></path>
                                            <path d="M40,21 C40,32 31,41 20,41 C12.2,41 5.4,36.5 2.1,30" id="路径"></path>
                                            <circle id="椭圆形" stroke-linecap="square" cx="20" cy="21" r="6"></circle>
                                            <polyline id="路径" stroke-linecap="square" points="39.6 0.3 38 12.2 26.1 10.6"></polyline>
                                            <polyline id="路径" stroke-linecap="square" points="0.4 41.7 2 29.8 13.9 31.4"></polyline>
                                        </g>
                                    </g>
                                </g>
                            </g>
                        </g>
                    </g>
                </g>
            </g>
        </g>
    </g>
</svg>