<?xml version="1.0" encoding="UTF-8"?>
<svg width="42px" height="46px" viewBox="0 0 42 46" version="1.1" xmlns="http://www.w3.org/2000/svg" xmlns:xlink="http://www.w3.org/1999/xlink">
    <title>worl-marker</title>
    <g id="解决方案" stroke="none" stroke-width="1" fill="none" fill-rule="evenodd">
        <g id="场景解决方案-短视频解决方案02✅" transform="translate(-704.000000, -1817.000000)" stroke="#333333" stroke-width="2">
            <g id="应用场景备份-2" transform="translate(0.000000, 1488.000000)">
                <g id="编组-19" transform="translate(372.000000, 72.000000)">
                    <g id="编组-6">
                        <g id="编组-20" transform="translate(0.000000, 220.000000)">
                            <g id="01" transform="translate(235.000000, 0.000000)">
                                <g id="编组-23" transform="translate(86.000000, 36.000000)">
                                    <g id="编组-17" transform="translate(8.000000, 0.000000)">
                                        <g id="worl-marker" transform="translate(4.000000, 2.000000)">
                                            <path d="M8.536,40.39 C9.798,39.457 10.766,37.086 10.766,37.086 C10.766,37.086 11.856,36.329 12.197,35.363 C12.538,34.397 12.216,33.085 12.216,33.085 C12.216,33.085 13.182,30.249 12.727,29.454 C12.272,28.659 10.341,28.147 10.341,28.147 C10.341,28.147 9.546,26.67 7.898,26.386 C6.818,26.272 5.739,25.534 5.739,24 C5.739,22.466 7.273,19.966 7.273,19.966 C7.273,19.966 8.864,19.188 9.091,18.62 C9.318,18.052 9.396,16.728 9.396,16.728 C9.396,16.728 10.909,14.058 10.057,12.523 C9.785,12.034 8.523,11.671 8.523,11.671 L6.753,9.016" id="路径"></path>
                                            <path d="M35.784,36.284 C33.854,35.359 30.478,34.586 30.478,34.586 C30.478,34.586 28.011,31.84 26.392,32.067 C24.773,32.294 23.125,34.112 23.125,34.112 C23.125,34.112 23.239,37.464 22.727,37.635 C22.216,37.805 20.852,36.896 20,37.578 C19.148,38.26 19.639,40.182 19.639,40.182 C19.639,40.182 17.784,40.76 17.557,41.385 C17.33,42.01 18.232,43.402 18.404,43.936" id="路径"></path>
                                            <path d="M22.95,4.216 C21.987,4.074 21.002,4 20,4 C8.954,4 0,12.954 0,24 C0,35.046 8.954,44 20,44 C31.046,44 40,35.046 40,24 C40,21.911 39.68,19.897 39.085,18.003" id="路径"></path>
                                            <line x1="30" y1="16" x2="30" y2="23" id="路径" stroke-linecap="square"></line>
                                            <circle id="椭圆形" stroke-linecap="square" cx="30" cy="8" r="8"></circle>
                                        </g>
                                    </g>
                                </g>
                            </g>
                        </g>
                    </g>
                </g>
            </g>
        </g>
    </g>
</svg>