<?xml version="1.0" encoding="UTF-8"?>
<svg width="43px" height="44px" viewBox="0 0 43 44" version="1.1" xmlns="http://www.w3.org/2000/svg" xmlns:xlink="http://www.w3.org/1999/xlink">
    <title>find-replace</title>
    <g id="解决方案" stroke="none" stroke-width="1" fill="none" fill-rule="evenodd">
        <g id="场景解决方案-短视频解决方案02✅" transform="translate(-1406.000000, -1818.000000)" stroke="#333333" stroke-width="2">
            <g id="应用场景备份-2" transform="translate(0.000000, 1488.000000)">
                <g id="编组-19" transform="translate(372.000000, 72.000000)">
                    <g id="编组-6">
                        <g id="编组-20" transform="translate(0.000000, 220.000000)">
                            <g id="01备份-3" transform="translate(940.000000, 0.000000)">
                                <g id="编组-23" transform="translate(90.000000, 36.000000)">
                                    <g id="编组-17" transform="translate(1.000000, 0.000000)">
                                        <g id="find-replace" transform="translate(4.000000, 4.000000)">
                                            <polyline id="路径" stroke-linecap="square" points="31.877 0 30.646 9.477 21.169 8.246"></polyline>
                                            <line x1="40" y1="40" x2="27.323" y2="27.323" id="路径" stroke-linecap="square"></line>
                                            <path d="M-1.0971315e-05,16 C-0.008761015,8.47714254 5.23035517,1.96676458 12.5809901,0.366256123 C19.931625,-1.23425234 27.4032369,2.50852419 30.523,9.354" id="路径"></path>
                                            <path d="M32.000011,16 C32.008761,23.5228575 26.7696448,30.0332354 19.4190099,31.6337439 C12.068375,33.2342523 4.59676314,29.4914758 1.477,22.646" id="路径"></path>
                                            <polyline id="路径" stroke-linecap="square" points="0.123 32 1.354 22.523 10.831 23.754"></polyline>
                                        </g>
                                    </g>
                                </g>
                            </g>
                        </g>
                    </g>
                </g>
            </g>
        </g>
    </g>
</svg>