<?xml version="1.0" encoding="UTF-8"?>
<svg width="46px" height="46px" viewBox="0 0 46 46" version="1.1" xmlns="http://www.w3.org/2000/svg" xmlns:xlink="http://www.w3.org/1999/xlink">
    <title>hold</title>
    <g id="解决方案" stroke="none" stroke-width="1" fill="none" fill-rule="evenodd">
        <g id="场景解决方案-短视频解决方案02✅" transform="translate(-1172.000000, -1073.000000)" stroke="#333333" stroke-width="2">
            <g id="应用场景备份" transform="translate(0.000000, 744.000000)">
                <g id="编组-19" transform="translate(372.000000, 72.000000)">
                    <g id="编组-6">
                        <g id="编组-20" transform="translate(0.000000, 220.000000)">
                            <g id="01备份-2" transform="translate(705.000000, 0.000000)">
                                <g id="编组-23" transform="translate(90.000000, 36.000000)">
                                    <g id="编组-17" transform="translate(4.000000, 0.000000)">
                                        <g id="hold" transform="translate(2.000000, 2.000000)">
                                            <circle id="椭圆形" stroke-linecap="square" cx="35" cy="9" r="9"></circle>
                                            <polyline id="路径" stroke-linecap="square" points="35 6 35 9 38 9"></polyline>
                                            <line x1="7" y1="24" x2="7" y2="30" id="路径" stroke-linecap="square"></line>
                                            <path d="M24.113,22.223 L13,20 L13,11 C13,9.343 11.657,8 10,8 L10,8 C8.343,8 7,9.343 7,11 L7,24 L3,24 C1.895,24 1,24.895 1,26 L1,34 C1,37.5 6,40.062 6,44 L24,44 L27.258,26.893 C27.669,24.737 26.266,22.653 24.113,22.223 Z" id="路径" stroke-linecap="square"></path>
                                            <path d="M1.999,15.999 C0.744,14.328 0,12.251 0,9.999 C0,4.476 4.477,-0.001 10,-0.001 C15.523,-0.001 20,4.476 20,9.999 C20,12.251 19.256,14.328 18,16" id="路径"></path>
                                        </g>
                                    </g>
                                </g>
                            </g>
                        </g>
                    </g>
                </g>
            </g>
        </g>
    </g>
</svg>