<?xml version="1.0" encoding="UTF-8"?>
<svg width="44px" height="40px" viewBox="0 0 44 40" version="1.1" xmlns="http://www.w3.org/2000/svg" xmlns:xlink="http://www.w3.org/1999/xlink">
    <title>movie-62</title>
    <g id="解决方案" stroke="none" stroke-width="1" fill="none" fill-rule="evenodd">
        <g id="场景解决方案-短视频解决方案02✅" transform="translate(-938.000000, -1226.000000)" stroke="#333333" stroke-width="2">
            <g id="应用场景备份" transform="translate(0.000000, 744.000000)">
                <g id="编组-19" transform="translate(372.000000, 72.000000)">
                    <g id="编组-6">
                        <g id="编组-20" transform="translate(0.000000, 370.000000)">
                            <g id="01备份" transform="translate(470.000000, 0.000000)">
                                <g id="编组-23" transform="translate(90.000000, 36.000000)">
                                    <g id="编组-17" transform="translate(4.000000, 0.000000)">
                                        <g id="movie-62" transform="translate(3.000000, 5.000000)">
                                            <line x1="0" y1="7" x2="42" y2="7" id="路径"></line>
                                            <line x1="21" y1="0" x2="21" y2="7" id="路径"></line>
                                            <line x1="14" y1="0" x2="14" y2="7" id="路径"></line>
                                            <line x1="7" y1="0" x2="7" y2="7" id="路径"></line>
                                            <line x1="35" y1="0" x2="35" y2="7" id="路径"></line>
                                            <line x1="28" y1="0" x2="28" y2="7" id="路径"></line>
                                            <line x1="42" y1="31" x2="0" y2="31" id="路径"></line>
                                            <line x1="21" y1="31" x2="21" y2="38" id="路径"></line>
                                            <line x1="14" y1="31" x2="14" y2="38" id="路径"></line>
                                            <line x1="7" y1="31" x2="7" y2="38" id="路径"></line>
                                            <line x1="35" y1="31" x2="35" y2="38" id="路径"></line>
                                            <line x1="28" y1="31" x2="28" y2="38" id="路径"></line>
                                            <line x1="21" y1="7" x2="21" y2="31" id="路径" stroke-linecap="square"></line>
                                            <rect id="矩形" stroke-linecap="square" x="0" y="0" width="42" height="38"></rect>
                                        </g>
                                    </g>
                                </g>
                            </g>
                        </g>
                    </g>
                </g>
            </g>
        </g>
    </g>
</svg>