<?xml version="1.0" encoding="UTF-8"?>
<svg width="34px" height="46px" viewBox="0 0 34 46" version="1.1" xmlns="http://www.w3.org/2000/svg" xmlns:xlink="http://www.w3.org/1999/xlink">
    <title>mic-2</title>
    <g id="解决方案" stroke="none" stroke-width="1" fill="none" fill-rule="evenodd" stroke-linecap="square">
        <g id="场景解决方案-短视频解决方案02✅" transform="translate(-943.000000, -1073.000000)" stroke="#333333" stroke-width="2">
            <g id="应用场景备份" transform="translate(0.000000, 744.000000)">
                <g id="编组-19" transform="translate(372.000000, 72.000000)">
                    <g id="编组-6">
                        <g id="编组-20" transform="translate(0.000000, 220.000000)">
                            <g id="01备份" transform="translate(470.000000, 0.000000)">
                                <g id="编组-23" transform="translate(90.000000, 36.000000)">
                                    <g id="编组-17" transform="translate(4.000000, 0.000000)">
                                        <g id="mic-2" transform="translate(8.000000, 2.000000)">
                                            <path d="M28,26 L28,28 C28,34.627 22.627,40 16,40 L16,40 C9.373,40 4,34.627 4,28 L4,26" id="路径"></path>
                                            <line x1="0" y1="26" x2="32" y2="26" id="路径"></line>
                                            <line x1="16" y1="44" x2="16" y2="40" id="路径"></line>
                                            <path d="M4,20 L4,12 C4,5.373 9.373,0 16,0 L16,0 C22.627,0 28,5.373 28,12 L28,20" id="路径"></path>
                                        </g>
                                    </g>
                                </g>
                            </g>
                        </g>
                    </g>
                </g>
            </g>
        </g>
    </g>
</svg>