<?xml version="1.0" encoding="UTF-8"?>
<svg width="46px" height="38px" viewBox="0 0 46 38" version="1.1" xmlns="http://www.w3.org/2000/svg" xmlns:xlink="http://www.w3.org/1999/xlink">
    <title>dont-touch-eyes</title>
    <g id="解决方案" stroke="none" stroke-width="1" fill="none" fill-rule="evenodd">
        <g id="场景解决方案-短视频解决方案✅" transform="translate(-467.000000, -2133.000000)" stroke="#333333" stroke-width="2">
            <g id="应用场景" transform="translate(0.000000, 1798.000000)">
                <g id="编组-19" transform="translate(372.000000, 72.000000)">
                    <g id="编组-6">
                        <g id="编组-20" transform="translate(0.000000, 220.000000)">
                            <g id="01">
                                <g id="编组-23" transform="translate(90.000000, 37.000000)">
                                    <g id="编组-17" transform="translate(4.000000, 0.000000)">
                                        <g id="dont-touch-eyes" transform="translate(2.000000, 7.000000)">
                                            <path d="M38.971,21.769 C40.6650292,20.0661347 42.2134424,18.2243626 43.6,16.263 C44.1308172,15.5038824 44.1332107,14.4946267 43.606,13.733 C41.083,10.115 33.056,0 22,0 C10.85,0 2.878,10.13 0.391,13.74 C-0.127236524,14.4992674 -0.123657303,15.499461 0.4,16.255 C2.9,19.861 10.937,30 22,30 C24.9719448,29.971215 27.8985433,29.2678603 30.559,27.943" id="路径"></path>
                                            <path d="M30.488,12.023 C29.008613,7.79302185 24.6426794,5.29581082 20.2465977,6.16515942 C15.850516,7.03450801 12.7637116,11.0055377 13.0057165,15.4802148 C13.2477215,19.9548918 16.7448002,23.569844 21.209,23.96" id="路径" stroke-linecap="square"></path>
                                            <path d="M43.143,24.932 L34.021,18.016 C32.5974753,16.9367007 30.7062848,16.6988283 29.0598218,17.3919873 C27.4133588,18.0851462 26.2617601,19.604029 26.0388218,21.3764873 C25.8158835,23.1489455 26.5554753,24.9057007 27.979,25.985 L39.871,35" id="路径" stroke-linecap="square"></path>
                                        </g>
                                    </g>
                                </g>
                            </g>
                        </g>
                    </g>
                </g>
            </g>
        </g>
    </g>
</svg>