<?xml version="1.0" encoding="UTF-8"?>
<svg width="46px" height="46px" viewBox="0 0 46 46" version="1.1" xmlns="http://www.w3.org/2000/svg" xmlns:xlink="http://www.w3.org/1999/xlink">
    <title>paper-design</title>
    <g id="解决方案" stroke="none" stroke-width="1" fill="none" fill-rule="evenodd">
        <g id="场景解决方案-短视频解决方案02✅" transform="translate(-1409.000000, -1967.000000)" stroke="#333333" stroke-width="2">
            <g id="应用场景备份-2" transform="translate(0.000000, 1488.000000)">
                <g id="编组-19" transform="translate(372.000000, 72.000000)">
                    <g id="编组-6">
                        <g id="编组-20" transform="translate(0.000000, 370.000000)">
                            <g id="01备份-3" transform="translate(940.000000, 0.000000)">
                                <g id="编组-23" transform="translate(90.000000, 36.000000)">
                                    <g id="编组-17" transform="translate(6.000000, 0.000000)">
                                        <g id="paper-design" transform="translate(2.000000, 2.000000)">
                                            <path d="M38,6 L38,5 C38,2.239 35.761,0 33,0 L5,0 C7.761,0 10,2.239 10,5 L10,39 C10,41.761 12.239,44 15,44 L38,44" id="路径"></path>
                                            <line x1="38" y1="38" x2="38" y2="14" id="路径"></line>
                                            <path d="M30,22 L26,18 L38,6 C39.105,4.895 40.895,4.895 42,6 L42,6 C43.105,7.105 43.105,8.895 42,10 L30,22 Z" id="路径" stroke-linecap="square"></path>
                                            <path d="M20,38 L20,39 C20,43.5 15,44 15,44 C15,44 38.657,44 39,44 C41.761,44 44,41.761 44,39 L44,38 L20,38 Z" id="路径" stroke-linecap="square"></path>
                                            <path d="M10,6 L0,6 L0,5 C0,2.239 2.239,0 5,0 L5,0 C7.761,0 10,2.239 10,5 L10,6 Z" id="路径" stroke-linecap="square"></path>
                                            <path d="M19.418,22.925 C20.98,21.363 23.513,21.363 25.075,22.925 C26.637,24.487 26.637,27.02 25.075,28.582 C23.513,30.144 18.004,29.996 18.004,29.996 C18.004,29.996 17.856,24.487 19.418,22.925 Z" id="路径" stroke-linecap="square"></path>
                                        </g>
                                    </g>
                                </g>
                            </g>
                        </g>
                    </g>
                </g>
            </g>
        </g>
    </g>
</svg>