<?xml version="1.0" encoding="UTF-8"?>
<svg width="44px" height="44px" viewBox="0 0 44 44" version="1.1" xmlns="http://www.w3.org/2000/svg" xmlns:xlink="http://www.w3.org/1999/xlink">
    <title>video-playlist</title>
    <g id="解决方案" stroke="none" stroke-width="1" fill="none" fill-rule="evenodd" stroke-linecap="square">
        <g id="场景解决方案-短视频解决方案02✅" transform="translate(-1173.000000, -1969.000000)" stroke="#333333" stroke-width="2">
            <g id="应用场景备份-2" transform="translate(0.000000, 1488.000000)">
                <g id="编组-19" transform="translate(372.000000, 72.000000)">
                    <g id="编组-6">
                        <g id="编组-20" transform="translate(0.000000, 370.000000)">
                            <g id="01备份-2" transform="translate(705.000000, 0.000000)">
                                <g id="编组-23" transform="translate(90.000000, 36.000000)">
                                    <g id="编组-17" transform="translate(4.000000, 0.000000)">
                                        <g id="video-playlist" transform="translate(3.000000, 3.000000)">
                                            <path d="M4,13 L38,13 C40.209139,13 42,14.790861 42,17 L42,39 C42,41.209139 40.209139,43 38,43 L4,43 C1.790861,43 0,41.209139 0,39 L0,17 C0,14.790861 1.790861,13 4,13 Z" id="路径"></path>
                                            <polygon id="路径" points="18 23 26 28 18 33"></polygon>
                                            <line x1="36" y1="7" x2="6" y2="7" id="路径"></line>
                                            <line x1="32" y1="1" x2="10" y2="1" id="路径"></line>
                                        </g>
                                    </g>
                                </g>
                            </g>
                        </g>
                    </g>
                </g>
            </g>
        </g>
    </g>
</svg>