<?xml version="1.0" encoding="UTF-8"?>
<svg width="46px" height="38px" viewBox="0 0 46 38" version="1.1" xmlns="http://www.w3.org/2000/svg" xmlns:xlink="http://www.w3.org/1999/xlink">
    <title>pc-play-media</title>
    <g id="解决方案" stroke="none" stroke-width="1" fill="none" fill-rule="evenodd" stroke-linecap="square">
        <g id="场景解决方案-短视频解决方案02✅" transform="translate(-937.000000, -1971.000000)" stroke="#333333" stroke-width="2">
            <g id="应用场景备份-2" transform="translate(0.000000, 1488.000000)">
                <g id="编组-19" transform="translate(372.000000, 72.000000)">
                    <g id="编组-6">
                        <g id="编组-20" transform="translate(0.000000, 370.000000)">
                            <g id="01备份" transform="translate(470.000000, 0.000000)">
                                <g id="编组-23" transform="translate(90.000000, 36.000000)">
                                    <g id="编组-17" transform="translate(4.000000, 0.000000)">
                                        <g id="pc-play-media" transform="translate(2.000000, 6.000000)">
                                            <path d="M4,23 L4,4 C4,1.790861 5.790861,0 8,0 L36,0 C38.209139,0 40,1.790861 40,4 L40,23" id="路径"></path>
                                            <path d="M29,28 L29,31 L15,31 L15,28 L0,28 L0,29 C0,32.8659932 3.13400675,36 7,36 L37,36 C40.8659932,36 44,32.8659932 44,29 L44,28 L29,28 Z" id="路径"></path>
                                            <polygon id="路径" points="19 9 19 19 27 14"></polygon>
                                        </g>
                                    </g>
                                </g>
                            </g>
                        </g>
                    </g>
                </g>
            </g>
        </g>
    </g>
</svg>