<?xml version="1.0" encoding="UTF-8"?>
<svg width="46px" height="38px" viewBox="0 0 46 38" version="1.1" xmlns="http://www.w3.org/2000/svg" xmlns:xlink="http://www.w3.org/1999/xlink">
    <title>animation-31</title>
    <g id="解决方案" stroke="none" stroke-width="1" fill="none" fill-rule="evenodd" stroke-linecap="square">
        <g id="场景解决方案-短视频解决方案02✅" transform="translate(-1407.000000, -1227.000000)" stroke="#333333" stroke-width="2">
            <g id="应用场景备份" transform="translate(0.000000, 744.000000)">
                <g id="编组-19" transform="translate(372.000000, 72.000000)">
                    <g id="编组-6">
                        <g id="编组-20" transform="translate(0.000000, 370.000000)">
                            <g id="01备份-3" transform="translate(940.000000, 0.000000)">
                                <g id="编组-23" transform="translate(90.000000, 36.000000)">
                                    <g id="编组-17" transform="translate(4.000000, 0.000000)">
                                        <g id="animation-31" transform="translate(2.000000, 6.000000)">
                                            <rect id="矩形" x="16" y="10" width="12" height="16"></rect>
                                            <polyline id="路径" points="0 10 8 10 8 26 0 26"></polyline>
                                            <polyline id="路径" points="44 10 36 10 36 26 44 26"></polyline>
                                            <path d="M41,36 L3,36 C1.343,36 0,34.657 0,33 L0,3 C0,1.343 1.343,0 3,0 L41,0 C42.657,0 44,1.343 44,3 L44,33 C44,34.657 42.657,36 41,36 Z" id="路径"></path>
                                        </g>
                                    </g>
                                </g>
                            </g>
                        </g>
                    </g>
                </g>
            </g>
        </g>
    </g>
</svg>